<svg version="1.1" viewBox="0.0 0.0 600.0 371.0" fill="none" stroke="none" stroke-linecap="square" stroke-miterlimit="10" width="600" height="371" xmlns:xlink="http://www.w3.org/1999/xlink" xmlns="http://www.w3.org/2000/svg"><path fill="#ffffff" d="M0 0L600.0 0L600.0 371.0L0 371.0L0 0Z" fill-rule="nonzero"/><path stroke="#cccccc" stroke-width="1.0" stroke-linecap="butt" d="M101.5 86.5L101.5 300.5" fill-rule="nonzero"/><path stroke="#cccccc" stroke-width="1.0" stroke-linecap="butt" d="M225.5 86.5L225.5 300.5" fill-rule="nonzero"/><path stroke="#cccccc" stroke-width="1.0" stroke-linecap="butt" d="M278.5 86.5L278.5 300.5" fill-rule="nonzero"/><path stroke="#cccccc" stroke-width="1.0" stroke-linecap="butt" d="M402.5 86.5L402.5 300.5" fill-rule="nonzero"/><path stroke="#cccccc" stroke-width="1.0" stroke-linecap="butt" d="M455.5 86.5L455.5 300.5" fill-rule="nonzero"/><path stroke="#cccccc" stroke-width="1.0" stroke-linecap="butt" d="M579.5 86.5L579.5 300.5" fill-rule="nonzero"/><path stroke="#333333" stroke-width="1.0" stroke-linecap="butt" d="M101.5 300.5L581.5 300.5" fill-rule="nonzero"/><path stroke="#cccccc" stroke-width="1.0" stroke-linecap="butt" d="M101.5 257.5L581.5 257.5" fill-rule="nonzero"/><path stroke="#cccccc" stroke-width="1.0" stroke-linecap="butt" d="M101.5 214.5L581.5 214.5" fill-rule="nonzero"/><path stroke="#cccccc" stroke-width="1.0" stroke-linecap="butt" d="M101.5 171.5L581.5 171.5" fill-rule="nonzero"/><path stroke="#cccccc" stroke-width="1.0" stroke-linecap="butt" d="M101.5 129.5L581.5 129.5" fill-rule="nonzero"/><path stroke="#cccccc" stroke-width="1.0" stroke-linecap="butt" d="M101.5 86.5L581.5 86.5" fill-rule="nonzero"/><clipPath id="id_0"><path d="M101.55 86.28333L581.45 86.28333L581.45 300.45L101.55 300.45L101.55 86.28333Z" clip-rule="nonzero"/></clipPath><path stroke="#4285f4" stroke-width="2.0" stroke-linecap="butt" clip-path="url(#id_0)" d="M101.55 299.3672L154.87222 299.45798L208.19444 298.64587L261.51666 298.19525L314.8389 296.57272L368.1611 293.14606L421.48334 287.01404L474.80554 274.84082L528.1278 250.22192L581.45 200.26454" fill-rule="nonzero"/><path stroke="#ea4335" stroke-width="2.0" stroke-linecap="butt" clip-path="url(#id_0)" d="M101.55 299.2777L154.87222 299.3679L208.19444 298.91702L261.51666 299.63843L314.8389 299.3679L368.1611 298.64648L421.48334 297.8349L474.80554 296.12158L528.1278 292.60474L581.45 285.84158" fill-rule="nonzero"/><path fill="#000000" fill-opacity="0.0" clip-path="url(#id_0)" d="M104.55 299.3672C104.55 301.02402 103.206856 302.3672 101.55 302.3672C99.89314 302.3672 98.55 301.02402 98.55 299.3672C98.55 297.71033 99.89314 296.3672 101.55 296.3672C103.206856 296.3672 104.55 297.71033 104.55 299.3672Z" fill-rule="nonzero"/><path fill="#000000" fill-opacity="0.0" clip-path="url(#id_0)" d="M157.87222 299.45798C157.87222 301.11484 156.52908 302.45798 154.87222 302.45798C153.21536 302.45798 151.87222 301.11484 151.87222 299.45798C151.87222 297.80112 153.21536 296.45798 154.87222 296.45798C156.52908 296.45798 157.87222 297.80112 157.87222 299.45798Z" fill-rule="nonzero"/><path fill="#000000" fill-opacity="0.0" clip-path="url(#id_0)" d="M211.19444 298.64587C211.19444 300.3027 209.8513 301.64587 208.19444 301.64587C206.5376 301.64587 205.19444 300.3027 205.19444 298.64587C205.19444 296.989 206.5376 295.64587 208.19444 295.64587C209.8513 295.64587 211.19444 296.989 211.19444 298.64587Z" fill-rule="nonzero"/><path fill="#000000" fill-opacity="0.0" clip-path="url(#id_0)" d="M264.51666 298.19525C264.51666 299.8521 263.17352 301.19525 261.51666 301.19525C259.8598 301.19525 258.51666 299.8521 258.51666 298.19525C258.51666 296.5384 259.8598 295.19525 261.51666 295.19525C263.17352 295.19525 264.51666 296.5384 264.51666 298.19525Z" fill-rule="nonzero"/><path fill="#000000" fill-opacity="0.0" clip-path="url(#id_0)" d="M317.8389 296.57272C317.8389 298.22958 316.49576 299.57272 314.8389 299.57272C313.18204 299.57272 311.8389 298.22958 311.8389 296.57272C311.8389 294.91586 313.18204 293.57272 314.8389 293.57272C316.49576 293.57272 317.8389 294.91586 317.8389 296.57272Z" fill-rule="nonzero"/><path fill="#000000" fill-opacity="0.0" clip-path="url(#id_0)" d="M371.1611 293.14606C371.1611 294.80292 369.81796 296.14606 368.1611 296.14606C366.50424 296.14606 365.1611 294.80292 365.1611 293.14606C365.1611 291.4892 366.50424 290.14606 368.1611 290.14606C369.81796 290.14606 371.1611 291.4892 371.1611 293.14606Z" fill-rule="nonzero"/><path fill="#000000" fill-opacity="0.0" clip-path="url(#id_0)" d="M424.48334 287.01404C424.48334 288.6709 423.1402 290.01404 421.48334 290.01404C419.82648 290.01404 418.48334 288.6709 418.48334 287.01404C418.48334 285.35718 419.82648 284.01404 421.48334 284.01404C423.1402 284.01404 424.48334 285.35718 424.48334 287.01404Z" fill-rule="nonzero"/><path fill="#000000" fill-opacity="0.0" clip-path="url(#id_0)" d="M477.80554 274.84082C477.80554 276.49765 476.4624 277.84082 474.80554 277.84082C473.1487 277.84082 471.80554 276.49765 471.80554 274.84082C471.80554 273.18396 473.1487 271.84082 474.80554 271.84082C476.4624 271.84082 477.80554 273.18396 477.80554 274.84082Z" fill-rule="nonzero"/><path fill="#000000" fill-opacity="0.0" clip-path="url(#id_0)" d="M531.1278 250.22192C531.1278 251.87877 529.7846 253.22192 528.1278 253.22192C526.47095 253.22192 525.1278 251.87877 525.1278 250.22192C525.1278 248.56506 526.47095 247.22192 528.1278 247.22192C529.7846 247.22192 531.1278 248.56506 531.1278 250.22192Z" fill-rule="nonzero"/><path fill="#000000" fill-opacity="0.0" clip-path="url(#id_0)" d="M584.45 200.26454C584.45 201.9214 583.1069 203.26454 581.45 203.26454C579.79315 203.26454 578.45 201.9214 578.45 200.26454C578.45 198.6077 579.79315 197.26454 581.45 197.26454C583.1069 197.26454 584.45 198.6077 584.45 200.26454Z" fill-rule="nonzero"/><path fill="#000000" fill-opacity="0.0" clip-path="url(#id_0)" d="M104.55 299.2777C104.55 300.93457 103.206856 302.2777 101.55 302.2777C99.89314 302.2777 98.55 300.93457 98.55 299.2777C98.55 297.62088 99.89314 296.2777 101.55 296.2777C103.206856 296.2777 104.55 297.62088 104.55 299.2777Z" fill-rule="nonzero"/><path fill="#000000" fill-opacity="0.0" clip-path="url(#id_0)" d="M157.87222 299.3679C157.87222 301.02475 156.52908 302.3679 154.87222 302.3679C153.21536 302.3679 151.87222 301.02475 151.87222 299.3679C151.87222 297.71103 153.21536 296.3679 154.87222 296.3679C156.52908 296.3679 157.87222 297.71103 157.87222 299.3679Z" fill-rule="nonzero"/><path fill="#000000" fill-opacity="0.0" clip-path="url(#id_0)" d="M211.19444 298.91702C211.19444 300.57388 209.8513 301.91702 208.19444 301.91702C206.5376 301.91702 205.19444 300.57388 205.19444 298.91702C205.19444 297.26016 206.5376 295.91702 208.19444 295.91702C209.8513 295.91702 211.19444 297.26016 211.19444 298.91702Z" fill-rule="nonzero"/><path fill="#000000" fill-opacity="0.0" clip-path="url(#id_0)" d="M264.51666 299.63843C264.51666 301.2953 263.17352 302.63843 261.51666 302.63843C259.8598 302.63843 258.51666 301.2953 258.51666 299.63843C258.51666 297.98157 259.8598 296.63843 261.51666 296.63843C263.17352 296.63843 264.51666 297.98157 264.51666 299.63843Z" fill-rule="nonzero"/><path fill="#000000" fill-opacity="0.0" clip-path="url(#id_0)" d="M317.8389 299.3679C317.8389 301.02475 316.49576 302.3679 314.8389 302.3679C313.18204 302.3679 311.8389 301.02475 311.8389 299.3679C311.8389 297.71103 313.18204 296.3679 314.8389 296.3679C316.49576 296.3679 317.8389 297.71103 317.8389 299.3679Z" fill-rule="nonzero"/><path fill="#000000" fill-opacity="0.0" clip-path="url(#id_0)" d="M371.1611 298.64648C371.1611 300.30334 369.81796 301.64648 368.1611 301.64648C366.50424 301.64648 365.1611 300.30334 365.1611 298.64648C365.1611 296.98962 366.50424 295.64648 368.1611 295.64648C369.81796 295.64648 371.1611 296.98962 371.1611 298.64648Z" fill-rule="nonzero"/><path fill="#000000" fill-opacity="0.0" clip-path="url(#id_0)" d="M424.48334 297.8349C424.48334 299.49176 423.1402 300.8349 421.48334 300.8349C419.82648 300.8349 418.48334 299.49176 418.48334 297.8349C418.48334 296.17807 419.82648 294.8349 421.48334 294.8349C423.1402 294.8349 424.48334 296.17807 424.48334 297.8349Z" fill-rule="nonzero"/><path fill="#000000" fill-opacity="0.0" clip-path="url(#id_0)" d="M477.80554 296.12158C477.80554 297.77844 476.4624 299.12158 474.80554 299.12158C473.1487 299.12158 471.80554 297.77844 471.80554 296.12158C471.80554 294.46472 473.1487 293.12158 474.80554 293.12158C476.4624 293.12158 477.80554 294.46472 477.80554 296.12158Z" fill-rule="nonzero"/><path fill="#000000" fill-opacity="0.0" clip-path="url(#id_0)" d="M531.1278 292.60474C531.1278 294.2616 529.7846 295.60474 528.1278 295.60474C526.47095 295.60474 525.1278 294.2616 525.1278 292.60474C525.1278 290.94788 526.47095 289.60474 528.1278 289.60474C529.7846 289.60474 531.1278 290.94788 531.1278 292.60474Z" fill-rule="nonzero"/><path fill="#000000" fill-opacity="0.0" clip-path="url(#id_0)" d="M584.45 285.84158C584.45 287.49844 583.1069 288.84158 581.45 288.84158C579.79315 288.84158 578.45 287.49844 578.45 285.84158C578.45 284.18472 579.79315 282.84158 581.45 282.84158C583.1069 282.84158 584.45 284.18472 584.45 285.84158Z" fill-rule="nonzero"/><path fill="#000000" d="M294.875 349.45L294.875 340.85626L298.10938 340.85626Q299.09375 340.85626 299.6875 341.1219Q300.28125 341.3875 300.60938 341.9344Q300.95312 342.46564 300.95312 343.0594Q300.95312 343.60626 300.65625 344.09064Q300.35938 344.575 299.75 344.8719Q300.53125 345.10626 300.9375 345.66876Q301.35938 346.21564 301.35938 346.96564Q301.35938 347.5594 301.10938 348.09064Q300.85938 348.60626 300.48438 348.8875Q300.10938 349.16876 299.53125 349.3094Q298.96875 349.45 298.15625 349.45L294.875 349.45ZM296.01562 344.46564L297.875 344.46564Q298.625 344.46564 298.95312 344.3719Q299.39062 344.2469 299.60938 343.95Q299.82812 343.6375 299.82812 343.1844Q299.82812 342.7625 299.625 342.4344Q299.42188 342.10626 299.03125 341.9969Q298.65625 341.8719 297.73438 341.8719L296.01562 341.8719L296.01562 344.46564ZM296.01562 348.4344L298.15625 348.4344Q298.70312 348.4344 298.92188 348.3875Q299.32812 348.325 299.57812 348.16876Q299.84375 347.9969 300.01562 347.6844Q300.1875 347.3719 300.1875 346.96564Q300.1875 346.48126 299.9375 346.1219Q299.70312 345.7625 299.26562 345.6219Q298.82812 345.48126 298.0 345.48126L296.01562 345.48126L296.01562 348.4344ZM302.76562 349.45L302.76562 340.85626L303.82812 340.85626L303.82812 349.45L302.76562 349.45ZM305.40625 346.34064Q305.40625 344.60626 306.35938 343.77814Q307.15625 343.09064 308.3125 343.09064Q309.59375 343.09064 310.40625 343.9344Q311.23438 344.7625 311.23438 346.2469Q311.23438 347.45 310.875 348.1375Q310.51562 348.825 309.8125 349.21564Q309.125 349.59064 308.3125 349.59064Q307.01562 349.59064 306.20312 348.7625Q305.40625 347.91876 305.40625 346.34064ZM306.48438 346.34064Q306.48438 347.52814 307.0 348.1219Q307.53125 348.71564 308.3125 348.71564Q309.10938 348.71564 309.625 348.1219Q310.14062 347.52814 310.14062 346.3094Q310.14062 345.15314 309.60938 344.5594Q309.09375 343.96564 308.3125 343.96564Q307.53125 343.96564 307.0 344.5594Q306.48438 345.1375 306.48438 346.34064ZM316.85938 347.16876L317.89062 347.3094Q317.71875 348.3719 317.01562 348.98126Q316.3125 349.59064 315.29688 349.59064Q314.01562 349.59064 313.23438 348.7625Q312.46875 347.91876 312.46875 346.35626Q312.46875 345.35626 312.79688 344.60626Q313.14062 343.84064 313.8125 343.46564Q314.5 343.09064 315.3125 343.09064Q316.3125 343.09064 316.95312 343.60626Q317.60938 344.10626 317.79688 345.0594L316.76562 345.21564Q316.625 344.59064 316.25 344.27814Q315.875 343.95 315.34375 343.95Q314.54688 343.95 314.04688 344.52814Q313.54688 345.09064 313.54688 346.325Q313.54688 347.59064 314.03125 348.15314Q314.51562 348.71564 315.28125 348.71564Q315.90625 348.71564 316.3125 348.34064Q316.73438 347.96564 316.85938 347.16876ZM318.79688 349.45L318.79688 340.85626L319.85938 340.85626L319.85938 345.7625L322.34375 343.23126L323.71875 343.23126L321.32812 345.52814L323.95312 349.45L322.65625 349.45L320.59375 346.2625L319.85938 346.98126L319.85938 349.45L318.79688 349.45ZM327.375 347.59064L328.40625 347.4344Q328.5 348.0594 328.89062 348.3875Q329.29688 348.71564 330.03125 348.71564Q330.75 348.71564 331.09375 348.4344Q331.45312 348.1375 331.45312 347.73126Q331.45312 347.3719 331.14062 347.16876Q330.92188 347.02814 330.0625 346.8094Q328.90625 346.5125 328.45312 346.3094Q328.01562 346.09064 327.78125 345.71564Q327.54688 345.34064 327.54688 344.8719Q327.54688 344.46564 327.73438 344.10626Q327.92188 343.7469 328.25 343.5125Q328.5 343.34064 328.92188 343.21564Q329.34375 343.09064 329.84375 343.09064Q330.5625 343.09064 331.10938 343.3094Q331.67188 343.5125 331.9375 343.8719Q332.20312 344.23126 332.29688 344.825L331.26562 344.96564Q331.20312 344.4969 330.85938 344.23126Q330.53125 343.95 329.90625 343.95Q329.1875 343.95 328.875 344.2Q328.5625 344.4344 328.5625 344.7625Q328.5625 344.96564 328.6875 345.1219Q328.82812 345.29376 329.09375 345.40314Q329.25 345.46564 330.03125 345.66876Q331.15625 345.98126 331.59375 346.16876Q332.03125 346.35626 332.28125 346.71564Q332.53125 347.075 332.53125 347.6219Q332.53125 348.15314 332.21875 348.6219Q331.92188 349.075 331.34375 349.34064Q330.76562 349.59064 330.03125 349.59064Q328.8125 349.59064 328.17188 349.09064Q327.54688 348.575 327.375 347.59064ZM334.79688 342.075L334.79688 340.85626L335.85938 340.85626L335.85938 342.075L334.79688 342.075ZM334.79688 349.45L334.79688 343.23126L335.85938 343.23126L335.85938 349.45L334.79688 349.45ZM337.23438 349.45L337.23438 348.59064L341.20312 344.04376Q340.51562 344.075 340.0 344.075L337.46875 344.075L337.46875 343.23126L342.5625 343.23126L342.5625 343.91876L339.1875 347.8719L338.53125 348.59064Q339.25 348.54376 339.85938 348.54376L342.75 348.54376L342.75 349.45L337.23438 349.45ZM347.04688 347.45L348.14062 347.575Q347.89062 348.52814 347.1875 349.0594Q346.48438 349.59064 345.40625 349.59064Q344.04688 349.59064 343.23438 348.7469Q342.4375 347.90314 342.4375 346.3875Q342.4375 344.825 343.25 343.96564Q344.0625 343.09064 345.34375 343.09064Q346.59375 343.09064 347.375 343.9344Q348.17188 344.77814 348.17188 346.325Q348.17188 346.41876 348.17188 346.60626L343.53125 346.60626Q343.59375 347.6375 344.10938 348.1844Q344.625 348.71564 345.40625 348.71564Q345.98438 348.71564 346.39062 348.41876Q346.8125 348.10626 347.04688 347.45ZM343.59375 345.7469L347.0625 345.7469Q347.0 344.95 346.67188 344.5594Q346.15625 343.95 345.35938 343.95Q344.625 343.95 344.125 344.4344Q343.64062 344.91876 343.59375 345.7469ZM354.8125 351.98126Q353.9375 350.8719 353.32812 349.40314Q352.73438 347.91876 352.73438 346.34064Q352.73438 344.95 353.17188 343.66876Q353.70312 342.1844 354.8125 340.71564L355.5625 340.71564Q354.85938 341.9344 354.625 342.45Q354.26562 343.2625 354.0625 344.1375Q353.8125 345.23126 353.8125 346.34064Q353.8125 349.16876 355.5625 351.98126L354.8125 351.98126ZM357.76562 349.45L356.78125 349.45L356.78125 340.85626L357.84375 340.85626L357.84375 343.91876Q358.51562 343.09064 359.54688 343.09064Q360.125 343.09064 360.625 343.325Q361.14062 343.54376 361.46875 343.96564Q361.8125 344.3875 362.0 344.98126Q362.1875 345.575 362.1875 346.2469Q362.1875 347.84064 361.39062 348.71564Q360.59375 349.59064 359.5 349.59064Q358.39062 349.59064 357.76562 348.66876L357.76562 349.45ZM357.75 346.29376Q357.75 347.40314 358.0625 347.90314Q358.5625 348.71564 359.40625 348.71564Q360.09375 348.71564 360.59375 348.1219Q361.10938 347.52814 361.10938 346.325Q361.10938 345.10626 360.625 344.52814Q360.14062 343.95 359.45312 343.95Q358.76562 343.95 358.25 344.5594Q357.75 345.15314 357.75 346.29376ZM363.75 351.84064L363.625 350.85626Q363.96875 350.95 364.23438 350.95Q364.57812 350.95 364.78125 350.825Q365.0 350.71564 365.14062 350.5125Q365.23438 350.34064 365.46875 349.71564Q365.48438 349.6375 365.5625 349.46564L363.1875 343.23126L364.32812 343.23126L365.625 346.825Q365.875 347.5125 366.07812 348.27814Q366.26562 347.54376 366.51562 346.85626L367.84375 343.23126L368.89062 343.23126L366.53125 349.5594Q366.14062 350.575 365.9375 350.96564Q365.65625 351.4969 365.28125 351.73126Q364.92188 351.98126 364.42188 351.98126Q364.125 351.98126 363.75 351.84064ZM371.09375 348.5125L371.25 349.4344Q370.79688 349.52814 370.45312 349.52814Q369.875 349.52814 369.5625 349.35626Q369.25 349.16876 369.10938 348.8719Q368.98438 348.575 368.98438 347.6219L368.98438 344.04376L368.21875 344.04376L368.21875 343.23126L368.98438 343.23126L368.98438 341.6844L370.03125 341.0594L370.03125 343.23126L371.09375 343.23126L371.09375 344.04376L370.03125 344.04376L370.03125 347.6844Q370.03125 348.1375 370.07812 348.2625Q370.14062 348.3875 370.26562 348.46564Q370.39062 348.54376 370.625 348.54376Q370.8125 348.54376 371.09375 348.5125ZM376.04688 347.45L377.14062 347.575Q376.89062 348.52814 376.1875 349.0594Q375.48438 349.59064 374.40625 349.59064Q373.04688 349.59064 372.23438 348.7469Q371.4375 347.90314 371.4375 346.3875Q371.4375 344.825 372.25 343.96564Q373.0625 343.09064 374.34375 343.09064Q375.59375 343.09064 376.375 343.9344Q377.17188 344.77814 377.17188 346.325Q377.17188 346.41876 377.17188 346.60626L372.53125 346.60626Q372.59375 347.6375 373.10938 348.1844Q373.625 348.71564 374.40625 348.71564Q374.98438 348.71564 375.39062 348.41876Q375.8125 348.10626 376.04688 347.45ZM372.59375 345.7469L376.0625 345.7469Q376.0 344.95 375.67188 344.5594Q375.15625 343.95 374.35938 343.95Q373.625 343.95 373.125 344.4344Q372.64062 344.91876 372.59375 345.7469ZM378.375 347.59064L379.40625 347.4344Q379.5 348.0594 379.89062 348.3875Q380.29688 348.71564 381.03125 348.71564Q381.75 348.71564 382.09375 348.4344Q382.45312 348.1375 382.45312 347.73126Q382.45312 347.3719 382.14062 347.16876Q381.92188 347.02814 381.0625 346.8094Q379.90625 346.5125 379.45312 346.3094Q379.01562 346.09064 378.78125 345.71564Q378.54688 345.34064 378.54688 344.8719Q378.54688 344.46564 378.73438 344.10626Q378.92188 343.7469 379.25 343.5125Q379.5 343.34064 379.92188 343.21564Q380.34375 343.09064 380.84375 343.09064Q381.5625 343.09064 382.10938 343.3094Q382.67188 343.5125 382.9375 343.8719Q383.20312 344.23126 383.29688 344.825L382.26562 344.96564Q382.20312 344.4969 381.85938 344.23126Q381.53125 343.95 380.90625 343.95Q380.1875 343.95 379.875 344.2Q379.5625 344.4344 379.5625 344.7625Q379.5625 344.96564 379.6875 345.1219Q379.82812 345.29376 380.09375 345.40314Q380.25 345.46564 381.03125 345.66876Q382.15625 345.98126 382.59375 346.16876Q383.03125 346.35626 383.28125 346.71564Q383.53125 347.075 383.53125 347.6219Q383.53125 348.15314 383.21875 348.6219Q382.92188 349.075 382.34375 349.34064Q381.76562 349.59064 381.03125 349.59064Q379.8125 349.59064 379.17188 349.09064Q378.54688 348.575 378.375 347.59064ZM386.48438 351.98126L385.73438 351.98126Q387.48438 349.16876 387.48438 346.34064Q387.48438 345.2469 387.23438 344.15314Q387.03125 343.27814 386.67188 342.46564Q386.4375 341.95 385.73438 340.71564L386.48438 340.71564Q387.57812 342.1844 388.10938 343.66876Q388.5625 344.95 388.5625 346.34064Q388.5625 347.91876 387.95312 349.40314Q387.34375 350.8719 386.48438 351.98126Z" fill-rule="nonzero"/><path fill="#000000" d="M29.550013 280.74167L20.956263 280.74167L20.956263 279.61667L29.550013 279.61667L29.550013 280.74167ZM29.550013 278.0698L23.331263 278.0698L23.331263 277.1323L24.206263 277.1323Q23.190638 276.4448 23.190638 275.14792Q23.190638 274.58542 23.393763 274.11667Q23.596888 273.6323 23.925013 273.39792Q24.253138 273.16354 24.690638 273.0698Q24.987513 273.02292 25.721888 273.02292L29.550013 273.02292L29.550013 274.0698L25.768763 274.0698Q25.112513 274.0698 24.800013 274.1948Q24.487513 274.3198 24.300013 274.6323Q24.096888 274.9448 24.096888 275.36667Q24.096888 276.03854 24.534388 276.53854Q24.956263 277.02292 26.143763 277.02292L29.550013 277.02292L29.550013 278.0698ZM27.690638 271.49167L27.534388 270.46042Q28.159388 270.36667 28.487513 269.97604Q28.815638 269.5698 28.815638 268.83542Q28.815638 268.11667 28.534388 267.77292Q28.237513 267.41354 27.831263 267.41354Q27.471888 267.41354 27.268763 267.72604Q27.128138 267.9448 26.909388 268.80417Q26.612513 269.96042 26.409388 270.41354Q26.190638 270.85104 25.815638 271.08542Q25.440638 271.3198 24.971888 271.3198Q24.565638 271.3198 24.206263 271.1323Q23.846888 270.9448 23.612513 270.61667Q23.440638 270.36667 23.315638 269.9448Q23.190638 269.52292 23.190638 269.02292Q23.190638 268.30417 23.409388 267.7573Q23.612513 267.1948 23.971888 266.92917Q24.331263 266.66354 24.925013 266.5698L25.065638 267.60104Q24.596888 267.66354 24.331263 268.0073Q24.050013 268.33542 24.050013 268.96042Q24.050013 269.67917 24.300013 269.99167Q24.534388 270.30417 24.862513 270.30417Q25.065638 270.30417 25.221888 270.17917Q25.393763 270.03854 25.503138 269.77292Q25.565638 269.61667 25.768763 268.83542Q26.081263 267.71042 26.268763 267.27292Q26.456263 266.83542 26.815638 266.58542Q27.175013 266.33542 27.721888 266.33542Q28.253138 266.33542 28.721888 266.64792Q29.175013 266.9448 29.440638 267.52292Q29.690638 268.10104 29.690638 268.83542Q29.690638 270.05417 29.190638 270.6948Q28.675013 271.3198 27.690638 271.49167ZM28.612513 261.77292L29.534388 261.61667Q29.628138 262.0698 29.628138 262.41354Q29.628138 262.99167 29.456263 263.30417Q29.268763 263.61667 28.971888 263.7573Q28.675013 263.8823 27.721888 263.8823L24.143763 263.8823L24.143763 264.64792L23.331263 264.64792L23.331263 263.8823L21.784388 263.8823L21.159388 262.83542L23.331263 262.83542L23.331263 261.77292L24.143763 261.77292L24.143763 262.83542L27.784388 262.83542Q28.237513 262.83542 28.362513 262.78854Q28.487513 262.72604 28.565638 262.60104Q28.643763 262.47604 28.643763 262.24167Q28.643763 262.05417 28.612513 261.77292ZM29.550013 261.08542L23.331263 261.08542L23.331263 260.1323L24.268763 260.1323Q23.612513 259.77292 23.409388 259.47604Q23.190638 259.16354 23.190638 258.78854Q23.190638 258.2573 23.518763 257.71042L24.503138 258.0698Q24.268763 258.46042 24.268763 258.83542Q24.268763 259.1948 24.487513 259.47604Q24.690638 259.74167 25.065638 259.85104Q25.628138 260.03854 26.284388 260.03854L29.550013 260.03854L29.550013 261.08542ZM29.550013 252.99167L28.628138 252.99167Q29.690638 253.72604 29.690638 254.97604Q29.690638 255.52292 29.487513 256.0073Q29.268763 256.47604 28.956263 256.71042Q28.628138 256.9448 28.159388 257.03854Q27.862513 257.10104 27.175013 257.10104L23.331263 257.10104L23.331263 256.03854L26.784388 256.03854Q27.596888 256.03854 27.893763 255.97604Q28.300013 255.8823 28.550013 255.5698Q28.784388 255.24167 28.784388 254.7573Q28.784388 254.28854 28.550013 253.8823Q28.300013 253.46042 27.878138 253.28854Q27.456263 253.10104 26.659388 253.10104L23.331263 253.10104L23.331263 252.05417L29.550013 252.05417L29.550013 252.99167ZM27.268763 246.0073L27.409388 244.97604Q28.471888 245.14792 29.081263 245.85104Q29.690638 246.55417 29.690638 247.5698Q29.690638 248.85104 28.862513 249.6323Q28.018763 250.39792 26.456263 250.39792Q25.456263 250.39792 24.706263 250.0698Q23.940638 249.72604 23.565638 249.05417Q23.190638 248.36667 23.190638 247.55417Q23.190638 246.55417 23.706263 245.91354Q24.206263 245.2573 25.159388 245.0698L25.315638 246.10104Q24.690638 246.24167 24.378138 246.61667Q24.050013 246.99167 24.050013 247.52292Q24.050013 248.3198 24.628138 248.8198Q25.190638 249.3198 26.425013 249.3198Q27.690638 249.3198 28.253138 248.83542Q28.815638 248.35104 28.815638 247.58542Q28.815638 246.96042 28.440638 246.55417Q28.065638 246.1323 27.268763 246.0073ZM28.612513 241.77292L29.534388 241.61667Q29.628138 242.0698 29.628138 242.41354Q29.628138 242.99167 29.456263 243.30417Q29.268763 243.61667 28.971888 243.7573Q28.675013 243.8823 27.721888 243.8823L24.143763 243.8823L24.143763 244.64792L23.331263 244.64792L23.331263 243.8823L21.784388 243.8823L21.159388 242.83542L23.331263 242.83542L23.331263 241.77292L24.143763 241.77292L24.143763 242.83542L27.784388 242.83542Q28.237513 242.83542 28.362513 242.78854Q28.487513 242.72604 28.565638 242.60104Q28.643763 242.47604 28.643763 242.24167Q28.643763 242.05417 28.612513 241.77292ZM22.175013 241.0698L20.956263 241.0698L20.956263 240.0073L22.175013 240.0073L22.175013 241.0698ZM29.550013 241.0698L23.331263 241.0698L23.331263 240.0073L29.550013 240.0073L29.550013 241.0698ZM26.440638 238.46042Q24.706263 238.46042 23.878138 237.5073Q23.190638 236.71042 23.190638 235.55417Q23.190638 234.27292 24.034388 233.46042Q24.862513 232.6323 26.346888 232.6323Q27.550013 232.6323 28.237513 232.99167Q28.925013 233.35104 29.315638 234.05417Q29.690638 234.74167 29.690638 235.55417Q29.690638 236.85104 28.862513 237.66354Q28.018763 238.46042 26.440638 238.46042ZM26.440638 237.3823Q27.628138 237.3823 28.221888 236.86667Q28.815638 236.33542 28.815638 235.55417Q28.815638 234.7573 28.221888 234.24167Q27.628138 233.72604 26.409388 233.72604Q25.253138 233.72604 24.659388 234.2573Q24.065638 234.77292 24.065638 235.55417Q24.065638 236.33542 24.659388 236.86667Q25.237513 237.3823 26.440638 237.3823ZM29.550013 231.0698L23.331263 231.0698L23.331263 230.1323L24.206263 230.1323Q23.190638 229.4448 23.190638 228.14792Q23.190638 227.58542 23.393763 227.11667Q23.596888 226.6323 23.925013 226.39792Q24.253138 226.16354 24.690638 226.0698Q24.987513 226.02292 25.721888 226.02292L29.550013 226.02292L29.550013 227.0698L25.768763 227.0698Q25.112513 227.0698 24.800013 227.1948Q24.487513 227.3198 24.300013 227.6323Q24.096888 227.9448 24.096888 228.36667Q24.096888 229.03854 24.534388 229.53854Q24.956263 230.02292 26.143763 230.02292L29.550013 230.02292L29.550013 231.0698ZM27.550013 216.8198L27.675013 215.72604Q28.628138 215.97604 29.159388 216.67917Q29.690638 217.3823 29.690638 218.46042Q29.690638 219.8198 28.846888 220.6323Q28.003138 221.42917 26.487513 221.42917Q24.925013 221.42917 24.065638 220.61667Q23.190638 219.80417 23.190638 218.52292Q23.190638 217.27292 24.034388 216.49167Q24.878138 215.6948 26.425013 215.6948Q26.518763 215.6948 26.706263 215.6948L26.706263 220.33542Q27.737513 220.27292 28.284388 219.7573Q28.815638 219.24167 28.815638 218.46042Q28.815638 217.8823 28.518763 217.47604Q28.206263 217.05417 27.550013 216.8198ZM25.846888 220.27292L25.846888 216.80417Q25.050013 216.86667 24.659388 217.1948Q24.050013 217.71042 24.050013 218.5073Q24.050013 219.24167 24.534388 219.74167Q25.018763 220.22604 25.846888 220.27292ZM29.550013 214.77292L26.315638 212.5073L23.331263 214.60104L23.331263 213.28854L24.784388 212.33542Q25.206263 212.0698 25.487513 211.89792Q25.096888 211.64792 24.800013 211.42917L23.331263 210.3823L23.331263 209.11667L26.253138 211.27292L29.550013 208.96042L29.550013 210.24167L27.612513 211.52292L27.096888 211.86667L29.550013 213.5073L29.550013 214.77292ZM27.550013 204.8198L27.675013 203.72604Q28.628138 203.97604 29.159388 204.67917Q29.690638 205.3823 29.690638 206.46042Q29.690638 207.8198 28.846888 208.6323Q28.003138 209.42917 26.487513 209.42917Q24.925013 209.42917 24.065638 208.61667Q23.190638 207.80417 23.190638 206.52292Q23.190638 205.27292 24.034388 204.49167Q24.878138 203.6948 26.425013 203.6948Q26.518763 203.6948 26.706263 203.6948L26.706263 208.33542Q27.737513 208.27292 28.284388 207.7573Q28.815638 207.24167 28.815638 206.46042Q28.815638 205.8823 28.518763 205.47604Q28.206263 205.05417 27.550013 204.8198ZM25.846888 208.27292L25.846888 204.80417Q25.050013 204.86667 24.659388 205.1948Q24.050013 205.71042 24.050013 206.5073Q24.050013 207.24167 24.534388 207.74167Q25.018763 208.22604 25.846888 208.27292ZM27.268763 198.0073L27.409388 196.97604Q28.471888 197.14792 29.081263 197.85104Q29.690638 198.55417 29.690638 199.5698Q29.690638 200.85104 28.862513 201.6323Q28.018763 202.39792 26.456263 202.39792Q25.456263 202.39792 24.706263 202.0698Q23.940638 201.72604 23.565638 201.05417Q23.190638 200.36667 23.190638 199.55417Q23.190638 198.55417 23.706263 197.91354Q24.206263 197.2573 25.159388 197.0698L25.315638 198.10104Q24.690638 198.24167 24.378138 198.61667Q24.050013 198.99167 24.050013 199.52292Q24.050013 200.3198 24.628138 200.8198Q25.190638 201.3198 26.425013 201.3198Q27.690638 201.3198 28.253138 200.83542Q28.815638 200.35104 28.815638 199.58542Q28.815638 198.96042 28.440638 198.55417Q28.065638 198.1323 27.268763 198.0073ZM29.550013 191.99167L28.628138 191.99167Q29.690638 192.72604 29.690638 193.97604Q29.690638 194.52292 29.487513 195.0073Q29.268763 195.47604 28.956263 195.71042Q28.628138 195.9448 28.159388 196.03854Q27.862513 196.10104 27.175013 196.10104L23.331263 196.10104L23.331263 195.03854L26.784388 195.03854Q27.596888 195.03854 27.893763 194.97604Q28.300013 194.8823 28.550013 194.5698Q28.784388 194.24167 28.784388 193.7573Q28.784388 193.28854 28.550013 192.8823Q28.300013 192.46042 27.878138 192.28854Q27.456263 192.10104 26.659388 192.10104L23.331263 192.10104L23.331263 191.05417L29.550013 191.05417L29.550013 191.99167ZM28.612513 186.77292L29.534388 186.61667Q29.628138 187.0698 29.628138 187.41354Q29.628138 187.99167 29.456263 188.30417Q29.268763 188.61667 28.971888 188.7573Q28.675013 188.8823 27.721888 188.8823L24.143763 188.8823L24.143763 189.64792L23.331263 189.64792L23.331263 188.8823L21.784388 188.8823L21.159388 187.83542L23.331263 187.83542L23.331263 186.77292L24.143763 186.77292L24.143763 187.83542L27.784388 187.83542Q28.237513 187.83542 28.362513 187.78854Q28.487513 187.72604 28.565638 187.60104Q28.643763 187.47604 28.643763 187.24167Q28.643763 187.05417 28.612513 186.77292ZM22.175013 186.0698L20.956263 186.0698L20.956263 185.0073L22.175013 185.0073L22.175013 186.0698ZM29.550013 186.0698L23.331263 186.0698L23.331263 185.0073L29.550013 185.0073L29.550013 186.0698ZM26.440638 183.46042Q24.706263 183.46042 23.878138 182.5073Q23.190638 181.71042 23.190638 180.55417Q23.190638 179.27292 24.034388 178.46042Q24.862513 177.6323 26.346888 177.6323Q27.550013 177.6323 28.237513 177.99167Q28.925013 178.35104 29.315638 179.05417Q29.690638 179.74167 29.690638 180.55417Q29.690638 181.85104 28.862513 182.66354Q28.018763 183.46042 26.440638 183.46042ZM26.440638 182.3823Q27.628138 182.3823 28.221888 181.86667Q28.815638 181.33542 28.815638 180.55417Q28.815638 179.7573 28.221888 179.24167Q27.628138 178.72604 26.409388 178.72604Q25.253138 178.72604 24.659388 179.2573Q24.065638 179.77292 24.065638 180.55417Q24.065638 181.33542 24.659388 181.86667Q25.237513 182.3823 26.440638 182.3823ZM29.550013 176.0698L23.331263 176.0698L23.331263 175.1323L24.206263 175.1323Q23.190638 174.4448 23.190638 173.14792Q23.190638 172.58542 23.393763 172.11667Q23.596888 171.6323 23.925013 171.39792Q24.253138 171.16354 24.690638 171.0698Q24.987513 171.02292 25.721888 171.02292L29.550013 171.02292L29.550013 172.0698L25.768763 172.0698Q25.112513 172.0698 24.800013 172.1948Q24.487513 172.3198 24.300013 172.6323Q24.096888 172.9448 24.096888 173.36667Q24.096888 174.03854 24.534388 174.53854Q24.956263 175.02292 26.143763 175.02292L29.550013 175.02292L29.550013 176.0698ZM28.612513 163.77292L29.534388 163.61667Q29.628138 164.0698 29.628138 164.41354Q29.628138 164.99167 29.456263 165.30417Q29.268763 165.61667 28.971888 165.7573Q28.675013 165.8823 27.721888 165.8823L24.143763 165.8823L24.143763 166.64792L23.331263 166.64792L23.331263 165.8823L21.784388 165.8823L21.159388 164.83542L23.331263 164.83542L23.331263 163.77292L24.143763 163.77292L24.143763 164.83542L27.784388 164.83542Q28.237513 164.83542 28.362513 164.78854Q28.487513 164.72604 28.565638 164.60104Q28.643763 164.47604 28.643763 164.24167Q28.643763 164.05417 28.612513 163.77292ZM22.175013 163.0698L20.956263 163.0698L20.956263 162.0073L22.175013 162.0073L22.175013 163.0698ZM29.550013 163.0698L23.331263 163.0698L23.331263 162.0073L29.550013 162.0073L29.550013 163.0698ZM29.550013 160.0698L23.331263 160.0698L23.331263 159.1323L24.206263 159.1323Q23.737513 158.83542 23.471888 158.35104Q23.190638 157.86667 23.190638 157.24167Q23.190638 156.55417 23.471888 156.11667Q23.753138 155.66354 24.268763 155.49167Q23.190638 154.74167 23.190638 153.5698Q23.190638 152.6323 23.706263 152.14792Q24.206263 151.64792 25.284388 151.64792L29.550013 151.64792L29.550013 152.6948L25.628138 152.6948Q25.003138 152.6948 24.721888 152.80417Q24.440638 152.89792 24.268763 153.16354Q24.096888 153.42917 24.096888 153.80417Q24.096888 154.46042 24.534388 154.89792Q24.971888 155.3198 25.940638 155.3198L29.550013 155.3198L29.550013 156.3823L25.503138 156.3823Q24.800013 156.3823 24.456263 156.64792Q24.096888 156.89792 24.096888 157.47604Q24.096888 157.92917 24.331263 158.30417Q24.565638 158.67917 25.018763 158.85104Q25.471888 159.02292 26.315638 159.02292L29.550013 159.02292L29.550013 160.0698ZM27.550013 144.8198L27.675013 143.72604Q28.628138 143.97604 29.159388 144.67917Q29.690638 145.3823 29.690638 146.46042Q29.690638 147.8198 28.846888 148.6323Q28.003138 149.42917 26.487513 149.42917Q24.925013 149.42917 24.065638 148.61667Q23.190638 147.80417 23.190638 146.52292Q23.190638 145.27292 24.034388 144.49167Q24.878138 143.6948 26.425013 143.6948Q26.518763 143.6948 26.706263 143.6948L26.706263 148.33542Q27.737513 148.27292 28.284388 147.7573Q28.815638 147.24167 28.815638 146.46042Q28.815638 145.8823 28.518763 145.47604Q28.206263 145.05417 27.550013 144.8198ZM25.846888 148.27292L25.846888 144.80417Q25.050013 144.86667 24.659388 145.1948Q24.050013 145.71042 24.050013 146.5073Q24.050013 147.24167 24.534388 147.74167Q25.018763 148.22604 25.846888 148.27292ZM32.08126 137.05417Q30.971888 137.92917 29.503138 138.53854Q28.018763 139.1323 26.440638 139.1323Q25.050013 139.1323 23.768763 138.6948Q22.284388 138.16354 20.815638 137.05417L20.815638 136.30417Q22.034388 137.0073 22.550013 137.24167Q23.362513 137.60104 24.237513 137.80417Q25.331263 138.05417 26.440638 138.05417Q29.268763 138.05417 32.08126 136.30417L32.08126 137.05417ZM29.550013 135.0698L23.331263 135.0698L23.331263 134.1323L24.206263 134.1323Q23.190638 133.4448 23.190638 132.14792Q23.190638 131.58542 23.393763 131.11667Q23.596888 130.6323 23.925013 130.39792Q24.253138 130.16354 24.690638 130.0698Q24.987513 130.02292 25.721888 130.02292L29.550013 130.02292L29.550013 131.0698L25.768763 131.0698Q25.112513 131.0698 24.800013 131.1948Q24.487513 131.3198 24.300013 131.6323Q24.096888 131.9448 24.096888 132.36667Q24.096888 133.03854 24.534388 133.53854Q24.956263 134.02292 26.143763 134.02292L29.550013 134.02292L29.550013 135.0698ZM27.690638 128.49167L27.534388 127.46042Q28.159388 127.36667 28.487513 126.97604Q28.815638 126.56979 28.815638 125.83542Q28.815638 125.11667 28.534388 124.77292Q28.237513 124.41354 27.831263 124.41354Q27.471888 124.41354 27.268763 124.72604Q27.128138 124.94479 26.909388 125.80417Q26.612513 126.96042 26.409388 127.41354Q26.190638 127.85104 25.815638 128.08542Q25.440638 128.3198 24.971888 128.3198Q24.565638 128.3198 24.206263 128.1323Q23.846888 127.94479 23.612513 127.61667Q23.440638 127.36667 23.315638 126.94479Q23.190638 126.52292 23.190638 126.02292Q23.190638 125.30417 23.409388 124.75729Q23.612513 124.19479 23.971888 123.92917Q24.331263 123.66354 24.925013 123.56979L25.065638 124.60104Q24.596888 124.66354 24.331263 125.00729Q24.050013 125.33542 24.050013 125.96042Q24.050013 126.67917 24.300013 126.99167Q24.534388 127.30417 24.862513 127.30417Q25.065638 127.30417 25.221888 127.17917Q25.393763 127.03854 25.503138 126.77292Q25.565638 126.61667 25.768763 125.83542Q26.081263 124.71042 26.268763 124.27292Q26.456263 123.83542 26.815638 123.58542Q27.175013 123.33542 27.721888 123.33542Q28.253138 123.33542 28.721888 123.64792Q29.175013 123.94479 29.440638 124.52292Q29.690638 125.10104 29.690638 125.83542Q29.690638 127.05417 29.190638 127.69479Q28.675013 128.3198 27.690638 128.49167ZM32.08126 120.38229L32.08126 121.13229Q29.268763 119.38229 26.440638 119.38229Q25.346888 119.38229 24.253138 119.63229Q23.378138 119.83542 22.565638 120.19479Q22.050013 120.42917 20.815638 121.13229L20.815638 120.38229Q22.284388 119.28854 23.768763 118.75729Q25.050013 118.30417 26.440638 118.30417Q28.018763 118.30417 29.503138 118.91354Q30.971888 119.52292 32.08126 120.38229Z" fill-rule="nonzero"/><path fill="#000000" d="M91.925 301.8719L91.925 300.8094L95.175 300.8094L95.175 301.8719L91.925 301.8719Z" fill-rule="nonzero"/><path fill="#000000" d="M63.596874 260.60104L63.596874 261.61667L57.909374 261.61667Q57.909374 261.24167 58.034374 260.8823Q58.253124 260.30417 58.721874 259.74167Q59.20625 259.17917 60.1125 258.4448Q61.51875 257.28854 62.003124 256.61667Q62.503124 255.9448 62.503124 255.35104Q62.503124 254.72604 62.05 254.30417Q61.596874 253.86667 60.878124 253.86667Q60.1125 253.86667 59.659374 254.3198Q59.20625 254.77292 59.190624 255.58542L58.1125 255.47604Q58.221874 254.2573 58.940624 253.6323Q59.675 252.99167 60.909374 252.99167Q62.14375 252.99167 62.8625 253.67917Q63.58125 254.36667 63.58125 255.3823Q63.58125 255.89792 63.3625 256.39792Q63.159374 256.8823 62.659374 257.4448Q62.175 257.99167 61.05 258.9448Q60.096874 259.74167 59.815624 260.03854Q59.55 260.3198 59.378124 260.60104L63.596874 260.60104ZM65.05 259.36667L66.15938 259.27292Q66.28438 260.08542 66.72188 260.49167Q67.175 260.89792 67.81563 260.89792Q68.56563 260.89792 69.09688 260.3198Q69.62813 259.74167 69.62813 258.80417Q69.62813 257.89792 69.1125 257.3823Q68.6125 256.85104 67.78438 256.85104Q67.28438 256.85104 66.8625 257.08542Q66.45625 257.3198 66.22188 257.67917L65.2375 257.55417L66.06563 253.14792L70.34688 253.14792L70.34688 254.14792L66.90938 254.14792L66.45625 256.46042Q67.22188 255.91354 68.06563 255.91354Q69.19063 255.91354 69.95625 256.6948Q70.7375 257.47604 70.7375 258.71042Q70.7375 259.86667 70.06563 260.72604Q69.2375 261.7573 67.81563 261.7573Q66.64375 261.7573 65.89375 261.10104Q65.15938 260.4448 65.05 259.36667ZM72.05 257.3823Q72.05 255.85104 72.3625 254.92917Q72.675 253.99167 73.28438 253.49167Q73.90938 252.99167 74.84688 252.99167Q75.53438 252.99167 76.05 253.27292Q76.58125 253.55417 76.925 254.08542Q77.26875 254.60104 77.45625 255.35104Q77.64375 256.10104 77.64375 257.3823Q77.64375 258.89792 77.33125 259.8198Q77.03438 260.74167 76.40938 261.2573Q75.8 261.7573 74.84688 261.7573Q73.6125 261.7573 72.89375 260.86667Q72.05 259.80417 72.05 257.3823ZM73.12813 257.3823Q73.12813 259.49167 73.62813 260.1948Q74.12813 260.89792 74.84688 260.89792Q75.58125 260.89792 76.06563 260.1948Q76.56563 259.49167 76.56563 257.3823Q76.56563 255.2573 76.06563 254.5698Q75.58125 253.86667 74.83125 253.86667Q74.1125 253.86667 73.675 254.47604Q73.12813 255.2573 73.12813 257.3823ZM79.64375 261.61667L79.64375 260.41354L80.84688 260.41354L80.84688 261.61667L79.64375 261.61667ZM82.05 257.3823Q82.05 255.85104 82.3625 254.92917Q82.675 253.99167 83.28438 253.49167Q83.90938 252.99167 84.84688 252.99167Q85.53438 252.99167 86.05 253.27292Q86.58125 253.55417 86.925 254.08542Q87.26875 254.60104 87.45625 255.35104Q87.64375 256.10104 87.64375 257.3823Q87.64375 258.89792 87.33125 259.8198Q87.03438 260.74167 86.40938 261.2573Q85.8 261.7573 84.84688 261.7573Q83.6125 261.7573 82.89375 260.86667Q82.05 259.80417 82.05 257.3823ZM83.12813 257.3823Q83.12813 259.49167 83.62813 260.1948Q84.12813 260.89792 84.84688 260.89792Q85.58125 260.89792 86.06563 260.1948Q86.56563 259.49167 86.56563 257.3823Q86.56563 255.2573 86.06563 254.5698Q85.58125 253.86667 84.83125 253.86667Q84.1125 253.86667 83.675 254.47604Q83.12813 255.2573 83.12813 257.3823ZM89.05 257.3823Q89.05 255.85104 89.3625 254.92917Q89.675 253.99167 90.28438 253.49167Q90.90938 252.99167 91.84688 252.99167Q92.53438 252.99167 93.05 253.27292Q93.58125 253.55417 93.925 254.08542Q94.26875 254.60104 94.45625 255.35104Q94.64375 256.10104 94.64375 257.3823Q94.64375 258.89792 94.33125 259.8198Q94.03438 260.74167 93.40938 261.2573Q92.8 261.7573 91.84688 261.7573Q90.6125 261.7573 89.89375 260.86667Q89.05 259.80417 89.05 257.3823ZM90.12813 257.3823Q90.12813 259.49167 90.62813 260.1948Q91.12813 260.89792 91.84688 260.89792Q92.58125 260.89792 93.06563 260.1948Q93.56563 259.49167 93.56563 257.3823Q93.56563 255.2573 93.06563 254.5698Q92.58125 253.86667 91.83125 253.86667Q91.1125 253.86667 90.675 254.47604Q90.12813 255.2573 90.12813 257.3823Z" fill-rule="nonzero"/><path fill="#000000" d="M58.05 216.53334L59.159374 216.43959Q59.284374 217.25209 59.721874 217.65834Q60.175 218.06459 60.815624 218.06459Q61.565624 218.06459 62.096874 217.48647Q62.628124 216.90834 62.628124 215.97084Q62.628124 215.06459 62.1125 214.54897Q61.6125 214.01772 60.784374 214.01772Q60.284374 214.01772 59.8625 214.25209Q59.45625 214.48647 59.221874 214.84584L58.2375 214.72084L59.065624 210.31459L63.346874 210.31459L63.346874 211.31459L59.909374 211.31459L59.45625 213.62709Q60.221874 213.08022 61.065624 213.08022Q62.190624 213.08022 62.95625 213.86147Q63.7375 214.64272 63.7375 215.87709Q63.7375 217.03334 63.065624 217.89272Q62.2375 218.92397 60.815624 218.92397Q59.64375 218.92397 58.89375 218.26772Q58.159374 217.61147 58.05 216.53334ZM65.05 214.54897Q65.05 213.01772 65.3625 212.09584Q65.675 211.15834 66.28438 210.65834Q66.90938 210.15834 67.84688 210.15834Q68.53438 210.15834 69.05 210.43959Q69.58125 210.72084 69.925 211.25209Q70.26875 211.76772 70.45625 212.51772Q70.64375 213.26772 70.64375 214.54897Q70.64375 216.06459 70.33125 216.98647Q70.03438 217.90834 69.40938 218.42397Q68.8 218.92397 67.84688 218.92397Q66.6125 218.92397 65.89375 218.03334Q65.05 216.97084 65.05 214.54897ZM66.12813 214.54897Q66.12813 216.65834 66.62813 217.36147Q67.12813 218.06459 67.84688 218.06459Q68.58125 218.06459 69.06563 217.36147Q69.56563 216.65834 69.56563 214.54897Q69.56563 212.42397 69.06563 211.73647Q68.58125 211.03334 67.83125 211.03334Q67.1125 211.03334 66.675 211.64272Q66.12813 212.42397 66.12813 214.54897ZM72.05 214.54897Q72.05 213.01772 72.3625 212.09584Q72.675 211.15834 73.28438 210.65834Q73.90938 210.15834 74.84688 210.15834Q75.53438 210.15834 76.05 210.43959Q76.58125 210.72084 76.925 211.25209Q77.26875 211.76772 77.45625 212.51772Q77.64375 213.26772 77.64375 214.54897Q77.64375 216.06459 77.33125 216.98647Q77.03438 217.90834 76.40938 218.42397Q75.8 218.92397 74.84688 218.92397Q73.6125 218.92397 72.89375 218.03334Q72.05 216.97084 72.05 214.54897ZM73.12813 214.54897Q73.12813 216.65834 73.62813 217.36147Q74.12813 218.06459 74.84688 218.06459Q75.58125 218.06459 76.06563 217.36147Q76.56563 216.65834 76.56563 214.54897Q76.56563 212.42397 76.06563 211.73647Q75.58125 211.03334 74.83125 211.03334Q74.1125 211.03334 73.675 211.64272Q73.12813 212.42397 73.12813 214.54897ZM79.64375 218.78334L79.64375 217.58022L80.84688 217.58022L80.84688 218.78334L79.64375 218.78334ZM82.05 214.54897Q82.05 213.01772 82.3625 212.09584Q82.675 211.15834 83.28438 210.65834Q83.90938 210.15834 84.84688 210.15834Q85.53438 210.15834 86.05 210.43959Q86.58125 210.72084 86.925 211.25209Q87.26875 211.76772 87.45625 212.51772Q87.64375 213.26772 87.64375 214.54897Q87.64375 216.06459 87.33125 216.98647Q87.03438 217.90834 86.40938 218.42397Q85.8 218.92397 84.84688 218.92397Q83.6125 218.92397 82.89375 218.03334Q82.05 216.97084 82.05 214.54897ZM83.12813 214.54897Q83.12813 216.65834 83.62813 217.36147Q84.12813 218.06459 84.84688 218.06459Q85.58125 218.06459 86.06563 217.36147Q86.56563 216.65834 86.56563 214.54897Q86.56563 212.42397 86.06563 211.73647Q85.58125 211.03334 84.83125 211.03334Q84.1125 211.03334 83.675 211.64272Q83.12813 212.42397 83.12813 214.54897ZM89.05 214.54897Q89.05 213.01772 89.3625 212.09584Q89.675 211.15834 90.28438 210.65834Q90.90938 210.15834 91.84688 210.15834Q92.53438 210.15834 93.05 210.43959Q93.58125 210.72084 93.925 211.25209Q94.26875 211.76772 94.45625 212.51772Q94.64375 213.26772 94.64375 214.54897Q94.64375 216.06459 94.33125 216.98647Q94.03438 217.90834 93.40938 218.42397Q92.8 218.92397 91.84688 218.92397Q90.6125 218.92397 89.89375 218.03334Q89.05 216.97084 89.05 214.54897ZM90.12813 214.54897Q90.12813 216.65834 90.62813 217.36147Q91.12813 218.06459 91.84688 218.06459Q92.58125 218.06459 93.06563 217.36147Q93.56563 216.65834 93.56563 214.54897Q93.56563 212.42397 93.06563 211.73647Q92.58125 211.03334 91.83125 211.03334Q91.1125 211.03334 90.675 211.64272Q90.12813 212.42397 90.12813 214.54897Z" fill-rule="nonzero"/><path fill="#000000" d="M58.1125 168.48125L58.1125 167.46562L63.675 167.46562L63.675 168.29375Q62.8625 169.16875 62.05 170.62187Q61.253124 172.05937 60.815624 173.59062Q60.4875 174.66875 60.409374 175.95L59.315624 175.95Q59.33125 174.93437 59.70625 173.49687Q60.096874 172.05937 60.8 170.73125Q61.51875 169.40312 62.33125 168.48125L58.1125 168.48125ZM65.05 173.7L66.15938 173.60625Q66.28438 174.41875 66.72188 174.825Q67.175 175.23125 67.81563 175.23125Q68.56563 175.23125 69.09688 174.65312Q69.62813 174.075 69.62813 173.1375Q69.62813 172.23125 69.1125 171.71562Q68.6125 171.18437 67.78438 171.18437Q67.28438 171.18437 66.8625 171.41875Q66.45625 171.65312 66.22188 172.0125L65.2375 171.8875L66.06563 167.48125L70.34688 167.48125L70.34688 168.48125L66.90938 168.48125L66.45625 170.79375Q67.22188 170.24687 68.06563 170.24687Q69.19063 170.24687 69.95625 171.02812Q70.7375 171.80937 70.7375 173.04375Q70.7375 174.2 70.06563 175.05937Q69.2375 176.09062 67.81563 176.09062Q66.64375 176.09062 65.89375 175.43437Q65.15938 174.77812 65.05 173.7ZM72.05 171.71562Q72.05 170.18437 72.3625 169.2625Q72.675 168.325 73.28438 167.825Q73.90938 167.325 74.84688 167.325Q75.53438 167.325 76.05 167.60625Q76.58125 167.8875 76.925 168.41875Q77.26875 168.93437 77.45625 169.68437Q77.64375 170.43437 77.64375 171.71562Q77.64375 173.23125 77.33125 174.15312Q77.03438 175.075 76.40938 175.59062Q75.8 176.09062 74.84688 176.09062Q73.6125 176.09062 72.89375 175.2Q72.05 174.1375 72.05 171.71562ZM73.12813 171.71562Q73.12813 173.825 73.62813 174.52812Q74.12813 175.23125 74.84688 175.23125Q75.58125 175.23125 76.06563 174.52812Q76.56563 173.825 76.56563 171.71562Q76.56563 169.59062 76.06563 168.90312Q75.58125 168.2 74.83125 168.2Q74.1125 168.2 73.675 168.80937Q73.12813 169.59062 73.12813 171.71562ZM79.64375 175.95L79.64375 174.74687L80.84688 174.74687L80.84688 175.95L79.64375 175.95ZM82.05 171.71562Q82.05 170.18437 82.3625 169.2625Q82.675 168.325 83.28438 167.825Q83.90938 167.325 84.84688 167.325Q85.53438 167.325 86.05 167.60625Q86.58125 167.8875 86.925 168.41875Q87.26875 168.93437 87.45625 169.68437Q87.64375 170.43437 87.64375 171.71562Q87.64375 173.23125 87.33125 174.15312Q87.03438 175.075 86.40938 175.59062Q85.8 176.09062 84.84688 176.09062Q83.6125 176.09062 82.89375 175.2Q82.05 174.1375 82.05 171.71562ZM83.12813 171.71562Q83.12813 173.825 83.62813 174.52812Q84.12813 175.23125 84.84688 175.23125Q85.58125 175.23125 86.06563 174.52812Q86.56563 173.825 86.56563 171.71562Q86.56563 169.59062 86.06563 168.90312Q85.58125 168.2 84.83125 168.2Q84.1125 168.2 83.675 168.80937Q83.12813 169.59062 83.12813 171.71562ZM89.05 171.71562Q89.05 170.18437 89.3625 169.2625Q89.675 168.325 90.28438 167.825Q90.90938 167.325 91.84688 167.325Q92.53438 167.325 93.05 167.60625Q93.58125 167.8875 93.925 168.41875Q94.26875 168.93437 94.45625 169.68437Q94.64375 170.43437 94.64375 171.71562Q94.64375 173.23125 94.33125 174.15312Q94.03438 175.075 93.40938 175.59062Q92.8 176.09062 91.84688 176.09062Q90.6125 176.09062 89.89375 175.2Q89.05 174.1375 89.05 171.71562ZM90.12813 171.71562Q90.12813 173.825 90.62813 174.52812Q91.12813 175.23125 91.84688 175.23125Q92.58125 175.23125 93.06563 174.52812Q93.56563 173.825 93.56563 171.71562Q93.56563 169.59062 93.06563 168.90312Q92.58125 168.2 91.83125 168.2Q91.1125 168.2 90.675 168.80937Q90.12813 169.59062 90.12813 171.71562Z" fill-rule="nonzero"/><path fill="#000000" d="M55.01875 133.11667L53.971874 133.11667L53.971874 126.39792Q53.58125 126.75729 52.95625 127.13229Q52.346874 127.49167 51.8625 127.66354L51.8625 126.64792Q52.7375 126.22604 53.39375 125.64792Q54.065624 125.05417 54.346874 124.49167L55.01875 124.49167L55.01875 133.11667ZM58.05 128.8823Q58.05 127.35104 58.3625 126.42917Q58.675 125.49167 59.284374 124.99167Q59.909374 124.49167 60.846874 124.49167Q61.534374 124.49167 62.05 124.77292Q62.58125 125.05417 62.925 125.58542Q63.26875 126.10104 63.45625 126.85104Q63.64375 127.60104 63.64375 128.8823Q63.64375 130.39792 63.33125 131.3198Q63.034374 132.24167 62.409374 132.7573Q61.8 133.2573 60.846874 133.2573Q59.6125 133.2573 58.89375 132.36667Q58.05 131.30417 58.05 128.8823ZM59.128124 128.8823Q59.128124 130.99167 59.628124 131.6948Q60.128124 132.39792 60.846874 132.39792Q61.58125 132.39792 62.065624 131.6948Q62.565624 130.99167 62.565624 128.8823Q62.565624 126.75729 62.065624 126.06979Q61.58125 125.36667 60.83125 125.36667Q60.1125 125.36667 59.675 125.97604Q59.128124 126.75729 59.128124 128.8823ZM65.05 128.8823Q65.05 127.35104 65.3625 126.42917Q65.675 125.49167 66.28438 124.99167Q66.90938 124.49167 67.84688 124.49167Q68.53438 124.49167 69.05 124.77292Q69.58125 125.05417 69.925 125.58542Q70.26875 126.10104 70.45625 126.85104Q70.64375 127.60104 70.64375 128.8823Q70.64375 130.39792 70.33125 131.3198Q70.03438 132.24167 69.40938 132.7573Q68.8 133.2573 67.84688 133.2573Q66.6125 133.2573 65.89375 132.36667Q65.05 131.30417 65.05 128.8823ZM66.12813 128.8823Q66.12813 130.99167 66.62813 131.6948Q67.12813 132.39792 67.84688 132.39792Q68.58125 132.39792 69.06563 131.6948Q69.56563 130.99167 69.56563 128.8823Q69.56563 126.75729 69.06563 126.06979Q68.58125 125.36667 67.83125 125.36667Q67.1125 125.36667 66.675 125.97604Q66.12813 126.75729 66.12813 128.8823ZM72.05 128.8823Q72.05 127.35104 72.3625 126.42917Q72.675 125.49167 73.28438 124.99167Q73.90938 124.49167 74.84688 124.49167Q75.53438 124.49167 76.05 124.77292Q76.58125 125.05417 76.925 125.58542Q77.26875 126.10104 77.45625 126.85104Q77.64375 127.60104 77.64375 128.8823Q77.64375 130.39792 77.33125 131.3198Q77.03438 132.24167 76.40938 132.7573Q75.8 133.2573 74.84688 133.2573Q73.6125 133.2573 72.89375 132.36667Q72.05 131.30417 72.05 128.8823ZM73.12813 128.8823Q73.12813 130.99167 73.62813 131.6948Q74.12813 132.39792 74.84688 132.39792Q75.58125 132.39792 76.06563 131.6948Q76.56563 130.99167 76.56563 128.8823Q76.56563 126.75729 76.06563 126.06979Q75.58125 125.36667 74.83125 125.36667Q74.1125 125.36667 73.675 125.97604Q73.12813 126.75729 73.12813 128.8823ZM79.64375 133.11667L79.64375 131.91354L80.84688 131.91354L80.84688 133.11667L79.64375 133.11667ZM82.05 128.8823Q82.05 127.35104 82.3625 126.42917Q82.675 125.49167 83.28438 124.99167Q83.90938 124.49167 84.84688 124.49167Q85.53438 124.49167 86.05 124.77292Q86.58125 125.05417 86.925 125.58542Q87.26875 126.10104 87.45625 126.85104Q87.64375 127.60104 87.64375 128.8823Q87.64375 130.39792 87.33125 131.3198Q87.03438 132.24167 86.40938 132.7573Q85.8 133.2573 84.84688 133.2573Q83.6125 133.2573 82.89375 132.36667Q82.05 131.30417 82.05 128.8823ZM83.12813 128.8823Q83.12813 130.99167 83.62813 131.6948Q84.12813 132.39792 84.84688 132.39792Q85.58125 132.39792 86.06563 131.6948Q86.56563 130.99167 86.56563 128.8823Q86.56563 126.75729 86.06563 126.06979Q85.58125 125.36667 84.83125 125.36667Q84.1125 125.36667 83.675 125.97604Q83.12813 126.75729 83.12813 128.8823ZM89.05 128.8823Q89.05 127.35104 89.3625 126.42917Q89.675 125.49167 90.28438 124.99167Q90.90938 124.49167 91.84688 124.49167Q92.53438 124.49167 93.05 124.77292Q93.58125 125.05417 93.925 125.58542Q94.26875 126.10104 94.45625 126.85104Q94.64375 127.60104 94.64375 128.8823Q94.64375 130.39792 94.33125 131.3198Q94.03438 132.24167 93.40938 132.7573Q92.8 133.2573 91.84688 133.2573Q90.6125 133.2573 89.89375 132.36667Q89.05 131.30417 89.05 128.8823ZM90.12813 128.8823Q90.12813 130.99167 90.62813 131.6948Q91.12813 132.39792 91.84688 132.39792Q92.58125 132.39792 93.06563 131.6948Q93.56563 130.99167 93.56563 128.8823Q93.56563 126.75729 93.06563 126.06979Q92.58125 125.36667 91.83125 125.36667Q91.1125 125.36667 90.675 125.97604Q90.12813 126.75729 90.12813 128.8823Z" fill-rule="nonzero"/><path fill="#000000" d="M55.01875 90.28333L53.971874 90.28333L53.971874 83.56458Q53.58125 83.92396 52.95625 84.29896Q52.346874 84.65833 51.8625 84.83021L51.8625 83.81458Q52.7375 83.39271 53.39375 82.81458Q54.065624 82.22083 54.346874 81.65833L55.01875 81.65833L55.01875 90.28333ZM63.596874 89.26771L63.596874 90.28333L57.909374 90.28333Q57.909374 89.90833 58.034374 89.54896Q58.253124 88.97083 58.721874 88.40833Q59.20625 87.84583 60.1125 87.11146Q61.51875 85.95521 62.003124 85.28333Q62.503124 84.61146 62.503124 84.01771Q62.503124 83.39271 62.05 82.97083Q61.596874 82.53333 60.878124 82.53333Q60.1125 82.53333 59.659374 82.98646Q59.20625 83.43958 59.190624 84.25208L58.1125 84.14271Q58.221874 82.92396 58.940624 82.29896Q59.675 81.65833 60.909374 81.65833Q62.14375 81.65833 62.8625 82.34583Q63.58125 83.03333 63.58125 84.04896Q63.58125 84.56458 63.3625 85.06458Q63.159374 85.54896 62.659374 86.11146Q62.175 86.65833 61.05 87.61146Q60.096874 88.40833 59.815624 88.70521Q59.55 88.98646 59.378124 89.26771L63.596874 89.26771ZM65.05 88.03333L66.15938 87.93958Q66.28438 88.75208 66.72188 89.15833Q67.175 89.56458 67.81563 89.56458Q68.56563 89.56458 69.09688 88.98646Q69.62813 88.40833 69.62813 87.47083Q69.62813 86.56458 69.1125 86.04896Q68.6125 85.51771 67.78438 85.51771Q67.28438 85.51771 66.8625 85.75208Q66.45625 85.98646 66.22188 86.34583L65.2375 86.22083L66.06563 81.81458L70.34688 81.81458L70.34688 82.81458L66.90938 82.81458L66.45625 85.12708Q67.22188 84.58021 68.06563 84.58021Q69.19063 84.58021 69.95625 85.36146Q70.7375 86.14271 70.7375 87.37708Q70.7375 88.53333 70.06563 89.39271Q69.2375 90.42396 67.81563 90.42396Q66.64375 90.42396 65.89375 89.76771Q65.15938 89.11146 65.05 88.03333ZM72.05 86.04896Q72.05 84.51771 72.3625 83.59583Q72.675 82.65833 73.28438 82.15833Q73.90938 81.65833 74.84688 81.65833Q75.53438 81.65833 76.05 81.93958Q76.58125 82.22083 76.925 82.75208Q77.26875 83.26771 77.45625 84.01771Q77.64375 84.76771 77.64375 86.04896Q77.64375 87.56458 77.33125 88.48646Q77.03438 89.40833 76.40938 89.92396Q75.8 90.42396 74.84688 90.42396Q73.6125 90.42396 72.89375 89.53333Q72.05 88.47083 72.05 86.04896ZM73.12813 86.04896Q73.12813 88.15833 73.62813 88.86146Q74.12813 89.56458 74.84688 89.56458Q75.58125 89.56458 76.06563 88.86146Q76.56563 88.15833 76.56563 86.04896Q76.56563 83.92396 76.06563 83.23646Q75.58125 82.53333 74.83125 82.53333Q74.1125 82.53333 73.675 83.14271Q73.12813 83.92396 73.12813 86.04896ZM79.64375 90.28333L79.64375 89.08021L80.84688 89.08021L80.84688 90.28333L79.64375 90.28333ZM82.05 86.04896Q82.05 84.51771 82.3625 83.59583Q82.675 82.65833 83.28438 82.15833Q83.90938 81.65833 84.84688 81.65833Q85.53438 81.65833 86.05 81.93958Q86.58125 82.22083 86.925 82.75208Q87.26875 83.26771 87.45625 84.01771Q87.64375 84.76771 87.64375 86.04896Q87.64375 87.56458 87.33125 88.48646Q87.03438 89.40833 86.40938 89.92396Q85.8 90.42396 84.84688 90.42396Q83.6125 90.42396 82.89375 89.53333Q82.05 88.47083 82.05 86.04896ZM83.12813 86.04896Q83.12813 88.15833 83.62813 88.86146Q84.12813 89.56458 84.84688 89.56458Q85.58125 89.56458 86.06563 88.86146Q86.56563 88.15833 86.56563 86.04896Q86.56563 83.92396 86.06563 83.23646Q85.58125 82.53333 84.83125 82.53333Q84.1125 82.53333 83.675 83.14271Q83.12813 83.92396 83.12813 86.04896ZM89.05 86.04896Q89.05 84.51771 89.3625 83.59583Q89.675 82.65833 90.28438 82.15833Q90.90938 81.65833 91.84688 81.65833Q92.53438 81.65833 93.05 81.93958Q93.58125 82.22083 93.925 82.75208Q94.26875 83.26771 94.45625 84.01771Q94.64375 84.76771 94.64375 86.04896Q94.64375 87.56458 94.33125 88.48646Q94.03438 89.40833 93.40938 89.92396Q92.8 90.42396 91.84688 90.42396Q90.6125 90.42396 89.89375 89.53333Q89.05 88.47083 89.05 86.04896ZM90.12813 86.04896Q90.12813 88.15833 90.62813 88.86146Q91.12813 89.56458 91.84688 89.56458Q92.58125 89.56458 93.06563 88.86146Q93.56563 88.15833 93.56563 86.04896Q93.56563 83.92396 93.06563 83.23646Q92.58125 82.53333 91.83125 82.53333Q91.1125 82.53333 90.675 83.14271Q90.12813 83.92396 90.12813 86.04896Z" fill-rule="nonzero"/><path fill="#000000" d="M102.51875 317.45L101.47188 317.45L101.47188 310.73126Q101.08125 311.09064 100.45625 311.46564Q99.84688 311.825 99.3625 311.9969L99.3625 310.98126Q100.2375 310.5594 100.89375 309.98126Q101.56563 309.3875 101.84688 308.825L102.51875 308.825L102.51875 317.45Z" fill-rule="nonzero"/><path fill="#000000" d="M222.36037 315.2L223.46974 315.10626Q223.59474 315.91876 224.03224 316.325Q224.48537 316.73126 225.12599 316.73126Q225.87599 316.73126 226.40724 316.15314Q226.93849 315.575 226.93849 314.6375Q226.93849 313.73126 226.42287 313.21564Q225.92287 312.6844 225.09474 312.6844Q224.59474 312.6844 224.17287 312.91876Q223.76662 313.15314 223.53224 313.5125L222.54787 313.3875L223.37599 308.98126L227.65724 308.98126L227.65724 309.98126L224.21974 309.98126L223.76662 312.29376Q224.53224 311.7469 225.37599 311.7469Q226.50099 311.7469 227.26662 312.52814Q228.04787 313.3094 228.04787 314.54376Q228.04787 315.7 227.37599 316.5594Q226.54787 317.59064 225.12599 317.59064Q223.95412 317.59064 223.20412 316.9344Q222.46974 316.27814 222.36037 315.2Z" fill-rule="nonzero"/><path fill="#000000" d="M276.15134 317.45L275.10446 317.45L275.10446 310.73126Q274.71384 311.09064 274.08884 311.46564Q273.47946 311.825 272.9951 311.9969L272.9951 310.98126Q273.8701 310.5594 274.52634 309.98126Q275.1982 309.3875 275.47946 308.825L276.15134 308.825L276.15134 317.45ZM279.1826 313.21564Q279.1826 311.6844 279.4951 310.7625Q279.8076 309.825 280.41696 309.325Q281.04196 308.825 281.97946 308.825Q282.66696 308.825 283.1826 309.10626Q283.71384 309.3875 284.0576 309.91876Q284.40134 310.4344 284.58884 311.1844Q284.77634 311.9344 284.77634 313.21564Q284.77634 314.73126 284.46384 315.65314Q284.16696 316.575 283.54196 317.09064Q282.9326 317.59064 281.97946 317.59064Q280.7451 317.59064 280.02634 316.7Q279.1826 315.6375 279.1826 313.21564ZM280.2607 313.21564Q280.2607 315.325 280.7607 316.02814Q281.2607 316.73126 281.97946 316.73126Q282.71384 316.73126 283.1982 316.02814Q283.6982 315.325 283.6982 313.21564Q283.6982 311.09064 283.1982 310.40314Q282.71384 309.7 281.96384 309.7Q281.2451 309.7 280.8076 310.3094Q280.2607 311.09064 280.2607 313.21564Z" fill-rule="nonzero"/><path fill="#000000" d="M395.99295 315.2L397.10233 315.10626Q397.22733 315.91876 397.66483 316.325Q398.11795 316.73126 398.75858 316.73126Q399.50858 316.73126 400.03983 316.15314Q400.57108 315.575 400.57108 314.6375Q400.57108 313.73126 400.05545 313.21564Q399.55545 312.6844 398.72733 312.6844Q398.22733 312.6844 397.80545 312.91876Q397.3992 313.15314 397.16483 313.5125L396.18045 313.3875L397.00858 308.98126L401.28983 308.98126L401.28983 309.98126L397.85233 309.98126L397.3992 312.29376Q398.16483 311.7469 399.00858 311.7469Q400.13358 311.7469 400.8992 312.52814Q401.68045 313.3094 401.68045 314.54376Q401.68045 315.7 401.00858 316.5594Q400.18045 317.59064 398.75858 317.59064Q397.5867 317.59064 396.8367 316.9344Q396.10233 316.27814 395.99295 315.2ZM402.99295 313.21564Q402.99295 311.6844 403.30545 310.7625Q403.61795 309.825 404.22733 309.325Q404.85233 308.825 405.78983 308.825Q406.47733 308.825 406.99295 309.10626Q407.5242 309.3875 407.86795 309.91876Q408.2117 310.4344 408.3992 311.1844Q408.5867 311.9344 408.5867 313.21564Q408.5867 314.73126 408.2742 315.65314Q407.97733 316.575 407.35233 317.09064Q406.74295 317.59064 405.78983 317.59064Q404.55545 317.59064 403.8367 316.7Q402.99295 315.6375 402.99295 313.21564ZM404.07108 313.21564Q404.07108 315.325 404.57108 316.02814Q405.07108 316.73126 405.78983 316.73126Q406.5242 316.73126 407.00858 316.02814Q407.50858 315.325 407.50858 313.21564Q407.50858 311.09064 407.00858 310.40314Q406.5242 309.7 405.7742 309.7Q405.05545 309.7 404.61795 310.3094Q404.07108 311.09064 404.07108 313.21564Z" fill-rule="nonzero"/><path fill="#000000" d="M449.78394 317.45L448.73706 317.45L448.73706 310.73126Q448.34644 311.09064 447.72144 311.46564Q447.11206 311.825 446.6277 311.9969L446.6277 310.98126Q447.5027 310.5594 448.15894 309.98126Q448.8308 309.3875 449.11206 308.825L449.78394 308.825L449.78394 317.45ZM452.8152 313.21564Q452.8152 311.6844 453.1277 310.7625Q453.4402 309.825 454.04956 309.325Q454.67456 308.825 455.61206 308.825Q456.29956 308.825 456.8152 309.10626Q457.34644 309.3875 457.6902 309.91876Q458.03394 310.4344 458.22144 311.1844Q458.40894 311.9344 458.40894 313.21564Q458.40894 314.73126 458.09644 315.65314Q457.79956 316.575 457.17456 317.09064Q456.5652 317.59064 455.61206 317.59064Q454.3777 317.59064 453.65894 316.7Q452.8152 315.6375 452.8152 313.21564ZM453.8933 313.21564Q453.8933 315.325 454.3933 316.02814Q454.8933 316.73126 455.61206 316.73126Q456.34644 316.73126 456.8308 316.02814Q457.3308 315.325 457.3308 313.21564Q457.3308 311.09064 456.8308 310.40314Q456.34644 309.7 455.59644 309.7Q454.8777 309.7 454.4402 310.3094Q453.8933 311.09064 453.8933 313.21564ZM459.8152 313.21564Q459.8152 311.6844 460.1277 310.7625Q460.4402 309.825 461.04956 309.325Q461.67456 308.825 462.61206 308.825Q463.29956 308.825 463.8152 309.10626Q464.34644 309.3875 464.6902 309.91876Q465.03394 310.4344 465.22144 311.1844Q465.40894 311.9344 465.40894 313.21564Q465.40894 314.73126 465.09644 315.65314Q464.79956 316.575 464.17456 317.09064Q463.5652 317.59064 462.61206 317.59064Q461.3777 317.59064 460.65894 316.7Q459.8152 315.6375 459.8152 313.21564ZM460.8933 313.21564Q460.8933 315.325 461.3933 316.02814Q461.8933 316.73126 462.61206 316.73126Q463.34644 316.73126 463.8308 316.02814Q464.3308 315.325 464.3308 313.21564Q464.3308 311.09064 463.8308 310.40314Q463.34644 309.7 462.59644 309.7Q461.8777 309.7 461.4402 310.3094Q460.8933 311.09064 460.8933 313.21564Z" fill-rule="nonzero"/><path fill="#000000" d="M569.62555 315.2L570.7349 315.10626Q570.8599 315.91876 571.2974 316.325Q571.75055 316.73126 572.3912 316.73126Q573.1412 316.73126 573.6724 316.15314Q574.2037 315.575 574.2037 314.6375Q574.2037 313.73126 573.68805 313.21564Q573.18805 312.6844 572.3599 312.6844Q571.8599 312.6844 571.43805 312.91876Q571.0318 313.15314 570.7974 313.5125L569.81305 313.3875L570.6412 308.98126L574.9224 308.98126L574.9224 309.98126L571.4849 309.98126L571.0318 312.29376Q571.7974 311.7469 572.6412 311.7469Q573.7662 311.7469 574.5318 312.52814Q575.31305 313.3094 575.31305 314.54376Q575.31305 315.7 574.6412 316.5594Q573.81305 317.59064 572.3912 317.59064Q571.2193 317.59064 570.4693 316.9344Q569.7349 316.27814 569.62555 315.2ZM576.62555 313.21564Q576.62555 311.6844 576.93805 310.7625Q577.25055 309.825 577.8599 309.325Q578.4849 308.825 579.4224 308.825Q580.1099 308.825 580.62555 309.10626Q581.1568 309.3875 581.50055 309.91876Q581.8443 310.4344 582.0318 311.1844Q582.2193 311.9344 582.2193 313.21564Q582.2193 314.73126 581.9068 315.65314Q581.6099 316.575 580.9849 317.09064Q580.37555 317.59064 579.4224 317.59064Q578.18805 317.59064 577.4693 316.7Q576.62555 315.6375 576.62555 313.21564ZM577.7037 313.21564Q577.7037 315.325 578.2037 316.02814Q578.7037 316.73126 579.4224 316.73126Q580.1568 316.73126 580.6412 316.02814Q581.1412 315.325 581.1412 313.21564Q581.1412 311.09064 580.6412 310.40314Q580.1568 309.7 579.4068 309.7Q578.68805 309.7 578.25055 310.3094Q577.7037 311.09064 577.7037 313.21564ZM583.62555 313.21564Q583.62555 311.6844 583.93805 310.7625Q584.25055 309.825 584.8599 309.325Q585.4849 308.825 586.4224 308.825Q587.1099 308.825 587.62555 309.10626Q588.1568 309.3875 588.50055 309.91876Q588.8443 310.4344 589.0318 311.1844Q589.2193 311.9344 589.2193 313.21564Q589.2193 314.73126 588.9068 315.65314Q588.6099 316.575 587.9849 317.09064Q587.37555 317.59064 586.4224 317.59064Q585.18805 317.59064 584.4693 316.7Q583.62555 315.6375 583.62555 313.21564ZM584.7037 313.21564Q584.7037 315.325 585.2037 316.02814Q585.7037 316.73126 586.4224 316.73126Q587.1568 316.73126 587.6412 316.02814Q588.1412 315.325 588.1412 313.21564Q588.1412 311.09064 587.6412 310.40314Q587.1568 309.7 586.4068 309.7Q585.68805 309.7 585.25055 310.3094Q584.7037 311.09064 584.7037 313.21564Z" fill-rule="nonzero"/><path stroke="#4285f4" stroke-width="4.0" stroke-linecap="butt" d="M155.62305 57.916668L167.62305 57.916668" fill-rule="nonzero"/><path fill="#1a1a1a" d="M176.41992 61.916668L176.41992 55.697918L177.35742 55.697918L177.35742 56.572918Q177.6543 56.104168 178.13867 55.838543Q178.62305 55.557293 179.24805 55.557293Q179.93555 55.557293 180.37305 55.838543Q180.82617 56.119793 180.99805 56.635418Q181.74805 55.557293 182.91992 55.557293Q183.85742 55.557293 184.3418 56.072918Q184.8418 56.572918 184.8418 57.651043L184.8418 61.916668L183.79492 61.916668L183.79492 57.994793Q183.79492 57.369793 183.68555 57.088543Q183.5918 56.807293 183.32617 56.635418Q183.06055 56.463543 182.68555 56.463543Q182.0293 56.463543 181.5918 56.901043Q181.16992 57.338543 181.16992 58.307293L181.16992 61.916668L180.10742 61.916668L180.10742 57.869793Q180.10742 57.166668 179.8418 56.822918Q179.5918 56.463543 179.01367 56.463543Q178.56055 56.463543 178.18555 56.697918Q177.81055 56.932293 177.63867 57.385418Q177.4668 57.838543 177.4668 58.682293L177.4668 61.916668L176.41992 61.916668ZM191.48242 61.151043Q190.88867 61.651043 190.3418 61.854168Q189.81055 62.057293 189.18555 62.057293Q188.1543 62.057293 187.60742 61.557293Q187.06055 61.057293 187.06055 60.276043Q187.06055 59.822918 187.26367 59.447918Q187.4668 59.057293 187.81055 58.838543Q188.1543 58.604168 188.57617 58.494793Q188.87305 58.401043 189.51367 58.322918Q190.7793 58.182293 191.38867 57.963543Q191.38867 57.744793 191.38867 57.697918Q191.38867 57.041668 191.0918 56.776043Q190.68555 56.432293 189.88867 56.432293Q189.1543 56.432293 188.79492 56.697918Q188.43555 56.947918 188.26367 57.604168L187.23242 57.463543Q187.37305 56.807293 187.70117 56.401043Q188.0293 55.994793 188.63867 55.776043Q189.24805 55.557293 190.04492 55.557293Q190.8418 55.557293 191.3418 55.744793Q191.8418 55.932293 192.07617 56.213543Q192.31055 56.494793 192.4043 56.932293Q192.45117 57.197918 192.45117 57.901043L192.45117 59.307293Q192.45117 60.776043 192.51367 61.166668Q192.5918 61.557293 192.79492 61.916668L191.68555 61.916668Q191.5293 61.588543 191.48242 61.151043ZM191.38867 58.791668Q190.81055 59.026043 189.66992 59.197918Q189.01367 59.291668 188.74805 59.416668Q188.48242 59.526043 188.32617 59.744793Q188.18555 59.963543 188.18555 60.244793Q188.18555 60.666668 188.49805 60.947918Q188.82617 61.229168 189.43555 61.229168Q190.04492 61.229168 190.51367 60.963543Q190.99805 60.697918 191.2168 60.229168Q191.38867 59.869793 191.38867 59.182293L191.38867 58.791668ZM193.99805 60.057293L195.0293 59.901043Q195.12305 60.526043 195.51367 60.854168Q195.91992 61.182293 196.6543 61.182293Q197.37305 61.182293 197.7168 60.901043Q198.07617 60.604168 198.07617 60.197918Q198.07617 59.838543 197.76367 59.635418Q197.54492 59.494793 196.68555 59.276043Q195.5293 58.979168 195.07617 58.776043Q194.63867 58.557293 194.4043 58.182293Q194.16992 57.807293 194.16992 57.338543Q194.16992 56.932293 194.35742 56.572918Q194.54492 56.213543 194.87305 55.979168Q195.12305 55.807293 195.54492 55.682293Q195.9668 55.557293 196.4668 55.557293Q197.18555 55.557293 197.73242 55.776043Q198.29492 55.979168 198.56055 56.338543Q198.82617 56.697918 198.91992 57.291668L197.88867 57.432293Q197.82617 56.963543 197.48242 56.697918Q197.1543 56.416668 196.5293 56.416668Q195.81055 56.416668 195.49805 56.666668Q195.18555 56.901043 195.18555 57.229168Q195.18555 57.432293 195.31055 57.588543Q195.45117 57.760418 195.7168 57.869793Q195.87305 57.932293 196.6543 58.135418Q197.7793 58.447918 198.2168 58.635418Q198.6543 58.822918 198.9043 59.182293Q199.1543 59.541668 199.1543 60.088543Q199.1543 60.619793 198.8418 61.088543Q198.54492 61.541668 197.9668 61.807293Q197.38867 62.057293 196.6543 62.057293Q195.43555 62.057293 194.79492 61.557293Q194.16992 61.041668 193.99805 60.057293ZM203.7168 60.979168L203.87305 61.901043Q203.41992 61.994793 203.07617 61.994793Q202.49805 61.994793 202.18555 61.822918Q201.87305 61.635418 201.73242 61.338543Q201.60742 61.041668 201.60742 60.088543L201.60742 56.510418L200.8418 56.510418L200.8418 55.697918L201.60742 55.697918L201.60742 54.151043L202.6543 53.526043L202.6543 55.697918L203.7168 55.697918L203.7168 56.510418L202.6543 56.510418L202.6543 60.151043Q202.6543 60.604168 202.70117 60.729168Q202.76367 60.854168 202.88867 60.932293Q203.01367 61.010418 203.24805 61.010418Q203.43555 61.010418 203.7168 60.979168ZM208.66992 59.916668L209.76367 60.041668Q209.51367 60.994793 208.81055 61.526043Q208.10742 62.057293 207.0293 62.057293Q205.66992 62.057293 204.85742 61.213543Q204.06055 60.369793 204.06055 58.854168Q204.06055 57.291668 204.87305 56.432293Q205.68555 55.557293 206.9668 55.557293Q208.2168 55.557293 208.99805 56.401043Q209.79492 57.244793 209.79492 58.791668Q209.79492 58.885418 209.79492 59.072918L205.1543 59.072918Q205.2168 60.104168 205.73242 60.651043Q206.24805 61.182293 207.0293 61.182293Q207.60742 61.182293 208.01367 60.885418Q208.43555 60.572918 208.66992 59.916668ZM205.2168 58.213543L208.68555 58.213543Q208.62305 57.416668 208.29492 57.026043Q207.7793 56.416668 206.98242 56.416668Q206.24805 56.416668 205.74805 56.901043Q205.26367 57.385418 205.2168 58.213543ZM211.4043 61.916668L211.4043 55.697918L212.35742 55.697918L212.35742 56.635418Q212.7168 55.979168 213.01367 55.776043Q213.32617 55.557293 213.70117 55.557293Q214.23242 55.557293 214.7793 55.885418L214.41992 56.869793Q214.0293 56.635418 213.6543 56.635418Q213.29492 56.635418 213.01367 56.854168Q212.74805 57.057293 212.63867 57.432293Q212.45117 57.994793 212.45117 58.651043L212.45117 61.916668L211.4043 61.916668Z" fill-rule="nonzero"/><path stroke="#ea4335" stroke-width="4.0" stroke-linecap="butt" d="M230.62305 57.916668L242.62305 57.916668" fill-rule="nonzero"/><path fill="#1a1a1a" d="M251.5918 61.916668L251.5918 53.322918L252.7168 53.322918L252.7168 56.854168L257.18555 56.854168L257.18555 53.322918L258.32617 53.322918L258.32617 61.916668L257.18555 61.916668L257.18555 57.869793L252.7168 57.869793L252.7168 61.916668L251.5918 61.916668ZM266.68555 58.901043L267.81055 59.197918Q267.45117 60.588543 266.5293 61.322918Q265.60742 62.057293 264.26367 62.057293Q262.87305 62.057293 261.99805 61.494793Q261.12305 60.932293 260.66992 59.869793Q260.2168 58.791668 260.2168 57.557293Q260.2168 56.213543 260.73242 55.213543Q261.24805 54.213543 262.18555 53.697918Q263.13867 53.182293 264.2793 53.182293Q265.56055 53.182293 266.43555 53.838543Q267.32617 54.494793 267.66992 55.682293L266.54492 55.947918Q266.24805 55.010418 265.66992 54.588543Q265.10742 54.151043 264.24805 54.151043Q263.26367 54.151043 262.5918 54.635418Q261.93555 55.104168 261.6543 55.901043Q261.38867 56.697918 261.38867 57.557293Q261.38867 58.651043 261.70117 59.463543Q262.0293 60.276043 262.70117 60.682293Q263.37305 61.088543 264.16992 61.088543Q265.12305 61.088543 265.7793 60.541668Q266.45117 59.994793 266.68555 58.901043Z" fill-rule="nonzero"/><path fill="#757575" d="M30.940624 36.01875Q32.26875 36.925 33.378124 37.346874L32.815624 38.659374Q31.26875 38.1125 29.7375 36.909374Q28.14375 37.8 26.221874 37.8Q24.284374 37.8 22.690624 36.8625Q21.1125 35.925 20.253124 34.221874Q19.409374 32.51875 19.409374 30.39375Q19.409374 28.26875 20.26875 26.534374Q21.128124 24.8 22.70625 23.89375Q24.3 22.971874 26.26875 22.971874Q28.253124 22.971874 29.83125 23.925Q31.425 24.8625 32.253124 26.565624Q33.096874 28.253124 33.096874 30.378124Q33.096874 32.14375 32.565624 33.565624Q32.034374 34.971874 30.940624 36.01875ZM26.76875 33.596874Q28.409374 34.05 29.471874 34.95625Q31.14375 33.440624 31.14375 30.378124Q31.14375 28.64375 30.55 27.346874Q29.971874 26.05 28.83125 25.33125Q27.690624 24.6125 26.26875 24.6125Q24.159374 24.6125 22.753124 26.065624Q21.3625 27.503124 21.3625 30.39375Q21.3625 33.190624 22.7375 34.690624Q24.128124 36.175 26.26875 36.175Q27.284374 36.175 28.190624 35.784374Q27.3 35.221874 26.315624 34.971874L26.76875 33.596874ZM36.128124 37.55L36.128124 23.2375L46.4875 23.2375L46.4875 24.925L38.034374 24.925L38.034374 29.3L45.940624 29.3L45.940624 30.9875L38.034374 30.9875L38.034374 35.8625L46.815624 35.8625L46.815624 37.55L36.128124 37.55ZM49.034374 37.55L49.034374 23.2375L51.89375 23.2375L55.26875 33.3625Q55.7375 34.784374 55.95625 35.4875Q56.20625 34.70625 56.721874 33.190624L60.14375 23.2375L62.690624 23.2375L62.690624 37.55L60.878124 37.55L60.878124 25.565624L56.70625 37.55L55.003124 37.55L50.8625 25.3625L50.8625 37.55L49.034374 37.55ZM75.4875 23.2375L77.37813 23.2375L77.37813 31.503124Q77.37813 33.659374 76.89375 34.940624Q76.40938 36.20625 75.12813 37.003124Q73.8625 37.8 71.78438 37.8Q69.76875 37.8 68.4875 37.1125Q67.22188 36.409374 66.675 35.096874Q66.12813 33.784374 66.12813 31.503124L66.12813 23.2375L68.01875 23.2375L68.01875 31.4875Q68.01875 33.3625 68.3625 34.253124Q68.70625 35.128124 69.55 35.6125Q70.39375 36.08125 71.62813 36.08125Q73.70625 36.08125 74.59688 35.14375Q75.4875 34.190624 75.4875 31.4875L75.4875 23.2375ZM84.8625 37.55L84.8625 27.175L86.44063 27.175L86.44063 28.628124Q86.925 27.878124 87.7375 27.409374Q88.55 26.940624 89.58125 26.940624Q90.7375 26.940624 91.47188 27.425Q92.20625 27.89375 92.51875 28.753124Q93.75313 26.940624 95.72188 26.940624Q97.26875 26.940624 98.09688 27.8Q98.925 28.659374 98.925 30.425L98.925 37.55L97.175 37.55L97.175 31.01875Q97.175 29.95625 97.00313 29.503124Q96.83125 29.034374 96.37813 28.753124Q95.94063 28.471874 95.33125 28.471874Q94.2375 28.471874 93.50313 29.20625Q92.78438 29.925 92.78438 31.51875L92.78438 37.55L91.03438 37.55L91.03438 30.815624Q91.03438 29.64375 90.59688 29.065624Q90.175 28.471874 89.19063 28.471874Q88.45625 28.471874 87.81563 28.8625Q87.19063 29.253124 86.90938 30.003124Q86.62813 30.753124 86.62813 32.175L86.62813 37.55L84.8625 37.55ZM107.97188 34.20625L109.78438 34.440624Q109.3625 36.01875 108.19063 36.909374Q107.03438 37.784374 105.22188 37.784374Q102.95625 37.784374 101.6125 36.39375Q100.28438 34.9875 100.28438 32.45625Q100.28438 29.83125 101.62813 28.39375Q102.97188 26.940624 105.12813 26.940624Q107.20625 26.940624 108.51875 28.3625Q109.84688 29.76875 109.84688 32.346874Q109.84688 32.503124 109.83125 32.815624L102.09688 32.815624Q102.19063 34.51875 103.06563 35.425Q103.94063 36.33125 105.2375 36.33125Q106.20625 36.33125 106.87813 35.83125Q107.56563 35.315624 107.97188 34.20625ZM102.19063 31.3625L107.9875 31.3625Q107.87813 30.065624 107.33125 29.409374Q106.4875 28.39375 105.14375 28.39375Q103.94063 28.39375 103.1125 29.20625Q102.28438 30.003124 102.19063 31.3625ZM111.8625 37.55L111.8625 27.175L113.44063 27.175L113.44063 28.628124Q113.925 27.878124 114.7375 27.409374Q115.55 26.940624 116.58125 26.940624Q117.7375 26.940624 118.47188 27.425Q119.20625 27.89375 119.51875 28.753124Q120.75313 26.940624 122.72188 26.940624Q124.26875 26.940624 125.09688 27.8Q125.925 28.659374 125.925 30.425L125.925 37.55L124.175 37.55L124.175 31.01875Q124.175 29.95625 124.00313 29.503124Q123.83125 29.034374 123.37813 28.753124Q122.94063 28.471874 122.33125 28.471874Q121.2375 28.471874 120.50313 29.20625Q119.78438 29.925 119.78438 31.51875L119.78438 37.55L118.03438 37.55L118.03438 30.815624Q118.03438 29.64375 117.59688 29.065624Q117.175 28.471874 116.19063 28.471874Q115.45625 28.471874 114.81563 28.8625Q114.19063 29.253124 113.90938 30.003124Q113.62813 30.753124 113.62813 32.175L113.62813 37.55L111.8625 37.55ZM134.64375 33.753124L136.3625 33.971874Q136.08125 35.76875 134.90938 36.784374Q133.75313 37.784374 132.05 37.784374Q129.925 37.784374 128.62813 36.39375Q127.33125 35.003124 127.33125 32.409374Q127.33125 30.721874 127.87813 29.471874Q128.44063 28.20625 129.58125 27.58125Q130.72188 26.940624 132.06563 26.940624Q133.75313 26.940624 134.81563 27.8Q135.89375 28.659374 136.20625 30.221874L134.4875 30.4875Q134.25313 29.440624 133.62813 28.925Q133.00313 28.39375 132.12813 28.39375Q130.8 28.39375 129.97188 29.346874Q129.14375 30.3 129.14375 32.346874Q129.14375 34.440624 129.94063 35.39375Q130.7375 36.33125 132.03438 36.33125Q133.06563 36.33125 133.75313 35.70625Q134.45625 35.065624 134.64375 33.753124ZM137.8625 41.51875L137.8625 27.175L139.47188 27.175L139.47188 28.51875Q140.03438 27.7375 140.7375 27.346874Q141.45625 26.940624 142.47188 26.940624Q143.8 26.940624 144.81563 27.628124Q145.83125 28.315624 146.34688 29.565624Q146.87813 30.8 146.87813 32.284374Q146.87813 33.878124 146.3 35.159374Q145.7375 36.425 144.64375 37.1125Q143.55 37.784374 142.34688 37.784374Q141.47188 37.784374 140.76875 37.409374Q140.08125 37.034374 139.62813 36.471874L139.62813 41.51875L137.8625 41.51875ZM139.45625 32.425Q139.45625 34.425 140.26875 35.378124Q141.08125 36.33125 142.2375 36.33125Q143.40938 36.33125 144.2375 35.346874Q145.08125 34.3625 145.08125 32.26875Q145.08125 30.3 144.25313 29.315624Q143.44063 28.315624 142.31563 28.315624Q141.19063 28.315624 140.31563 29.378124Q139.45625 30.425 139.45625 32.425ZM148.78438 41.55L148.59688 39.89375Q149.175 40.05 149.59688 40.05Q150.19063 40.05 150.53438 39.846874Q150.89375 39.659374 151.1125 39.315624Q151.28438 39.05 151.65938 38.003124Q151.70625 37.846874 151.81563 37.565624L147.87813 27.175L149.76875 27.175L151.925 33.190624Q152.34688 34.33125 152.675 35.58125Q152.9875 34.378124 153.39375 33.221874L155.6125 27.175L157.37813 27.175L153.425 37.721874Q152.8 39.440624 152.44063 40.08125Q151.97188 40.95625 151.3625 41.346874Q150.76875 41.753124 149.925 41.753124Q149.40938 41.753124 148.78438 41.55ZM164.8625 41.51875L164.8625 27.175L166.47188 27.175L166.47188 28.51875Q167.03438 27.7375 167.7375 27.346874Q168.45625 26.940624 169.47188 26.940624Q170.8 26.940624 171.81563 27.628124Q172.83125 28.315624 173.34688 29.565624Q173.87813 30.8 173.87813 32.284374Q173.87813 33.878124 173.3 35.159374Q172.7375 36.425 171.64375 37.1125Q170.55 37.784374 169.34688 37.784374Q168.47188 37.784374 167.76875 37.409374Q167.08125 37.034374 166.62813 36.471874L166.62813 41.51875L164.8625 41.51875ZM166.45625 32.425Q166.45625 34.425 167.26875 35.378124Q168.08125 36.33125 169.2375 36.33125Q170.40938 36.33125 171.2375 35.346874Q172.08125 34.3625 172.08125 32.26875Q172.08125 30.3 171.25313 29.315624Q170.44063 28.315624 169.31563 28.315624Q168.19063 28.315624 167.31563 29.378124Q166.45625 30.425 166.45625 32.425ZM182.97188 34.20625L184.78438 34.440624Q184.3625 36.01875 183.19063 36.909374Q182.03438 37.784374 180.22188 37.784374Q177.95625 37.784374 176.6125 36.39375Q175.28438 34.9875 175.28438 32.45625Q175.28438 29.83125 176.62813 28.39375Q177.97188 26.940624 180.12813 26.940624Q182.20625 26.940624 183.51875 28.3625Q184.84688 29.76875 184.84688 32.346874Q184.84688 32.503124 184.83125 32.815624L177.09688 32.815624Q177.19063 34.51875 178.06563 35.425Q178.94063 36.33125 180.2375 36.33125Q181.20625 36.33125 181.87813 35.83125Q182.56563 35.315624 182.97188 34.20625ZM177.19063 31.3625L182.9875 31.3625Q182.87813 30.065624 182.33125 29.409374Q181.4875 28.39375 180.14375 28.39375Q178.94063 28.39375 178.1125 29.20625Q177.28438 30.003124 177.19063 31.3625ZM186.84688 37.55L186.84688 27.175L188.425 27.175L188.425 28.753124Q189.03438 27.64375 189.55 27.3Q190.06563 26.940624 190.675 26.940624Q191.56563 26.940624 192.4875 27.503124L191.87813 29.14375Q191.2375 28.753124 190.59688 28.753124Q190.01875 28.753124 189.55 29.1125Q189.09688 29.45625 188.89375 30.065624Q188.6125 31.003124 188.6125 32.1125L188.6125 37.55L186.84688 37.55ZM194.28438 37.55L194.28438 28.55L192.7375 28.55L192.7375 27.175L194.28438 27.175L194.28438 26.08125Q194.28438 25.034374 194.47188 24.51875Q194.72188 23.83125 195.3625 23.409374Q196.00313 22.9875 197.15938 22.9875Q197.90938 22.9875 198.8 23.159374L198.53438 24.690624Q197.9875 24.596874 197.50313 24.596874Q196.70625 24.596874 196.3625 24.940624Q196.03438 25.284374 196.03438 26.221874L196.03438 27.175L198.06563 27.175L198.06563 28.55L196.03438 28.55L196.03438 37.55L194.28438 37.55ZM199.22188 32.3625Q199.22188 29.4875 200.81563 28.096874Q202.15938 26.940624 204.08125 26.940624Q206.22188 26.940624 207.56563 28.346874Q208.925 29.753124 208.925 32.221874Q208.925 34.221874 208.33125 35.378124Q207.7375 36.51875 206.58125 37.159374Q205.44063 37.784374 204.08125 37.784374Q201.89375 37.784374 200.55 36.39375Q199.22188 34.9875 199.22188 32.3625ZM201.01875 32.3625Q201.01875 34.3625 201.87813 35.346874Q202.75313 36.33125 204.08125 36.33125Q205.39375 36.33125 206.25313 35.346874Q207.12813 34.346874 207.12813 32.3Q207.12813 30.378124 206.25313 29.39375Q205.37813 28.39375 204.08125 28.39375Q202.75313 28.39375 201.87813 29.39375Q201.01875 30.378124 201.01875 32.3625ZM210.84688 37.55L210.84688 27.175L212.425 27.175L212.425 28.753124Q213.03438 27.64375 213.55 27.3Q214.06563 26.940624 214.675 26.940624Q215.56563 26.940624 216.4875 27.503124L215.87813 29.14375Q215.2375 28.753124 214.59688 28.753124Q214.01875 28.753124 213.55 29.1125Q213.09688 29.45625 212.89375 30.065624Q212.6125 31.003124 212.6125 32.1125L212.6125 37.55L210.84688 37.55ZM217.8625 37.55L217.8625 27.175L219.44063 27.175L219.44063 28.628124Q219.925 27.878124 220.7375 27.409374Q221.55 26.940624 222.58125 26.940624Q223.7375 26.940624 224.47188 27.425Q225.20625 27.89375 225.51875 28.753124Q226.75313 26.940624 228.72188 26.940624Q230.26875 26.940624 231.09688 27.8Q231.925 28.659374 231.925 30.425L231.925 37.55L230.175 37.55L230.175 31.01875Q230.175 29.95625 230.00313 29.503124Q229.83125 29.034374 229.37813 28.753124Q228.94063 28.471874 228.33125 28.471874Q227.2375 28.471874 226.50313 29.20625Q225.78438 29.925 225.78438 31.51875L225.78438 37.55L224.03438 37.55L224.03438 30.815624Q224.03438 29.64375 223.59688 29.065624Q223.175 28.471874 222.19063 28.471874Q221.45625 28.471874 220.81563 28.8625Q220.19063 29.253124 219.90938 30.003124Q219.62813 30.753124 219.62813 32.175L219.62813 37.55L217.8625 37.55ZM240.64375 36.26875Q239.65938 37.096874 238.75313 37.440624Q237.84688 37.784374 236.81563 37.784374Q235.1125 37.784374 234.19063 36.95625Q233.26875 36.1125 233.26875 34.815624Q233.26875 34.05 233.6125 33.425Q233.97188 32.8 234.53438 32.425Q235.09688 32.034374 235.8 31.83125Q236.31563 31.70625 237.3625 31.565624Q239.4875 31.315624 240.4875 30.971874Q240.50313 30.6125 240.50313 30.503124Q240.50313 29.440624 240.00313 28.9875Q239.33125 28.39375 238.00313 28.39375Q236.75313 28.39375 236.15938 28.83125Q235.58125 29.26875 235.3 30.378124L233.58125 30.14375Q233.81563 29.034374 234.34688 28.3625Q234.87813 27.675 235.89375 27.315624Q236.90938 26.940624 238.25313 26.940624Q239.58125 26.940624 240.40938 27.253124Q241.2375 27.565624 241.62813 28.05Q242.01875 28.51875 242.175 29.2375Q242.26875 29.690624 242.26875 30.8625L242.26875 33.20625Q242.26875 35.659374 242.37813 36.315624Q242.4875 36.95625 242.83125 37.55L240.9875 37.55Q240.72188 37.003124 240.64375 36.26875ZM240.4875 32.346874Q239.53438 32.7375 237.6125 33.003124Q236.53438 33.159374 236.08125 33.3625Q235.64375 33.55 235.39375 33.925Q235.14375 34.3 235.14375 34.76875Q235.14375 35.471874 235.675 35.940624Q236.20625 36.409374 237.2375 36.409374Q238.25313 36.409374 239.03438 35.971874Q239.83125 35.51875 240.20625 34.753124Q240.4875 34.14375 240.4875 32.9875L240.4875 32.346874ZM244.8625 37.55L244.8625 27.175L246.45625 27.175L246.45625 28.659374Q247.59688 26.940624 249.75313 26.940624Q250.69063 26.940624 251.47188 27.284374Q252.26875 27.6125 252.65938 28.159374Q253.05 28.70625 253.20625 29.45625Q253.3 29.95625 253.3 31.175L253.3 37.55L251.53438 37.55L251.53438 31.2375Q251.53438 30.159374 251.33125 29.628124Q251.12813 29.096874 250.59688 28.784374Q250.08125 28.471874 249.37813 28.471874Q248.25313 28.471874 247.44063 29.190624Q246.62813 29.89375 246.62813 31.878124L246.62813 37.55L244.8625 37.55ZM261.64374 33.753124L263.3625 33.971874Q263.08124 35.76875 261.90936 36.784374Q260.7531 37.784374 259.05 37.784374Q256.925 37.784374 255.62813 36.39375Q254.33125 35.003124 254.33125 32.409374Q254.33125 30.721874 254.87813 29.471874Q255.44063 28.20625 256.58124 27.58125Q257.72186 26.940624 259.0656 26.940624Q260.7531 26.940624 261.8156 27.8Q262.89374 28.659374 263.20624 30.221874L261.4875 30.4875Q261.2531 29.440624 260.6281 28.925Q260.0031 28.39375 259.1281 28.39375Q257.8 28.39375 256.97186 29.346874Q256.14374 30.3 256.14374 32.346874Q256.14374 34.440624 256.9406 35.39375Q257.7375 36.33125 259.03436 36.33125Q260.0656 36.33125 260.7531 35.70625Q261.45624 35.065624 261.64374 33.753124ZM271.97186 34.20625L273.78436 34.440624Q273.3625 36.01875 272.1906 36.909374Q271.03436 37.784374 269.22186 37.784374Q266.95624 37.784374 265.6125 36.39375Q264.28436 34.9875 264.28436 32.45625Q264.28436 29.83125 265.6281 28.39375Q266.97186 26.940624 269.1281 26.940624Q271.20624 26.940624 272.51874 28.3625Q273.84686 29.76875 273.84686 32.346874Q273.84686 32.503124 273.83124 32.815624L266.09686 32.815624Q266.1906 34.51875 267.0656 35.425Q267.9406 36.33125 269.2375 36.33125Q270.20624 36.33125 270.8781 35.83125Q271.5656 35.315624 271.97186 34.20625ZM266.1906 31.3625L271.9875 31.3625Q271.8781 30.065624 271.33124 29.409374Q270.4875 28.39375 269.14374 28.39375Q267.9406 28.39375 267.1125 29.20625Q266.28436 30.003124 266.1906 31.3625ZM282.28436 37.55L282.28436 28.55L280.7375 28.55L280.7375 27.175L282.28436 27.175L282.28436 26.08125Q282.28436 25.034374 282.47186 24.51875Q282.72186 23.83125 283.3625 23.409374Q284.0031 22.9875 285.15936 22.9875Q285.90936 22.9875 286.8 23.159374L286.53436 24.690624Q285.9875 24.596874 285.5031 24.596874Q284.70624 24.596874 284.3625 24.940624Q284.03436 25.284374 284.03436 26.221874L284.03436 27.175L286.0656 27.175L286.0656 28.55L284.03436 28.55L284.03436 37.55L282.28436 37.55ZM287.22186 32.3625Q287.22186 29.4875 288.8156 28.096874Q290.15936 26.940624 292.08124 26.940624Q294.22186 26.940624 295.5656 28.346874Q296.925 29.753124 296.925 32.221874Q296.925 34.221874 296.33124 35.378124Q295.7375 36.51875 294.58124 37.159374Q293.4406 37.784374 292.08124 37.784374Q289.89374 37.784374 288.55 36.39375Q287.22186 34.9875 287.22186 32.3625ZM289.01874 32.3625Q289.01874 34.3625 289.8781 35.346874Q290.7531 36.33125 292.08124 36.33125Q293.39374 36.33125 294.2531 35.346874Q295.1281 34.346874 295.1281 32.3Q295.1281 30.378124 294.2531 29.39375Q293.3781 28.39375 292.08124 28.39375Q290.7531 28.39375 289.8781 29.39375Q289.01874 30.378124 289.01874 32.3625ZM298.84686 37.55L298.84686 27.175L300.425 27.175L300.425 28.753124Q301.03436 27.64375 301.55 27.3Q302.0656 26.940624 302.675 26.940624Q303.5656 26.940624 304.4875 27.503124L303.8781 29.14375Q303.2375 28.753124 302.59686 28.753124Q302.01874 28.753124 301.55 29.1125Q301.09686 29.45625 300.89374 30.065624Q300.6125 31.003124 300.6125 32.1125L300.6125 37.55L298.84686 37.55ZM316.1906 37.55L310.64374 23.2375L312.6906 23.2375L316.40936 33.628124Q316.8625 34.878124 317.15936 35.971874Q317.4875 34.8 317.9406 33.628124L321.8 23.2375L323.7375 23.2375L318.1281 37.55L316.1906 37.55ZM325.01874 37.55L325.01874 23.2375L326.90936 23.2375L326.90936 35.8625L333.95624 35.8625L333.95624 37.55L325.01874 37.55ZM336.1281 37.55L336.1281 23.2375L346.4875 23.2375L346.4875 24.925L338.03436 24.925L338.03436 29.3L345.9406 29.3L345.9406 30.9875L338.03436 30.9875L338.03436 35.8625L346.8156 35.8625L346.8156 37.55L336.1281 37.55ZM349.08124 37.55L349.08124 23.2375L351.01874 23.2375L358.53436 34.471874L358.53436 23.2375L360.34686 23.2375L360.34686 37.55L358.40936 37.55L350.89374 26.3L350.89374 37.55L349.08124 37.55ZM371.1125 29.128124L361.65936 29.128124L361.65936 27.4875L371.1125 27.4875L371.1125 29.128124ZM371.1125 33.471874L361.65936 33.471874L361.65936 31.83125L371.1125 31.83125L371.1125 33.471874ZM373.3781 33.8L375.22186 33.64375Q375.425 34.9875 376.175 35.675Q376.925 36.346874 377.9875 36.346874Q379.2531 36.346874 380.1281 35.39375Q381.0031 34.440624 381.0031 32.846874Q381.0031 31.346874 380.15936 30.4875Q379.3156 29.6125 377.95624 29.6125Q377.09686 29.6125 376.40936 30.003124Q375.7375 30.378124 375.34686 31.003124L373.6906 30.784374L375.08124 23.425L382.20624 23.425L382.20624 25.1125L376.4875 25.1125L375.72186 28.95625Q377.0031 28.05 378.425 28.05Q380.3 28.05 381.58124 29.3625Q382.8781 30.659374 382.8781 32.690624Q382.8781 34.64375 381.7375 36.05Q380.3625 37.8 377.9875 37.8Q376.03436 37.8 374.78436 36.70625Q373.55 35.6125 373.3781 33.8ZM391.0031 37.55L389.2375 37.55L389.2375 26.346874Q388.6125 26.95625 387.58124 27.565624Q386.55 28.159374 385.72186 28.471874L385.72186 26.76875Q387.20624 26.08125 388.3 25.096874Q389.40936 24.096874 389.8625 23.175L391.0031 23.175L391.0031 37.55ZM404.6125 35.8625L404.6125 37.55L395.15936 37.55Q395.14374 36.909374 395.3625 36.33125Q395.72186 35.3625 396.51874 34.425Q397.3156 33.4875 398.8156 32.253124Q401.15936 30.346874 401.97186 29.2375Q402.8 28.1125 402.8 27.1125Q402.8 26.065624 402.05 25.346874Q401.3 24.628124 400.09686 24.628124Q398.83124 24.628124 398.0656 25.39375Q397.3 26.159374 397.3 27.503124L395.4875 27.315624Q395.675 25.3 396.8781 24.2375Q398.09686 23.175 400.14374 23.175Q402.1906 23.175 403.39374 24.315624Q404.59686 25.45625 404.59686 27.14375Q404.59686 28.003124 404.2375 28.846874Q403.89374 29.675 403.08124 30.596874Q402.26874 31.503124 400.3781 33.1125Q398.78436 34.440624 398.33124 34.909374Q397.89374 35.378124 397.59686 35.8625L404.6125 35.8625ZM407.33124 37.55L407.33124 35.55L409.33124 35.55L409.33124 37.55Q409.33124 38.659374 408.9406 39.33125Q408.55 40.01875 407.70624 40.378124L407.20624 39.628124Q407.76874 39.39375 408.03436 38.909374Q408.3 38.440624 408.33124 37.55L407.33124 37.55ZM419.01874 37.55L419.01874 23.2375L420.90936 23.2375L420.90936 35.8625L427.95624 35.8625L427.95624 37.55L419.01874 37.55ZM430.03436 37.55L430.03436 23.2375L432.89374 23.2375L436.26874 33.3625Q436.7375 34.784374 436.95624 35.4875Q437.20624 34.70625 437.72186 33.190624L441.14374 23.2375L443.6906 23.2375L443.6906 37.55L441.8781 37.55L441.8781 25.565624L437.70624 37.55L436.0031 37.55L431.8625 25.3625L431.8625 37.55L430.03436 37.55ZM456.4875 23.2375L458.3781 23.2375L458.3781 31.503124Q458.3781 33.659374 457.89374 34.940624Q457.40936 36.20625 456.1281 37.003124Q454.8625 37.8 452.78436 37.8Q450.76874 37.8 449.4875 37.1125Q448.22186 36.409374 447.675 35.096874Q447.1281 33.784374 447.1281 31.503124L447.1281 23.2375L449.01874 23.2375L449.01874 31.4875Q449.01874 33.3625 449.3625 34.253124Q449.70624 35.128124 450.55 35.6125Q451.39374 36.08125 452.6281 36.08125Q454.70624 36.08125 455.59686 35.14375Q456.4875 34.190624 456.4875 31.4875L456.4875 23.2375ZM460.01874 37.55L460.01874 23.2375L461.90936 23.2375L461.90936 35.8625L468.95624 35.8625L468.95624 37.55L460.01874 37.55ZM480.1125 29.128124L470.65936 29.128124L470.65936 27.4875L480.1125 27.4875L480.1125 29.128124ZM480.1125 33.471874L470.65936 33.471874L470.65936 31.83125L480.1125 31.83125L480.1125 33.471874ZM485.08124 29.784374Q483.9875 29.378124 483.45624 28.64375Q482.9406 27.89375 482.9406 26.8625Q482.9406 25.3 484.0656 24.2375Q485.1906 23.175 487.05 23.175Q488.925 23.175 490.0656 24.26875Q491.20624 25.346874 491.20624 26.909374Q491.20624 27.909374 490.675 28.64375Q490.15936 29.378124 489.09686 29.784374Q490.425 30.221874 491.1125 31.175Q491.8 32.128124 491.8 33.45625Q491.8 35.3 490.4875 36.55Q489.1906 37.8 487.08124 37.8Q484.95624 37.8 483.65936 36.55Q482.3625 35.284374 482.3625 33.409374Q482.3625 32.01875 483.0656 31.08125Q483.78436 30.128124 485.08124 29.784374ZM484.7375 26.8Q484.7375 27.815624 485.39374 28.471874Q486.05 29.1125 487.08124 29.1125Q488.09686 29.1125 488.7531 28.471874Q489.40936 27.83125 489.40936 26.909374Q489.40936 25.940624 488.7375 25.284374Q488.0656 24.6125 487.0656 24.6125Q486.0656 24.6125 485.39374 25.26875Q484.7375 25.909374 484.7375 26.8ZM484.175 33.425Q484.175 34.175 484.51874 34.878124Q484.8781 35.58125 485.58124 35.971874Q486.28436 36.346874 487.09686 36.346874Q488.3625 36.346874 489.175 35.534374Q490.0031 34.721874 490.0031 33.471874Q490.0031 32.20625 489.15936 31.378124Q488.3156 30.55 487.03436 30.55Q485.8 30.55 484.9875 31.378124Q484.175 32.190624 484.175 33.425Z" fill-rule="nonzero"/></svg>