<svg version="1.1" viewBox="0.0 0.0 600.0 371.0" fill="none" stroke="none" stroke-linecap="square" stroke-miterlimit="10" width="600" height="371" xmlns:xlink="http://www.w3.org/1999/xlink" xmlns="http://www.w3.org/2000/svg"><path fill="#ffffff" d="M0 0L600.0 0L600.0 371.0L0 371.0L0 0Z" fill-rule="nonzero"/><path stroke="#cccccc" stroke-width="1.0" stroke-linecap="butt" d="M101.5 86.5L101.5 300.5" fill-rule="nonzero"/><path stroke="#cccccc" stroke-width="1.0" stroke-linecap="butt" d="M224.5 86.5L224.5 300.5" fill-rule="nonzero"/><path stroke="#cccccc" stroke-width="1.0" stroke-linecap="butt" d="M346.5 86.5L346.5 300.5" fill-rule="nonzero"/><path stroke="#cccccc" stroke-width="1.0" stroke-linecap="butt" d="M469.5 86.5L469.5 300.5" fill-rule="nonzero"/><path stroke="#333333" stroke-width="1.0" stroke-linecap="butt" d="M101.5 300.5L581.5 300.5" fill-rule="nonzero"/><path stroke="#cccccc" stroke-width="1.0" stroke-linecap="butt" d="M101.5 229.5L581.5 229.5" fill-rule="nonzero"/><path stroke="#cccccc" stroke-width="1.0" stroke-linecap="butt" d="M101.5 157.5L581.5 157.5" fill-rule="nonzero"/><path stroke="#cccccc" stroke-width="1.0" stroke-linecap="butt" d="M101.5 86.5L581.5 86.5" fill-rule="nonzero"/><clipPath id="id_0"><path d="M101.55 86.28333L581.45 86.28333L581.45 300.45L101.55 300.45L101.55 86.28333Z" clip-rule="nonzero"/></clipPath><path stroke="#4285f4" stroke-width="2.0" stroke-linecap="butt" clip-path="url(#id_0)" d="M101.55 299.69614L138.46538 299.25424L175.38077 298.2348L212.29616 296.5593L249.21153 292.95844L286.12692 286.3061L323.0423 272.91174L359.9577 246.08736L396.87308 192.93834L433.78845 86.35472L470.70386 86.46181L507.61923 86.28333L544.5346 86.42611L581.45 86.4975" fill-rule="nonzero"/><path stroke="#ea4335" stroke-width="2.0" stroke-linecap="butt" clip-path="url(#id_0)" d="M101.55 299.6858L138.46538 299.27136L175.38077 298.36865L212.29616 299.66473L249.21153 299.2364L286.12692 297.88L323.0423 295.7562L359.9577 291.5264L396.87308 283.28098L433.78845 266.9686L470.70386 266.93292L507.61923 272.8939L544.5346 272.8939L581.45 272.96527" fill-rule="nonzero"/><path fill="#000000" fill-opacity="0.0" clip-path="url(#id_0)" d="M104.55 299.69614C104.55 301.353 103.206856 302.69614 101.55 302.69614C99.89314 302.69614 98.55 301.353 98.55 299.69614C98.55 298.03928 99.89314 296.69614 101.55 296.69614C103.206856 296.69614 104.55 298.03928 104.55 299.69614Z" fill-rule="nonzero"/><path fill="#000000" fill-opacity="0.0" clip-path="url(#id_0)" d="M141.46538 299.25424C141.46538 300.9111 140.12224 302.25424 138.46538 302.25424C136.80853 302.25424 135.46538 300.9111 135.46538 299.25424C135.46538 297.59738 136.80853 296.25424 138.46538 296.25424C140.12224 296.25424 141.46538 297.59738 141.46538 299.25424Z" fill-rule="nonzero"/><path fill="#000000" fill-opacity="0.0" clip-path="url(#id_0)" d="M178.38077 298.2348C178.38077 299.89166 177.03763 301.2348 175.38077 301.2348C173.7239 301.2348 172.38077 299.89166 172.38077 298.2348C172.38077 296.57794 173.7239 295.2348 175.38077 295.2348C177.03763 295.2348 178.38077 296.57794 178.38077 298.2348Z" fill-rule="nonzero"/><path fill="#000000" fill-opacity="0.0" clip-path="url(#id_0)" d="M215.29616 296.5593C215.29616 298.21616 213.953 299.5593 212.29616 299.5593C210.6393 299.5593 209.29616 298.21616 209.29616 296.5593C209.29616 294.90247 210.6393 293.5593 212.29616 293.5593C213.953 293.5593 215.29616 294.90247 215.29616 296.5593Z" fill-rule="nonzero"/><path fill="#000000" fill-opacity="0.0" clip-path="url(#id_0)" d="M252.21153 292.95844C252.21153 294.6153 250.8684 295.95844 249.21153 295.95844C247.55469 295.95844 246.21153 294.6153 246.21153 292.95844C246.21153 291.3016 247.55469 289.95844 249.21153 289.95844C250.8684 289.95844 252.21153 291.3016 252.21153 292.95844Z" fill-rule="nonzero"/><path fill="#000000" fill-opacity="0.0" clip-path="url(#id_0)" d="M289.12692 286.3061C289.12692 287.96292 287.78378 289.3061 286.12692 289.3061C284.47006 289.3061 283.12692 287.96292 283.12692 286.3061C283.12692 284.64923 284.47006 283.3061 286.12692 283.3061C287.78378 283.3061 289.12692 284.64923 289.12692 286.3061Z" fill-rule="nonzero"/><path fill="#000000" fill-opacity="0.0" clip-path="url(#id_0)" d="M326.0423 272.91174C326.0423 274.5686 324.69916 275.91174 323.0423 275.91174C321.38547 275.91174 320.0423 274.5686 320.0423 272.91174C320.0423 271.25488 321.38547 269.91174 323.0423 269.91174C324.69916 269.91174 326.0423 271.25488 326.0423 272.91174Z" fill-rule="nonzero"/><path fill="#000000" fill-opacity="0.0" clip-path="url(#id_0)" d="M362.9577 246.08736C362.9577 247.74422 361.61453 249.08736 359.9577 249.08736C358.30084 249.08736 356.9577 247.74422 356.9577 246.08736C356.9577 244.43051 358.30084 243.08736 359.9577 243.08736C361.61453 243.08736 362.9577 244.43051 362.9577 246.08736Z" fill-rule="nonzero"/><path fill="#000000" fill-opacity="0.0" clip-path="url(#id_0)" d="M399.87308 192.93834C399.87308 194.59518 398.52994 195.93834 396.87308 195.93834C395.21622 195.93834 393.87308 194.59518 393.87308 192.93834C393.87308 191.28148 395.21622 189.93834 396.87308 189.93834C398.52994 189.93834 399.87308 191.28148 399.87308 192.93834Z" fill-rule="nonzero"/><path fill="#000000" fill-opacity="0.0" clip-path="url(#id_0)" d="M436.78845 86.35472C436.78845 88.01157 435.4453 89.35472 433.78845 89.35472C432.13162 89.35472 430.78845 88.01157 430.78845 86.35472C430.78845 84.69787 432.13162 83.35472 433.78845 83.35472C435.4453 83.35472 436.78845 84.69787 436.78845 86.35472Z" fill-rule="nonzero"/><path fill="#000000" fill-opacity="0.0" clip-path="url(#id_0)" d="M473.70386 86.46181C473.70386 88.11866 472.3607 89.46181 470.70386 89.46181C469.047 89.46181 467.70386 88.11866 467.70386 86.46181C467.70386 84.804955 469.047 83.46181 470.70386 83.46181C472.3607 83.46181 473.70386 84.804955 473.70386 86.46181Z" fill-rule="nonzero"/><path fill="#000000" fill-opacity="0.0" clip-path="url(#id_0)" d="M510.61923 86.28333C510.61923 87.940186 509.2761 89.28333 507.61923 89.28333C505.96237 89.28333 504.61923 87.940186 504.61923 86.28333C504.61923 84.62648 505.96237 83.28333 507.61923 83.28333C509.2761 83.28333 510.61923 84.62648 510.61923 86.28333Z" fill-rule="nonzero"/><path fill="#000000" fill-opacity="0.0" clip-path="url(#id_0)" d="M547.5346 86.42611C547.5346 88.08296 546.19147 89.42611 544.5346 89.42611C542.87775 89.42611 541.5346 88.08296 541.5346 86.42611C541.5346 84.76926 542.87775 83.42611 544.5346 83.42611C546.19147 83.42611 547.5346 84.76926 547.5346 86.42611Z" fill-rule="nonzero"/><path fill="#000000" fill-opacity="0.0" clip-path="url(#id_0)" d="M584.45 86.4975C584.45 88.15436 583.1069 89.4975 581.45 89.4975C579.79315 89.4975 578.45 88.15436 578.45 86.4975C578.45 84.840645 579.79315 83.4975 581.45 83.4975C583.1069 83.4975 584.45 84.840645 584.45 86.4975Z" fill-rule="nonzero"/><path fill="#000000" fill-opacity="0.0" clip-path="url(#id_0)" d="M104.55 299.6858C104.55 301.34265 103.206856 302.6858 101.55 302.6858C99.89314 302.6858 98.55 301.34265 98.55 299.6858C98.55 298.02893 99.89314 296.6858 101.55 296.6858C103.206856 296.6858 104.55 298.02893 104.55 299.6858Z" fill-rule="nonzero"/><path fill="#000000" fill-opacity="0.0" clip-path="url(#id_0)" d="M141.46538 299.27136C141.46538 300.92822 140.12224 302.27136 138.46538 302.27136C136.80853 302.27136 135.46538 300.92822 135.46538 299.27136C135.46538 297.6145 136.80853 296.27136 138.46538 296.27136C140.12224 296.27136 141.46538 297.6145 141.46538 299.27136Z" fill-rule="nonzero"/><path fill="#000000" fill-opacity="0.0" clip-path="url(#id_0)" d="M178.38077 298.36865C178.38077 300.0255 177.03763 301.36865 175.38077 301.36865C173.7239 301.36865 172.38077 300.0255 172.38077 298.36865C172.38077 296.7118 173.7239 295.36865 175.38077 295.36865C177.03763 295.36865 178.38077 296.7118 178.38077 298.36865Z" fill-rule="nonzero"/><path fill="#000000" fill-opacity="0.0" clip-path="url(#id_0)" d="M215.29616 299.66473C215.29616 301.32156 213.953 302.66473 212.29616 302.66473C210.6393 302.66473 209.29616 301.32156 209.29616 299.66473C209.29616 298.00787 210.6393 296.66473 212.29616 296.66473C213.953 296.66473 215.29616 298.00787 215.29616 299.66473Z" fill-rule="nonzero"/><path fill="#000000" fill-opacity="0.0" clip-path="url(#id_0)" d="M252.21153 299.2364C252.21153 300.89325 250.8684 302.2364 249.21153 302.2364C247.55469 302.2364 246.21153 300.89325 246.21153 299.2364C246.21153 297.57953 247.55469 296.2364 249.21153 296.2364C250.8684 296.2364 252.21153 297.57953 252.21153 299.2364Z" fill-rule="nonzero"/><path fill="#000000" fill-opacity="0.0" clip-path="url(#id_0)" d="M289.12692 297.88C289.12692 299.53687 287.78378 300.88 286.12692 300.88C284.47006 300.88 283.12692 299.53687 283.12692 297.88C283.12692 296.22314 284.47006 294.88 286.12692 294.88C287.78378 294.88 289.12692 296.22314 289.12692 297.88Z" fill-rule="nonzero"/><path fill="#000000" fill-opacity="0.0" clip-path="url(#id_0)" d="M326.0423 295.7562C326.0423 297.41302 324.69916 298.7562 323.0423 298.7562C321.38547 298.7562 320.0423 297.41302 320.0423 295.7562C320.0423 294.09933 321.38547 292.7562 323.0423 292.7562C324.69916 292.7562 326.0423 294.09933 326.0423 295.7562Z" fill-rule="nonzero"/><path fill="#000000" fill-opacity="0.0" clip-path="url(#id_0)" d="M362.9577 291.5264C362.9577 293.18326 361.61453 294.5264 359.9577 294.5264C358.30084 294.5264 356.9577 293.18326 356.9577 291.5264C356.9577 289.86954 358.30084 288.5264 359.9577 288.5264C361.61453 288.5264 362.9577 289.86954 362.9577 291.5264Z" fill-rule="nonzero"/><path fill="#000000" fill-opacity="0.0" clip-path="url(#id_0)" d="M399.87308 283.28098C399.87308 284.93784 398.52994 286.28098 396.87308 286.28098C395.21622 286.28098 393.87308 284.93784 393.87308 283.28098C393.87308 281.6241 395.21622 280.28098 396.87308 280.28098C398.52994 280.28098 399.87308 281.6241 399.87308 283.28098Z" fill-rule="nonzero"/><path fill="#000000" fill-opacity="0.0" clip-path="url(#id_0)" d="M436.78845 266.9686C436.78845 268.62546 435.4453 269.9686 433.78845 269.9686C432.13162 269.9686 430.78845 268.62546 430.78845 266.9686C430.78845 265.31177 432.13162 263.9686 433.78845 263.9686C435.4453 263.9686 436.78845 265.31177 436.78845 266.9686Z" fill-rule="nonzero"/><path fill="#000000" fill-opacity="0.0" clip-path="url(#id_0)" d="M473.70386 266.93292C473.70386 268.58978 472.3607 269.93292 470.70386 269.93292C469.047 269.93292 467.70386 268.58978 467.70386 266.93292C467.70386 265.27606 469.047 263.93292 470.70386 263.93292C472.3607 263.93292 473.70386 265.27606 473.70386 266.93292Z" fill-rule="nonzero"/><path fill="#000000" fill-opacity="0.0" clip-path="url(#id_0)" d="M510.61923 272.8939C510.61923 274.55075 509.2761 275.8939 507.61923 275.8939C505.96237 275.8939 504.61923 274.55075 504.61923 272.8939C504.61923 271.23703 505.96237 269.8939 507.61923 269.8939C509.2761 269.8939 510.61923 271.23703 510.61923 272.8939Z" fill-rule="nonzero"/><path fill="#000000" fill-opacity="0.0" clip-path="url(#id_0)" d="M547.5346 272.8939C547.5346 274.55075 546.19147 275.8939 544.5346 275.8939C542.87775 275.8939 541.5346 274.55075 541.5346 272.8939C541.5346 271.23703 542.87775 269.8939 544.5346 269.8939C546.19147 269.8939 547.5346 271.23703 547.5346 272.8939Z" fill-rule="nonzero"/><path fill="#000000" fill-opacity="0.0" clip-path="url(#id_0)" d="M584.45 272.96527C584.45 274.62213 583.1069 275.96527 581.45 275.96527C579.79315 275.96527 578.45 274.62213 578.45 272.96527C578.45 271.3084 579.79315 269.96527 581.45 269.96527C583.1069 269.96527 584.45 271.3084 584.45 272.96527Z" fill-rule="nonzero"/><path fill="#000000" d="M294.875 349.45L294.875 340.85626L298.10938 340.85626Q299.09375 340.85626 299.6875 341.1219Q300.28125 341.3875 300.60938 341.9344Q300.95312 342.46564 300.95312 343.0594Q300.95312 343.60626 300.65625 344.09064Q300.35938 344.575 299.75 344.8719Q300.53125 345.10626 300.9375 345.66876Q301.35938 346.21564 301.35938 346.96564Q301.35938 347.5594 301.10938 348.09064Q300.85938 348.60626 300.48438 348.8875Q300.10938 349.16876 299.53125 349.3094Q298.96875 349.45 298.15625 349.45L294.875 349.45ZM296.01562 344.46564L297.875 344.46564Q298.625 344.46564 298.95312 344.3719Q299.39062 344.2469 299.60938 343.95Q299.82812 343.6375 299.82812 343.1844Q299.82812 342.7625 299.625 342.4344Q299.42188 342.10626 299.03125 341.9969Q298.65625 341.8719 297.73438 341.8719L296.01562 341.8719L296.01562 344.46564ZM296.01562 348.4344L298.15625 348.4344Q298.70312 348.4344 298.92188 348.3875Q299.32812 348.325 299.57812 348.16876Q299.84375 347.9969 300.01562 347.6844Q300.1875 347.3719 300.1875 346.96564Q300.1875 346.48126 299.9375 346.1219Q299.70312 345.7625 299.26562 345.6219Q298.82812 345.48126 298.0 345.48126L296.01562 345.48126L296.01562 348.4344ZM302.76562 349.45L302.76562 340.85626L303.82812 340.85626L303.82812 349.45L302.76562 349.45ZM305.40625 346.34064Q305.40625 344.60626 306.35938 343.77814Q307.15625 343.09064 308.3125 343.09064Q309.59375 343.09064 310.40625 343.9344Q311.23438 344.7625 311.23438 346.2469Q311.23438 347.45 310.875 348.1375Q310.51562 348.825 309.8125 349.21564Q309.125 349.59064 308.3125 349.59064Q307.01562 349.59064 306.20312 348.7625Q305.40625 347.91876 305.40625 346.34064ZM306.48438 346.34064Q306.48438 347.52814 307.0 348.1219Q307.53125 348.71564 308.3125 348.71564Q309.10938 348.71564 309.625 348.1219Q310.14062 347.52814 310.14062 346.3094Q310.14062 345.15314 309.60938 344.5594Q309.09375 343.96564 308.3125 343.96564Q307.53125 343.96564 307.0 344.5594Q306.48438 345.1375 306.48438 346.34064ZM316.85938 347.16876L317.89062 347.3094Q317.71875 348.3719 317.01562 348.98126Q316.3125 349.59064 315.29688 349.59064Q314.01562 349.59064 313.23438 348.7625Q312.46875 347.91876 312.46875 346.35626Q312.46875 345.35626 312.79688 344.60626Q313.14062 343.84064 313.8125 343.46564Q314.5 343.09064 315.3125 343.09064Q316.3125 343.09064 316.95312 343.60626Q317.60938 344.10626 317.79688 345.0594L316.76562 345.21564Q316.625 344.59064 316.25 344.27814Q315.875 343.95 315.34375 343.95Q314.54688 343.95 314.04688 344.52814Q313.54688 345.09064 313.54688 346.325Q313.54688 347.59064 314.03125 348.15314Q314.51562 348.71564 315.28125 348.71564Q315.90625 348.71564 316.3125 348.34064Q316.73438 347.96564 316.85938 347.16876ZM318.79688 349.45L318.79688 340.85626L319.85938 340.85626L319.85938 345.7625L322.34375 343.23126L323.71875 343.23126L321.32812 345.52814L323.95312 349.45L322.65625 349.45L320.59375 346.2625L319.85938 346.98126L319.85938 349.45L318.79688 349.45ZM327.375 347.59064L328.40625 347.4344Q328.5 348.0594 328.89062 348.3875Q329.29688 348.71564 330.03125 348.71564Q330.75 348.71564 331.09375 348.4344Q331.45312 348.1375 331.45312 347.73126Q331.45312 347.3719 331.14062 347.16876Q330.92188 347.02814 330.0625 346.8094Q328.90625 346.5125 328.45312 346.3094Q328.01562 346.09064 327.78125 345.71564Q327.54688 345.34064 327.54688 344.8719Q327.54688 344.46564 327.73438 344.10626Q327.92188 343.7469 328.25 343.5125Q328.5 343.34064 328.92188 343.21564Q329.34375 343.09064 329.84375 343.09064Q330.5625 343.09064 331.10938 343.3094Q331.67188 343.5125 331.9375 343.8719Q332.20312 344.23126 332.29688 344.825L331.26562 344.96564Q331.20312 344.4969 330.85938 344.23126Q330.53125 343.95 329.90625 343.95Q329.1875 343.95 328.875 344.2Q328.5625 344.4344 328.5625 344.7625Q328.5625 344.96564 328.6875 345.1219Q328.82812 345.29376 329.09375 345.40314Q329.25 345.46564 330.03125 345.66876Q331.15625 345.98126 331.59375 346.16876Q332.03125 346.35626 332.28125 346.71564Q332.53125 347.075 332.53125 347.6219Q332.53125 348.15314 332.21875 348.6219Q331.92188 349.075 331.34375 349.34064Q330.76562 349.59064 330.03125 349.59064Q328.8125 349.59064 328.17188 349.09064Q327.54688 348.575 327.375 347.59064ZM334.79688 342.075L334.79688 340.85626L335.85938 340.85626L335.85938 342.075L334.79688 342.075ZM334.79688 349.45L334.79688 343.23126L335.85938 343.23126L335.85938 349.45L334.79688 349.45ZM337.23438 349.45L337.23438 348.59064L341.20312 344.04376Q340.51562 344.075 340.0 344.075L337.46875 344.075L337.46875 343.23126L342.5625 343.23126L342.5625 343.91876L339.1875 347.8719L338.53125 348.59064Q339.25 348.54376 339.85938 348.54376L342.75 348.54376L342.75 349.45L337.23438 349.45ZM347.04688 347.45L348.14062 347.575Q347.89062 348.52814 347.1875 349.0594Q346.48438 349.59064 345.40625 349.59064Q344.04688 349.59064 343.23438 348.7469Q342.4375 347.90314 342.4375 346.3875Q342.4375 344.825 343.25 343.96564Q344.0625 343.09064 345.34375 343.09064Q346.59375 343.09064 347.375 343.9344Q348.17188 344.77814 348.17188 346.325Q348.17188 346.41876 348.17188 346.60626L343.53125 346.60626Q343.59375 347.6375 344.10938 348.1844Q344.625 348.71564 345.40625 348.71564Q345.98438 348.71564 346.39062 348.41876Q346.8125 348.10626 347.04688 347.45ZM343.59375 345.7469L347.0625 345.7469Q347.0 344.95 346.67188 344.5594Q346.15625 343.95 345.35938 343.95Q344.625 343.95 344.125 344.4344Q343.64062 344.91876 343.59375 345.7469ZM354.8125 351.98126Q353.9375 350.8719 353.32812 349.40314Q352.73438 347.91876 352.73438 346.34064Q352.73438 344.95 353.17188 343.66876Q353.70312 342.1844 354.8125 340.71564L355.5625 340.71564Q354.85938 341.9344 354.625 342.45Q354.26562 343.2625 354.0625 344.1375Q353.8125 345.23126 353.8125 346.34064Q353.8125 349.16876 355.5625 351.98126L354.8125 351.98126ZM357.76562 349.45L356.78125 349.45L356.78125 340.85626L357.84375 340.85626L357.84375 343.91876Q358.51562 343.09064 359.54688 343.09064Q360.125 343.09064 360.625 343.325Q361.14062 343.54376 361.46875 343.96564Q361.8125 344.3875 362.0 344.98126Q362.1875 345.575 362.1875 346.2469Q362.1875 347.84064 361.39062 348.71564Q360.59375 349.59064 359.5 349.59064Q358.39062 349.59064 357.76562 348.66876L357.76562 349.45ZM357.75 346.29376Q357.75 347.40314 358.0625 347.90314Q358.5625 348.71564 359.40625 348.71564Q360.09375 348.71564 360.59375 348.1219Q361.10938 347.52814 361.10938 346.325Q361.10938 345.10626 360.625 344.52814Q360.14062 343.95 359.45312 343.95Q358.76562 343.95 358.25 344.5594Q357.75 345.15314 357.75 346.29376ZM363.75 351.84064L363.625 350.85626Q363.96875 350.95 364.23438 350.95Q364.57812 350.95 364.78125 350.825Q365.0 350.71564 365.14062 350.5125Q365.23438 350.34064 365.46875 349.71564Q365.48438 349.6375 365.5625 349.46564L363.1875 343.23126L364.32812 343.23126L365.625 346.825Q365.875 347.5125 366.07812 348.27814Q366.26562 347.54376 366.51562 346.85626L367.84375 343.23126L368.89062 343.23126L366.53125 349.5594Q366.14062 350.575 365.9375 350.96564Q365.65625 351.4969 365.28125 351.73126Q364.92188 351.98126 364.42188 351.98126Q364.125 351.98126 363.75 351.84064ZM371.09375 348.5125L371.25 349.4344Q370.79688 349.52814 370.45312 349.52814Q369.875 349.52814 369.5625 349.35626Q369.25 349.16876 369.10938 348.8719Q368.98438 348.575 368.98438 347.6219L368.98438 344.04376L368.21875 344.04376L368.21875 343.23126L368.98438 343.23126L368.98438 341.6844L370.03125 341.0594L370.03125 343.23126L371.09375 343.23126L371.09375 344.04376L370.03125 344.04376L370.03125 347.6844Q370.03125 348.1375 370.07812 348.2625Q370.14062 348.3875 370.26562 348.46564Q370.39062 348.54376 370.625 348.54376Q370.8125 348.54376 371.09375 348.5125ZM376.04688 347.45L377.14062 347.575Q376.89062 348.52814 376.1875 349.0594Q375.48438 349.59064 374.40625 349.59064Q373.04688 349.59064 372.23438 348.7469Q371.4375 347.90314 371.4375 346.3875Q371.4375 344.825 372.25 343.96564Q373.0625 343.09064 374.34375 343.09064Q375.59375 343.09064 376.375 343.9344Q377.17188 344.77814 377.17188 346.325Q377.17188 346.41876 377.17188 346.60626L372.53125 346.60626Q372.59375 347.6375 373.10938 348.1844Q373.625 348.71564 374.40625 348.71564Q374.98438 348.71564 375.39062 348.41876Q375.8125 348.10626 376.04688 347.45ZM372.59375 345.7469L376.0625 345.7469Q376.0 344.95 375.67188 344.5594Q375.15625 343.95 374.35938 343.95Q373.625 343.95 373.125 344.4344Q372.64062 344.91876 372.59375 345.7469ZM378.375 347.59064L379.40625 347.4344Q379.5 348.0594 379.89062 348.3875Q380.29688 348.71564 381.03125 348.71564Q381.75 348.71564 382.09375 348.4344Q382.45312 348.1375 382.45312 347.73126Q382.45312 347.3719 382.14062 347.16876Q381.92188 347.02814 381.0625 346.8094Q379.90625 346.5125 379.45312 346.3094Q379.01562 346.09064 378.78125 345.71564Q378.54688 345.34064 378.54688 344.8719Q378.54688 344.46564 378.73438 344.10626Q378.92188 343.7469 379.25 343.5125Q379.5 343.34064 379.92188 343.21564Q380.34375 343.09064 380.84375 343.09064Q381.5625 343.09064 382.10938 343.3094Q382.67188 343.5125 382.9375 343.8719Q383.20312 344.23126 383.29688 344.825L382.26562 344.96564Q382.20312 344.4969 381.85938 344.23126Q381.53125 343.95 380.90625 343.95Q380.1875 343.95 379.875 344.2Q379.5625 344.4344 379.5625 344.7625Q379.5625 344.96564 379.6875 345.1219Q379.82812 345.29376 380.09375 345.40314Q380.25 345.46564 381.03125 345.66876Q382.15625 345.98126 382.59375 346.16876Q383.03125 346.35626 383.28125 346.71564Q383.53125 347.075 383.53125 347.6219Q383.53125 348.15314 383.21875 348.6219Q382.92188 349.075 382.34375 349.34064Q381.76562 349.59064 381.03125 349.59064Q379.8125 349.59064 379.17188 349.09064Q378.54688 348.575 378.375 347.59064ZM386.48438 351.98126L385.73438 351.98126Q387.48438 349.16876 387.48438 346.34064Q387.48438 345.2469 387.23438 344.15314Q387.03125 343.27814 386.67188 342.46564Q386.4375 341.95 385.73438 340.71564L386.48438 340.71564Q387.57812 342.1844 388.10938 343.66876Q388.5625 344.95 388.5625 346.34064Q388.5625 347.91876 387.95312 349.40314Q387.34375 350.8719 386.48438 351.98126Z" fill-rule="nonzero"/><path fill="#000000" d="M29.550013 280.74167L20.956263 280.74167L20.956263 279.61667L29.550013 279.61667L29.550013 280.74167ZM29.550013 278.0698L23.331263 278.0698L23.331263 277.1323L24.206263 277.1323Q23.190638 276.4448 23.190638 275.14792Q23.190638 274.58542 23.393763 274.11667Q23.596888 273.6323 23.925013 273.39792Q24.253138 273.16354 24.690638 273.0698Q24.987513 273.02292 25.721888 273.02292L29.550013 273.02292L29.550013 274.0698L25.768763 274.0698Q25.112513 274.0698 24.800013 274.1948Q24.487513 274.3198 24.300013 274.6323Q24.096888 274.9448 24.096888 275.36667Q24.096888 276.03854 24.534388 276.53854Q24.956263 277.02292 26.143763 277.02292L29.550013 277.02292L29.550013 278.0698ZM27.690638 271.49167L27.534388 270.46042Q28.159388 270.36667 28.487513 269.97604Q28.815638 269.5698 28.815638 268.83542Q28.815638 268.11667 28.534388 267.77292Q28.237513 267.41354 27.831263 267.41354Q27.471888 267.41354 27.268763 267.72604Q27.128138 267.9448 26.909388 268.80417Q26.612513 269.96042 26.409388 270.41354Q26.190638 270.85104 25.815638 271.08542Q25.440638 271.3198 24.971888 271.3198Q24.565638 271.3198 24.206263 271.1323Q23.846888 270.9448 23.612513 270.61667Q23.440638 270.36667 23.315638 269.9448Q23.190638 269.52292 23.190638 269.02292Q23.190638 268.30417 23.409388 267.7573Q23.612513 267.1948 23.971888 266.92917Q24.331263 266.66354 24.925013 266.5698L25.065638 267.60104Q24.596888 267.66354 24.331263 268.0073Q24.050013 268.33542 24.050013 268.96042Q24.050013 269.67917 24.300013 269.99167Q24.534388 270.30417 24.862513 270.30417Q25.065638 270.30417 25.221888 270.17917Q25.393763 270.03854 25.503138 269.77292Q25.565638 269.61667 25.768763 268.83542Q26.081263 267.71042 26.268763 267.27292Q26.456263 266.83542 26.815638 266.58542Q27.175013 266.33542 27.721888 266.33542Q28.253138 266.33542 28.721888 266.64792Q29.175013 266.9448 29.440638 267.52292Q29.690638 268.10104 29.690638 268.83542Q29.690638 270.05417 29.190638 270.6948Q28.675013 271.3198 27.690638 271.49167ZM28.612513 261.77292L29.534388 261.61667Q29.628138 262.0698 29.628138 262.41354Q29.628138 262.99167 29.456263 263.30417Q29.268763 263.61667 28.971888 263.7573Q28.675013 263.8823 27.721888 263.8823L24.143763 263.8823L24.143763 264.64792L23.331263 264.64792L23.331263 263.8823L21.784388 263.8823L21.159388 262.83542L23.331263 262.83542L23.331263 261.77292L24.143763 261.77292L24.143763 262.83542L27.784388 262.83542Q28.237513 262.83542 28.362513 262.78854Q28.487513 262.72604 28.565638 262.60104Q28.643763 262.47604 28.643763 262.24167Q28.643763 262.05417 28.612513 261.77292ZM29.550013 261.08542L23.331263 261.08542L23.331263 260.1323L24.268763 260.1323Q23.612513 259.77292 23.409388 259.47604Q23.190638 259.16354 23.190638 258.78854Q23.190638 258.2573 23.518763 257.71042L24.503138 258.0698Q24.268763 258.46042 24.268763 258.83542Q24.268763 259.1948 24.487513 259.47604Q24.690638 259.74167 25.065638 259.85104Q25.628138 260.03854 26.284388 260.03854L29.550013 260.03854L29.550013 261.08542ZM29.550013 252.99167L28.628138 252.99167Q29.690638 253.72604 29.690638 254.97604Q29.690638 255.52292 29.487513 256.0073Q29.268763 256.47604 28.956263 256.71042Q28.628138 256.9448 28.159388 257.03854Q27.862513 257.10104 27.175013 257.10104L23.331263 257.10104L23.331263 256.03854L26.784388 256.03854Q27.596888 256.03854 27.893763 255.97604Q28.300013 255.8823 28.550013 255.5698Q28.784388 255.24167 28.784388 254.7573Q28.784388 254.28854 28.550013 253.8823Q28.300013 253.46042 27.878138 253.28854Q27.456263 253.10104 26.659388 253.10104L23.331263 253.10104L23.331263 252.05417L29.550013 252.05417L29.550013 252.99167ZM27.268763 246.0073L27.409388 244.97604Q28.471888 245.14792 29.081263 245.85104Q29.690638 246.55417 29.690638 247.5698Q29.690638 248.85104 28.862513 249.6323Q28.018763 250.39792 26.456263 250.39792Q25.456263 250.39792 24.706263 250.0698Q23.940638 249.72604 23.565638 249.05417Q23.190638 248.36667 23.190638 247.55417Q23.190638 246.55417 23.706263 245.91354Q24.206263 245.2573 25.159388 245.0698L25.315638 246.10104Q24.690638 246.24167 24.378138 246.61667Q24.050013 246.99167 24.050013 247.52292Q24.050013 248.3198 24.628138 248.8198Q25.190638 249.3198 26.425013 249.3198Q27.690638 249.3198 28.253138 248.83542Q28.815638 248.35104 28.815638 247.58542Q28.815638 246.96042 28.440638 246.55417Q28.065638 246.1323 27.268763 246.0073ZM28.612513 241.77292L29.534388 241.61667Q29.628138 242.0698 29.628138 242.41354Q29.628138 242.99167 29.456263 243.30417Q29.268763 243.61667 28.971888 243.7573Q28.675013 243.8823 27.721888 243.8823L24.143763 243.8823L24.143763 244.64792L23.331263 244.64792L23.331263 243.8823L21.784388 243.8823L21.159388 242.83542L23.331263 242.83542L23.331263 241.77292L24.143763 241.77292L24.143763 242.83542L27.784388 242.83542Q28.237513 242.83542 28.362513 242.78854Q28.487513 242.72604 28.565638 242.60104Q28.643763 242.47604 28.643763 242.24167Q28.643763 242.05417 28.612513 241.77292ZM22.175013 241.0698L20.956263 241.0698L20.956263 240.0073L22.175013 240.0073L22.175013 241.0698ZM29.550013 241.0698L23.331263 241.0698L23.331263 240.0073L29.550013 240.0073L29.550013 241.0698ZM26.440638 238.46042Q24.706263 238.46042 23.878138 237.5073Q23.190638 236.71042 23.190638 235.55417Q23.190638 234.27292 24.034388 233.46042Q24.862513 232.6323 26.346888 232.6323Q27.550013 232.6323 28.237513 232.99167Q28.925013 233.35104 29.315638 234.05417Q29.690638 234.74167 29.690638 235.55417Q29.690638 236.85104 28.862513 237.66354Q28.018763 238.46042 26.440638 238.46042ZM26.440638 237.3823Q27.628138 237.3823 28.221888 236.86667Q28.815638 236.33542 28.815638 235.55417Q28.815638 234.7573 28.221888 234.24167Q27.628138 233.72604 26.409388 233.72604Q25.253138 233.72604 24.659388 234.2573Q24.065638 234.77292 24.065638 235.55417Q24.065638 236.33542 24.659388 236.86667Q25.237513 237.3823 26.440638 237.3823ZM29.550013 231.0698L23.331263 231.0698L23.331263 230.1323L24.206263 230.1323Q23.190638 229.4448 23.190638 228.14792Q23.190638 227.58542 23.393763 227.11667Q23.596888 226.6323 23.925013 226.39792Q24.253138 226.16354 24.690638 226.0698Q24.987513 226.02292 25.721888 226.02292L29.550013 226.02292L29.550013 227.0698L25.768763 227.0698Q25.112513 227.0698 24.800013 227.1948Q24.487513 227.3198 24.300013 227.6323Q24.096888 227.9448 24.096888 228.36667Q24.096888 229.03854 24.534388 229.53854Q24.956263 230.02292 26.143763 230.02292L29.550013 230.02292L29.550013 231.0698ZM27.550013 216.8198L27.675013 215.72604Q28.628138 215.97604 29.159388 216.67917Q29.690638 217.3823 29.690638 218.46042Q29.690638 219.8198 28.846888 220.6323Q28.003138 221.42917 26.487513 221.42917Q24.925013 221.42917 24.065638 220.61667Q23.190638 219.80417 23.190638 218.52292Q23.190638 217.27292 24.034388 216.49167Q24.878138 215.6948 26.425013 215.6948Q26.518763 215.6948 26.706263 215.6948L26.706263 220.33542Q27.737513 220.27292 28.284388 219.7573Q28.815638 219.24167 28.815638 218.46042Q28.815638 217.8823 28.518763 217.47604Q28.206263 217.05417 27.550013 216.8198ZM25.846888 220.27292L25.846888 216.80417Q25.050013 216.86667 24.659388 217.1948Q24.050013 217.71042 24.050013 218.5073Q24.050013 219.24167 24.534388 219.74167Q25.018763 220.22604 25.846888 220.27292ZM29.550013 214.77292L26.315638 212.5073L23.331263 214.60104L23.331263 213.28854L24.784388 212.33542Q25.206263 212.0698 25.487513 211.89792Q25.096888 211.64792 24.800013 211.42917L23.331263 210.3823L23.331263 209.11667L26.253138 211.27292L29.550013 208.96042L29.550013 210.24167L27.612513 211.52292L27.096888 211.86667L29.550013 213.5073L29.550013 214.77292ZM27.550013 204.8198L27.675013 203.72604Q28.628138 203.97604 29.159388 204.67917Q29.690638 205.3823 29.690638 206.46042Q29.690638 207.8198 28.846888 208.6323Q28.003138 209.42917 26.487513 209.42917Q24.925013 209.42917 24.065638 208.61667Q23.190638 207.80417 23.190638 206.52292Q23.190638 205.27292 24.034388 204.49167Q24.878138 203.6948 26.425013 203.6948Q26.518763 203.6948 26.706263 203.6948L26.706263 208.33542Q27.737513 208.27292 28.284388 207.7573Q28.815638 207.24167 28.815638 206.46042Q28.815638 205.8823 28.518763 205.47604Q28.206263 205.05417 27.550013 204.8198ZM25.846888 208.27292L25.846888 204.80417Q25.050013 204.86667 24.659388 205.1948Q24.050013 205.71042 24.050013 206.5073Q24.050013 207.24167 24.534388 207.74167Q25.018763 208.22604 25.846888 208.27292ZM27.268763 198.0073L27.409388 196.97604Q28.471888 197.14792 29.081263 197.85104Q29.690638 198.55417 29.690638 199.5698Q29.690638 200.85104 28.862513 201.6323Q28.018763 202.39792 26.456263 202.39792Q25.456263 202.39792 24.706263 202.0698Q23.940638 201.72604 23.565638 201.05417Q23.190638 200.36667 23.190638 199.55417Q23.190638 198.55417 23.706263 197.91354Q24.206263 197.2573 25.159388 197.0698L25.315638 198.10104Q24.690638 198.24167 24.378138 198.61667Q24.050013 198.99167 24.050013 199.52292Q24.050013 200.3198 24.628138 200.8198Q25.190638 201.3198 26.425013 201.3198Q27.690638 201.3198 28.253138 200.83542Q28.815638 200.35104 28.815638 199.58542Q28.815638 198.96042 28.440638 198.55417Q28.065638 198.1323 27.268763 198.0073ZM29.550013 191.99167L28.628138 191.99167Q29.690638 192.72604 29.690638 193.97604Q29.690638 194.52292 29.487513 195.0073Q29.268763 195.47604 28.956263 195.71042Q28.628138 195.9448 28.159388 196.03854Q27.862513 196.10104 27.175013 196.10104L23.331263 196.10104L23.331263 195.03854L26.784388 195.03854Q27.596888 195.03854 27.893763 194.97604Q28.300013 194.8823 28.550013 194.5698Q28.784388 194.24167 28.784388 193.7573Q28.784388 193.28854 28.550013 192.8823Q28.300013 192.46042 27.878138 192.28854Q27.456263 192.10104 26.659388 192.10104L23.331263 192.10104L23.331263 191.05417L29.550013 191.05417L29.550013 191.99167ZM28.612513 186.77292L29.534388 186.61667Q29.628138 187.0698 29.628138 187.41354Q29.628138 187.99167 29.456263 188.30417Q29.268763 188.61667 28.971888 188.7573Q28.675013 188.8823 27.721888 188.8823L24.143763 188.8823L24.143763 189.64792L23.331263 189.64792L23.331263 188.8823L21.784388 188.8823L21.159388 187.83542L23.331263 187.83542L23.331263 186.77292L24.143763 186.77292L24.143763 187.83542L27.784388 187.83542Q28.237513 187.83542 28.362513 187.78854Q28.487513 187.72604 28.565638 187.60104Q28.643763 187.47604 28.643763 187.24167Q28.643763 187.05417 28.612513 186.77292ZM22.175013 186.0698L20.956263 186.0698L20.956263 185.0073L22.175013 185.0073L22.175013 186.0698ZM29.550013 186.0698L23.331263 186.0698L23.331263 185.0073L29.550013 185.0073L29.550013 186.0698ZM26.440638 183.46042Q24.706263 183.46042 23.878138 182.5073Q23.190638 181.71042 23.190638 180.55417Q23.190638 179.27292 24.034388 178.46042Q24.862513 177.6323 26.346888 177.6323Q27.550013 177.6323 28.237513 177.99167Q28.925013 178.35104 29.315638 179.05417Q29.690638 179.74167 29.690638 180.55417Q29.690638 181.85104 28.862513 182.66354Q28.018763 183.46042 26.440638 183.46042ZM26.440638 182.3823Q27.628138 182.3823 28.221888 181.86667Q28.815638 181.33542 28.815638 180.55417Q28.815638 179.7573 28.221888 179.24167Q27.628138 178.72604 26.409388 178.72604Q25.253138 178.72604 24.659388 179.2573Q24.065638 179.77292 24.065638 180.55417Q24.065638 181.33542 24.659388 181.86667Q25.237513 182.3823 26.440638 182.3823ZM29.550013 176.0698L23.331263 176.0698L23.331263 175.1323L24.206263 175.1323Q23.190638 174.4448 23.190638 173.14792Q23.190638 172.58542 23.393763 172.11667Q23.596888 171.6323 23.925013 171.39792Q24.253138 171.16354 24.690638 171.0698Q24.987513 171.02292 25.721888 171.02292L29.550013 171.02292L29.550013 172.0698L25.768763 172.0698Q25.112513 172.0698 24.800013 172.1948Q24.487513 172.3198 24.300013 172.6323Q24.096888 172.9448 24.096888 173.36667Q24.096888 174.03854 24.534388 174.53854Q24.956263 175.02292 26.143763 175.02292L29.550013 175.02292L29.550013 176.0698ZM28.612513 163.77292L29.534388 163.61667Q29.628138 164.0698 29.628138 164.41354Q29.628138 164.99167 29.456263 165.30417Q29.268763 165.61667 28.971888 165.7573Q28.675013 165.8823 27.721888 165.8823L24.143763 165.8823L24.143763 166.64792L23.331263 166.64792L23.331263 165.8823L21.784388 165.8823L21.159388 164.83542L23.331263 164.83542L23.331263 163.77292L24.143763 163.77292L24.143763 164.83542L27.784388 164.83542Q28.237513 164.83542 28.362513 164.78854Q28.487513 164.72604 28.565638 164.60104Q28.643763 164.47604 28.643763 164.24167Q28.643763 164.05417 28.612513 163.77292ZM22.175013 163.0698L20.956263 163.0698L20.956263 162.0073L22.175013 162.0073L22.175013 163.0698ZM29.550013 163.0698L23.331263 163.0698L23.331263 162.0073L29.550013 162.0073L29.550013 163.0698ZM29.550013 160.0698L23.331263 160.0698L23.331263 159.1323L24.206263 159.1323Q23.737513 158.83542 23.471888 158.35104Q23.190638 157.86667 23.190638 157.24167Q23.190638 156.55417 23.471888 156.11667Q23.753138 155.66354 24.268763 155.49167Q23.190638 154.74167 23.190638 153.5698Q23.190638 152.6323 23.706263 152.14792Q24.206263 151.64792 25.284388 151.64792L29.550013 151.64792L29.550013 152.6948L25.628138 152.6948Q25.003138 152.6948 24.721888 152.80417Q24.440638 152.89792 24.268763 153.16354Q24.096888 153.42917 24.096888 153.80417Q24.096888 154.46042 24.534388 154.89792Q24.971888 155.3198 25.940638 155.3198L29.550013 155.3198L29.550013 156.3823L25.503138 156.3823Q24.800013 156.3823 24.456263 156.64792Q24.096888 156.89792 24.096888 157.47604Q24.096888 157.92917 24.331263 158.30417Q24.565638 158.67917 25.018763 158.85104Q25.471888 159.02292 26.315638 159.02292L29.550013 159.02292L29.550013 160.0698ZM27.550013 144.8198L27.675013 143.72604Q28.628138 143.97604 29.159388 144.67917Q29.690638 145.3823 29.690638 146.46042Q29.690638 147.8198 28.846888 148.6323Q28.003138 149.42917 26.487513 149.42917Q24.925013 149.42917 24.065638 148.61667Q23.190638 147.80417 23.190638 146.52292Q23.190638 145.27292 24.034388 144.49167Q24.878138 143.6948 26.425013 143.6948Q26.518763 143.6948 26.706263 143.6948L26.706263 148.33542Q27.737513 148.27292 28.284388 147.7573Q28.815638 147.24167 28.815638 146.46042Q28.815638 145.8823 28.518763 145.47604Q28.206263 145.05417 27.550013 144.8198ZM25.846888 148.27292L25.846888 144.80417Q25.050013 144.86667 24.659388 145.1948Q24.050013 145.71042 24.050013 146.5073Q24.050013 147.24167 24.534388 147.74167Q25.018763 148.22604 25.846888 148.27292ZM32.08126 137.05417Q30.971888 137.92917 29.503138 138.53854Q28.018763 139.1323 26.440638 139.1323Q25.050013 139.1323 23.768763 138.6948Q22.284388 138.16354 20.815638 137.05417L20.815638 136.30417Q22.034388 137.0073 22.550013 137.24167Q23.362513 137.60104 24.237513 137.80417Q25.331263 138.05417 26.440638 138.05417Q29.268763 138.05417 32.08126 136.30417L32.08126 137.05417ZM29.550013 135.0698L23.331263 135.0698L23.331263 134.1323L24.206263 134.1323Q23.190638 133.4448 23.190638 132.14792Q23.190638 131.58542 23.393763 131.11667Q23.596888 130.6323 23.925013 130.39792Q24.253138 130.16354 24.690638 130.0698Q24.987513 130.02292 25.721888 130.02292L29.550013 130.02292L29.550013 131.0698L25.768763 131.0698Q25.112513 131.0698 24.800013 131.1948Q24.487513 131.3198 24.300013 131.6323Q24.096888 131.9448 24.096888 132.36667Q24.096888 133.03854 24.534388 133.53854Q24.956263 134.02292 26.143763 134.02292L29.550013 134.02292L29.550013 135.0698ZM27.690638 128.49167L27.534388 127.46042Q28.159388 127.36667 28.487513 126.97604Q28.815638 126.56979 28.815638 125.83542Q28.815638 125.11667 28.534388 124.77292Q28.237513 124.41354 27.831263 124.41354Q27.471888 124.41354 27.268763 124.72604Q27.128138 124.94479 26.909388 125.80417Q26.612513 126.96042 26.409388 127.41354Q26.190638 127.85104 25.815638 128.08542Q25.440638 128.3198 24.971888 128.3198Q24.565638 128.3198 24.206263 128.1323Q23.846888 127.94479 23.612513 127.61667Q23.440638 127.36667 23.315638 126.94479Q23.190638 126.52292 23.190638 126.02292Q23.190638 125.30417 23.409388 124.75729Q23.612513 124.19479 23.971888 123.92917Q24.331263 123.66354 24.925013 123.56979L25.065638 124.60104Q24.596888 124.66354 24.331263 125.00729Q24.050013 125.33542 24.050013 125.96042Q24.050013 126.67917 24.300013 126.99167Q24.534388 127.30417 24.862513 127.30417Q25.065638 127.30417 25.221888 127.17917Q25.393763 127.03854 25.503138 126.77292Q25.565638 126.61667 25.768763 125.83542Q26.081263 124.71042 26.268763 124.27292Q26.456263 123.83542 26.815638 123.58542Q27.175013 123.33542 27.721888 123.33542Q28.253138 123.33542 28.721888 123.64792Q29.175013 123.94479 29.440638 124.52292Q29.690638 125.10104 29.690638 125.83542Q29.690638 127.05417 29.190638 127.69479Q28.675013 128.3198 27.690638 128.49167ZM32.08126 120.38229L32.08126 121.13229Q29.268763 119.38229 26.440638 119.38229Q25.346888 119.38229 24.253138 119.63229Q23.378138 119.83542 22.565638 120.19479Q22.050013 120.42917 20.815638 121.13229L20.815638 120.38229Q22.284388 119.28854 23.768763 118.75729Q25.050013 118.30417 26.440638 118.30417Q28.018763 118.30417 29.503138 118.91354Q30.971888 119.52292 32.08126 120.38229Z" fill-rule="nonzero"/><path fill="#000000" d="M91.925 301.8719L91.925 300.8094L95.175 300.8094L95.175 301.8719L91.925 301.8719Z" fill-rule="nonzero"/><path fill="#000000" d="M56.596874 232.04549L56.596874 233.06111L50.909374 233.06111Q50.909374 232.68611 51.034374 232.32674Q51.253124 231.74861 51.721874 231.18611Q52.20625 230.62361 53.1125 229.88924Q54.51875 228.73299 55.003124 228.06111Q55.503124 227.38924 55.503124 226.79549Q55.503124 226.17049 55.05 225.74861Q54.596874 225.31111 53.878124 225.31111Q53.1125 225.31111 52.659374 225.76424Q52.20625 226.21736 52.190624 227.02986L51.1125 226.92049Q51.221874 225.70174 51.940624 225.07674Q52.675 224.43611 53.909374 224.43611Q55.14375 224.43611 55.8625 225.12361Q56.58125 225.81111 56.58125 226.82674Q56.58125 227.34236 56.3625 227.84236Q56.159374 228.32674 55.659374 228.88924Q55.175 229.43611 54.05 230.38924Q53.096874 231.18611 52.815624 231.48299Q52.55 231.76424 52.378124 232.04549L56.596874 232.04549ZM58.05 228.82674Q58.05 227.29549 58.3625 226.37361Q58.675 225.43611 59.284374 224.93611Q59.909374 224.43611 60.846874 224.43611Q61.534374 224.43611 62.05 224.71736Q62.58125 224.99861 62.925 225.52986Q63.26875 226.04549 63.45625 226.79549Q63.64375 227.54549 63.64375 228.82674Q63.64375 230.34236 63.33125 231.26424Q63.034374 232.18611 62.409374 232.70174Q61.8 233.20174 60.846874 233.20174Q59.6125 233.20174 58.89375 232.31111Q58.05 231.24861 58.05 228.82674ZM59.128124 228.82674Q59.128124 230.93611 59.628124 231.63924Q60.128124 232.34236 60.846874 232.34236Q61.58125 232.34236 62.065624 231.63924Q62.565624 230.93611 62.565624 228.82674Q62.565624 226.70174 62.065624 226.01424Q61.58125 225.31111 60.83125 225.31111Q60.1125 225.31111 59.675 225.92049Q59.128124 226.70174 59.128124 228.82674ZM65.05 228.82674Q65.05 227.29549 65.3625 226.37361Q65.675 225.43611 66.28438 224.93611Q66.90938 224.43611 67.84688 224.43611Q68.53438 224.43611 69.05 224.71736Q69.58125 224.99861 69.925 225.52986Q70.26875 226.04549 70.45625 226.79549Q70.64375 227.54549 70.64375 228.82674Q70.64375 230.34236 70.33125 231.26424Q70.03438 232.18611 69.40938 232.70174Q68.8 233.20174 67.84688 233.20174Q66.6125 233.20174 65.89375 232.31111Q65.05 231.24861 65.05 228.82674ZM66.12813 228.82674Q66.12813 230.93611 66.62813 231.63924Q67.12813 232.34236 67.84688 232.34236Q68.58125 232.34236 69.06563 231.63924Q69.56563 230.93611 69.56563 228.82674Q69.56563 226.70174 69.06563 226.01424Q68.58125 225.31111 67.83125 225.31111Q67.1125 225.31111 66.675 225.92049Q66.12813 226.70174 66.12813 228.82674ZM72.05 228.82674Q72.05 227.29549 72.3625 226.37361Q72.675 225.43611 73.28438 224.93611Q73.90938 224.43611 74.84688 224.43611Q75.53438 224.43611 76.05 224.71736Q76.58125 224.99861 76.925 225.52986Q77.26875 226.04549 77.45625 226.79549Q77.64375 227.54549 77.64375 228.82674Q77.64375 230.34236 77.33125 231.26424Q77.03438 232.18611 76.40938 232.70174Q75.8 233.20174 74.84688 233.20174Q73.6125 233.20174 72.89375 232.31111Q72.05 231.24861 72.05 228.82674ZM73.12813 228.82674Q73.12813 230.93611 73.62813 231.63924Q74.12813 232.34236 74.84688 232.34236Q75.58125 232.34236 76.06563 231.63924Q76.56563 230.93611 76.56563 228.82674Q76.56563 226.70174 76.06563 226.01424Q75.58125 225.31111 74.83125 225.31111Q74.1125 225.31111 73.675 225.92049Q73.12813 226.70174 73.12813 228.82674ZM79.64375 233.06111L79.64375 231.85799L80.84688 231.85799L80.84688 233.06111L79.64375 233.06111ZM82.05 228.82674Q82.05 227.29549 82.3625 226.37361Q82.675 225.43611 83.28438 224.93611Q83.90938 224.43611 84.84688 224.43611Q85.53438 224.43611 86.05 224.71736Q86.58125 224.99861 86.925 225.52986Q87.26875 226.04549 87.45625 226.79549Q87.64375 227.54549 87.64375 228.82674Q87.64375 230.34236 87.33125 231.26424Q87.03438 232.18611 86.40938 232.70174Q85.8 233.20174 84.84688 233.20174Q83.6125 233.20174 82.89375 232.31111Q82.05 231.24861 82.05 228.82674ZM83.12813 228.82674Q83.12813 230.93611 83.62813 231.63924Q84.12813 232.34236 84.84688 232.34236Q85.58125 232.34236 86.06563 231.63924Q86.56563 230.93611 86.56563 228.82674Q86.56563 226.70174 86.06563 226.01424Q85.58125 225.31111 84.83125 225.31111Q84.1125 225.31111 83.675 225.92049Q83.12813 226.70174 83.12813 228.82674ZM89.05 228.82674Q89.05 227.29549 89.3625 226.37361Q89.675 225.43611 90.28438 224.93611Q90.90938 224.43611 91.84688 224.43611Q92.53438 224.43611 93.05 224.71736Q93.58125 224.99861 93.925 225.52986Q94.26875 226.04549 94.45625 226.79549Q94.64375 227.54549 94.64375 228.82674Q94.64375 230.34236 94.33125 231.26424Q94.03438 232.18611 93.40938 232.70174Q92.8 233.20174 91.84688 233.20174Q90.6125 233.20174 89.89375 232.31111Q89.05 231.24861 89.05 228.82674ZM90.12813 228.82674Q90.12813 230.93611 90.62813 231.63924Q91.12813 232.34236 91.84688 232.34236Q92.58125 232.34236 93.06563 231.63924Q93.56563 230.93611 93.56563 228.82674Q93.56563 226.70174 93.06563 226.01424Q92.58125 225.31111 91.83125 225.31111Q91.1125 225.31111 90.675 225.92049Q90.12813 226.70174 90.12813 228.82674Z" fill-rule="nonzero"/><path fill="#000000" d="M54.425 161.67223L54.425 159.60973L50.70625 159.60973L50.70625 158.64098L54.628124 153.07848L55.4875 153.07848L55.4875 158.64098L56.64375 158.64098L56.64375 159.60973L55.4875 159.60973L55.4875 161.67223L54.425 161.67223ZM54.425 158.64098L54.425 154.7816L51.7375 158.64098L54.425 158.64098ZM58.05 157.43785Q58.05 155.9066 58.3625 154.98473Q58.675 154.04723 59.284374 153.54723Q59.909374 153.04723 60.846874 153.04723Q61.534374 153.04723 62.05 153.32848Q62.58125 153.60973 62.925 154.14098Q63.26875 154.6566 63.45625 155.4066Q63.64375 156.1566 63.64375 157.43785Q63.64375 158.95348 63.33125 159.87535Q63.034374 160.79723 62.409374 161.31285Q61.8 161.81285 60.846874 161.81285Q59.6125 161.81285 58.89375 160.92223Q58.05 159.85973 58.05 157.43785ZM59.128124 157.43785Q59.128124 159.54723 59.628124 160.25035Q60.128124 160.95348 60.846874 160.95348Q61.58125 160.95348 62.065624 160.25035Q62.565624 159.54723 62.565624 157.43785Q62.565624 155.31285 62.065624 154.62535Q61.58125 153.92223 60.83125 153.92223Q60.1125 153.92223 59.675 154.5316Q59.128124 155.31285 59.128124 157.43785ZM65.05 157.43785Q65.05 155.9066 65.3625 154.98473Q65.675 154.04723 66.28438 153.54723Q66.90938 153.04723 67.84688 153.04723Q68.53438 153.04723 69.05 153.32848Q69.58125 153.60973 69.925 154.14098Q70.26875 154.6566 70.45625 155.4066Q70.64375 156.1566 70.64375 157.43785Q70.64375 158.95348 70.33125 159.87535Q70.03438 160.79723 69.40938 161.31285Q68.8 161.81285 67.84688 161.81285Q66.6125 161.81285 65.89375 160.92223Q65.05 159.85973 65.05 157.43785ZM66.12813 157.43785Q66.12813 159.54723 66.62813 160.25035Q67.12813 160.95348 67.84688 160.95348Q68.58125 160.95348 69.06563 160.25035Q69.56563 159.54723 69.56563 157.43785Q69.56563 155.31285 69.06563 154.62535Q68.58125 153.92223 67.83125 153.92223Q67.1125 153.92223 66.675 154.5316Q66.12813 155.31285 66.12813 157.43785ZM72.05 157.43785Q72.05 155.9066 72.3625 154.98473Q72.675 154.04723 73.28438 153.54723Q73.90938 153.04723 74.84688 153.04723Q75.53438 153.04723 76.05 153.32848Q76.58125 153.60973 76.925 154.14098Q77.26875 154.6566 77.45625 155.4066Q77.64375 156.1566 77.64375 157.43785Q77.64375 158.95348 77.33125 159.87535Q77.03438 160.79723 76.40938 161.31285Q75.8 161.81285 74.84688 161.81285Q73.6125 161.81285 72.89375 160.92223Q72.05 159.85973 72.05 157.43785ZM73.12813 157.43785Q73.12813 159.54723 73.62813 160.25035Q74.12813 160.95348 74.84688 160.95348Q75.58125 160.95348 76.06563 160.25035Q76.56563 159.54723 76.56563 157.43785Q76.56563 155.31285 76.06563 154.62535Q75.58125 153.92223 74.83125 153.92223Q74.1125 153.92223 73.675 154.5316Q73.12813 155.31285 73.12813 157.43785ZM79.64375 161.67223L79.64375 160.4691L80.84688 160.4691L80.84688 161.67223L79.64375 161.67223ZM82.05 157.43785Q82.05 155.9066 82.3625 154.98473Q82.675 154.04723 83.28438 153.54723Q83.90938 153.04723 84.84688 153.04723Q85.53438 153.04723 86.05 153.32848Q86.58125 153.60973 86.925 154.14098Q87.26875 154.6566 87.45625 155.4066Q87.64375 156.1566 87.64375 157.43785Q87.64375 158.95348 87.33125 159.87535Q87.03438 160.79723 86.40938 161.31285Q85.8 161.81285 84.84688 161.81285Q83.6125 161.81285 82.89375 160.92223Q82.05 159.85973 82.05 157.43785ZM83.12813 157.43785Q83.12813 159.54723 83.62813 160.25035Q84.12813 160.95348 84.84688 160.95348Q85.58125 160.95348 86.06563 160.25035Q86.56563 159.54723 86.56563 157.43785Q86.56563 155.31285 86.06563 154.62535Q85.58125 153.92223 84.83125 153.92223Q84.1125 153.92223 83.675 154.5316Q83.12813 155.31285 83.12813 157.43785ZM89.05 157.43785Q89.05 155.9066 89.3625 154.98473Q89.675 154.04723 90.28438 153.54723Q90.90938 153.04723 91.84688 153.04723Q92.53438 153.04723 93.05 153.32848Q93.58125 153.60973 93.925 154.14098Q94.26875 154.6566 94.45625 155.4066Q94.64375 156.1566 94.64375 157.43785Q94.64375 158.95348 94.33125 159.87535Q94.03438 160.79723 93.40938 161.31285Q92.8 161.81285 91.84688 161.81285Q90.6125 161.81285 89.89375 160.92223Q89.05 159.85973 89.05 157.43785ZM90.12813 157.43785Q90.12813 159.54723 90.62813 160.25035Q91.12813 160.95348 91.84688 160.95348Q92.58125 160.95348 93.06563 160.25035Q93.56563 159.54723 93.56563 157.43785Q93.56563 155.31285 93.06563 154.62535Q92.58125 153.92223 91.83125 153.92223Q91.1125 153.92223 90.675 154.5316Q90.12813 155.31285 90.12813 157.43785Z" fill-rule="nonzero"/><path fill="#000000" d="M56.51875 83.79896L55.471874 83.87708Q55.33125 83.25208 55.08125 82.97083Q54.64375 82.51771 54.01875 82.51771Q53.51875 82.51771 53.128124 82.79896Q52.64375 83.17396 52.346874 83.87708Q52.065624 84.56458 52.05 85.84583Q52.425 85.26771 52.971874 84.98646Q53.534374 84.70521 54.14375 84.70521Q55.190624 84.70521 55.925 85.48646Q56.675 86.26771 56.675 87.48646Q56.675 88.29896 56.315624 89.00208Q55.971874 89.68958 55.3625 90.06458Q54.753124 90.42396 53.9875 90.42396Q52.659374 90.42396 51.83125 89.45521Q51.003124 88.48646 51.003124 86.26771Q51.003124 83.76771 51.925 82.64271Q52.721874 81.65833 54.08125 81.65833Q55.096874 81.65833 55.7375 82.23646Q56.39375 82.79896 56.51875 83.79896ZM52.221874 87.50208Q52.221874 88.04896 52.440624 88.54896Q52.675 89.03333 53.08125 89.29896Q53.503124 89.56458 53.971874 89.56458Q54.628124 89.56458 55.1125 89.03333Q55.596874 88.48646 55.596874 87.56458Q55.596874 86.67396 55.1125 86.15833Q54.64375 85.64271 53.925 85.64271Q53.20625 85.64271 52.70625 86.15833Q52.221874 86.67396 52.221874 87.50208ZM58.05 86.04896Q58.05 84.51771 58.3625 83.59583Q58.675 82.65833 59.284374 82.15833Q59.909374 81.65833 60.846874 81.65833Q61.534374 81.65833 62.05 81.93958Q62.58125 82.22083 62.925 82.75208Q63.26875 83.26771 63.45625 84.01771Q63.64375 84.76771 63.64375 86.04896Q63.64375 87.56458 63.33125 88.48646Q63.034374 89.40833 62.409374 89.92396Q61.8 90.42396 60.846874 90.42396Q59.6125 90.42396 58.89375 89.53333Q58.05 88.47083 58.05 86.04896ZM59.128124 86.04896Q59.128124 88.15833 59.628124 88.86146Q60.128124 89.56458 60.846874 89.56458Q61.58125 89.56458 62.065624 88.86146Q62.565624 88.15833 62.565624 86.04896Q62.565624 83.92396 62.065624 83.23646Q61.58125 82.53333 60.83125 82.53333Q60.1125 82.53333 59.675 83.14271Q59.128124 83.92396 59.128124 86.04896ZM65.05 86.04896Q65.05 84.51771 65.3625 83.59583Q65.675 82.65833 66.28438 82.15833Q66.90938 81.65833 67.84688 81.65833Q68.53438 81.65833 69.05 81.93958Q69.58125 82.22083 69.925 82.75208Q70.26875 83.26771 70.45625 84.01771Q70.64375 84.76771 70.64375 86.04896Q70.64375 87.56458 70.33125 88.48646Q70.03438 89.40833 69.40938 89.92396Q68.8 90.42396 67.84688 90.42396Q66.6125 90.42396 65.89375 89.53333Q65.05 88.47083 65.05 86.04896ZM66.12813 86.04896Q66.12813 88.15833 66.62813 88.86146Q67.12813 89.56458 67.84688 89.56458Q68.58125 89.56458 69.06563 88.86146Q69.56563 88.15833 69.56563 86.04896Q69.56563 83.92396 69.06563 83.23646Q68.58125 82.53333 67.83125 82.53333Q67.1125 82.53333 66.675 83.14271Q66.12813 83.92396 66.12813 86.04896ZM72.05 86.04896Q72.05 84.51771 72.3625 83.59583Q72.675 82.65833 73.28438 82.15833Q73.90938 81.65833 74.84688 81.65833Q75.53438 81.65833 76.05 81.93958Q76.58125 82.22083 76.925 82.75208Q77.26875 83.26771 77.45625 84.01771Q77.64375 84.76771 77.64375 86.04896Q77.64375 87.56458 77.33125 88.48646Q77.03438 89.40833 76.40938 89.92396Q75.8 90.42396 74.84688 90.42396Q73.6125 90.42396 72.89375 89.53333Q72.05 88.47083 72.05 86.04896ZM73.12813 86.04896Q73.12813 88.15833 73.62813 88.86146Q74.12813 89.56458 74.84688 89.56458Q75.58125 89.56458 76.06563 88.86146Q76.56563 88.15833 76.56563 86.04896Q76.56563 83.92396 76.06563 83.23646Q75.58125 82.53333 74.83125 82.53333Q74.1125 82.53333 73.675 83.14271Q73.12813 83.92396 73.12813 86.04896ZM79.64375 90.28333L79.64375 89.08021L80.84688 89.08021L80.84688 90.28333L79.64375 90.28333ZM82.05 86.04896Q82.05 84.51771 82.3625 83.59583Q82.675 82.65833 83.28438 82.15833Q83.90938 81.65833 84.84688 81.65833Q85.53438 81.65833 86.05 81.93958Q86.58125 82.22083 86.925 82.75208Q87.26875 83.26771 87.45625 84.01771Q87.64375 84.76771 87.64375 86.04896Q87.64375 87.56458 87.33125 88.48646Q87.03438 89.40833 86.40938 89.92396Q85.8 90.42396 84.84688 90.42396Q83.6125 90.42396 82.89375 89.53333Q82.05 88.47083 82.05 86.04896ZM83.12813 86.04896Q83.12813 88.15833 83.62813 88.86146Q84.12813 89.56458 84.84688 89.56458Q85.58125 89.56458 86.06563 88.86146Q86.56563 88.15833 86.56563 86.04896Q86.56563 83.92396 86.06563 83.23646Q85.58125 82.53333 84.83125 82.53333Q84.1125 82.53333 83.675 83.14271Q83.12813 83.92396 83.12813 86.04896ZM89.05 86.04896Q89.05 84.51771 89.3625 83.59583Q89.675 82.65833 90.28438 82.15833Q90.90938 81.65833 91.84688 81.65833Q92.53438 81.65833 93.05 81.93958Q93.58125 82.22083 93.925 82.75208Q94.26875 83.26771 94.45625 84.01771Q94.64375 84.76771 94.64375 86.04896Q94.64375 87.56458 94.33125 88.48646Q94.03438 89.40833 93.40938 89.92396Q92.8 90.42396 91.84688 90.42396Q90.6125 90.42396 89.89375 89.53333Q89.05 88.47083 89.05 86.04896ZM90.12813 86.04896Q90.12813 88.15833 90.62813 88.86146Q91.12813 89.56458 91.84688 89.56458Q92.58125 89.56458 93.06563 88.86146Q93.56563 88.15833 93.56563 86.04896Q93.56563 83.92396 93.06563 83.23646Q92.58125 82.53333 91.83125 82.53333Q91.1125 82.53333 90.675 83.14271Q90.12813 83.92396 90.12813 86.04896Z" fill-rule="nonzero"/><path fill="#000000" d="M102.51875 317.45L101.47188 317.45L101.47188 310.73126Q101.08125 311.09064 100.45625 311.46564Q99.84688 311.825 99.3625 311.9969L99.3625 310.98126Q100.2375 310.5594 100.89375 309.98126Q101.56563 309.3875 101.84688 308.825L102.51875 308.825L102.51875 317.45Z" fill-rule="nonzero"/><path fill="#000000" d="M221.649 317.45L220.60213 317.45L220.60213 310.73126Q220.2115 311.09064 219.5865 311.46564Q218.97713 311.825 218.49275 311.9969L218.49275 310.98126Q219.36775 310.5594 220.024 309.98126Q220.69588 309.3875 220.97713 308.825L221.649 308.825L221.649 317.45ZM224.68025 313.21564Q224.68025 311.6844 224.99275 310.7625Q225.30525 309.825 225.91463 309.325Q226.53963 308.825 227.47713 308.825Q228.16463 308.825 228.68025 309.10626Q229.2115 309.3875 229.55525 309.91876Q229.899 310.4344 230.0865 311.1844Q230.274 311.9344 230.274 313.21564Q230.274 314.73126 229.9615 315.65314Q229.66463 316.575 229.03963 317.09064Q228.43025 317.59064 227.47713 317.59064Q226.24275 317.59064 225.524 316.7Q224.68025 315.6375 224.68025 313.21564ZM225.75838 313.21564Q225.75838 315.325 226.25838 316.02814Q226.75838 316.73126 227.47713 316.73126Q228.2115 316.73126 228.69588 316.02814Q229.19588 315.325 229.19588 313.21564Q229.19588 311.09064 228.69588 310.40314Q228.2115 309.7 227.4615 309.7Q226.74275 309.7 226.30525 310.3094Q225.75838 311.09064 225.75838 313.21564Z" fill-rule="nonzero"/><path fill="#000000" d="M340.77927 317.45L339.7324 317.45L339.7324 310.73126Q339.34177 311.09064 338.71677 311.46564Q338.1074 311.825 337.62302 311.9969L337.62302 310.98126Q338.49802 310.5594 339.15427 309.98126Q339.82614 309.3875 340.1074 308.825L340.77927 308.825L340.77927 317.45ZM343.81052 313.21564Q343.81052 311.6844 344.12302 310.7625Q344.43552 309.825 345.0449 309.325Q345.6699 308.825 346.6074 308.825Q347.2949 308.825 347.81052 309.10626Q348.34177 309.3875 348.68552 309.91876Q349.02927 310.4344 349.21677 311.1844Q349.40427 311.9344 349.40427 313.21564Q349.40427 314.73126 349.09177 315.65314Q348.7949 316.575 348.1699 317.09064Q347.56052 317.59064 346.6074 317.59064Q345.37302 317.59064 344.65427 316.7Q343.81052 315.6375 343.81052 313.21564ZM344.88864 313.21564Q344.88864 315.325 345.38864 316.02814Q345.88864 316.73126 346.6074 316.73126Q347.34177 316.73126 347.82614 316.02814Q348.32614 315.325 348.32614 313.21564Q348.32614 311.09064 347.82614 310.40314Q347.34177 309.7 346.59177 309.7Q345.87302 309.7 345.43552 310.3094Q344.88864 311.09064 344.88864 313.21564ZM350.81052 313.21564Q350.81052 311.6844 351.12302 310.7625Q351.43552 309.825 352.0449 309.325Q352.6699 308.825 353.6074 308.825Q354.2949 308.825 354.81052 309.10626Q355.34177 309.3875 355.68552 309.91876Q356.02927 310.4344 356.21677 311.1844Q356.40427 311.9344 356.40427 313.21564Q356.40427 314.73126 356.09177 315.65314Q355.7949 316.575 355.1699 317.09064Q354.56052 317.59064 353.6074 317.59064Q352.37302 317.59064 351.65427 316.7Q350.81052 315.6375 350.81052 313.21564ZM351.88864 313.21564Q351.88864 315.325 352.38864 316.02814Q352.88864 316.73126 353.6074 316.73126Q354.34177 316.73126 354.82614 316.02814Q355.32614 315.325 355.32614 313.21564Q355.32614 311.09064 354.82614 310.40314Q354.34177 309.7 353.59177 309.7Q352.87302 309.7 352.43552 310.3094Q351.88864 311.09064 351.88864 313.21564Z" fill-rule="nonzero"/><path fill="#000000" d="M459.90952 317.45L458.86264 317.45L458.86264 310.73126Q458.47202 311.09064 457.84702 311.46564Q457.23764 311.825 456.75327 311.9969L456.75327 310.98126Q457.62827 310.5594 458.28452 309.98126Q458.9564 309.3875 459.23764 308.825L459.90952 308.825L459.90952 317.45ZM462.94077 313.21564Q462.94077 311.6844 463.25327 310.7625Q463.56577 309.825 464.17514 309.325Q464.80014 308.825 465.73764 308.825Q466.42514 308.825 466.94077 309.10626Q467.47202 309.3875 467.81577 309.91876Q468.15952 310.4344 468.34702 311.1844Q468.53452 311.9344 468.53452 313.21564Q468.53452 314.73126 468.22202 315.65314Q467.92514 316.575 467.30014 317.09064Q466.69077 317.59064 465.73764 317.59064Q464.50327 317.59064 463.78452 316.7Q462.94077 315.6375 462.94077 313.21564ZM464.0189 313.21564Q464.0189 315.325 464.5189 316.02814Q465.0189 316.73126 465.73764 316.73126Q466.47202 316.73126 466.9564 316.02814Q467.4564 315.325 467.4564 313.21564Q467.4564 311.09064 466.9564 310.40314Q466.47202 309.7 465.72202 309.7Q465.00327 309.7 464.56577 310.3094Q464.0189 311.09064 464.0189 313.21564ZM469.94077 313.21564Q469.94077 311.6844 470.25327 310.7625Q470.56577 309.825 471.17514 309.325Q471.80014 308.825 472.73764 308.825Q473.42514 308.825 473.94077 309.10626Q474.47202 309.3875 474.81577 309.91876Q475.15952 310.4344 475.34702 311.1844Q475.53452 311.9344 475.53452 313.21564Q475.53452 314.73126 475.22202 315.65314Q474.92514 316.575 474.30014 317.09064Q473.69077 317.59064 472.73764 317.59064Q471.50327 317.59064 470.78452 316.7Q469.94077 315.6375 469.94077 313.21564ZM471.0189 313.21564Q471.0189 315.325 471.5189 316.02814Q472.0189 316.73126 472.73764 316.73126Q473.47202 316.73126 473.9564 316.02814Q474.4564 315.325 474.4564 313.21564Q474.4564 311.09064 473.9564 310.40314Q473.47202 309.7 472.72202 309.7Q472.00327 309.7 471.56577 310.3094Q471.0189 311.09064 471.0189 313.21564ZM476.94077 313.21564Q476.94077 311.6844 477.25327 310.7625Q477.56577 309.825 478.17514 309.325Q478.80014 308.825 479.73764 308.825Q480.42514 308.825 480.94077 309.10626Q481.47202 309.3875 481.81577 309.91876Q482.15952 310.4344 482.34702 311.1844Q482.53452 311.9344 482.53452 313.21564Q482.53452 314.73126 482.22202 315.65314Q481.92514 316.575 481.30014 317.09064Q480.69077 317.59064 479.73764 317.59064Q478.50327 317.59064 477.78452 316.7Q476.94077 315.6375 476.94077 313.21564ZM478.0189 313.21564Q478.0189 315.325 478.5189 316.02814Q479.0189 316.73126 479.73764 316.73126Q480.47202 316.73126 480.9564 316.02814Q481.4564 315.325 481.4564 313.21564Q481.4564 311.09064 480.9564 310.40314Q480.47202 309.7 479.72202 309.7Q479.00327 309.7 478.56577 310.3094Q478.0189 311.09064 478.0189 313.21564Z" fill-rule="nonzero"/><path stroke="#4285f4" stroke-width="4.0" stroke-linecap="butt" d="M155.62305 57.916668L167.62305 57.916668" fill-rule="nonzero"/><path fill="#1a1a1a" d="M176.41992 61.916668L176.41992 55.697918L177.35742 55.697918L177.35742 56.572918Q177.6543 56.104168 178.13867 55.838543Q178.62305 55.557293 179.24805 55.557293Q179.93555 55.557293 180.37305 55.838543Q180.82617 56.119793 180.99805 56.635418Q181.74805 55.557293 182.91992 55.557293Q183.85742 55.557293 184.3418 56.072918Q184.8418 56.572918 184.8418 57.651043L184.8418 61.916668L183.79492 61.916668L183.79492 57.994793Q183.79492 57.369793 183.68555 57.088543Q183.5918 56.807293 183.32617 56.635418Q183.06055 56.463543 182.68555 56.463543Q182.0293 56.463543 181.5918 56.901043Q181.16992 57.338543 181.16992 58.307293L181.16992 61.916668L180.10742 61.916668L180.10742 57.869793Q180.10742 57.166668 179.8418 56.822918Q179.5918 56.463543 179.01367 56.463543Q178.56055 56.463543 178.18555 56.697918Q177.81055 56.932293 177.63867 57.385418Q177.4668 57.838543 177.4668 58.682293L177.4668 61.916668L176.41992 61.916668ZM191.48242 61.151043Q190.88867 61.651043 190.3418 61.854168Q189.81055 62.057293 189.18555 62.057293Q188.1543 62.057293 187.60742 61.557293Q187.06055 61.057293 187.06055 60.276043Q187.06055 59.822918 187.26367 59.447918Q187.4668 59.057293 187.81055 58.838543Q188.1543 58.604168 188.57617 58.494793Q188.87305 58.401043 189.51367 58.322918Q190.7793 58.182293 191.38867 57.963543Q191.38867 57.744793 191.38867 57.697918Q191.38867 57.041668 191.0918 56.776043Q190.68555 56.432293 189.88867 56.432293Q189.1543 56.432293 188.79492 56.697918Q188.43555 56.947918 188.26367 57.604168L187.23242 57.463543Q187.37305 56.807293 187.70117 56.401043Q188.0293 55.994793 188.63867 55.776043Q189.24805 55.557293 190.04492 55.557293Q190.8418 55.557293 191.3418 55.744793Q191.8418 55.932293 192.07617 56.213543Q192.31055 56.494793 192.4043 56.932293Q192.45117 57.197918 192.45117 57.901043L192.45117 59.307293Q192.45117 60.776043 192.51367 61.166668Q192.5918 61.557293 192.79492 61.916668L191.68555 61.916668Q191.5293 61.588543 191.48242 61.151043ZM191.38867 58.791668Q190.81055 59.026043 189.66992 59.197918Q189.01367 59.291668 188.74805 59.416668Q188.48242 59.526043 188.32617 59.744793Q188.18555 59.963543 188.18555 60.244793Q188.18555 60.666668 188.49805 60.947918Q188.82617 61.229168 189.43555 61.229168Q190.04492 61.229168 190.51367 60.963543Q190.99805 60.697918 191.2168 60.229168Q191.38867 59.869793 191.38867 59.182293L191.38867 58.791668ZM193.99805 60.057293L195.0293 59.901043Q195.12305 60.526043 195.51367 60.854168Q195.91992 61.182293 196.6543 61.182293Q197.37305 61.182293 197.7168 60.901043Q198.07617 60.604168 198.07617 60.197918Q198.07617 59.838543 197.76367 59.635418Q197.54492 59.494793 196.68555 59.276043Q195.5293 58.979168 195.07617 58.776043Q194.63867 58.557293 194.4043 58.182293Q194.16992 57.807293 194.16992 57.338543Q194.16992 56.932293 194.35742 56.572918Q194.54492 56.213543 194.87305 55.979168Q195.12305 55.807293 195.54492 55.682293Q195.9668 55.557293 196.4668 55.557293Q197.18555 55.557293 197.73242 55.776043Q198.29492 55.979168 198.56055 56.338543Q198.82617 56.697918 198.91992 57.291668L197.88867 57.432293Q197.82617 56.963543 197.48242 56.697918Q197.1543 56.416668 196.5293 56.416668Q195.81055 56.416668 195.49805 56.666668Q195.18555 56.901043 195.18555 57.229168Q195.18555 57.432293 195.31055 57.588543Q195.45117 57.760418 195.7168 57.869793Q195.87305 57.932293 196.6543 58.135418Q197.7793 58.447918 198.2168 58.635418Q198.6543 58.822918 198.9043 59.182293Q199.1543 59.541668 199.1543 60.088543Q199.1543 60.619793 198.8418 61.088543Q198.54492 61.541668 197.9668 61.807293Q197.38867 62.057293 196.6543 62.057293Q195.43555 62.057293 194.79492 61.557293Q194.16992 61.041668 193.99805 60.057293ZM203.7168 60.979168L203.87305 61.901043Q203.41992 61.994793 203.07617 61.994793Q202.49805 61.994793 202.18555 61.822918Q201.87305 61.635418 201.73242 61.338543Q201.60742 61.041668 201.60742 60.088543L201.60742 56.510418L200.8418 56.510418L200.8418 55.697918L201.60742 55.697918L201.60742 54.151043L202.6543 53.526043L202.6543 55.697918L203.7168 55.697918L203.7168 56.510418L202.6543 56.510418L202.6543 60.151043Q202.6543 60.604168 202.70117 60.729168Q202.76367 60.854168 202.88867 60.932293Q203.01367 61.010418 203.24805 61.010418Q203.43555 61.010418 203.7168 60.979168ZM208.66992 59.916668L209.76367 60.041668Q209.51367 60.994793 208.81055 61.526043Q208.10742 62.057293 207.0293 62.057293Q205.66992 62.057293 204.85742 61.213543Q204.06055 60.369793 204.06055 58.854168Q204.06055 57.291668 204.87305 56.432293Q205.68555 55.557293 206.9668 55.557293Q208.2168 55.557293 208.99805 56.401043Q209.79492 57.244793 209.79492 58.791668Q209.79492 58.885418 209.79492 59.072918L205.1543 59.072918Q205.2168 60.104168 205.73242 60.651043Q206.24805 61.182293 207.0293 61.182293Q207.60742 61.182293 208.01367 60.885418Q208.43555 60.572918 208.66992 59.916668ZM205.2168 58.213543L208.68555 58.213543Q208.62305 57.416668 208.29492 57.026043Q207.7793 56.416668 206.98242 56.416668Q206.24805 56.416668 205.74805 56.901043Q205.26367 57.385418 205.2168 58.213543ZM211.4043 61.916668L211.4043 55.697918L212.35742 55.697918L212.35742 56.635418Q212.7168 55.979168 213.01367 55.776043Q213.32617 55.557293 213.70117 55.557293Q214.23242 55.557293 214.7793 55.885418L214.41992 56.869793Q214.0293 56.635418 213.6543 56.635418Q213.29492 56.635418 213.01367 56.854168Q212.74805 57.057293 212.63867 57.432293Q212.45117 57.994793 212.45117 58.651043L212.45117 61.916668L211.4043 61.916668Z" fill-rule="nonzero"/><path stroke="#ea4335" stroke-width="4.0" stroke-linecap="butt" d="M230.62305 57.916668L242.62305 57.916668" fill-rule="nonzero"/><path fill="#1a1a1a" d="M251.5918 61.916668L251.5918 53.322918L252.7168 53.322918L252.7168 56.854168L257.18555 56.854168L257.18555 53.322918L258.32617 53.322918L258.32617 61.916668L257.18555 61.916668L257.18555 57.869793L252.7168 57.869793L252.7168 61.916668L251.5918 61.916668ZM266.68555 58.901043L267.81055 59.197918Q267.45117 60.588543 266.5293 61.322918Q265.60742 62.057293 264.26367 62.057293Q262.87305 62.057293 261.99805 61.494793Q261.12305 60.932293 260.66992 59.869793Q260.2168 58.791668 260.2168 57.557293Q260.2168 56.213543 260.73242 55.213543Q261.24805 54.213543 262.18555 53.697918Q263.13867 53.182293 264.2793 53.182293Q265.56055 53.182293 266.43555 53.838543Q267.32617 54.494793 267.66992 55.682293L266.54492 55.947918Q266.24805 55.010418 265.66992 54.588543Q265.10742 54.151043 264.24805 54.151043Q263.26367 54.151043 262.5918 54.635418Q261.93555 55.104168 261.6543 55.901043Q261.38867 56.697918 261.38867 57.557293Q261.38867 58.651043 261.70117 59.463543Q262.0293 60.276043 262.70117 60.682293Q263.37305 61.088543 264.16992 61.088543Q265.12305 61.088543 265.7793 60.541668Q266.45117 59.994793 266.68555 58.901043Z" fill-rule="nonzero"/><path fill="#757575" d="M30.940624 36.01875Q32.26875 36.925 33.378124 37.346874L32.815624 38.659374Q31.26875 38.1125 29.7375 36.909374Q28.14375 37.8 26.221874 37.8Q24.284374 37.8 22.690624 36.8625Q21.1125 35.925 20.253124 34.221874Q19.409374 32.51875 19.409374 30.39375Q19.409374 28.26875 20.26875 26.534374Q21.128124 24.8 22.70625 23.89375Q24.3 22.971874 26.26875 22.971874Q28.253124 22.971874 29.83125 23.925Q31.425 24.8625 32.253124 26.565624Q33.096874 28.253124 33.096874 30.378124Q33.096874 32.14375 32.565624 33.565624Q32.034374 34.971874 30.940624 36.01875ZM26.76875 33.596874Q28.409374 34.05 29.471874 34.95625Q31.14375 33.440624 31.14375 30.378124Q31.14375 28.64375 30.55 27.346874Q29.971874 26.05 28.83125 25.33125Q27.690624 24.6125 26.26875 24.6125Q24.159374 24.6125 22.753124 26.065624Q21.3625 27.503124 21.3625 30.39375Q21.3625 33.190624 22.7375 34.690624Q24.128124 36.175 26.26875 36.175Q27.284374 36.175 28.190624 35.784374Q27.3 35.221874 26.315624 34.971874L26.76875 33.596874ZM36.128124 37.55L36.128124 23.2375L46.4875 23.2375L46.4875 24.925L38.034374 24.925L38.034374 29.3L45.940624 29.3L45.940624 30.9875L38.034374 30.9875L38.034374 35.8625L46.815624 35.8625L46.815624 37.55L36.128124 37.55ZM49.034374 37.55L49.034374 23.2375L51.89375 23.2375L55.26875 33.3625Q55.7375 34.784374 55.95625 35.4875Q56.20625 34.70625 56.721874 33.190624L60.14375 23.2375L62.690624 23.2375L62.690624 37.55L60.878124 37.55L60.878124 25.565624L56.70625 37.55L55.003124 37.55L50.8625 25.3625L50.8625 37.55L49.034374 37.55ZM75.4875 23.2375L77.37813 23.2375L77.37813 31.503124Q77.37813 33.659374 76.89375 34.940624Q76.40938 36.20625 75.12813 37.003124Q73.8625 37.8 71.78438 37.8Q69.76875 37.8 68.4875 37.1125Q67.22188 36.409374 66.675 35.096874Q66.12813 33.784374 66.12813 31.503124L66.12813 23.2375L68.01875 23.2375L68.01875 31.4875Q68.01875 33.3625 68.3625 34.253124Q68.70625 35.128124 69.55 35.6125Q70.39375 36.08125 71.62813 36.08125Q73.70625 36.08125 74.59688 35.14375Q75.4875 34.190624 75.4875 31.4875L75.4875 23.2375ZM87.75313 37.55L83.8 27.175L85.65938 27.175L87.89375 33.39375Q88.25313 34.39375 88.55 35.471874Q88.78438 34.659374 89.20625 33.503124L91.50313 27.175L93.31563 27.175L89.39375 37.55L87.75313 37.55ZM93.83125 37.55L93.83125 23.2375L95.58125 23.2375L95.58125 37.55L93.83125 37.55ZM104.97188 34.20625L106.78438 34.440624Q106.3625 36.01875 105.19063 36.909374Q104.03438 37.784374 102.22188 37.784374Q99.95625 37.784374 98.6125 36.39375Q97.28438 34.9875 97.28438 32.45625Q97.28438 29.83125 98.62813 28.39375Q99.97188 26.940624 102.12813 26.940624Q104.20625 26.940624 105.51875 28.3625Q106.84688 29.76875 106.84688 32.346874Q106.84688 32.503124 106.83125 32.815624L99.09688 32.815624Q99.19063 34.51875 100.06563 35.425Q100.94063 36.33125 102.2375 36.33125Q103.20625 36.33125 103.87813 35.83125Q104.56563 35.315624 104.97188 34.20625ZM99.19063 31.3625L104.9875 31.3625Q104.87813 30.065624 104.33125 29.409374Q103.4875 28.39375 102.14375 28.39375Q100.94063 28.39375 100.1125 29.20625Q99.28438 30.003124 99.19063 31.3625ZM111.08125 29.784374Q109.9875 29.378124 109.45625 28.64375Q108.94063 27.89375 108.94063 26.8625Q108.94063 25.3 110.06563 24.2375Q111.19063 23.175 113.05 23.175Q114.925 23.175 116.06563 24.26875Q117.20625 25.346874 117.20625 26.909374Q117.20625 27.909374 116.675 28.64375Q116.15938 29.378124 115.09688 29.784374Q116.425 30.221874 117.1125 31.175Q117.8 32.128124 117.8 33.45625Q117.8 35.3 116.4875 36.55Q115.19063 37.8 113.08125 37.8Q110.95625 37.8 109.65938 36.55Q108.3625 35.284374 108.3625 33.409374Q108.3625 32.01875 109.06563 31.08125Q109.78438 30.128124 111.08125 29.784374ZM110.7375 26.8Q110.7375 27.815624 111.39375 28.471874Q112.05 29.1125 113.08125 29.1125Q114.09688 29.1125 114.75313 28.471874Q115.40938 27.83125 115.40938 26.909374Q115.40938 25.940624 114.7375 25.284374Q114.06563 24.6125 113.06563 24.6125Q112.06563 24.6125 111.39375 25.26875Q110.7375 25.909374 110.7375 26.8ZM110.175 33.425Q110.175 34.175 110.51875 34.878124Q110.87813 35.58125 111.58125 35.971874Q112.28438 36.346874 113.09688 36.346874Q114.3625 36.346874 115.175 35.534374Q116.00313 34.721874 116.00313 33.471874Q116.00313 32.20625 115.15938 31.378124Q114.31563 30.55 113.03438 30.55Q111.8 30.55 110.9875 31.378124Q110.175 32.190624 110.175 33.425ZM120.3625 37.55L120.3625 35.55L122.3625 35.55L122.3625 37.55L120.3625 37.55ZM128.75313 37.55L124.8 27.175L126.65938 27.175L128.89375 33.39375Q129.25313 34.39375 129.55 35.471874Q129.78438 34.659374 130.20625 33.503124L132.50313 27.175L134.31563 27.175L130.39375 37.55L128.75313 37.55ZM140.8625 41.51875L140.8625 27.175L142.47188 27.175L142.47188 28.51875Q143.03438 27.7375 143.7375 27.346874Q144.45625 26.940624 145.47188 26.940624Q146.8 26.940624 147.81563 27.628124Q148.83125 28.315624 149.34688 29.565624Q149.87813 30.8 149.87813 32.284374Q149.87813 33.878124 149.3 35.159374Q148.7375 36.425 147.64375 37.1125Q146.55 37.784374 145.34688 37.784374Q144.47188 37.784374 143.76875 37.409374Q143.08125 37.034374 142.62813 36.471874L142.62813 41.51875L140.8625 41.51875ZM142.45625 32.425Q142.45625 34.425 143.26875 35.378124Q144.08125 36.33125 145.2375 36.33125Q146.40938 36.33125 147.2375 35.346874Q148.08125 34.3625 148.08125 32.26875Q148.08125 30.3 147.25313 29.315624Q146.44063 28.315624 145.31563 28.315624Q144.19063 28.315624 143.31563 29.378124Q142.45625 30.425 142.45625 32.425ZM158.97188 34.20625L160.78438 34.440624Q160.3625 36.01875 159.19063 36.909374Q158.03438 37.784374 156.22188 37.784374Q153.95625 37.784374 152.6125 36.39375Q151.28438 34.9875 151.28438 32.45625Q151.28438 29.83125 152.62813 28.39375Q153.97188 26.940624 156.12813 26.940624Q158.20625 26.940624 159.51875 28.3625Q160.84688 29.76875 160.84688 32.346874Q160.84688 32.503124 160.83125 32.815624L153.09688 32.815624Q153.19063 34.51875 154.06563 35.425Q154.94063 36.33125 156.2375 36.33125Q157.20625 36.33125 157.87813 35.83125Q158.56563 35.315624 158.97188 34.20625ZM153.19063 31.3625L158.9875 31.3625Q158.87813 30.065624 158.33125 29.409374Q157.4875 28.39375 156.14375 28.39375Q154.94063 28.39375 154.1125 29.20625Q153.28438 30.003124 153.19063 31.3625ZM162.84688 37.55L162.84688 27.175L164.425 27.175L164.425 28.753124Q165.03438 27.64375 165.55 27.3Q166.06563 26.940624 166.675 26.940624Q167.56563 26.940624 168.4875 27.503124L167.87813 29.14375Q167.2375 28.753124 166.59688 28.753124Q166.01875 28.753124 165.55 29.1125Q165.09688 29.45625 164.89375 30.065624Q164.6125 31.003124 164.6125 32.1125L164.6125 37.55L162.84688 37.55ZM170.28438 37.55L170.28438 28.55L168.7375 28.55L168.7375 27.175L170.28438 27.175L170.28438 26.08125Q170.28438 25.034374 170.47188 24.51875Q170.72188 23.83125 171.3625 23.409374Q172.00313 22.9875 173.15938 22.9875Q173.90938 22.9875 174.8 23.159374L174.53438 24.690624Q173.9875 24.596874 173.50313 24.596874Q172.70625 24.596874 172.3625 24.940624Q172.03438 25.284374 172.03438 26.221874L172.03438 27.175L174.06563 27.175L174.06563 28.55L172.03438 28.55L172.03438 37.55L170.28438 37.55ZM175.22188 32.3625Q175.22188 29.4875 176.81563 28.096874Q178.15938 26.940624 180.08125 26.940624Q182.22188 26.940624 183.56563 28.346874Q184.925 29.753124 184.925 32.221874Q184.925 34.221874 184.33125 35.378124Q183.7375 36.51875 182.58125 37.159374Q181.44063 37.784374 180.08125 37.784374Q177.89375 37.784374 176.55 36.39375Q175.22188 34.9875 175.22188 32.3625ZM177.01875 32.3625Q177.01875 34.3625 177.87813 35.346874Q178.75313 36.33125 180.08125 36.33125Q181.39375 36.33125 182.25313 35.346874Q183.12813 34.346874 183.12813 32.3Q183.12813 30.378124 182.25313 29.39375Q181.37813 28.39375 180.08125 28.39375Q178.75313 28.39375 177.87813 29.39375Q177.01875 30.378124 177.01875 32.3625ZM186.84688 37.55L186.84688 27.175L188.425 27.175L188.425 28.753124Q189.03438 27.64375 189.55 27.3Q190.06563 26.940624 190.675 26.940624Q191.56563 26.940624 192.4875 27.503124L191.87813 29.14375Q191.2375 28.753124 190.59688 28.753124Q190.01875 28.753124 189.55 29.1125Q189.09688 29.45625 188.89375 30.065624Q188.6125 31.003124 188.6125 32.1125L188.6125 37.55L186.84688 37.55ZM193.8625 37.55L193.8625 27.175L195.44063 27.175L195.44063 28.628124Q195.925 27.878124 196.7375 27.409374Q197.55 26.940624 198.58125 26.940624Q199.7375 26.940624 200.47188 27.425Q201.20625 27.89375 201.51875 28.753124Q202.75313 26.940624 204.72188 26.940624Q206.26875 26.940624 207.09688 27.8Q207.925 28.659374 207.925 30.425L207.925 37.55L206.175 37.55L206.175 31.01875Q206.175 29.95625 206.00313 29.503124Q205.83125 29.034374 205.37813 28.753124Q204.94063 28.471874 204.33125 28.471874Q203.2375 28.471874 202.50313 29.20625Q201.78438 29.925 201.78438 31.51875L201.78438 37.55L200.03438 37.55L200.03438 30.815624Q200.03438 29.64375 199.59688 29.065624Q199.175 28.471874 198.19063 28.471874Q197.45625 28.471874 196.81563 28.8625Q196.19063 29.253124 195.90938 30.003124Q195.62813 30.753124 195.62813 32.175L195.62813 37.55L193.8625 37.55ZM216.64375 36.26875Q215.65938 37.096874 214.75313 37.440624Q213.84688 37.784374 212.81563 37.784374Q211.1125 37.784374 210.19063 36.95625Q209.26875 36.1125 209.26875 34.815624Q209.26875 34.05 209.6125 33.425Q209.97188 32.8 210.53438 32.425Q211.09688 32.034374 211.8 31.83125Q212.31563 31.70625 213.3625 31.565624Q215.4875 31.315624 216.4875 30.971874Q216.50313 30.6125 216.50313 30.503124Q216.50313 29.440624 216.00313 28.9875Q215.33125 28.39375 214.00313 28.39375Q212.75313 28.39375 212.15938 28.83125Q211.58125 29.26875 211.3 30.378124L209.58125 30.14375Q209.81563 29.034374 210.34688 28.3625Q210.87813 27.675 211.89375 27.315624Q212.90938 26.940624 214.25313 26.940624Q215.58125 26.940624 216.40938 27.253124Q217.2375 27.565624 217.62813 28.05Q218.01875 28.51875 218.175 29.2375Q218.26875 29.690624 218.26875 30.8625L218.26875 33.20625Q218.26875 35.659374 218.37813 36.315624Q218.4875 36.95625 218.83125 37.55L216.9875 37.55Q216.72188 37.003124 216.64375 36.26875ZM216.4875 32.346874Q215.53438 32.7375 213.6125 33.003124Q212.53438 33.159374 212.08125 33.3625Q211.64375 33.55 211.39375 33.925Q211.14375 34.3 211.14375 34.76875Q211.14375 35.471874 211.675 35.940624Q212.20625 36.409374 213.2375 36.409374Q214.25313 36.409374 215.03438 35.971874Q215.83125 35.51875 216.20625 34.753124Q216.4875 34.14375 216.4875 32.9875L216.4875 32.346874ZM220.8625 37.55L220.8625 27.175L222.45625 27.175L222.45625 28.659374Q223.59688 26.940624 225.75313 26.940624Q226.69063 26.940624 227.47188 27.284374Q228.26875 27.6125 228.65938 28.159374Q229.05 28.70625 229.20625 29.45625Q229.3 29.95625 229.3 31.175L229.3 37.55L227.53438 37.55L227.53438 31.2375Q227.53438 30.159374 227.33125 29.628124Q227.12813 29.096874 226.59688 28.784374Q226.08125 28.471874 225.37813 28.471874Q224.25313 28.471874 223.44063 29.190624Q222.62813 29.89375 222.62813 31.878124L222.62813 37.55L220.8625 37.55ZM237.64375 33.753124L239.3625 33.971874Q239.08125 35.76875 237.90938 36.784374Q236.75313 37.784374 235.05 37.784374Q232.925 37.784374 231.62813 36.39375Q230.33125 35.003124 230.33125 32.409374Q230.33125 30.721874 230.87813 29.471874Q231.44063 28.20625 232.58125 27.58125Q233.72188 26.940624 235.06563 26.940624Q236.75313 26.940624 237.81563 27.8Q238.89375 28.659374 239.20625 30.221874L237.4875 30.4875Q237.25313 29.440624 236.62813 28.925Q236.00313 28.39375 235.12813 28.39375Q233.8 28.39375 232.97188 29.346874Q232.14375 30.3 232.14375 32.346874Q232.14375 34.440624 232.94063 35.39375Q233.7375 36.33125 235.03438 36.33125Q236.06563 36.33125 236.75313 35.70625Q237.45625 35.065624 237.64375 33.753124ZM247.97188 34.20625L249.78438 34.440624Q249.3625 36.01875 248.19063 36.909374Q247.03438 37.784374 245.22188 37.784374Q242.95625 37.784374 241.6125 36.39375Q240.28438 34.9875 240.28438 32.45625Q240.28438 29.83125 241.62813 28.39375Q242.97188 26.940624 245.12813 26.940624Q247.20625 26.940624 248.51875 28.3625Q249.84688 29.76875 249.84688 32.346874Q249.84688 32.503124 249.83125 32.815624L242.09688 32.815624Q242.19063 34.51875 243.06563 35.425Q243.94063 36.33125 245.2375 36.33125Q246.20625 36.33125 246.87813 35.83125Q247.56563 35.315624 247.97188 34.20625ZM242.19063 31.3625L247.9875 31.3625Q247.87813 30.065624 247.33125 29.409374Q246.4875 28.39375 245.14375 28.39375Q243.94063 28.39375 243.1125 29.20625Q242.28438 30.003124 242.19063 31.3625ZM261.22186 41.753124Q259.76874 39.925 258.76874 37.471874Q257.76874 35.003124 257.76874 32.3625Q257.76874 30.034374 258.51874 27.909374Q259.39374 25.440624 261.22186 22.9875L262.4875 22.9875Q261.3 25.01875 260.925 25.89375Q260.33124 27.2375 259.9875 28.70625Q259.5656 30.534374 259.5656 32.378124Q259.5656 37.065624 262.4875 41.753124L261.22186 41.753124ZM269.1906 37.55L263.64374 23.2375L265.6906 23.2375L269.40936 33.628124Q269.8625 34.878124 270.15936 35.971874Q270.4875 34.8 270.9406 33.628124L274.8 23.2375L276.7375 23.2375L271.1281 37.55L269.1906 37.55ZM278.01874 37.55L278.01874 23.2375L279.90936 23.2375L279.90936 35.8625L286.95624 35.8625L286.95624 37.55L278.01874 37.55ZM289.1281 37.55L289.1281 23.2375L299.4875 23.2375L299.4875 24.925L291.03436 24.925L291.03436 29.3L298.9406 29.3L298.9406 30.9875L291.03436 30.9875L291.03436 35.8625L299.8156 35.8625L299.8156 37.55L289.1281 37.55ZM302.08124 37.55L302.08124 23.2375L304.01874 23.2375L311.53436 34.471874L311.53436 23.2375L313.34686 23.2375L313.34686 37.55L311.40936 37.55L303.89374 26.3L303.89374 37.55L302.08124 37.55ZM324.1125 29.128124L314.65936 29.128124L314.65936 27.4875L324.1125 27.4875L324.1125 29.128124ZM324.1125 33.471874L314.65936 33.471874L314.65936 31.83125L324.1125 31.83125L324.1125 33.471874ZM326.3781 33.8L328.22186 33.64375Q328.425 34.9875 329.175 35.675Q329.925 36.346874 330.9875 36.346874Q332.2531 36.346874 333.1281 35.39375Q334.0031 34.440624 334.0031 32.846874Q334.0031 31.346874 333.15936 30.4875Q332.3156 29.6125 330.95624 29.6125Q330.09686 29.6125 329.40936 30.003124Q328.7375 30.378124 328.34686 31.003124L326.6906 30.784374L328.08124 23.425L335.20624 23.425L335.20624 25.1125L329.4875 25.1125L328.72186 28.95625Q330.0031 28.05 331.425 28.05Q333.3 28.05 334.58124 29.3625Q335.8781 30.659374 335.8781 32.690624Q335.8781 34.64375 334.7375 36.05Q333.3625 37.8 330.9875 37.8Q329.03436 37.8 327.78436 36.70625Q326.55 35.6125 326.3781 33.8ZM344.0031 37.55L342.2375 37.55L342.2375 26.346874Q341.6125 26.95625 340.58124 27.565624Q339.55 28.159374 338.72186 28.471874L338.72186 26.76875Q340.20624 26.08125 341.3 25.096874Q342.40936 24.096874 342.8625 23.175L344.0031 23.175L344.0031 37.55ZM357.6125 35.8625L357.6125 37.55L348.15936 37.55Q348.14374 36.909374 348.3625 36.33125Q348.72186 35.3625 349.51874 34.425Q350.3156 33.4875 351.8156 32.253124Q354.15936 30.346874 354.97186 29.2375Q355.8 28.1125 355.8 27.1125Q355.8 26.065624 355.05 25.346874Q354.3 24.628124 353.09686 24.628124Q351.83124 24.628124 351.0656 25.39375Q350.3 26.159374 350.3 27.503124L348.4875 27.315624Q348.675 25.3 349.8781 24.2375Q351.09686 23.175 353.14374 23.175Q355.1906 23.175 356.39374 24.315624Q357.59686 25.45625 357.59686 27.14375Q357.59686 28.003124 357.2375 28.846874Q356.89374 29.675 356.08124 30.596874Q355.26874 31.503124 353.3781 33.1125Q351.78436 34.440624 351.33124 34.909374Q350.89374 35.378124 350.59686 35.8625L357.6125 35.8625ZM360.33124 37.55L360.33124 35.55L362.33124 35.55L362.33124 37.55Q362.33124 38.659374 361.9406 39.33125Q361.55 40.01875 360.70624 40.378124L360.20624 39.628124Q360.76874 39.39375 361.03436 38.909374Q361.3 38.440624 361.33124 37.55L360.33124 37.55ZM372.01874 37.55L372.01874 23.2375L373.90936 23.2375L373.90936 35.8625L380.95624 35.8625L380.95624 37.55L372.01874 37.55ZM383.03436 37.55L383.03436 23.2375L385.89374 23.2375L389.26874 33.3625Q389.7375 34.784374 389.95624 35.4875Q390.20624 34.70625 390.72186 33.190624L394.14374 23.2375L396.6906 23.2375L396.6906 37.55L394.8781 37.55L394.8781 25.565624L390.70624 37.55L389.0031 37.55L384.8625 25.3625L384.8625 37.55L383.03436 37.55ZM409.4875 23.2375L411.3781 23.2375L411.3781 31.503124Q411.3781 33.659374 410.89374 34.940624Q410.40936 36.20625 409.1281 37.003124Q407.8625 37.8 405.78436 37.8Q403.76874 37.8 402.4875 37.1125Q401.22186 36.409374 400.675 35.096874Q400.1281 33.784374 400.1281 31.503124L400.1281 23.2375L402.01874 23.2375L402.01874 31.4875Q402.01874 33.3625 402.3625 34.253124Q402.70624 35.128124 403.55 35.6125Q404.39374 36.08125 405.6281 36.08125Q407.70624 36.08125 408.59686 35.14375Q409.4875 34.190624 409.4875 31.4875L409.4875 23.2375ZM413.01874 37.55L413.01874 23.2375L414.90936 23.2375L414.90936 35.8625L421.95624 35.8625L421.95624 37.55L413.01874 37.55ZM433.1125 29.128124L423.65936 29.128124L423.65936 27.4875L433.1125 27.4875L433.1125 29.128124ZM433.1125 33.471874L423.65936 33.471874L423.65936 31.83125L433.1125 31.83125L433.1125 33.471874ZM438.08124 29.784374Q436.9875 29.378124 436.45624 28.64375Q435.9406 27.89375 435.9406 26.8625Q435.9406 25.3 437.0656 24.2375Q438.1906 23.175 440.05 23.175Q441.925 23.175 443.0656 24.26875Q444.20624 25.346874 444.20624 26.909374Q444.20624 27.909374 443.675 28.64375Q443.15936 29.378124 442.09686 29.784374Q443.425 30.221874 444.1125 31.175Q444.8 32.128124 444.8 33.45625Q444.8 35.3 443.4875 36.55Q442.1906 37.8 440.08124 37.8Q437.95624 37.8 436.65936 36.55Q435.3625 35.284374 435.3625 33.409374Q435.3625 32.01875 436.0656 31.08125Q436.78436 30.128124 438.08124 29.784374ZM437.7375 26.8Q437.7375 27.815624 438.39374 28.471874Q439.05 29.1125 440.08124 29.1125Q441.09686 29.1125 441.7531 28.471874Q442.40936 27.83125 442.40936 26.909374Q442.40936 25.940624 441.7375 25.284374Q441.0656 24.6125 440.0656 24.6125Q439.0656 24.6125 438.39374 25.26875Q437.7375 25.909374 437.7375 26.8ZM437.175 33.425Q437.175 34.175 437.51874 34.878124Q437.8781 35.58125 438.58124 35.971874Q439.28436 36.346874 440.09686 36.346874Q441.3625 36.346874 442.175 35.534374Q443.0031 34.721874 443.0031 33.471874Q443.0031 32.20625 442.15936 31.378124Q441.3156 30.55 440.03436 30.55Q438.8 30.55 437.9875 31.378124Q437.175 32.190624 437.175 33.425ZM448.01874 41.753124L446.76874 41.753124Q449.675 37.065624 449.675 32.378124Q449.675 30.534374 449.26874 28.7375Q448.925 27.26875 448.33124 25.925Q447.95624 25.034374 446.76874 22.9875L448.01874 22.9875Q449.8625 25.440624 450.7375 27.909374Q451.4875 30.034374 451.4875 32.3625Q451.4875 35.003124 450.47186 37.471874Q449.47186 39.925 448.01874 41.753124Z" fill-rule="nonzero"/></svg>