<svg version="1.1" viewBox="0.0 0.0 600.0 371.0" fill="none" stroke="none" stroke-linecap="square" stroke-miterlimit="10" width="600" height="371" xmlns:xlink="http://www.w3.org/1999/xlink" xmlns="http://www.w3.org/2000/svg"><path fill="#ffffff" d="M0 0L600.0 0L600.0 371.0L0 371.0L0 0Z" fill-rule="nonzero"/><path stroke="#cccccc" stroke-width="1.0" stroke-linecap="butt" d="M101.5 86.5L101.5 300.5" fill-rule="nonzero"/><path stroke="#cccccc" stroke-width="1.0" stroke-linecap="butt" d="M224.5 86.5L224.5 300.5" fill-rule="nonzero"/><path stroke="#cccccc" stroke-width="1.0" stroke-linecap="butt" d="M346.5 86.5L346.5 300.5" fill-rule="nonzero"/><path stroke="#cccccc" stroke-width="1.0" stroke-linecap="butt" d="M469.5 86.5L469.5 300.5" fill-rule="nonzero"/><path stroke="#333333" stroke-width="1.0" stroke-linecap="butt" d="M101.5 300.5L581.5 300.5" fill-rule="nonzero"/><path stroke="#cccccc" stroke-width="1.0" stroke-linecap="butt" d="M101.5 246.5L581.5 246.5" fill-rule="nonzero"/><path stroke="#cccccc" stroke-width="1.0" stroke-linecap="butt" d="M101.5 193.5L581.5 193.5" fill-rule="nonzero"/><path stroke="#cccccc" stroke-width="1.0" stroke-linecap="butt" d="M101.5 139.5L581.5 139.5" fill-rule="nonzero"/><path stroke="#cccccc" stroke-width="1.0" stroke-linecap="butt" d="M101.5 86.5L581.5 86.5" fill-rule="nonzero"/><clipPath id="id_0"><path d="M101.55 86.28333L581.45 86.28333L581.45 300.45L101.55 300.45L101.55 86.28333Z" clip-rule="nonzero"/></clipPath><path stroke="#4285f4" stroke-width="2.0" stroke-linecap="butt" clip-path="url(#id_0)" d="M101.55 295.8604L138.46538 293.35464L175.38077 287.89554L212.29616 295.69763L249.21153 293.19403L286.12692 284.97647L323.0423 272.71542L359.9577 246.05167L396.87308 246.69417L433.78845 246.05167L470.70386 246.26584L507.61923 254.61833L544.5346 255.475L581.45 254.8325" fill-rule="nonzero"/><path stroke="#ea4335" stroke-width="2.0" stroke-linecap="butt" clip-path="url(#id_0)" d="M101.55 295.87326L138.46538 293.36536L175.38077 287.8677L212.29616 295.59055L249.21153 293.08694L286.12692 284.9229L323.0423 272.60834L359.9577 246.26584L396.87308 197.22166L433.78845 197.43584L470.70386 197.0075L507.61923 215.85417L544.5346 214.56917L581.45 215.21167" fill-rule="nonzero"/><path stroke="#fbbc04" stroke-width="2.0" stroke-linecap="butt" clip-path="url(#id_0)" d="M101.55 295.8647L138.46538 293.3782L175.38077 287.96194L212.29616 295.73834L249.21153 293.16833L286.12692 285.03L323.0423 272.28708L359.9577 246.90834L396.87308 197.43584L433.78845 99.56167L470.70386 99.3475L507.61923 135.11333L544.5346 135.11333L581.45 135.54167" fill-rule="nonzero"/><path stroke="#34a853" stroke-width="2.0" stroke-linecap="butt" clip-path="url(#id_0)" d="M101.55 295.87112L138.46538 293.38892L175.38077 287.94052L212.29616 295.73834L249.21153 293.30112L286.12692 284.81583L323.0423 272.8225L359.9577 246.05167L396.87308 197.0075L433.78845 99.56167" fill-rule="nonzero"/><path fill="#000000" fill-opacity="0.0" clip-path="url(#id_0)" d="M104.55 295.8604C104.55 297.51727 103.206856 298.8604 101.55 298.8604C99.89314 298.8604 98.55 297.51727 98.55 295.8604C98.55 294.20355 99.89314 292.8604 101.55 292.8604C103.206856 292.8604 104.55 294.20355 104.55 295.8604Z" fill-rule="nonzero"/><path fill="#000000" fill-opacity="0.0" clip-path="url(#id_0)" d="M141.46538 293.35464C141.46538 295.0115 140.12224 296.35464 138.46538 296.35464C136.80853 296.35464 135.46538 295.0115 135.46538 293.35464C135.46538 291.6978 136.80853 290.35464 138.46538 290.35464C140.12224 290.35464 141.46538 291.6978 141.46538 293.35464Z" fill-rule="nonzero"/><path fill="#000000" fill-opacity="0.0" clip-path="url(#id_0)" d="M178.38077 287.89554C178.38077 289.5524 177.03763 290.89554 175.38077 290.89554C173.7239 290.89554 172.38077 289.5524 172.38077 287.89554C172.38077 286.2387 173.7239 284.89554 175.38077 284.89554C177.03763 284.89554 178.38077 286.2387 178.38077 287.89554Z" fill-rule="nonzero"/><path fill="#000000" fill-opacity="0.0" clip-path="url(#id_0)" d="M215.29616 295.69763C215.29616 297.3545 213.953 298.69763 212.29616 298.69763C210.6393 298.69763 209.29616 297.3545 209.29616 295.69763C209.29616 294.0408 210.6393 292.69763 212.29616 292.69763C213.953 292.69763 215.29616 294.0408 215.29616 295.69763Z" fill-rule="nonzero"/><path fill="#000000" fill-opacity="0.0" clip-path="url(#id_0)" d="M252.21153 293.19403C252.21153 294.8509 250.8684 296.19403 249.21153 296.19403C247.55469 296.19403 246.21153 294.8509 246.21153 293.19403C246.21153 291.53717 247.55469 290.19403 249.21153 290.19403C250.8684 290.19403 252.21153 291.53717 252.21153 293.19403Z" fill-rule="nonzero"/><path fill="#000000" fill-opacity="0.0" clip-path="url(#id_0)" d="M289.12692 284.97647C289.12692 286.6333 287.78378 287.97647 286.12692 287.97647C284.47006 287.97647 283.12692 286.6333 283.12692 284.97647C283.12692 283.3196 284.47006 281.97647 286.12692 281.97647C287.78378 281.97647 289.12692 283.3196 289.12692 284.97647Z" fill-rule="nonzero"/><path fill="#000000" fill-opacity="0.0" clip-path="url(#id_0)" d="M326.0423 272.71542C326.0423 274.37228 324.69916 275.71542 323.0423 275.71542C321.38547 275.71542 320.0423 274.37228 320.0423 272.71542C320.0423 271.05856 321.38547 269.71542 323.0423 269.71542C324.69916 269.71542 326.0423 271.05856 326.0423 272.71542Z" fill-rule="nonzero"/><path fill="#000000" fill-opacity="0.0" clip-path="url(#id_0)" d="M362.9577 246.05167C362.9577 247.70853 361.61453 249.05167 359.9577 249.05167C358.30084 249.05167 356.9577 247.70853 356.9577 246.05167C356.9577 244.3948 358.30084 243.05167 359.9577 243.05167C361.61453 243.05167 362.9577 244.3948 362.9577 246.05167Z" fill-rule="nonzero"/><path fill="#000000" fill-opacity="0.0" clip-path="url(#id_0)" d="M399.87308 246.69417C399.87308 248.35103 398.52994 249.69417 396.87308 249.69417C395.21622 249.69417 393.87308 248.35103 393.87308 246.69417C393.87308 245.03731 395.21622 243.69417 396.87308 243.69417C398.52994 243.69417 399.87308 245.03731 399.87308 246.69417Z" fill-rule="nonzero"/><path fill="#000000" fill-opacity="0.0" clip-path="url(#id_0)" d="M436.78845 246.05167C436.78845 247.70853 435.4453 249.05167 433.78845 249.05167C432.13162 249.05167 430.78845 247.70853 430.78845 246.05167C430.78845 244.3948 432.13162 243.05167 433.78845 243.05167C435.4453 243.05167 436.78845 244.3948 436.78845 246.05167Z" fill-rule="nonzero"/><path fill="#000000" fill-opacity="0.0" clip-path="url(#id_0)" d="M473.70386 246.26584C473.70386 247.92268 472.3607 249.26584 470.70386 249.26584C469.047 249.26584 467.70386 247.92268 467.70386 246.26584C467.70386 244.60898 469.047 243.26584 470.70386 243.26584C472.3607 243.26584 473.70386 244.60898 473.70386 246.26584Z" fill-rule="nonzero"/><path fill="#000000" fill-opacity="0.0" clip-path="url(#id_0)" d="M510.61923 254.61833C510.61923 256.27518 509.2761 257.61835 507.61923 257.61835C505.96237 257.61835 504.61923 256.27518 504.61923 254.61833C504.61923 252.96147 505.96237 251.61833 507.61923 251.61833C509.2761 251.61833 510.61923 252.96147 510.61923 254.61833Z" fill-rule="nonzero"/><path fill="#000000" fill-opacity="0.0" clip-path="url(#id_0)" d="M547.5346 255.475C547.5346 257.13187 546.19147 258.475 544.5346 258.475C542.87775 258.475 541.5346 257.13187 541.5346 255.475C541.5346 253.81815 542.87775 252.475 544.5346 252.475C546.19147 252.475 547.5346 253.81815 547.5346 255.475Z" fill-rule="nonzero"/><path fill="#000000" fill-opacity="0.0" clip-path="url(#id_0)" d="M584.45 254.8325C584.45 256.48935 583.1069 257.8325 581.45 257.8325C579.79315 257.8325 578.45 256.48935 578.45 254.8325C578.45 253.17564 579.79315 251.8325 581.45 251.8325C583.1069 251.8325 584.45 253.17564 584.45 254.8325Z" fill-rule="nonzero"/><path fill="#000000" fill-opacity="0.0" clip-path="url(#id_0)" d="M104.55 295.87326C104.55 297.53012 103.206856 298.87326 101.55 298.87326C99.89314 298.87326 98.55 297.53012 98.55 295.87326C98.55 294.2164 99.89314 292.87326 101.55 292.87326C103.206856 292.87326 104.55 294.2164 104.55 295.87326Z" fill-rule="nonzero"/><path fill="#000000" fill-opacity="0.0" clip-path="url(#id_0)" d="M141.46538 293.36536C141.46538 295.02222 140.12224 296.36536 138.46538 296.36536C136.80853 296.36536 135.46538 295.02222 135.46538 293.36536C135.46538 291.70853 136.80853 290.36536 138.46538 290.36536C140.12224 290.36536 141.46538 291.70853 141.46538 293.36536Z" fill-rule="nonzero"/><path fill="#000000" fill-opacity="0.0" clip-path="url(#id_0)" d="M178.38077 287.8677C178.38077 289.52457 177.03763 290.8677 175.38077 290.8677C173.7239 290.8677 172.38077 289.52457 172.38077 287.8677C172.38077 286.21085 173.7239 284.8677 175.38077 284.8677C177.03763 284.8677 178.38077 286.21085 178.38077 287.8677Z" fill-rule="nonzero"/><path fill="#000000" fill-opacity="0.0" clip-path="url(#id_0)" d="M215.29616 295.59055C215.29616 297.2474 213.953 298.59055 212.29616 298.59055C210.6393 298.59055 209.29616 297.2474 209.29616 295.59055C209.29616 293.93372 210.6393 292.59055 212.29616 292.59055C213.953 292.59055 215.29616 293.93372 215.29616 295.59055Z" fill-rule="nonzero"/><path fill="#000000" fill-opacity="0.0" clip-path="url(#id_0)" d="M252.21153 293.08694C252.21153 294.7438 250.8684 296.08694 249.21153 296.08694C247.55469 296.08694 246.21153 294.7438 246.21153 293.08694C246.21153 291.43008 247.55469 290.08694 249.21153 290.08694C250.8684 290.08694 252.21153 291.43008 252.21153 293.08694Z" fill-rule="nonzero"/><path fill="#000000" fill-opacity="0.0" clip-path="url(#id_0)" d="M289.12692 284.9229C289.12692 286.57977 287.78378 287.9229 286.12692 287.9229C284.47006 287.9229 283.12692 286.57977 283.12692 284.9229C283.12692 283.26605 284.47006 281.9229 286.12692 281.9229C287.78378 281.9229 289.12692 283.26605 289.12692 284.9229Z" fill-rule="nonzero"/><path fill="#000000" fill-opacity="0.0" clip-path="url(#id_0)" d="M326.0423 272.60834C326.0423 274.2652 324.69916 275.60834 323.0423 275.60834C321.38547 275.60834 320.0423 274.2652 320.0423 272.60834C320.0423 270.95148 321.38547 269.60834 323.0423 269.60834C324.69916 269.60834 326.0423 270.95148 326.0423 272.60834Z" fill-rule="nonzero"/><path fill="#000000" fill-opacity="0.0" clip-path="url(#id_0)" d="M362.9577 246.26584C362.9577 247.92268 361.61453 249.26584 359.9577 249.26584C358.30084 249.26584 356.9577 247.92268 356.9577 246.26584C356.9577 244.60898 358.30084 243.26584 359.9577 243.26584C361.61453 243.26584 362.9577 244.60898 362.9577 246.26584Z" fill-rule="nonzero"/><path fill="#000000" fill-opacity="0.0" clip-path="url(#id_0)" d="M399.87308 197.22166C399.87308 198.87852 398.52994 200.22166 396.87308 200.22166C395.21622 200.22166 393.87308 198.87852 393.87308 197.22166C393.87308 195.56482 395.21622 194.22166 396.87308 194.22166C398.52994 194.22166 399.87308 195.56482 399.87308 197.22166Z" fill-rule="nonzero"/><path fill="#000000" fill-opacity="0.0" clip-path="url(#id_0)" d="M436.78845 197.43584C436.78845 199.09268 435.4453 200.43584 433.78845 200.43584C432.13162 200.43584 430.78845 199.09268 430.78845 197.43584C430.78845 195.77898 432.13162 194.43584 433.78845 194.43584C435.4453 194.43584 436.78845 195.77898 436.78845 197.43584Z" fill-rule="nonzero"/><path fill="#000000" fill-opacity="0.0" clip-path="url(#id_0)" d="M473.70386 197.0075C473.70386 198.66435 472.3607 200.0075 470.70386 200.0075C469.047 200.0075 467.70386 198.66435 467.70386 197.0075C467.70386 195.35065 469.047 194.0075 470.70386 194.0075C472.3607 194.0075 473.70386 195.35065 473.70386 197.0075Z" fill-rule="nonzero"/><path fill="#000000" fill-opacity="0.0" clip-path="url(#id_0)" d="M510.61923 215.85417C510.61923 217.51102 509.2761 218.85417 507.61923 218.85417C505.96237 218.85417 504.61923 217.51102 504.61923 215.85417C504.61923 214.19731 505.96237 212.85417 507.61923 212.85417C509.2761 212.85417 510.61923 214.19731 510.61923 215.85417Z" fill-rule="nonzero"/><path fill="#000000" fill-opacity="0.0" clip-path="url(#id_0)" d="M547.5346 214.56917C547.5346 216.22603 546.19147 217.56917 544.5346 217.56917C542.87775 217.56917 541.5346 216.22603 541.5346 214.56917C541.5346 212.91231 542.87775 211.56917 544.5346 211.56917C546.19147 211.56917 547.5346 212.91231 547.5346 214.56917Z" fill-rule="nonzero"/><path fill="#000000" fill-opacity="0.0" clip-path="url(#id_0)" d="M584.45 215.21167C584.45 216.86852 583.1069 218.21167 581.45 218.21167C579.79315 218.21167 578.45 216.86852 578.45 215.21167C578.45 213.55481 579.79315 212.21167 581.45 212.21167C583.1069 212.21167 584.45 213.55481 584.45 215.21167Z" fill-rule="nonzero"/><path fill="#000000" fill-opacity="0.0" clip-path="url(#id_0)" d="M104.55 295.8647C104.55 297.52155 103.206856 298.8647 101.55 298.8647C99.89314 298.8647 98.55 297.52155 98.55 295.8647C98.55 294.20782 99.89314 292.8647 101.55 292.8647C103.206856 292.8647 104.55 294.20782 104.55 295.8647Z" fill-rule="nonzero"/><path fill="#000000" fill-opacity="0.0" clip-path="url(#id_0)" d="M141.46538 293.3782C141.46538 295.03506 140.12224 296.3782 138.46538 296.3782C136.80853 296.3782 135.46538 295.03506 135.46538 293.3782C135.46538 291.72137 136.80853 290.3782 138.46538 290.3782C140.12224 290.3782 141.46538 291.72137 141.46538 293.3782Z" fill-rule="nonzero"/><path fill="#000000" fill-opacity="0.0" clip-path="url(#id_0)" d="M178.38077 287.96194C178.38077 289.6188 177.03763 290.96194 175.38077 290.96194C173.7239 290.96194 172.38077 289.6188 172.38077 287.96194C172.38077 286.30508 173.7239 284.96194 175.38077 284.96194C177.03763 284.96194 178.38077 286.30508 178.38077 287.96194Z" fill-rule="nonzero"/><path fill="#000000" fill-opacity="0.0" clip-path="url(#id_0)" d="M215.29616 295.73834C215.29616 297.3952 213.953 298.73834 212.29616 298.73834C210.6393 298.73834 209.29616 297.3952 209.29616 295.73834C209.29616 294.08148 210.6393 292.73834 212.29616 292.73834C213.953 292.73834 215.29616 294.08148 215.29616 295.73834Z" fill-rule="nonzero"/><path fill="#000000" fill-opacity="0.0" clip-path="url(#id_0)" d="M252.21153 293.16833C252.21153 294.8252 250.8684 296.16833 249.21153 296.16833C247.55469 296.16833 246.21153 294.8252 246.21153 293.16833C246.21153 291.51147 247.55469 290.16833 249.21153 290.16833C250.8684 290.16833 252.21153 291.51147 252.21153 293.16833Z" fill-rule="nonzero"/><path fill="#000000" fill-opacity="0.0" clip-path="url(#id_0)" d="M289.12692 285.03C289.12692 286.68686 287.78378 288.03 286.12692 288.03C284.47006 288.03 283.12692 286.68686 283.12692 285.03C283.12692 283.37314 284.47006 282.03 286.12692 282.03C287.78378 282.03 289.12692 283.37314 289.12692 285.03Z" fill-rule="nonzero"/><path fill="#000000" fill-opacity="0.0" clip-path="url(#id_0)" d="M326.0423 272.28708C326.0423 273.94394 324.69916 275.28708 323.0423 275.28708C321.38547 275.28708 320.0423 273.94394 320.0423 272.28708C320.0423 270.63022 321.38547 269.28708 323.0423 269.28708C324.69916 269.28708 326.0423 270.63022 326.0423 272.28708Z" fill-rule="nonzero"/><path fill="#000000" fill-opacity="0.0" clip-path="url(#id_0)" d="M362.9577 246.90834C362.9577 248.56519 361.61453 249.90834 359.9577 249.90834C358.30084 249.90834 356.9577 248.56519 356.9577 246.90834C356.9577 245.25148 358.30084 243.90834 359.9577 243.90834C361.61453 243.90834 362.9577 245.25148 362.9577 246.90834Z" fill-rule="nonzero"/><path fill="#000000" fill-opacity="0.0" clip-path="url(#id_0)" d="M399.87308 197.43584C399.87308 199.09268 398.52994 200.43584 396.87308 200.43584C395.21622 200.43584 393.87308 199.09268 393.87308 197.43584C393.87308 195.77898 395.21622 194.43584 396.87308 194.43584C398.52994 194.43584 399.87308 195.77898 399.87308 197.43584Z" fill-rule="nonzero"/><path fill="#000000" fill-opacity="0.0" clip-path="url(#id_0)" d="M436.78845 99.56167C436.78845 101.21852 435.4453 102.56167 433.78845 102.56167C432.13162 102.56167 430.78845 101.21852 430.78845 99.56167C430.78845 97.904816 432.13162 96.56167 433.78845 96.56167C435.4453 96.56167 436.78845 97.904816 436.78845 99.56167Z" fill-rule="nonzero"/><path fill="#000000" fill-opacity="0.0" clip-path="url(#id_0)" d="M473.70386 99.3475C473.70386 101.00436 472.3607 102.3475 470.70386 102.3475C469.047 102.3475 467.70386 101.00436 467.70386 99.3475C467.70386 97.69064 469.047 96.3475 470.70386 96.3475C472.3607 96.3475 473.70386 97.69064 473.70386 99.3475Z" fill-rule="nonzero"/><path fill="#000000" fill-opacity="0.0" clip-path="url(#id_0)" d="M510.61923 135.11333C510.61923 136.77019 509.2761 138.11333 507.61923 138.11333C505.96237 138.11333 504.61923 136.77019 504.61923 135.11333C504.61923 133.45648 505.96237 132.11333 507.61923 132.11333C509.2761 132.11333 510.61923 133.45648 510.61923 135.11333Z" fill-rule="nonzero"/><path fill="#000000" fill-opacity="0.0" clip-path="url(#id_0)" d="M547.5346 135.11333C547.5346 136.77019 546.19147 138.11333 544.5346 138.11333C542.87775 138.11333 541.5346 136.77019 541.5346 135.11333C541.5346 133.45648 542.87775 132.11333 544.5346 132.11333C546.19147 132.11333 547.5346 133.45648 547.5346 135.11333Z" fill-rule="nonzero"/><path fill="#000000" fill-opacity="0.0" clip-path="url(#id_0)" d="M584.45 135.54167C584.45 137.19852 583.1069 138.54167 581.45 138.54167C579.79315 138.54167 578.45 137.19852 578.45 135.54167C578.45 133.88481 579.79315 132.54167 581.45 132.54167C583.1069 132.54167 584.45 133.88481 584.45 135.54167Z" fill-rule="nonzero"/><path fill="#000000" fill-opacity="0.0" clip-path="url(#id_0)" d="M104.55 295.87112C104.55 297.52798 103.206856 298.87112 101.55 298.87112C99.89314 298.87112 98.55 297.52798 98.55 295.87112C98.55 294.21426 99.89314 292.87112 101.55 292.87112C103.206856 292.87112 104.55 294.21426 104.55 295.87112Z" fill-rule="nonzero"/><path fill="#000000" fill-opacity="0.0" clip-path="url(#id_0)" d="M141.46538 293.38892C141.46538 295.04578 140.12224 296.38892 138.46538 296.38892C136.80853 296.38892 135.46538 295.04578 135.46538 293.38892C135.46538 291.73206 136.80853 290.38892 138.46538 290.38892C140.12224 290.38892 141.46538 291.73206 141.46538 293.38892Z" fill-rule="nonzero"/><path fill="#000000" fill-opacity="0.0" clip-path="url(#id_0)" d="M178.38077 287.94052C178.38077 289.59738 177.03763 290.94052 175.38077 290.94052C173.7239 290.94052 172.38077 289.59738 172.38077 287.94052C172.38077 286.28366 173.7239 284.94052 175.38077 284.94052C177.03763 284.94052 178.38077 286.28366 178.38077 287.94052Z" fill-rule="nonzero"/><path fill="#000000" fill-opacity="0.0" clip-path="url(#id_0)" d="M215.29616 295.73834C215.29616 297.3952 213.953 298.73834 212.29616 298.73834C210.6393 298.73834 209.29616 297.3952 209.29616 295.73834C209.29616 294.08148 210.6393 292.73834 212.29616 292.73834C213.953 292.73834 215.29616 294.08148 215.29616 295.73834Z" fill-rule="nonzero"/><path fill="#000000" fill-opacity="0.0" clip-path="url(#id_0)" d="M252.21153 293.30112C252.21153 294.95798 250.8684 296.30112 249.21153 296.30112C247.55469 296.30112 246.21153 294.95798 246.21153 293.30112C246.21153 291.64426 247.55469 290.30112 249.21153 290.30112C250.8684 290.30112 252.21153 291.64426 252.21153 293.30112Z" fill-rule="nonzero"/><path fill="#000000" fill-opacity="0.0" clip-path="url(#id_0)" d="M289.12692 284.81583C289.12692 286.4727 287.78378 287.81583 286.12692 287.81583C284.47006 287.81583 283.12692 286.4727 283.12692 284.81583C283.12692 283.15897 284.47006 281.81583 286.12692 281.81583C287.78378 281.81583 289.12692 283.15897 289.12692 284.81583Z" fill-rule="nonzero"/><path fill="#000000" fill-opacity="0.0" clip-path="url(#id_0)" d="M326.0423 272.8225C326.0423 274.47934 324.69916 275.8225 323.0423 275.8225C321.38547 275.8225 320.0423 274.47934 320.0423 272.8225C320.0423 271.16565 321.38547 269.8225 323.0423 269.8225C324.69916 269.8225 326.0423 271.16565 326.0423 272.8225Z" fill-rule="nonzero"/><path fill="#000000" fill-opacity="0.0" clip-path="url(#id_0)" d="M362.9577 246.05167C362.9577 247.70853 361.61453 249.05167 359.9577 249.05167C358.30084 249.05167 356.9577 247.70853 356.9577 246.05167C356.9577 244.3948 358.30084 243.05167 359.9577 243.05167C361.61453 243.05167 362.9577 244.3948 362.9577 246.05167Z" fill-rule="nonzero"/><path fill="#000000" fill-opacity="0.0" clip-path="url(#id_0)" d="M399.87308 197.0075C399.87308 198.66435 398.52994 200.0075 396.87308 200.0075C395.21622 200.0075 393.87308 198.66435 393.87308 197.0075C393.87308 195.35065 395.21622 194.0075 396.87308 194.0075C398.52994 194.0075 399.87308 195.35065 399.87308 197.0075Z" fill-rule="nonzero"/><path fill="#000000" fill-opacity="0.0" clip-path="url(#id_0)" d="M436.78845 99.56167C436.78845 101.21852 435.4453 102.56167 433.78845 102.56167C432.13162 102.56167 430.78845 101.21852 430.78845 99.56167C430.78845 97.904816 432.13162 96.56167 433.78845 96.56167C435.4453 96.56167 436.78845 97.904816 436.78845 99.56167Z" fill-rule="nonzero"/><path fill="#000000" d="M294.875 349.45L294.875 340.85626L298.10938 340.85626Q299.09375 340.85626 299.6875 341.1219Q300.28125 341.3875 300.60938 341.9344Q300.95312 342.46564 300.95312 343.0594Q300.95312 343.60626 300.65625 344.09064Q300.35938 344.575 299.75 344.8719Q300.53125 345.10626 300.9375 345.66876Q301.35938 346.21564 301.35938 346.96564Q301.35938 347.5594 301.10938 348.09064Q300.85938 348.60626 300.48438 348.8875Q300.10938 349.16876 299.53125 349.3094Q298.96875 349.45 298.15625 349.45L294.875 349.45ZM296.01562 344.46564L297.875 344.46564Q298.625 344.46564 298.95312 344.3719Q299.39062 344.2469 299.60938 343.95Q299.82812 343.6375 299.82812 343.1844Q299.82812 342.7625 299.625 342.4344Q299.42188 342.10626 299.03125 341.9969Q298.65625 341.8719 297.73438 341.8719L296.01562 341.8719L296.01562 344.46564ZM296.01562 348.4344L298.15625 348.4344Q298.70312 348.4344 298.92188 348.3875Q299.32812 348.325 299.57812 348.16876Q299.84375 347.9969 300.01562 347.6844Q300.1875 347.3719 300.1875 346.96564Q300.1875 346.48126 299.9375 346.1219Q299.70312 345.7625 299.26562 345.6219Q298.82812 345.48126 298.0 345.48126L296.01562 345.48126L296.01562 348.4344ZM302.76562 349.45L302.76562 340.85626L303.82812 340.85626L303.82812 349.45L302.76562 349.45ZM305.40625 346.34064Q305.40625 344.60626 306.35938 343.77814Q307.15625 343.09064 308.3125 343.09064Q309.59375 343.09064 310.40625 343.9344Q311.23438 344.7625 311.23438 346.2469Q311.23438 347.45 310.875 348.1375Q310.51562 348.825 309.8125 349.21564Q309.125 349.59064 308.3125 349.59064Q307.01562 349.59064 306.20312 348.7625Q305.40625 347.91876 305.40625 346.34064ZM306.48438 346.34064Q306.48438 347.52814 307.0 348.1219Q307.53125 348.71564 308.3125 348.71564Q309.10938 348.71564 309.625 348.1219Q310.14062 347.52814 310.14062 346.3094Q310.14062 345.15314 309.60938 344.5594Q309.09375 343.96564 308.3125 343.96564Q307.53125 343.96564 307.0 344.5594Q306.48438 345.1375 306.48438 346.34064ZM316.85938 347.16876L317.89062 347.3094Q317.71875 348.3719 317.01562 348.98126Q316.3125 349.59064 315.29688 349.59064Q314.01562 349.59064 313.23438 348.7625Q312.46875 347.91876 312.46875 346.35626Q312.46875 345.35626 312.79688 344.60626Q313.14062 343.84064 313.8125 343.46564Q314.5 343.09064 315.3125 343.09064Q316.3125 343.09064 316.95312 343.60626Q317.60938 344.10626 317.79688 345.0594L316.76562 345.21564Q316.625 344.59064 316.25 344.27814Q315.875 343.95 315.34375 343.95Q314.54688 343.95 314.04688 344.52814Q313.54688 345.09064 313.54688 346.325Q313.54688 347.59064 314.03125 348.15314Q314.51562 348.71564 315.28125 348.71564Q315.90625 348.71564 316.3125 348.34064Q316.73438 347.96564 316.85938 347.16876ZM318.79688 349.45L318.79688 340.85626L319.85938 340.85626L319.85938 345.7625L322.34375 343.23126L323.71875 343.23126L321.32812 345.52814L323.95312 349.45L322.65625 349.45L320.59375 346.2625L319.85938 346.98126L319.85938 349.45L318.79688 349.45ZM327.375 347.59064L328.40625 347.4344Q328.5 348.0594 328.89062 348.3875Q329.29688 348.71564 330.03125 348.71564Q330.75 348.71564 331.09375 348.4344Q331.45312 348.1375 331.45312 347.73126Q331.45312 347.3719 331.14062 347.16876Q330.92188 347.02814 330.0625 346.8094Q328.90625 346.5125 328.45312 346.3094Q328.01562 346.09064 327.78125 345.71564Q327.54688 345.34064 327.54688 344.8719Q327.54688 344.46564 327.73438 344.10626Q327.92188 343.7469 328.25 343.5125Q328.5 343.34064 328.92188 343.21564Q329.34375 343.09064 329.84375 343.09064Q330.5625 343.09064 331.10938 343.3094Q331.67188 343.5125 331.9375 343.8719Q332.20312 344.23126 332.29688 344.825L331.26562 344.96564Q331.20312 344.4969 330.85938 344.23126Q330.53125 343.95 329.90625 343.95Q329.1875 343.95 328.875 344.2Q328.5625 344.4344 328.5625 344.7625Q328.5625 344.96564 328.6875 345.1219Q328.82812 345.29376 329.09375 345.40314Q329.25 345.46564 330.03125 345.66876Q331.15625 345.98126 331.59375 346.16876Q332.03125 346.35626 332.28125 346.71564Q332.53125 347.075 332.53125 347.6219Q332.53125 348.15314 332.21875 348.6219Q331.92188 349.075 331.34375 349.34064Q330.76562 349.59064 330.03125 349.59064Q328.8125 349.59064 328.17188 349.09064Q327.54688 348.575 327.375 347.59064ZM334.79688 342.075L334.79688 340.85626L335.85938 340.85626L335.85938 342.075L334.79688 342.075ZM334.79688 349.45L334.79688 343.23126L335.85938 343.23126L335.85938 349.45L334.79688 349.45ZM337.23438 349.45L337.23438 348.59064L341.20312 344.04376Q340.51562 344.075 340.0 344.075L337.46875 344.075L337.46875 343.23126L342.5625 343.23126L342.5625 343.91876L339.1875 347.8719L338.53125 348.59064Q339.25 348.54376 339.85938 348.54376L342.75 348.54376L342.75 349.45L337.23438 349.45ZM347.04688 347.45L348.14062 347.575Q347.89062 348.52814 347.1875 349.0594Q346.48438 349.59064 345.40625 349.59064Q344.04688 349.59064 343.23438 348.7469Q342.4375 347.90314 342.4375 346.3875Q342.4375 344.825 343.25 343.96564Q344.0625 343.09064 345.34375 343.09064Q346.59375 343.09064 347.375 343.9344Q348.17188 344.77814 348.17188 346.325Q348.17188 346.41876 348.17188 346.60626L343.53125 346.60626Q343.59375 347.6375 344.10938 348.1844Q344.625 348.71564 345.40625 348.71564Q345.98438 348.71564 346.39062 348.41876Q346.8125 348.10626 347.04688 347.45ZM343.59375 345.7469L347.0625 345.7469Q347.0 344.95 346.67188 344.5594Q346.15625 343.95 345.35938 343.95Q344.625 343.95 344.125 344.4344Q343.64062 344.91876 343.59375 345.7469ZM354.8125 351.98126Q353.9375 350.8719 353.32812 349.40314Q352.73438 347.91876 352.73438 346.34064Q352.73438 344.95 353.17188 343.66876Q353.70312 342.1844 354.8125 340.71564L355.5625 340.71564Q354.85938 341.9344 354.625 342.45Q354.26562 343.2625 354.0625 344.1375Q353.8125 345.23126 353.8125 346.34064Q353.8125 349.16876 355.5625 351.98126L354.8125 351.98126ZM357.76562 349.45L356.78125 349.45L356.78125 340.85626L357.84375 340.85626L357.84375 343.91876Q358.51562 343.09064 359.54688 343.09064Q360.125 343.09064 360.625 343.325Q361.14062 343.54376 361.46875 343.96564Q361.8125 344.3875 362.0 344.98126Q362.1875 345.575 362.1875 346.2469Q362.1875 347.84064 361.39062 348.71564Q360.59375 349.59064 359.5 349.59064Q358.39062 349.59064 357.76562 348.66876L357.76562 349.45ZM357.75 346.29376Q357.75 347.40314 358.0625 347.90314Q358.5625 348.71564 359.40625 348.71564Q360.09375 348.71564 360.59375 348.1219Q361.10938 347.52814 361.10938 346.325Q361.10938 345.10626 360.625 344.52814Q360.14062 343.95 359.45312 343.95Q358.76562 343.95 358.25 344.5594Q357.75 345.15314 357.75 346.29376ZM363.75 351.84064L363.625 350.85626Q363.96875 350.95 364.23438 350.95Q364.57812 350.95 364.78125 350.825Q365.0 350.71564 365.14062 350.5125Q365.23438 350.34064 365.46875 349.71564Q365.48438 349.6375 365.5625 349.46564L363.1875 343.23126L364.32812 343.23126L365.625 346.825Q365.875 347.5125 366.07812 348.27814Q366.26562 347.54376 366.51562 346.85626L367.84375 343.23126L368.89062 343.23126L366.53125 349.5594Q366.14062 350.575 365.9375 350.96564Q365.65625 351.4969 365.28125 351.73126Q364.92188 351.98126 364.42188 351.98126Q364.125 351.98126 363.75 351.84064ZM371.09375 348.5125L371.25 349.4344Q370.79688 349.52814 370.45312 349.52814Q369.875 349.52814 369.5625 349.35626Q369.25 349.16876 369.10938 348.8719Q368.98438 348.575 368.98438 347.6219L368.98438 344.04376L368.21875 344.04376L368.21875 343.23126L368.98438 343.23126L368.98438 341.6844L370.03125 341.0594L370.03125 343.23126L371.09375 343.23126L371.09375 344.04376L370.03125 344.04376L370.03125 347.6844Q370.03125 348.1375 370.07812 348.2625Q370.14062 348.3875 370.26562 348.46564Q370.39062 348.54376 370.625 348.54376Q370.8125 348.54376 371.09375 348.5125ZM376.04688 347.45L377.14062 347.575Q376.89062 348.52814 376.1875 349.0594Q375.48438 349.59064 374.40625 349.59064Q373.04688 349.59064 372.23438 348.7469Q371.4375 347.90314 371.4375 346.3875Q371.4375 344.825 372.25 343.96564Q373.0625 343.09064 374.34375 343.09064Q375.59375 343.09064 376.375 343.9344Q377.17188 344.77814 377.17188 346.325Q377.17188 346.41876 377.17188 346.60626L372.53125 346.60626Q372.59375 347.6375 373.10938 348.1844Q373.625 348.71564 374.40625 348.71564Q374.98438 348.71564 375.39062 348.41876Q375.8125 348.10626 376.04688 347.45ZM372.59375 345.7469L376.0625 345.7469Q376.0 344.95 375.67188 344.5594Q375.15625 343.95 374.35938 343.95Q373.625 343.95 373.125 344.4344Q372.64062 344.91876 372.59375 345.7469ZM378.375 347.59064L379.40625 347.4344Q379.5 348.0594 379.89062 348.3875Q380.29688 348.71564 381.03125 348.71564Q381.75 348.71564 382.09375 348.4344Q382.45312 348.1375 382.45312 347.73126Q382.45312 347.3719 382.14062 347.16876Q381.92188 347.02814 381.0625 346.8094Q379.90625 346.5125 379.45312 346.3094Q379.01562 346.09064 378.78125 345.71564Q378.54688 345.34064 378.54688 344.8719Q378.54688 344.46564 378.73438 344.10626Q378.92188 343.7469 379.25 343.5125Q379.5 343.34064 379.92188 343.21564Q380.34375 343.09064 380.84375 343.09064Q381.5625 343.09064 382.10938 343.3094Q382.67188 343.5125 382.9375 343.8719Q383.20312 344.23126 383.29688 344.825L382.26562 344.96564Q382.20312 344.4969 381.85938 344.23126Q381.53125 343.95 380.90625 343.95Q380.1875 343.95 379.875 344.2Q379.5625 344.4344 379.5625 344.7625Q379.5625 344.96564 379.6875 345.1219Q379.82812 345.29376 380.09375 345.40314Q380.25 345.46564 381.03125 345.66876Q382.15625 345.98126 382.59375 346.16876Q383.03125 346.35626 383.28125 346.71564Q383.53125 347.075 383.53125 347.6219Q383.53125 348.15314 383.21875 348.6219Q382.92188 349.075 382.34375 349.34064Q381.76562 349.59064 381.03125 349.59064Q379.8125 349.59064 379.17188 349.09064Q378.54688 348.575 378.375 347.59064ZM386.48438 351.98126L385.73438 351.98126Q387.48438 349.16876 387.48438 346.34064Q387.48438 345.2469 387.23438 344.15314Q387.03125 343.27814 386.67188 342.46564Q386.4375 341.95 385.73438 340.71564L386.48438 340.71564Q387.57812 342.1844 388.10938 343.66876Q388.5625 344.95 388.5625 346.34064Q388.5625 347.91876 387.95312 349.40314Q387.34375 350.8719 386.48438 351.98126Z" fill-rule="nonzero"/><path fill="#000000" d="M29.550013 280.74167L20.956263 280.74167L20.956263 279.61667L29.550013 279.61667L29.550013 280.74167ZM29.550013 278.0698L23.331263 278.0698L23.331263 277.1323L24.206263 277.1323Q23.190638 276.4448 23.190638 275.14792Q23.190638 274.58542 23.393763 274.11667Q23.596888 273.6323 23.925013 273.39792Q24.253138 273.16354 24.690638 273.0698Q24.987513 273.02292 25.721888 273.02292L29.550013 273.02292L29.550013 274.0698L25.768763 274.0698Q25.112513 274.0698 24.800013 274.1948Q24.487513 274.3198 24.300013 274.6323Q24.096888 274.9448 24.096888 275.36667Q24.096888 276.03854 24.534388 276.53854Q24.956263 277.02292 26.143763 277.02292L29.550013 277.02292L29.550013 278.0698ZM27.690638 271.49167L27.534388 270.46042Q28.159388 270.36667 28.487513 269.97604Q28.815638 269.5698 28.815638 268.83542Q28.815638 268.11667 28.534388 267.77292Q28.237513 267.41354 27.831263 267.41354Q27.471888 267.41354 27.268763 267.72604Q27.128138 267.9448 26.909388 268.80417Q26.612513 269.96042 26.409388 270.41354Q26.190638 270.85104 25.815638 271.08542Q25.440638 271.3198 24.971888 271.3198Q24.565638 271.3198 24.206263 271.1323Q23.846888 270.9448 23.612513 270.61667Q23.440638 270.36667 23.315638 269.9448Q23.190638 269.52292 23.190638 269.02292Q23.190638 268.30417 23.409388 267.7573Q23.612513 267.1948 23.971888 266.92917Q24.331263 266.66354 24.925013 266.5698L25.065638 267.60104Q24.596888 267.66354 24.331263 268.0073Q24.050013 268.33542 24.050013 268.96042Q24.050013 269.67917 24.300013 269.99167Q24.534388 270.30417 24.862513 270.30417Q25.065638 270.30417 25.221888 270.17917Q25.393763 270.03854 25.503138 269.77292Q25.565638 269.61667 25.768763 268.83542Q26.081263 267.71042 26.268763 267.27292Q26.456263 266.83542 26.815638 266.58542Q27.175013 266.33542 27.721888 266.33542Q28.253138 266.33542 28.721888 266.64792Q29.175013 266.9448 29.440638 267.52292Q29.690638 268.10104 29.690638 268.83542Q29.690638 270.05417 29.190638 270.6948Q28.675013 271.3198 27.690638 271.49167ZM28.612513 261.77292L29.534388 261.61667Q29.628138 262.0698 29.628138 262.41354Q29.628138 262.99167 29.456263 263.30417Q29.268763 263.61667 28.971888 263.7573Q28.675013 263.8823 27.721888 263.8823L24.143763 263.8823L24.143763 264.64792L23.331263 264.64792L23.331263 263.8823L21.784388 263.8823L21.159388 262.83542L23.331263 262.83542L23.331263 261.77292L24.143763 261.77292L24.143763 262.83542L27.784388 262.83542Q28.237513 262.83542 28.362513 262.78854Q28.487513 262.72604 28.565638 262.60104Q28.643763 262.47604 28.643763 262.24167Q28.643763 262.05417 28.612513 261.77292ZM29.550013 261.08542L23.331263 261.08542L23.331263 260.1323L24.268763 260.1323Q23.612513 259.77292 23.409388 259.47604Q23.190638 259.16354 23.190638 258.78854Q23.190638 258.2573 23.518763 257.71042L24.503138 258.0698Q24.268763 258.46042 24.268763 258.83542Q24.268763 259.1948 24.487513 259.47604Q24.690638 259.74167 25.065638 259.85104Q25.628138 260.03854 26.284388 260.03854L29.550013 260.03854L29.550013 261.08542ZM29.550013 252.99167L28.628138 252.99167Q29.690638 253.72604 29.690638 254.97604Q29.690638 255.52292 29.487513 256.0073Q29.268763 256.47604 28.956263 256.71042Q28.628138 256.9448 28.159388 257.03854Q27.862513 257.10104 27.175013 257.10104L23.331263 257.10104L23.331263 256.03854L26.784388 256.03854Q27.596888 256.03854 27.893763 255.97604Q28.300013 255.8823 28.550013 255.5698Q28.784388 255.24167 28.784388 254.7573Q28.784388 254.28854 28.550013 253.8823Q28.300013 253.46042 27.878138 253.28854Q27.456263 253.10104 26.659388 253.10104L23.331263 253.10104L23.331263 252.05417L29.550013 252.05417L29.550013 252.99167ZM27.268763 246.0073L27.409388 244.97604Q28.471888 245.14792 29.081263 245.85104Q29.690638 246.55417 29.690638 247.5698Q29.690638 248.85104 28.862513 249.6323Q28.018763 250.39792 26.456263 250.39792Q25.456263 250.39792 24.706263 250.0698Q23.940638 249.72604 23.565638 249.05417Q23.190638 248.36667 23.190638 247.55417Q23.190638 246.55417 23.706263 245.91354Q24.206263 245.2573 25.159388 245.0698L25.315638 246.10104Q24.690638 246.24167 24.378138 246.61667Q24.050013 246.99167 24.050013 247.52292Q24.050013 248.3198 24.628138 248.8198Q25.190638 249.3198 26.425013 249.3198Q27.690638 249.3198 28.253138 248.83542Q28.815638 248.35104 28.815638 247.58542Q28.815638 246.96042 28.440638 246.55417Q28.065638 246.1323 27.268763 246.0073ZM28.612513 241.77292L29.534388 241.61667Q29.628138 242.0698 29.628138 242.41354Q29.628138 242.99167 29.456263 243.30417Q29.268763 243.61667 28.971888 243.7573Q28.675013 243.8823 27.721888 243.8823L24.143763 243.8823L24.143763 244.64792L23.331263 244.64792L23.331263 243.8823L21.784388 243.8823L21.159388 242.83542L23.331263 242.83542L23.331263 241.77292L24.143763 241.77292L24.143763 242.83542L27.784388 242.83542Q28.237513 242.83542 28.362513 242.78854Q28.487513 242.72604 28.565638 242.60104Q28.643763 242.47604 28.643763 242.24167Q28.643763 242.05417 28.612513 241.77292ZM22.175013 241.0698L20.956263 241.0698L20.956263 240.0073L22.175013 240.0073L22.175013 241.0698ZM29.550013 241.0698L23.331263 241.0698L23.331263 240.0073L29.550013 240.0073L29.550013 241.0698ZM26.440638 238.46042Q24.706263 238.46042 23.878138 237.5073Q23.190638 236.71042 23.190638 235.55417Q23.190638 234.27292 24.034388 233.46042Q24.862513 232.6323 26.346888 232.6323Q27.550013 232.6323 28.237513 232.99167Q28.925013 233.35104 29.315638 234.05417Q29.690638 234.74167 29.690638 235.55417Q29.690638 236.85104 28.862513 237.66354Q28.018763 238.46042 26.440638 238.46042ZM26.440638 237.3823Q27.628138 237.3823 28.221888 236.86667Q28.815638 236.33542 28.815638 235.55417Q28.815638 234.7573 28.221888 234.24167Q27.628138 233.72604 26.409388 233.72604Q25.253138 233.72604 24.659388 234.2573Q24.065638 234.77292 24.065638 235.55417Q24.065638 236.33542 24.659388 236.86667Q25.237513 237.3823 26.440638 237.3823ZM29.550013 231.0698L23.331263 231.0698L23.331263 230.1323L24.206263 230.1323Q23.190638 229.4448 23.190638 228.14792Q23.190638 227.58542 23.393763 227.11667Q23.596888 226.6323 23.925013 226.39792Q24.253138 226.16354 24.690638 226.0698Q24.987513 226.02292 25.721888 226.02292L29.550013 226.02292L29.550013 227.0698L25.768763 227.0698Q25.112513 227.0698 24.800013 227.1948Q24.487513 227.3198 24.300013 227.6323Q24.096888 227.9448 24.096888 228.36667Q24.096888 229.03854 24.534388 229.53854Q24.956263 230.02292 26.143763 230.02292L29.550013 230.02292L29.550013 231.0698ZM27.550013 216.8198L27.675013 215.72604Q28.628138 215.97604 29.159388 216.67917Q29.690638 217.3823 29.690638 218.46042Q29.690638 219.8198 28.846888 220.6323Q28.003138 221.42917 26.487513 221.42917Q24.925013 221.42917 24.065638 220.61667Q23.190638 219.80417 23.190638 218.52292Q23.190638 217.27292 24.034388 216.49167Q24.878138 215.6948 26.425013 215.6948Q26.518763 215.6948 26.706263 215.6948L26.706263 220.33542Q27.737513 220.27292 28.284388 219.7573Q28.815638 219.24167 28.815638 218.46042Q28.815638 217.8823 28.518763 217.47604Q28.206263 217.05417 27.550013 216.8198ZM25.846888 220.27292L25.846888 216.80417Q25.050013 216.86667 24.659388 217.1948Q24.050013 217.71042 24.050013 218.5073Q24.050013 219.24167 24.534388 219.74167Q25.018763 220.22604 25.846888 220.27292ZM29.550013 214.77292L26.315638 212.5073L23.331263 214.60104L23.331263 213.28854L24.784388 212.33542Q25.206263 212.0698 25.487513 211.89792Q25.096888 211.64792 24.800013 211.42917L23.331263 210.3823L23.331263 209.11667L26.253138 211.27292L29.550013 208.96042L29.550013 210.24167L27.612513 211.52292L27.096888 211.86667L29.550013 213.5073L29.550013 214.77292ZM27.550013 204.8198L27.675013 203.72604Q28.628138 203.97604 29.159388 204.67917Q29.690638 205.3823 29.690638 206.46042Q29.690638 207.8198 28.846888 208.6323Q28.003138 209.42917 26.487513 209.42917Q24.925013 209.42917 24.065638 208.61667Q23.190638 207.80417 23.190638 206.52292Q23.190638 205.27292 24.034388 204.49167Q24.878138 203.6948 26.425013 203.6948Q26.518763 203.6948 26.706263 203.6948L26.706263 208.33542Q27.737513 208.27292 28.284388 207.7573Q28.815638 207.24167 28.815638 206.46042Q28.815638 205.8823 28.518763 205.47604Q28.206263 205.05417 27.550013 204.8198ZM25.846888 208.27292L25.846888 204.80417Q25.050013 204.86667 24.659388 205.1948Q24.050013 205.71042 24.050013 206.5073Q24.050013 207.24167 24.534388 207.74167Q25.018763 208.22604 25.846888 208.27292ZM27.268763 198.0073L27.409388 196.97604Q28.471888 197.14792 29.081263 197.85104Q29.690638 198.55417 29.690638 199.5698Q29.690638 200.85104 28.862513 201.6323Q28.018763 202.39792 26.456263 202.39792Q25.456263 202.39792 24.706263 202.0698Q23.940638 201.72604 23.565638 201.05417Q23.190638 200.36667 23.190638 199.55417Q23.190638 198.55417 23.706263 197.91354Q24.206263 197.2573 25.159388 197.0698L25.315638 198.10104Q24.690638 198.24167 24.378138 198.61667Q24.050013 198.99167 24.050013 199.52292Q24.050013 200.3198 24.628138 200.8198Q25.190638 201.3198 26.425013 201.3198Q27.690638 201.3198 28.253138 200.83542Q28.815638 200.35104 28.815638 199.58542Q28.815638 198.96042 28.440638 198.55417Q28.065638 198.1323 27.268763 198.0073ZM29.550013 191.99167L28.628138 191.99167Q29.690638 192.72604 29.690638 193.97604Q29.690638 194.52292 29.487513 195.0073Q29.268763 195.47604 28.956263 195.71042Q28.628138 195.9448 28.159388 196.03854Q27.862513 196.10104 27.175013 196.10104L23.331263 196.10104L23.331263 195.03854L26.784388 195.03854Q27.596888 195.03854 27.893763 194.97604Q28.300013 194.8823 28.550013 194.5698Q28.784388 194.24167 28.784388 193.7573Q28.784388 193.28854 28.550013 192.8823Q28.300013 192.46042 27.878138 192.28854Q27.456263 192.10104 26.659388 192.10104L23.331263 192.10104L23.331263 191.05417L29.550013 191.05417L29.550013 191.99167ZM28.612513 186.77292L29.534388 186.61667Q29.628138 187.0698 29.628138 187.41354Q29.628138 187.99167 29.456263 188.30417Q29.268763 188.61667 28.971888 188.7573Q28.675013 188.8823 27.721888 188.8823L24.143763 188.8823L24.143763 189.64792L23.331263 189.64792L23.331263 188.8823L21.784388 188.8823L21.159388 187.83542L23.331263 187.83542L23.331263 186.77292L24.143763 186.77292L24.143763 187.83542L27.784388 187.83542Q28.237513 187.83542 28.362513 187.78854Q28.487513 187.72604 28.565638 187.60104Q28.643763 187.47604 28.643763 187.24167Q28.643763 187.05417 28.612513 186.77292ZM22.175013 186.0698L20.956263 186.0698L20.956263 185.0073L22.175013 185.0073L22.175013 186.0698ZM29.550013 186.0698L23.331263 186.0698L23.331263 185.0073L29.550013 185.0073L29.550013 186.0698ZM26.440638 183.46042Q24.706263 183.46042 23.878138 182.5073Q23.190638 181.71042 23.190638 180.55417Q23.190638 179.27292 24.034388 178.46042Q24.862513 177.6323 26.346888 177.6323Q27.550013 177.6323 28.237513 177.99167Q28.925013 178.35104 29.315638 179.05417Q29.690638 179.74167 29.690638 180.55417Q29.690638 181.85104 28.862513 182.66354Q28.018763 183.46042 26.440638 183.46042ZM26.440638 182.3823Q27.628138 182.3823 28.221888 181.86667Q28.815638 181.33542 28.815638 180.55417Q28.815638 179.7573 28.221888 179.24167Q27.628138 178.72604 26.409388 178.72604Q25.253138 178.72604 24.659388 179.2573Q24.065638 179.77292 24.065638 180.55417Q24.065638 181.33542 24.659388 181.86667Q25.237513 182.3823 26.440638 182.3823ZM29.550013 176.0698L23.331263 176.0698L23.331263 175.1323L24.206263 175.1323Q23.190638 174.4448 23.190638 173.14792Q23.190638 172.58542 23.393763 172.11667Q23.596888 171.6323 23.925013 171.39792Q24.253138 171.16354 24.690638 171.0698Q24.987513 171.02292 25.721888 171.02292L29.550013 171.02292L29.550013 172.0698L25.768763 172.0698Q25.112513 172.0698 24.800013 172.1948Q24.487513 172.3198 24.300013 172.6323Q24.096888 172.9448 24.096888 173.36667Q24.096888 174.03854 24.534388 174.53854Q24.956263 175.02292 26.143763 175.02292L29.550013 175.02292L29.550013 176.0698ZM28.612513 163.77292L29.534388 163.61667Q29.628138 164.0698 29.628138 164.41354Q29.628138 164.99167 29.456263 165.30417Q29.268763 165.61667 28.971888 165.7573Q28.675013 165.8823 27.721888 165.8823L24.143763 165.8823L24.143763 166.64792L23.331263 166.64792L23.331263 165.8823L21.784388 165.8823L21.159388 164.83542L23.331263 164.83542L23.331263 163.77292L24.143763 163.77292L24.143763 164.83542L27.784388 164.83542Q28.237513 164.83542 28.362513 164.78854Q28.487513 164.72604 28.565638 164.60104Q28.643763 164.47604 28.643763 164.24167Q28.643763 164.05417 28.612513 163.77292ZM22.175013 163.0698L20.956263 163.0698L20.956263 162.0073L22.175013 162.0073L22.175013 163.0698ZM29.550013 163.0698L23.331263 163.0698L23.331263 162.0073L29.550013 162.0073L29.550013 163.0698ZM29.550013 160.0698L23.331263 160.0698L23.331263 159.1323L24.206263 159.1323Q23.737513 158.83542 23.471888 158.35104Q23.190638 157.86667 23.190638 157.24167Q23.190638 156.55417 23.471888 156.11667Q23.753138 155.66354 24.268763 155.49167Q23.190638 154.74167 23.190638 153.5698Q23.190638 152.6323 23.706263 152.14792Q24.206263 151.64792 25.284388 151.64792L29.550013 151.64792L29.550013 152.6948L25.628138 152.6948Q25.003138 152.6948 24.721888 152.80417Q24.440638 152.89792 24.268763 153.16354Q24.096888 153.42917 24.096888 153.80417Q24.096888 154.46042 24.534388 154.89792Q24.971888 155.3198 25.940638 155.3198L29.550013 155.3198L29.550013 156.3823L25.503138 156.3823Q24.800013 156.3823 24.456263 156.64792Q24.096888 156.89792 24.096888 157.47604Q24.096888 157.92917 24.331263 158.30417Q24.565638 158.67917 25.018763 158.85104Q25.471888 159.02292 26.315638 159.02292L29.550013 159.02292L29.550013 160.0698ZM27.550013 144.8198L27.675013 143.72604Q28.628138 143.97604 29.159388 144.67917Q29.690638 145.3823 29.690638 146.46042Q29.690638 147.8198 28.846888 148.6323Q28.003138 149.42917 26.487513 149.42917Q24.925013 149.42917 24.065638 148.61667Q23.190638 147.80417 23.190638 146.52292Q23.190638 145.27292 24.034388 144.49167Q24.878138 143.6948 26.425013 143.6948Q26.518763 143.6948 26.706263 143.6948L26.706263 148.33542Q27.737513 148.27292 28.284388 147.7573Q28.815638 147.24167 28.815638 146.46042Q28.815638 145.8823 28.518763 145.47604Q28.206263 145.05417 27.550013 144.8198ZM25.846888 148.27292L25.846888 144.80417Q25.050013 144.86667 24.659388 145.1948Q24.050013 145.71042 24.050013 146.5073Q24.050013 147.24167 24.534388 147.74167Q25.018763 148.22604 25.846888 148.27292ZM32.08126 137.05417Q30.971888 137.92917 29.503138 138.53854Q28.018763 139.1323 26.440638 139.1323Q25.050013 139.1323 23.768763 138.6948Q22.284388 138.16354 20.815638 137.05417L20.815638 136.30417Q22.034388 137.0073 22.550013 137.24167Q23.362513 137.60104 24.237513 137.80417Q25.331263 138.05417 26.440638 138.05417Q29.268763 138.05417 32.08126 136.30417L32.08126 137.05417ZM29.550013 135.0698L23.331263 135.0698L23.331263 134.1323L24.206263 134.1323Q23.190638 133.4448 23.190638 132.14792Q23.190638 131.58542 23.393763 131.11667Q23.596888 130.6323 23.925013 130.39792Q24.253138 130.16354 24.690638 130.0698Q24.987513 130.02292 25.721888 130.02292L29.550013 130.02292L29.550013 131.0698L25.768763 131.0698Q25.112513 131.0698 24.800013 131.1948Q24.487513 131.3198 24.300013 131.6323Q24.096888 131.9448 24.096888 132.36667Q24.096888 133.03854 24.534388 133.53854Q24.956263 134.02292 26.143763 134.02292L29.550013 134.02292L29.550013 135.0698ZM27.690638 128.49167L27.534388 127.46042Q28.159388 127.36667 28.487513 126.97604Q28.815638 126.56979 28.815638 125.83542Q28.815638 125.11667 28.534388 124.77292Q28.237513 124.41354 27.831263 124.41354Q27.471888 124.41354 27.268763 124.72604Q27.128138 124.94479 26.909388 125.80417Q26.612513 126.96042 26.409388 127.41354Q26.190638 127.85104 25.815638 128.08542Q25.440638 128.3198 24.971888 128.3198Q24.565638 128.3198 24.206263 128.1323Q23.846888 127.94479 23.612513 127.61667Q23.440638 127.36667 23.315638 126.94479Q23.190638 126.52292 23.190638 126.02292Q23.190638 125.30417 23.409388 124.75729Q23.612513 124.19479 23.971888 123.92917Q24.331263 123.66354 24.925013 123.56979L25.065638 124.60104Q24.596888 124.66354 24.331263 125.00729Q24.050013 125.33542 24.050013 125.96042Q24.050013 126.67917 24.300013 126.99167Q24.534388 127.30417 24.862513 127.30417Q25.065638 127.30417 25.221888 127.17917Q25.393763 127.03854 25.503138 126.77292Q25.565638 126.61667 25.768763 125.83542Q26.081263 124.71042 26.268763 124.27292Q26.456263 123.83542 26.815638 123.58542Q27.175013 123.33542 27.721888 123.33542Q28.253138 123.33542 28.721888 123.64792Q29.175013 123.94479 29.440638 124.52292Q29.690638 125.10104 29.690638 125.83542Q29.690638 127.05417 29.190638 127.69479Q28.675013 128.3198 27.690638 128.49167ZM32.08126 120.38229L32.08126 121.13229Q29.268763 119.38229 26.440638 119.38229Q25.346888 119.38229 24.253138 119.63229Q23.378138 119.83542 22.565638 120.19479Q22.050013 120.42917 20.815638 121.13229L20.815638 120.38229Q22.284388 119.28854 23.768763 118.75729Q25.050013 118.30417 26.440638 118.30417Q28.018763 118.30417 29.503138 118.91354Q30.971888 119.52292 32.08126 120.38229Z" fill-rule="nonzero"/><path fill="#000000" d="M91.925 301.8719L91.925 300.8094L95.175 300.8094L95.175 301.8719L91.925 301.8719Z" fill-rule="nonzero"/><path fill="#000000" d="M63.596874 249.89272L63.596874 250.90834L57.909374 250.90834Q57.909374 250.53334 58.034374 250.17397Q58.253124 249.59584 58.721874 249.03334Q59.20625 248.47084 60.1125 247.73647Q61.51875 246.58022 62.003124 245.90834Q62.503124 245.23647 62.503124 244.64272Q62.503124 244.01772 62.05 243.59584Q61.596874 243.15834 60.878124 243.15834Q60.1125 243.15834 59.659374 243.61147Q59.20625 244.06459 59.190624 244.87709L58.1125 244.76772Q58.221874 243.54897 58.940624 242.92397Q59.675 242.28334 60.909374 242.28334Q62.14375 242.28334 62.8625 242.97084Q63.58125 243.65834 63.58125 244.67397Q63.58125 245.18959 63.3625 245.68959Q63.159374 246.17397 62.659374 246.73647Q62.175 247.28334 61.05 248.23647Q60.096874 249.03334 59.815624 249.33022Q59.55 249.61147 59.378124 249.89272L63.596874 249.89272ZM65.05 248.65834L66.15938 248.56459Q66.28438 249.37709 66.72188 249.78334Q67.175 250.18959 67.81563 250.18959Q68.56563 250.18959 69.09688 249.61147Q69.62813 249.03334 69.62813 248.09584Q69.62813 247.18959 69.1125 246.67397Q68.6125 246.14272 67.78438 246.14272Q67.28438 246.14272 66.8625 246.37709Q66.45625 246.61147 66.22188 246.97084L65.2375 246.84584L66.06563 242.43959L70.34688 242.43959L70.34688 243.43959L66.90938 243.43959L66.45625 245.75209Q67.22188 245.20522 68.06563 245.20522Q69.19063 245.20522 69.95625 245.98647Q70.7375 246.76772 70.7375 248.00209Q70.7375 249.15834 70.06563 250.01772Q69.2375 251.04897 67.81563 251.04897Q66.64375 251.04897 65.89375 250.39272Q65.15938 249.73647 65.05 248.65834ZM72.05 246.67397Q72.05 245.14272 72.3625 244.22084Q72.675 243.28334 73.28438 242.78334Q73.90938 242.28334 74.84688 242.28334Q75.53438 242.28334 76.05 242.56459Q76.58125 242.84584 76.925 243.37709Q77.26875 243.89272 77.45625 244.64272Q77.64375 245.39272 77.64375 246.67397Q77.64375 248.18959 77.33125 249.11147Q77.03438 250.03334 76.40938 250.54897Q75.8 251.04897 74.84688 251.04897Q73.6125 251.04897 72.89375 250.15834Q72.05 249.09584 72.05 246.67397ZM73.12813 246.67397Q73.12813 248.78334 73.62813 249.48647Q74.12813 250.18959 74.84688 250.18959Q75.58125 250.18959 76.06563 249.48647Q76.56563 248.78334 76.56563 246.67397Q76.56563 244.54897 76.06563 243.86147Q75.58125 243.15834 74.83125 243.15834Q74.1125 243.15834 73.675 243.76772Q73.12813 244.54897 73.12813 246.67397ZM79.64375 250.90834L79.64375 249.70522L80.84688 249.70522L80.84688 250.90834L79.64375 250.90834ZM82.05 246.67397Q82.05 245.14272 82.3625 244.22084Q82.675 243.28334 83.28438 242.78334Q83.90938 242.28334 84.84688 242.28334Q85.53438 242.28334 86.05 242.56459Q86.58125 242.84584 86.925 243.37709Q87.26875 243.89272 87.45625 244.64272Q87.64375 245.39272 87.64375 246.67397Q87.64375 248.18959 87.33125 249.11147Q87.03438 250.03334 86.40938 250.54897Q85.8 251.04897 84.84688 251.04897Q83.6125 251.04897 82.89375 250.15834Q82.05 249.09584 82.05 246.67397ZM83.12813 246.67397Q83.12813 248.78334 83.62813 249.48647Q84.12813 250.18959 84.84688 250.18959Q85.58125 250.18959 86.06563 249.48647Q86.56563 248.78334 86.56563 246.67397Q86.56563 244.54897 86.06563 243.86147Q85.58125 243.15834 84.83125 243.15834Q84.1125 243.15834 83.675 243.76772Q83.12813 244.54897 83.12813 246.67397ZM89.05 246.67397Q89.05 245.14272 89.3625 244.22084Q89.675 243.28334 90.28438 242.78334Q90.90938 242.28334 91.84688 242.28334Q92.53438 242.28334 93.05 242.56459Q93.58125 242.84584 93.925 243.37709Q94.26875 243.89272 94.45625 244.64272Q94.64375 245.39272 94.64375 246.67397Q94.64375 248.18959 94.33125 249.11147Q94.03438 250.03334 93.40938 250.54897Q92.8 251.04897 91.84688 251.04897Q90.6125 251.04897 89.89375 250.15834Q89.05 249.09584 89.05 246.67397ZM90.12813 246.67397Q90.12813 248.78334 90.62813 249.48647Q91.12813 250.18959 91.84688 250.18959Q92.58125 250.18959 93.06563 249.48647Q93.56563 248.78334 93.56563 246.67397Q93.56563 244.54897 93.06563 243.86147Q92.58125 243.15834 91.83125 243.15834Q91.1125 243.15834 90.675 243.76772Q90.12813 244.54897 90.12813 246.67397Z" fill-rule="nonzero"/><path fill="#000000" d="M58.05 195.11667L59.159374 195.02292Q59.284374 195.83542 59.721874 196.24167Q60.175 196.64792 60.815624 196.64792Q61.565624 196.64792 62.096874 196.0698Q62.628124 195.49167 62.628124 194.55417Q62.628124 193.64792 62.1125 193.1323Q61.6125 192.60104 60.784374 192.60104Q60.284374 192.60104 59.8625 192.83542Q59.45625 193.0698 59.221874 193.42917L58.2375 193.30417L59.065624 188.89792L63.346874 188.89792L63.346874 189.89792L59.909374 189.89792L59.45625 192.21042Q60.221874 191.66354 61.065624 191.66354Q62.190624 191.66354 62.95625 192.4448Q63.7375 193.22604 63.7375 194.46042Q63.7375 195.61667 63.065624 196.47604Q62.2375 197.5073 60.815624 197.5073Q59.64375 197.5073 58.89375 196.85104Q58.159374 196.1948 58.05 195.11667ZM65.05 193.1323Q65.05 191.60104 65.3625 190.67917Q65.675 189.74167 66.28438 189.24167Q66.90938 188.74167 67.84688 188.74167Q68.53438 188.74167 69.05 189.02292Q69.58125 189.30417 69.925 189.83542Q70.26875 190.35104 70.45625 191.10104Q70.64375 191.85104 70.64375 193.1323Q70.64375 194.64792 70.33125 195.5698Q70.03438 196.49167 69.40938 197.0073Q68.8 197.5073 67.84688 197.5073Q66.6125 197.5073 65.89375 196.61667Q65.05 195.55417 65.05 193.1323ZM66.12813 193.1323Q66.12813 195.24167 66.62813 195.9448Q67.12813 196.64792 67.84688 196.64792Q68.58125 196.64792 69.06563 195.9448Q69.56563 195.24167 69.56563 193.1323Q69.56563 191.0073 69.06563 190.3198Q68.58125 189.61667 67.83125 189.61667Q67.1125 189.61667 66.675 190.22604Q66.12813 191.0073 66.12813 193.1323ZM72.05 193.1323Q72.05 191.60104 72.3625 190.67917Q72.675 189.74167 73.28438 189.24167Q73.90938 188.74167 74.84688 188.74167Q75.53438 188.74167 76.05 189.02292Q76.58125 189.30417 76.925 189.83542Q77.26875 190.35104 77.45625 191.10104Q77.64375 191.85104 77.64375 193.1323Q77.64375 194.64792 77.33125 195.5698Q77.03438 196.49167 76.40938 197.0073Q75.8 197.5073 74.84688 197.5073Q73.6125 197.5073 72.89375 196.61667Q72.05 195.55417 72.05 193.1323ZM73.12813 193.1323Q73.12813 195.24167 73.62813 195.9448Q74.12813 196.64792 74.84688 196.64792Q75.58125 196.64792 76.06563 195.9448Q76.56563 195.24167 76.56563 193.1323Q76.56563 191.0073 76.06563 190.3198Q75.58125 189.61667 74.83125 189.61667Q74.1125 189.61667 73.675 190.22604Q73.12813 191.0073 73.12813 193.1323ZM79.64375 197.36667L79.64375 196.16354L80.84688 196.16354L80.84688 197.36667L79.64375 197.36667ZM82.05 193.1323Q82.05 191.60104 82.3625 190.67917Q82.675 189.74167 83.28438 189.24167Q83.90938 188.74167 84.84688 188.74167Q85.53438 188.74167 86.05 189.02292Q86.58125 189.30417 86.925 189.83542Q87.26875 190.35104 87.45625 191.10104Q87.64375 191.85104 87.64375 193.1323Q87.64375 194.64792 87.33125 195.5698Q87.03438 196.49167 86.40938 197.0073Q85.8 197.5073 84.84688 197.5073Q83.6125 197.5073 82.89375 196.61667Q82.05 195.55417 82.05 193.1323ZM83.12813 193.1323Q83.12813 195.24167 83.62813 195.9448Q84.12813 196.64792 84.84688 196.64792Q85.58125 196.64792 86.06563 195.9448Q86.56563 195.24167 86.56563 193.1323Q86.56563 191.0073 86.06563 190.3198Q85.58125 189.61667 84.83125 189.61667Q84.1125 189.61667 83.675 190.22604Q83.12813 191.0073 83.12813 193.1323ZM89.05 193.1323Q89.05 191.60104 89.3625 190.67917Q89.675 189.74167 90.28438 189.24167Q90.90938 188.74167 91.84688 188.74167Q92.53438 188.74167 93.05 189.02292Q93.58125 189.30417 93.925 189.83542Q94.26875 190.35104 94.45625 191.10104Q94.64375 191.85104 94.64375 193.1323Q94.64375 194.64792 94.33125 195.5698Q94.03438 196.49167 93.40938 197.0073Q92.8 197.5073 91.84688 197.5073Q90.6125 197.5073 89.89375 196.61667Q89.05 195.55417 89.05 193.1323ZM90.12813 193.1323Q90.12813 195.24167 90.62813 195.9448Q91.12813 196.64792 91.84688 196.64792Q92.58125 196.64792 93.06563 195.9448Q93.56563 195.24167 93.56563 193.1323Q93.56563 191.0073 93.06563 190.3198Q92.58125 189.61667 91.83125 189.61667Q91.1125 189.61667 90.675 190.22604Q90.12813 191.0073 90.12813 193.1323Z" fill-rule="nonzero"/><path fill="#000000" d="M58.1125 136.35625L58.1125 135.34062L63.675 135.34062L63.675 136.16875Q62.8625 137.04375 62.05 138.49687Q61.253124 139.93437 60.815624 141.46562Q60.4875 142.54375 60.409374 143.825L59.315624 143.825Q59.33125 142.80937 59.70625 141.37187Q60.096874 139.93437 60.8 138.60625Q61.51875 137.27812 62.33125 136.35625L58.1125 136.35625ZM65.05 141.575L66.15938 141.48125Q66.28438 142.29375 66.72188 142.7Q67.175 143.10625 67.81563 143.10625Q68.56563 143.10625 69.09688 142.52812Q69.62813 141.95 69.62813 141.0125Q69.62813 140.10625 69.1125 139.59062Q68.6125 139.05937 67.78438 139.05937Q67.28438 139.05937 66.8625 139.29375Q66.45625 139.52812 66.22188 139.8875L65.2375 139.7625L66.06563 135.35625L70.34688 135.35625L70.34688 136.35625L66.90938 136.35625L66.45625 138.66875Q67.22188 138.12187 68.06563 138.12187Q69.19063 138.12187 69.95625 138.90312Q70.7375 139.68437 70.7375 140.91875Q70.7375 142.075 70.06563 142.93437Q69.2375 143.96562 67.81563 143.96562Q66.64375 143.96562 65.89375 143.30937Q65.15938 142.65312 65.05 141.575ZM72.05 139.59062Q72.05 138.05937 72.3625 137.1375Q72.675 136.2 73.28438 135.7Q73.90938 135.2 74.84688 135.2Q75.53438 135.2 76.05 135.48125Q76.58125 135.7625 76.925 136.29375Q77.26875 136.80937 77.45625 137.55937Q77.64375 138.30937 77.64375 139.59062Q77.64375 141.10625 77.33125 142.02812Q77.03438 142.95 76.40938 143.46562Q75.8 143.96562 74.84688 143.96562Q73.6125 143.96562 72.89375 143.075Q72.05 142.0125 72.05 139.59062ZM73.12813 139.59062Q73.12813 141.7 73.62813 142.40312Q74.12813 143.10625 74.84688 143.10625Q75.58125 143.10625 76.06563 142.40312Q76.56563 141.7 76.56563 139.59062Q76.56563 137.46562 76.06563 136.77812Q75.58125 136.075 74.83125 136.075Q74.1125 136.075 73.675 136.68437Q73.12813 137.46562 73.12813 139.59062ZM79.64375 143.825L79.64375 142.62187L80.84688 142.62187L80.84688 143.825L79.64375 143.825ZM82.05 139.59062Q82.05 138.05937 82.3625 137.1375Q82.675 136.2 83.28438 135.7Q83.90938 135.2 84.84688 135.2Q85.53438 135.2 86.05 135.48125Q86.58125 135.7625 86.925 136.29375Q87.26875 136.80937 87.45625 137.55937Q87.64375 138.30937 87.64375 139.59062Q87.64375 141.10625 87.33125 142.02812Q87.03438 142.95 86.40938 143.46562Q85.8 143.96562 84.84688 143.96562Q83.6125 143.96562 82.89375 143.075Q82.05 142.0125 82.05 139.59062ZM83.12813 139.59062Q83.12813 141.7 83.62813 142.40312Q84.12813 143.10625 84.84688 143.10625Q85.58125 143.10625 86.06563 142.40312Q86.56563 141.7 86.56563 139.59062Q86.56563 137.46562 86.06563 136.77812Q85.58125 136.075 84.83125 136.075Q84.1125 136.075 83.675 136.68437Q83.12813 137.46562 83.12813 139.59062ZM89.05 139.59062Q89.05 138.05937 89.3625 137.1375Q89.675 136.2 90.28438 135.7Q90.90938 135.2 91.84688 135.2Q92.53438 135.2 93.05 135.48125Q93.58125 135.7625 93.925 136.29375Q94.26875 136.80937 94.45625 137.55937Q94.64375 138.30937 94.64375 139.59062Q94.64375 141.10625 94.33125 142.02812Q94.03438 142.95 93.40938 143.46562Q92.8 143.96562 91.84688 143.96562Q90.6125 143.96562 89.89375 143.075Q89.05 142.0125 89.05 139.59062ZM90.12813 139.59062Q90.12813 141.7 90.62813 142.40312Q91.12813 143.10625 91.84688 143.10625Q92.58125 143.10625 93.06563 142.40312Q93.56563 141.7 93.56563 139.59062Q93.56563 137.46562 93.06563 136.77812Q92.58125 136.075 91.83125 136.075Q91.1125 136.075 90.675 136.68437Q90.12813 137.46562 90.12813 139.59062Z" fill-rule="nonzero"/><path fill="#000000" d="M55.01875 90.28333L53.971874 90.28333L53.971874 83.56458Q53.58125 83.92396 52.95625 84.29896Q52.346874 84.65833 51.8625 84.83021L51.8625 83.81458Q52.7375 83.39271 53.39375 82.81458Q54.065624 82.22083 54.346874 81.65833L55.01875 81.65833L55.01875 90.28333ZM58.05 86.04896Q58.05 84.51771 58.3625 83.59583Q58.675 82.65833 59.284374 82.15833Q59.909374 81.65833 60.846874 81.65833Q61.534374 81.65833 62.05 81.93958Q62.58125 82.22083 62.925 82.75208Q63.26875 83.26771 63.45625 84.01771Q63.64375 84.76771 63.64375 86.04896Q63.64375 87.56458 63.33125 88.48646Q63.034374 89.40833 62.409374 89.92396Q61.8 90.42396 60.846874 90.42396Q59.6125 90.42396 58.89375 89.53333Q58.05 88.47083 58.05 86.04896ZM59.128124 86.04896Q59.128124 88.15833 59.628124 88.86146Q60.128124 89.56458 60.846874 89.56458Q61.58125 89.56458 62.065624 88.86146Q62.565624 88.15833 62.565624 86.04896Q62.565624 83.92396 62.065624 83.23646Q61.58125 82.53333 60.83125 82.53333Q60.1125 82.53333 59.675 83.14271Q59.128124 83.92396 59.128124 86.04896ZM65.05 86.04896Q65.05 84.51771 65.3625 83.59583Q65.675 82.65833 66.28438 82.15833Q66.90938 81.65833 67.84688 81.65833Q68.53438 81.65833 69.05 81.93958Q69.58125 82.22083 69.925 82.75208Q70.26875 83.26771 70.45625 84.01771Q70.64375 84.76771 70.64375 86.04896Q70.64375 87.56458 70.33125 88.48646Q70.03438 89.40833 69.40938 89.92396Q68.8 90.42396 67.84688 90.42396Q66.6125 90.42396 65.89375 89.53333Q65.05 88.47083 65.05 86.04896ZM66.12813 86.04896Q66.12813 88.15833 66.62813 88.86146Q67.12813 89.56458 67.84688 89.56458Q68.58125 89.56458 69.06563 88.86146Q69.56563 88.15833 69.56563 86.04896Q69.56563 83.92396 69.06563 83.23646Q68.58125 82.53333 67.83125 82.53333Q67.1125 82.53333 66.675 83.14271Q66.12813 83.92396 66.12813 86.04896ZM72.05 86.04896Q72.05 84.51771 72.3625 83.59583Q72.675 82.65833 73.28438 82.15833Q73.90938 81.65833 74.84688 81.65833Q75.53438 81.65833 76.05 81.93958Q76.58125 82.22083 76.925 82.75208Q77.26875 83.26771 77.45625 84.01771Q77.64375 84.76771 77.64375 86.04896Q77.64375 87.56458 77.33125 88.48646Q77.03438 89.40833 76.40938 89.92396Q75.8 90.42396 74.84688 90.42396Q73.6125 90.42396 72.89375 89.53333Q72.05 88.47083 72.05 86.04896ZM73.12813 86.04896Q73.12813 88.15833 73.62813 88.86146Q74.12813 89.56458 74.84688 89.56458Q75.58125 89.56458 76.06563 88.86146Q76.56563 88.15833 76.56563 86.04896Q76.56563 83.92396 76.06563 83.23646Q75.58125 82.53333 74.83125 82.53333Q74.1125 82.53333 73.675 83.14271Q73.12813 83.92396 73.12813 86.04896ZM79.64375 90.28333L79.64375 89.08021L80.84688 89.08021L80.84688 90.28333L79.64375 90.28333ZM82.05 86.04896Q82.05 84.51771 82.3625 83.59583Q82.675 82.65833 83.28438 82.15833Q83.90938 81.65833 84.84688 81.65833Q85.53438 81.65833 86.05 81.93958Q86.58125 82.22083 86.925 82.75208Q87.26875 83.26771 87.45625 84.01771Q87.64375 84.76771 87.64375 86.04896Q87.64375 87.56458 87.33125 88.48646Q87.03438 89.40833 86.40938 89.92396Q85.8 90.42396 84.84688 90.42396Q83.6125 90.42396 82.89375 89.53333Q82.05 88.47083 82.05 86.04896ZM83.12813 86.04896Q83.12813 88.15833 83.62813 88.86146Q84.12813 89.56458 84.84688 89.56458Q85.58125 89.56458 86.06563 88.86146Q86.56563 88.15833 86.56563 86.04896Q86.56563 83.92396 86.06563 83.23646Q85.58125 82.53333 84.83125 82.53333Q84.1125 82.53333 83.675 83.14271Q83.12813 83.92396 83.12813 86.04896ZM89.05 86.04896Q89.05 84.51771 89.3625 83.59583Q89.675 82.65833 90.28438 82.15833Q90.90938 81.65833 91.84688 81.65833Q92.53438 81.65833 93.05 81.93958Q93.58125 82.22083 93.925 82.75208Q94.26875 83.26771 94.45625 84.01771Q94.64375 84.76771 94.64375 86.04896Q94.64375 87.56458 94.33125 88.48646Q94.03438 89.40833 93.40938 89.92396Q92.8 90.42396 91.84688 90.42396Q90.6125 90.42396 89.89375 89.53333Q89.05 88.47083 89.05 86.04896ZM90.12813 86.04896Q90.12813 88.15833 90.62813 88.86146Q91.12813 89.56458 91.84688 89.56458Q92.58125 89.56458 93.06563 88.86146Q93.56563 88.15833 93.56563 86.04896Q93.56563 83.92396 93.06563 83.23646Q92.58125 82.53333 91.83125 82.53333Q91.1125 82.53333 90.675 83.14271Q90.12813 83.92396 90.12813 86.04896Z" fill-rule="nonzero"/><path fill="#000000" d="M102.51875 317.45L101.47188 317.45L101.47188 310.73126Q101.08125 311.09064 100.45625 311.46564Q99.84688 311.825 99.3625 311.9969L99.3625 310.98126Q100.2375 310.5594 100.89375 309.98126Q101.56563 309.3875 101.84688 308.825L102.51875 308.825L102.51875 317.45Z" fill-rule="nonzero"/><path fill="#000000" d="M221.649 317.45L220.60213 317.45L220.60213 310.73126Q220.2115 311.09064 219.5865 311.46564Q218.97713 311.825 218.49275 311.9969L218.49275 310.98126Q219.36775 310.5594 220.024 309.98126Q220.69588 309.3875 220.97713 308.825L221.649 308.825L221.649 317.45ZM224.68025 313.21564Q224.68025 311.6844 224.99275 310.7625Q225.30525 309.825 225.91463 309.325Q226.53963 308.825 227.47713 308.825Q228.16463 308.825 228.68025 309.10626Q229.2115 309.3875 229.55525 309.91876Q229.899 310.4344 230.0865 311.1844Q230.274 311.9344 230.274 313.21564Q230.274 314.73126 229.9615 315.65314Q229.66463 316.575 229.03963 317.09064Q228.43025 317.59064 227.47713 317.59064Q226.24275 317.59064 225.524 316.7Q224.68025 315.6375 224.68025 313.21564ZM225.75838 313.21564Q225.75838 315.325 226.25838 316.02814Q226.75838 316.73126 227.47713 316.73126Q228.2115 316.73126 228.69588 316.02814Q229.19588 315.325 229.19588 313.21564Q229.19588 311.09064 228.69588 310.40314Q228.2115 309.7 227.4615 309.7Q226.74275 309.7 226.30525 310.3094Q225.75838 311.09064 225.75838 313.21564Z" fill-rule="nonzero"/><path fill="#000000" d="M340.77927 317.45L339.7324 317.45L339.7324 310.73126Q339.34177 311.09064 338.71677 311.46564Q338.1074 311.825 337.62302 311.9969L337.62302 310.98126Q338.49802 310.5594 339.15427 309.98126Q339.82614 309.3875 340.1074 308.825L340.77927 308.825L340.77927 317.45ZM343.81052 313.21564Q343.81052 311.6844 344.12302 310.7625Q344.43552 309.825 345.0449 309.325Q345.6699 308.825 346.6074 308.825Q347.2949 308.825 347.81052 309.10626Q348.34177 309.3875 348.68552 309.91876Q349.02927 310.4344 349.21677 311.1844Q349.40427 311.9344 349.40427 313.21564Q349.40427 314.73126 349.09177 315.65314Q348.7949 316.575 348.1699 317.09064Q347.56052 317.59064 346.6074 317.59064Q345.37302 317.59064 344.65427 316.7Q343.81052 315.6375 343.81052 313.21564ZM344.88864 313.21564Q344.88864 315.325 345.38864 316.02814Q345.88864 316.73126 346.6074 316.73126Q347.34177 316.73126 347.82614 316.02814Q348.32614 315.325 348.32614 313.21564Q348.32614 311.09064 347.82614 310.40314Q347.34177 309.7 346.59177 309.7Q345.87302 309.7 345.43552 310.3094Q344.88864 311.09064 344.88864 313.21564ZM350.81052 313.21564Q350.81052 311.6844 351.12302 310.7625Q351.43552 309.825 352.0449 309.325Q352.6699 308.825 353.6074 308.825Q354.2949 308.825 354.81052 309.10626Q355.34177 309.3875 355.68552 309.91876Q356.02927 310.4344 356.21677 311.1844Q356.40427 311.9344 356.40427 313.21564Q356.40427 314.73126 356.09177 315.65314Q355.7949 316.575 355.1699 317.09064Q354.56052 317.59064 353.6074 317.59064Q352.37302 317.59064 351.65427 316.7Q350.81052 315.6375 350.81052 313.21564ZM351.88864 313.21564Q351.88864 315.325 352.38864 316.02814Q352.88864 316.73126 353.6074 316.73126Q354.34177 316.73126 354.82614 316.02814Q355.32614 315.325 355.32614 313.21564Q355.32614 311.09064 354.82614 310.40314Q354.34177 309.7 353.59177 309.7Q352.87302 309.7 352.43552 310.3094Q351.88864 311.09064 351.88864 313.21564Z" fill-rule="nonzero"/><path fill="#000000" d="M459.90952 317.45L458.86264 317.45L458.86264 310.73126Q458.47202 311.09064 457.84702 311.46564Q457.23764 311.825 456.75327 311.9969L456.75327 310.98126Q457.62827 310.5594 458.28452 309.98126Q458.9564 309.3875 459.23764 308.825L459.90952 308.825L459.90952 317.45ZM462.94077 313.21564Q462.94077 311.6844 463.25327 310.7625Q463.56577 309.825 464.17514 309.325Q464.80014 308.825 465.73764 308.825Q466.42514 308.825 466.94077 309.10626Q467.47202 309.3875 467.81577 309.91876Q468.15952 310.4344 468.34702 311.1844Q468.53452 311.9344 468.53452 313.21564Q468.53452 314.73126 468.22202 315.65314Q467.92514 316.575 467.30014 317.09064Q466.69077 317.59064 465.73764 317.59064Q464.50327 317.59064 463.78452 316.7Q462.94077 315.6375 462.94077 313.21564ZM464.0189 313.21564Q464.0189 315.325 464.5189 316.02814Q465.0189 316.73126 465.73764 316.73126Q466.47202 316.73126 466.9564 316.02814Q467.4564 315.325 467.4564 313.21564Q467.4564 311.09064 466.9564 310.40314Q466.47202 309.7 465.72202 309.7Q465.00327 309.7 464.56577 310.3094Q464.0189 311.09064 464.0189 313.21564ZM469.94077 313.21564Q469.94077 311.6844 470.25327 310.7625Q470.56577 309.825 471.17514 309.325Q471.80014 308.825 472.73764 308.825Q473.42514 308.825 473.94077 309.10626Q474.47202 309.3875 474.81577 309.91876Q475.15952 310.4344 475.34702 311.1844Q475.53452 311.9344 475.53452 313.21564Q475.53452 314.73126 475.22202 315.65314Q474.92514 316.575 474.30014 317.09064Q473.69077 317.59064 472.73764 317.59064Q471.50327 317.59064 470.78452 316.7Q469.94077 315.6375 469.94077 313.21564ZM471.0189 313.21564Q471.0189 315.325 471.5189 316.02814Q472.0189 316.73126 472.73764 316.73126Q473.47202 316.73126 473.9564 316.02814Q474.4564 315.325 474.4564 313.21564Q474.4564 311.09064 473.9564 310.40314Q473.47202 309.7 472.72202 309.7Q472.00327 309.7 471.56577 310.3094Q471.0189 311.09064 471.0189 313.21564ZM476.94077 313.21564Q476.94077 311.6844 477.25327 310.7625Q477.56577 309.825 478.17514 309.325Q478.80014 308.825 479.73764 308.825Q480.42514 308.825 480.94077 309.10626Q481.47202 309.3875 481.81577 309.91876Q482.15952 310.4344 482.34702 311.1844Q482.53452 311.9344 482.53452 313.21564Q482.53452 314.73126 482.22202 315.65314Q481.92514 316.575 481.30014 317.09064Q480.69077 317.59064 479.73764 317.59064Q478.50327 317.59064 477.78452 316.7Q476.94077 315.6375 476.94077 313.21564ZM478.0189 313.21564Q478.0189 315.325 478.5189 316.02814Q479.0189 316.73126 479.73764 316.73126Q480.47202 316.73126 480.9564 316.02814Q481.4564 315.325 481.4564 313.21564Q481.4564 311.09064 480.9564 310.40314Q480.47202 309.7 479.72202 309.7Q479.00327 309.7 478.56577 310.3094Q478.0189 311.09064 478.0189 313.21564Z" fill-rule="nonzero"/><path stroke="#4285f4" stroke-width="4.0" stroke-linecap="butt" d="M155.62305 57.916668L167.62305 57.916668" fill-rule="nonzero"/><path fill="#1a1a1a" d="M178.99805 61.916668L175.66992 53.322918L176.9043 53.322918L179.13867 59.572918Q179.4043 60.322918 179.5918 60.979168Q179.79492 60.276043 180.06055 59.572918L182.37305 53.322918L183.5293 53.322918L180.16992 61.916668L178.99805 61.916668ZM183.49805 61.916668L183.49805 53.322918L184.63867 53.322918L184.63867 60.901043L188.87305 60.901043L188.87305 61.916668L183.49805 61.916668ZM190.57617 61.916668L190.57617 53.322918L196.7793 53.322918L196.7793 54.338543L191.7168 54.338543L191.7168 56.963543L196.4668 56.963543L196.4668 57.979168L191.7168 57.979168L191.7168 60.901043L196.98242 60.901043L196.98242 61.916668L190.57617 61.916668ZM198.54492 61.916668L198.54492 53.322918L199.70117 53.322918L204.2168 60.072918L204.2168 53.322918L205.31055 53.322918L205.31055 61.916668L204.13867 61.916668L199.62305 55.166668L199.62305 61.916668L198.54492 61.916668ZM212.9668 56.869793L207.29492 56.869793L207.29492 55.885418L212.9668 55.885418L212.9668 56.869793ZM212.9668 59.479168L207.29492 59.479168L207.29492 58.494793L212.9668 58.494793L212.9668 59.479168ZM218.0918 61.916668L217.04492 61.916668L217.04492 55.197918Q216.6543 55.557293 216.0293 55.932293Q215.41992 56.291668 214.93555 56.463543L214.93555 55.447918Q215.81055 55.026043 216.4668 54.447918Q217.13867 53.854168 217.41992 53.291668L218.0918 53.291668L218.0918 61.916668ZM226.66992 60.901043L226.66992 61.916668L220.98242 61.916668Q220.98242 61.541668 221.10742 61.182293Q221.32617 60.604168 221.79492 60.041668Q222.2793 59.479168 223.18555 58.744793Q224.5918 57.588543 225.07617 56.916668Q225.57617 56.244793 225.57617 55.651043Q225.57617 55.026043 225.12305 54.604168Q224.66992 54.166668 223.95117 54.166668Q223.18555 54.166668 222.73242 54.619793Q222.2793 55.072918 222.26367 55.885418L221.18555 55.776043Q221.29492 54.557293 222.01367 53.932293Q222.74805 53.291668 223.98242 53.291668Q225.2168 53.291668 225.93555 53.979168Q226.6543 54.666668 226.6543 55.682293Q226.6543 56.197918 226.43555 56.697918Q226.23242 57.182293 225.73242 57.744793Q225.24805 58.291668 224.12305 59.244793Q223.16992 60.041668 222.88867 60.338543Q222.62305 60.619793 222.45117 60.901043L226.66992 60.901043ZM229.74805 57.260418Q229.0918 57.010418 228.76367 56.572918Q228.45117 56.119793 228.45117 55.510418Q228.45117 54.572918 229.12305 53.932293Q229.81055 53.291668 230.91992 53.291668Q232.04492 53.291668 232.73242 53.947918Q233.41992 54.604168 233.41992 55.541668Q233.41992 56.135418 233.10742 56.572918Q232.79492 57.010418 232.1543 57.260418Q232.95117 57.510418 233.35742 58.088543Q233.76367 58.666668 233.76367 59.463543Q233.76367 60.557293 232.98242 61.307293Q232.2168 62.057293 230.93555 62.057293Q229.66992 62.057293 228.88867 61.307293Q228.10742 60.557293 228.10742 59.432293Q228.10742 58.588543 228.5293 58.026043Q228.9668 57.463543 229.74805 57.260418ZM229.5293 55.463543Q229.5293 56.072918 229.91992 56.463543Q230.32617 56.854168 230.95117 56.854168Q231.56055 56.854168 231.95117 56.479168Q232.3418 56.088543 232.3418 55.526043Q232.3418 54.947918 231.93555 54.557293Q231.5293 54.151043 230.93555 54.151043Q230.32617 54.151043 229.91992 54.541668Q229.5293 54.932293 229.5293 55.463543ZM229.20117 59.432293Q229.20117 59.885418 229.4043 60.307293Q229.62305 60.729168 230.04492 60.963543Q230.4668 61.197918 230.95117 61.197918Q231.70117 61.197918 232.18555 60.713543Q232.68555 60.229168 232.68555 59.479168Q232.68555 58.713543 232.18555 58.213543Q231.68555 57.713543 230.91992 57.713543Q230.16992 57.713543 229.68555 58.213543Q229.20117 58.697918 229.20117 59.432293Z" fill-rule="nonzero"/><path stroke="#ea4335" stroke-width="4.0" stroke-linecap="butt" d="M250.62305 57.916668L262.62305 57.916668" fill-rule="nonzero"/><path fill="#1a1a1a" d="M273.99805 61.916668L270.66992 53.322918L271.9043 53.322918L274.13867 59.572918Q274.4043 60.322918 274.5918 60.979168Q274.79492 60.276043 275.06055 59.572918L277.37305 53.322918L278.5293 53.322918L275.16992 61.916668L273.99805 61.916668ZM278.49805 61.916668L278.49805 53.322918L279.63867 53.322918L279.63867 60.901043L283.87305 60.901043L283.87305 61.916668L278.49805 61.916668ZM285.57617 61.916668L285.57617 53.322918L291.7793 53.322918L291.7793 54.338543L286.7168 54.338543L286.7168 56.963543L291.4668 56.963543L291.4668 57.979168L286.7168 57.979168L286.7168 60.901043L291.98242 60.901043L291.98242 61.916668L285.57617 61.916668ZM293.54492 61.916668L293.54492 53.322918L294.70117 53.322918L299.2168 60.072918L299.2168 53.322918L300.31055 53.322918L300.31055 61.916668L299.13867 61.916668L294.62305 55.166668L294.62305 61.916668L293.54492 61.916668ZM307.9668 56.869793L302.29492 56.869793L302.29492 55.885418L307.9668 55.885418L307.9668 56.869793ZM307.9668 59.479168L302.29492 59.479168L302.29492 58.494793L307.9668 58.494793L307.9668 59.479168ZM314.66992 60.901043L314.66992 61.916668L308.98242 61.916668Q308.98242 61.541668 309.10742 61.182293Q309.32617 60.604168 309.79492 60.041668Q310.2793 59.479168 311.18555 58.744793Q312.5918 57.588543 313.07617 56.916668Q313.57617 56.244793 313.57617 55.651043Q313.57617 55.026043 313.12305 54.604168Q312.66992 54.166668 311.95117 54.166668Q311.18555 54.166668 310.73242 54.619793Q310.2793 55.072918 310.26367 55.885418L309.18555 55.776043Q309.29492 54.557293 310.01367 53.932293Q310.74805 53.291668 311.98242 53.291668Q313.2168 53.291668 313.93555 53.979168Q314.6543 54.666668 314.6543 55.682293Q314.6543 56.197918 314.43555 56.697918Q314.23242 57.182293 313.73242 57.744793Q313.24805 58.291668 312.12305 59.244793Q311.16992 60.041668 310.88867 60.338543Q310.62305 60.619793 310.45117 60.901043L314.66992 60.901043ZM316.12305 59.666668L317.23242 59.572918Q317.35742 60.385418 317.79492 60.791668Q318.24805 61.197918 318.88867 61.197918Q319.63867 61.197918 320.16992 60.619793Q320.70117 60.041668 320.70117 59.104168Q320.70117 58.197918 320.18555 57.682293Q319.68555 57.151043 318.85742 57.151043Q318.35742 57.151043 317.93555 57.385418Q317.5293 57.619793 317.29492 57.979168L316.31055 57.854168L317.13867 53.447918L321.41992 53.447918L321.41992 54.447918L317.98242 54.447918L317.5293 56.760418Q318.29492 56.213543 319.13867 56.213543Q320.26367 56.213543 321.0293 56.994793Q321.81055 57.776043 321.81055 59.010418Q321.81055 60.166668 321.13867 61.026043Q320.31055 62.057293 318.88867 62.057293Q317.7168 62.057293 316.9668 61.401043Q316.23242 60.744793 316.12305 59.666668ZM328.5918 55.432293L327.54492 55.510418Q327.4043 54.885418 327.1543 54.604168Q326.7168 54.151043 326.0918 54.151043Q325.5918 54.151043 325.20117 54.432293Q324.7168 54.807293 324.41992 55.510418Q324.13867 56.197918 324.12305 57.479168Q324.49805 56.901043 325.04492 56.619793Q325.60742 56.338543 326.2168 56.338543Q327.26367 56.338543 327.99805 57.119793Q328.74805 57.901043 328.74805 59.119793Q328.74805 59.932293 328.38867 60.635418Q328.04492 61.322918 327.43555 61.697918Q326.82617 62.057293 326.06055 62.057293Q324.73242 62.057293 323.9043 61.088543Q323.07617 60.119793 323.07617 57.901043Q323.07617 55.401043 323.99805 54.276043Q324.79492 53.291668 326.1543 53.291668Q327.16992 53.291668 327.81055 53.869793Q328.4668 54.432293 328.5918 55.432293ZM324.29492 59.135418Q324.29492 59.682293 324.51367 60.182293Q324.74805 60.666668 325.1543 60.932293Q325.57617 61.197918 326.04492 61.197918Q326.70117 61.197918 327.18555 60.666668Q327.66992 60.119793 327.66992 59.197918Q327.66992 58.307293 327.18555 57.791668Q326.7168 57.276043 325.99805 57.276043Q325.2793 57.276043 324.7793 57.791668Q324.29492 58.307293 324.29492 59.135418Z" fill-rule="nonzero"/><path stroke="#fbbc04" stroke-width="4.0" stroke-linecap="butt" d="M345.62305 57.916668L357.62305 57.916668" fill-rule="nonzero"/><path fill="#1a1a1a" d="M368.99805 61.916668L365.66992 53.322918L366.9043 53.322918L369.13867 59.572918Q369.4043 60.322918 369.5918 60.979168Q369.79492 60.276043 370.06055 59.572918L372.37305 53.322918L373.5293 53.322918L370.16992 61.916668L368.99805 61.916668ZM373.49805 61.916668L373.49805 53.322918L374.63867 53.322918L374.63867 60.901043L378.87305 60.901043L378.87305 61.916668L373.49805 61.916668ZM380.57617 61.916668L380.57617 53.322918L386.7793 53.322918L386.7793 54.338543L381.7168 54.338543L381.7168 56.963543L386.4668 56.963543L386.4668 57.979168L381.7168 57.979168L381.7168 60.901043L386.98242 60.901043L386.98242 61.916668L380.57617 61.916668ZM388.54492 61.916668L388.54492 53.322918L389.70117 53.322918L394.2168 60.072918L394.2168 53.322918L395.31055 53.322918L395.31055 61.916668L394.13867 61.916668L389.62305 55.166668L389.62305 61.916668L388.54492 61.916668ZM402.9668 56.869793L397.29492 56.869793L397.29492 55.885418L402.9668 55.885418L402.9668 56.869793ZM402.9668 59.479168L397.29492 59.479168L397.29492 58.494793L402.9668 58.494793L402.9668 59.479168ZM404.12305 59.666668L405.23242 59.572918Q405.35742 60.385418 405.79492 60.791668Q406.24805 61.197918 406.88867 61.197918Q407.63867 61.197918 408.16992 60.619793Q408.70117 60.041668 408.70117 59.104168Q408.70117 58.197918 408.18555 57.682293Q407.68555 57.151043 406.85742 57.151043Q406.35742 57.151043 405.93555 57.385418Q405.5293 57.619793 405.29492 57.979168L404.31055 57.854168L405.13867 53.447918L409.41992 53.447918L409.41992 54.447918L405.98242 54.447918L405.5293 56.760418Q406.29492 56.213543 407.13867 56.213543Q408.26367 56.213543 409.0293 56.994793Q409.81055 57.776043 409.81055 59.010418Q409.81055 60.166668 409.13867 61.026043Q408.31055 62.057293 406.88867 62.057293Q405.7168 62.057293 404.9668 61.401043Q404.23242 60.744793 404.12305 59.666668ZM415.0918 61.916668L414.04492 61.916668L414.04492 55.197918Q413.6543 55.557293 413.0293 55.932293Q412.41992 56.291668 411.93555 56.463543L411.93555 55.447918Q412.81055 55.026043 413.4668 54.447918Q414.13867 53.854168 414.41992 53.291668L415.0918 53.291668L415.0918 61.916668ZM423.66992 60.901043L423.66992 61.916668L417.98242 61.916668Q417.98242 61.541668 418.10742 61.182293Q418.32617 60.604168 418.79492 60.041668Q419.2793 59.479168 420.18555 58.744793Q421.5918 57.588543 422.07617 56.916668Q422.57617 56.244793 422.57617 55.651043Q422.57617 55.026043 422.12305 54.604168Q421.66992 54.166668 420.95117 54.166668Q420.18555 54.166668 419.73242 54.619793Q419.2793 55.072918 419.26367 55.885418L418.18555 55.776043Q418.29492 54.557293 419.01367 53.932293Q419.74805 53.291668 420.98242 53.291668Q422.2168 53.291668 422.93555 53.979168Q423.6543 54.666668 423.6543 55.682293Q423.6543 56.197918 423.43555 56.697918Q423.23242 57.182293 422.73242 57.744793Q422.24805 58.291668 421.12305 59.244793Q420.16992 60.041668 419.88867 60.338543Q419.62305 60.619793 419.45117 60.901043L423.66992 60.901043Z" fill-rule="nonzero"/><path stroke="#34a853" stroke-width="4.0" stroke-linecap="butt" d="M440.62305 57.916668L452.62305 57.916668" fill-rule="nonzero"/><path fill="#1a1a1a" d="M463.99805 61.916668L460.66992 53.322918L461.9043 53.322918L464.13867 59.572918Q464.4043 60.322918 464.5918 60.979168Q464.79492 60.276043 465.06055 59.572918L467.37305 53.322918L468.5293 53.322918L465.16992 61.916668L463.99805 61.916668ZM468.49805 61.916668L468.49805 53.322918L469.63867 53.322918L469.63867 60.901043L473.87305 60.901043L473.87305 61.916668L468.49805 61.916668ZM475.57617 61.916668L475.57617 53.322918L481.7793 53.322918L481.7793 54.338543L476.7168 54.338543L476.7168 56.963543L481.4668 56.963543L481.4668 57.979168L476.7168 57.979168L476.7168 60.901043L481.98242 60.901043L481.98242 61.916668L475.57617 61.916668ZM483.54492 61.916668L483.54492 53.322918L484.70117 53.322918L489.2168 60.072918L489.2168 53.322918L490.31055 53.322918L490.31055 61.916668L489.13867 61.916668L484.62305 55.166668L484.62305 61.916668L483.54492 61.916668ZM497.9668 56.869793L492.29492 56.869793L492.29492 55.885418L497.9668 55.885418L497.9668 56.869793ZM497.9668 59.479168L492.29492 59.479168L492.29492 58.494793L497.9668 58.494793L497.9668 59.479168ZM503.0918 61.916668L502.04492 61.916668L502.04492 55.197918Q501.6543 55.557293 501.0293 55.932293Q500.41992 56.291668 499.93555 56.463543L499.93555 55.447918Q500.81055 55.026043 501.4668 54.447918Q502.13867 53.854168 502.41992 53.291668L503.0918 53.291668L503.0918 61.916668ZM506.12305 57.682293Q506.12305 56.151043 506.43555 55.229168Q506.74805 54.291668 507.35742 53.791668Q507.98242 53.291668 508.91992 53.291668Q509.60742 53.291668 510.12305 53.572918Q510.6543 53.854168 510.99805 54.385418Q511.3418 54.901043 511.5293 55.651043Q511.7168 56.401043 511.7168 57.682293Q511.7168 59.197918 511.4043 60.119793Q511.10742 61.041668 510.48242 61.557293Q509.87305 62.057293 508.91992 62.057293Q507.68555 62.057293 506.9668 61.166668Q506.12305 60.104168 506.12305 57.682293ZM507.20117 57.682293Q507.20117 59.791668 507.70117 60.494793Q508.20117 61.197918 508.91992 61.197918Q509.6543 61.197918 510.13867 60.494793Q510.63867 59.791668 510.63867 57.682293Q510.63867 55.557293 510.13867 54.869793Q509.6543 54.166668 508.9043 54.166668Q508.18555 54.166668 507.74805 54.776043Q507.20117 55.557293 507.20117 57.682293ZM518.6699 60.901043L518.6699 61.916668L512.9824 61.916668Q512.9824 61.541668 513.1074 61.182293Q513.3262 60.604168 513.7949 60.041668Q514.2793 59.479168 515.18555 58.744793Q516.5918 57.588543 517.0762 56.916668Q517.5762 56.244793 517.5762 55.651043Q517.5762 55.026043 517.12305 54.604168Q516.6699 54.166668 515.9512 54.166668Q515.18555 54.166668 514.7324 54.619793Q514.2793 55.072918 514.2637 55.885418L513.18555 55.776043Q513.2949 54.557293 514.0137 53.932293Q514.74805 53.291668 515.9824 53.291668Q517.2168 53.291668 517.93555 53.979168Q518.6543 54.666668 518.6543 55.682293Q518.6543 56.197918 518.43555 56.697918Q518.2324 57.182293 517.7324 57.744793Q517.24805 58.291668 516.12305 59.244793Q515.1699 60.041668 514.8887 60.338543Q514.62305 60.619793 514.4512 60.901043L518.6699 60.901043ZM523.49805 61.916668L523.49805 59.854168L519.7793 59.854168L519.7793 58.885418L523.7012 53.322918L524.56055 53.322918L524.56055 58.885418L525.7168 58.885418L525.7168 59.854168L524.56055 59.854168L524.56055 61.916668L523.49805 61.916668ZM523.49805 58.885418L523.49805 55.026043L520.81055 58.885418L523.49805 58.885418Z" fill-rule="nonzero"/><path fill="#757575" d="M30.940624 36.01875Q32.26875 36.925 33.378124 37.346874L32.815624 38.659374Q31.26875 38.1125 29.7375 36.909374Q28.14375 37.8 26.221874 37.8Q24.284374 37.8 22.690624 36.8625Q21.1125 35.925 20.253124 34.221874Q19.409374 32.51875 19.409374 30.39375Q19.409374 28.26875 20.26875 26.534374Q21.128124 24.8 22.70625 23.89375Q24.3 22.971874 26.26875 22.971874Q28.253124 22.971874 29.83125 23.925Q31.425 24.8625 32.253124 26.565624Q33.096874 28.253124 33.096874 30.378124Q33.096874 32.14375 32.565624 33.565624Q32.034374 34.971874 30.940624 36.01875ZM26.76875 33.596874Q28.409374 34.05 29.471874 34.95625Q31.14375 33.440624 31.14375 30.378124Q31.14375 28.64375 30.55 27.346874Q29.971874 26.05 28.83125 25.33125Q27.690624 24.6125 26.26875 24.6125Q24.159374 24.6125 22.753124 26.065624Q21.3625 27.503124 21.3625 30.39375Q21.3625 33.190624 22.7375 34.690624Q24.128124 36.175 26.26875 36.175Q27.284374 36.175 28.190624 35.784374Q27.3 35.221874 26.315624 34.971874L26.76875 33.596874ZM36.128124 37.55L36.128124 23.2375L46.4875 23.2375L46.4875 24.925L38.034374 24.925L38.034374 29.3L45.940624 29.3L45.940624 30.9875L38.034374 30.9875L38.034374 35.8625L46.815624 35.8625L46.815624 37.55L36.128124 37.55ZM49.034374 37.55L49.034374 23.2375L51.89375 23.2375L55.26875 33.3625Q55.7375 34.784374 55.95625 35.4875Q56.20625 34.70625 56.721874 33.190624L60.14375 23.2375L62.690624 23.2375L62.690624 37.55L60.878124 37.55L60.878124 25.565624L56.70625 37.55L55.003124 37.55L50.8625 25.3625L50.8625 37.55L49.034374 37.55ZM75.4875 23.2375L77.37813 23.2375L77.37813 31.503124Q77.37813 33.659374 76.89375 34.940624Q76.40938 36.20625 75.12813 37.003124Q73.8625 37.8 71.78438 37.8Q69.76875 37.8 68.4875 37.1125Q67.22188 36.409374 66.675 35.096874Q66.12813 33.784374 66.12813 31.503124L66.12813 23.2375L68.01875 23.2375L68.01875 31.4875Q68.01875 33.3625 68.3625 34.253124Q68.70625 35.128124 69.55 35.6125Q70.39375 36.08125 71.62813 36.08125Q73.70625 36.08125 74.59688 35.14375Q75.4875 34.190624 75.4875 31.4875L75.4875 23.2375ZM87.75313 37.55L83.8 27.175L85.65938 27.175L87.89375 33.39375Q88.25313 34.39375 88.55 35.471874Q88.78438 34.659374 89.20625 33.503124L91.50313 27.175L93.31563 27.175L89.39375 37.55L87.75313 37.55ZM93.83125 37.55L93.83125 23.2375L95.58125 23.2375L95.58125 37.55L93.83125 37.55ZM104.97188 34.20625L106.78438 34.440624Q106.3625 36.01875 105.19063 36.909374Q104.03438 37.784374 102.22188 37.784374Q99.95625 37.784374 98.6125 36.39375Q97.28438 34.9875 97.28438 32.45625Q97.28438 29.83125 98.62813 28.39375Q99.97188 26.940624 102.12813 26.940624Q104.20625 26.940624 105.51875 28.3625Q106.84688 29.76875 106.84688 32.346874Q106.84688 32.503124 106.83125 32.815624L99.09688 32.815624Q99.19063 34.51875 100.06563 35.425Q100.94063 36.33125 102.2375 36.33125Q103.20625 36.33125 103.87813 35.83125Q104.56563 35.315624 104.97188 34.20625ZM99.19063 31.3625L104.9875 31.3625Q104.87813 30.065624 104.33125 29.409374Q103.4875 28.39375 102.14375 28.39375Q100.94063 28.39375 100.1125 29.20625Q99.28438 30.003124 99.19063 31.3625ZM111.08125 29.784374Q109.9875 29.378124 109.45625 28.64375Q108.94063 27.89375 108.94063 26.8625Q108.94063 25.3 110.06563 24.2375Q111.19063 23.175 113.05 23.175Q114.925 23.175 116.06563 24.26875Q117.20625 25.346874 117.20625 26.909374Q117.20625 27.909374 116.675 28.64375Q116.15938 29.378124 115.09688 29.784374Q116.425 30.221874 117.1125 31.175Q117.8 32.128124 117.8 33.45625Q117.8 35.3 116.4875 36.55Q115.19063 37.8 113.08125 37.8Q110.95625 37.8 109.65938 36.55Q108.3625 35.284374 108.3625 33.409374Q108.3625 32.01875 109.06563 31.08125Q109.78438 30.128124 111.08125 29.784374ZM110.7375 26.8Q110.7375 27.815624 111.39375 28.471874Q112.05 29.1125 113.08125 29.1125Q114.09688 29.1125 114.75313 28.471874Q115.40938 27.83125 115.40938 26.909374Q115.40938 25.940624 114.7375 25.284374Q114.06563 24.6125 113.06563 24.6125Q112.06563 24.6125 111.39375 25.26875Q110.7375 25.909374 110.7375 26.8ZM110.175 33.425Q110.175 34.175 110.51875 34.878124Q110.87813 35.58125 111.58125 35.971874Q112.28438 36.346874 113.09688 36.346874Q114.3625 36.346874 115.175 35.534374Q116.00313 34.721874 116.00313 33.471874Q116.00313 32.20625 115.15938 31.378124Q114.31563 30.55 113.03438 30.55Q111.8 30.55 110.9875 31.378124Q110.175 32.190624 110.175 33.425ZM120.3625 37.55L120.3625 35.55L122.3625 35.55L122.3625 37.55L120.3625 37.55ZM128.75313 37.55L124.8 27.175L126.65938 27.175L128.89375 33.39375Q129.25313 34.39375 129.55 35.471874Q129.78438 34.659374 130.20625 33.503124L132.50313 27.175L134.31563 27.175L130.39375 37.55L128.75313 37.55ZM140.8625 41.51875L140.8625 27.175L142.47188 27.175L142.47188 28.51875Q143.03438 27.7375 143.7375 27.346874Q144.45625 26.940624 145.47188 26.940624Q146.8 26.940624 147.81563 27.628124Q148.83125 28.315624 149.34688 29.565624Q149.87813 30.8 149.87813 32.284374Q149.87813 33.878124 149.3 35.159374Q148.7375 36.425 147.64375 37.1125Q146.55 37.784374 145.34688 37.784374Q144.47188 37.784374 143.76875 37.409374Q143.08125 37.034374 142.62813 36.471874L142.62813 41.51875L140.8625 41.51875ZM142.45625 32.425Q142.45625 34.425 143.26875 35.378124Q144.08125 36.33125 145.2375 36.33125Q146.40938 36.33125 147.2375 35.346874Q148.08125 34.3625 148.08125 32.26875Q148.08125 30.3 147.25313 29.315624Q146.44063 28.315624 145.31563 28.315624Q144.19063 28.315624 143.31563 29.378124Q142.45625 30.425 142.45625 32.425ZM158.97188 34.20625L160.78438 34.440624Q160.3625 36.01875 159.19063 36.909374Q158.03438 37.784374 156.22188 37.784374Q153.95625 37.784374 152.6125 36.39375Q151.28438 34.9875 151.28438 32.45625Q151.28438 29.83125 152.62813 28.39375Q153.97188 26.940624 156.12813 26.940624Q158.20625 26.940624 159.51875 28.3625Q160.84688 29.76875 160.84688 32.346874Q160.84688 32.503124 160.83125 32.815624L153.09688 32.815624Q153.19063 34.51875 154.06563 35.425Q154.94063 36.33125 156.2375 36.33125Q157.20625 36.33125 157.87813 35.83125Q158.56563 35.315624 158.97188 34.20625ZM153.19063 31.3625L158.9875 31.3625Q158.87813 30.065624 158.33125 29.409374Q157.4875 28.39375 156.14375 28.39375Q154.94063 28.39375 154.1125 29.20625Q153.28438 30.003124 153.19063 31.3625ZM162.84688 37.55L162.84688 27.175L164.425 27.175L164.425 28.753124Q165.03438 27.64375 165.55 27.3Q166.06563 26.940624 166.675 26.940624Q167.56563 26.940624 168.4875 27.503124L167.87813 29.14375Q167.2375 28.753124 166.59688 28.753124Q166.01875 28.753124 165.55 29.1125Q165.09688 29.45625 164.89375 30.065624Q164.6125 31.003124 164.6125 32.1125L164.6125 37.55L162.84688 37.55ZM170.28438 37.55L170.28438 28.55L168.7375 28.55L168.7375 27.175L170.28438 27.175L170.28438 26.08125Q170.28438 25.034374 170.47188 24.51875Q170.72188 23.83125 171.3625 23.409374Q172.00313 22.9875 173.15938 22.9875Q173.90938 22.9875 174.8 23.159374L174.53438 24.690624Q173.9875 24.596874 173.50313 24.596874Q172.70625 24.596874 172.3625 24.940624Q172.03438 25.284374 172.03438 26.221874L172.03438 27.175L174.06563 27.175L174.06563 28.55L172.03438 28.55L172.03438 37.55L170.28438 37.55ZM175.22188 32.3625Q175.22188 29.4875 176.81563 28.096874Q178.15938 26.940624 180.08125 26.940624Q182.22188 26.940624 183.56563 28.346874Q184.925 29.753124 184.925 32.221874Q184.925 34.221874 184.33125 35.378124Q183.7375 36.51875 182.58125 37.159374Q181.44063 37.784374 180.08125 37.784374Q177.89375 37.784374 176.55 36.39375Q175.22188 34.9875 175.22188 32.3625ZM177.01875 32.3625Q177.01875 34.3625 177.87813 35.346874Q178.75313 36.33125 180.08125 36.33125Q181.39375 36.33125 182.25313 35.346874Q183.12813 34.346874 183.12813 32.3Q183.12813 30.378124 182.25313 29.39375Q181.37813 28.39375 180.08125 28.39375Q178.75313 28.39375 177.87813 29.39375Q177.01875 30.378124 177.01875 32.3625ZM186.84688 37.55L186.84688 27.175L188.425 27.175L188.425 28.753124Q189.03438 27.64375 189.55 27.3Q190.06563 26.940624 190.675 26.940624Q191.56563 26.940624 192.4875 27.503124L191.87813 29.14375Q191.2375 28.753124 190.59688 28.753124Q190.01875 28.753124 189.55 29.1125Q189.09688 29.45625 188.89375 30.065624Q188.6125 31.003124 188.6125 32.1125L188.6125 37.55L186.84688 37.55ZM193.8625 37.55L193.8625 27.175L195.44063 27.175L195.44063 28.628124Q195.925 27.878124 196.7375 27.409374Q197.55 26.940624 198.58125 26.940624Q199.7375 26.940624 200.47188 27.425Q201.20625 27.89375 201.51875 28.753124Q202.75313 26.940624 204.72188 26.940624Q206.26875 26.940624 207.09688 27.8Q207.925 28.659374 207.925 30.425L207.925 37.55L206.175 37.55L206.175 31.01875Q206.175 29.95625 206.00313 29.503124Q205.83125 29.034374 205.37813 28.753124Q204.94063 28.471874 204.33125 28.471874Q203.2375 28.471874 202.50313 29.20625Q201.78438 29.925 201.78438 31.51875L201.78438 37.55L200.03438 37.55L200.03438 30.815624Q200.03438 29.64375 199.59688 29.065624Q199.175 28.471874 198.19063 28.471874Q197.45625 28.471874 196.81563 28.8625Q196.19063 29.253124 195.90938 30.003124Q195.62813 30.753124 195.62813 32.175L195.62813 37.55L193.8625 37.55ZM216.64375 36.26875Q215.65938 37.096874 214.75313 37.440624Q213.84688 37.784374 212.81563 37.784374Q211.1125 37.784374 210.19063 36.95625Q209.26875 36.1125 209.26875 34.815624Q209.26875 34.05 209.6125 33.425Q209.97188 32.8 210.53438 32.425Q211.09688 32.034374 211.8 31.83125Q212.31563 31.70625 213.3625 31.565624Q215.4875 31.315624 216.4875 30.971874Q216.50313 30.6125 216.50313 30.503124Q216.50313 29.440624 216.00313 28.9875Q215.33125 28.39375 214.00313 28.39375Q212.75313 28.39375 212.15938 28.83125Q211.58125 29.26875 211.3 30.378124L209.58125 30.14375Q209.81563 29.034374 210.34688 28.3625Q210.87813 27.675 211.89375 27.315624Q212.90938 26.940624 214.25313 26.940624Q215.58125 26.940624 216.40938 27.253124Q217.2375 27.565624 217.62813 28.05Q218.01875 28.51875 218.175 29.2375Q218.26875 29.690624 218.26875 30.8625L218.26875 33.20625Q218.26875 35.659374 218.37813 36.315624Q218.4875 36.95625 218.83125 37.55L216.9875 37.55Q216.72188 37.003124 216.64375 36.26875ZM216.4875 32.346874Q215.53438 32.7375 213.6125 33.003124Q212.53438 33.159374 212.08125 33.3625Q211.64375 33.55 211.39375 33.925Q211.14375 34.3 211.14375 34.76875Q211.14375 35.471874 211.675 35.940624Q212.20625 36.409374 213.2375 36.409374Q214.25313 36.409374 215.03438 35.971874Q215.83125 35.51875 216.20625 34.753124Q216.4875 34.14375 216.4875 32.9875L216.4875 32.346874ZM220.8625 37.55L220.8625 27.175L222.45625 27.175L222.45625 28.659374Q223.59688 26.940624 225.75313 26.940624Q226.69063 26.940624 227.47188 27.284374Q228.26875 27.6125 228.65938 28.159374Q229.05 28.70625 229.20625 29.45625Q229.3 29.95625 229.3 31.175L229.3 37.55L227.53438 37.55L227.53438 31.2375Q227.53438 30.159374 227.33125 29.628124Q227.12813 29.096874 226.59688 28.784374Q226.08125 28.471874 225.37813 28.471874Q224.25313 28.471874 223.44063 29.190624Q222.62813 29.89375 222.62813 31.878124L222.62813 37.55L220.8625 37.55ZM237.64375 33.753124L239.3625 33.971874Q239.08125 35.76875 237.90938 36.784374Q236.75313 37.784374 235.05 37.784374Q232.925 37.784374 231.62813 36.39375Q230.33125 35.003124 230.33125 32.409374Q230.33125 30.721874 230.87813 29.471874Q231.44063 28.20625 232.58125 27.58125Q233.72188 26.940624 235.06563 26.940624Q236.75313 26.940624 237.81563 27.8Q238.89375 28.659374 239.20625 30.221874L237.4875 30.4875Q237.25313 29.440624 236.62813 28.925Q236.00313 28.39375 235.12813 28.39375Q233.8 28.39375 232.97188 29.346874Q232.14375 30.3 232.14375 32.346874Q232.14375 34.440624 232.94063 35.39375Q233.7375 36.33125 235.03438 36.33125Q236.06563 36.33125 236.75313 35.70625Q237.45625 35.065624 237.64375 33.753124ZM247.97188 34.20625L249.78438 34.440624Q249.3625 36.01875 248.19063 36.909374Q247.03438 37.784374 245.22188 37.784374Q242.95625 37.784374 241.6125 36.39375Q240.28438 34.9875 240.28438 32.45625Q240.28438 29.83125 241.62813 28.39375Q242.97188 26.940624 245.12813 26.940624Q247.20625 26.940624 248.51875 28.3625Q249.84688 29.76875 249.84688 32.346874Q249.84688 32.503124 249.83125 32.815624L242.09688 32.815624Q242.19063 34.51875 243.06563 35.425Q243.94063 36.33125 245.2375 36.33125Q246.20625 36.33125 246.87813 35.83125Q247.56563 35.315624 247.97188 34.20625ZM242.19063 31.3625L247.9875 31.3625Q247.87813 30.065624 247.33125 29.409374Q246.4875 28.39375 245.14375 28.39375Q243.94063 28.39375 243.1125 29.20625Q242.28438 30.003124 242.19063 31.3625ZM261.22186 41.753124Q259.76874 39.925 258.76874 37.471874Q257.76874 35.003124 257.76874 32.3625Q257.76874 30.034374 258.51874 27.909374Q259.39374 25.440624 261.22186 22.9875L262.4875 22.9875Q261.3 25.01875 260.925 25.89375Q260.33124 27.2375 259.9875 28.70625Q259.5656 30.534374 259.5656 32.378124Q259.5656 37.065624 262.4875 41.753124L261.22186 41.753124ZM265.01874 37.55L265.01874 23.2375L266.90936 23.2375L266.90936 35.8625L273.95624 35.8625L273.95624 37.55L265.01874 37.55ZM276.03436 37.55L276.03436 23.2375L278.89374 23.2375L282.26874 33.3625Q282.7375 34.784374 282.95624 35.4875Q283.20624 34.70625 283.72186 33.190624L287.14374 23.2375L289.6906 23.2375L289.6906 37.55L287.8781 37.55L287.8781 25.565624L283.70624 37.55L282.0031 37.55L277.8625 25.3625L277.8625 37.55L276.03436 37.55ZM302.4875 23.2375L304.3781 23.2375L304.3781 31.503124Q304.3781 33.659374 303.89374 34.940624Q303.40936 36.20625 302.1281 37.003124Q300.8625 37.8 298.78436 37.8Q296.76874 37.8 295.4875 37.1125Q294.22186 36.409374 293.675 35.096874Q293.1281 33.784374 293.1281 31.503124L293.1281 23.2375L295.01874 23.2375L295.01874 31.4875Q295.01874 33.3625 295.3625 34.253124Q295.70624 35.128124 296.55 35.6125Q297.39374 36.08125 298.6281 36.08125Q300.70624 36.08125 301.59686 35.14375Q302.4875 34.190624 302.4875 31.4875L302.4875 23.2375ZM306.01874 37.55L306.01874 23.2375L307.90936 23.2375L307.90936 35.8625L314.95624 35.8625L314.95624 37.55L306.01874 37.55ZM326.1125 29.128124L316.65936 29.128124L316.65936 27.4875L326.1125 27.4875L326.1125 29.128124ZM326.1125 33.471874L316.65936 33.471874L316.65936 31.83125L326.1125 31.83125L326.1125 33.471874ZM331.08124 29.784374Q329.9875 29.378124 329.45624 28.64375Q328.9406 27.89375 328.9406 26.8625Q328.9406 25.3 330.0656 24.2375Q331.1906 23.175 333.05 23.175Q334.925 23.175 336.0656 24.26875Q337.20624 25.346874 337.20624 26.909374Q337.20624 27.909374 336.675 28.64375Q336.15936 29.378124 335.09686 29.784374Q336.425 30.221874 337.1125 31.175Q337.8 32.128124 337.8 33.45625Q337.8 35.3 336.4875 36.55Q335.1906 37.8 333.08124 37.8Q330.95624 37.8 329.65936 36.55Q328.3625 35.284374 328.3625 33.409374Q328.3625 32.01875 329.0656 31.08125Q329.78436 30.128124 331.08124 29.784374ZM330.7375 26.8Q330.7375 27.815624 331.39374 28.471874Q332.05 29.1125 333.08124 29.1125Q334.09686 29.1125 334.7531 28.471874Q335.40936 27.83125 335.40936 26.909374Q335.40936 25.940624 334.7375 25.284374Q334.0656 24.6125 333.0656 24.6125Q332.0656 24.6125 331.39374 25.26875Q330.7375 25.909374 330.7375 26.8ZM330.175 33.425Q330.175 34.175 330.51874 34.878124Q330.8781 35.58125 331.58124 35.971874Q332.28436 36.346874 333.09686 36.346874Q334.3625 36.346874 335.175 35.534374Q336.0031 34.721874 336.0031 33.471874Q336.0031 32.20625 335.15936 31.378124Q334.3156 30.55 333.03436 30.55Q331.8 30.55 330.9875 31.378124Q330.175 32.190624 330.175 33.425ZM341.01874 41.753124L339.76874 41.753124Q342.675 37.065624 342.675 32.378124Q342.675 30.534374 342.26874 28.7375Q341.925 27.26875 341.33124 25.925Q340.95624 25.034374 339.76874 22.9875L341.01874 22.9875Q342.8625 25.440624 343.7375 27.909374Q344.4875 30.034374 344.4875 32.3625Q344.4875 35.003124 343.47186 37.471874Q342.47186 39.925 341.01874 41.753124Z" fill-rule="nonzero"/></svg>