<svg version="1.1" viewBox="0.0 0.0 600.0 371.0" fill="none" stroke="none" stroke-linecap="square" stroke-miterlimit="10" width="600" height="371" xmlns:xlink="http://www.w3.org/1999/xlink" xmlns="http://www.w3.org/2000/svg"><path fill="#ffffff" d="M0 0L600.0 0L600.0 371.0L0 371.0L0 0Z" fill-rule="nonzero"/><path stroke="#cccccc" stroke-width="1.0" stroke-linecap="butt" d="M94.5 86.5L94.5 300.5" fill-rule="nonzero"/><path stroke="#cccccc" stroke-width="1.0" stroke-linecap="butt" d="M218.5 86.5L218.5 300.5" fill-rule="nonzero"/><path stroke="#cccccc" stroke-width="1.0" stroke-linecap="butt" d="M343.5 86.5L343.5 300.5" fill-rule="nonzero"/><path stroke="#cccccc" stroke-width="1.0" stroke-linecap="butt" d="M467.5 86.5L467.5 300.5" fill-rule="nonzero"/><path stroke="#333333" stroke-width="1.0" stroke-linecap="butt" d="M94.5 300.5L581.5 300.5" fill-rule="nonzero"/><path stroke="#cccccc" stroke-width="1.0" stroke-linecap="butt" d="M94.5 257.5L581.5 257.5" fill-rule="nonzero"/><path stroke="#cccccc" stroke-width="1.0" stroke-linecap="butt" d="M94.5 214.5L581.5 214.5" fill-rule="nonzero"/><path stroke="#cccccc" stroke-width="1.0" stroke-linecap="butt" d="M94.5 171.5L581.5 171.5" fill-rule="nonzero"/><path stroke="#cccccc" stroke-width="1.0" stroke-linecap="butt" d="M94.5 129.5L581.5 129.5" fill-rule="nonzero"/><path stroke="#cccccc" stroke-width="1.0" stroke-linecap="butt" d="M94.5 86.5L581.5 86.5" fill-rule="nonzero"/><clipPath id="id_0"><path d="M94.55 86.28333L581.45 86.28333L581.45 300.45L94.55 300.45L94.55 86.28333Z" clip-rule="nonzero"/></clipPath><path stroke="#4285f4" stroke-width="2.0" stroke-linecap="butt" clip-path="url(#id_0)" d="M94.55 282.34863L132.00385 271.80307L169.45769 247.1996L206.91154 207.17613L244.36539 120.6528L281.81924 120.121666L319.27307 121.40667L356.72693 123.12L394.18076 118.83667L431.6346 120.55L469.08847 117.98L506.5423 123.12L543.99615 120.55L581.45 122.263336" fill-rule="nonzero"/><path stroke="#ea4335" stroke-width="2.0" stroke-linecap="butt" clip-path="url(#id_0)" d="M94.55 239.2069L132.00385 263.5191L169.45769 238.1275L206.91154 277.74832L244.36539 267.1428L281.81924 253.33333L319.27307 255.90334L356.72693 259.33L394.18076 256.76L431.6346 257.61667L469.08847 257.61667L506.5423 269.61L543.99615 267.89667L581.45 271.32333" fill-rule="nonzero"/><path fill="#000000" fill-opacity="0.0" clip-path="url(#id_0)" d="M97.55 282.34863C97.55 284.0055 96.206856 285.34863 94.55 285.34863C92.89314 285.34863 91.55 284.0055 91.55 282.34863C91.55 280.69177 92.89314 279.34863 94.55 279.34863C96.206856 279.34863 97.55 280.69177 97.55 282.34863Z" fill-rule="nonzero"/><path fill="#000000" fill-opacity="0.0" clip-path="url(#id_0)" d="M135.00385 271.80307C135.00385 273.45993 133.6607 274.80307 132.00385 274.80307C130.34698 274.80307 129.00385 273.45993 129.00385 271.80307C129.00385 270.1462 130.34698 268.80307 132.00385 268.80307C133.6607 268.80307 135.00385 270.1462 135.00385 271.80307Z" fill-rule="nonzero"/><path fill="#000000" fill-opacity="0.0" clip-path="url(#id_0)" d="M172.45769 247.1996C172.45769 248.85646 171.11455 250.1996 169.45769 250.1996C167.80084 250.1996 166.45769 248.85646 166.45769 247.1996C166.45769 245.54274 167.80084 244.1996 169.45769 244.1996C171.11455 244.1996 172.45769 245.54274 172.45769 247.1996Z" fill-rule="nonzero"/><path fill="#000000" fill-opacity="0.0" clip-path="url(#id_0)" d="M209.91154 207.17613C209.91154 208.833 208.56839 210.17613 206.91154 210.17613C205.25468 210.17613 203.91154 208.833 203.91154 207.17613C203.91154 205.51927 205.25468 204.17613 206.91154 204.17613C208.56839 204.17613 209.91154 205.51927 209.91154 207.17613Z" fill-rule="nonzero"/><path fill="#000000" fill-opacity="0.0" clip-path="url(#id_0)" d="M247.36539 120.6528C247.36539 122.309654 246.02223 123.6528 244.36539 123.6528C242.70853 123.6528 241.36539 122.309654 241.36539 120.6528C241.36539 118.99595 242.70853 117.6528 244.36539 117.6528C246.02223 117.6528 247.36539 118.99595 247.36539 120.6528Z" fill-rule="nonzero"/><path fill="#000000" fill-opacity="0.0" clip-path="url(#id_0)" d="M284.81924 120.121666C284.81924 121.77852 283.47607 123.121666 281.81924 123.121666C280.16238 123.121666 278.81924 121.77852 278.81924 120.121666C278.81924 118.46481 280.16238 117.121666 281.81924 117.121666C283.47607 117.121666 284.81924 118.46481 284.81924 120.121666Z" fill-rule="nonzero"/><path fill="#000000" fill-opacity="0.0" clip-path="url(#id_0)" d="M322.27307 121.40667C322.27307 123.06352 320.92993 124.40667 319.27307 124.40667C317.6162 124.40667 316.27307 123.06352 316.27307 121.40667C316.27307 119.74981 317.6162 118.40667 319.27307 118.40667C320.92993 118.40667 322.27307 119.74981 322.27307 121.40667Z" fill-rule="nonzero"/><path fill="#000000" fill-opacity="0.0" clip-path="url(#id_0)" d="M359.72693 123.12C359.72693 124.776855 358.3838 126.12 356.72693 126.12C355.07007 126.12 353.72693 124.776855 353.72693 123.12C353.72693 121.46314 355.07007 120.12 356.72693 120.12C358.3838 120.12 359.72693 121.46314 359.72693 123.12Z" fill-rule="nonzero"/><path fill="#000000" fill-opacity="0.0" clip-path="url(#id_0)" d="M397.18076 118.83667C397.18076 120.49352 395.83762 121.83667 394.18076 121.83667C392.52393 121.83667 391.18076 120.49352 391.18076 118.83667C391.18076 117.17981 392.52393 115.83667 394.18076 115.83667C395.83762 115.83667 397.18076 117.17981 397.18076 118.83667Z" fill-rule="nonzero"/><path fill="#000000" fill-opacity="0.0" clip-path="url(#id_0)" d="M434.6346 120.55C434.6346 122.206856 433.29147 123.55 431.6346 123.55C429.97775 123.55 428.6346 122.206856 428.6346 120.55C428.6346 118.89314 429.97775 117.55 431.6346 117.55C433.29147 117.55 434.6346 118.89314 434.6346 120.55Z" fill-rule="nonzero"/><path fill="#000000" fill-opacity="0.0" clip-path="url(#id_0)" d="M472.08847 117.98C472.08847 119.636856 470.74533 120.98 469.08847 120.98C467.4316 120.98 466.08847 119.636856 466.08847 117.98C466.08847 116.32314 467.4316 114.98 469.08847 114.98C470.74533 114.98 472.08847 116.32314 472.08847 117.98Z" fill-rule="nonzero"/><path fill="#000000" fill-opacity="0.0" clip-path="url(#id_0)" d="M509.5423 123.12C509.5423 124.776855 508.19916 126.12 506.5423 126.12C504.88547 126.12 503.5423 124.776855 503.5423 123.12C503.5423 121.46314 504.88547 120.12 506.5423 120.12C508.19916 120.12 509.5423 121.46314 509.5423 123.12Z" fill-rule="nonzero"/><path fill="#000000" fill-opacity="0.0" clip-path="url(#id_0)" d="M546.99615 120.55C546.99615 122.206856 545.653 123.55 543.99615 123.55C542.3393 123.55 540.99615 122.206856 540.99615 120.55C540.99615 118.89314 542.3393 117.55 543.99615 117.55C545.653 117.55 546.99615 118.89314 546.99615 120.55Z" fill-rule="nonzero"/><path fill="#000000" fill-opacity="0.0" clip-path="url(#id_0)" d="M584.45 122.263336C584.45 123.92019 583.1069 125.263336 581.45 125.263336C579.79315 125.263336 578.45 123.92019 578.45 122.263336C578.45 120.606476 579.79315 119.263336 581.45 119.263336C583.1069 119.263336 584.45 120.606476 584.45 122.263336Z" fill-rule="nonzero"/><path fill="#000000" fill-opacity="0.0" clip-path="url(#id_0)" d="M97.55 239.2069C97.55 240.86375 96.206856 242.2069 94.55 242.2069C92.89314 242.2069 91.55 240.86375 91.55 239.2069C91.55 237.55005 92.89314 236.2069 94.55 236.2069C96.206856 236.2069 97.55 237.55005 97.55 239.2069Z" fill-rule="nonzero"/><path fill="#000000" fill-opacity="0.0" clip-path="url(#id_0)" d="M135.00385 263.5191C135.00385 265.17596 133.6607 266.5191 132.00385 266.5191C130.34698 266.5191 129.00385 265.17596 129.00385 263.5191C129.00385 261.86224 130.34698 260.5191 132.00385 260.5191C133.6607 260.5191 135.00385 261.86224 135.00385 263.5191Z" fill-rule="nonzero"/><path fill="#000000" fill-opacity="0.0" clip-path="url(#id_0)" d="M172.45769 238.1275C172.45769 239.78435 171.11455 241.1275 169.45769 241.1275C167.80084 241.1275 166.45769 239.78435 166.45769 238.1275C166.45769 236.47064 167.80084 235.1275 169.45769 235.1275C171.11455 235.1275 172.45769 236.47064 172.45769 238.1275Z" fill-rule="nonzero"/><path fill="#000000" fill-opacity="0.0" clip-path="url(#id_0)" d="M209.91154 277.74832C209.91154 279.40518 208.56839 280.74832 206.91154 280.74832C205.25468 280.74832 203.91154 279.40518 203.91154 277.74832C203.91154 276.0915 205.25468 274.74832 206.91154 274.74832C208.56839 274.74832 209.91154 276.0915 209.91154 277.74832Z" fill-rule="nonzero"/><path fill="#000000" fill-opacity="0.0" clip-path="url(#id_0)" d="M247.36539 267.1428C247.36539 268.79965 246.02223 270.1428 244.36539 270.1428C242.70853 270.1428 241.36539 268.79965 241.36539 267.1428C241.36539 265.48593 242.70853 264.1428 244.36539 264.1428C246.02223 264.1428 247.36539 265.48593 247.36539 267.1428Z" fill-rule="nonzero"/><path fill="#000000" fill-opacity="0.0" clip-path="url(#id_0)" d="M284.81924 253.33333C284.81924 254.99019 283.47607 256.33334 281.81924 256.33334C280.16238 256.33334 278.81924 254.99019 278.81924 253.33333C278.81924 251.67648 280.16238 250.33333 281.81924 250.33333C283.47607 250.33333 284.81924 251.67648 284.81924 253.33333Z" fill-rule="nonzero"/><path fill="#000000" fill-opacity="0.0" clip-path="url(#id_0)" d="M322.27307 255.90334C322.27307 257.56018 320.92993 258.90332 319.27307 258.90332C317.6162 258.90332 316.27307 257.56018 316.27307 255.90334C316.27307 254.24648 317.6162 252.90334 319.27307 252.90334C320.92993 252.90334 322.27307 254.24648 322.27307 255.90334Z" fill-rule="nonzero"/><path fill="#000000" fill-opacity="0.0" clip-path="url(#id_0)" d="M359.72693 259.33C359.72693 260.98685 358.3838 262.33 356.72693 262.33C355.07007 262.33 353.72693 260.98685 353.72693 259.33C353.72693 257.67316 355.07007 256.33 356.72693 256.33C358.3838 256.33 359.72693 257.67316 359.72693 259.33Z" fill-rule="nonzero"/><path fill="#000000" fill-opacity="0.0" clip-path="url(#id_0)" d="M397.18076 256.76C397.18076 258.41684 395.83762 259.76 394.18076 259.76C392.52393 259.76 391.18076 258.41684 391.18076 256.76C391.18076 255.10315 392.52393 253.76 394.18076 253.76C395.83762 253.76 397.18076 255.10315 397.18076 256.76Z" fill-rule="nonzero"/><path fill="#000000" fill-opacity="0.0" clip-path="url(#id_0)" d="M434.6346 257.61667C434.6346 259.27353 433.29147 260.61667 431.6346 260.61667C429.97775 260.61667 428.6346 259.27353 428.6346 257.61667C428.6346 255.95981 429.97775 254.61667 431.6346 254.61667C433.29147 254.61667 434.6346 255.95981 434.6346 257.61667Z" fill-rule="nonzero"/><path fill="#000000" fill-opacity="0.0" clip-path="url(#id_0)" d="M472.08847 257.61667C472.08847 259.27353 470.74533 260.61667 469.08847 260.61667C467.4316 260.61667 466.08847 259.27353 466.08847 257.61667C466.08847 255.95981 467.4316 254.61667 469.08847 254.61667C470.74533 254.61667 472.08847 255.95981 472.08847 257.61667Z" fill-rule="nonzero"/><path fill="#000000" fill-opacity="0.0" clip-path="url(#id_0)" d="M509.5423 269.61C509.5423 271.26685 508.19916 272.61 506.5423 272.61C504.88547 272.61 503.5423 271.26685 503.5423 269.61C503.5423 267.95316 504.88547 266.61 506.5423 266.61C508.19916 266.61 509.5423 267.95316 509.5423 269.61Z" fill-rule="nonzero"/><path fill="#000000" fill-opacity="0.0" clip-path="url(#id_0)" d="M546.99615 267.89667C546.99615 269.55353 545.653 270.89667 543.99615 270.89667C542.3393 270.89667 540.99615 269.55353 540.99615 267.89667C540.99615 266.2398 542.3393 264.89667 543.99615 264.89667C545.653 264.89667 546.99615 266.2398 546.99615 267.89667Z" fill-rule="nonzero"/><path fill="#000000" fill-opacity="0.0" clip-path="url(#id_0)" d="M584.45 271.32333C584.45 272.9802 583.1069 274.32333 581.45 274.32333C579.79315 274.32333 578.45 272.9802 578.45 271.32333C578.45 269.66647 579.79315 268.32333 581.45 268.32333C583.1069 268.32333 584.45 269.66647 584.45 271.32333Z" fill-rule="nonzero"/><path fill="#000000" d="M291.375 349.45L291.375 340.85626L294.60938 340.85626Q295.59375 340.85626 296.1875 341.1219Q296.78125 341.3875 297.10938 341.9344Q297.45312 342.46564 297.45312 343.0594Q297.45312 343.60626 297.15625 344.09064Q296.85938 344.575 296.25 344.8719Q297.03125 345.10626 297.4375 345.66876Q297.85938 346.21564 297.85938 346.96564Q297.85938 347.5594 297.60938 348.09064Q297.35938 348.60626 296.98438 348.8875Q296.60938 349.16876 296.03125 349.3094Q295.46875 349.45 294.65625 349.45L291.375 349.45ZM292.51562 344.46564L294.375 344.46564Q295.125 344.46564 295.45312 344.3719Q295.89062 344.2469 296.10938 343.95Q296.32812 343.6375 296.32812 343.1844Q296.32812 342.7625 296.125 342.4344Q295.92188 342.10626 295.53125 341.9969Q295.15625 341.8719 294.23438 341.8719L292.51562 341.8719L292.51562 344.46564ZM292.51562 348.4344L294.65625 348.4344Q295.20312 348.4344 295.42188 348.3875Q295.82812 348.325 296.07812 348.16876Q296.34375 347.9969 296.51562 347.6844Q296.6875 347.3719 296.6875 346.96564Q296.6875 346.48126 296.4375 346.1219Q296.20312 345.7625 295.76562 345.6219Q295.32812 345.48126 294.5 345.48126L292.51562 345.48126L292.51562 348.4344ZM299.26562 349.45L299.26562 340.85626L300.32812 340.85626L300.32812 349.45L299.26562 349.45ZM301.90625 346.34064Q301.90625 344.60626 302.85938 343.77814Q303.65625 343.09064 304.8125 343.09064Q306.09375 343.09064 306.90625 343.9344Q307.73438 344.7625 307.73438 346.2469Q307.73438 347.45 307.375 348.1375Q307.01562 348.825 306.3125 349.21564Q305.625 349.59064 304.8125 349.59064Q303.51562 349.59064 302.70312 348.7625Q301.90625 347.91876 301.90625 346.34064ZM302.98438 346.34064Q302.98438 347.52814 303.5 348.1219Q304.03125 348.71564 304.8125 348.71564Q305.60938 348.71564 306.125 348.1219Q306.64062 347.52814 306.64062 346.3094Q306.64062 345.15314 306.10938 344.5594Q305.59375 343.96564 304.8125 343.96564Q304.03125 343.96564 303.5 344.5594Q302.98438 345.1375 302.98438 346.34064ZM313.35938 347.16876L314.39062 347.3094Q314.21875 348.3719 313.51562 348.98126Q312.8125 349.59064 311.79688 349.59064Q310.51562 349.59064 309.73438 348.7625Q308.96875 347.91876 308.96875 346.35626Q308.96875 345.35626 309.29688 344.60626Q309.64062 343.84064 310.3125 343.46564Q311.0 343.09064 311.8125 343.09064Q312.8125 343.09064 313.45312 343.60626Q314.10938 344.10626 314.29688 345.0594L313.26562 345.21564Q313.125 344.59064 312.75 344.27814Q312.375 343.95 311.84375 343.95Q311.04688 343.95 310.54688 344.52814Q310.04688 345.09064 310.04688 346.325Q310.04688 347.59064 310.53125 348.15314Q311.01562 348.71564 311.78125 348.71564Q312.40625 348.71564 312.8125 348.34064Q313.23438 347.96564 313.35938 347.16876ZM315.29688 349.45L315.29688 340.85626L316.35938 340.85626L316.35938 345.7625L318.84375 343.23126L320.21875 343.23126L317.82812 345.52814L320.45312 349.45L319.15625 349.45L317.09375 346.2625L316.35938 346.98126L316.35938 349.45L315.29688 349.45ZM323.875 347.59064L324.90625 347.4344Q325.0 348.0594 325.39062 348.3875Q325.79688 348.71564 326.53125 348.71564Q327.25 348.71564 327.59375 348.4344Q327.95312 348.1375 327.95312 347.73126Q327.95312 347.3719 327.64062 347.16876Q327.42188 347.02814 326.5625 346.8094Q325.40625 346.5125 324.95312 346.3094Q324.51562 346.09064 324.28125 345.71564Q324.04688 345.34064 324.04688 344.8719Q324.04688 344.46564 324.23438 344.10626Q324.42188 343.7469 324.75 343.5125Q325.0 343.34064 325.42188 343.21564Q325.84375 343.09064 326.34375 343.09064Q327.0625 343.09064 327.60938 343.3094Q328.17188 343.5125 328.4375 343.8719Q328.70312 344.23126 328.79688 344.825L327.76562 344.96564Q327.70312 344.4969 327.35938 344.23126Q327.03125 343.95 326.40625 343.95Q325.6875 343.95 325.375 344.2Q325.0625 344.4344 325.0625 344.7625Q325.0625 344.96564 325.1875 345.1219Q325.32812 345.29376 325.59375 345.40314Q325.75 345.46564 326.53125 345.66876Q327.65625 345.98126 328.09375 346.16876Q328.53125 346.35626 328.78125 346.71564Q329.03125 347.075 329.03125 347.6219Q329.03125 348.15314 328.71875 348.6219Q328.42188 349.075 327.84375 349.34064Q327.26562 349.59064 326.53125 349.59064Q325.3125 349.59064 324.67188 349.09064Q324.04688 348.575 323.875 347.59064ZM331.29688 342.075L331.29688 340.85626L332.35938 340.85626L332.35938 342.075L331.29688 342.075ZM331.29688 349.45L331.29688 343.23126L332.35938 343.23126L332.35938 349.45L331.29688 349.45ZM333.73438 349.45L333.73438 348.59064L337.70312 344.04376Q337.01562 344.075 336.5 344.075L333.96875 344.075L333.96875 343.23126L339.0625 343.23126L339.0625 343.91876L335.6875 347.8719L335.03125 348.59064Q335.75 348.54376 336.35938 348.54376L339.25 348.54376L339.25 349.45L333.73438 349.45ZM343.54688 347.45L344.64062 347.575Q344.39062 348.52814 343.6875 349.0594Q342.98438 349.59064 341.90625 349.59064Q340.54688 349.59064 339.73438 348.7469Q338.9375 347.90314 338.9375 346.3875Q338.9375 344.825 339.75 343.96564Q340.5625 343.09064 341.84375 343.09064Q343.09375 343.09064 343.875 343.9344Q344.67188 344.77814 344.67188 346.325Q344.67188 346.41876 344.67188 346.60626L340.03125 346.60626Q340.09375 347.6375 340.60938 348.1844Q341.125 348.71564 341.90625 348.71564Q342.48438 348.71564 342.89062 348.41876Q343.3125 348.10626 343.54688 347.45ZM340.09375 345.7469L343.5625 345.7469Q343.5 344.95 343.17188 344.5594Q342.65625 343.95 341.85938 343.95Q341.125 343.95 340.625 344.4344Q340.14062 344.91876 340.09375 345.7469ZM351.3125 351.98126Q350.4375 350.8719 349.82812 349.40314Q349.23438 347.91876 349.23438 346.34064Q349.23438 344.95 349.67188 343.66876Q350.20312 342.1844 351.3125 340.71564L352.0625 340.71564Q351.35938 341.9344 351.125 342.45Q350.76562 343.2625 350.5625 344.1375Q350.3125 345.23126 350.3125 346.34064Q350.3125 349.16876 352.0625 351.98126L351.3125 351.98126ZM354.26562 349.45L353.28125 349.45L353.28125 340.85626L354.34375 340.85626L354.34375 343.91876Q355.01562 343.09064 356.04688 343.09064Q356.625 343.09064 357.125 343.325Q357.64062 343.54376 357.96875 343.96564Q358.3125 344.3875 358.5 344.98126Q358.6875 345.575 358.6875 346.2469Q358.6875 347.84064 357.89062 348.71564Q357.09375 349.59064 356.0 349.59064Q354.89062 349.59064 354.26562 348.66876L354.26562 349.45ZM354.25 346.29376Q354.25 347.40314 354.5625 347.90314Q355.0625 348.71564 355.90625 348.71564Q356.59375 348.71564 357.09375 348.1219Q357.60938 347.52814 357.60938 346.325Q357.60938 345.10626 357.125 344.52814Q356.64062 343.95 355.95312 343.95Q355.26562 343.95 354.75 344.5594Q354.25 345.15314 354.25 346.29376ZM360.25 351.84064L360.125 350.85626Q360.46875 350.95 360.73438 350.95Q361.07812 350.95 361.28125 350.825Q361.5 350.71564 361.64062 350.5125Q361.73438 350.34064 361.96875 349.71564Q361.98438 349.6375 362.0625 349.46564L359.6875 343.23126L360.82812 343.23126L362.125 346.825Q362.375 347.5125 362.57812 348.27814Q362.76562 347.54376 363.01562 346.85626L364.34375 343.23126L365.39062 343.23126L363.03125 349.5594Q362.64062 350.575 362.4375 350.96564Q362.15625 351.4969 361.78125 351.73126Q361.42188 351.98126 360.92188 351.98126Q360.625 351.98126 360.25 351.84064ZM367.59375 348.5125L367.75 349.4344Q367.29688 349.52814 366.95312 349.52814Q366.375 349.52814 366.0625 349.35626Q365.75 349.16876 365.60938 348.8719Q365.48438 348.575 365.48438 347.6219L365.48438 344.04376L364.71875 344.04376L364.71875 343.23126L365.48438 343.23126L365.48438 341.6844L366.53125 341.0594L366.53125 343.23126L367.59375 343.23126L367.59375 344.04376L366.53125 344.04376L366.53125 347.6844Q366.53125 348.1375 366.57812 348.2625Q366.64062 348.3875 366.76562 348.46564Q366.89062 348.54376 367.125 348.54376Q367.3125 348.54376 367.59375 348.5125ZM372.54688 347.45L373.64062 347.575Q373.39062 348.52814 372.6875 349.0594Q371.98438 349.59064 370.90625 349.59064Q369.54688 349.59064 368.73438 348.7469Q367.9375 347.90314 367.9375 346.3875Q367.9375 344.825 368.75 343.96564Q369.5625 343.09064 370.84375 343.09064Q372.09375 343.09064 372.875 343.9344Q373.67188 344.77814 373.67188 346.325Q373.67188 346.41876 373.67188 346.60626L369.03125 346.60626Q369.09375 347.6375 369.60938 348.1844Q370.125 348.71564 370.90625 348.71564Q371.48438 348.71564 371.89062 348.41876Q372.3125 348.10626 372.54688 347.45ZM369.09375 345.7469L372.5625 345.7469Q372.5 344.95 372.17188 344.5594Q371.65625 343.95 370.85938 343.95Q370.125 343.95 369.625 344.4344Q369.14062 344.91876 369.09375 345.7469ZM374.875 347.59064L375.90625 347.4344Q376.0 348.0594 376.39062 348.3875Q376.79688 348.71564 377.53125 348.71564Q378.25 348.71564 378.59375 348.4344Q378.95312 348.1375 378.95312 347.73126Q378.95312 347.3719 378.64062 347.16876Q378.42188 347.02814 377.5625 346.8094Q376.40625 346.5125 375.95312 346.3094Q375.51562 346.09064 375.28125 345.71564Q375.04688 345.34064 375.04688 344.8719Q375.04688 344.46564 375.23438 344.10626Q375.42188 343.7469 375.75 343.5125Q376.0 343.34064 376.42188 343.21564Q376.84375 343.09064 377.34375 343.09064Q378.0625 343.09064 378.60938 343.3094Q379.17188 343.5125 379.4375 343.8719Q379.70312 344.23126 379.79688 344.825L378.76562 344.96564Q378.70312 344.4969 378.35938 344.23126Q378.03125 343.95 377.40625 343.95Q376.6875 343.95 376.375 344.2Q376.0625 344.4344 376.0625 344.7625Q376.0625 344.96564 376.1875 345.1219Q376.32812 345.29376 376.59375 345.40314Q376.75 345.46564 377.53125 345.66876Q378.65625 345.98126 379.09375 346.16876Q379.53125 346.35626 379.78125 346.71564Q380.03125 347.075 380.03125 347.6219Q380.03125 348.15314 379.71875 348.6219Q379.42188 349.075 378.84375 349.34064Q378.26562 349.59064 377.53125 349.59064Q376.3125 349.59064 375.67188 349.09064Q375.04688 348.575 374.875 347.59064ZM382.98438 351.98126L382.23438 351.98126Q383.98438 349.16876 383.98438 346.34064Q383.98438 345.2469 383.73438 344.15314Q383.53125 343.27814 383.17188 342.46564Q382.9375 341.95 382.23438 340.71564L382.98438 340.71564Q384.07812 342.1844 384.60938 343.66876Q385.0625 344.95 385.0625 346.34064Q385.0625 347.91876 384.45312 349.40314Q383.84375 350.8719 382.98438 351.98126Z" fill-rule="nonzero"/><path fill="#000000" d="M29.550013 280.74167L20.956263 280.74167L20.956263 279.61667L29.550013 279.61667L29.550013 280.74167ZM29.550013 278.0698L23.331263 278.0698L23.331263 277.1323L24.206263 277.1323Q23.190638 276.4448 23.190638 275.14792Q23.190638 274.58542 23.393763 274.11667Q23.596888 273.6323 23.925013 273.39792Q24.253138 273.16354 24.690638 273.0698Q24.987513 273.02292 25.721888 273.02292L29.550013 273.02292L29.550013 274.0698L25.768763 274.0698Q25.112513 274.0698 24.800013 274.1948Q24.487513 274.3198 24.300013 274.6323Q24.096888 274.9448 24.096888 275.36667Q24.096888 276.03854 24.534388 276.53854Q24.956263 277.02292 26.143763 277.02292L29.550013 277.02292L29.550013 278.0698ZM27.690638 271.49167L27.534388 270.46042Q28.159388 270.36667 28.487513 269.97604Q28.815638 269.5698 28.815638 268.83542Q28.815638 268.11667 28.534388 267.77292Q28.237513 267.41354 27.831263 267.41354Q27.471888 267.41354 27.268763 267.72604Q27.128138 267.9448 26.909388 268.80417Q26.612513 269.96042 26.409388 270.41354Q26.190638 270.85104 25.815638 271.08542Q25.440638 271.3198 24.971888 271.3198Q24.565638 271.3198 24.206263 271.1323Q23.846888 270.9448 23.612513 270.61667Q23.440638 270.36667 23.315638 269.9448Q23.190638 269.52292 23.190638 269.02292Q23.190638 268.30417 23.409388 267.7573Q23.612513 267.1948 23.971888 266.92917Q24.331263 266.66354 24.925013 266.5698L25.065638 267.60104Q24.596888 267.66354 24.331263 268.0073Q24.050013 268.33542 24.050013 268.96042Q24.050013 269.67917 24.300013 269.99167Q24.534388 270.30417 24.862513 270.30417Q25.065638 270.30417 25.221888 270.17917Q25.393763 270.03854 25.503138 269.77292Q25.565638 269.61667 25.768763 268.83542Q26.081263 267.71042 26.268763 267.27292Q26.456263 266.83542 26.815638 266.58542Q27.175013 266.33542 27.721888 266.33542Q28.253138 266.33542 28.721888 266.64792Q29.175013 266.9448 29.440638 267.52292Q29.690638 268.10104 29.690638 268.83542Q29.690638 270.05417 29.190638 270.6948Q28.675013 271.3198 27.690638 271.49167ZM28.612513 261.77292L29.534388 261.61667Q29.628138 262.0698 29.628138 262.41354Q29.628138 262.99167 29.456263 263.30417Q29.268763 263.61667 28.971888 263.7573Q28.675013 263.8823 27.721888 263.8823L24.143763 263.8823L24.143763 264.64792L23.331263 264.64792L23.331263 263.8823L21.784388 263.8823L21.159388 262.83542L23.331263 262.83542L23.331263 261.77292L24.143763 261.77292L24.143763 262.83542L27.784388 262.83542Q28.237513 262.83542 28.362513 262.78854Q28.487513 262.72604 28.565638 262.60104Q28.643763 262.47604 28.643763 262.24167Q28.643763 262.05417 28.612513 261.77292ZM29.550013 261.08542L23.331263 261.08542L23.331263 260.1323L24.268763 260.1323Q23.612513 259.77292 23.409388 259.47604Q23.190638 259.16354 23.190638 258.78854Q23.190638 258.2573 23.518763 257.71042L24.503138 258.0698Q24.268763 258.46042 24.268763 258.83542Q24.268763 259.1948 24.487513 259.47604Q24.690638 259.74167 25.065638 259.85104Q25.628138 260.03854 26.284388 260.03854L29.550013 260.03854L29.550013 261.08542ZM29.550013 252.99167L28.628138 252.99167Q29.690638 253.72604 29.690638 254.97604Q29.690638 255.52292 29.487513 256.0073Q29.268763 256.47604 28.956263 256.71042Q28.628138 256.9448 28.159388 257.03854Q27.862513 257.10104 27.175013 257.10104L23.331263 257.10104L23.331263 256.03854L26.784388 256.03854Q27.596888 256.03854 27.893763 255.97604Q28.300013 255.8823 28.550013 255.5698Q28.784388 255.24167 28.784388 254.7573Q28.784388 254.28854 28.550013 253.8823Q28.300013 253.46042 27.878138 253.28854Q27.456263 253.10104 26.659388 253.10104L23.331263 253.10104L23.331263 252.05417L29.550013 252.05417L29.550013 252.99167ZM27.268763 246.0073L27.409388 244.97604Q28.471888 245.14792 29.081263 245.85104Q29.690638 246.55417 29.690638 247.5698Q29.690638 248.85104 28.862513 249.6323Q28.018763 250.39792 26.456263 250.39792Q25.456263 250.39792 24.706263 250.0698Q23.940638 249.72604 23.565638 249.05417Q23.190638 248.36667 23.190638 247.55417Q23.190638 246.55417 23.706263 245.91354Q24.206263 245.2573 25.159388 245.0698L25.315638 246.10104Q24.690638 246.24167 24.378138 246.61667Q24.050013 246.99167 24.050013 247.52292Q24.050013 248.3198 24.628138 248.8198Q25.190638 249.3198 26.425013 249.3198Q27.690638 249.3198 28.253138 248.83542Q28.815638 248.35104 28.815638 247.58542Q28.815638 246.96042 28.440638 246.55417Q28.065638 246.1323 27.268763 246.0073ZM28.612513 241.77292L29.534388 241.61667Q29.628138 242.0698 29.628138 242.41354Q29.628138 242.99167 29.456263 243.30417Q29.268763 243.61667 28.971888 243.7573Q28.675013 243.8823 27.721888 243.8823L24.143763 243.8823L24.143763 244.64792L23.331263 244.64792L23.331263 243.8823L21.784388 243.8823L21.159388 242.83542L23.331263 242.83542L23.331263 241.77292L24.143763 241.77292L24.143763 242.83542L27.784388 242.83542Q28.237513 242.83542 28.362513 242.78854Q28.487513 242.72604 28.565638 242.60104Q28.643763 242.47604 28.643763 242.24167Q28.643763 242.05417 28.612513 241.77292ZM22.175013 241.0698L20.956263 241.0698L20.956263 240.0073L22.175013 240.0073L22.175013 241.0698ZM29.550013 241.0698L23.331263 241.0698L23.331263 240.0073L29.550013 240.0073L29.550013 241.0698ZM26.440638 238.46042Q24.706263 238.46042 23.878138 237.5073Q23.190638 236.71042 23.190638 235.55417Q23.190638 234.27292 24.034388 233.46042Q24.862513 232.6323 26.346888 232.6323Q27.550013 232.6323 28.237513 232.99167Q28.925013 233.35104 29.315638 234.05417Q29.690638 234.74167 29.690638 235.55417Q29.690638 236.85104 28.862513 237.66354Q28.018763 238.46042 26.440638 238.46042ZM26.440638 237.3823Q27.628138 237.3823 28.221888 236.86667Q28.815638 236.33542 28.815638 235.55417Q28.815638 234.7573 28.221888 234.24167Q27.628138 233.72604 26.409388 233.72604Q25.253138 233.72604 24.659388 234.2573Q24.065638 234.77292 24.065638 235.55417Q24.065638 236.33542 24.659388 236.86667Q25.237513 237.3823 26.440638 237.3823ZM29.550013 231.0698L23.331263 231.0698L23.331263 230.1323L24.206263 230.1323Q23.190638 229.4448 23.190638 228.14792Q23.190638 227.58542 23.393763 227.11667Q23.596888 226.6323 23.925013 226.39792Q24.253138 226.16354 24.690638 226.0698Q24.987513 226.02292 25.721888 226.02292L29.550013 226.02292L29.550013 227.0698L25.768763 227.0698Q25.112513 227.0698 24.800013 227.1948Q24.487513 227.3198 24.300013 227.6323Q24.096888 227.9448 24.096888 228.36667Q24.096888 229.03854 24.534388 229.53854Q24.956263 230.02292 26.143763 230.02292L29.550013 230.02292L29.550013 231.0698ZM27.550013 216.8198L27.675013 215.72604Q28.628138 215.97604 29.159388 216.67917Q29.690638 217.3823 29.690638 218.46042Q29.690638 219.8198 28.846888 220.6323Q28.003138 221.42917 26.487513 221.42917Q24.925013 221.42917 24.065638 220.61667Q23.190638 219.80417 23.190638 218.52292Q23.190638 217.27292 24.034388 216.49167Q24.878138 215.6948 26.425013 215.6948Q26.518763 215.6948 26.706263 215.6948L26.706263 220.33542Q27.737513 220.27292 28.284388 219.7573Q28.815638 219.24167 28.815638 218.46042Q28.815638 217.8823 28.518763 217.47604Q28.206263 217.05417 27.550013 216.8198ZM25.846888 220.27292L25.846888 216.80417Q25.050013 216.86667 24.659388 217.1948Q24.050013 217.71042 24.050013 218.5073Q24.050013 219.24167 24.534388 219.74167Q25.018763 220.22604 25.846888 220.27292ZM29.550013 214.77292L26.315638 212.5073L23.331263 214.60104L23.331263 213.28854L24.784388 212.33542Q25.206263 212.0698 25.487513 211.89792Q25.096888 211.64792 24.800013 211.42917L23.331263 210.3823L23.331263 209.11667L26.253138 211.27292L29.550013 208.96042L29.550013 210.24167L27.612513 211.52292L27.096888 211.86667L29.550013 213.5073L29.550013 214.77292ZM27.550013 204.8198L27.675013 203.72604Q28.628138 203.97604 29.159388 204.67917Q29.690638 205.3823 29.690638 206.46042Q29.690638 207.8198 28.846888 208.6323Q28.003138 209.42917 26.487513 209.42917Q24.925013 209.42917 24.065638 208.61667Q23.190638 207.80417 23.190638 206.52292Q23.190638 205.27292 24.034388 204.49167Q24.878138 203.6948 26.425013 203.6948Q26.518763 203.6948 26.706263 203.6948L26.706263 208.33542Q27.737513 208.27292 28.284388 207.7573Q28.815638 207.24167 28.815638 206.46042Q28.815638 205.8823 28.518763 205.47604Q28.206263 205.05417 27.550013 204.8198ZM25.846888 208.27292L25.846888 204.80417Q25.050013 204.86667 24.659388 205.1948Q24.050013 205.71042 24.050013 206.5073Q24.050013 207.24167 24.534388 207.74167Q25.018763 208.22604 25.846888 208.27292ZM27.268763 198.0073L27.409388 196.97604Q28.471888 197.14792 29.081263 197.85104Q29.690638 198.55417 29.690638 199.5698Q29.690638 200.85104 28.862513 201.6323Q28.018763 202.39792 26.456263 202.39792Q25.456263 202.39792 24.706263 202.0698Q23.940638 201.72604 23.565638 201.05417Q23.190638 200.36667 23.190638 199.55417Q23.190638 198.55417 23.706263 197.91354Q24.206263 197.2573 25.159388 197.0698L25.315638 198.10104Q24.690638 198.24167 24.378138 198.61667Q24.050013 198.99167 24.050013 199.52292Q24.050013 200.3198 24.628138 200.8198Q25.190638 201.3198 26.425013 201.3198Q27.690638 201.3198 28.253138 200.83542Q28.815638 200.35104 28.815638 199.58542Q28.815638 198.96042 28.440638 198.55417Q28.065638 198.1323 27.268763 198.0073ZM29.550013 191.99167L28.628138 191.99167Q29.690638 192.72604 29.690638 193.97604Q29.690638 194.52292 29.487513 195.0073Q29.268763 195.47604 28.956263 195.71042Q28.628138 195.9448 28.159388 196.03854Q27.862513 196.10104 27.175013 196.10104L23.331263 196.10104L23.331263 195.03854L26.784388 195.03854Q27.596888 195.03854 27.893763 194.97604Q28.300013 194.8823 28.550013 194.5698Q28.784388 194.24167 28.784388 193.7573Q28.784388 193.28854 28.550013 192.8823Q28.300013 192.46042 27.878138 192.28854Q27.456263 192.10104 26.659388 192.10104L23.331263 192.10104L23.331263 191.05417L29.550013 191.05417L29.550013 191.99167ZM28.612513 186.77292L29.534388 186.61667Q29.628138 187.0698 29.628138 187.41354Q29.628138 187.99167 29.456263 188.30417Q29.268763 188.61667 28.971888 188.7573Q28.675013 188.8823 27.721888 188.8823L24.143763 188.8823L24.143763 189.64792L23.331263 189.64792L23.331263 188.8823L21.784388 188.8823L21.159388 187.83542L23.331263 187.83542L23.331263 186.77292L24.143763 186.77292L24.143763 187.83542L27.784388 187.83542Q28.237513 187.83542 28.362513 187.78854Q28.487513 187.72604 28.565638 187.60104Q28.643763 187.47604 28.643763 187.24167Q28.643763 187.05417 28.612513 186.77292ZM22.175013 186.0698L20.956263 186.0698L20.956263 185.0073L22.175013 185.0073L22.175013 186.0698ZM29.550013 186.0698L23.331263 186.0698L23.331263 185.0073L29.550013 185.0073L29.550013 186.0698ZM26.440638 183.46042Q24.706263 183.46042 23.878138 182.5073Q23.190638 181.71042 23.190638 180.55417Q23.190638 179.27292 24.034388 178.46042Q24.862513 177.6323 26.346888 177.6323Q27.550013 177.6323 28.237513 177.99167Q28.925013 178.35104 29.315638 179.05417Q29.690638 179.74167 29.690638 180.55417Q29.690638 181.85104 28.862513 182.66354Q28.018763 183.46042 26.440638 183.46042ZM26.440638 182.3823Q27.628138 182.3823 28.221888 181.86667Q28.815638 181.33542 28.815638 180.55417Q28.815638 179.7573 28.221888 179.24167Q27.628138 178.72604 26.409388 178.72604Q25.253138 178.72604 24.659388 179.2573Q24.065638 179.77292 24.065638 180.55417Q24.065638 181.33542 24.659388 181.86667Q25.237513 182.3823 26.440638 182.3823ZM29.550013 176.0698L23.331263 176.0698L23.331263 175.1323L24.206263 175.1323Q23.190638 174.4448 23.190638 173.14792Q23.190638 172.58542 23.393763 172.11667Q23.596888 171.6323 23.925013 171.39792Q24.253138 171.16354 24.690638 171.0698Q24.987513 171.02292 25.721888 171.02292L29.550013 171.02292L29.550013 172.0698L25.768763 172.0698Q25.112513 172.0698 24.800013 172.1948Q24.487513 172.3198 24.300013 172.6323Q24.096888 172.9448 24.096888 173.36667Q24.096888 174.03854 24.534388 174.53854Q24.956263 175.02292 26.143763 175.02292L29.550013 175.02292L29.550013 176.0698ZM28.612513 163.77292L29.534388 163.61667Q29.628138 164.0698 29.628138 164.41354Q29.628138 164.99167 29.456263 165.30417Q29.268763 165.61667 28.971888 165.7573Q28.675013 165.8823 27.721888 165.8823L24.143763 165.8823L24.143763 166.64792L23.331263 166.64792L23.331263 165.8823L21.784388 165.8823L21.159388 164.83542L23.331263 164.83542L23.331263 163.77292L24.143763 163.77292L24.143763 164.83542L27.784388 164.83542Q28.237513 164.83542 28.362513 164.78854Q28.487513 164.72604 28.565638 164.60104Q28.643763 164.47604 28.643763 164.24167Q28.643763 164.05417 28.612513 163.77292ZM22.175013 163.0698L20.956263 163.0698L20.956263 162.0073L22.175013 162.0073L22.175013 163.0698ZM29.550013 163.0698L23.331263 163.0698L23.331263 162.0073L29.550013 162.0073L29.550013 163.0698ZM29.550013 160.0698L23.331263 160.0698L23.331263 159.1323L24.206263 159.1323Q23.737513 158.83542 23.471888 158.35104Q23.190638 157.86667 23.190638 157.24167Q23.190638 156.55417 23.471888 156.11667Q23.753138 155.66354 24.268763 155.49167Q23.190638 154.74167 23.190638 153.5698Q23.190638 152.6323 23.706263 152.14792Q24.206263 151.64792 25.284388 151.64792L29.550013 151.64792L29.550013 152.6948L25.628138 152.6948Q25.003138 152.6948 24.721888 152.80417Q24.440638 152.89792 24.268763 153.16354Q24.096888 153.42917 24.096888 153.80417Q24.096888 154.46042 24.534388 154.89792Q24.971888 155.3198 25.940638 155.3198L29.550013 155.3198L29.550013 156.3823L25.503138 156.3823Q24.800013 156.3823 24.456263 156.64792Q24.096888 156.89792 24.096888 157.47604Q24.096888 157.92917 24.331263 158.30417Q24.565638 158.67917 25.018763 158.85104Q25.471888 159.02292 26.315638 159.02292L29.550013 159.02292L29.550013 160.0698ZM27.550013 144.8198L27.675013 143.72604Q28.628138 143.97604 29.159388 144.67917Q29.690638 145.3823 29.690638 146.46042Q29.690638 147.8198 28.846888 148.6323Q28.003138 149.42917 26.487513 149.42917Q24.925013 149.42917 24.065638 148.61667Q23.190638 147.80417 23.190638 146.52292Q23.190638 145.27292 24.034388 144.49167Q24.878138 143.6948 26.425013 143.6948Q26.518763 143.6948 26.706263 143.6948L26.706263 148.33542Q27.737513 148.27292 28.284388 147.7573Q28.815638 147.24167 28.815638 146.46042Q28.815638 145.8823 28.518763 145.47604Q28.206263 145.05417 27.550013 144.8198ZM25.846888 148.27292L25.846888 144.80417Q25.050013 144.86667 24.659388 145.1948Q24.050013 145.71042 24.050013 146.5073Q24.050013 147.24167 24.534388 147.74167Q25.018763 148.22604 25.846888 148.27292ZM32.08126 137.05417Q30.971888 137.92917 29.503138 138.53854Q28.018763 139.1323 26.440638 139.1323Q25.050013 139.1323 23.768763 138.6948Q22.284388 138.16354 20.815638 137.05417L20.815638 136.30417Q22.034388 137.0073 22.550013 137.24167Q23.362513 137.60104 24.237513 137.80417Q25.331263 138.05417 26.440638 138.05417Q29.268763 138.05417 32.08126 136.30417L32.08126 137.05417ZM29.550013 135.0698L23.331263 135.0698L23.331263 134.1323L24.206263 134.1323Q23.190638 133.4448 23.190638 132.14792Q23.190638 131.58542 23.393763 131.11667Q23.596888 130.6323 23.925013 130.39792Q24.253138 130.16354 24.690638 130.0698Q24.987513 130.02292 25.721888 130.02292L29.550013 130.02292L29.550013 131.0698L25.768763 131.0698Q25.112513 131.0698 24.800013 131.1948Q24.487513 131.3198 24.300013 131.6323Q24.096888 131.9448 24.096888 132.36667Q24.096888 133.03854 24.534388 133.53854Q24.956263 134.02292 26.143763 134.02292L29.550013 134.02292L29.550013 135.0698ZM27.690638 128.49167L27.534388 127.46042Q28.159388 127.36667 28.487513 126.97604Q28.815638 126.56979 28.815638 125.83542Q28.815638 125.11667 28.534388 124.77292Q28.237513 124.41354 27.831263 124.41354Q27.471888 124.41354 27.268763 124.72604Q27.128138 124.94479 26.909388 125.80417Q26.612513 126.96042 26.409388 127.41354Q26.190638 127.85104 25.815638 128.08542Q25.440638 128.3198 24.971888 128.3198Q24.565638 128.3198 24.206263 128.1323Q23.846888 127.94479 23.612513 127.61667Q23.440638 127.36667 23.315638 126.94479Q23.190638 126.52292 23.190638 126.02292Q23.190638 125.30417 23.409388 124.75729Q23.612513 124.19479 23.971888 123.92917Q24.331263 123.66354 24.925013 123.56979L25.065638 124.60104Q24.596888 124.66354 24.331263 125.00729Q24.050013 125.33542 24.050013 125.96042Q24.050013 126.67917 24.300013 126.99167Q24.534388 127.30417 24.862513 127.30417Q25.065638 127.30417 25.221888 127.17917Q25.393763 127.03854 25.503138 126.77292Q25.565638 126.61667 25.768763 125.83542Q26.081263 124.71042 26.268763 124.27292Q26.456263 123.83542 26.815638 123.58542Q27.175013 123.33542 27.721888 123.33542Q28.253138 123.33542 28.721888 123.64792Q29.175013 123.94479 29.440638 124.52292Q29.690638 125.10104 29.690638 125.83542Q29.690638 127.05417 29.190638 127.69479Q28.675013 128.3198 27.690638 128.49167ZM32.08126 120.38229L32.08126 121.13229Q29.268763 119.38229 26.440638 119.38229Q25.346888 119.38229 24.253138 119.63229Q23.378138 119.83542 22.565638 120.19479Q22.050013 120.42917 20.815638 121.13229L20.815638 120.38229Q22.284388 119.28854 23.768763 118.75729Q25.050013 118.30417 26.440638 118.30417Q28.018763 118.30417 29.503138 118.91354Q30.971888 119.52292 32.08126 120.38229Z" fill-rule="nonzero"/><path fill="#000000" d="M84.925 301.8719L84.925 300.8094L88.175 300.8094L88.175 301.8719L84.925 301.8719Z" fill-rule="nonzero"/><path fill="#000000" d="M58.05 259.36667L59.159374 259.27292Q59.284374 260.08542 59.721874 260.49167Q60.175 260.89792 60.815624 260.89792Q61.565624 260.89792 62.096874 260.3198Q62.628124 259.74167 62.628124 258.80417Q62.628124 257.89792 62.1125 257.3823Q61.6125 256.85104 60.784374 256.85104Q60.284374 256.85104 59.8625 257.08542Q59.45625 257.3198 59.221874 257.67917L58.2375 257.55417L59.065624 253.14792L63.346874 253.14792L63.346874 254.14792L59.909374 254.14792L59.45625 256.46042Q60.221874 255.91354 61.065624 255.91354Q62.190624 255.91354 62.95625 256.6948Q63.7375 257.47604 63.7375 258.71042Q63.7375 259.86667 63.065624 260.72604Q62.2375 261.7573 60.815624 261.7573Q59.64375 261.7573 58.89375 261.10104Q58.159374 260.4448 58.05 259.36667ZM65.05 257.3823Q65.05 255.85104 65.3625 254.92917Q65.675 253.99167 66.28438 253.49167Q66.90938 252.99167 67.84688 252.99167Q68.53438 252.99167 69.05 253.27292Q69.58125 253.55417 69.925 254.08542Q70.26875 254.60104 70.45625 255.35104Q70.64375 256.10104 70.64375 257.3823Q70.64375 258.89792 70.33125 259.8198Q70.03438 260.74167 69.40938 261.2573Q68.8 261.7573 67.84688 261.7573Q66.6125 261.7573 65.89375 260.86667Q65.05 259.80417 65.05 257.3823ZM66.12813 257.3823Q66.12813 259.49167 66.62813 260.1948Q67.12813 260.89792 67.84688 260.89792Q68.58125 260.89792 69.06563 260.1948Q69.56563 259.49167 69.56563 257.3823Q69.56563 255.2573 69.06563 254.5698Q68.58125 253.86667 67.83125 253.86667Q67.1125 253.86667 66.675 254.47604Q66.12813 255.2573 66.12813 257.3823ZM72.64375 261.61667L72.64375 260.41354L73.84688 260.41354L73.84688 261.61667L72.64375 261.61667ZM75.05 257.3823Q75.05 255.85104 75.3625 254.92917Q75.675 253.99167 76.28438 253.49167Q76.90938 252.99167 77.84688 252.99167Q78.53438 252.99167 79.05 253.27292Q79.58125 253.55417 79.925 254.08542Q80.26875 254.60104 80.45625 255.35104Q80.64375 256.10104 80.64375 257.3823Q80.64375 258.89792 80.33125 259.8198Q80.03438 260.74167 79.40938 261.2573Q78.8 261.7573 77.84688 261.7573Q76.6125 261.7573 75.89375 260.86667Q75.05 259.80417 75.05 257.3823ZM76.12813 257.3823Q76.12813 259.49167 76.62813 260.1948Q77.12813 260.89792 77.84688 260.89792Q78.58125 260.89792 79.06563 260.1948Q79.56563 259.49167 79.56563 257.3823Q79.56563 255.2573 79.06563 254.5698Q78.58125 253.86667 77.83125 253.86667Q77.1125 253.86667 76.675 254.47604Q76.12813 255.2573 76.12813 257.3823ZM82.05 257.3823Q82.05 255.85104 82.3625 254.92917Q82.675 253.99167 83.28438 253.49167Q83.90938 252.99167 84.84688 252.99167Q85.53438 252.99167 86.05 253.27292Q86.58125 253.55417 86.925 254.08542Q87.26875 254.60104 87.45625 255.35104Q87.64375 256.10104 87.64375 257.3823Q87.64375 258.89792 87.33125 259.8198Q87.03438 260.74167 86.40938 261.2573Q85.8 261.7573 84.84688 261.7573Q83.6125 261.7573 82.89375 260.86667Q82.05 259.80417 82.05 257.3823ZM83.12813 257.3823Q83.12813 259.49167 83.62813 260.1948Q84.12813 260.89792 84.84688 260.89792Q85.58125 260.89792 86.06563 260.1948Q86.56563 259.49167 86.56563 257.3823Q86.56563 255.2573 86.06563 254.5698Q85.58125 253.86667 84.83125 253.86667Q84.1125 253.86667 83.675 254.47604Q83.12813 255.2573 83.12813 257.3823Z" fill-rule="nonzero"/><path fill="#000000" d="M55.01875 218.78334L53.971874 218.78334L53.971874 212.06459Q53.58125 212.42397 52.95625 212.79897Q52.346874 213.15834 51.8625 213.33022L51.8625 212.31459Q52.7375 211.89272 53.39375 211.31459Q54.065624 210.72084 54.346874 210.15834L55.01875 210.15834L55.01875 218.78334ZM58.05 214.54897Q58.05 213.01772 58.3625 212.09584Q58.675 211.15834 59.284374 210.65834Q59.909374 210.15834 60.846874 210.15834Q61.534374 210.15834 62.05 210.43959Q62.58125 210.72084 62.925 211.25209Q63.26875 211.76772 63.45625 212.51772Q63.64375 213.26772 63.64375 214.54897Q63.64375 216.06459 63.33125 216.98647Q63.034374 217.90834 62.409374 218.42397Q61.8 218.92397 60.846874 218.92397Q59.6125 218.92397 58.89375 218.03334Q58.05 216.97084 58.05 214.54897ZM59.128124 214.54897Q59.128124 216.65834 59.628124 217.36147Q60.128124 218.06459 60.846874 218.06459Q61.58125 218.06459 62.065624 217.36147Q62.565624 216.65834 62.565624 214.54897Q62.565624 212.42397 62.065624 211.73647Q61.58125 211.03334 60.83125 211.03334Q60.1125 211.03334 59.675 211.64272Q59.128124 212.42397 59.128124 214.54897ZM65.05 214.54897Q65.05 213.01772 65.3625 212.09584Q65.675 211.15834 66.28438 210.65834Q66.90938 210.15834 67.84688 210.15834Q68.53438 210.15834 69.05 210.43959Q69.58125 210.72084 69.925 211.25209Q70.26875 211.76772 70.45625 212.51772Q70.64375 213.26772 70.64375 214.54897Q70.64375 216.06459 70.33125 216.98647Q70.03438 217.90834 69.40938 218.42397Q68.8 218.92397 67.84688 218.92397Q66.6125 218.92397 65.89375 218.03334Q65.05 216.97084 65.05 214.54897ZM66.12813 214.54897Q66.12813 216.65834 66.62813 217.36147Q67.12813 218.06459 67.84688 218.06459Q68.58125 218.06459 69.06563 217.36147Q69.56563 216.65834 69.56563 214.54897Q69.56563 212.42397 69.06563 211.73647Q68.58125 211.03334 67.83125 211.03334Q67.1125 211.03334 66.675 211.64272Q66.12813 212.42397 66.12813 214.54897ZM72.64375 218.78334L72.64375 217.58022L73.84688 217.58022L73.84688 218.78334L72.64375 218.78334ZM75.05 214.54897Q75.05 213.01772 75.3625 212.09584Q75.675 211.15834 76.28438 210.65834Q76.90938 210.15834 77.84688 210.15834Q78.53438 210.15834 79.05 210.43959Q79.58125 210.72084 79.925 211.25209Q80.26875 211.76772 80.45625 212.51772Q80.64375 213.26772 80.64375 214.54897Q80.64375 216.06459 80.33125 216.98647Q80.03438 217.90834 79.40938 218.42397Q78.8 218.92397 77.84688 218.92397Q76.6125 218.92397 75.89375 218.03334Q75.05 216.97084 75.05 214.54897ZM76.12813 214.54897Q76.12813 216.65834 76.62813 217.36147Q77.12813 218.06459 77.84688 218.06459Q78.58125 218.06459 79.06563 217.36147Q79.56563 216.65834 79.56563 214.54897Q79.56563 212.42397 79.06563 211.73647Q78.58125 211.03334 77.83125 211.03334Q77.1125 211.03334 76.675 211.64272Q76.12813 212.42397 76.12813 214.54897ZM82.05 214.54897Q82.05 213.01772 82.3625 212.09584Q82.675 211.15834 83.28438 210.65834Q83.90938 210.15834 84.84688 210.15834Q85.53438 210.15834 86.05 210.43959Q86.58125 210.72084 86.925 211.25209Q87.26875 211.76772 87.45625 212.51772Q87.64375 213.26772 87.64375 214.54897Q87.64375 216.06459 87.33125 216.98647Q87.03438 217.90834 86.40938 218.42397Q85.8 218.92397 84.84688 218.92397Q83.6125 218.92397 82.89375 218.03334Q82.05 216.97084 82.05 214.54897ZM83.12813 214.54897Q83.12813 216.65834 83.62813 217.36147Q84.12813 218.06459 84.84688 218.06459Q85.58125 218.06459 86.06563 217.36147Q86.56563 216.65834 86.56563 214.54897Q86.56563 212.42397 86.06563 211.73647Q85.58125 211.03334 84.83125 211.03334Q84.1125 211.03334 83.675 211.64272Q83.12813 212.42397 83.12813 214.54897Z" fill-rule="nonzero"/><path fill="#000000" d="M55.01875 175.95L53.971874 175.95L53.971874 169.23125Q53.58125 169.59062 52.95625 169.96562Q52.346874 170.325 51.8625 170.49687L51.8625 169.48125Q52.7375 169.05937 53.39375 168.48125Q54.065624 167.8875 54.346874 167.325L55.01875 167.325L55.01875 175.95ZM58.05 173.7L59.159374 173.60625Q59.284374 174.41875 59.721874 174.825Q60.175 175.23125 60.815624 175.23125Q61.565624 175.23125 62.096874 174.65312Q62.628124 174.075 62.628124 173.1375Q62.628124 172.23125 62.1125 171.71562Q61.6125 171.18437 60.784374 171.18437Q60.284374 171.18437 59.8625 171.41875Q59.45625 171.65312 59.221874 172.0125L58.2375 171.8875L59.065624 167.48125L63.346874 167.48125L63.346874 168.48125L59.909374 168.48125L59.45625 170.79375Q60.221874 170.24687 61.065624 170.24687Q62.190624 170.24687 62.95625 171.02812Q63.7375 171.80937 63.7375 173.04375Q63.7375 174.2 63.065624 175.05937Q62.2375 176.09062 60.815624 176.09062Q59.64375 176.09062 58.89375 175.43437Q58.159374 174.77812 58.05 173.7ZM65.05 171.71562Q65.05 170.18437 65.3625 169.2625Q65.675 168.325 66.28438 167.825Q66.90938 167.325 67.84688 167.325Q68.53438 167.325 69.05 167.60625Q69.58125 167.8875 69.925 168.41875Q70.26875 168.93437 70.45625 169.68437Q70.64375 170.43437 70.64375 171.71562Q70.64375 173.23125 70.33125 174.15312Q70.03438 175.075 69.40938 175.59062Q68.8 176.09062 67.84688 176.09062Q66.6125 176.09062 65.89375 175.2Q65.05 174.1375 65.05 171.71562ZM66.12813 171.71562Q66.12813 173.825 66.62813 174.52812Q67.12813 175.23125 67.84688 175.23125Q68.58125 175.23125 69.06563 174.52812Q69.56563 173.825 69.56563 171.71562Q69.56563 169.59062 69.06563 168.90312Q68.58125 168.2 67.83125 168.2Q67.1125 168.2 66.675 168.80937Q66.12813 169.59062 66.12813 171.71562ZM72.64375 175.95L72.64375 174.74687L73.84688 174.74687L73.84688 175.95L72.64375 175.95ZM75.05 171.71562Q75.05 170.18437 75.3625 169.2625Q75.675 168.325 76.28438 167.825Q76.90938 167.325 77.84688 167.325Q78.53438 167.325 79.05 167.60625Q79.58125 167.8875 79.925 168.41875Q80.26875 168.93437 80.45625 169.68437Q80.64375 170.43437 80.64375 171.71562Q80.64375 173.23125 80.33125 174.15312Q80.03438 175.075 79.40938 175.59062Q78.8 176.09062 77.84688 176.09062Q76.6125 176.09062 75.89375 175.2Q75.05 174.1375 75.05 171.71562ZM76.12813 171.71562Q76.12813 173.825 76.62813 174.52812Q77.12813 175.23125 77.84688 175.23125Q78.58125 175.23125 79.06563 174.52812Q79.56563 173.825 79.56563 171.71562Q79.56563 169.59062 79.06563 168.90312Q78.58125 168.2 77.83125 168.2Q77.1125 168.2 76.675 168.80937Q76.12813 169.59062 76.12813 171.71562ZM82.05 171.71562Q82.05 170.18437 82.3625 169.2625Q82.675 168.325 83.28438 167.825Q83.90938 167.325 84.84688 167.325Q85.53438 167.325 86.05 167.60625Q86.58125 167.8875 86.925 168.41875Q87.26875 168.93437 87.45625 169.68437Q87.64375 170.43437 87.64375 171.71562Q87.64375 173.23125 87.33125 174.15312Q87.03438 175.075 86.40938 175.59062Q85.8 176.09062 84.84688 176.09062Q83.6125 176.09062 82.89375 175.2Q82.05 174.1375 82.05 171.71562ZM83.12813 171.71562Q83.12813 173.825 83.62813 174.52812Q84.12813 175.23125 84.84688 175.23125Q85.58125 175.23125 86.06563 174.52812Q86.56563 173.825 86.56563 171.71562Q86.56563 169.59062 86.06563 168.90312Q85.58125 168.2 84.83125 168.2Q84.1125 168.2 83.675 168.80937Q83.12813 169.59062 83.12813 171.71562Z" fill-rule="nonzero"/><path fill="#000000" d="M56.596874 132.10104L56.596874 133.11667L50.909374 133.11667Q50.909374 132.74167 51.034374 132.3823Q51.253124 131.80417 51.721874 131.24167Q52.20625 130.67917 53.1125 129.9448Q54.51875 128.78854 55.003124 128.11667Q55.503124 127.44479 55.503124 126.85104Q55.503124 126.22604 55.05 125.80417Q54.596874 125.36667 53.878124 125.36667Q53.1125 125.36667 52.659374 125.81979Q52.20625 126.27292 52.190624 127.08542L51.1125 126.97604Q51.221874 125.75729 51.940624 125.13229Q52.675 124.49167 53.909374 124.49167Q55.14375 124.49167 55.8625 125.17917Q56.58125 125.86667 56.58125 126.88229Q56.58125 127.39792 56.3625 127.89792Q56.159374 128.3823 55.659374 128.9448Q55.175 129.49167 54.05 130.4448Q53.096874 131.24167 52.815624 131.53854Q52.55 131.8198 52.378124 132.10104L56.596874 132.10104ZM58.05 128.8823Q58.05 127.35104 58.3625 126.42917Q58.675 125.49167 59.284374 124.99167Q59.909374 124.49167 60.846874 124.49167Q61.534374 124.49167 62.05 124.77292Q62.58125 125.05417 62.925 125.58542Q63.26875 126.10104 63.45625 126.85104Q63.64375 127.60104 63.64375 128.8823Q63.64375 130.39792 63.33125 131.3198Q63.034374 132.24167 62.409374 132.7573Q61.8 133.2573 60.846874 133.2573Q59.6125 133.2573 58.89375 132.36667Q58.05 131.30417 58.05 128.8823ZM59.128124 128.8823Q59.128124 130.99167 59.628124 131.6948Q60.128124 132.39792 60.846874 132.39792Q61.58125 132.39792 62.065624 131.6948Q62.565624 130.99167 62.565624 128.8823Q62.565624 126.75729 62.065624 126.06979Q61.58125 125.36667 60.83125 125.36667Q60.1125 125.36667 59.675 125.97604Q59.128124 126.75729 59.128124 128.8823ZM65.05 128.8823Q65.05 127.35104 65.3625 126.42917Q65.675 125.49167 66.28438 124.99167Q66.90938 124.49167 67.84688 124.49167Q68.53438 124.49167 69.05 124.77292Q69.58125 125.05417 69.925 125.58542Q70.26875 126.10104 70.45625 126.85104Q70.64375 127.60104 70.64375 128.8823Q70.64375 130.39792 70.33125 131.3198Q70.03438 132.24167 69.40938 132.7573Q68.8 133.2573 67.84688 133.2573Q66.6125 133.2573 65.89375 132.36667Q65.05 131.30417 65.05 128.8823ZM66.12813 128.8823Q66.12813 130.99167 66.62813 131.6948Q67.12813 132.39792 67.84688 132.39792Q68.58125 132.39792 69.06563 131.6948Q69.56563 130.99167 69.56563 128.8823Q69.56563 126.75729 69.06563 126.06979Q68.58125 125.36667 67.83125 125.36667Q67.1125 125.36667 66.675 125.97604Q66.12813 126.75729 66.12813 128.8823ZM72.64375 133.11667L72.64375 131.91354L73.84688 131.91354L73.84688 133.11667L72.64375 133.11667ZM75.05 128.8823Q75.05 127.35104 75.3625 126.42917Q75.675 125.49167 76.28438 124.99167Q76.90938 124.49167 77.84688 124.49167Q78.53438 124.49167 79.05 124.77292Q79.58125 125.05417 79.925 125.58542Q80.26875 126.10104 80.45625 126.85104Q80.64375 127.60104 80.64375 128.8823Q80.64375 130.39792 80.33125 131.3198Q80.03438 132.24167 79.40938 132.7573Q78.8 133.2573 77.84688 133.2573Q76.6125 133.2573 75.89375 132.36667Q75.05 131.30417 75.05 128.8823ZM76.12813 128.8823Q76.12813 130.99167 76.62813 131.6948Q77.12813 132.39792 77.84688 132.39792Q78.58125 132.39792 79.06563 131.6948Q79.56563 130.99167 79.56563 128.8823Q79.56563 126.75729 79.06563 126.06979Q78.58125 125.36667 77.83125 125.36667Q77.1125 125.36667 76.675 125.97604Q76.12813 126.75729 76.12813 128.8823ZM82.05 128.8823Q82.05 127.35104 82.3625 126.42917Q82.675 125.49167 83.28438 124.99167Q83.90938 124.49167 84.84688 124.49167Q85.53438 124.49167 86.05 124.77292Q86.58125 125.05417 86.925 125.58542Q87.26875 126.10104 87.45625 126.85104Q87.64375 127.60104 87.64375 128.8823Q87.64375 130.39792 87.33125 131.3198Q87.03438 132.24167 86.40938 132.7573Q85.8 133.2573 84.84688 133.2573Q83.6125 133.2573 82.89375 132.36667Q82.05 131.30417 82.05 128.8823ZM83.12813 128.8823Q83.12813 130.99167 83.62813 131.6948Q84.12813 132.39792 84.84688 132.39792Q85.58125 132.39792 86.06563 131.6948Q86.56563 130.99167 86.56563 128.8823Q86.56563 126.75729 86.06563 126.06979Q85.58125 125.36667 84.83125 125.36667Q84.1125 125.36667 83.675 125.97604Q83.12813 126.75729 83.12813 128.8823Z" fill-rule="nonzero"/><path fill="#000000" d="M56.596874 89.26771L56.596874 90.28333L50.909374 90.28333Q50.909374 89.90833 51.034374 89.54896Q51.253124 88.97083 51.721874 88.40833Q52.20625 87.84583 53.1125 87.11146Q54.51875 85.95521 55.003124 85.28333Q55.503124 84.61146 55.503124 84.01771Q55.503124 83.39271 55.05 82.97083Q54.596874 82.53333 53.878124 82.53333Q53.1125 82.53333 52.659374 82.98646Q52.20625 83.43958 52.190624 84.25208L51.1125 84.14271Q51.221874 82.92396 51.940624 82.29896Q52.675 81.65833 53.909374 81.65833Q55.14375 81.65833 55.8625 82.34583Q56.58125 83.03333 56.58125 84.04896Q56.58125 84.56458 56.3625 85.06458Q56.159374 85.54896 55.659374 86.11146Q55.175 86.65833 54.05 87.61146Q53.096874 88.40833 52.815624 88.70521Q52.55 88.98646 52.378124 89.26771L56.596874 89.26771ZM58.05 88.03333L59.159374 87.93958Q59.284374 88.75208 59.721874 89.15833Q60.175 89.56458 60.815624 89.56458Q61.565624 89.56458 62.096874 88.98646Q62.628124 88.40833 62.628124 87.47083Q62.628124 86.56458 62.1125 86.04896Q61.6125 85.51771 60.784374 85.51771Q60.284374 85.51771 59.8625 85.75208Q59.45625 85.98646 59.221874 86.34583L58.2375 86.22083L59.065624 81.81458L63.346874 81.81458L63.346874 82.81458L59.909374 82.81458L59.45625 85.12708Q60.221874 84.58021 61.065624 84.58021Q62.190624 84.58021 62.95625 85.36146Q63.7375 86.14271 63.7375 87.37708Q63.7375 88.53333 63.065624 89.39271Q62.2375 90.42396 60.815624 90.42396Q59.64375 90.42396 58.89375 89.76771Q58.159374 89.11146 58.05 88.03333ZM65.05 86.04896Q65.05 84.51771 65.3625 83.59583Q65.675 82.65833 66.28438 82.15833Q66.90938 81.65833 67.84688 81.65833Q68.53438 81.65833 69.05 81.93958Q69.58125 82.22083 69.925 82.75208Q70.26875 83.26771 70.45625 84.01771Q70.64375 84.76771 70.64375 86.04896Q70.64375 87.56458 70.33125 88.48646Q70.03438 89.40833 69.40938 89.92396Q68.8 90.42396 67.84688 90.42396Q66.6125 90.42396 65.89375 89.53333Q65.05 88.47083 65.05 86.04896ZM66.12813 86.04896Q66.12813 88.15833 66.62813 88.86146Q67.12813 89.56458 67.84688 89.56458Q68.58125 89.56458 69.06563 88.86146Q69.56563 88.15833 69.56563 86.04896Q69.56563 83.92396 69.06563 83.23646Q68.58125 82.53333 67.83125 82.53333Q67.1125 82.53333 66.675 83.14271Q66.12813 83.92396 66.12813 86.04896ZM72.64375 90.28333L72.64375 89.08021L73.84688 89.08021L73.84688 90.28333L72.64375 90.28333ZM75.05 86.04896Q75.05 84.51771 75.3625 83.59583Q75.675 82.65833 76.28438 82.15833Q76.90938 81.65833 77.84688 81.65833Q78.53438 81.65833 79.05 81.93958Q79.58125 82.22083 79.925 82.75208Q80.26875 83.26771 80.45625 84.01771Q80.64375 84.76771 80.64375 86.04896Q80.64375 87.56458 80.33125 88.48646Q80.03438 89.40833 79.40938 89.92396Q78.8 90.42396 77.84688 90.42396Q76.6125 90.42396 75.89375 89.53333Q75.05 88.47083 75.05 86.04896ZM76.12813 86.04896Q76.12813 88.15833 76.62813 88.86146Q77.12813 89.56458 77.84688 89.56458Q78.58125 89.56458 79.06563 88.86146Q79.56563 88.15833 79.56563 86.04896Q79.56563 83.92396 79.06563 83.23646Q78.58125 82.53333 77.83125 82.53333Q77.1125 82.53333 76.675 83.14271Q76.12813 83.92396 76.12813 86.04896ZM82.05 86.04896Q82.05 84.51771 82.3625 83.59583Q82.675 82.65833 83.28438 82.15833Q83.90938 81.65833 84.84688 81.65833Q85.53438 81.65833 86.05 81.93958Q86.58125 82.22083 86.925 82.75208Q87.26875 83.26771 87.45625 84.01771Q87.64375 84.76771 87.64375 86.04896Q87.64375 87.56458 87.33125 88.48646Q87.03438 89.40833 86.40938 89.92396Q85.8 90.42396 84.84688 90.42396Q83.6125 90.42396 82.89375 89.53333Q82.05 88.47083 82.05 86.04896ZM83.12813 86.04896Q83.12813 88.15833 83.62813 88.86146Q84.12813 89.56458 84.84688 89.56458Q85.58125 89.56458 86.06563 88.86146Q86.56563 88.15833 86.56563 86.04896Q86.56563 83.92396 86.06563 83.23646Q85.58125 82.53333 84.83125 82.53333Q84.1125 82.53333 83.675 83.14271Q83.12813 83.92396 83.12813 86.04896Z" fill-rule="nonzero"/><path fill="#000000" d="M95.51875 317.45L94.47188 317.45L94.47188 310.73126Q94.08125 311.09064 93.45625 311.46564Q92.84688 311.825 92.3625 311.9969L92.3625 310.98126Q93.2375 310.5594 93.89375 309.98126Q94.56563 309.3875 94.84688 308.825L95.51875 308.825L95.51875 317.45Z" fill-rule="nonzero"/><path fill="#000000" d="M216.43773 317.45L215.39085 317.45L215.39085 310.73126Q215.00023 311.09064 214.37523 311.46564Q213.76585 311.825 213.28148 311.9969L213.28148 310.98126Q214.15648 310.5594 214.81273 309.98126Q215.4846 309.3875 215.76585 308.825L216.43773 308.825L216.43773 317.45ZM219.46898 313.21564Q219.46898 311.6844 219.78148 310.7625Q220.09398 309.825 220.70335 309.325Q221.32835 308.825 222.26585 308.825Q222.95335 308.825 223.46898 309.10626Q224.00023 309.3875 224.34398 309.91876Q224.68773 310.4344 224.87523 311.1844Q225.06273 311.9344 225.06273 313.21564Q225.06273 314.73126 224.75023 315.65314Q224.45335 316.575 223.82835 317.09064Q223.21898 317.59064 222.26585 317.59064Q221.03148 317.59064 220.31273 316.7Q219.46898 315.6375 219.46898 313.21564ZM220.5471 313.21564Q220.5471 315.325 221.0471 316.02814Q221.5471 316.73126 222.26585 316.73126Q223.00023 316.73126 223.4846 316.02814Q223.9846 315.325 223.9846 313.21564Q223.9846 311.09064 223.4846 310.40314Q223.00023 309.7 222.25023 309.7Q221.53148 309.7 221.09398 310.3094Q220.5471 311.09064 220.5471 313.21564Z" fill-rule="nonzero"/><path fill="#000000" d="M337.35672 317.45L336.30984 317.45L336.30984 310.73126Q335.91922 311.09064 335.29422 311.46564Q334.68484 311.825 334.20047 311.9969L334.20047 310.98126Q335.07547 310.5594 335.73172 309.98126Q336.4036 309.3875 336.68484 308.825L337.35672 308.825L337.35672 317.45ZM340.38797 313.21564Q340.38797 311.6844 340.70047 310.7625Q341.01297 309.825 341.62234 309.325Q342.24734 308.825 343.18484 308.825Q343.87234 308.825 344.38797 309.10626Q344.91922 309.3875 345.26297 309.91876Q345.60672 310.4344 345.79422 311.1844Q345.98172 311.9344 345.98172 313.21564Q345.98172 314.73126 345.66922 315.65314Q345.37234 316.575 344.74734 317.09064Q344.13797 317.59064 343.18484 317.59064Q341.95047 317.59064 341.23172 316.7Q340.38797 315.6375 340.38797 313.21564ZM341.4661 313.21564Q341.4661 315.325 341.9661 316.02814Q342.4661 316.73126 343.18484 316.73126Q343.91922 316.73126 344.4036 316.02814Q344.9036 315.325 344.9036 313.21564Q344.9036 311.09064 344.4036 310.40314Q343.91922 309.7 343.16922 309.7Q342.45047 309.7 342.01297 310.3094Q341.4661 311.09064 341.4661 313.21564ZM347.38797 313.21564Q347.38797 311.6844 347.70047 310.7625Q348.01297 309.825 348.62234 309.325Q349.24734 308.825 350.18484 308.825Q350.87234 308.825 351.38797 309.10626Q351.91922 309.3875 352.26297 309.91876Q352.60672 310.4344 352.79422 311.1844Q352.98172 311.9344 352.98172 313.21564Q352.98172 314.73126 352.66922 315.65314Q352.37234 316.575 351.74734 317.09064Q351.13797 317.59064 350.18484 317.59064Q348.95047 317.59064 348.23172 316.7Q347.38797 315.6375 347.38797 313.21564ZM348.4661 313.21564Q348.4661 315.325 348.9661 316.02814Q349.4661 316.73126 350.18484 316.73126Q350.91922 316.73126 351.4036 316.02814Q351.9036 315.325 351.9036 313.21564Q351.9036 311.09064 351.4036 310.40314Q350.91922 309.7 350.16922 309.7Q349.45047 309.7 349.01297 310.3094Q348.4661 311.09064 348.4661 313.21564Z" fill-rule="nonzero"/><path fill="#000000" d="M458.2757 317.45L457.22882 317.45L457.22882 310.73126Q456.8382 311.09064 456.2132 311.46564Q455.60382 311.825 455.11945 311.9969L455.11945 310.98126Q455.99445 310.5594 456.6507 309.98126Q457.32257 309.3875 457.60382 308.825L458.2757 308.825L458.2757 317.45ZM461.30695 313.21564Q461.30695 311.6844 461.61945 310.7625Q461.93195 309.825 462.54132 309.325Q463.16632 308.825 464.10382 308.825Q464.79132 308.825 465.30695 309.10626Q465.8382 309.3875 466.18195 309.91876Q466.5257 310.4344 466.7132 311.1844Q466.9007 311.9344 466.9007 313.21564Q466.9007 314.73126 466.5882 315.65314Q466.29132 316.575 465.66632 317.09064Q465.05695 317.59064 464.10382 317.59064Q462.86945 317.59064 462.1507 316.7Q461.30695 315.6375 461.30695 313.21564ZM462.38507 313.21564Q462.38507 315.325 462.88507 316.02814Q463.38507 316.73126 464.10382 316.73126Q464.8382 316.73126 465.32257 316.02814Q465.82257 315.325 465.82257 313.21564Q465.82257 311.09064 465.32257 310.40314Q464.8382 309.7 464.0882 309.7Q463.36945 309.7 462.93195 310.3094Q462.38507 311.09064 462.38507 313.21564ZM468.30695 313.21564Q468.30695 311.6844 468.61945 310.7625Q468.93195 309.825 469.54132 309.325Q470.16632 308.825 471.10382 308.825Q471.79132 308.825 472.30695 309.10626Q472.8382 309.3875 473.18195 309.91876Q473.5257 310.4344 473.7132 311.1844Q473.9007 311.9344 473.9007 313.21564Q473.9007 314.73126 473.5882 315.65314Q473.29132 316.575 472.66632 317.09064Q472.05695 317.59064 471.10382 317.59064Q469.86945 317.59064 469.1507 316.7Q468.30695 315.6375 468.30695 313.21564ZM469.38507 313.21564Q469.38507 315.325 469.88507 316.02814Q470.38507 316.73126 471.10382 316.73126Q471.8382 316.73126 472.32257 316.02814Q472.82257 315.325 472.82257 313.21564Q472.82257 311.09064 472.32257 310.40314Q471.8382 309.7 471.0882 309.7Q470.36945 309.7 469.93195 310.3094Q469.38507 311.09064 469.38507 313.21564ZM475.30695 313.21564Q475.30695 311.6844 475.61945 310.7625Q475.93195 309.825 476.54132 309.325Q477.16632 308.825 478.10382 308.825Q478.79132 308.825 479.30695 309.10626Q479.8382 309.3875 480.18195 309.91876Q480.5257 310.4344 480.7132 311.1844Q480.9007 311.9344 480.9007 313.21564Q480.9007 314.73126 480.5882 315.65314Q480.29132 316.575 479.66632 317.09064Q479.05695 317.59064 478.10382 317.59064Q476.86945 317.59064 476.1507 316.7Q475.30695 315.6375 475.30695 313.21564ZM476.38507 313.21564Q476.38507 315.325 476.88507 316.02814Q477.38507 316.73126 478.10382 316.73126Q478.8382 316.73126 479.32257 316.02814Q479.82257 315.325 479.82257 313.21564Q479.82257 311.09064 479.32257 310.40314Q478.8382 309.7 478.0882 309.7Q477.36945 309.7 476.93195 310.3094Q476.38507 311.09064 476.38507 313.21564Z" fill-rule="nonzero"/><path stroke="#4285f4" stroke-width="4.0" stroke-linecap="butt" d="M155.62305 57.916668L167.62305 57.916668" fill-rule="nonzero"/><path fill="#1a1a1a" d="M176.41992 61.916668L176.41992 55.697918L177.35742 55.697918L177.35742 56.572918Q177.6543 56.104168 178.13867 55.838543Q178.62305 55.557293 179.24805 55.557293Q179.93555 55.557293 180.37305 55.838543Q180.82617 56.119793 180.99805 56.635418Q181.74805 55.557293 182.91992 55.557293Q183.85742 55.557293 184.3418 56.072918Q184.8418 56.572918 184.8418 57.651043L184.8418 61.916668L183.79492 61.916668L183.79492 57.994793Q183.79492 57.369793 183.68555 57.088543Q183.5918 56.807293 183.32617 56.635418Q183.06055 56.463543 182.68555 56.463543Q182.0293 56.463543 181.5918 56.901043Q181.16992 57.338543 181.16992 58.307293L181.16992 61.916668L180.10742 61.916668L180.10742 57.869793Q180.10742 57.166668 179.8418 56.822918Q179.5918 56.463543 179.01367 56.463543Q178.56055 56.463543 178.18555 56.697918Q177.81055 56.932293 177.63867 57.385418Q177.4668 57.838543 177.4668 58.682293L177.4668 61.916668L176.41992 61.916668ZM191.48242 61.151043Q190.88867 61.651043 190.3418 61.854168Q189.81055 62.057293 189.18555 62.057293Q188.1543 62.057293 187.60742 61.557293Q187.06055 61.057293 187.06055 60.276043Q187.06055 59.822918 187.26367 59.447918Q187.4668 59.057293 187.81055 58.838543Q188.1543 58.604168 188.57617 58.494793Q188.87305 58.401043 189.51367 58.322918Q190.7793 58.182293 191.38867 57.963543Q191.38867 57.744793 191.38867 57.697918Q191.38867 57.041668 191.0918 56.776043Q190.68555 56.432293 189.88867 56.432293Q189.1543 56.432293 188.79492 56.697918Q188.43555 56.947918 188.26367 57.604168L187.23242 57.463543Q187.37305 56.807293 187.70117 56.401043Q188.0293 55.994793 188.63867 55.776043Q189.24805 55.557293 190.04492 55.557293Q190.8418 55.557293 191.3418 55.744793Q191.8418 55.932293 192.07617 56.213543Q192.31055 56.494793 192.4043 56.932293Q192.45117 57.197918 192.45117 57.901043L192.45117 59.307293Q192.45117 60.776043 192.51367 61.166668Q192.5918 61.557293 192.79492 61.916668L191.68555 61.916668Q191.5293 61.588543 191.48242 61.151043ZM191.38867 58.791668Q190.81055 59.026043 189.66992 59.197918Q189.01367 59.291668 188.74805 59.416668Q188.48242 59.526043 188.32617 59.744793Q188.18555 59.963543 188.18555 60.244793Q188.18555 60.666668 188.49805 60.947918Q188.82617 61.229168 189.43555 61.229168Q190.04492 61.229168 190.51367 60.963543Q190.99805 60.697918 191.2168 60.229168Q191.38867 59.869793 191.38867 59.182293L191.38867 58.791668ZM193.99805 60.057293L195.0293 59.901043Q195.12305 60.526043 195.51367 60.854168Q195.91992 61.182293 196.6543 61.182293Q197.37305 61.182293 197.7168 60.901043Q198.07617 60.604168 198.07617 60.197918Q198.07617 59.838543 197.76367 59.635418Q197.54492 59.494793 196.68555 59.276043Q195.5293 58.979168 195.07617 58.776043Q194.63867 58.557293 194.4043 58.182293Q194.16992 57.807293 194.16992 57.338543Q194.16992 56.932293 194.35742 56.572918Q194.54492 56.213543 194.87305 55.979168Q195.12305 55.807293 195.54492 55.682293Q195.9668 55.557293 196.4668 55.557293Q197.18555 55.557293 197.73242 55.776043Q198.29492 55.979168 198.56055 56.338543Q198.82617 56.697918 198.91992 57.291668L197.88867 57.432293Q197.82617 56.963543 197.48242 56.697918Q197.1543 56.416668 196.5293 56.416668Q195.81055 56.416668 195.49805 56.666668Q195.18555 56.901043 195.18555 57.229168Q195.18555 57.432293 195.31055 57.588543Q195.45117 57.760418 195.7168 57.869793Q195.87305 57.932293 196.6543 58.135418Q197.7793 58.447918 198.2168 58.635418Q198.6543 58.822918 198.9043 59.182293Q199.1543 59.541668 199.1543 60.088543Q199.1543 60.619793 198.8418 61.088543Q198.54492 61.541668 197.9668 61.807293Q197.38867 62.057293 196.6543 62.057293Q195.43555 62.057293 194.79492 61.557293Q194.16992 61.041668 193.99805 60.057293ZM203.7168 60.979168L203.87305 61.901043Q203.41992 61.994793 203.07617 61.994793Q202.49805 61.994793 202.18555 61.822918Q201.87305 61.635418 201.73242 61.338543Q201.60742 61.041668 201.60742 60.088543L201.60742 56.510418L200.8418 56.510418L200.8418 55.697918L201.60742 55.697918L201.60742 54.151043L202.6543 53.526043L202.6543 55.697918L203.7168 55.697918L203.7168 56.510418L202.6543 56.510418L202.6543 60.151043Q202.6543 60.604168 202.70117 60.729168Q202.76367 60.854168 202.88867 60.932293Q203.01367 61.010418 203.24805 61.010418Q203.43555 61.010418 203.7168 60.979168ZM208.66992 59.916668L209.76367 60.041668Q209.51367 60.994793 208.81055 61.526043Q208.10742 62.057293 207.0293 62.057293Q205.66992 62.057293 204.85742 61.213543Q204.06055 60.369793 204.06055 58.854168Q204.06055 57.291668 204.87305 56.432293Q205.68555 55.557293 206.9668 55.557293Q208.2168 55.557293 208.99805 56.401043Q209.79492 57.244793 209.79492 58.791668Q209.79492 58.885418 209.79492 59.072918L205.1543 59.072918Q205.2168 60.104168 205.73242 60.651043Q206.24805 61.182293 207.0293 61.182293Q207.60742 61.182293 208.01367 60.885418Q208.43555 60.572918 208.66992 59.916668ZM205.2168 58.213543L208.68555 58.213543Q208.62305 57.416668 208.29492 57.026043Q207.7793 56.416668 206.98242 56.416668Q206.24805 56.416668 205.74805 56.901043Q205.26367 57.385418 205.2168 58.213543ZM211.4043 61.916668L211.4043 55.697918L212.35742 55.697918L212.35742 56.635418Q212.7168 55.979168 213.01367 55.776043Q213.32617 55.557293 213.70117 55.557293Q214.23242 55.557293 214.7793 55.885418L214.41992 56.869793Q214.0293 56.635418 213.6543 56.635418Q213.29492 56.635418 213.01367 56.854168Q212.74805 57.057293 212.63867 57.432293Q212.45117 57.994793 212.45117 58.651043L212.45117 61.916668L211.4043 61.916668Z" fill-rule="nonzero"/><path stroke="#ea4335" stroke-width="4.0" stroke-linecap="butt" d="M230.62305 57.916668L242.62305 57.916668" fill-rule="nonzero"/><path fill="#1a1a1a" d="M251.5918 61.916668L251.5918 53.322918L252.7168 53.322918L252.7168 56.854168L257.18555 56.854168L257.18555 53.322918L258.32617 53.322918L258.32617 61.916668L257.18555 61.916668L257.18555 57.869793L252.7168 57.869793L252.7168 61.916668L251.5918 61.916668ZM266.68555 58.901043L267.81055 59.197918Q267.45117 60.588543 266.5293 61.322918Q265.60742 62.057293 264.26367 62.057293Q262.87305 62.057293 261.99805 61.494793Q261.12305 60.932293 260.66992 59.869793Q260.2168 58.791668 260.2168 57.557293Q260.2168 56.213543 260.73242 55.213543Q261.24805 54.213543 262.18555 53.697918Q263.13867 53.182293 264.2793 53.182293Q265.56055 53.182293 266.43555 53.838543Q267.32617 54.494793 267.66992 55.682293L266.54492 55.947918Q266.24805 55.010418 265.66992 54.588543Q265.10742 54.151043 264.24805 54.151043Q263.26367 54.151043 262.5918 54.635418Q261.93555 55.104168 261.6543 55.901043Q261.38867 56.697918 261.38867 57.557293Q261.38867 58.651043 261.70117 59.463543Q262.0293 60.276043 262.70117 60.682293Q263.37305 61.088543 264.16992 61.088543Q265.12305 61.088543 265.7793 60.541668Q266.45117 59.994793 266.68555 58.901043Z" fill-rule="nonzero"/><path fill="#757575" d="M30.940624 36.01875Q32.26875 36.925 33.378124 37.346874L32.815624 38.659374Q31.26875 38.1125 29.7375 36.909374Q28.14375 37.8 26.221874 37.8Q24.284374 37.8 22.690624 36.8625Q21.1125 35.925 20.253124 34.221874Q19.409374 32.51875 19.409374 30.39375Q19.409374 28.26875 20.26875 26.534374Q21.128124 24.8 22.70625 23.89375Q24.3 22.971874 26.26875 22.971874Q28.253124 22.971874 29.83125 23.925Q31.425 24.8625 32.253124 26.565624Q33.096874 28.253124 33.096874 30.378124Q33.096874 32.14375 32.565624 33.565624Q32.034374 34.971874 30.940624 36.01875ZM26.76875 33.596874Q28.409374 34.05 29.471874 34.95625Q31.14375 33.440624 31.14375 30.378124Q31.14375 28.64375 30.55 27.346874Q29.971874 26.05 28.83125 25.33125Q27.690624 24.6125 26.26875 24.6125Q24.159374 24.6125 22.753124 26.065624Q21.3625 27.503124 21.3625 30.39375Q21.3625 33.190624 22.7375 34.690624Q24.128124 36.175 26.26875 36.175Q27.284374 36.175 28.190624 35.784374Q27.3 35.221874 26.315624 34.971874L26.76875 33.596874ZM36.128124 37.55L36.128124 23.2375L46.4875 23.2375L46.4875 24.925L38.034374 24.925L38.034374 29.3L45.940624 29.3L45.940624 30.9875L38.034374 30.9875L38.034374 35.8625L46.815624 35.8625L46.815624 37.55L36.128124 37.55ZM49.034374 37.55L49.034374 23.2375L51.89375 23.2375L55.26875 33.3625Q55.7375 34.784374 55.95625 35.4875Q56.20625 34.70625 56.721874 33.190624L60.14375 23.2375L62.690624 23.2375L62.690624 37.55L60.878124 37.55L60.878124 25.565624L56.70625 37.55L55.003124 37.55L50.8625 25.3625L50.8625 37.55L49.034374 37.55ZM75.4875 23.2375L77.37813 23.2375L77.37813 31.503124Q77.37813 33.659374 76.89375 34.940624Q76.40938 36.20625 75.12813 37.003124Q73.8625 37.8 71.78438 37.8Q69.76875 37.8 68.4875 37.1125Q67.22188 36.409374 66.675 35.096874Q66.12813 33.784374 66.12813 31.503124L66.12813 23.2375L68.01875 23.2375L68.01875 31.4875Q68.01875 33.3625 68.3625 34.253124Q68.70625 35.128124 69.55 35.6125Q70.39375 36.08125 71.62813 36.08125Q73.70625 36.08125 74.59688 35.14375Q75.4875 34.190624 75.4875 31.4875L75.4875 23.2375ZM87.75313 37.55L83.8 27.175L85.65938 27.175L87.89375 33.39375Q88.25313 34.39375 88.55 35.471874Q88.78438 34.659374 89.20625 33.503124L91.50313 27.175L93.31563 27.175L89.39375 37.55L87.75313 37.55ZM93.83125 37.55L93.83125 23.2375L95.58125 23.2375L95.58125 37.55L93.83125 37.55ZM104.97188 34.20625L106.78438 34.440624Q106.3625 36.01875 105.19063 36.909374Q104.03438 37.784374 102.22188 37.784374Q99.95625 37.784374 98.6125 36.39375Q97.28438 34.9875 97.28438 32.45625Q97.28438 29.83125 98.62813 28.39375Q99.97188 26.940624 102.12813 26.940624Q104.20625 26.940624 105.51875 28.3625Q106.84688 29.76875 106.84688 32.346874Q106.84688 32.503124 106.83125 32.815624L99.09688 32.815624Q99.19063 34.51875 100.06563 35.425Q100.94063 36.33125 102.2375 36.33125Q103.20625 36.33125 103.87813 35.83125Q104.56563 35.315624 104.97188 34.20625ZM99.19063 31.3625L104.9875 31.3625Q104.87813 30.065624 104.33125 29.409374Q103.4875 28.39375 102.14375 28.39375Q100.94063 28.39375 100.1125 29.20625Q99.28438 30.003124 99.19063 31.3625ZM111.08125 29.784374Q109.9875 29.378124 109.45625 28.64375Q108.94063 27.89375 108.94063 26.8625Q108.94063 25.3 110.06563 24.2375Q111.19063 23.175 113.05 23.175Q114.925 23.175 116.06563 24.26875Q117.20625 25.346874 117.20625 26.909374Q117.20625 27.909374 116.675 28.64375Q116.15938 29.378124 115.09688 29.784374Q116.425 30.221874 117.1125 31.175Q117.8 32.128124 117.8 33.45625Q117.8 35.3 116.4875 36.55Q115.19063 37.8 113.08125 37.8Q110.95625 37.8 109.65938 36.55Q108.3625 35.284374 108.3625 33.409374Q108.3625 32.01875 109.06563 31.08125Q109.78438 30.128124 111.08125 29.784374ZM110.7375 26.8Q110.7375 27.815624 111.39375 28.471874Q112.05 29.1125 113.08125 29.1125Q114.09688 29.1125 114.75313 28.471874Q115.40938 27.83125 115.40938 26.909374Q115.40938 25.940624 114.7375 25.284374Q114.06563 24.6125 113.06563 24.6125Q112.06563 24.6125 111.39375 25.26875Q110.7375 25.909374 110.7375 26.8ZM110.175 33.425Q110.175 34.175 110.51875 34.878124Q110.87813 35.58125 111.58125 35.971874Q112.28438 36.346874 113.09688 36.346874Q114.3625 36.346874 115.175 35.534374Q116.00313 34.721874 116.00313 33.471874Q116.00313 32.20625 115.15938 31.378124Q114.31563 30.55 113.03438 30.55Q111.8 30.55 110.9875 31.378124Q110.175 32.190624 110.175 33.425ZM120.3625 37.55L120.3625 35.55L122.3625 35.55L122.3625 37.55L120.3625 37.55ZM128.75313 37.55L124.8 27.175L126.65938 27.175L128.89375 33.39375Q129.25313 34.39375 129.55 35.471874Q129.78438 34.659374 130.20625 33.503124L132.50313 27.175L134.31563 27.175L130.39375 37.55L128.75313 37.55ZM140.8625 41.51875L140.8625 27.175L142.47188 27.175L142.47188 28.51875Q143.03438 27.7375 143.7375 27.346874Q144.45625 26.940624 145.47188 26.940624Q146.8 26.940624 147.81563 27.628124Q148.83125 28.315624 149.34688 29.565624Q149.87813 30.8 149.87813 32.284374Q149.87813 33.878124 149.3 35.159374Q148.7375 36.425 147.64375 37.1125Q146.55 37.784374 145.34688 37.784374Q144.47188 37.784374 143.76875 37.409374Q143.08125 37.034374 142.62813 36.471874L142.62813 41.51875L140.8625 41.51875ZM142.45625 32.425Q142.45625 34.425 143.26875 35.378124Q144.08125 36.33125 145.2375 36.33125Q146.40938 36.33125 147.2375 35.346874Q148.08125 34.3625 148.08125 32.26875Q148.08125 30.3 147.25313 29.315624Q146.44063 28.315624 145.31563 28.315624Q144.19063 28.315624 143.31563 29.378124Q142.45625 30.425 142.45625 32.425ZM158.97188 34.20625L160.78438 34.440624Q160.3625 36.01875 159.19063 36.909374Q158.03438 37.784374 156.22188 37.784374Q153.95625 37.784374 152.6125 36.39375Q151.28438 34.9875 151.28438 32.45625Q151.28438 29.83125 152.62813 28.39375Q153.97188 26.940624 156.12813 26.940624Q158.20625 26.940624 159.51875 28.3625Q160.84688 29.76875 160.84688 32.346874Q160.84688 32.503124 160.83125 32.815624L153.09688 32.815624Q153.19063 34.51875 154.06563 35.425Q154.94063 36.33125 156.2375 36.33125Q157.20625 36.33125 157.87813 35.83125Q158.56563 35.315624 158.97188 34.20625ZM153.19063 31.3625L158.9875 31.3625Q158.87813 30.065624 158.33125 29.409374Q157.4875 28.39375 156.14375 28.39375Q154.94063 28.39375 154.1125 29.20625Q153.28438 30.003124 153.19063 31.3625ZM162.84688 37.55L162.84688 27.175L164.425 27.175L164.425 28.753124Q165.03438 27.64375 165.55 27.3Q166.06563 26.940624 166.675 26.940624Q167.56563 26.940624 168.4875 27.503124L167.87813 29.14375Q167.2375 28.753124 166.59688 28.753124Q166.01875 28.753124 165.55 29.1125Q165.09688 29.45625 164.89375 30.065624Q164.6125 31.003124 164.6125 32.1125L164.6125 37.55L162.84688 37.55ZM170.28438 37.55L170.28438 28.55L168.7375 28.55L168.7375 27.175L170.28438 27.175L170.28438 26.08125Q170.28438 25.034374 170.47188 24.51875Q170.72188 23.83125 171.3625 23.409374Q172.00313 22.9875 173.15938 22.9875Q173.90938 22.9875 174.8 23.159374L174.53438 24.690624Q173.9875 24.596874 173.50313 24.596874Q172.70625 24.596874 172.3625 24.940624Q172.03438 25.284374 172.03438 26.221874L172.03438 27.175L174.06563 27.175L174.06563 28.55L172.03438 28.55L172.03438 37.55L170.28438 37.55ZM175.22188 32.3625Q175.22188 29.4875 176.81563 28.096874Q178.15938 26.940624 180.08125 26.940624Q182.22188 26.940624 183.56563 28.346874Q184.925 29.753124 184.925 32.221874Q184.925 34.221874 184.33125 35.378124Q183.7375 36.51875 182.58125 37.159374Q181.44063 37.784374 180.08125 37.784374Q177.89375 37.784374 176.55 36.39375Q175.22188 34.9875 175.22188 32.3625ZM177.01875 32.3625Q177.01875 34.3625 177.87813 35.346874Q178.75313 36.33125 180.08125 36.33125Q181.39375 36.33125 182.25313 35.346874Q183.12813 34.346874 183.12813 32.3Q183.12813 30.378124 182.25313 29.39375Q181.37813 28.39375 180.08125 28.39375Q178.75313 28.39375 177.87813 29.39375Q177.01875 30.378124 177.01875 32.3625ZM186.84688 37.55L186.84688 27.175L188.425 27.175L188.425 28.753124Q189.03438 27.64375 189.55 27.3Q190.06563 26.940624 190.675 26.940624Q191.56563 26.940624 192.4875 27.503124L191.87813 29.14375Q191.2375 28.753124 190.59688 28.753124Q190.01875 28.753124 189.55 29.1125Q189.09688 29.45625 188.89375 30.065624Q188.6125 31.003124 188.6125 32.1125L188.6125 37.55L186.84688 37.55ZM193.8625 37.55L193.8625 27.175L195.44063 27.175L195.44063 28.628124Q195.925 27.878124 196.7375 27.409374Q197.55 26.940624 198.58125 26.940624Q199.7375 26.940624 200.47188 27.425Q201.20625 27.89375 201.51875 28.753124Q202.75313 26.940624 204.72188 26.940624Q206.26875 26.940624 207.09688 27.8Q207.925 28.659374 207.925 30.425L207.925 37.55L206.175 37.55L206.175 31.01875Q206.175 29.95625 206.00313 29.503124Q205.83125 29.034374 205.37813 28.753124Q204.94063 28.471874 204.33125 28.471874Q203.2375 28.471874 202.50313 29.20625Q201.78438 29.925 201.78438 31.51875L201.78438 37.55L200.03438 37.55L200.03438 30.815624Q200.03438 29.64375 199.59688 29.065624Q199.175 28.471874 198.19063 28.471874Q197.45625 28.471874 196.81563 28.8625Q196.19063 29.253124 195.90938 30.003124Q195.62813 30.753124 195.62813 32.175L195.62813 37.55L193.8625 37.55ZM216.64375 36.26875Q215.65938 37.096874 214.75313 37.440624Q213.84688 37.784374 212.81563 37.784374Q211.1125 37.784374 210.19063 36.95625Q209.26875 36.1125 209.26875 34.815624Q209.26875 34.05 209.6125 33.425Q209.97188 32.8 210.53438 32.425Q211.09688 32.034374 211.8 31.83125Q212.31563 31.70625 213.3625 31.565624Q215.4875 31.315624 216.4875 30.971874Q216.50313 30.6125 216.50313 30.503124Q216.50313 29.440624 216.00313 28.9875Q215.33125 28.39375 214.00313 28.39375Q212.75313 28.39375 212.15938 28.83125Q211.58125 29.26875 211.3 30.378124L209.58125 30.14375Q209.81563 29.034374 210.34688 28.3625Q210.87813 27.675 211.89375 27.315624Q212.90938 26.940624 214.25313 26.940624Q215.58125 26.940624 216.40938 27.253124Q217.2375 27.565624 217.62813 28.05Q218.01875 28.51875 218.175 29.2375Q218.26875 29.690624 218.26875 30.8625L218.26875 33.20625Q218.26875 35.659374 218.37813 36.315624Q218.4875 36.95625 218.83125 37.55L216.9875 37.55Q216.72188 37.003124 216.64375 36.26875ZM216.4875 32.346874Q215.53438 32.7375 213.6125 33.003124Q212.53438 33.159374 212.08125 33.3625Q211.64375 33.55 211.39375 33.925Q211.14375 34.3 211.14375 34.76875Q211.14375 35.471874 211.675 35.940624Q212.20625 36.409374 213.2375 36.409374Q214.25313 36.409374 215.03438 35.971874Q215.83125 35.51875 216.20625 34.753124Q216.4875 34.14375 216.4875 32.9875L216.4875 32.346874ZM220.8625 37.55L220.8625 27.175L222.45625 27.175L222.45625 28.659374Q223.59688 26.940624 225.75313 26.940624Q226.69063 26.940624 227.47188 27.284374Q228.26875 27.6125 228.65938 28.159374Q229.05 28.70625 229.20625 29.45625Q229.3 29.95625 229.3 31.175L229.3 37.55L227.53438 37.55L227.53438 31.2375Q227.53438 30.159374 227.33125 29.628124Q227.12813 29.096874 226.59688 28.784374Q226.08125 28.471874 225.37813 28.471874Q224.25313 28.471874 223.44063 29.190624Q222.62813 29.89375 222.62813 31.878124L222.62813 37.55L220.8625 37.55ZM237.64375 33.753124L239.3625 33.971874Q239.08125 35.76875 237.90938 36.784374Q236.75313 37.784374 235.05 37.784374Q232.925 37.784374 231.62813 36.39375Q230.33125 35.003124 230.33125 32.409374Q230.33125 30.721874 230.87813 29.471874Q231.44063 28.20625 232.58125 27.58125Q233.72188 26.940624 235.06563 26.940624Q236.75313 26.940624 237.81563 27.8Q238.89375 28.659374 239.20625 30.221874L237.4875 30.4875Q237.25313 29.440624 236.62813 28.925Q236.00313 28.39375 235.12813 28.39375Q233.8 28.39375 232.97188 29.346874Q232.14375 30.3 232.14375 32.346874Q232.14375 34.440624 232.94063 35.39375Q233.7375 36.33125 235.03438 36.33125Q236.06563 36.33125 236.75313 35.70625Q237.45625 35.065624 237.64375 33.753124ZM247.97188 34.20625L249.78438 34.440624Q249.3625 36.01875 248.19063 36.909374Q247.03438 37.784374 245.22188 37.784374Q242.95625 37.784374 241.6125 36.39375Q240.28438 34.9875 240.28438 32.45625Q240.28438 29.83125 241.62813 28.39375Q242.97188 26.940624 245.12813 26.940624Q247.20625 26.940624 248.51875 28.3625Q249.84688 29.76875 249.84688 32.346874Q249.84688 32.503124 249.83125 32.815624L242.09688 32.815624Q242.19063 34.51875 243.06563 35.425Q243.94063 36.33125 245.2375 36.33125Q246.20625 36.33125 246.87813 35.83125Q247.56563 35.315624 247.97188 34.20625ZM242.19063 31.3625L247.9875 31.3625Q247.87813 30.065624 247.33125 29.409374Q246.4875 28.39375 245.14375 28.39375Q243.94063 28.39375 243.1125 29.20625Q242.28438 30.003124 242.19063 31.3625ZM261.22186 41.753124Q259.76874 39.925 258.76874 37.471874Q257.76874 35.003124 257.76874 32.3625Q257.76874 30.034374 258.51874 27.909374Q259.39374 25.440624 261.22186 22.9875L262.4875 22.9875Q261.3 25.01875 260.925 25.89375Q260.33124 27.2375 259.9875 28.70625Q259.5656 30.534374 259.5656 32.378124Q259.5656 37.065624 262.4875 41.753124L261.22186 41.753124ZM269.1906 37.55L263.64374 23.2375L265.6906 23.2375L269.40936 33.628124Q269.8625 34.878124 270.15936 35.971874Q270.4875 34.8 270.9406 33.628124L274.8 23.2375L276.7375 23.2375L271.1281 37.55L269.1906 37.55ZM278.01874 37.55L278.01874 23.2375L279.90936 23.2375L279.90936 35.8625L286.95624 35.8625L286.95624 37.55L278.01874 37.55ZM289.1281 37.55L289.1281 23.2375L299.4875 23.2375L299.4875 24.925L291.03436 24.925L291.03436 29.3L298.9406 29.3L298.9406 30.9875L291.03436 30.9875L291.03436 35.8625L299.8156 35.8625L299.8156 37.55L289.1281 37.55ZM302.08124 37.55L302.08124 23.2375L304.01874 23.2375L311.53436 34.471874L311.53436 23.2375L313.34686 23.2375L313.34686 37.55L311.40936 37.55L303.89374 26.3L303.89374 37.55L302.08124 37.55ZM324.1125 29.128124L314.65936 29.128124L314.65936 27.4875L324.1125 27.4875L324.1125 29.128124ZM324.1125 33.471874L314.65936 33.471874L314.65936 31.83125L324.1125 31.83125L324.1125 33.471874ZM333.0031 37.55L331.2375 37.55L331.2375 26.346874Q330.6125 26.95625 329.58124 27.565624Q328.55 28.159374 327.72186 28.471874L327.72186 26.76875Q329.20624 26.08125 330.3 25.096874Q331.40936 24.096874 331.8625 23.175L333.0031 23.175L333.0031 37.55ZM346.6125 35.8625L346.6125 37.55L337.15936 37.55Q337.14374 36.909374 337.3625 36.33125Q337.72186 35.3625 338.51874 34.425Q339.3156 33.4875 340.8156 32.253124Q343.15936 30.346874 343.97186 29.2375Q344.8 28.1125 344.8 27.1125Q344.8 26.065624 344.05 25.346874Q343.3 24.628124 342.09686 24.628124Q340.83124 24.628124 340.0656 25.39375Q339.3 26.159374 339.3 27.503124L337.4875 27.315624Q337.675 25.3 338.8781 24.2375Q340.09686 23.175 342.14374 23.175Q344.1906 23.175 345.39374 24.315624Q346.59686 25.45625 346.59686 27.14375Q346.59686 28.003124 346.2375 28.846874Q345.89374 29.675 345.08124 30.596874Q344.26874 31.503124 342.3781 33.1125Q340.78436 34.440624 340.33124 34.909374Q339.89374 35.378124 339.59686 35.8625L346.6125 35.8625ZM351.08124 29.784374Q349.9875 29.378124 349.45624 28.64375Q348.9406 27.89375 348.9406 26.8625Q348.9406 25.3 350.0656 24.2375Q351.1906 23.175 353.05 23.175Q354.925 23.175 356.0656 24.26875Q357.20624 25.346874 357.20624 26.909374Q357.20624 27.909374 356.675 28.64375Q356.15936 29.378124 355.09686 29.784374Q356.425 30.221874 357.1125 31.175Q357.8 32.128124 357.8 33.45625Q357.8 35.3 356.4875 36.55Q355.1906 37.8 353.08124 37.8Q350.95624 37.8 349.65936 36.55Q348.3625 35.284374 348.3625 33.409374Q348.3625 32.01875 349.0656 31.08125Q349.78436 30.128124 351.08124 29.784374ZM350.7375 26.8Q350.7375 27.815624 351.39374 28.471874Q352.05 29.1125 353.08124 29.1125Q354.09686 29.1125 354.7531 28.471874Q355.40936 27.83125 355.40936 26.909374Q355.40936 25.940624 354.7375 25.284374Q354.0656 24.6125 353.0656 24.6125Q352.0656 24.6125 351.39374 25.26875Q350.7375 25.909374 350.7375 26.8ZM350.175 33.425Q350.175 34.175 350.51874 34.878124Q350.8781 35.58125 351.58124 35.971874Q352.28436 36.346874 353.09686 36.346874Q354.3625 36.346874 355.175 35.534374Q356.0031 34.721874 356.0031 33.471874Q356.0031 32.20625 355.15936 31.378124Q354.3156 30.55 353.03436 30.55Q351.8 30.55 350.9875 31.378124Q350.175 32.190624 350.175 33.425ZM360.33124 37.55L360.33124 35.55L362.33124 35.55L362.33124 37.55Q362.33124 38.659374 361.9406 39.33125Q361.55 40.01875 360.70624 40.378124L360.20624 39.628124Q360.76874 39.39375 361.03436 38.909374Q361.3 38.440624 361.33124 37.55L360.33124 37.55ZM372.01874 37.55L372.01874 23.2375L373.90936 23.2375L373.90936 35.8625L380.95624 35.8625L380.95624 37.55L372.01874 37.55ZM383.03436 37.55L383.03436 23.2375L385.89374 23.2375L389.26874 33.3625Q389.7375 34.784374 389.95624 35.4875Q390.20624 34.70625 390.72186 33.190624L394.14374 23.2375L396.6906 23.2375L396.6906 37.55L394.8781 37.55L394.8781 25.565624L390.70624 37.55L389.0031 37.55L384.8625 25.3625L384.8625 37.55L383.03436 37.55ZM409.4875 23.2375L411.3781 23.2375L411.3781 31.503124Q411.3781 33.659374 410.89374 34.940624Q410.40936 36.20625 409.1281 37.003124Q407.8625 37.8 405.78436 37.8Q403.76874 37.8 402.4875 37.1125Q401.22186 36.409374 400.675 35.096874Q400.1281 33.784374 400.1281 31.503124L400.1281 23.2375L402.01874 23.2375L402.01874 31.4875Q402.01874 33.3625 402.3625 34.253124Q402.70624 35.128124 403.55 35.6125Q404.39374 36.08125 405.6281 36.08125Q407.70624 36.08125 408.59686 35.14375Q409.4875 34.190624 409.4875 31.4875L409.4875 23.2375ZM413.01874 37.55L413.01874 23.2375L414.90936 23.2375L414.90936 35.8625L421.95624 35.8625L421.95624 37.55L413.01874 37.55ZM433.1125 29.128124L423.65936 29.128124L423.65936 27.4875L433.1125 27.4875L433.1125 29.128124ZM433.1125 33.471874L423.65936 33.471874L423.65936 31.83125L433.1125 31.83125L433.1125 33.471874ZM442.0031 37.55L440.2375 37.55L440.2375 26.346874Q439.6125 26.95625 438.58124 27.565624Q437.55 28.159374 436.72186 28.471874L436.72186 26.76875Q438.20624 26.08125 439.3 25.096874Q440.40936 24.096874 440.8625 23.175L442.0031 23.175L442.0031 37.55ZM448.01874 41.753124L446.76874 41.753124Q449.675 37.065624 449.675 32.378124Q449.675 30.534374 449.26874 28.7375Q448.925 27.26875 448.33124 25.925Q447.95624 25.034374 446.76874 22.9875L448.01874 22.9875Q449.8625 25.440624 450.7375 27.909374Q451.4875 30.034374 451.4875 32.3625Q451.4875 35.003124 450.47186 37.471874Q449.47186 39.925 448.01874 41.753124Z" fill-rule="nonzero"/></svg>