<svg version="1.1" viewBox="0.0 0.0 600.0 371.0" fill="none" stroke="none" stroke-linecap="square" stroke-miterlimit="10" width="600" height="371" xmlns:xlink="http://www.w3.org/1999/xlink" xmlns="http://www.w3.org/2000/svg"><path fill="#ffffff" d="M0 0L600.0 0L600.0 371.0L0 371.0L0 0Z" fill-rule="nonzero"/><path stroke="#cccccc" stroke-width="1.0" stroke-linecap="butt" d="M87.5 86.5L87.5 300.5" fill-rule="nonzero"/><path stroke="#cccccc" stroke-width="1.0" stroke-linecap="butt" d="M236.5 86.5L236.5 300.5" fill-rule="nonzero"/><path stroke="#cccccc" stroke-width="1.0" stroke-linecap="butt" d="M385.5 86.5L385.5 300.5" fill-rule="nonzero"/><path stroke="#cccccc" stroke-width="1.0" stroke-linecap="butt" d="M535.5 86.5L535.5 300.5" fill-rule="nonzero"/><path stroke="#333333" stroke-width="1.0" stroke-linecap="butt" d="M87.5 300.5L581.5 300.5" fill-rule="nonzero"/><path stroke="#cccccc" stroke-width="1.0" stroke-linecap="butt" d="M87.5 229.5L581.5 229.5" fill-rule="nonzero"/><path stroke="#cccccc" stroke-width="1.0" stroke-linecap="butt" d="M87.5 157.5L581.5 157.5" fill-rule="nonzero"/><path stroke="#cccccc" stroke-width="1.0" stroke-linecap="butt" d="M87.5 86.5L581.5 86.5" fill-rule="nonzero"/><clipPath id="id_0"><path d="M87.55 86.28333L581.45 86.28333L581.45 300.45L87.55 300.45L87.55 86.28333Z" clip-rule="nonzero"/></clipPath><path stroke="#4285f4" stroke-width="2.0" stroke-linecap="butt" clip-path="url(#id_0)" d="M87.55 274.1432L132.45 277.8911L177.35 262.86374L222.25 245.98027L267.15 217.78166L312.05 182.37277L356.95 145.17917L401.85 125.11889L446.75 109.87736L491.65 99.59736L536.55 96.52764L581.45 94.42167" fill-rule="nonzero"/><path stroke="#ea4335" stroke-width="2.0" stroke-linecap="butt" clip-path="url(#id_0)" d="M87.55 277.90613L132.45 270.3915L177.35 270.3915L222.25 283.5421L267.15 276.0275L312.05 266.12842L356.95 260.29376L401.85 254.7821L446.75 253.24123L491.65 252.202L536.55 251.87451L581.45 250.21046" fill-rule="nonzero"/><path fill="#000000" fill-opacity="0.0" clip-path="url(#id_0)" d="M90.55 274.1432C90.55 275.80005 89.206856 277.1432 87.55 277.1432C85.89314 277.1432 84.55 275.80005 84.55 274.1432C84.55 272.48633 85.89314 271.1432 87.55 271.1432C89.206856 271.1432 90.55 272.48633 90.55 274.1432Z" fill-rule="nonzero"/><path fill="#000000" fill-opacity="0.0" clip-path="url(#id_0)" d="M135.45 277.8911C135.45 279.54797 134.10686 280.8911 132.45 280.8911C130.79315 280.8911 129.45 279.54797 129.45 277.8911C129.45 276.23425 130.79315 274.8911 132.45 274.8911C134.10686 274.8911 135.45 276.23425 135.45 277.8911Z" fill-rule="nonzero"/><path fill="#000000" fill-opacity="0.0" clip-path="url(#id_0)" d="M180.35 262.86374C180.35 264.5206 179.00685 265.86374 177.35 265.86374C175.69315 265.86374 174.35 264.5206 174.35 262.86374C174.35 261.2069 175.69315 259.86374 177.35 259.86374C179.00685 259.86374 180.35 261.2069 180.35 262.86374Z" fill-rule="nonzero"/><path fill="#000000" fill-opacity="0.0" clip-path="url(#id_0)" d="M225.25 245.98027C225.25 247.63713 223.90686 248.98027 222.25 248.98027C220.59314 248.98027 219.25 247.63713 219.25 245.98027C219.25 244.32343 220.59314 242.98027 222.25 242.98027C223.90686 242.98027 225.25 244.32343 225.25 245.98027Z" fill-rule="nonzero"/><path fill="#000000" fill-opacity="0.0" clip-path="url(#id_0)" d="M270.15 217.78166C270.15 219.43852 268.80685 220.78166 267.15 220.78166C265.49313 220.78166 264.15 219.43852 264.15 217.78166C264.15 216.12482 265.49313 214.78166 267.15 214.78166C268.80685 214.78166 270.15 216.12482 270.15 217.78166Z" fill-rule="nonzero"/><path fill="#000000" fill-opacity="0.0" clip-path="url(#id_0)" d="M315.05 182.37277C315.05 184.02963 313.70685 185.37277 312.05 185.37277C310.39316 185.37277 309.05 184.02963 309.05 182.37277C309.05 180.71593 310.39316 179.37277 312.05 179.37277C313.70685 179.37277 315.05 180.71593 315.05 182.37277Z" fill-rule="nonzero"/><path fill="#000000" fill-opacity="0.0" clip-path="url(#id_0)" d="M359.95 145.17917C359.95 146.83601 358.60684 148.17917 356.95 148.17917C355.29315 148.17917 353.95 146.83601 353.95 145.17917C353.95 143.52231 355.29315 142.17917 356.95 142.17917C358.60684 142.17917 359.95 143.52231 359.95 145.17917Z" fill-rule="nonzero"/><path fill="#000000" fill-opacity="0.0" clip-path="url(#id_0)" d="M404.85 125.11889C404.85 126.77574 403.50687 128.1189 401.85 128.1189C400.19315 128.1189 398.85 126.77574 398.85 125.11889C398.85 123.462036 400.19315 122.11889 401.85 122.11889C403.50687 122.11889 404.85 123.462036 404.85 125.11889Z" fill-rule="nonzero"/><path fill="#000000" fill-opacity="0.0" clip-path="url(#id_0)" d="M449.75 109.87736C449.75 111.53422 448.40686 112.87736 446.75 112.87736C445.09314 112.87736 443.75 111.53422 443.75 109.87736C443.75 108.220505 445.09314 106.87736 446.75 106.87736C448.40686 106.87736 449.75 108.220505 449.75 109.87736Z" fill-rule="nonzero"/><path fill="#000000" fill-opacity="0.0" clip-path="url(#id_0)" d="M494.65 99.59736C494.65 101.25422 493.30685 102.59736 491.65 102.59736C489.99313 102.59736 488.65 101.25422 488.65 99.59736C488.65 97.940506 489.99313 96.59736 491.65 96.59736C493.30685 96.59736 494.65 97.940506 494.65 99.59736Z" fill-rule="nonzero"/><path fill="#000000" fill-opacity="0.0" clip-path="url(#id_0)" d="M539.55 96.52764C539.55 98.184494 538.20685 99.52764 536.55 99.52764C534.8931 99.52764 533.55 98.184494 533.55 96.52764C533.55 94.87078 534.8931 93.52764 536.55 93.52764C538.20685 93.52764 539.55 94.87078 539.55 96.52764Z" fill-rule="nonzero"/><path fill="#000000" fill-opacity="0.0" clip-path="url(#id_0)" d="M584.45 94.42167C584.45 96.07852 583.1069 97.42167 581.45 97.42167C579.79315 97.42167 578.45 96.07852 578.45 94.42167C578.45 92.76481 579.79315 91.42167 581.45 91.42167C583.1069 91.42167 584.45 92.76481 584.45 94.42167Z" fill-rule="nonzero"/><path fill="#000000" fill-opacity="0.0" clip-path="url(#id_0)" d="M90.55 277.90613C90.55 279.563 89.206856 280.90613 87.55 280.90613C85.89314 280.90613 84.55 279.563 84.55 277.90613C84.55 276.2493 85.89314 274.90613 87.55 274.90613C89.206856 274.90613 90.55 276.2493 90.55 277.90613Z" fill-rule="nonzero"/><path fill="#000000" fill-opacity="0.0" clip-path="url(#id_0)" d="M135.45 270.3915C135.45 272.04837 134.10686 273.3915 132.45 273.3915C130.79315 273.3915 129.45 272.04837 129.45 270.3915C129.45 268.73468 130.79315 267.3915 132.45 267.3915C134.10686 267.3915 135.45 268.73468 135.45 270.3915Z" fill-rule="nonzero"/><path fill="#000000" fill-opacity="0.0" clip-path="url(#id_0)" d="M180.35 270.3915C180.35 272.04837 179.00685 273.3915 177.35 273.3915C175.69315 273.3915 174.35 272.04837 174.35 270.3915C174.35 268.73468 175.69315 267.3915 177.35 267.3915C179.00685 267.3915 180.35 268.73468 180.35 270.3915Z" fill-rule="nonzero"/><path fill="#000000" fill-opacity="0.0" clip-path="url(#id_0)" d="M225.25 283.5421C225.25 285.19897 223.90686 286.5421 222.25 286.5421C220.59314 286.5421 219.25 285.19897 219.25 283.5421C219.25 281.88525 220.59314 280.5421 222.25 280.5421C223.90686 280.5421 225.25 281.88525 225.25 283.5421Z" fill-rule="nonzero"/><path fill="#000000" fill-opacity="0.0" clip-path="url(#id_0)" d="M270.15 276.0275C270.15 277.68433 268.80685 279.0275 267.15 279.0275C265.49313 279.0275 264.15 277.68433 264.15 276.0275C264.15 274.37064 265.49313 273.0275 267.15 273.0275C268.80685 273.0275 270.15 274.37064 270.15 276.0275Z" fill-rule="nonzero"/><path fill="#000000" fill-opacity="0.0" clip-path="url(#id_0)" d="M315.05 266.12842C315.05 267.78528 313.70685 269.12842 312.05 269.12842C310.39316 269.12842 309.05 267.78528 309.05 266.12842C309.05 264.47156 310.39316 263.12842 312.05 263.12842C313.70685 263.12842 315.05 264.47156 315.05 266.12842Z" fill-rule="nonzero"/><path fill="#000000" fill-opacity="0.0" clip-path="url(#id_0)" d="M359.95 260.29376C359.95 261.9506 358.60684 263.29376 356.95 263.29376C355.29315 263.29376 353.95 261.9506 353.95 260.29376C353.95 258.6369 355.29315 257.29376 356.95 257.29376C358.60684 257.29376 359.95 258.6369 359.95 260.29376Z" fill-rule="nonzero"/><path fill="#000000" fill-opacity="0.0" clip-path="url(#id_0)" d="M404.85 254.7821C404.85 256.43896 403.50687 257.7821 401.85 257.7821C400.19315 257.7821 398.85 256.43896 398.85 254.7821C398.85 253.12526 400.19315 251.7821 401.85 251.7821C403.50687 251.7821 404.85 253.12526 404.85 254.7821Z" fill-rule="nonzero"/><path fill="#000000" fill-opacity="0.0" clip-path="url(#id_0)" d="M449.75 253.24123C449.75 254.89807 448.40686 256.2412 446.75 256.2412C445.09314 256.2412 443.75 254.89807 443.75 253.24123C443.75 251.58437 445.09314 250.24123 446.75 250.24123C448.40686 250.24123 449.75 251.58437 449.75 253.24123Z" fill-rule="nonzero"/><path fill="#000000" fill-opacity="0.0" clip-path="url(#id_0)" d="M494.65 252.202C494.65 253.85886 493.30685 255.202 491.65 255.202C489.99313 255.202 488.65 253.85886 488.65 252.202C488.65 250.54515 489.99313 249.202 491.65 249.202C493.30685 249.202 494.65 250.54515 494.65 252.202Z" fill-rule="nonzero"/><path fill="#000000" fill-opacity="0.0" clip-path="url(#id_0)" d="M539.55 251.87451C539.55 253.53137 538.20685 254.87451 536.55 254.87451C534.8931 254.87451 533.55 253.53137 533.55 251.87451C533.55 250.21767 534.8931 248.87451 536.55 248.87451C538.20685 248.87451 539.55 250.21767 539.55 251.87451Z" fill-rule="nonzero"/><path fill="#000000" fill-opacity="0.0" clip-path="url(#id_0)" d="M584.45 250.21046C584.45 251.86731 583.1069 253.21046 581.45 253.21046C579.79315 253.21046 578.45 251.86731 578.45 250.21046C578.45 248.5536 579.79315 247.21046 581.45 247.21046C583.1069 247.21046 584.45 248.5536 584.45 250.21046Z" fill-rule="nonzero"/><path fill="#000000" d="M287.875 349.45L287.875 340.85626L291.10938 340.85626Q292.09375 340.85626 292.6875 341.1219Q293.28125 341.3875 293.60938 341.9344Q293.95312 342.46564 293.95312 343.0594Q293.95312 343.60626 293.65625 344.09064Q293.35938 344.575 292.75 344.8719Q293.53125 345.10626 293.9375 345.66876Q294.35938 346.21564 294.35938 346.96564Q294.35938 347.5594 294.10938 348.09064Q293.85938 348.60626 293.48438 348.8875Q293.10938 349.16876 292.53125 349.3094Q291.96875 349.45 291.15625 349.45L287.875 349.45ZM289.01562 344.46564L290.875 344.46564Q291.625 344.46564 291.95312 344.3719Q292.39062 344.2469 292.60938 343.95Q292.82812 343.6375 292.82812 343.1844Q292.82812 342.7625 292.625 342.4344Q292.42188 342.10626 292.03125 341.9969Q291.65625 341.8719 290.73438 341.8719L289.01562 341.8719L289.01562 344.46564ZM289.01562 348.4344L291.15625 348.4344Q291.70312 348.4344 291.92188 348.3875Q292.32812 348.325 292.57812 348.16876Q292.84375 347.9969 293.01562 347.6844Q293.1875 347.3719 293.1875 346.96564Q293.1875 346.48126 292.9375 346.1219Q292.70312 345.7625 292.26562 345.6219Q291.82812 345.48126 291.0 345.48126L289.01562 345.48126L289.01562 348.4344ZM295.76562 349.45L295.76562 340.85626L296.82812 340.85626L296.82812 349.45L295.76562 349.45ZM298.40625 346.34064Q298.40625 344.60626 299.35938 343.77814Q300.15625 343.09064 301.3125 343.09064Q302.59375 343.09064 303.40625 343.9344Q304.23438 344.7625 304.23438 346.2469Q304.23438 347.45 303.875 348.1375Q303.51562 348.825 302.8125 349.21564Q302.125 349.59064 301.3125 349.59064Q300.01562 349.59064 299.20312 348.7625Q298.40625 347.91876 298.40625 346.34064ZM299.48438 346.34064Q299.48438 347.52814 300.0 348.1219Q300.53125 348.71564 301.3125 348.71564Q302.10938 348.71564 302.625 348.1219Q303.14062 347.52814 303.14062 346.3094Q303.14062 345.15314 302.60938 344.5594Q302.09375 343.96564 301.3125 343.96564Q300.53125 343.96564 300.0 344.5594Q299.48438 345.1375 299.48438 346.34064ZM309.85938 347.16876L310.89062 347.3094Q310.71875 348.3719 310.01562 348.98126Q309.3125 349.59064 308.29688 349.59064Q307.01562 349.59064 306.23438 348.7625Q305.46875 347.91876 305.46875 346.35626Q305.46875 345.35626 305.79688 344.60626Q306.14062 343.84064 306.8125 343.46564Q307.5 343.09064 308.3125 343.09064Q309.3125 343.09064 309.95312 343.60626Q310.60938 344.10626 310.79688 345.0594L309.76562 345.21564Q309.625 344.59064 309.25 344.27814Q308.875 343.95 308.34375 343.95Q307.54688 343.95 307.04688 344.52814Q306.54688 345.09064 306.54688 346.325Q306.54688 347.59064 307.03125 348.15314Q307.51562 348.71564 308.28125 348.71564Q308.90625 348.71564 309.3125 348.34064Q309.73438 347.96564 309.85938 347.16876ZM311.79688 349.45L311.79688 340.85626L312.85938 340.85626L312.85938 345.7625L315.34375 343.23126L316.71875 343.23126L314.32812 345.52814L316.95312 349.45L315.65625 349.45L313.59375 346.2625L312.85938 346.98126L312.85938 349.45L311.79688 349.45ZM320.375 347.59064L321.40625 347.4344Q321.5 348.0594 321.89062 348.3875Q322.29688 348.71564 323.03125 348.71564Q323.75 348.71564 324.09375 348.4344Q324.45312 348.1375 324.45312 347.73126Q324.45312 347.3719 324.14062 347.16876Q323.92188 347.02814 323.0625 346.8094Q321.90625 346.5125 321.45312 346.3094Q321.01562 346.09064 320.78125 345.71564Q320.54688 345.34064 320.54688 344.8719Q320.54688 344.46564 320.73438 344.10626Q320.92188 343.7469 321.25 343.5125Q321.5 343.34064 321.92188 343.21564Q322.34375 343.09064 322.84375 343.09064Q323.5625 343.09064 324.10938 343.3094Q324.67188 343.5125 324.9375 343.8719Q325.20312 344.23126 325.29688 344.825L324.26562 344.96564Q324.20312 344.4969 323.85938 344.23126Q323.53125 343.95 322.90625 343.95Q322.1875 343.95 321.875 344.2Q321.5625 344.4344 321.5625 344.7625Q321.5625 344.96564 321.6875 345.1219Q321.82812 345.29376 322.09375 345.40314Q322.25 345.46564 323.03125 345.66876Q324.15625 345.98126 324.59375 346.16876Q325.03125 346.35626 325.28125 346.71564Q325.53125 347.075 325.53125 347.6219Q325.53125 348.15314 325.21875 348.6219Q324.92188 349.075 324.34375 349.34064Q323.76562 349.59064 323.03125 349.59064Q321.8125 349.59064 321.17188 349.09064Q320.54688 348.575 320.375 347.59064ZM327.79688 342.075L327.79688 340.85626L328.85938 340.85626L328.85938 342.075L327.79688 342.075ZM327.79688 349.45L327.79688 343.23126L328.85938 343.23126L328.85938 349.45L327.79688 349.45ZM330.23438 349.45L330.23438 348.59064L334.20312 344.04376Q333.51562 344.075 333.0 344.075L330.46875 344.075L330.46875 343.23126L335.5625 343.23126L335.5625 343.91876L332.1875 347.8719L331.53125 348.59064Q332.25 348.54376 332.85938 348.54376L335.75 348.54376L335.75 349.45L330.23438 349.45ZM340.04688 347.45L341.14062 347.575Q340.89062 348.52814 340.1875 349.0594Q339.48438 349.59064 338.40625 349.59064Q337.04688 349.59064 336.23438 348.7469Q335.4375 347.90314 335.4375 346.3875Q335.4375 344.825 336.25 343.96564Q337.0625 343.09064 338.34375 343.09064Q339.59375 343.09064 340.375 343.9344Q341.17188 344.77814 341.17188 346.325Q341.17188 346.41876 341.17188 346.60626L336.53125 346.60626Q336.59375 347.6375 337.10938 348.1844Q337.625 348.71564 338.40625 348.71564Q338.98438 348.71564 339.39062 348.41876Q339.8125 348.10626 340.04688 347.45ZM336.59375 345.7469L340.0625 345.7469Q340.0 344.95 339.67188 344.5594Q339.15625 343.95 338.35938 343.95Q337.625 343.95 337.125 344.4344Q336.64062 344.91876 336.59375 345.7469ZM347.8125 351.98126Q346.9375 350.8719 346.32812 349.40314Q345.73438 347.91876 345.73438 346.34064Q345.73438 344.95 346.17188 343.66876Q346.70312 342.1844 347.8125 340.71564L348.5625 340.71564Q347.85938 341.9344 347.625 342.45Q347.26562 343.2625 347.0625 344.1375Q346.8125 345.23126 346.8125 346.34064Q346.8125 349.16876 348.5625 351.98126L347.8125 351.98126ZM350.76562 349.45L349.78125 349.45L349.78125 340.85626L350.84375 340.85626L350.84375 343.91876Q351.51562 343.09064 352.54688 343.09064Q353.125 343.09064 353.625 343.325Q354.14062 343.54376 354.46875 343.96564Q354.8125 344.3875 355.0 344.98126Q355.1875 345.575 355.1875 346.2469Q355.1875 347.84064 354.39062 348.71564Q353.59375 349.59064 352.5 349.59064Q351.39062 349.59064 350.76562 348.66876L350.76562 349.45ZM350.75 346.29376Q350.75 347.40314 351.0625 347.90314Q351.5625 348.71564 352.40625 348.71564Q353.09375 348.71564 353.59375 348.1219Q354.10938 347.52814 354.10938 346.325Q354.10938 345.10626 353.625 344.52814Q353.14062 343.95 352.45312 343.95Q351.76562 343.95 351.25 344.5594Q350.75 345.15314 350.75 346.29376ZM356.75 351.84064L356.625 350.85626Q356.96875 350.95 357.23438 350.95Q357.57812 350.95 357.78125 350.825Q358.0 350.71564 358.14062 350.5125Q358.23438 350.34064 358.46875 349.71564Q358.48438 349.6375 358.5625 349.46564L356.1875 343.23126L357.32812 343.23126L358.625 346.825Q358.875 347.5125 359.07812 348.27814Q359.26562 347.54376 359.51562 346.85626L360.84375 343.23126L361.89062 343.23126L359.53125 349.5594Q359.14062 350.575 358.9375 350.96564Q358.65625 351.4969 358.28125 351.73126Q357.92188 351.98126 357.42188 351.98126Q357.125 351.98126 356.75 351.84064ZM364.09375 348.5125L364.25 349.4344Q363.79688 349.52814 363.45312 349.52814Q362.875 349.52814 362.5625 349.35626Q362.25 349.16876 362.10938 348.8719Q361.98438 348.575 361.98438 347.6219L361.98438 344.04376L361.21875 344.04376L361.21875 343.23126L361.98438 343.23126L361.98438 341.6844L363.03125 341.0594L363.03125 343.23126L364.09375 343.23126L364.09375 344.04376L363.03125 344.04376L363.03125 347.6844Q363.03125 348.1375 363.07812 348.2625Q363.14062 348.3875 363.26562 348.46564Q363.39062 348.54376 363.625 348.54376Q363.8125 348.54376 364.09375 348.5125ZM369.04688 347.45L370.14062 347.575Q369.89062 348.52814 369.1875 349.0594Q368.48438 349.59064 367.40625 349.59064Q366.04688 349.59064 365.23438 348.7469Q364.4375 347.90314 364.4375 346.3875Q364.4375 344.825 365.25 343.96564Q366.0625 343.09064 367.34375 343.09064Q368.59375 343.09064 369.375 343.9344Q370.17188 344.77814 370.17188 346.325Q370.17188 346.41876 370.17188 346.60626L365.53125 346.60626Q365.59375 347.6375 366.10938 348.1844Q366.625 348.71564 367.40625 348.71564Q367.98438 348.71564 368.39062 348.41876Q368.8125 348.10626 369.04688 347.45ZM365.59375 345.7469L369.0625 345.7469Q369.0 344.95 368.67188 344.5594Q368.15625 343.95 367.35938 343.95Q366.625 343.95 366.125 344.4344Q365.64062 344.91876 365.59375 345.7469ZM371.375 347.59064L372.40625 347.4344Q372.5 348.0594 372.89062 348.3875Q373.29688 348.71564 374.03125 348.71564Q374.75 348.71564 375.09375 348.4344Q375.45312 348.1375 375.45312 347.73126Q375.45312 347.3719 375.14062 347.16876Q374.92188 347.02814 374.0625 346.8094Q372.90625 346.5125 372.45312 346.3094Q372.01562 346.09064 371.78125 345.71564Q371.54688 345.34064 371.54688 344.8719Q371.54688 344.46564 371.73438 344.10626Q371.92188 343.7469 372.25 343.5125Q372.5 343.34064 372.92188 343.21564Q373.34375 343.09064 373.84375 343.09064Q374.5625 343.09064 375.10938 343.3094Q375.67188 343.5125 375.9375 343.8719Q376.20312 344.23126 376.29688 344.825L375.26562 344.96564Q375.20312 344.4969 374.85938 344.23126Q374.53125 343.95 373.90625 343.95Q373.1875 343.95 372.875 344.2Q372.5625 344.4344 372.5625 344.7625Q372.5625 344.96564 372.6875 345.1219Q372.82812 345.29376 373.09375 345.40314Q373.25 345.46564 374.03125 345.66876Q375.15625 345.98126 375.59375 346.16876Q376.03125 346.35626 376.28125 346.71564Q376.53125 347.075 376.53125 347.6219Q376.53125 348.15314 376.21875 348.6219Q375.92188 349.075 375.34375 349.34064Q374.76562 349.59064 374.03125 349.59064Q372.8125 349.59064 372.17188 349.09064Q371.54688 348.575 371.375 347.59064ZM379.48438 351.98126L378.73438 351.98126Q380.48438 349.16876 380.48438 346.34064Q380.48438 345.2469 380.23438 344.15314Q380.03125 343.27814 379.67188 342.46564Q379.4375 341.95 378.73438 340.71564L379.48438 340.71564Q380.57812 342.1844 381.10938 343.66876Q381.5625 344.95 381.5625 346.34064Q381.5625 347.91876 380.95312 349.40314Q380.34375 350.8719 379.48438 351.98126Z" fill-rule="nonzero"/><path fill="#000000" d="M29.550013 280.74167L20.956263 280.74167L20.956263 279.61667L29.550013 279.61667L29.550013 280.74167ZM29.550013 278.0698L23.331263 278.0698L23.331263 277.1323L24.206263 277.1323Q23.190638 276.4448 23.190638 275.14792Q23.190638 274.58542 23.393763 274.11667Q23.596888 273.6323 23.925013 273.39792Q24.253138 273.16354 24.690638 273.0698Q24.987513 273.02292 25.721888 273.02292L29.550013 273.02292L29.550013 274.0698L25.768763 274.0698Q25.112513 274.0698 24.800013 274.1948Q24.487513 274.3198 24.300013 274.6323Q24.096888 274.9448 24.096888 275.36667Q24.096888 276.03854 24.534388 276.53854Q24.956263 277.02292 26.143763 277.02292L29.550013 277.02292L29.550013 278.0698ZM27.690638 271.49167L27.534388 270.46042Q28.159388 270.36667 28.487513 269.97604Q28.815638 269.5698 28.815638 268.83542Q28.815638 268.11667 28.534388 267.77292Q28.237513 267.41354 27.831263 267.41354Q27.471888 267.41354 27.268763 267.72604Q27.128138 267.9448 26.909388 268.80417Q26.612513 269.96042 26.409388 270.41354Q26.190638 270.85104 25.815638 271.08542Q25.440638 271.3198 24.971888 271.3198Q24.565638 271.3198 24.206263 271.1323Q23.846888 270.9448 23.612513 270.61667Q23.440638 270.36667 23.315638 269.9448Q23.190638 269.52292 23.190638 269.02292Q23.190638 268.30417 23.409388 267.7573Q23.612513 267.1948 23.971888 266.92917Q24.331263 266.66354 24.925013 266.5698L25.065638 267.60104Q24.596888 267.66354 24.331263 268.0073Q24.050013 268.33542 24.050013 268.96042Q24.050013 269.67917 24.300013 269.99167Q24.534388 270.30417 24.862513 270.30417Q25.065638 270.30417 25.221888 270.17917Q25.393763 270.03854 25.503138 269.77292Q25.565638 269.61667 25.768763 268.83542Q26.081263 267.71042 26.268763 267.27292Q26.456263 266.83542 26.815638 266.58542Q27.175013 266.33542 27.721888 266.33542Q28.253138 266.33542 28.721888 266.64792Q29.175013 266.9448 29.440638 267.52292Q29.690638 268.10104 29.690638 268.83542Q29.690638 270.05417 29.190638 270.6948Q28.675013 271.3198 27.690638 271.49167ZM28.612513 261.77292L29.534388 261.61667Q29.628138 262.0698 29.628138 262.41354Q29.628138 262.99167 29.456263 263.30417Q29.268763 263.61667 28.971888 263.7573Q28.675013 263.8823 27.721888 263.8823L24.143763 263.8823L24.143763 264.64792L23.331263 264.64792L23.331263 263.8823L21.784388 263.8823L21.159388 262.83542L23.331263 262.83542L23.331263 261.77292L24.143763 261.77292L24.143763 262.83542L27.784388 262.83542Q28.237513 262.83542 28.362513 262.78854Q28.487513 262.72604 28.565638 262.60104Q28.643763 262.47604 28.643763 262.24167Q28.643763 262.05417 28.612513 261.77292ZM29.550013 261.08542L23.331263 261.08542L23.331263 260.1323L24.268763 260.1323Q23.612513 259.77292 23.409388 259.47604Q23.190638 259.16354 23.190638 258.78854Q23.190638 258.2573 23.518763 257.71042L24.503138 258.0698Q24.268763 258.46042 24.268763 258.83542Q24.268763 259.1948 24.487513 259.47604Q24.690638 259.74167 25.065638 259.85104Q25.628138 260.03854 26.284388 260.03854L29.550013 260.03854L29.550013 261.08542ZM29.550013 252.99167L28.628138 252.99167Q29.690638 253.72604 29.690638 254.97604Q29.690638 255.52292 29.487513 256.0073Q29.268763 256.47604 28.956263 256.71042Q28.628138 256.9448 28.159388 257.03854Q27.862513 257.10104 27.175013 257.10104L23.331263 257.10104L23.331263 256.03854L26.784388 256.03854Q27.596888 256.03854 27.893763 255.97604Q28.300013 255.8823 28.550013 255.5698Q28.784388 255.24167 28.784388 254.7573Q28.784388 254.28854 28.550013 253.8823Q28.300013 253.46042 27.878138 253.28854Q27.456263 253.10104 26.659388 253.10104L23.331263 253.10104L23.331263 252.05417L29.550013 252.05417L29.550013 252.99167ZM27.268763 246.0073L27.409388 244.97604Q28.471888 245.14792 29.081263 245.85104Q29.690638 246.55417 29.690638 247.5698Q29.690638 248.85104 28.862513 249.6323Q28.018763 250.39792 26.456263 250.39792Q25.456263 250.39792 24.706263 250.0698Q23.940638 249.72604 23.565638 249.05417Q23.190638 248.36667 23.190638 247.55417Q23.190638 246.55417 23.706263 245.91354Q24.206263 245.2573 25.159388 245.0698L25.315638 246.10104Q24.690638 246.24167 24.378138 246.61667Q24.050013 246.99167 24.050013 247.52292Q24.050013 248.3198 24.628138 248.8198Q25.190638 249.3198 26.425013 249.3198Q27.690638 249.3198 28.253138 248.83542Q28.815638 248.35104 28.815638 247.58542Q28.815638 246.96042 28.440638 246.55417Q28.065638 246.1323 27.268763 246.0073ZM28.612513 241.77292L29.534388 241.61667Q29.628138 242.0698 29.628138 242.41354Q29.628138 242.99167 29.456263 243.30417Q29.268763 243.61667 28.971888 243.7573Q28.675013 243.8823 27.721888 243.8823L24.143763 243.8823L24.143763 244.64792L23.331263 244.64792L23.331263 243.8823L21.784388 243.8823L21.159388 242.83542L23.331263 242.83542L23.331263 241.77292L24.143763 241.77292L24.143763 242.83542L27.784388 242.83542Q28.237513 242.83542 28.362513 242.78854Q28.487513 242.72604 28.565638 242.60104Q28.643763 242.47604 28.643763 242.24167Q28.643763 242.05417 28.612513 241.77292ZM22.175013 241.0698L20.956263 241.0698L20.956263 240.0073L22.175013 240.0073L22.175013 241.0698ZM29.550013 241.0698L23.331263 241.0698L23.331263 240.0073L29.550013 240.0073L29.550013 241.0698ZM26.440638 238.46042Q24.706263 238.46042 23.878138 237.5073Q23.190638 236.71042 23.190638 235.55417Q23.190638 234.27292 24.034388 233.46042Q24.862513 232.6323 26.346888 232.6323Q27.550013 232.6323 28.237513 232.99167Q28.925013 233.35104 29.315638 234.05417Q29.690638 234.74167 29.690638 235.55417Q29.690638 236.85104 28.862513 237.66354Q28.018763 238.46042 26.440638 238.46042ZM26.440638 237.3823Q27.628138 237.3823 28.221888 236.86667Q28.815638 236.33542 28.815638 235.55417Q28.815638 234.7573 28.221888 234.24167Q27.628138 233.72604 26.409388 233.72604Q25.253138 233.72604 24.659388 234.2573Q24.065638 234.77292 24.065638 235.55417Q24.065638 236.33542 24.659388 236.86667Q25.237513 237.3823 26.440638 237.3823ZM29.550013 231.0698L23.331263 231.0698L23.331263 230.1323L24.206263 230.1323Q23.190638 229.4448 23.190638 228.14792Q23.190638 227.58542 23.393763 227.11667Q23.596888 226.6323 23.925013 226.39792Q24.253138 226.16354 24.690638 226.0698Q24.987513 226.02292 25.721888 226.02292L29.550013 226.02292L29.550013 227.0698L25.768763 227.0698Q25.112513 227.0698 24.800013 227.1948Q24.487513 227.3198 24.300013 227.6323Q24.096888 227.9448 24.096888 228.36667Q24.096888 229.03854 24.534388 229.53854Q24.956263 230.02292 26.143763 230.02292L29.550013 230.02292L29.550013 231.0698ZM27.550013 216.8198L27.675013 215.72604Q28.628138 215.97604 29.159388 216.67917Q29.690638 217.3823 29.690638 218.46042Q29.690638 219.8198 28.846888 220.6323Q28.003138 221.42917 26.487513 221.42917Q24.925013 221.42917 24.065638 220.61667Q23.190638 219.80417 23.190638 218.52292Q23.190638 217.27292 24.034388 216.49167Q24.878138 215.6948 26.425013 215.6948Q26.518763 215.6948 26.706263 215.6948L26.706263 220.33542Q27.737513 220.27292 28.284388 219.7573Q28.815638 219.24167 28.815638 218.46042Q28.815638 217.8823 28.518763 217.47604Q28.206263 217.05417 27.550013 216.8198ZM25.846888 220.27292L25.846888 216.80417Q25.050013 216.86667 24.659388 217.1948Q24.050013 217.71042 24.050013 218.5073Q24.050013 219.24167 24.534388 219.74167Q25.018763 220.22604 25.846888 220.27292ZM29.550013 214.77292L26.315638 212.5073L23.331263 214.60104L23.331263 213.28854L24.784388 212.33542Q25.206263 212.0698 25.487513 211.89792Q25.096888 211.64792 24.800013 211.42917L23.331263 210.3823L23.331263 209.11667L26.253138 211.27292L29.550013 208.96042L29.550013 210.24167L27.612513 211.52292L27.096888 211.86667L29.550013 213.5073L29.550013 214.77292ZM27.550013 204.8198L27.675013 203.72604Q28.628138 203.97604 29.159388 204.67917Q29.690638 205.3823 29.690638 206.46042Q29.690638 207.8198 28.846888 208.6323Q28.003138 209.42917 26.487513 209.42917Q24.925013 209.42917 24.065638 208.61667Q23.190638 207.80417 23.190638 206.52292Q23.190638 205.27292 24.034388 204.49167Q24.878138 203.6948 26.425013 203.6948Q26.518763 203.6948 26.706263 203.6948L26.706263 208.33542Q27.737513 208.27292 28.284388 207.7573Q28.815638 207.24167 28.815638 206.46042Q28.815638 205.8823 28.518763 205.47604Q28.206263 205.05417 27.550013 204.8198ZM25.846888 208.27292L25.846888 204.80417Q25.050013 204.86667 24.659388 205.1948Q24.050013 205.71042 24.050013 206.5073Q24.050013 207.24167 24.534388 207.74167Q25.018763 208.22604 25.846888 208.27292ZM27.268763 198.0073L27.409388 196.97604Q28.471888 197.14792 29.081263 197.85104Q29.690638 198.55417 29.690638 199.5698Q29.690638 200.85104 28.862513 201.6323Q28.018763 202.39792 26.456263 202.39792Q25.456263 202.39792 24.706263 202.0698Q23.940638 201.72604 23.565638 201.05417Q23.190638 200.36667 23.190638 199.55417Q23.190638 198.55417 23.706263 197.91354Q24.206263 197.2573 25.159388 197.0698L25.315638 198.10104Q24.690638 198.24167 24.378138 198.61667Q24.050013 198.99167 24.050013 199.52292Q24.050013 200.3198 24.628138 200.8198Q25.190638 201.3198 26.425013 201.3198Q27.690638 201.3198 28.253138 200.83542Q28.815638 200.35104 28.815638 199.58542Q28.815638 198.96042 28.440638 198.55417Q28.065638 198.1323 27.268763 198.0073ZM29.550013 191.99167L28.628138 191.99167Q29.690638 192.72604 29.690638 193.97604Q29.690638 194.52292 29.487513 195.0073Q29.268763 195.47604 28.956263 195.71042Q28.628138 195.9448 28.159388 196.03854Q27.862513 196.10104 27.175013 196.10104L23.331263 196.10104L23.331263 195.03854L26.784388 195.03854Q27.596888 195.03854 27.893763 194.97604Q28.300013 194.8823 28.550013 194.5698Q28.784388 194.24167 28.784388 193.7573Q28.784388 193.28854 28.550013 192.8823Q28.300013 192.46042 27.878138 192.28854Q27.456263 192.10104 26.659388 192.10104L23.331263 192.10104L23.331263 191.05417L29.550013 191.05417L29.550013 191.99167ZM28.612513 186.77292L29.534388 186.61667Q29.628138 187.0698 29.628138 187.41354Q29.628138 187.99167 29.456263 188.30417Q29.268763 188.61667 28.971888 188.7573Q28.675013 188.8823 27.721888 188.8823L24.143763 188.8823L24.143763 189.64792L23.331263 189.64792L23.331263 188.8823L21.784388 188.8823L21.159388 187.83542L23.331263 187.83542L23.331263 186.77292L24.143763 186.77292L24.143763 187.83542L27.784388 187.83542Q28.237513 187.83542 28.362513 187.78854Q28.487513 187.72604 28.565638 187.60104Q28.643763 187.47604 28.643763 187.24167Q28.643763 187.05417 28.612513 186.77292ZM22.175013 186.0698L20.956263 186.0698L20.956263 185.0073L22.175013 185.0073L22.175013 186.0698ZM29.550013 186.0698L23.331263 186.0698L23.331263 185.0073L29.550013 185.0073L29.550013 186.0698ZM26.440638 183.46042Q24.706263 183.46042 23.878138 182.5073Q23.190638 181.71042 23.190638 180.55417Q23.190638 179.27292 24.034388 178.46042Q24.862513 177.6323 26.346888 177.6323Q27.550013 177.6323 28.237513 177.99167Q28.925013 178.35104 29.315638 179.05417Q29.690638 179.74167 29.690638 180.55417Q29.690638 181.85104 28.862513 182.66354Q28.018763 183.46042 26.440638 183.46042ZM26.440638 182.3823Q27.628138 182.3823 28.221888 181.86667Q28.815638 181.33542 28.815638 180.55417Q28.815638 179.7573 28.221888 179.24167Q27.628138 178.72604 26.409388 178.72604Q25.253138 178.72604 24.659388 179.2573Q24.065638 179.77292 24.065638 180.55417Q24.065638 181.33542 24.659388 181.86667Q25.237513 182.3823 26.440638 182.3823ZM29.550013 176.0698L23.331263 176.0698L23.331263 175.1323L24.206263 175.1323Q23.190638 174.4448 23.190638 173.14792Q23.190638 172.58542 23.393763 172.11667Q23.596888 171.6323 23.925013 171.39792Q24.253138 171.16354 24.690638 171.0698Q24.987513 171.02292 25.721888 171.02292L29.550013 171.02292L29.550013 172.0698L25.768763 172.0698Q25.112513 172.0698 24.800013 172.1948Q24.487513 172.3198 24.300013 172.6323Q24.096888 172.9448 24.096888 173.36667Q24.096888 174.03854 24.534388 174.53854Q24.956263 175.02292 26.143763 175.02292L29.550013 175.02292L29.550013 176.0698ZM28.612513 163.77292L29.534388 163.61667Q29.628138 164.0698 29.628138 164.41354Q29.628138 164.99167 29.456263 165.30417Q29.268763 165.61667 28.971888 165.7573Q28.675013 165.8823 27.721888 165.8823L24.143763 165.8823L24.143763 166.64792L23.331263 166.64792L23.331263 165.8823L21.784388 165.8823L21.159388 164.83542L23.331263 164.83542L23.331263 163.77292L24.143763 163.77292L24.143763 164.83542L27.784388 164.83542Q28.237513 164.83542 28.362513 164.78854Q28.487513 164.72604 28.565638 164.60104Q28.643763 164.47604 28.643763 164.24167Q28.643763 164.05417 28.612513 163.77292ZM22.175013 163.0698L20.956263 163.0698L20.956263 162.0073L22.175013 162.0073L22.175013 163.0698ZM29.550013 163.0698L23.331263 163.0698L23.331263 162.0073L29.550013 162.0073L29.550013 163.0698ZM29.550013 160.0698L23.331263 160.0698L23.331263 159.1323L24.206263 159.1323Q23.737513 158.83542 23.471888 158.35104Q23.190638 157.86667 23.190638 157.24167Q23.190638 156.55417 23.471888 156.11667Q23.753138 155.66354 24.268763 155.49167Q23.190638 154.74167 23.190638 153.5698Q23.190638 152.6323 23.706263 152.14792Q24.206263 151.64792 25.284388 151.64792L29.550013 151.64792L29.550013 152.6948L25.628138 152.6948Q25.003138 152.6948 24.721888 152.80417Q24.440638 152.89792 24.268763 153.16354Q24.096888 153.42917 24.096888 153.80417Q24.096888 154.46042 24.534388 154.89792Q24.971888 155.3198 25.940638 155.3198L29.550013 155.3198L29.550013 156.3823L25.503138 156.3823Q24.800013 156.3823 24.456263 156.64792Q24.096888 156.89792 24.096888 157.47604Q24.096888 157.92917 24.331263 158.30417Q24.565638 158.67917 25.018763 158.85104Q25.471888 159.02292 26.315638 159.02292L29.550013 159.02292L29.550013 160.0698ZM27.550013 144.8198L27.675013 143.72604Q28.628138 143.97604 29.159388 144.67917Q29.690638 145.3823 29.690638 146.46042Q29.690638 147.8198 28.846888 148.6323Q28.003138 149.42917 26.487513 149.42917Q24.925013 149.42917 24.065638 148.61667Q23.190638 147.80417 23.190638 146.52292Q23.190638 145.27292 24.034388 144.49167Q24.878138 143.6948 26.425013 143.6948Q26.518763 143.6948 26.706263 143.6948L26.706263 148.33542Q27.737513 148.27292 28.284388 147.7573Q28.815638 147.24167 28.815638 146.46042Q28.815638 145.8823 28.518763 145.47604Q28.206263 145.05417 27.550013 144.8198ZM25.846888 148.27292L25.846888 144.80417Q25.050013 144.86667 24.659388 145.1948Q24.050013 145.71042 24.050013 146.5073Q24.050013 147.24167 24.534388 147.74167Q25.018763 148.22604 25.846888 148.27292ZM32.08126 137.05417Q30.971888 137.92917 29.503138 138.53854Q28.018763 139.1323 26.440638 139.1323Q25.050013 139.1323 23.768763 138.6948Q22.284388 138.16354 20.815638 137.05417L20.815638 136.30417Q22.034388 137.0073 22.550013 137.24167Q23.362513 137.60104 24.237513 137.80417Q25.331263 138.05417 26.440638 138.05417Q29.268763 138.05417 32.08126 136.30417L32.08126 137.05417ZM29.550013 135.0698L23.331263 135.0698L23.331263 134.1323L24.206263 134.1323Q23.190638 133.4448 23.190638 132.14792Q23.190638 131.58542 23.393763 131.11667Q23.596888 130.6323 23.925013 130.39792Q24.253138 130.16354 24.690638 130.0698Q24.987513 130.02292 25.721888 130.02292L29.550013 130.02292L29.550013 131.0698L25.768763 131.0698Q25.112513 131.0698 24.800013 131.1948Q24.487513 131.3198 24.300013 131.6323Q24.096888 131.9448 24.096888 132.36667Q24.096888 133.03854 24.534388 133.53854Q24.956263 134.02292 26.143763 134.02292L29.550013 134.02292L29.550013 135.0698ZM27.690638 128.49167L27.534388 127.46042Q28.159388 127.36667 28.487513 126.97604Q28.815638 126.56979 28.815638 125.83542Q28.815638 125.11667 28.534388 124.77292Q28.237513 124.41354 27.831263 124.41354Q27.471888 124.41354 27.268763 124.72604Q27.128138 124.94479 26.909388 125.80417Q26.612513 126.96042 26.409388 127.41354Q26.190638 127.85104 25.815638 128.08542Q25.440638 128.3198 24.971888 128.3198Q24.565638 128.3198 24.206263 128.1323Q23.846888 127.94479 23.612513 127.61667Q23.440638 127.36667 23.315638 126.94479Q23.190638 126.52292 23.190638 126.02292Q23.190638 125.30417 23.409388 124.75729Q23.612513 124.19479 23.971888 123.92917Q24.331263 123.66354 24.925013 123.56979L25.065638 124.60104Q24.596888 124.66354 24.331263 125.00729Q24.050013 125.33542 24.050013 125.96042Q24.050013 126.67917 24.300013 126.99167Q24.534388 127.30417 24.862513 127.30417Q25.065638 127.30417 25.221888 127.17917Q25.393763 127.03854 25.503138 126.77292Q25.565638 126.61667 25.768763 125.83542Q26.081263 124.71042 26.268763 124.27292Q26.456263 123.83542 26.815638 123.58542Q27.175013 123.33542 27.721888 123.33542Q28.253138 123.33542 28.721888 123.64792Q29.175013 123.94479 29.440638 124.52292Q29.690638 125.10104 29.690638 125.83542Q29.690638 127.05417 29.190638 127.69479Q28.675013 128.3198 27.690638 128.49167ZM32.08126 120.38229L32.08126 121.13229Q29.268763 119.38229 26.440638 119.38229Q25.346888 119.38229 24.253138 119.63229Q23.378138 119.83542 22.565638 120.19479Q22.050013 120.42917 20.815638 121.13229L20.815638 120.38229Q22.284388 119.28854 23.768763 118.75729Q25.050013 118.30417 26.440638 118.30417Q28.018763 118.30417 29.503138 118.91354Q30.971888 119.52292 32.08126 120.38229Z" fill-rule="nonzero"/><path fill="#000000" d="M77.925 301.8719L77.925 300.8094L81.175 300.8094L81.175 301.8719L77.925 301.8719Z" fill-rule="nonzero"/><path fill="#000000" d="M56.596874 232.04549L56.596874 233.06111L50.909374 233.06111Q50.909374 232.68611 51.034374 232.32674Q51.253124 231.74861 51.721874 231.18611Q52.20625 230.62361 53.1125 229.88924Q54.51875 228.73299 55.003124 228.06111Q55.503124 227.38924 55.503124 226.79549Q55.503124 226.17049 55.05 225.74861Q54.596874 225.31111 53.878124 225.31111Q53.1125 225.31111 52.659374 225.76424Q52.20625 226.21736 52.190624 227.02986L51.1125 226.92049Q51.221874 225.70174 51.940624 225.07674Q52.675 224.43611 53.909374 224.43611Q55.14375 224.43611 55.8625 225.12361Q56.58125 225.81111 56.58125 226.82674Q56.58125 227.34236 56.3625 227.84236Q56.159374 228.32674 55.659374 228.88924Q55.175 229.43611 54.05 230.38924Q53.096874 231.18611 52.815624 231.48299Q52.55 231.76424 52.378124 232.04549L56.596874 232.04549ZM58.05 228.82674Q58.05 227.29549 58.3625 226.37361Q58.675 225.43611 59.284374 224.93611Q59.909374 224.43611 60.846874 224.43611Q61.534374 224.43611 62.05 224.71736Q62.58125 224.99861 62.925 225.52986Q63.26875 226.04549 63.45625 226.79549Q63.64375 227.54549 63.64375 228.82674Q63.64375 230.34236 63.33125 231.26424Q63.034374 232.18611 62.409374 232.70174Q61.8 233.20174 60.846874 233.20174Q59.6125 233.20174 58.89375 232.31111Q58.05 231.24861 58.05 228.82674ZM59.128124 228.82674Q59.128124 230.93611 59.628124 231.63924Q60.128124 232.34236 60.846874 232.34236Q61.58125 232.34236 62.065624 231.63924Q62.565624 230.93611 62.565624 228.82674Q62.565624 226.70174 62.065624 226.01424Q61.58125 225.31111 60.83125 225.31111Q60.1125 225.31111 59.675 225.92049Q59.128124 226.70174 59.128124 228.82674ZM65.64375 233.06111L65.64375 231.85799L66.84688 231.85799L66.84688 233.06111L65.64375 233.06111ZM68.05 228.82674Q68.05 227.29549 68.3625 226.37361Q68.675 225.43611 69.28438 224.93611Q69.90938 224.43611 70.84688 224.43611Q71.53438 224.43611 72.05 224.71736Q72.58125 224.99861 72.925 225.52986Q73.26875 226.04549 73.45625 226.79549Q73.64375 227.54549 73.64375 228.82674Q73.64375 230.34236 73.33125 231.26424Q73.03438 232.18611 72.40938 232.70174Q71.8 233.20174 70.84688 233.20174Q69.6125 233.20174 68.89375 232.31111Q68.05 231.24861 68.05 228.82674ZM69.12813 228.82674Q69.12813 230.93611 69.62813 231.63924Q70.12813 232.34236 70.84688 232.34236Q71.58125 232.34236 72.06563 231.63924Q72.56563 230.93611 72.56563 228.82674Q72.56563 226.70174 72.06563 226.01424Q71.58125 225.31111 70.83125 225.31111Q70.1125 225.31111 69.675 225.92049Q69.12813 226.70174 69.12813 228.82674ZM75.05 228.82674Q75.05 227.29549 75.3625 226.37361Q75.675 225.43611 76.28438 224.93611Q76.90938 224.43611 77.84688 224.43611Q78.53438 224.43611 79.05 224.71736Q79.58125 224.99861 79.925 225.52986Q80.26875 226.04549 80.45625 226.79549Q80.64375 227.54549 80.64375 228.82674Q80.64375 230.34236 80.33125 231.26424Q80.03438 232.18611 79.40938 232.70174Q78.8 233.20174 77.84688 233.20174Q76.6125 233.20174 75.89375 232.31111Q75.05 231.24861 75.05 228.82674ZM76.12813 228.82674Q76.12813 230.93611 76.62813 231.63924Q77.12813 232.34236 77.84688 232.34236Q78.58125 232.34236 79.06563 231.63924Q79.56563 230.93611 79.56563 228.82674Q79.56563 226.70174 79.06563 226.01424Q78.58125 225.31111 77.83125 225.31111Q77.1125 225.31111 76.675 225.92049Q76.12813 226.70174 76.12813 228.82674Z" fill-rule="nonzero"/><path fill="#000000" d="M54.425 161.67223L54.425 159.60973L50.70625 159.60973L50.70625 158.64098L54.628124 153.07848L55.4875 153.07848L55.4875 158.64098L56.64375 158.64098L56.64375 159.60973L55.4875 159.60973L55.4875 161.67223L54.425 161.67223ZM54.425 158.64098L54.425 154.7816L51.7375 158.64098L54.425 158.64098ZM58.05 157.43785Q58.05 155.9066 58.3625 154.98473Q58.675 154.04723 59.284374 153.54723Q59.909374 153.04723 60.846874 153.04723Q61.534374 153.04723 62.05 153.32848Q62.58125 153.60973 62.925 154.14098Q63.26875 154.6566 63.45625 155.4066Q63.64375 156.1566 63.64375 157.43785Q63.64375 158.95348 63.33125 159.87535Q63.034374 160.79723 62.409374 161.31285Q61.8 161.81285 60.846874 161.81285Q59.6125 161.81285 58.89375 160.92223Q58.05 159.85973 58.05 157.43785ZM59.128124 157.43785Q59.128124 159.54723 59.628124 160.25035Q60.128124 160.95348 60.846874 160.95348Q61.58125 160.95348 62.065624 160.25035Q62.565624 159.54723 62.565624 157.43785Q62.565624 155.31285 62.065624 154.62535Q61.58125 153.92223 60.83125 153.92223Q60.1125 153.92223 59.675 154.5316Q59.128124 155.31285 59.128124 157.43785ZM65.64375 161.67223L65.64375 160.4691L66.84688 160.4691L66.84688 161.67223L65.64375 161.67223ZM68.05 157.43785Q68.05 155.9066 68.3625 154.98473Q68.675 154.04723 69.28438 153.54723Q69.90938 153.04723 70.84688 153.04723Q71.53438 153.04723 72.05 153.32848Q72.58125 153.60973 72.925 154.14098Q73.26875 154.6566 73.45625 155.4066Q73.64375 156.1566 73.64375 157.43785Q73.64375 158.95348 73.33125 159.87535Q73.03438 160.79723 72.40938 161.31285Q71.8 161.81285 70.84688 161.81285Q69.6125 161.81285 68.89375 160.92223Q68.05 159.85973 68.05 157.43785ZM69.12813 157.43785Q69.12813 159.54723 69.62813 160.25035Q70.12813 160.95348 70.84688 160.95348Q71.58125 160.95348 72.06563 160.25035Q72.56563 159.54723 72.56563 157.43785Q72.56563 155.31285 72.06563 154.62535Q71.58125 153.92223 70.83125 153.92223Q70.1125 153.92223 69.675 154.5316Q69.12813 155.31285 69.12813 157.43785ZM75.05 157.43785Q75.05 155.9066 75.3625 154.98473Q75.675 154.04723 76.28438 153.54723Q76.90938 153.04723 77.84688 153.04723Q78.53438 153.04723 79.05 153.32848Q79.58125 153.60973 79.925 154.14098Q80.26875 154.6566 80.45625 155.4066Q80.64375 156.1566 80.64375 157.43785Q80.64375 158.95348 80.33125 159.87535Q80.03438 160.79723 79.40938 161.31285Q78.8 161.81285 77.84688 161.81285Q76.6125 161.81285 75.89375 160.92223Q75.05 159.85973 75.05 157.43785ZM76.12813 157.43785Q76.12813 159.54723 76.62813 160.25035Q77.12813 160.95348 77.84688 160.95348Q78.58125 160.95348 79.06563 160.25035Q79.56563 159.54723 79.56563 157.43785Q79.56563 155.31285 79.06563 154.62535Q78.58125 153.92223 77.83125 153.92223Q77.1125 153.92223 76.675 154.5316Q76.12813 155.31285 76.12813 157.43785Z" fill-rule="nonzero"/><path fill="#000000" d="M56.51875 83.79896L55.471874 83.87708Q55.33125 83.25208 55.08125 82.97083Q54.64375 82.51771 54.01875 82.51771Q53.51875 82.51771 53.128124 82.79896Q52.64375 83.17396 52.346874 83.87708Q52.065624 84.56458 52.05 85.84583Q52.425 85.26771 52.971874 84.98646Q53.534374 84.70521 54.14375 84.70521Q55.190624 84.70521 55.925 85.48646Q56.675 86.26771 56.675 87.48646Q56.675 88.29896 56.315624 89.00208Q55.971874 89.68958 55.3625 90.06458Q54.753124 90.42396 53.9875 90.42396Q52.659374 90.42396 51.83125 89.45521Q51.003124 88.48646 51.003124 86.26771Q51.003124 83.76771 51.925 82.64271Q52.721874 81.65833 54.08125 81.65833Q55.096874 81.65833 55.7375 82.23646Q56.39375 82.79896 56.51875 83.79896ZM52.221874 87.50208Q52.221874 88.04896 52.440624 88.54896Q52.675 89.03333 53.08125 89.29896Q53.503124 89.56458 53.971874 89.56458Q54.628124 89.56458 55.1125 89.03333Q55.596874 88.48646 55.596874 87.56458Q55.596874 86.67396 55.1125 86.15833Q54.64375 85.64271 53.925 85.64271Q53.20625 85.64271 52.70625 86.15833Q52.221874 86.67396 52.221874 87.50208ZM58.05 86.04896Q58.05 84.51771 58.3625 83.59583Q58.675 82.65833 59.284374 82.15833Q59.909374 81.65833 60.846874 81.65833Q61.534374 81.65833 62.05 81.93958Q62.58125 82.22083 62.925 82.75208Q63.26875 83.26771 63.45625 84.01771Q63.64375 84.76771 63.64375 86.04896Q63.64375 87.56458 63.33125 88.48646Q63.034374 89.40833 62.409374 89.92396Q61.8 90.42396 60.846874 90.42396Q59.6125 90.42396 58.89375 89.53333Q58.05 88.47083 58.05 86.04896ZM59.128124 86.04896Q59.128124 88.15833 59.628124 88.86146Q60.128124 89.56458 60.846874 89.56458Q61.58125 89.56458 62.065624 88.86146Q62.565624 88.15833 62.565624 86.04896Q62.565624 83.92396 62.065624 83.23646Q61.58125 82.53333 60.83125 82.53333Q60.1125 82.53333 59.675 83.14271Q59.128124 83.92396 59.128124 86.04896ZM65.64375 90.28333L65.64375 89.08021L66.84688 89.08021L66.84688 90.28333L65.64375 90.28333ZM68.05 86.04896Q68.05 84.51771 68.3625 83.59583Q68.675 82.65833 69.28438 82.15833Q69.90938 81.65833 70.84688 81.65833Q71.53438 81.65833 72.05 81.93958Q72.58125 82.22083 72.925 82.75208Q73.26875 83.26771 73.45625 84.01771Q73.64375 84.76771 73.64375 86.04896Q73.64375 87.56458 73.33125 88.48646Q73.03438 89.40833 72.40938 89.92396Q71.8 90.42396 70.84688 90.42396Q69.6125 90.42396 68.89375 89.53333Q68.05 88.47083 68.05 86.04896ZM69.12813 86.04896Q69.12813 88.15833 69.62813 88.86146Q70.12813 89.56458 70.84688 89.56458Q71.58125 89.56458 72.06563 88.86146Q72.56563 88.15833 72.56563 86.04896Q72.56563 83.92396 72.06563 83.23646Q71.58125 82.53333 70.83125 82.53333Q70.1125 82.53333 69.675 83.14271Q69.12813 83.92396 69.12813 86.04896ZM75.05 86.04896Q75.05 84.51771 75.3625 83.59583Q75.675 82.65833 76.28438 82.15833Q76.90938 81.65833 77.84688 81.65833Q78.53438 81.65833 79.05 81.93958Q79.58125 82.22083 79.925 82.75208Q80.26875 83.26771 80.45625 84.01771Q80.64375 84.76771 80.64375 86.04896Q80.64375 87.56458 80.33125 88.48646Q80.03438 89.40833 79.40938 89.92396Q78.8 90.42396 77.84688 90.42396Q76.6125 90.42396 75.89375 89.53333Q75.05 88.47083 75.05 86.04896ZM76.12813 86.04896Q76.12813 88.15833 76.62813 88.86146Q77.12813 89.56458 77.84688 89.56458Q78.58125 89.56458 79.06563 88.86146Q79.56563 88.15833 79.56563 86.04896Q79.56563 83.92396 79.06563 83.23646Q78.58125 82.53333 77.83125 82.53333Q77.1125 82.53333 76.675 83.14271Q76.12813 83.92396 76.12813 86.04896Z" fill-rule="nonzero"/><path fill="#000000" d="M88.51875 317.45L87.47188 317.45L87.47188 310.73126Q87.08125 311.09064 86.45625 311.46564Q85.84688 311.825 85.3625 311.9969L85.3625 310.98126Q86.2375 310.5594 86.89375 309.98126Q87.56563 309.3875 87.84688 308.825L88.51875 308.825L88.51875 317.45Z" fill-rule="nonzero"/><path fill="#000000" d="M234.17332 317.45L233.12645 317.45L233.12645 310.73126Q232.73582 311.09064 232.11082 311.46564Q231.50145 311.825 231.01707 311.9969L231.01707 310.98126Q231.89207 310.5594 232.54832 309.98126Q233.2202 309.3875 233.50145 308.825L234.17332 308.825L234.17332 317.45ZM237.20457 313.21564Q237.20457 311.6844 237.51707 310.7625Q237.82957 309.825 238.43895 309.325Q239.06395 308.825 240.00145 308.825Q240.68895 308.825 241.20457 309.10626Q241.73582 309.3875 242.07957 309.91876Q242.42332 310.4344 242.61082 311.1844Q242.79832 311.9344 242.79832 313.21564Q242.79832 314.73126 242.48582 315.65314Q242.18895 316.575 241.56395 317.09064Q240.95457 317.59064 240.00145 317.59064Q238.76707 317.59064 238.04832 316.7Q237.20457 315.6375 237.20457 313.21564ZM238.2827 313.21564Q238.2827 315.325 238.7827 316.02814Q239.2827 316.73126 240.00145 316.73126Q240.73582 316.73126 241.2202 316.02814Q241.7202 315.325 241.7202 313.21564Q241.7202 311.09064 241.2202 310.40314Q240.73582 309.7 239.98582 309.7Q239.26707 309.7 238.82957 310.3094Q238.2827 311.09064 238.2827 313.21564Z" fill-rule="nonzero"/><path fill="#000000" d="M379.82788 317.45L378.781 317.45L378.781 310.73126Q378.39038 311.09064 377.76538 311.46564Q377.156 311.825 376.67163 311.9969L376.67163 310.98126Q377.54663 310.5594 378.20288 309.98126Q378.87476 309.3875 379.156 308.825L379.82788 308.825L379.82788 317.45ZM382.85913 313.21564Q382.85913 311.6844 383.17163 310.7625Q383.48413 309.825 384.0935 309.325Q384.7185 308.825 385.656 308.825Q386.3435 308.825 386.85913 309.10626Q387.39038 309.3875 387.73413 309.91876Q388.07788 310.4344 388.26538 311.1844Q388.45288 311.9344 388.45288 313.21564Q388.45288 314.73126 388.14038 315.65314Q387.8435 316.575 387.2185 317.09064Q386.60913 317.59064 385.656 317.59064Q384.42163 317.59064 383.70288 316.7Q382.85913 315.6375 382.85913 313.21564ZM383.93726 313.21564Q383.93726 315.325 384.43726 316.02814Q384.93726 316.73126 385.656 316.73126Q386.39038 316.73126 386.87476 316.02814Q387.37476 315.325 387.37476 313.21564Q387.37476 311.09064 386.87476 310.40314Q386.39038 309.7 385.64038 309.7Q384.92163 309.7 384.48413 310.3094Q383.93726 311.09064 383.93726 313.21564ZM389.85913 313.21564Q389.85913 311.6844 390.17163 310.7625Q390.48413 309.825 391.0935 309.325Q391.7185 308.825 392.656 308.825Q393.3435 308.825 393.85913 309.10626Q394.39038 309.3875 394.73413 309.91876Q395.07788 310.4344 395.26538 311.1844Q395.45288 311.9344 395.45288 313.21564Q395.45288 314.73126 395.14038 315.65314Q394.8435 316.575 394.2185 317.09064Q393.60913 317.59064 392.656 317.59064Q391.42163 317.59064 390.70288 316.7Q389.85913 315.6375 389.85913 313.21564ZM390.93726 313.21564Q390.93726 315.325 391.43726 316.02814Q391.93726 316.73126 392.656 316.73126Q393.39038 316.73126 393.87476 316.02814Q394.37476 315.325 394.37476 313.21564Q394.37476 311.09064 393.87476 310.40314Q393.39038 309.7 392.64038 309.7Q391.92163 309.7 391.48413 310.3094Q390.93726 311.09064 390.93726 313.21564Z" fill-rule="nonzero"/><path fill="#000000" d="M525.4825 317.45L524.4356 317.45L524.4356 310.73126Q524.045 311.09064 523.42 311.46564Q522.8106 311.825 522.32623 311.9969L522.32623 310.98126Q523.20123 310.5594 523.8575 309.98126Q524.52936 309.3875 524.8106 308.825L525.4825 308.825L525.4825 317.45ZM528.51373 313.21564Q528.51373 311.6844 528.82623 310.7625Q529.13873 309.825 529.7481 309.325Q530.3731 308.825 531.3106 308.825Q531.9981 308.825 532.51373 309.10626Q533.045 309.3875 533.38873 309.91876Q533.7325 310.4344 533.92 311.1844Q534.1075 311.9344 534.1075 313.21564Q534.1075 314.73126 533.795 315.65314Q533.4981 316.575 532.8731 317.09064Q532.26373 317.59064 531.3106 317.59064Q530.07623 317.59064 529.3575 316.7Q528.51373 315.6375 528.51373 313.21564ZM529.59186 313.21564Q529.59186 315.325 530.09186 316.02814Q530.59186 316.73126 531.3106 316.73126Q532.045 316.73126 532.52936 316.02814Q533.02936 315.325 533.02936 313.21564Q533.02936 311.09064 532.52936 310.40314Q532.045 309.7 531.295 309.7Q530.57623 309.7 530.13873 310.3094Q529.59186 311.09064 529.59186 313.21564ZM535.51373 313.21564Q535.51373 311.6844 535.82623 310.7625Q536.13873 309.825 536.7481 309.325Q537.3731 308.825 538.3106 308.825Q538.9981 308.825 539.51373 309.10626Q540.045 309.3875 540.38873 309.91876Q540.7325 310.4344 540.92 311.1844Q541.1075 311.9344 541.1075 313.21564Q541.1075 314.73126 540.795 315.65314Q540.4981 316.575 539.8731 317.09064Q539.26373 317.59064 538.3106 317.59064Q537.07623 317.59064 536.3575 316.7Q535.51373 315.6375 535.51373 313.21564ZM536.59186 313.21564Q536.59186 315.325 537.09186 316.02814Q537.59186 316.73126 538.3106 316.73126Q539.045 316.73126 539.52936 316.02814Q540.02936 315.325 540.02936 313.21564Q540.02936 311.09064 539.52936 310.40314Q539.045 309.7 538.295 309.7Q537.57623 309.7 537.13873 310.3094Q536.59186 311.09064 536.59186 313.21564ZM542.51373 313.21564Q542.51373 311.6844 542.82623 310.7625Q543.13873 309.825 543.7481 309.325Q544.3731 308.825 545.3106 308.825Q545.9981 308.825 546.51373 309.10626Q547.045 309.3875 547.38873 309.91876Q547.7325 310.4344 547.92 311.1844Q548.1075 311.9344 548.1075 313.21564Q548.1075 314.73126 547.795 315.65314Q547.4981 316.575 546.8731 317.09064Q546.26373 317.59064 545.3106 317.59064Q544.07623 317.59064 543.3575 316.7Q542.51373 315.6375 542.51373 313.21564ZM543.59186 313.21564Q543.59186 315.325 544.09186 316.02814Q544.59186 316.73126 545.3106 316.73126Q546.045 316.73126 546.52936 316.02814Q547.02936 315.325 547.02936 313.21564Q547.02936 311.09064 546.52936 310.40314Q546.045 309.7 545.295 309.7Q544.57623 309.7 544.13873 310.3094Q543.59186 311.09064 543.59186 313.21564Z" fill-rule="nonzero"/><path stroke="#4285f4" stroke-width="4.0" stroke-linecap="butt" d="M155.62305 57.916668L167.62305 57.916668" fill-rule="nonzero"/><path fill="#1a1a1a" d="M176.41992 61.916668L176.41992 55.697918L177.35742 55.697918L177.35742 56.572918Q177.6543 56.104168 178.13867 55.838543Q178.62305 55.557293 179.24805 55.557293Q179.93555 55.557293 180.37305 55.838543Q180.82617 56.119793 180.99805 56.635418Q181.74805 55.557293 182.91992 55.557293Q183.85742 55.557293 184.3418 56.072918Q184.8418 56.572918 184.8418 57.651043L184.8418 61.916668L183.79492 61.916668L183.79492 57.994793Q183.79492 57.369793 183.68555 57.088543Q183.5918 56.807293 183.32617 56.635418Q183.06055 56.463543 182.68555 56.463543Q182.0293 56.463543 181.5918 56.901043Q181.16992 57.338543 181.16992 58.307293L181.16992 61.916668L180.10742 61.916668L180.10742 57.869793Q180.10742 57.166668 179.8418 56.822918Q179.5918 56.463543 179.01367 56.463543Q178.56055 56.463543 178.18555 56.697918Q177.81055 56.932293 177.63867 57.385418Q177.4668 57.838543 177.4668 58.682293L177.4668 61.916668L176.41992 61.916668ZM191.48242 61.151043Q190.88867 61.651043 190.3418 61.854168Q189.81055 62.057293 189.18555 62.057293Q188.1543 62.057293 187.60742 61.557293Q187.06055 61.057293 187.06055 60.276043Q187.06055 59.822918 187.26367 59.447918Q187.4668 59.057293 187.81055 58.838543Q188.1543 58.604168 188.57617 58.494793Q188.87305 58.401043 189.51367 58.322918Q190.7793 58.182293 191.38867 57.963543Q191.38867 57.744793 191.38867 57.697918Q191.38867 57.041668 191.0918 56.776043Q190.68555 56.432293 189.88867 56.432293Q189.1543 56.432293 188.79492 56.697918Q188.43555 56.947918 188.26367 57.604168L187.23242 57.463543Q187.37305 56.807293 187.70117 56.401043Q188.0293 55.994793 188.63867 55.776043Q189.24805 55.557293 190.04492 55.557293Q190.8418 55.557293 191.3418 55.744793Q191.8418 55.932293 192.07617 56.213543Q192.31055 56.494793 192.4043 56.932293Q192.45117 57.197918 192.45117 57.901043L192.45117 59.307293Q192.45117 60.776043 192.51367 61.166668Q192.5918 61.557293 192.79492 61.916668L191.68555 61.916668Q191.5293 61.588543 191.48242 61.151043ZM191.38867 58.791668Q190.81055 59.026043 189.66992 59.197918Q189.01367 59.291668 188.74805 59.416668Q188.48242 59.526043 188.32617 59.744793Q188.18555 59.963543 188.18555 60.244793Q188.18555 60.666668 188.49805 60.947918Q188.82617 61.229168 189.43555 61.229168Q190.04492 61.229168 190.51367 60.963543Q190.99805 60.697918 191.2168 60.229168Q191.38867 59.869793 191.38867 59.182293L191.38867 58.791668ZM193.99805 60.057293L195.0293 59.901043Q195.12305 60.526043 195.51367 60.854168Q195.91992 61.182293 196.6543 61.182293Q197.37305 61.182293 197.7168 60.901043Q198.07617 60.604168 198.07617 60.197918Q198.07617 59.838543 197.76367 59.635418Q197.54492 59.494793 196.68555 59.276043Q195.5293 58.979168 195.07617 58.776043Q194.63867 58.557293 194.4043 58.182293Q194.16992 57.807293 194.16992 57.338543Q194.16992 56.932293 194.35742 56.572918Q194.54492 56.213543 194.87305 55.979168Q195.12305 55.807293 195.54492 55.682293Q195.9668 55.557293 196.4668 55.557293Q197.18555 55.557293 197.73242 55.776043Q198.29492 55.979168 198.56055 56.338543Q198.82617 56.697918 198.91992 57.291668L197.88867 57.432293Q197.82617 56.963543 197.48242 56.697918Q197.1543 56.416668 196.5293 56.416668Q195.81055 56.416668 195.49805 56.666668Q195.18555 56.901043 195.18555 57.229168Q195.18555 57.432293 195.31055 57.588543Q195.45117 57.760418 195.7168 57.869793Q195.87305 57.932293 196.6543 58.135418Q197.7793 58.447918 198.2168 58.635418Q198.6543 58.822918 198.9043 59.182293Q199.1543 59.541668 199.1543 60.088543Q199.1543 60.619793 198.8418 61.088543Q198.54492 61.541668 197.9668 61.807293Q197.38867 62.057293 196.6543 62.057293Q195.43555 62.057293 194.79492 61.557293Q194.16992 61.041668 193.99805 60.057293ZM203.7168 60.979168L203.87305 61.901043Q203.41992 61.994793 203.07617 61.994793Q202.49805 61.994793 202.18555 61.822918Q201.87305 61.635418 201.73242 61.338543Q201.60742 61.041668 201.60742 60.088543L201.60742 56.510418L200.8418 56.510418L200.8418 55.697918L201.60742 55.697918L201.60742 54.151043L202.6543 53.526043L202.6543 55.697918L203.7168 55.697918L203.7168 56.510418L202.6543 56.510418L202.6543 60.151043Q202.6543 60.604168 202.70117 60.729168Q202.76367 60.854168 202.88867 60.932293Q203.01367 61.010418 203.24805 61.010418Q203.43555 61.010418 203.7168 60.979168ZM208.66992 59.916668L209.76367 60.041668Q209.51367 60.994793 208.81055 61.526043Q208.10742 62.057293 207.0293 62.057293Q205.66992 62.057293 204.85742 61.213543Q204.06055 60.369793 204.06055 58.854168Q204.06055 57.291668 204.87305 56.432293Q205.68555 55.557293 206.9668 55.557293Q208.2168 55.557293 208.99805 56.401043Q209.79492 57.244793 209.79492 58.791668Q209.79492 58.885418 209.79492 59.072918L205.1543 59.072918Q205.2168 60.104168 205.73242 60.651043Q206.24805 61.182293 207.0293 61.182293Q207.60742 61.182293 208.01367 60.885418Q208.43555 60.572918 208.66992 59.916668ZM205.2168 58.213543L208.68555 58.213543Q208.62305 57.416668 208.29492 57.026043Q207.7793 56.416668 206.98242 56.416668Q206.24805 56.416668 205.74805 56.901043Q205.26367 57.385418 205.2168 58.213543ZM211.4043 61.916668L211.4043 55.697918L212.35742 55.697918L212.35742 56.635418Q212.7168 55.979168 213.01367 55.776043Q213.32617 55.557293 213.70117 55.557293Q214.23242 55.557293 214.7793 55.885418L214.41992 56.869793Q214.0293 56.635418 213.6543 56.635418Q213.29492 56.635418 213.01367 56.854168Q212.74805 57.057293 212.63867 57.432293Q212.45117 57.994793 212.45117 58.651043L212.45117 61.916668L211.4043 61.916668Z" fill-rule="nonzero"/><path stroke="#ea4335" stroke-width="4.0" stroke-linecap="butt" d="M230.62305 57.916668L242.62305 57.916668" fill-rule="nonzero"/><path fill="#1a1a1a" d="M251.5918 61.916668L251.5918 53.322918L252.7168 53.322918L252.7168 56.854168L257.18555 56.854168L257.18555 53.322918L258.32617 53.322918L258.32617 61.916668L257.18555 61.916668L257.18555 57.869793L252.7168 57.869793L252.7168 61.916668L251.5918 61.916668ZM266.68555 58.901043L267.81055 59.197918Q267.45117 60.588543 266.5293 61.322918Q265.60742 62.057293 264.26367 62.057293Q262.87305 62.057293 261.99805 61.494793Q261.12305 60.932293 260.66992 59.869793Q260.2168 58.791668 260.2168 57.557293Q260.2168 56.213543 260.73242 55.213543Q261.24805 54.213543 262.18555 53.697918Q263.13867 53.182293 264.2793 53.182293Q265.56055 53.182293 266.43555 53.838543Q267.32617 54.494793 267.66992 55.682293L266.54492 55.947918Q266.24805 55.010418 265.66992 54.588543Q265.10742 54.151043 264.24805 54.151043Q263.26367 54.151043 262.5918 54.635418Q261.93555 55.104168 261.6543 55.901043Q261.38867 56.697918 261.38867 57.557293Q261.38867 58.651043 261.70117 59.463543Q262.0293 60.276043 262.70117 60.682293Q263.37305 61.088543 264.16992 61.088543Q265.12305 61.088543 265.7793 60.541668Q266.45117 59.994793 266.68555 58.901043Z" fill-rule="nonzero"/><path fill="#757575" d="M30.940624 36.01875Q32.26875 36.925 33.378124 37.346874L32.815624 38.659374Q31.26875 38.1125 29.7375 36.909374Q28.14375 37.8 26.221874 37.8Q24.284374 37.8 22.690624 36.8625Q21.1125 35.925 20.253124 34.221874Q19.409374 32.51875 19.409374 30.39375Q19.409374 28.26875 20.26875 26.534374Q21.128124 24.8 22.70625 23.89375Q24.3 22.971874 26.26875 22.971874Q28.253124 22.971874 29.83125 23.925Q31.425 24.8625 32.253124 26.565624Q33.096874 28.253124 33.096874 30.378124Q33.096874 32.14375 32.565624 33.565624Q32.034374 34.971874 30.940624 36.01875ZM26.76875 33.596874Q28.409374 34.05 29.471874 34.95625Q31.14375 33.440624 31.14375 30.378124Q31.14375 28.64375 30.55 27.346874Q29.971874 26.05 28.83125 25.33125Q27.690624 24.6125 26.26875 24.6125Q24.159374 24.6125 22.753124 26.065624Q21.3625 27.503124 21.3625 30.39375Q21.3625 33.190624 22.7375 34.690624Q24.128124 36.175 26.26875 36.175Q27.284374 36.175 28.190624 35.784374Q27.3 35.221874 26.315624 34.971874L26.76875 33.596874ZM36.128124 37.55L36.128124 23.2375L46.4875 23.2375L46.4875 24.925L38.034374 24.925L38.034374 29.3L45.940624 29.3L45.940624 30.9875L38.034374 30.9875L38.034374 35.8625L46.815624 35.8625L46.815624 37.55L36.128124 37.55ZM49.034374 37.55L49.034374 23.2375L51.89375 23.2375L55.26875 33.3625Q55.7375 34.784374 55.95625 35.4875Q56.20625 34.70625 56.721874 33.190624L60.14375 23.2375L62.690624 23.2375L62.690624 37.55L60.878124 37.55L60.878124 25.565624L56.70625 37.55L55.003124 37.55L50.8625 25.3625L50.8625 37.55L49.034374 37.55ZM75.4875 23.2375L77.37813 23.2375L77.37813 31.503124Q77.37813 33.659374 76.89375 34.940624Q76.40938 36.20625 75.12813 37.003124Q73.8625 37.8 71.78438 37.8Q69.76875 37.8 68.4875 37.1125Q67.22188 36.409374 66.675 35.096874Q66.12813 33.784374 66.12813 31.503124L66.12813 23.2375L68.01875 23.2375L68.01875 31.4875Q68.01875 33.3625 68.3625 34.253124Q68.70625 35.128124 69.55 35.6125Q70.39375 36.08125 71.62813 36.08125Q73.70625 36.08125 74.59688 35.14375Q75.4875 34.190624 75.4875 31.4875L75.4875 23.2375ZM84.8625 37.55L84.8625 27.175L86.44063 27.175L86.44063 28.628124Q86.925 27.878124 87.7375 27.409374Q88.55 26.940624 89.58125 26.940624Q90.7375 26.940624 91.47188 27.425Q92.20625 27.89375 92.51875 28.753124Q93.75313 26.940624 95.72188 26.940624Q97.26875 26.940624 98.09688 27.8Q98.925 28.659374 98.925 30.425L98.925 37.55L97.175 37.55L97.175 31.01875Q97.175 29.95625 97.00313 29.503124Q96.83125 29.034374 96.37813 28.753124Q95.94063 28.471874 95.33125 28.471874Q94.2375 28.471874 93.50313 29.20625Q92.78438 29.925 92.78438 31.51875L92.78438 37.55L91.03438 37.55L91.03438 30.815624Q91.03438 29.64375 90.59688 29.065624Q90.175 28.471874 89.19063 28.471874Q88.45625 28.471874 87.81563 28.8625Q87.19063 29.253124 86.90938 30.003124Q86.62813 30.753124 86.62813 32.175L86.62813 37.55L84.8625 37.55ZM107.97188 34.20625L109.78438 34.440624Q109.3625 36.01875 108.19063 36.909374Q107.03438 37.784374 105.22188 37.784374Q102.95625 37.784374 101.6125 36.39375Q100.28438 34.9875 100.28438 32.45625Q100.28438 29.83125 101.62813 28.39375Q102.97188 26.940624 105.12813 26.940624Q107.20625 26.940624 108.51875 28.3625Q109.84688 29.76875 109.84688 32.346874Q109.84688 32.503124 109.83125 32.815624L102.09688 32.815624Q102.19063 34.51875 103.06563 35.425Q103.94063 36.33125 105.2375 36.33125Q106.20625 36.33125 106.87813 35.83125Q107.56563 35.315624 107.97188 34.20625ZM102.19063 31.3625L107.9875 31.3625Q107.87813 30.065624 107.33125 29.409374Q106.4875 28.39375 105.14375 28.39375Q103.94063 28.39375 103.1125 29.20625Q102.28438 30.003124 102.19063 31.3625ZM111.8625 37.55L111.8625 27.175L113.44063 27.175L113.44063 28.628124Q113.925 27.878124 114.7375 27.409374Q115.55 26.940624 116.58125 26.940624Q117.7375 26.940624 118.47188 27.425Q119.20625 27.89375 119.51875 28.753124Q120.75313 26.940624 122.72188 26.940624Q124.26875 26.940624 125.09688 27.8Q125.925 28.659374 125.925 30.425L125.925 37.55L124.175 37.55L124.175 31.01875Q124.175 29.95625 124.00313 29.503124Q123.83125 29.034374 123.37813 28.753124Q122.94063 28.471874 122.33125 28.471874Q121.2375 28.471874 120.50313 29.20625Q119.78438 29.925 119.78438 31.51875L119.78438 37.55L118.03438 37.55L118.03438 30.815624Q118.03438 29.64375 117.59688 29.065624Q117.175 28.471874 116.19063 28.471874Q115.45625 28.471874 114.81563 28.8625Q114.19063 29.253124 113.90938 30.003124Q113.62813 30.753124 113.62813 32.175L113.62813 37.55L111.8625 37.55ZM134.64375 33.753124L136.3625 33.971874Q136.08125 35.76875 134.90938 36.784374Q133.75313 37.784374 132.05 37.784374Q129.925 37.784374 128.62813 36.39375Q127.33125 35.003124 127.33125 32.409374Q127.33125 30.721874 127.87813 29.471874Q128.44063 28.20625 129.58125 27.58125Q130.72188 26.940624 132.06563 26.940624Q133.75313 26.940624 134.81563 27.8Q135.89375 28.659374 136.20625 30.221874L134.4875 30.4875Q134.25313 29.440624 133.62813 28.925Q133.00313 28.39375 132.12813 28.39375Q130.8 28.39375 129.97188 29.346874Q129.14375 30.3 129.14375 32.346874Q129.14375 34.440624 129.94063 35.39375Q130.7375 36.33125 132.03438 36.33125Q133.06563 36.33125 133.75313 35.70625Q134.45625 35.065624 134.64375 33.753124ZM137.8625 41.51875L137.8625 27.175L139.47188 27.175L139.47188 28.51875Q140.03438 27.7375 140.7375 27.346874Q141.45625 26.940624 142.47188 26.940624Q143.8 26.940624 144.81563 27.628124Q145.83125 28.315624 146.34688 29.565624Q146.87813 30.8 146.87813 32.284374Q146.87813 33.878124 146.3 35.159374Q145.7375 36.425 144.64375 37.1125Q143.55 37.784374 142.34688 37.784374Q141.47188 37.784374 140.76875 37.409374Q140.08125 37.034374 139.62813 36.471874L139.62813 41.51875L137.8625 41.51875ZM139.45625 32.425Q139.45625 34.425 140.26875 35.378124Q141.08125 36.33125 142.2375 36.33125Q143.40938 36.33125 144.2375 35.346874Q145.08125 34.3625 145.08125 32.26875Q145.08125 30.3 144.25313 29.315624Q143.44063 28.315624 142.31563 28.315624Q141.19063 28.315624 140.31563 29.378124Q139.45625 30.425 139.45625 32.425ZM148.78438 41.55L148.59688 39.89375Q149.175 40.05 149.59688 40.05Q150.19063 40.05 150.53438 39.846874Q150.89375 39.659374 151.1125 39.315624Q151.28438 39.05 151.65938 38.003124Q151.70625 37.846874 151.81563 37.565624L147.87813 27.175L149.76875 27.175L151.925 33.190624Q152.34688 34.33125 152.675 35.58125Q152.9875 34.378124 153.39375 33.221874L155.6125 27.175L157.37813 27.175L153.425 37.721874Q152.8 39.440624 152.44063 40.08125Q151.97188 40.95625 151.3625 41.346874Q150.76875 41.753124 149.925 41.753124Q149.40938 41.753124 148.78438 41.55ZM164.8625 41.51875L164.8625 27.175L166.47188 27.175L166.47188 28.51875Q167.03438 27.7375 167.7375 27.346874Q168.45625 26.940624 169.47188 26.940624Q170.8 26.940624 171.81563 27.628124Q172.83125 28.315624 173.34688 29.565624Q173.87813 30.8 173.87813 32.284374Q173.87813 33.878124 173.3 35.159374Q172.7375 36.425 171.64375 37.1125Q170.55 37.784374 169.34688 37.784374Q168.47188 37.784374 167.76875 37.409374Q167.08125 37.034374 166.62813 36.471874L166.62813 41.51875L164.8625 41.51875ZM166.45625 32.425Q166.45625 34.425 167.26875 35.378124Q168.08125 36.33125 169.2375 36.33125Q170.40938 36.33125 171.2375 35.346874Q172.08125 34.3625 172.08125 32.26875Q172.08125 30.3 171.25313 29.315624Q170.44063 28.315624 169.31563 28.315624Q168.19063 28.315624 167.31563 29.378124Q166.45625 30.425 166.45625 32.425ZM182.97188 34.20625L184.78438 34.440624Q184.3625 36.01875 183.19063 36.909374Q182.03438 37.784374 180.22188 37.784374Q177.95625 37.784374 176.6125 36.39375Q175.28438 34.9875 175.28438 32.45625Q175.28438 29.83125 176.62813 28.39375Q177.97188 26.940624 180.12813 26.940624Q182.20625 26.940624 183.51875 28.3625Q184.84688 29.76875 184.84688 32.346874Q184.84688 32.503124 184.83125 32.815624L177.09688 32.815624Q177.19063 34.51875 178.06563 35.425Q178.94063 36.33125 180.2375 36.33125Q181.20625 36.33125 181.87813 35.83125Q182.56563 35.315624 182.97188 34.20625ZM177.19063 31.3625L182.9875 31.3625Q182.87813 30.065624 182.33125 29.409374Q181.4875 28.39375 180.14375 28.39375Q178.94063 28.39375 178.1125 29.20625Q177.28438 30.003124 177.19063 31.3625ZM186.84688 37.55L186.84688 27.175L188.425 27.175L188.425 28.753124Q189.03438 27.64375 189.55 27.3Q190.06563 26.940624 190.675 26.940624Q191.56563 26.940624 192.4875 27.503124L191.87813 29.14375Q191.2375 28.753124 190.59688 28.753124Q190.01875 28.753124 189.55 29.1125Q189.09688 29.45625 188.89375 30.065624Q188.6125 31.003124 188.6125 32.1125L188.6125 37.55L186.84688 37.55ZM194.28438 37.55L194.28438 28.55L192.7375 28.55L192.7375 27.175L194.28438 27.175L194.28438 26.08125Q194.28438 25.034374 194.47188 24.51875Q194.72188 23.83125 195.3625 23.409374Q196.00313 22.9875 197.15938 22.9875Q197.90938 22.9875 198.8 23.159374L198.53438 24.690624Q197.9875 24.596874 197.50313 24.596874Q196.70625 24.596874 196.3625 24.940624Q196.03438 25.284374 196.03438 26.221874L196.03438 27.175L198.06563 27.175L198.06563 28.55L196.03438 28.55L196.03438 37.55L194.28438 37.55ZM199.22188 32.3625Q199.22188 29.4875 200.81563 28.096874Q202.15938 26.940624 204.08125 26.940624Q206.22188 26.940624 207.56563 28.346874Q208.925 29.753124 208.925 32.221874Q208.925 34.221874 208.33125 35.378124Q207.7375 36.51875 206.58125 37.159374Q205.44063 37.784374 204.08125 37.784374Q201.89375 37.784374 200.55 36.39375Q199.22188 34.9875 199.22188 32.3625ZM201.01875 32.3625Q201.01875 34.3625 201.87813 35.346874Q202.75313 36.33125 204.08125 36.33125Q205.39375 36.33125 206.25313 35.346874Q207.12813 34.346874 207.12813 32.3Q207.12813 30.378124 206.25313 29.39375Q205.37813 28.39375 204.08125 28.39375Q202.75313 28.39375 201.87813 29.39375Q201.01875 30.378124 201.01875 32.3625ZM210.84688 37.55L210.84688 27.175L212.425 27.175L212.425 28.753124Q213.03438 27.64375 213.55 27.3Q214.06563 26.940624 214.675 26.940624Q215.56563 26.940624 216.4875 27.503124L215.87813 29.14375Q215.2375 28.753124 214.59688 28.753124Q214.01875 28.753124 213.55 29.1125Q213.09688 29.45625 212.89375 30.065624Q212.6125 31.003124 212.6125 32.1125L212.6125 37.55L210.84688 37.55ZM217.8625 37.55L217.8625 27.175L219.44063 27.175L219.44063 28.628124Q219.925 27.878124 220.7375 27.409374Q221.55 26.940624 222.58125 26.940624Q223.7375 26.940624 224.47188 27.425Q225.20625 27.89375 225.51875 28.753124Q226.75313 26.940624 228.72188 26.940624Q230.26875 26.940624 231.09688 27.8Q231.925 28.659374 231.925 30.425L231.925 37.55L230.175 37.55L230.175 31.01875Q230.175 29.95625 230.00313 29.503124Q229.83125 29.034374 229.37813 28.753124Q228.94063 28.471874 228.33125 28.471874Q227.2375 28.471874 226.50313 29.20625Q225.78438 29.925 225.78438 31.51875L225.78438 37.55L224.03438 37.55L224.03438 30.815624Q224.03438 29.64375 223.59688 29.065624Q223.175 28.471874 222.19063 28.471874Q221.45625 28.471874 220.81563 28.8625Q220.19063 29.253124 219.90938 30.003124Q219.62813 30.753124 219.62813 32.175L219.62813 37.55L217.8625 37.55ZM240.64375 36.26875Q239.65938 37.096874 238.75313 37.440624Q237.84688 37.784374 236.81563 37.784374Q235.1125 37.784374 234.19063 36.95625Q233.26875 36.1125 233.26875 34.815624Q233.26875 34.05 233.6125 33.425Q233.97188 32.8 234.53438 32.425Q235.09688 32.034374 235.8 31.83125Q236.31563 31.70625 237.3625 31.565624Q239.4875 31.315624 240.4875 30.971874Q240.50313 30.6125 240.50313 30.503124Q240.50313 29.440624 240.00313 28.9875Q239.33125 28.39375 238.00313 28.39375Q236.75313 28.39375 236.15938 28.83125Q235.58125 29.26875 235.3 30.378124L233.58125 30.14375Q233.81563 29.034374 234.34688 28.3625Q234.87813 27.675 235.89375 27.315624Q236.90938 26.940624 238.25313 26.940624Q239.58125 26.940624 240.40938 27.253124Q241.2375 27.565624 241.62813 28.05Q242.01875 28.51875 242.175 29.2375Q242.26875 29.690624 242.26875 30.8625L242.26875 33.20625Q242.26875 35.659374 242.37813 36.315624Q242.4875 36.95625 242.83125 37.55L240.9875 37.55Q240.72188 37.003124 240.64375 36.26875ZM240.4875 32.346874Q239.53438 32.7375 237.6125 33.003124Q236.53438 33.159374 236.08125 33.3625Q235.64375 33.55 235.39375 33.925Q235.14375 34.3 235.14375 34.76875Q235.14375 35.471874 235.675 35.940624Q236.20625 36.409374 237.2375 36.409374Q238.25313 36.409374 239.03438 35.971874Q239.83125 35.51875 240.20625 34.753124Q240.4875 34.14375 240.4875 32.9875L240.4875 32.346874ZM244.8625 37.55L244.8625 27.175L246.45625 27.175L246.45625 28.659374Q247.59688 26.940624 249.75313 26.940624Q250.69063 26.940624 251.47188 27.284374Q252.26875 27.6125 252.65938 28.159374Q253.05 28.70625 253.20625 29.45625Q253.3 29.95625 253.3 31.175L253.3 37.55L251.53438 37.55L251.53438 31.2375Q251.53438 30.159374 251.33125 29.628124Q251.12813 29.096874 250.59688 28.784374Q250.08125 28.471874 249.37813 28.471874Q248.25313 28.471874 247.44063 29.190624Q246.62813 29.89375 246.62813 31.878124L246.62813 37.55L244.8625 37.55ZM261.64374 33.753124L263.3625 33.971874Q263.08124 35.76875 261.90936 36.784374Q260.7531 37.784374 259.05 37.784374Q256.925 37.784374 255.62813 36.39375Q254.33125 35.003124 254.33125 32.409374Q254.33125 30.721874 254.87813 29.471874Q255.44063 28.20625 256.58124 27.58125Q257.72186 26.940624 259.0656 26.940624Q260.7531 26.940624 261.8156 27.8Q262.89374 28.659374 263.20624 30.221874L261.4875 30.4875Q261.2531 29.440624 260.6281 28.925Q260.0031 28.39375 259.1281 28.39375Q257.8 28.39375 256.97186 29.346874Q256.14374 30.3 256.14374 32.346874Q256.14374 34.440624 256.9406 35.39375Q257.7375 36.33125 259.03436 36.33125Q260.0656 36.33125 260.7531 35.70625Q261.45624 35.065624 261.64374 33.753124ZM271.97186 34.20625L273.78436 34.440624Q273.3625 36.01875 272.1906 36.909374Q271.03436 37.784374 269.22186 37.784374Q266.95624 37.784374 265.6125 36.39375Q264.28436 34.9875 264.28436 32.45625Q264.28436 29.83125 265.6281 28.39375Q266.97186 26.940624 269.1281 26.940624Q271.20624 26.940624 272.51874 28.3625Q273.84686 29.76875 273.84686 32.346874Q273.84686 32.503124 273.83124 32.815624L266.09686 32.815624Q266.1906 34.51875 267.0656 35.425Q267.9406 36.33125 269.2375 36.33125Q270.20624 36.33125 270.8781 35.83125Q271.5656 35.315624 271.97186 34.20625ZM266.1906 31.3625L271.9875 31.3625Q271.8781 30.065624 271.33124 29.409374Q270.4875 28.39375 269.14374 28.39375Q267.9406 28.39375 267.1125 29.20625Q266.28436 30.003124 266.1906 31.3625ZM282.28436 37.55L282.28436 28.55L280.7375 28.55L280.7375 27.175L282.28436 27.175L282.28436 26.08125Q282.28436 25.034374 282.47186 24.51875Q282.72186 23.83125 283.3625 23.409374Q284.0031 22.9875 285.15936 22.9875Q285.90936 22.9875 286.8 23.159374L286.53436 24.690624Q285.9875 24.596874 285.5031 24.596874Q284.70624 24.596874 284.3625 24.940624Q284.03436 25.284374 284.03436 26.221874L284.03436 27.175L286.0656 27.175L286.0656 28.55L284.03436 28.55L284.03436 37.55L282.28436 37.55ZM287.22186 32.3625Q287.22186 29.4875 288.8156 28.096874Q290.15936 26.940624 292.08124 26.940624Q294.22186 26.940624 295.5656 28.346874Q296.925 29.753124 296.925 32.221874Q296.925 34.221874 296.33124 35.378124Q295.7375 36.51875 294.58124 37.159374Q293.4406 37.784374 292.08124 37.784374Q289.89374 37.784374 288.55 36.39375Q287.22186 34.9875 287.22186 32.3625ZM289.01874 32.3625Q289.01874 34.3625 289.8781 35.346874Q290.7531 36.33125 292.08124 36.33125Q293.39374 36.33125 294.2531 35.346874Q295.1281 34.346874 295.1281 32.3Q295.1281 30.378124 294.2531 29.39375Q293.3781 28.39375 292.08124 28.39375Q290.7531 28.39375 289.8781 29.39375Q289.01874 30.378124 289.01874 32.3625ZM298.84686 37.55L298.84686 27.175L300.425 27.175L300.425 28.753124Q301.03436 27.64375 301.55 27.3Q302.0656 26.940624 302.675 26.940624Q303.5656 26.940624 304.4875 27.503124L303.8781 29.14375Q303.2375 28.753124 302.59686 28.753124Q302.01874 28.753124 301.55 29.1125Q301.09686 29.45625 300.89374 30.065624Q300.6125 31.003124 300.6125 32.1125L300.6125 37.55L298.84686 37.55ZM316.1906 37.55L310.64374 23.2375L312.6906 23.2375L316.40936 33.628124Q316.8625 34.878124 317.15936 35.971874Q317.4875 34.8 317.9406 33.628124L321.8 23.2375L323.7375 23.2375L318.1281 37.55L316.1906 37.55ZM325.01874 37.55L325.01874 23.2375L326.90936 23.2375L326.90936 35.8625L333.95624 35.8625L333.95624 37.55L325.01874 37.55ZM336.1281 37.55L336.1281 23.2375L346.4875 23.2375L346.4875 24.925L338.03436 24.925L338.03436 29.3L345.9406 29.3L345.9406 30.9875L338.03436 30.9875L338.03436 35.8625L346.8156 35.8625L346.8156 37.55L336.1281 37.55ZM349.08124 37.55L349.08124 23.2375L351.01874 23.2375L358.53436 34.471874L358.53436 23.2375L360.34686 23.2375L360.34686 37.55L358.40936 37.55L350.89374 26.3L350.89374 37.55L349.08124 37.55ZM371.1125 29.128124L361.65936 29.128124L361.65936 27.4875L371.1125 27.4875L371.1125 29.128124ZM371.1125 33.471874L361.65936 33.471874L361.65936 31.83125L371.1125 31.83125L371.1125 33.471874ZM380.0031 37.55L378.2375 37.55L378.2375 26.346874Q377.6125 26.95625 376.58124 27.565624Q375.55 28.159374 374.72186 28.471874L374.72186 26.76875Q376.20624 26.08125 377.3 25.096874Q378.40936 24.096874 378.8625 23.175L380.0031 23.175L380.0031 37.55ZM393.6125 35.8625L393.6125 37.55L384.15936 37.55Q384.14374 36.909374 384.3625 36.33125Q384.72186 35.3625 385.51874 34.425Q386.3156 33.4875 387.8156 32.253124Q390.15936 30.346874 390.97186 29.2375Q391.8 28.1125 391.8 27.1125Q391.8 26.065624 391.05 25.346874Q390.3 24.628124 389.09686 24.628124Q387.83124 24.628124 387.0656 25.39375Q386.3 26.159374 386.3 27.503124L384.4875 27.315624Q384.675 25.3 385.8781 24.2375Q387.09686 23.175 389.14374 23.175Q391.1906 23.175 392.39374 24.315624Q393.59686 25.45625 393.59686 27.14375Q393.59686 28.003124 393.2375 28.846874Q392.89374 29.675 392.08124 30.596874Q391.26874 31.503124 389.3781 33.1125Q387.78436 34.440624 387.33124 34.909374Q386.89374 35.378124 386.59686 35.8625L393.6125 35.8625ZM398.08124 29.784374Q396.9875 29.378124 396.45624 28.64375Q395.9406 27.89375 395.9406 26.8625Q395.9406 25.3 397.0656 24.2375Q398.1906 23.175 400.05 23.175Q401.925 23.175 403.0656 24.26875Q404.20624 25.346874 404.20624 26.909374Q404.20624 27.909374 403.675 28.64375Q403.15936 29.378124 402.09686 29.784374Q403.425 30.221874 404.1125 31.175Q404.8 32.128124 404.8 33.45625Q404.8 35.3 403.4875 36.55Q402.1906 37.8 400.08124 37.8Q397.95624 37.8 396.65936 36.55Q395.3625 35.284374 395.3625 33.409374Q395.3625 32.01875 396.0656 31.08125Q396.78436 30.128124 398.08124 29.784374ZM397.7375 26.8Q397.7375 27.815624 398.39374 28.471874Q399.05 29.1125 400.08124 29.1125Q401.09686 29.1125 401.7531 28.471874Q402.40936 27.83125 402.40936 26.909374Q402.40936 25.940624 401.7375 25.284374Q401.0656 24.6125 400.0656 24.6125Q399.0656 24.6125 398.39374 25.26875Q397.7375 25.909374 397.7375 26.8ZM397.175 33.425Q397.175 34.175 397.51874 34.878124Q397.8781 35.58125 398.58124 35.971874Q399.28436 36.346874 400.09686 36.346874Q401.3625 36.346874 402.175 35.534374Q403.0031 34.721874 403.0031 33.471874Q403.0031 32.20625 402.15936 31.378124Q401.3156 30.55 400.03436 30.55Q398.8 30.55 397.9875 31.378124Q397.175 32.190624 397.175 33.425ZM407.33124 37.55L407.33124 35.55L409.33124 35.55L409.33124 37.55Q409.33124 38.659374 408.9406 39.33125Q408.55 40.01875 407.70624 40.378124L407.20624 39.628124Q407.76874 39.39375 408.03436 38.909374Q408.3 38.440624 408.33124 37.55L407.33124 37.55ZM419.01874 37.55L419.01874 23.2375L420.90936 23.2375L420.90936 35.8625L427.95624 35.8625L427.95624 37.55L419.01874 37.55ZM430.03436 37.55L430.03436 23.2375L432.89374 23.2375L436.26874 33.3625Q436.7375 34.784374 436.95624 35.4875Q437.20624 34.70625 437.72186 33.190624L441.14374 23.2375L443.6906 23.2375L443.6906 37.55L441.8781 37.55L441.8781 25.565624L437.70624 37.55L436.0031 37.55L431.8625 25.3625L431.8625 37.55L430.03436 37.55ZM456.4875 23.2375L458.3781 23.2375L458.3781 31.503124Q458.3781 33.659374 457.89374 34.940624Q457.40936 36.20625 456.1281 37.003124Q454.8625 37.8 452.78436 37.8Q450.76874 37.8 449.4875 37.1125Q448.22186 36.409374 447.675 35.096874Q447.1281 33.784374 447.1281 31.503124L447.1281 23.2375L449.01874 23.2375L449.01874 31.4875Q449.01874 33.3625 449.3625 34.253124Q449.70624 35.128124 450.55 35.6125Q451.39374 36.08125 452.6281 36.08125Q454.70624 36.08125 455.59686 35.14375Q456.4875 34.190624 456.4875 31.4875L456.4875 23.2375ZM460.01874 37.55L460.01874 23.2375L461.90936 23.2375L461.90936 35.8625L468.95624 35.8625L468.95624 37.55L460.01874 37.55ZM480.1125 29.128124L470.65936 29.128124L470.65936 27.4875L480.1125 27.4875L480.1125 29.128124ZM480.1125 33.471874L470.65936 33.471874L470.65936 31.83125L480.1125 31.83125L480.1125 33.471874ZM489.0031 37.55L487.2375 37.55L487.2375 26.346874Q486.6125 26.95625 485.58124 27.565624Q484.55 28.159374 483.72186 28.471874L483.72186 26.76875Q485.20624 26.08125 486.3 25.096874Q487.40936 24.096874 487.8625 23.175L489.0031 23.175L489.0031 37.55Z" fill-rule="nonzero"/></svg>