<svg version="1.1" viewBox="0.0 0.0 600.0 371.0" fill="none" stroke="none" stroke-linecap="square" stroke-miterlimit="10" width="600" height="371" xmlns:xlink="http://www.w3.org/1999/xlink" xmlns="http://www.w3.org/2000/svg"><path fill="#ffffff" d="M0 0L600.0 0L600.0 371.0L0 371.0L0 0Z" fill-rule="nonzero"/><path stroke="#cccccc" stroke-width="1.0" stroke-linecap="butt" d="M94.5 86.5L94.5 300.5" fill-rule="nonzero"/><path stroke="#cccccc" stroke-width="1.0" stroke-linecap="butt" d="M218.5 86.5L218.5 300.5" fill-rule="nonzero"/><path stroke="#cccccc" stroke-width="1.0" stroke-linecap="butt" d="M343.5 86.5L343.5 300.5" fill-rule="nonzero"/><path stroke="#cccccc" stroke-width="1.0" stroke-linecap="butt" d="M467.5 86.5L467.5 300.5" fill-rule="nonzero"/><path stroke="#333333" stroke-width="1.0" stroke-linecap="butt" d="M94.5 300.5L581.5 300.5" fill-rule="nonzero"/><path stroke="#cccccc" stroke-width="1.0" stroke-linecap="butt" d="M94.5 229.5L581.5 229.5" fill-rule="nonzero"/><path stroke="#cccccc" stroke-width="1.0" stroke-linecap="butt" d="M94.5 157.5L581.5 157.5" fill-rule="nonzero"/><path stroke="#cccccc" stroke-width="1.0" stroke-linecap="butt" d="M94.5 86.5L581.5 86.5" fill-rule="nonzero"/><clipPath id="id_0"><path d="M94.55 86.28333L581.45 86.28333L581.45 300.45L94.55 300.45L94.55 86.28333Z" clip-rule="nonzero"/></clipPath><path stroke="#4285f4" stroke-width="2.0" stroke-linecap="butt" clip-path="url(#id_0)" d="M94.55 249.41408L132.00385 269.67426L169.45769 248.51459L206.91154 281.53195L244.36539 272.694L281.81924 261.1861L319.27307 263.3278L356.72693 266.18332L394.18076 264.04166L431.6346 264.75555L469.08847 264.75555L506.5423 274.75L543.99615 273.32224L581.45 276.17776" fill-rule="nonzero"/><path stroke="#ea4335" stroke-width="2.0" stroke-linecap="butt" clip-path="url(#id_0)" d="M94.55 285.16565L132.00385 276.806L169.45769 258.82315L206.91154 284.6088L244.36539 276.35626L281.81924 247.80069L319.27307 248.3361L356.72693 248.3361L394.18076 247.62222L431.6346 249.76389L469.08847 246.90834L506.5423 256.1889L543.99615 255.475L581.45 255.475" fill-rule="nonzero"/><path stroke="#fbbc04" stroke-width="2.0" stroke-linecap="butt" clip-path="url(#id_0)" d="M94.55 285.1371L132.00385 276.59897L169.45769 258.6875L206.91154 284.7016L244.36539 276.26346L281.81924 248.87152L319.27307 208.00139L356.72693 209.78612L394.18076 209.78612L431.6346 210.5L469.08847 207.64444L506.5423 223.35L543.99615 224.77777L581.45 222.63611" fill-rule="nonzero"/><path stroke="#34a853" stroke-width="2.0" stroke-linecap="butt" clip-path="url(#id_0)" d="M94.55 285.17993L132.00385 276.85596L169.45769 258.50903L206.91154 284.43033L244.36539 274.83566L281.81924 246.90834L319.27307 204.7889L356.72693 119.83611L394.18076 119.83611L431.6346 117.69444L469.08847 113.41111L506.5423 149.10556L543.99615 148.39166L581.45 147.67778" fill-rule="nonzero"/><path fill="#000000" fill-opacity="0.0" clip-path="url(#id_0)" d="M97.55 249.41408C97.55 251.07094 96.206856 252.41408 94.55 252.41408C92.89314 252.41408 91.55 251.07094 91.55 249.41408C91.55 247.75723 92.89314 246.41408 94.55 246.41408C96.206856 246.41408 97.55 247.75723 97.55 249.41408Z" fill-rule="nonzero"/><path fill="#000000" fill-opacity="0.0" clip-path="url(#id_0)" d="M135.00385 269.67426C135.00385 271.33112 133.6607 272.67426 132.00385 272.67426C130.34698 272.67426 129.00385 271.33112 129.00385 269.67426C129.00385 268.0174 130.34698 266.67426 132.00385 266.67426C133.6607 266.67426 135.00385 268.0174 135.00385 269.67426Z" fill-rule="nonzero"/><path fill="#000000" fill-opacity="0.0" clip-path="url(#id_0)" d="M172.45769 248.51459C172.45769 250.17143 171.11455 251.51459 169.45769 251.51459C167.80084 251.51459 166.45769 250.17143 166.45769 248.51459C166.45769 246.85773 167.80084 245.51459 169.45769 245.51459C171.11455 245.51459 172.45769 246.85773 172.45769 248.51459Z" fill-rule="nonzero"/><path fill="#000000" fill-opacity="0.0" clip-path="url(#id_0)" d="M209.91154 281.53195C209.91154 283.1888 208.56839 284.53195 206.91154 284.53195C205.25468 284.53195 203.91154 283.1888 203.91154 281.53195C203.91154 279.8751 205.25468 278.53195 206.91154 278.53195C208.56839 278.53195 209.91154 279.8751 209.91154 281.53195Z" fill-rule="nonzero"/><path fill="#000000" fill-opacity="0.0" clip-path="url(#id_0)" d="M247.36539 272.694C247.36539 274.35086 246.02223 275.694 244.36539 275.694C242.70853 275.694 241.36539 274.35086 241.36539 272.694C241.36539 271.03714 242.70853 269.694 244.36539 269.694C246.02223 269.694 247.36539 271.03714 247.36539 272.694Z" fill-rule="nonzero"/><path fill="#000000" fill-opacity="0.0" clip-path="url(#id_0)" d="M284.81924 261.1861C284.81924 262.84296 283.47607 264.1861 281.81924 264.1861C280.16238 264.1861 278.81924 262.84296 278.81924 261.1861C278.81924 259.52927 280.16238 258.1861 281.81924 258.1861C283.47607 258.1861 284.81924 259.52927 284.81924 261.1861Z" fill-rule="nonzero"/><path fill="#000000" fill-opacity="0.0" clip-path="url(#id_0)" d="M322.27307 263.3278C322.27307 264.98462 320.92993 266.3278 319.27307 266.3278C317.6162 266.3278 316.27307 264.98462 316.27307 263.3278C316.27307 261.67093 317.6162 260.3278 319.27307 260.3278C320.92993 260.3278 322.27307 261.67093 322.27307 263.3278Z" fill-rule="nonzero"/><path fill="#000000" fill-opacity="0.0" clip-path="url(#id_0)" d="M359.72693 266.18332C359.72693 267.84018 358.3838 269.18332 356.72693 269.18332C355.07007 269.18332 353.72693 267.84018 353.72693 266.18332C353.72693 264.5265 355.07007 263.18332 356.72693 263.18332C358.3838 263.18332 359.72693 264.5265 359.72693 266.18332Z" fill-rule="nonzero"/><path fill="#000000" fill-opacity="0.0" clip-path="url(#id_0)" d="M397.18076 264.04166C397.18076 265.69852 395.83762 267.04166 394.18076 267.04166C392.52393 267.04166 391.18076 265.69852 391.18076 264.04166C391.18076 262.38483 392.52393 261.04166 394.18076 261.04166C395.83762 261.04166 397.18076 262.38483 397.18076 264.04166Z" fill-rule="nonzero"/><path fill="#000000" fill-opacity="0.0" clip-path="url(#id_0)" d="M434.6346 264.75555C434.6346 266.4124 433.29147 267.75555 431.6346 267.75555C429.97775 267.75555 428.6346 266.4124 428.6346 264.75555C428.6346 263.0987 429.97775 261.75555 431.6346 261.75555C433.29147 261.75555 434.6346 263.0987 434.6346 264.75555Z" fill-rule="nonzero"/><path fill="#000000" fill-opacity="0.0" clip-path="url(#id_0)" d="M472.08847 264.75555C472.08847 266.4124 470.74533 267.75555 469.08847 267.75555C467.4316 267.75555 466.08847 266.4124 466.08847 264.75555C466.08847 263.0987 467.4316 261.75555 469.08847 261.75555C470.74533 261.75555 472.08847 263.0987 472.08847 264.75555Z" fill-rule="nonzero"/><path fill="#000000" fill-opacity="0.0" clip-path="url(#id_0)" d="M509.5423 274.75C509.5423 276.40686 508.19916 277.75 506.5423 277.75C504.88547 277.75 503.5423 276.40686 503.5423 274.75C503.5423 273.09314 504.88547 271.75 506.5423 271.75C508.19916 271.75 509.5423 273.09314 509.5423 274.75Z" fill-rule="nonzero"/><path fill="#000000" fill-opacity="0.0" clip-path="url(#id_0)" d="M546.99615 273.32224C546.99615 274.97906 545.653 276.32224 543.99615 276.32224C542.3393 276.32224 540.99615 274.97906 540.99615 273.32224C540.99615 271.66537 542.3393 270.32224 543.99615 270.32224C545.653 270.32224 546.99615 271.66537 546.99615 273.32224Z" fill-rule="nonzero"/><path fill="#000000" fill-opacity="0.0" clip-path="url(#id_0)" d="M584.45 276.17776C584.45 277.83463 583.1069 279.17776 581.45 279.17776C579.79315 279.17776 578.45 277.83463 578.45 276.17776C578.45 274.52094 579.79315 273.17776 581.45 273.17776C583.1069 273.17776 584.45 274.52094 584.45 276.17776Z" fill-rule="nonzero"/><path fill="#000000" fill-opacity="0.0" clip-path="url(#id_0)" d="M97.55 285.16565C97.55 286.82248 96.206856 288.16565 94.55 288.16565C92.89314 288.16565 91.55 286.82248 91.55 285.16565C91.55 283.5088 92.89314 282.16565 94.55 282.16565C96.206856 282.16565 97.55 283.5088 97.55 285.16565Z" fill-rule="nonzero"/><path fill="#000000" fill-opacity="0.0" clip-path="url(#id_0)" d="M135.00385 276.806C135.00385 278.46286 133.6607 279.806 132.00385 279.806C130.34698 279.806 129.00385 278.46286 129.00385 276.806C129.00385 275.14914 130.34698 273.806 132.00385 273.806C133.6607 273.806 135.00385 275.14914 135.00385 276.806Z" fill-rule="nonzero"/><path fill="#000000" fill-opacity="0.0" clip-path="url(#id_0)" d="M172.45769 258.82315C172.45769 260.47998 171.11455 261.82315 169.45769 261.82315C167.80084 261.82315 166.45769 260.47998 166.45769 258.82315C166.45769 257.1663 167.80084 255.82314 169.45769 255.82314C171.11455 255.82314 172.45769 257.1663 172.45769 258.82315Z" fill-rule="nonzero"/><path fill="#000000" fill-opacity="0.0" clip-path="url(#id_0)" d="M209.91154 284.6088C209.91154 286.26566 208.56839 287.6088 206.91154 287.6088C205.25468 287.6088 203.91154 286.26566 203.91154 284.6088C203.91154 282.95197 205.25468 281.6088 206.91154 281.6088C208.56839 281.6088 209.91154 282.95197 209.91154 284.6088Z" fill-rule="nonzero"/><path fill="#000000" fill-opacity="0.0" clip-path="url(#id_0)" d="M247.36539 276.35626C247.36539 278.0131 246.02223 279.35626 244.36539 279.35626C242.70853 279.35626 241.36539 278.0131 241.36539 276.35626C241.36539 274.6994 242.70853 273.35626 244.36539 273.35626C246.02223 273.35626 247.36539 274.6994 247.36539 276.35626Z" fill-rule="nonzero"/><path fill="#000000" fill-opacity="0.0" clip-path="url(#id_0)" d="M284.81924 247.80069C284.81924 249.45755 283.47607 250.80069 281.81924 250.80069C280.16238 250.80069 278.81924 249.45755 278.81924 247.80069C278.81924 246.14384 280.16238 244.80069 281.81924 244.80069C283.47607 244.80069 284.81924 246.14384 284.81924 247.80069Z" fill-rule="nonzero"/><path fill="#000000" fill-opacity="0.0" clip-path="url(#id_0)" d="M322.27307 248.3361C322.27307 249.99297 320.92993 251.3361 319.27307 251.3361C317.6162 251.3361 316.27307 249.99297 316.27307 248.3361C316.27307 246.67926 317.6162 245.3361 319.27307 245.3361C320.92993 245.3361 322.27307 246.67926 322.27307 248.3361Z" fill-rule="nonzero"/><path fill="#000000" fill-opacity="0.0" clip-path="url(#id_0)" d="M359.72693 248.3361C359.72693 249.99297 358.3838 251.3361 356.72693 251.3361C355.07007 251.3361 353.72693 249.99297 353.72693 248.3361C353.72693 246.67926 355.07007 245.3361 356.72693 245.3361C358.3838 245.3361 359.72693 246.67926 359.72693 248.3361Z" fill-rule="nonzero"/><path fill="#000000" fill-opacity="0.0" clip-path="url(#id_0)" d="M397.18076 247.62222C397.18076 249.27908 395.83762 250.62222 394.18076 250.62222C392.52393 250.62222 391.18076 249.27908 391.18076 247.62222C391.18076 245.96536 392.52393 244.62222 394.18076 244.62222C395.83762 244.62222 397.18076 245.96536 397.18076 247.62222Z" fill-rule="nonzero"/><path fill="#000000" fill-opacity="0.0" clip-path="url(#id_0)" d="M434.6346 249.76389C434.6346 251.42075 433.29147 252.76389 431.6346 252.76389C429.97775 252.76389 428.6346 251.42075 428.6346 249.76389C428.6346 248.10704 429.97775 246.76389 431.6346 246.76389C433.29147 246.76389 434.6346 248.10704 434.6346 249.76389Z" fill-rule="nonzero"/><path fill="#000000" fill-opacity="0.0" clip-path="url(#id_0)" d="M472.08847 246.90834C472.08847 248.56519 470.74533 249.90834 469.08847 249.90834C467.4316 249.90834 466.08847 248.56519 466.08847 246.90834C466.08847 245.25148 467.4316 243.90834 469.08847 243.90834C470.74533 243.90834 472.08847 245.25148 472.08847 246.90834Z" fill-rule="nonzero"/><path fill="#000000" fill-opacity="0.0" clip-path="url(#id_0)" d="M509.5423 256.1889C509.5423 257.84573 508.19916 259.1889 506.5423 259.1889C504.88547 259.1889 503.5423 257.84573 503.5423 256.1889C503.5423 254.53203 504.88547 253.18889 506.5423 253.18889C508.19916 253.18889 509.5423 254.53203 509.5423 256.1889Z" fill-rule="nonzero"/><path fill="#000000" fill-opacity="0.0" clip-path="url(#id_0)" d="M546.99615 255.475C546.99615 257.13187 545.653 258.475 543.99615 258.475C542.3393 258.475 540.99615 257.13187 540.99615 255.475C540.99615 253.81815 542.3393 252.475 543.99615 252.475C545.653 252.475 546.99615 253.81815 546.99615 255.475Z" fill-rule="nonzero"/><path fill="#000000" fill-opacity="0.0" clip-path="url(#id_0)" d="M584.45 255.475C584.45 257.13187 583.1069 258.475 581.45 258.475C579.79315 258.475 578.45 257.13187 578.45 255.475C578.45 253.81815 579.79315 252.475 581.45 252.475C583.1069 252.475 584.45 253.81815 584.45 255.475Z" fill-rule="nonzero"/><path fill="#000000" fill-opacity="0.0" clip-path="url(#id_0)" d="M97.55 285.1371C97.55 286.79395 96.206856 288.1371 94.55 288.1371C92.89314 288.1371 91.55 286.79395 91.55 285.1371C91.55 283.48022 92.89314 282.1371 94.55 282.1371C96.206856 282.1371 97.55 283.48022 97.55 285.1371Z" fill-rule="nonzero"/><path fill="#000000" fill-opacity="0.0" clip-path="url(#id_0)" d="M135.00385 276.59897C135.00385 278.25583 133.6607 279.59897 132.00385 279.59897C130.34698 279.59897 129.00385 278.25583 129.00385 276.59897C129.00385 274.9421 130.34698 273.59897 132.00385 273.59897C133.6607 273.59897 135.00385 274.9421 135.00385 276.59897Z" fill-rule="nonzero"/><path fill="#000000" fill-opacity="0.0" clip-path="url(#id_0)" d="M172.45769 258.6875C172.45769 260.34436 171.11455 261.6875 169.45769 261.6875C167.80084 261.6875 166.45769 260.34436 166.45769 258.6875C166.45769 257.03064 167.80084 255.6875 169.45769 255.6875C171.11455 255.6875 172.45769 257.03064 172.45769 258.6875Z" fill-rule="nonzero"/><path fill="#000000" fill-opacity="0.0" clip-path="url(#id_0)" d="M209.91154 284.7016C209.91154 286.35846 208.56839 287.7016 206.91154 287.7016C205.25468 287.7016 203.91154 286.35846 203.91154 284.7016C203.91154 283.04477 205.25468 281.7016 206.91154 281.7016C208.56839 281.7016 209.91154 283.04477 209.91154 284.7016Z" fill-rule="nonzero"/><path fill="#000000" fill-opacity="0.0" clip-path="url(#id_0)" d="M247.36539 276.26346C247.36539 277.9203 246.02223 279.26346 244.36539 279.26346C242.70853 279.26346 241.36539 277.9203 241.36539 276.26346C241.36539 274.6066 242.70853 273.26346 244.36539 273.26346C246.02223 273.26346 247.36539 274.6066 247.36539 276.26346Z" fill-rule="nonzero"/><path fill="#000000" fill-opacity="0.0" clip-path="url(#id_0)" d="M284.81924 248.87152C284.81924 250.52838 283.47607 251.87152 281.81924 251.87152C280.16238 251.87152 278.81924 250.52838 278.81924 248.87152C278.81924 247.21468 280.16238 245.87152 281.81924 245.87152C283.47607 245.87152 284.81924 247.21468 284.81924 248.87152Z" fill-rule="nonzero"/><path fill="#000000" fill-opacity="0.0" clip-path="url(#id_0)" d="M322.27307 208.00139C322.27307 209.65825 320.92993 211.00139 319.27307 211.00139C317.6162 211.00139 316.27307 209.65825 316.27307 208.00139C316.27307 206.34453 317.6162 205.00139 319.27307 205.00139C320.92993 205.00139 322.27307 206.34453 322.27307 208.00139Z" fill-rule="nonzero"/><path fill="#000000" fill-opacity="0.0" clip-path="url(#id_0)" d="M359.72693 209.78612C359.72693 211.44296 358.3838 212.78612 356.72693 212.78612C355.07007 212.78612 353.72693 211.44296 353.72693 209.78612C353.72693 208.12926 355.07007 206.78612 356.72693 206.78612C358.3838 206.78612 359.72693 208.12926 359.72693 209.78612Z" fill-rule="nonzero"/><path fill="#000000" fill-opacity="0.0" clip-path="url(#id_0)" d="M397.18076 209.78612C397.18076 211.44296 395.83762 212.78612 394.18076 212.78612C392.52393 212.78612 391.18076 211.44296 391.18076 209.78612C391.18076 208.12926 392.52393 206.78612 394.18076 206.78612C395.83762 206.78612 397.18076 208.12926 397.18076 209.78612Z" fill-rule="nonzero"/><path fill="#000000" fill-opacity="0.0" clip-path="url(#id_0)" d="M434.6346 210.5C434.6346 212.15686 433.29147 213.5 431.6346 213.5C429.97775 213.5 428.6346 212.15686 428.6346 210.5C428.6346 208.84314 429.97775 207.5 431.6346 207.5C433.29147 207.5 434.6346 208.84314 434.6346 210.5Z" fill-rule="nonzero"/><path fill="#000000" fill-opacity="0.0" clip-path="url(#id_0)" d="M472.08847 207.64444C472.08847 209.3013 470.74533 210.64444 469.08847 210.64444C467.4316 210.64444 466.08847 209.3013 466.08847 207.64444C466.08847 205.9876 467.4316 204.64444 469.08847 204.64444C470.74533 204.64444 472.08847 205.9876 472.08847 207.64444Z" fill-rule="nonzero"/><path fill="#000000" fill-opacity="0.0" clip-path="url(#id_0)" d="M509.5423 223.35C509.5423 225.00685 508.19916 226.35 506.5423 226.35C504.88547 226.35 503.5423 225.00685 503.5423 223.35C503.5423 221.69315 504.88547 220.35 506.5423 220.35C508.19916 220.35 509.5423 221.69315 509.5423 223.35Z" fill-rule="nonzero"/><path fill="#000000" fill-opacity="0.0" clip-path="url(#id_0)" d="M546.99615 224.77777C546.99615 226.43463 545.653 227.77777 543.99615 227.77777C542.3393 227.77777 540.99615 226.43463 540.99615 224.77777C540.99615 223.12093 542.3393 221.77777 543.99615 221.77777C545.653 221.77777 546.99615 223.12093 546.99615 224.77777Z" fill-rule="nonzero"/><path fill="#000000" fill-opacity="0.0" clip-path="url(#id_0)" d="M584.45 222.63611C584.45 224.29297 583.1069 225.63611 581.45 225.63611C579.79315 225.63611 578.45 224.29297 578.45 222.63611C578.45 220.97926 579.79315 219.63611 581.45 219.63611C583.1069 219.63611 584.45 220.97926 584.45 222.63611Z" fill-rule="nonzero"/><path fill="#000000" fill-opacity="0.0" clip-path="url(#id_0)" d="M97.55 285.17993C97.55 286.83676 96.206856 288.17993 94.55 288.17993C92.89314 288.17993 91.55 286.83676 91.55 285.17993C91.55 283.52307 92.89314 282.17993 94.55 282.17993C96.206856 282.17993 97.55 283.52307 97.55 285.17993Z" fill-rule="nonzero"/><path fill="#000000" fill-opacity="0.0" clip-path="url(#id_0)" d="M135.00385 276.85596C135.00385 278.51282 133.6607 279.85596 132.00385 279.85596C130.34698 279.85596 129.00385 278.51282 129.00385 276.85596C129.00385 275.19913 130.34698 273.85596 132.00385 273.85596C133.6607 273.85596 135.00385 275.19913 135.00385 276.85596Z" fill-rule="nonzero"/><path fill="#000000" fill-opacity="0.0" clip-path="url(#id_0)" d="M172.45769 258.50903C172.45769 260.1659 171.11455 261.50903 169.45769 261.50903C167.80084 261.50903 166.45769 260.1659 166.45769 258.50903C166.45769 256.85217 167.80084 255.50903 169.45769 255.50903C171.11455 255.50903 172.45769 256.85217 172.45769 258.50903Z" fill-rule="nonzero"/><path fill="#000000" fill-opacity="0.0" clip-path="url(#id_0)" d="M209.91154 284.43033C209.91154 286.0872 208.56839 287.43033 206.91154 287.43033C205.25468 287.43033 203.91154 286.0872 203.91154 284.43033C203.91154 282.77347 205.25468 281.43033 206.91154 281.43033C208.56839 281.43033 209.91154 282.77347 209.91154 284.43033Z" fill-rule="nonzero"/><path fill="#000000" fill-opacity="0.0" clip-path="url(#id_0)" d="M247.36539 274.83566C247.36539 276.49252 246.02223 277.83566 244.36539 277.83566C242.70853 277.83566 241.36539 276.49252 241.36539 274.83566C241.36539 273.1788 242.70853 271.83566 244.36539 271.83566C246.02223 271.83566 247.36539 273.1788 247.36539 274.83566Z" fill-rule="nonzero"/><path fill="#000000" fill-opacity="0.0" clip-path="url(#id_0)" d="M284.81924 246.90834C284.81924 248.56519 283.47607 249.90834 281.81924 249.90834C280.16238 249.90834 278.81924 248.56519 278.81924 246.90834C278.81924 245.25148 280.16238 243.90834 281.81924 243.90834C283.47607 243.90834 284.81924 245.25148 284.81924 246.90834Z" fill-rule="nonzero"/><path fill="#000000" fill-opacity="0.0" clip-path="url(#id_0)" d="M322.27307 204.7889C322.27307 206.44574 320.92993 207.7889 319.27307 207.7889C317.6162 207.7889 316.27307 206.44574 316.27307 204.7889C316.27307 203.13203 317.6162 201.7889 319.27307 201.7889C320.92993 201.7889 322.27307 203.13203 322.27307 204.7889Z" fill-rule="nonzero"/><path fill="#000000" fill-opacity="0.0" clip-path="url(#id_0)" d="M359.72693 119.83611C359.72693 121.492966 358.3838 122.83611 356.72693 122.83611C355.07007 122.83611 353.72693 121.492966 353.72693 119.83611C353.72693 118.17926 355.07007 116.83611 356.72693 116.83611C358.3838 116.83611 359.72693 118.17926 359.72693 119.83611Z" fill-rule="nonzero"/><path fill="#000000" fill-opacity="0.0" clip-path="url(#id_0)" d="M397.18076 119.83611C397.18076 121.492966 395.83762 122.83611 394.18076 122.83611C392.52393 122.83611 391.18076 121.492966 391.18076 119.83611C391.18076 118.17926 392.52393 116.83611 394.18076 116.83611C395.83762 116.83611 397.18076 118.17926 397.18076 119.83611Z" fill-rule="nonzero"/><path fill="#000000" fill-opacity="0.0" clip-path="url(#id_0)" d="M434.6346 117.69444C434.6346 119.351295 433.29147 120.69444 431.6346 120.69444C429.97775 120.69444 428.6346 119.351295 428.6346 117.69444C428.6346 116.03759 429.97775 114.69444 431.6346 114.69444C433.29147 114.69444 434.6346 116.03759 434.6346 117.69444Z" fill-rule="nonzero"/><path fill="#000000" fill-opacity="0.0" clip-path="url(#id_0)" d="M472.08847 113.41111C472.08847 115.06796 470.74533 116.41111 469.08847 116.41111C467.4316 116.41111 466.08847 115.06796 466.08847 113.41111C466.08847 111.75426 467.4316 110.41111 469.08847 110.41111C470.74533 110.41111 472.08847 111.75426 472.08847 113.41111Z" fill-rule="nonzero"/><path fill="#000000" fill-opacity="0.0" clip-path="url(#id_0)" d="M509.5423 149.10556C509.5423 150.7624 508.19916 152.10556 506.5423 152.10556C504.88547 152.10556 503.5423 150.7624 503.5423 149.10556C503.5423 147.4487 504.88547 146.10556 506.5423 146.10556C508.19916 146.10556 509.5423 147.4487 509.5423 149.10556Z" fill-rule="nonzero"/><path fill="#000000" fill-opacity="0.0" clip-path="url(#id_0)" d="M546.99615 148.39166C546.99615 150.04852 545.653 151.39166 543.99615 151.39166C542.3393 151.39166 540.99615 150.04852 540.99615 148.39166C540.99615 146.73482 542.3393 145.39166 543.99615 145.39166C545.653 145.39166 546.99615 146.73482 546.99615 148.39166Z" fill-rule="nonzero"/><path fill="#000000" fill-opacity="0.0" clip-path="url(#id_0)" d="M584.45 147.67778C584.45 149.33463 583.1069 150.67778 581.45 150.67778C579.79315 150.67778 578.45 149.33463 578.45 147.67778C578.45 146.02092 579.79315 144.67778 581.45 144.67778C583.1069 144.67778 584.45 146.02092 584.45 147.67778Z" fill-rule="nonzero"/><path fill="#000000" d="M291.375 349.45L291.375 340.85626L294.60938 340.85626Q295.59375 340.85626 296.1875 341.1219Q296.78125 341.3875 297.10938 341.9344Q297.45312 342.46564 297.45312 343.0594Q297.45312 343.60626 297.15625 344.09064Q296.85938 344.575 296.25 344.8719Q297.03125 345.10626 297.4375 345.66876Q297.85938 346.21564 297.85938 346.96564Q297.85938 347.5594 297.60938 348.09064Q297.35938 348.60626 296.98438 348.8875Q296.60938 349.16876 296.03125 349.3094Q295.46875 349.45 294.65625 349.45L291.375 349.45ZM292.51562 344.46564L294.375 344.46564Q295.125 344.46564 295.45312 344.3719Q295.89062 344.2469 296.10938 343.95Q296.32812 343.6375 296.32812 343.1844Q296.32812 342.7625 296.125 342.4344Q295.92188 342.10626 295.53125 341.9969Q295.15625 341.8719 294.23438 341.8719L292.51562 341.8719L292.51562 344.46564ZM292.51562 348.4344L294.65625 348.4344Q295.20312 348.4344 295.42188 348.3875Q295.82812 348.325 296.07812 348.16876Q296.34375 347.9969 296.51562 347.6844Q296.6875 347.3719 296.6875 346.96564Q296.6875 346.48126 296.4375 346.1219Q296.20312 345.7625 295.76562 345.6219Q295.32812 345.48126 294.5 345.48126L292.51562 345.48126L292.51562 348.4344ZM299.26562 349.45L299.26562 340.85626L300.32812 340.85626L300.32812 349.45L299.26562 349.45ZM301.90625 346.34064Q301.90625 344.60626 302.85938 343.77814Q303.65625 343.09064 304.8125 343.09064Q306.09375 343.09064 306.90625 343.9344Q307.73438 344.7625 307.73438 346.2469Q307.73438 347.45 307.375 348.1375Q307.01562 348.825 306.3125 349.21564Q305.625 349.59064 304.8125 349.59064Q303.51562 349.59064 302.70312 348.7625Q301.90625 347.91876 301.90625 346.34064ZM302.98438 346.34064Q302.98438 347.52814 303.5 348.1219Q304.03125 348.71564 304.8125 348.71564Q305.60938 348.71564 306.125 348.1219Q306.64062 347.52814 306.64062 346.3094Q306.64062 345.15314 306.10938 344.5594Q305.59375 343.96564 304.8125 343.96564Q304.03125 343.96564 303.5 344.5594Q302.98438 345.1375 302.98438 346.34064ZM313.35938 347.16876L314.39062 347.3094Q314.21875 348.3719 313.51562 348.98126Q312.8125 349.59064 311.79688 349.59064Q310.51562 349.59064 309.73438 348.7625Q308.96875 347.91876 308.96875 346.35626Q308.96875 345.35626 309.29688 344.60626Q309.64062 343.84064 310.3125 343.46564Q311.0 343.09064 311.8125 343.09064Q312.8125 343.09064 313.45312 343.60626Q314.10938 344.10626 314.29688 345.0594L313.26562 345.21564Q313.125 344.59064 312.75 344.27814Q312.375 343.95 311.84375 343.95Q311.04688 343.95 310.54688 344.52814Q310.04688 345.09064 310.04688 346.325Q310.04688 347.59064 310.53125 348.15314Q311.01562 348.71564 311.78125 348.71564Q312.40625 348.71564 312.8125 348.34064Q313.23438 347.96564 313.35938 347.16876ZM315.29688 349.45L315.29688 340.85626L316.35938 340.85626L316.35938 345.7625L318.84375 343.23126L320.21875 343.23126L317.82812 345.52814L320.45312 349.45L319.15625 349.45L317.09375 346.2625L316.35938 346.98126L316.35938 349.45L315.29688 349.45ZM323.875 347.59064L324.90625 347.4344Q325.0 348.0594 325.39062 348.3875Q325.79688 348.71564 326.53125 348.71564Q327.25 348.71564 327.59375 348.4344Q327.95312 348.1375 327.95312 347.73126Q327.95312 347.3719 327.64062 347.16876Q327.42188 347.02814 326.5625 346.8094Q325.40625 346.5125 324.95312 346.3094Q324.51562 346.09064 324.28125 345.71564Q324.04688 345.34064 324.04688 344.8719Q324.04688 344.46564 324.23438 344.10626Q324.42188 343.7469 324.75 343.5125Q325.0 343.34064 325.42188 343.21564Q325.84375 343.09064 326.34375 343.09064Q327.0625 343.09064 327.60938 343.3094Q328.17188 343.5125 328.4375 343.8719Q328.70312 344.23126 328.79688 344.825L327.76562 344.96564Q327.70312 344.4969 327.35938 344.23126Q327.03125 343.95 326.40625 343.95Q325.6875 343.95 325.375 344.2Q325.0625 344.4344 325.0625 344.7625Q325.0625 344.96564 325.1875 345.1219Q325.32812 345.29376 325.59375 345.40314Q325.75 345.46564 326.53125 345.66876Q327.65625 345.98126 328.09375 346.16876Q328.53125 346.35626 328.78125 346.71564Q329.03125 347.075 329.03125 347.6219Q329.03125 348.15314 328.71875 348.6219Q328.42188 349.075 327.84375 349.34064Q327.26562 349.59064 326.53125 349.59064Q325.3125 349.59064 324.67188 349.09064Q324.04688 348.575 323.875 347.59064ZM331.29688 342.075L331.29688 340.85626L332.35938 340.85626L332.35938 342.075L331.29688 342.075ZM331.29688 349.45L331.29688 343.23126L332.35938 343.23126L332.35938 349.45L331.29688 349.45ZM333.73438 349.45L333.73438 348.59064L337.70312 344.04376Q337.01562 344.075 336.5 344.075L333.96875 344.075L333.96875 343.23126L339.0625 343.23126L339.0625 343.91876L335.6875 347.8719L335.03125 348.59064Q335.75 348.54376 336.35938 348.54376L339.25 348.54376L339.25 349.45L333.73438 349.45ZM343.54688 347.45L344.64062 347.575Q344.39062 348.52814 343.6875 349.0594Q342.98438 349.59064 341.90625 349.59064Q340.54688 349.59064 339.73438 348.7469Q338.9375 347.90314 338.9375 346.3875Q338.9375 344.825 339.75 343.96564Q340.5625 343.09064 341.84375 343.09064Q343.09375 343.09064 343.875 343.9344Q344.67188 344.77814 344.67188 346.325Q344.67188 346.41876 344.67188 346.60626L340.03125 346.60626Q340.09375 347.6375 340.60938 348.1844Q341.125 348.71564 341.90625 348.71564Q342.48438 348.71564 342.89062 348.41876Q343.3125 348.10626 343.54688 347.45ZM340.09375 345.7469L343.5625 345.7469Q343.5 344.95 343.17188 344.5594Q342.65625 343.95 341.85938 343.95Q341.125 343.95 340.625 344.4344Q340.14062 344.91876 340.09375 345.7469ZM351.3125 351.98126Q350.4375 350.8719 349.82812 349.40314Q349.23438 347.91876 349.23438 346.34064Q349.23438 344.95 349.67188 343.66876Q350.20312 342.1844 351.3125 340.71564L352.0625 340.71564Q351.35938 341.9344 351.125 342.45Q350.76562 343.2625 350.5625 344.1375Q350.3125 345.23126 350.3125 346.34064Q350.3125 349.16876 352.0625 351.98126L351.3125 351.98126ZM354.26562 349.45L353.28125 349.45L353.28125 340.85626L354.34375 340.85626L354.34375 343.91876Q355.01562 343.09064 356.04688 343.09064Q356.625 343.09064 357.125 343.325Q357.64062 343.54376 357.96875 343.96564Q358.3125 344.3875 358.5 344.98126Q358.6875 345.575 358.6875 346.2469Q358.6875 347.84064 357.89062 348.71564Q357.09375 349.59064 356.0 349.59064Q354.89062 349.59064 354.26562 348.66876L354.26562 349.45ZM354.25 346.29376Q354.25 347.40314 354.5625 347.90314Q355.0625 348.71564 355.90625 348.71564Q356.59375 348.71564 357.09375 348.1219Q357.60938 347.52814 357.60938 346.325Q357.60938 345.10626 357.125 344.52814Q356.64062 343.95 355.95312 343.95Q355.26562 343.95 354.75 344.5594Q354.25 345.15314 354.25 346.29376ZM360.25 351.84064L360.125 350.85626Q360.46875 350.95 360.73438 350.95Q361.07812 350.95 361.28125 350.825Q361.5 350.71564 361.64062 350.5125Q361.73438 350.34064 361.96875 349.71564Q361.98438 349.6375 362.0625 349.46564L359.6875 343.23126L360.82812 343.23126L362.125 346.825Q362.375 347.5125 362.57812 348.27814Q362.76562 347.54376 363.01562 346.85626L364.34375 343.23126L365.39062 343.23126L363.03125 349.5594Q362.64062 350.575 362.4375 350.96564Q362.15625 351.4969 361.78125 351.73126Q361.42188 351.98126 360.92188 351.98126Q360.625 351.98126 360.25 351.84064ZM367.59375 348.5125L367.75 349.4344Q367.29688 349.52814 366.95312 349.52814Q366.375 349.52814 366.0625 349.35626Q365.75 349.16876 365.60938 348.8719Q365.48438 348.575 365.48438 347.6219L365.48438 344.04376L364.71875 344.04376L364.71875 343.23126L365.48438 343.23126L365.48438 341.6844L366.53125 341.0594L366.53125 343.23126L367.59375 343.23126L367.59375 344.04376L366.53125 344.04376L366.53125 347.6844Q366.53125 348.1375 366.57812 348.2625Q366.64062 348.3875 366.76562 348.46564Q366.89062 348.54376 367.125 348.54376Q367.3125 348.54376 367.59375 348.5125ZM372.54688 347.45L373.64062 347.575Q373.39062 348.52814 372.6875 349.0594Q371.98438 349.59064 370.90625 349.59064Q369.54688 349.59064 368.73438 348.7469Q367.9375 347.90314 367.9375 346.3875Q367.9375 344.825 368.75 343.96564Q369.5625 343.09064 370.84375 343.09064Q372.09375 343.09064 372.875 343.9344Q373.67188 344.77814 373.67188 346.325Q373.67188 346.41876 373.67188 346.60626L369.03125 346.60626Q369.09375 347.6375 369.60938 348.1844Q370.125 348.71564 370.90625 348.71564Q371.48438 348.71564 371.89062 348.41876Q372.3125 348.10626 372.54688 347.45ZM369.09375 345.7469L372.5625 345.7469Q372.5 344.95 372.17188 344.5594Q371.65625 343.95 370.85938 343.95Q370.125 343.95 369.625 344.4344Q369.14062 344.91876 369.09375 345.7469ZM374.875 347.59064L375.90625 347.4344Q376.0 348.0594 376.39062 348.3875Q376.79688 348.71564 377.53125 348.71564Q378.25 348.71564 378.59375 348.4344Q378.95312 348.1375 378.95312 347.73126Q378.95312 347.3719 378.64062 347.16876Q378.42188 347.02814 377.5625 346.8094Q376.40625 346.5125 375.95312 346.3094Q375.51562 346.09064 375.28125 345.71564Q375.04688 345.34064 375.04688 344.8719Q375.04688 344.46564 375.23438 344.10626Q375.42188 343.7469 375.75 343.5125Q376.0 343.34064 376.42188 343.21564Q376.84375 343.09064 377.34375 343.09064Q378.0625 343.09064 378.60938 343.3094Q379.17188 343.5125 379.4375 343.8719Q379.70312 344.23126 379.79688 344.825L378.76562 344.96564Q378.70312 344.4969 378.35938 344.23126Q378.03125 343.95 377.40625 343.95Q376.6875 343.95 376.375 344.2Q376.0625 344.4344 376.0625 344.7625Q376.0625 344.96564 376.1875 345.1219Q376.32812 345.29376 376.59375 345.40314Q376.75 345.46564 377.53125 345.66876Q378.65625 345.98126 379.09375 346.16876Q379.53125 346.35626 379.78125 346.71564Q380.03125 347.075 380.03125 347.6219Q380.03125 348.15314 379.71875 348.6219Q379.42188 349.075 378.84375 349.34064Q378.26562 349.59064 377.53125 349.59064Q376.3125 349.59064 375.67188 349.09064Q375.04688 348.575 374.875 347.59064ZM382.98438 351.98126L382.23438 351.98126Q383.98438 349.16876 383.98438 346.34064Q383.98438 345.2469 383.73438 344.15314Q383.53125 343.27814 383.17188 342.46564Q382.9375 341.95 382.23438 340.71564L382.98438 340.71564Q384.07812 342.1844 384.60938 343.66876Q385.0625 344.95 385.0625 346.34064Q385.0625 347.91876 384.45312 349.40314Q383.84375 350.8719 382.98438 351.98126Z" fill-rule="nonzero"/><path fill="#000000" d="M29.550013 280.74167L20.956263 280.74167L20.956263 279.61667L29.550013 279.61667L29.550013 280.74167ZM29.550013 278.0698L23.331263 278.0698L23.331263 277.1323L24.206263 277.1323Q23.190638 276.4448 23.190638 275.14792Q23.190638 274.58542 23.393763 274.11667Q23.596888 273.6323 23.925013 273.39792Q24.253138 273.16354 24.690638 273.0698Q24.987513 273.02292 25.721888 273.02292L29.550013 273.02292L29.550013 274.0698L25.768763 274.0698Q25.112513 274.0698 24.800013 274.1948Q24.487513 274.3198 24.300013 274.6323Q24.096888 274.9448 24.096888 275.36667Q24.096888 276.03854 24.534388 276.53854Q24.956263 277.02292 26.143763 277.02292L29.550013 277.02292L29.550013 278.0698ZM27.690638 271.49167L27.534388 270.46042Q28.159388 270.36667 28.487513 269.97604Q28.815638 269.5698 28.815638 268.83542Q28.815638 268.11667 28.534388 267.77292Q28.237513 267.41354 27.831263 267.41354Q27.471888 267.41354 27.268763 267.72604Q27.128138 267.9448 26.909388 268.80417Q26.612513 269.96042 26.409388 270.41354Q26.190638 270.85104 25.815638 271.08542Q25.440638 271.3198 24.971888 271.3198Q24.565638 271.3198 24.206263 271.1323Q23.846888 270.9448 23.612513 270.61667Q23.440638 270.36667 23.315638 269.9448Q23.190638 269.52292 23.190638 269.02292Q23.190638 268.30417 23.409388 267.7573Q23.612513 267.1948 23.971888 266.92917Q24.331263 266.66354 24.925013 266.5698L25.065638 267.60104Q24.596888 267.66354 24.331263 268.0073Q24.050013 268.33542 24.050013 268.96042Q24.050013 269.67917 24.300013 269.99167Q24.534388 270.30417 24.862513 270.30417Q25.065638 270.30417 25.221888 270.17917Q25.393763 270.03854 25.503138 269.77292Q25.565638 269.61667 25.768763 268.83542Q26.081263 267.71042 26.268763 267.27292Q26.456263 266.83542 26.815638 266.58542Q27.175013 266.33542 27.721888 266.33542Q28.253138 266.33542 28.721888 266.64792Q29.175013 266.9448 29.440638 267.52292Q29.690638 268.10104 29.690638 268.83542Q29.690638 270.05417 29.190638 270.6948Q28.675013 271.3198 27.690638 271.49167ZM28.612513 261.77292L29.534388 261.61667Q29.628138 262.0698 29.628138 262.41354Q29.628138 262.99167 29.456263 263.30417Q29.268763 263.61667 28.971888 263.7573Q28.675013 263.8823 27.721888 263.8823L24.143763 263.8823L24.143763 264.64792L23.331263 264.64792L23.331263 263.8823L21.784388 263.8823L21.159388 262.83542L23.331263 262.83542L23.331263 261.77292L24.143763 261.77292L24.143763 262.83542L27.784388 262.83542Q28.237513 262.83542 28.362513 262.78854Q28.487513 262.72604 28.565638 262.60104Q28.643763 262.47604 28.643763 262.24167Q28.643763 262.05417 28.612513 261.77292ZM29.550013 261.08542L23.331263 261.08542L23.331263 260.1323L24.268763 260.1323Q23.612513 259.77292 23.409388 259.47604Q23.190638 259.16354 23.190638 258.78854Q23.190638 258.2573 23.518763 257.71042L24.503138 258.0698Q24.268763 258.46042 24.268763 258.83542Q24.268763 259.1948 24.487513 259.47604Q24.690638 259.74167 25.065638 259.85104Q25.628138 260.03854 26.284388 260.03854L29.550013 260.03854L29.550013 261.08542ZM29.550013 252.99167L28.628138 252.99167Q29.690638 253.72604 29.690638 254.97604Q29.690638 255.52292 29.487513 256.0073Q29.268763 256.47604 28.956263 256.71042Q28.628138 256.9448 28.159388 257.03854Q27.862513 257.10104 27.175013 257.10104L23.331263 257.10104L23.331263 256.03854L26.784388 256.03854Q27.596888 256.03854 27.893763 255.97604Q28.300013 255.8823 28.550013 255.5698Q28.784388 255.24167 28.784388 254.7573Q28.784388 254.28854 28.550013 253.8823Q28.300013 253.46042 27.878138 253.28854Q27.456263 253.10104 26.659388 253.10104L23.331263 253.10104L23.331263 252.05417L29.550013 252.05417L29.550013 252.99167ZM27.268763 246.0073L27.409388 244.97604Q28.471888 245.14792 29.081263 245.85104Q29.690638 246.55417 29.690638 247.5698Q29.690638 248.85104 28.862513 249.6323Q28.018763 250.39792 26.456263 250.39792Q25.456263 250.39792 24.706263 250.0698Q23.940638 249.72604 23.565638 249.05417Q23.190638 248.36667 23.190638 247.55417Q23.190638 246.55417 23.706263 245.91354Q24.206263 245.2573 25.159388 245.0698L25.315638 246.10104Q24.690638 246.24167 24.378138 246.61667Q24.050013 246.99167 24.050013 247.52292Q24.050013 248.3198 24.628138 248.8198Q25.190638 249.3198 26.425013 249.3198Q27.690638 249.3198 28.253138 248.83542Q28.815638 248.35104 28.815638 247.58542Q28.815638 246.96042 28.440638 246.55417Q28.065638 246.1323 27.268763 246.0073ZM28.612513 241.77292L29.534388 241.61667Q29.628138 242.0698 29.628138 242.41354Q29.628138 242.99167 29.456263 243.30417Q29.268763 243.61667 28.971888 243.7573Q28.675013 243.8823 27.721888 243.8823L24.143763 243.8823L24.143763 244.64792L23.331263 244.64792L23.331263 243.8823L21.784388 243.8823L21.159388 242.83542L23.331263 242.83542L23.331263 241.77292L24.143763 241.77292L24.143763 242.83542L27.784388 242.83542Q28.237513 242.83542 28.362513 242.78854Q28.487513 242.72604 28.565638 242.60104Q28.643763 242.47604 28.643763 242.24167Q28.643763 242.05417 28.612513 241.77292ZM22.175013 241.0698L20.956263 241.0698L20.956263 240.0073L22.175013 240.0073L22.175013 241.0698ZM29.550013 241.0698L23.331263 241.0698L23.331263 240.0073L29.550013 240.0073L29.550013 241.0698ZM26.440638 238.46042Q24.706263 238.46042 23.878138 237.5073Q23.190638 236.71042 23.190638 235.55417Q23.190638 234.27292 24.034388 233.46042Q24.862513 232.6323 26.346888 232.6323Q27.550013 232.6323 28.237513 232.99167Q28.925013 233.35104 29.315638 234.05417Q29.690638 234.74167 29.690638 235.55417Q29.690638 236.85104 28.862513 237.66354Q28.018763 238.46042 26.440638 238.46042ZM26.440638 237.3823Q27.628138 237.3823 28.221888 236.86667Q28.815638 236.33542 28.815638 235.55417Q28.815638 234.7573 28.221888 234.24167Q27.628138 233.72604 26.409388 233.72604Q25.253138 233.72604 24.659388 234.2573Q24.065638 234.77292 24.065638 235.55417Q24.065638 236.33542 24.659388 236.86667Q25.237513 237.3823 26.440638 237.3823ZM29.550013 231.0698L23.331263 231.0698L23.331263 230.1323L24.206263 230.1323Q23.190638 229.4448 23.190638 228.14792Q23.190638 227.58542 23.393763 227.11667Q23.596888 226.6323 23.925013 226.39792Q24.253138 226.16354 24.690638 226.0698Q24.987513 226.02292 25.721888 226.02292L29.550013 226.02292L29.550013 227.0698L25.768763 227.0698Q25.112513 227.0698 24.800013 227.1948Q24.487513 227.3198 24.300013 227.6323Q24.096888 227.9448 24.096888 228.36667Q24.096888 229.03854 24.534388 229.53854Q24.956263 230.02292 26.143763 230.02292L29.550013 230.02292L29.550013 231.0698ZM27.550013 216.8198L27.675013 215.72604Q28.628138 215.97604 29.159388 216.67917Q29.690638 217.3823 29.690638 218.46042Q29.690638 219.8198 28.846888 220.6323Q28.003138 221.42917 26.487513 221.42917Q24.925013 221.42917 24.065638 220.61667Q23.190638 219.80417 23.190638 218.52292Q23.190638 217.27292 24.034388 216.49167Q24.878138 215.6948 26.425013 215.6948Q26.518763 215.6948 26.706263 215.6948L26.706263 220.33542Q27.737513 220.27292 28.284388 219.7573Q28.815638 219.24167 28.815638 218.46042Q28.815638 217.8823 28.518763 217.47604Q28.206263 217.05417 27.550013 216.8198ZM25.846888 220.27292L25.846888 216.80417Q25.050013 216.86667 24.659388 217.1948Q24.050013 217.71042 24.050013 218.5073Q24.050013 219.24167 24.534388 219.74167Q25.018763 220.22604 25.846888 220.27292ZM29.550013 214.77292L26.315638 212.5073L23.331263 214.60104L23.331263 213.28854L24.784388 212.33542Q25.206263 212.0698 25.487513 211.89792Q25.096888 211.64792 24.800013 211.42917L23.331263 210.3823L23.331263 209.11667L26.253138 211.27292L29.550013 208.96042L29.550013 210.24167L27.612513 211.52292L27.096888 211.86667L29.550013 213.5073L29.550013 214.77292ZM27.550013 204.8198L27.675013 203.72604Q28.628138 203.97604 29.159388 204.67917Q29.690638 205.3823 29.690638 206.46042Q29.690638 207.8198 28.846888 208.6323Q28.003138 209.42917 26.487513 209.42917Q24.925013 209.42917 24.065638 208.61667Q23.190638 207.80417 23.190638 206.52292Q23.190638 205.27292 24.034388 204.49167Q24.878138 203.6948 26.425013 203.6948Q26.518763 203.6948 26.706263 203.6948L26.706263 208.33542Q27.737513 208.27292 28.284388 207.7573Q28.815638 207.24167 28.815638 206.46042Q28.815638 205.8823 28.518763 205.47604Q28.206263 205.05417 27.550013 204.8198ZM25.846888 208.27292L25.846888 204.80417Q25.050013 204.86667 24.659388 205.1948Q24.050013 205.71042 24.050013 206.5073Q24.050013 207.24167 24.534388 207.74167Q25.018763 208.22604 25.846888 208.27292ZM27.268763 198.0073L27.409388 196.97604Q28.471888 197.14792 29.081263 197.85104Q29.690638 198.55417 29.690638 199.5698Q29.690638 200.85104 28.862513 201.6323Q28.018763 202.39792 26.456263 202.39792Q25.456263 202.39792 24.706263 202.0698Q23.940638 201.72604 23.565638 201.05417Q23.190638 200.36667 23.190638 199.55417Q23.190638 198.55417 23.706263 197.91354Q24.206263 197.2573 25.159388 197.0698L25.315638 198.10104Q24.690638 198.24167 24.378138 198.61667Q24.050013 198.99167 24.050013 199.52292Q24.050013 200.3198 24.628138 200.8198Q25.190638 201.3198 26.425013 201.3198Q27.690638 201.3198 28.253138 200.83542Q28.815638 200.35104 28.815638 199.58542Q28.815638 198.96042 28.440638 198.55417Q28.065638 198.1323 27.268763 198.0073ZM29.550013 191.99167L28.628138 191.99167Q29.690638 192.72604 29.690638 193.97604Q29.690638 194.52292 29.487513 195.0073Q29.268763 195.47604 28.956263 195.71042Q28.628138 195.9448 28.159388 196.03854Q27.862513 196.10104 27.175013 196.10104L23.331263 196.10104L23.331263 195.03854L26.784388 195.03854Q27.596888 195.03854 27.893763 194.97604Q28.300013 194.8823 28.550013 194.5698Q28.784388 194.24167 28.784388 193.7573Q28.784388 193.28854 28.550013 192.8823Q28.300013 192.46042 27.878138 192.28854Q27.456263 192.10104 26.659388 192.10104L23.331263 192.10104L23.331263 191.05417L29.550013 191.05417L29.550013 191.99167ZM28.612513 186.77292L29.534388 186.61667Q29.628138 187.0698 29.628138 187.41354Q29.628138 187.99167 29.456263 188.30417Q29.268763 188.61667 28.971888 188.7573Q28.675013 188.8823 27.721888 188.8823L24.143763 188.8823L24.143763 189.64792L23.331263 189.64792L23.331263 188.8823L21.784388 188.8823L21.159388 187.83542L23.331263 187.83542L23.331263 186.77292L24.143763 186.77292L24.143763 187.83542L27.784388 187.83542Q28.237513 187.83542 28.362513 187.78854Q28.487513 187.72604 28.565638 187.60104Q28.643763 187.47604 28.643763 187.24167Q28.643763 187.05417 28.612513 186.77292ZM22.175013 186.0698L20.956263 186.0698L20.956263 185.0073L22.175013 185.0073L22.175013 186.0698ZM29.550013 186.0698L23.331263 186.0698L23.331263 185.0073L29.550013 185.0073L29.550013 186.0698ZM26.440638 183.46042Q24.706263 183.46042 23.878138 182.5073Q23.190638 181.71042 23.190638 180.55417Q23.190638 179.27292 24.034388 178.46042Q24.862513 177.6323 26.346888 177.6323Q27.550013 177.6323 28.237513 177.99167Q28.925013 178.35104 29.315638 179.05417Q29.690638 179.74167 29.690638 180.55417Q29.690638 181.85104 28.862513 182.66354Q28.018763 183.46042 26.440638 183.46042ZM26.440638 182.3823Q27.628138 182.3823 28.221888 181.86667Q28.815638 181.33542 28.815638 180.55417Q28.815638 179.7573 28.221888 179.24167Q27.628138 178.72604 26.409388 178.72604Q25.253138 178.72604 24.659388 179.2573Q24.065638 179.77292 24.065638 180.55417Q24.065638 181.33542 24.659388 181.86667Q25.237513 182.3823 26.440638 182.3823ZM29.550013 176.0698L23.331263 176.0698L23.331263 175.1323L24.206263 175.1323Q23.190638 174.4448 23.190638 173.14792Q23.190638 172.58542 23.393763 172.11667Q23.596888 171.6323 23.925013 171.39792Q24.253138 171.16354 24.690638 171.0698Q24.987513 171.02292 25.721888 171.02292L29.550013 171.02292L29.550013 172.0698L25.768763 172.0698Q25.112513 172.0698 24.800013 172.1948Q24.487513 172.3198 24.300013 172.6323Q24.096888 172.9448 24.096888 173.36667Q24.096888 174.03854 24.534388 174.53854Q24.956263 175.02292 26.143763 175.02292L29.550013 175.02292L29.550013 176.0698ZM28.612513 163.77292L29.534388 163.61667Q29.628138 164.0698 29.628138 164.41354Q29.628138 164.99167 29.456263 165.30417Q29.268763 165.61667 28.971888 165.7573Q28.675013 165.8823 27.721888 165.8823L24.143763 165.8823L24.143763 166.64792L23.331263 166.64792L23.331263 165.8823L21.784388 165.8823L21.159388 164.83542L23.331263 164.83542L23.331263 163.77292L24.143763 163.77292L24.143763 164.83542L27.784388 164.83542Q28.237513 164.83542 28.362513 164.78854Q28.487513 164.72604 28.565638 164.60104Q28.643763 164.47604 28.643763 164.24167Q28.643763 164.05417 28.612513 163.77292ZM22.175013 163.0698L20.956263 163.0698L20.956263 162.0073L22.175013 162.0073L22.175013 163.0698ZM29.550013 163.0698L23.331263 163.0698L23.331263 162.0073L29.550013 162.0073L29.550013 163.0698ZM29.550013 160.0698L23.331263 160.0698L23.331263 159.1323L24.206263 159.1323Q23.737513 158.83542 23.471888 158.35104Q23.190638 157.86667 23.190638 157.24167Q23.190638 156.55417 23.471888 156.11667Q23.753138 155.66354 24.268763 155.49167Q23.190638 154.74167 23.190638 153.5698Q23.190638 152.6323 23.706263 152.14792Q24.206263 151.64792 25.284388 151.64792L29.550013 151.64792L29.550013 152.6948L25.628138 152.6948Q25.003138 152.6948 24.721888 152.80417Q24.440638 152.89792 24.268763 153.16354Q24.096888 153.42917 24.096888 153.80417Q24.096888 154.46042 24.534388 154.89792Q24.971888 155.3198 25.940638 155.3198L29.550013 155.3198L29.550013 156.3823L25.503138 156.3823Q24.800013 156.3823 24.456263 156.64792Q24.096888 156.89792 24.096888 157.47604Q24.096888 157.92917 24.331263 158.30417Q24.565638 158.67917 25.018763 158.85104Q25.471888 159.02292 26.315638 159.02292L29.550013 159.02292L29.550013 160.0698ZM27.550013 144.8198L27.675013 143.72604Q28.628138 143.97604 29.159388 144.67917Q29.690638 145.3823 29.690638 146.46042Q29.690638 147.8198 28.846888 148.6323Q28.003138 149.42917 26.487513 149.42917Q24.925013 149.42917 24.065638 148.61667Q23.190638 147.80417 23.190638 146.52292Q23.190638 145.27292 24.034388 144.49167Q24.878138 143.6948 26.425013 143.6948Q26.518763 143.6948 26.706263 143.6948L26.706263 148.33542Q27.737513 148.27292 28.284388 147.7573Q28.815638 147.24167 28.815638 146.46042Q28.815638 145.8823 28.518763 145.47604Q28.206263 145.05417 27.550013 144.8198ZM25.846888 148.27292L25.846888 144.80417Q25.050013 144.86667 24.659388 145.1948Q24.050013 145.71042 24.050013 146.5073Q24.050013 147.24167 24.534388 147.74167Q25.018763 148.22604 25.846888 148.27292ZM32.08126 137.05417Q30.971888 137.92917 29.503138 138.53854Q28.018763 139.1323 26.440638 139.1323Q25.050013 139.1323 23.768763 138.6948Q22.284388 138.16354 20.815638 137.05417L20.815638 136.30417Q22.034388 137.0073 22.550013 137.24167Q23.362513 137.60104 24.237513 137.80417Q25.331263 138.05417 26.440638 138.05417Q29.268763 138.05417 32.08126 136.30417L32.08126 137.05417ZM29.550013 135.0698L23.331263 135.0698L23.331263 134.1323L24.206263 134.1323Q23.190638 133.4448 23.190638 132.14792Q23.190638 131.58542 23.393763 131.11667Q23.596888 130.6323 23.925013 130.39792Q24.253138 130.16354 24.690638 130.0698Q24.987513 130.02292 25.721888 130.02292L29.550013 130.02292L29.550013 131.0698L25.768763 131.0698Q25.112513 131.0698 24.800013 131.1948Q24.487513 131.3198 24.300013 131.6323Q24.096888 131.9448 24.096888 132.36667Q24.096888 133.03854 24.534388 133.53854Q24.956263 134.02292 26.143763 134.02292L29.550013 134.02292L29.550013 135.0698ZM27.690638 128.49167L27.534388 127.46042Q28.159388 127.36667 28.487513 126.97604Q28.815638 126.56979 28.815638 125.83542Q28.815638 125.11667 28.534388 124.77292Q28.237513 124.41354 27.831263 124.41354Q27.471888 124.41354 27.268763 124.72604Q27.128138 124.94479 26.909388 125.80417Q26.612513 126.96042 26.409388 127.41354Q26.190638 127.85104 25.815638 128.08542Q25.440638 128.3198 24.971888 128.3198Q24.565638 128.3198 24.206263 128.1323Q23.846888 127.94479 23.612513 127.61667Q23.440638 127.36667 23.315638 126.94479Q23.190638 126.52292 23.190638 126.02292Q23.190638 125.30417 23.409388 124.75729Q23.612513 124.19479 23.971888 123.92917Q24.331263 123.66354 24.925013 123.56979L25.065638 124.60104Q24.596888 124.66354 24.331263 125.00729Q24.050013 125.33542 24.050013 125.96042Q24.050013 126.67917 24.300013 126.99167Q24.534388 127.30417 24.862513 127.30417Q25.065638 127.30417 25.221888 127.17917Q25.393763 127.03854 25.503138 126.77292Q25.565638 126.61667 25.768763 125.83542Q26.081263 124.71042 26.268763 124.27292Q26.456263 123.83542 26.815638 123.58542Q27.175013 123.33542 27.721888 123.33542Q28.253138 123.33542 28.721888 123.64792Q29.175013 123.94479 29.440638 124.52292Q29.690638 125.10104 29.690638 125.83542Q29.690638 127.05417 29.190638 127.69479Q28.675013 128.3198 27.690638 128.49167ZM32.08126 120.38229L32.08126 121.13229Q29.268763 119.38229 26.440638 119.38229Q25.346888 119.38229 24.253138 119.63229Q23.378138 119.83542 22.565638 120.19479Q22.050013 120.42917 20.815638 121.13229L20.815638 120.38229Q22.284388 119.28854 23.768763 118.75729Q25.050013 118.30417 26.440638 118.30417Q28.018763 118.30417 29.503138 118.91354Q30.971888 119.52292 32.08126 120.38229Z" fill-rule="nonzero"/><path fill="#000000" d="M84.925 301.8719L84.925 300.8094L88.175 300.8094L88.175 301.8719L84.925 301.8719Z" fill-rule="nonzero"/><path fill="#000000" d="M55.01875 233.06111L53.971874 233.06111L53.971874 226.34236Q53.58125 226.70174 52.95625 227.07674Q52.346874 227.43611 51.8625 227.60799L51.8625 226.59236Q52.7375 226.17049 53.39375 225.59236Q54.065624 224.99861 54.346874 224.43611L55.01875 224.43611L55.01875 233.06111ZM58.05 228.82674Q58.05 227.29549 58.3625 226.37361Q58.675 225.43611 59.284374 224.93611Q59.909374 224.43611 60.846874 224.43611Q61.534374 224.43611 62.05 224.71736Q62.58125 224.99861 62.925 225.52986Q63.26875 226.04549 63.45625 226.79549Q63.64375 227.54549 63.64375 228.82674Q63.64375 230.34236 63.33125 231.26424Q63.034374 232.18611 62.409374 232.70174Q61.8 233.20174 60.846874 233.20174Q59.6125 233.20174 58.89375 232.31111Q58.05 231.24861 58.05 228.82674ZM59.128124 228.82674Q59.128124 230.93611 59.628124 231.63924Q60.128124 232.34236 60.846874 232.34236Q61.58125 232.34236 62.065624 231.63924Q62.565624 230.93611 62.565624 228.82674Q62.565624 226.70174 62.065624 226.01424Q61.58125 225.31111 60.83125 225.31111Q60.1125 225.31111 59.675 225.92049Q59.128124 226.70174 59.128124 228.82674ZM65.05 228.82674Q65.05 227.29549 65.3625 226.37361Q65.675 225.43611 66.28438 224.93611Q66.90938 224.43611 67.84688 224.43611Q68.53438 224.43611 69.05 224.71736Q69.58125 224.99861 69.925 225.52986Q70.26875 226.04549 70.45625 226.79549Q70.64375 227.54549 70.64375 228.82674Q70.64375 230.34236 70.33125 231.26424Q70.03438 232.18611 69.40938 232.70174Q68.8 233.20174 67.84688 233.20174Q66.6125 233.20174 65.89375 232.31111Q65.05 231.24861 65.05 228.82674ZM66.12813 228.82674Q66.12813 230.93611 66.62813 231.63924Q67.12813 232.34236 67.84688 232.34236Q68.58125 232.34236 69.06563 231.63924Q69.56563 230.93611 69.56563 228.82674Q69.56563 226.70174 69.06563 226.01424Q68.58125 225.31111 67.83125 225.31111Q67.1125 225.31111 66.675 225.92049Q66.12813 226.70174 66.12813 228.82674ZM72.64375 233.06111L72.64375 231.85799L73.84688 231.85799L73.84688 233.06111L72.64375 233.06111ZM75.05 228.82674Q75.05 227.29549 75.3625 226.37361Q75.675 225.43611 76.28438 224.93611Q76.90938 224.43611 77.84688 224.43611Q78.53438 224.43611 79.05 224.71736Q79.58125 224.99861 79.925 225.52986Q80.26875 226.04549 80.45625 226.79549Q80.64375 227.54549 80.64375 228.82674Q80.64375 230.34236 80.33125 231.26424Q80.03438 232.18611 79.40938 232.70174Q78.8 233.20174 77.84688 233.20174Q76.6125 233.20174 75.89375 232.31111Q75.05 231.24861 75.05 228.82674ZM76.12813 228.82674Q76.12813 230.93611 76.62813 231.63924Q77.12813 232.34236 77.84688 232.34236Q78.58125 232.34236 79.06563 231.63924Q79.56563 230.93611 79.56563 228.82674Q79.56563 226.70174 79.06563 226.01424Q78.58125 225.31111 77.83125 225.31111Q77.1125 225.31111 76.675 225.92049Q76.12813 226.70174 76.12813 228.82674ZM82.05 228.82674Q82.05 227.29549 82.3625 226.37361Q82.675 225.43611 83.28438 224.93611Q83.90938 224.43611 84.84688 224.43611Q85.53438 224.43611 86.05 224.71736Q86.58125 224.99861 86.925 225.52986Q87.26875 226.04549 87.45625 226.79549Q87.64375 227.54549 87.64375 228.82674Q87.64375 230.34236 87.33125 231.26424Q87.03438 232.18611 86.40938 232.70174Q85.8 233.20174 84.84688 233.20174Q83.6125 233.20174 82.89375 232.31111Q82.05 231.24861 82.05 228.82674ZM83.12813 228.82674Q83.12813 230.93611 83.62813 231.63924Q84.12813 232.34236 84.84688 232.34236Q85.58125 232.34236 86.06563 231.63924Q86.56563 230.93611 86.56563 228.82674Q86.56563 226.70174 86.06563 226.01424Q85.58125 225.31111 84.83125 225.31111Q84.1125 225.31111 83.675 225.92049Q83.12813 226.70174 83.12813 228.82674Z" fill-rule="nonzero"/><path fill="#000000" d="M56.596874 160.6566L56.596874 161.67223L50.909374 161.67223Q50.909374 161.29723 51.034374 160.93785Q51.253124 160.35973 51.721874 159.79723Q52.20625 159.23473 53.1125 158.50035Q54.51875 157.3441 55.003124 156.67223Q55.503124 156.00035 55.503124 155.4066Q55.503124 154.7816 55.05 154.35973Q54.596874 153.92223 53.878124 153.92223Q53.1125 153.92223 52.659374 154.37535Q52.20625 154.82848 52.190624 155.64098L51.1125 155.5316Q51.221874 154.31285 51.940624 153.68785Q52.675 153.04723 53.909374 153.04723Q55.14375 153.04723 55.8625 153.73473Q56.58125 154.42223 56.58125 155.43785Q56.58125 155.95348 56.3625 156.45348Q56.159374 156.93785 55.659374 157.50035Q55.175 158.04723 54.05 159.00035Q53.096874 159.79723 52.815624 160.0941Q52.55 160.37535 52.378124 160.6566L56.596874 160.6566ZM58.05 157.43785Q58.05 155.9066 58.3625 154.98473Q58.675 154.04723 59.284374 153.54723Q59.909374 153.04723 60.846874 153.04723Q61.534374 153.04723 62.05 153.32848Q62.58125 153.60973 62.925 154.14098Q63.26875 154.6566 63.45625 155.4066Q63.64375 156.1566 63.64375 157.43785Q63.64375 158.95348 63.33125 159.87535Q63.034374 160.79723 62.409374 161.31285Q61.8 161.81285 60.846874 161.81285Q59.6125 161.81285 58.89375 160.92223Q58.05 159.85973 58.05 157.43785ZM59.128124 157.43785Q59.128124 159.54723 59.628124 160.25035Q60.128124 160.95348 60.846874 160.95348Q61.58125 160.95348 62.065624 160.25035Q62.565624 159.54723 62.565624 157.43785Q62.565624 155.31285 62.065624 154.62535Q61.58125 153.92223 60.83125 153.92223Q60.1125 153.92223 59.675 154.5316Q59.128124 155.31285 59.128124 157.43785ZM65.05 157.43785Q65.05 155.9066 65.3625 154.98473Q65.675 154.04723 66.28438 153.54723Q66.90938 153.04723 67.84688 153.04723Q68.53438 153.04723 69.05 153.32848Q69.58125 153.60973 69.925 154.14098Q70.26875 154.6566 70.45625 155.4066Q70.64375 156.1566 70.64375 157.43785Q70.64375 158.95348 70.33125 159.87535Q70.03438 160.79723 69.40938 161.31285Q68.8 161.81285 67.84688 161.81285Q66.6125 161.81285 65.89375 160.92223Q65.05 159.85973 65.05 157.43785ZM66.12813 157.43785Q66.12813 159.54723 66.62813 160.25035Q67.12813 160.95348 67.84688 160.95348Q68.58125 160.95348 69.06563 160.25035Q69.56563 159.54723 69.56563 157.43785Q69.56563 155.31285 69.06563 154.62535Q68.58125 153.92223 67.83125 153.92223Q67.1125 153.92223 66.675 154.5316Q66.12813 155.31285 66.12813 157.43785ZM72.64375 161.67223L72.64375 160.4691L73.84688 160.4691L73.84688 161.67223L72.64375 161.67223ZM75.05 157.43785Q75.05 155.9066 75.3625 154.98473Q75.675 154.04723 76.28438 153.54723Q76.90938 153.04723 77.84688 153.04723Q78.53438 153.04723 79.05 153.32848Q79.58125 153.60973 79.925 154.14098Q80.26875 154.6566 80.45625 155.4066Q80.64375 156.1566 80.64375 157.43785Q80.64375 158.95348 80.33125 159.87535Q80.03438 160.79723 79.40938 161.31285Q78.8 161.81285 77.84688 161.81285Q76.6125 161.81285 75.89375 160.92223Q75.05 159.85973 75.05 157.43785ZM76.12813 157.43785Q76.12813 159.54723 76.62813 160.25035Q77.12813 160.95348 77.84688 160.95348Q78.58125 160.95348 79.06563 160.25035Q79.56563 159.54723 79.56563 157.43785Q79.56563 155.31285 79.06563 154.62535Q78.58125 153.92223 77.83125 153.92223Q77.1125 153.92223 76.675 154.5316Q76.12813 155.31285 76.12813 157.43785ZM82.05 157.43785Q82.05 155.9066 82.3625 154.98473Q82.675 154.04723 83.28438 153.54723Q83.90938 153.04723 84.84688 153.04723Q85.53438 153.04723 86.05 153.32848Q86.58125 153.60973 86.925 154.14098Q87.26875 154.6566 87.45625 155.4066Q87.64375 156.1566 87.64375 157.43785Q87.64375 158.95348 87.33125 159.87535Q87.03438 160.79723 86.40938 161.31285Q85.8 161.81285 84.84688 161.81285Q83.6125 161.81285 82.89375 160.92223Q82.05 159.85973 82.05 157.43785ZM83.12813 157.43785Q83.12813 159.54723 83.62813 160.25035Q84.12813 160.95348 84.84688 160.95348Q85.58125 160.95348 86.06563 160.25035Q86.56563 159.54723 86.56563 157.43785Q86.56563 155.31285 86.06563 154.62535Q85.58125 153.92223 84.83125 153.92223Q84.1125 153.92223 83.675 154.5316Q83.12813 155.31285 83.12813 157.43785Z" fill-rule="nonzero"/><path fill="#000000" d="M51.05 88.01771L52.1125 87.87708Q52.284374 88.76771 52.721874 89.17396Q53.159374 89.56458 53.784374 89.56458Q54.534374 89.56458 55.05 89.04896Q55.565624 88.53333 55.565624 87.76771Q55.565624 87.04896 55.08125 86.58021Q54.6125 86.09583 53.878124 86.09583Q53.58125 86.09583 53.128124 86.22083L53.253124 85.28333Q53.3625 85.29896 53.425 85.29896Q54.096874 85.29896 54.628124 84.95521Q55.175 84.59583 55.175 83.86146Q55.175 83.28333 54.784374 82.90833Q54.39375 82.51771 53.76875 82.51771Q53.159374 82.51771 52.7375 82.90833Q52.33125 83.29896 52.221874 84.06458L51.159374 83.87708Q51.346874 82.83021 52.034374 82.25208Q52.721874 81.65833 53.7375 81.65833Q54.440624 81.65833 55.034374 81.97083Q55.628124 82.26771 55.940624 82.78333Q56.253124 83.29896 56.253124 83.89271Q56.253124 84.43958 55.95625 84.90833Q55.659374 85.36146 55.08125 85.62708Q55.83125 85.79896 56.253124 86.36146Q56.675 86.90833 56.675 87.75208Q56.675 88.87708 55.846874 89.65833Q55.034374 90.43958 53.784374 90.43958Q52.659374 90.43958 51.909374 89.76771Q51.159374 89.08021 51.05 88.01771ZM58.05 86.04896Q58.05 84.51771 58.3625 83.59583Q58.675 82.65833 59.284374 82.15833Q59.909374 81.65833 60.846874 81.65833Q61.534374 81.65833 62.05 81.93958Q62.58125 82.22083 62.925 82.75208Q63.26875 83.26771 63.45625 84.01771Q63.64375 84.76771 63.64375 86.04896Q63.64375 87.56458 63.33125 88.48646Q63.034374 89.40833 62.409374 89.92396Q61.8 90.42396 60.846874 90.42396Q59.6125 90.42396 58.89375 89.53333Q58.05 88.47083 58.05 86.04896ZM59.128124 86.04896Q59.128124 88.15833 59.628124 88.86146Q60.128124 89.56458 60.846874 89.56458Q61.58125 89.56458 62.065624 88.86146Q62.565624 88.15833 62.565624 86.04896Q62.565624 83.92396 62.065624 83.23646Q61.58125 82.53333 60.83125 82.53333Q60.1125 82.53333 59.675 83.14271Q59.128124 83.92396 59.128124 86.04896ZM65.05 86.04896Q65.05 84.51771 65.3625 83.59583Q65.675 82.65833 66.28438 82.15833Q66.90938 81.65833 67.84688 81.65833Q68.53438 81.65833 69.05 81.93958Q69.58125 82.22083 69.925 82.75208Q70.26875 83.26771 70.45625 84.01771Q70.64375 84.76771 70.64375 86.04896Q70.64375 87.56458 70.33125 88.48646Q70.03438 89.40833 69.40938 89.92396Q68.8 90.42396 67.84688 90.42396Q66.6125 90.42396 65.89375 89.53333Q65.05 88.47083 65.05 86.04896ZM66.12813 86.04896Q66.12813 88.15833 66.62813 88.86146Q67.12813 89.56458 67.84688 89.56458Q68.58125 89.56458 69.06563 88.86146Q69.56563 88.15833 69.56563 86.04896Q69.56563 83.92396 69.06563 83.23646Q68.58125 82.53333 67.83125 82.53333Q67.1125 82.53333 66.675 83.14271Q66.12813 83.92396 66.12813 86.04896ZM72.64375 90.28333L72.64375 89.08021L73.84688 89.08021L73.84688 90.28333L72.64375 90.28333ZM75.05 86.04896Q75.05 84.51771 75.3625 83.59583Q75.675 82.65833 76.28438 82.15833Q76.90938 81.65833 77.84688 81.65833Q78.53438 81.65833 79.05 81.93958Q79.58125 82.22083 79.925 82.75208Q80.26875 83.26771 80.45625 84.01771Q80.64375 84.76771 80.64375 86.04896Q80.64375 87.56458 80.33125 88.48646Q80.03438 89.40833 79.40938 89.92396Q78.8 90.42396 77.84688 90.42396Q76.6125 90.42396 75.89375 89.53333Q75.05 88.47083 75.05 86.04896ZM76.12813 86.04896Q76.12813 88.15833 76.62813 88.86146Q77.12813 89.56458 77.84688 89.56458Q78.58125 89.56458 79.06563 88.86146Q79.56563 88.15833 79.56563 86.04896Q79.56563 83.92396 79.06563 83.23646Q78.58125 82.53333 77.83125 82.53333Q77.1125 82.53333 76.675 83.14271Q76.12813 83.92396 76.12813 86.04896ZM82.05 86.04896Q82.05 84.51771 82.3625 83.59583Q82.675 82.65833 83.28438 82.15833Q83.90938 81.65833 84.84688 81.65833Q85.53438 81.65833 86.05 81.93958Q86.58125 82.22083 86.925 82.75208Q87.26875 83.26771 87.45625 84.01771Q87.64375 84.76771 87.64375 86.04896Q87.64375 87.56458 87.33125 88.48646Q87.03438 89.40833 86.40938 89.92396Q85.8 90.42396 84.84688 90.42396Q83.6125 90.42396 82.89375 89.53333Q82.05 88.47083 82.05 86.04896ZM83.12813 86.04896Q83.12813 88.15833 83.62813 88.86146Q84.12813 89.56458 84.84688 89.56458Q85.58125 89.56458 86.06563 88.86146Q86.56563 88.15833 86.56563 86.04896Q86.56563 83.92396 86.06563 83.23646Q85.58125 82.53333 84.83125 82.53333Q84.1125 82.53333 83.675 83.14271Q83.12813 83.92396 83.12813 86.04896Z" fill-rule="nonzero"/><path fill="#000000" d="M95.51875 317.45L94.47188 317.45L94.47188 310.73126Q94.08125 311.09064 93.45625 311.46564Q92.84688 311.825 92.3625 311.9969L92.3625 310.98126Q93.2375 310.5594 93.89375 309.98126Q94.56563 309.3875 94.84688 308.825L95.51875 308.825L95.51875 317.45Z" fill-rule="nonzero"/><path fill="#000000" d="M216.43773 317.45L215.39085 317.45L215.39085 310.73126Q215.00023 311.09064 214.37523 311.46564Q213.76585 311.825 213.28148 311.9969L213.28148 310.98126Q214.15648 310.5594 214.81273 309.98126Q215.4846 309.3875 215.76585 308.825L216.43773 308.825L216.43773 317.45ZM219.46898 313.21564Q219.46898 311.6844 219.78148 310.7625Q220.09398 309.825 220.70335 309.325Q221.32835 308.825 222.26585 308.825Q222.95335 308.825 223.46898 309.10626Q224.00023 309.3875 224.34398 309.91876Q224.68773 310.4344 224.87523 311.1844Q225.06273 311.9344 225.06273 313.21564Q225.06273 314.73126 224.75023 315.65314Q224.45335 316.575 223.82835 317.09064Q223.21898 317.59064 222.26585 317.59064Q221.03148 317.59064 220.31273 316.7Q219.46898 315.6375 219.46898 313.21564ZM220.5471 313.21564Q220.5471 315.325 221.0471 316.02814Q221.5471 316.73126 222.26585 316.73126Q223.00023 316.73126 223.4846 316.02814Q223.9846 315.325 223.9846 313.21564Q223.9846 311.09064 223.4846 310.40314Q223.00023 309.7 222.25023 309.7Q221.53148 309.7 221.09398 310.3094Q220.5471 311.09064 220.5471 313.21564Z" fill-rule="nonzero"/><path fill="#000000" d="M337.35672 317.45L336.30984 317.45L336.30984 310.73126Q335.91922 311.09064 335.29422 311.46564Q334.68484 311.825 334.20047 311.9969L334.20047 310.98126Q335.07547 310.5594 335.73172 309.98126Q336.4036 309.3875 336.68484 308.825L337.35672 308.825L337.35672 317.45ZM340.38797 313.21564Q340.38797 311.6844 340.70047 310.7625Q341.01297 309.825 341.62234 309.325Q342.24734 308.825 343.18484 308.825Q343.87234 308.825 344.38797 309.10626Q344.91922 309.3875 345.26297 309.91876Q345.60672 310.4344 345.79422 311.1844Q345.98172 311.9344 345.98172 313.21564Q345.98172 314.73126 345.66922 315.65314Q345.37234 316.575 344.74734 317.09064Q344.13797 317.59064 343.18484 317.59064Q341.95047 317.59064 341.23172 316.7Q340.38797 315.6375 340.38797 313.21564ZM341.4661 313.21564Q341.4661 315.325 341.9661 316.02814Q342.4661 316.73126 343.18484 316.73126Q343.91922 316.73126 344.4036 316.02814Q344.9036 315.325 344.9036 313.21564Q344.9036 311.09064 344.4036 310.40314Q343.91922 309.7 343.16922 309.7Q342.45047 309.7 342.01297 310.3094Q341.4661 311.09064 341.4661 313.21564ZM347.38797 313.21564Q347.38797 311.6844 347.70047 310.7625Q348.01297 309.825 348.62234 309.325Q349.24734 308.825 350.18484 308.825Q350.87234 308.825 351.38797 309.10626Q351.91922 309.3875 352.26297 309.91876Q352.60672 310.4344 352.79422 311.1844Q352.98172 311.9344 352.98172 313.21564Q352.98172 314.73126 352.66922 315.65314Q352.37234 316.575 351.74734 317.09064Q351.13797 317.59064 350.18484 317.59064Q348.95047 317.59064 348.23172 316.7Q347.38797 315.6375 347.38797 313.21564ZM348.4661 313.21564Q348.4661 315.325 348.9661 316.02814Q349.4661 316.73126 350.18484 316.73126Q350.91922 316.73126 351.4036 316.02814Q351.9036 315.325 351.9036 313.21564Q351.9036 311.09064 351.4036 310.40314Q350.91922 309.7 350.16922 309.7Q349.45047 309.7 349.01297 310.3094Q348.4661 311.09064 348.4661 313.21564Z" fill-rule="nonzero"/><path fill="#000000" d="M458.2757 317.45L457.22882 317.45L457.22882 310.73126Q456.8382 311.09064 456.2132 311.46564Q455.60382 311.825 455.11945 311.9969L455.11945 310.98126Q455.99445 310.5594 456.6507 309.98126Q457.32257 309.3875 457.60382 308.825L458.2757 308.825L458.2757 317.45ZM461.30695 313.21564Q461.30695 311.6844 461.61945 310.7625Q461.93195 309.825 462.54132 309.325Q463.16632 308.825 464.10382 308.825Q464.79132 308.825 465.30695 309.10626Q465.8382 309.3875 466.18195 309.91876Q466.5257 310.4344 466.7132 311.1844Q466.9007 311.9344 466.9007 313.21564Q466.9007 314.73126 466.5882 315.65314Q466.29132 316.575 465.66632 317.09064Q465.05695 317.59064 464.10382 317.59064Q462.86945 317.59064 462.1507 316.7Q461.30695 315.6375 461.30695 313.21564ZM462.38507 313.21564Q462.38507 315.325 462.88507 316.02814Q463.38507 316.73126 464.10382 316.73126Q464.8382 316.73126 465.32257 316.02814Q465.82257 315.325 465.82257 313.21564Q465.82257 311.09064 465.32257 310.40314Q464.8382 309.7 464.0882 309.7Q463.36945 309.7 462.93195 310.3094Q462.38507 311.09064 462.38507 313.21564ZM468.30695 313.21564Q468.30695 311.6844 468.61945 310.7625Q468.93195 309.825 469.54132 309.325Q470.16632 308.825 471.10382 308.825Q471.79132 308.825 472.30695 309.10626Q472.8382 309.3875 473.18195 309.91876Q473.5257 310.4344 473.7132 311.1844Q473.9007 311.9344 473.9007 313.21564Q473.9007 314.73126 473.5882 315.65314Q473.29132 316.575 472.66632 317.09064Q472.05695 317.59064 471.10382 317.59064Q469.86945 317.59064 469.1507 316.7Q468.30695 315.6375 468.30695 313.21564ZM469.38507 313.21564Q469.38507 315.325 469.88507 316.02814Q470.38507 316.73126 471.10382 316.73126Q471.8382 316.73126 472.32257 316.02814Q472.82257 315.325 472.82257 313.21564Q472.82257 311.09064 472.32257 310.40314Q471.8382 309.7 471.0882 309.7Q470.36945 309.7 469.93195 310.3094Q469.38507 311.09064 469.38507 313.21564ZM475.30695 313.21564Q475.30695 311.6844 475.61945 310.7625Q475.93195 309.825 476.54132 309.325Q477.16632 308.825 478.10382 308.825Q478.79132 308.825 479.30695 309.10626Q479.8382 309.3875 480.18195 309.91876Q480.5257 310.4344 480.7132 311.1844Q480.9007 311.9344 480.9007 313.21564Q480.9007 314.73126 480.5882 315.65314Q480.29132 316.575 479.66632 317.09064Q479.05695 317.59064 478.10382 317.59064Q476.86945 317.59064 476.1507 316.7Q475.30695 315.6375 475.30695 313.21564ZM476.38507 313.21564Q476.38507 315.325 476.88507 316.02814Q477.38507 316.73126 478.10382 316.73126Q478.8382 316.73126 479.32257 316.02814Q479.82257 315.325 479.82257 313.21564Q479.82257 311.09064 479.32257 310.40314Q478.8382 309.7 478.0882 309.7Q477.36945 309.7 476.93195 310.3094Q476.38507 311.09064 476.38507 313.21564Z" fill-rule="nonzero"/><path stroke="#4285f4" stroke-width="4.0" stroke-linecap="butt" d="M155.62305 57.916668L167.62305 57.916668" fill-rule="nonzero"/><path fill="#1a1a1a" d="M176.49805 61.916668L176.49805 53.322918L177.63867 53.322918L177.63867 60.901043L181.87305 60.901043L181.87305 61.916668L176.49805 61.916668ZM183.51367 61.916668L183.51367 53.322918L185.23242 53.322918L187.26367 59.401043Q187.54492 60.260418 187.66992 60.682293Q187.81055 60.213543 188.12305 59.307293L190.18555 53.322918L191.7168 53.322918L191.7168 61.916668L190.62305 61.916668L190.62305 54.729168L188.12305 61.916668L187.0918 61.916668L184.60742 54.604168L184.60742 61.916668L183.51367 61.916668ZM198.18555 53.322918L199.32617 53.322918L199.32617 58.291668Q199.32617 59.588543 199.0293 60.354168Q198.73242 61.104168 197.9668 61.588543Q197.20117 62.057293 195.9668 62.057293Q194.76367 62.057293 193.98242 61.651043Q193.2168 61.229168 192.88867 60.447918Q192.56055 59.651043 192.56055 58.291668L192.56055 53.322918L193.70117 53.322918L193.70117 58.276043Q193.70117 59.401043 193.9043 59.932293Q194.12305 60.463543 194.62305 60.760418Q195.13867 61.041668 195.87305 61.041668Q197.12305 61.041668 197.6543 60.479168Q198.18555 59.901043 198.18555 58.276043L198.18555 53.322918ZM201.49805 61.916668L201.49805 53.322918L202.63867 53.322918L202.63867 60.901043L206.87305 60.901043L206.87305 61.916668L201.49805 61.916668ZM213.9668 56.869793L208.29492 56.869793L208.29492 55.885418L213.9668 55.885418L213.9668 56.869793ZM213.9668 59.479168L208.29492 59.479168L208.29492 58.494793L213.9668 58.494793L213.9668 59.479168ZM215.41992 61.916668L215.41992 55.697918L216.35742 55.697918L216.35742 56.572918Q216.6543 56.104168 217.13867 55.838543Q217.62305 55.557293 218.24805 55.557293Q218.93555 55.557293 219.37305 55.838543Q219.82617 56.119793 219.99805 56.635418Q220.74805 55.557293 221.91992 55.557293Q222.85742 55.557293 223.3418 56.072918Q223.8418 56.572918 223.8418 57.651043L223.8418 61.916668L222.79492 61.916668L222.79492 57.994793Q222.79492 57.369793 222.68555 57.088543Q222.5918 56.807293 222.32617 56.635418Q222.06055 56.463543 221.68555 56.463543Q221.0293 56.463543 220.5918 56.901043Q220.16992 57.338543 220.16992 58.307293L220.16992 61.916668L219.10742 61.916668L219.10742 57.869793Q219.10742 57.166668 218.8418 56.822918Q218.5918 56.463543 218.01367 56.463543Q217.56055 56.463543 217.18555 56.697918Q216.81055 56.932293 216.63867 57.385418Q216.4668 57.838543 216.4668 58.682293L216.4668 61.916668L215.41992 61.916668ZM230.0918 61.916668L229.04492 61.916668L229.04492 55.197918Q228.6543 55.557293 228.0293 55.932293Q227.41992 56.291668 226.93555 56.463543L226.93555 55.447918Q227.81055 55.026043 228.4668 54.447918Q229.13867 53.854168 229.41992 53.291668L230.0918 53.291668L230.0918 61.916668Z" fill-rule="nonzero"/><path stroke="#ea4335" stroke-width="4.0" stroke-linecap="butt" d="M248.62305 57.916668L260.62305 57.916668" fill-rule="nonzero"/><path fill="#1a1a1a" d="M269.49805 61.916668L269.49805 53.322918L270.63867 53.322918L270.63867 60.901043L274.87305 60.901043L274.87305 61.916668L269.49805 61.916668ZM276.51367 61.916668L276.51367 53.322918L278.23242 53.322918L280.26367 59.401043Q280.54492 60.260418 280.66992 60.682293Q280.81055 60.213543 281.12305 59.307293L283.18555 53.322918L284.7168 53.322918L284.7168 61.916668L283.62305 61.916668L283.62305 54.729168L281.12305 61.916668L280.0918 61.916668L277.60742 54.604168L277.60742 61.916668L276.51367 61.916668ZM291.18555 53.322918L292.32617 53.322918L292.32617 58.291668Q292.32617 59.588543 292.0293 60.354168Q291.73242 61.104168 290.9668 61.588543Q290.20117 62.057293 288.9668 62.057293Q287.76367 62.057293 286.98242 61.651043Q286.2168 61.229168 285.88867 60.447918Q285.56055 59.651043 285.56055 58.291668L285.56055 53.322918L286.70117 53.322918L286.70117 58.276043Q286.70117 59.401043 286.9043 59.932293Q287.12305 60.463543 287.62305 60.760418Q288.13867 61.041668 288.87305 61.041668Q290.12305 61.041668 290.6543 60.479168Q291.18555 59.901043 291.18555 58.276043L291.18555 53.322918ZM294.49805 61.916668L294.49805 53.322918L295.63867 53.322918L295.63867 60.901043L299.87305 60.901043L299.87305 61.916668L294.49805 61.916668ZM306.9668 56.869793L301.29492 56.869793L301.29492 55.885418L306.9668 55.885418L306.9668 56.869793ZM306.9668 59.479168L301.29492 59.479168L301.29492 58.494793L306.9668 58.494793L306.9668 59.479168ZM308.41992 61.916668L308.41992 55.697918L309.35742 55.697918L309.35742 56.572918Q309.6543 56.104168 310.13867 55.838543Q310.62305 55.557293 311.24805 55.557293Q311.93555 55.557293 312.37305 55.838543Q312.82617 56.119793 312.99805 56.635418Q313.74805 55.557293 314.91992 55.557293Q315.85742 55.557293 316.3418 56.072918Q316.8418 56.572918 316.8418 57.651043L316.8418 61.916668L315.79492 61.916668L315.79492 57.994793Q315.79492 57.369793 315.68555 57.088543Q315.5918 56.807293 315.32617 56.635418Q315.06055 56.463543 314.68555 56.463543Q314.0293 56.463543 313.5918 56.901043Q313.16992 57.338543 313.16992 58.307293L313.16992 61.916668L312.10742 61.916668L312.10742 57.869793Q312.10742 57.166668 311.8418 56.822918Q311.5918 56.463543 311.01367 56.463543Q310.56055 56.463543 310.18555 56.697918Q309.81055 56.932293 309.63867 57.385418Q309.4668 57.838543 309.4668 58.682293L309.4668 61.916668L308.41992 61.916668ZM324.66992 60.901043L324.66992 61.916668L318.98242 61.916668Q318.98242 61.541668 319.10742 61.182293Q319.32617 60.604168 319.79492 60.041668Q320.2793 59.479168 321.18555 58.744793Q322.5918 57.588543 323.07617 56.916668Q323.57617 56.244793 323.57617 55.651043Q323.57617 55.026043 323.12305 54.604168Q322.66992 54.166668 321.95117 54.166668Q321.18555 54.166668 320.73242 54.619793Q320.2793 55.072918 320.26367 55.885418L319.18555 55.776043Q319.29492 54.557293 320.01367 53.932293Q320.74805 53.291668 321.98242 53.291668Q323.2168 53.291668 323.93555 53.979168Q324.6543 54.666668 324.6543 55.682293Q324.6543 56.197918 324.43555 56.697918Q324.23242 57.182293 323.73242 57.744793Q323.24805 58.291668 322.12305 59.244793Q321.16992 60.041668 320.88867 60.338543Q320.62305 60.619793 320.45117 60.901043L324.66992 60.901043Z" fill-rule="nonzero"/><path stroke="#fbbc04" stroke-width="4.0" stroke-linecap="butt" d="M341.62305 57.916668L353.62305 57.916668" fill-rule="nonzero"/><path fill="#1a1a1a" d="M362.49805 61.916668L362.49805 53.322918L363.63867 53.322918L363.63867 60.901043L367.87305 60.901043L367.87305 61.916668L362.49805 61.916668ZM369.51367 61.916668L369.51367 53.322918L371.23242 53.322918L373.26367 59.401043Q373.54492 60.260418 373.66992 60.682293Q373.81055 60.213543 374.12305 59.307293L376.18555 53.322918L377.7168 53.322918L377.7168 61.916668L376.62305 61.916668L376.62305 54.729168L374.12305 61.916668L373.0918 61.916668L370.60742 54.604168L370.60742 61.916668L369.51367 61.916668ZM384.18555 53.322918L385.32617 53.322918L385.32617 58.291668Q385.32617 59.588543 385.0293 60.354168Q384.73242 61.104168 383.9668 61.588543Q383.20117 62.057293 381.9668 62.057293Q380.76367 62.057293 379.98242 61.651043Q379.2168 61.229168 378.88867 60.447918Q378.56055 59.651043 378.56055 58.291668L378.56055 53.322918L379.70117 53.322918L379.70117 58.276043Q379.70117 59.401043 379.9043 59.932293Q380.12305 60.463543 380.62305 60.760418Q381.13867 61.041668 381.87305 61.041668Q383.12305 61.041668 383.6543 60.479168Q384.18555 59.901043 384.18555 58.276043L384.18555 53.322918ZM387.49805 61.916668L387.49805 53.322918L388.63867 53.322918L388.63867 60.901043L392.87305 60.901043L392.87305 61.916668L387.49805 61.916668ZM399.9668 56.869793L394.29492 56.869793L394.29492 55.885418L399.9668 55.885418L399.9668 56.869793ZM399.9668 59.479168L394.29492 59.479168L394.29492 58.494793L399.9668 58.494793L399.9668 59.479168ZM401.41992 61.916668L401.41992 55.697918L402.35742 55.697918L402.35742 56.572918Q402.6543 56.104168 403.13867 55.838543Q403.62305 55.557293 404.24805 55.557293Q404.93555 55.557293 405.37305 55.838543Q405.82617 56.119793 405.99805 56.635418Q406.74805 55.557293 407.91992 55.557293Q408.85742 55.557293 409.3418 56.072918Q409.8418 56.572918 409.8418 57.651043L409.8418 61.916668L408.79492 61.916668L408.79492 57.994793Q408.79492 57.369793 408.68555 57.088543Q408.5918 56.807293 408.32617 56.635418Q408.06055 56.463543 407.68555 56.463543Q407.0293 56.463543 406.5918 56.901043Q406.16992 57.338543 406.16992 58.307293L406.16992 61.916668L405.10742 61.916668L405.10742 57.869793Q405.10742 57.166668 404.8418 56.822918Q404.5918 56.463543 404.01367 56.463543Q403.56055 56.463543 403.18555 56.697918Q402.81055 56.932293 402.63867 57.385418Q402.4668 57.838543 402.4668 58.682293L402.4668 61.916668L401.41992 61.916668ZM415.49805 61.916668L415.49805 59.854168L411.7793 59.854168L411.7793 58.885418L415.70117 53.322918L416.56055 53.322918L416.56055 58.885418L417.7168 58.885418L417.7168 59.854168L416.56055 59.854168L416.56055 61.916668L415.49805 61.916668ZM415.49805 58.885418L415.49805 55.026043L412.81055 58.885418L415.49805 58.885418Z" fill-rule="nonzero"/><path stroke="#34a853" stroke-width="4.0" stroke-linecap="butt" d="M434.62305 57.916668L446.62305 57.916668" fill-rule="nonzero"/><path fill="#1a1a1a" d="M455.49805 61.916668L455.49805 53.322918L456.63867 53.322918L456.63867 60.901043L460.87305 60.901043L460.87305 61.916668L455.49805 61.916668ZM462.51367 61.916668L462.51367 53.322918L464.23242 53.322918L466.26367 59.401043Q466.54492 60.260418 466.66992 60.682293Q466.81055 60.213543 467.12305 59.307293L469.18555 53.322918L470.7168 53.322918L470.7168 61.916668L469.62305 61.916668L469.62305 54.729168L467.12305 61.916668L466.0918 61.916668L463.60742 54.604168L463.60742 61.916668L462.51367 61.916668ZM477.18555 53.322918L478.32617 53.322918L478.32617 58.291668Q478.32617 59.588543 478.0293 60.354168Q477.73242 61.104168 476.9668 61.588543Q476.20117 62.057293 474.9668 62.057293Q473.76367 62.057293 472.98242 61.651043Q472.2168 61.229168 471.88867 60.447918Q471.56055 59.651043 471.56055 58.291668L471.56055 53.322918L472.70117 53.322918L472.70117 58.276043Q472.70117 59.401043 472.9043 59.932293Q473.12305 60.463543 473.62305 60.760418Q474.13867 61.041668 474.87305 61.041668Q476.12305 61.041668 476.6543 60.479168Q477.18555 59.901043 477.18555 58.276043L477.18555 53.322918ZM480.49805 61.916668L480.49805 53.322918L481.63867 53.322918L481.63867 60.901043L485.87305 60.901043L485.87305 61.916668L480.49805 61.916668ZM492.9668 56.869793L487.29492 56.869793L487.29492 55.885418L492.9668 55.885418L492.9668 56.869793ZM492.9668 59.479168L487.29492 59.479168L487.29492 58.494793L492.9668 58.494793L492.9668 59.479168ZM494.41992 61.916668L494.41992 55.697918L495.35742 55.697918L495.35742 56.572918Q495.6543 56.104168 496.13867 55.838543Q496.62305 55.557293 497.24805 55.557293Q497.93555 55.557293 498.37305 55.838543Q498.82617 56.119793 498.99805 56.635418Q499.74805 55.557293 500.91992 55.557293Q501.85742 55.557293 502.3418 56.072918Q502.8418 56.572918 502.8418 57.651043L502.8418 61.916668L501.79492 61.916668L501.79492 57.994793Q501.79492 57.369793 501.68555 57.088543Q501.5918 56.807293 501.32617 56.635418Q501.06055 56.463543 500.68555 56.463543Q500.0293 56.463543 499.5918 56.901043Q499.16992 57.338543 499.16992 58.307293L499.16992 61.916668L498.10742 61.916668L498.10742 57.869793Q498.10742 57.166668 497.8418 56.822918Q497.5918 56.463543 497.01367 56.463543Q496.56055 56.463543 496.18555 56.697918Q495.81055 56.932293 495.63867 57.385418Q495.4668 57.838543 495.4668 58.682293L495.4668 61.916668L494.41992 61.916668ZM506.74805 57.260418Q506.0918 57.010418 505.76367 56.572918Q505.45117 56.119793 505.45117 55.510418Q505.45117 54.572918 506.12305 53.932293Q506.81055 53.291668 507.91992 53.291668Q509.04492 53.291668 509.73242 53.947918Q510.41992 54.604168 510.41992 55.541668Q510.41992 56.135418 510.10742 56.572918Q509.79492 57.010418 509.1543 57.260418Q509.95117 57.510418 510.35742 58.088543Q510.76367 58.666668 510.76367 59.463543Q510.76367 60.557293 509.98242 61.307293Q509.2168 62.057293 507.93555 62.057293Q506.66992 62.057293 505.88867 61.307293Q505.10742 60.557293 505.10742 59.432293Q505.10742 58.588543 505.5293 58.026043Q505.9668 57.463543 506.74805 57.260418ZM506.5293 55.463543Q506.5293 56.072918 506.91992 56.463543Q507.32617 56.854168 507.95117 56.854168Q508.56055 56.854168 508.95117 56.479168Q509.3418 56.088543 509.3418 55.526043Q509.3418 54.947918 508.93555 54.557293Q508.5293 54.151043 507.93555 54.151043Q507.32617 54.151043 506.91992 54.541668Q506.5293 54.932293 506.5293 55.463543ZM506.20117 59.432293Q506.20117 59.885418 506.4043 60.307293Q506.62305 60.729168 507.04492 60.963543Q507.4668 61.197918 507.95117 61.197918Q508.70117 61.197918 509.18555 60.713543Q509.68555 60.229168 509.68555 59.479168Q509.68555 58.713543 509.18555 58.213543Q508.68555 57.713543 507.91992 57.713543Q507.16992 57.713543 506.68555 58.213543Q506.20117 58.697918 506.20117 59.432293Z" fill-rule="nonzero"/><path fill="#757575" d="M30.940624 36.01875Q32.26875 36.925 33.378124 37.346874L32.815624 38.659374Q31.26875 38.1125 29.7375 36.909374Q28.14375 37.8 26.221874 37.8Q24.284374 37.8 22.690624 36.8625Q21.1125 35.925 20.253124 34.221874Q19.409374 32.51875 19.409374 30.39375Q19.409374 28.26875 20.26875 26.534374Q21.128124 24.8 22.70625 23.89375Q24.3 22.971874 26.26875 22.971874Q28.253124 22.971874 29.83125 23.925Q31.425 24.8625 32.253124 26.565624Q33.096874 28.253124 33.096874 30.378124Q33.096874 32.14375 32.565624 33.565624Q32.034374 34.971874 30.940624 36.01875ZM26.76875 33.596874Q28.409374 34.05 29.471874 34.95625Q31.14375 33.440624 31.14375 30.378124Q31.14375 28.64375 30.55 27.346874Q29.971874 26.05 28.83125 25.33125Q27.690624 24.6125 26.26875 24.6125Q24.159374 24.6125 22.753124 26.065624Q21.3625 27.503124 21.3625 30.39375Q21.3625 33.190624 22.7375 34.690624Q24.128124 36.175 26.26875 36.175Q27.284374 36.175 28.190624 35.784374Q27.3 35.221874 26.315624 34.971874L26.76875 33.596874ZM36.128124 37.55L36.128124 23.2375L46.4875 23.2375L46.4875 24.925L38.034374 24.925L38.034374 29.3L45.940624 29.3L45.940624 30.9875L38.034374 30.9875L38.034374 35.8625L46.815624 35.8625L46.815624 37.55L36.128124 37.55ZM49.034374 37.55L49.034374 23.2375L51.89375 23.2375L55.26875 33.3625Q55.7375 34.784374 55.95625 35.4875Q56.20625 34.70625 56.721874 33.190624L60.14375 23.2375L62.690624 23.2375L62.690624 37.55L60.878124 37.55L60.878124 25.565624L56.70625 37.55L55.003124 37.55L50.8625 25.3625L50.8625 37.55L49.034374 37.55ZM75.4875 23.2375L77.37813 23.2375L77.37813 31.503124Q77.37813 33.659374 76.89375 34.940624Q76.40938 36.20625 75.12813 37.003124Q73.8625 37.8 71.78438 37.8Q69.76875 37.8 68.4875 37.1125Q67.22188 36.409374 66.675 35.096874Q66.12813 33.784374 66.12813 31.503124L66.12813 23.2375L68.01875 23.2375L68.01875 31.4875Q68.01875 33.3625 68.3625 34.253124Q68.70625 35.128124 69.55 35.6125Q70.39375 36.08125 71.62813 36.08125Q73.70625 36.08125 74.59688 35.14375Q75.4875 34.190624 75.4875 31.4875L75.4875 23.2375ZM87.75313 37.55L83.8 27.175L85.65938 27.175L87.89375 33.39375Q88.25313 34.39375 88.55 35.471874Q88.78438 34.659374 89.20625 33.503124L91.50313 27.175L93.31563 27.175L89.39375 37.55L87.75313 37.55ZM93.83125 37.55L93.83125 23.2375L95.58125 23.2375L95.58125 37.55L93.83125 37.55ZM104.97188 34.20625L106.78438 34.440624Q106.3625 36.01875 105.19063 36.909374Q104.03438 37.784374 102.22188 37.784374Q99.95625 37.784374 98.6125 36.39375Q97.28438 34.9875 97.28438 32.45625Q97.28438 29.83125 98.62813 28.39375Q99.97188 26.940624 102.12813 26.940624Q104.20625 26.940624 105.51875 28.3625Q106.84688 29.76875 106.84688 32.346874Q106.84688 32.503124 106.83125 32.815624L99.09688 32.815624Q99.19063 34.51875 100.06563 35.425Q100.94063 36.33125 102.2375 36.33125Q103.20625 36.33125 103.87813 35.83125Q104.56563 35.315624 104.97188 34.20625ZM99.19063 31.3625L104.9875 31.3625Q104.87813 30.065624 104.33125 29.409374Q103.4875 28.39375 102.14375 28.39375Q100.94063 28.39375 100.1125 29.20625Q99.28438 30.003124 99.19063 31.3625ZM111.08125 29.784374Q109.9875 29.378124 109.45625 28.64375Q108.94063 27.89375 108.94063 26.8625Q108.94063 25.3 110.06563 24.2375Q111.19063 23.175 113.05 23.175Q114.925 23.175 116.06563 24.26875Q117.20625 25.346874 117.20625 26.909374Q117.20625 27.909374 116.675 28.64375Q116.15938 29.378124 115.09688 29.784374Q116.425 30.221874 117.1125 31.175Q117.8 32.128124 117.8 33.45625Q117.8 35.3 116.4875 36.55Q115.19063 37.8 113.08125 37.8Q110.95625 37.8 109.65938 36.55Q108.3625 35.284374 108.3625 33.409374Q108.3625 32.01875 109.06563 31.08125Q109.78438 30.128124 111.08125 29.784374ZM110.7375 26.8Q110.7375 27.815624 111.39375 28.471874Q112.05 29.1125 113.08125 29.1125Q114.09688 29.1125 114.75313 28.471874Q115.40938 27.83125 115.40938 26.909374Q115.40938 25.940624 114.7375 25.284374Q114.06563 24.6125 113.06563 24.6125Q112.06563 24.6125 111.39375 25.26875Q110.7375 25.909374 110.7375 26.8ZM110.175 33.425Q110.175 34.175 110.51875 34.878124Q110.87813 35.58125 111.58125 35.971874Q112.28438 36.346874 113.09688 36.346874Q114.3625 36.346874 115.175 35.534374Q116.00313 34.721874 116.00313 33.471874Q116.00313 32.20625 115.15938 31.378124Q114.31563 30.55 113.03438 30.55Q111.8 30.55 110.9875 31.378124Q110.175 32.190624 110.175 33.425ZM120.3625 37.55L120.3625 35.55L122.3625 35.55L122.3625 37.55L120.3625 37.55ZM128.75313 37.55L124.8 27.175L126.65938 27.175L128.89375 33.39375Q129.25313 34.39375 129.55 35.471874Q129.78438 34.659374 130.20625 33.503124L132.50313 27.175L134.31563 27.175L130.39375 37.55L128.75313 37.55ZM140.8625 41.51875L140.8625 27.175L142.47188 27.175L142.47188 28.51875Q143.03438 27.7375 143.7375 27.346874Q144.45625 26.940624 145.47188 26.940624Q146.8 26.940624 147.81563 27.628124Q148.83125 28.315624 149.34688 29.565624Q149.87813 30.8 149.87813 32.284374Q149.87813 33.878124 149.3 35.159374Q148.7375 36.425 147.64375 37.1125Q146.55 37.784374 145.34688 37.784374Q144.47188 37.784374 143.76875 37.409374Q143.08125 37.034374 142.62813 36.471874L142.62813 41.51875L140.8625 41.51875ZM142.45625 32.425Q142.45625 34.425 143.26875 35.378124Q144.08125 36.33125 145.2375 36.33125Q146.40938 36.33125 147.2375 35.346874Q148.08125 34.3625 148.08125 32.26875Q148.08125 30.3 147.25313 29.315624Q146.44063 28.315624 145.31563 28.315624Q144.19063 28.315624 143.31563 29.378124Q142.45625 30.425 142.45625 32.425ZM158.97188 34.20625L160.78438 34.440624Q160.3625 36.01875 159.19063 36.909374Q158.03438 37.784374 156.22188 37.784374Q153.95625 37.784374 152.6125 36.39375Q151.28438 34.9875 151.28438 32.45625Q151.28438 29.83125 152.62813 28.39375Q153.97188 26.940624 156.12813 26.940624Q158.20625 26.940624 159.51875 28.3625Q160.84688 29.76875 160.84688 32.346874Q160.84688 32.503124 160.83125 32.815624L153.09688 32.815624Q153.19063 34.51875 154.06563 35.425Q154.94063 36.33125 156.2375 36.33125Q157.20625 36.33125 157.87813 35.83125Q158.56563 35.315624 158.97188 34.20625ZM153.19063 31.3625L158.9875 31.3625Q158.87813 30.065624 158.33125 29.409374Q157.4875 28.39375 156.14375 28.39375Q154.94063 28.39375 154.1125 29.20625Q153.28438 30.003124 153.19063 31.3625ZM162.84688 37.55L162.84688 27.175L164.425 27.175L164.425 28.753124Q165.03438 27.64375 165.55 27.3Q166.06563 26.940624 166.675 26.940624Q167.56563 26.940624 168.4875 27.503124L167.87813 29.14375Q167.2375 28.753124 166.59688 28.753124Q166.01875 28.753124 165.55 29.1125Q165.09688 29.45625 164.89375 30.065624Q164.6125 31.003124 164.6125 32.1125L164.6125 37.55L162.84688 37.55ZM170.28438 37.55L170.28438 28.55L168.7375 28.55L168.7375 27.175L170.28438 27.175L170.28438 26.08125Q170.28438 25.034374 170.47188 24.51875Q170.72188 23.83125 171.3625 23.409374Q172.00313 22.9875 173.15938 22.9875Q173.90938 22.9875 174.8 23.159374L174.53438 24.690624Q173.9875 24.596874 173.50313 24.596874Q172.70625 24.596874 172.3625 24.940624Q172.03438 25.284374 172.03438 26.221874L172.03438 27.175L174.06563 27.175L174.06563 28.55L172.03438 28.55L172.03438 37.55L170.28438 37.55ZM175.22188 32.3625Q175.22188 29.4875 176.81563 28.096874Q178.15938 26.940624 180.08125 26.940624Q182.22188 26.940624 183.56563 28.346874Q184.925 29.753124 184.925 32.221874Q184.925 34.221874 184.33125 35.378124Q183.7375 36.51875 182.58125 37.159374Q181.44063 37.784374 180.08125 37.784374Q177.89375 37.784374 176.55 36.39375Q175.22188 34.9875 175.22188 32.3625ZM177.01875 32.3625Q177.01875 34.3625 177.87813 35.346874Q178.75313 36.33125 180.08125 36.33125Q181.39375 36.33125 182.25313 35.346874Q183.12813 34.346874 183.12813 32.3Q183.12813 30.378124 182.25313 29.39375Q181.37813 28.39375 180.08125 28.39375Q178.75313 28.39375 177.87813 29.39375Q177.01875 30.378124 177.01875 32.3625ZM186.84688 37.55L186.84688 27.175L188.425 27.175L188.425 28.753124Q189.03438 27.64375 189.55 27.3Q190.06563 26.940624 190.675 26.940624Q191.56563 26.940624 192.4875 27.503124L191.87813 29.14375Q191.2375 28.753124 190.59688 28.753124Q190.01875 28.753124 189.55 29.1125Q189.09688 29.45625 188.89375 30.065624Q188.6125 31.003124 188.6125 32.1125L188.6125 37.55L186.84688 37.55ZM193.8625 37.55L193.8625 27.175L195.44063 27.175L195.44063 28.628124Q195.925 27.878124 196.7375 27.409374Q197.55 26.940624 198.58125 26.940624Q199.7375 26.940624 200.47188 27.425Q201.20625 27.89375 201.51875 28.753124Q202.75313 26.940624 204.72188 26.940624Q206.26875 26.940624 207.09688 27.8Q207.925 28.659374 207.925 30.425L207.925 37.55L206.175 37.55L206.175 31.01875Q206.175 29.95625 206.00313 29.503124Q205.83125 29.034374 205.37813 28.753124Q204.94063 28.471874 204.33125 28.471874Q203.2375 28.471874 202.50313 29.20625Q201.78438 29.925 201.78438 31.51875L201.78438 37.55L200.03438 37.55L200.03438 30.815624Q200.03438 29.64375 199.59688 29.065624Q199.175 28.471874 198.19063 28.471874Q197.45625 28.471874 196.81563 28.8625Q196.19063 29.253124 195.90938 30.003124Q195.62813 30.753124 195.62813 32.175L195.62813 37.55L193.8625 37.55ZM216.64375 36.26875Q215.65938 37.096874 214.75313 37.440624Q213.84688 37.784374 212.81563 37.784374Q211.1125 37.784374 210.19063 36.95625Q209.26875 36.1125 209.26875 34.815624Q209.26875 34.05 209.6125 33.425Q209.97188 32.8 210.53438 32.425Q211.09688 32.034374 211.8 31.83125Q212.31563 31.70625 213.3625 31.565624Q215.4875 31.315624 216.4875 30.971874Q216.50313 30.6125 216.50313 30.503124Q216.50313 29.440624 216.00313 28.9875Q215.33125 28.39375 214.00313 28.39375Q212.75313 28.39375 212.15938 28.83125Q211.58125 29.26875 211.3 30.378124L209.58125 30.14375Q209.81563 29.034374 210.34688 28.3625Q210.87813 27.675 211.89375 27.315624Q212.90938 26.940624 214.25313 26.940624Q215.58125 26.940624 216.40938 27.253124Q217.2375 27.565624 217.62813 28.05Q218.01875 28.51875 218.175 29.2375Q218.26875 29.690624 218.26875 30.8625L218.26875 33.20625Q218.26875 35.659374 218.37813 36.315624Q218.4875 36.95625 218.83125 37.55L216.9875 37.55Q216.72188 37.003124 216.64375 36.26875ZM216.4875 32.346874Q215.53438 32.7375 213.6125 33.003124Q212.53438 33.159374 212.08125 33.3625Q211.64375 33.55 211.39375 33.925Q211.14375 34.3 211.14375 34.76875Q211.14375 35.471874 211.675 35.940624Q212.20625 36.409374 213.2375 36.409374Q214.25313 36.409374 215.03438 35.971874Q215.83125 35.51875 216.20625 34.753124Q216.4875 34.14375 216.4875 32.9875L216.4875 32.346874ZM220.8625 37.55L220.8625 27.175L222.45625 27.175L222.45625 28.659374Q223.59688 26.940624 225.75313 26.940624Q226.69063 26.940624 227.47188 27.284374Q228.26875 27.6125 228.65938 28.159374Q229.05 28.70625 229.20625 29.45625Q229.3 29.95625 229.3 31.175L229.3 37.55L227.53438 37.55L227.53438 31.2375Q227.53438 30.159374 227.33125 29.628124Q227.12813 29.096874 226.59688 28.784374Q226.08125 28.471874 225.37813 28.471874Q224.25313 28.471874 223.44063 29.190624Q222.62813 29.89375 222.62813 31.878124L222.62813 37.55L220.8625 37.55ZM237.64375 33.753124L239.3625 33.971874Q239.08125 35.76875 237.90938 36.784374Q236.75313 37.784374 235.05 37.784374Q232.925 37.784374 231.62813 36.39375Q230.33125 35.003124 230.33125 32.409374Q230.33125 30.721874 230.87813 29.471874Q231.44063 28.20625 232.58125 27.58125Q233.72188 26.940624 235.06563 26.940624Q236.75313 26.940624 237.81563 27.8Q238.89375 28.659374 239.20625 30.221874L237.4875 30.4875Q237.25313 29.440624 236.62813 28.925Q236.00313 28.39375 235.12813 28.39375Q233.8 28.39375 232.97188 29.346874Q232.14375 30.3 232.14375 32.346874Q232.14375 34.440624 232.94063 35.39375Q233.7375 36.33125 235.03438 36.33125Q236.06563 36.33125 236.75313 35.70625Q237.45625 35.065624 237.64375 33.753124ZM247.97188 34.20625L249.78438 34.440624Q249.3625 36.01875 248.19063 36.909374Q247.03438 37.784374 245.22188 37.784374Q242.95625 37.784374 241.6125 36.39375Q240.28438 34.9875 240.28438 32.45625Q240.28438 29.83125 241.62813 28.39375Q242.97188 26.940624 245.12813 26.940624Q247.20625 26.940624 248.51875 28.3625Q249.84688 29.76875 249.84688 32.346874Q249.84688 32.503124 249.83125 32.815624L242.09688 32.815624Q242.19063 34.51875 243.06563 35.425Q243.94063 36.33125 245.2375 36.33125Q246.20625 36.33125 246.87813 35.83125Q247.56563 35.315624 247.97188 34.20625ZM242.19063 31.3625L247.9875 31.3625Q247.87813 30.065624 247.33125 29.409374Q246.4875 28.39375 245.14375 28.39375Q243.94063 28.39375 243.1125 29.20625Q242.28438 30.003124 242.19063 31.3625ZM261.22186 41.753124Q259.76874 39.925 258.76874 37.471874Q257.76874 35.003124 257.76874 32.3625Q257.76874 30.034374 258.51874 27.909374Q259.39374 25.440624 261.22186 22.9875L262.4875 22.9875Q261.3 25.01875 260.925 25.89375Q260.33124 27.2375 259.9875 28.70625Q259.5656 30.534374 259.5656 32.378124Q259.5656 37.065624 262.4875 41.753124L261.22186 41.753124ZM269.1906 37.55L263.64374 23.2375L265.6906 23.2375L269.40936 33.628124Q269.8625 34.878124 270.15936 35.971874Q270.4875 34.8 270.9406 33.628124L274.8 23.2375L276.7375 23.2375L271.1281 37.55L269.1906 37.55ZM278.01874 37.55L278.01874 23.2375L279.90936 23.2375L279.90936 35.8625L286.95624 35.8625L286.95624 37.55L278.01874 37.55ZM289.1281 37.55L289.1281 23.2375L299.4875 23.2375L299.4875 24.925L291.03436 24.925L291.03436 29.3L298.9406 29.3L298.9406 30.9875L291.03436 30.9875L291.03436 35.8625L299.8156 35.8625L299.8156 37.55L289.1281 37.55ZM302.08124 37.55L302.08124 23.2375L304.01874 23.2375L311.53436 34.471874L311.53436 23.2375L313.34686 23.2375L313.34686 37.55L311.40936 37.55L303.89374 26.3L303.89374 37.55L302.08124 37.55ZM324.1125 29.128124L314.65936 29.128124L314.65936 27.4875L324.1125 27.4875L324.1125 29.128124ZM324.1125 33.471874L314.65936 33.471874L314.65936 31.83125L324.1125 31.83125L324.1125 33.471874ZM333.0031 37.55L331.2375 37.55L331.2375 26.346874Q330.6125 26.95625 329.58124 27.565624Q328.55 28.159374 327.72186 28.471874L327.72186 26.76875Q329.20624 26.08125 330.3 25.096874Q331.40936 24.096874 331.8625 23.175L333.0031 23.175L333.0031 37.55ZM346.6125 35.8625L346.6125 37.55L337.15936 37.55Q337.14374 36.909374 337.3625 36.33125Q337.72186 35.3625 338.51874 34.425Q339.3156 33.4875 340.8156 32.253124Q343.15936 30.346874 343.97186 29.2375Q344.8 28.1125 344.8 27.1125Q344.8 26.065624 344.05 25.346874Q343.3 24.628124 342.09686 24.628124Q340.83124 24.628124 340.0656 25.39375Q339.3 26.159374 339.3 27.503124L337.4875 27.315624Q337.675 25.3 338.8781 24.2375Q340.09686 23.175 342.14374 23.175Q344.1906 23.175 345.39374 24.315624Q346.59686 25.45625 346.59686 27.14375Q346.59686 28.003124 346.2375 28.846874Q345.89374 29.675 345.08124 30.596874Q344.26874 31.503124 342.3781 33.1125Q340.78436 34.440624 340.33124 34.909374Q339.89374 35.378124 339.59686 35.8625L346.6125 35.8625ZM351.08124 29.784374Q349.9875 29.378124 349.45624 28.64375Q348.9406 27.89375 348.9406 26.8625Q348.9406 25.3 350.0656 24.2375Q351.1906 23.175 353.05 23.175Q354.925 23.175 356.0656 24.26875Q357.20624 25.346874 357.20624 26.909374Q357.20624 27.909374 356.675 28.64375Q356.15936 29.378124 355.09686 29.784374Q356.425 30.221874 357.1125 31.175Q357.8 32.128124 357.8 33.45625Q357.8 35.3 356.4875 36.55Q355.1906 37.8 353.08124 37.8Q350.95624 37.8 349.65936 36.55Q348.3625 35.284374 348.3625 33.409374Q348.3625 32.01875 349.0656 31.08125Q349.78436 30.128124 351.08124 29.784374ZM350.7375 26.8Q350.7375 27.815624 351.39374 28.471874Q352.05 29.1125 353.08124 29.1125Q354.09686 29.1125 354.7531 28.471874Q355.40936 27.83125 355.40936 26.909374Q355.40936 25.940624 354.7375 25.284374Q354.0656 24.6125 353.0656 24.6125Q352.0656 24.6125 351.39374 25.26875Q350.7375 25.909374 350.7375 26.8ZM350.175 33.425Q350.175 34.175 350.51874 34.878124Q350.8781 35.58125 351.58124 35.971874Q352.28436 36.346874 353.09686 36.346874Q354.3625 36.346874 355.175 35.534374Q356.0031 34.721874 356.0031 33.471874Q356.0031 32.20625 355.15936 31.378124Q354.3156 30.55 353.03436 30.55Q351.8 30.55 350.9875 31.378124Q350.175 32.190624 350.175 33.425ZM361.01874 41.753124L359.76874 41.753124Q362.675 37.065624 362.675 32.378124Q362.675 30.534374 362.26874 28.7375Q361.925 27.26875 361.33124 25.925Q360.95624 25.034374 359.76874 22.9875L361.01874 22.9875Q362.8625 25.440624 363.7375 27.909374Q364.4875 30.034374 364.4875 32.3625Q364.4875 35.003124 363.47186 37.471874Q362.47186 39.925 361.01874 41.753124Z" fill-rule="nonzero"/></svg>