<svg version="1.1" viewBox="0.0 0.0 600.0 371.0" fill="none" stroke="none" stroke-linecap="square" stroke-miterlimit="10" width="600" height="371" xmlns:xlink="http://www.w3.org/1999/xlink" xmlns="http://www.w3.org/2000/svg"><path fill="#ffffff" d="M0 0L600.0 0L600.0 371.0L0 371.0L0 0Z" fill-rule="nonzero"/><path stroke="#cccccc" stroke-width="1.0" stroke-linecap="butt" d="M94.5 88.5L94.5 300.5" fill-rule="nonzero"/><path stroke="#cccccc" stroke-width="1.0" stroke-linecap="butt" d="M241.5 88.5L241.5 300.5" fill-rule="nonzero"/><path stroke="#cccccc" stroke-width="1.0" stroke-linecap="butt" d="M388.5 88.5L388.5 300.5" fill-rule="nonzero"/><path stroke="#cccccc" stroke-width="1.0" stroke-linecap="butt" d="M535.5 88.5L535.5 300.5" fill-rule="nonzero"/><path stroke="#333333" stroke-width="1.0" stroke-linecap="butt" d="M94.5 300.5L581.5 300.5" fill-rule="nonzero"/><path stroke="#cccccc" stroke-width="1.0" stroke-linecap="butt" d="M94.5 247.5L581.5 247.5" fill-rule="nonzero"/><path stroke="#cccccc" stroke-width="1.0" stroke-linecap="butt" d="M94.5 194.5L581.5 194.5" fill-rule="nonzero"/><path stroke="#cccccc" stroke-width="1.0" stroke-linecap="butt" d="M94.5 141.5L581.5 141.5" fill-rule="nonzero"/><path stroke="#cccccc" stroke-width="1.0" stroke-linecap="butt" d="M94.5 88.5L581.5 88.5" fill-rule="nonzero"/><clipPath id="id_0"><path d="M94.55 88.28333L581.45 88.28333L581.45 300.45L94.55 300.45L94.55 88.28333Z" clip-rule="nonzero"/></clipPath><path stroke="#4285f4" stroke-width="2.0" stroke-linecap="butt" clip-path="url(#id_0)" d="M94.55 294.30832L138.81363 293.19168L183.07727 291.51666L227.34091 292.63333L271.60455 293.19168L315.8682 289.84167L360.1318 285.375L404.39545 273.09167L448.6591 261.68878L492.92273 252.18208L537.18634 243.82022L581.45 238.76767" fill-rule="nonzero"/><path stroke="#ea4335" stroke-width="2.0" stroke-linecap="butt" clip-path="url(#id_0)" d="M94.55 293.75L138.81363 293.75L183.07727 290.4L227.34091 293.19168L271.60455 292.075L315.8682 289.84167L360.1318 283.7L404.39545 274.20834L448.6591 251.31667L492.92273 231.49583L537.18634 211.87042L581.45 197.64278" fill-rule="nonzero"/><path stroke="#fbbc04" stroke-width="2.0" stroke-linecap="butt" clip-path="url(#id_0)" d="M94.55 293.19168L138.81363 293.75L183.07727 290.95834L227.34091 295.425L271.60455 293.75L315.8682 289.28333L360.1318 284.25833L404.39545 273.65L448.6591 251.875L492.92273 210.0L537.18634 169.8859L581.45 132.83833" fill-rule="nonzero"/><path stroke="#34a853" stroke-width="2.0" stroke-linecap="butt" clip-path="url(#id_0)" d="M94.55 294.30832L138.81363 292.63333L183.07727 289.84167L227.34091 292.63333L271.60455 292.63333L315.8682 289.28333L360.1318 285.93332L404.39545 274.20834L448.6591 251.31667L492.92273 210.55833" fill-rule="nonzero"/><path fill="#000000" fill-opacity="0.0" clip-path="url(#id_0)" d="M97.55 294.30832C97.55 295.96518 96.206856 297.30832 94.55 297.30832C92.89314 297.30832 91.55 295.96518 91.55 294.30832C91.55 292.6515 92.89314 291.30832 94.55 291.30832C96.206856 291.30832 97.55 292.6515 97.55 294.30832Z" fill-rule="nonzero"/><path fill="#000000" fill-opacity="0.0" clip-path="url(#id_0)" d="M141.81363 293.19168C141.81363 294.8485 140.47049 296.19168 138.81363 296.19168C137.15678 296.19168 135.81363 294.8485 135.81363 293.19168C135.81363 291.53482 137.15678 290.19168 138.81363 290.19168C140.47049 290.19168 141.81363 291.53482 141.81363 293.19168Z" fill-rule="nonzero"/><path fill="#000000" fill-opacity="0.0" clip-path="url(#id_0)" d="M186.07727 291.51666C186.07727 293.17352 184.73413 294.51666 183.07727 294.51666C181.42043 294.51666 180.07727 293.17352 180.07727 291.51666C180.07727 289.8598 181.42043 288.51666 183.07727 288.51666C184.73413 288.51666 186.07727 289.8598 186.07727 291.51666Z" fill-rule="nonzero"/><path fill="#000000" fill-opacity="0.0" clip-path="url(#id_0)" d="M230.34091 292.63333C230.34091 294.2902 228.99776 295.63333 227.34091 295.63333C225.68405 295.63333 224.34091 294.2902 224.34091 292.63333C224.34091 290.97647 225.68405 289.63333 227.34091 289.63333C228.99776 289.63333 230.34091 290.97647 230.34091 292.63333Z" fill-rule="nonzero"/><path fill="#000000" fill-opacity="0.0" clip-path="url(#id_0)" d="M274.60455 293.19168C274.60455 294.8485 273.2614 296.19168 271.60455 296.19168C269.9477 296.19168 268.60455 294.8485 268.60455 293.19168C268.60455 291.53482 269.9477 290.19168 271.60455 290.19168C273.2614 290.19168 274.60455 291.53482 274.60455 293.19168Z" fill-rule="nonzero"/><path fill="#000000" fill-opacity="0.0" clip-path="url(#id_0)" d="M318.8682 289.84167C318.8682 291.49854 317.52502 292.84167 315.8682 292.84167C314.21133 292.84167 312.8682 291.49854 312.8682 289.84167C312.8682 288.1848 314.21133 286.84167 315.8682 286.84167C317.52502 286.84167 318.8682 288.1848 318.8682 289.84167Z" fill-rule="nonzero"/><path fill="#000000" fill-opacity="0.0" clip-path="url(#id_0)" d="M363.1318 285.375C363.1318 287.03186 361.78867 288.375 360.1318 288.375C358.47498 288.375 357.1318 287.03186 357.1318 285.375C357.1318 283.71814 358.47498 282.375 360.1318 282.375C361.78867 282.375 363.1318 283.71814 363.1318 285.375Z" fill-rule="nonzero"/><path fill="#000000" fill-opacity="0.0" clip-path="url(#id_0)" d="M407.39545 273.09167C407.39545 274.74854 406.0523 276.09167 404.39545 276.09167C402.7386 276.09167 401.39545 274.74854 401.39545 273.09167C401.39545 271.4348 402.7386 270.09167 404.39545 270.09167C406.0523 270.09167 407.39545 271.4348 407.39545 273.09167Z" fill-rule="nonzero"/><path fill="#000000" fill-opacity="0.0" clip-path="url(#id_0)" d="M451.6591 261.68878C451.6591 263.34564 450.31595 264.68878 448.6591 264.68878C447.00223 264.68878 445.6591 263.34564 445.6591 261.68878C445.6591 260.03192 447.00223 258.68878 448.6591 258.68878C450.31595 258.68878 451.6591 260.03192 451.6591 261.68878Z" fill-rule="nonzero"/><path fill="#000000" fill-opacity="0.0" clip-path="url(#id_0)" d="M495.92273 252.18208C495.92273 253.83894 494.5796 255.18208 492.92273 255.18208C491.26587 255.18208 489.92273 253.83894 489.92273 252.18208C489.92273 250.52522 491.26587 249.18208 492.92273 249.18208C494.5796 249.18208 495.92273 250.52522 495.92273 252.18208Z" fill-rule="nonzero"/><path fill="#000000" fill-opacity="0.0" clip-path="url(#id_0)" d="M540.18634 243.82022C540.18634 245.47708 538.8432 246.82022 537.18634 246.82022C535.5295 246.82022 534.18634 245.47708 534.18634 243.82022C534.18634 242.16336 535.5295 240.82022 537.18634 240.82022C538.8432 240.82022 540.18634 242.16336 540.18634 243.82022Z" fill-rule="nonzero"/><path fill="#000000" fill-opacity="0.0" clip-path="url(#id_0)" d="M584.45 238.76767C584.45 240.42453 583.1069 241.76767 581.45 241.76767C579.79315 241.76767 578.45 240.42453 578.45 238.76767C578.45 237.11082 579.79315 235.76767 581.45 235.76767C583.1069 235.76767 584.45 237.11082 584.45 238.76767Z" fill-rule="nonzero"/><path fill="#000000" fill-opacity="0.0" clip-path="url(#id_0)" d="M97.55 293.75C97.55 295.40686 96.206856 296.75 94.55 296.75C92.89314 296.75 91.55 295.40686 91.55 293.75C91.55 292.09314 92.89314 290.75 94.55 290.75C96.206856 290.75 97.55 292.09314 97.55 293.75Z" fill-rule="nonzero"/><path fill="#000000" fill-opacity="0.0" clip-path="url(#id_0)" d="M141.81363 293.75C141.81363 295.40686 140.47049 296.75 138.81363 296.75C137.15678 296.75 135.81363 295.40686 135.81363 293.75C135.81363 292.09314 137.15678 290.75 138.81363 290.75C140.47049 290.75 141.81363 292.09314 141.81363 293.75Z" fill-rule="nonzero"/><path fill="#000000" fill-opacity="0.0" clip-path="url(#id_0)" d="M186.07727 290.4C186.07727 292.05685 184.73413 293.4 183.07727 293.4C181.42043 293.4 180.07727 292.05685 180.07727 290.4C180.07727 288.74313 181.42043 287.4 183.07727 287.4C184.73413 287.4 186.07727 288.74313 186.07727 290.4Z" fill-rule="nonzero"/><path fill="#000000" fill-opacity="0.0" clip-path="url(#id_0)" d="M230.34091 293.19168C230.34091 294.8485 228.99776 296.19168 227.34091 296.19168C225.68405 296.19168 224.34091 294.8485 224.34091 293.19168C224.34091 291.53482 225.68405 290.19168 227.34091 290.19168C228.99776 290.19168 230.34091 291.53482 230.34091 293.19168Z" fill-rule="nonzero"/><path fill="#000000" fill-opacity="0.0" clip-path="url(#id_0)" d="M274.60455 292.075C274.60455 293.73184 273.2614 295.075 271.60455 295.075C269.9477 295.075 268.60455 293.73184 268.60455 292.075C268.60455 290.41815 269.9477 289.075 271.60455 289.075C273.2614 289.075 274.60455 290.41815 274.60455 292.075Z" fill-rule="nonzero"/><path fill="#000000" fill-opacity="0.0" clip-path="url(#id_0)" d="M318.8682 289.84167C318.8682 291.49854 317.52502 292.84167 315.8682 292.84167C314.21133 292.84167 312.8682 291.49854 312.8682 289.84167C312.8682 288.1848 314.21133 286.84167 315.8682 286.84167C317.52502 286.84167 318.8682 288.1848 318.8682 289.84167Z" fill-rule="nonzero"/><path fill="#000000" fill-opacity="0.0" clip-path="url(#id_0)" d="M363.1318 283.7C363.1318 285.35684 361.78867 286.7 360.1318 286.7C358.47498 286.7 357.1318 285.35684 357.1318 283.7C357.1318 282.04315 358.47498 280.7 360.1318 280.7C361.78867 280.7 363.1318 282.04315 363.1318 283.7Z" fill-rule="nonzero"/><path fill="#000000" fill-opacity="0.0" clip-path="url(#id_0)" d="M407.39545 274.20834C407.39545 275.86517 406.0523 277.20834 404.39545 277.20834C402.7386 277.20834 401.39545 275.86517 401.39545 274.20834C401.39545 272.55148 402.7386 271.20834 404.39545 271.20834C406.0523 271.20834 407.39545 272.55148 407.39545 274.20834Z" fill-rule="nonzero"/><path fill="#000000" fill-opacity="0.0" clip-path="url(#id_0)" d="M451.6591 251.31667C451.6591 252.97353 450.31595 254.31667 448.6591 254.31667C447.00223 254.31667 445.6591 252.97353 445.6591 251.31667C445.6591 249.6598 447.00223 248.31667 448.6591 248.31667C450.31595 248.31667 451.6591 249.6598 451.6591 251.31667Z" fill-rule="nonzero"/><path fill="#000000" fill-opacity="0.0" clip-path="url(#id_0)" d="M495.92273 231.49583C495.92273 233.1527 494.5796 234.49583 492.92273 234.49583C491.26587 234.49583 489.92273 233.1527 489.92273 231.49583C489.92273 229.83897 491.26587 228.49583 492.92273 228.49583C494.5796 228.49583 495.92273 229.83897 495.92273 231.49583Z" fill-rule="nonzero"/><path fill="#000000" fill-opacity="0.0" clip-path="url(#id_0)" d="M540.18634 211.87042C540.18634 213.52727 538.8432 214.87042 537.18634 214.87042C535.5295 214.87042 534.18634 213.52727 534.18634 211.87042C534.18634 210.21356 535.5295 208.87042 537.18634 208.87042C538.8432 208.87042 540.18634 210.21356 540.18634 211.87042Z" fill-rule="nonzero"/><path fill="#000000" fill-opacity="0.0" clip-path="url(#id_0)" d="M584.45 197.64278C584.45 199.29962 583.1069 200.64278 581.45 200.64278C579.79315 200.64278 578.45 199.29962 578.45 197.64278C578.45 195.98592 579.79315 194.64278 581.45 194.64278C583.1069 194.64278 584.45 195.98592 584.45 197.64278Z" fill-rule="nonzero"/><path fill="#000000" fill-opacity="0.0" clip-path="url(#id_0)" d="M97.55 293.19168C97.55 294.8485 96.206856 296.19168 94.55 296.19168C92.89314 296.19168 91.55 294.8485 91.55 293.19168C91.55 291.53482 92.89314 290.19168 94.55 290.19168C96.206856 290.19168 97.55 291.53482 97.55 293.19168Z" fill-rule="nonzero"/><path fill="#000000" fill-opacity="0.0" clip-path="url(#id_0)" d="M141.81363 293.75C141.81363 295.40686 140.47049 296.75 138.81363 296.75C137.15678 296.75 135.81363 295.40686 135.81363 293.75C135.81363 292.09314 137.15678 290.75 138.81363 290.75C140.47049 290.75 141.81363 292.09314 141.81363 293.75Z" fill-rule="nonzero"/><path fill="#000000" fill-opacity="0.0" clip-path="url(#id_0)" d="M186.07727 290.95834C186.07727 292.61517 184.73413 293.95834 183.07727 293.95834C181.42043 293.95834 180.07727 292.61517 180.07727 290.95834C180.07727 289.30148 181.42043 287.95834 183.07727 287.95834C184.73413 287.95834 186.07727 289.30148 186.07727 290.95834Z" fill-rule="nonzero"/><path fill="#000000" fill-opacity="0.0" clip-path="url(#id_0)" d="M230.34091 295.425C230.34091 297.08185 228.99776 298.425 227.34091 298.425C225.68405 298.425 224.34091 297.08185 224.34091 295.425C224.34091 293.76816 225.68405 292.425 227.34091 292.425C228.99776 292.425 230.34091 293.76816 230.34091 295.425Z" fill-rule="nonzero"/><path fill="#000000" fill-opacity="0.0" clip-path="url(#id_0)" d="M274.60455 293.75C274.60455 295.40686 273.2614 296.75 271.60455 296.75C269.9477 296.75 268.60455 295.40686 268.60455 293.75C268.60455 292.09314 269.9477 290.75 271.60455 290.75C273.2614 290.75 274.60455 292.09314 274.60455 293.75Z" fill-rule="nonzero"/><path fill="#000000" fill-opacity="0.0" clip-path="url(#id_0)" d="M318.8682 289.28333C318.8682 290.9402 317.52502 292.28333 315.8682 292.28333C314.21133 292.28333 312.8682 290.9402 312.8682 289.28333C312.8682 287.62646 314.21133 286.28333 315.8682 286.28333C317.52502 286.28333 318.8682 287.62646 318.8682 289.28333Z" fill-rule="nonzero"/><path fill="#000000" fill-opacity="0.0" clip-path="url(#id_0)" d="M363.1318 284.25833C363.1318 285.9152 361.78867 287.25833 360.1318 287.25833C358.47498 287.25833 357.1318 285.9152 357.1318 284.25833C357.1318 282.60147 358.47498 281.25833 360.1318 281.25833C361.78867 281.25833 363.1318 282.60147 363.1318 284.25833Z" fill-rule="nonzero"/><path fill="#000000" fill-opacity="0.0" clip-path="url(#id_0)" d="M407.39545 273.65C407.39545 275.30685 406.0523 276.65 404.39545 276.65C402.7386 276.65 401.39545 275.30685 401.39545 273.65C401.39545 271.99313 402.7386 270.65 404.39545 270.65C406.0523 270.65 407.39545 271.99313 407.39545 273.65Z" fill-rule="nonzero"/><path fill="#000000" fill-opacity="0.0" clip-path="url(#id_0)" d="M451.6591 251.875C451.6591 253.53186 450.31595 254.875 448.6591 254.875C447.00223 254.875 445.6591 253.53186 445.6591 251.875C445.6591 250.21814 447.00223 248.875 448.6591 248.875C450.31595 248.875 451.6591 250.21814 451.6591 251.875Z" fill-rule="nonzero"/><path fill="#000000" fill-opacity="0.0" clip-path="url(#id_0)" d="M495.92273 210.0C495.92273 211.65686 494.5796 213.0 492.92273 213.0C491.26587 213.0 489.92273 211.65686 489.92273 210.0C489.92273 208.34314 491.26587 207.0 492.92273 207.0C494.5796 207.0 495.92273 208.34314 495.92273 210.0Z" fill-rule="nonzero"/><path fill="#000000" fill-opacity="0.0" clip-path="url(#id_0)" d="M540.18634 169.8859C540.18634 171.54276 538.8432 172.8859 537.18634 172.8859C535.5295 172.8859 534.18634 171.54276 534.18634 169.8859C534.18634 168.22905 535.5295 166.8859 537.18634 166.8859C538.8432 166.8859 540.18634 168.22905 540.18634 169.8859Z" fill-rule="nonzero"/><path fill="#000000" fill-opacity="0.0" clip-path="url(#id_0)" d="M584.45 132.83833C584.45 134.4952 583.1069 135.83833 581.45 135.83833C579.79315 135.83833 578.45 134.4952 578.45 132.83833C578.45 131.18147 579.79315 129.83833 581.45 129.83833C583.1069 129.83833 584.45 131.18147 584.45 132.83833Z" fill-rule="nonzero"/><path fill="#000000" fill-opacity="0.0" clip-path="url(#id_0)" d="M97.55 294.30832C97.55 295.96518 96.206856 297.30832 94.55 297.30832C92.89314 297.30832 91.55 295.96518 91.55 294.30832C91.55 292.6515 92.89314 291.30832 94.55 291.30832C96.206856 291.30832 97.55 292.6515 97.55 294.30832Z" fill-rule="nonzero"/><path fill="#000000" fill-opacity="0.0" clip-path="url(#id_0)" d="M141.81363 292.63333C141.81363 294.2902 140.47049 295.63333 138.81363 295.63333C137.15678 295.63333 135.81363 294.2902 135.81363 292.63333C135.81363 290.97647 137.15678 289.63333 138.81363 289.63333C140.47049 289.63333 141.81363 290.97647 141.81363 292.63333Z" fill-rule="nonzero"/><path fill="#000000" fill-opacity="0.0" clip-path="url(#id_0)" d="M186.07727 289.84167C186.07727 291.49854 184.73413 292.84167 183.07727 292.84167C181.42043 292.84167 180.07727 291.49854 180.07727 289.84167C180.07727 288.1848 181.42043 286.84167 183.07727 286.84167C184.73413 286.84167 186.07727 288.1848 186.07727 289.84167Z" fill-rule="nonzero"/><path fill="#000000" fill-opacity="0.0" clip-path="url(#id_0)" d="M230.34091 292.63333C230.34091 294.2902 228.99776 295.63333 227.34091 295.63333C225.68405 295.63333 224.34091 294.2902 224.34091 292.63333C224.34091 290.97647 225.68405 289.63333 227.34091 289.63333C228.99776 289.63333 230.34091 290.97647 230.34091 292.63333Z" fill-rule="nonzero"/><path fill="#000000" fill-opacity="0.0" clip-path="url(#id_0)" d="M274.60455 292.63333C274.60455 294.2902 273.2614 295.63333 271.60455 295.63333C269.9477 295.63333 268.60455 294.2902 268.60455 292.63333C268.60455 290.97647 269.9477 289.63333 271.60455 289.63333C273.2614 289.63333 274.60455 290.97647 274.60455 292.63333Z" fill-rule="nonzero"/><path fill="#000000" fill-opacity="0.0" clip-path="url(#id_0)" d="M318.8682 289.28333C318.8682 290.9402 317.52502 292.28333 315.8682 292.28333C314.21133 292.28333 312.8682 290.9402 312.8682 289.28333C312.8682 287.62646 314.21133 286.28333 315.8682 286.28333C317.52502 286.28333 318.8682 287.62646 318.8682 289.28333Z" fill-rule="nonzero"/><path fill="#000000" fill-opacity="0.0" clip-path="url(#id_0)" d="M363.1318 285.93332C363.1318 287.59018 361.78867 288.93332 360.1318 288.93332C358.47498 288.93332 357.1318 287.59018 357.1318 285.93332C357.1318 284.2765 358.47498 282.93332 360.1318 282.93332C361.78867 282.93332 363.1318 284.2765 363.1318 285.93332Z" fill-rule="nonzero"/><path fill="#000000" fill-opacity="0.0" clip-path="url(#id_0)" d="M407.39545 274.20834C407.39545 275.86517 406.0523 277.20834 404.39545 277.20834C402.7386 277.20834 401.39545 275.86517 401.39545 274.20834C401.39545 272.55148 402.7386 271.20834 404.39545 271.20834C406.0523 271.20834 407.39545 272.55148 407.39545 274.20834Z" fill-rule="nonzero"/><path fill="#000000" fill-opacity="0.0" clip-path="url(#id_0)" d="M451.6591 251.31667C451.6591 252.97353 450.31595 254.31667 448.6591 254.31667C447.00223 254.31667 445.6591 252.97353 445.6591 251.31667C445.6591 249.6598 447.00223 248.31667 448.6591 248.31667C450.31595 248.31667 451.6591 249.6598 451.6591 251.31667Z" fill-rule="nonzero"/><path fill="#000000" fill-opacity="0.0" clip-path="url(#id_0)" d="M495.92273 210.55833C495.92273 212.2152 494.5796 213.55833 492.92273 213.55833C491.26587 213.55833 489.92273 212.2152 489.92273 210.55833C489.92273 208.90147 491.26587 207.55833 492.92273 207.55833C494.5796 207.55833 495.92273 208.90147 495.92273 210.55833Z" fill-rule="nonzero"/><path fill="#000000" d="M291.375 349.45L291.375 340.85626L294.60938 340.85626Q295.59375 340.85626 296.1875 341.1219Q296.78125 341.3875 297.10938 341.9344Q297.45312 342.46564 297.45312 343.0594Q297.45312 343.60626 297.15625 344.09064Q296.85938 344.575 296.25 344.8719Q297.03125 345.10626 297.4375 345.66876Q297.85938 346.21564 297.85938 346.96564Q297.85938 347.5594 297.60938 348.09064Q297.35938 348.60626 296.98438 348.8875Q296.60938 349.16876 296.03125 349.3094Q295.46875 349.45 294.65625 349.45L291.375 349.45ZM292.51562 344.46564L294.375 344.46564Q295.125 344.46564 295.45312 344.3719Q295.89062 344.2469 296.10938 343.95Q296.32812 343.6375 296.32812 343.1844Q296.32812 342.7625 296.125 342.4344Q295.92188 342.10626 295.53125 341.9969Q295.15625 341.8719 294.23438 341.8719L292.51562 341.8719L292.51562 344.46564ZM292.51562 348.4344L294.65625 348.4344Q295.20312 348.4344 295.42188 348.3875Q295.82812 348.325 296.07812 348.16876Q296.34375 347.9969 296.51562 347.6844Q296.6875 347.3719 296.6875 346.96564Q296.6875 346.48126 296.4375 346.1219Q296.20312 345.7625 295.76562 345.6219Q295.32812 345.48126 294.5 345.48126L292.51562 345.48126L292.51562 348.4344ZM299.26562 349.45L299.26562 340.85626L300.32812 340.85626L300.32812 349.45L299.26562 349.45ZM301.90625 346.34064Q301.90625 344.60626 302.85938 343.77814Q303.65625 343.09064 304.8125 343.09064Q306.09375 343.09064 306.90625 343.9344Q307.73438 344.7625 307.73438 346.2469Q307.73438 347.45 307.375 348.1375Q307.01562 348.825 306.3125 349.21564Q305.625 349.59064 304.8125 349.59064Q303.51562 349.59064 302.70312 348.7625Q301.90625 347.91876 301.90625 346.34064ZM302.98438 346.34064Q302.98438 347.52814 303.5 348.1219Q304.03125 348.71564 304.8125 348.71564Q305.60938 348.71564 306.125 348.1219Q306.64062 347.52814 306.64062 346.3094Q306.64062 345.15314 306.10938 344.5594Q305.59375 343.96564 304.8125 343.96564Q304.03125 343.96564 303.5 344.5594Q302.98438 345.1375 302.98438 346.34064ZM313.35938 347.16876L314.39062 347.3094Q314.21875 348.3719 313.51562 348.98126Q312.8125 349.59064 311.79688 349.59064Q310.51562 349.59064 309.73438 348.7625Q308.96875 347.91876 308.96875 346.35626Q308.96875 345.35626 309.29688 344.60626Q309.64062 343.84064 310.3125 343.46564Q311.0 343.09064 311.8125 343.09064Q312.8125 343.09064 313.45312 343.60626Q314.10938 344.10626 314.29688 345.0594L313.26562 345.21564Q313.125 344.59064 312.75 344.27814Q312.375 343.95 311.84375 343.95Q311.04688 343.95 310.54688 344.52814Q310.04688 345.09064 310.04688 346.325Q310.04688 347.59064 310.53125 348.15314Q311.01562 348.71564 311.78125 348.71564Q312.40625 348.71564 312.8125 348.34064Q313.23438 347.96564 313.35938 347.16876ZM315.29688 349.45L315.29688 340.85626L316.35938 340.85626L316.35938 345.7625L318.84375 343.23126L320.21875 343.23126L317.82812 345.52814L320.45312 349.45L319.15625 349.45L317.09375 346.2625L316.35938 346.98126L316.35938 349.45L315.29688 349.45ZM323.875 347.59064L324.90625 347.4344Q325.0 348.0594 325.39062 348.3875Q325.79688 348.71564 326.53125 348.71564Q327.25 348.71564 327.59375 348.4344Q327.95312 348.1375 327.95312 347.73126Q327.95312 347.3719 327.64062 347.16876Q327.42188 347.02814 326.5625 346.8094Q325.40625 346.5125 324.95312 346.3094Q324.51562 346.09064 324.28125 345.71564Q324.04688 345.34064 324.04688 344.8719Q324.04688 344.46564 324.23438 344.10626Q324.42188 343.7469 324.75 343.5125Q325.0 343.34064 325.42188 343.21564Q325.84375 343.09064 326.34375 343.09064Q327.0625 343.09064 327.60938 343.3094Q328.17188 343.5125 328.4375 343.8719Q328.70312 344.23126 328.79688 344.825L327.76562 344.96564Q327.70312 344.4969 327.35938 344.23126Q327.03125 343.95 326.40625 343.95Q325.6875 343.95 325.375 344.2Q325.0625 344.4344 325.0625 344.7625Q325.0625 344.96564 325.1875 345.1219Q325.32812 345.29376 325.59375 345.40314Q325.75 345.46564 326.53125 345.66876Q327.65625 345.98126 328.09375 346.16876Q328.53125 346.35626 328.78125 346.71564Q329.03125 347.075 329.03125 347.6219Q329.03125 348.15314 328.71875 348.6219Q328.42188 349.075 327.84375 349.34064Q327.26562 349.59064 326.53125 349.59064Q325.3125 349.59064 324.67188 349.09064Q324.04688 348.575 323.875 347.59064ZM331.29688 342.075L331.29688 340.85626L332.35938 340.85626L332.35938 342.075L331.29688 342.075ZM331.29688 349.45L331.29688 343.23126L332.35938 343.23126L332.35938 349.45L331.29688 349.45ZM333.73438 349.45L333.73438 348.59064L337.70312 344.04376Q337.01562 344.075 336.5 344.075L333.96875 344.075L333.96875 343.23126L339.0625 343.23126L339.0625 343.91876L335.6875 347.8719L335.03125 348.59064Q335.75 348.54376 336.35938 348.54376L339.25 348.54376L339.25 349.45L333.73438 349.45ZM343.54688 347.45L344.64062 347.575Q344.39062 348.52814 343.6875 349.0594Q342.98438 349.59064 341.90625 349.59064Q340.54688 349.59064 339.73438 348.7469Q338.9375 347.90314 338.9375 346.3875Q338.9375 344.825 339.75 343.96564Q340.5625 343.09064 341.84375 343.09064Q343.09375 343.09064 343.875 343.9344Q344.67188 344.77814 344.67188 346.325Q344.67188 346.41876 344.67188 346.60626L340.03125 346.60626Q340.09375 347.6375 340.60938 348.1844Q341.125 348.71564 341.90625 348.71564Q342.48438 348.71564 342.89062 348.41876Q343.3125 348.10626 343.54688 347.45ZM340.09375 345.7469L343.5625 345.7469Q343.5 344.95 343.17188 344.5594Q342.65625 343.95 341.85938 343.95Q341.125 343.95 340.625 344.4344Q340.14062 344.91876 340.09375 345.7469ZM351.3125 351.98126Q350.4375 350.8719 349.82812 349.40314Q349.23438 347.91876 349.23438 346.34064Q349.23438 344.95 349.67188 343.66876Q350.20312 342.1844 351.3125 340.71564L352.0625 340.71564Q351.35938 341.9344 351.125 342.45Q350.76562 343.2625 350.5625 344.1375Q350.3125 345.23126 350.3125 346.34064Q350.3125 349.16876 352.0625 351.98126L351.3125 351.98126ZM354.26562 349.45L353.28125 349.45L353.28125 340.85626L354.34375 340.85626L354.34375 343.91876Q355.01562 343.09064 356.04688 343.09064Q356.625 343.09064 357.125 343.325Q357.64062 343.54376 357.96875 343.96564Q358.3125 344.3875 358.5 344.98126Q358.6875 345.575 358.6875 346.2469Q358.6875 347.84064 357.89062 348.71564Q357.09375 349.59064 356.0 349.59064Q354.89062 349.59064 354.26562 348.66876L354.26562 349.45ZM354.25 346.29376Q354.25 347.40314 354.5625 347.90314Q355.0625 348.71564 355.90625 348.71564Q356.59375 348.71564 357.09375 348.1219Q357.60938 347.52814 357.60938 346.325Q357.60938 345.10626 357.125 344.52814Q356.64062 343.95 355.95312 343.95Q355.26562 343.95 354.75 344.5594Q354.25 345.15314 354.25 346.29376ZM360.25 351.84064L360.125 350.85626Q360.46875 350.95 360.73438 350.95Q361.07812 350.95 361.28125 350.825Q361.5 350.71564 361.64062 350.5125Q361.73438 350.34064 361.96875 349.71564Q361.98438 349.6375 362.0625 349.46564L359.6875 343.23126L360.82812 343.23126L362.125 346.825Q362.375 347.5125 362.57812 348.27814Q362.76562 347.54376 363.01562 346.85626L364.34375 343.23126L365.39062 343.23126L363.03125 349.5594Q362.64062 350.575 362.4375 350.96564Q362.15625 351.4969 361.78125 351.73126Q361.42188 351.98126 360.92188 351.98126Q360.625 351.98126 360.25 351.84064ZM367.59375 348.5125L367.75 349.4344Q367.29688 349.52814 366.95312 349.52814Q366.375 349.52814 366.0625 349.35626Q365.75 349.16876 365.60938 348.8719Q365.48438 348.575 365.48438 347.6219L365.48438 344.04376L364.71875 344.04376L364.71875 343.23126L365.48438 343.23126L365.48438 341.6844L366.53125 341.0594L366.53125 343.23126L367.59375 343.23126L367.59375 344.04376L366.53125 344.04376L366.53125 347.6844Q366.53125 348.1375 366.57812 348.2625Q366.64062 348.3875 366.76562 348.46564Q366.89062 348.54376 367.125 348.54376Q367.3125 348.54376 367.59375 348.5125ZM372.54688 347.45L373.64062 347.575Q373.39062 348.52814 372.6875 349.0594Q371.98438 349.59064 370.90625 349.59064Q369.54688 349.59064 368.73438 348.7469Q367.9375 347.90314 367.9375 346.3875Q367.9375 344.825 368.75 343.96564Q369.5625 343.09064 370.84375 343.09064Q372.09375 343.09064 372.875 343.9344Q373.67188 344.77814 373.67188 346.325Q373.67188 346.41876 373.67188 346.60626L369.03125 346.60626Q369.09375 347.6375 369.60938 348.1844Q370.125 348.71564 370.90625 348.71564Q371.48438 348.71564 371.89062 348.41876Q372.3125 348.10626 372.54688 347.45ZM369.09375 345.7469L372.5625 345.7469Q372.5 344.95 372.17188 344.5594Q371.65625 343.95 370.85938 343.95Q370.125 343.95 369.625 344.4344Q369.14062 344.91876 369.09375 345.7469ZM374.875 347.59064L375.90625 347.4344Q376.0 348.0594 376.39062 348.3875Q376.79688 348.71564 377.53125 348.71564Q378.25 348.71564 378.59375 348.4344Q378.95312 348.1375 378.95312 347.73126Q378.95312 347.3719 378.64062 347.16876Q378.42188 347.02814 377.5625 346.8094Q376.40625 346.5125 375.95312 346.3094Q375.51562 346.09064 375.28125 345.71564Q375.04688 345.34064 375.04688 344.8719Q375.04688 344.46564 375.23438 344.10626Q375.42188 343.7469 375.75 343.5125Q376.0 343.34064 376.42188 343.21564Q376.84375 343.09064 377.34375 343.09064Q378.0625 343.09064 378.60938 343.3094Q379.17188 343.5125 379.4375 343.8719Q379.70312 344.23126 379.79688 344.825L378.76562 344.96564Q378.70312 344.4969 378.35938 344.23126Q378.03125 343.95 377.40625 343.95Q376.6875 343.95 376.375 344.2Q376.0625 344.4344 376.0625 344.7625Q376.0625 344.96564 376.1875 345.1219Q376.32812 345.29376 376.59375 345.40314Q376.75 345.46564 377.53125 345.66876Q378.65625 345.98126 379.09375 346.16876Q379.53125 346.35626 379.78125 346.71564Q380.03125 347.075 380.03125 347.6219Q380.03125 348.15314 379.71875 348.6219Q379.42188 349.075 378.84375 349.34064Q378.26562 349.59064 377.53125 349.59064Q376.3125 349.59064 375.67188 349.09064Q375.04688 348.575 374.875 347.59064ZM382.98438 351.98126L382.23438 351.98126Q383.98438 349.16876 383.98438 346.34064Q383.98438 345.2469 383.73438 344.15314Q383.53125 343.27814 383.17188 342.46564Q382.9375 341.95 382.23438 340.71564L382.98438 340.71564Q384.07812 342.1844 384.60938 343.66876Q385.0625 344.95 385.0625 346.34064Q385.0625 347.91876 384.45312 349.40314Q383.84375 350.8719 382.98438 351.98126Z" fill-rule="nonzero"/><path fill="#000000" d="M29.550013 281.74167L20.956263 281.74167L20.956263 280.61667L29.550013 280.61667L29.550013 281.74167ZM29.550013 279.0698L23.331263 279.0698L23.331263 278.1323L24.206263 278.1323Q23.190638 277.4448 23.190638 276.14792Q23.190638 275.58542 23.393763 275.11667Q23.596888 274.6323 23.925013 274.39792Q24.253138 274.16354 24.690638 274.0698Q24.987513 274.02292 25.721888 274.02292L29.550013 274.02292L29.550013 275.0698L25.768763 275.0698Q25.112513 275.0698 24.800013 275.1948Q24.487513 275.3198 24.300013 275.6323Q24.096888 275.9448 24.096888 276.36667Q24.096888 277.03854 24.534388 277.53854Q24.956263 278.02292 26.143763 278.02292L29.550013 278.02292L29.550013 279.0698ZM27.690638 272.49167L27.534388 271.46042Q28.159388 271.36667 28.487513 270.97604Q28.815638 270.5698 28.815638 269.83542Q28.815638 269.11667 28.534388 268.77292Q28.237513 268.41354 27.831263 268.41354Q27.471888 268.41354 27.268763 268.72604Q27.128138 268.9448 26.909388 269.80417Q26.612513 270.96042 26.409388 271.41354Q26.190638 271.85104 25.815638 272.08542Q25.440638 272.3198 24.971888 272.3198Q24.565638 272.3198 24.206263 272.1323Q23.846888 271.9448 23.612513 271.61667Q23.440638 271.36667 23.315638 270.9448Q23.190638 270.52292 23.190638 270.02292Q23.190638 269.30417 23.409388 268.7573Q23.612513 268.1948 23.971888 267.92917Q24.331263 267.66354 24.925013 267.5698L25.065638 268.60104Q24.596888 268.66354 24.331263 269.0073Q24.050013 269.33542 24.050013 269.96042Q24.050013 270.67917 24.300013 270.99167Q24.534388 271.30417 24.862513 271.30417Q25.065638 271.30417 25.221888 271.17917Q25.393763 271.03854 25.503138 270.77292Q25.565638 270.61667 25.768763 269.83542Q26.081263 268.71042 26.268763 268.27292Q26.456263 267.83542 26.815638 267.58542Q27.175013 267.33542 27.721888 267.33542Q28.253138 267.33542 28.721888 267.64792Q29.175013 267.9448 29.440638 268.52292Q29.690638 269.10104 29.690638 269.83542Q29.690638 271.05417 29.190638 271.6948Q28.675013 272.3198 27.690638 272.49167ZM28.612513 262.77292L29.534388 262.61667Q29.628138 263.0698 29.628138 263.41354Q29.628138 263.99167 29.456263 264.30417Q29.268763 264.61667 28.971888 264.7573Q28.675013 264.8823 27.721888 264.8823L24.143763 264.8823L24.143763 265.64792L23.331263 265.64792L23.331263 264.8823L21.784388 264.8823L21.159388 263.83542L23.331263 263.83542L23.331263 262.77292L24.143763 262.77292L24.143763 263.83542L27.784388 263.83542Q28.237513 263.83542 28.362513 263.78854Q28.487513 263.72604 28.565638 263.60104Q28.643763 263.47604 28.643763 263.24167Q28.643763 263.05417 28.612513 262.77292ZM29.550013 262.08542L23.331263 262.08542L23.331263 261.1323L24.268763 261.1323Q23.612513 260.77292 23.409388 260.47604Q23.190638 260.16354 23.190638 259.78854Q23.190638 259.2573 23.518763 258.71042L24.503138 259.0698Q24.268763 259.46042 24.268763 259.83542Q24.268763 260.1948 24.487513 260.47604Q24.690638 260.74167 25.065638 260.85104Q25.628138 261.03854 26.284388 261.03854L29.550013 261.03854L29.550013 262.08542ZM29.550013 253.99167L28.628138 253.99167Q29.690638 254.72604 29.690638 255.97604Q29.690638 256.52292 29.487513 257.0073Q29.268763 257.47604 28.956263 257.71042Q28.628138 257.9448 28.159388 258.03854Q27.862513 258.10104 27.175013 258.10104L23.331263 258.10104L23.331263 257.03854L26.784388 257.03854Q27.596888 257.03854 27.893763 256.97604Q28.300013 256.8823 28.550013 256.5698Q28.784388 256.24167 28.784388 255.7573Q28.784388 255.28854 28.550013 254.8823Q28.300013 254.46042 27.878138 254.28854Q27.456263 254.10104 26.659388 254.10104L23.331263 254.10104L23.331263 253.05417L29.550013 253.05417L29.550013 253.99167ZM27.268763 247.0073L27.409388 245.97604Q28.471888 246.14792 29.081263 246.85104Q29.690638 247.55417 29.690638 248.5698Q29.690638 249.85104 28.862513 250.6323Q28.018763 251.39792 26.456263 251.39792Q25.456263 251.39792 24.706263 251.0698Q23.940638 250.72604 23.565638 250.05417Q23.190638 249.36667 23.190638 248.55417Q23.190638 247.55417 23.706263 246.91354Q24.206263 246.2573 25.159388 246.0698L25.315638 247.10104Q24.690638 247.24167 24.378138 247.61667Q24.050013 247.99167 24.050013 248.52292Q24.050013 249.3198 24.628138 249.8198Q25.190638 250.3198 26.425013 250.3198Q27.690638 250.3198 28.253138 249.83542Q28.815638 249.35104 28.815638 248.58542Q28.815638 247.96042 28.440638 247.55417Q28.065638 247.1323 27.268763 247.0073ZM28.612513 242.77292L29.534388 242.61667Q29.628138 243.0698 29.628138 243.41354Q29.628138 243.99167 29.456263 244.30417Q29.268763 244.61667 28.971888 244.7573Q28.675013 244.8823 27.721888 244.8823L24.143763 244.8823L24.143763 245.64792L23.331263 245.64792L23.331263 244.8823L21.784388 244.8823L21.159388 243.83542L23.331263 243.83542L23.331263 242.77292L24.143763 242.77292L24.143763 243.83542L27.784388 243.83542Q28.237513 243.83542 28.362513 243.78854Q28.487513 243.72604 28.565638 243.60104Q28.643763 243.47604 28.643763 243.24167Q28.643763 243.05417 28.612513 242.77292ZM22.175013 242.0698L20.956263 242.0698L20.956263 241.0073L22.175013 241.0073L22.175013 242.0698ZM29.550013 242.0698L23.331263 242.0698L23.331263 241.0073L29.550013 241.0073L29.550013 242.0698ZM26.440638 239.46042Q24.706263 239.46042 23.878138 238.5073Q23.190638 237.71042 23.190638 236.55417Q23.190638 235.27292 24.034388 234.46042Q24.862513 233.6323 26.346888 233.6323Q27.550013 233.6323 28.237513 233.99167Q28.925013 234.35104 29.315638 235.05417Q29.690638 235.74167 29.690638 236.55417Q29.690638 237.85104 28.862513 238.66354Q28.018763 239.46042 26.440638 239.46042ZM26.440638 238.3823Q27.628138 238.3823 28.221888 237.86667Q28.815638 237.33542 28.815638 236.55417Q28.815638 235.7573 28.221888 235.24167Q27.628138 234.72604 26.409388 234.72604Q25.253138 234.72604 24.659388 235.2573Q24.065638 235.77292 24.065638 236.55417Q24.065638 237.33542 24.659388 237.86667Q25.237513 238.3823 26.440638 238.3823ZM29.550013 232.0698L23.331263 232.0698L23.331263 231.1323L24.206263 231.1323Q23.190638 230.4448 23.190638 229.14792Q23.190638 228.58542 23.393763 228.11667Q23.596888 227.6323 23.925013 227.39792Q24.253138 227.16354 24.690638 227.0698Q24.987513 227.02292 25.721888 227.02292L29.550013 227.02292L29.550013 228.0698L25.768763 228.0698Q25.112513 228.0698 24.800013 228.1948Q24.487513 228.3198 24.300013 228.6323Q24.096888 228.9448 24.096888 229.36667Q24.096888 230.03854 24.534388 230.53854Q24.956263 231.02292 26.143763 231.02292L29.550013 231.02292L29.550013 232.0698ZM27.550013 217.8198L27.675013 216.72604Q28.628138 216.97604 29.159388 217.67917Q29.690638 218.3823 29.690638 219.46042Q29.690638 220.8198 28.846888 221.6323Q28.003138 222.42917 26.487513 222.42917Q24.925013 222.42917 24.065638 221.61667Q23.190638 220.80417 23.190638 219.52292Q23.190638 218.27292 24.034388 217.49167Q24.878138 216.6948 26.425013 216.6948Q26.518763 216.6948 26.706263 216.6948L26.706263 221.33542Q27.737513 221.27292 28.284388 220.7573Q28.815638 220.24167 28.815638 219.46042Q28.815638 218.8823 28.518763 218.47604Q28.206263 218.05417 27.550013 217.8198ZM25.846888 221.27292L25.846888 217.80417Q25.050013 217.86667 24.659388 218.1948Q24.050013 218.71042 24.050013 219.5073Q24.050013 220.24167 24.534388 220.74167Q25.018763 221.22604 25.846888 221.27292ZM29.550013 215.77292L26.315638 213.5073L23.331263 215.60104L23.331263 214.28854L24.784388 213.33542Q25.206263 213.0698 25.487513 212.89792Q25.096888 212.64792 24.800013 212.42917L23.331263 211.3823L23.331263 210.11667L26.253138 212.27292L29.550013 209.96042L29.550013 211.24167L27.612513 212.52292L27.096888 212.86667L29.550013 214.5073L29.550013 215.77292ZM27.550013 205.8198L27.675013 204.72604Q28.628138 204.97604 29.159388 205.67917Q29.690638 206.3823 29.690638 207.46042Q29.690638 208.8198 28.846888 209.6323Q28.003138 210.42917 26.487513 210.42917Q24.925013 210.42917 24.065638 209.61667Q23.190638 208.80417 23.190638 207.52292Q23.190638 206.27292 24.034388 205.49167Q24.878138 204.6948 26.425013 204.6948Q26.518763 204.6948 26.706263 204.6948L26.706263 209.33542Q27.737513 209.27292 28.284388 208.7573Q28.815638 208.24167 28.815638 207.46042Q28.815638 206.8823 28.518763 206.47604Q28.206263 206.05417 27.550013 205.8198ZM25.846888 209.27292L25.846888 205.80417Q25.050013 205.86667 24.659388 206.1948Q24.050013 206.71042 24.050013 207.5073Q24.050013 208.24167 24.534388 208.74167Q25.018763 209.22604 25.846888 209.27292ZM27.268763 199.0073L27.409388 197.97604Q28.471888 198.14792 29.081263 198.85104Q29.690638 199.55417 29.690638 200.5698Q29.690638 201.85104 28.862513 202.6323Q28.018763 203.39792 26.456263 203.39792Q25.456263 203.39792 24.706263 203.0698Q23.940638 202.72604 23.565638 202.05417Q23.190638 201.36667 23.190638 200.55417Q23.190638 199.55417 23.706263 198.91354Q24.206263 198.2573 25.159388 198.0698L25.315638 199.10104Q24.690638 199.24167 24.378138 199.61667Q24.050013 199.99167 24.050013 200.52292Q24.050013 201.3198 24.628138 201.8198Q25.190638 202.3198 26.425013 202.3198Q27.690638 202.3198 28.253138 201.83542Q28.815638 201.35104 28.815638 200.58542Q28.815638 199.96042 28.440638 199.55417Q28.065638 199.1323 27.268763 199.0073ZM29.550013 192.99167L28.628138 192.99167Q29.690638 193.72604 29.690638 194.97604Q29.690638 195.52292 29.487513 196.0073Q29.268763 196.47604 28.956263 196.71042Q28.628138 196.9448 28.159388 197.03854Q27.862513 197.10104 27.175013 197.10104L23.331263 197.10104L23.331263 196.03854L26.784388 196.03854Q27.596888 196.03854 27.893763 195.97604Q28.300013 195.8823 28.550013 195.5698Q28.784388 195.24167 28.784388 194.7573Q28.784388 194.28854 28.550013 193.8823Q28.300013 193.46042 27.878138 193.28854Q27.456263 193.10104 26.659388 193.10104L23.331263 193.10104L23.331263 192.05417L29.550013 192.05417L29.550013 192.99167ZM28.612513 187.77292L29.534388 187.61667Q29.628138 188.0698 29.628138 188.41354Q29.628138 188.99167 29.456263 189.30417Q29.268763 189.61667 28.971888 189.7573Q28.675013 189.8823 27.721888 189.8823L24.143763 189.8823L24.143763 190.64792L23.331263 190.64792L23.331263 189.8823L21.784388 189.8823L21.159388 188.83542L23.331263 188.83542L23.331263 187.77292L24.143763 187.77292L24.143763 188.83542L27.784388 188.83542Q28.237513 188.83542 28.362513 188.78854Q28.487513 188.72604 28.565638 188.60104Q28.643763 188.47604 28.643763 188.24167Q28.643763 188.05417 28.612513 187.77292ZM22.175013 187.0698L20.956263 187.0698L20.956263 186.0073L22.175013 186.0073L22.175013 187.0698ZM29.550013 187.0698L23.331263 187.0698L23.331263 186.0073L29.550013 186.0073L29.550013 187.0698ZM26.440638 184.46042Q24.706263 184.46042 23.878138 183.5073Q23.190638 182.71042 23.190638 181.55417Q23.190638 180.27292 24.034388 179.46042Q24.862513 178.6323 26.346888 178.6323Q27.550013 178.6323 28.237513 178.99167Q28.925013 179.35104 29.315638 180.05417Q29.690638 180.74167 29.690638 181.55417Q29.690638 182.85104 28.862513 183.66354Q28.018763 184.46042 26.440638 184.46042ZM26.440638 183.3823Q27.628138 183.3823 28.221888 182.86667Q28.815638 182.33542 28.815638 181.55417Q28.815638 180.7573 28.221888 180.24167Q27.628138 179.72604 26.409388 179.72604Q25.253138 179.72604 24.659388 180.2573Q24.065638 180.77292 24.065638 181.55417Q24.065638 182.33542 24.659388 182.86667Q25.237513 183.3823 26.440638 183.3823ZM29.550013 177.0698L23.331263 177.0698L23.331263 176.1323L24.206263 176.1323Q23.190638 175.4448 23.190638 174.14792Q23.190638 173.58542 23.393763 173.11667Q23.596888 172.6323 23.925013 172.39792Q24.253138 172.16354 24.690638 172.0698Q24.987513 172.02292 25.721888 172.02292L29.550013 172.02292L29.550013 173.0698L25.768763 173.0698Q25.112513 173.0698 24.800013 173.1948Q24.487513 173.3198 24.300013 173.6323Q24.096888 173.9448 24.096888 174.36667Q24.096888 175.03854 24.534388 175.53854Q24.956263 176.02292 26.143763 176.02292L29.550013 176.02292L29.550013 177.0698ZM28.612513 164.77292L29.534388 164.61667Q29.628138 165.0698 29.628138 165.41354Q29.628138 165.99167 29.456263 166.30417Q29.268763 166.61667 28.971888 166.7573Q28.675013 166.8823 27.721888 166.8823L24.143763 166.8823L24.143763 167.64792L23.331263 167.64792L23.331263 166.8823L21.784388 166.8823L21.159388 165.83542L23.331263 165.83542L23.331263 164.77292L24.143763 164.77292L24.143763 165.83542L27.784388 165.83542Q28.237513 165.83542 28.362513 165.78854Q28.487513 165.72604 28.565638 165.60104Q28.643763 165.47604 28.643763 165.24167Q28.643763 165.05417 28.612513 164.77292ZM22.175013 164.0698L20.956263 164.0698L20.956263 163.0073L22.175013 163.0073L22.175013 164.0698ZM29.550013 164.0698L23.331263 164.0698L23.331263 163.0073L29.550013 163.0073L29.550013 164.0698ZM29.550013 161.0698L23.331263 161.0698L23.331263 160.1323L24.206263 160.1323Q23.737513 159.83542 23.471888 159.35104Q23.190638 158.86667 23.190638 158.24167Q23.190638 157.55417 23.471888 157.11667Q23.753138 156.66354 24.268763 156.49167Q23.190638 155.74167 23.190638 154.5698Q23.190638 153.6323 23.706263 153.14792Q24.206263 152.64792 25.284388 152.64792L29.550013 152.64792L29.550013 153.6948L25.628138 153.6948Q25.003138 153.6948 24.721888 153.80417Q24.440638 153.89792 24.268763 154.16354Q24.096888 154.42917 24.096888 154.80417Q24.096888 155.46042 24.534388 155.89792Q24.971888 156.3198 25.940638 156.3198L29.550013 156.3198L29.550013 157.3823L25.503138 157.3823Q24.800013 157.3823 24.456263 157.64792Q24.096888 157.89792 24.096888 158.47604Q24.096888 158.92917 24.331263 159.30417Q24.565638 159.67917 25.018763 159.85104Q25.471888 160.02292 26.315638 160.02292L29.550013 160.02292L29.550013 161.0698ZM27.550013 145.8198L27.675013 144.72604Q28.628138 144.97604 29.159388 145.67917Q29.690638 146.3823 29.690638 147.46042Q29.690638 148.8198 28.846888 149.6323Q28.003138 150.42917 26.487513 150.42917Q24.925013 150.42917 24.065638 149.61667Q23.190638 148.80417 23.190638 147.52292Q23.190638 146.27292 24.034388 145.49167Q24.878138 144.6948 26.425013 144.6948Q26.518763 144.6948 26.706263 144.6948L26.706263 149.33542Q27.737513 149.27292 28.284388 148.7573Q28.815638 148.24167 28.815638 147.46042Q28.815638 146.8823 28.518763 146.47604Q28.206263 146.05417 27.550013 145.8198ZM25.846888 149.27292L25.846888 145.80417Q25.050013 145.86667 24.659388 146.1948Q24.050013 146.71042 24.050013 147.5073Q24.050013 148.24167 24.534388 148.74167Q25.018763 149.22604 25.846888 149.27292ZM32.08126 138.05417Q30.971888 138.92917 29.503138 139.53854Q28.018763 140.1323 26.440638 140.1323Q25.050013 140.1323 23.768763 139.6948Q22.284388 139.16354 20.815638 138.05417L20.815638 137.30417Q22.034388 138.0073 22.550013 138.24167Q23.362513 138.60104 24.237513 138.80417Q25.331263 139.05417 26.440638 139.05417Q29.268763 139.05417 32.08126 137.30417L32.08126 138.05417ZM29.550013 136.0698L23.331263 136.0698L23.331263 135.1323L24.206263 135.1323Q23.190638 134.4448 23.190638 133.14792Q23.190638 132.58542 23.393763 132.11667Q23.596888 131.6323 23.925013 131.39792Q24.253138 131.16354 24.690638 131.0698Q24.987513 131.02292 25.721888 131.02292L29.550013 131.02292L29.550013 132.0698L25.768763 132.0698Q25.112513 132.0698 24.800013 132.1948Q24.487513 132.3198 24.300013 132.6323Q24.096888 132.9448 24.096888 133.36667Q24.096888 134.03854 24.534388 134.53854Q24.956263 135.02292 26.143763 135.02292L29.550013 135.02292L29.550013 136.0698ZM27.690638 129.49167L27.534388 128.46042Q28.159388 128.36667 28.487513 127.97604Q28.815638 127.56979 28.815638 126.83542Q28.815638 126.11667 28.534388 125.77292Q28.237513 125.41354 27.831263 125.41354Q27.471888 125.41354 27.268763 125.72604Q27.128138 125.94479 26.909388 126.80417Q26.612513 127.96042 26.409388 128.41354Q26.190638 128.85104 25.815638 129.08542Q25.440638 129.3198 24.971888 129.3198Q24.565638 129.3198 24.206263 129.1323Q23.846888 128.9448 23.612513 128.61667Q23.440638 128.36667 23.315638 127.94479Q23.190638 127.52292 23.190638 127.02292Q23.190638 126.30417 23.409388 125.75729Q23.612513 125.19479 23.971888 124.92917Q24.331263 124.66354 24.925013 124.56979L25.065638 125.60104Q24.596888 125.66354 24.331263 126.00729Q24.050013 126.33542 24.050013 126.96042Q24.050013 127.67917 24.300013 127.99167Q24.534388 128.30417 24.862513 128.30417Q25.065638 128.30417 25.221888 128.17917Q25.393763 128.03854 25.503138 127.77292Q25.565638 127.61667 25.768763 126.83542Q26.081263 125.71042 26.268763 125.27292Q26.456263 124.83542 26.815638 124.58542Q27.175013 124.33542 27.721888 124.33542Q28.253138 124.33542 28.721888 124.64792Q29.175013 124.94479 29.440638 125.52292Q29.690638 126.10104 29.690638 126.83542Q29.690638 128.05417 29.190638 128.6948Q28.675013 129.3198 27.690638 129.49167ZM32.08126 121.38229L32.08126 122.13229Q29.268763 120.38229 26.440638 120.38229Q25.346888 120.38229 24.253138 120.63229Q23.378138 120.83542 22.565638 121.19479Q22.050013 121.42917 20.815638 122.13229L20.815638 121.38229Q22.284388 120.28854 23.768763 119.75729Q25.050013 119.30417 26.440638 119.30417Q28.018763 119.30417 29.503138 119.91354Q30.971888 120.52292 32.08126 121.38229Z" fill-rule="nonzero"/><path fill="#000000" d="M84.925 301.8719L84.925 300.8094L88.175 300.8094L88.175 301.8719L84.925 301.8719Z" fill-rule="nonzero"/><path fill="#000000" d="M58.05 249.15834L59.159374 249.06459Q59.284374 249.87709 59.721874 250.28334Q60.175 250.68959 60.815624 250.68959Q61.565624 250.68959 62.096874 250.11147Q62.628124 249.53334 62.628124 248.59584Q62.628124 247.68959 62.1125 247.17397Q61.6125 246.64272 60.784374 246.64272Q60.284374 246.64272 59.8625 246.87709Q59.45625 247.11147 59.221874 247.47084L58.2375 247.34584L59.065624 242.93959L63.346874 242.93959L63.346874 243.93959L59.909374 243.93959L59.45625 246.25209Q60.221874 245.70522 61.065624 245.70522Q62.190624 245.70522 62.95625 246.48647Q63.7375 247.26772 63.7375 248.50209Q63.7375 249.65834 63.065624 250.51772Q62.2375 251.54897 60.815624 251.54897Q59.64375 251.54897 58.89375 250.89272Q58.159374 250.23647 58.05 249.15834ZM65.05 247.17397Q65.05 245.64272 65.3625 244.72084Q65.675 243.78334 66.28438 243.28334Q66.90938 242.78334 67.84688 242.78334Q68.53438 242.78334 69.05 243.06459Q69.58125 243.34584 69.925 243.87709Q70.26875 244.39272 70.45625 245.14272Q70.64375 245.89272 70.64375 247.17397Q70.64375 248.68959 70.33125 249.61147Q70.03438 250.53334 69.40938 251.04897Q68.8 251.54897 67.84688 251.54897Q66.6125 251.54897 65.89375 250.65834Q65.05 249.59584 65.05 247.17397ZM66.12813 247.17397Q66.12813 249.28334 66.62813 249.98647Q67.12813 250.68959 67.84688 250.68959Q68.58125 250.68959 69.06563 249.98647Q69.56563 249.28334 69.56563 247.17397Q69.56563 245.04897 69.06563 244.36147Q68.58125 243.65834 67.83125 243.65834Q67.1125 243.65834 66.675 244.26772Q66.12813 245.04897 66.12813 247.17397ZM72.64375 251.40834L72.64375 250.20522L73.84688 250.20522L73.84688 251.40834L72.64375 251.40834ZM75.05 247.17397Q75.05 245.64272 75.3625 244.72084Q75.675 243.78334 76.28438 243.28334Q76.90938 242.78334 77.84688 242.78334Q78.53438 242.78334 79.05 243.06459Q79.58125 243.34584 79.925 243.87709Q80.26875 244.39272 80.45625 245.14272Q80.64375 245.89272 80.64375 247.17397Q80.64375 248.68959 80.33125 249.61147Q80.03438 250.53334 79.40938 251.04897Q78.8 251.54897 77.84688 251.54897Q76.6125 251.54897 75.89375 250.65834Q75.05 249.59584 75.05 247.17397ZM76.12813 247.17397Q76.12813 249.28334 76.62813 249.98647Q77.12813 250.68959 77.84688 250.68959Q78.58125 250.68959 79.06563 249.98647Q79.56563 249.28334 79.56563 247.17397Q79.56563 245.04897 79.06563 244.36147Q78.58125 243.65834 77.83125 243.65834Q77.1125 243.65834 76.675 244.26772Q76.12813 245.04897 76.12813 247.17397ZM82.05 247.17397Q82.05 245.64272 82.3625 244.72084Q82.675 243.78334 83.28438 243.28334Q83.90938 242.78334 84.84688 242.78334Q85.53438 242.78334 86.05 243.06459Q86.58125 243.34584 86.925 243.87709Q87.26875 244.39272 87.45625 245.14272Q87.64375 245.89272 87.64375 247.17397Q87.64375 248.68959 87.33125 249.61147Q87.03438 250.53334 86.40938 251.04897Q85.8 251.54897 84.84688 251.54897Q83.6125 251.54897 82.89375 250.65834Q82.05 249.59584 82.05 247.17397ZM83.12813 247.17397Q83.12813 249.28334 83.62813 249.98647Q84.12813 250.68959 84.84688 250.68959Q85.58125 250.68959 86.06563 249.98647Q86.56563 249.28334 86.56563 247.17397Q86.56563 245.04897 86.06563 244.36147Q85.58125 243.65834 84.83125 243.65834Q84.1125 243.65834 83.675 244.26772Q83.12813 245.04897 83.12813 247.17397Z" fill-rule="nonzero"/><path fill="#000000" d="M55.01875 198.36667L53.971874 198.36667L53.971874 191.64792Q53.58125 192.0073 52.95625 192.3823Q52.346874 192.74167 51.8625 192.91354L51.8625 191.89792Q52.7375 191.47604 53.39375 190.89792Q54.065624 190.30417 54.346874 189.74167L55.01875 189.74167L55.01875 198.36667ZM58.05 194.1323Q58.05 192.60104 58.3625 191.67917Q58.675 190.74167 59.284374 190.24167Q59.909374 189.74167 60.846874 189.74167Q61.534374 189.74167 62.05 190.02292Q62.58125 190.30417 62.925 190.83542Q63.26875 191.35104 63.45625 192.10104Q63.64375 192.85104 63.64375 194.1323Q63.64375 195.64792 63.33125 196.5698Q63.034374 197.49167 62.409374 198.0073Q61.8 198.5073 60.846874 198.5073Q59.6125 198.5073 58.89375 197.61667Q58.05 196.55417 58.05 194.1323ZM59.128124 194.1323Q59.128124 196.24167 59.628124 196.9448Q60.128124 197.64792 60.846874 197.64792Q61.58125 197.64792 62.065624 196.9448Q62.565624 196.24167 62.565624 194.1323Q62.565624 192.0073 62.065624 191.3198Q61.58125 190.61667 60.83125 190.61667Q60.1125 190.61667 59.675 191.22604Q59.128124 192.0073 59.128124 194.1323ZM65.05 194.1323Q65.05 192.60104 65.3625 191.67917Q65.675 190.74167 66.28438 190.24167Q66.90938 189.74167 67.84688 189.74167Q68.53438 189.74167 69.05 190.02292Q69.58125 190.30417 69.925 190.83542Q70.26875 191.35104 70.45625 192.10104Q70.64375 192.85104 70.64375 194.1323Q70.64375 195.64792 70.33125 196.5698Q70.03438 197.49167 69.40938 198.0073Q68.8 198.5073 67.84688 198.5073Q66.6125 198.5073 65.89375 197.61667Q65.05 196.55417 65.05 194.1323ZM66.12813 194.1323Q66.12813 196.24167 66.62813 196.9448Q67.12813 197.64792 67.84688 197.64792Q68.58125 197.64792 69.06563 196.9448Q69.56563 196.24167 69.56563 194.1323Q69.56563 192.0073 69.06563 191.3198Q68.58125 190.61667 67.83125 190.61667Q67.1125 190.61667 66.675 191.22604Q66.12813 192.0073 66.12813 194.1323ZM72.64375 198.36667L72.64375 197.16354L73.84688 197.16354L73.84688 198.36667L72.64375 198.36667ZM75.05 194.1323Q75.05 192.60104 75.3625 191.67917Q75.675 190.74167 76.28438 190.24167Q76.90938 189.74167 77.84688 189.74167Q78.53438 189.74167 79.05 190.02292Q79.58125 190.30417 79.925 190.83542Q80.26875 191.35104 80.45625 192.10104Q80.64375 192.85104 80.64375 194.1323Q80.64375 195.64792 80.33125 196.5698Q80.03438 197.49167 79.40938 198.0073Q78.8 198.5073 77.84688 198.5073Q76.6125 198.5073 75.89375 197.61667Q75.05 196.55417 75.05 194.1323ZM76.12813 194.1323Q76.12813 196.24167 76.62813 196.9448Q77.12813 197.64792 77.84688 197.64792Q78.58125 197.64792 79.06563 196.9448Q79.56563 196.24167 79.56563 194.1323Q79.56563 192.0073 79.06563 191.3198Q78.58125 190.61667 77.83125 190.61667Q77.1125 190.61667 76.675 191.22604Q76.12813 192.0073 76.12813 194.1323ZM82.05 194.1323Q82.05 192.60104 82.3625 191.67917Q82.675 190.74167 83.28438 190.24167Q83.90938 189.74167 84.84688 189.74167Q85.53438 189.74167 86.05 190.02292Q86.58125 190.30417 86.925 190.83542Q87.26875 191.35104 87.45625 192.10104Q87.64375 192.85104 87.64375 194.1323Q87.64375 195.64792 87.33125 196.5698Q87.03438 197.49167 86.40938 198.0073Q85.8 198.5073 84.84688 198.5073Q83.6125 198.5073 82.89375 197.61667Q82.05 196.55417 82.05 194.1323ZM83.12813 194.1323Q83.12813 196.24167 83.62813 196.9448Q84.12813 197.64792 84.84688 197.64792Q85.58125 197.64792 86.06563 196.9448Q86.56563 196.24167 86.56563 194.1323Q86.56563 192.0073 86.06563 191.3198Q85.58125 190.61667 84.83125 190.61667Q84.1125 190.61667 83.675 191.22604Q83.12813 192.0073 83.12813 194.1323Z" fill-rule="nonzero"/><path fill="#000000" d="M55.01875 145.325L53.971874 145.325L53.971874 138.60625Q53.58125 138.96562 52.95625 139.34062Q52.346874 139.7 51.8625 139.87187L51.8625 138.85625Q52.7375 138.43437 53.39375 137.85625Q54.065624 137.2625 54.346874 136.7L55.01875 136.7L55.01875 145.325ZM58.05 143.075L59.159374 142.98125Q59.284374 143.79375 59.721874 144.2Q60.175 144.60625 60.815624 144.60625Q61.565624 144.60625 62.096874 144.02812Q62.628124 143.45 62.628124 142.5125Q62.628124 141.60625 62.1125 141.09062Q61.6125 140.55937 60.784374 140.55937Q60.284374 140.55937 59.8625 140.79375Q59.45625 141.02812 59.221874 141.3875L58.2375 141.2625L59.065624 136.85625L63.346874 136.85625L63.346874 137.85625L59.909374 137.85625L59.45625 140.16875Q60.221874 139.62187 61.065624 139.62187Q62.190624 139.62187 62.95625 140.40312Q63.7375 141.18437 63.7375 142.41875Q63.7375 143.575 63.065624 144.43437Q62.2375 145.46562 60.815624 145.46562Q59.64375 145.46562 58.89375 144.80937Q58.159374 144.15312 58.05 143.075ZM65.05 141.09062Q65.05 139.55937 65.3625 138.6375Q65.675 137.7 66.28438 137.2Q66.90938 136.7 67.84688 136.7Q68.53438 136.7 69.05 136.98125Q69.58125 137.2625 69.925 137.79375Q70.26875 138.30937 70.45625 139.05937Q70.64375 139.80937 70.64375 141.09062Q70.64375 142.60625 70.33125 143.52812Q70.03438 144.45 69.40938 144.96562Q68.8 145.46562 67.84688 145.46562Q66.6125 145.46562 65.89375 144.575Q65.05 143.5125 65.05 141.09062ZM66.12813 141.09062Q66.12813 143.2 66.62813 143.90312Q67.12813 144.60625 67.84688 144.60625Q68.58125 144.60625 69.06563 143.90312Q69.56563 143.2 69.56563 141.09062Q69.56563 138.96562 69.06563 138.27812Q68.58125 137.575 67.83125 137.575Q67.1125 137.575 66.675 138.18437Q66.12813 138.96562 66.12813 141.09062ZM72.64375 145.325L72.64375 144.12187L73.84688 144.12187L73.84688 145.325L72.64375 145.325ZM75.05 141.09062Q75.05 139.55937 75.3625 138.6375Q75.675 137.7 76.28438 137.2Q76.90938 136.7 77.84688 136.7Q78.53438 136.7 79.05 136.98125Q79.58125 137.2625 79.925 137.79375Q80.26875 138.30937 80.45625 139.05937Q80.64375 139.80937 80.64375 141.09062Q80.64375 142.60625 80.33125 143.52812Q80.03438 144.45 79.40938 144.96562Q78.8 145.46562 77.84688 145.46562Q76.6125 145.46562 75.89375 144.575Q75.05 143.5125 75.05 141.09062ZM76.12813 141.09062Q76.12813 143.2 76.62813 143.90312Q77.12813 144.60625 77.84688 144.60625Q78.58125 144.60625 79.06563 143.90312Q79.56563 143.2 79.56563 141.09062Q79.56563 138.96562 79.06563 138.27812Q78.58125 137.575 77.83125 137.575Q77.1125 137.575 76.675 138.18437Q76.12813 138.96562 76.12813 141.09062ZM82.05 141.09062Q82.05 139.55937 82.3625 138.6375Q82.675 137.7 83.28438 137.2Q83.90938 136.7 84.84688 136.7Q85.53438 136.7 86.05 136.98125Q86.58125 137.2625 86.925 137.79375Q87.26875 138.30937 87.45625 139.05937Q87.64375 139.80937 87.64375 141.09062Q87.64375 142.60625 87.33125 143.52812Q87.03438 144.45 86.40938 144.96562Q85.8 145.46562 84.84688 145.46562Q83.6125 145.46562 82.89375 144.575Q82.05 143.5125 82.05 141.09062ZM83.12813 141.09062Q83.12813 143.2 83.62813 143.90312Q84.12813 144.60625 84.84688 144.60625Q85.58125 144.60625 86.06563 143.90312Q86.56563 143.2 86.56563 141.09062Q86.56563 138.96562 86.06563 138.27812Q85.58125 137.575 84.83125 137.575Q84.1125 137.575 83.675 138.18437Q83.12813 138.96562 83.12813 141.09062Z" fill-rule="nonzero"/><path fill="#000000" d="M56.596874 91.26771L56.596874 92.28333L50.909374 92.28333Q50.909374 91.90833 51.034374 91.54896Q51.253124 90.97083 51.721874 90.40833Q52.20625 89.84583 53.1125 89.11146Q54.51875 87.95521 55.003124 87.28333Q55.503124 86.61146 55.503124 86.01771Q55.503124 85.39271 55.05 84.97083Q54.596874 84.53333 53.878124 84.53333Q53.1125 84.53333 52.659374 84.98646Q52.20625 85.43958 52.190624 86.25208L51.1125 86.14271Q51.221874 84.92396 51.940624 84.29896Q52.675 83.65833 53.909374 83.65833Q55.14375 83.65833 55.8625 84.34583Q56.58125 85.03333 56.58125 86.04896Q56.58125 86.56458 56.3625 87.06458Q56.159374 87.54896 55.659374 88.11146Q55.175 88.65833 54.05 89.61146Q53.096874 90.40833 52.815624 90.70521Q52.55 90.98646 52.378124 91.26771L56.596874 91.26771ZM58.05 88.04896Q58.05 86.51771 58.3625 85.59583Q58.675 84.65833 59.284374 84.15833Q59.909374 83.65833 60.846874 83.65833Q61.534374 83.65833 62.05 83.93958Q62.58125 84.22083 62.925 84.75208Q63.26875 85.26771 63.45625 86.01771Q63.64375 86.76771 63.64375 88.04896Q63.64375 89.56458 63.33125 90.48646Q63.034374 91.40833 62.409374 91.92396Q61.8 92.42396 60.846874 92.42396Q59.6125 92.42396 58.89375 91.53333Q58.05 90.47083 58.05 88.04896ZM59.128124 88.04896Q59.128124 90.15833 59.628124 90.86146Q60.128124 91.56458 60.846874 91.56458Q61.58125 91.56458 62.065624 90.86146Q62.565624 90.15833 62.565624 88.04896Q62.565624 85.92396 62.065624 85.23646Q61.58125 84.53333 60.83125 84.53333Q60.1125 84.53333 59.675 85.14271Q59.128124 85.92396 59.128124 88.04896ZM65.05 88.04896Q65.05 86.51771 65.3625 85.59583Q65.675 84.65833 66.28438 84.15833Q66.90938 83.65833 67.84688 83.65833Q68.53438 83.65833 69.05 83.93958Q69.58125 84.22083 69.925 84.75208Q70.26875 85.26771 70.45625 86.01771Q70.64375 86.76771 70.64375 88.04896Q70.64375 89.56458 70.33125 90.48646Q70.03438 91.40833 69.40938 91.92396Q68.8 92.42396 67.84688 92.42396Q66.6125 92.42396 65.89375 91.53333Q65.05 90.47083 65.05 88.04896ZM66.12813 88.04896Q66.12813 90.15833 66.62813 90.86146Q67.12813 91.56458 67.84688 91.56458Q68.58125 91.56458 69.06563 90.86146Q69.56563 90.15833 69.56563 88.04896Q69.56563 85.92396 69.06563 85.23646Q68.58125 84.53333 67.83125 84.53333Q67.1125 84.53333 66.675 85.14271Q66.12813 85.92396 66.12813 88.04896ZM72.64375 92.28333L72.64375 91.08021L73.84688 91.08021L73.84688 92.28333L72.64375 92.28333ZM75.05 88.04896Q75.05 86.51771 75.3625 85.59583Q75.675 84.65833 76.28438 84.15833Q76.90938 83.65833 77.84688 83.65833Q78.53438 83.65833 79.05 83.93958Q79.58125 84.22083 79.925 84.75208Q80.26875 85.26771 80.45625 86.01771Q80.64375 86.76771 80.64375 88.04896Q80.64375 89.56458 80.33125 90.48646Q80.03438 91.40833 79.40938 91.92396Q78.8 92.42396 77.84688 92.42396Q76.6125 92.42396 75.89375 91.53333Q75.05 90.47083 75.05 88.04896ZM76.12813 88.04896Q76.12813 90.15833 76.62813 90.86146Q77.12813 91.56458 77.84688 91.56458Q78.58125 91.56458 79.06563 90.86146Q79.56563 90.15833 79.56563 88.04896Q79.56563 85.92396 79.06563 85.23646Q78.58125 84.53333 77.83125 84.53333Q77.1125 84.53333 76.675 85.14271Q76.12813 85.92396 76.12813 88.04896ZM82.05 88.04896Q82.05 86.51771 82.3625 85.59583Q82.675 84.65833 83.28438 84.15833Q83.90938 83.65833 84.84688 83.65833Q85.53438 83.65833 86.05 83.93958Q86.58125 84.22083 86.925 84.75208Q87.26875 85.26771 87.45625 86.01771Q87.64375 86.76771 87.64375 88.04896Q87.64375 89.56458 87.33125 90.48646Q87.03438 91.40833 86.40938 91.92396Q85.8 92.42396 84.84688 92.42396Q83.6125 92.42396 82.89375 91.53333Q82.05 90.47083 82.05 88.04896ZM83.12813 88.04896Q83.12813 90.15833 83.62813 90.86146Q84.12813 91.56458 84.84688 91.56458Q85.58125 91.56458 86.06563 90.86146Q86.56563 90.15833 86.56563 88.04896Q86.56563 85.92396 86.06563 85.23646Q85.58125 84.53333 84.83125 84.53333Q84.1125 84.53333 83.675 85.14271Q83.12813 85.92396 83.12813 88.04896Z" fill-rule="nonzero"/><path fill="#000000" d="M95.51875 317.45L94.47188 317.45L94.47188 310.73126Q94.08125 311.09064 93.45625 311.46564Q92.84688 311.825 92.3625 311.9969L92.3625 310.98126Q93.2375 310.5594 93.89375 309.98126Q94.56563 309.3875 94.84688 308.825L95.51875 308.825L95.51875 317.45Z" fill-rule="nonzero"/><path fill="#000000" d="M239.05937 317.45L238.0125 317.45L238.0125 310.73126Q237.62187 311.09064 236.99687 311.46564Q236.3875 311.825 235.90312 311.9969L235.90312 310.98126Q236.77812 310.5594 237.43437 309.98126Q238.10625 309.3875 238.3875 308.825L239.05937 308.825L239.05937 317.45ZM242.09062 313.21564Q242.09062 311.6844 242.40312 310.7625Q242.71562 309.825 243.325 309.325Q243.95 308.825 244.8875 308.825Q245.575 308.825 246.09062 309.10626Q246.62187 309.3875 246.96562 309.91876Q247.30937 310.4344 247.49687 311.1844Q247.68437 311.9344 247.68437 313.21564Q247.68437 314.73126 247.37187 315.65314Q247.075 316.575 246.45 317.09064Q245.84062 317.59064 244.8875 317.59064Q243.65312 317.59064 242.93437 316.7Q242.09062 315.6375 242.09062 313.21564ZM243.16875 313.21564Q243.16875 315.325 243.66875 316.02814Q244.16875 316.73126 244.8875 316.73126Q245.62187 316.73126 246.10625 316.02814Q246.60625 315.325 246.60625 313.21564Q246.60625 311.09064 246.10625 310.40314Q245.62187 309.7 244.87187 309.7Q244.15312 309.7 243.71562 310.3094Q243.16875 311.09064 243.16875 313.21564Z" fill-rule="nonzero"/><path fill="#000000" d="M382.59998 317.45L381.5531 317.45L381.5531 310.73126Q381.16248 311.09064 380.53748 311.46564Q379.9281 311.825 379.44373 311.9969L379.44373 310.98126Q380.31873 310.5594 380.97498 309.98126Q381.64685 309.3875 381.9281 308.825L382.59998 308.825L382.59998 317.45ZM385.63123 313.21564Q385.63123 311.6844 385.94373 310.7625Q386.25623 309.825 386.8656 309.325Q387.4906 308.825 388.4281 308.825Q389.1156 308.825 389.63123 309.10626Q390.16248 309.3875 390.50623 309.91876Q390.84998 310.4344 391.03748 311.1844Q391.22498 311.9344 391.22498 313.21564Q391.22498 314.73126 390.91248 315.65314Q390.6156 316.575 389.9906 317.09064Q389.38123 317.59064 388.4281 317.59064Q387.19373 317.59064 386.47498 316.7Q385.63123 315.6375 385.63123 313.21564ZM386.70935 313.21564Q386.70935 315.325 387.20935 316.02814Q387.70935 316.73126 388.4281 316.73126Q389.16248 316.73126 389.64685 316.02814Q390.14685 315.325 390.14685 313.21564Q390.14685 311.09064 389.64685 310.40314Q389.16248 309.7 388.41248 309.7Q387.69373 309.7 387.25623 310.3094Q386.70935 311.09064 386.70935 313.21564ZM392.63123 313.21564Q392.63123 311.6844 392.94373 310.7625Q393.25623 309.825 393.8656 309.325Q394.4906 308.825 395.4281 308.825Q396.1156 308.825 396.63123 309.10626Q397.16248 309.3875 397.50623 309.91876Q397.84998 310.4344 398.03748 311.1844Q398.22498 311.9344 398.22498 313.21564Q398.22498 314.73126 397.91248 315.65314Q397.6156 316.575 396.9906 317.09064Q396.38123 317.59064 395.4281 317.59064Q394.19373 317.59064 393.47498 316.7Q392.63123 315.6375 392.63123 313.21564ZM393.70935 313.21564Q393.70935 315.325 394.20935 316.02814Q394.70935 316.73126 395.4281 316.73126Q396.16248 316.73126 396.64685 316.02814Q397.14685 315.325 397.14685 313.21564Q397.14685 311.09064 396.64685 310.40314Q396.16248 309.7 395.41248 309.7Q394.69373 309.7 394.25623 310.3094Q393.70935 311.09064 393.70935 313.21564Z" fill-rule="nonzero"/><path fill="#000000" d="M526.1406 317.45L525.09375 317.45L525.09375 310.73126Q524.7031 311.09064 524.0781 311.46564Q523.46875 311.825 522.9844 311.9969L522.9844 310.98126Q523.8594 310.5594 524.5156 309.98126Q525.1875 309.3875 525.46875 308.825L526.1406 308.825L526.1406 317.45ZM529.1719 313.21564Q529.1719 311.6844 529.4844 310.7625Q529.7969 309.825 530.40625 309.325Q531.03125 308.825 531.96875 308.825Q532.65625 308.825 533.1719 309.10626Q533.7031 309.3875 534.0469 309.91876Q534.3906 310.4344 534.5781 311.1844Q534.7656 311.9344 534.7656 313.21564Q534.7656 314.73126 534.4531 315.65314Q534.15625 316.575 533.53125 317.09064Q532.9219 317.59064 531.96875 317.59064Q530.7344 317.59064 530.0156 316.7Q529.1719 315.6375 529.1719 313.21564ZM530.25 313.21564Q530.25 315.325 530.75 316.02814Q531.25 316.73126 531.96875 316.73126Q532.7031 316.73126 533.1875 316.02814Q533.6875 315.325 533.6875 313.21564Q533.6875 311.09064 533.1875 310.40314Q532.7031 309.7 531.9531 309.7Q531.2344 309.7 530.7969 310.3094Q530.25 311.09064 530.25 313.21564ZM536.1719 313.21564Q536.1719 311.6844 536.4844 310.7625Q536.7969 309.825 537.40625 309.325Q538.03125 308.825 538.96875 308.825Q539.65625 308.825 540.1719 309.10626Q540.7031 309.3875 541.0469 309.91876Q541.3906 310.4344 541.5781 311.1844Q541.7656 311.9344 541.7656 313.21564Q541.7656 314.73126 541.4531 315.65314Q541.15625 316.575 540.53125 317.09064Q539.9219 317.59064 538.96875 317.59064Q537.7344 317.59064 537.0156 316.7Q536.1719 315.6375 536.1719 313.21564ZM537.25 313.21564Q537.25 315.325 537.75 316.02814Q538.25 316.73126 538.96875 316.73126Q539.7031 316.73126 540.1875 316.02814Q540.6875 315.325 540.6875 313.21564Q540.6875 311.09064 540.1875 310.40314Q539.7031 309.7 538.9531 309.7Q538.2344 309.7 537.7969 310.3094Q537.25 311.09064 537.25 313.21564ZM543.1719 313.21564Q543.1719 311.6844 543.4844 310.7625Q543.7969 309.825 544.40625 309.325Q545.03125 308.825 545.96875 308.825Q546.65625 308.825 547.1719 309.10626Q547.7031 309.3875 548.0469 309.91876Q548.3906 310.4344 548.5781 311.1844Q548.7656 311.9344 548.7656 313.21564Q548.7656 314.73126 548.4531 315.65314Q548.15625 316.575 547.53125 317.09064Q546.9219 317.59064 545.96875 317.59064Q544.7344 317.59064 544.0156 316.7Q543.1719 315.6375 543.1719 313.21564ZM544.25 313.21564Q544.25 315.325 544.75 316.02814Q545.25 316.73126 545.96875 316.73126Q546.7031 316.73126 547.1875 316.02814Q547.6875 315.325 547.6875 313.21564Q547.6875 311.09064 547.1875 310.40314Q546.7031 309.7 545.9531 309.7Q545.2344 309.7 544.7969 310.3094Q544.25 311.09064 544.25 313.21564Z" fill-rule="nonzero"/><path stroke="#4285f4" stroke-width="4.0" stroke-linecap="butt" d="M114.5 61.916668L126.5 61.916668" fill-rule="nonzero"/><path fill="#1a1a1a" d="M137.875 65.916664L134.54688 57.322914L135.78125 57.322914L138.01562 63.572914Q138.28125 64.322914 138.46875 64.979164Q138.67188 64.27604 138.9375 63.572914L141.25 57.322914L142.40625 57.322914L139.04688 65.916664L137.875 65.916664ZM142.375 65.916664L142.375 57.322914L143.51562 57.322914L143.51562 64.90104L147.75 64.90104L147.75 65.916664L142.375 65.916664ZM149.45312 65.916664L149.45312 57.322914L155.65625 57.322914L155.65625 58.33854L150.59375 58.33854L150.59375 60.96354L155.34375 60.96354L155.34375 61.979164L150.59375 61.979164L150.59375 64.90104L155.85938 64.90104L155.85938 65.916664L149.45312 65.916664ZM157.42188 65.916664L157.42188 57.322914L158.57812 57.322914L163.09375 64.072914L163.09375 57.322914L164.1875 57.322914L164.1875 65.916664L163.01562 65.916664L158.5 59.166664L158.5 65.916664L157.42188 65.916664ZM171.84375 60.86979L166.17188 60.86979L166.17188 59.885414L171.84375 59.885414L171.84375 60.86979ZM171.84375 63.479164L166.17188 63.479164L166.17188 62.49479L171.84375 62.49479L171.84375 63.479164ZM176.96875 65.916664L175.92188 65.916664L175.92188 59.197914Q175.53125 59.55729 174.90625 59.93229Q174.29688 60.291664 173.8125 60.46354L173.8125 59.447914Q174.6875 59.02604 175.34375 58.447914Q176.01562 57.854164 176.29688 57.291664L176.96875 57.291664L176.96875 65.916664ZM185.54688 64.90104L185.54688 65.916664L179.85938 65.916664Q179.85938 65.541664 179.98438 65.18229Q180.20312 64.604164 180.67188 64.041664Q181.15625 63.479164 182.0625 62.74479Q183.46875 61.58854 183.95312 60.916664Q184.45312 60.24479 184.45312 59.65104Q184.45312 59.02604 184.0 58.604164Q183.54688 58.166664 182.82812 58.166664Q182.0625 58.166664 181.60938 58.61979Q181.15625 59.072914 181.14062 59.885414L180.0625 59.77604Q180.17188 58.55729 180.89062 57.93229Q181.625 57.291664 182.85938 57.291664Q184.09375 57.291664 184.8125 57.979164Q185.53125 58.666664 185.53125 59.68229Q185.53125 60.197914 185.3125 60.697914Q185.10938 61.18229 184.60938 61.74479Q184.125 62.291664 183.0 63.24479Q182.04688 64.041664 181.76562 64.33854Q181.5 64.61979 181.32812 64.90104L185.54688 64.90104ZM188.625 61.260414Q187.96875 61.010414 187.64062 60.572914Q187.32812 60.11979 187.32812 59.510414Q187.32812 58.572914 188.0 57.93229Q188.6875 57.291664 189.79688 57.291664Q190.92188 57.291664 191.60938 57.947914Q192.29688 58.604164 192.29688 59.541664Q192.29688 60.135414 191.98438 60.572914Q191.67188 61.010414 191.03125 61.260414Q191.82812 61.510414 192.23438 62.08854Q192.64062 62.666664 192.64062 63.46354Q192.64062 64.55729 191.85938 65.30729Q191.09375 66.05729 189.8125 66.05729Q188.54688 66.05729 187.76562 65.30729Q186.98438 64.55729 186.98438 63.43229Q186.98438 62.58854 187.40625 62.02604Q187.84375 61.46354 188.625 61.260414ZM188.40625 59.46354Q188.40625 60.072914 188.79688 60.46354Q189.20312 60.854164 189.82812 60.854164Q190.4375 60.854164 190.82812 60.479164Q191.21875 60.08854 191.21875 59.52604Q191.21875 58.947914 190.8125 58.55729Q190.40625 58.15104 189.8125 58.15104Q189.20312 58.15104 188.79688 58.541664Q188.40625 58.93229 188.40625 59.46354ZM188.07812 63.43229Q188.07812 63.885414 188.28125 64.30729Q188.5 64.729164 188.92188 64.96354Q189.34375 65.197914 189.82812 65.197914Q190.57812 65.197914 191.0625 64.71354Q191.5625 64.229164 191.5625 63.479164Q191.5625 62.71354 191.0625 62.21354Q190.5625 61.71354 189.79688 61.71354Q189.04688 61.71354 188.5625 62.21354Q188.07812 62.697914 188.07812 63.43229Z" fill-rule="nonzero"/><path stroke="#ea4335" stroke-width="4.0" stroke-linecap="butt" d="M209.5 61.916668L221.5 61.916668" fill-rule="nonzero"/><path fill="#1a1a1a" d="M232.875 65.916664L229.54688 57.322914L230.78125 57.322914L233.01562 63.572914Q233.28125 64.322914 233.46875 64.979164Q233.67188 64.27604 233.9375 63.572914L236.25 57.322914L237.40625 57.322914L234.04688 65.916664L232.875 65.916664ZM237.375 65.916664L237.375 57.322914L238.51562 57.322914L238.51562 64.90104L242.75 64.90104L242.75 65.916664L237.375 65.916664ZM244.45312 65.916664L244.45312 57.322914L250.65625 57.322914L250.65625 58.33854L245.59375 58.33854L245.59375 60.96354L250.34375 60.96354L250.34375 61.979164L245.59375 61.979164L245.59375 64.90104L250.85938 64.90104L250.85938 65.916664L244.45312 65.916664ZM252.42188 65.916664L252.42188 57.322914L253.57812 57.322914L258.09375 64.072914L258.09375 57.322914L259.1875 57.322914L259.1875 65.916664L258.01562 65.916664L253.5 59.166664L253.5 65.916664L252.42188 65.916664ZM266.84375 60.86979L261.17188 60.86979L261.17188 59.885414L266.84375 59.885414L266.84375 60.86979ZM266.84375 63.479164L261.17188 63.479164L261.17188 62.49479L266.84375 62.49479L266.84375 63.479164ZM273.54688 64.90104L273.54688 65.916664L267.85938 65.916664Q267.85938 65.541664 267.98438 65.18229Q268.20312 64.604164 268.67188 64.041664Q269.15625 63.479164 270.0625 62.74479Q271.46875 61.58854 271.95312 60.916664Q272.45312 60.24479 272.45312 59.65104Q272.45312 59.02604 272.0 58.604164Q271.54688 58.166664 270.82812 58.166664Q270.0625 58.166664 269.60938 58.61979Q269.15625 59.072914 269.14062 59.885414L268.0625 59.77604Q268.17188 58.55729 268.89062 57.93229Q269.625 57.291664 270.85938 57.291664Q272.09375 57.291664 272.8125 57.979164Q273.53125 58.666664 273.53125 59.68229Q273.53125 60.197914 273.3125 60.697914Q273.10938 61.18229 272.60938 61.74479Q272.125 62.291664 271.0 63.24479Q270.04688 64.041664 269.76562 64.33854Q269.5 64.61979 269.32812 64.90104L273.54688 64.90104ZM275.0 63.666664L276.10938 63.572914Q276.23438 64.385414 276.67188 64.791664Q277.125 65.197914 277.76562 65.197914Q278.51562 65.197914 279.04688 64.61979Q279.57812 64.041664 279.57812 63.104164Q279.57812 62.197914 279.0625 61.68229Q278.5625 61.15104 277.73438 61.15104Q277.23438 61.15104 276.8125 61.385414Q276.40625 61.61979 276.17188 61.979164L275.1875 61.854164L276.01562 57.447914L280.29688 57.447914L280.29688 58.447914L276.85938 58.447914L276.40625 60.760414Q277.17188 60.21354 278.01562 60.21354Q279.14062 60.21354 279.90625 60.99479Q280.6875 61.77604 280.6875 63.010414Q280.6875 64.166664 280.01562 65.02604Q279.1875 66.05729 277.76562 66.05729Q276.59375 66.05729 275.84375 65.40104Q275.10938 64.74479 275.0 63.666664ZM287.46875 59.43229L286.42188 59.510414Q286.28125 58.885414 286.03125 58.604164Q285.59375 58.15104 284.96875 58.15104Q284.46875 58.15104 284.07812 58.43229Q283.59375 58.80729 283.29688 59.510414Q283.01562 60.197914 283.0 61.479164Q283.375 60.90104 283.92188 60.61979Q284.48438 60.33854 285.09375 60.33854Q286.14062 60.33854 286.875 61.11979Q287.625 61.90104 287.625 63.11979Q287.625 63.93229 287.26562 64.635414Q286.92188 65.322914 286.3125 65.697914Q285.70312 66.05729 284.9375 66.05729Q283.60938 66.05729 282.78125 65.08854Q281.95312 64.11979 281.95312 61.90104Q281.95312 59.40104 282.875 58.27604Q283.67188 57.291664 285.03125 57.291664Q286.04688 57.291664 286.6875 57.86979Q287.34375 58.43229 287.46875 59.43229ZM283.17188 63.135414Q283.17188 63.68229 283.39062 64.18229Q283.625 64.666664 284.03125 64.93229Q284.45312 65.197914 284.92188 65.197914Q285.57812 65.197914 286.0625 64.666664Q286.54688 64.11979 286.54688 63.197914Q286.54688 62.30729 286.0625 61.791664Q285.59375 61.27604 284.875 61.27604Q284.15625 61.27604 283.65625 61.791664Q283.17188 62.30729 283.17188 63.135414Z" fill-rule="nonzero"/><path stroke="#fbbc04" stroke-width="4.0" stroke-linecap="butt" d="M304.5 61.916668L316.5 61.916668" fill-rule="nonzero"/><path fill="#1a1a1a" d="M327.875 65.916664L324.54688 57.322914L325.78125 57.322914L328.01562 63.572914Q328.28125 64.322914 328.46875 64.979164Q328.67188 64.27604 328.9375 63.572914L331.25 57.322914L332.40625 57.322914L329.04688 65.916664L327.875 65.916664ZM332.375 65.916664L332.375 57.322914L333.51562 57.322914L333.51562 64.90104L337.75 64.90104L337.75 65.916664L332.375 65.916664ZM339.45312 65.916664L339.45312 57.322914L345.65625 57.322914L345.65625 58.33854L340.59375 58.33854L340.59375 60.96354L345.34375 60.96354L345.34375 61.979164L340.59375 61.979164L340.59375 64.90104L345.85938 64.90104L345.85938 65.916664L339.45312 65.916664ZM347.42188 65.916664L347.42188 57.322914L348.57812 57.322914L353.09375 64.072914L353.09375 57.322914L354.1875 57.322914L354.1875 65.916664L353.01562 65.916664L348.5 59.166664L348.5 65.916664L347.42188 65.916664ZM361.84375 60.86979L356.17188 60.86979L356.17188 59.885414L361.84375 59.885414L361.84375 60.86979ZM361.84375 63.479164L356.17188 63.479164L356.17188 62.49479L361.84375 62.49479L361.84375 63.479164ZM363.0 63.666664L364.10938 63.572914Q364.23438 64.385414 364.67188 64.791664Q365.125 65.197914 365.76562 65.197914Q366.51562 65.197914 367.04688 64.61979Q367.57812 64.041664 367.57812 63.104164Q367.57812 62.197914 367.0625 61.68229Q366.5625 61.15104 365.73438 61.15104Q365.23438 61.15104 364.8125 61.385414Q364.40625 61.61979 364.17188 61.979164L363.1875 61.854164L364.01562 57.447914L368.29688 57.447914L368.29688 58.447914L364.85938 58.447914L364.40625 60.760414Q365.17188 60.21354 366.01562 60.21354Q367.14062 60.21354 367.90625 60.99479Q368.6875 61.77604 368.6875 63.010414Q368.6875 64.166664 368.01562 65.02604Q367.1875 66.05729 365.76562 66.05729Q364.59375 66.05729 363.84375 65.40104Q363.10938 64.74479 363.0 63.666664ZM373.96875 65.916664L372.92188 65.916664L372.92188 59.197914Q372.53125 59.55729 371.90625 59.93229Q371.29688 60.291664 370.8125 60.46354L370.8125 59.447914Q371.6875 59.02604 372.34375 58.447914Q373.01562 57.854164 373.29688 57.291664L373.96875 57.291664L373.96875 65.916664ZM382.54688 64.90104L382.54688 65.916664L376.85938 65.916664Q376.85938 65.541664 376.98438 65.18229Q377.20312 64.604164 377.67188 64.041664Q378.15625 63.479164 379.0625 62.74479Q380.46875 61.58854 380.95312 60.916664Q381.45312 60.24479 381.45312 59.65104Q381.45312 59.02604 381.0 58.604164Q380.54688 58.166664 379.82812 58.166664Q379.0625 58.166664 378.60938 58.61979Q378.15625 59.072914 378.14062 59.885414L377.0625 59.77604Q377.17188 58.55729 377.89062 57.93229Q378.625 57.291664 379.85938 57.291664Q381.09375 57.291664 381.8125 57.979164Q382.53125 58.666664 382.53125 59.68229Q382.53125 60.197914 382.3125 60.697914Q382.10938 61.18229 381.60938 61.74479Q381.125 62.291664 380.0 63.24479Q379.04688 64.041664 378.76562 64.33854Q378.5 64.61979 378.32812 64.90104L382.54688 64.90104Z" fill-rule="nonzero"/><path stroke="#34a853" stroke-width="4.0" stroke-linecap="butt" d="M399.5 61.916668L411.5 61.916668" fill-rule="nonzero"/><path fill="#1a1a1a" d="M422.875 65.916664L419.54688 57.322914L420.78125 57.322914L423.01562 63.572914Q423.28125 64.322914 423.46875 64.979164Q423.67188 64.27604 423.9375 63.572914L426.25 57.322914L427.40625 57.322914L424.04688 65.916664L422.875 65.916664ZM427.375 65.916664L427.375 57.322914L428.51562 57.322914L428.51562 64.90104L432.75 64.90104L432.75 65.916664L427.375 65.916664ZM434.45312 65.916664L434.45312 57.322914L440.65625 57.322914L440.65625 58.33854L435.59375 58.33854L435.59375 60.96354L440.34375 60.96354L440.34375 61.979164L435.59375 61.979164L435.59375 64.90104L440.85938 64.90104L440.85938 65.916664L434.45312 65.916664ZM442.42188 65.916664L442.42188 57.322914L443.57812 57.322914L448.09375 64.072914L448.09375 57.322914L449.1875 57.322914L449.1875 65.916664L448.01562 65.916664L443.5 59.166664L443.5 65.916664L442.42188 65.916664ZM456.84375 60.86979L451.17188 60.86979L451.17188 59.885414L456.84375 59.885414L456.84375 60.86979ZM456.84375 63.479164L451.17188 63.479164L451.17188 62.49479L456.84375 62.49479L456.84375 63.479164ZM461.96875 65.916664L460.92188 65.916664L460.92188 59.197914Q460.53125 59.55729 459.90625 59.93229Q459.29688 60.291664 458.8125 60.46354L458.8125 59.447914Q459.6875 59.02604 460.34375 58.447914Q461.01562 57.854164 461.29688 57.291664L461.96875 57.291664L461.96875 65.916664ZM465.0 61.68229Q465.0 60.15104 465.3125 59.229164Q465.625 58.291664 466.23438 57.791664Q466.85938 57.291664 467.79688 57.291664Q468.48438 57.291664 469.0 57.572914Q469.53125 57.854164 469.875 58.385414Q470.21875 58.90104 470.40625 59.65104Q470.59375 60.40104 470.59375 61.68229Q470.59375 63.197914 470.28125 64.11979Q469.98438 65.041664 469.35938 65.55729Q468.75 66.05729 467.79688 66.05729Q466.5625 66.05729 465.84375 65.166664Q465.0 64.104164 465.0 61.68229ZM466.07812 61.68229Q466.07812 63.791664 466.57812 64.49479Q467.07812 65.197914 467.79688 65.197914Q468.53125 65.197914 469.01562 64.49479Q469.51562 63.791664 469.51562 61.68229Q469.51562 59.55729 469.01562 58.86979Q468.53125 58.166664 467.78125 58.166664Q467.0625 58.166664 466.625 58.77604Q466.07812 59.55729 466.07812 61.68229ZM477.54688 64.90104L477.54688 65.916664L471.85938 65.916664Q471.85938 65.541664 471.98438 65.18229Q472.20312 64.604164 472.67188 64.041664Q473.15625 63.479164 474.0625 62.74479Q475.46875 61.58854 475.95312 60.916664Q476.45312 60.24479 476.45312 59.65104Q476.45312 59.02604 476.0 58.604164Q475.54688 58.166664 474.82812 58.166664Q474.0625 58.166664 473.60938 58.61979Q473.15625 59.072914 473.14062 59.885414L472.0625 59.77604Q472.17188 58.55729 472.89062 57.93229Q473.625 57.291664 474.85938 57.291664Q476.09375 57.291664 476.8125 57.979164Q477.53125 58.666664 477.53125 59.68229Q477.53125 60.197914 477.3125 60.697914Q477.10938 61.18229 476.60938 61.74479Q476.125 62.291664 475.0 63.24479Q474.04688 64.041664 473.76562 64.33854Q473.5 64.61979 473.32812 64.90104L477.54688 64.90104ZM482.375 65.916664L482.375 63.854164L478.65625 63.854164L478.65625 62.885414L482.57812 57.322914L483.4375 57.322914L483.4375 62.885414L484.59375 62.885414L484.59375 63.854164L483.4375 63.854164L483.4375 65.916664L482.375 65.916664ZM482.375 62.885414L482.375 59.02604L479.6875 62.885414L482.375 62.885414Z" fill-rule="nonzero"/><path fill="#757575" d="M30.940624 36.01875Q32.26875 36.925 33.378124 37.346874L32.815624 38.659374Q31.26875 38.1125 29.7375 36.909374Q28.14375 37.8 26.221874 37.8Q24.284374 37.8 22.690624 36.8625Q21.1125 35.925 20.253124 34.221874Q19.409374 32.51875 19.409374 30.39375Q19.409374 28.26875 20.26875 26.534374Q21.128124 24.8 22.70625 23.89375Q24.3 22.971874 26.26875 22.971874Q28.253124 22.971874 29.83125 23.925Q31.425 24.8625 32.253124 26.565624Q33.096874 28.253124 33.096874 30.378124Q33.096874 32.14375 32.565624 33.565624Q32.034374 34.971874 30.940624 36.01875ZM26.76875 33.596874Q28.409374 34.05 29.471874 34.95625Q31.14375 33.440624 31.14375 30.378124Q31.14375 28.64375 30.55 27.346874Q29.971874 26.05 28.83125 25.33125Q27.690624 24.6125 26.26875 24.6125Q24.159374 24.6125 22.753124 26.065624Q21.3625 27.503124 21.3625 30.39375Q21.3625 33.190624 22.7375 34.690624Q24.128124 36.175 26.26875 36.175Q27.284374 36.175 28.190624 35.784374Q27.3 35.221874 26.315624 34.971874L26.76875 33.596874ZM36.128124 37.55L36.128124 23.2375L46.4875 23.2375L46.4875 24.925L38.034374 24.925L38.034374 29.3L45.940624 29.3L45.940624 30.9875L38.034374 30.9875L38.034374 35.8625L46.815624 35.8625L46.815624 37.55L36.128124 37.55ZM49.034374 37.55L49.034374 23.2375L51.89375 23.2375L55.26875 33.3625Q55.7375 34.784374 55.95625 35.4875Q56.20625 34.70625 56.721874 33.190624L60.14375 23.2375L62.690624 23.2375L62.690624 37.55L60.878124 37.55L60.878124 25.565624L56.70625 37.55L55.003124 37.55L50.8625 25.3625L50.8625 37.55L49.034374 37.55ZM75.4875 23.2375L77.37813 23.2375L77.37813 31.503124Q77.37813 33.659374 76.89375 34.940624Q76.40938 36.20625 75.12813 37.003124Q73.8625 37.8 71.78438 37.8Q69.76875 37.8 68.4875 37.1125Q67.22188 36.409374 66.675 35.096874Q66.12813 33.784374 66.12813 31.503124L66.12813 23.2375L68.01875 23.2375L68.01875 31.4875Q68.01875 33.3625 68.3625 34.253124Q68.70625 35.128124 69.55 35.6125Q70.39375 36.08125 71.62813 36.08125Q73.70625 36.08125 74.59688 35.14375Q75.4875 34.190624 75.4875 31.4875L75.4875 23.2375ZM84.8625 37.55L84.8625 27.175L86.44063 27.175L86.44063 28.628124Q86.925 27.878124 87.7375 27.409374Q88.55 26.940624 89.58125 26.940624Q90.7375 26.940624 91.47188 27.425Q92.20625 27.89375 92.51875 28.753124Q93.75313 26.940624 95.72188 26.940624Q97.26875 26.940624 98.09688 27.8Q98.925 28.659374 98.925 30.425L98.925 37.55L97.175 37.55L97.175 31.01875Q97.175 29.95625 97.00313 29.503124Q96.83125 29.034374 96.37813 28.753124Q95.94063 28.471874 95.33125 28.471874Q94.2375 28.471874 93.50313 29.20625Q92.78438 29.925 92.78438 31.51875L92.78438 37.55L91.03438 37.55L91.03438 30.815624Q91.03438 29.64375 90.59688 29.065624Q90.175 28.471874 89.19063 28.471874Q88.45625 28.471874 87.81563 28.8625Q87.19063 29.253124 86.90938 30.003124Q86.62813 30.753124 86.62813 32.175L86.62813 37.55L84.8625 37.55ZM107.97188 34.20625L109.78438 34.440624Q109.3625 36.01875 108.19063 36.909374Q107.03438 37.784374 105.22188 37.784374Q102.95625 37.784374 101.6125 36.39375Q100.28438 34.9875 100.28438 32.45625Q100.28438 29.83125 101.62813 28.39375Q102.97188 26.940624 105.12813 26.940624Q107.20625 26.940624 108.51875 28.3625Q109.84688 29.76875 109.84688 32.346874Q109.84688 32.503124 109.83125 32.815624L102.09688 32.815624Q102.19063 34.51875 103.06563 35.425Q103.94063 36.33125 105.2375 36.33125Q106.20625 36.33125 106.87813 35.83125Q107.56563 35.315624 107.97188 34.20625ZM102.19063 31.3625L107.9875 31.3625Q107.87813 30.065624 107.33125 29.409374Q106.4875 28.39375 105.14375 28.39375Q103.94063 28.39375 103.1125 29.20625Q102.28438 30.003124 102.19063 31.3625ZM111.8625 37.55L111.8625 27.175L113.44063 27.175L113.44063 28.628124Q113.925 27.878124 114.7375 27.409374Q115.55 26.940624 116.58125 26.940624Q117.7375 26.940624 118.47188 27.425Q119.20625 27.89375 119.51875 28.753124Q120.75313 26.940624 122.72188 26.940624Q124.26875 26.940624 125.09688 27.8Q125.925 28.659374 125.925 30.425L125.925 37.55L124.175 37.55L124.175 31.01875Q124.175 29.95625 124.00313 29.503124Q123.83125 29.034374 123.37813 28.753124Q122.94063 28.471874 122.33125 28.471874Q121.2375 28.471874 120.50313 29.20625Q119.78438 29.925 119.78438 31.51875L119.78438 37.55L118.03438 37.55L118.03438 30.815624Q118.03438 29.64375 117.59688 29.065624Q117.175 28.471874 116.19063 28.471874Q115.45625 28.471874 114.81563 28.8625Q114.19063 29.253124 113.90938 30.003124Q113.62813 30.753124 113.62813 32.175L113.62813 37.55L111.8625 37.55ZM134.64375 33.753124L136.3625 33.971874Q136.08125 35.76875 134.90938 36.784374Q133.75313 37.784374 132.05 37.784374Q129.925 37.784374 128.62813 36.39375Q127.33125 35.003124 127.33125 32.409374Q127.33125 30.721874 127.87813 29.471874Q128.44063 28.20625 129.58125 27.58125Q130.72188 26.940624 132.06563 26.940624Q133.75313 26.940624 134.81563 27.8Q135.89375 28.659374 136.20625 30.221874L134.4875 30.4875Q134.25313 29.440624 133.62813 28.925Q133.00313 28.39375 132.12813 28.39375Q130.8 28.39375 129.97188 29.346874Q129.14375 30.3 129.14375 32.346874Q129.14375 34.440624 129.94063 35.39375Q130.7375 36.33125 132.03438 36.33125Q133.06563 36.33125 133.75313 35.70625Q134.45625 35.065624 134.64375 33.753124ZM137.8625 41.51875L137.8625 27.175L139.47188 27.175L139.47188 28.51875Q140.03438 27.7375 140.7375 27.346874Q141.45625 26.940624 142.47188 26.940624Q143.8 26.940624 144.81563 27.628124Q145.83125 28.315624 146.34688 29.565624Q146.87813 30.8 146.87813 32.284374Q146.87813 33.878124 146.3 35.159374Q145.7375 36.425 144.64375 37.1125Q143.55 37.784374 142.34688 37.784374Q141.47188 37.784374 140.76875 37.409374Q140.08125 37.034374 139.62813 36.471874L139.62813 41.51875L137.8625 41.51875ZM139.45625 32.425Q139.45625 34.425 140.26875 35.378124Q141.08125 36.33125 142.2375 36.33125Q143.40938 36.33125 144.2375 35.346874Q145.08125 34.3625 145.08125 32.26875Q145.08125 30.3 144.25313 29.315624Q143.44063 28.315624 142.31563 28.315624Q141.19063 28.315624 140.31563 29.378124Q139.45625 30.425 139.45625 32.425ZM148.78438 41.55L148.59688 39.89375Q149.175 40.05 149.59688 40.05Q150.19063 40.05 150.53438 39.846874Q150.89375 39.659374 151.1125 39.315624Q151.28438 39.05 151.65938 38.003124Q151.70625 37.846874 151.81563 37.565624L147.87813 27.175L149.76875 27.175L151.925 33.190624Q152.34688 34.33125 152.675 35.58125Q152.9875 34.378124 153.39375 33.221874L155.6125 27.175L157.37813 27.175L153.425 37.721874Q152.8 39.440624 152.44063 40.08125Q151.97188 40.95625 151.3625 41.346874Q150.76875 41.753124 149.925 41.753124Q149.40938 41.753124 148.78438 41.55ZM164.8625 41.51875L164.8625 27.175L166.47188 27.175L166.47188 28.51875Q167.03438 27.7375 167.7375 27.346874Q168.45625 26.940624 169.47188 26.940624Q170.8 26.940624 171.81563 27.628124Q172.83125 28.315624 173.34688 29.565624Q173.87813 30.8 173.87813 32.284374Q173.87813 33.878124 173.3 35.159374Q172.7375 36.425 171.64375 37.1125Q170.55 37.784374 169.34688 37.784374Q168.47188 37.784374 167.76875 37.409374Q167.08125 37.034374 166.62813 36.471874L166.62813 41.51875L164.8625 41.51875ZM166.45625 32.425Q166.45625 34.425 167.26875 35.378124Q168.08125 36.33125 169.2375 36.33125Q170.40938 36.33125 171.2375 35.346874Q172.08125 34.3625 172.08125 32.26875Q172.08125 30.3 171.25313 29.315624Q170.44063 28.315624 169.31563 28.315624Q168.19063 28.315624 167.31563 29.378124Q166.45625 30.425 166.45625 32.425ZM182.97188 34.20625L184.78438 34.440624Q184.3625 36.01875 183.19063 36.909374Q182.03438 37.784374 180.22188 37.784374Q177.95625 37.784374 176.6125 36.39375Q175.28438 34.9875 175.28438 32.45625Q175.28438 29.83125 176.62813 28.39375Q177.97188 26.940624 180.12813 26.940624Q182.20625 26.940624 183.51875 28.3625Q184.84688 29.76875 184.84688 32.346874Q184.84688 32.503124 184.83125 32.815624L177.09688 32.815624Q177.19063 34.51875 178.06563 35.425Q178.94063 36.33125 180.2375 36.33125Q181.20625 36.33125 181.87813 35.83125Q182.56563 35.315624 182.97188 34.20625ZM177.19063 31.3625L182.9875 31.3625Q182.87813 30.065624 182.33125 29.409374Q181.4875 28.39375 180.14375 28.39375Q178.94063 28.39375 178.1125 29.20625Q177.28438 30.003124 177.19063 31.3625ZM186.84688 37.55L186.84688 27.175L188.425 27.175L188.425 28.753124Q189.03438 27.64375 189.55 27.3Q190.06563 26.940624 190.675 26.940624Q191.56563 26.940624 192.4875 27.503124L191.87813 29.14375Q191.2375 28.753124 190.59688 28.753124Q190.01875 28.753124 189.55 29.1125Q189.09688 29.45625 188.89375 30.065624Q188.6125 31.003124 188.6125 32.1125L188.6125 37.55L186.84688 37.55ZM194.28438 37.55L194.28438 28.55L192.7375 28.55L192.7375 27.175L194.28438 27.175L194.28438 26.08125Q194.28438 25.034374 194.47188 24.51875Q194.72188 23.83125 195.3625 23.409374Q196.00313 22.9875 197.15938 22.9875Q197.90938 22.9875 198.8 23.159374L198.53438 24.690624Q197.9875 24.596874 197.50313 24.596874Q196.70625 24.596874 196.3625 24.940624Q196.03438 25.284374 196.03438 26.221874L196.03438 27.175L198.06563 27.175L198.06563 28.55L196.03438 28.55L196.03438 37.55L194.28438 37.55ZM199.22188 32.3625Q199.22188 29.4875 200.81563 28.096874Q202.15938 26.940624 204.08125 26.940624Q206.22188 26.940624 207.56563 28.346874Q208.925 29.753124 208.925 32.221874Q208.925 34.221874 208.33125 35.378124Q207.7375 36.51875 206.58125 37.159374Q205.44063 37.784374 204.08125 37.784374Q201.89375 37.784374 200.55 36.39375Q199.22188 34.9875 199.22188 32.3625ZM201.01875 32.3625Q201.01875 34.3625 201.87813 35.346874Q202.75313 36.33125 204.08125 36.33125Q205.39375 36.33125 206.25313 35.346874Q207.12813 34.346874 207.12813 32.3Q207.12813 30.378124 206.25313 29.39375Q205.37813 28.39375 204.08125 28.39375Q202.75313 28.39375 201.87813 29.39375Q201.01875 30.378124 201.01875 32.3625ZM210.84688 37.55L210.84688 27.175L212.425 27.175L212.425 28.753124Q213.03438 27.64375 213.55 27.3Q214.06563 26.940624 214.675 26.940624Q215.56563 26.940624 216.4875 27.503124L215.87813 29.14375Q215.2375 28.753124 214.59688 28.753124Q214.01875 28.753124 213.55 29.1125Q213.09688 29.45625 212.89375 30.065624Q212.6125 31.003124 212.6125 32.1125L212.6125 37.55L210.84688 37.55ZM217.8625 37.55L217.8625 27.175L219.44063 27.175L219.44063 28.628124Q219.925 27.878124 220.7375 27.409374Q221.55 26.940624 222.58125 26.940624Q223.7375 26.940624 224.47188 27.425Q225.20625 27.89375 225.51875 28.753124Q226.75313 26.940624 228.72188 26.940624Q230.26875 26.940624 231.09688 27.8Q231.925 28.659374 231.925 30.425L231.925 37.55L230.175 37.55L230.175 31.01875Q230.175 29.95625 230.00313 29.503124Q229.83125 29.034374 229.37813 28.753124Q228.94063 28.471874 228.33125 28.471874Q227.2375 28.471874 226.50313 29.20625Q225.78438 29.925 225.78438 31.51875L225.78438 37.55L224.03438 37.55L224.03438 30.815624Q224.03438 29.64375 223.59688 29.065624Q223.175 28.471874 222.19063 28.471874Q221.45625 28.471874 220.81563 28.8625Q220.19063 29.253124 219.90938 30.003124Q219.62813 30.753124 219.62813 32.175L219.62813 37.55L217.8625 37.55ZM240.64375 36.26875Q239.65938 37.096874 238.75313 37.440624Q237.84688 37.784374 236.81563 37.784374Q235.1125 37.784374 234.19063 36.95625Q233.26875 36.1125 233.26875 34.815624Q233.26875 34.05 233.6125 33.425Q233.97188 32.8 234.53438 32.425Q235.09688 32.034374 235.8 31.83125Q236.31563 31.70625 237.3625 31.565624Q239.4875 31.315624 240.4875 30.971874Q240.50313 30.6125 240.50313 30.503124Q240.50313 29.440624 240.00313 28.9875Q239.33125 28.39375 238.00313 28.39375Q236.75313 28.39375 236.15938 28.83125Q235.58125 29.26875 235.3 30.378124L233.58125 30.14375Q233.81563 29.034374 234.34688 28.3625Q234.87813 27.675 235.89375 27.315624Q236.90938 26.940624 238.25313 26.940624Q239.58125 26.940624 240.40938 27.253124Q241.2375 27.565624 241.62813 28.05Q242.01875 28.51875 242.175 29.2375Q242.26875 29.690624 242.26875 30.8625L242.26875 33.20625Q242.26875 35.659374 242.37813 36.315624Q242.4875 36.95625 242.83125 37.55L240.9875 37.55Q240.72188 37.003124 240.64375 36.26875ZM240.4875 32.346874Q239.53438 32.7375 237.6125 33.003124Q236.53438 33.159374 236.08125 33.3625Q235.64375 33.55 235.39375 33.925Q235.14375 34.3 235.14375 34.76875Q235.14375 35.471874 235.675 35.940624Q236.20625 36.409374 237.2375 36.409374Q238.25313 36.409374 239.03438 35.971874Q239.83125 35.51875 240.20625 34.753124Q240.4875 34.14375 240.4875 32.9875L240.4875 32.346874ZM244.8625 37.55L244.8625 27.175L246.45625 27.175L246.45625 28.659374Q247.59688 26.940624 249.75313 26.940624Q250.69063 26.940624 251.47188 27.284374Q252.26875 27.6125 252.65938 28.159374Q253.05 28.70625 253.20625 29.45625Q253.3 29.95625 253.3 31.175L253.3 37.55L251.53438 37.55L251.53438 31.2375Q251.53438 30.159374 251.33125 29.628124Q251.12813 29.096874 250.59688 28.784374Q250.08125 28.471874 249.37813 28.471874Q248.25313 28.471874 247.44063 29.190624Q246.62813 29.89375 246.62813 31.878124L246.62813 37.55L244.8625 37.55ZM261.64374 33.753124L263.3625 33.971874Q263.08124 35.76875 261.90936 36.784374Q260.7531 37.784374 259.05 37.784374Q256.925 37.784374 255.62813 36.39375Q254.33125 35.003124 254.33125 32.409374Q254.33125 30.721874 254.87813 29.471874Q255.44063 28.20625 256.58124 27.58125Q257.72186 26.940624 259.0656 26.940624Q260.7531 26.940624 261.8156 27.8Q262.89374 28.659374 263.20624 30.221874L261.4875 30.4875Q261.2531 29.440624 260.6281 28.925Q260.0031 28.39375 259.1281 28.39375Q257.8 28.39375 256.97186 29.346874Q256.14374 30.3 256.14374 32.346874Q256.14374 34.440624 256.9406 35.39375Q257.7375 36.33125 259.03436 36.33125Q260.0656 36.33125 260.7531 35.70625Q261.45624 35.065624 261.64374 33.753124ZM271.97186 34.20625L273.78436 34.440624Q273.3625 36.01875 272.1906 36.909374Q271.03436 37.784374 269.22186 37.784374Q266.95624 37.784374 265.6125 36.39375Q264.28436 34.9875 264.28436 32.45625Q264.28436 29.83125 265.6281 28.39375Q266.97186 26.940624 269.1281 26.940624Q271.20624 26.940624 272.51874 28.3625Q273.84686 29.76875 273.84686 32.346874Q273.84686 32.503124 273.83124 32.815624L266.09686 32.815624Q266.1906 34.51875 267.0656 35.425Q267.9406 36.33125 269.2375 36.33125Q270.20624 36.33125 270.8781 35.83125Q271.5656 35.315624 271.97186 34.20625ZM266.1906 31.3625L271.9875 31.3625Q271.8781 30.065624 271.33124 29.409374Q270.4875 28.39375 269.14374 28.39375Q267.9406 28.39375 267.1125 29.20625Q266.28436 30.003124 266.1906 31.3625ZM283.78436 37.55L280.6125 27.175L282.425 27.175L284.08124 33.159374L284.6906 35.39375Q284.7375 35.221874 285.22186 33.253124L286.8781 27.175L288.6906 27.175L290.2375 33.190624L290.7531 35.175L291.34686 33.175L293.1281 27.175L294.83124 27.175L291.59686 37.55L289.76874 37.55L288.1125 31.33125L287.72186 29.565624L285.6125 37.55L283.78436 37.55ZM296.8781 25.253124L296.8781 23.2375L298.64374 23.2375L298.64374 25.253124L296.8781 25.253124ZM296.8781 37.55L296.8781 27.175L298.64374 27.175L298.64374 37.55L296.8781 37.55ZM304.70624 35.971874L304.95624 37.534374Q304.22186 37.690624 303.6281 37.690624Q302.675 37.690624 302.14374 37.39375Q301.6281 37.08125 301.40936 36.596874Q301.1906 36.096874 301.1906 34.51875L301.1906 28.55L299.90936 28.55L299.90936 27.175L301.1906 27.175L301.1906 24.6125L302.9406 23.55L302.9406 27.175L304.70624 27.175L304.70624 28.55L302.9406 28.55L302.9406 34.6125Q302.9406 35.3625 303.03436 35.58125Q303.1281 35.784374 303.33124 35.925Q303.55 36.05 303.9406 36.05Q304.22186 36.05 304.70624 35.971874ZM306.8625 37.55L306.8625 23.2375L308.6281 23.2375L308.6281 28.3625Q309.8625 26.940624 311.7375 26.940624Q312.8781 26.940624 313.72186 27.39375Q314.58124 27.846874 314.9406 28.659374Q315.3156 29.45625 315.3156 30.971874L315.3156 37.55L313.5656 37.55L313.5656 30.971874Q313.5656 29.659374 312.9875 29.065624Q312.40936 28.45625 311.3781 28.45625Q310.59686 28.45625 309.89374 28.8625Q309.20624 29.26875 308.90936 29.971874Q308.6281 30.659374 308.6281 31.878124L308.6281 37.55L306.8625 37.55ZM323.01874 37.55L323.01874 23.2375L324.90936 23.2375L324.90936 35.8625L331.95624 35.8625L331.95624 37.55L323.01874 37.55ZM334.03436 37.55L334.03436 23.2375L336.89374 23.2375L340.26874 33.3625Q340.7375 34.784374 340.95624 35.4875Q341.20624 34.70625 341.72186 33.190624L345.14374 23.2375L347.6906 23.2375L347.6906 37.55L345.8781 37.55L345.8781 25.565624L341.70624 37.55L340.0031 37.55L335.8625 25.3625L335.8625 37.55L334.03436 37.55ZM360.4875 23.2375L362.3781 23.2375L362.3781 31.503124Q362.3781 33.659374 361.89374 34.940624Q361.40936 36.20625 360.1281 37.003124Q358.8625 37.8 356.78436 37.8Q354.76874 37.8 353.4875 37.1125Q352.22186 36.409374 351.675 35.096874Q351.1281 33.784374 351.1281 31.503124L351.1281 23.2375L353.01874 23.2375L353.01874 31.4875Q353.01874 33.3625 353.3625 34.253124Q353.70624 35.128124 354.55 35.6125Q355.39374 36.08125 356.6281 36.08125Q358.70624 36.08125 359.59686 35.14375Q360.4875 34.190624 360.4875 31.4875L360.4875 23.2375ZM364.01874 37.55L364.01874 23.2375L365.90936 23.2375L365.90936 35.8625L372.95624 35.8625L372.95624 37.55L364.01874 37.55ZM384.1125 29.128124L374.65936 29.128124L374.65936 27.4875L384.1125 27.4875L384.1125 29.128124ZM384.1125 33.471874L374.65936 33.471874L374.65936 31.83125L384.1125 31.83125L384.1125 33.471874ZM389.08124 29.784374Q387.9875 29.378124 387.45624 28.64375Q386.9406 27.89375 386.9406 26.8625Q386.9406 25.3 388.0656 24.2375Q389.1906 23.175 391.05 23.175Q392.925 23.175 394.0656 24.26875Q395.20624 25.346874 395.20624 26.909374Q395.20624 27.909374 394.675 28.64375Q394.15936 29.378124 393.09686 29.784374Q394.425 30.221874 395.1125 31.175Q395.8 32.128124 395.8 33.45625Q395.8 35.3 394.4875 36.55Q393.1906 37.8 391.08124 37.8Q388.95624 37.8 387.65936 36.55Q386.3625 35.284374 386.3625 33.409374Q386.3625 32.01875 387.0656 31.08125Q387.78436 30.128124 389.08124 29.784374ZM388.7375 26.8Q388.7375 27.815624 389.39374 28.471874Q390.05 29.1125 391.08124 29.1125Q392.09686 29.1125 392.7531 28.471874Q393.40936 27.83125 393.40936 26.909374Q393.40936 25.940624 392.7375 25.284374Q392.0656 24.6125 391.0656 24.6125Q390.0656 24.6125 389.39374 25.26875Q388.7375 25.909374 388.7375 26.8ZM388.175 33.425Q388.175 34.175 388.51874 34.878124Q388.8781 35.58125 389.58124 35.971874Q390.28436 36.346874 391.09686 36.346874Q392.3625 36.346874 393.175 35.534374Q394.0031 34.721874 394.0031 33.471874Q394.0031 32.20625 393.15936 31.378124Q392.3156 30.55 391.03436 30.55Q389.8 30.55 388.9875 31.378124Q388.175 32.190624 388.175 33.425Z" fill-rule="nonzero"/></svg>