<svg version="1.1" viewBox="0.0 0.0 553.0 371.0" fill="none" stroke="none" stroke-linecap="square" stroke-miterlimit="10" width="553" height="371" xmlns:xlink="http://www.w3.org/1999/xlink" xmlns="http://www.w3.org/2000/svg"><path fill="#ffffff" d="M0 0L553.0 0L553.0 371.0L0 371.0L0 0Z" fill-rule="nonzero"/><path stroke="#cccccc" stroke-width="1.0" stroke-linecap="butt" d="M77.5 106.5L77.5 300.5" fill-rule="nonzero"/><path stroke="#cccccc" stroke-width="1.0" stroke-linecap="butt" d="M194.5 106.5L194.5 300.5" fill-rule="nonzero"/><path stroke="#cccccc" stroke-width="1.0" stroke-linecap="butt" d="M311.5 106.5L311.5 300.5" fill-rule="nonzero"/><path stroke="#cccccc" stroke-width="1.0" stroke-linecap="butt" d="M427.5 106.5L427.5 300.5" fill-rule="nonzero"/><path stroke="#333333" stroke-width="1.0" stroke-linecap="butt" d="M77.5 300.5L534.5 300.5" fill-rule="nonzero"/><path stroke="#cccccc" stroke-width="1.0" stroke-linecap="butt" d="M77.5 261.5L534.5 261.5" fill-rule="nonzero"/><path stroke="#cccccc" stroke-width="1.0" stroke-linecap="butt" d="M77.5 222.5L534.5 222.5" fill-rule="nonzero"/><path stroke="#cccccc" stroke-width="1.0" stroke-linecap="butt" d="M77.5 183.5L534.5 183.5" fill-rule="nonzero"/><path stroke="#cccccc" stroke-width="1.0" stroke-linecap="butt" d="M77.5 145.5L534.5 145.5" fill-rule="nonzero"/><path stroke="#cccccc" stroke-width="1.0" stroke-linecap="butt" d="M77.5 106.5L534.5 106.5" fill-rule="nonzero"/><clipPath id="id_0"><path d="M77.55 106.28333L534.45 106.28333L534.45 300.45L77.55 300.45L77.55 106.28333Z" clip-rule="nonzero"/></clipPath><path stroke="#4285f4" stroke-width="2.0" stroke-linecap="butt" clip-path="url(#id_0)" d="M77.55 297.7928L112.69615 296.9284L147.8423 293.47247L182.98846 288.80536L218.13461 278.7505L253.28076 278.72397L288.4269 279.09167L323.5731 279.014L358.71924 278.7851L393.8654 278.98947L429.01154 279.5095L464.15768 279.014L499.30383 278.70334L534.45 278.01297" fill-rule="nonzero"/><path stroke="#ea4335" stroke-width="2.0" stroke-linecap="butt" clip-path="url(#id_0)" d="M77.55 297.78714L112.69615 296.44162L147.8423 293.49274L182.98846 288.81335L218.13461 278.82245L253.28076 262.21967L288.4269 234.24023L323.5731 192.91698L358.71924 147.55327L393.8654 107.9522L429.01154 108.84026L464.15768 108.68045L499.30383 108.01639L534.45 109.65738" fill-rule="nonzero"/><path stroke="#fbbc04" stroke-width="2.0" stroke-linecap="butt" clip-path="url(#id_0)" d="M77.55 298.15445L112.69615 294.42548L147.8423 293.8139L182.98846 268.53925L218.13461 258.52438L253.28076 270.72485L288.4269 269.23398L323.5731 266.95624L358.71924 268.16504L393.8654 267.83L429.01154 267.364L464.15768 255.79167L499.30383 257.52896L534.45 252.93628" fill-rule="nonzero"/><path stroke="#34a853" stroke-width="2.0" stroke-linecap="butt" clip-path="url(#id_0)" d="M77.55 292.78854L112.69615 292.57043L147.8423 292.18384L182.98846 261.9697L218.13461 252.50682L253.28076 257.70636L288.4269 254.88359L323.5731 253.13547L358.71924 251.81549L393.8654 250.78639L429.01154 250.86409L464.15768 240.08731L499.30383 240.12755L534.45 239.99104" fill-rule="nonzero"/><path fill="#000000" fill-opacity="0.0" clip-path="url(#id_0)" d="M80.55 297.7928C80.55 299.44965 79.206856 300.7928 77.55 300.7928C75.89314 300.7928 74.55 299.44965 74.55 297.7928C74.55 296.13593 75.89314 294.7928 77.55 294.7928C79.206856 294.7928 80.55 296.13593 80.55 297.7928Z" fill-rule="nonzero"/><path fill="#000000" fill-opacity="0.0" clip-path="url(#id_0)" d="M115.69615 296.9284C115.69615 298.58527 114.353004 299.9284 112.69615 299.9284C111.0393 299.9284 109.69615 298.58527 109.69615 296.9284C109.69615 295.27155 111.0393 293.9284 112.69615 293.9284C114.353004 293.9284 115.69615 295.27155 115.69615 296.9284Z" fill-rule="nonzero"/><path fill="#000000" fill-opacity="0.0" clip-path="url(#id_0)" d="M150.8423 293.47247C150.8423 295.1293 149.49916 296.47247 147.8423 296.47247C146.18546 296.47247 144.8423 295.1293 144.8423 293.47247C144.8423 291.8156 146.18546 290.47247 147.8423 290.47247C149.49916 290.47247 150.8423 291.8156 150.8423 293.47247Z" fill-rule="nonzero"/><path fill="#000000" fill-opacity="0.0" clip-path="url(#id_0)" d="M185.98846 288.80536C185.98846 290.4622 184.64531 291.80536 182.98846 291.80536C181.3316 291.80536 179.98846 290.4622 179.98846 288.80536C179.98846 287.1485 181.3316 285.80536 182.98846 285.80536C184.64531 285.80536 185.98846 287.1485 185.98846 288.80536Z" fill-rule="nonzero"/><path fill="#000000" fill-opacity="0.0" clip-path="url(#id_0)" d="M221.13461 278.7505C221.13461 280.40735 219.79147 281.7505 218.13461 281.7505C216.47777 281.7505 215.13461 280.40735 215.13461 278.7505C215.13461 277.09363 216.47777 275.7505 218.13461 275.7505C219.79147 275.7505 221.13461 277.09363 221.13461 278.7505Z" fill-rule="nonzero"/><path fill="#000000" fill-opacity="0.0" clip-path="url(#id_0)" d="M256.28076 278.72397C256.28076 280.38083 254.93762 281.72397 253.28076 281.72397C251.62392 281.72397 250.28076 280.38083 250.28076 278.72397C250.28076 277.0671 251.62392 275.72397 253.28076 275.72397C254.93762 275.72397 256.28076 277.0671 256.28076 278.72397Z" fill-rule="nonzero"/><path fill="#000000" fill-opacity="0.0" clip-path="url(#id_0)" d="M291.4269 279.09167C291.4269 280.74854 290.08377 282.09167 288.4269 282.09167C286.77008 282.09167 285.4269 280.74854 285.4269 279.09167C285.4269 277.4348 286.77008 276.09167 288.4269 276.09167C290.08377 276.09167 291.4269 277.4348 291.4269 279.09167Z" fill-rule="nonzero"/><path fill="#000000" fill-opacity="0.0" clip-path="url(#id_0)" d="M326.5731 279.014C326.5731 280.67087 325.22992 282.014 323.5731 282.014C321.91623 282.014 320.5731 280.67087 320.5731 279.014C320.5731 277.35715 321.91623 276.014 323.5731 276.014C325.22992 276.014 326.5731 277.35715 326.5731 279.014Z" fill-rule="nonzero"/><path fill="#000000" fill-opacity="0.0" clip-path="url(#id_0)" d="M361.71924 278.7851C361.71924 280.44196 360.3761 281.7851 358.71924 281.7851C357.06238 281.7851 355.71924 280.44196 355.71924 278.7851C355.71924 277.12823 357.06238 275.7851 358.71924 275.7851C360.3761 275.7851 361.71924 277.12823 361.71924 278.7851Z" fill-rule="nonzero"/><path fill="#000000" fill-opacity="0.0" clip-path="url(#id_0)" d="M396.8654 278.98947C396.8654 280.64633 395.52225 281.98947 393.8654 281.98947C392.20853 281.98947 390.8654 280.64633 390.8654 278.98947C390.8654 277.3326 392.20853 275.98947 393.8654 275.98947C395.52225 275.98947 396.8654 277.3326 396.8654 278.98947Z" fill-rule="nonzero"/><path fill="#000000" fill-opacity="0.0" clip-path="url(#id_0)" d="M432.01154 279.5095C432.01154 281.16635 430.6684 282.5095 429.01154 282.5095C427.35468 282.5095 426.01154 281.16635 426.01154 279.5095C426.01154 277.85263 427.35468 276.5095 429.01154 276.5095C430.6684 276.5095 432.01154 277.85263 432.01154 279.5095Z" fill-rule="nonzero"/><path fill="#000000" fill-opacity="0.0" clip-path="url(#id_0)" d="M467.15768 279.014C467.15768 280.67087 465.81454 282.014 464.15768 282.014C462.50082 282.014 461.15768 280.67087 461.15768 279.014C461.15768 277.35715 462.50082 276.014 464.15768 276.014C465.81454 276.014 467.15768 277.35715 467.15768 279.014Z" fill-rule="nonzero"/><path fill="#000000" fill-opacity="0.0" clip-path="url(#id_0)" d="M502.30383 278.70334C502.30383 280.3602 500.9607 281.70334 499.30383 281.70334C497.647 281.70334 496.30383 280.3602 496.30383 278.70334C496.30383 277.04648 497.647 275.70334 499.30383 275.70334C500.9607 275.70334 502.30383 277.04648 502.30383 278.70334Z" fill-rule="nonzero"/><path fill="#000000" fill-opacity="0.0" clip-path="url(#id_0)" d="M537.45 278.01297C537.45 279.66983 536.1069 281.01297 534.45 281.01297C532.79315 281.01297 531.45 279.66983 531.45 278.01297C531.45 276.3561 532.79315 275.01297 534.45 275.01297C536.1069 275.01297 537.45 276.3561 537.45 278.01297Z" fill-rule="nonzero"/><path fill="#000000" fill-opacity="0.0" clip-path="url(#id_0)" d="M80.55 297.78714C80.55 299.444 79.206856 300.78714 77.55 300.78714C75.89314 300.78714 74.55 299.444 74.55 297.78714C74.55 296.13028 75.89314 294.78714 77.55 294.78714C79.206856 294.78714 80.55 296.13028 80.55 297.78714Z" fill-rule="nonzero"/><path fill="#000000" fill-opacity="0.0" clip-path="url(#id_0)" d="M115.69615 296.44162C115.69615 298.09848 114.353004 299.44162 112.69615 299.44162C111.0393 299.44162 109.69615 298.09848 109.69615 296.44162C109.69615 294.7848 111.0393 293.44162 112.69615 293.44162C114.353004 293.44162 115.69615 294.7848 115.69615 296.44162Z" fill-rule="nonzero"/><path fill="#000000" fill-opacity="0.0" clip-path="url(#id_0)" d="M150.8423 293.49274C150.8423 295.1496 149.49916 296.49274 147.8423 296.49274C146.18546 296.49274 144.8423 295.1496 144.8423 293.49274C144.8423 291.83588 146.18546 290.49274 147.8423 290.49274C149.49916 290.49274 150.8423 291.83588 150.8423 293.49274Z" fill-rule="nonzero"/><path fill="#000000" fill-opacity="0.0" clip-path="url(#id_0)" d="M185.98846 288.81335C185.98846 290.47018 184.64531 291.81335 182.98846 291.81335C181.3316 291.81335 179.98846 290.47018 179.98846 288.81335C179.98846 287.1565 181.3316 285.81335 182.98846 285.81335C184.64531 285.81335 185.98846 287.1565 185.98846 288.81335Z" fill-rule="nonzero"/><path fill="#000000" fill-opacity="0.0" clip-path="url(#id_0)" d="M221.13461 278.82245C221.13461 280.4793 219.79147 281.82245 218.13461 281.82245C216.47777 281.82245 215.13461 280.4793 215.13461 278.82245C215.13461 277.1656 216.47777 275.82245 218.13461 275.82245C219.79147 275.82245 221.13461 277.1656 221.13461 278.82245Z" fill-rule="nonzero"/><path fill="#000000" fill-opacity="0.0" clip-path="url(#id_0)" d="M256.28076 262.21967C256.28076 263.87653 254.93762 265.21967 253.28076 265.21967C251.62392 265.21967 250.28076 263.87653 250.28076 262.21967C250.28076 260.5628 251.62392 259.21967 253.28076 259.21967C254.93762 259.21967 256.28076 260.5628 256.28076 262.21967Z" fill-rule="nonzero"/><path fill="#000000" fill-opacity="0.0" clip-path="url(#id_0)" d="M291.4269 234.24023C291.4269 235.8971 290.08377 237.24023 288.4269 237.24023C286.77008 237.24023 285.4269 235.8971 285.4269 234.24023C285.4269 232.58339 286.77008 231.24023 288.4269 231.24023C290.08377 231.24023 291.4269 232.58339 291.4269 234.24023Z" fill-rule="nonzero"/><path fill="#000000" fill-opacity="0.0" clip-path="url(#id_0)" d="M326.5731 192.91698C326.5731 194.57382 325.22992 195.91698 323.5731 195.91698C321.91623 195.91698 320.5731 194.57382 320.5731 192.91698C320.5731 191.26012 321.91623 189.91698 323.5731 189.91698C325.22992 189.91698 326.5731 191.26012 326.5731 192.91698Z" fill-rule="nonzero"/><path fill="#000000" fill-opacity="0.0" clip-path="url(#id_0)" d="M361.71924 147.55327C361.71924 149.21013 360.3761 150.55327 358.71924 150.55327C357.06238 150.55327 355.71924 149.21013 355.71924 147.55327C355.71924 145.89641 357.06238 144.55327 358.71924 144.55327C360.3761 144.55327 361.71924 145.89641 361.71924 147.55327Z" fill-rule="nonzero"/><path fill="#000000" fill-opacity="0.0" clip-path="url(#id_0)" d="M396.8654 107.9522C396.8654 109.609055 395.52225 110.9522 393.8654 110.9522C392.20853 110.9522 390.8654 109.609055 390.8654 107.9522C390.8654 106.29535 392.20853 104.9522 393.8654 104.9522C395.52225 104.9522 396.8654 106.29535 396.8654 107.9522Z" fill-rule="nonzero"/><path fill="#000000" fill-opacity="0.0" clip-path="url(#id_0)" d="M432.01154 108.84026C432.01154 110.497116 430.6684 111.84026 429.01154 111.84026C427.35468 111.84026 426.01154 110.497116 426.01154 108.84026C426.01154 107.1834 427.35468 105.84026 429.01154 105.84026C430.6684 105.84026 432.01154 107.1834 432.01154 108.84026Z" fill-rule="nonzero"/><path fill="#000000" fill-opacity="0.0" clip-path="url(#id_0)" d="M467.15768 108.68045C467.15768 110.3373 465.81454 111.68045 464.15768 111.68045C462.50082 111.68045 461.15768 110.3373 461.15768 108.68045C461.15768 107.0236 462.50082 105.68045 464.15768 105.68045C465.81454 105.68045 467.15768 107.0236 467.15768 108.68045Z" fill-rule="nonzero"/><path fill="#000000" fill-opacity="0.0" clip-path="url(#id_0)" d="M502.30383 108.01639C502.30383 109.67325 500.9607 111.01639 499.30383 111.01639C497.647 111.01639 496.30383 109.67325 496.30383 108.01639C496.30383 106.359535 497.647 105.01639 499.30383 105.01639C500.9607 105.01639 502.30383 106.359535 502.30383 108.01639Z" fill-rule="nonzero"/><path fill="#000000" fill-opacity="0.0" clip-path="url(#id_0)" d="M537.45 109.65738C537.45 111.31423 536.1069 112.65738 534.45 112.65738C532.79315 112.65738 531.45 111.31423 531.45 109.65738C531.45 108.00053 532.79315 106.65738 534.45 106.65738C536.1069 106.65738 537.45 108.00053 537.45 109.65738Z" fill-rule="nonzero"/><path fill="#000000" fill-opacity="0.0" clip-path="url(#id_0)" d="M80.55 298.15445C80.55 299.81128 79.206856 301.15445 77.55 301.15445C75.89314 301.15445 74.55 299.81128 74.55 298.15445C74.55 296.4976 75.89314 295.15445 77.55 295.15445C79.206856 295.15445 80.55 296.4976 80.55 298.15445Z" fill-rule="nonzero"/><path fill="#000000" fill-opacity="0.0" clip-path="url(#id_0)" d="M115.69615 294.42548C115.69615 296.08234 114.353004 297.42548 112.69615 297.42548C111.0393 297.42548 109.69615 296.08234 109.69615 294.42548C109.69615 292.76862 111.0393 291.42548 112.69615 291.42548C114.353004 291.42548 115.69615 292.76862 115.69615 294.42548Z" fill-rule="nonzero"/><path fill="#000000" fill-opacity="0.0" clip-path="url(#id_0)" d="M150.8423 293.8139C150.8423 295.47076 149.49916 296.8139 147.8423 296.8139C146.18546 296.8139 144.8423 295.47076 144.8423 293.8139C144.8423 292.15704 146.18546 290.8139 147.8423 290.8139C149.49916 290.8139 150.8423 292.15704 150.8423 293.8139Z" fill-rule="nonzero"/><path fill="#000000" fill-opacity="0.0" clip-path="url(#id_0)" d="M185.98846 268.53925C185.98846 270.1961 184.64531 271.53925 182.98846 271.53925C181.3316 271.53925 179.98846 270.1961 179.98846 268.53925C179.98846 266.88242 181.3316 265.53925 182.98846 265.53925C184.64531 265.53925 185.98846 266.88242 185.98846 268.53925Z" fill-rule="nonzero"/><path fill="#000000" fill-opacity="0.0" clip-path="url(#id_0)" d="M221.13461 258.52438C221.13461 260.18124 219.79147 261.52438 218.13461 261.52438C216.47777 261.52438 215.13461 260.18124 215.13461 258.52438C215.13461 256.86752 216.47777 255.52438 218.13461 255.52438C219.79147 255.52438 221.13461 256.86752 221.13461 258.52438Z" fill-rule="nonzero"/><path fill="#000000" fill-opacity="0.0" clip-path="url(#id_0)" d="M256.28076 270.72485C256.28076 272.3817 254.93762 273.72485 253.28076 273.72485C251.62392 273.72485 250.28076 272.3817 250.28076 270.72485C250.28076 269.068 251.62392 267.72485 253.28076 267.72485C254.93762 267.72485 256.28076 269.068 256.28076 270.72485Z" fill-rule="nonzero"/><path fill="#000000" fill-opacity="0.0" clip-path="url(#id_0)" d="M291.4269 269.23398C291.4269 270.89084 290.08377 272.23398 288.4269 272.23398C286.77008 272.23398 285.4269 270.89084 285.4269 269.23398C285.4269 267.57712 286.77008 266.23398 288.4269 266.23398C290.08377 266.23398 291.4269 267.57712 291.4269 269.23398Z" fill-rule="nonzero"/><path fill="#000000" fill-opacity="0.0" clip-path="url(#id_0)" d="M326.5731 266.95624C326.5731 268.6131 325.22992 269.95624 323.5731 269.95624C321.91623 269.95624 320.5731 268.6131 320.5731 266.95624C320.5731 265.2994 321.91623 263.95624 323.5731 263.95624C325.22992 263.95624 326.5731 265.2994 326.5731 266.95624Z" fill-rule="nonzero"/><path fill="#000000" fill-opacity="0.0" clip-path="url(#id_0)" d="M361.71924 268.16504C361.71924 269.8219 360.3761 271.16504 358.71924 271.16504C357.06238 271.16504 355.71924 269.8219 355.71924 268.16504C355.71924 266.50818 357.06238 265.16504 358.71924 265.16504C360.3761 265.16504 361.71924 266.50818 361.71924 268.16504Z" fill-rule="nonzero"/><path fill="#000000" fill-opacity="0.0" clip-path="url(#id_0)" d="M396.8654 267.83C396.8654 269.48685 395.52225 270.83 393.8654 270.83C392.20853 270.83 390.8654 269.48685 390.8654 267.83C390.8654 266.17316 392.20853 264.83 393.8654 264.83C395.52225 264.83 396.8654 266.17316 396.8654 267.83Z" fill-rule="nonzero"/><path fill="#000000" fill-opacity="0.0" clip-path="url(#id_0)" d="M432.01154 267.364C432.01154 269.02084 430.6684 270.364 429.01154 270.364C427.35468 270.364 426.01154 269.02084 426.01154 267.364C426.01154 265.70715 427.35468 264.364 429.01154 264.364C430.6684 264.364 432.01154 265.70715 432.01154 267.364Z" fill-rule="nonzero"/><path fill="#000000" fill-opacity="0.0" clip-path="url(#id_0)" d="M467.15768 255.79167C467.15768 257.44852 465.81454 258.79166 464.15768 258.79166C462.50082 258.79166 461.15768 257.44852 461.15768 255.79167C461.15768 254.13481 462.50082 252.79167 464.15768 252.79167C465.81454 252.79167 467.15768 254.13481 467.15768 255.79167Z" fill-rule="nonzero"/><path fill="#000000" fill-opacity="0.0" clip-path="url(#id_0)" d="M502.30383 257.52896C502.30383 259.1858 500.9607 260.52896 499.30383 260.52896C497.647 260.52896 496.30383 259.1858 496.30383 257.52896C496.30383 255.87209 497.647 254.52895 499.30383 254.52895C500.9607 254.52895 502.30383 255.87209 502.30383 257.52896Z" fill-rule="nonzero"/><path fill="#000000" fill-opacity="0.0" clip-path="url(#id_0)" d="M537.45 252.93628C537.45 254.59312 536.1069 255.93628 534.45 255.93628C532.79315 255.93628 531.45 254.59312 531.45 252.93628C531.45 251.27942 532.79315 249.93628 534.45 249.93628C536.1069 249.93628 537.45 251.27942 537.45 252.93628Z" fill-rule="nonzero"/><path fill="#000000" fill-opacity="0.0" clip-path="url(#id_0)" d="M80.55 292.78854C80.55 294.44537 79.206856 295.78854 77.55 295.78854C75.89314 295.78854 74.55 294.44537 74.55 292.78854C74.55 291.13168 75.89314 289.78854 77.55 289.78854C79.206856 289.78854 80.55 291.13168 80.55 292.78854Z" fill-rule="nonzero"/><path fill="#000000" fill-opacity="0.0" clip-path="url(#id_0)" d="M115.69615 292.57043C115.69615 294.2273 114.353004 295.57043 112.69615 295.57043C111.0393 295.57043 109.69615 294.2273 109.69615 292.57043C109.69615 290.91357 111.0393 289.57043 112.69615 289.57043C114.353004 289.57043 115.69615 290.91357 115.69615 292.57043Z" fill-rule="nonzero"/><path fill="#000000" fill-opacity="0.0" clip-path="url(#id_0)" d="M150.8423 292.18384C150.8423 293.8407 149.49916 295.18384 147.8423 295.18384C146.18546 295.18384 144.8423 293.8407 144.8423 292.18384C144.8423 290.527 146.18546 289.18384 147.8423 289.18384C149.49916 289.18384 150.8423 290.527 150.8423 292.18384Z" fill-rule="nonzero"/><path fill="#000000" fill-opacity="0.0" clip-path="url(#id_0)" d="M185.98846 261.9697C185.98846 263.62656 184.64531 264.9697 182.98846 264.9697C181.3316 264.9697 179.98846 263.62656 179.98846 261.9697C179.98846 260.31284 181.3316 258.9697 182.98846 258.9697C184.64531 258.9697 185.98846 260.31284 185.98846 261.9697Z" fill-rule="nonzero"/><path fill="#000000" fill-opacity="0.0" clip-path="url(#id_0)" d="M221.13461 252.50682C221.13461 254.16368 219.79147 255.50682 218.13461 255.50682C216.47777 255.50682 215.13461 254.16368 215.13461 252.50682C215.13461 250.84998 216.47777 249.50682 218.13461 249.50682C219.79147 249.50682 221.13461 250.84998 221.13461 252.50682Z" fill-rule="nonzero"/><path fill="#000000" fill-opacity="0.0" clip-path="url(#id_0)" d="M256.28076 257.70636C256.28076 259.36322 254.93762 260.70636 253.28076 260.70636C251.62392 260.70636 250.28076 259.36322 250.28076 257.70636C250.28076 256.0495 251.62392 254.70636 253.28076 254.70636C254.93762 254.70636 256.28076 256.0495 256.28076 257.70636Z" fill-rule="nonzero"/><path fill="#000000" fill-opacity="0.0" clip-path="url(#id_0)" d="M291.4269 254.88359C291.4269 256.54044 290.08377 257.88358 288.4269 257.88358C286.77008 257.88358 285.4269 256.54044 285.4269 254.88359C285.4269 253.22673 286.77008 251.88359 288.4269 251.88359C290.08377 251.88359 291.4269 253.22673 291.4269 254.88359Z" fill-rule="nonzero"/><path fill="#000000" fill-opacity="0.0" clip-path="url(#id_0)" d="M326.5731 253.13547C326.5731 254.79233 325.22992 256.13547 323.5731 256.13547C321.91623 256.13547 320.5731 254.79233 320.5731 253.13547C320.5731 251.4786 321.91623 250.13547 323.5731 250.13547C325.22992 250.13547 326.5731 251.4786 326.5731 253.13547Z" fill-rule="nonzero"/><path fill="#000000" fill-opacity="0.0" clip-path="url(#id_0)" d="M361.71924 251.81549C361.71924 253.47234 360.3761 254.81549 358.71924 254.81549C357.06238 254.81549 355.71924 253.47234 355.71924 251.81549C355.71924 250.15863 357.06238 248.81549 358.71924 248.81549C360.3761 248.81549 361.71924 250.15863 361.71924 251.81549Z" fill-rule="nonzero"/><path fill="#000000" fill-opacity="0.0" clip-path="url(#id_0)" d="M396.8654 250.78639C396.8654 252.44324 395.52225 253.78639 393.8654 253.78639C392.20853 253.78639 390.8654 252.44324 390.8654 250.78639C390.8654 249.12953 392.20853 247.78639 393.8654 247.78639C395.52225 247.78639 396.8654 249.12953 396.8654 250.78639Z" fill-rule="nonzero"/><path fill="#000000" fill-opacity="0.0" clip-path="url(#id_0)" d="M432.01154 250.86409C432.01154 252.52095 430.6684 253.86409 429.01154 253.86409C427.35468 253.86409 426.01154 252.52095 426.01154 250.86409C426.01154 249.20724 427.35468 247.86409 429.01154 247.86409C430.6684 247.86409 432.01154 249.20724 432.01154 250.86409Z" fill-rule="nonzero"/><path fill="#000000" fill-opacity="0.0" clip-path="url(#id_0)" d="M467.15768 240.08731C467.15768 241.74416 465.81454 243.08731 464.15768 243.08731C462.50082 243.08731 461.15768 241.74416 461.15768 240.08731C461.15768 238.43045 462.50082 237.08731 464.15768 237.08731C465.81454 237.08731 467.15768 238.43045 467.15768 240.08731Z" fill-rule="nonzero"/><path fill="#000000" fill-opacity="0.0" clip-path="url(#id_0)" d="M502.30383 240.12755C502.30383 241.78441 500.9607 243.12755 499.30383 243.12755C497.647 243.12755 496.30383 241.78441 496.30383 240.12755C496.30383 238.47069 497.647 237.12755 499.30383 237.12755C500.9607 237.12755 502.30383 238.47069 502.30383 240.12755Z" fill-rule="nonzero"/><path fill="#000000" fill-opacity="0.0" clip-path="url(#id_0)" d="M537.45 239.99104C537.45 241.64789 536.1069 242.99104 534.45 242.99104C532.79315 242.99104 531.45 241.64789 531.45 239.99104C531.45 238.33418 532.79315 236.99104 534.45 236.99104C536.1069 236.99104 537.45 238.33418 537.45 239.99104Z" fill-rule="nonzero"/><path fill="#000000" d="M275.04688 346.6844L276.10938 346.59064Q276.1875 347.2469 276.46875 347.65314Q276.75 348.0594 277.32812 348.325Q277.92188 348.575 278.65625 348.575Q279.29688 348.575 279.79688 348.3875Q280.29688 348.1844 280.53125 347.85626Q280.78125 347.5125 280.78125 347.1219Q280.78125 346.71564 280.54688 346.41876Q280.3125 346.10626 279.78125 345.90314Q279.42188 345.7625 278.23438 345.48126Q277.0625 345.2 276.59375 344.95Q275.96875 344.6219 275.67188 344.15314Q275.375 343.66876 275.375 343.075Q275.375 342.4344 275.73438 341.8719Q276.10938 341.29376 276.8125 341.0125Q277.53125 340.71564 278.39062 340.71564Q279.34375 340.71564 280.07812 341.02814Q280.8125 341.325 281.20312 341.9344Q281.59375 342.52814 281.625 343.27814L280.53125 343.35626Q280.4375 342.54376 279.92188 342.1375Q279.42188 341.71564 278.4375 341.71564Q277.40625 341.71564 276.9375 342.09064Q276.46875 342.46564 276.46875 342.9969Q276.46875 343.46564 276.79688 343.7625Q277.125 344.0594 278.5 344.3719Q279.89062 344.6844 280.40625 344.91876Q281.15625 345.27814 281.51562 345.8094Q281.875 346.325 281.875 347.02814Q281.875 347.71564 281.48438 348.325Q281.09375 348.91876 280.35938 349.2625Q279.625 349.59064 278.70312 349.59064Q277.53125 349.59064 276.73438 349.2625Q275.95312 348.91876 275.5 348.23126Q275.0625 347.54376 275.04688 346.6844ZM283.29688 342.075L283.29688 340.85626L284.35938 340.85626L284.35938 342.075L283.29688 342.075ZM283.29688 349.45L283.29688 343.23126L284.35938 343.23126L284.35938 349.45L283.29688 349.45ZM285.73438 349.45L285.73438 348.59064L289.70312 344.04376Q289.01562 344.075 288.5 344.075L285.96875 344.075L285.96875 343.23126L291.0625 343.23126L291.0625 343.91876L287.6875 347.8719L287.03125 348.59064Q287.75 348.54376 288.35938 348.54376L291.25 348.54376L291.25 349.45L285.73438 349.45ZM295.54688 347.45L296.64062 347.575Q296.39062 348.52814 295.6875 349.0594Q294.98438 349.59064 293.90625 349.59064Q292.54688 349.59064 291.73438 348.7469Q290.9375 347.90314 290.9375 346.3875Q290.9375 344.825 291.75 343.96564Q292.5625 343.09064 293.84375 343.09064Q295.09375 343.09064 295.875 343.9344Q296.67188 344.77814 296.67188 346.325Q296.67188 346.41876 296.67188 346.60626L292.03125 346.60626Q292.09375 347.6375 292.60938 348.1844Q293.125 348.71564 293.90625 348.71564Q294.48438 348.71564 294.89062 348.41876Q295.3125 348.10626 295.54688 347.45ZM292.09375 345.7469L295.5625 345.7469Q295.5 344.95 295.17188 344.5594Q294.65625 343.95 293.85938 343.95Q293.125 343.95 292.625 344.4344Q292.14062 344.91876 292.09375 345.7469ZM303.3125 351.98126Q302.4375 350.8719 301.82812 349.40314Q301.23438 347.91876 301.23438 346.34064Q301.23438 344.95 301.67188 343.66876Q302.20312 342.1844 303.3125 340.71564L304.0625 340.71564Q303.35938 341.9344 303.125 342.45Q302.76562 343.2625 302.5625 344.1375Q302.3125 345.23126 302.3125 346.34064Q302.3125 349.16876 304.0625 351.98126L303.3125 351.98126ZM306.26562 349.45L305.28125 349.45L305.28125 340.85626L306.34375 340.85626L306.34375 343.91876Q307.01562 343.09064 308.04688 343.09064Q308.625 343.09064 309.125 343.325Q309.64062 343.54376 309.96875 343.96564Q310.3125 344.3875 310.5 344.98126Q310.6875 345.575 310.6875 346.2469Q310.6875 347.84064 309.89062 348.71564Q309.09375 349.59064 308.0 349.59064Q306.89062 349.59064 306.26562 348.66876L306.26562 349.45ZM306.25 346.29376Q306.25 347.40314 306.5625 347.90314Q307.0625 348.71564 307.90625 348.71564Q308.59375 348.71564 309.09375 348.1219Q309.60938 347.52814 309.60938 346.325Q309.60938 345.10626 309.125 344.52814Q308.64062 343.95 307.95312 343.95Q307.26562 343.95 306.75 344.5594Q306.25 345.15314 306.25 346.29376ZM312.25 351.84064L312.125 350.85626Q312.46875 350.95 312.73438 350.95Q313.07812 350.95 313.28125 350.825Q313.5 350.71564 313.64062 350.5125Q313.73438 350.34064 313.96875 349.71564Q313.98438 349.6375 314.0625 349.46564L311.6875 343.23126L312.82812 343.23126L314.125 346.825Q314.375 347.5125 314.57812 348.27814Q314.76562 347.54376 315.01562 346.85626L316.34375 343.23126L317.39062 343.23126L315.03125 349.5594Q314.64062 350.575 314.4375 350.96564Q314.15625 351.4969 313.78125 351.73126Q313.42188 351.98126 312.92188 351.98126Q312.625 351.98126 312.25 351.84064ZM319.59375 348.5125L319.75 349.4344Q319.29688 349.52814 318.95312 349.52814Q318.375 349.52814 318.0625 349.35626Q317.75 349.16876 317.60938 348.8719Q317.48438 348.575 317.48438 347.6219L317.48438 344.04376L316.71875 344.04376L316.71875 343.23126L317.48438 343.23126L317.48438 341.6844L318.53125 341.0594L318.53125 343.23126L319.59375 343.23126L319.59375 344.04376L318.53125 344.04376L318.53125 347.6844Q318.53125 348.1375 318.57812 348.2625Q318.64062 348.3875 318.76562 348.46564Q318.89062 348.54376 319.125 348.54376Q319.3125 348.54376 319.59375 348.5125ZM324.54688 347.45L325.64062 347.575Q325.39062 348.52814 324.6875 349.0594Q323.98438 349.59064 322.90625 349.59064Q321.54688 349.59064 320.73438 348.7469Q319.9375 347.90314 319.9375 346.3875Q319.9375 344.825 320.75 343.96564Q321.5625 343.09064 322.84375 343.09064Q324.09375 343.09064 324.875 343.9344Q325.67188 344.77814 325.67188 346.325Q325.67188 346.41876 325.67188 346.60626L321.03125 346.60626Q321.09375 347.6375 321.60938 348.1844Q322.125 348.71564 322.90625 348.71564Q323.48438 348.71564 323.89062 348.41876Q324.3125 348.10626 324.54688 347.45ZM321.09375 345.7469L324.5625 345.7469Q324.5 344.95 324.17188 344.5594Q323.65625 343.95 322.85938 343.95Q322.125 343.95 321.625 344.4344Q321.14062 344.91876 321.09375 345.7469ZM326.875 347.59064L327.90625 347.4344Q328.0 348.0594 328.39062 348.3875Q328.79688 348.71564 329.53125 348.71564Q330.25 348.71564 330.59375 348.4344Q330.95312 348.1375 330.95312 347.73126Q330.95312 347.3719 330.64062 347.16876Q330.42188 347.02814 329.5625 346.8094Q328.40625 346.5125 327.95312 346.3094Q327.51562 346.09064 327.28125 345.71564Q327.04688 345.34064 327.04688 344.8719Q327.04688 344.46564 327.23438 344.10626Q327.42188 343.7469 327.75 343.5125Q328.0 343.34064 328.42188 343.21564Q328.84375 343.09064 329.34375 343.09064Q330.0625 343.09064 330.60938 343.3094Q331.17188 343.5125 331.4375 343.8719Q331.70312 344.23126 331.79688 344.825L330.76562 344.96564Q330.70312 344.4969 330.35938 344.23126Q330.03125 343.95 329.40625 343.95Q328.6875 343.95 328.375 344.2Q328.0625 344.4344 328.0625 344.7625Q328.0625 344.96564 328.1875 345.1219Q328.32812 345.29376 328.59375 345.40314Q328.75 345.46564 329.53125 345.66876Q330.65625 345.98126 331.09375 346.16876Q331.53125 346.35626 331.78125 346.71564Q332.03125 347.075 332.03125 347.6219Q332.03125 348.15314 331.71875 348.6219Q331.42188 349.075 330.84375 349.34064Q330.26562 349.59064 329.53125 349.59064Q328.3125 349.59064 327.67188 349.09064Q327.04688 348.575 326.875 347.59064ZM334.98438 351.98126L334.23438 351.98126Q335.98438 349.16876 335.98438 346.34064Q335.98438 345.2469 335.73438 344.15314Q335.53125 343.27814 335.17188 342.46564Q334.9375 341.95 334.23438 340.71564L334.98438 340.71564Q336.07812 342.1844 336.60938 343.66876Q337.0625 344.95 337.0625 346.34064Q337.0625 347.91876 336.45312 349.40314Q335.84375 350.8719 334.98438 351.98126Z" fill-rule="nonzero"/><path fill="#000000" d="M26.784388 274.3198L26.690638 273.2573Q27.346888 273.17917 27.753138 272.89792Q28.159388 272.61667 28.425013 272.03854Q28.675013 271.4448 28.675013 270.71042Q28.675013 270.0698 28.487513 269.5698Q28.284388 269.0698 27.956263 268.83542Q27.612513 268.58542 27.221888 268.58542Q26.815638 268.58542 26.518763 268.8198Q26.206263 269.05417 26.003138 269.58542Q25.862513 269.9448 25.581263 271.1323Q25.300013 272.30417 25.050013 272.77292Q24.721888 273.39792 24.253138 273.6948Q23.768763 273.99167 23.175013 273.99167Q22.534388 273.99167 21.971888 273.6323Q21.393763 273.2573 21.112513 272.55417Q20.815638 271.83542 20.815638 270.97604Q20.815638 270.02292 21.128138 269.28854Q21.425013 268.55417 22.034388 268.16354Q22.628138 267.77292 23.378138 267.74167L23.456263 268.83542Q22.643763 268.92917 22.237513 269.4448Q21.815638 269.9448 21.815638 270.92917Q21.815638 271.96042 22.190638 272.42917Q22.565638 272.89792 23.096888 272.89792Q23.565638 272.89792 23.862513 272.5698Q24.159388 272.24167 24.471888 270.86667Q24.784388 269.47604 25.018763 268.96042Q25.378138 268.21042 25.909388 267.85104Q26.425013 267.49167 27.128138 267.49167Q27.815638 267.49167 28.425013 267.8823Q29.018763 268.27292 29.362513 269.0073Q29.690638 269.74167 29.690638 270.66354Q29.690638 271.83542 29.362513 272.6323Q29.018763 273.41354 28.331263 273.86667Q27.643763 274.30417 26.784388 274.3198ZM31.940638 266.0698L23.331263 266.0698L23.331263 265.11667L24.128138 265.11667Q23.659388 264.77292 23.425013 264.35104Q23.190638 263.91354 23.190638 263.30417Q23.190638 262.5073 23.596888 261.89792Q24.003138 261.28854 24.753138 260.99167Q25.503138 260.67917 26.393763 260.67917Q27.346888 260.67917 28.112513 261.02292Q28.878138 261.35104 29.284388 262.0073Q29.690638 262.66354 29.690638 263.3823Q29.690638 263.91354 29.471888 264.33542Q29.237513 264.7573 28.909388 265.02292L31.940638 265.02292L31.940638 266.0698ZM26.471888 265.11667Q27.675013 265.11667 28.253138 264.6323Q28.815638 264.14792 28.815638 263.46042Q28.815638 262.7573 28.221888 262.2573Q27.628138 261.7573 26.378138 261.7573Q25.190638 261.7573 24.612513 262.24167Q24.018763 262.72604 24.018763 263.41354Q24.018763 264.08542 24.643763 264.60104Q25.268763 265.11667 26.471888 265.11667ZM27.550013 254.8198L27.675013 253.72604Q28.628138 253.97604 29.159388 254.67917Q29.690638 255.3823 29.690638 256.46042Q29.690638 257.8198 28.846888 258.6323Q28.003138 259.42917 26.487513 259.42917Q24.925013 259.42917 24.065638 258.61667Q23.190638 257.80417 23.190638 256.52292Q23.190638 255.27292 24.034388 254.49167Q24.878138 253.6948 26.425013 253.6948Q26.518763 253.6948 26.706263 253.6948L26.706263 258.33542Q27.737513 258.27292 28.284388 257.7573Q28.815638 257.24167 28.815638 256.46042Q28.815638 255.8823 28.518763 255.47604Q28.206263 255.05417 27.550013 254.8198ZM25.846888 258.27292L25.846888 254.80417Q25.050013 254.86667 24.659388 255.1948Q24.050013 255.71042 24.050013 256.5073Q24.050013 257.24167 24.534388 257.74167Q25.018763 258.22604 25.846888 258.27292ZM27.550013 247.8198L27.675013 246.72604Q28.628138 246.97604 29.159388 247.67917Q29.690638 248.3823 29.690638 249.46042Q29.690638 250.8198 28.846888 251.6323Q28.003138 252.42917 26.487513 252.42917Q24.925013 252.42917 24.065638 251.61667Q23.190638 250.80417 23.190638 249.52292Q23.190638 248.27292 24.034388 247.49167Q24.878138 246.6948 26.425013 246.6948Q26.518763 246.6948 26.706263 246.6948L26.706263 251.33542Q27.737513 251.27292 28.284388 250.7573Q28.815638 250.24167 28.815638 249.46042Q28.815638 248.8823 28.518763 248.47604Q28.206263 248.05417 27.550013 247.8198ZM25.846888 251.27292L25.846888 247.80417Q25.050013 247.86667 24.659388 248.1948Q24.050013 248.71042 24.050013 249.5073Q24.050013 250.24167 24.534388 250.74167Q25.018763 251.22604 25.846888 251.27292ZM29.550013 241.03854L28.768763 241.03854Q29.690638 241.6323 29.690638 242.77292Q29.690638 243.52292 29.284388 244.14792Q28.862513 244.77292 28.128138 245.11667Q27.393763 245.46042 26.440638 245.46042Q25.518763 245.46042 24.753138 245.14792Q23.987513 244.83542 23.596888 244.21042Q23.190638 243.58542 23.190638 242.8198Q23.190638 242.2573 23.425013 241.8198Q23.659388 241.3823 24.034388 241.10104L20.956263 241.10104L20.956263 240.05417L29.550013 240.05417L29.550013 241.03854ZM26.440638 244.36667Q27.643763 244.36667 28.237513 243.86667Q28.815638 243.36667 28.815638 242.67917Q28.815638 241.99167 28.253138 241.5073Q27.690638 241.02292 26.534388 241.02292Q25.253138 241.02292 24.659388 241.52292Q24.065638 242.0073 24.065638 242.72604Q24.065638 243.42917 24.643763 243.89792Q25.206263 244.36667 26.440638 244.36667ZM29.550013 230.99167L28.628138 230.99167Q29.690638 231.72604 29.690638 232.97604Q29.690638 233.52292 29.487513 234.0073Q29.268763 234.47604 28.956263 234.71042Q28.628138 234.9448 28.159388 235.03854Q27.862513 235.10104 27.175013 235.10104L23.331263 235.10104L23.331263 234.03854L26.784388 234.03854Q27.596888 234.03854 27.893763 233.97604Q28.300013 233.8823 28.550013 233.5698Q28.784388 233.24167 28.784388 232.7573Q28.784388 232.28854 28.550013 231.8823Q28.300013 231.46042 27.878138 231.28854Q27.456263 231.10104 26.659388 231.10104L23.331263 231.10104L23.331263 230.05417L29.550013 230.05417L29.550013 230.99167ZM31.940638 228.0698L23.331263 228.0698L23.331263 227.11667L24.128138 227.11667Q23.659388 226.77292 23.425013 226.35104Q23.190638 225.91354 23.190638 225.30417Q23.190638 224.5073 23.596888 223.89792Q24.003138 223.28854 24.753138 222.99167Q25.503138 222.67917 26.393763 222.67917Q27.346888 222.67917 28.112513 223.02292Q28.878138 223.35104 29.284388 224.0073Q29.690638 224.66354 29.690638 225.3823Q29.690638 225.91354 29.471888 226.33542Q29.237513 226.7573 28.909388 227.02292L31.940638 227.02292L31.940638 228.0698ZM26.471888 227.11667Q27.675013 227.11667 28.253138 226.6323Q28.815638 226.14792 28.815638 225.46042Q28.815638 224.7573 28.221888 224.2573Q27.628138 223.7573 26.378138 223.7573Q25.190638 223.7573 24.612513 224.24167Q24.018763 224.72604 24.018763 225.41354Q24.018763 226.08542 24.643763 226.60104Q25.268763 227.11667 26.471888 227.11667ZM26.440638 218.46042Q24.706263 218.46042 23.878138 217.5073Q23.190638 216.71042 23.190638 215.55417Q23.190638 214.27292 24.034388 213.46042Q24.862513 212.6323 26.346888 212.6323Q27.550013 212.6323 28.237513 212.99167Q28.925013 213.35104 29.315638 214.05417Q29.690638 214.74167 29.690638 215.55417Q29.690638 216.85104 28.862513 217.66354Q28.018763 218.46042 26.440638 218.46042ZM26.440638 217.3823Q27.628138 217.3823 28.221888 216.86667Q28.815638 216.33542 28.815638 215.55417Q28.815638 214.7573 28.221888 214.24167Q27.628138 213.72604 26.409388 213.72604Q25.253138 213.72604 24.659388 214.2573Q24.065638 214.77292 24.065638 215.55417Q24.065638 216.33542 24.659388 216.86667Q25.237513 217.3823 26.440638 217.3823ZM29.550013 209.35104L23.331263 211.71042L23.331263 210.60104L27.050013 209.2573Q27.659388 209.05417 28.300013 208.86667Q27.815638 208.72604 27.128138 208.47604L23.331263 207.08542L23.331263 206.0073L29.550013 208.36667L29.550013 209.35104ZM27.550013 201.8198L27.675013 200.72604Q28.628138 200.97604 29.159388 201.67917Q29.690638 202.3823 29.690638 203.46042Q29.690638 204.8198 28.846888 205.6323Q28.003138 206.42917 26.487513 206.42917Q24.925013 206.42917 24.065638 205.61667Q23.190638 204.80417 23.190638 203.52292Q23.190638 202.27292 24.034388 201.49167Q24.878138 200.6948 26.425013 200.6948Q26.518763 200.6948 26.706263 200.6948L26.706263 205.33542Q27.737513 205.27292 28.284388 204.7573Q28.815638 204.24167 28.815638 203.46042Q28.815638 202.8823 28.518763 202.47604Q28.206263 202.05417 27.550013 201.8198ZM25.846888 205.27292L25.846888 201.80417Q25.050013 201.86667 24.659388 202.1948Q24.050013 202.71042 24.050013 203.5073Q24.050013 204.24167 24.534388 204.74167Q25.018763 205.22604 25.846888 205.27292ZM29.550013 199.08542L23.331263 199.08542L23.331263 198.1323L24.268763 198.1323Q23.612513 197.77292 23.409388 197.47604Q23.190638 197.16354 23.190638 196.78854Q23.190638 196.2573 23.518763 195.71042L24.503138 196.0698Q24.268763 196.46042 24.268763 196.83542Q24.268763 197.1948 24.487513 197.47604Q24.690638 197.74167 25.065638 197.85104Q25.628138 198.03854 26.284388 198.03854L29.550013 198.03854L29.550013 199.08542ZM29.550013 191.10104L29.550013 192.08542L20.956263 192.08542L20.956263 191.02292L24.018763 191.02292Q23.190638 190.35104 23.190638 189.3198Q23.190638 188.74167 23.425013 188.24167Q23.643763 187.72604 24.065638 187.39792Q24.487513 187.05417 25.081263 186.86667Q25.675013 186.67917 26.346888 186.67917Q27.940638 186.67917 28.815638 187.47604Q29.690638 188.27292 29.690638 189.36667Q29.690638 190.47604 28.768763 191.10104L29.550013 191.10104ZM26.393763 191.11667Q27.503138 191.11667 28.003138 190.80417Q28.815638 190.30417 28.815638 189.46042Q28.815638 188.77292 28.221888 188.27292Q27.628138 187.7573 26.425013 187.7573Q25.206263 187.7573 24.628138 188.24167Q24.050013 188.72604 24.050013 189.41354Q24.050013 190.10104 24.659388 190.61667Q25.253138 191.11667 26.393763 191.11667ZM28.784388 181.0073Q29.284388 181.60104 29.487513 182.14792Q29.690638 182.67917 29.690638 183.30417Q29.690638 184.33542 29.190638 184.8823Q28.690638 185.42917 27.909388 185.42917Q27.456263 185.42917 27.081263 185.22604Q26.690638 185.02292 26.471888 184.67917Q26.237513 184.33542 26.128138 183.91354Q26.034388 183.61667 25.956263 182.97604Q25.815638 181.71042 25.596888 181.10104Q25.378138 181.10104 25.331263 181.10104Q24.675013 181.10104 24.409388 181.39792Q24.065638 181.80417 24.065638 182.60104Q24.065638 183.33542 24.331263 183.6948Q24.581263 184.05417 25.237513 184.22604L25.096888 185.2573Q24.440638 185.11667 24.034388 184.78854Q23.628138 184.46042 23.409388 183.85104Q23.190638 183.24167 23.190638 182.4448Q23.190638 181.64792 23.378138 181.14792Q23.565638 180.64792 23.846888 180.41354Q24.128138 180.17917 24.565638 180.08542Q24.831263 180.03854 25.534388 180.03854L26.940638 180.03854Q28.409388 180.03854 28.800013 179.97604Q29.190638 179.89792 29.550013 179.6948L29.550013 180.80417Q29.221888 180.96042 28.784388 181.0073ZM26.425013 181.10104Q26.659388 181.67917 26.831263 182.8198Q26.925013 183.47604 27.050013 183.74167Q27.159388 184.0073 27.378138 184.16354Q27.596888 184.30417 27.878138 184.30417Q28.300013 184.30417 28.581263 183.99167Q28.862513 183.66354 28.862513 183.05417Q28.862513 182.4448 28.596888 181.97604Q28.331263 181.49167 27.862513 181.27292Q27.503138 181.10104 26.815638 181.10104L26.425013 181.10104ZM27.690638 178.49167L27.534388 177.46042Q28.159388 177.36667 28.487513 176.97604Q28.815638 176.5698 28.815638 175.83542Q28.815638 175.11667 28.534388 174.77292Q28.237513 174.41354 27.831263 174.41354Q27.471888 174.41354 27.268763 174.72604Q27.128138 174.9448 26.909388 175.80417Q26.612513 176.96042 26.409388 177.41354Q26.190638 177.85104 25.815638 178.08542Q25.440638 178.3198 24.971888 178.3198Q24.565638 178.3198 24.206263 178.1323Q23.846888 177.9448 23.612513 177.61667Q23.440638 177.36667 23.315638 176.9448Q23.190638 176.52292 23.190638 176.02292Q23.190638 175.30417 23.409388 174.7573Q23.612513 174.1948 23.971888 173.92917Q24.331263 173.66354 24.925013 173.5698L25.065638 174.60104Q24.596888 174.66354 24.331263 175.0073Q24.050013 175.33542 24.050013 175.96042Q24.050013 176.67917 24.300013 176.99167Q24.534388 177.30417 24.862513 177.30417Q25.065638 177.30417 25.221888 177.17917Q25.393763 177.03854 25.503138 176.77292Q25.565638 176.61667 25.768763 175.83542Q26.081263 174.71042 26.268763 174.27292Q26.456263 173.83542 26.815638 173.58542Q27.175013 173.33542 27.721888 173.33542Q28.253138 173.33542 28.721888 173.64792Q29.175013 173.9448 29.440638 174.52292Q29.690638 175.10104 29.690638 175.83542Q29.690638 177.05417 29.190638 177.6948Q28.675013 178.3198 27.690638 178.49167ZM27.550013 166.8198L27.675013 165.72604Q28.628138 165.97604 29.159388 166.67917Q29.690638 167.3823 29.690638 168.46042Q29.690638 169.8198 28.846888 170.6323Q28.003138 171.42917 26.487513 171.42917Q24.925013 171.42917 24.065638 170.61667Q23.190638 169.80417 23.190638 168.52292Q23.190638 167.27292 24.034388 166.49167Q24.878138 165.6948 26.425013 165.6948Q26.518763 165.6948 26.706263 165.6948L26.706263 170.33542Q27.737513 170.27292 28.284388 169.7573Q28.815638 169.24167 28.815638 168.46042Q28.815638 167.8823 28.518763 167.47604Q28.206263 167.05417 27.550013 166.8198ZM25.846888 170.27292L25.846888 166.80417Q25.050013 166.86667 24.659388 167.1948Q24.050013 167.71042 24.050013 168.5073Q24.050013 169.24167 24.534388 169.74167Q25.018763 170.22604 25.846888 170.27292ZM29.550013 164.10104L20.956263 164.10104L20.956263 163.03854L29.550013 163.03854L29.550013 164.10104ZM22.175013 161.0698L20.956263 161.0698L20.956263 160.0073L22.175013 160.0073L22.175013 161.0698ZM29.550013 161.0698L23.331263 161.0698L23.331263 160.0073L29.550013 160.0073L29.550013 161.0698ZM29.550013 158.0698L23.331263 158.0698L23.331263 157.1323L24.206263 157.1323Q23.190638 156.4448 23.190638 155.14792Q23.190638 154.58542 23.393763 154.11667Q23.596888 153.6323 23.925013 153.39792Q24.253138 153.16354 24.690638 153.0698Q24.987513 153.02292 25.721888 153.02292L29.550013 153.02292L29.550013 154.0698L25.768763 154.0698Q25.112513 154.0698 24.800013 154.1948Q24.487513 154.3198 24.300013 154.6323Q24.096888 154.9448 24.096888 155.36667Q24.096888 156.03854 24.534388 156.53854Q24.956263 157.02292 26.143763 157.02292L29.550013 157.02292L29.550013 158.0698ZM27.550013 146.8198L27.675013 145.72604Q28.628138 145.97604 29.159388 146.67917Q29.690638 147.3823 29.690638 148.46042Q29.690638 149.8198 28.846888 150.6323Q28.003138 151.42917 26.487513 151.42917Q24.925013 151.42917 24.065638 150.61667Q23.190638 149.80417 23.190638 148.52292Q23.190638 147.27292 24.034388 146.49167Q24.878138 145.6948 26.425013 145.6948Q26.518763 145.6948 26.706263 145.6948L26.706263 150.33542Q27.737513 150.27292 28.284388 149.7573Q28.815638 149.24167 28.815638 148.46042Q28.815638 147.8823 28.518763 147.47604Q28.206263 147.05417 27.550013 146.8198ZM25.846888 150.27292L25.846888 146.80417Q25.050013 146.86667 24.659388 147.1948Q24.050013 147.71042 24.050013 148.5073Q24.050013 149.24167 24.534388 149.74167Q25.018763 150.22604 25.846888 150.27292Z" fill-rule="nonzero"/><path fill="#000000" d="M65.05 300.21564Q65.05 298.6844 65.3625 297.7625Q65.675 296.825 66.28438 296.325Q66.90938 295.825 67.84688 295.825Q68.53438 295.825 69.05 296.10626Q69.58125 296.3875 69.925 296.91876Q70.26875 297.4344 70.45625 298.1844Q70.64375 298.9344 70.64375 300.21564Q70.64375 301.73126 70.33125 302.65314Q70.03438 303.575 69.40938 304.09064Q68.8 304.59064 67.84688 304.59064Q66.6125 304.59064 65.89375 303.7Q65.05 302.6375 65.05 300.21564ZM66.12813 300.21564Q66.12813 302.325 66.62813 303.02814Q67.12813 303.73126 67.84688 303.73126Q68.58125 303.73126 69.06563 303.02814Q69.56563 302.325 69.56563 300.21564Q69.56563 298.09064 69.06563 297.40314Q68.58125 296.7 67.83125 296.7Q67.1125 296.7 66.675 297.3094Q66.12813 298.09064 66.12813 300.21564Z" fill-rule="nonzero"/><path fill="#000000" d="M65.05 263.36667L66.15938 263.27292Q66.28438 264.08542 66.72188 264.49167Q67.175 264.89792 67.81563 264.89792Q68.56563 264.89792 69.09688 264.3198Q69.62813 263.74167 69.62813 262.80417Q69.62813 261.89792 69.1125 261.3823Q68.6125 260.85104 67.78438 260.85104Q67.28438 260.85104 66.8625 261.08542Q66.45625 261.3198 66.22188 261.67917L65.2375 261.55417L66.06563 257.14792L70.34688 257.14792L70.34688 258.14792L66.90938 258.14792L66.45625 260.46042Q67.22188 259.91354 68.06563 259.91354Q69.19063 259.91354 69.95625 260.6948Q70.7375 261.47604 70.7375 262.71042Q70.7375 263.86667 70.06563 264.72604Q69.2375 265.7573 67.81563 265.7573Q66.64375 265.7573 65.89375 265.10104Q65.15938 264.4448 65.05 263.36667Z" fill-rule="nonzero"/><path fill="#000000" d="M62.01875 226.78334L60.971874 226.78334L60.971874 220.06459Q60.58125 220.42397 59.95625 220.79897Q59.346874 221.15834 58.8625 221.33022L58.8625 220.31459Q59.7375 219.89272 60.39375 219.31459Q61.065624 218.72084 61.346874 218.15834L62.01875 218.15834L62.01875 226.78334ZM65.05 222.54897Q65.05 221.01772 65.3625 220.09584Q65.675 219.15834 66.28438 218.65834Q66.90938 218.15834 67.84688 218.15834Q68.53438 218.15834 69.05 218.43959Q69.58125 218.72084 69.925 219.25209Q70.26875 219.76772 70.45625 220.51772Q70.64375 221.26772 70.64375 222.54897Q70.64375 224.06459 70.33125 224.98647Q70.03438 225.90834 69.40938 226.42397Q68.8 226.92397 67.84688 226.92397Q66.6125 226.92397 65.89375 226.03334Q65.05 224.97084 65.05 222.54897ZM66.12813 222.54897Q66.12813 224.65834 66.62813 225.36147Q67.12813 226.06459 67.84688 226.06459Q68.58125 226.06459 69.06563 225.36147Q69.56563 224.65834 69.56563 222.54897Q69.56563 220.42397 69.06563 219.73647Q68.58125 219.03334 67.83125 219.03334Q67.1125 219.03334 66.675 219.64272Q66.12813 220.42397 66.12813 222.54897Z" fill-rule="nonzero"/><path fill="#000000" d="M62.01875 187.95L60.971874 187.95L60.971874 181.23125Q60.58125 181.59062 59.95625 181.96562Q59.346874 182.325 58.8625 182.49687L58.8625 181.48125Q59.7375 181.05937 60.39375 180.48125Q61.065624 179.8875 61.346874 179.325L62.01875 179.325L62.01875 187.95ZM65.05 185.7L66.15938 185.60625Q66.28438 186.41875 66.72188 186.825Q67.175 187.23125 67.81563 187.23125Q68.56563 187.23125 69.09688 186.65312Q69.62813 186.075 69.62813 185.1375Q69.62813 184.23125 69.1125 183.71562Q68.6125 183.18437 67.78438 183.18437Q67.28438 183.18437 66.8625 183.41875Q66.45625 183.65312 66.22188 184.0125L65.2375 183.8875L66.06563 179.48125L70.34688 179.48125L70.34688 180.48125L66.90938 180.48125L66.45625 182.79375Q67.22188 182.24687 68.06563 182.24687Q69.19063 182.24687 69.95625 183.02812Q70.7375 183.80937 70.7375 185.04375Q70.7375 186.2 70.06563 187.05937Q69.2375 188.09062 67.81563 188.09062Q66.64375 188.09062 65.89375 187.43437Q65.15938 186.77812 65.05 185.7Z" fill-rule="nonzero"/><path fill="#000000" d="M63.596874 148.10104L63.596874 149.11667L57.909374 149.11667Q57.909374 148.74167 58.034374 148.3823Q58.253124 147.80417 58.721874 147.24167Q59.20625 146.67917 60.1125 145.9448Q61.51875 144.78854 62.003124 144.11667Q62.503124 143.4448 62.503124 142.85104Q62.503124 142.22604 62.05 141.80417Q61.596874 141.36667 60.878124 141.36667Q60.1125 141.36667 59.659374 141.8198Q59.20625 142.27292 59.190624 143.08542L58.1125 142.97604Q58.221874 141.7573 58.940624 141.1323Q59.675 140.49167 60.909374 140.49167Q62.14375 140.49167 62.8625 141.17917Q63.58125 141.86667 63.58125 142.8823Q63.58125 143.39792 63.3625 143.89792Q63.159374 144.3823 62.659374 144.9448Q62.175 145.49167 61.05 146.4448Q60.096874 147.24167 59.815624 147.53854Q59.55 147.8198 59.378124 148.10104L63.596874 148.10104ZM65.05 144.8823Q65.05 143.35104 65.3625 142.42917Q65.675 141.49167 66.28438 140.99167Q66.90938 140.49167 67.84688 140.49167Q68.53438 140.49167 69.05 140.77292Q69.58125 141.05417 69.925 141.58542Q70.26875 142.10104 70.45625 142.85104Q70.64375 143.60104 70.64375 144.8823Q70.64375 146.39792 70.33125 147.3198Q70.03438 148.24167 69.40938 148.7573Q68.8 149.2573 67.84688 149.2573Q66.6125 149.2573 65.89375 148.36667Q65.05 147.30417 65.05 144.8823ZM66.12813 144.8823Q66.12813 146.99167 66.62813 147.6948Q67.12813 148.39792 67.84688 148.39792Q68.58125 148.39792 69.06563 147.6948Q69.56563 146.99167 69.56563 144.8823Q69.56563 142.7573 69.06563 142.0698Q68.58125 141.36667 67.83125 141.36667Q67.1125 141.36667 66.675 141.97604Q66.12813 142.7573 66.12813 144.8823Z" fill-rule="nonzero"/><path fill="#000000" d="M63.596874 109.26771L63.596874 110.28333L57.909374 110.28333Q57.909374 109.90833 58.034374 109.54896Q58.253124 108.97083 58.721874 108.40833Q59.20625 107.84583 60.1125 107.11146Q61.51875 105.95521 62.003124 105.28333Q62.503124 104.61146 62.503124 104.01771Q62.503124 103.39271 62.05 102.97083Q61.596874 102.53333 60.878124 102.53333Q60.1125 102.53333 59.659374 102.98646Q59.20625 103.43958 59.190624 104.25208L58.1125 104.14271Q58.221874 102.92396 58.940624 102.29896Q59.675 101.65833 60.909374 101.65833Q62.14375 101.65833 62.8625 102.34583Q63.58125 103.03333 63.58125 104.04896Q63.58125 104.56458 63.3625 105.06458Q63.159374 105.54896 62.659374 106.11146Q62.175 106.65833 61.05 107.61146Q60.096874 108.40833 59.815624 108.70521Q59.55 108.98646 59.378124 109.26771L63.596874 109.26771ZM65.05 108.03333L66.15938 107.93958Q66.28438 108.75208 66.72188 109.15833Q67.175 109.56458 67.81563 109.56458Q68.56563 109.56458 69.09688 108.98646Q69.62813 108.40833 69.62813 107.47083Q69.62813 106.56458 69.1125 106.04896Q68.6125 105.51771 67.78438 105.51771Q67.28438 105.51771 66.8625 105.75208Q66.45625 105.98646 66.22188 106.34583L65.2375 106.22083L66.06563 101.81458L70.34688 101.81458L70.34688 102.81458L66.90938 102.81458L66.45625 105.12708Q67.22188 104.58021 68.06563 104.58021Q69.19063 104.58021 69.95625 105.36146Q70.7375 106.14271 70.7375 107.37708Q70.7375 108.53333 70.06563 109.39271Q69.2375 110.42396 67.81563 110.42396Q66.64375 110.42396 65.89375 109.76771Q65.15938 109.11146 65.05 108.03333Z" fill-rule="nonzero"/><path fill="#000000" d="M78.51875 317.45L77.47188 317.45L77.47188 310.73126Q77.08125 311.09064 76.45625 311.46564Q75.84688 311.825 75.3625 311.9969L75.3625 310.98126Q76.2375 310.5594 76.89375 309.98126Q77.56563 309.3875 77.84688 308.825L78.51875 308.825L78.51875 317.45Z" fill-rule="nonzero"/><path fill="#000000" d="M191.77174 317.45L190.72487 317.45L190.72487 310.73126Q190.33424 311.09064 189.70924 311.46564Q189.09987 311.825 188.6155 311.9969L188.6155 310.98126Q189.4905 310.5594 190.14674 309.98126Q190.81862 309.3875 191.09987 308.825L191.77174 308.825L191.77174 317.45ZM194.803 313.21564Q194.803 311.6844 195.1155 310.7625Q195.428 309.825 196.03737 309.325Q196.66237 308.825 197.59987 308.825Q198.28737 308.825 198.803 309.10626Q199.33424 309.3875 199.678 309.91876Q200.02174 310.4344 200.20924 311.1844Q200.39674 311.9344 200.39674 313.21564Q200.39674 314.73126 200.08424 315.65314Q199.78737 316.575 199.16237 317.09064Q198.553 317.59064 197.59987 317.59064Q196.3655 317.59064 195.64674 316.7Q194.803 315.6375 194.803 313.21564ZM195.88112 313.21564Q195.88112 315.325 196.38112 316.02814Q196.88112 316.73126 197.59987 316.73126Q198.33424 316.73126 198.81862 316.02814Q199.31862 315.325 199.31862 313.21564Q199.31862 311.09064 198.81862 310.40314Q198.33424 309.7 197.58424 309.7Q196.8655 309.7 196.428 310.3094Q195.88112 311.09064 195.88112 313.21564Z" fill-rule="nonzero"/><path fill="#000000" d="M305.02475 317.45L303.97787 317.45L303.97787 310.73126Q303.58725 311.09064 302.96225 311.46564Q302.35287 311.825 301.8685 311.9969L301.8685 310.98126Q302.7435 310.5594 303.39975 309.98126Q304.07162 309.3875 304.35287 308.825L305.02475 308.825L305.02475 317.45ZM308.056 313.21564Q308.056 311.6844 308.3685 310.7625Q308.681 309.825 309.29037 309.325Q309.91537 308.825 310.85287 308.825Q311.54037 308.825 312.056 309.10626Q312.58725 309.3875 312.931 309.91876Q313.27475 310.4344 313.46225 311.1844Q313.64975 311.9344 313.64975 313.21564Q313.64975 314.73126 313.33725 315.65314Q313.04037 316.575 312.41537 317.09064Q311.806 317.59064 310.85287 317.59064Q309.6185 317.59064 308.89975 316.7Q308.056 315.6375 308.056 313.21564ZM309.13412 313.21564Q309.13412 315.325 309.63412 316.02814Q310.13412 316.73126 310.85287 316.73126Q311.58725 316.73126 312.07162 316.02814Q312.57162 315.325 312.57162 313.21564Q312.57162 311.09064 312.07162 310.40314Q311.58725 309.7 310.83725 309.7Q310.1185 309.7 309.681 310.3094Q309.13412 311.09064 309.13412 313.21564ZM315.056 313.21564Q315.056 311.6844 315.3685 310.7625Q315.681 309.825 316.29037 309.325Q316.91537 308.825 317.85287 308.825Q318.54037 308.825 319.056 309.10626Q319.58725 309.3875 319.931 309.91876Q320.27475 310.4344 320.46225 311.1844Q320.64975 311.9344 320.64975 313.21564Q320.64975 314.73126 320.33725 315.65314Q320.04037 316.575 319.41537 317.09064Q318.806 317.59064 317.85287 317.59064Q316.6185 317.59064 315.89975 316.7Q315.056 315.6375 315.056 313.21564ZM316.13412 313.21564Q316.13412 315.325 316.63412 316.02814Q317.13412 316.73126 317.85287 316.73126Q318.58725 316.73126 319.07162 316.02814Q319.57162 315.325 319.57162 313.21564Q319.57162 311.09064 319.07162 310.40314Q318.58725 309.7 317.83725 309.7Q317.1185 309.7 316.681 310.3094Q316.13412 311.09064 316.13412 313.21564Z" fill-rule="nonzero"/><path fill="#000000" d="M418.27774 317.45L417.23087 317.45L417.23087 310.73126Q416.84024 311.09064 416.21524 311.46564Q415.60587 311.825 415.1215 311.9969L415.1215 310.98126Q415.9965 310.5594 416.65274 309.98126Q417.32462 309.3875 417.60587 308.825L418.27774 308.825L418.27774 317.45ZM421.309 313.21564Q421.309 311.6844 421.6215 310.7625Q421.934 309.825 422.54337 309.325Q423.16837 308.825 424.10587 308.825Q424.79337 308.825 425.309 309.10626Q425.84024 309.3875 426.184 309.91876Q426.52774 310.4344 426.71524 311.1844Q426.90274 311.9344 426.90274 313.21564Q426.90274 314.73126 426.59024 315.65314Q426.29337 316.575 425.66837 317.09064Q425.059 317.59064 424.10587 317.59064Q422.8715 317.59064 422.15274 316.7Q421.309 315.6375 421.309 313.21564ZM422.38712 313.21564Q422.38712 315.325 422.88712 316.02814Q423.38712 316.73126 424.10587 316.73126Q424.84024 316.73126 425.32462 316.02814Q425.82462 315.325 425.82462 313.21564Q425.82462 311.09064 425.32462 310.40314Q424.84024 309.7 424.09024 309.7Q423.3715 309.7 422.934 310.3094Q422.38712 311.09064 422.38712 313.21564ZM428.309 313.21564Q428.309 311.6844 428.6215 310.7625Q428.934 309.825 429.54337 309.325Q430.16837 308.825 431.10587 308.825Q431.79337 308.825 432.309 309.10626Q432.84024 309.3875 433.184 309.91876Q433.52774 310.4344 433.71524 311.1844Q433.90274 311.9344 433.90274 313.21564Q433.90274 314.73126 433.59024 315.65314Q433.29337 316.575 432.66837 317.09064Q432.059 317.59064 431.10587 317.59064Q429.8715 317.59064 429.15274 316.7Q428.309 315.6375 428.309 313.21564ZM429.38712 313.21564Q429.38712 315.325 429.88712 316.02814Q430.38712 316.73126 431.10587 316.73126Q431.84024 316.73126 432.32462 316.02814Q432.82462 315.325 432.82462 313.21564Q432.82462 311.09064 432.32462 310.40314Q431.84024 309.7 431.09024 309.7Q430.3715 309.7 429.934 310.3094Q429.38712 311.09064 429.38712 313.21564ZM435.309 313.21564Q435.309 311.6844 435.6215 310.7625Q435.934 309.825 436.54337 309.325Q437.16837 308.825 438.10587 308.825Q438.79337 308.825 439.309 309.10626Q439.84024 309.3875 440.184 309.91876Q440.52774 310.4344 440.71524 311.1844Q440.90274 311.9344 440.90274 313.21564Q440.90274 314.73126 440.59024 315.65314Q440.29337 316.575 439.66837 317.09064Q439.059 317.59064 438.10587 317.59064Q436.8715 317.59064 436.15274 316.7Q435.309 315.6375 435.309 313.21564ZM436.38712 313.21564Q436.38712 315.325 436.88712 316.02814Q437.38712 316.73126 438.10587 316.73126Q438.84024 316.73126 439.32462 316.02814Q439.82462 315.325 439.82462 313.21564Q439.82462 311.09064 439.32462 310.40314Q438.84024 309.7 438.09024 309.7Q437.3715 309.7 436.934 310.3094Q436.38712 311.09064 436.38712 313.21564Z" fill-rule="nonzero"/><path stroke="#4285f4" stroke-width="4.0" stroke-linecap="butt" d="M113.5 61.916668L125.5 61.916668" fill-rule="nonzero"/><path fill="#1a1a1a" d="M134.39062 65.916664L134.39062 57.322914L136.10938 57.322914L138.14062 63.40104Q138.42188 64.260414 138.54688 64.68229Q138.6875 64.21354 139.0 63.30729L141.0625 57.322914L142.59375 57.322914L142.59375 65.916664L141.5 65.916664L141.5 58.729164L139.0 65.916664L137.96875 65.916664L135.48438 58.604164L135.48438 65.916664L134.39062 65.916664ZM147.35938 65.15104Q146.76562 65.65104 146.21875 65.854164Q145.6875 66.05729 145.0625 66.05729Q144.03125 66.05729 143.48438 65.55729Q142.9375 65.05729 142.9375 64.27604Q142.9375 63.822914 143.14062 63.447914Q143.34375 63.05729 143.6875 62.83854Q144.03125 62.604164 144.45312 62.49479Q144.75 62.40104 145.39062 62.322914Q146.65625 62.18229 147.26562 61.96354Q147.26562 61.74479 147.26562 61.697914Q147.26562 61.041664 146.96875 60.77604Q146.5625 60.43229 145.76562 60.43229Q145.03125 60.43229 144.67188 60.697914Q144.3125 60.947914 144.14062 61.604164L143.10938 61.46354Q143.25 60.80729 143.57812 60.40104Q143.90625 59.99479 144.51562 59.77604Q145.125 59.55729 145.92188 59.55729Q146.71875 59.55729 147.21875 59.74479Q147.71875 59.93229 147.95312 60.21354Q148.1875 60.49479 148.28125 60.93229Q148.32812 61.197914 148.32812 61.90104L148.32812 63.30729Q148.32812 64.77604 148.39062 65.166664Q148.46875 65.55729 148.67188 65.916664L147.5625 65.916664Q147.40625 65.58854 147.35938 65.15104ZM147.26562 62.791664Q146.6875 63.02604 145.54688 63.197914Q144.89062 63.291664 144.625 63.416664Q144.35938 63.52604 144.20312 63.74479Q144.0625 63.96354 144.0625 64.24479Q144.0625 64.666664 144.375 64.947914Q144.70312 65.229164 145.3125 65.229164Q145.92188 65.229164 146.39062 64.96354Q146.875 64.697914 147.09375 64.229164Q147.26562 63.86979 147.26562 63.18229L147.26562 62.791664ZM149.59375 65.916664L151.85938 62.68229L149.76562 59.697914L151.07812 59.697914L152.03125 61.15104Q152.29688 61.572914 152.46875 61.854164Q152.71875 61.46354 152.9375 61.166664L153.98438 59.697914L155.25 59.697914L153.09375 62.61979L155.40625 65.916664L154.125 65.916664L152.84375 63.979164L152.5 63.46354L150.85938 65.916664L149.59375 65.916664ZM160.875 65.916664L157.54688 57.322914L158.78125 57.322914L161.01562 63.572914Q161.28125 64.322914 161.46875 64.979164Q161.67188 64.27604 161.9375 63.572914L164.25 57.322914L165.40625 57.322914L162.04688 65.916664L160.875 65.916664ZM165.375 65.916664L165.375 57.322914L166.51562 57.322914L166.51562 64.90104L170.75 64.90104L170.75 65.916664L165.375 65.916664ZM172.45312 65.916664L172.45312 57.322914L178.65625 57.322914L178.65625 58.33854L173.59375 58.33854L173.59375 60.96354L178.34375 60.96354L178.34375 61.979164L173.59375 61.979164L173.59375 64.90104L178.85938 64.90104L178.85938 65.916664L172.45312 65.916664ZM180.42188 65.916664L180.42188 57.322914L181.57812 57.322914L186.09375 64.072914L186.09375 57.322914L187.1875 57.322914L187.1875 65.916664L186.01562 65.916664L181.5 59.166664L181.5 65.916664L180.42188 65.916664ZM194.84375 60.86979L189.17188 60.86979L189.17188 59.885414L194.84375 59.885414L194.84375 60.86979ZM194.84375 63.479164L189.17188 63.479164L189.17188 62.49479L194.84375 62.49479L194.84375 63.479164ZM199.96875 65.916664L198.92188 65.916664L198.92188 59.197914Q198.53125 59.55729 197.90625 59.93229Q197.29688 60.291664 196.8125 60.46354L196.8125 59.447914Q197.6875 59.02604 198.34375 58.447914Q199.01562 57.854164 199.29688 57.291664L199.96875 57.291664L199.96875 65.916664ZM208.54688 64.90104L208.54688 65.916664L202.85938 65.916664Q202.85938 65.541664 202.98438 65.18229Q203.20312 64.604164 203.67188 64.041664Q204.15625 63.479164 205.0625 62.74479Q206.46875 61.58854 206.95312 60.916664Q207.45312 60.24479 207.45312 59.65104Q207.45312 59.02604 207.0 58.604164Q206.54688 58.166664 205.82812 58.166664Q205.0625 58.166664 204.60938 58.61979Q204.15625 59.072914 204.14062 59.885414L203.0625 59.77604Q203.17188 58.55729 203.89062 57.93229Q204.625 57.291664 205.85938 57.291664Q207.09375 57.291664 207.8125 57.979164Q208.53125 58.666664 208.53125 59.68229Q208.53125 60.197914 208.3125 60.697914Q208.10938 61.18229 207.60938 61.74479Q207.125 62.291664 206.0 63.24479Q205.04688 64.041664 204.76562 64.33854Q204.5 64.61979 204.32812 64.90104L208.54688 64.90104ZM211.625 61.260414Q210.96875 61.010414 210.64062 60.572914Q210.32812 60.11979 210.32812 59.510414Q210.32812 58.572914 211.0 57.93229Q211.6875 57.291664 212.79688 57.291664Q213.92188 57.291664 214.60938 57.947914Q215.29688 58.604164 215.29688 59.541664Q215.29688 60.135414 214.98438 60.572914Q214.67188 61.010414 214.03125 61.260414Q214.82812 61.510414 215.23438 62.08854Q215.64062 62.666664 215.64062 63.46354Q215.64062 64.55729 214.85938 65.30729Q214.09375 66.05729 212.8125 66.05729Q211.54688 66.05729 210.76562 65.30729Q209.98438 64.55729 209.98438 63.43229Q209.98438 62.58854 210.40625 62.02604Q210.84375 61.46354 211.625 61.260414ZM211.40625 59.46354Q211.40625 60.072914 211.79688 60.46354Q212.20312 60.854164 212.82812 60.854164Q213.4375 60.854164 213.82812 60.479164Q214.21875 60.08854 214.21875 59.52604Q214.21875 58.947914 213.8125 58.55729Q213.40625 58.15104 212.8125 58.15104Q212.20312 58.15104 211.79688 58.541664Q211.40625 58.93229 211.40625 59.46354ZM211.07812 63.43229Q211.07812 63.885414 211.28125 64.30729Q211.5 64.729164 211.92188 64.96354Q212.34375 65.197914 212.82812 65.197914Q213.57812 65.197914 214.0625 64.71354Q214.5625 64.229164 214.5625 63.479164Q214.5625 62.71354 214.0625 62.21354Q213.5625 61.71354 212.79688 61.71354Q212.04688 61.71354 211.5625 62.21354Q211.07812 62.697914 211.07812 63.43229ZM217.5625 65.916664L217.5625 64.71354L218.76562 64.71354L218.76562 65.916664Q218.76562 66.572914 218.53125 66.979164Q218.29688 67.40104 217.79688 67.61979L217.5 67.166664Q217.82812 67.02604 217.98438 66.729164Q218.14062 66.447914 218.17188 65.916664L217.5625 65.916664ZM223.375 65.916664L223.375 57.322914L224.51562 57.322914L224.51562 64.90104L228.75 64.90104L228.75 65.916664L223.375 65.916664ZM230.39062 65.916664L230.39062 57.322914L232.10938 57.322914L234.14062 63.40104Q234.42188 64.260414 234.54688 64.68229Q234.6875 64.21354 235.0 63.30729L237.0625 57.322914L238.59375 57.322914L238.59375 65.916664L237.5 65.916664L237.5 58.729164L235.0 65.916664L233.96875 65.916664L231.48438 58.604164L231.48438 65.916664L230.39062 65.916664ZM245.0625 57.322914L246.20312 57.322914L246.20312 62.291664Q246.20312 63.58854 245.90625 64.354164Q245.60938 65.104164 244.84375 65.58854Q244.07812 66.05729 242.84375 66.05729Q241.64062 66.05729 240.85938 65.65104Q240.09375 65.229164 239.76562 64.447914Q239.4375 63.65104 239.4375 62.291664L239.4375 57.322914L240.57812 57.322914L240.57812 62.27604Q240.57812 63.40104 240.78125 63.93229Q241.0 64.46354 241.5 64.760414Q242.01562 65.041664 242.75 65.041664Q244.0 65.041664 244.53125 64.479164Q245.0625 63.90104 245.0625 62.27604L245.0625 57.322914ZM248.375 65.916664L248.375 57.322914L249.51562 57.322914L249.51562 64.90104L253.75 64.90104L253.75 65.916664L248.375 65.916664ZM260.84375 60.86979L255.17188 60.86979L255.17188 59.885414L260.84375 59.885414L260.84375 60.86979ZM260.84375 63.479164L255.17188 63.479164L255.17188 62.49479L260.84375 62.49479L260.84375 63.479164ZM265.96875 65.916664L264.92188 65.916664L264.92188 59.197914Q264.53125 59.55729 263.90625 59.93229Q263.29688 60.291664 262.8125 60.46354L262.8125 59.447914Q263.6875 59.02604 264.34375 58.447914Q265.01562 57.854164 265.29688 57.291664L265.96875 57.291664L265.96875 65.916664Z" fill-rule="nonzero"/><path stroke="#ea4335" stroke-width="4.0" stroke-linecap="butt" d="M284.5 61.916668L296.5 61.916668" fill-rule="nonzero"/><path fill="#1a1a1a" d="M305.39062 65.916664L305.39062 57.322914L307.10938 57.322914L309.14062 63.40104Q309.42188 64.260414 309.54688 64.68229Q309.6875 64.21354 310.0 63.30729L312.0625 57.322914L313.59375 57.322914L313.59375 65.916664L312.5 65.916664L312.5 58.729164L310.0 65.916664L308.96875 65.916664L306.48438 58.604164L306.48438 65.916664L305.39062 65.916664ZM318.35938 65.15104Q317.76562 65.65104 317.21875 65.854164Q316.6875 66.05729 316.0625 66.05729Q315.03125 66.05729 314.48438 65.55729Q313.9375 65.05729 313.9375 64.27604Q313.9375 63.822914 314.14062 63.447914Q314.34375 63.05729 314.6875 62.83854Q315.03125 62.604164 315.45312 62.49479Q315.75 62.40104 316.39062 62.322914Q317.65625 62.18229 318.26562 61.96354Q318.26562 61.74479 318.26562 61.697914Q318.26562 61.041664 317.96875 60.77604Q317.5625 60.43229 316.76562 60.43229Q316.03125 60.43229 315.67188 60.697914Q315.3125 60.947914 315.14062 61.604164L314.10938 61.46354Q314.25 60.80729 314.57812 60.40104Q314.90625 59.99479 315.51562 59.77604Q316.125 59.55729 316.92188 59.55729Q317.71875 59.55729 318.21875 59.74479Q318.71875 59.93229 318.95312 60.21354Q319.1875 60.49479 319.28125 60.93229Q319.32812 61.197914 319.32812 61.90104L319.32812 63.30729Q319.32812 64.77604 319.39062 65.166664Q319.46875 65.55729 319.67188 65.916664L318.5625 65.916664Q318.40625 65.58854 318.35938 65.15104ZM318.26562 62.791664Q317.6875 63.02604 316.54688 63.197914Q315.89062 63.291664 315.625 63.416664Q315.35938 63.52604 315.20312 63.74479Q315.0625 63.96354 315.0625 64.24479Q315.0625 64.666664 315.375 64.947914Q315.70312 65.229164 316.3125 65.229164Q316.92188 65.229164 317.39062 64.96354Q317.875 64.697914 318.09375 64.229164Q318.26562 63.86979 318.26562 63.18229L318.26562 62.791664ZM320.59375 65.916664L322.85938 62.68229L320.76562 59.697914L322.07812 59.697914L323.03125 61.15104Q323.29688 61.572914 323.46875 61.854164Q323.71875 61.46354 323.9375 61.166664L324.98438 59.697914L326.25 59.697914L324.09375 62.61979L326.40625 65.916664L325.125 65.916664L323.84375 63.979164L323.5 63.46354L321.85938 65.916664L320.59375 65.916664ZM331.875 65.916664L328.54688 57.322914L329.78125 57.322914L332.01562 63.572914Q332.28125 64.322914 332.46875 64.979164Q332.67188 64.27604 332.9375 63.572914L335.25 57.322914L336.40625 57.322914L333.04688 65.916664L331.875 65.916664ZM336.375 65.916664L336.375 57.322914L337.51562 57.322914L337.51562 64.90104L341.75 64.90104L341.75 65.916664L336.375 65.916664ZM343.45312 65.916664L343.45312 57.322914L349.65625 57.322914L349.65625 58.33854L344.59375 58.33854L344.59375 60.96354L349.34375 60.96354L349.34375 61.979164L344.59375 61.979164L344.59375 64.90104L349.85938 64.90104L349.85938 65.916664L343.45312 65.916664ZM351.42188 65.916664L351.42188 57.322914L352.57812 57.322914L357.09375 64.072914L357.09375 57.322914L358.1875 57.322914L358.1875 65.916664L357.01562 65.916664L352.5 59.166664L352.5 65.916664L351.42188 65.916664ZM365.84375 60.86979L360.17188 60.86979L360.17188 59.885414L365.84375 59.885414L365.84375 60.86979ZM365.84375 63.479164L360.17188 63.479164L360.17188 62.49479L365.84375 62.49479L365.84375 63.479164ZM367.0 63.666664L368.10938 63.572914Q368.23438 64.385414 368.67188 64.791664Q369.125 65.197914 369.76562 65.197914Q370.51562 65.197914 371.04688 64.61979Q371.57812 64.041664 371.57812 63.104164Q371.57812 62.197914 371.0625 61.68229Q370.5625 61.15104 369.73438 61.15104Q369.23438 61.15104 368.8125 61.385414Q368.40625 61.61979 368.17188 61.979164L367.1875 61.854164L368.01562 57.447914L372.29688 57.447914L372.29688 58.447914L368.85938 58.447914L368.40625 60.760414Q369.17188 60.21354 370.01562 60.21354Q371.14062 60.21354 371.90625 60.99479Q372.6875 61.77604 372.6875 63.010414Q372.6875 64.166664 372.01562 65.02604Q371.1875 66.05729 369.76562 66.05729Q368.59375 66.05729 367.84375 65.40104Q367.10938 64.74479 367.0 63.666664ZM377.96875 65.916664L376.92188 65.916664L376.92188 59.197914Q376.53125 59.55729 375.90625 59.93229Q375.29688 60.291664 374.8125 60.46354L374.8125 59.447914Q375.6875 59.02604 376.34375 58.447914Q377.01562 57.854164 377.29688 57.291664L377.96875 57.291664L377.96875 65.916664ZM386.54688 64.90104L386.54688 65.916664L380.85938 65.916664Q380.85938 65.541664 380.98438 65.18229Q381.20312 64.604164 381.67188 64.041664Q382.15625 63.479164 383.0625 62.74479Q384.46875 61.58854 384.95312 60.916664Q385.45312 60.24479 385.45312 59.65104Q385.45312 59.02604 385.0 58.604164Q384.54688 58.166664 383.82812 58.166664Q383.0625 58.166664 382.60938 58.61979Q382.15625 59.072914 382.14062 59.885414L381.0625 59.77604Q381.17188 58.55729 381.89062 57.93229Q382.625 57.291664 383.85938 57.291664Q385.09375 57.291664 385.8125 57.979164Q386.53125 58.666664 386.53125 59.68229Q386.53125 60.197914 386.3125 60.697914Q386.10938 61.18229 385.60938 61.74479Q385.125 62.291664 384.0 63.24479Q383.04688 64.041664 382.76562 64.33854Q382.5 64.61979 382.32812 64.90104L386.54688 64.90104ZM388.5625 65.916664L388.5625 64.71354L389.76562 64.71354L389.76562 65.916664Q389.76562 66.572914 389.53125 66.979164Q389.29688 67.40104 388.79688 67.61979L388.5 67.166664Q388.82812 67.02604 388.98438 66.729164Q389.14062 66.447914 389.17188 65.916664L388.5625 65.916664ZM394.375 65.916664L394.375 57.322914L395.51562 57.322914L395.51562 64.90104L399.75 64.90104L399.75 65.916664L394.375 65.916664ZM401.39062 65.916664L401.39062 57.322914L403.10938 57.322914L405.14062 63.40104Q405.42188 64.260414 405.54688 64.68229Q405.6875 64.21354 406.0 63.30729L408.0625 57.322914L409.59375 57.322914L409.59375 65.916664L408.5 65.916664L408.5 58.729164L406.0 65.916664L404.96875 65.916664L402.48438 58.604164L402.48438 65.916664L401.39062 65.916664ZM416.0625 57.322914L417.20312 57.322914L417.20312 62.291664Q417.20312 63.58854 416.90625 64.354164Q416.60938 65.104164 415.84375 65.58854Q415.07812 66.05729 413.84375 66.05729Q412.64062 66.05729 411.85938 65.65104Q411.09375 65.229164 410.76562 64.447914Q410.4375 63.65104 410.4375 62.291664L410.4375 57.322914L411.57812 57.322914L411.57812 62.27604Q411.57812 63.40104 411.78125 63.93229Q412.0 64.46354 412.5 64.760414Q413.01562 65.041664 413.75 65.041664Q415.0 65.041664 415.53125 64.479164Q416.0625 63.90104 416.0625 62.27604L416.0625 57.322914ZM419.375 65.916664L419.375 57.322914L420.51562 57.322914L420.51562 64.90104L424.75 64.90104L424.75 65.916664L419.375 65.916664ZM431.84375 60.86979L426.17188 60.86979L426.17188 59.885414L431.84375 59.885414L431.84375 60.86979ZM431.84375 63.479164L426.17188 63.479164L426.17188 62.49479L431.84375 62.49479L431.84375 63.479164ZM434.625 61.260414Q433.96875 61.010414 433.64062 60.572914Q433.32812 60.11979 433.32812 59.510414Q433.32812 58.572914 434.0 57.93229Q434.6875 57.291664 435.79688 57.291664Q436.92188 57.291664 437.60938 57.947914Q438.29688 58.604164 438.29688 59.541664Q438.29688 60.135414 437.98438 60.572914Q437.67188 61.010414 437.03125 61.260414Q437.82812 61.510414 438.23438 62.08854Q438.64062 62.666664 438.64062 63.46354Q438.64062 64.55729 437.85938 65.30729Q437.09375 66.05729 435.8125 66.05729Q434.54688 66.05729 433.76562 65.30729Q432.98438 64.55729 432.98438 63.43229Q432.98438 62.58854 433.40625 62.02604Q433.84375 61.46354 434.625 61.260414ZM434.40625 59.46354Q434.40625 60.072914 434.79688 60.46354Q435.20312 60.854164 435.82812 60.854164Q436.4375 60.854164 436.82812 60.479164Q437.21875 60.08854 437.21875 59.52604Q437.21875 58.947914 436.8125 58.55729Q436.40625 58.15104 435.8125 58.15104Q435.20312 58.15104 434.79688 58.541664Q434.40625 58.93229 434.40625 59.46354ZM434.07812 63.43229Q434.07812 63.885414 434.28125 64.30729Q434.5 64.729164 434.92188 64.96354Q435.34375 65.197914 435.82812 65.197914Q436.57812 65.197914 437.0625 64.71354Q437.5625 64.229164 437.5625 63.479164Q437.5625 62.71354 437.0625 62.21354Q436.5625 61.71354 435.79688 61.71354Q435.04688 61.71354 434.5625 62.21354Q434.07812 62.697914 434.07812 63.43229Z" fill-rule="nonzero"/><path stroke="#fbbc04" stroke-width="4.0" stroke-linecap="butt" d="M94.5 79.916664L106.5 79.916664" fill-rule="nonzero"/><path fill="#1a1a1a" d="M115.46875 83.916664L115.46875 75.322914L116.59375 75.322914L116.59375 78.854164L121.0625 78.854164L121.0625 75.322914L122.203125 75.322914L122.203125 83.916664L121.0625 83.916664L121.0625 79.86979L116.59375 79.86979L116.59375 83.916664L115.46875 83.916664ZM128.54688 81.916664L129.64062 82.041664Q129.39062 82.99479 128.6875 83.52604Q127.984375 84.05729 126.90625 84.05729Q125.546875 84.05729 124.734375 83.21354Q123.9375 82.36979 123.9375 80.854164Q123.9375 79.291664 124.75 78.43229Q125.5625 77.55729 126.84375 77.55729Q128.09375 77.55729 128.875 78.40104Q129.67188 79.24479 129.67188 80.791664Q129.67188 80.885414 129.67188 81.072914L125.03125 81.072914Q125.09375 82.104164 125.609375 82.65104Q126.125 83.18229 126.90625 83.18229Q127.484375 83.18229 127.890625 82.885414Q128.3125 82.572914 128.54688 81.916664ZM125.09375 80.21354L128.5625 80.21354Q128.5 79.416664 128.17188 79.02604Q127.65625 78.416664 126.859375 78.416664Q126.125 78.416664 125.625 78.90104Q125.140625 79.385414 125.09375 80.21354ZM126.21875 76.916664L127.0 75.27604L128.39062 75.27604L127.09375 76.916664L126.21875 76.916664ZM131.26562 83.916664L131.26562 75.322914L132.32812 75.322914L132.32812 83.916664L131.26562 83.916664ZM138.54688 81.916664L139.64062 82.041664Q139.39062 82.99479 138.6875 83.52604Q137.98438 84.05729 136.90625 84.05729Q135.54688 84.05729 134.73438 83.21354Q133.9375 82.36979 133.9375 80.854164Q133.9375 79.291664 134.75 78.43229Q135.5625 77.55729 136.84375 77.55729Q138.09375 77.55729 138.875 78.40104Q139.67188 79.24479 139.67188 80.791664Q139.67188 80.885414 139.67188 81.072914L135.03125 81.072914Q135.09375 82.104164 135.60938 82.65104Q136.125 83.18229 136.90625 83.18229Q137.48438 83.18229 137.89062 82.885414Q138.3125 82.572914 138.54688 81.916664ZM135.09375 80.21354L138.5625 80.21354Q138.5 79.416664 138.17188 79.02604Q137.65625 78.416664 136.85938 78.416664Q136.125 78.416664 135.625 78.90104Q135.14062 79.385414 135.09375 80.21354ZM137.51562 76.916664L136.67188 76.916664L135.3125 75.27604L136.73438 75.27604L137.51562 76.916664ZM141.29688 83.916664L141.29688 77.697914L142.23438 77.697914L142.23438 78.572914Q142.92188 77.55729 144.21875 77.55729Q144.78125 77.55729 145.25 77.760414Q145.73438 77.96354 145.96875 78.291664Q146.20312 78.61979 146.29688 79.05729Q146.34375 79.354164 146.34375 80.08854L146.34375 83.916664L145.29688 83.916664L145.29688 80.135414Q145.29688 79.479164 145.17188 79.166664Q145.04688 78.854164 144.73438 78.666664Q144.42188 78.46354 144.0 78.46354Q143.32812 78.46354 142.82812 78.90104Q142.34375 79.322914 142.34375 80.510414L142.34375 83.916664L141.29688 83.916664ZM152.54688 81.916664L153.64062 82.041664Q153.39062 82.99479 152.6875 83.52604Q151.98438 84.05729 150.90625 84.05729Q149.54688 84.05729 148.73438 83.21354Q147.9375 82.36979 147.9375 80.854164Q147.9375 79.291664 148.75 78.43229Q149.5625 77.55729 150.84375 77.55729Q152.09375 77.55729 152.875 78.40104Q153.67188 79.24479 153.67188 80.791664Q153.67188 80.885414 153.67188 81.072914L149.03125 81.072914Q149.09375 82.104164 149.60938 82.65104Q150.125 83.18229 150.90625 83.18229Q151.48438 83.18229 151.89062 82.885414Q152.3125 82.572914 152.54688 81.916664ZM149.09375 80.21354L152.5625 80.21354Q152.5 79.416664 152.17188 79.02604Q151.65625 78.416664 150.85938 78.416664Q150.125 78.416664 149.625 78.90104Q149.14062 79.385414 149.09375 80.21354ZM160.875 83.916664L157.54688 75.322914L158.78125 75.322914L161.01562 81.572914Q161.28125 82.322914 161.46875 82.979164Q161.67188 82.27604 161.9375 81.572914L164.25 75.322914L165.40625 75.322914L162.04688 83.916664L160.875 83.916664ZM165.375 83.916664L165.375 75.322914L166.51562 75.322914L166.51562 82.90104L170.75 82.90104L170.75 83.916664L165.375 83.916664ZM172.45312 83.916664L172.45312 75.322914L178.65625 75.322914L178.65625 76.33854L173.59375 76.33854L173.59375 78.96354L178.34375 78.96354L178.34375 79.979164L173.59375 79.979164L173.59375 82.90104L178.85938 82.90104L178.85938 83.916664L172.45312 83.916664ZM180.42188 83.916664L180.42188 75.322914L181.57812 75.322914L186.09375 82.072914L186.09375 75.322914L187.1875 75.322914L187.1875 83.916664L186.01562 83.916664L181.5 77.166664L181.5 83.916664L180.42188 83.916664ZM194.84375 78.86979L189.17188 78.86979L189.17188 77.885414L194.84375 77.885414L194.84375 78.86979ZM194.84375 81.479164L189.17188 81.479164L189.17188 80.49479L194.84375 80.49479L194.84375 81.479164ZM199.96875 83.916664L198.92188 83.916664L198.92188 77.197914Q198.53125 77.55729 197.90625 77.93229Q197.29688 78.291664 196.8125 78.46354L196.8125 77.447914Q197.6875 77.02604 198.34375 76.447914Q199.01562 75.854164 199.29688 75.291664L199.96875 75.291664L199.96875 83.916664ZM208.54688 82.90104L208.54688 83.916664L202.85938 83.916664Q202.85938 83.541664 202.98438 83.18229Q203.20312 82.604164 203.67188 82.041664Q204.15625 81.479164 205.0625 80.74479Q206.46875 79.58854 206.95312 78.916664Q207.45312 78.24479 207.45312 77.65104Q207.45312 77.02604 207.0 76.604164Q206.54688 76.166664 205.82812 76.166664Q205.0625 76.166664 204.60938 76.61979Q204.15625 77.072914 204.14062 77.885414L203.0625 77.77604Q203.17188 76.55729 203.89062 75.93229Q204.625 75.291664 205.85938 75.291664Q207.09375 75.291664 207.8125 75.979164Q208.53125 76.666664 208.53125 77.68229Q208.53125 78.197914 208.3125 78.697914Q208.10938 79.18229 207.60938 79.74479Q207.125 80.291664 206.0 81.24479Q205.04688 82.041664 204.76562 82.33854Q204.5 82.61979 204.32812 82.90104L208.54688 82.90104ZM211.625 79.260414Q210.96875 79.010414 210.64062 78.572914Q210.32812 78.11979 210.32812 77.510414Q210.32812 76.572914 211.0 75.93229Q211.6875 75.291664 212.79688 75.291664Q213.92188 75.291664 214.60938 75.947914Q215.29688 76.604164 215.29688 77.541664Q215.29688 78.135414 214.98438 78.572914Q214.67188 79.010414 214.03125 79.260414Q214.82812 79.510414 215.23438 80.08854Q215.64062 80.666664 215.64062 81.46354Q215.64062 82.55729 214.85938 83.30729Q214.09375 84.05729 212.8125 84.05729Q211.54688 84.05729 210.76562 83.30729Q209.98438 82.55729 209.98438 81.43229Q209.98438 80.58854 210.40625 80.02604Q210.84375 79.46354 211.625 79.260414ZM211.40625 77.46354Q211.40625 78.072914 211.79688 78.46354Q212.20312 78.854164 212.82812 78.854164Q213.4375 78.854164 213.82812 78.479164Q214.21875 78.08854 214.21875 77.52604Q214.21875 76.947914 213.8125 76.55729Q213.40625 76.15104 212.8125 76.15104Q212.20312 76.15104 211.79688 76.541664Q211.40625 76.93229 211.40625 77.46354ZM211.07812 81.43229Q211.07812 81.885414 211.28125 82.30729Q211.5 82.729164 211.92188 82.96354Q212.34375 83.197914 212.82812 83.197914Q213.57812 83.197914 214.0625 82.71354Q214.5625 82.229164 214.5625 81.479164Q214.5625 80.71354 214.0625 80.21354Q213.5625 79.71354 212.79688 79.71354Q212.04688 79.71354 211.5625 80.21354Q211.07812 80.697914 211.07812 81.43229ZM217.5625 83.916664L217.5625 82.71354L218.76562 82.71354L218.76562 83.916664Q218.76562 84.572914 218.53125 84.979164Q218.29688 85.40104 217.79688 85.61979L217.5 85.166664Q217.82812 85.02604 217.98438 84.729164Q218.14062 84.447914 218.17188 83.916664L217.5625 83.916664ZM223.375 83.916664L223.375 75.322914L224.51562 75.322914L224.51562 82.90104L228.75 82.90104L228.75 83.916664L223.375 83.916664ZM230.39062 83.916664L230.39062 75.322914L232.10938 75.322914L234.14062 81.40104Q234.42188 82.260414 234.54688 82.68229Q234.6875 82.21354 235.0 81.30729L237.0625 75.322914L238.59375 75.322914L238.59375 83.916664L237.5 83.916664L237.5 76.729164L235.0 83.916664L233.96875 83.916664L231.48438 76.604164L231.48438 83.916664L230.39062 83.916664ZM245.0625 75.322914L246.20312 75.322914L246.20312 80.291664Q246.20312 81.58854 245.90625 82.354164Q245.60938 83.104164 244.84375 83.58854Q244.07812 84.05729 242.84375 84.05729Q241.64062 84.05729 240.85938 83.65104Q240.09375 83.229164 239.76562 82.447914Q239.4375 81.65104 239.4375 80.291664L239.4375 75.322914L240.57812 75.322914L240.57812 80.27604Q240.57812 81.40104 240.78125 81.93229Q241.0 82.46354 241.5 82.760414Q242.01562 83.041664 242.75 83.041664Q244.0 83.041664 244.53125 82.479164Q245.0625 81.90104 245.0625 80.27604L245.0625 75.322914ZM248.375 83.916664L248.375 75.322914L249.51562 75.322914L249.51562 82.90104L253.75 82.90104L253.75 83.916664L248.375 83.916664ZM260.84375 78.86979L255.17188 78.86979L255.17188 77.885414L260.84375 77.885414L260.84375 78.86979ZM260.84375 81.479164L255.17188 81.479164L255.17188 80.49479L260.84375 80.49479L260.84375 81.479164ZM265.96875 83.916664L264.92188 83.916664L264.92188 77.197914Q264.53125 77.55729 263.90625 77.93229Q263.29688 78.291664 262.8125 78.46354L262.8125 77.447914Q263.6875 77.02604 264.34375 76.447914Q265.01562 75.854164 265.29688 75.291664L265.96875 75.291664L265.96875 83.916664Z" fill-rule="nonzero"/><path stroke="#34a853" stroke-width="4.0" stroke-linecap="butt" d="M284.5 79.916664L296.5 79.916664" fill-rule="nonzero"/><path fill="#1a1a1a" d="M305.46875 83.916664L305.46875 75.322914L306.59375 75.322914L306.59375 78.854164L311.0625 78.854164L311.0625 75.322914L312.20312 75.322914L312.20312 83.916664L311.0625 83.916664L311.0625 79.86979L306.59375 79.86979L306.59375 83.916664L305.46875 83.916664ZM318.54688 81.916664L319.64062 82.041664Q319.39062 82.99479 318.6875 83.52604Q317.98438 84.05729 316.90625 84.05729Q315.54688 84.05729 314.73438 83.21354Q313.9375 82.36979 313.9375 80.854164Q313.9375 79.291664 314.75 78.43229Q315.5625 77.55729 316.84375 77.55729Q318.09375 77.55729 318.875 78.40104Q319.67188 79.24479 319.67188 80.791664Q319.67188 80.885414 319.67188 81.072914L315.03125 81.072914Q315.09375 82.104164 315.60938 82.65104Q316.125 83.18229 316.90625 83.18229Q317.48438 83.18229 317.89062 82.885414Q318.3125 82.572914 318.54688 81.916664ZM315.09375 80.21354L318.5625 80.21354Q318.5 79.416664 318.17188 79.02604Q317.65625 78.416664 316.85938 78.416664Q316.125 78.416664 315.625 78.90104Q315.14062 79.385414 315.09375 80.21354ZM316.21875 76.916664L317.0 75.27604L318.39062 75.27604L317.09375 76.916664L316.21875 76.916664ZM321.26562 83.916664L321.26562 75.322914L322.32812 75.322914L322.32812 83.916664L321.26562 83.916664ZM328.54688 81.916664L329.64062 82.041664Q329.39062 82.99479 328.6875 83.52604Q327.98438 84.05729 326.90625 84.05729Q325.54688 84.05729 324.73438 83.21354Q323.9375 82.36979 323.9375 80.854164Q323.9375 79.291664 324.75 78.43229Q325.5625 77.55729 326.84375 77.55729Q328.09375 77.55729 328.875 78.40104Q329.67188 79.24479 329.67188 80.791664Q329.67188 80.885414 329.67188 81.072914L325.03125 81.072914Q325.09375 82.104164 325.60938 82.65104Q326.125 83.18229 326.90625 83.18229Q327.48438 83.18229 327.89062 82.885414Q328.3125 82.572914 328.54688 81.916664ZM325.09375 80.21354L328.5625 80.21354Q328.5 79.416664 328.17188 79.02604Q327.65625 78.416664 326.85938 78.416664Q326.125 78.416664 325.625 78.90104Q325.14062 79.385414 325.09375 80.21354ZM327.51562 76.916664L326.67188 76.916664L325.3125 75.27604L326.73438 75.27604L327.51562 76.916664ZM331.29688 83.916664L331.29688 77.697914L332.23438 77.697914L332.23438 78.572914Q332.92188 77.55729 334.21875 77.55729Q334.78125 77.55729 335.25 77.760414Q335.73438 77.96354 335.96875 78.291664Q336.20312 78.61979 336.29688 79.05729Q336.34375 79.354164 336.34375 80.08854L336.34375 83.916664L335.29688 83.916664L335.29688 80.135414Q335.29688 79.479164 335.17188 79.166664Q335.04688 78.854164 334.73438 78.666664Q334.42188 78.46354 334.0 78.46354Q333.32812 78.46354 332.82812 78.90104Q332.34375 79.322914 332.34375 80.510414L332.34375 83.916664L331.29688 83.916664ZM342.54688 81.916664L343.64062 82.041664Q343.39062 82.99479 342.6875 83.52604Q341.98438 84.05729 340.90625 84.05729Q339.54688 84.05729 338.73438 83.21354Q337.9375 82.36979 337.9375 80.854164Q337.9375 79.291664 338.75 78.43229Q339.5625 77.55729 340.84375 77.55729Q342.09375 77.55729 342.875 78.40104Q343.67188 79.24479 343.67188 80.791664Q343.67188 80.885414 343.67188 81.072914L339.03125 81.072914Q339.09375 82.104164 339.60938 82.65104Q340.125 83.18229 340.90625 83.18229Q341.48438 83.18229 341.89062 82.885414Q342.3125 82.572914 342.54688 81.916664ZM339.09375 80.21354L342.5625 80.21354Q342.5 79.416664 342.17188 79.02604Q341.65625 78.416664 340.85938 78.416664Q340.125 78.416664 339.625 78.90104Q339.14062 79.385414 339.09375 80.21354ZM350.875 83.916664L347.54688 75.322914L348.78125 75.322914L351.01562 81.572914Q351.28125 82.322914 351.46875 82.979164Q351.67188 82.27604 351.9375 81.572914L354.25 75.322914L355.40625 75.322914L352.04688 83.916664L350.875 83.916664ZM355.375 83.916664L355.375 75.322914L356.51562 75.322914L356.51562 82.90104L360.75 82.90104L360.75 83.916664L355.375 83.916664ZM362.45312 83.916664L362.45312 75.322914L368.65625 75.322914L368.65625 76.33854L363.59375 76.33854L363.59375 78.96354L368.34375 78.96354L368.34375 79.979164L363.59375 79.979164L363.59375 82.90104L368.85938 82.90104L368.85938 83.916664L362.45312 83.916664ZM370.42188 83.916664L370.42188 75.322914L371.57812 75.322914L376.09375 82.072914L376.09375 75.322914L377.1875 75.322914L377.1875 83.916664L376.01562 83.916664L371.5 77.166664L371.5 83.916664L370.42188 83.916664ZM384.84375 78.86979L379.17188 78.86979L379.17188 77.885414L384.84375 77.885414L384.84375 78.86979ZM384.84375 81.479164L379.17188 81.479164L379.17188 80.49479L384.84375 80.49479L384.84375 81.479164ZM386.0 81.666664L387.10938 81.572914Q387.23438 82.385414 387.67188 82.791664Q388.125 83.197914 388.76562 83.197914Q389.51562 83.197914 390.04688 82.61979Q390.57812 82.041664 390.57812 81.104164Q390.57812 80.197914 390.0625 79.68229Q389.5625 79.15104 388.73438 79.15104Q388.23438 79.15104 387.8125 79.385414Q387.40625 79.61979 387.17188 79.979164L386.1875 79.854164L387.01562 75.447914L391.29688 75.447914L391.29688 76.447914L387.85938 76.447914L387.40625 78.760414Q388.17188 78.21354 389.01562 78.21354Q390.14062 78.21354 390.90625 78.99479Q391.6875 79.77604 391.6875 81.010414Q391.6875 82.166664 391.01562 83.02604Q390.1875 84.05729 388.76562 84.05729Q387.59375 84.05729 386.84375 83.40104Q386.10938 82.74479 386.0 81.666664ZM396.96875 83.916664L395.92188 83.916664L395.92188 77.197914Q395.53125 77.55729 394.90625 77.93229Q394.29688 78.291664 393.8125 78.46354L393.8125 77.447914Q394.6875 77.02604 395.34375 76.447914Q396.01562 75.854164 396.29688 75.291664L396.96875 75.291664L396.96875 83.916664ZM405.54688 82.90104L405.54688 83.916664L399.85938 83.916664Q399.85938 83.541664 399.98438 83.18229Q400.20312 82.604164 400.67188 82.041664Q401.15625 81.479164 402.0625 80.74479Q403.46875 79.58854 403.95312 78.916664Q404.45312 78.24479 404.45312 77.65104Q404.45312 77.02604 404.0 76.604164Q403.54688 76.166664 402.82812 76.166664Q402.0625 76.166664 401.60938 76.61979Q401.15625 77.072914 401.14062 77.885414L400.0625 77.77604Q400.17188 76.55729 400.89062 75.93229Q401.625 75.291664 402.85938 75.291664Q404.09375 75.291664 404.8125 75.979164Q405.53125 76.666664 405.53125 77.68229Q405.53125 78.197914 405.3125 78.697914Q405.10938 79.18229 404.60938 79.74479Q404.125 80.291664 403.0 81.24479Q402.04688 82.041664 401.76562 82.33854Q401.5 82.61979 401.32812 82.90104L405.54688 82.90104ZM407.5625 83.916664L407.5625 82.71354L408.76562 82.71354L408.76562 83.916664Q408.76562 84.572914 408.53125 84.979164Q408.29688 85.40104 407.79688 85.61979L407.5 85.166664Q407.82812 85.02604 407.98438 84.729164Q408.14062 84.447914 408.17188 83.916664L407.5625 83.916664ZM413.375 83.916664L413.375 75.322914L414.51562 75.322914L414.51562 82.90104L418.75 82.90104L418.75 83.916664L413.375 83.916664ZM420.39062 83.916664L420.39062 75.322914L422.10938 75.322914L424.14062 81.40104Q424.42188 82.260414 424.54688 82.68229Q424.6875 82.21354 425.0 81.30729L427.0625 75.322914L428.59375 75.322914L428.59375 83.916664L427.5 83.916664L427.5 76.729164L425.0 83.916664L423.96875 83.916664L421.48438 76.604164L421.48438 83.916664L420.39062 83.916664ZM435.0625 75.322914L436.20312 75.322914L436.20312 80.291664Q436.20312 81.58854 435.90625 82.354164Q435.60938 83.104164 434.84375 83.58854Q434.07812 84.05729 432.84375 84.05729Q431.64062 84.05729 430.85938 83.65104Q430.09375 83.229164 429.76562 82.447914Q429.4375 81.65104 429.4375 80.291664L429.4375 75.322914L430.57812 75.322914L430.57812 80.27604Q430.57812 81.40104 430.78125 81.93229Q431.0 82.46354 431.5 82.760414Q432.01562 83.041664 432.75 83.041664Q434.0 83.041664 434.53125 82.479164Q435.0625 81.90104 435.0625 80.27604L435.0625 75.322914ZM438.375 83.916664L438.375 75.322914L439.51562 75.322914L439.51562 82.90104L443.75 82.90104L443.75 83.916664L438.375 83.916664ZM450.84375 78.86979L445.17188 78.86979L445.17188 77.885414L450.84375 77.885414L450.84375 78.86979ZM450.84375 81.479164L445.17188 81.479164L445.17188 80.49479L450.84375 80.49479L450.84375 81.479164ZM453.625 79.260414Q452.96875 79.010414 452.64062 78.572914Q452.32812 78.11979 452.32812 77.510414Q452.32812 76.572914 453.0 75.93229Q453.6875 75.291664 454.79688 75.291664Q455.92188 75.291664 456.60938 75.947914Q457.29688 76.604164 457.29688 77.541664Q457.29688 78.135414 456.98438 78.572914Q456.67188 79.010414 456.03125 79.260414Q456.82812 79.510414 457.23438 80.08854Q457.64062 80.666664 457.64062 81.46354Q457.64062 82.55729 456.85938 83.30729Q456.09375 84.05729 454.8125 84.05729Q453.54688 84.05729 452.76562 83.30729Q451.98438 82.55729 451.98438 81.43229Q451.98438 80.58854 452.40625 80.02604Q452.84375 79.46354 453.625 79.260414ZM453.40625 77.46354Q453.40625 78.072914 453.79688 78.46354Q454.20312 78.854164 454.82812 78.854164Q455.4375 78.854164 455.82812 78.479164Q456.21875 78.08854 456.21875 77.52604Q456.21875 76.947914 455.8125 76.55729Q455.40625 76.15104 454.8125 76.15104Q454.20312 76.15104 453.79688 76.541664Q453.40625 76.93229 453.40625 77.46354ZM453.07812 81.43229Q453.07812 81.885414 453.28125 82.30729Q453.5 82.729164 453.92188 82.96354Q454.34375 83.197914 454.82812 83.197914Q455.57812 83.197914 456.0625 82.71354Q456.5625 82.229164 456.5625 81.479164Q456.5625 80.71354 456.0625 80.21354Q455.5625 79.71354 454.79688 79.71354Q454.04688 79.71354 453.5625 80.21354Q453.07812 80.697914 453.07812 81.43229Z" fill-rule="nonzero"/><path fill="#757575" d="M212.20312 37.55L208.25 27.175L210.10938 27.175L212.34375 33.39375Q212.70312 34.39375 213.0 35.471874Q213.23438 34.659374 213.65625 33.503124L215.95312 27.175L217.76562 27.175L213.84375 37.55L212.20312 37.55ZM218.28125 37.55L218.28125 23.2375L220.03125 23.2375L220.03125 37.55L218.28125 37.55ZM229.42188 34.20625L231.23438 34.440624Q230.8125 36.01875 229.64062 36.909374Q228.48438 37.784374 226.67188 37.784374Q224.40625 37.784374 223.0625 36.39375Q221.73438 34.9875 221.73438 32.45625Q221.73438 29.83125 223.07812 28.39375Q224.42188 26.940624 226.57812 26.940624Q228.65625 26.940624 229.96875 28.3625Q231.29688 29.76875 231.29688 32.346874Q231.29688 32.503124 231.28125 32.815624L223.54688 32.815624Q223.64062 34.51875 224.51562 35.425Q225.39062 36.33125 226.6875 36.33125Q227.65625 36.33125 228.32812 35.83125Q229.01562 35.315624 229.42188 34.20625ZM223.64062 31.3625L229.4375 31.3625Q229.32812 30.065624 228.78125 29.409374Q227.9375 28.39375 226.59375 28.39375Q225.39062 28.39375 224.5625 29.20625Q223.73438 30.003124 223.64062 31.3625ZM235.53125 29.784374Q234.4375 29.378124 233.90625 28.64375Q233.39062 27.89375 233.39062 26.8625Q233.39062 25.3 234.51562 24.2375Q235.64062 23.175 237.5 23.175Q239.375 23.175 240.51562 24.26875Q241.65625 25.346874 241.65625 26.909374Q241.65625 27.909374 241.125 28.64375Q240.60938 29.378124 239.54688 29.784374Q240.875 30.221874 241.5625 31.175Q242.25 32.128124 242.25 33.45625Q242.25 35.3 240.9375 36.55Q239.64062 37.8 237.53125 37.8Q235.40625 37.8 234.10938 36.55Q232.8125 35.284374 232.8125 33.409374Q232.8125 32.01875 233.51562 31.08125Q234.23438 30.128124 235.53125 29.784374ZM235.1875 26.8Q235.1875 27.815624 235.84375 28.471874Q236.5 29.1125 237.53125 29.1125Q238.54688 29.1125 239.20312 28.471874Q239.85938 27.83125 239.85938 26.909374Q239.85938 25.940624 239.1875 25.284374Q238.51562 24.6125 237.51562 24.6125Q236.51562 24.6125 235.84375 25.26875Q235.1875 25.909374 235.1875 26.8ZM234.625 33.425Q234.625 34.175 234.96875 34.878124Q235.32812 35.58125 236.03125 35.971874Q236.73438 36.346874 237.54688 36.346874Q238.8125 36.346874 239.625 35.534374Q240.45312 34.721874 240.45312 33.471874Q240.45312 32.20625 239.60938 31.378124Q238.76562 30.55 237.48438 30.55Q236.25 30.55 235.4375 31.378124Q234.625 32.190624 234.625 33.425ZM244.8125 37.55L244.8125 35.55L246.8125 35.55L246.8125 37.55L244.8125 37.55ZM253.20312 37.55L249.25 27.175L251.10938 27.175L253.34375 33.39375Q253.70312 34.39375 254.0 35.471874Q254.23438 34.659374 254.65625 33.503124L256.95312 27.175L258.76562 27.175L254.84375 37.55L253.20312 37.55ZM264.60938 34.45625L266.35938 34.175Q266.5 35.221874 267.17188 35.784374Q267.84375 36.33125 269.04688 36.33125Q270.25 36.33125 270.82812 35.846874Q271.42188 35.346874 271.42188 34.690624Q271.42188 34.096874 270.90625 33.753124Q270.54688 33.51875 269.10938 33.159374Q267.17188 32.659374 266.42188 32.315624Q265.6875 31.95625 265.29688 31.33125Q264.90625 30.690624 264.90625 29.925Q264.90625 29.2375 265.21875 28.64375Q265.54688 28.05 266.09375 27.659374Q266.5 27.3625 267.20312 27.159374Q267.92188 26.940624 268.73438 26.940624Q269.95312 26.940624 270.875 27.3Q271.79688 27.64375 272.23438 28.253124Q272.67188 28.846874 272.84375 29.846874L271.125 30.08125Q271.0 29.284374 270.4375 28.846874Q269.875 28.39375 268.85938 28.39375Q267.64062 28.39375 267.125 28.8Q266.60938 29.190624 266.60938 29.721874Q266.60938 30.065624 266.82812 30.346874Q267.03125 30.628124 267.5 30.815624Q267.76562 30.909374 269.04688 31.253124Q270.92188 31.753124 271.65625 32.08125Q272.39062 32.39375 272.8125 33.003124Q273.23438 33.596874 273.23438 34.503124Q273.23438 35.378124 272.71875 36.159374Q272.20312 36.940624 271.23438 37.3625Q270.26562 37.784374 269.04688 37.784374Q267.03125 37.784374 265.96875 36.940624Q264.90625 36.096874 264.60938 34.45625ZM275.3125 41.51875L275.3125 27.175L276.92188 27.175L276.92188 28.51875Q277.48438 27.7375 278.1875 27.346874Q278.90625 26.940624 279.92188 26.940624Q281.25 26.940624 282.26562 27.628124Q283.28125 28.315624 283.79688 29.565624Q284.32812 30.8 284.32812 32.284374Q284.32812 33.878124 283.75 35.159374Q283.1875 36.425 282.09375 37.1125Q281.0 37.784374 279.79688 37.784374Q278.92188 37.784374 278.21875 37.409374Q277.53125 37.034374 277.07812 36.471874L277.07812 41.51875L275.3125 41.51875ZM276.90625 32.425Q276.90625 34.425 277.71875 35.378124Q278.53125 36.33125 279.6875 36.33125Q280.85938 36.33125 281.6875 35.346874Q282.53125 34.3625 282.53125 32.26875Q282.53125 30.3 281.70312 29.315624Q280.89062 28.315624 279.76562 28.315624Q278.64062 28.315624 277.76562 29.378124Q276.90625 30.425 276.90625 32.425ZM293.42188 34.20625L295.23438 34.440624Q294.8125 36.01875 293.64062 36.909374Q292.48438 37.784374 290.67188 37.784374Q288.40625 37.784374 287.0625 36.39375Q285.73438 34.9875 285.73438 32.45625Q285.73438 29.83125 287.07812 28.39375Q288.42188 26.940624 290.57812 26.940624Q292.65625 26.940624 293.96875 28.3625Q295.29688 29.76875 295.29688 32.346874Q295.29688 32.503124 295.28125 32.815624L287.54688 32.815624Q287.64062 34.51875 288.51562 35.425Q289.39062 36.33125 290.6875 36.33125Q291.65625 36.33125 292.32812 35.83125Q293.01562 35.315624 293.42188 34.20625ZM287.64062 31.3625L293.4375 31.3625Q293.32812 30.065624 292.78125 29.409374Q291.9375 28.39375 290.59375 28.39375Q289.39062 28.39375 288.5625 29.20625Q287.73438 30.003124 287.64062 31.3625ZM304.42188 34.20625L306.23438 34.440624Q305.8125 36.01875 304.64062 36.909374Q303.48438 37.784374 301.67188 37.784374Q299.40625 37.784374 298.0625 36.39375Q296.73438 34.9875 296.73438 32.45625Q296.73438 29.83125 298.07812 28.39375Q299.42188 26.940624 301.57812 26.940624Q303.65625 26.940624 304.96875 28.3625Q306.29688 29.76875 306.29688 32.346874Q306.29688 32.503124 306.28125 32.815624L298.54688 32.815624Q298.64062 34.51875 299.51562 35.425Q300.39062 36.33125 301.6875 36.33125Q302.65625 36.33125 303.32812 35.83125Q304.01562 35.315624 304.42188 34.20625ZM298.64062 31.3625L304.4375 31.3625Q304.32812 30.065624 303.78125 29.409374Q302.9375 28.39375 301.59375 28.39375Q300.39062 28.39375 299.5625 29.20625Q298.73438 30.003124 298.64062 31.3625ZM315.04688 37.55L315.04688 36.2375Q314.0625 37.784374 312.14062 37.784374Q310.90625 37.784374 309.85938 37.096874Q308.82812 36.409374 308.25 35.190624Q307.6875 33.971874 307.6875 32.378124Q307.6875 30.815624 308.20312 29.55Q308.71875 28.284374 309.75 27.6125Q310.79688 26.940624 312.0625 26.940624Q313.0 26.940624 313.73438 27.346874Q314.46875 27.7375 314.9375 28.3625L314.9375 23.2375L316.67188 23.2375L316.67188 37.55L315.04688 37.55ZM309.48438 32.378124Q309.48438 34.3625 310.32812 35.346874Q311.17188 36.33125 312.3125 36.33125Q313.46875 36.33125 314.26562 35.39375Q315.07812 34.45625 315.07812 32.51875Q315.07812 30.39375 314.25 29.39375Q313.4375 28.39375 312.23438 28.39375Q311.0625 28.39375 310.26562 29.3625Q309.48438 30.315624 309.48438 32.378124ZM332.10938 37.55L332.10938 36.01875Q330.90625 37.784374 328.82812 37.784374Q327.90625 37.784374 327.10938 37.440624Q326.3125 37.08125 325.92188 36.55Q325.54688 36.01875 325.39062 35.2375Q325.28125 34.721874 325.28125 33.596874L325.28125 27.175L327.03125 27.175L327.03125 32.925Q327.03125 34.3 327.14062 34.784374Q327.3125 35.471874 327.84375 35.878124Q328.39062 36.26875 329.17188 36.26875Q329.96875 36.26875 330.65625 35.8625Q331.35938 35.45625 331.64062 34.76875Q331.9375 34.065624 331.9375 32.7375L331.9375 27.175L333.6875 27.175L333.6875 37.55L332.10938 37.55ZM335.3125 41.51875L335.3125 27.175L336.92188 27.175L336.92188 28.51875Q337.48438 27.7375 338.1875 27.346874Q338.90625 26.940624 339.92188 26.940624Q341.25 26.940624 342.26562 27.628124Q343.28125 28.315624 343.79688 29.565624Q344.32812 30.8 344.32812 32.284374Q344.32812 33.878124 343.75 35.159374Q343.1875 36.425 342.09375 37.1125Q341.0 37.784374 339.79688 37.784374Q338.92188 37.784374 338.21875 37.409374Q337.53125 37.034374 337.07812 36.471874L337.07812 41.51875L335.3125 41.51875ZM336.90625 32.425Q336.90625 34.425 337.71875 35.378124Q338.53125 36.33125 339.6875 36.33125Q340.85938 36.33125 341.6875 35.346874Q342.53125 34.3625 342.53125 32.26875Q342.53125 30.3 341.70312 29.315624Q340.89062 28.315624 339.76562 28.315624Q338.64062 28.315624 337.76562 29.378124Q336.90625 30.425 336.90625 32.425Z" fill-rule="nonzero"/></svg>