<svg version="1.1" viewBox="0.0 0.0 544.0 371.0" fill="none" stroke="none" stroke-linecap="square" stroke-miterlimit="10" width="544" height="371" xmlns:xlink="http://www.w3.org/1999/xlink" xmlns="http://www.w3.org/2000/svg"><path fill="#ffffff" d="M0 0L544.0 0L544.0 371.0L0 371.0L0 0Z" fill-rule="nonzero"/><path stroke="#cccccc" stroke-width="1.0" stroke-linecap="butt" d="M77.5 106.5L77.5 300.5" fill-rule="nonzero"/><path stroke="#cccccc" stroke-width="1.0" stroke-linecap="butt" d="M212.5 106.5L212.5 300.5" fill-rule="nonzero"/><path stroke="#cccccc" stroke-width="1.0" stroke-linecap="butt" d="M348.5 106.5L348.5 300.5" fill-rule="nonzero"/><path stroke="#cccccc" stroke-width="1.0" stroke-linecap="butt" d="M483.5 106.5L483.5 300.5" fill-rule="nonzero"/><path stroke="#333333" stroke-width="1.0" stroke-linecap="butt" d="M77.5 300.5L525.5 300.5" fill-rule="nonzero"/><path stroke="#cccccc" stroke-width="1.0" stroke-linecap="butt" d="M77.5 261.5L525.5 261.5" fill-rule="nonzero"/><path stroke="#cccccc" stroke-width="1.0" stroke-linecap="butt" d="M77.5 222.5L525.5 222.5" fill-rule="nonzero"/><path stroke="#cccccc" stroke-width="1.0" stroke-linecap="butt" d="M77.5 183.5L525.5 183.5" fill-rule="nonzero"/><path stroke="#cccccc" stroke-width="1.0" stroke-linecap="butt" d="M77.5 145.5L525.5 145.5" fill-rule="nonzero"/><path stroke="#cccccc" stroke-width="1.0" stroke-linecap="butt" d="M77.5 106.5L525.5 106.5" fill-rule="nonzero"/><clipPath id="id_0"><path d="M77.55 106.28333L525.45 106.28333L525.45 300.45L77.55 300.45L77.55 106.28333Z" clip-rule="nonzero"/></clipPath><path stroke="#4285f4" stroke-width="2.0" stroke-linecap="butt" clip-path="url(#id_0)" d="M77.55 294.70267L118.26818 295.557L158.98636 293.693L199.70454 291.05234L240.42273 284.91666L281.1409 284.91666L321.8591 282.66434L362.57727 282.81967L403.29544 282.66434L444.01364 282.66434L484.7318 282.742L525.45 282.66434" fill-rule="nonzero"/><path stroke="#ea4335" stroke-width="2.0" stroke-linecap="butt" clip-path="url(#id_0)" d="M77.55 296.955L118.26818 296.10068L158.98636 293.07166L199.70454 291.596L240.42273 285.61566L281.1409 271.86865L321.8591 257.26733L362.57727 229.07434L403.29544 191.872L444.01364 149.31067L484.7318 107.992L525.45 114.593666" fill-rule="nonzero"/><path stroke="#fbbc04" stroke-width="2.0" stroke-linecap="butt" clip-path="url(#id_0)" d="M77.55 293.30466L118.26818 294.00366L158.98636 291.13L199.70454 282.509L240.42273 272.49L281.1409 272.33466L321.8591 272.024L362.57727 270.23767L403.29544 270.08234L444.01364 269.461L484.7318 269.38333L525.45 269.30566" fill-rule="nonzero"/><path stroke="#34a853" stroke-width="2.0" stroke-linecap="butt" clip-path="url(#id_0)" d="M77.55 293.227L118.26818 293.14932L158.98636 293.46L199.70454 283.82935L240.42273 276.218L281.1409 268.063L321.8591 259.83032L362.57727 254.39366L403.29544 252.76266L444.01364 250.04433L484.7318 248.258L525.45 248.025" fill-rule="nonzero"/><path fill="#000000" fill-opacity="0.0" clip-path="url(#id_0)" d="M80.55 294.70267C80.55 296.35953 79.206856 297.70267 77.55 297.70267C75.89314 297.70267 74.55 296.35953 74.55 294.70267C74.55 293.0458 75.89314 291.70267 77.55 291.70267C79.206856 291.70267 80.55 293.0458 80.55 294.70267Z" fill-rule="nonzero"/><path fill="#000000" fill-opacity="0.0" clip-path="url(#id_0)" d="M121.26818 295.557C121.26818 297.21387 119.92503 298.557 118.26818 298.557C116.61133 298.557 115.26818 297.21387 115.26818 295.557C115.26818 293.90015 116.61133 292.557 118.26818 292.557C119.92503 292.557 121.26818 293.90015 121.26818 295.557Z" fill-rule="nonzero"/><path fill="#000000" fill-opacity="0.0" clip-path="url(#id_0)" d="M161.98636 293.693C161.98636 295.34985 160.64322 296.693 158.98636 296.693C157.32951 296.693 155.98636 295.34985 155.98636 293.693C155.98636 292.03613 157.32951 290.693 158.98636 290.693C160.64322 290.693 161.98636 292.03613 161.98636 293.693Z" fill-rule="nonzero"/><path fill="#000000" fill-opacity="0.0" clip-path="url(#id_0)" d="M202.70454 291.05234C202.70454 292.7092 201.3614 294.05234 199.70454 294.05234C198.04768 294.05234 196.70454 292.7092 196.70454 291.05234C196.70454 289.39548 198.04768 288.05234 199.70454 288.05234C201.3614 288.05234 202.70454 289.39548 202.70454 291.05234Z" fill-rule="nonzero"/><path fill="#000000" fill-opacity="0.0" clip-path="url(#id_0)" d="M243.42273 284.91666C243.42273 286.57352 242.07957 287.91666 240.42273 287.91666C238.76587 287.91666 237.42273 286.57352 237.42273 284.91666C237.42273 283.25983 238.76587 281.91666 240.42273 281.91666C242.07957 281.91666 243.42273 283.25983 243.42273 284.91666Z" fill-rule="nonzero"/><path fill="#000000" fill-opacity="0.0" clip-path="url(#id_0)" d="M284.1409 284.91666C284.1409 286.57352 282.79776 287.91666 281.1409 287.91666C279.48407 287.91666 278.1409 286.57352 278.1409 284.91666C278.1409 283.25983 279.48407 281.91666 281.1409 281.91666C282.79776 281.91666 284.1409 283.25983 284.1409 284.91666Z" fill-rule="nonzero"/><path fill="#000000" fill-opacity="0.0" clip-path="url(#id_0)" d="M324.8591 282.66434C324.8591 284.3212 323.51593 285.66434 321.8591 285.66434C320.20224 285.66434 318.8591 284.3212 318.8591 282.66434C318.8591 281.00748 320.20224 279.66434 321.8591 279.66434C323.51593 279.66434 324.8591 281.00748 324.8591 282.66434Z" fill-rule="nonzero"/><path fill="#000000" fill-opacity="0.0" clip-path="url(#id_0)" d="M365.57727 282.81967C365.57727 284.47653 364.23413 285.81967 362.57727 285.81967C360.9204 285.81967 359.57727 284.47653 359.57727 282.81967C359.57727 281.1628 360.9204 279.81967 362.57727 279.81967C364.23413 279.81967 365.57727 281.1628 365.57727 282.81967Z" fill-rule="nonzero"/><path fill="#000000" fill-opacity="0.0" clip-path="url(#id_0)" d="M406.29544 282.66434C406.29544 284.3212 404.9523 285.66434 403.29544 285.66434C401.6386 285.66434 400.29544 284.3212 400.29544 282.66434C400.29544 281.00748 401.6386 279.66434 403.29544 279.66434C404.9523 279.66434 406.29544 281.00748 406.29544 282.66434Z" fill-rule="nonzero"/><path fill="#000000" fill-opacity="0.0" clip-path="url(#id_0)" d="M447.01364 282.66434C447.01364 284.3212 445.6705 285.66434 444.01364 285.66434C442.35678 285.66434 441.01364 284.3212 441.01364 282.66434C441.01364 281.00748 442.35678 279.66434 444.01364 279.66434C445.6705 279.66434 447.01364 281.00748 447.01364 282.66434Z" fill-rule="nonzero"/><path fill="#000000" fill-opacity="0.0" clip-path="url(#id_0)" d="M487.7318 282.742C487.7318 284.39886 486.38867 285.742 484.7318 285.742C483.07495 285.742 481.7318 284.39886 481.7318 282.742C481.7318 281.08514 483.07495 279.742 484.7318 279.742C486.38867 279.742 487.7318 281.08514 487.7318 282.742Z" fill-rule="nonzero"/><path fill="#000000" fill-opacity="0.0" clip-path="url(#id_0)" d="M528.45 282.66434C528.45 284.3212 527.1069 285.66434 525.45 285.66434C523.79315 285.66434 522.45 284.3212 522.45 282.66434C522.45 281.00748 523.79315 279.66434 525.45 279.66434C527.1069 279.66434 528.45 281.00748 528.45 282.66434Z" fill-rule="nonzero"/><path fill="#000000" fill-opacity="0.0" clip-path="url(#id_0)" d="M80.55 296.955C80.55 298.61185 79.206856 299.955 77.55 299.955C75.89314 299.955 74.55 298.61185 74.55 296.955C74.55 295.29816 75.89314 293.955 77.55 293.955C79.206856 293.955 80.55 295.29816 80.55 296.955Z" fill-rule="nonzero"/><path fill="#000000" fill-opacity="0.0" clip-path="url(#id_0)" d="M121.26818 296.10068C121.26818 297.7575 119.92503 299.10068 118.26818 299.10068C116.61133 299.10068 115.26818 297.7575 115.26818 296.10068C115.26818 294.44382 116.61133 293.10068 118.26818 293.10068C119.92503 293.10068 121.26818 294.44382 121.26818 296.10068Z" fill-rule="nonzero"/><path fill="#000000" fill-opacity="0.0" clip-path="url(#id_0)" d="M161.98636 293.07166C161.98636 294.72852 160.64322 296.07166 158.98636 296.07166C157.32951 296.07166 155.98636 294.72852 155.98636 293.07166C155.98636 291.41483 157.32951 290.07166 158.98636 290.07166C160.64322 290.07166 161.98636 291.41483 161.98636 293.07166Z" fill-rule="nonzero"/><path fill="#000000" fill-opacity="0.0" clip-path="url(#id_0)" d="M202.70454 291.596C202.70454 293.25287 201.3614 294.596 199.70454 294.596C198.04768 294.596 196.70454 293.25287 196.70454 291.596C196.70454 289.93915 198.04768 288.596 199.70454 288.596C201.3614 288.596 202.70454 289.93915 202.70454 291.596Z" fill-rule="nonzero"/><path fill="#000000" fill-opacity="0.0" clip-path="url(#id_0)" d="M243.42273 285.61566C243.42273 287.27252 242.07957 288.61566 240.42273 288.61566C238.76587 288.61566 237.42273 287.27252 237.42273 285.61566C237.42273 283.9588 238.76587 282.61566 240.42273 282.61566C242.07957 282.61566 243.42273 283.9588 243.42273 285.61566Z" fill-rule="nonzero"/><path fill="#000000" fill-opacity="0.0" clip-path="url(#id_0)" d="M284.1409 271.86865C284.1409 273.5255 282.79776 274.86865 281.1409 274.86865C279.48407 274.86865 278.1409 273.5255 278.1409 271.86865C278.1409 270.21182 279.48407 268.86865 281.1409 268.86865C282.79776 268.86865 284.1409 270.21182 284.1409 271.86865Z" fill-rule="nonzero"/><path fill="#000000" fill-opacity="0.0" clip-path="url(#id_0)" d="M324.8591 257.26733C324.8591 258.9242 323.51593 260.26733 321.8591 260.26733C320.20224 260.26733 318.8591 258.9242 318.8591 257.26733C318.8591 255.61047 320.20224 254.26733 321.8591 254.26733C323.51593 254.26733 324.8591 255.61047 324.8591 257.26733Z" fill-rule="nonzero"/><path fill="#000000" fill-opacity="0.0" clip-path="url(#id_0)" d="M365.57727 229.07434C365.57727 230.73119 364.23413 232.07434 362.57727 232.07434C360.9204 232.07434 359.57727 230.73119 359.57727 229.07434C359.57727 227.41748 360.9204 226.07434 362.57727 226.07434C364.23413 226.07434 365.57727 227.41748 365.57727 229.07434Z" fill-rule="nonzero"/><path fill="#000000" fill-opacity="0.0" clip-path="url(#id_0)" d="M406.29544 191.872C406.29544 193.52885 404.9523 194.872 403.29544 194.872C401.6386 194.872 400.29544 193.52885 400.29544 191.872C400.29544 190.21515 401.6386 188.872 403.29544 188.872C404.9523 188.872 406.29544 190.21515 406.29544 191.872Z" fill-rule="nonzero"/><path fill="#000000" fill-opacity="0.0" clip-path="url(#id_0)" d="M447.01364 149.31067C447.01364 150.96751 445.6705 152.31067 444.01364 152.31067C442.35678 152.31067 441.01364 150.96751 441.01364 149.31067C441.01364 147.65381 442.35678 146.31067 444.01364 146.31067C445.6705 146.31067 447.01364 147.65381 447.01364 149.31067Z" fill-rule="nonzero"/><path fill="#000000" fill-opacity="0.0" clip-path="url(#id_0)" d="M487.7318 107.992C487.7318 109.64886 486.38867 110.992 484.7318 110.992C483.07495 110.992 481.7318 109.64886 481.7318 107.992C481.7318 106.335144 483.07495 104.992 484.7318 104.992C486.38867 104.992 487.7318 106.335144 487.7318 107.992Z" fill-rule="nonzero"/><path fill="#000000" fill-opacity="0.0" clip-path="url(#id_0)" d="M528.45 114.593666C528.45 116.25052 527.1069 117.593666 525.45 117.593666C523.79315 117.593666 522.45 116.25052 522.45 114.593666C522.45 112.93681 523.79315 111.593666 525.45 111.593666C527.1069 111.593666 528.45 112.93681 528.45 114.593666Z" fill-rule="nonzero"/><path fill="#000000" fill-opacity="0.0" clip-path="url(#id_0)" d="M80.55 293.30466C80.55 294.96152 79.206856 296.30466 77.55 296.30466C75.89314 296.30466 74.55 294.96152 74.55 293.30466C74.55 291.64783 75.89314 290.30466 77.55 290.30466C79.206856 290.30466 80.55 291.64783 80.55 293.30466Z" fill-rule="nonzero"/><path fill="#000000" fill-opacity="0.0" clip-path="url(#id_0)" d="M121.26818 294.00366C121.26818 295.66052 119.92503 297.00366 118.26818 297.00366C116.61133 297.00366 115.26818 295.66052 115.26818 294.00366C115.26818 292.3468 116.61133 291.00366 118.26818 291.00366C119.92503 291.00366 121.26818 292.3468 121.26818 294.00366Z" fill-rule="nonzero"/><path fill="#000000" fill-opacity="0.0" clip-path="url(#id_0)" d="M161.98636 291.13C161.98636 292.78687 160.64322 294.13 158.98636 294.13C157.32951 294.13 155.98636 292.78687 155.98636 291.13C155.98636 289.47314 157.32951 288.13 158.98636 288.13C160.64322 288.13 161.98636 289.47314 161.98636 291.13Z" fill-rule="nonzero"/><path fill="#000000" fill-opacity="0.0" clip-path="url(#id_0)" d="M202.70454 282.509C202.70454 284.16586 201.3614 285.509 199.70454 285.509C198.04768 285.509 196.70454 284.16586 196.70454 282.509C196.70454 280.85214 198.04768 279.509 199.70454 279.509C201.3614 279.509 202.70454 280.85214 202.70454 282.509Z" fill-rule="nonzero"/><path fill="#000000" fill-opacity="0.0" clip-path="url(#id_0)" d="M243.42273 272.49C243.42273 274.14685 242.07957 275.49 240.42273 275.49C238.76587 275.49 237.42273 274.14685 237.42273 272.49C237.42273 270.83316 238.76587 269.49 240.42273 269.49C242.07957 269.49 243.42273 270.83316 243.42273 272.49Z" fill-rule="nonzero"/><path fill="#000000" fill-opacity="0.0" clip-path="url(#id_0)" d="M284.1409 272.33466C284.1409 273.99152 282.79776 275.33466 281.1409 275.33466C279.48407 275.33466 278.1409 273.99152 278.1409 272.33466C278.1409 270.67783 279.48407 269.33466 281.1409 269.33466C282.79776 269.33466 284.1409 270.67783 284.1409 272.33466Z" fill-rule="nonzero"/><path fill="#000000" fill-opacity="0.0" clip-path="url(#id_0)" d="M324.8591 272.024C324.8591 273.68085 323.51593 275.024 321.8591 275.024C320.20224 275.024 318.8591 273.68085 318.8591 272.024C318.8591 270.36716 320.20224 269.024 321.8591 269.024C323.51593 269.024 324.8591 270.36716 324.8591 272.024Z" fill-rule="nonzero"/><path fill="#000000" fill-opacity="0.0" clip-path="url(#id_0)" d="M365.57727 270.23767C365.57727 271.89453 364.23413 273.23767 362.57727 273.23767C360.9204 273.23767 359.57727 271.89453 359.57727 270.23767C359.57727 268.5808 360.9204 267.23767 362.57727 267.23767C364.23413 267.23767 365.57727 268.5808 365.57727 270.23767Z" fill-rule="nonzero"/><path fill="#000000" fill-opacity="0.0" clip-path="url(#id_0)" d="M406.29544 270.08234C406.29544 271.7392 404.9523 273.08234 403.29544 273.08234C401.6386 273.08234 400.29544 271.7392 400.29544 270.08234C400.29544 268.42548 401.6386 267.08234 403.29544 267.08234C404.9523 267.08234 406.29544 268.42548 406.29544 270.08234Z" fill-rule="nonzero"/><path fill="#000000" fill-opacity="0.0" clip-path="url(#id_0)" d="M447.01364 269.461C447.01364 271.11786 445.6705 272.461 444.01364 272.461C442.35678 272.461 441.01364 271.11786 441.01364 269.461C441.01364 267.80414 442.35678 266.461 444.01364 266.461C445.6705 266.461 447.01364 267.80414 447.01364 269.461Z" fill-rule="nonzero"/><path fill="#000000" fill-opacity="0.0" clip-path="url(#id_0)" d="M487.7318 269.38333C487.7318 271.0402 486.38867 272.38333 484.7318 272.38333C483.07495 272.38333 481.7318 271.0402 481.7318 269.38333C481.7318 267.72647 483.07495 266.38333 484.7318 266.38333C486.38867 266.38333 487.7318 267.72647 487.7318 269.38333Z" fill-rule="nonzero"/><path fill="#000000" fill-opacity="0.0" clip-path="url(#id_0)" d="M528.45 269.30566C528.45 270.96252 527.1069 272.30566 525.45 272.30566C523.79315 272.30566 522.45 270.96252 522.45 269.30566C522.45 267.6488 523.79315 266.30566 525.45 266.30566C527.1069 266.30566 528.45 267.6488 528.45 269.30566Z" fill-rule="nonzero"/><path fill="#000000" fill-opacity="0.0" clip-path="url(#id_0)" d="M80.55 293.227C80.55 294.88385 79.206856 296.227 77.55 296.227C75.89314 296.227 74.55 294.88385 74.55 293.227C74.55 291.57016 75.89314 290.227 77.55 290.227C79.206856 290.227 80.55 291.57016 80.55 293.227Z" fill-rule="nonzero"/><path fill="#000000" fill-opacity="0.0" clip-path="url(#id_0)" d="M121.26818 293.14932C121.26818 294.80618 119.92503 296.14932 118.26818 296.14932C116.61133 296.14932 115.26818 294.80618 115.26818 293.14932C115.26818 291.4925 116.61133 290.14932 118.26818 290.14932C119.92503 290.14932 121.26818 291.4925 121.26818 293.14932Z" fill-rule="nonzero"/><path fill="#000000" fill-opacity="0.0" clip-path="url(#id_0)" d="M161.98636 293.46C161.98636 295.11685 160.64322 296.46 158.98636 296.46C157.32951 296.46 155.98636 295.11685 155.98636 293.46C155.98636 291.80313 157.32951 290.46 158.98636 290.46C160.64322 290.46 161.98636 291.80313 161.98636 293.46Z" fill-rule="nonzero"/><path fill="#000000" fill-opacity="0.0" clip-path="url(#id_0)" d="M202.70454 283.82935C202.70454 285.48618 201.3614 286.82935 199.70454 286.82935C198.04768 286.82935 196.70454 285.48618 196.70454 283.82935C196.70454 282.1725 198.04768 280.82935 199.70454 280.82935C201.3614 280.82935 202.70454 282.1725 202.70454 283.82935Z" fill-rule="nonzero"/><path fill="#000000" fill-opacity="0.0" clip-path="url(#id_0)" d="M243.42273 276.218C243.42273 277.87485 242.07957 279.218 240.42273 279.218C238.76587 279.218 237.42273 277.87485 237.42273 276.218C237.42273 274.56116 238.76587 273.218 240.42273 273.218C242.07957 273.218 243.42273 274.56116 243.42273 276.218Z" fill-rule="nonzero"/><path fill="#000000" fill-opacity="0.0" clip-path="url(#id_0)" d="M284.1409 268.063C284.1409 269.71985 282.79776 271.063 281.1409 271.063C279.48407 271.063 278.1409 269.71985 278.1409 268.063C278.1409 266.40616 279.48407 265.063 281.1409 265.063C282.79776 265.063 284.1409 266.40616 284.1409 268.063Z" fill-rule="nonzero"/><path fill="#000000" fill-opacity="0.0" clip-path="url(#id_0)" d="M324.8591 259.83032C324.8591 261.48718 323.51593 262.83032 321.8591 262.83032C320.20224 262.83032 318.8591 261.48718 318.8591 259.83032C318.8591 258.1735 320.20224 256.83032 321.8591 256.83032C323.51593 256.83032 324.8591 258.1735 324.8591 259.83032Z" fill-rule="nonzero"/><path fill="#000000" fill-opacity="0.0" clip-path="url(#id_0)" d="M365.57727 254.39366C365.57727 256.0505 364.23413 257.39368 362.57727 257.39368C360.9204 257.39368 359.57727 256.0505 359.57727 254.39366C359.57727 252.73682 360.9204 251.39366 362.57727 251.39366C364.23413 251.39366 365.57727 252.73682 365.57727 254.39366Z" fill-rule="nonzero"/><path fill="#000000" fill-opacity="0.0" clip-path="url(#id_0)" d="M406.29544 252.76266C406.29544 254.41953 404.9523 255.76266 403.29544 255.76266C401.6386 255.76266 400.29544 254.41953 400.29544 252.76266C400.29544 251.10582 401.6386 249.76266 403.29544 249.76266C404.9523 249.76266 406.29544 251.10582 406.29544 252.76266Z" fill-rule="nonzero"/><path fill="#000000" fill-opacity="0.0" clip-path="url(#id_0)" d="M447.01364 250.04433C447.01364 251.70119 445.6705 253.04433 444.01364 253.04433C442.35678 253.04433 441.01364 251.70119 441.01364 250.04433C441.01364 248.38748 442.35678 247.04433 444.01364 247.04433C445.6705 247.04433 447.01364 248.38748 447.01364 250.04433Z" fill-rule="nonzero"/><path fill="#000000" fill-opacity="0.0" clip-path="url(#id_0)" d="M487.7318 248.258C487.7318 249.91486 486.38867 251.258 484.7318 251.258C483.07495 251.258 481.7318 249.91486 481.7318 248.258C481.7318 246.60115 483.07495 245.258 484.7318 245.258C486.38867 245.258 487.7318 246.60115 487.7318 248.258Z" fill-rule="nonzero"/><path fill="#000000" fill-opacity="0.0" clip-path="url(#id_0)" d="M528.45 248.025C528.45 249.68185 527.1069 251.025 525.45 251.025C523.79315 251.025 522.45 249.68185 522.45 248.025C522.45 246.36815 523.79315 245.025 525.45 245.025C527.1069 245.025 528.45 246.36815 528.45 248.025Z" fill-rule="nonzero"/><path fill="#000000" d="M270.54688 346.6844L271.60938 346.59064Q271.6875 347.2469 271.96875 347.65314Q272.25 348.0594 272.82812 348.325Q273.42188 348.575 274.15625 348.575Q274.79688 348.575 275.29688 348.3875Q275.79688 348.1844 276.03125 347.85626Q276.28125 347.5125 276.28125 347.1219Q276.28125 346.71564 276.04688 346.41876Q275.8125 346.10626 275.28125 345.90314Q274.92188 345.7625 273.73438 345.48126Q272.5625 345.2 272.09375 344.95Q271.46875 344.6219 271.17188 344.15314Q270.875 343.66876 270.875 343.075Q270.875 342.4344 271.23438 341.8719Q271.60938 341.29376 272.3125 341.0125Q273.03125 340.71564 273.89062 340.71564Q274.84375 340.71564 275.57812 341.02814Q276.3125 341.325 276.70312 341.9344Q277.09375 342.52814 277.125 343.27814L276.03125 343.35626Q275.9375 342.54376 275.42188 342.1375Q274.92188 341.71564 273.9375 341.71564Q272.90625 341.71564 272.4375 342.09064Q271.96875 342.46564 271.96875 342.9969Q271.96875 343.46564 272.29688 343.7625Q272.625 344.0594 274.0 344.3719Q275.39062 344.6844 275.90625 344.91876Q276.65625 345.27814 277.01562 345.8094Q277.375 346.325 277.375 347.02814Q277.375 347.71564 276.98438 348.325Q276.59375 348.91876 275.85938 349.2625Q275.125 349.59064 274.20312 349.59064Q273.03125 349.59064 272.23438 349.2625Q271.45312 348.91876 271.0 348.23126Q270.5625 347.54376 270.54688 346.6844ZM278.79688 342.075L278.79688 340.85626L279.85938 340.85626L279.85938 342.075L278.79688 342.075ZM278.79688 349.45L278.79688 343.23126L279.85938 343.23126L279.85938 349.45L278.79688 349.45ZM281.23438 349.45L281.23438 348.59064L285.20312 344.04376Q284.51562 344.075 284.0 344.075L281.46875 344.075L281.46875 343.23126L286.5625 343.23126L286.5625 343.91876L283.1875 347.8719L282.53125 348.59064Q283.25 348.54376 283.85938 348.54376L286.75 348.54376L286.75 349.45L281.23438 349.45ZM291.04688 347.45L292.14062 347.575Q291.89062 348.52814 291.1875 349.0594Q290.48438 349.59064 289.40625 349.59064Q288.04688 349.59064 287.23438 348.7469Q286.4375 347.90314 286.4375 346.3875Q286.4375 344.825 287.25 343.96564Q288.0625 343.09064 289.34375 343.09064Q290.59375 343.09064 291.375 343.9344Q292.17188 344.77814 292.17188 346.325Q292.17188 346.41876 292.17188 346.60626L287.53125 346.60626Q287.59375 347.6375 288.10938 348.1844Q288.625 348.71564 289.40625 348.71564Q289.98438 348.71564 290.39062 348.41876Q290.8125 348.10626 291.04688 347.45ZM287.59375 345.7469L291.0625 345.7469Q291.0 344.95 290.67188 344.5594Q290.15625 343.95 289.35938 343.95Q288.625 343.95 288.125 344.4344Q287.64062 344.91876 287.59375 345.7469ZM298.8125 351.98126Q297.9375 350.8719 297.32812 349.40314Q296.73438 347.91876 296.73438 346.34064Q296.73438 344.95 297.17188 343.66876Q297.70312 342.1844 298.8125 340.71564L299.5625 340.71564Q298.85938 341.9344 298.625 342.45Q298.26562 343.2625 298.0625 344.1375Q297.8125 345.23126 297.8125 346.34064Q297.8125 349.16876 299.5625 351.98126L298.8125 351.98126ZM301.76562 349.45L300.78125 349.45L300.78125 340.85626L301.84375 340.85626L301.84375 343.91876Q302.51562 343.09064 303.54688 343.09064Q304.125 343.09064 304.625 343.325Q305.14062 343.54376 305.46875 343.96564Q305.8125 344.3875 306.0 344.98126Q306.1875 345.575 306.1875 346.2469Q306.1875 347.84064 305.39062 348.71564Q304.59375 349.59064 303.5 349.59064Q302.39062 349.59064 301.76562 348.66876L301.76562 349.45ZM301.75 346.29376Q301.75 347.40314 302.0625 347.90314Q302.5625 348.71564 303.40625 348.71564Q304.09375 348.71564 304.59375 348.1219Q305.10938 347.52814 305.10938 346.325Q305.10938 345.10626 304.625 344.52814Q304.14062 343.95 303.45312 343.95Q302.76562 343.95 302.25 344.5594Q301.75 345.15314 301.75 346.29376ZM307.75 351.84064L307.625 350.85626Q307.96875 350.95 308.23438 350.95Q308.57812 350.95 308.78125 350.825Q309.0 350.71564 309.14062 350.5125Q309.23438 350.34064 309.46875 349.71564Q309.48438 349.6375 309.5625 349.46564L307.1875 343.23126L308.32812 343.23126L309.625 346.825Q309.875 347.5125 310.07812 348.27814Q310.26562 347.54376 310.51562 346.85626L311.84375 343.23126L312.89062 343.23126L310.53125 349.5594Q310.14062 350.575 309.9375 350.96564Q309.65625 351.4969 309.28125 351.73126Q308.92188 351.98126 308.42188 351.98126Q308.125 351.98126 307.75 351.84064ZM315.09375 348.5125L315.25 349.4344Q314.79688 349.52814 314.45312 349.52814Q313.875 349.52814 313.5625 349.35626Q313.25 349.16876 313.10938 348.8719Q312.98438 348.575 312.98438 347.6219L312.98438 344.04376L312.21875 344.04376L312.21875 343.23126L312.98438 343.23126L312.98438 341.6844L314.03125 341.0594L314.03125 343.23126L315.09375 343.23126L315.09375 344.04376L314.03125 344.04376L314.03125 347.6844Q314.03125 348.1375 314.07812 348.2625Q314.14062 348.3875 314.26562 348.46564Q314.39062 348.54376 314.625 348.54376Q314.8125 348.54376 315.09375 348.5125ZM320.04688 347.45L321.14062 347.575Q320.89062 348.52814 320.1875 349.0594Q319.48438 349.59064 318.40625 349.59064Q317.04688 349.59064 316.23438 348.7469Q315.4375 347.90314 315.4375 346.3875Q315.4375 344.825 316.25 343.96564Q317.0625 343.09064 318.34375 343.09064Q319.59375 343.09064 320.375 343.9344Q321.17188 344.77814 321.17188 346.325Q321.17188 346.41876 321.17188 346.60626L316.53125 346.60626Q316.59375 347.6375 317.10938 348.1844Q317.625 348.71564 318.40625 348.71564Q318.98438 348.71564 319.39062 348.41876Q319.8125 348.10626 320.04688 347.45ZM316.59375 345.7469L320.0625 345.7469Q320.0 344.95 319.67188 344.5594Q319.15625 343.95 318.35938 343.95Q317.625 343.95 317.125 344.4344Q316.64062 344.91876 316.59375 345.7469ZM322.375 347.59064L323.40625 347.4344Q323.5 348.0594 323.89062 348.3875Q324.29688 348.71564 325.03125 348.71564Q325.75 348.71564 326.09375 348.4344Q326.45312 348.1375 326.45312 347.73126Q326.45312 347.3719 326.14062 347.16876Q325.92188 347.02814 325.0625 346.8094Q323.90625 346.5125 323.45312 346.3094Q323.01562 346.09064 322.78125 345.71564Q322.54688 345.34064 322.54688 344.8719Q322.54688 344.46564 322.73438 344.10626Q322.92188 343.7469 323.25 343.5125Q323.5 343.34064 323.92188 343.21564Q324.34375 343.09064 324.84375 343.09064Q325.5625 343.09064 326.10938 343.3094Q326.67188 343.5125 326.9375 343.8719Q327.20312 344.23126 327.29688 344.825L326.26562 344.96564Q326.20312 344.4969 325.85938 344.23126Q325.53125 343.95 324.90625 343.95Q324.1875 343.95 323.875 344.2Q323.5625 344.4344 323.5625 344.7625Q323.5625 344.96564 323.6875 345.1219Q323.82812 345.29376 324.09375 345.40314Q324.25 345.46564 325.03125 345.66876Q326.15625 345.98126 326.59375 346.16876Q327.03125 346.35626 327.28125 346.71564Q327.53125 347.075 327.53125 347.6219Q327.53125 348.15314 327.21875 348.6219Q326.92188 349.075 326.34375 349.34064Q325.76562 349.59064 325.03125 349.59064Q323.8125 349.59064 323.17188 349.09064Q322.54688 348.575 322.375 347.59064ZM330.48438 351.98126L329.73438 351.98126Q331.48438 349.16876 331.48438 346.34064Q331.48438 345.2469 331.23438 344.15314Q331.03125 343.27814 330.67188 342.46564Q330.4375 341.95 329.73438 340.71564L330.48438 340.71564Q331.57812 342.1844 332.10938 343.66876Q332.5625 344.95 332.5625 346.34064Q332.5625 347.91876 331.95312 349.40314Q331.34375 350.8719 330.48438 351.98126Z" fill-rule="nonzero"/><path fill="#000000" d="M26.784388 274.3198L26.690638 273.2573Q27.346888 273.17917 27.753138 272.89792Q28.159388 272.61667 28.425013 272.03854Q28.675013 271.4448 28.675013 270.71042Q28.675013 270.0698 28.487513 269.5698Q28.284388 269.0698 27.956263 268.83542Q27.612513 268.58542 27.221888 268.58542Q26.815638 268.58542 26.518763 268.8198Q26.206263 269.05417 26.003138 269.58542Q25.862513 269.9448 25.581263 271.1323Q25.300013 272.30417 25.050013 272.77292Q24.721888 273.39792 24.253138 273.6948Q23.768763 273.99167 23.175013 273.99167Q22.534388 273.99167 21.971888 273.6323Q21.393763 273.2573 21.112513 272.55417Q20.815638 271.83542 20.815638 270.97604Q20.815638 270.02292 21.128138 269.28854Q21.425013 268.55417 22.034388 268.16354Q22.628138 267.77292 23.378138 267.74167L23.456263 268.83542Q22.643763 268.92917 22.237513 269.4448Q21.815638 269.9448 21.815638 270.92917Q21.815638 271.96042 22.190638 272.42917Q22.565638 272.89792 23.096888 272.89792Q23.565638 272.89792 23.862513 272.5698Q24.159388 272.24167 24.471888 270.86667Q24.784388 269.47604 25.018763 268.96042Q25.378138 268.21042 25.909388 267.85104Q26.425013 267.49167 27.128138 267.49167Q27.815638 267.49167 28.425013 267.8823Q29.018763 268.27292 29.362513 269.0073Q29.690638 269.74167 29.690638 270.66354Q29.690638 271.83542 29.362513 272.6323Q29.018763 273.41354 28.331263 273.86667Q27.643763 274.30417 26.784388 274.3198ZM31.940638 266.0698L23.331263 266.0698L23.331263 265.11667L24.128138 265.11667Q23.659388 264.77292 23.425013 264.35104Q23.190638 263.91354 23.190638 263.30417Q23.190638 262.5073 23.596888 261.89792Q24.003138 261.28854 24.753138 260.99167Q25.503138 260.67917 26.393763 260.67917Q27.346888 260.67917 28.112513 261.02292Q28.878138 261.35104 29.284388 262.0073Q29.690638 262.66354 29.690638 263.3823Q29.690638 263.91354 29.471888 264.33542Q29.237513 264.7573 28.909388 265.02292L31.940638 265.02292L31.940638 266.0698ZM26.471888 265.11667Q27.675013 265.11667 28.253138 264.6323Q28.815638 264.14792 28.815638 263.46042Q28.815638 262.7573 28.221888 262.2573Q27.628138 261.7573 26.378138 261.7573Q25.190638 261.7573 24.612513 262.24167Q24.018763 262.72604 24.018763 263.41354Q24.018763 264.08542 24.643763 264.60104Q25.268763 265.11667 26.471888 265.11667ZM27.550013 254.8198L27.675013 253.72604Q28.628138 253.97604 29.159388 254.67917Q29.690638 255.3823 29.690638 256.46042Q29.690638 257.8198 28.846888 258.6323Q28.003138 259.42917 26.487513 259.42917Q24.925013 259.42917 24.065638 258.61667Q23.190638 257.80417 23.190638 256.52292Q23.190638 255.27292 24.034388 254.49167Q24.878138 253.6948 26.425013 253.6948Q26.518763 253.6948 26.706263 253.6948L26.706263 258.33542Q27.737513 258.27292 28.284388 257.7573Q28.815638 257.24167 28.815638 256.46042Q28.815638 255.8823 28.518763 255.47604Q28.206263 255.05417 27.550013 254.8198ZM25.846888 258.27292L25.846888 254.80417Q25.050013 254.86667 24.659388 255.1948Q24.050013 255.71042 24.050013 256.5073Q24.050013 257.24167 24.534388 257.74167Q25.018763 258.22604 25.846888 258.27292ZM27.550013 247.8198L27.675013 246.72604Q28.628138 246.97604 29.159388 247.67917Q29.690638 248.3823 29.690638 249.46042Q29.690638 250.8198 28.846888 251.6323Q28.003138 252.42917 26.487513 252.42917Q24.925013 252.42917 24.065638 251.61667Q23.190638 250.80417 23.190638 249.52292Q23.190638 248.27292 24.034388 247.49167Q24.878138 246.6948 26.425013 246.6948Q26.518763 246.6948 26.706263 246.6948L26.706263 251.33542Q27.737513 251.27292 28.284388 250.7573Q28.815638 250.24167 28.815638 249.46042Q28.815638 248.8823 28.518763 248.47604Q28.206263 248.05417 27.550013 247.8198ZM25.846888 251.27292L25.846888 247.80417Q25.050013 247.86667 24.659388 248.1948Q24.050013 248.71042 24.050013 249.5073Q24.050013 250.24167 24.534388 250.74167Q25.018763 251.22604 25.846888 251.27292ZM29.550013 241.03854L28.768763 241.03854Q29.690638 241.6323 29.690638 242.77292Q29.690638 243.52292 29.284388 244.14792Q28.862513 244.77292 28.128138 245.11667Q27.393763 245.46042 26.440638 245.46042Q25.518763 245.46042 24.753138 245.14792Q23.987513 244.83542 23.596888 244.21042Q23.190638 243.58542 23.190638 242.8198Q23.190638 242.2573 23.425013 241.8198Q23.659388 241.3823 24.034388 241.10104L20.956263 241.10104L20.956263 240.05417L29.550013 240.05417L29.550013 241.03854ZM26.440638 244.36667Q27.643763 244.36667 28.237513 243.86667Q28.815638 243.36667 28.815638 242.67917Q28.815638 241.99167 28.253138 241.5073Q27.690638 241.02292 26.534388 241.02292Q25.253138 241.02292 24.659388 241.52292Q24.065638 242.0073 24.065638 242.72604Q24.065638 243.42917 24.643763 243.89792Q25.206263 244.36667 26.440638 244.36667ZM29.550013 230.99167L28.628138 230.99167Q29.690638 231.72604 29.690638 232.97604Q29.690638 233.52292 29.487513 234.0073Q29.268763 234.47604 28.956263 234.71042Q28.628138 234.9448 28.159388 235.03854Q27.862513 235.10104 27.175013 235.10104L23.331263 235.10104L23.331263 234.03854L26.784388 234.03854Q27.596888 234.03854 27.893763 233.97604Q28.300013 233.8823 28.550013 233.5698Q28.784388 233.24167 28.784388 232.7573Q28.784388 232.28854 28.550013 231.8823Q28.300013 231.46042 27.878138 231.28854Q27.456263 231.10104 26.659388 231.10104L23.331263 231.10104L23.331263 230.05417L29.550013 230.05417L29.550013 230.99167ZM31.940638 228.0698L23.331263 228.0698L23.331263 227.11667L24.128138 227.11667Q23.659388 226.77292 23.425013 226.35104Q23.190638 225.91354 23.190638 225.30417Q23.190638 224.5073 23.596888 223.89792Q24.003138 223.28854 24.753138 222.99167Q25.503138 222.67917 26.393763 222.67917Q27.346888 222.67917 28.112513 223.02292Q28.878138 223.35104 29.284388 224.0073Q29.690638 224.66354 29.690638 225.3823Q29.690638 225.91354 29.471888 226.33542Q29.237513 226.7573 28.909388 227.02292L31.940638 227.02292L31.940638 228.0698ZM26.471888 227.11667Q27.675013 227.11667 28.253138 226.6323Q28.815638 226.14792 28.815638 225.46042Q28.815638 224.7573 28.221888 224.2573Q27.628138 223.7573 26.378138 223.7573Q25.190638 223.7573 24.612513 224.24167Q24.018763 224.72604 24.018763 225.41354Q24.018763 226.08542 24.643763 226.60104Q25.268763 227.11667 26.471888 227.11667ZM26.440638 218.46042Q24.706263 218.46042 23.878138 217.5073Q23.190638 216.71042 23.190638 215.55417Q23.190638 214.27292 24.034388 213.46042Q24.862513 212.6323 26.346888 212.6323Q27.550013 212.6323 28.237513 212.99167Q28.925013 213.35104 29.315638 214.05417Q29.690638 214.74167 29.690638 215.55417Q29.690638 216.85104 28.862513 217.66354Q28.018763 218.46042 26.440638 218.46042ZM26.440638 217.3823Q27.628138 217.3823 28.221888 216.86667Q28.815638 216.33542 28.815638 215.55417Q28.815638 214.7573 28.221888 214.24167Q27.628138 213.72604 26.409388 213.72604Q25.253138 213.72604 24.659388 214.2573Q24.065638 214.77292 24.065638 215.55417Q24.065638 216.33542 24.659388 216.86667Q25.237513 217.3823 26.440638 217.3823ZM29.550013 209.35104L23.331263 211.71042L23.331263 210.60104L27.050013 209.2573Q27.659388 209.05417 28.300013 208.86667Q27.815638 208.72604 27.128138 208.47604L23.331263 207.08542L23.331263 206.0073L29.550013 208.36667L29.550013 209.35104ZM27.550013 201.8198L27.675013 200.72604Q28.628138 200.97604 29.159388 201.67917Q29.690638 202.3823 29.690638 203.46042Q29.690638 204.8198 28.846888 205.6323Q28.003138 206.42917 26.487513 206.42917Q24.925013 206.42917 24.065638 205.61667Q23.190638 204.80417 23.190638 203.52292Q23.190638 202.27292 24.034388 201.49167Q24.878138 200.6948 26.425013 200.6948Q26.518763 200.6948 26.706263 200.6948L26.706263 205.33542Q27.737513 205.27292 28.284388 204.7573Q28.815638 204.24167 28.815638 203.46042Q28.815638 202.8823 28.518763 202.47604Q28.206263 202.05417 27.550013 201.8198ZM25.846888 205.27292L25.846888 201.80417Q25.050013 201.86667 24.659388 202.1948Q24.050013 202.71042 24.050013 203.5073Q24.050013 204.24167 24.534388 204.74167Q25.018763 205.22604 25.846888 205.27292ZM29.550013 199.08542L23.331263 199.08542L23.331263 198.1323L24.268763 198.1323Q23.612513 197.77292 23.409388 197.47604Q23.190638 197.16354 23.190638 196.78854Q23.190638 196.2573 23.518763 195.71042L24.503138 196.0698Q24.268763 196.46042 24.268763 196.83542Q24.268763 197.1948 24.487513 197.47604Q24.690638 197.74167 25.065638 197.85104Q25.628138 198.03854 26.284388 198.03854L29.550013 198.03854L29.550013 199.08542ZM29.550013 191.10104L29.550013 192.08542L20.956263 192.08542L20.956263 191.02292L24.018763 191.02292Q23.190638 190.35104 23.190638 189.3198Q23.190638 188.74167 23.425013 188.24167Q23.643763 187.72604 24.065638 187.39792Q24.487513 187.05417 25.081263 186.86667Q25.675013 186.67917 26.346888 186.67917Q27.940638 186.67917 28.815638 187.47604Q29.690638 188.27292 29.690638 189.36667Q29.690638 190.47604 28.768763 191.10104L29.550013 191.10104ZM26.393763 191.11667Q27.503138 191.11667 28.003138 190.80417Q28.815638 190.30417 28.815638 189.46042Q28.815638 188.77292 28.221888 188.27292Q27.628138 187.7573 26.425013 187.7573Q25.206263 187.7573 24.628138 188.24167Q24.050013 188.72604 24.050013 189.41354Q24.050013 190.10104 24.659388 190.61667Q25.253138 191.11667 26.393763 191.11667ZM28.784388 181.0073Q29.284388 181.60104 29.487513 182.14792Q29.690638 182.67917 29.690638 183.30417Q29.690638 184.33542 29.190638 184.8823Q28.690638 185.42917 27.909388 185.42917Q27.456263 185.42917 27.081263 185.22604Q26.690638 185.02292 26.471888 184.67917Q26.237513 184.33542 26.128138 183.91354Q26.034388 183.61667 25.956263 182.97604Q25.815638 181.71042 25.596888 181.10104Q25.378138 181.10104 25.331263 181.10104Q24.675013 181.10104 24.409388 181.39792Q24.065638 181.80417 24.065638 182.60104Q24.065638 183.33542 24.331263 183.6948Q24.581263 184.05417 25.237513 184.22604L25.096888 185.2573Q24.440638 185.11667 24.034388 184.78854Q23.628138 184.46042 23.409388 183.85104Q23.190638 183.24167 23.190638 182.4448Q23.190638 181.64792 23.378138 181.14792Q23.565638 180.64792 23.846888 180.41354Q24.128138 180.17917 24.565638 180.08542Q24.831263 180.03854 25.534388 180.03854L26.940638 180.03854Q28.409388 180.03854 28.800013 179.97604Q29.190638 179.89792 29.550013 179.6948L29.550013 180.80417Q29.221888 180.96042 28.784388 181.0073ZM26.425013 181.10104Q26.659388 181.67917 26.831263 182.8198Q26.925013 183.47604 27.050013 183.74167Q27.159388 184.0073 27.378138 184.16354Q27.596888 184.30417 27.878138 184.30417Q28.300013 184.30417 28.581263 183.99167Q28.862513 183.66354 28.862513 183.05417Q28.862513 182.4448 28.596888 181.97604Q28.331263 181.49167 27.862513 181.27292Q27.503138 181.10104 26.815638 181.10104L26.425013 181.10104ZM27.690638 178.49167L27.534388 177.46042Q28.159388 177.36667 28.487513 176.97604Q28.815638 176.5698 28.815638 175.83542Q28.815638 175.11667 28.534388 174.77292Q28.237513 174.41354 27.831263 174.41354Q27.471888 174.41354 27.268763 174.72604Q27.128138 174.9448 26.909388 175.80417Q26.612513 176.96042 26.409388 177.41354Q26.190638 177.85104 25.815638 178.08542Q25.440638 178.3198 24.971888 178.3198Q24.565638 178.3198 24.206263 178.1323Q23.846888 177.9448 23.612513 177.61667Q23.440638 177.36667 23.315638 176.9448Q23.190638 176.52292 23.190638 176.02292Q23.190638 175.30417 23.409388 174.7573Q23.612513 174.1948 23.971888 173.92917Q24.331263 173.66354 24.925013 173.5698L25.065638 174.60104Q24.596888 174.66354 24.331263 175.0073Q24.050013 175.33542 24.050013 175.96042Q24.050013 176.67917 24.300013 176.99167Q24.534388 177.30417 24.862513 177.30417Q25.065638 177.30417 25.221888 177.17917Q25.393763 177.03854 25.503138 176.77292Q25.565638 176.61667 25.768763 175.83542Q26.081263 174.71042 26.268763 174.27292Q26.456263 173.83542 26.815638 173.58542Q27.175013 173.33542 27.721888 173.33542Q28.253138 173.33542 28.721888 173.64792Q29.175013 173.9448 29.440638 174.52292Q29.690638 175.10104 29.690638 175.83542Q29.690638 177.05417 29.190638 177.6948Q28.675013 178.3198 27.690638 178.49167ZM27.550013 166.8198L27.675013 165.72604Q28.628138 165.97604 29.159388 166.67917Q29.690638 167.3823 29.690638 168.46042Q29.690638 169.8198 28.846888 170.6323Q28.003138 171.42917 26.487513 171.42917Q24.925013 171.42917 24.065638 170.61667Q23.190638 169.80417 23.190638 168.52292Q23.190638 167.27292 24.034388 166.49167Q24.878138 165.6948 26.425013 165.6948Q26.518763 165.6948 26.706263 165.6948L26.706263 170.33542Q27.737513 170.27292 28.284388 169.7573Q28.815638 169.24167 28.815638 168.46042Q28.815638 167.8823 28.518763 167.47604Q28.206263 167.05417 27.550013 166.8198ZM25.846888 170.27292L25.846888 166.80417Q25.050013 166.86667 24.659388 167.1948Q24.050013 167.71042 24.050013 168.5073Q24.050013 169.24167 24.534388 169.74167Q25.018763 170.22604 25.846888 170.27292ZM29.550013 164.10104L20.956263 164.10104L20.956263 163.03854L29.550013 163.03854L29.550013 164.10104ZM22.175013 161.0698L20.956263 161.0698L20.956263 160.0073L22.175013 160.0073L22.175013 161.0698ZM29.550013 161.0698L23.331263 161.0698L23.331263 160.0073L29.550013 160.0073L29.550013 161.0698ZM29.550013 158.0698L23.331263 158.0698L23.331263 157.1323L24.206263 157.1323Q23.190638 156.4448 23.190638 155.14792Q23.190638 154.58542 23.393763 154.11667Q23.596888 153.6323 23.925013 153.39792Q24.253138 153.16354 24.690638 153.0698Q24.987513 153.02292 25.721888 153.02292L29.550013 153.02292L29.550013 154.0698L25.768763 154.0698Q25.112513 154.0698 24.800013 154.1948Q24.487513 154.3198 24.300013 154.6323Q24.096888 154.9448 24.096888 155.36667Q24.096888 156.03854 24.534388 156.53854Q24.956263 157.02292 26.143763 157.02292L29.550013 157.02292L29.550013 158.0698ZM27.550013 146.8198L27.675013 145.72604Q28.628138 145.97604 29.159388 146.67917Q29.690638 147.3823 29.690638 148.46042Q29.690638 149.8198 28.846888 150.6323Q28.003138 151.42917 26.487513 151.42917Q24.925013 151.42917 24.065638 150.61667Q23.190638 149.80417 23.190638 148.52292Q23.190638 147.27292 24.034388 146.49167Q24.878138 145.6948 26.425013 145.6948Q26.518763 145.6948 26.706263 145.6948L26.706263 150.33542Q27.737513 150.27292 28.284388 149.7573Q28.815638 149.24167 28.815638 148.46042Q28.815638 147.8823 28.518763 147.47604Q28.206263 147.05417 27.550013 146.8198ZM25.846888 150.27292L25.846888 146.80417Q25.050013 146.86667 24.659388 147.1948Q24.050013 147.71042 24.050013 148.5073Q24.050013 149.24167 24.534388 149.74167Q25.018763 150.22604 25.846888 150.27292Z" fill-rule="nonzero"/><path fill="#000000" d="M65.05 300.21564Q65.05 298.6844 65.3625 297.7625Q65.675 296.825 66.28438 296.325Q66.90938 295.825 67.84688 295.825Q68.53438 295.825 69.05 296.10626Q69.58125 296.3875 69.925 296.91876Q70.26875 297.4344 70.45625 298.1844Q70.64375 298.9344 70.64375 300.21564Q70.64375 301.73126 70.33125 302.65314Q70.03438 303.575 69.40938 304.09064Q68.8 304.59064 67.84688 304.59064Q66.6125 304.59064 65.89375 303.7Q65.05 302.6375 65.05 300.21564ZM66.12813 300.21564Q66.12813 302.325 66.62813 303.02814Q67.12813 303.73126 67.84688 303.73126Q68.58125 303.73126 69.06563 303.02814Q69.56563 302.325 69.56563 300.21564Q69.56563 298.09064 69.06563 297.40314Q68.58125 296.7 67.83125 296.7Q67.1125 296.7 66.675 297.3094Q66.12813 298.09064 66.12813 300.21564Z" fill-rule="nonzero"/><path fill="#000000" d="M65.05 263.36667L66.15938 263.27292Q66.28438 264.08542 66.72188 264.49167Q67.175 264.89792 67.81563 264.89792Q68.56563 264.89792 69.09688 264.3198Q69.62813 263.74167 69.62813 262.80417Q69.62813 261.89792 69.1125 261.3823Q68.6125 260.85104 67.78438 260.85104Q67.28438 260.85104 66.8625 261.08542Q66.45625 261.3198 66.22188 261.67917L65.2375 261.55417L66.06563 257.14792L70.34688 257.14792L70.34688 258.14792L66.90938 258.14792L66.45625 260.46042Q67.22188 259.91354 68.06563 259.91354Q69.19063 259.91354 69.95625 260.6948Q70.7375 261.47604 70.7375 262.71042Q70.7375 263.86667 70.06563 264.72604Q69.2375 265.7573 67.81563 265.7573Q66.64375 265.7573 65.89375 265.10104Q65.15938 264.4448 65.05 263.36667Z" fill-rule="nonzero"/><path fill="#000000" d="M62.01875 226.78334L60.971874 226.78334L60.971874 220.06459Q60.58125 220.42397 59.95625 220.79897Q59.346874 221.15834 58.8625 221.33022L58.8625 220.31459Q59.7375 219.89272 60.39375 219.31459Q61.065624 218.72084 61.346874 218.15834L62.01875 218.15834L62.01875 226.78334ZM65.05 222.54897Q65.05 221.01772 65.3625 220.09584Q65.675 219.15834 66.28438 218.65834Q66.90938 218.15834 67.84688 218.15834Q68.53438 218.15834 69.05 218.43959Q69.58125 218.72084 69.925 219.25209Q70.26875 219.76772 70.45625 220.51772Q70.64375 221.26772 70.64375 222.54897Q70.64375 224.06459 70.33125 224.98647Q70.03438 225.90834 69.40938 226.42397Q68.8 226.92397 67.84688 226.92397Q66.6125 226.92397 65.89375 226.03334Q65.05 224.97084 65.05 222.54897ZM66.12813 222.54897Q66.12813 224.65834 66.62813 225.36147Q67.12813 226.06459 67.84688 226.06459Q68.58125 226.06459 69.06563 225.36147Q69.56563 224.65834 69.56563 222.54897Q69.56563 220.42397 69.06563 219.73647Q68.58125 219.03334 67.83125 219.03334Q67.1125 219.03334 66.675 219.64272Q66.12813 220.42397 66.12813 222.54897Z" fill-rule="nonzero"/><path fill="#000000" d="M62.01875 187.95L60.971874 187.95L60.971874 181.23125Q60.58125 181.59062 59.95625 181.96562Q59.346874 182.325 58.8625 182.49687L58.8625 181.48125Q59.7375 181.05937 60.39375 180.48125Q61.065624 179.8875 61.346874 179.325L62.01875 179.325L62.01875 187.95ZM65.05 185.7L66.15938 185.60625Q66.28438 186.41875 66.72188 186.825Q67.175 187.23125 67.81563 187.23125Q68.56563 187.23125 69.09688 186.65312Q69.62813 186.075 69.62813 185.1375Q69.62813 184.23125 69.1125 183.71562Q68.6125 183.18437 67.78438 183.18437Q67.28438 183.18437 66.8625 183.41875Q66.45625 183.65312 66.22188 184.0125L65.2375 183.8875L66.06563 179.48125L70.34688 179.48125L70.34688 180.48125L66.90938 180.48125L66.45625 182.79375Q67.22188 182.24687 68.06563 182.24687Q69.19063 182.24687 69.95625 183.02812Q70.7375 183.80937 70.7375 185.04375Q70.7375 186.2 70.06563 187.05937Q69.2375 188.09062 67.81563 188.09062Q66.64375 188.09062 65.89375 187.43437Q65.15938 186.77812 65.05 185.7Z" fill-rule="nonzero"/><path fill="#000000" d="M63.596874 148.10104L63.596874 149.11667L57.909374 149.11667Q57.909374 148.74167 58.034374 148.3823Q58.253124 147.80417 58.721874 147.24167Q59.20625 146.67917 60.1125 145.9448Q61.51875 144.78854 62.003124 144.11667Q62.503124 143.4448 62.503124 142.85104Q62.503124 142.22604 62.05 141.80417Q61.596874 141.36667 60.878124 141.36667Q60.1125 141.36667 59.659374 141.8198Q59.20625 142.27292 59.190624 143.08542L58.1125 142.97604Q58.221874 141.7573 58.940624 141.1323Q59.675 140.49167 60.909374 140.49167Q62.14375 140.49167 62.8625 141.17917Q63.58125 141.86667 63.58125 142.8823Q63.58125 143.39792 63.3625 143.89792Q63.159374 144.3823 62.659374 144.9448Q62.175 145.49167 61.05 146.4448Q60.096874 147.24167 59.815624 147.53854Q59.55 147.8198 59.378124 148.10104L63.596874 148.10104ZM65.05 144.8823Q65.05 143.35104 65.3625 142.42917Q65.675 141.49167 66.28438 140.99167Q66.90938 140.49167 67.84688 140.49167Q68.53438 140.49167 69.05 140.77292Q69.58125 141.05417 69.925 141.58542Q70.26875 142.10104 70.45625 142.85104Q70.64375 143.60104 70.64375 144.8823Q70.64375 146.39792 70.33125 147.3198Q70.03438 148.24167 69.40938 148.7573Q68.8 149.2573 67.84688 149.2573Q66.6125 149.2573 65.89375 148.36667Q65.05 147.30417 65.05 144.8823ZM66.12813 144.8823Q66.12813 146.99167 66.62813 147.6948Q67.12813 148.39792 67.84688 148.39792Q68.58125 148.39792 69.06563 147.6948Q69.56563 146.99167 69.56563 144.8823Q69.56563 142.7573 69.06563 142.0698Q68.58125 141.36667 67.83125 141.36667Q67.1125 141.36667 66.675 141.97604Q66.12813 142.7573 66.12813 144.8823Z" fill-rule="nonzero"/><path fill="#000000" d="M63.596874 109.26771L63.596874 110.28333L57.909374 110.28333Q57.909374 109.90833 58.034374 109.54896Q58.253124 108.97083 58.721874 108.40833Q59.20625 107.84583 60.1125 107.11146Q61.51875 105.95521 62.003124 105.28333Q62.503124 104.61146 62.503124 104.01771Q62.503124 103.39271 62.05 102.97083Q61.596874 102.53333 60.878124 102.53333Q60.1125 102.53333 59.659374 102.98646Q59.20625 103.43958 59.190624 104.25208L58.1125 104.14271Q58.221874 102.92396 58.940624 102.29896Q59.675 101.65833 60.909374 101.65833Q62.14375 101.65833 62.8625 102.34583Q63.58125 103.03333 63.58125 104.04896Q63.58125 104.56458 63.3625 105.06458Q63.159374 105.54896 62.659374 106.11146Q62.175 106.65833 61.05 107.61146Q60.096874 108.40833 59.815624 108.70521Q59.55 108.98646 59.378124 109.26771L63.596874 109.26771ZM65.05 108.03333L66.15938 107.93958Q66.28438 108.75208 66.72188 109.15833Q67.175 109.56458 67.81563 109.56458Q68.56563 109.56458 69.09688 108.98646Q69.62813 108.40833 69.62813 107.47083Q69.62813 106.56458 69.1125 106.04896Q68.6125 105.51771 67.78438 105.51771Q67.28438 105.51771 66.8625 105.75208Q66.45625 105.98646 66.22188 106.34583L65.2375 106.22083L66.06563 101.81458L70.34688 101.81458L70.34688 102.81458L66.90938 102.81458L66.45625 105.12708Q67.22188 104.58021 68.06563 104.58021Q69.19063 104.58021 69.95625 105.36146Q70.7375 106.14271 70.7375 107.37708Q70.7375 108.53333 70.06563 109.39271Q69.2375 110.42396 67.81563 110.42396Q66.64375 110.42396 65.89375 109.76771Q65.15938 109.11146 65.05 108.03333Z" fill-rule="nonzero"/><path fill="#000000" d="M78.51875 317.45L77.47188 317.45L77.47188 310.73126Q77.08125 311.09064 76.45625 311.46564Q75.84688 311.825 75.3625 311.9969L75.3625 310.98126Q76.2375 310.5594 76.89375 309.98126Q77.56563 309.3875 77.84688 308.825L78.51875 308.825L78.51875 317.45Z" fill-rule="nonzero"/><path fill="#000000" d="M210.28162 317.45L209.23474 317.45L209.23474 310.73126Q208.84412 311.09064 208.21912 311.46564Q207.60974 311.825 207.12537 311.9969L207.12537 310.98126Q208.00037 310.5594 208.65662 309.98126Q209.32849 309.3875 209.60974 308.825L210.28162 308.825L210.28162 317.45ZM213.31287 313.21564Q213.31287 311.6844 213.62537 310.7625Q213.93787 309.825 214.54724 309.325Q215.17224 308.825 216.10974 308.825Q216.79724 308.825 217.31287 309.10626Q217.84412 309.3875 218.18787 309.91876Q218.53162 310.4344 218.71912 311.1844Q218.90662 311.9344 218.90662 313.21564Q218.90662 314.73126 218.59412 315.65314Q218.29724 316.575 217.67224 317.09064Q217.06287 317.59064 216.10974 317.59064Q214.87537 317.59064 214.15662 316.7Q213.31287 315.6375 213.31287 313.21564ZM214.39099 313.21564Q214.39099 315.325 214.89099 316.02814Q215.39099 316.73126 216.10974 316.73126Q216.84412 316.73126 217.32849 316.02814Q217.82849 315.325 217.82849 313.21564Q217.82849 311.09064 217.32849 310.40314Q216.84412 309.7 216.09412 309.7Q215.37537 309.7 214.93787 310.3094Q214.39099 311.09064 214.39099 313.21564Z" fill-rule="nonzero"/><path fill="#000000" d="M342.0445 317.45L340.99762 317.45L340.99762 310.73126Q340.607 311.09064 339.982 311.46564Q339.37262 311.825 338.88824 311.9969L338.88824 310.98126Q339.76324 310.5594 340.4195 309.98126Q341.09137 309.3875 341.37262 308.825L342.0445 308.825L342.0445 317.45ZM345.07574 313.21564Q345.07574 311.6844 345.38824 310.7625Q345.70074 309.825 346.31012 309.325Q346.93512 308.825 347.87262 308.825Q348.56012 308.825 349.07574 309.10626Q349.607 309.3875 349.95074 309.91876Q350.2945 310.4344 350.482 311.1844Q350.6695 311.9344 350.6695 313.21564Q350.6695 314.73126 350.357 315.65314Q350.06012 316.575 349.43512 317.09064Q348.82574 317.59064 347.87262 317.59064Q346.63824 317.59064 345.9195 316.7Q345.07574 315.6375 345.07574 313.21564ZM346.15387 313.21564Q346.15387 315.325 346.65387 316.02814Q347.15387 316.73126 347.87262 316.73126Q348.607 316.73126 349.09137 316.02814Q349.59137 315.325 349.59137 313.21564Q349.59137 311.09064 349.09137 310.40314Q348.607 309.7 347.857 309.7Q347.13824 309.7 346.70074 310.3094Q346.15387 311.09064 346.15387 313.21564ZM352.07574 313.21564Q352.07574 311.6844 352.38824 310.7625Q352.70074 309.825 353.31012 309.325Q353.93512 308.825 354.87262 308.825Q355.56012 308.825 356.07574 309.10626Q356.607 309.3875 356.95074 309.91876Q357.2945 310.4344 357.482 311.1844Q357.6695 311.9344 357.6695 313.21564Q357.6695 314.73126 357.357 315.65314Q357.06012 316.575 356.43512 317.09064Q355.82574 317.59064 354.87262 317.59064Q353.63824 317.59064 352.9195 316.7Q352.07574 315.6375 352.07574 313.21564ZM353.15387 313.21564Q353.15387 315.325 353.65387 316.02814Q354.15387 316.73126 354.87262 316.73126Q355.607 316.73126 356.09137 316.02814Q356.59137 315.325 356.59137 313.21564Q356.59137 311.09064 356.09137 310.40314Q355.607 309.7 354.857 309.7Q354.13824 309.7 353.70074 310.3094Q353.15387 311.09064 353.15387 313.21564Z" fill-rule="nonzero"/><path fill="#000000" d="M473.80737 317.45L472.7605 317.45L472.7605 310.73126Q472.36987 311.09064 471.74487 311.46564Q471.1355 311.825 470.65112 311.9969L470.65112 310.98126Q471.52612 310.5594 472.18237 309.98126Q472.85425 309.3875 473.1355 308.825L473.80737 308.825L473.80737 317.45ZM476.83862 313.21564Q476.83862 311.6844 477.15112 310.7625Q477.46362 309.825 478.073 309.325Q478.698 308.825 479.6355 308.825Q480.323 308.825 480.83862 309.10626Q481.36987 309.3875 481.71362 309.91876Q482.05737 310.4344 482.24487 311.1844Q482.43237 311.9344 482.43237 313.21564Q482.43237 314.73126 482.11987 315.65314Q481.823 316.575 481.198 317.09064Q480.58862 317.59064 479.6355 317.59064Q478.40112 317.59064 477.68237 316.7Q476.83862 315.6375 476.83862 313.21564ZM477.91675 313.21564Q477.91675 315.325 478.41675 316.02814Q478.91675 316.73126 479.6355 316.73126Q480.36987 316.73126 480.85425 316.02814Q481.35425 315.325 481.35425 313.21564Q481.35425 311.09064 480.85425 310.40314Q480.36987 309.7 479.61987 309.7Q478.90112 309.7 478.46362 310.3094Q477.91675 311.09064 477.91675 313.21564ZM483.83862 313.21564Q483.83862 311.6844 484.15112 310.7625Q484.46362 309.825 485.073 309.325Q485.698 308.825 486.6355 308.825Q487.323 308.825 487.83862 309.10626Q488.36987 309.3875 488.71362 309.91876Q489.05737 310.4344 489.24487 311.1844Q489.43237 311.9344 489.43237 313.21564Q489.43237 314.73126 489.11987 315.65314Q488.823 316.575 488.198 317.09064Q487.58862 317.59064 486.6355 317.59064Q485.40112 317.59064 484.68237 316.7Q483.83862 315.6375 483.83862 313.21564ZM484.91675 313.21564Q484.91675 315.325 485.41675 316.02814Q485.91675 316.73126 486.6355 316.73126Q487.36987 316.73126 487.85425 316.02814Q488.35425 315.325 488.35425 313.21564Q488.35425 311.09064 487.85425 310.40314Q487.36987 309.7 486.61987 309.7Q485.90112 309.7 485.46362 310.3094Q484.91675 311.09064 484.91675 313.21564ZM490.83862 313.21564Q490.83862 311.6844 491.15112 310.7625Q491.46362 309.825 492.073 309.325Q492.698 308.825 493.6355 308.825Q494.323 308.825 494.83862 309.10626Q495.36987 309.3875 495.71362 309.91876Q496.05737 310.4344 496.24487 311.1844Q496.43237 311.9344 496.43237 313.21564Q496.43237 314.73126 496.11987 315.65314Q495.823 316.575 495.198 317.09064Q494.58862 317.59064 493.6355 317.59064Q492.40112 317.59064 491.68237 316.7Q490.83862 315.6375 490.83862 313.21564ZM491.91675 313.21564Q491.91675 315.325 492.41675 316.02814Q492.91675 316.73126 493.6355 316.73126Q494.36987 316.73126 494.85425 316.02814Q495.35425 315.325 495.35425 313.21564Q495.35425 311.09064 494.85425 310.40314Q494.36987 309.7 493.61987 309.7Q492.90112 309.7 492.46362 310.3094Q491.91675 311.09064 491.91675 313.21564Z" fill-rule="nonzero"/><path stroke="#4285f4" stroke-width="4.0" stroke-linecap="butt" d="M105.5 61.916668L117.5 61.916668" fill-rule="nonzero"/><path fill="#1a1a1a" d="M126.390625 65.916664L126.390625 57.322914L128.10938 57.322914L130.14062 63.40104Q130.42188 64.260414 130.54688 64.68229Q130.6875 64.21354 131.0 63.30729L133.0625 57.322914L134.59375 57.322914L134.59375 65.916664L133.5 65.916664L133.5 58.729164L131.0 65.916664L129.96875 65.916664L127.484375 58.604164L127.484375 65.916664L126.390625 65.916664ZM139.35938 65.15104Q138.76562 65.65104 138.21875 65.854164Q137.6875 66.05729 137.0625 66.05729Q136.03125 66.05729 135.48438 65.55729Q134.9375 65.05729 134.9375 64.27604Q134.9375 63.822914 135.14062 63.447914Q135.34375 63.05729 135.6875 62.83854Q136.03125 62.604164 136.45312 62.49479Q136.75 62.40104 137.39062 62.322914Q138.65625 62.18229 139.26562 61.96354Q139.26562 61.74479 139.26562 61.697914Q139.26562 61.041664 138.96875 60.77604Q138.5625 60.43229 137.76562 60.43229Q137.03125 60.43229 136.67188 60.697914Q136.3125 60.947914 136.14062 61.604164L135.10938 61.46354Q135.25 60.80729 135.57812 60.40104Q135.90625 59.99479 136.51562 59.77604Q137.125 59.55729 137.92188 59.55729Q138.71875 59.55729 139.21875 59.74479Q139.71875 59.93229 139.95312 60.21354Q140.1875 60.49479 140.28125 60.93229Q140.32812 61.197914 140.32812 61.90104L140.32812 63.30729Q140.32812 64.77604 140.39062 65.166664Q140.46875 65.55729 140.67188 65.916664L139.5625 65.916664Q139.40625 65.58854 139.35938 65.15104ZM139.26562 62.791664Q138.6875 63.02604 137.54688 63.197914Q136.89062 63.291664 136.625 63.416664Q136.35938 63.52604 136.20312 63.74479Q136.0625 63.96354 136.0625 64.24479Q136.0625 64.666664 136.375 64.947914Q136.70312 65.229164 137.3125 65.229164Q137.92188 65.229164 138.39062 64.96354Q138.875 64.697914 139.09375 64.229164Q139.26562 63.86979 139.26562 63.18229L139.26562 62.791664ZM141.59375 65.916664L143.85938 62.68229L141.76562 59.697914L143.07812 59.697914L144.03125 61.15104Q144.29688 61.572914 144.46875 61.854164Q144.71875 61.46354 144.9375 61.166664L145.98438 59.697914L147.25 59.697914L145.09375 62.61979L147.40625 65.916664L146.125 65.916664L144.84375 63.979164L144.5 63.46354L142.85938 65.916664L141.59375 65.916664ZM152.875 65.916664L149.54688 57.322914L150.78125 57.322914L153.01562 63.572914Q153.28125 64.322914 153.46875 64.979164Q153.67188 64.27604 153.9375 63.572914L156.25 57.322914L157.40625 57.322914L154.04688 65.916664L152.875 65.916664ZM157.375 65.916664L157.375 57.322914L158.51562 57.322914L158.51562 64.90104L162.75 64.90104L162.75 65.916664L157.375 65.916664ZM164.45312 65.916664L164.45312 57.322914L170.65625 57.322914L170.65625 58.33854L165.59375 58.33854L165.59375 60.96354L170.34375 60.96354L170.34375 61.979164L165.59375 61.979164L165.59375 64.90104L170.85938 64.90104L170.85938 65.916664L164.45312 65.916664ZM172.42188 65.916664L172.42188 57.322914L173.57812 57.322914L178.09375 64.072914L178.09375 57.322914L179.1875 57.322914L179.1875 65.916664L178.01562 65.916664L173.5 59.166664L173.5 65.916664L172.42188 65.916664ZM186.84375 60.86979L181.17188 60.86979L181.17188 59.885414L186.84375 59.885414L186.84375 60.86979ZM186.84375 63.479164L181.17188 63.479164L181.17188 62.49479L186.84375 62.49479L186.84375 63.479164ZM191.96875 65.916664L190.92188 65.916664L190.92188 59.197914Q190.53125 59.55729 189.90625 59.93229Q189.29688 60.291664 188.8125 60.46354L188.8125 59.447914Q189.6875 59.02604 190.34375 58.447914Q191.01562 57.854164 191.29688 57.291664L191.96875 57.291664L191.96875 65.916664ZM200.54688 64.90104L200.54688 65.916664L194.85938 65.916664Q194.85938 65.541664 194.98438 65.18229Q195.20312 64.604164 195.67188 64.041664Q196.15625 63.479164 197.0625 62.74479Q198.46875 61.58854 198.95312 60.916664Q199.45312 60.24479 199.45312 59.65104Q199.45312 59.02604 199.0 58.604164Q198.54688 58.166664 197.82812 58.166664Q197.0625 58.166664 196.60938 58.61979Q196.15625 59.072914 196.14062 59.885414L195.0625 59.77604Q195.17188 58.55729 195.89062 57.93229Q196.625 57.291664 197.85938 57.291664Q199.09375 57.291664 199.8125 57.979164Q200.53125 58.666664 200.53125 59.68229Q200.53125 60.197914 200.3125 60.697914Q200.10938 61.18229 199.60938 61.74479Q199.125 62.291664 198.0 63.24479Q197.04688 64.041664 196.76562 64.33854Q196.5 64.61979 196.32812 64.90104L200.54688 64.90104ZM203.625 61.260414Q202.96875 61.010414 202.64062 60.572914Q202.32812 60.11979 202.32812 59.510414Q202.32812 58.572914 203.0 57.93229Q203.6875 57.291664 204.79688 57.291664Q205.92188 57.291664 206.60938 57.947914Q207.29688 58.604164 207.29688 59.541664Q207.29688 60.135414 206.98438 60.572914Q206.67188 61.010414 206.03125 61.260414Q206.82812 61.510414 207.23438 62.08854Q207.64062 62.666664 207.64062 63.46354Q207.64062 64.55729 206.85938 65.30729Q206.09375 66.05729 204.8125 66.05729Q203.54688 66.05729 202.76562 65.30729Q201.98438 64.55729 201.98438 63.43229Q201.98438 62.58854 202.40625 62.02604Q202.84375 61.46354 203.625 61.260414ZM203.40625 59.46354Q203.40625 60.072914 203.79688 60.46354Q204.20312 60.854164 204.82812 60.854164Q205.4375 60.854164 205.82812 60.479164Q206.21875 60.08854 206.21875 59.52604Q206.21875 58.947914 205.8125 58.55729Q205.40625 58.15104 204.8125 58.15104Q204.20312 58.15104 203.79688 58.541664Q203.40625 58.93229 203.40625 59.46354ZM203.07812 63.43229Q203.07812 63.885414 203.28125 64.30729Q203.5 64.729164 203.92188 64.96354Q204.34375 65.197914 204.82812 65.197914Q205.57812 65.197914 206.0625 64.71354Q206.5625 64.229164 206.5625 63.479164Q206.5625 62.71354 206.0625 62.21354Q205.5625 61.71354 204.79688 61.71354Q204.04688 61.71354 203.5625 62.21354Q203.07812 62.697914 203.07812 63.43229ZM209.5625 65.916664L209.5625 64.71354L210.76562 64.71354L210.76562 65.916664Q210.76562 66.572914 210.53125 66.979164Q210.29688 67.40104 209.79688 67.61979L209.5 67.166664Q209.82812 67.02604 209.98438 66.729164Q210.14062 66.447914 210.17188 65.916664L209.5625 65.916664ZM215.375 65.916664L215.375 57.322914L216.51562 57.322914L216.51562 64.90104L220.75 64.90104L220.75 65.916664L215.375 65.916664ZM222.39062 65.916664L222.39062 57.322914L224.10938 57.322914L226.14062 63.40104Q226.42188 64.260414 226.54688 64.68229Q226.6875 64.21354 227.0 63.30729L229.0625 57.322914L230.59375 57.322914L230.59375 65.916664L229.5 65.916664L229.5 58.729164L227.0 65.916664L225.96875 65.916664L223.48438 58.604164L223.48438 65.916664L222.39062 65.916664ZM237.0625 57.322914L238.20312 57.322914L238.20312 62.291664Q238.20312 63.58854 237.90625 64.354164Q237.60938 65.104164 236.84375 65.58854Q236.07812 66.05729 234.84375 66.05729Q233.64062 66.05729 232.85938 65.65104Q232.09375 65.229164 231.76562 64.447914Q231.4375 63.65104 231.4375 62.291664L231.4375 57.322914L232.57812 57.322914L232.57812 62.27604Q232.57812 63.40104 232.78125 63.93229Q233.0 64.46354 233.5 64.760414Q234.01562 65.041664 234.75 65.041664Q236.0 65.041664 236.53125 64.479164Q237.0625 63.90104 237.0625 62.27604L237.0625 57.322914ZM240.375 65.916664L240.375 57.322914L241.51562 57.322914L241.51562 64.90104L245.75 64.90104L245.75 65.916664L240.375 65.916664ZM252.84375 60.86979L247.17188 60.86979L247.17188 59.885414L252.84375 59.885414L252.84375 60.86979ZM252.84375 63.479164L247.17188 63.479164L247.17188 62.49479L252.84375 62.49479L252.84375 63.479164ZM257.96875 65.916664L256.92188 65.916664L256.92188 59.197914Q256.53125 59.55729 255.90625 59.93229Q255.29688 60.291664 254.8125 60.46354L254.8125 59.447914Q255.6875 59.02604 256.34375 58.447914Q257.01562 57.854164 257.29688 57.291664L257.96875 57.291664L257.96875 65.916664Z" fill-rule="nonzero"/><path stroke="#ea4335" stroke-width="4.0" stroke-linecap="butt" d="M276.5 61.916668L288.5 61.916668" fill-rule="nonzero"/><path fill="#1a1a1a" d="M297.39062 65.916664L297.39062 57.322914L299.10938 57.322914L301.14062 63.40104Q301.42188 64.260414 301.54688 64.68229Q301.6875 64.21354 302.0 63.30729L304.0625 57.322914L305.59375 57.322914L305.59375 65.916664L304.5 65.916664L304.5 58.729164L302.0 65.916664L300.96875 65.916664L298.48438 58.604164L298.48438 65.916664L297.39062 65.916664ZM310.35938 65.15104Q309.76562 65.65104 309.21875 65.854164Q308.6875 66.05729 308.0625 66.05729Q307.03125 66.05729 306.48438 65.55729Q305.9375 65.05729 305.9375 64.27604Q305.9375 63.822914 306.14062 63.447914Q306.34375 63.05729 306.6875 62.83854Q307.03125 62.604164 307.45312 62.49479Q307.75 62.40104 308.39062 62.322914Q309.65625 62.18229 310.26562 61.96354Q310.26562 61.74479 310.26562 61.697914Q310.26562 61.041664 309.96875 60.77604Q309.5625 60.43229 308.76562 60.43229Q308.03125 60.43229 307.67188 60.697914Q307.3125 60.947914 307.14062 61.604164L306.10938 61.46354Q306.25 60.80729 306.57812 60.40104Q306.90625 59.99479 307.51562 59.77604Q308.125 59.55729 308.92188 59.55729Q309.71875 59.55729 310.21875 59.74479Q310.71875 59.93229 310.95312 60.21354Q311.1875 60.49479 311.28125 60.93229Q311.32812 61.197914 311.32812 61.90104L311.32812 63.30729Q311.32812 64.77604 311.39062 65.166664Q311.46875 65.55729 311.67188 65.916664L310.5625 65.916664Q310.40625 65.58854 310.35938 65.15104ZM310.26562 62.791664Q309.6875 63.02604 308.54688 63.197914Q307.89062 63.291664 307.625 63.416664Q307.35938 63.52604 307.20312 63.74479Q307.0625 63.96354 307.0625 64.24479Q307.0625 64.666664 307.375 64.947914Q307.70312 65.229164 308.3125 65.229164Q308.92188 65.229164 309.39062 64.96354Q309.875 64.697914 310.09375 64.229164Q310.26562 63.86979 310.26562 63.18229L310.26562 62.791664ZM312.59375 65.916664L314.85938 62.68229L312.76562 59.697914L314.07812 59.697914L315.03125 61.15104Q315.29688 61.572914 315.46875 61.854164Q315.71875 61.46354 315.9375 61.166664L316.98438 59.697914L318.25 59.697914L316.09375 62.61979L318.40625 65.916664L317.125 65.916664L315.84375 63.979164L315.5 63.46354L313.85938 65.916664L312.59375 65.916664ZM323.875 65.916664L320.54688 57.322914L321.78125 57.322914L324.01562 63.572914Q324.28125 64.322914 324.46875 64.979164Q324.67188 64.27604 324.9375 63.572914L327.25 57.322914L328.40625 57.322914L325.04688 65.916664L323.875 65.916664ZM328.375 65.916664L328.375 57.322914L329.51562 57.322914L329.51562 64.90104L333.75 64.90104L333.75 65.916664L328.375 65.916664ZM335.45312 65.916664L335.45312 57.322914L341.65625 57.322914L341.65625 58.33854L336.59375 58.33854L336.59375 60.96354L341.34375 60.96354L341.34375 61.979164L336.59375 61.979164L336.59375 64.90104L341.85938 64.90104L341.85938 65.916664L335.45312 65.916664ZM343.42188 65.916664L343.42188 57.322914L344.57812 57.322914L349.09375 64.072914L349.09375 57.322914L350.1875 57.322914L350.1875 65.916664L349.01562 65.916664L344.5 59.166664L344.5 65.916664L343.42188 65.916664ZM357.84375 60.86979L352.17188 60.86979L352.17188 59.885414L357.84375 59.885414L357.84375 60.86979ZM357.84375 63.479164L352.17188 63.479164L352.17188 62.49479L357.84375 62.49479L357.84375 63.479164ZM362.96875 65.916664L361.92188 65.916664L361.92188 59.197914Q361.53125 59.55729 360.90625 59.93229Q360.29688 60.291664 359.8125 60.46354L359.8125 59.447914Q360.6875 59.02604 361.34375 58.447914Q362.01562 57.854164 362.29688 57.291664L362.96875 57.291664L362.96875 65.916664ZM366.0 61.68229Q366.0 60.15104 366.3125 59.229164Q366.625 58.291664 367.23438 57.791664Q367.85938 57.291664 368.79688 57.291664Q369.48438 57.291664 370.0 57.572914Q370.53125 57.854164 370.875 58.385414Q371.21875 58.90104 371.40625 59.65104Q371.59375 60.40104 371.59375 61.68229Q371.59375 63.197914 371.28125 64.11979Q370.98438 65.041664 370.35938 65.55729Q369.75 66.05729 368.79688 66.05729Q367.5625 66.05729 366.84375 65.166664Q366.0 64.104164 366.0 61.68229ZM367.07812 61.68229Q367.07812 63.791664 367.57812 64.49479Q368.07812 65.197914 368.79688 65.197914Q369.53125 65.197914 370.01562 64.49479Q370.51562 63.791664 370.51562 61.68229Q370.51562 59.55729 370.01562 58.86979Q369.53125 58.166664 368.78125 58.166664Q368.0625 58.166664 367.625 58.77604Q367.07812 59.55729 367.07812 61.68229ZM378.54688 64.90104L378.54688 65.916664L372.85938 65.916664Q372.85938 65.541664 372.98438 65.18229Q373.20312 64.604164 373.67188 64.041664Q374.15625 63.479164 375.0625 62.74479Q376.46875 61.58854 376.95312 60.916664Q377.45312 60.24479 377.45312 59.65104Q377.45312 59.02604 377.0 58.604164Q376.54688 58.166664 375.82812 58.166664Q375.0625 58.166664 374.60938 58.61979Q374.15625 59.072914 374.14062 59.885414L373.0625 59.77604Q373.17188 58.55729 373.89062 57.93229Q374.625 57.291664 375.85938 57.291664Q377.09375 57.291664 377.8125 57.979164Q378.53125 58.666664 378.53125 59.68229Q378.53125 60.197914 378.3125 60.697914Q378.10938 61.18229 377.60938 61.74479Q377.125 62.291664 376.0 63.24479Q375.04688 64.041664 374.76562 64.33854Q374.5 64.61979 374.32812 64.90104L378.54688 64.90104ZM383.375 65.916664L383.375 63.854164L379.65625 63.854164L379.65625 62.885414L383.57812 57.322914L384.4375 57.322914L384.4375 62.885414L385.59375 62.885414L385.59375 63.854164L384.4375 63.854164L384.4375 65.916664L383.375 65.916664ZM383.375 62.885414L383.375 59.02604L380.6875 62.885414L383.375 62.885414ZM387.5625 65.916664L387.5625 64.71354L388.76562 64.71354L388.76562 65.916664Q388.76562 66.572914 388.53125 66.979164Q388.29688 67.40104 387.79688 67.61979L387.5 67.166664Q387.82812 67.02604 387.98438 66.729164Q388.14062 66.447914 388.17188 65.916664L387.5625 65.916664ZM393.375 65.916664L393.375 57.322914L394.51562 57.322914L394.51562 64.90104L398.75 64.90104L398.75 65.916664L393.375 65.916664ZM400.39062 65.916664L400.39062 57.322914L402.10938 57.322914L404.14062 63.40104Q404.42188 64.260414 404.54688 64.68229Q404.6875 64.21354 405.0 63.30729L407.0625 57.322914L408.59375 57.322914L408.59375 65.916664L407.5 65.916664L407.5 58.729164L405.0 65.916664L403.96875 65.916664L401.48438 58.604164L401.48438 65.916664L400.39062 65.916664ZM415.0625 57.322914L416.20312 57.322914L416.20312 62.291664Q416.20312 63.58854 415.90625 64.354164Q415.60938 65.104164 414.84375 65.58854Q414.07812 66.05729 412.84375 66.05729Q411.64062 66.05729 410.85938 65.65104Q410.09375 65.229164 409.76562 64.447914Q409.4375 63.65104 409.4375 62.291664L409.4375 57.322914L410.57812 57.322914L410.57812 62.27604Q410.57812 63.40104 410.78125 63.93229Q411.0 64.46354 411.5 64.760414Q412.01562 65.041664 412.75 65.041664Q414.0 65.041664 414.53125 64.479164Q415.0625 63.90104 415.0625 62.27604L415.0625 57.322914ZM418.375 65.916664L418.375 57.322914L419.51562 57.322914L419.51562 64.90104L423.75 64.90104L423.75 65.916664L418.375 65.916664ZM430.84375 60.86979L425.17188 60.86979L425.17188 59.885414L430.84375 59.885414L430.84375 60.86979ZM430.84375 63.479164L425.17188 63.479164L425.17188 62.49479L430.84375 62.49479L430.84375 63.479164ZM433.625 61.260414Q432.96875 61.010414 432.64062 60.572914Q432.32812 60.11979 432.32812 59.510414Q432.32812 58.572914 433.0 57.93229Q433.6875 57.291664 434.79688 57.291664Q435.92188 57.291664 436.60938 57.947914Q437.29688 58.604164 437.29688 59.541664Q437.29688 60.135414 436.98438 60.572914Q436.67188 61.010414 436.03125 61.260414Q436.82812 61.510414 437.23438 62.08854Q437.64062 62.666664 437.64062 63.46354Q437.64062 64.55729 436.85938 65.30729Q436.09375 66.05729 434.8125 66.05729Q433.54688 66.05729 432.76562 65.30729Q431.98438 64.55729 431.98438 63.43229Q431.98438 62.58854 432.40625 62.02604Q432.84375 61.46354 433.625 61.260414ZM433.40625 59.46354Q433.40625 60.072914 433.79688 60.46354Q434.20312 60.854164 434.82812 60.854164Q435.4375 60.854164 435.82812 60.479164Q436.21875 60.08854 436.21875 59.52604Q436.21875 58.947914 435.8125 58.55729Q435.40625 58.15104 434.8125 58.15104Q434.20312 58.15104 433.79688 58.541664Q433.40625 58.93229 433.40625 59.46354ZM433.07812 63.43229Q433.07812 63.885414 433.28125 64.30729Q433.5 64.729164 433.92188 64.96354Q434.34375 65.197914 434.82812 65.197914Q435.57812 65.197914 436.0625 64.71354Q436.5625 64.229164 436.5625 63.479164Q436.5625 62.71354 436.0625 62.21354Q435.5625 61.71354 434.79688 61.71354Q434.04688 61.71354 433.5625 62.21354Q433.07812 62.697914 433.07812 63.43229Z" fill-rule="nonzero"/><path stroke="#fbbc04" stroke-width="4.0" stroke-linecap="butt" d="M86.5 79.916664L98.5 79.916664" fill-rule="nonzero"/><path fill="#1a1a1a" d="M107.46875 83.916664L107.46875 75.322914L108.59375 75.322914L108.59375 78.854164L113.0625 78.854164L113.0625 75.322914L114.203125 75.322914L114.203125 83.916664L113.0625 83.916664L113.0625 79.86979L108.59375 79.86979L108.59375 83.916664L107.46875 83.916664ZM120.546875 81.916664L121.640625 82.041664Q121.390625 82.99479 120.6875 83.52604Q119.984375 84.05729 118.90625 84.05729Q117.546875 84.05729 116.734375 83.21354Q115.9375 82.36979 115.9375 80.854164Q115.9375 79.291664 116.75 78.43229Q117.5625 77.55729 118.84375 77.55729Q120.09375 77.55729 120.875 78.40104Q121.671875 79.24479 121.671875 80.791664Q121.671875 80.885414 121.671875 81.072914L117.03125 81.072914Q117.09375 82.104164 117.609375 82.65104Q118.125 83.18229 118.90625 83.18229Q119.484375 83.18229 119.890625 82.885414Q120.3125 82.572914 120.546875 81.916664ZM117.09375 80.21354L120.5625 80.21354Q120.5 79.416664 120.171875 79.02604Q119.65625 78.416664 118.859375 78.416664Q118.125 78.416664 117.625 78.90104Q117.140625 79.385414 117.09375 80.21354ZM118.21875 76.916664L119.0 75.27604L120.390625 75.27604L119.09375 76.916664L118.21875 76.916664ZM123.265625 83.916664L123.265625 75.322914L124.328125 75.322914L124.328125 83.916664L123.265625 83.916664ZM130.54688 81.916664L131.64062 82.041664Q131.39062 82.99479 130.6875 83.52604Q129.98438 84.05729 128.90625 84.05729Q127.546875 84.05729 126.734375 83.21354Q125.9375 82.36979 125.9375 80.854164Q125.9375 79.291664 126.75 78.43229Q127.5625 77.55729 128.84375 77.55729Q130.09375 77.55729 130.875 78.40104Q131.67188 79.24479 131.67188 80.791664Q131.67188 80.885414 131.67188 81.072914L127.03125 81.072914Q127.09375 82.104164 127.609375 82.65104Q128.125 83.18229 128.90625 83.18229Q129.48438 83.18229 129.89062 82.885414Q130.3125 82.572914 130.54688 81.916664ZM127.09375 80.21354L130.5625 80.21354Q130.5 79.416664 130.17188 79.02604Q129.65625 78.416664 128.85938 78.416664Q128.125 78.416664 127.625 78.90104Q127.140625 79.385414 127.09375 80.21354ZM129.51562 76.916664L128.67188 76.916664L127.3125 75.27604L128.73438 75.27604L129.51562 76.916664ZM133.29688 83.916664L133.29688 77.697914L134.23438 77.697914L134.23438 78.572914Q134.92188 77.55729 136.21875 77.55729Q136.78125 77.55729 137.25 77.760414Q137.73438 77.96354 137.96875 78.291664Q138.20312 78.61979 138.29688 79.05729Q138.34375 79.354164 138.34375 80.08854L138.34375 83.916664L137.29688 83.916664L137.29688 80.135414Q137.29688 79.479164 137.17188 79.166664Q137.04688 78.854164 136.73438 78.666664Q136.42188 78.46354 136.0 78.46354Q135.32812 78.46354 134.82812 78.90104Q134.34375 79.322914 134.34375 80.510414L134.34375 83.916664L133.29688 83.916664ZM144.54688 81.916664L145.64062 82.041664Q145.39062 82.99479 144.6875 83.52604Q143.98438 84.05729 142.90625 84.05729Q141.54688 84.05729 140.73438 83.21354Q139.9375 82.36979 139.9375 80.854164Q139.9375 79.291664 140.75 78.43229Q141.5625 77.55729 142.84375 77.55729Q144.09375 77.55729 144.875 78.40104Q145.67188 79.24479 145.67188 80.791664Q145.67188 80.885414 145.67188 81.072914L141.03125 81.072914Q141.09375 82.104164 141.60938 82.65104Q142.125 83.18229 142.90625 83.18229Q143.48438 83.18229 143.89062 82.885414Q144.3125 82.572914 144.54688 81.916664ZM141.09375 80.21354L144.5625 80.21354Q144.5 79.416664 144.17188 79.02604Q143.65625 78.416664 142.85938 78.416664Q142.125 78.416664 141.625 78.90104Q141.14062 79.385414 141.09375 80.21354ZM152.875 83.916664L149.54688 75.322914L150.78125 75.322914L153.01562 81.572914Q153.28125 82.322914 153.46875 82.979164Q153.67188 82.27604 153.9375 81.572914L156.25 75.322914L157.40625 75.322914L154.04688 83.916664L152.875 83.916664ZM157.375 83.916664L157.375 75.322914L158.51562 75.322914L158.51562 82.90104L162.75 82.90104L162.75 83.916664L157.375 83.916664ZM164.45312 83.916664L164.45312 75.322914L170.65625 75.322914L170.65625 76.33854L165.59375 76.33854L165.59375 78.96354L170.34375 78.96354L170.34375 79.979164L165.59375 79.979164L165.59375 82.90104L170.85938 82.90104L170.85938 83.916664L164.45312 83.916664ZM172.42188 83.916664L172.42188 75.322914L173.57812 75.322914L178.09375 82.072914L178.09375 75.322914L179.1875 75.322914L179.1875 83.916664L178.01562 83.916664L173.5 77.166664L173.5 83.916664L172.42188 83.916664ZM186.84375 78.86979L181.17188 78.86979L181.17188 77.885414L186.84375 77.885414L186.84375 78.86979ZM186.84375 81.479164L181.17188 81.479164L181.17188 80.49479L186.84375 80.49479L186.84375 81.479164ZM191.96875 83.916664L190.92188 83.916664L190.92188 77.197914Q190.53125 77.55729 189.90625 77.93229Q189.29688 78.291664 188.8125 78.46354L188.8125 77.447914Q189.6875 77.02604 190.34375 76.447914Q191.01562 75.854164 191.29688 75.291664L191.96875 75.291664L191.96875 83.916664ZM200.54688 82.90104L200.54688 83.916664L194.85938 83.916664Q194.85938 83.541664 194.98438 83.18229Q195.20312 82.604164 195.67188 82.041664Q196.15625 81.479164 197.0625 80.74479Q198.46875 79.58854 198.95312 78.916664Q199.45312 78.24479 199.45312 77.65104Q199.45312 77.02604 199.0 76.604164Q198.54688 76.166664 197.82812 76.166664Q197.0625 76.166664 196.60938 76.61979Q196.15625 77.072914 196.14062 77.885414L195.0625 77.77604Q195.17188 76.55729 195.89062 75.93229Q196.625 75.291664 197.85938 75.291664Q199.09375 75.291664 199.8125 75.979164Q200.53125 76.666664 200.53125 77.68229Q200.53125 78.197914 200.3125 78.697914Q200.10938 79.18229 199.60938 79.74479Q199.125 80.291664 198.0 81.24479Q197.04688 82.041664 196.76562 82.33854Q196.5 82.61979 196.32812 82.90104L200.54688 82.90104ZM203.625 79.260414Q202.96875 79.010414 202.64062 78.572914Q202.32812 78.11979 202.32812 77.510414Q202.32812 76.572914 203.0 75.93229Q203.6875 75.291664 204.79688 75.291664Q205.92188 75.291664 206.60938 75.947914Q207.29688 76.604164 207.29688 77.541664Q207.29688 78.135414 206.98438 78.572914Q206.67188 79.010414 206.03125 79.260414Q206.82812 79.510414 207.23438 80.08854Q207.64062 80.666664 207.64062 81.46354Q207.64062 82.55729 206.85938 83.30729Q206.09375 84.05729 204.8125 84.05729Q203.54688 84.05729 202.76562 83.30729Q201.98438 82.55729 201.98438 81.43229Q201.98438 80.58854 202.40625 80.02604Q202.84375 79.46354 203.625 79.260414ZM203.40625 77.46354Q203.40625 78.072914 203.79688 78.46354Q204.20312 78.854164 204.82812 78.854164Q205.4375 78.854164 205.82812 78.479164Q206.21875 78.08854 206.21875 77.52604Q206.21875 76.947914 205.8125 76.55729Q205.40625 76.15104 204.8125 76.15104Q204.20312 76.15104 203.79688 76.541664Q203.40625 76.93229 203.40625 77.46354ZM203.07812 81.43229Q203.07812 81.885414 203.28125 82.30729Q203.5 82.729164 203.92188 82.96354Q204.34375 83.197914 204.82812 83.197914Q205.57812 83.197914 206.0625 82.71354Q206.5625 82.229164 206.5625 81.479164Q206.5625 80.71354 206.0625 80.21354Q205.5625 79.71354 204.79688 79.71354Q204.04688 79.71354 203.5625 80.21354Q203.07812 80.697914 203.07812 81.43229ZM209.5625 83.916664L209.5625 82.71354L210.76562 82.71354L210.76562 83.916664Q210.76562 84.572914 210.53125 84.979164Q210.29688 85.40104 209.79688 85.61979L209.5 85.166664Q209.82812 85.02604 209.98438 84.729164Q210.14062 84.447914 210.17188 83.916664L209.5625 83.916664ZM215.375 83.916664L215.375 75.322914L216.51562 75.322914L216.51562 82.90104L220.75 82.90104L220.75 83.916664L215.375 83.916664ZM222.39062 83.916664L222.39062 75.322914L224.10938 75.322914L226.14062 81.40104Q226.42188 82.260414 226.54688 82.68229Q226.6875 82.21354 227.0 81.30729L229.0625 75.322914L230.59375 75.322914L230.59375 83.916664L229.5 83.916664L229.5 76.729164L227.0 83.916664L225.96875 83.916664L223.48438 76.604164L223.48438 83.916664L222.39062 83.916664ZM237.0625 75.322914L238.20312 75.322914L238.20312 80.291664Q238.20312 81.58854 237.90625 82.354164Q237.60938 83.104164 236.84375 83.58854Q236.07812 84.05729 234.84375 84.05729Q233.64062 84.05729 232.85938 83.65104Q232.09375 83.229164 231.76562 82.447914Q231.4375 81.65104 231.4375 80.291664L231.4375 75.322914L232.57812 75.322914L232.57812 80.27604Q232.57812 81.40104 232.78125 81.93229Q233.0 82.46354 233.5 82.760414Q234.01562 83.041664 234.75 83.041664Q236.0 83.041664 236.53125 82.479164Q237.0625 81.90104 237.0625 80.27604L237.0625 75.322914ZM240.375 83.916664L240.375 75.322914L241.51562 75.322914L241.51562 82.90104L245.75 82.90104L245.75 83.916664L240.375 83.916664ZM252.84375 78.86979L247.17188 78.86979L247.17188 77.885414L252.84375 77.885414L252.84375 78.86979ZM252.84375 81.479164L247.17188 81.479164L247.17188 80.49479L252.84375 80.49479L252.84375 81.479164ZM257.96875 83.916664L256.92188 83.916664L256.92188 77.197914Q256.53125 77.55729 255.90625 77.93229Q255.29688 78.291664 254.8125 78.46354L254.8125 77.447914Q255.6875 77.02604 256.34375 76.447914Q257.01562 75.854164 257.29688 75.291664L257.96875 75.291664L257.96875 83.916664Z" fill-rule="nonzero"/><path stroke="#34a853" stroke-width="4.0" stroke-linecap="butt" d="M276.5 79.916664L288.5 79.916664" fill-rule="nonzero"/><path fill="#1a1a1a" d="M297.46875 83.916664L297.46875 75.322914L298.59375 75.322914L298.59375 78.854164L303.0625 78.854164L303.0625 75.322914L304.20312 75.322914L304.20312 83.916664L303.0625 83.916664L303.0625 79.86979L298.59375 79.86979L298.59375 83.916664L297.46875 83.916664ZM310.54688 81.916664L311.64062 82.041664Q311.39062 82.99479 310.6875 83.52604Q309.98438 84.05729 308.90625 84.05729Q307.54688 84.05729 306.73438 83.21354Q305.9375 82.36979 305.9375 80.854164Q305.9375 79.291664 306.75 78.43229Q307.5625 77.55729 308.84375 77.55729Q310.09375 77.55729 310.875 78.40104Q311.67188 79.24479 311.67188 80.791664Q311.67188 80.885414 311.67188 81.072914L307.03125 81.072914Q307.09375 82.104164 307.60938 82.65104Q308.125 83.18229 308.90625 83.18229Q309.48438 83.18229 309.89062 82.885414Q310.3125 82.572914 310.54688 81.916664ZM307.09375 80.21354L310.5625 80.21354Q310.5 79.416664 310.17188 79.02604Q309.65625 78.416664 308.85938 78.416664Q308.125 78.416664 307.625 78.90104Q307.14062 79.385414 307.09375 80.21354ZM308.21875 76.916664L309.0 75.27604L310.39062 75.27604L309.09375 76.916664L308.21875 76.916664ZM313.26562 83.916664L313.26562 75.322914L314.32812 75.322914L314.32812 83.916664L313.26562 83.916664ZM320.54688 81.916664L321.64062 82.041664Q321.39062 82.99479 320.6875 83.52604Q319.98438 84.05729 318.90625 84.05729Q317.54688 84.05729 316.73438 83.21354Q315.9375 82.36979 315.9375 80.854164Q315.9375 79.291664 316.75 78.43229Q317.5625 77.55729 318.84375 77.55729Q320.09375 77.55729 320.875 78.40104Q321.67188 79.24479 321.67188 80.791664Q321.67188 80.885414 321.67188 81.072914L317.03125 81.072914Q317.09375 82.104164 317.60938 82.65104Q318.125 83.18229 318.90625 83.18229Q319.48438 83.18229 319.89062 82.885414Q320.3125 82.572914 320.54688 81.916664ZM317.09375 80.21354L320.5625 80.21354Q320.5 79.416664 320.17188 79.02604Q319.65625 78.416664 318.85938 78.416664Q318.125 78.416664 317.625 78.90104Q317.14062 79.385414 317.09375 80.21354ZM323.29688 83.916664L323.29688 77.697914L324.23438 77.697914L324.23438 78.572914Q324.92188 77.55729 326.21875 77.55729Q326.78125 77.55729 327.25 77.760414Q327.73438 77.96354 327.96875 78.291664Q328.20312 78.61979 328.29688 79.05729Q328.34375 79.354164 328.34375 80.08854L328.34375 83.916664L327.29688 83.916664L327.29688 80.135414Q327.29688 79.479164 327.17188 79.166664Q327.04688 78.854164 326.73438 78.666664Q326.42188 78.46354 326.0 78.46354Q325.32812 78.46354 324.82812 78.90104Q324.34375 79.322914 324.34375 80.510414L324.34375 83.916664L323.29688 83.916664ZM334.54688 81.916664L335.64062 82.041664Q335.39062 82.99479 334.6875 83.52604Q333.98438 84.05729 332.90625 84.05729Q331.54688 84.05729 330.73438 83.21354Q329.9375 82.36979 329.9375 80.854164Q329.9375 79.291664 330.75 78.43229Q331.5625 77.55729 332.84375 77.55729Q334.09375 77.55729 334.875 78.40104Q335.67188 79.24479 335.67188 80.791664Q335.67188 80.885414 335.67188 81.072914L331.03125 81.072914Q331.09375 82.104164 331.60938 82.65104Q332.125 83.18229 332.90625 83.18229Q333.48438 83.18229 333.89062 82.885414Q334.3125 82.572914 334.54688 81.916664ZM331.09375 80.21354L334.5625 80.21354Q334.5 79.416664 334.17188 79.02604Q333.65625 78.416664 332.85938 78.416664Q332.125 78.416664 331.625 78.90104Q331.14062 79.385414 331.09375 80.21354ZM342.875 83.916664L339.54688 75.322914L340.78125 75.322914L343.01562 81.572914Q343.28125 82.322914 343.46875 82.979164Q343.67188 82.27604 343.9375 81.572914L346.25 75.322914L347.40625 75.322914L344.04688 83.916664L342.875 83.916664ZM347.375 83.916664L347.375 75.322914L348.51562 75.322914L348.51562 82.90104L352.75 82.90104L352.75 83.916664L347.375 83.916664ZM354.45312 83.916664L354.45312 75.322914L360.65625 75.322914L360.65625 76.33854L355.59375 76.33854L355.59375 78.96354L360.34375 78.96354L360.34375 79.979164L355.59375 79.979164L355.59375 82.90104L360.85938 82.90104L360.85938 83.916664L354.45312 83.916664ZM362.42188 83.916664L362.42188 75.322914L363.57812 75.322914L368.09375 82.072914L368.09375 75.322914L369.1875 75.322914L369.1875 83.916664L368.01562 83.916664L363.5 77.166664L363.5 83.916664L362.42188 83.916664ZM376.84375 78.86979L371.17188 78.86979L371.17188 77.885414L376.84375 77.885414L376.84375 78.86979ZM376.84375 81.479164L371.17188 81.479164L371.17188 80.49479L376.84375 80.49479L376.84375 81.479164ZM381.96875 83.916664L380.92188 83.916664L380.92188 77.197914Q380.53125 77.55729 379.90625 77.93229Q379.29688 78.291664 378.8125 78.46354L378.8125 77.447914Q379.6875 77.02604 380.34375 76.447914Q381.01562 75.854164 381.29688 75.291664L381.96875 75.291664L381.96875 83.916664ZM385.0 79.68229Q385.0 78.15104 385.3125 77.229164Q385.625 76.291664 386.23438 75.791664Q386.85938 75.291664 387.79688 75.291664Q388.48438 75.291664 389.0 75.572914Q389.53125 75.854164 389.875 76.385414Q390.21875 76.90104 390.40625 77.65104Q390.59375 78.40104 390.59375 79.68229Q390.59375 81.197914 390.28125 82.11979Q389.98438 83.041664 389.35938 83.55729Q388.75 84.05729 387.79688 84.05729Q386.5625 84.05729 385.84375 83.166664Q385.0 82.104164 385.0 79.68229ZM386.07812 79.68229Q386.07812 81.791664 386.57812 82.49479Q387.07812 83.197914 387.79688 83.197914Q388.53125 83.197914 389.01562 82.49479Q389.51562 81.791664 389.51562 79.68229Q389.51562 77.55729 389.01562 76.86979Q388.53125 76.166664 387.78125 76.166664Q387.0625 76.166664 386.625 76.77604Q386.07812 77.55729 386.07812 79.68229ZM397.54688 82.90104L397.54688 83.916664L391.85938 83.916664Q391.85938 83.541664 391.98438 83.18229Q392.20312 82.604164 392.67188 82.041664Q393.15625 81.479164 394.0625 80.74479Q395.46875 79.58854 395.95312 78.916664Q396.45312 78.24479 396.45312 77.65104Q396.45312 77.02604 396.0 76.604164Q395.54688 76.166664 394.82812 76.166664Q394.0625 76.166664 393.60938 76.61979Q393.15625 77.072914 393.14062 77.885414L392.0625 77.77604Q392.17188 76.55729 392.89062 75.93229Q393.625 75.291664 394.85938 75.291664Q396.09375 75.291664 396.8125 75.979164Q397.53125 76.666664 397.53125 77.68229Q397.53125 78.197914 397.3125 78.697914Q397.10938 79.18229 396.60938 79.74479Q396.125 80.291664 395.0 81.24479Q394.04688 82.041664 393.76562 82.33854Q393.5 82.61979 393.32812 82.90104L397.54688 82.90104ZM402.375 83.916664L402.375 81.854164L398.65625 81.854164L398.65625 80.885414L402.57812 75.322914L403.4375 75.322914L403.4375 80.885414L404.59375 80.885414L404.59375 81.854164L403.4375 81.854164L403.4375 83.916664L402.375 83.916664ZM402.375 80.885414L402.375 77.02604L399.6875 80.885414L402.375 80.885414ZM406.5625 83.916664L406.5625 82.71354L407.76562 82.71354L407.76562 83.916664Q407.76562 84.572914 407.53125 84.979164Q407.29688 85.40104 406.79688 85.61979L406.5 85.166664Q406.82812 85.02604 406.98438 84.729164Q407.14062 84.447914 407.17188 83.916664L406.5625 83.916664ZM412.375 83.916664L412.375 75.322914L413.51562 75.322914L413.51562 82.90104L417.75 82.90104L417.75 83.916664L412.375 83.916664ZM419.39062 83.916664L419.39062 75.322914L421.10938 75.322914L423.14062 81.40104Q423.42188 82.260414 423.54688 82.68229Q423.6875 82.21354 424.0 81.30729L426.0625 75.322914L427.59375 75.322914L427.59375 83.916664L426.5 83.916664L426.5 76.729164L424.0 83.916664L422.96875 83.916664L420.48438 76.604164L420.48438 83.916664L419.39062 83.916664ZM434.0625 75.322914L435.20312 75.322914L435.20312 80.291664Q435.20312 81.58854 434.90625 82.354164Q434.60938 83.104164 433.84375 83.58854Q433.07812 84.05729 431.84375 84.05729Q430.64062 84.05729 429.85938 83.65104Q429.09375 83.229164 428.76562 82.447914Q428.4375 81.65104 428.4375 80.291664L428.4375 75.322914L429.57812 75.322914L429.57812 80.27604Q429.57812 81.40104 429.78125 81.93229Q430.0 82.46354 430.5 82.760414Q431.01562 83.041664 431.75 83.041664Q433.0 83.041664 433.53125 82.479164Q434.0625 81.90104 434.0625 80.27604L434.0625 75.322914ZM437.375 83.916664L437.375 75.322914L438.51562 75.322914L438.51562 82.90104L442.75 82.90104L442.75 83.916664L437.375 83.916664ZM449.84375 78.86979L444.17188 78.86979L444.17188 77.885414L449.84375 77.885414L449.84375 78.86979ZM449.84375 81.479164L444.17188 81.479164L444.17188 80.49479L449.84375 80.49479L449.84375 81.479164ZM452.625 79.260414Q451.96875 79.010414 451.64062 78.572914Q451.32812 78.11979 451.32812 77.510414Q451.32812 76.572914 452.0 75.93229Q452.6875 75.291664 453.79688 75.291664Q454.92188 75.291664 455.60938 75.947914Q456.29688 76.604164 456.29688 77.541664Q456.29688 78.135414 455.98438 78.572914Q455.67188 79.010414 455.03125 79.260414Q455.82812 79.510414 456.23438 80.08854Q456.64062 80.666664 456.64062 81.46354Q456.64062 82.55729 455.85938 83.30729Q455.09375 84.05729 453.8125 84.05729Q452.54688 84.05729 451.76562 83.30729Q450.98438 82.55729 450.98438 81.43229Q450.98438 80.58854 451.40625 80.02604Q451.84375 79.46354 452.625 79.260414ZM452.40625 77.46354Q452.40625 78.072914 452.79688 78.46354Q453.20312 78.854164 453.82812 78.854164Q454.4375 78.854164 454.82812 78.479164Q455.21875 78.08854 455.21875 77.52604Q455.21875 76.947914 454.8125 76.55729Q454.40625 76.15104 453.8125 76.15104Q453.20312 76.15104 452.79688 76.541664Q452.40625 76.93229 452.40625 77.46354ZM452.07812 81.43229Q452.07812 81.885414 452.28125 82.30729Q452.5 82.729164 452.92188 82.96354Q453.34375 83.197914 453.82812 83.197914Q454.57812 83.197914 455.0625 82.71354Q455.5625 82.229164 455.5625 81.479164Q455.5625 80.71354 455.0625 80.21354Q454.5625 79.71354 453.79688 79.71354Q453.04688 79.71354 452.5625 80.21354Q452.07812 80.697914 452.07812 81.43229Z" fill-rule="nonzero"/><path fill="#757575" d="M192.8125 37.55L192.8125 27.175L194.39062 27.175L194.39062 28.628124Q194.875 27.878124 195.6875 27.409374Q196.5 26.940624 197.53125 26.940624Q198.6875 26.940624 199.42188 27.425Q200.15625 27.89375 200.46875 28.753124Q201.70312 26.940624 203.67188 26.940624Q205.21875 26.940624 206.04688 27.8Q206.875 28.659374 206.875 30.425L206.875 37.55L205.125 37.55L205.125 31.01875Q205.125 29.95625 204.95312 29.503124Q204.78125 29.034374 204.32812 28.753124Q203.89062 28.471874 203.28125 28.471874Q202.1875 28.471874 201.45312 29.20625Q200.73438 29.925 200.73438 31.51875L200.73438 37.55L198.98438 37.55L198.98438 30.815624Q198.98438 29.64375 198.54688 29.065624Q198.125 28.471874 197.14062 28.471874Q196.40625 28.471874 195.76562 28.8625Q195.14062 29.253124 194.85938 30.003124Q194.57812 30.753124 194.57812 32.175L194.57812 37.55L192.8125 37.55ZM215.92188 34.20625L217.73438 34.440624Q217.3125 36.01875 216.14062 36.909374Q214.98438 37.784374 213.17188 37.784374Q210.90625 37.784374 209.5625 36.39375Q208.23438 34.9875 208.23438 32.45625Q208.23438 29.83125 209.57812 28.39375Q210.92188 26.940624 213.07812 26.940624Q215.15625 26.940624 216.46875 28.3625Q217.79688 29.76875 217.79688 32.346874Q217.79688 32.503124 217.78125 32.815624L210.04688 32.815624Q210.14062 34.51875 211.01562 35.425Q211.89062 36.33125 213.1875 36.33125Q214.15625 36.33125 214.82812 35.83125Q215.51562 35.315624 215.92188 34.20625ZM210.14062 31.3625L215.9375 31.3625Q215.82812 30.065624 215.28125 29.409374Q214.4375 28.39375 213.09375 28.39375Q211.89062 28.39375 211.0625 29.20625Q210.23438 30.003124 210.14062 31.3625ZM219.8125 37.55L219.8125 27.175L221.39062 27.175L221.39062 28.628124Q221.875 27.878124 222.6875 27.409374Q223.5 26.940624 224.53125 26.940624Q225.6875 26.940624 226.42188 27.425Q227.15625 27.89375 227.46875 28.753124Q228.70312 26.940624 230.67188 26.940624Q232.21875 26.940624 233.04688 27.8Q233.875 28.659374 233.875 30.425L233.875 37.55L232.125 37.55L232.125 31.01875Q232.125 29.95625 231.95312 29.503124Q231.78125 29.034374 231.32812 28.753124Q230.89062 28.471874 230.28125 28.471874Q229.1875 28.471874 228.45312 29.20625Q227.73438 29.925 227.73438 31.51875L227.73438 37.55L225.98438 37.55L225.98438 30.815624Q225.98438 29.64375 225.54688 29.065624Q225.125 28.471874 224.14062 28.471874Q223.40625 28.471874 222.76562 28.8625Q222.14062 29.253124 221.85938 30.003124Q221.57812 30.753124 221.57812 32.175L221.57812 37.55L219.8125 37.55ZM242.59375 33.753124L244.3125 33.971874Q244.03125 35.76875 242.85938 36.784374Q241.70312 37.784374 240.0 37.784374Q237.875 37.784374 236.57812 36.39375Q235.28125 35.003124 235.28125 32.409374Q235.28125 30.721874 235.82812 29.471874Q236.39062 28.20625 237.53125 27.58125Q238.67188 26.940624 240.01562 26.940624Q241.70312 26.940624 242.76562 27.8Q243.84375 28.659374 244.15625 30.221874L242.4375 30.4875Q242.20312 29.440624 241.57812 28.925Q240.95312 28.39375 240.07812 28.39375Q238.75 28.39375 237.92188 29.346874Q237.09375 30.3 237.09375 32.346874Q237.09375 34.440624 237.89062 35.39375Q238.6875 36.33125 239.98438 36.33125Q241.01562 36.33125 241.70312 35.70625Q242.40625 35.065624 242.59375 33.753124ZM245.8125 41.51875L245.8125 27.175L247.42188 27.175L247.42188 28.51875Q247.98438 27.7375 248.6875 27.346874Q249.40625 26.940624 250.42188 26.940624Q251.75 26.940624 252.76562 27.628124Q253.78125 28.315624 254.29688 29.565624Q254.82812 30.8 254.82812 32.284374Q254.82812 33.878124 254.25 35.159374Q253.6875 36.425 252.59375 37.1125Q251.5 37.784374 250.29688 37.784374Q249.42188 37.784374 248.71875 37.409374Q248.03125 37.034374 247.57812 36.471874L247.57812 41.51875L245.8125 41.51875ZM247.40625 32.425Q247.40625 34.425 248.21875 35.378124Q249.03125 36.33125 250.1875 36.33125Q251.35938 36.33125 252.1875 35.346874Q253.03125 34.3625 253.03125 32.26875Q253.03125 30.3 252.20312 29.315624Q251.39062 28.315624 250.26562 28.315624Q249.14062 28.315624 248.26562 29.378124Q247.40625 30.425 247.40625 32.425ZM256.73438 41.55L256.54688 39.89375Q257.125 40.05 257.54688 40.05Q258.14062 40.05 258.48438 39.846874Q258.84375 39.659374 259.0625 39.315624Q259.23438 39.05 259.60938 38.003124Q259.65625 37.846874 259.76562 37.565624L255.82812 27.175L257.71875 27.175L259.875 33.190624Q260.29688 34.33125 260.625 35.58125Q260.9375 34.378124 261.34375 33.221874L263.5625 27.175L265.32812 27.175L261.375 37.721874Q260.75 39.440624 260.39062 40.08125Q259.92188 40.95625 259.3125 41.346874Q258.71875 41.753124 257.875 41.753124Q257.35938 41.753124 256.73438 41.55ZM272.10938 34.45625L273.85938 34.175Q274.0 35.221874 274.67188 35.784374Q275.34375 36.33125 276.54688 36.33125Q277.75 36.33125 278.32812 35.846874Q278.92188 35.346874 278.92188 34.690624Q278.92188 34.096874 278.40625 33.753124Q278.04688 33.51875 276.60938 33.159374Q274.67188 32.659374 273.92188 32.315624Q273.1875 31.95625 272.79688 31.33125Q272.40625 30.690624 272.40625 29.925Q272.40625 29.2375 272.71875 28.64375Q273.04688 28.05 273.59375 27.659374Q274.0 27.3625 274.70312 27.159374Q275.42188 26.940624 276.23438 26.940624Q277.45312 26.940624 278.375 27.3Q279.29688 27.64375 279.73438 28.253124Q280.17188 28.846874 280.34375 29.846874L278.625 30.08125Q278.5 29.284374 277.9375 28.846874Q277.375 28.39375 276.35938 28.39375Q275.14062 28.39375 274.625 28.8Q274.10938 29.190624 274.10938 29.721874Q274.10938 30.065624 274.32812 30.346874Q274.53125 30.628124 275.0 30.815624Q275.26562 30.909374 276.54688 31.253124Q278.42188 31.753124 279.15625 32.08125Q279.89062 32.39375 280.3125 33.003124Q280.73438 33.596874 280.73438 34.503124Q280.73438 35.378124 280.21875 36.159374Q279.70312 36.940624 278.73438 37.3625Q277.76562 37.784374 276.54688 37.784374Q274.53125 37.784374 273.46875 36.940624Q272.40625 36.096874 272.10938 34.45625ZM282.8125 41.51875L282.8125 27.175L284.42188 27.175L284.42188 28.51875Q284.98438 27.7375 285.6875 27.346874Q286.40625 26.940624 287.42188 26.940624Q288.75 26.940624 289.76562 27.628124Q290.78125 28.315624 291.29688 29.565624Q291.82812 30.8 291.82812 32.284374Q291.82812 33.878124 291.25 35.159374Q290.6875 36.425 289.59375 37.1125Q288.5 37.784374 287.29688 37.784374Q286.42188 37.784374 285.71875 37.409374Q285.03125 37.034374 284.57812 36.471874L284.57812 41.51875L282.8125 41.51875ZM284.40625 32.425Q284.40625 34.425 285.21875 35.378124Q286.03125 36.33125 287.1875 36.33125Q288.35938 36.33125 289.1875 35.346874Q290.03125 34.3625 290.03125 32.26875Q290.03125 30.3 289.20312 29.315624Q288.39062 28.315624 287.26562 28.315624Q286.14062 28.315624 285.26562 29.378124Q284.40625 30.425 284.40625 32.425ZM300.92188 34.20625L302.73438 34.440624Q302.3125 36.01875 301.14062 36.909374Q299.98438 37.784374 298.17188 37.784374Q295.90625 37.784374 294.5625 36.39375Q293.23438 34.9875 293.23438 32.45625Q293.23438 29.83125 294.57812 28.39375Q295.92188 26.940624 298.07812 26.940624Q300.15625 26.940624 301.46875 28.3625Q302.79688 29.76875 302.79688 32.346874Q302.79688 32.503124 302.78125 32.815624L295.04688 32.815624Q295.14062 34.51875 296.01562 35.425Q296.89062 36.33125 298.1875 36.33125Q299.15625 36.33125 299.82812 35.83125Q300.51562 35.315624 300.92188 34.20625ZM295.14062 31.3625L300.9375 31.3625Q300.82812 30.065624 300.28125 29.409374Q299.4375 28.39375 298.09375 28.39375Q296.89062 28.39375 296.0625 29.20625Q295.23438 30.003124 295.14062 31.3625ZM311.92188 34.20625L313.73438 34.440624Q313.3125 36.01875 312.14062 36.909374Q310.98438 37.784374 309.17188 37.784374Q306.90625 37.784374 305.5625 36.39375Q304.23438 34.9875 304.23438 32.45625Q304.23438 29.83125 305.57812 28.39375Q306.92188 26.940624 309.07812 26.940624Q311.15625 26.940624 312.46875 28.3625Q313.79688 29.76875 313.79688 32.346874Q313.79688 32.503124 313.78125 32.815624L306.04688 32.815624Q306.14062 34.51875 307.01562 35.425Q307.89062 36.33125 309.1875 36.33125Q310.15625 36.33125 310.82812 35.83125Q311.51562 35.315624 311.92188 34.20625ZM306.14062 31.3625L311.9375 31.3625Q311.82812 30.065624 311.28125 29.409374Q310.4375 28.39375 309.09375 28.39375Q307.89062 28.39375 307.0625 29.20625Q306.23438 30.003124 306.14062 31.3625ZM322.54688 37.55L322.54688 36.2375Q321.5625 37.784374 319.64062 37.784374Q318.40625 37.784374 317.35938 37.096874Q316.32812 36.409374 315.75 35.190624Q315.1875 33.971874 315.1875 32.378124Q315.1875 30.815624 315.70312 29.55Q316.21875 28.284374 317.25 27.6125Q318.29688 26.940624 319.5625 26.940624Q320.5 26.940624 321.23438 27.346874Q321.96875 27.7375 322.4375 28.3625L322.4375 23.2375L324.17188 23.2375L324.17188 37.55L322.54688 37.55ZM316.98438 32.378124Q316.98438 34.3625 317.82812 35.346874Q318.67188 36.33125 319.8125 36.33125Q320.96875 36.33125 321.76562 35.39375Q322.57812 34.45625 322.57812 32.51875Q322.57812 30.39375 321.75 29.39375Q320.9375 28.39375 319.73438 28.39375Q318.5625 28.39375 317.76562 29.3625Q316.98438 30.315624 316.98438 32.378124ZM339.60938 37.55L339.60938 36.01875Q338.40625 37.784374 336.32812 37.784374Q335.40625 37.784374 334.60938 37.440624Q333.8125 37.08125 333.42188 36.55Q333.04688 36.01875 332.89062 35.2375Q332.78125 34.721874 332.78125 33.596874L332.78125 27.175L334.53125 27.175L334.53125 32.925Q334.53125 34.3 334.64062 34.784374Q334.8125 35.471874 335.34375 35.878124Q335.89062 36.26875 336.67188 36.26875Q337.46875 36.26875 338.15625 35.8625Q338.85938 35.45625 339.14062 34.76875Q339.4375 34.065624 339.4375 32.7375L339.4375 27.175L341.1875 27.175L341.1875 37.55L339.60938 37.55ZM342.8125 41.51875L342.8125 27.175L344.42188 27.175L344.42188 28.51875Q344.98438 27.7375 345.6875 27.346874Q346.40625 26.940624 347.42188 26.940624Q348.75 26.940624 349.76562 27.628124Q350.78125 28.315624 351.29688 29.565624Q351.82812 30.8 351.82812 32.284374Q351.82812 33.878124 351.25 35.159374Q350.6875 36.425 349.59375 37.1125Q348.5 37.784374 347.29688 37.784374Q346.42188 37.784374 345.71875 37.409374Q345.03125 37.034374 344.57812 36.471874L344.57812 41.51875L342.8125 41.51875ZM344.40625 32.425Q344.40625 34.425 345.21875 35.378124Q346.03125 36.33125 347.1875 36.33125Q348.35938 36.33125 349.1875 35.346874Q350.03125 34.3625 350.03125 32.26875Q350.03125 30.3 349.20312 29.315624Q348.39062 28.315624 347.26562 28.315624Q346.14062 28.315624 345.26562 29.378124Q344.40625 30.425 344.40625 32.425Z" fill-rule="nonzero"/></svg>