<svg version="1.1" viewBox="0.0 0.0 544.0 371.0" fill="none" stroke="none" stroke-linecap="square" stroke-miterlimit="10" width="544" height="371" xmlns:xlink="http://www.w3.org/1999/xlink" xmlns="http://www.w3.org/2000/svg"><path fill="#ffffff" d="M0 0L544.0 0L544.0 371.0L0 371.0L0 0Z" fill-rule="nonzero"/><path stroke="#cccccc" stroke-width="1.0" stroke-linecap="butt" d="M77.5 88.5L77.5 300.5" fill-rule="nonzero"/><path stroke="#cccccc" stroke-width="1.0" stroke-linecap="butt" d="M190.5 88.5L190.5 300.5" fill-rule="nonzero"/><path stroke="#cccccc" stroke-width="1.0" stroke-linecap="butt" d="M303.5 88.5L303.5 300.5" fill-rule="nonzero"/><path stroke="#cccccc" stroke-width="1.0" stroke-linecap="butt" d="M416.5 88.5L416.5 300.5" fill-rule="nonzero"/><path stroke="#333333" stroke-width="1.0" stroke-linecap="butt" d="M77.5 300.5L525.5 300.5" fill-rule="nonzero"/><path stroke="#cccccc" stroke-width="1.0" stroke-linecap="butt" d="M77.5 247.5L525.5 247.5" fill-rule="nonzero"/><path stroke="#cccccc" stroke-width="1.0" stroke-linecap="butt" d="M77.5 194.5L525.5 194.5" fill-rule="nonzero"/><path stroke="#cccccc" stroke-width="1.0" stroke-linecap="butt" d="M77.5 141.5L525.5 141.5" fill-rule="nonzero"/><path stroke="#cccccc" stroke-width="1.0" stroke-linecap="butt" d="M77.5 88.5L525.5 88.5" fill-rule="nonzero"/><clipPath id="id_0"><path d="M77.55 88.28333L525.45 88.28333L525.45 300.45L77.55 300.45L77.55 88.28333Z" clip-rule="nonzero"/></clipPath><path stroke="#ea4335" stroke-width="2.0" stroke-linecap="butt" clip-path="url(#id_0)" d="M77.55 271.06808L111.60533 262.3932L131.52641 263.3918L145.66066 242.01357L156.62402 247.91591L165.58176 243.7148L173.1554 247.48311L179.71599 199.26503L185.50284 210.5802L190.67935 212.90274L195.36209 224.83633L199.63708 201.65602L203.5697 212.0832L207.21072 204.93604L210.60045 213.86728L213.77132 167.66397L216.7499 168.69112L219.55817 165.91315L222.21457 166.8052L224.73468 171.52928L227.13182 166.06953L229.41742 165.37878L231.6014 165.37878L233.69241 160.49669L235.69806 168.44858L237.62503 163.94571L239.47926 177.03972L241.26605 165.92403L242.99014 167.84584L244.65578 167.84584L246.26678 176.68611L247.82664 179.36147L249.3385 168.86644L250.80522 171.77975L252.22943 172.64938L262.34323 175.01363L268.7608 167.84584L269.7534 177.16397L270.72632 175.01363L271.68036 171.52928L272.6162 171.52928L277.88535 178.31459L278.71112 171.52928L279.52322 174.29684L280.3221 167.08809L281.10825 167.84584L281.882 155.4142L282.6437 172.26598L283.39383 179.0125L284.13266 170.79259L292.22733 177.61667L315.55197 170.79259L315.93732 144.86111L316.31964 176.68611L316.69907 170.79259L317.07553 144.86111L317.44916 170.79259L317.81998 179.0125L337.1215 175.21274L349.99265 177.61667L354.57056 180.40834L384.04797 176.22084L392.89362 172.26598L418.1033 163.16568L439.38092 176.68611L452.15863 172.26598L469.198 170.79259L486.21396 167.84584L496.80164 179.0125L520.2693 163.16568L525.45 131.85327" fill-rule="nonzero"/><path fill="#000000" fill-opacity="0.0" clip-path="url(#id_0)" d="M80.55 271.06808C80.55 272.72495 79.206856 274.06808 77.55 274.06808C75.89314 274.06808 74.55 272.72495 74.55 271.06808C74.55 269.41122 75.89314 268.06808 77.55 268.06808C79.206856 268.06808 80.55 269.41122 80.55 271.06808Z" fill-rule="nonzero"/><path fill="#000000" fill-opacity="0.0" clip-path="url(#id_0)" d="M114.60533 262.3932C114.60533 264.05005 113.262184 265.3932 111.60533 265.3932C109.94848 265.3932 108.60533 264.05005 108.60533 262.3932C108.60533 260.73636 109.94848 259.3932 111.60533 259.3932C113.262184 259.3932 114.60533 260.73636 114.60533 262.3932Z" fill-rule="nonzero"/><path fill="#000000" fill-opacity="0.0" clip-path="url(#id_0)" d="M134.52641 263.3918C134.52641 265.04865 133.18327 266.3918 131.52641 266.3918C129.86957 266.3918 128.52641 265.04865 128.52641 263.3918C128.52641 261.73495 129.86957 260.3918 131.52641 260.3918C133.18327 260.3918 134.52641 261.73495 134.52641 263.3918Z" fill-rule="nonzero"/><path fill="#000000" fill-opacity="0.0" clip-path="url(#id_0)" d="M148.66066 242.01357C148.66066 243.67043 147.31752 245.01357 145.66066 245.01357C144.0038 245.01357 142.66066 243.67043 142.66066 242.01357C142.66066 240.35672 144.0038 239.01357 145.66066 239.01357C147.31752 239.01357 148.66066 240.35672 148.66066 242.01357Z" fill-rule="nonzero"/><path fill="#000000" fill-opacity="0.0" clip-path="url(#id_0)" d="M159.62402 247.91591C159.62402 249.57277 158.28088 250.91591 156.62402 250.91591C154.96718 250.91591 153.62402 249.57277 153.62402 247.91591C153.62402 246.25905 154.96718 244.91591 156.62402 244.91591C158.28088 244.91591 159.62402 246.25905 159.62402 247.91591Z" fill-rule="nonzero"/><path fill="#000000" fill-opacity="0.0" clip-path="url(#id_0)" d="M168.58176 243.7148C168.58176 245.37164 167.2386 246.7148 165.58176 246.7148C163.9249 246.7148 162.58176 245.37164 162.58176 243.7148C162.58176 242.05794 163.9249 240.7148 165.58176 240.7148C167.2386 240.7148 168.58176 242.05794 168.58176 243.7148Z" fill-rule="nonzero"/><path fill="#000000" fill-opacity="0.0" clip-path="url(#id_0)" d="M176.1554 247.48311C176.1554 249.13997 174.81226 250.48311 173.1554 250.48311C171.49855 250.48311 170.1554 249.13997 170.1554 247.48311C170.1554 245.82626 171.49855 244.48311 173.1554 244.48311C174.81226 244.48311 176.1554 245.82626 176.1554 247.48311Z" fill-rule="nonzero"/><path fill="#000000" fill-opacity="0.0" clip-path="url(#id_0)" d="M182.71599 199.26503C182.71599 200.92188 181.37285 202.26503 179.71599 202.26503C178.05913 202.26503 176.71599 200.92188 176.71599 199.26503C176.71599 197.60817 178.05913 196.26503 179.71599 196.26503C181.37285 196.26503 182.71599 197.60817 182.71599 199.26503Z" fill-rule="nonzero"/><path fill="#000000" fill-opacity="0.0" clip-path="url(#id_0)" d="M188.50284 210.5802C188.50284 212.23706 187.1597 213.5802 185.50284 213.5802C183.846 213.5802 182.50284 212.23706 182.50284 210.5802C182.50284 208.92336 183.846 207.5802 185.50284 207.5802C187.1597 207.5802 188.50284 208.92336 188.50284 210.5802Z" fill-rule="nonzero"/><path fill="#000000" fill-opacity="0.0" clip-path="url(#id_0)" d="M193.67935 212.90274C193.67935 214.55959 192.33621 215.90274 190.67935 215.90274C189.0225 215.90274 187.67935 214.55959 187.67935 212.90274C187.67935 211.24588 189.0225 209.90274 190.67935 209.90274C192.33621 209.90274 193.67935 211.24588 193.67935 212.90274Z" fill-rule="nonzero"/><path fill="#000000" fill-opacity="0.0" clip-path="url(#id_0)" d="M198.36209 224.83633C198.36209 226.49318 197.01894 227.83633 195.36209 227.83633C193.70523 227.83633 192.36209 226.49318 192.36209 224.83633C192.36209 223.17947 193.70523 221.83633 195.36209 221.83633C197.01894 221.83633 198.36209 223.17947 198.36209 224.83633Z" fill-rule="nonzero"/><path fill="#000000" fill-opacity="0.0" clip-path="url(#id_0)" d="M202.63708 201.65602C202.63708 203.31287 201.29393 204.65602 199.63708 204.65602C197.98022 204.65602 196.63708 203.31287 196.63708 201.65602C196.63708 199.99916 197.98022 198.65602 199.63708 198.65602C201.29393 198.65602 202.63708 199.99916 202.63708 201.65602Z" fill-rule="nonzero"/><path fill="#000000" fill-opacity="0.0" clip-path="url(#id_0)" d="M206.5697 212.0832C206.5697 213.74007 205.22655 215.0832 203.5697 215.0832C201.91284 215.0832 200.5697 213.74007 200.5697 212.0832C200.5697 210.42635 201.91284 209.0832 203.5697 209.0832C205.22655 209.0832 206.5697 210.42635 206.5697 212.0832Z" fill-rule="nonzero"/><path fill="#000000" fill-opacity="0.0" clip-path="url(#id_0)" d="M210.21072 204.93604C210.21072 206.5929 208.86758 207.93604 207.21072 207.93604C205.55388 207.93604 204.21072 206.5929 204.21072 204.93604C204.21072 203.27917 205.55388 201.93604 207.21072 201.93604C208.86758 201.93604 210.21072 203.27917 210.21072 204.93604Z" fill-rule="nonzero"/><path fill="#000000" fill-opacity="0.0" clip-path="url(#id_0)" d="M213.60045 213.86728C213.60045 215.52414 212.25731 216.86728 210.60045 216.86728C208.94359 216.86728 207.60045 215.52414 207.60045 213.86728C207.60045 212.21042 208.94359 210.86728 210.60045 210.86728C212.25731 210.86728 213.60045 212.21042 213.60045 213.86728Z" fill-rule="nonzero"/><path fill="#000000" fill-opacity="0.0" clip-path="url(#id_0)" d="M216.77132 167.66397C216.77132 169.32083 215.42818 170.66397 213.77132 170.66397C212.11447 170.66397 210.77132 169.32083 210.77132 167.66397C210.77132 166.00713 212.11447 164.66397 213.77132 164.66397C215.42818 164.66397 216.77132 166.00713 216.77132 167.66397Z" fill-rule="nonzero"/><path fill="#000000" fill-opacity="0.0" clip-path="url(#id_0)" d="M219.7499 168.69112C219.7499 170.34798 218.40675 171.69112 216.7499 171.69112C215.09305 171.69112 213.7499 170.34798 213.7499 168.69112C213.7499 167.03427 215.09305 165.69112 216.7499 165.69112C218.40675 165.69112 219.7499 167.03427 219.7499 168.69112Z" fill-rule="nonzero"/><path fill="#000000" fill-opacity="0.0" clip-path="url(#id_0)" d="M222.55817 165.91315C222.55817 167.56999 221.21503 168.91315 219.55817 168.91315C217.90132 168.91315 216.55817 167.56999 216.55817 165.91315C216.55817 164.25629 217.90132 162.91315 219.55817 162.91315C221.21503 162.91315 222.55817 164.25629 222.55817 165.91315Z" fill-rule="nonzero"/><path fill="#000000" fill-opacity="0.0" clip-path="url(#id_0)" d="M225.21457 166.8052C225.21457 168.46205 223.87143 169.8052 222.21457 169.8052C220.55772 169.8052 219.21457 168.46205 219.21457 166.8052C219.21457 165.14835 220.55772 163.8052 222.21457 163.8052C223.87143 163.8052 225.21457 165.14835 225.21457 166.8052Z" fill-rule="nonzero"/><path fill="#000000" fill-opacity="0.0" clip-path="url(#id_0)" d="M227.73468 171.52928C227.73468 173.18614 226.39154 174.52928 224.73468 174.52928C223.07784 174.52928 221.73468 173.18614 221.73468 171.52928C221.73468 169.87242 223.07784 168.52928 224.73468 168.52928C226.39154 168.52928 227.73468 169.87242 227.73468 171.52928Z" fill-rule="nonzero"/><path fill="#000000" fill-opacity="0.0" clip-path="url(#id_0)" d="M230.13182 166.06953C230.13182 167.7264 228.78867 169.06953 227.13182 169.06953C225.47496 169.06953 224.13182 167.7264 224.13182 166.06953C224.13182 164.41269 225.47496 163.06953 227.13182 163.06953C228.78867 163.06953 230.13182 164.41269 230.13182 166.06953Z" fill-rule="nonzero"/><path fill="#000000" fill-opacity="0.0" clip-path="url(#id_0)" d="M232.41742 165.37878C232.41742 167.03563 231.07426 168.37878 229.41742 168.37878C227.76056 168.37878 226.41742 167.03563 226.41742 165.37878C226.41742 163.72192 227.76056 162.37878 229.41742 162.37878C231.07426 162.37878 232.41742 163.72192 232.41742 165.37878Z" fill-rule="nonzero"/><path fill="#000000" fill-opacity="0.0" clip-path="url(#id_0)" d="M234.6014 165.37878C234.6014 167.03563 233.25826 168.37878 231.6014 168.37878C229.94453 168.37878 228.6014 167.03563 228.6014 165.37878C228.6014 163.72192 229.94453 162.37878 231.6014 162.37878C233.25826 162.37878 234.6014 163.72192 234.6014 165.37878Z" fill-rule="nonzero"/><path fill="#000000" fill-opacity="0.0" clip-path="url(#id_0)" d="M236.69241 160.49669C236.69241 162.15353 235.34926 163.49669 233.69241 163.49669C232.03555 163.49669 230.69241 162.15353 230.69241 160.49669C230.69241 158.83983 232.03555 157.49669 233.69241 157.49669C235.34926 157.49669 236.69241 158.83983 236.69241 160.49669Z" fill-rule="nonzero"/><path fill="#000000" fill-opacity="0.0" clip-path="url(#id_0)" d="M238.69806 168.44858C238.69806 170.10544 237.3549 171.44858 235.69806 171.44858C234.0412 171.44858 232.69806 170.10544 232.69806 168.44858C232.69806 166.79173 234.0412 165.44858 235.69806 165.44858C237.3549 165.44858 238.69806 166.79173 238.69806 168.44858Z" fill-rule="nonzero"/><path fill="#000000" fill-opacity="0.0" clip-path="url(#id_0)" d="M240.62503 163.94571C240.62503 165.60257 239.28188 166.94571 237.62503 166.94571C235.96817 166.94571 234.62503 165.60257 234.62503 163.94571C234.62503 162.28886 235.96817 160.94571 237.62503 160.94571C239.28188 160.94571 240.62503 162.28886 240.62503 163.94571Z" fill-rule="nonzero"/><path fill="#000000" fill-opacity="0.0" clip-path="url(#id_0)" d="M242.47926 177.03972C242.47926 178.69658 241.13611 180.03972 239.47926 180.03972C237.8224 180.03972 236.47926 178.69658 236.47926 177.03972C236.47926 175.38287 237.8224 174.03972 239.47926 174.03972C241.13611 174.03972 242.47926 175.38287 242.47926 177.03972Z" fill-rule="nonzero"/><path fill="#000000" fill-opacity="0.0" clip-path="url(#id_0)" d="M244.26605 165.92403C244.26605 167.58089 242.92291 168.92403 241.26605 168.92403C239.6092 168.92403 238.26605 167.58089 238.26605 165.92403C238.26605 164.26718 239.6092 162.92403 241.26605 162.92403C242.92291 162.92403 244.26605 164.26718 244.26605 165.92403Z" fill-rule="nonzero"/><path fill="#000000" fill-opacity="0.0" clip-path="url(#id_0)" d="M245.99014 167.84584C245.99014 169.50269 244.647 170.84584 242.99014 170.84584C241.3333 170.84584 239.99014 169.50269 239.99014 167.84584C239.99014 166.18898 241.3333 164.84584 242.99014 164.84584C244.647 164.84584 245.99014 166.18898 245.99014 167.84584Z" fill-rule="nonzero"/><path fill="#000000" fill-opacity="0.0" clip-path="url(#id_0)" d="M247.65578 167.84584C247.65578 169.50269 246.31264 170.84584 244.65578 170.84584C242.99892 170.84584 241.65578 169.50269 241.65578 167.84584C241.65578 166.18898 242.99892 164.84584 244.65578 164.84584C246.31264 164.84584 247.65578 166.18898 247.65578 167.84584Z" fill-rule="nonzero"/><path fill="#000000" fill-opacity="0.0" clip-path="url(#id_0)" d="M249.26678 176.68611C249.26678 178.34297 247.92365 179.68611 246.26678 179.68611C244.60994 179.68611 243.26678 178.34297 243.26678 176.68611C243.26678 175.02925 244.60994 173.68611 246.26678 173.68611C247.92365 173.68611 249.26678 175.02925 249.26678 176.68611Z" fill-rule="nonzero"/><path fill="#000000" fill-opacity="0.0" clip-path="url(#id_0)" d="M250.82664 179.36147C250.82664 181.01831 249.4835 182.36147 247.82664 182.36147C246.1698 182.36147 244.82664 181.01831 244.82664 179.36147C244.82664 177.7046 246.1698 176.36147 247.82664 176.36147C249.4835 176.36147 250.82664 177.7046 250.82664 179.36147Z" fill-rule="nonzero"/><path fill="#000000" fill-opacity="0.0" clip-path="url(#id_0)" d="M252.3385 168.86644C252.3385 170.5233 250.99536 171.86644 249.3385 171.86644C247.68166 171.86644 246.3385 170.5233 246.3385 168.86644C246.3385 167.2096 247.68166 165.86644 249.3385 165.86644C250.99536 165.86644 252.3385 167.2096 252.3385 168.86644Z" fill-rule="nonzero"/><path fill="#000000" fill-opacity="0.0" clip-path="url(#id_0)" d="M253.80522 171.77975C253.80522 173.43661 252.46208 174.77975 250.80522 174.77975C249.14838 174.77975 247.80522 173.43661 247.80522 171.77975C247.80522 170.12291 249.14838 168.77975 250.80522 168.77975C252.46208 168.77975 253.80522 170.12291 253.80522 171.77975Z" fill-rule="nonzero"/><path fill="#000000" fill-opacity="0.0" clip-path="url(#id_0)" d="M255.22943 172.64938C255.22943 174.30624 253.88628 175.64938 252.22943 175.64938C250.57257 175.64938 249.22943 174.30624 249.22943 172.64938C249.22943 170.99254 250.57257 169.64938 252.22943 169.64938C253.88628 169.64938 255.22943 170.99254 255.22943 172.64938Z" fill-rule="nonzero"/><path fill="#000000" fill-opacity="0.0" clip-path="url(#id_0)" d="M265.34323 175.01363C265.34323 176.67049 264.0001 178.01363 262.34323 178.01363C260.68637 178.01363 259.34323 176.67049 259.34323 175.01363C259.34323 173.35677 260.68637 172.01363 262.34323 172.01363C264.0001 172.01363 265.34323 173.35677 265.34323 175.01363Z" fill-rule="nonzero"/><path fill="#000000" fill-opacity="0.0" clip-path="url(#id_0)" d="M271.7608 167.84584C271.7608 169.50269 270.41766 170.84584 268.7608 170.84584C267.10394 170.84584 265.7608 169.50269 265.7608 167.84584C265.7608 166.18898 267.10394 164.84584 268.7608 164.84584C270.41766 164.84584 271.7608 166.18898 271.7608 167.84584Z" fill-rule="nonzero"/><path fill="#000000" fill-opacity="0.0" clip-path="url(#id_0)" d="M272.7534 177.16397C272.7534 178.82082 271.41025 180.16397 269.7534 180.16397C268.09653 180.16397 266.7534 178.82082 266.7534 177.16397C266.7534 175.50711 268.09653 174.16397 269.7534 174.16397C271.41025 174.16397 272.7534 175.50711 272.7534 177.16397Z" fill-rule="nonzero"/><path fill="#000000" fill-opacity="0.0" clip-path="url(#id_0)" d="M273.72632 175.01363C273.72632 176.67049 272.38318 178.01363 270.72632 178.01363C269.06946 178.01363 267.72632 176.67049 267.72632 175.01363C267.72632 173.35677 269.06946 172.01363 270.72632 172.01363C272.38318 172.01363 273.72632 173.35677 273.72632 175.01363Z" fill-rule="nonzero"/><path fill="#000000" fill-opacity="0.0" clip-path="url(#id_0)" d="M274.68036 171.52928C274.68036 173.18614 273.33722 174.52928 271.68036 174.52928C270.0235 174.52928 268.68036 173.18614 268.68036 171.52928C268.68036 169.87242 270.0235 168.52928 271.68036 168.52928C273.33722 168.52928 274.68036 169.87242 274.68036 171.52928Z" fill-rule="nonzero"/><path fill="#000000" fill-opacity="0.0" clip-path="url(#id_0)" d="M275.6162 171.52928C275.6162 173.18614 274.27307 174.52928 272.6162 174.52928C270.95935 174.52928 269.6162 173.18614 269.6162 171.52928C269.6162 169.87242 270.95935 168.52928 272.6162 168.52928C274.27307 168.52928 275.6162 169.87242 275.6162 171.52928Z" fill-rule="nonzero"/><path fill="#000000" fill-opacity="0.0" clip-path="url(#id_0)" d="M280.88535 178.31459C280.88535 179.97144 279.5422 181.31459 277.88535 181.31459C276.2285 181.31459 274.88535 179.97144 274.88535 178.31459C274.88535 176.65773 276.2285 175.31459 277.88535 175.31459C279.5422 175.31459 280.88535 176.65773 280.88535 178.31459Z" fill-rule="nonzero"/><path fill="#000000" fill-opacity="0.0" clip-path="url(#id_0)" d="M281.71112 171.52928C281.71112 173.18614 280.36795 174.52928 278.71112 174.52928C277.05426 174.52928 275.71112 173.18614 275.71112 171.52928C275.71112 169.87242 277.05426 168.52928 278.71112 168.52928C280.36795 168.52928 281.71112 169.87242 281.71112 171.52928Z" fill-rule="nonzero"/><path fill="#000000" fill-opacity="0.0" clip-path="url(#id_0)" d="M282.52322 174.29684C282.52322 175.9537 281.18008 177.29684 279.52322 177.29684C277.86636 177.29684 276.52322 175.9537 276.52322 174.29684C276.52322 172.64 277.86636 171.29684 279.52322 171.29684C281.18008 171.29684 282.52322 172.64 282.52322 174.29684Z" fill-rule="nonzero"/><path fill="#000000" fill-opacity="0.0" clip-path="url(#id_0)" d="M283.3221 167.08809C283.3221 168.74495 281.97897 170.08809 280.3221 170.08809C278.66525 170.08809 277.3221 168.74495 277.3221 167.08809C277.3221 165.43124 278.66525 164.08809 280.3221 164.08809C281.97897 164.08809 283.3221 165.43124 283.3221 167.08809Z" fill-rule="nonzero"/><path fill="#000000" fill-opacity="0.0" clip-path="url(#id_0)" d="M284.10825 167.84584C284.10825 169.50269 282.7651 170.84584 281.10825 170.84584C279.4514 170.84584 278.10825 169.50269 278.10825 167.84584C278.10825 166.18898 279.4514 164.84584 281.10825 164.84584C282.7651 164.84584 284.10825 166.18898 284.10825 167.84584Z" fill-rule="nonzero"/><path fill="#000000" fill-opacity="0.0" clip-path="url(#id_0)" d="M284.882 155.4142C284.882 157.07104 283.53882 158.4142 281.882 158.4142C280.22513 158.4142 278.882 157.07104 278.882 155.4142C278.882 153.75734 280.22513 152.4142 281.882 152.4142C283.53882 152.4142 284.882 153.75734 284.882 155.4142Z" fill-rule="nonzero"/><path fill="#000000" fill-opacity="0.0" clip-path="url(#id_0)" d="M285.6437 172.26598C285.6437 173.92282 284.30057 175.26598 282.6437 175.26598C280.98688 175.26598 279.6437 173.92282 279.6437 172.26598C279.6437 170.60912 280.98688 169.26598 282.6437 169.26598C284.30057 169.26598 285.6437 170.60912 285.6437 172.26598Z" fill-rule="nonzero"/><path fill="#000000" fill-opacity="0.0" clip-path="url(#id_0)" d="M286.39383 179.0125C286.39383 180.66936 285.0507 182.0125 283.39383 182.0125C281.73697 182.0125 280.39383 180.66936 280.39383 179.0125C280.39383 177.35565 281.73697 176.0125 283.39383 176.0125C285.0507 176.0125 286.39383 177.35565 286.39383 179.0125Z" fill-rule="nonzero"/><path fill="#000000" fill-opacity="0.0" clip-path="url(#id_0)" d="M287.13266 170.79259C287.13266 172.44945 285.78952 173.79259 284.13266 173.79259C282.4758 173.79259 281.13266 172.44945 281.13266 170.79259C281.13266 169.13574 282.4758 167.79259 284.13266 167.79259C285.78952 167.79259 287.13266 169.13574 287.13266 170.79259Z" fill-rule="nonzero"/><path fill="#000000" fill-opacity="0.0" clip-path="url(#id_0)" d="M295.22733 177.61667C295.22733 179.27351 293.8842 180.61667 292.22733 180.61667C290.57047 180.61667 289.22733 179.27351 289.22733 177.61667C289.22733 175.95981 290.57047 174.61667 292.22733 174.61667C293.8842 174.61667 295.22733 175.95981 295.22733 177.61667Z" fill-rule="nonzero"/><path fill="#000000" fill-opacity="0.0" clip-path="url(#id_0)" d="M318.55197 170.79259C318.55197 172.44945 317.2088 173.79259 315.55197 173.79259C313.8951 173.79259 312.55197 172.44945 312.55197 170.79259C312.55197 169.13574 313.8951 167.79259 315.55197 167.79259C317.2088 167.79259 318.55197 169.13574 318.55197 170.79259Z" fill-rule="nonzero"/><path fill="#000000" fill-opacity="0.0" clip-path="url(#id_0)" d="M318.93732 144.86111C318.93732 146.51796 317.59418 147.86111 315.93732 147.86111C314.28046 147.86111 312.93732 146.51796 312.93732 144.86111C312.93732 143.20425 314.28046 141.86111 315.93732 141.86111C317.59418 141.86111 318.93732 143.20425 318.93732 144.86111Z" fill-rule="nonzero"/><path fill="#000000" fill-opacity="0.0" clip-path="url(#id_0)" d="M319.31964 176.68611C319.31964 178.34297 317.9765 179.68611 316.31964 179.68611C314.6628 179.68611 313.31964 178.34297 313.31964 176.68611C313.31964 175.02925 314.6628 173.68611 316.31964 173.68611C317.9765 173.68611 319.31964 175.02925 319.31964 176.68611Z" fill-rule="nonzero"/><path fill="#000000" fill-opacity="0.0" clip-path="url(#id_0)" d="M319.69907 170.79259C319.69907 172.44945 318.3559 173.79259 316.69907 173.79259C315.0422 173.79259 313.69907 172.44945 313.69907 170.79259C313.69907 169.13574 315.0422 167.79259 316.69907 167.79259C318.3559 167.79259 319.69907 169.13574 319.69907 170.79259Z" fill-rule="nonzero"/><path fill="#000000" fill-opacity="0.0" clip-path="url(#id_0)" d="M320.07553 144.86111C320.07553 146.51796 318.7324 147.86111 317.07553 147.86111C315.41867 147.86111 314.07553 146.51796 314.07553 144.86111C314.07553 143.20425 315.41867 141.86111 317.07553 141.86111C318.7324 141.86111 320.07553 143.20425 320.07553 144.86111Z" fill-rule="nonzero"/><path fill="#000000" fill-opacity="0.0" clip-path="url(#id_0)" d="M320.44916 170.79259C320.44916 172.44945 319.10602 173.79259 317.44916 173.79259C315.7923 173.79259 314.44916 172.44945 314.44916 170.79259C314.44916 169.13574 315.7923 167.79259 317.44916 167.79259C319.10602 167.79259 320.44916 169.13574 320.44916 170.79259Z" fill-rule="nonzero"/><path fill="#000000" fill-opacity="0.0" clip-path="url(#id_0)" d="M320.81998 179.0125C320.81998 180.66936 319.47684 182.0125 317.81998 182.0125C316.16312 182.0125 314.81998 180.66936 314.81998 179.0125C314.81998 177.35565 316.16312 176.0125 317.81998 176.0125C319.47684 176.0125 320.81998 177.35565 320.81998 179.0125Z" fill-rule="nonzero"/><path fill="#000000" fill-opacity="0.0" clip-path="url(#id_0)" d="M340.1215 175.21274C340.1215 176.86958 338.77835 178.21274 337.1215 178.21274C335.46463 178.21274 334.1215 176.86958 334.1215 175.21274C334.1215 173.55588 335.46463 172.21274 337.1215 172.21274C338.77835 172.21274 340.1215 173.55588 340.1215 175.21274Z" fill-rule="nonzero"/><path fill="#000000" fill-opacity="0.0" clip-path="url(#id_0)" d="M352.99265 177.61667C352.99265 179.27351 351.6495 180.61667 349.99265 180.61667C348.3358 180.61667 346.99265 179.27351 346.99265 177.61667C346.99265 175.95981 348.3358 174.61667 349.99265 174.61667C351.6495 174.61667 352.99265 175.95981 352.99265 177.61667Z" fill-rule="nonzero"/><path fill="#000000" fill-opacity="0.0" clip-path="url(#id_0)" d="M357.57056 180.40834C357.57056 182.06519 356.22742 183.40834 354.57056 183.40834C352.91373 183.40834 351.57056 182.06519 351.57056 180.40834C351.57056 178.75148 352.91373 177.40834 354.57056 177.40834C356.22742 177.40834 357.57056 178.75148 357.57056 180.40834Z" fill-rule="nonzero"/><path fill="#000000" fill-opacity="0.0" clip-path="url(#id_0)" d="M387.04797 176.22084C387.04797 177.87769 385.70483 179.22084 384.04797 179.22084C382.3911 179.22084 381.04797 177.87769 381.04797 176.22084C381.04797 174.56398 382.3911 173.22084 384.04797 173.22084C385.70483 173.22084 387.04797 174.56398 387.04797 176.22084Z" fill-rule="nonzero"/><path fill="#000000" fill-opacity="0.0" clip-path="url(#id_0)" d="M395.89362 172.26598C395.89362 173.92282 394.55048 175.26598 392.89362 175.26598C391.23676 175.26598 389.89362 173.92282 389.89362 172.26598C389.89362 170.60912 391.23676 169.26598 392.89362 169.26598C394.55048 169.26598 395.89362 170.60912 395.89362 172.26598Z" fill-rule="nonzero"/><path fill="#000000" fill-opacity="0.0" clip-path="url(#id_0)" d="M421.1033 163.16568C421.1033 164.82254 419.76016 166.16568 418.1033 166.16568C416.44644 166.16568 415.1033 164.82254 415.1033 163.16568C415.1033 161.50883 416.44644 160.16568 418.1033 160.16568C419.76016 160.16568 421.1033 161.50883 421.1033 163.16568Z" fill-rule="nonzero"/><path fill="#000000" fill-opacity="0.0" clip-path="url(#id_0)" d="M442.38092 176.68611C442.38092 178.34297 441.03778 179.68611 439.38092 179.68611C437.72406 179.68611 436.38092 178.34297 436.38092 176.68611C436.38092 175.02925 437.72406 173.68611 439.38092 173.68611C441.03778 173.68611 442.38092 175.02925 442.38092 176.68611Z" fill-rule="nonzero"/><path fill="#000000" fill-opacity="0.0" clip-path="url(#id_0)" d="M455.15863 172.26598C455.15863 173.92282 453.8155 175.26598 452.15863 175.26598C450.50177 175.26598 449.15863 173.92282 449.15863 172.26598C449.15863 170.60912 450.50177 169.26598 452.15863 169.26598C453.8155 169.26598 455.15863 170.60912 455.15863 172.26598Z" fill-rule="nonzero"/><path fill="#000000" fill-opacity="0.0" clip-path="url(#id_0)" d="M472.198 170.79259C472.198 172.44945 470.85486 173.79259 469.198 173.79259C467.54114 173.79259 466.198 172.44945 466.198 170.79259C466.198 169.13574 467.54114 167.79259 469.198 167.79259C470.85486 167.79259 472.198 169.13574 472.198 170.79259Z" fill-rule="nonzero"/><path fill="#000000" fill-opacity="0.0" clip-path="url(#id_0)" d="M489.21396 167.84584C489.21396 169.50269 487.87082 170.84584 486.21396 170.84584C484.5571 170.84584 483.21396 169.50269 483.21396 167.84584C483.21396 166.18898 484.5571 164.84584 486.21396 164.84584C487.87082 164.84584 489.21396 166.18898 489.21396 167.84584Z" fill-rule="nonzero"/><path fill="#000000" fill-opacity="0.0" clip-path="url(#id_0)" d="M499.80164 179.0125C499.80164 180.66936 498.4585 182.0125 496.80164 182.0125C495.1448 182.0125 493.80164 180.66936 493.80164 179.0125C493.80164 177.35565 495.1448 176.0125 496.80164 176.0125C498.4585 176.0125 499.80164 177.35565 499.80164 179.0125Z" fill-rule="nonzero"/><path fill="#000000" fill-opacity="0.0" clip-path="url(#id_0)" d="M523.2693 163.16568C523.2693 164.82254 521.92615 166.16568 520.2693 166.16568C518.6124 166.16568 517.2693 164.82254 517.2693 163.16568C517.2693 161.50883 518.6124 160.16568 520.2693 160.16568C521.92615 160.16568 523.2693 161.50883 523.2693 163.16568Z" fill-rule="nonzero"/><path fill="#000000" fill-opacity="0.0" clip-path="url(#id_0)" d="M528.45 131.85327C528.45 133.51013 527.1069 134.85327 525.45 134.85327C523.79315 134.85327 522.45 133.51013 522.45 131.85327C522.45 130.19643 523.79315 128.85327 525.45 128.85327C527.1069 128.85327 528.45 130.19643 528.45 131.85327Z" fill-rule="nonzero"/><path fill="#000000" d="M270.54688 346.6844L271.60938 346.59064Q271.6875 347.2469 271.96875 347.65314Q272.25 348.0594 272.82812 348.325Q273.42188 348.575 274.15625 348.575Q274.79688 348.575 275.29688 348.3875Q275.79688 348.1844 276.03125 347.85626Q276.28125 347.5125 276.28125 347.1219Q276.28125 346.71564 276.04688 346.41876Q275.8125 346.10626 275.28125 345.90314Q274.92188 345.7625 273.73438 345.48126Q272.5625 345.2 272.09375 344.95Q271.46875 344.6219 271.17188 344.15314Q270.875 343.66876 270.875 343.075Q270.875 342.4344 271.23438 341.8719Q271.60938 341.29376 272.3125 341.0125Q273.03125 340.71564 273.89062 340.71564Q274.84375 340.71564 275.57812 341.02814Q276.3125 341.325 276.70312 341.9344Q277.09375 342.52814 277.125 343.27814L276.03125 343.35626Q275.9375 342.54376 275.42188 342.1375Q274.92188 341.71564 273.9375 341.71564Q272.90625 341.71564 272.4375 342.09064Q271.96875 342.46564 271.96875 342.9969Q271.96875 343.46564 272.29688 343.7625Q272.625 344.0594 274.0 344.3719Q275.39062 344.6844 275.90625 344.91876Q276.65625 345.27814 277.01562 345.8094Q277.375 346.325 277.375 347.02814Q277.375 347.71564 276.98438 348.325Q276.59375 348.91876 275.85938 349.2625Q275.125 349.59064 274.20312 349.59064Q273.03125 349.59064 272.23438 349.2625Q271.45312 348.91876 271.0 348.23126Q270.5625 347.54376 270.54688 346.6844ZM278.79688 342.075L278.79688 340.85626L279.85938 340.85626L279.85938 342.075L278.79688 342.075ZM278.79688 349.45L278.79688 343.23126L279.85938 343.23126L279.85938 349.45L278.79688 349.45ZM281.23438 349.45L281.23438 348.59064L285.20312 344.04376Q284.51562 344.075 284.0 344.075L281.46875 344.075L281.46875 343.23126L286.5625 343.23126L286.5625 343.91876L283.1875 347.8719L282.53125 348.59064Q283.25 348.54376 283.85938 348.54376L286.75 348.54376L286.75 349.45L281.23438 349.45ZM291.04688 347.45L292.14062 347.575Q291.89062 348.52814 291.1875 349.0594Q290.48438 349.59064 289.40625 349.59064Q288.04688 349.59064 287.23438 348.7469Q286.4375 347.90314 286.4375 346.3875Q286.4375 344.825 287.25 343.96564Q288.0625 343.09064 289.34375 343.09064Q290.59375 343.09064 291.375 343.9344Q292.17188 344.77814 292.17188 346.325Q292.17188 346.41876 292.17188 346.60626L287.53125 346.60626Q287.59375 347.6375 288.10938 348.1844Q288.625 348.71564 289.40625 348.71564Q289.98438 348.71564 290.39062 348.41876Q290.8125 348.10626 291.04688 347.45ZM287.59375 345.7469L291.0625 345.7469Q291.0 344.95 290.67188 344.5594Q290.15625 343.95 289.35938 343.95Q288.625 343.95 288.125 344.4344Q287.64062 344.91876 287.59375 345.7469ZM298.8125 351.98126Q297.9375 350.8719 297.32812 349.40314Q296.73438 347.91876 296.73438 346.34064Q296.73438 344.95 297.17188 343.66876Q297.70312 342.1844 298.8125 340.71564L299.5625 340.71564Q298.85938 341.9344 298.625 342.45Q298.26562 343.2625 298.0625 344.1375Q297.8125 345.23126 297.8125 346.34064Q297.8125 349.16876 299.5625 351.98126L298.8125 351.98126ZM301.76562 349.45L300.78125 349.45L300.78125 340.85626L301.84375 340.85626L301.84375 343.91876Q302.51562 343.09064 303.54688 343.09064Q304.125 343.09064 304.625 343.325Q305.14062 343.54376 305.46875 343.96564Q305.8125 344.3875 306.0 344.98126Q306.1875 345.575 306.1875 346.2469Q306.1875 347.84064 305.39062 348.71564Q304.59375 349.59064 303.5 349.59064Q302.39062 349.59064 301.76562 348.66876L301.76562 349.45ZM301.75 346.29376Q301.75 347.40314 302.0625 347.90314Q302.5625 348.71564 303.40625 348.71564Q304.09375 348.71564 304.59375 348.1219Q305.10938 347.52814 305.10938 346.325Q305.10938 345.10626 304.625 344.52814Q304.14062 343.95 303.45312 343.95Q302.76562 343.95 302.25 344.5594Q301.75 345.15314 301.75 346.29376ZM307.75 351.84064L307.625 350.85626Q307.96875 350.95 308.23438 350.95Q308.57812 350.95 308.78125 350.825Q309.0 350.71564 309.14062 350.5125Q309.23438 350.34064 309.46875 349.71564Q309.48438 349.6375 309.5625 349.46564L307.1875 343.23126L308.32812 343.23126L309.625 346.825Q309.875 347.5125 310.07812 348.27814Q310.26562 347.54376 310.51562 346.85626L311.84375 343.23126L312.89062 343.23126L310.53125 349.5594Q310.14062 350.575 309.9375 350.96564Q309.65625 351.4969 309.28125 351.73126Q308.92188 351.98126 308.42188 351.98126Q308.125 351.98126 307.75 351.84064ZM315.09375 348.5125L315.25 349.4344Q314.79688 349.52814 314.45312 349.52814Q313.875 349.52814 313.5625 349.35626Q313.25 349.16876 313.10938 348.8719Q312.98438 348.575 312.98438 347.6219L312.98438 344.04376L312.21875 344.04376L312.21875 343.23126L312.98438 343.23126L312.98438 341.6844L314.03125 341.0594L314.03125 343.23126L315.09375 343.23126L315.09375 344.04376L314.03125 344.04376L314.03125 347.6844Q314.03125 348.1375 314.07812 348.2625Q314.14062 348.3875 314.26562 348.46564Q314.39062 348.54376 314.625 348.54376Q314.8125 348.54376 315.09375 348.5125ZM320.04688 347.45L321.14062 347.575Q320.89062 348.52814 320.1875 349.0594Q319.48438 349.59064 318.40625 349.59064Q317.04688 349.59064 316.23438 348.7469Q315.4375 347.90314 315.4375 346.3875Q315.4375 344.825 316.25 343.96564Q317.0625 343.09064 318.34375 343.09064Q319.59375 343.09064 320.375 343.9344Q321.17188 344.77814 321.17188 346.325Q321.17188 346.41876 321.17188 346.60626L316.53125 346.60626Q316.59375 347.6375 317.10938 348.1844Q317.625 348.71564 318.40625 348.71564Q318.98438 348.71564 319.39062 348.41876Q319.8125 348.10626 320.04688 347.45ZM316.59375 345.7469L320.0625 345.7469Q320.0 344.95 319.67188 344.5594Q319.15625 343.95 318.35938 343.95Q317.625 343.95 317.125 344.4344Q316.64062 344.91876 316.59375 345.7469ZM322.375 347.59064L323.40625 347.4344Q323.5 348.0594 323.89062 348.3875Q324.29688 348.71564 325.03125 348.71564Q325.75 348.71564 326.09375 348.4344Q326.45312 348.1375 326.45312 347.73126Q326.45312 347.3719 326.14062 347.16876Q325.92188 347.02814 325.0625 346.8094Q323.90625 346.5125 323.45312 346.3094Q323.01562 346.09064 322.78125 345.71564Q322.54688 345.34064 322.54688 344.8719Q322.54688 344.46564 322.73438 344.10626Q322.92188 343.7469 323.25 343.5125Q323.5 343.34064 323.92188 343.21564Q324.34375 343.09064 324.84375 343.09064Q325.5625 343.09064 326.10938 343.3094Q326.67188 343.5125 326.9375 343.8719Q327.20312 344.23126 327.29688 344.825L326.26562 344.96564Q326.20312 344.4969 325.85938 344.23126Q325.53125 343.95 324.90625 343.95Q324.1875 343.95 323.875 344.2Q323.5625 344.4344 323.5625 344.7625Q323.5625 344.96564 323.6875 345.1219Q323.82812 345.29376 324.09375 345.40314Q324.25 345.46564 325.03125 345.66876Q326.15625 345.98126 326.59375 346.16876Q327.03125 346.35626 327.28125 346.71564Q327.53125 347.075 327.53125 347.6219Q327.53125 348.15314 327.21875 348.6219Q326.92188 349.075 326.34375 349.34064Q325.76562 349.59064 325.03125 349.59064Q323.8125 349.59064 323.17188 349.09064Q322.54688 348.575 322.375 347.59064ZM330.48438 351.98126L329.73438 351.98126Q331.48438 349.16876 331.48438 346.34064Q331.48438 345.2469 331.23438 344.15314Q331.03125 343.27814 330.67188 342.46564Q330.4375 341.95 329.73438 340.71564L330.48438 340.71564Q331.57812 342.1844 332.10938 343.66876Q332.5625 344.95 332.5625 346.34064Q332.5625 347.91876 331.95312 349.40314Q331.34375 350.8719 330.48438 351.98126Z" fill-rule="nonzero"/><path fill="#000000" d="M27.690638 282.49167L27.534388 281.46042Q28.159388 281.36667 28.487513 280.97604Q28.815638 280.5698 28.815638 279.83542Q28.815638 279.11667 28.534388 278.77292Q28.237513 278.41354 27.831263 278.41354Q27.471888 278.41354 27.268763 278.72604Q27.128138 278.9448 26.909388 279.80417Q26.612513 280.96042 26.409388 281.41354Q26.190638 281.85104 25.815638 282.08542Q25.440638 282.3198 24.971888 282.3198Q24.565638 282.3198 24.206263 282.1323Q23.846888 281.9448 23.612513 281.61667Q23.440638 281.36667 23.315638 280.9448Q23.190638 280.52292 23.190638 280.02292Q23.190638 279.30417 23.409388 278.7573Q23.612513 278.1948 23.971888 277.92917Q24.331263 277.66354 24.925013 277.5698L25.065638 278.60104Q24.596888 278.66354 24.331263 279.0073Q24.050013 279.33542 24.050013 279.96042Q24.050013 280.67917 24.300013 280.99167Q24.534388 281.30417 24.862513 281.30417Q25.065638 281.30417 25.221888 281.17917Q25.393763 281.03854 25.503138 280.77292Q25.565638 280.61667 25.768763 279.83542Q26.081263 278.71042 26.268763 278.27292Q26.456263 277.83542 26.815638 277.58542Q27.175013 277.33542 27.721888 277.33542Q28.253138 277.33542 28.721888 277.64792Q29.175013 277.9448 29.440638 278.52292Q29.690638 279.10104 29.690638 279.83542Q29.690638 281.05417 29.190638 281.6948Q28.675013 282.3198 27.690638 282.49167ZM31.940638 275.0698L23.331263 275.0698L23.331263 274.11667L24.128138 274.11667Q23.659388 273.77292 23.425013 273.35104Q23.190638 272.91354 23.190638 272.30417Q23.190638 271.5073 23.596888 270.89792Q24.003138 270.28854 24.753138 269.99167Q25.503138 269.67917 26.393763 269.67917Q27.346888 269.67917 28.112513 270.02292Q28.878138 270.35104 29.284388 271.0073Q29.690638 271.66354 29.690638 272.3823Q29.690638 272.91354 29.471888 273.33542Q29.237513 273.7573 28.909388 274.02292L31.940638 274.02292L31.940638 275.0698ZM26.471888 274.11667Q27.675013 274.11667 28.253138 273.6323Q28.815638 273.14792 28.815638 272.46042Q28.815638 271.7573 28.221888 271.2573Q27.628138 270.7573 26.378138 270.7573Q25.190638 270.7573 24.612513 271.24167Q24.018763 271.72604 24.018763 272.41354Q24.018763 273.08542 24.643763 273.60104Q25.268763 274.11667 26.471888 274.11667ZM27.550013 263.8198L27.675013 262.72604Q28.628138 262.97604 29.159388 263.67917Q29.690638 264.3823 29.690638 265.46042Q29.690638 266.8198 28.846888 267.6323Q28.003138 268.42917 26.487513 268.42917Q24.925013 268.42917 24.065638 267.61667Q23.190638 266.80417 23.190638 265.52292Q23.190638 264.27292 24.034388 263.49167Q24.878138 262.6948 26.425013 262.6948Q26.518763 262.6948 26.706263 262.6948L26.706263 267.33542Q27.737513 267.27292 28.284388 266.7573Q28.815638 266.24167 28.815638 265.46042Q28.815638 264.8823 28.518763 264.47604Q28.206263 264.05417 27.550013 263.8198ZM25.846888 267.27292L25.846888 263.80417Q25.050013 263.86667 24.659388 264.1948Q24.050013 264.71042 24.050013 265.5073Q24.050013 266.24167 24.534388 266.74167Q25.018763 267.22604 25.846888 267.27292ZM27.550013 256.8198L27.675013 255.72604Q28.628138 255.97604 29.159388 256.67917Q29.690638 257.3823 29.690638 258.46042Q29.690638 259.8198 28.846888 260.6323Q28.003138 261.42917 26.487513 261.42917Q24.925013 261.42917 24.065638 260.61667Q23.190638 259.80417 23.190638 258.52292Q23.190638 257.27292 24.034388 256.49167Q24.878138 255.6948 26.425013 255.6948Q26.518763 255.6948 26.706263 255.6948L26.706263 260.33542Q27.737513 260.27292 28.284388 259.7573Q28.815638 259.24167 28.815638 258.46042Q28.815638 257.8823 28.518763 257.47604Q28.206263 257.05417 27.550013 256.8198ZM25.846888 260.27292L25.846888 256.80417Q25.050013 256.86667 24.659388 257.1948Q24.050013 257.71042 24.050013 258.5073Q24.050013 259.24167 24.534388 259.74167Q25.018763 260.22604 25.846888 260.27292ZM29.550013 250.03854L28.768763 250.03854Q29.690638 250.6323 29.690638 251.77292Q29.690638 252.52292 29.284388 253.14792Q28.862513 253.77292 28.128138 254.11667Q27.393763 254.46042 26.440638 254.46042Q25.518763 254.46042 24.753138 254.14792Q23.987513 253.83542 23.596888 253.21042Q23.190638 252.58542 23.190638 251.8198Q23.190638 251.2573 23.425013 250.8198Q23.659388 250.3823 24.034388 250.10104L20.956263 250.10104L20.956263 249.05417L29.550013 249.05417L29.550013 250.03854ZM26.440638 253.36667Q27.643763 253.36667 28.237513 252.86667Q28.815638 252.36667 28.815638 251.67917Q28.815638 250.99167 28.253138 250.5073Q27.690638 250.02292 26.534388 250.02292Q25.253138 250.02292 24.659388 250.52292Q24.065638 251.0073 24.065638 251.72604Q24.065638 252.42917 24.643763 252.89792Q25.206263 253.36667 26.440638 253.36667ZM29.550013 239.99167L28.628138 239.99167Q29.690638 240.72604 29.690638 241.97604Q29.690638 242.52292 29.487513 243.0073Q29.268763 243.47604 28.956263 243.71042Q28.628138 243.9448 28.159388 244.03854Q27.862513 244.10104 27.175013 244.10104L23.331263 244.10104L23.331263 243.03854L26.784388 243.03854Q27.596888 243.03854 27.893763 242.97604Q28.300013 242.8823 28.550013 242.5698Q28.784388 242.24167 28.784388 241.7573Q28.784388 241.28854 28.550013 240.8823Q28.300013 240.46042 27.878138 240.28854Q27.456263 240.10104 26.659388 240.10104L23.331263 240.10104L23.331263 239.05417L29.550013 239.05417L29.550013 239.99167ZM31.940638 237.0698L23.331263 237.0698L23.331263 236.11667L24.128138 236.11667Q23.659388 235.77292 23.425013 235.35104Q23.190638 234.91354 23.190638 234.30417Q23.190638 233.5073 23.596888 232.89792Q24.003138 232.28854 24.753138 231.99167Q25.503138 231.67917 26.393763 231.67917Q27.346888 231.67917 28.112513 232.02292Q28.878138 232.35104 29.284388 233.0073Q29.690638 233.66354 29.690638 234.3823Q29.690638 234.91354 29.471888 235.33542Q29.237513 235.7573 28.909388 236.02292L31.940638 236.02292L31.940638 237.0698ZM26.471888 236.11667Q27.675013 236.11667 28.253138 235.6323Q28.815638 235.14792 28.815638 234.46042Q28.815638 233.7573 28.221888 233.2573Q27.628138 232.7573 26.378138 232.7573Q25.190638 232.7573 24.612513 233.24167Q24.018763 233.72604 24.018763 234.41354Q24.018763 235.08542 24.643763 235.60104Q25.268763 236.11667 26.471888 236.11667ZM26.440638 227.46042Q24.706263 227.46042 23.878138 226.5073Q23.190638 225.71042 23.190638 224.55417Q23.190638 223.27292 24.034388 222.46042Q24.862513 221.6323 26.346888 221.6323Q27.550013 221.6323 28.237513 221.99167Q28.925013 222.35104 29.315638 223.05417Q29.690638 223.74167 29.690638 224.55417Q29.690638 225.85104 28.862513 226.66354Q28.018763 227.46042 26.440638 227.46042ZM26.440638 226.3823Q27.628138 226.3823 28.221888 225.86667Q28.815638 225.33542 28.815638 224.55417Q28.815638 223.7573 28.221888 223.24167Q27.628138 222.72604 26.409388 222.72604Q25.253138 222.72604 24.659388 223.2573Q24.065638 223.77292 24.065638 224.55417Q24.065638 225.33542 24.659388 225.86667Q25.237513 226.3823 26.440638 226.3823ZM29.550013 218.35104L23.331263 220.71042L23.331263 219.60104L27.050013 218.2573Q27.659388 218.05417 28.300013 217.86667Q27.815638 217.72604 27.128138 217.47604L23.331263 216.08542L23.331263 215.0073L29.550013 217.36667L29.550013 218.35104ZM27.550013 210.8198L27.675013 209.72604Q28.628138 209.97604 29.159388 210.67917Q29.690638 211.3823 29.690638 212.46042Q29.690638 213.8198 28.846888 214.6323Q28.003138 215.42917 26.487513 215.42917Q24.925013 215.42917 24.065638 214.61667Q23.190638 213.80417 23.190638 212.52292Q23.190638 211.27292 24.034388 210.49167Q24.878138 209.6948 26.425013 209.6948Q26.518763 209.6948 26.706263 209.6948L26.706263 214.33542Q27.737513 214.27292 28.284388 213.7573Q28.815638 213.24167 28.815638 212.46042Q28.815638 211.8823 28.518763 211.47604Q28.206263 211.05417 27.550013 210.8198ZM25.846888 214.27292L25.846888 210.80417Q25.050013 210.86667 24.659388 211.1948Q24.050013 211.71042 24.050013 212.5073Q24.050013 213.24167 24.534388 213.74167Q25.018763 214.22604 25.846888 214.27292ZM29.550013 208.08542L23.331263 208.08542L23.331263 207.1323L24.268763 207.1323Q23.612513 206.77292 23.409388 206.47604Q23.190638 206.16354 23.190638 205.78854Q23.190638 205.2573 23.518763 204.71042L24.503138 205.0698Q24.268763 205.46042 24.268763 205.83542Q24.268763 206.1948 24.487513 206.47604Q24.690638 206.74167 25.065638 206.85104Q25.628138 207.03854 26.284388 207.03854L29.550013 207.03854L29.550013 208.08542ZM29.550013 200.10104L29.550013 201.08542L20.956263 201.08542L20.956263 200.02292L24.018763 200.02292Q23.190638 199.35104 23.190638 198.3198Q23.190638 197.74167 23.425013 197.24167Q23.643763 196.72604 24.065638 196.39792Q24.487513 196.05417 25.081263 195.86667Q25.675013 195.67917 26.346888 195.67917Q27.940638 195.67917 28.815638 196.47604Q29.690638 197.27292 29.690638 198.36667Q29.690638 199.47604 28.768763 200.10104L29.550013 200.10104ZM26.393763 200.11667Q27.503138 200.11667 28.003138 199.80417Q28.815638 199.30417 28.815638 198.46042Q28.815638 197.77292 28.221888 197.27292Q27.628138 196.7573 26.425013 196.7573Q25.206263 196.7573 24.628138 197.24167Q24.050013 197.72604 24.050013 198.41354Q24.050013 199.10104 24.659388 199.61667Q25.253138 200.11667 26.393763 200.11667ZM28.784388 190.0073Q29.284388 190.60104 29.487513 191.14792Q29.690638 191.67917 29.690638 192.30417Q29.690638 193.33542 29.190638 193.8823Q28.690638 194.42917 27.909388 194.42917Q27.456263 194.42917 27.081263 194.22604Q26.690638 194.02292 26.471888 193.67917Q26.237513 193.33542 26.128138 192.91354Q26.034388 192.61667 25.956263 191.97604Q25.815638 190.71042 25.596888 190.10104Q25.378138 190.10104 25.331263 190.10104Q24.675013 190.10104 24.409388 190.39792Q24.065638 190.80417 24.065638 191.60104Q24.065638 192.33542 24.331263 192.6948Q24.581263 193.05417 25.237513 193.22604L25.096888 194.2573Q24.440638 194.11667 24.034388 193.78854Q23.628138 193.46042 23.409388 192.85104Q23.190638 192.24167 23.190638 191.4448Q23.190638 190.64792 23.378138 190.14792Q23.565638 189.64792 23.846888 189.41354Q24.128138 189.17917 24.565638 189.08542Q24.831263 189.03854 25.534388 189.03854L26.940638 189.03854Q28.409388 189.03854 28.800013 188.97604Q29.190638 188.89792 29.550013 188.6948L29.550013 189.80417Q29.221888 189.96042 28.784388 190.0073ZM26.425013 190.10104Q26.659388 190.67917 26.831263 191.8198Q26.925013 192.47604 27.050013 192.74167Q27.159388 193.0073 27.378138 193.16354Q27.596888 193.30417 27.878138 193.30417Q28.300013 193.30417 28.581263 192.99167Q28.862513 192.66354 28.862513 192.05417Q28.862513 191.4448 28.596888 190.97604Q28.331263 190.49167 27.862513 190.27292Q27.503138 190.10104 26.815638 190.10104L26.425013 190.10104ZM27.690638 187.49167L27.534388 186.46042Q28.159388 186.36667 28.487513 185.97604Q28.815638 185.5698 28.815638 184.83542Q28.815638 184.11667 28.534388 183.77292Q28.237513 183.41354 27.831263 183.41354Q27.471888 183.41354 27.268763 183.72604Q27.128138 183.9448 26.909388 184.80417Q26.612513 185.96042 26.409388 186.41354Q26.190638 186.85104 25.815638 187.08542Q25.440638 187.3198 24.971888 187.3198Q24.565638 187.3198 24.206263 187.1323Q23.846888 186.9448 23.612513 186.61667Q23.440638 186.36667 23.315638 185.9448Q23.190638 185.52292 23.190638 185.02292Q23.190638 184.30417 23.409388 183.7573Q23.612513 183.1948 23.971888 182.92917Q24.331263 182.66354 24.925013 182.5698L25.065638 183.60104Q24.596888 183.66354 24.331263 184.0073Q24.050013 184.33542 24.050013 184.96042Q24.050013 185.67917 24.300013 185.99167Q24.534388 186.30417 24.862513 186.30417Q25.065638 186.30417 25.221888 186.17917Q25.393763 186.03854 25.503138 185.77292Q25.565638 185.61667 25.768763 184.83542Q26.081263 183.71042 26.268763 183.27292Q26.456263 182.83542 26.815638 182.58542Q27.175013 182.33542 27.721888 182.33542Q28.253138 182.33542 28.721888 182.64792Q29.175013 182.9448 29.440638 183.52292Q29.690638 184.10104 29.690638 184.83542Q29.690638 186.05417 29.190638 186.6948Q28.675013 187.3198 27.690638 187.49167ZM27.550013 175.8198L27.675013 174.72604Q28.628138 174.97604 29.159388 175.67917Q29.690638 176.3823 29.690638 177.46042Q29.690638 178.8198 28.846888 179.6323Q28.003138 180.42917 26.487513 180.42917Q24.925013 180.42917 24.065638 179.61667Q23.190638 178.80417 23.190638 177.52292Q23.190638 176.27292 24.034388 175.49167Q24.878138 174.6948 26.425013 174.6948Q26.518763 174.6948 26.706263 174.6948L26.706263 179.33542Q27.737513 179.27292 28.284388 178.7573Q28.815638 178.24167 28.815638 177.46042Q28.815638 176.8823 28.518763 176.47604Q28.206263 176.05417 27.550013 175.8198ZM25.846888 179.27292L25.846888 175.80417Q25.050013 175.86667 24.659388 176.1948Q24.050013 176.71042 24.050013 177.5073Q24.050013 178.24167 24.534388 178.74167Q25.018763 179.22604 25.846888 179.27292ZM29.550013 173.10104L20.956263 173.10104L20.956263 172.03854L29.550013 172.03854L29.550013 173.10104ZM22.175013 170.0698L20.956263 170.0698L20.956263 169.0073L22.175013 169.0073L22.175013 170.0698ZM29.550013 170.0698L23.331263 170.0698L23.331263 169.0073L29.550013 169.0073L29.550013 170.0698ZM29.550013 167.0698L23.331263 167.0698L23.331263 166.1323L24.206263 166.1323Q23.190638 165.4448 23.190638 164.14792Q23.190638 163.58542 23.393763 163.11667Q23.596888 162.6323 23.925013 162.39792Q24.253138 162.16354 24.690638 162.0698Q24.987513 162.02292 25.721888 162.02292L29.550013 162.02292L29.550013 163.0698L25.768763 163.0698Q25.112513 163.0698 24.800013 163.1948Q24.487513 163.3198 24.300013 163.6323Q24.096888 163.9448 24.096888 164.36667Q24.096888 165.03854 24.534388 165.53854Q24.956263 166.02292 26.143763 166.02292L29.550013 166.02292L29.550013 167.0698ZM27.550013 155.8198L27.675013 154.72604Q28.628138 154.97604 29.159388 155.67917Q29.690638 156.3823 29.690638 157.46042Q29.690638 158.8198 28.846888 159.6323Q28.003138 160.42917 26.487513 160.42917Q24.925013 160.42917 24.065638 159.61667Q23.190638 158.80417 23.190638 157.52292Q23.190638 156.27292 24.034388 155.49167Q24.878138 154.6948 26.425013 154.6948Q26.518763 154.6948 26.706263 154.6948L26.706263 159.33542Q27.737513 159.27292 28.284388 158.7573Q28.815638 158.24167 28.815638 157.46042Q28.815638 156.8823 28.518763 156.47604Q28.206263 156.05417 27.550013 155.8198ZM25.846888 159.27292L25.846888 155.80417Q25.050013 155.86667 24.659388 156.1948Q24.050013 156.71042 24.050013 157.5073Q24.050013 158.24167 24.534388 158.74167Q25.018763 159.22604 25.846888 159.27292ZM32.08126 148.05417Q30.971888 148.92917 29.503138 149.53854Q28.018763 150.1323 26.440638 150.1323Q25.050013 150.1323 23.768763 149.6948Q22.284388 149.16354 20.815638 148.05417L20.815638 147.30417Q22.034388 148.0073 22.550013 148.24167Q23.362513 148.60104 24.237513 148.80417Q25.331263 149.05417 26.440638 149.05417Q29.268763 149.05417 32.08126 147.30417L32.08126 148.05417ZM29.550013 146.08542L23.331263 146.08542L23.331263 145.1323L24.268763 145.1323Q23.612513 144.77292 23.409388 144.47604Q23.190638 144.16354 23.190638 143.78854Q23.190638 143.2573 23.518763 142.71042L24.503138 143.0698Q24.268763 143.46042 24.268763 143.83542Q24.268763 144.1948 24.487513 144.47604Q24.690638 144.74167 25.065638 144.85104Q25.628138 145.03854 26.284388 145.03854L29.550013 145.03854L29.550013 146.08542ZM28.784388 138.0073Q29.284388 138.60104 29.487513 139.14792Q29.690638 139.67917 29.690638 140.30417Q29.690638 141.33542 29.190638 141.8823Q28.690638 142.42917 27.909388 142.42917Q27.456263 142.42917 27.081263 142.22604Q26.690638 142.02292 26.471888 141.67917Q26.237513 141.33542 26.128138 140.91354Q26.034388 140.61667 25.956263 139.97604Q25.815638 138.71042 25.596888 138.10104Q25.378138 138.10104 25.331263 138.10104Q24.675013 138.10104 24.409388 138.39792Q24.065638 138.80417 24.065638 139.60104Q24.065638 140.33542 24.331263 140.6948Q24.581263 141.05417 25.237513 141.22604L25.096888 142.2573Q24.440638 142.11667 24.034388 141.78854Q23.628138 141.46042 23.409388 140.85104Q23.190638 140.24167 23.190638 139.4448Q23.190638 138.64792 23.378138 138.14792Q23.565638 137.64792 23.846888 137.41354Q24.128138 137.17917 24.565638 137.08542Q24.831263 137.03854 25.534388 137.03854L26.940638 137.03854Q28.409388 137.03854 28.800013 136.97604Q29.190638 136.89792 29.550013 136.6948L29.550013 137.80417Q29.221888 137.96042 28.784388 138.0073ZM26.425013 138.10104Q26.659388 138.67917 26.831263 139.8198Q26.925013 140.47604 27.050013 140.74167Q27.159388 141.0073 27.378138 141.16354Q27.596888 141.30417 27.878138 141.30417Q28.300013 141.30417 28.581263 140.99167Q28.862513 140.66354 28.862513 140.05417Q28.862513 139.4448 28.596888 138.97604Q28.331263 138.49167 27.862513 138.27292Q27.503138 138.10104 26.815638 138.10104L26.425013 138.10104ZM28.612513 132.77292L29.534388 132.61667Q29.628138 133.0698 29.628138 133.41354Q29.628138 133.99167 29.456263 134.30417Q29.268763 134.61667 28.971888 134.7573Q28.675013 134.8823 27.721888 134.8823L24.143763 134.8823L24.143763 135.64792L23.331263 135.64792L23.331263 134.8823L21.784388 134.8823L21.159388 133.83542L23.331263 133.83542L23.331263 132.77292L24.143763 132.77292L24.143763 133.83542L27.784388 133.83542Q28.237513 133.83542 28.362513 133.78854Q28.487513 133.72604 28.565638 133.60104Q28.643763 133.47604 28.643763 133.24167Q28.643763 133.05417 28.612513 132.77292ZM22.175013 132.0698L20.956263 132.0698L20.956263 131.0073L22.175013 131.0073L22.175013 132.0698ZM29.550013 132.0698L23.331263 132.0698L23.331263 131.0073L29.550013 131.0073L29.550013 132.0698ZM26.440638 129.46042Q24.706263 129.46042 23.878138 128.5073Q23.190638 127.71042 23.190638 126.55417Q23.190638 125.27292 24.034388 124.46042Q24.862513 123.63229 26.346888 123.63229Q27.550013 123.63229 28.237513 123.99167Q28.925013 124.35104 29.315638 125.05417Q29.690638 125.74167 29.690638 126.55417Q29.690638 127.85104 28.862513 128.66354Q28.018763 129.46042 26.440638 129.46042ZM26.440638 128.3823Q27.628138 128.3823 28.221888 127.86667Q28.815638 127.33542 28.815638 126.55417Q28.815638 125.75729 28.221888 125.24167Q27.628138 124.72604 26.409388 124.72604Q25.253138 124.72604 24.659388 125.25729Q24.065638 125.77292 24.065638 126.55417Q24.065638 127.33542 24.659388 127.86667Q25.237513 128.3823 26.440638 128.3823ZM32.08126 121.38229L32.08126 122.13229Q29.268763 120.38229 26.440638 120.38229Q25.346888 120.38229 24.253138 120.63229Q23.378138 120.83542 22.565638 121.19479Q22.050013 121.42917 20.815638 122.13229L20.815638 121.38229Q22.284388 120.28854 23.768763 119.75729Q25.050013 119.30417 26.440638 119.30417Q28.018763 119.30417 29.503138 119.91354Q30.971888 120.52292 32.08126 121.38229Z" fill-rule="nonzero"/><path fill="#000000" d="M65.05 300.21564Q65.05 298.6844 65.3625 297.7625Q65.675 296.825 66.28438 296.325Q66.90938 295.825 67.84688 295.825Q68.53438 295.825 69.05 296.10626Q69.58125 296.3875 69.925 296.91876Q70.26875 297.4344 70.45625 298.1844Q70.64375 298.9344 70.64375 300.21564Q70.64375 301.73126 70.33125 302.65314Q70.03438 303.575 69.40938 304.09064Q68.8 304.59064 67.84688 304.59064Q66.6125 304.59064 65.89375 303.7Q65.05 302.6375 65.05 300.21564ZM66.12813 300.21564Q66.12813 302.325 66.62813 303.02814Q67.12813 303.73126 67.84688 303.73126Q68.58125 303.73126 69.06563 303.02814Q69.56563 302.325 69.56563 300.21564Q69.56563 298.09064 69.06563 297.40314Q68.58125 296.7 67.83125 296.7Q67.1125 296.7 66.675 297.3094Q66.12813 298.09064 66.12813 300.21564Z" fill-rule="nonzero"/><path fill="#000000" d="M70.59688 250.39272L70.59688 251.40834L64.90938 251.40834Q64.90938 251.03334 65.03438 250.67397Q65.25313 250.09584 65.72188 249.53334Q66.20625 248.97084 67.1125 248.23647Q68.51875 247.08022 69.00313 246.40834Q69.50313 245.73647 69.50313 245.14272Q69.50313 244.51772 69.05 244.09584Q68.59688 243.65834 67.87813 243.65834Q67.1125 243.65834 66.65938 244.11147Q66.20625 244.56459 66.19063 245.37709L65.1125 245.26772Q65.22188 244.04897 65.94063 243.42397Q66.675 242.78334 67.90938 242.78334Q69.14375 242.78334 69.8625 243.47084Q70.58125 244.15834 70.58125 245.17397Q70.58125 245.68959 70.3625 246.18959Q70.15938 246.67397 69.65938 247.23647Q69.175 247.78334 68.05 248.73647Q67.09688 249.53334 66.81563 249.83022Q66.55 250.11147 66.37813 250.39272L70.59688 250.39272Z" fill-rule="nonzero"/><path fill="#000000" d="M68.425 198.36667L68.425 196.30417L64.70625 196.30417L64.70625 195.33542L68.62813 189.77292L69.4875 189.77292L69.4875 195.33542L70.64375 195.33542L70.64375 196.30417L69.4875 196.30417L69.4875 198.36667L68.425 198.36667ZM68.425 195.33542L68.425 191.47604L65.7375 195.33542L68.425 195.33542Z" fill-rule="nonzero"/><path fill="#000000" d="M70.51875 138.84062L69.47188 138.91875Q69.33125 138.29375 69.08125 138.0125Q68.64375 137.55937 68.01875 137.55937Q67.51875 137.55937 67.12813 137.84062Q66.64375 138.21562 66.34688 138.91875Q66.06563 139.60625 66.05 140.8875Q66.425 140.30937 66.97188 140.02812Q67.53438 139.74687 68.14375 139.74687Q69.19063 139.74687 69.925 140.52812Q70.675 141.30937 70.675 142.52812Q70.675 143.34062 70.31563 144.04375Q69.97188 144.73125 69.3625 145.10625Q68.75313 145.46562 67.9875 145.46562Q66.65938 145.46562 65.83125 144.49687Q65.00313 143.52812 65.00313 141.30937Q65.00313 138.80937 65.925 137.68437Q66.72188 136.7 68.08125 136.7Q69.09688 136.7 69.7375 137.27812Q70.39375 137.84062 70.51875 138.84062ZM66.22188 142.54375Q66.22188 143.09062 66.44063 143.59062Q66.675 144.075 67.08125 144.34062Q67.50313 144.60625 67.97188 144.60625Q68.62813 144.60625 69.1125 144.075Q69.59688 143.52812 69.59688 142.60625Q69.59688 141.71562 69.1125 141.2Q68.64375 140.68437 67.925 140.68437Q67.20625 140.68437 66.70625 141.2Q66.22188 141.71562 66.22188 142.54375Z" fill-rule="nonzero"/><path fill="#000000" d="M66.675 87.62708Q66.01875 87.37708 65.69063 86.93958Q65.37813 86.48646 65.37813 85.87708Q65.37813 84.93958 66.05 84.29896Q66.7375 83.65833 67.84688 83.65833Q68.97188 83.65833 69.65938 84.31458Q70.34688 84.97083 70.34688 85.90833Q70.34688 86.50208 70.03438 86.93958Q69.72188 87.37708 69.08125 87.62708Q69.87813 87.87708 70.28438 88.45521Q70.69063 89.03333 70.69063 89.83021Q70.69063 90.92396 69.90938 91.67396Q69.14375 92.42396 67.8625 92.42396Q66.59688 92.42396 65.81563 91.67396Q65.03438 90.92396 65.03438 89.79896Q65.03438 88.95521 65.45625 88.39271Q65.89375 87.83021 66.675 87.62708ZM66.45625 85.83021Q66.45625 86.43958 66.84688 86.83021Q67.25313 87.22083 67.87813 87.22083Q68.4875 87.22083 68.87813 86.84583Q69.26875 86.45521 69.26875 85.89271Q69.26875 85.31458 68.8625 84.92396Q68.45625 84.51771 67.8625 84.51771Q67.25313 84.51771 66.84688 84.90833Q66.45625 85.29896 66.45625 85.83021ZM66.12813 89.79896Q66.12813 90.25208 66.33125 90.67396Q66.55 91.09583 66.97188 91.33021Q67.39375 91.56458 67.87813 91.56458Q68.62813 91.56458 69.1125 91.08021Q69.6125 90.59583 69.6125 89.84583Q69.6125 89.08021 69.1125 88.58021Q68.6125 88.08021 67.84688 88.08021Q67.09688 88.08021 66.6125 88.58021Q66.12813 89.06458 66.12813 89.79896Z" fill-rule="nonzero"/><path fill="#000000" d="M78.51875 317.45L77.47188 317.45L77.47188 310.73126Q77.08125 311.09064 76.45625 311.46564Q75.84688 311.825 75.3625 311.9969L75.3625 310.98126Q76.2375 310.5594 76.89375 309.98126Q77.56563 309.3875 77.84688 308.825L78.51875 308.825L78.51875 317.45Z" fill-rule="nonzero"/><path fill="#000000" d="M188.1481 317.45L187.10123 317.45L187.10123 310.73126Q186.7106 311.09064 186.0856 311.46564Q185.47623 311.825 184.99185 311.9969L184.99185 310.98126Q185.86685 310.5594 186.5231 309.98126Q187.19498 309.3875 187.47623 308.825L188.1481 308.825L188.1481 317.45ZM191.17935 313.21564Q191.17935 311.6844 191.49185 310.7625Q191.80435 309.825 192.41373 309.325Q193.03873 308.825 193.97623 308.825Q194.66373 308.825 195.17935 309.10626Q195.7106 309.3875 196.05435 309.91876Q196.3981 310.4344 196.5856 311.1844Q196.7731 311.9344 196.7731 313.21564Q196.7731 314.73126 196.4606 315.65314Q196.16373 316.575 195.53873 317.09064Q194.92935 317.59064 193.97623 317.59064Q192.74185 317.59064 192.0231 316.7Q191.17935 315.6375 191.17935 313.21564ZM192.25748 313.21564Q192.25748 315.325 192.75748 316.02814Q193.25748 316.73126 193.97623 316.73126Q194.7106 316.73126 195.19498 316.02814Q195.69498 315.325 195.69498 313.21564Q195.69498 311.09064 195.19498 310.40314Q194.7106 309.7 193.9606 309.7Q193.24185 309.7 192.80435 310.3094Q192.25748 311.09064 192.25748 313.21564Z" fill-rule="nonzero"/><path fill="#000000" d="M297.77747 317.45L296.7306 317.45L296.7306 310.73126Q296.33997 311.09064 295.71497 311.46564Q295.1056 311.825 294.62122 311.9969L294.62122 310.98126Q295.49622 310.5594 296.15247 309.98126Q296.82434 309.3875 297.1056 308.825L297.77747 308.825L297.77747 317.45ZM300.80872 313.21564Q300.80872 311.6844 301.12122 310.7625Q301.43372 309.825 302.0431 309.325Q302.6681 308.825 303.6056 308.825Q304.2931 308.825 304.80872 309.10626Q305.33997 309.3875 305.68372 309.91876Q306.02747 310.4344 306.21497 311.1844Q306.40247 311.9344 306.40247 313.21564Q306.40247 314.73126 306.08997 315.65314Q305.7931 316.575 305.1681 317.09064Q304.55872 317.59064 303.6056 317.59064Q302.37122 317.59064 301.65247 316.7Q300.80872 315.6375 300.80872 313.21564ZM301.88684 313.21564Q301.88684 315.325 302.38684 316.02814Q302.88684 316.73126 303.6056 316.73126Q304.33997 316.73126 304.82434 316.02814Q305.32434 315.325 305.32434 313.21564Q305.32434 311.09064 304.82434 310.40314Q304.33997 309.7 303.58997 309.7Q302.87122 309.7 302.43372 310.3094Q301.88684 311.09064 301.88684 313.21564ZM307.80872 313.21564Q307.80872 311.6844 308.12122 310.7625Q308.43372 309.825 309.0431 309.325Q309.6681 308.825 310.6056 308.825Q311.2931 308.825 311.80872 309.10626Q312.33997 309.3875 312.68372 309.91876Q313.02747 310.4344 313.21497 311.1844Q313.40247 311.9344 313.40247 313.21564Q313.40247 314.73126 313.08997 315.65314Q312.7931 316.575 312.1681 317.09064Q311.55872 317.59064 310.6056 317.59064Q309.37122 317.59064 308.65247 316.7Q307.80872 315.6375 307.80872 313.21564ZM308.88684 313.21564Q308.88684 315.325 309.38684 316.02814Q309.88684 316.73126 310.6056 316.73126Q311.33997 316.73126 311.82434 316.02814Q312.32434 315.325 312.32434 313.21564Q312.32434 311.09064 311.82434 310.40314Q311.33997 309.7 310.58997 309.7Q309.87122 309.7 309.43372 310.3094Q308.88684 311.09064 308.88684 313.21564Z" fill-rule="nonzero"/><path fill="#000000" d="M407.40683 317.45L406.35995 317.45L406.35995 310.73126Q405.96933 311.09064 405.34433 311.46564Q404.73495 311.825 404.25058 311.9969L404.25058 310.98126Q405.12558 310.5594 405.78183 309.98126Q406.4537 309.3875 406.73495 308.825L407.40683 308.825L407.40683 317.45ZM410.43808 313.21564Q410.43808 311.6844 410.75058 310.7625Q411.06308 309.825 411.67245 309.325Q412.29745 308.825 413.23495 308.825Q413.92245 308.825 414.43808 309.10626Q414.96933 309.3875 415.31308 309.91876Q415.65683 310.4344 415.84433 311.1844Q416.03183 311.9344 416.03183 313.21564Q416.03183 314.73126 415.71933 315.65314Q415.42245 316.575 414.79745 317.09064Q414.18808 317.59064 413.23495 317.59064Q412.00058 317.59064 411.28183 316.7Q410.43808 315.6375 410.43808 313.21564ZM411.5162 313.21564Q411.5162 315.325 412.0162 316.02814Q412.5162 316.73126 413.23495 316.73126Q413.96933 316.73126 414.4537 316.02814Q414.9537 315.325 414.9537 313.21564Q414.9537 311.09064 414.4537 310.40314Q413.96933 309.7 413.21933 309.7Q412.50058 309.7 412.06308 310.3094Q411.5162 311.09064 411.5162 313.21564ZM417.43808 313.21564Q417.43808 311.6844 417.75058 310.7625Q418.06308 309.825 418.67245 309.325Q419.29745 308.825 420.23495 308.825Q420.92245 308.825 421.43808 309.10626Q421.96933 309.3875 422.31308 309.91876Q422.65683 310.4344 422.84433 311.1844Q423.03183 311.9344 423.03183 313.21564Q423.03183 314.73126 422.71933 315.65314Q422.42245 316.575 421.79745 317.09064Q421.18808 317.59064 420.23495 317.59064Q419.00058 317.59064 418.28183 316.7Q417.43808 315.6375 417.43808 313.21564ZM418.5162 313.21564Q418.5162 315.325 419.0162 316.02814Q419.5162 316.73126 420.23495 316.73126Q420.96933 316.73126 421.4537 316.02814Q421.9537 315.325 421.9537 313.21564Q421.9537 311.09064 421.4537 310.40314Q420.96933 309.7 420.21933 309.7Q419.50058 309.7 419.06308 310.3094Q418.5162 311.09064 418.5162 313.21564ZM424.43808 313.21564Q424.43808 311.6844 424.75058 310.7625Q425.06308 309.825 425.67245 309.325Q426.29745 308.825 427.23495 308.825Q427.92245 308.825 428.43808 309.10626Q428.96933 309.3875 429.31308 309.91876Q429.65683 310.4344 429.84433 311.1844Q430.03183 311.9344 430.03183 313.21564Q430.03183 314.73126 429.71933 315.65314Q429.42245 316.575 428.79745 317.09064Q428.18808 317.59064 427.23495 317.59064Q426.00058 317.59064 425.28183 316.7Q424.43808 315.6375 424.43808 313.21564ZM425.5162 313.21564Q425.5162 315.325 426.0162 316.02814Q426.5162 316.73126 427.23495 316.73126Q427.96933 316.73126 428.4537 316.02814Q428.9537 315.325 428.9537 313.21564Q428.9537 311.09064 428.4537 310.40314Q427.96933 309.7 427.21933 309.7Q426.50058 309.7 426.06308 310.3094Q425.5162 311.09064 425.5162 313.21564Z" fill-rule="nonzero"/><path stroke="#ea4335" stroke-width="4.0" stroke-linecap="butt" d="M239.5 61.916668L251.5 61.916668" fill-rule="nonzero"/><path fill="#1a1a1a" d="M260.42188 65.916664L260.42188 57.322914L263.67188 57.322914Q264.51562 57.322914 264.96875 57.40104Q265.60938 57.510414 266.03125 57.80729Q266.46875 58.104164 266.71875 58.635414Q266.98438 59.166664 266.98438 59.80729Q266.98438 60.90104 266.28125 61.666664Q265.59375 62.416664 263.76562 62.416664L261.5625 62.416664L261.5625 65.916664L260.42188 65.916664ZM261.5625 61.416664L263.78125 61.416664Q264.89062 61.416664 265.34375 61.010414Q265.8125 60.58854 265.8125 59.83854Q265.8125 59.30729 265.53125 58.93229Q265.26562 58.541664 264.82812 58.416664Q264.53125 58.33854 263.76562 58.33854L261.5625 58.33854L261.5625 61.416664ZM272.35938 65.15104Q271.76562 65.65104 271.21875 65.854164Q270.6875 66.05729 270.0625 66.05729Q269.03125 66.05729 268.48438 65.55729Q267.9375 65.05729 267.9375 64.27604Q267.9375 63.822914 268.14062 63.447914Q268.34375 63.05729 268.6875 62.83854Q269.03125 62.604164 269.45312 62.49479Q269.75 62.40104 270.39062 62.322914Q271.65625 62.18229 272.26562 61.96354Q272.26562 61.74479 272.26562 61.697914Q272.26562 61.041664 271.96875 60.77604Q271.5625 60.43229 270.76562 60.43229Q270.03125 60.43229 269.67188 60.697914Q269.3125 60.947914 269.14062 61.604164L268.10938 61.46354Q268.25 60.80729 268.57812 60.40104Q268.90625 59.99479 269.51562 59.77604Q270.125 59.55729 270.92188 59.55729Q271.71875 59.55729 272.21875 59.74479Q272.71875 59.93229 272.95312 60.21354Q273.1875 60.49479 273.28125 60.93229Q273.32812 61.197914 273.32812 61.90104L273.32812 63.30729Q273.32812 64.77604 273.39062 65.166664Q273.46875 65.55729 273.67188 65.916664L272.5625 65.916664Q272.40625 65.58854 272.35938 65.15104ZM272.26562 62.791664Q271.6875 63.02604 270.54688 63.197914Q269.89062 63.291664 269.625 63.416664Q269.35938 63.52604 269.20312 63.74479Q269.0625 63.96354 269.0625 64.24479Q269.0625 64.666664 269.375 64.947914Q269.70312 65.229164 270.3125 65.229164Q270.92188 65.229164 271.39062 64.96354Q271.875 64.697914 272.09375 64.229164Q272.26562 63.86979 272.26562 63.18229L272.26562 62.791664ZM277.59375 64.979164L277.75 65.90104Q277.29688 65.99479 276.95312 65.99479Q276.375 65.99479 276.0625 65.822914Q275.75 65.635414 275.60938 65.33854Q275.48438 65.041664 275.48438 64.08854L275.48438 60.510414L274.71875 60.510414L274.71875 59.697914L275.48438 59.697914L275.48438 58.15104L276.53125 57.52604L276.53125 59.697914L277.59375 59.697914L277.59375 60.510414L276.53125 60.510414L276.53125 64.15104Q276.53125 64.604164 276.57812 64.729164Q276.64062 64.854164 276.76562 64.93229Q276.89062 65.010414 277.125 65.010414Q277.3125 65.010414 277.59375 64.979164ZM282.35938 63.635414L283.39062 63.77604Q283.21875 64.83854 282.51562 65.447914Q281.8125 66.05729 280.79688 66.05729Q279.51562 66.05729 278.73438 65.229164Q277.96875 64.385414 277.96875 62.822914Q277.96875 61.822914 278.29688 61.072914Q278.64062 60.30729 279.3125 59.93229Q280.0 59.55729 280.8125 59.55729Q281.8125 59.55729 282.45312 60.072914Q283.10938 60.572914 283.29688 61.52604L282.26562 61.68229Q282.125 61.05729 281.75 60.74479Q281.375 60.416664 280.84375 60.416664Q280.04688 60.416664 279.54688 60.99479Q279.04688 61.55729 279.04688 62.791664Q279.04688 64.05729 279.53125 64.61979Q280.01562 65.18229 280.78125 65.18229Q281.40625 65.18229 281.8125 64.80729Q282.23438 64.43229 282.35938 63.635414ZM284.29688 65.916664L284.29688 57.322914L285.34375 57.322914L285.34375 60.40104Q286.07812 59.55729 287.20312 59.55729Q287.90625 59.55729 288.40625 59.83854Q288.92188 60.104164 289.14062 60.58854Q289.35938 61.05729 289.35938 61.979164L289.35938 65.916664L288.3125 65.916664L288.3125 61.979164Q288.3125 61.18229 287.96875 60.822914Q287.625 60.46354 287.0 60.46354Q286.53125 60.46354 286.10938 60.71354Q285.70312 60.947914 285.51562 61.36979Q285.34375 61.77604 285.34375 62.510414L285.34375 65.916664L284.29688 65.916664ZM295.54688 63.916664L296.64062 64.041664Q296.39062 64.99479 295.6875 65.52604Q294.98438 66.05729 293.90625 66.05729Q292.54688 66.05729 291.73438 65.21354Q290.9375 64.36979 290.9375 62.854164Q290.9375 61.291664 291.75 60.43229Q292.5625 59.55729 293.84375 59.55729Q295.09375 59.55729 295.875 60.40104Q296.67188 61.24479 296.67188 62.791664Q296.67188 62.885414 296.67188 63.072914L292.03125 63.072914Q292.09375 64.104164 292.60938 64.65104Q293.125 65.18229 293.90625 65.18229Q294.48438 65.18229 294.89062 64.885414Q295.3125 64.572914 295.54688 63.916664ZM292.09375 62.21354L295.5625 62.21354Q295.5 61.416664 295.17188 61.02604Q294.65625 60.416664 293.85938 60.416664Q293.125 60.416664 292.625 60.90104Q292.14062 61.385414 292.09375 62.21354ZM302.32812 65.916664L302.32812 65.135414Q301.73438 66.05729 300.59375 66.05729Q299.84375 66.05729 299.21875 65.65104Q298.59375 65.229164 298.25 64.49479Q297.90625 63.760414 297.90625 62.80729Q297.90625 61.885414 298.21875 61.11979Q298.53125 60.354164 299.15625 59.96354Q299.78125 59.55729 300.54688 59.55729Q301.10938 59.55729 301.54688 59.791664Q301.98438 60.02604 302.26562 60.40104L302.26562 57.322914L303.3125 57.322914L303.3125 65.916664L302.32812 65.916664ZM299.0 62.80729Q299.0 64.010414 299.5 64.604164Q300.0 65.18229 300.6875 65.18229Q301.375 65.18229 301.85938 64.61979Q302.34375 64.05729 302.34375 62.90104Q302.34375 61.61979 301.84375 61.02604Q301.35938 60.43229 300.64062 60.43229Q299.9375 60.43229 299.46875 61.010414Q299.0 61.572914 299.0 62.80729Z" fill-rule="nonzero"/><path fill="#757575" d="M75.96875 37.55L81.46875 23.2375L83.515625 23.2375L89.375 37.55L87.21875 37.55L85.546875 33.20625L79.5625 33.20625L77.984375 37.55L75.96875 37.55ZM80.109375 31.675L84.953125 31.675L83.46875 27.70625Q82.78125 25.89375 82.453125 24.7375Q82.171875 26.1125 81.671875 27.471874L80.109375 31.675ZM97.09375 36.26875Q96.109375 37.096874 95.203125 37.440624Q94.296875 37.784374 93.265625 37.784374Q91.5625 37.784374 90.640625 36.95625Q89.71875 36.1125 89.71875 34.815624Q89.71875 34.05 90.0625 33.425Q90.421875 32.8 90.984375 32.425Q91.546875 32.034374 92.25 31.83125Q92.765625 31.70625 93.8125 31.565624Q95.9375 31.315624 96.9375 30.971874Q96.953125 30.6125 96.953125 30.503124Q96.953125 29.440624 96.453125 28.9875Q95.78125 28.39375 94.453125 28.39375Q93.203125 28.39375 92.609375 28.83125Q92.03125 29.26875 91.75 30.378124L90.03125 30.14375Q90.265625 29.034374 90.796875 28.3625Q91.328125 27.675 92.34375 27.315624Q93.359375 26.940624 94.703125 26.940624Q96.03125 26.940624 96.859375 27.253124Q97.6875 27.565624 98.078125 28.05Q98.46875 28.51875 98.625 29.2375Q98.71875 29.690624 98.71875 30.8625L98.71875 33.20625Q98.71875 35.659374 98.828125 36.315624Q98.9375 36.95625 99.28125 37.55L97.4375 37.55Q97.171875 37.003124 97.09375 36.26875ZM96.9375 32.346874Q95.984375 32.7375 94.0625 33.003124Q92.984375 33.159374 92.53125 33.3625Q92.09375 33.55 91.84375 33.925Q91.59375 34.3 91.59375 34.76875Q91.59375 35.471874 92.125 35.940624Q92.65625 36.409374 93.6875 36.409374Q94.703125 36.409374 95.484375 35.971874Q96.28125 35.51875 96.65625 34.753124Q96.9375 34.14375 96.9375 32.9875L96.9375 32.346874ZM101.296875 37.55L101.296875 27.175L102.875 27.175L102.875 28.753124Q103.484375 27.64375 104.0 27.3Q104.515625 26.940624 105.125 26.940624Q106.015625 26.940624 106.9375 27.503124L106.328125 29.14375Q105.6875 28.753124 105.046875 28.753124Q104.46875 28.753124 104.0 29.1125Q103.546875 29.45625 103.34375 30.065624Q103.0625 31.003124 103.0625 32.1125L103.0625 37.55L101.296875 37.55ZM115.09375 33.753124L116.8125 33.971874Q116.53125 35.76875 115.359375 36.784374Q114.203125 37.784374 112.5 37.784374Q110.375 37.784374 109.078125 36.39375Q107.78125 35.003124 107.78125 32.409374Q107.78125 30.721874 108.328125 29.471874Q108.890625 28.20625 110.03125 27.58125Q111.171875 26.940624 112.515625 26.940624Q114.203125 26.940624 115.265625 27.8Q116.34375 28.659374 116.65625 30.221874L114.9375 30.4875Q114.703125 29.440624 114.078125 28.925Q113.453125 28.39375 112.578125 28.39375Q111.25 28.39375 110.421875 29.346874Q109.59375 30.3 109.59375 32.346874Q109.59375 34.440624 110.390625 35.39375Q111.1875 36.33125 112.484375 36.33125Q113.515625 36.33125 114.203125 35.70625Q114.90625 35.065624 115.09375 33.753124ZM118.3125 37.55L118.3125 23.2375L120.078125 23.2375L120.078125 28.3625Q121.3125 26.940624 123.1875 26.940624Q124.328125 26.940624 125.171875 27.39375Q126.03125 27.846874 126.390625 28.659374Q126.765625 29.45625 126.765625 30.971874L126.765625 37.55L125.015625 37.55L125.015625 30.971874Q125.015625 29.659374 124.4375 29.065624Q123.859375 28.45625 122.828125 28.45625Q122.046875 28.45625 121.34375 28.8625Q120.65625 29.26875 120.359375 29.971874Q120.078125 30.659374 120.078125 31.878124L120.078125 37.55L118.3125 37.55ZM136.95312 26.7375L135.20312 26.878124Q134.96875 25.846874 134.54688 25.378124Q133.82812 24.6125 132.78125 24.6125Q131.9375 24.6125 131.3125 25.08125Q130.48438 25.690624 130.0 26.8625Q129.51562 28.01875 129.5 30.159374Q130.14062 29.20625 131.04688 28.7375Q131.96875 28.26875 132.98438 28.26875Q134.73438 28.26875 135.96875 29.565624Q137.20312 30.846874 137.20312 32.89375Q137.20312 34.253124 136.625 35.409374Q136.04688 36.565624 135.03125 37.190624Q134.01562 37.8 132.71875 37.8Q130.53125 37.8 129.14062 36.190624Q127.75 34.565624 127.75 30.846874Q127.75 26.70625 129.28125 24.815624Q130.625 23.175 132.89062 23.175Q134.57812 23.175 135.65625 24.128124Q136.73438 25.065624 136.95312 26.7375ZM129.78125 32.909374Q129.78125 33.815624 130.15625 34.64375Q130.54688 35.471874 131.23438 35.909374Q131.9375 36.346874 132.6875 36.346874Q133.8125 36.346874 134.60938 35.45625Q135.40625 34.55 135.40625 33.003124Q135.40625 31.51875 134.60938 30.675Q133.82812 29.815624 132.625 29.815624Q131.4375 29.815624 130.60938 30.675Q129.78125 31.51875 129.78125 32.909374ZM144.46875 37.55L144.46875 34.128124L138.25 34.128124L138.25 32.503124L144.78125 23.2375L146.21875 23.2375L146.21875 32.503124L148.15625 32.503124L148.15625 34.128124L146.21875 34.128124L146.21875 37.55L144.46875 37.55ZM144.46875 32.503124L144.46875 26.05L139.98438 32.503124L144.46875 32.503124ZM159.20312 37.55L155.25 27.175L157.10938 27.175L159.34375 33.39375Q159.70312 34.39375 160.0 35.471874Q160.23438 34.659374 160.65625 33.503124L162.95312 27.175L164.76562 27.175L160.84375 37.55L159.20312 37.55ZM165.28125 37.55L165.28125 23.2375L167.03125 23.2375L167.03125 37.55L165.28125 37.55ZM176.42188 34.20625L178.23438 34.440624Q177.8125 36.01875 176.64062 36.909374Q175.48438 37.784374 173.67188 37.784374Q171.40625 37.784374 170.0625 36.39375Q168.73438 34.9875 168.73438 32.45625Q168.73438 29.83125 170.07812 28.39375Q171.42188 26.940624 173.57812 26.940624Q175.65625 26.940624 176.96875 28.3625Q178.29688 29.76875 178.29688 32.346874Q178.29688 32.503124 178.28125 32.815624L170.54688 32.815624Q170.64062 34.51875 171.51562 35.425Q172.39062 36.33125 173.6875 36.33125Q174.65625 36.33125 175.32812 35.83125Q176.01562 35.315624 176.42188 34.20625ZM170.64062 31.3625L176.4375 31.3625Q176.32812 30.065624 175.78125 29.409374Q174.9375 28.39375 173.59375 28.39375Q172.39062 28.39375 171.5625 29.20625Q170.73438 30.003124 170.64062 31.3625ZM182.53125 29.784374Q181.4375 29.378124 180.90625 28.64375Q180.39062 27.89375 180.39062 26.8625Q180.39062 25.3 181.51562 24.2375Q182.64062 23.175 184.5 23.175Q186.375 23.175 187.51562 24.26875Q188.65625 25.346874 188.65625 26.909374Q188.65625 27.909374 188.125 28.64375Q187.60938 29.378124 186.54688 29.784374Q187.875 30.221874 188.5625 31.175Q189.25 32.128124 189.25 33.45625Q189.25 35.3 187.9375 36.55Q186.64062 37.8 184.53125 37.8Q182.40625 37.8 181.10938 36.55Q179.8125 35.284374 179.8125 33.409374Q179.8125 32.01875 180.51562 31.08125Q181.23438 30.128124 182.53125 29.784374ZM182.1875 26.8Q182.1875 27.815624 182.84375 28.471874Q183.5 29.1125 184.53125 29.1125Q185.54688 29.1125 186.20312 28.471874Q186.85938 27.83125 186.85938 26.909374Q186.85938 25.940624 186.1875 25.284374Q185.51562 24.6125 184.51562 24.6125Q183.51562 24.6125 182.84375 25.26875Q182.1875 25.909374 182.1875 26.8ZM181.625 33.425Q181.625 34.175 181.96875 34.878124Q182.32812 35.58125 183.03125 35.971874Q183.73438 36.346874 184.54688 36.346874Q185.8125 36.346874 186.625 35.534374Q187.45312 34.721874 187.45312 33.471874Q187.45312 32.20625 186.60938 31.378124Q185.76562 30.55 184.48438 30.55Q183.25 30.55 182.4375 31.378124Q181.625 32.190624 181.625 33.425ZM191.8125 37.55L191.8125 35.55L193.8125 35.55L193.8125 37.55L191.8125 37.55ZM200.20312 37.55L196.25 27.175L198.10938 27.175L200.34375 33.39375Q200.70312 34.39375 201.0 35.471874Q201.23438 34.659374 201.65625 33.503124L203.95312 27.175L205.76562 27.175L201.84375 37.55L200.20312 37.55ZM211.60938 34.45625L213.35938 34.175Q213.5 35.221874 214.17188 35.784374Q214.84375 36.33125 216.04688 36.33125Q217.25 36.33125 217.82812 35.846874Q218.42188 35.346874 218.42188 34.690624Q218.42188 34.096874 217.90625 33.753124Q217.54688 33.51875 216.10938 33.159374Q214.17188 32.659374 213.42188 32.315624Q212.6875 31.95625 212.29688 31.33125Q211.90625 30.690624 211.90625 29.925Q211.90625 29.2375 212.21875 28.64375Q212.54688 28.05 213.09375 27.659374Q213.5 27.3625 214.20312 27.159374Q214.92188 26.940624 215.73438 26.940624Q216.95312 26.940624 217.875 27.3Q218.79688 27.64375 219.23438 28.253124Q219.67188 28.846874 219.84375 29.846874L218.125 30.08125Q218.0 29.284374 217.4375 28.846874Q216.875 28.39375 215.85938 28.39375Q214.64062 28.39375 214.125 28.8Q213.60938 29.190624 213.60938 29.721874Q213.60938 30.065624 213.82812 30.346874Q214.03125 30.628124 214.5 30.815624Q214.76562 30.909374 216.04688 31.253124Q217.92188 31.753124 218.65625 32.08125Q219.39062 32.39375 219.8125 33.003124Q220.23438 33.596874 220.23438 34.503124Q220.23438 35.378124 219.71875 36.159374Q219.20312 36.940624 218.23438 37.3625Q217.26562 37.784374 216.04688 37.784374Q214.03125 37.784374 212.96875 36.940624Q211.90625 36.096874 211.60938 34.45625ZM222.3125 41.51875L222.3125 27.175L223.92188 27.175L223.92188 28.51875Q224.48438 27.7375 225.1875 27.346874Q225.90625 26.940624 226.92188 26.940624Q228.25 26.940624 229.26562 27.628124Q230.28125 28.315624 230.79688 29.565624Q231.32812 30.8 231.32812 32.284374Q231.32812 33.878124 230.75 35.159374Q230.1875 36.425 229.09375 37.1125Q228.0 37.784374 226.79688 37.784374Q225.92188 37.784374 225.21875 37.409374Q224.53125 37.034374 224.07812 36.471874L224.07812 41.51875L222.3125 41.51875ZM223.90625 32.425Q223.90625 34.425 224.71875 35.378124Q225.53125 36.33125 226.6875 36.33125Q227.85938 36.33125 228.6875 35.346874Q229.53125 34.3625 229.53125 32.26875Q229.53125 30.3 228.70312 29.315624Q227.89062 28.315624 226.76562 28.315624Q225.64062 28.315624 224.76562 29.378124Q223.90625 30.425 223.90625 32.425ZM240.42188 34.20625L242.23438 34.440624Q241.8125 36.01875 240.64062 36.909374Q239.48438 37.784374 237.67188 37.784374Q235.40625 37.784374 234.0625 36.39375Q232.73438 34.9875 232.73438 32.45625Q232.73438 29.83125 234.07812 28.39375Q235.42188 26.940624 237.57812 26.940624Q239.65625 26.940624 240.96875 28.3625Q242.29688 29.76875 242.29688 32.346874Q242.29688 32.503124 242.28125 32.815624L234.54688 32.815624Q234.64062 34.51875 235.51562 35.425Q236.39062 36.33125 237.6875 36.33125Q238.65625 36.33125 239.32812 35.83125Q240.01562 35.315624 240.42188 34.20625ZM234.64062 31.3625L240.4375 31.3625Q240.32812 30.065624 239.78125 29.409374Q238.9375 28.39375 237.59375 28.39375Q236.39062 28.39375 235.5625 29.20625Q234.73438 30.003124 234.64062 31.3625ZM251.42188 34.20625L253.23438 34.440624Q252.8125 36.01875 251.64062 36.909374Q250.48438 37.784374 248.67188 37.784374Q246.40625 37.784374 245.0625 36.39375Q243.73438 34.9875 243.73438 32.45625Q243.73438 29.83125 245.07812 28.39375Q246.42188 26.940624 248.57812 26.940624Q250.65625 26.940624 251.96875 28.3625Q253.29688 29.76875 253.29688 32.346874Q253.29688 32.503124 253.28125 32.815624L245.54688 32.815624Q245.64062 34.51875 246.51562 35.425Q247.39062 36.33125 248.6875 36.33125Q249.65625 36.33125 250.32812 35.83125Q251.01562 35.315624 251.42188 34.20625ZM245.64062 31.3625L251.4375 31.3625Q251.32812 30.065624 250.78125 29.409374Q249.9375 28.39375 248.59375 28.39375Q247.39062 28.39375 246.5625 29.20625Q245.73438 30.003124 245.64062 31.3625ZM262.04688 37.55L262.04688 36.2375Q261.0625 37.784374 259.14062 37.784374Q257.90625 37.784374 256.85938 37.096874Q255.82812 36.409374 255.25 35.190624Q254.6875 33.971874 254.6875 32.378124Q254.6875 30.815624 255.20312 29.55Q255.71875 28.284374 256.75 27.6125Q257.79688 26.940624 259.0625 26.940624Q260.0 26.940624 260.73438 27.346874Q261.46875 27.7375 261.9375 28.3625L261.9375 23.2375L263.67188 23.2375L263.67188 37.55L262.04688 37.55ZM256.48438 32.378124Q256.48438 34.3625 257.32812 35.346874Q258.17188 36.33125 259.3125 36.33125Q260.46875 36.33125 261.26562 35.39375Q262.07812 34.45625 262.07812 32.51875Q262.07812 30.39375 261.25 29.39375Q260.4375 28.39375 259.23438 28.39375Q258.0625 28.39375 257.26562 29.3625Q256.48438 30.315624 256.48438 32.378124ZM273.10938 37.55L273.10938 36.01875Q271.90625 37.784374 269.82812 37.784374Q268.90625 37.784374 268.10938 37.440624Q267.3125 37.08125 266.92188 36.55Q266.54688 36.01875 266.39062 35.2375Q266.28125 34.721874 266.28125 33.596874L266.28125 27.175L268.03125 27.175L268.03125 32.925Q268.03125 34.3 268.14062 34.784374Q268.3125 35.471874 268.84375 35.878124Q269.39062 36.26875 270.17188 36.26875Q270.96875 36.26875 271.65625 35.8625Q272.35938 35.45625 272.64062 34.76875Q272.9375 34.065624 272.9375 32.7375L272.9375 27.175L274.6875 27.175L274.6875 37.55L273.10938 37.55ZM276.3125 41.51875L276.3125 27.175L277.92188 27.175L277.92188 28.51875Q278.48438 27.7375 279.1875 27.346874Q279.90625 26.940624 280.92188 26.940624Q282.25 26.940624 283.26562 27.628124Q284.28125 28.315624 284.79688 29.565624Q285.32812 30.8 285.32812 32.284374Q285.32812 33.878124 284.75 35.159374Q284.1875 36.425 283.09375 37.1125Q282.0 37.784374 280.79688 37.784374Q279.92188 37.784374 279.21875 37.409374Q278.53125 37.034374 278.07812 36.471874L278.07812 41.51875L276.3125 41.51875ZM277.90625 32.425Q277.90625 34.425 278.71875 35.378124Q279.53125 36.33125 280.6875 36.33125Q281.85938 36.33125 282.6875 35.346874Q283.53125 34.3625 283.53125 32.26875Q283.53125 30.3 282.70312 29.315624Q281.89062 28.315624 280.76562 28.315624Q279.64062 28.315624 278.76562 29.378124Q277.90625 30.425 277.90625 32.425ZM297.64062 37.55L292.09375 23.2375L294.14062 23.2375L297.85938 33.628124Q298.3125 34.878124 298.60938 35.971874Q298.9375 34.8 299.39062 33.628124L303.25 23.2375L305.1875 23.2375L299.57812 37.55L297.64062 37.55ZM306.46875 37.55L306.46875 23.2375L308.35938 23.2375L308.35938 35.8625L315.40625 35.8625L315.40625 37.55L306.46875 37.55ZM317.57812 37.55L317.57812 23.2375L327.9375 23.2375L327.9375 24.925L319.48438 24.925L319.48438 29.3L327.39062 29.3L327.39062 30.9875L319.48438 30.9875L319.48438 35.8625L328.26562 35.8625L328.26562 37.55L317.57812 37.55ZM330.53125 37.55L330.53125 23.2375L332.46875 23.2375L339.98438 34.471874L339.98438 23.2375L341.79688 23.2375L341.79688 37.55L339.85938 37.55L332.34375 26.3L332.34375 37.55L330.53125 37.55ZM352.5625 29.128124L343.10938 29.128124L343.10938 27.4875L352.5625 27.4875L352.5625 29.128124ZM352.5625 33.471874L343.10938 33.471874L343.10938 31.83125L352.5625 31.83125L352.5625 33.471874ZM361.45312 37.55L359.6875 37.55L359.6875 26.346874Q359.0625 26.95625 358.03125 27.565624Q357.0 28.159374 356.17188 28.471874L356.17188 26.76875Q357.65625 26.08125 358.75 25.096874Q359.85938 24.096874 360.3125 23.175L361.45312 23.175L361.45312 37.55ZM375.0625 35.8625L375.0625 37.55L365.60938 37.55Q365.59375 36.909374 365.8125 36.33125Q366.17188 35.3625 366.96875 34.425Q367.76562 33.4875 369.26562 32.253124Q371.60938 30.346874 372.42188 29.2375Q373.25 28.1125 373.25 27.1125Q373.25 26.065624 372.5 25.346874Q371.75 24.628124 370.54688 24.628124Q369.28125 24.628124 368.51562 25.39375Q367.75 26.159374 367.75 27.503124L365.9375 27.315624Q366.125 25.3 367.32812 24.2375Q368.54688 23.175 370.59375 23.175Q372.64062 23.175 373.84375 24.315624Q375.04688 25.45625 375.04688 27.14375Q375.04688 28.003124 374.6875 28.846874Q374.34375 29.675 373.53125 30.596874Q372.71875 31.503124 370.82812 33.1125Q369.23438 34.440624 368.78125 34.909374Q368.34375 35.378124 368.04688 35.8625L375.0625 35.8625ZM379.53125 29.784374Q378.4375 29.378124 377.90625 28.64375Q377.39062 27.89375 377.39062 26.8625Q377.39062 25.3 378.51562 24.2375Q379.64062 23.175 381.5 23.175Q383.375 23.175 384.51562 24.26875Q385.65625 25.346874 385.65625 26.909374Q385.65625 27.909374 385.125 28.64375Q384.60938 29.378124 383.54688 29.784374Q384.875 30.221874 385.5625 31.175Q386.25 32.128124 386.25 33.45625Q386.25 35.3 384.9375 36.55Q383.64062 37.8 381.53125 37.8Q379.40625 37.8 378.10938 36.55Q376.8125 35.284374 376.8125 33.409374Q376.8125 32.01875 377.51562 31.08125Q378.23438 30.128124 379.53125 29.784374ZM379.1875 26.8Q379.1875 27.815624 379.84375 28.471874Q380.5 29.1125 381.53125 29.1125Q382.54688 29.1125 383.20312 28.471874Q383.85938 27.83125 383.85938 26.909374Q383.85938 25.940624 383.1875 25.284374Q382.51562 24.6125 381.51562 24.6125Q380.51562 24.6125 379.84375 25.26875Q379.1875 25.909374 379.1875 26.8ZM378.625 33.425Q378.625 34.175 378.96875 34.878124Q379.32812 35.58125 380.03125 35.971874Q380.73438 36.346874 381.54688 36.346874Q382.8125 36.346874 383.625 35.534374Q384.45312 34.721874 384.45312 33.471874Q384.45312 32.20625 383.60938 31.378124Q382.76562 30.55 381.48438 30.55Q380.25 30.55 379.4375 31.378124Q378.625 32.190624 378.625 33.425ZM394.46875 37.55L394.46875 23.2375L396.35938 23.2375L396.35938 35.8625L403.40625 35.8625L403.40625 37.55L394.46875 37.55ZM405.48438 37.55L405.48438 23.2375L408.34375 23.2375L411.71875 33.3625Q412.1875 34.784374 412.40625 35.4875Q412.65625 34.70625 413.17188 33.190624L416.59375 23.2375L419.14062 23.2375L419.14062 37.55L417.32812 37.55L417.32812 25.565624L413.15625 37.55L411.45312 37.55L407.3125 25.3625L407.3125 37.55L405.48438 37.55ZM431.9375 23.2375L433.82812 23.2375L433.82812 31.503124Q433.82812 33.659374 433.34375 34.940624Q432.85938 36.20625 431.57812 37.003124Q430.3125 37.8 428.23438 37.8Q426.21875 37.8 424.9375 37.1125Q423.67188 36.409374 423.125 35.096874Q422.57812 33.784374 422.57812 31.503124L422.57812 23.2375L424.46875 23.2375L424.46875 31.4875Q424.46875 33.3625 424.8125 34.253124Q425.15625 35.128124 426.0 35.6125Q426.84375 36.08125 428.07812 36.08125Q430.15625 36.08125 431.04688 35.14375Q431.9375 34.190624 431.9375 31.4875L431.9375 23.2375ZM435.46875 37.55L435.46875 23.2375L437.35938 23.2375L437.35938 35.8625L444.40625 35.8625L444.40625 37.55L435.46875 37.55ZM455.5625 29.128124L446.10938 29.128124L446.10938 27.4875L455.5625 27.4875L455.5625 29.128124ZM455.5625 33.471874L446.10938 33.471874L446.10938 31.83125L455.5625 31.83125L455.5625 33.471874ZM464.45312 37.55L462.6875 37.55L462.6875 26.346874Q462.0625 26.95625 461.03125 27.565624Q460.0 28.159374 459.17188 28.471874L459.17188 26.76875Q460.65625 26.08125 461.75 25.096874Q462.85938 24.096874 463.3125 23.175L464.45312 23.175L464.45312 37.55Z" fill-rule="nonzero"/></svg>