<svg version="1.1" viewBox="0.0 0.0 544.0 371.0" fill="none" stroke="none" stroke-linecap="square" stroke-miterlimit="10" width="544" height="371" xmlns:xlink="http://www.w3.org/1999/xlink" xmlns="http://www.w3.org/2000/svg"><path fill="#ffffff" d="M0 0L544.0 0L544.0 371.0L0 371.0L0 0Z" fill-rule="nonzero"/><path stroke="#cccccc" stroke-width="1.0" stroke-linecap="butt" d="M87.5 88.5L87.5 300.5" fill-rule="nonzero"/><path stroke="#cccccc" stroke-width="1.0" stroke-linecap="butt" d="M219.5 88.5L219.5 300.5" fill-rule="nonzero"/><path stroke="#cccccc" stroke-width="1.0" stroke-linecap="butt" d="M352.5 88.5L352.5 300.5" fill-rule="nonzero"/><path stroke="#cccccc" stroke-width="1.0" stroke-linecap="butt" d="M484.5 88.5L484.5 300.5" fill-rule="nonzero"/><path stroke="#333333" stroke-width="1.0" stroke-linecap="butt" d="M87.5 300.5L525.5 300.5" fill-rule="nonzero"/><path stroke="#cccccc" stroke-width="1.0" stroke-linecap="butt" d="M87.5 247.5L525.5 247.5" fill-rule="nonzero"/><path stroke="#cccccc" stroke-width="1.0" stroke-linecap="butt" d="M87.5 194.5L525.5 194.5" fill-rule="nonzero"/><path stroke="#cccccc" stroke-width="1.0" stroke-linecap="butt" d="M87.5 141.5L525.5 141.5" fill-rule="nonzero"/><path stroke="#cccccc" stroke-width="1.0" stroke-linecap="butt" d="M87.5 88.5L525.5 88.5" fill-rule="nonzero"/><clipPath id="id_0"><path d="M87.55 88.28333L525.45 88.28333L525.45 300.45L87.55 300.45L87.55 88.28333Z" clip-rule="nonzero"/></clipPath><path stroke="#4285f4" stroke-width="2.0" stroke-linecap="butt" clip-path="url(#id_0)" d="M87.55 299.77954L127.35909 299.8358L167.16818 299.33295L206.97728 298.99878L246.78636 297.93796L286.59546 295.98282L326.40454 292.13095L366.21362 284.42612L406.02274 269.23923L445.83182 238.47505L485.6409 177.17056L525.45 120.353386" fill-rule="nonzero"/><path stroke="#ea4335" stroke-width="2.0" stroke-linecap="butt" clip-path="url(#id_0)" d="M87.55 299.38916L127.35909 299.50055L167.16818 299.38916L206.97728 299.22156L246.78636 299.27777L286.59546 299.22156L326.40454 299.11017L366.21362 298.60733L406.02274 298.1045L445.83182 297.32373L485.6409 295.48105L525.45 293.02417" fill-rule="nonzero"/><path stroke="#fbbc04" stroke-width="2.0" stroke-linecap="butt" clip-path="url(#id_0)" d="M87.55 299.94717L127.35909 299.5568L167.16818 299.4454L206.97728 299.66815L246.78636 299.613L286.59546 299.33295L326.40454 298.83118L366.21362 297.43512L406.02274 295.25723L445.83182 290.67865L485.6409 281.8016L525.45 273.27676" fill-rule="nonzero"/><path stroke="#34a853" stroke-width="2.0" stroke-linecap="butt" clip-path="url(#id_0)" d="M87.55 299.94717L127.35909 299.77954L167.16818 299.7244L206.97728 299.613L246.78636 299.16534L286.59546 298.88632L326.40454 298.88632L366.21362 298.83118L406.02274 298.43973L445.83182 297.43512L485.6409 295.48105L525.45 293.14615" fill-rule="nonzero"/><path stroke="#ff6d01" stroke-width="2.0" stroke-linecap="butt" clip-path="url(#id_0)" d="M87.55 299.66815L127.35909 299.8358L167.16818 299.8358L206.97728 299.8358L246.78636 299.05396L286.59546 299.27777L326.40454 299.16534L366.21362 299.22156L406.02274 298.99878L445.83182 298.71872L485.6409 298.49594L525.45 297.34918" fill-rule="nonzero"/><path fill="#000000" fill-opacity="0.0" clip-path="url(#id_0)" d="M90.55 299.77954C90.55 301.4364 89.206856 302.77954 87.55 302.77954C85.89314 302.77954 84.55 301.4364 84.55 299.77954C84.55 298.1227 85.89314 296.77954 87.55 296.77954C89.206856 296.77954 90.55 298.1227 90.55 299.77954Z" fill-rule="nonzero"/><path fill="#000000" fill-opacity="0.0" clip-path="url(#id_0)" d="M130.35909 299.8358C130.35909 301.49265 129.01595 302.8358 127.35909 302.8358C125.70224 302.8358 124.35909 301.49265 124.35909 299.8358C124.35909 298.17892 125.70224 296.8358 127.35909 296.8358C129.01595 296.8358 130.35909 298.17892 130.35909 299.8358Z" fill-rule="nonzero"/><path fill="#000000" fill-opacity="0.0" clip-path="url(#id_0)" d="M170.16818 299.33295C170.16818 300.9898 168.82504 302.33295 167.16818 302.33295C165.51132 302.33295 164.16818 300.9898 164.16818 299.33295C164.16818 297.6761 165.51132 296.33295 167.16818 296.33295C168.82504 296.33295 170.16818 297.6761 170.16818 299.33295Z" fill-rule="nonzero"/><path fill="#000000" fill-opacity="0.0" clip-path="url(#id_0)" d="M209.97728 298.99878C209.97728 300.65564 208.63412 301.99878 206.97728 301.99878C205.32042 301.99878 203.97728 300.65564 203.97728 298.99878C203.97728 297.34192 205.32042 295.99878 206.97728 295.99878C208.63412 295.99878 209.97728 297.34192 209.97728 298.99878Z" fill-rule="nonzero"/><path fill="#000000" fill-opacity="0.0" clip-path="url(#id_0)" d="M249.78636 297.93796C249.78636 299.5948 248.44322 300.93796 246.78636 300.93796C245.12952 300.93796 243.78636 299.5948 243.78636 297.93796C243.78636 296.2811 245.12952 294.93796 246.78636 294.93796C248.44322 294.93796 249.78636 296.2811 249.78636 297.93796Z" fill-rule="nonzero"/><path fill="#000000" fill-opacity="0.0" clip-path="url(#id_0)" d="M289.59546 295.98282C289.59546 297.63968 288.25232 298.98282 286.59546 298.98282C284.9386 298.98282 283.59546 297.63968 283.59546 295.98282C283.59546 294.326 284.9386 292.98282 286.59546 292.98282C288.25232 292.98282 289.59546 294.326 289.59546 295.98282Z" fill-rule="nonzero"/><path fill="#000000" fill-opacity="0.0" clip-path="url(#id_0)" d="M329.40454 292.13095C329.40454 293.7878 328.0614 295.13095 326.40454 295.13095C324.74768 295.13095 323.40454 293.7878 323.40454 292.13095C323.40454 290.4741 324.74768 289.13095 326.40454 289.13095C328.0614 289.13095 329.40454 290.4741 329.40454 292.13095Z" fill-rule="nonzero"/><path fill="#000000" fill-opacity="0.0" clip-path="url(#id_0)" d="M369.21362 284.42612C369.21362 286.08298 367.87048 287.42612 366.21362 287.42612C364.5568 287.42612 363.21362 286.08298 363.21362 284.42612C363.21362 282.76926 364.5568 281.42612 366.21362 281.42612C367.87048 281.42612 369.21362 282.76926 369.21362 284.42612Z" fill-rule="nonzero"/><path fill="#000000" fill-opacity="0.0" clip-path="url(#id_0)" d="M409.02274 269.23923C409.02274 270.8961 407.6796 272.23923 406.02274 272.23923C404.36588 272.23923 403.02274 270.8961 403.02274 269.23923C403.02274 267.58237 404.36588 266.23923 406.02274 266.23923C407.6796 266.23923 409.02274 267.58237 409.02274 269.23923Z" fill-rule="nonzero"/><path fill="#000000" fill-opacity="0.0" clip-path="url(#id_0)" d="M448.83182 238.47505C448.83182 240.13191 447.48868 241.47505 445.83182 241.47505C444.17496 241.47505 442.83182 240.13191 442.83182 238.47505C442.83182 236.8182 444.17496 235.47505 445.83182 235.47505C447.48868 235.47505 448.83182 236.8182 448.83182 238.47505Z" fill-rule="nonzero"/><path fill="#000000" fill-opacity="0.0" clip-path="url(#id_0)" d="M488.6409 177.17056C488.6409 178.82741 487.29776 180.17056 485.6409 180.17056C483.98407 180.17056 482.6409 178.82741 482.6409 177.17056C482.6409 175.5137 483.98407 174.17056 485.6409 174.17056C487.29776 174.17056 488.6409 175.5137 488.6409 177.17056Z" fill-rule="nonzero"/><path fill="#000000" fill-opacity="0.0" clip-path="url(#id_0)" d="M528.45 120.353386C528.45 122.01024 527.1069 123.353386 525.45 123.353386C523.79315 123.353386 522.45 122.01024 522.45 120.353386C522.45 118.69653 523.79315 117.353386 525.45 117.353386C527.1069 117.353386 528.45 118.69653 528.45 120.353386Z" fill-rule="nonzero"/><path fill="#000000" fill-opacity="0.0" clip-path="url(#id_0)" d="M90.55 299.38916C90.55 301.04602 89.206856 302.38916 87.55 302.38916C85.89314 302.38916 84.55 301.04602 84.55 299.38916C84.55 297.7323 85.89314 296.38916 87.55 296.38916C89.206856 296.38916 90.55 297.7323 90.55 299.38916Z" fill-rule="nonzero"/><path fill="#000000" fill-opacity="0.0" clip-path="url(#id_0)" d="M130.35909 299.50055C130.35909 301.1574 129.01595 302.50055 127.35909 302.50055C125.70224 302.50055 124.35909 301.1574 124.35909 299.50055C124.35909 297.8437 125.70224 296.50055 127.35909 296.50055C129.01595 296.50055 130.35909 297.8437 130.35909 299.50055Z" fill-rule="nonzero"/><path fill="#000000" fill-opacity="0.0" clip-path="url(#id_0)" d="M170.16818 299.38916C170.16818 301.04602 168.82504 302.38916 167.16818 302.38916C165.51132 302.38916 164.16818 301.04602 164.16818 299.38916C164.16818 297.7323 165.51132 296.38916 167.16818 296.38916C168.82504 296.38916 170.16818 297.7323 170.16818 299.38916Z" fill-rule="nonzero"/><path fill="#000000" fill-opacity="0.0" clip-path="url(#id_0)" d="M209.97728 299.22156C209.97728 300.87842 208.63412 302.22156 206.97728 302.22156C205.32042 302.22156 203.97728 300.87842 203.97728 299.22156C203.97728 297.5647 205.32042 296.22156 206.97728 296.22156C208.63412 296.22156 209.97728 297.5647 209.97728 299.22156Z" fill-rule="nonzero"/><path fill="#000000" fill-opacity="0.0" clip-path="url(#id_0)" d="M249.78636 299.27777C249.78636 300.93463 248.44322 302.27777 246.78636 302.27777C245.12952 302.27777 243.78636 300.93463 243.78636 299.27777C243.78636 297.6209 245.12952 296.27777 246.78636 296.27777C248.44322 296.27777 249.78636 297.6209 249.78636 299.27777Z" fill-rule="nonzero"/><path fill="#000000" fill-opacity="0.0" clip-path="url(#id_0)" d="M289.59546 299.22156C289.59546 300.87842 288.25232 302.22156 286.59546 302.22156C284.9386 302.22156 283.59546 300.87842 283.59546 299.22156C283.59546 297.5647 284.9386 296.22156 286.59546 296.22156C288.25232 296.22156 289.59546 297.5647 289.59546 299.22156Z" fill-rule="nonzero"/><path fill="#000000" fill-opacity="0.0" clip-path="url(#id_0)" d="M329.40454 299.11017C329.40454 300.76703 328.0614 302.11017 326.40454 302.11017C324.74768 302.11017 323.40454 300.76703 323.40454 299.11017C323.40454 297.4533 324.74768 296.11017 326.40454 296.11017C328.0614 296.11017 329.40454 297.4533 329.40454 299.11017Z" fill-rule="nonzero"/><path fill="#000000" fill-opacity="0.0" clip-path="url(#id_0)" d="M369.21362 298.60733C369.21362 300.2642 367.87048 301.60733 366.21362 301.60733C364.5568 301.60733 363.21362 300.2642 363.21362 298.60733C363.21362 296.95047 364.5568 295.60733 366.21362 295.60733C367.87048 295.60733 369.21362 296.95047 369.21362 298.60733Z" fill-rule="nonzero"/><path fill="#000000" fill-opacity="0.0" clip-path="url(#id_0)" d="M409.02274 298.1045C409.02274 299.76135 407.6796 301.1045 406.02274 301.1045C404.36588 301.1045 403.02274 299.76135 403.02274 298.1045C403.02274 296.44763 404.36588 295.1045 406.02274 295.1045C407.6796 295.1045 409.02274 296.44763 409.02274 298.1045Z" fill-rule="nonzero"/><path fill="#000000" fill-opacity="0.0" clip-path="url(#id_0)" d="M448.83182 297.32373C448.83182 298.9806 447.48868 300.32373 445.83182 300.32373C444.17496 300.32373 442.83182 298.9806 442.83182 297.32373C442.83182 295.66687 444.17496 294.32373 445.83182 294.32373C447.48868 294.32373 448.83182 295.66687 448.83182 297.32373Z" fill-rule="nonzero"/><path fill="#000000" fill-opacity="0.0" clip-path="url(#id_0)" d="M488.6409 295.48105C488.6409 297.1379 487.29776 298.48105 485.6409 298.48105C483.98407 298.48105 482.6409 297.1379 482.6409 295.48105C482.6409 293.8242 483.98407 292.48105 485.6409 292.48105C487.29776 292.48105 488.6409 293.8242 488.6409 295.48105Z" fill-rule="nonzero"/><path fill="#000000" fill-opacity="0.0" clip-path="url(#id_0)" d="M528.45 293.02417C528.45 294.68103 527.1069 296.02417 525.45 296.02417C523.79315 296.02417 522.45 294.68103 522.45 293.02417C522.45 291.3673 523.79315 290.02417 525.45 290.02417C527.1069 290.02417 528.45 291.3673 528.45 293.02417Z" fill-rule="nonzero"/><path fill="#000000" fill-opacity="0.0" clip-path="url(#id_0)" d="M90.55 299.94717C90.55 301.60403 89.206856 302.94717 87.55 302.94717C85.89314 302.94717 84.55 301.60403 84.55 299.94717C84.55 298.2903 85.89314 296.94717 87.55 296.94717C89.206856 296.94717 90.55 298.2903 90.55 299.94717Z" fill-rule="nonzero"/><path fill="#000000" fill-opacity="0.0" clip-path="url(#id_0)" d="M130.35909 299.5568C130.35909 301.21362 129.01595 302.5568 127.35909 302.5568C125.70224 302.5568 124.35909 301.21362 124.35909 299.5568C124.35909 297.89993 125.70224 296.5568 127.35909 296.5568C129.01595 296.5568 130.35909 297.89993 130.35909 299.5568Z" fill-rule="nonzero"/><path fill="#000000" fill-opacity="0.0" clip-path="url(#id_0)" d="M170.16818 299.4454C170.16818 301.10223 168.82504 302.4454 167.16818 302.4454C165.51132 302.4454 164.16818 301.10223 164.16818 299.4454C164.16818 297.78854 165.51132 296.4454 167.16818 296.4454C168.82504 296.4454 170.16818 297.78854 170.16818 299.4454Z" fill-rule="nonzero"/><path fill="#000000" fill-opacity="0.0" clip-path="url(#id_0)" d="M209.97728 299.66815C209.97728 301.325 208.63412 302.66815 206.97728 302.66815C205.32042 302.66815 203.97728 301.325 203.97728 299.66815C203.97728 298.01132 205.32042 296.66815 206.97728 296.66815C208.63412 296.66815 209.97728 298.01132 209.97728 299.66815Z" fill-rule="nonzero"/><path fill="#000000" fill-opacity="0.0" clip-path="url(#id_0)" d="M249.78636 299.613C249.78636 301.26987 248.44322 302.613 246.78636 302.613C245.12952 302.613 243.78636 301.26987 243.78636 299.613C243.78636 297.95615 245.12952 296.613 246.78636 296.613C248.44322 296.613 249.78636 297.95615 249.78636 299.613Z" fill-rule="nonzero"/><path fill="#000000" fill-opacity="0.0" clip-path="url(#id_0)" d="M289.59546 299.33295C289.59546 300.9898 288.25232 302.33295 286.59546 302.33295C284.9386 302.33295 283.59546 300.9898 283.59546 299.33295C283.59546 297.6761 284.9386 296.33295 286.59546 296.33295C288.25232 296.33295 289.59546 297.6761 289.59546 299.33295Z" fill-rule="nonzero"/><path fill="#000000" fill-opacity="0.0" clip-path="url(#id_0)" d="M329.40454 298.83118C329.40454 300.48804 328.0614 301.83118 326.40454 301.83118C324.74768 301.83118 323.40454 300.48804 323.40454 298.83118C323.40454 297.17432 324.74768 295.83118 326.40454 295.83118C328.0614 295.83118 329.40454 297.17432 329.40454 298.83118Z" fill-rule="nonzero"/><path fill="#000000" fill-opacity="0.0" clip-path="url(#id_0)" d="M369.21362 297.43512C369.21362 299.09198 367.87048 300.43512 366.21362 300.43512C364.5568 300.43512 363.21362 299.09198 363.21362 297.43512C363.21362 295.77826 364.5568 294.43512 366.21362 294.43512C367.87048 294.43512 369.21362 295.77826 369.21362 297.43512Z" fill-rule="nonzero"/><path fill="#000000" fill-opacity="0.0" clip-path="url(#id_0)" d="M409.02274 295.25723C409.02274 296.91406 407.6796 298.25723 406.02274 298.25723C404.36588 298.25723 403.02274 296.91406 403.02274 295.25723C403.02274 293.60037 404.36588 292.25723 406.02274 292.25723C407.6796 292.25723 409.02274 293.60037 409.02274 295.25723Z" fill-rule="nonzero"/><path fill="#000000" fill-opacity="0.0" clip-path="url(#id_0)" d="M448.83182 290.67865C448.83182 292.3355 447.48868 293.67865 445.83182 293.67865C444.17496 293.67865 442.83182 292.3355 442.83182 290.67865C442.83182 289.02182 444.17496 287.67865 445.83182 287.67865C447.48868 287.67865 448.83182 289.02182 448.83182 290.67865Z" fill-rule="nonzero"/><path fill="#000000" fill-opacity="0.0" clip-path="url(#id_0)" d="M488.6409 281.8016C488.6409 283.45847 487.29776 284.8016 485.6409 284.8016C483.98407 284.8016 482.6409 283.45847 482.6409 281.8016C482.6409 280.14474 483.98407 278.8016 485.6409 278.8016C487.29776 278.8016 488.6409 280.14474 488.6409 281.8016Z" fill-rule="nonzero"/><path fill="#000000" fill-opacity="0.0" clip-path="url(#id_0)" d="M528.45 273.27676C528.45 274.9336 527.1069 276.27676 525.45 276.27676C523.79315 276.27676 522.45 274.9336 522.45 273.27676C522.45 271.6199 523.79315 270.27676 525.45 270.27676C527.1069 270.27676 528.45 271.6199 528.45 273.27676Z" fill-rule="nonzero"/><path fill="#000000" fill-opacity="0.0" clip-path="url(#id_0)" d="M90.55 299.94717C90.55 301.60403 89.206856 302.94717 87.55 302.94717C85.89314 302.94717 84.55 301.60403 84.55 299.94717C84.55 298.2903 85.89314 296.94717 87.55 296.94717C89.206856 296.94717 90.55 298.2903 90.55 299.94717Z" fill-rule="nonzero"/><path fill="#000000" fill-opacity="0.0" clip-path="url(#id_0)" d="M130.35909 299.77954C130.35909 301.4364 129.01595 302.77954 127.35909 302.77954C125.70224 302.77954 124.35909 301.4364 124.35909 299.77954C124.35909 298.1227 125.70224 296.77954 127.35909 296.77954C129.01595 296.77954 130.35909 298.1227 130.35909 299.77954Z" fill-rule="nonzero"/><path fill="#000000" fill-opacity="0.0" clip-path="url(#id_0)" d="M170.16818 299.7244C170.16818 301.38126 168.82504 302.7244 167.16818 302.7244C165.51132 302.7244 164.16818 301.38126 164.16818 299.7244C164.16818 298.06754 165.51132 296.7244 167.16818 296.7244C168.82504 296.7244 170.16818 298.06754 170.16818 299.7244Z" fill-rule="nonzero"/><path fill="#000000" fill-opacity="0.0" clip-path="url(#id_0)" d="M209.97728 299.613C209.97728 301.26987 208.63412 302.613 206.97728 302.613C205.32042 302.613 203.97728 301.26987 203.97728 299.613C203.97728 297.95615 205.32042 296.613 206.97728 296.613C208.63412 296.613 209.97728 297.95615 209.97728 299.613Z" fill-rule="nonzero"/><path fill="#000000" fill-opacity="0.0" clip-path="url(#id_0)" d="M249.78636 299.16534C249.78636 300.82217 248.44322 302.16534 246.78636 302.16534C245.12952 302.16534 243.78636 300.82217 243.78636 299.16534C243.78636 297.50848 245.12952 296.16534 246.78636 296.16534C248.44322 296.16534 249.78636 297.50848 249.78636 299.16534Z" fill-rule="nonzero"/><path fill="#000000" fill-opacity="0.0" clip-path="url(#id_0)" d="M289.59546 298.88632C289.59546 300.54318 288.25232 301.88632 286.59546 301.88632C284.9386 301.88632 283.59546 300.54318 283.59546 298.88632C283.59546 297.2295 284.9386 295.88632 286.59546 295.88632C288.25232 295.88632 289.59546 297.2295 289.59546 298.88632Z" fill-rule="nonzero"/><path fill="#000000" fill-opacity="0.0" clip-path="url(#id_0)" d="M329.40454 298.88632C329.40454 300.54318 328.0614 301.88632 326.40454 301.88632C324.74768 301.88632 323.40454 300.54318 323.40454 298.88632C323.40454 297.2295 324.74768 295.88632 326.40454 295.88632C328.0614 295.88632 329.40454 297.2295 329.40454 298.88632Z" fill-rule="nonzero"/><path fill="#000000" fill-opacity="0.0" clip-path="url(#id_0)" d="M369.21362 298.83118C369.21362 300.48804 367.87048 301.83118 366.21362 301.83118C364.5568 301.83118 363.21362 300.48804 363.21362 298.83118C363.21362 297.17432 364.5568 295.83118 366.21362 295.83118C367.87048 295.83118 369.21362 297.17432 369.21362 298.83118Z" fill-rule="nonzero"/><path fill="#000000" fill-opacity="0.0" clip-path="url(#id_0)" d="M409.02274 298.43973C409.02274 300.0966 407.6796 301.43973 406.02274 301.43973C404.36588 301.43973 403.02274 300.0966 403.02274 298.43973C403.02274 296.78287 404.36588 295.43973 406.02274 295.43973C407.6796 295.43973 409.02274 296.78287 409.02274 298.43973Z" fill-rule="nonzero"/><path fill="#000000" fill-opacity="0.0" clip-path="url(#id_0)" d="M448.83182 297.43512C448.83182 299.09198 447.48868 300.43512 445.83182 300.43512C444.17496 300.43512 442.83182 299.09198 442.83182 297.43512C442.83182 295.77826 444.17496 294.43512 445.83182 294.43512C447.48868 294.43512 448.83182 295.77826 448.83182 297.43512Z" fill-rule="nonzero"/><path fill="#000000" fill-opacity="0.0" clip-path="url(#id_0)" d="M488.6409 295.48105C488.6409 297.1379 487.29776 298.48105 485.6409 298.48105C483.98407 298.48105 482.6409 297.1379 482.6409 295.48105C482.6409 293.8242 483.98407 292.48105 485.6409 292.48105C487.29776 292.48105 488.6409 293.8242 488.6409 295.48105Z" fill-rule="nonzero"/><path fill="#000000" fill-opacity="0.0" clip-path="url(#id_0)" d="M528.45 293.14615C528.45 294.803 527.1069 296.14615 525.45 296.14615C523.79315 296.14615 522.45 294.803 522.45 293.14615C522.45 291.48932 523.79315 290.14615 525.45 290.14615C527.1069 290.14615 528.45 291.48932 528.45 293.14615Z" fill-rule="nonzero"/><path fill="#000000" fill-opacity="0.0" clip-path="url(#id_0)" d="M90.55 299.66815C90.55 301.325 89.206856 302.66815 87.55 302.66815C85.89314 302.66815 84.55 301.325 84.55 299.66815C84.55 298.01132 85.89314 296.66815 87.55 296.66815C89.206856 296.66815 90.55 298.01132 90.55 299.66815Z" fill-rule="nonzero"/><path fill="#000000" fill-opacity="0.0" clip-path="url(#id_0)" d="M130.35909 299.8358C130.35909 301.49265 129.01595 302.8358 127.35909 302.8358C125.70224 302.8358 124.35909 301.49265 124.35909 299.8358C124.35909 298.17892 125.70224 296.8358 127.35909 296.8358C129.01595 296.8358 130.35909 298.17892 130.35909 299.8358Z" fill-rule="nonzero"/><path fill="#000000" fill-opacity="0.0" clip-path="url(#id_0)" d="M170.16818 299.8358C170.16818 301.49265 168.82504 302.8358 167.16818 302.8358C165.51132 302.8358 164.16818 301.49265 164.16818 299.8358C164.16818 298.17892 165.51132 296.8358 167.16818 296.8358C168.82504 296.8358 170.16818 298.17892 170.16818 299.8358Z" fill-rule="nonzero"/><path fill="#000000" fill-opacity="0.0" clip-path="url(#id_0)" d="M209.97728 299.8358C209.97728 301.49265 208.63412 302.8358 206.97728 302.8358C205.32042 302.8358 203.97728 301.49265 203.97728 299.8358C203.97728 298.17892 205.32042 296.8358 206.97728 296.8358C208.63412 296.8358 209.97728 298.17892 209.97728 299.8358Z" fill-rule="nonzero"/><path fill="#000000" fill-opacity="0.0" clip-path="url(#id_0)" d="M249.78636 299.05396C249.78636 300.7108 248.44322 302.05396 246.78636 302.05396C245.12952 302.05396 243.78636 300.7108 243.78636 299.05396C243.78636 297.3971 245.12952 296.05396 246.78636 296.05396C248.44322 296.05396 249.78636 297.3971 249.78636 299.05396Z" fill-rule="nonzero"/><path fill="#000000" fill-opacity="0.0" clip-path="url(#id_0)" d="M289.59546 299.27777C289.59546 300.93463 288.25232 302.27777 286.59546 302.27777C284.9386 302.27777 283.59546 300.93463 283.59546 299.27777C283.59546 297.6209 284.9386 296.27777 286.59546 296.27777C288.25232 296.27777 289.59546 297.6209 289.59546 299.27777Z" fill-rule="nonzero"/><path fill="#000000" fill-opacity="0.0" clip-path="url(#id_0)" d="M329.40454 299.16534C329.40454 300.82217 328.0614 302.16534 326.40454 302.16534C324.74768 302.16534 323.40454 300.82217 323.40454 299.16534C323.40454 297.50848 324.74768 296.16534 326.40454 296.16534C328.0614 296.16534 329.40454 297.50848 329.40454 299.16534Z" fill-rule="nonzero"/><path fill="#000000" fill-opacity="0.0" clip-path="url(#id_0)" d="M369.21362 299.22156C369.21362 300.87842 367.87048 302.22156 366.21362 302.22156C364.5568 302.22156 363.21362 300.87842 363.21362 299.22156C363.21362 297.5647 364.5568 296.22156 366.21362 296.22156C367.87048 296.22156 369.21362 297.5647 369.21362 299.22156Z" fill-rule="nonzero"/><path fill="#000000" fill-opacity="0.0" clip-path="url(#id_0)" d="M409.02274 298.99878C409.02274 300.65564 407.6796 301.99878 406.02274 301.99878C404.36588 301.99878 403.02274 300.65564 403.02274 298.99878C403.02274 297.34192 404.36588 295.99878 406.02274 295.99878C407.6796 295.99878 409.02274 297.34192 409.02274 298.99878Z" fill-rule="nonzero"/><path fill="#000000" fill-opacity="0.0" clip-path="url(#id_0)" d="M448.83182 298.71872C448.83182 300.37558 447.48868 301.71872 445.83182 301.71872C444.17496 301.71872 442.83182 300.37558 442.83182 298.71872C442.83182 297.06186 444.17496 295.71872 445.83182 295.71872C447.48868 295.71872 448.83182 297.06186 448.83182 298.71872Z" fill-rule="nonzero"/><path fill="#000000" fill-opacity="0.0" clip-path="url(#id_0)" d="M488.6409 298.49594C488.6409 300.1528 487.29776 301.49594 485.6409 301.49594C483.98407 301.49594 482.6409 300.1528 482.6409 298.49594C482.6409 296.83908 483.98407 295.49594 485.6409 295.49594C487.29776 295.49594 488.6409 296.83908 488.6409 298.49594Z" fill-rule="nonzero"/><path fill="#000000" fill-opacity="0.0" clip-path="url(#id_0)" d="M528.45 297.34918C528.45 299.00604 527.1069 300.34918 525.45 300.34918C523.79315 300.34918 522.45 299.00604 522.45 297.34918C522.45 295.69232 523.79315 294.34918 525.45 294.34918C527.1069 294.34918 528.45 295.69232 528.45 297.34918Z" fill-rule="nonzero"/><path fill="#000000" d="M275.54688 346.6844L276.60938 346.59064Q276.6875 347.2469 276.96875 347.65314Q277.25 348.0594 277.82812 348.325Q278.42188 348.575 279.15625 348.575Q279.79688 348.575 280.29688 348.3875Q280.79688 348.1844 281.03125 347.85626Q281.28125 347.5125 281.28125 347.1219Q281.28125 346.71564 281.04688 346.41876Q280.8125 346.10626 280.28125 345.90314Q279.92188 345.7625 278.73438 345.48126Q277.5625 345.2 277.09375 344.95Q276.46875 344.6219 276.17188 344.15314Q275.875 343.66876 275.875 343.075Q275.875 342.4344 276.23438 341.8719Q276.60938 341.29376 277.3125 341.0125Q278.03125 340.71564 278.89062 340.71564Q279.84375 340.71564 280.57812 341.02814Q281.3125 341.325 281.70312 341.9344Q282.09375 342.52814 282.125 343.27814L281.03125 343.35626Q280.9375 342.54376 280.42188 342.1375Q279.92188 341.71564 278.9375 341.71564Q277.90625 341.71564 277.4375 342.09064Q276.96875 342.46564 276.96875 342.9969Q276.96875 343.46564 277.29688 343.7625Q277.625 344.0594 279.0 344.3719Q280.39062 344.6844 280.90625 344.91876Q281.65625 345.27814 282.01562 345.8094Q282.375 346.325 282.375 347.02814Q282.375 347.71564 281.98438 348.325Q281.59375 348.91876 280.85938 349.2625Q280.125 349.59064 279.20312 349.59064Q278.03125 349.59064 277.23438 349.2625Q276.45312 348.91876 276.0 348.23126Q275.5625 347.54376 275.54688 346.6844ZM283.79688 342.075L283.79688 340.85626L284.85938 340.85626L284.85938 342.075L283.79688 342.075ZM283.79688 349.45L283.79688 343.23126L284.85938 343.23126L284.85938 349.45L283.79688 349.45ZM286.23438 349.45L286.23438 348.59064L290.20312 344.04376Q289.51562 344.075 289.0 344.075L286.46875 344.075L286.46875 343.23126L291.5625 343.23126L291.5625 343.91876L288.1875 347.8719L287.53125 348.59064Q288.25 348.54376 288.85938 348.54376L291.75 348.54376L291.75 349.45L286.23438 349.45ZM296.04688 347.45L297.14062 347.575Q296.89062 348.52814 296.1875 349.0594Q295.48438 349.59064 294.40625 349.59064Q293.04688 349.59064 292.23438 348.7469Q291.4375 347.90314 291.4375 346.3875Q291.4375 344.825 292.25 343.96564Q293.0625 343.09064 294.34375 343.09064Q295.59375 343.09064 296.375 343.9344Q297.17188 344.77814 297.17188 346.325Q297.17188 346.41876 297.17188 346.60626L292.53125 346.60626Q292.59375 347.6375 293.10938 348.1844Q293.625 348.71564 294.40625 348.71564Q294.98438 348.71564 295.39062 348.41876Q295.8125 348.10626 296.04688 347.45ZM292.59375 345.7469L296.0625 345.7469Q296.0 344.95 295.67188 344.5594Q295.15625 343.95 294.35938 343.95Q293.625 343.95 293.125 344.4344Q292.64062 344.91876 292.59375 345.7469ZM303.8125 351.98126Q302.9375 350.8719 302.32812 349.40314Q301.73438 347.91876 301.73438 346.34064Q301.73438 344.95 302.17188 343.66876Q302.70312 342.1844 303.8125 340.71564L304.5625 340.71564Q303.85938 341.9344 303.625 342.45Q303.26562 343.2625 303.0625 344.1375Q302.8125 345.23126 302.8125 346.34064Q302.8125 349.16876 304.5625 351.98126L303.8125 351.98126ZM306.76562 349.45L305.78125 349.45L305.78125 340.85626L306.84375 340.85626L306.84375 343.91876Q307.51562 343.09064 308.54688 343.09064Q309.125 343.09064 309.625 343.325Q310.14062 343.54376 310.46875 343.96564Q310.8125 344.3875 311.0 344.98126Q311.1875 345.575 311.1875 346.2469Q311.1875 347.84064 310.39062 348.71564Q309.59375 349.59064 308.5 349.59064Q307.39062 349.59064 306.76562 348.66876L306.76562 349.45ZM306.75 346.29376Q306.75 347.40314 307.0625 347.90314Q307.5625 348.71564 308.40625 348.71564Q309.09375 348.71564 309.59375 348.1219Q310.10938 347.52814 310.10938 346.325Q310.10938 345.10626 309.625 344.52814Q309.14062 343.95 308.45312 343.95Q307.76562 343.95 307.25 344.5594Q306.75 345.15314 306.75 346.29376ZM312.75 351.84064L312.625 350.85626Q312.96875 350.95 313.23438 350.95Q313.57812 350.95 313.78125 350.825Q314.0 350.71564 314.14062 350.5125Q314.23438 350.34064 314.46875 349.71564Q314.48438 349.6375 314.5625 349.46564L312.1875 343.23126L313.32812 343.23126L314.625 346.825Q314.875 347.5125 315.07812 348.27814Q315.26562 347.54376 315.51562 346.85626L316.84375 343.23126L317.89062 343.23126L315.53125 349.5594Q315.14062 350.575 314.9375 350.96564Q314.65625 351.4969 314.28125 351.73126Q313.92188 351.98126 313.42188 351.98126Q313.125 351.98126 312.75 351.84064ZM320.09375 348.5125L320.25 349.4344Q319.79688 349.52814 319.45312 349.52814Q318.875 349.52814 318.5625 349.35626Q318.25 349.16876 318.10938 348.8719Q317.98438 348.575 317.98438 347.6219L317.98438 344.04376L317.21875 344.04376L317.21875 343.23126L317.98438 343.23126L317.98438 341.6844L319.03125 341.0594L319.03125 343.23126L320.09375 343.23126L320.09375 344.04376L319.03125 344.04376L319.03125 347.6844Q319.03125 348.1375 319.07812 348.2625Q319.14062 348.3875 319.26562 348.46564Q319.39062 348.54376 319.625 348.54376Q319.8125 348.54376 320.09375 348.5125ZM325.04688 347.45L326.14062 347.575Q325.89062 348.52814 325.1875 349.0594Q324.48438 349.59064 323.40625 349.59064Q322.04688 349.59064 321.23438 348.7469Q320.4375 347.90314 320.4375 346.3875Q320.4375 344.825 321.25 343.96564Q322.0625 343.09064 323.34375 343.09064Q324.59375 343.09064 325.375 343.9344Q326.17188 344.77814 326.17188 346.325Q326.17188 346.41876 326.17188 346.60626L321.53125 346.60626Q321.59375 347.6375 322.10938 348.1844Q322.625 348.71564 323.40625 348.71564Q323.98438 348.71564 324.39062 348.41876Q324.8125 348.10626 325.04688 347.45ZM321.59375 345.7469L325.0625 345.7469Q325.0 344.95 324.67188 344.5594Q324.15625 343.95 323.35938 343.95Q322.625 343.95 322.125 344.4344Q321.64062 344.91876 321.59375 345.7469ZM327.375 347.59064L328.40625 347.4344Q328.5 348.0594 328.89062 348.3875Q329.29688 348.71564 330.03125 348.71564Q330.75 348.71564 331.09375 348.4344Q331.45312 348.1375 331.45312 347.73126Q331.45312 347.3719 331.14062 347.16876Q330.92188 347.02814 330.0625 346.8094Q328.90625 346.5125 328.45312 346.3094Q328.01562 346.09064 327.78125 345.71564Q327.54688 345.34064 327.54688 344.8719Q327.54688 344.46564 327.73438 344.10626Q327.92188 343.7469 328.25 343.5125Q328.5 343.34064 328.92188 343.21564Q329.34375 343.09064 329.84375 343.09064Q330.5625 343.09064 331.10938 343.3094Q331.67188 343.5125 331.9375 343.8719Q332.20312 344.23126 332.29688 344.825L331.26562 344.96564Q331.20312 344.4969 330.85938 344.23126Q330.53125 343.95 329.90625 343.95Q329.1875 343.95 328.875 344.2Q328.5625 344.4344 328.5625 344.7625Q328.5625 344.96564 328.6875 345.1219Q328.82812 345.29376 329.09375 345.40314Q329.25 345.46564 330.03125 345.66876Q331.15625 345.98126 331.59375 346.16876Q332.03125 346.35626 332.28125 346.71564Q332.53125 347.075 332.53125 347.6219Q332.53125 348.15314 332.21875 348.6219Q331.92188 349.075 331.34375 349.34064Q330.76562 349.59064 330.03125 349.59064Q328.8125 349.59064 328.17188 349.09064Q327.54688 348.575 327.375 347.59064ZM335.48438 351.98126L334.73438 351.98126Q336.48438 349.16876 336.48438 346.34064Q336.48438 345.2469 336.23438 344.15314Q336.03125 343.27814 335.67188 342.46564Q335.4375 341.95 334.73438 340.71564L335.48438 340.71564Q336.57812 342.1844 337.10938 343.66876Q337.5625 344.95 337.5625 346.34064Q337.5625 347.91876 336.95312 349.40314Q336.34375 350.8719 335.48438 351.98126Z" fill-rule="nonzero"/><path fill="#000000" d="M27.550013 274.8198L27.675013 273.72604Q28.628138 273.97604 29.159388 274.67917Q29.690638 275.3823 29.690638 276.46042Q29.690638 277.8198 28.846888 278.6323Q28.003138 279.42917 26.487513 279.42917Q24.925013 279.42917 24.065638 278.61667Q23.190638 277.80417 23.190638 276.52292Q23.190638 275.27292 24.034388 274.49167Q24.878138 273.6948 26.425013 273.6948Q26.518763 273.6948 26.706263 273.6948L26.706263 278.33542Q27.737513 278.27292 28.284388 277.7573Q28.815638 277.24167 28.815638 276.46042Q28.815638 275.8823 28.518763 275.47604Q28.206263 275.05417 27.550013 274.8198ZM25.846888 278.27292L25.846888 274.80417Q25.050013 274.86667 24.659388 275.1948Q24.050013 275.71042 24.050013 276.5073Q24.050013 277.24167 24.534388 277.74167Q25.018763 278.22604 25.846888 278.27292ZM29.550013 272.77292L26.315638 270.5073L23.331263 272.60104L23.331263 271.28854L24.784388 270.33542Q25.206263 270.0698 25.487513 269.89792Q25.096888 269.64792 24.800013 269.42917L23.331263 268.3823L23.331263 267.11667L26.253138 269.27292L29.550013 266.96042L29.550013 268.24167L27.612513 269.52292L27.096888 269.86667L29.550013 271.5073L29.550013 272.77292ZM27.550013 262.8198L27.675013 261.72604Q28.628138 261.97604 29.159388 262.67917Q29.690638 263.3823 29.690638 264.46042Q29.690638 265.8198 28.846888 266.6323Q28.003138 267.42917 26.487513 267.42917Q24.925013 267.42917 24.065638 266.61667Q23.190638 265.80417 23.190638 264.52292Q23.190638 263.27292 24.034388 262.49167Q24.878138 261.6948 26.425013 261.6948Q26.518763 261.6948 26.706263 261.6948L26.706263 266.33542Q27.737513 266.27292 28.284388 265.7573Q28.815638 265.24167 28.815638 264.46042Q28.815638 263.8823 28.518763 263.47604Q28.206263 263.05417 27.550013 262.8198ZM25.846888 266.27292L25.846888 262.80417Q25.050013 262.86667 24.659388 263.1948Q24.050013 263.71042 24.050013 264.5073Q24.050013 265.24167 24.534388 265.74167Q25.018763 266.22604 25.846888 266.27292ZM27.268763 256.0073L27.409388 254.97604Q28.471888 255.14792 29.081263 255.85104Q29.690638 256.55417 29.690638 257.5698Q29.690638 258.85104 28.862513 259.6323Q28.018763 260.39792 26.456263 260.39792Q25.456263 260.39792 24.706263 260.0698Q23.940638 259.72604 23.565638 259.05417Q23.190638 258.36667 23.190638 257.55417Q23.190638 256.55417 23.706263 255.91354Q24.206263 255.2573 25.159388 255.0698L25.315638 256.10104Q24.690638 256.24167 24.378138 256.61667Q24.050013 256.99167 24.050013 257.52292Q24.050013 258.3198 24.628138 258.8198Q25.190638 259.3198 26.425013 259.3198Q27.690638 259.3198 28.253138 258.83542Q28.815638 258.35104 28.815638 257.58542Q28.815638 256.96042 28.440638 256.55417Q28.065638 256.1323 27.268763 256.0073ZM28.612513 248.77292L29.534388 248.61667Q29.628138 249.0698 29.628138 249.41354Q29.628138 249.99167 29.456263 250.30417Q29.268763 250.61667 28.971888 250.7573Q28.675013 250.8823 27.721888 250.8823L24.143763 250.8823L24.143763 251.64792L23.331263 251.64792L23.331263 250.8823L21.784388 250.8823L21.159388 249.83542L23.331263 249.83542L23.331263 248.77292L24.143763 248.77292L24.143763 249.83542L27.784388 249.83542Q28.237513 249.83542 28.362513 249.78854Q28.487513 249.72604 28.565638 249.60104Q28.643763 249.47604 28.643763 249.24167Q28.643763 249.05417 28.612513 248.77292ZM22.175013 248.0698L20.956263 248.0698L20.956263 247.0073L22.175013 247.0073L22.175013 248.0698ZM29.550013 248.0698L23.331263 248.0698L23.331263 247.0073L29.550013 247.0073L29.550013 248.0698ZM29.550013 245.0698L23.331263 245.0698L23.331263 244.1323L24.206263 244.1323Q23.737513 243.83542 23.471888 243.35104Q23.190638 242.86667 23.190638 242.24167Q23.190638 241.55417 23.471888 241.11667Q23.753138 240.66354 24.268763 240.49167Q23.190638 239.74167 23.190638 238.5698Q23.190638 237.6323 23.706263 237.14792Q24.206263 236.64792 25.284388 236.64792L29.550013 236.64792L29.550013 237.6948L25.628138 237.6948Q25.003138 237.6948 24.721888 237.80417Q24.440638 237.89792 24.268763 238.16354Q24.096888 238.42917 24.096888 238.80417Q24.096888 239.46042 24.534388 239.89792Q24.971888 240.3198 25.940638 240.3198L29.550013 240.3198L29.550013 241.3823L25.503138 241.3823Q24.800013 241.3823 24.456263 241.64792Q24.096888 241.89792 24.096888 242.47604Q24.096888 242.92917 24.331263 243.30417Q24.565638 243.67917 25.018763 243.85104Q25.471888 244.02292 26.315638 244.02292L29.550013 244.02292L29.550013 245.0698ZM27.550013 229.8198L27.675013 228.72604Q28.628138 228.97604 29.159388 229.67917Q29.690638 230.3823 29.690638 231.46042Q29.690638 232.8198 28.846888 233.6323Q28.003138 234.42917 26.487513 234.42917Q24.925013 234.42917 24.065638 233.61667Q23.190638 232.80417 23.190638 231.52292Q23.190638 230.27292 24.034388 229.49167Q24.878138 228.6948 26.425013 228.6948Q26.518763 228.6948 26.706263 228.6948L26.706263 233.33542Q27.737513 233.27292 28.284388 232.7573Q28.815638 232.24167 28.815638 231.46042Q28.815638 230.8823 28.518763 230.47604Q28.206263 230.05417 27.550013 229.8198ZM25.846888 233.27292L25.846888 229.80417Q25.050013 229.86667 24.659388 230.1948Q24.050013 230.71042 24.050013 231.5073Q24.050013 232.24167 24.534388 232.74167Q25.018763 233.22604 25.846888 233.27292ZM31.940638 224.0698L23.331263 224.0698L23.331263 223.11667L24.128138 223.11667Q23.659388 222.77292 23.425013 222.35104Q23.190638 221.91354 23.190638 221.30417Q23.190638 220.5073 23.596888 219.89792Q24.003138 219.28854 24.753138 218.99167Q25.503138 218.67917 26.393763 218.67917Q27.346888 218.67917 28.112513 219.02292Q28.878138 219.35104 29.284388 220.0073Q29.690638 220.66354 29.690638 221.3823Q29.690638 221.91354 29.471888 222.33542Q29.237513 222.7573 28.909388 223.02292L31.940638 223.02292L31.940638 224.0698ZM26.471888 223.11667Q27.675013 223.11667 28.253138 222.6323Q28.815638 222.14792 28.815638 221.46042Q28.815638 220.7573 28.221888 220.2573Q27.628138 219.7573 26.378138 219.7573Q25.190638 219.7573 24.612513 220.24167Q24.018763 220.72604 24.018763 221.41354Q24.018763 222.08542 24.643763 222.60104Q25.268763 223.11667 26.471888 223.11667ZM27.550013 212.8198L27.675013 211.72604Q28.628138 211.97604 29.159388 212.67917Q29.690638 213.3823 29.690638 214.46042Q29.690638 215.8198 28.846888 216.6323Q28.003138 217.42917 26.487513 217.42917Q24.925013 217.42917 24.065638 216.61667Q23.190638 215.80417 23.190638 214.52292Q23.190638 213.27292 24.034388 212.49167Q24.878138 211.6948 26.425013 211.6948Q26.518763 211.6948 26.706263 211.6948L26.706263 216.33542Q27.737513 216.27292 28.284388 215.7573Q28.815638 215.24167 28.815638 214.46042Q28.815638 213.8823 28.518763 213.47604Q28.206263 213.05417 27.550013 212.8198ZM25.846888 216.27292L25.846888 212.80417Q25.050013 212.86667 24.659388 213.1948Q24.050013 213.71042 24.050013 214.5073Q24.050013 215.24167 24.534388 215.74167Q25.018763 216.22604 25.846888 216.27292ZM29.550013 210.08542L23.331263 210.08542L23.331263 209.1323L24.268763 209.1323Q23.612513 208.77292 23.409388 208.47604Q23.190638 208.16354 23.190638 207.78854Q23.190638 207.2573 23.518763 206.71042L24.503138 207.0698Q24.268763 207.46042 24.268763 207.83542Q24.268763 208.1948 24.487513 208.47604Q24.690638 208.74167 25.065638 208.85104Q25.628138 209.03854 26.284388 209.03854L29.550013 209.03854L29.550013 210.08542ZM22.175013 203.0698L20.956263 203.0698L20.956263 202.0073L22.175013 202.0073L22.175013 203.0698ZM29.550013 203.0698L23.331263 203.0698L23.331263 202.0073L29.550013 202.0073L29.550013 203.0698ZM29.550013 200.0698L23.331263 200.0698L23.331263 199.1323L24.206263 199.1323Q23.190638 198.4448 23.190638 197.14792Q23.190638 196.58542 23.393763 196.11667Q23.596888 195.6323 23.925013 195.39792Q24.253138 195.16354 24.690638 195.0698Q24.987513 195.02292 25.721888 195.02292L29.550013 195.02292L29.550013 196.0698L25.768763 196.0698Q25.112513 196.0698 24.800013 196.1948Q24.487513 196.3198 24.300013 196.6323Q24.096888 196.9448 24.096888 197.36667Q24.096888 198.03854 24.534388 198.53854Q24.956263 199.02292 26.143763 199.02292L29.550013 199.02292L29.550013 200.0698ZM27.690638 193.49167L27.534388 192.46042Q28.159388 192.36667 28.487513 191.97604Q28.815638 191.5698 28.815638 190.83542Q28.815638 190.11667 28.534388 189.77292Q28.237513 189.41354 27.831263 189.41354Q27.471888 189.41354 27.268763 189.72604Q27.128138 189.9448 26.909388 190.80417Q26.612513 191.96042 26.409388 192.41354Q26.190638 192.85104 25.815638 193.08542Q25.440638 193.3198 24.971888 193.3198Q24.565638 193.3198 24.206263 193.1323Q23.846888 192.9448 23.612513 192.61667Q23.440638 192.36667 23.315638 191.9448Q23.190638 191.52292 23.190638 191.02292Q23.190638 190.30417 23.409388 189.7573Q23.612513 189.1948 23.971888 188.92917Q24.331263 188.66354 24.925013 188.5698L25.065638 189.60104Q24.596888 189.66354 24.331263 190.0073Q24.050013 190.33542 24.050013 190.96042Q24.050013 191.67917 24.300013 191.99167Q24.534388 192.30417 24.862513 192.30417Q25.065638 192.30417 25.221888 192.17917Q25.393763 192.03854 25.503138 191.77292Q25.565638 191.61667 25.768763 190.83542Q26.081263 189.71042 26.268763 189.27292Q26.456263 188.83542 26.815638 188.58542Q27.175013 188.33542 27.721888 188.33542Q28.253138 188.33542 28.721888 188.64792Q29.175013 188.9448 29.440638 189.52292Q29.690638 190.10104 29.690638 190.83542Q29.690638 192.05417 29.190638 192.6948Q28.675013 193.3198 27.690638 193.49167ZM28.612513 183.77292L29.534388 183.61667Q29.628138 184.0698 29.628138 184.41354Q29.628138 184.99167 29.456263 185.30417Q29.268763 185.61667 28.971888 185.7573Q28.675013 185.8823 27.721888 185.8823L24.143763 185.8823L24.143763 186.64792L23.331263 186.64792L23.331263 185.8823L21.784388 185.8823L21.159388 184.83542L23.331263 184.83542L23.331263 183.77292L24.143763 183.77292L24.143763 184.83542L27.784388 184.83542Q28.237513 184.83542 28.362513 184.78854Q28.487513 184.72604 28.565638 184.60104Q28.643763 184.47604 28.643763 184.24167Q28.643763 184.05417 28.612513 183.77292ZM29.550013 183.08542L23.331263 183.08542L23.331263 182.1323L24.268763 182.1323Q23.612513 181.77292 23.409388 181.47604Q23.190638 181.16354 23.190638 180.78854Q23.190638 180.2573 23.518763 179.71042L24.503138 180.0698Q24.268763 180.46042 24.268763 180.83542Q24.268763 181.1948 24.487513 181.47604Q24.690638 181.74167 25.065638 181.85104Q25.628138 182.03854 26.284388 182.03854L29.550013 182.03854L29.550013 183.08542ZM29.550013 174.99167L28.628138 174.99167Q29.690638 175.72604 29.690638 176.97604Q29.690638 177.52292 29.487513 178.0073Q29.268763 178.47604 28.956263 178.71042Q28.628138 178.9448 28.159388 179.03854Q27.862513 179.10104 27.175013 179.10104L23.331263 179.10104L23.331263 178.03854L26.784388 178.03854Q27.596888 178.03854 27.893763 177.97604Q28.300013 177.8823 28.550013 177.5698Q28.784388 177.24167 28.784388 176.7573Q28.784388 176.28854 28.550013 175.8823Q28.300013 175.46042 27.878138 175.28854Q27.456263 175.10104 26.659388 175.10104L23.331263 175.10104L23.331263 174.05417L29.550013 174.05417L29.550013 174.99167ZM27.268763 168.0073L27.409388 166.97604Q28.471888 167.14792 29.081263 167.85104Q29.690638 168.55417 29.690638 169.5698Q29.690638 170.85104 28.862513 171.6323Q28.018763 172.39792 26.456263 172.39792Q25.456263 172.39792 24.706263 172.0698Q23.940638 171.72604 23.565638 171.05417Q23.190638 170.36667 23.190638 169.55417Q23.190638 168.55417 23.706263 167.91354Q24.206263 167.2573 25.159388 167.0698L25.315638 168.10104Q24.690638 168.24167 24.378138 168.61667Q24.050013 168.99167 24.050013 169.52292Q24.050013 170.3198 24.628138 170.8198Q25.190638 171.3198 26.425013 171.3198Q27.690638 171.3198 28.253138 170.83542Q28.815638 170.35104 28.815638 169.58542Q28.815638 168.96042 28.440638 168.55417Q28.065638 168.1323 27.268763 168.0073ZM28.612513 163.77292L29.534388 163.61667Q29.628138 164.0698 29.628138 164.41354Q29.628138 164.99167 29.456263 165.30417Q29.268763 165.61667 28.971888 165.7573Q28.675013 165.8823 27.721888 165.8823L24.143763 165.8823L24.143763 166.64792L23.331263 166.64792L23.331263 165.8823L21.784388 165.8823L21.159388 164.83542L23.331263 164.83542L23.331263 163.77292L24.143763 163.77292L24.143763 164.83542L27.784388 164.83542Q28.237513 164.83542 28.362513 164.78854Q28.487513 164.72604 28.565638 164.60104Q28.643763 164.47604 28.643763 164.24167Q28.643763 164.05417 28.612513 163.77292ZM22.175013 163.0698L20.956263 163.0698L20.956263 162.0073L22.175013 162.0073L22.175013 163.0698ZM29.550013 163.0698L23.331263 163.0698L23.331263 162.0073L29.550013 162.0073L29.550013 163.0698ZM26.440638 160.46042Q24.706263 160.46042 23.878138 159.5073Q23.190638 158.71042 23.190638 157.55417Q23.190638 156.27292 24.034388 155.46042Q24.862513 154.6323 26.346888 154.6323Q27.550013 154.6323 28.237513 154.99167Q28.925013 155.35104 29.315638 156.05417Q29.690638 156.74167 29.690638 157.55417Q29.690638 158.85104 28.862513 159.66354Q28.018763 160.46042 26.440638 160.46042ZM26.440638 159.3823Q27.628138 159.3823 28.221888 158.86667Q28.815638 158.33542 28.815638 157.55417Q28.815638 156.7573 28.221888 156.24167Q27.628138 155.72604 26.409388 155.72604Q25.253138 155.72604 24.659388 156.2573Q24.065638 156.77292 24.065638 157.55417Q24.065638 158.33542 24.659388 158.86667Q25.237513 159.3823 26.440638 159.3823ZM29.550013 153.0698L23.331263 153.0698L23.331263 152.1323L24.206263 152.1323Q23.190638 151.4448 23.190638 150.14792Q23.190638 149.58542 23.393763 149.11667Q23.596888 148.6323 23.925013 148.39792Q24.253138 148.16354 24.690638 148.0698Q24.987513 148.02292 25.721888 148.02292L29.550013 148.02292L29.550013 149.0698L25.768763 149.0698Q25.112513 149.0698 24.800013 149.1948Q24.487513 149.3198 24.300013 149.6323Q24.096888 149.9448 24.096888 150.36667Q24.096888 151.03854 24.534388 151.53854Q24.956263 152.02292 26.143763 152.02292L29.550013 152.02292L29.550013 153.0698ZM32.08126 141.05417Q30.971888 141.92917 29.503138 142.53854Q28.018763 143.1323 26.440638 143.1323Q25.050013 143.1323 23.768763 142.6948Q22.284388 142.16354 20.815638 141.05417L20.815638 140.30417Q22.034388 141.0073 22.550013 141.24167Q23.362513 141.60104 24.237513 141.80417Q25.331263 142.05417 26.440638 142.05417Q29.268763 142.05417 32.08126 140.30417L32.08126 141.05417ZM29.550013 139.0698L23.331263 139.0698L23.331263 138.1323L24.206263 138.1323Q23.190638 137.4448 23.190638 136.14792Q23.190638 135.58542 23.393763 135.11667Q23.596888 134.6323 23.925013 134.39792Q24.253138 134.16354 24.690638 134.0698Q24.987513 134.02292 25.721888 134.02292L29.550013 134.02292L29.550013 135.0698L25.768763 135.0698Q25.112513 135.0698 24.800013 135.1948Q24.487513 135.3198 24.300013 135.6323Q24.096888 135.9448 24.096888 136.36667Q24.096888 137.03854 24.534388 137.53854Q24.956263 138.02292 26.143763 138.02292L29.550013 138.02292L29.550013 139.0698ZM27.690638 132.49167L27.534388 131.46042Q28.159388 131.36667 28.487513 130.97604Q28.815638 130.5698 28.815638 129.83542Q28.815638 129.11667 28.534388 128.77292Q28.237513 128.41354 27.831263 128.41354Q27.471888 128.41354 27.268763 128.72604Q27.128138 128.9448 26.909388 129.80417Q26.612513 130.96042 26.409388 131.41354Q26.190638 131.85104 25.815638 132.08542Q25.440638 132.3198 24.971888 132.3198Q24.565638 132.3198 24.206263 132.1323Q23.846888 131.9448 23.612513 131.61667Q23.440638 131.36667 23.315638 130.9448Q23.190638 130.52292 23.190638 130.02292Q23.190638 129.30417 23.409388 128.7573Q23.612513 128.1948 23.971888 127.92917Q24.331263 127.66354 24.925013 127.56979L25.065638 128.60104Q24.596888 128.66354 24.331263 129.0073Q24.050013 129.33542 24.050013 129.96042Q24.050013 130.67917 24.300013 130.99167Q24.534388 131.30417 24.862513 131.30417Q25.065638 131.30417 25.221888 131.17917Q25.393763 131.03854 25.503138 130.77292Q25.565638 130.61667 25.768763 129.83542Q26.081263 128.71042 26.268763 128.27292Q26.456263 127.83542 26.815638 127.58542Q27.175013 127.33542 27.721888 127.33542Q28.253138 127.33542 28.721888 127.64792Q29.175013 127.94479 29.440638 128.52292Q29.690638 129.10104 29.690638 129.83542Q29.690638 131.05417 29.190638 131.6948Q28.675013 132.3198 27.690638 132.49167ZM32.08126 124.38229L32.08126 125.13229Q29.268763 123.38229 26.440638 123.38229Q25.346888 123.38229 24.253138 123.63229Q23.378138 123.83542 22.565638 124.19479Q22.050013 124.42917 20.815638 125.13229L20.815638 124.38229Q22.284388 123.28854 23.768763 122.75729Q25.050013 122.30417 26.440638 122.30417Q28.018763 122.30417 29.503138 122.91354Q30.971888 123.52292 32.08126 124.38229Z" fill-rule="nonzero"/><path fill="#000000" d="M75.05 300.21564Q75.05 298.6844 75.3625 297.7625Q75.675 296.825 76.28438 296.325Q76.90938 295.825 77.84688 295.825Q78.53438 295.825 79.05 296.10626Q79.58125 296.3875 79.925 296.91876Q80.26875 297.4344 80.45625 298.1844Q80.64375 298.9344 80.64375 300.21564Q80.64375 301.73126 80.33125 302.65314Q80.03438 303.575 79.40938 304.09064Q78.8 304.59064 77.84688 304.59064Q76.6125 304.59064 75.89375 303.7Q75.05 302.6375 75.05 300.21564ZM76.12813 300.21564Q76.12813 302.325 76.62813 303.02814Q77.12813 303.73126 77.84688 303.73126Q78.58125 303.73126 79.06563 303.02814Q79.56563 302.325 79.56563 300.21564Q79.56563 298.09064 79.06563 297.40314Q78.58125 296.7 77.83125 296.7Q77.1125 296.7 76.675 297.3094Q76.12813 298.09064 76.12813 300.21564Z" fill-rule="nonzero"/><path fill="#000000" d="M61.05 249.15834L62.159374 249.06459Q62.284374 249.87709 62.721874 250.28334Q63.175 250.68959 63.815624 250.68959Q64.56563 250.68959 65.09688 250.11147Q65.62813 249.53334 65.62813 248.59584Q65.62813 247.68959 65.1125 247.17397Q64.6125 246.64272 63.784374 246.64272Q63.284374 246.64272 62.8625 246.87709Q62.45625 247.11147 62.221874 247.47084L61.2375 247.34584L62.065624 242.93959L66.34688 242.93959L66.34688 243.93959L62.909374 243.93959L62.45625 246.25209Q63.221874 245.70522 64.06563 245.70522Q65.19063 245.70522 65.95625 246.48647Q66.7375 247.26772 66.7375 248.50209Q66.7375 249.65834 66.06563 250.51772Q65.2375 251.54897 63.815624 251.54897Q62.64375 251.54897 61.89375 250.89272Q61.159374 250.23647 61.05 249.15834ZM68.05 247.17397Q68.05 245.64272 68.3625 244.72084Q68.675 243.78334 69.28438 243.28334Q69.90938 242.78334 70.84688 242.78334Q71.53438 242.78334 72.05 243.06459Q72.58125 243.34584 72.925 243.87709Q73.26875 244.39272 73.45625 245.14272Q73.64375 245.89272 73.64375 247.17397Q73.64375 248.68959 73.33125 249.61147Q73.03438 250.53334 72.40938 251.04897Q71.8 251.54897 70.84688 251.54897Q69.6125 251.54897 68.89375 250.65834Q68.05 249.59584 68.05 247.17397ZM69.12813 247.17397Q69.12813 249.28334 69.62813 249.98647Q70.12813 250.68959 70.84688 250.68959Q71.58125 250.68959 72.06563 249.98647Q72.56563 249.28334 72.56563 247.17397Q72.56563 245.04897 72.06563 244.36147Q71.58125 243.65834 70.83125 243.65834Q70.1125 243.65834 69.675 244.26772Q69.12813 245.04897 69.12813 247.17397ZM75.05 247.17397Q75.05 245.64272 75.3625 244.72084Q75.675 243.78334 76.28438 243.28334Q76.90938 242.78334 77.84688 242.78334Q78.53438 242.78334 79.05 243.06459Q79.58125 243.34584 79.925 243.87709Q80.26875 244.39272 80.45625 245.14272Q80.64375 245.89272 80.64375 247.17397Q80.64375 248.68959 80.33125 249.61147Q80.03438 250.53334 79.40938 251.04897Q78.8 251.54897 77.84688 251.54897Q76.6125 251.54897 75.89375 250.65834Q75.05 249.59584 75.05 247.17397ZM76.12813 247.17397Q76.12813 249.28334 76.62813 249.98647Q77.12813 250.68959 77.84688 250.68959Q78.58125 250.68959 79.06563 249.98647Q79.56563 249.28334 79.56563 247.17397Q79.56563 245.04897 79.06563 244.36147Q78.58125 243.65834 77.83125 243.65834Q77.1125 243.65834 76.675 244.26772Q76.12813 245.04897 76.12813 247.17397Z" fill-rule="nonzero"/><path fill="#000000" d="M55.01875 198.36667L53.971874 198.36667L53.971874 191.64792Q53.58125 192.0073 52.95625 192.3823Q52.346874 192.74167 51.8625 192.91354L51.8625 191.89792Q52.7375 191.47604 53.39375 190.89792Q54.065624 190.30417 54.346874 189.74167L55.01875 189.74167L55.01875 198.36667ZM58.6125 198.36667L58.6125 197.16354L59.815624 197.16354L59.815624 198.36667Q59.815624 199.02292 59.58125 199.42917Q59.346874 199.85104 58.846874 200.0698L58.55 199.61667Q58.878124 199.47604 59.034374 199.17917Q59.190624 198.89792 59.221874 198.36667L58.6125 198.36667ZM61.05 194.1323Q61.05 192.60104 61.3625 191.67917Q61.675 190.74167 62.284374 190.24167Q62.909374 189.74167 63.846874 189.74167Q64.53438 189.74167 65.05 190.02292Q65.58125 190.30417 65.925 190.83542Q66.26875 191.35104 66.45625 192.10104Q66.64375 192.85104 66.64375 194.1323Q66.64375 195.64792 66.33125 196.5698Q66.03438 197.49167 65.40938 198.0073Q64.8 198.5073 63.846874 198.5073Q62.6125 198.5073 61.89375 197.61667Q61.05 196.55417 61.05 194.1323ZM62.128124 194.1323Q62.128124 196.24167 62.628124 196.9448Q63.128124 197.64792 63.846874 197.64792Q64.58125 197.64792 65.06563 196.9448Q65.56563 196.24167 65.56563 194.1323Q65.56563 192.0073 65.06563 191.3198Q64.58125 190.61667 63.83125 190.61667Q63.1125 190.61667 62.675 191.22604Q62.128124 192.0073 62.128124 194.1323ZM68.05 194.1323Q68.05 192.60104 68.3625 191.67917Q68.675 190.74167 69.28438 190.24167Q69.90938 189.74167 70.84688 189.74167Q71.53438 189.74167 72.05 190.02292Q72.58125 190.30417 72.925 190.83542Q73.26875 191.35104 73.45625 192.10104Q73.64375 192.85104 73.64375 194.1323Q73.64375 195.64792 73.33125 196.5698Q73.03438 197.49167 72.40938 198.0073Q71.8 198.5073 70.84688 198.5073Q69.6125 198.5073 68.89375 197.61667Q68.05 196.55417 68.05 194.1323ZM69.12813 194.1323Q69.12813 196.24167 69.62813 196.9448Q70.12813 197.64792 70.84688 197.64792Q71.58125 197.64792 72.06563 196.9448Q72.56563 196.24167 72.56563 194.1323Q72.56563 192.0073 72.06563 191.3198Q71.58125 190.61667 70.83125 190.61667Q70.1125 190.61667 69.675 191.22604Q69.12813 192.0073 69.12813 194.1323ZM75.05 194.1323Q75.05 192.60104 75.3625 191.67917Q75.675 190.74167 76.28438 190.24167Q76.90938 189.74167 77.84688 189.74167Q78.53438 189.74167 79.05 190.02292Q79.58125 190.30417 79.925 190.83542Q80.26875 191.35104 80.45625 192.10104Q80.64375 192.85104 80.64375 194.1323Q80.64375 195.64792 80.33125 196.5698Q80.03438 197.49167 79.40938 198.0073Q78.8 198.5073 77.84688 198.5073Q76.6125 198.5073 75.89375 197.61667Q75.05 196.55417 75.05 194.1323ZM76.12813 194.1323Q76.12813 196.24167 76.62813 196.9448Q77.12813 197.64792 77.84688 197.64792Q78.58125 197.64792 79.06563 196.9448Q79.56563 196.24167 79.56563 194.1323Q79.56563 192.0073 79.06563 191.3198Q78.58125 190.61667 77.83125 190.61667Q77.1125 190.61667 76.675 191.22604Q76.12813 192.0073 76.12813 194.1323Z" fill-rule="nonzero"/><path fill="#000000" d="M55.01875 145.325L53.971874 145.325L53.971874 138.60625Q53.58125 138.96562 52.95625 139.34062Q52.346874 139.7 51.8625 139.87187L51.8625 138.85625Q52.7375 138.43437 53.39375 137.85625Q54.065624 137.2625 54.346874 136.7L55.01875 136.7L55.01875 145.325ZM58.6125 145.325L58.6125 144.12187L59.815624 144.12187L59.815624 145.325Q59.815624 145.98125 59.58125 146.3875Q59.346874 146.80937 58.846874 147.02812L58.55 146.575Q58.878124 146.43437 59.034374 146.1375Q59.190624 145.85625 59.221874 145.325L58.6125 145.325ZM61.05 143.075L62.159374 142.98125Q62.284374 143.79375 62.721874 144.2Q63.175 144.60625 63.815624 144.60625Q64.56563 144.60625 65.09688 144.02812Q65.62813 143.45 65.62813 142.5125Q65.62813 141.60625 65.1125 141.09062Q64.6125 140.55937 63.784374 140.55937Q63.284374 140.55937 62.8625 140.79375Q62.45625 141.02812 62.221874 141.3875L61.2375 141.2625L62.065624 136.85625L66.34688 136.85625L66.34688 137.85625L62.909374 137.85625L62.45625 140.16875Q63.221874 139.62187 64.06563 139.62187Q65.19063 139.62187 65.95625 140.40312Q66.7375 141.18437 66.7375 142.41875Q66.7375 143.575 66.06563 144.43437Q65.2375 145.46562 63.815624 145.46562Q62.64375 145.46562 61.89375 144.80937Q61.159374 144.15312 61.05 143.075ZM68.05 141.09062Q68.05 139.55937 68.3625 138.6375Q68.675 137.7 69.28438 137.2Q69.90938 136.7 70.84688 136.7Q71.53438 136.7 72.05 136.98125Q72.58125 137.2625 72.925 137.79375Q73.26875 138.30937 73.45625 139.05937Q73.64375 139.80937 73.64375 141.09062Q73.64375 142.60625 73.33125 143.52812Q73.03438 144.45 72.40938 144.96562Q71.8 145.46562 70.84688 145.46562Q69.6125 145.46562 68.89375 144.575Q68.05 143.5125 68.05 141.09062ZM69.12813 141.09062Q69.12813 143.2 69.62813 143.90312Q70.12813 144.60625 70.84688 144.60625Q71.58125 144.60625 72.06563 143.90312Q72.56563 143.2 72.56563 141.09062Q72.56563 138.96562 72.06563 138.27812Q71.58125 137.575 70.83125 137.575Q70.1125 137.575 69.675 138.18437Q69.12813 138.96562 69.12813 141.09062ZM75.05 141.09062Q75.05 139.55937 75.3625 138.6375Q75.675 137.7 76.28438 137.2Q76.90938 136.7 77.84688 136.7Q78.53438 136.7 79.05 136.98125Q79.58125 137.2625 79.925 137.79375Q80.26875 138.30937 80.45625 139.05937Q80.64375 139.80937 80.64375 141.09062Q80.64375 142.60625 80.33125 143.52812Q80.03438 144.45 79.40938 144.96562Q78.8 145.46562 77.84688 145.46562Q76.6125 145.46562 75.89375 144.575Q75.05 143.5125 75.05 141.09062ZM76.12813 141.09062Q76.12813 143.2 76.62813 143.90312Q77.12813 144.60625 77.84688 144.60625Q78.58125 144.60625 79.06563 143.90312Q79.56563 143.2 79.56563 141.09062Q79.56563 138.96562 79.06563 138.27812Q78.58125 137.575 77.83125 137.575Q77.1125 137.575 76.675 138.18437Q76.12813 138.96562 76.12813 141.09062Z" fill-rule="nonzero"/><path fill="#000000" d="M56.596874 91.26771L56.596874 92.28333L50.909374 92.28333Q50.909374 91.90833 51.034374 91.54896Q51.253124 90.97083 51.721874 90.40833Q52.20625 89.84583 53.1125 89.11146Q54.51875 87.95521 55.003124 87.28333Q55.503124 86.61146 55.503124 86.01771Q55.503124 85.39271 55.05 84.97083Q54.596874 84.53333 53.878124 84.53333Q53.1125 84.53333 52.659374 84.98646Q52.20625 85.43958 52.190624 86.25208L51.1125 86.14271Q51.221874 84.92396 51.940624 84.29896Q52.675 83.65833 53.909374 83.65833Q55.14375 83.65833 55.8625 84.34583Q56.58125 85.03333 56.58125 86.04896Q56.58125 86.56458 56.3625 87.06458Q56.159374 87.54896 55.659374 88.11146Q55.175 88.65833 54.05 89.61146Q53.096874 90.40833 52.815624 90.70521Q52.55 90.98646 52.378124 91.26771L56.596874 91.26771ZM58.6125 92.28333L58.6125 91.08021L59.815624 91.08021L59.815624 92.28333Q59.815624 92.93958 59.58125 93.34583Q59.346874 93.76771 58.846874 93.98646L58.55 93.53333Q58.878124 93.39271 59.034374 93.09583Q59.190624 92.81458 59.221874 92.28333L58.6125 92.28333ZM61.05 88.04896Q61.05 86.51771 61.3625 85.59583Q61.675 84.65833 62.284374 84.15833Q62.909374 83.65833 63.846874 83.65833Q64.53438 83.65833 65.05 83.93958Q65.58125 84.22083 65.925 84.75208Q66.26875 85.26771 66.45625 86.01771Q66.64375 86.76771 66.64375 88.04896Q66.64375 89.56458 66.33125 90.48646Q66.03438 91.40833 65.40938 91.92396Q64.8 92.42396 63.846874 92.42396Q62.6125 92.42396 61.89375 91.53333Q61.05 90.47083 61.05 88.04896ZM62.128124 88.04896Q62.128124 90.15833 62.628124 90.86146Q63.128124 91.56458 63.846874 91.56458Q64.58125 91.56458 65.06563 90.86146Q65.56563 90.15833 65.56563 88.04896Q65.56563 85.92396 65.06563 85.23646Q64.58125 84.53333 63.83125 84.53333Q63.1125 84.53333 62.675 85.14271Q62.128124 85.92396 62.128124 88.04896ZM68.05 88.04896Q68.05 86.51771 68.3625 85.59583Q68.675 84.65833 69.28438 84.15833Q69.90938 83.65833 70.84688 83.65833Q71.53438 83.65833 72.05 83.93958Q72.58125 84.22083 72.925 84.75208Q73.26875 85.26771 73.45625 86.01771Q73.64375 86.76771 73.64375 88.04896Q73.64375 89.56458 73.33125 90.48646Q73.03438 91.40833 72.40938 91.92396Q71.8 92.42396 70.84688 92.42396Q69.6125 92.42396 68.89375 91.53333Q68.05 90.47083 68.05 88.04896ZM69.12813 88.04896Q69.12813 90.15833 69.62813 90.86146Q70.12813 91.56458 70.84688 91.56458Q71.58125 91.56458 72.06563 90.86146Q72.56563 90.15833 72.56563 88.04896Q72.56563 85.92396 72.06563 85.23646Q71.58125 84.53333 70.83125 84.53333Q70.1125 84.53333 69.675 85.14271Q69.12813 85.92396 69.12813 88.04896ZM75.05 88.04896Q75.05 86.51771 75.3625 85.59583Q75.675 84.65833 76.28438 84.15833Q76.90938 83.65833 77.84688 83.65833Q78.53438 83.65833 79.05 83.93958Q79.58125 84.22083 79.925 84.75208Q80.26875 85.26771 80.45625 86.01771Q80.64375 86.76771 80.64375 88.04896Q80.64375 89.56458 80.33125 90.48646Q80.03438 91.40833 79.40938 91.92396Q78.8 92.42396 77.84688 92.42396Q76.6125 92.42396 75.89375 91.53333Q75.05 90.47083 75.05 88.04896ZM76.12813 88.04896Q76.12813 90.15833 76.62813 90.86146Q77.12813 91.56458 77.84688 91.56458Q78.58125 91.56458 79.06563 90.86146Q79.56563 90.15833 79.56563 88.04896Q79.56563 85.92396 79.06563 85.23646Q78.58125 84.53333 77.83125 84.53333Q77.1125 84.53333 76.675 85.14271Q76.12813 85.92396 76.12813 88.04896Z" fill-rule="nonzero"/><path fill="#000000" d="M88.51875 317.45L87.47188 317.45L87.47188 310.73126Q87.08125 311.09064 86.45625 311.46564Q85.84688 311.825 85.3625 311.9969L85.3625 310.98126Q86.2375 310.5594 86.89375 309.98126Q87.56563 309.3875 87.84688 308.825L88.51875 308.825L88.51875 317.45Z" fill-rule="nonzero"/><path fill="#000000" d="M217.26169 317.45L216.21481 317.45L216.21481 310.73126Q215.82419 311.09064 215.19919 311.46564Q214.58981 311.825 214.10544 311.9969L214.10544 310.98126Q214.98044 310.5594 215.63669 309.98126Q216.30856 309.3875 216.58981 308.825L217.26169 308.825L217.26169 317.45ZM220.29294 313.21564Q220.29294 311.6844 220.60544 310.7625Q220.91794 309.825 221.52731 309.325Q222.15231 308.825 223.08981 308.825Q223.77731 308.825 224.29294 309.10626Q224.82419 309.3875 225.16794 309.91876Q225.51169 310.4344 225.69919 311.1844Q225.88669 311.9344 225.88669 313.21564Q225.88669 314.73126 225.57419 315.65314Q225.27731 316.575 224.65231 317.09064Q224.04294 317.59064 223.08981 317.59064Q221.85544 317.59064 221.13669 316.7Q220.29294 315.6375 220.29294 313.21564ZM221.37106 313.21564Q221.37106 315.325 221.87106 316.02814Q222.37106 316.73126 223.08981 316.73126Q223.82419 316.73126 224.30856 316.02814Q224.80856 315.325 224.80856 313.21564Q224.80856 311.09064 224.30856 310.40314Q223.82419 309.7 223.07419 309.7Q222.35544 309.7 221.91794 310.3094Q221.37106 311.09064 221.37106 313.21564Z" fill-rule="nonzero"/><path fill="#000000" d="M346.00464 317.45L344.95776 317.45L344.95776 310.73126Q344.56714 311.09064 343.94214 311.46564Q343.33276 311.825 342.8484 311.9969L342.8484 310.98126Q343.7234 310.5594 344.37964 309.98126Q345.0515 309.3875 345.33276 308.825L346.00464 308.825L346.00464 317.45ZM349.0359 313.21564Q349.0359 311.6844 349.3484 310.7625Q349.6609 309.825 350.27026 309.325Q350.89526 308.825 351.83276 308.825Q352.52026 308.825 353.0359 309.10626Q353.56714 309.3875 353.9109 309.91876Q354.25464 310.4344 354.44214 311.1844Q354.62964 311.9344 354.62964 313.21564Q354.62964 314.73126 354.31714 315.65314Q354.02026 316.575 353.39526 317.09064Q352.7859 317.59064 351.83276 317.59064Q350.5984 317.59064 349.87964 316.7Q349.0359 315.6375 349.0359 313.21564ZM350.114 313.21564Q350.114 315.325 350.614 316.02814Q351.114 316.73126 351.83276 316.73126Q352.56714 316.73126 353.0515 316.02814Q353.5515 315.325 353.5515 313.21564Q353.5515 311.09064 353.0515 310.40314Q352.56714 309.7 351.81714 309.7Q351.0984 309.7 350.6609 310.3094Q350.114 311.09064 350.114 313.21564ZM356.0359 313.21564Q356.0359 311.6844 356.3484 310.7625Q356.6609 309.825 357.27026 309.325Q357.89526 308.825 358.83276 308.825Q359.52026 308.825 360.0359 309.10626Q360.56714 309.3875 360.9109 309.91876Q361.25464 310.4344 361.44214 311.1844Q361.62964 311.9344 361.62964 313.21564Q361.62964 314.73126 361.31714 315.65314Q361.02026 316.575 360.39526 317.09064Q359.7859 317.59064 358.83276 317.59064Q357.5984 317.59064 356.87964 316.7Q356.0359 315.6375 356.0359 313.21564ZM357.114 313.21564Q357.114 315.325 357.614 316.02814Q358.114 316.73126 358.83276 316.73126Q359.56714 316.73126 360.0515 316.02814Q360.5515 315.325 360.5515 313.21564Q360.5515 311.09064 360.0515 310.40314Q359.56714 309.7 358.81714 309.7Q358.0984 309.7 357.6609 310.3094Q357.114 311.09064 357.114 313.21564Z" fill-rule="nonzero"/><path fill="#000000" d="M474.74756 317.45L473.70068 317.45L473.70068 310.73126Q473.31006 311.09064 472.68506 311.46564Q472.07568 311.825 471.5913 311.9969L471.5913 310.98126Q472.4663 310.5594 473.12256 309.98126Q473.79443 309.3875 474.07568 308.825L474.74756 308.825L474.74756 317.45ZM477.7788 313.21564Q477.7788 311.6844 478.0913 310.7625Q478.4038 309.825 479.01318 309.325Q479.63818 308.825 480.57568 308.825Q481.26318 308.825 481.7788 309.10626Q482.31006 309.3875 482.6538 309.91876Q482.99756 310.4344 483.18506 311.1844Q483.37256 311.9344 483.37256 313.21564Q483.37256 314.73126 483.06006 315.65314Q482.76318 316.575 482.13818 317.09064Q481.5288 317.59064 480.57568 317.59064Q479.3413 317.59064 478.62256 316.7Q477.7788 315.6375 477.7788 313.21564ZM478.85693 313.21564Q478.85693 315.325 479.35693 316.02814Q479.85693 316.73126 480.57568 316.73126Q481.31006 316.73126 481.79443 316.02814Q482.29443 315.325 482.29443 313.21564Q482.29443 311.09064 481.79443 310.40314Q481.31006 309.7 480.56006 309.7Q479.8413 309.7 479.4038 310.3094Q478.85693 311.09064 478.85693 313.21564ZM484.7788 313.21564Q484.7788 311.6844 485.0913 310.7625Q485.4038 309.825 486.01318 309.325Q486.63818 308.825 487.57568 308.825Q488.26318 308.825 488.7788 309.10626Q489.31006 309.3875 489.6538 309.91876Q489.99756 310.4344 490.18506 311.1844Q490.37256 311.9344 490.37256 313.21564Q490.37256 314.73126 490.06006 315.65314Q489.76318 316.575 489.13818 317.09064Q488.5288 317.59064 487.57568 317.59064Q486.3413 317.59064 485.62256 316.7Q484.7788 315.6375 484.7788 313.21564ZM485.85693 313.21564Q485.85693 315.325 486.35693 316.02814Q486.85693 316.73126 487.57568 316.73126Q488.31006 316.73126 488.79443 316.02814Q489.29443 315.325 489.29443 313.21564Q489.29443 311.09064 488.79443 310.40314Q488.31006 309.7 487.56006 309.7Q486.8413 309.7 486.4038 310.3094Q485.85693 311.09064 485.85693 313.21564ZM491.7788 313.21564Q491.7788 311.6844 492.0913 310.7625Q492.4038 309.825 493.01318 309.325Q493.63818 308.825 494.57568 308.825Q495.26318 308.825 495.7788 309.10626Q496.31006 309.3875 496.6538 309.91876Q496.99756 310.4344 497.18506 311.1844Q497.37256 311.9344 497.37256 313.21564Q497.37256 314.73126 497.06006 315.65314Q496.76318 316.575 496.13818 317.09064Q495.5288 317.59064 494.57568 317.59064Q493.3413 317.59064 492.62256 316.7Q491.7788 315.6375 491.7788 313.21564ZM492.85693 313.21564Q492.85693 315.325 493.35693 316.02814Q493.85693 316.73126 494.57568 316.73126Q495.31006 316.73126 495.79443 316.02814Q496.29443 315.325 496.29443 313.21564Q496.29443 311.09064 495.79443 310.40314Q495.31006 309.7 494.56006 309.7Q493.8413 309.7 493.4038 310.3094Q492.85693 311.09064 492.85693 313.21564Z" fill-rule="nonzero"/><path stroke="#4285f4" stroke-width="4.0" stroke-linecap="butt" d="M46.0 61.916668L58.0 61.916668" fill-rule="nonzero"/><path fill="#1a1a1a" d="M66.875 65.916664L66.875 57.322914L70.109375 57.322914Q71.09375 57.322914 71.6875 57.58854Q72.28125 57.854164 72.609375 58.40104Q72.953125 58.93229 72.953125 59.52604Q72.953125 60.072914 72.65625 60.55729Q72.359375 61.041664 71.75 61.33854Q72.53125 61.572914 72.9375 62.135414Q73.359375 62.68229 73.359375 63.43229Q73.359375 64.02604 73.109375 64.55729Q72.859375 65.072914 72.484375 65.354164Q72.109375 65.635414 71.53125 65.77604Q70.96875 65.916664 70.15625 65.916664L66.875 65.916664ZM68.015625 60.93229L69.875 60.93229Q70.625 60.93229 70.953125 60.83854Q71.390625 60.71354 71.609375 60.416664Q71.828125 60.104164 71.828125 59.65104Q71.828125 59.229164 71.625 58.90104Q71.421875 58.572914 71.03125 58.46354Q70.65625 58.33854 69.734375 58.33854L68.015625 58.33854L68.015625 60.93229ZM68.015625 64.90104L70.15625 64.90104Q70.703125 64.90104 70.921875 64.854164Q71.328125 64.791664 71.578125 64.635414Q71.84375 64.46354 72.015625 64.15104Q72.1875 63.83854 72.1875 63.43229Q72.1875 62.947914 71.9375 62.58854Q71.703125 62.229164 71.265625 62.08854Q70.828125 61.947914 70.0 61.947914L68.015625 61.947914L68.015625 64.90104ZM78.859375 65.15104Q78.265625 65.65104 77.71875 65.854164Q77.1875 66.05729 76.5625 66.05729Q75.53125 66.05729 74.984375 65.55729Q74.4375 65.05729 74.4375 64.27604Q74.4375 63.822914 74.640625 63.447914Q74.84375 63.05729 75.1875 62.83854Q75.53125 62.604164 75.953125 62.49479Q76.25 62.40104 76.890625 62.322914Q78.15625 62.18229 78.765625 61.96354Q78.765625 61.74479 78.765625 61.697914Q78.765625 61.041664 78.46875 60.77604Q78.0625 60.43229 77.265625 60.43229Q76.53125 60.43229 76.171875 60.697914Q75.8125 60.947914 75.640625 61.604164L74.609375 61.46354Q74.75 60.80729 75.078125 60.40104Q75.40625 59.99479 76.015625 59.77604Q76.625 59.55729 77.421875 59.55729Q78.21875 59.55729 78.71875 59.74479Q79.21875 59.93229 79.453125 60.21354Q79.6875 60.49479 79.78125 60.93229Q79.828125 61.197914 79.828125 61.90104L79.828125 63.30729Q79.828125 64.77604 79.890625 65.166664Q79.96875 65.55729 80.171875 65.916664L79.0625 65.916664Q78.90625 65.58854 78.859375 65.15104ZM78.765625 62.791664Q78.1875 63.02604 77.046875 63.197914Q76.390625 63.291664 76.125 63.416664Q75.859375 63.52604 75.703125 63.74479Q75.5625 63.96354 75.5625 64.24479Q75.5625 64.666664 75.875 64.947914Q76.203125 65.229164 76.8125 65.229164Q77.421875 65.229164 77.890625 64.96354Q78.375 64.697914 78.59375 64.229164Q78.765625 63.86979 78.765625 63.18229L78.765625 62.791664ZM81.375 64.05729L82.40625 63.90104Q82.5 64.52604 82.890625 64.854164Q83.296875 65.18229 84.03125 65.18229Q84.75 65.18229 85.09375 64.90104Q85.453125 64.604164 85.453125 64.197914Q85.453125 63.83854 85.140625 63.635414Q84.921875 63.49479 84.0625 63.27604Q82.90625 62.979164 82.453125 62.77604Q82.015625 62.55729 81.78125 62.18229Q81.546875 61.80729 81.546875 61.33854Q81.546875 60.93229 81.734375 60.572914Q81.921875 60.21354 82.25 59.979164Q82.5 59.80729 82.921875 59.68229Q83.34375 59.55729 83.84375 59.55729Q84.5625 59.55729 85.109375 59.77604Q85.671875 59.979164 85.9375 60.33854Q86.203125 60.697914 86.296875 61.291664L85.265625 61.43229Q85.203125 60.96354 84.859375 60.697914Q84.53125 60.416664 83.90625 60.416664Q83.1875 60.416664 82.875 60.666664Q82.5625 60.90104 82.5625 61.229164Q82.5625 61.43229 82.6875 61.58854Q82.828125 61.760414 83.09375 61.86979Q83.25 61.93229 84.03125 62.135414Q85.15625 62.447914 85.59375 62.635414Q86.03125 62.822914 86.28125 63.18229Q86.53125 63.541664 86.53125 64.08854Q86.53125 64.61979 86.21875 65.08854Q85.921875 65.541664 85.34375 65.80729Q84.765625 66.05729 84.03125 66.05729Q82.8125 66.05729 82.171875 65.55729Q81.546875 65.041664 81.375 64.05729ZM93.046875 63.916664L94.140625 64.041664Q93.890625 64.99479 93.1875 65.52604Q92.484375 66.05729 91.40625 66.05729Q90.046875 66.05729 89.234375 65.21354Q88.4375 64.36979 88.4375 62.854164Q88.4375 61.291664 89.25 60.43229Q90.0625 59.55729 91.34375 59.55729Q92.59375 59.55729 93.375 60.40104Q94.171875 61.24479 94.171875 62.791664Q94.171875 62.885414 94.171875 63.072914L89.53125 63.072914Q89.59375 64.104164 90.109375 64.65104Q90.625 65.18229 91.40625 65.18229Q91.984375 65.18229 92.390625 64.885414Q92.8125 64.572914 93.046875 63.916664ZM89.59375 62.21354L93.0625 62.21354Q93.0 61.416664 92.671875 61.02604Q92.15625 60.416664 91.359375 60.416664Q90.625 60.416664 90.125 60.90104Q89.640625 61.385414 89.59375 62.21354ZM95.765625 65.916664L95.765625 57.322914L96.828125 57.322914L96.828125 65.916664L95.765625 65.916664ZM98.796875 58.541664L98.796875 57.322914L99.859375 57.322914L99.859375 58.541664L98.796875 58.541664ZM98.796875 65.916664L98.796875 59.697914L99.859375 59.697914L99.859375 65.916664L98.796875 65.916664ZM101.796875 65.916664L101.796875 59.697914L102.734375 59.697914L102.734375 60.572914Q103.421875 59.55729 104.71875 59.55729Q105.28125 59.55729 105.75 59.760414Q106.234375 59.96354 106.46875 60.291664Q106.703125 60.61979 106.796875 61.05729Q106.84375 61.354164 106.84375 62.08854L106.84375 65.916664L105.796875 65.916664L105.796875 62.135414Q105.796875 61.479164 105.671875 61.166664Q105.546875 60.854164 105.234375 60.666664Q104.921875 60.46354 104.5 60.46354Q103.828125 60.46354 103.328125 60.90104Q102.84375 61.322914 102.84375 62.510414L102.84375 65.916664L101.796875 65.916664ZM113.046875 63.916664L114.140625 64.041664Q113.890625 64.99479 113.1875 65.52604Q112.484375 66.05729 111.40625 66.05729Q110.046875 66.05729 109.234375 65.21354Q108.4375 64.36979 108.4375 62.854164Q108.4375 61.291664 109.25 60.43229Q110.0625 59.55729 111.34375 59.55729Q112.59375 59.55729 113.375 60.40104Q114.171875 61.24479 114.171875 62.791664Q114.171875 62.885414 114.171875 63.072914L109.53125 63.072914Q109.59375 64.104164 110.109375 64.65104Q110.625 65.18229 111.40625 65.18229Q111.984375 65.18229 112.390625 64.885414Q112.8125 64.572914 113.046875 63.916664ZM109.59375 62.21354L113.0625 62.21354Q113.0 61.416664 112.671875 61.02604Q112.15625 60.416664 111.359375 60.416664Q110.625 60.416664 110.125 60.90104Q109.640625 61.385414 109.59375 62.21354Z" fill-rule="nonzero"/><path stroke="#ea4335" stroke-width="4.0" stroke-linecap="butt" d="M131.0 61.916668L143.0 61.916668" fill-rule="nonzero"/><path fill="#1a1a1a" d="M151.89062 65.916664L151.89062 57.322914L153.60938 57.322914L155.64062 63.40104Q155.92188 64.260414 156.04688 64.68229Q156.1875 64.21354 156.5 63.30729L158.5625 57.322914L160.09375 57.322914L160.09375 65.916664L159.0 65.916664L159.0 58.729164L156.5 65.916664L155.46875 65.916664L152.98438 58.604164L152.98438 65.916664L151.89062 65.916664ZM164.85938 65.15104Q164.26562 65.65104 163.71875 65.854164Q163.1875 66.05729 162.5625 66.05729Q161.53125 66.05729 160.98438 65.55729Q160.4375 65.05729 160.4375 64.27604Q160.4375 63.822914 160.64062 63.447914Q160.84375 63.05729 161.1875 62.83854Q161.53125 62.604164 161.95312 62.49479Q162.25 62.40104 162.89062 62.322914Q164.15625 62.18229 164.76562 61.96354Q164.76562 61.74479 164.76562 61.697914Q164.76562 61.041664 164.46875 60.77604Q164.0625 60.43229 163.26562 60.43229Q162.53125 60.43229 162.17188 60.697914Q161.8125 60.947914 161.64062 61.604164L160.60938 61.46354Q160.75 60.80729 161.07812 60.40104Q161.40625 59.99479 162.01562 59.77604Q162.625 59.55729 163.42188 59.55729Q164.21875 59.55729 164.71875 59.74479Q165.21875 59.93229 165.45312 60.21354Q165.6875 60.49479 165.78125 60.93229Q165.82812 61.197914 165.82812 61.90104L165.82812 63.30729Q165.82812 64.77604 165.89062 65.166664Q165.96875 65.55729 166.17188 65.916664L165.0625 65.916664Q164.90625 65.58854 164.85938 65.15104ZM164.76562 62.791664Q164.1875 63.02604 163.04688 63.197914Q162.39062 63.291664 162.125 63.416664Q161.85938 63.52604 161.70312 63.74479Q161.5625 63.96354 161.5625 64.24479Q161.5625 64.666664 161.875 64.947914Q162.20312 65.229164 162.8125 65.229164Q163.42188 65.229164 163.89062 64.96354Q164.375 64.697914 164.59375 64.229164Q164.76562 63.86979 164.76562 63.18229L164.76562 62.791664ZM167.09375 65.916664L169.35938 62.68229L167.26562 59.697914L168.57812 59.697914L169.53125 61.15104Q169.79688 61.572914 169.96875 61.854164Q170.21875 61.46354 170.4375 61.166664L171.48438 59.697914L172.75 59.697914L170.59375 62.61979L172.90625 65.916664L171.625 65.916664L170.34375 63.979164L170.0 63.46354L168.35938 65.916664L167.09375 65.916664Z" fill-rule="nonzero"/><path stroke="#fbbc04" stroke-width="4.0" stroke-linecap="butt" d="M188.0 61.916668L200.0 61.916668" fill-rule="nonzero"/><path fill="#1a1a1a" d="M208.96875 65.916664L208.96875 57.322914L210.09375 57.322914L210.09375 60.854164L214.5625 60.854164L214.5625 57.322914L215.70312 57.322914L215.70312 65.916664L214.5625 65.916664L214.5625 61.86979L210.09375 61.86979L210.09375 65.916664L208.96875 65.916664ZM224.0625 62.90104L225.1875 63.197914Q224.82812 64.58854 223.90625 65.322914Q222.98438 66.05729 221.64062 66.05729Q220.25 66.05729 219.375 65.49479Q218.5 64.93229 218.04688 63.86979Q217.59375 62.791664 217.59375 61.55729Q217.59375 60.21354 218.10938 59.21354Q218.625 58.21354 219.5625 57.697914Q220.51562 57.18229 221.65625 57.18229Q222.9375 57.18229 223.8125 57.83854Q224.70312 58.49479 225.04688 59.68229L223.92188 59.947914Q223.625 59.010414 223.04688 58.58854Q222.48438 58.15104 221.625 58.15104Q220.64062 58.15104 219.96875 58.635414Q219.3125 59.104164 219.03125 59.90104Q218.76562 60.697914 218.76562 61.55729Q218.76562 62.65104 219.07812 63.46354Q219.40625 64.27604 220.07812 64.68229Q220.75 65.08854 221.54688 65.08854Q222.5 65.08854 223.15625 64.541664Q223.82812 63.99479 224.0625 62.90104Z" fill-rule="nonzero"/><path stroke="#34a853" stroke-width="4.0" stroke-linecap="butt" d="M242.0 61.916668L254.0 61.916668" fill-rule="nonzero"/><path fill="#1a1a1a" d="M262.96875 65.916664L262.96875 57.322914L264.09375 57.322914L264.09375 60.854164L268.5625 60.854164L268.5625 57.322914L269.70312 57.322914L269.70312 65.916664L268.5625 65.916664L268.5625 61.86979L264.09375 61.86979L264.09375 65.916664L262.96875 65.916664ZM278.0625 62.90104L279.1875 63.197914Q278.82812 64.58854 277.90625 65.322914Q276.98438 66.05729 275.64062 66.05729Q274.25 66.05729 273.375 65.49479Q272.5 64.93229 272.04688 63.86979Q271.59375 62.791664 271.59375 61.55729Q271.59375 60.21354 272.10938 59.21354Q272.625 58.21354 273.5625 57.697914Q274.51562 57.18229 275.65625 57.18229Q276.9375 57.18229 277.8125 57.83854Q278.70312 58.49479 279.04688 59.68229L277.92188 59.947914Q277.625 59.010414 277.04688 58.58854Q276.48438 58.15104 275.625 58.15104Q274.64062 58.15104 273.96875 58.635414Q273.3125 59.104164 273.03125 59.90104Q272.76562 60.697914 272.76562 61.55729Q272.76562 62.65104 273.07812 63.46354Q273.40625 64.27604 274.07812 64.68229Q274.75 65.08854 275.54688 65.08854Q276.5 65.08854 277.15625 64.541664Q277.82812 63.99479 278.0625 62.90104ZM283.0 64.52604L283.0 62.166664L280.67188 62.166664L280.67188 61.18229L283.0 61.18229L283.0 58.854164L284.0 58.854164L284.0 61.18229L286.34375 61.18229L286.34375 62.166664L284.0 62.166664L284.0 64.52604L283.0 64.52604ZM287.89062 65.916664L287.89062 57.322914L289.60938 57.322914L291.64062 63.40104Q291.92188 64.260414 292.04688 64.68229Q292.1875 64.21354 292.5 63.30729L294.5625 57.322914L296.09375 57.322914L296.09375 65.916664L295.0 65.916664L295.0 58.729164L292.5 65.916664L291.46875 65.916664L288.98438 58.604164L288.98438 65.916664L287.89062 65.916664ZM300.85938 65.15104Q300.26562 65.65104 299.71875 65.854164Q299.1875 66.05729 298.5625 66.05729Q297.53125 66.05729 296.98438 65.55729Q296.4375 65.05729 296.4375 64.27604Q296.4375 63.822914 296.64062 63.447914Q296.84375 63.05729 297.1875 62.83854Q297.53125 62.604164 297.95312 62.49479Q298.25 62.40104 298.89062 62.322914Q300.15625 62.18229 300.76562 61.96354Q300.76562 61.74479 300.76562 61.697914Q300.76562 61.041664 300.46875 60.77604Q300.0625 60.43229 299.26562 60.43229Q298.53125 60.43229 298.17188 60.697914Q297.8125 60.947914 297.64062 61.604164L296.60938 61.46354Q296.75 60.80729 297.07812 60.40104Q297.40625 59.99479 298.01562 59.77604Q298.625 59.55729 299.42188 59.55729Q300.21875 59.55729 300.71875 59.74479Q301.21875 59.93229 301.45312 60.21354Q301.6875 60.49479 301.78125 60.93229Q301.82812 61.197914 301.82812 61.90104L301.82812 63.30729Q301.82812 64.77604 301.89062 65.166664Q301.96875 65.55729 302.17188 65.916664L301.0625 65.916664Q300.90625 65.58854 300.85938 65.15104ZM300.76562 62.791664Q300.1875 63.02604 299.04688 63.197914Q298.39062 63.291664 298.125 63.416664Q297.85938 63.52604 297.70312 63.74479Q297.5625 63.96354 297.5625 64.24479Q297.5625 64.666664 297.875 64.947914Q298.20312 65.229164 298.8125 65.229164Q299.42188 65.229164 299.89062 64.96354Q300.375 64.697914 300.59375 64.229164Q300.76562 63.86979 300.76562 63.18229L300.76562 62.791664ZM303.09375 65.916664L305.35938 62.68229L303.26562 59.697914L304.57812 59.697914L305.53125 61.15104Q305.79688 61.572914 305.96875 61.854164Q306.21875 61.46354 306.4375 61.166664L307.48438 59.697914L308.75 59.697914L306.59375 62.61979L308.90625 65.916664L307.625 65.916664L306.34375 63.979164L306.0 63.46354L304.35938 65.916664L303.09375 65.916664Z" fill-rule="nonzero"/><path stroke="#ff6d01" stroke-width="4.0" stroke-linecap="butt" d="M324.0 61.916668L336.0 61.916668" fill-rule="nonzero"/><path fill="#1a1a1a" d="M344.96875 65.916664L344.96875 57.322914L346.09375 57.322914L346.09375 60.854164L350.5625 60.854164L350.5625 57.322914L351.70312 57.322914L351.70312 65.916664L350.5625 65.916664L350.5625 61.86979L346.09375 61.86979L346.09375 65.916664L344.96875 65.916664ZM360.0625 62.90104L361.1875 63.197914Q360.82812 64.58854 359.90625 65.322914Q358.98438 66.05729 357.64062 66.05729Q356.25 66.05729 355.375 65.49479Q354.5 64.93229 354.04688 63.86979Q353.59375 62.791664 353.59375 61.55729Q353.59375 60.21354 354.10938 59.21354Q354.625 58.21354 355.5625 57.697914Q356.51562 57.18229 357.65625 57.18229Q358.9375 57.18229 359.8125 57.83854Q360.70312 58.49479 361.04688 59.68229L359.92188 59.947914Q359.625 59.010414 359.04688 58.58854Q358.48438 58.15104 357.625 58.15104Q356.64062 58.15104 355.96875 58.635414Q355.3125 59.104164 355.03125 59.90104Q354.76562 60.697914 354.76562 61.55729Q354.76562 62.65104 355.07812 63.46354Q355.40625 64.27604 356.07812 64.68229Q356.75 65.08854 357.54688 65.08854Q358.5 65.08854 359.15625 64.541664Q359.82812 63.99479 360.0625 62.90104ZM365.0 64.52604L365.0 62.166664L362.67188 62.166664L362.67188 61.18229L365.0 61.18229L365.0 58.854164L366.0 58.854164L366.0 61.18229L368.34375 61.18229L368.34375 62.166664L366.0 62.166664L366.0 64.52604L365.0 64.52604ZM369.89062 65.916664L369.89062 57.322914L371.60938 57.322914L373.64062 63.40104Q373.92188 64.260414 374.04688 64.68229Q374.1875 64.21354 374.5 63.30729L376.5625 57.322914L378.09375 57.322914L378.09375 65.916664L377.0 65.916664L377.0 58.729164L374.5 65.916664L373.46875 65.916664L370.98438 58.604164L370.98438 65.916664L369.89062 65.916664ZM382.85938 65.15104Q382.26562 65.65104 381.71875 65.854164Q381.1875 66.05729 380.5625 66.05729Q379.53125 66.05729 378.98438 65.55729Q378.4375 65.05729 378.4375 64.27604Q378.4375 63.822914 378.64062 63.447914Q378.84375 63.05729 379.1875 62.83854Q379.53125 62.604164 379.95312 62.49479Q380.25 62.40104 380.89062 62.322914Q382.15625 62.18229 382.76562 61.96354Q382.76562 61.74479 382.76562 61.697914Q382.76562 61.041664 382.46875 60.77604Q382.0625 60.43229 381.26562 60.43229Q380.53125 60.43229 380.17188 60.697914Q379.8125 60.947914 379.64062 61.604164L378.60938 61.46354Q378.75 60.80729 379.07812 60.40104Q379.40625 59.99479 380.01562 59.77604Q380.625 59.55729 381.42188 59.55729Q382.21875 59.55729 382.71875 59.74479Q383.21875 59.93229 383.45312 60.21354Q383.6875 60.49479 383.78125 60.93229Q383.82812 61.197914 383.82812 61.90104L383.82812 63.30729Q383.82812 64.77604 383.89062 65.166664Q383.96875 65.55729 384.17188 65.916664L383.0625 65.916664Q382.90625 65.58854 382.85938 65.15104ZM382.76562 62.791664Q382.1875 63.02604 381.04688 63.197914Q380.39062 63.291664 380.125 63.416664Q379.85938 63.52604 379.70312 63.74479Q379.5625 63.96354 379.5625 64.24479Q379.5625 64.666664 379.875 64.947914Q380.20312 65.229164 380.8125 65.229164Q381.42188 65.229164 381.89062 64.96354Q382.375 64.697914 382.59375 64.229164Q382.76562 63.86979 382.76562 63.18229L382.76562 62.791664ZM385.09375 65.916664L387.35938 62.68229L385.26562 59.697914L386.57812 59.697914L387.53125 61.15104Q387.79688 61.572914 387.96875 61.854164Q388.21875 61.46354 388.4375 61.166664L389.48438 59.697914L390.75 59.697914L388.59375 62.61979L390.90625 65.916664L389.625 65.916664L388.34375 63.979164L388.0 63.46354L386.35938 65.916664L385.09375 65.916664ZM393.0 64.52604L393.0 62.166664L390.67188 62.166664L390.67188 61.18229L393.0 61.18229L393.0 58.854164L394.0 58.854164L394.0 61.18229L396.34375 61.18229L396.34375 62.166664L394.0 62.166664L394.0 64.52604L393.0 64.52604ZM396.8125 68.30729L396.8125 67.541664L403.8125 67.541664L403.8125 68.30729L396.8125 68.30729ZM403.8125 68.30729L403.8125 67.541664L410.8125 67.541664L410.8125 68.30729L403.8125 68.30729ZM412.76562 65.916664L411.78125 65.916664L411.78125 57.322914L412.84375 57.322914L412.84375 60.385414Q413.51562 59.55729 414.54688 59.55729Q415.125 59.55729 415.625 59.791664Q416.14062 60.010414 416.46875 60.43229Q416.8125 60.854164 417.0 61.447914Q417.1875 62.041664 417.1875 62.71354Q417.1875 64.30729 416.39062 65.18229Q415.59375 66.05729 414.5 66.05729Q413.39062 66.05729 412.76562 65.135414L412.76562 65.916664ZM412.75 62.760414Q412.75 63.86979 413.0625 64.36979Q413.5625 65.18229 414.40625 65.18229Q415.09375 65.18229 415.59375 64.58854Q416.10938 63.99479 416.10938 62.791664Q416.10938 61.572914 415.625 60.99479Q415.14062 60.416664 414.45312 60.416664Q413.76562 60.416664 413.25 61.02604Q412.75 61.61979 412.75 62.760414ZM422.875 65.916664L422.875 64.99479Q422.14062 66.05729 420.89062 66.05729Q420.34375 66.05729 419.85938 65.854164Q419.39062 65.635414 419.15625 65.322914Q418.92188 64.99479 418.82812 64.52604Q418.76562 64.229164 418.76562 63.541664L418.76562 59.697914L419.82812 59.697914L419.82812 63.15104Q419.82812 63.96354 419.89062 64.260414Q419.98438 64.666664 420.29688 64.916664Q420.625 65.15104 421.10938 65.15104Q421.57812 65.15104 421.98438 64.916664Q422.40625 64.666664 422.57812 64.24479Q422.76562 63.822914 422.76562 63.02604L422.76562 59.697914L423.8125 59.697914L423.8125 65.916664L422.875 65.916664ZM425.79688 58.541664L425.79688 57.322914L426.85938 57.322914L426.85938 58.541664L425.79688 58.541664ZM425.79688 65.916664L425.79688 59.697914L426.85938 59.697914L426.85938 65.916664L425.79688 65.916664ZM428.76562 65.916664L428.76562 57.322914L429.82812 57.322914L429.82812 65.916664L428.76562 65.916664ZM434.09375 64.979164L434.25 65.90104Q433.79688 65.99479 433.45312 65.99479Q432.875 65.99479 432.5625 65.822914Q432.25 65.635414 432.10938 65.33854Q431.98438 65.041664 431.98438 64.08854L431.98438 60.510414L431.21875 60.510414L431.21875 59.697914L431.98438 59.697914L431.98438 58.15104L433.03125 57.52604L433.03125 59.697914L434.09375 59.697914L434.09375 60.510414L433.03125 60.510414L433.03125 64.15104Q433.03125 64.604164 433.07812 64.729164Q433.14062 64.854164 433.26562 64.93229Q433.39062 65.010414 433.625 65.010414Q433.8125 65.010414 434.09375 64.979164ZM434.79688 58.541664L434.79688 57.322914L435.85938 57.322914L435.85938 58.541664L434.79688 58.541664ZM434.79688 65.916664L434.79688 59.697914L435.85938 59.697914L435.85938 65.916664L434.79688 65.916664ZM437.79688 65.916664L437.79688 59.697914L438.73438 59.697914L438.73438 60.572914Q439.42188 59.55729 440.71875 59.55729Q441.28125 59.55729 441.75 59.760414Q442.23438 59.96354 442.46875 60.291664Q442.70312 60.61979 442.79688 61.05729Q442.84375 61.354164 442.84375 62.08854L442.84375 65.916664L441.79688 65.916664L441.79688 62.135414Q441.79688 61.479164 441.67188 61.166664Q441.54688 60.854164 441.23438 60.666664Q440.92188 60.46354 440.5 60.46354Q439.82812 60.46354 439.32812 60.90104Q438.84375 61.322914 438.84375 62.510414L438.84375 65.916664L437.79688 65.916664ZM443.8125 68.30729L443.8125 67.541664L450.8125 67.541664L450.8125 68.30729L443.8125 68.30729ZM451.79688 65.916664L451.79688 59.697914L452.73438 59.697914L452.73438 60.572914Q453.03125 60.104164 453.51562 59.83854Q454.0 59.55729 454.625 59.55729Q455.3125 59.55729 455.75 59.83854Q456.20312 60.11979 456.375 60.635414Q457.125 59.55729 458.29688 59.55729Q459.23438 59.55729 459.71875 60.072914Q460.21875 60.572914 460.21875 61.65104L460.21875 65.916664L459.17188 65.916664L459.17188 61.99479Q459.17188 61.36979 459.0625 61.08854Q458.96875 60.80729 458.70312 60.635414Q458.4375 60.46354 458.0625 60.46354Q457.40625 60.46354 456.96875 60.90104Q456.54688 61.33854 456.54688 62.30729L456.54688 65.916664L455.48438 65.916664L455.48438 61.86979Q455.48438 61.166664 455.21875 60.822914Q454.96875 60.46354 454.39062 60.46354Q453.9375 60.46354 453.5625 60.697914Q453.1875 60.93229 453.01562 61.385414Q452.84375 61.83854 452.84375 62.68229L452.84375 65.916664L451.79688 65.916664ZM467.04688 63.916664L468.14062 64.041664Q467.89062 64.99479 467.1875 65.52604Q466.48438 66.05729 465.40625 66.05729Q464.04688 66.05729 463.23438 65.21354Q462.4375 64.36979 462.4375 62.854164Q462.4375 61.291664 463.25 60.43229Q464.0625 59.55729 465.34375 59.55729Q466.59375 59.55729 467.375 60.40104Q468.17188 61.24479 468.17188 62.791664Q468.17188 62.885414 468.17188 63.072914L463.53125 63.072914Q463.59375 64.104164 464.10938 64.65104Q464.625 65.18229 465.40625 65.18229Q465.98438 65.18229 466.39062 64.885414Q466.8125 64.572914 467.04688 63.916664ZM463.59375 62.21354L467.0625 62.21354Q467.0 61.416664 466.67188 61.02604Q466.15625 60.416664 465.35938 60.416664Q464.625 60.416664 464.125 60.90104Q463.64062 61.385414 463.59375 62.21354ZM469.79688 65.916664L469.79688 59.697914L470.73438 59.697914L470.73438 60.572914Q471.03125 60.104164 471.51562 59.83854Q472.0 59.55729 472.625 59.55729Q473.3125 59.55729 473.75 59.83854Q474.20312 60.11979 474.375 60.635414Q475.125 59.55729 476.29688 59.55729Q477.23438 59.55729 477.71875 60.072914Q478.21875 60.572914 478.21875 61.65104L478.21875 65.916664L477.17188 65.916664L477.17188 61.99479Q477.17188 61.36979 477.0625 61.08854Q476.96875 60.80729 476.70312 60.635414Q476.4375 60.46354 476.0625 60.46354Q475.40625 60.46354 474.96875 60.90104Q474.54688 61.33854 474.54688 62.30729L474.54688 65.916664L473.48438 65.916664L473.48438 61.86979Q473.48438 61.166664 473.21875 60.822914Q472.96875 60.46354 472.39062 60.46354Q471.9375 60.46354 471.5625 60.697914Q471.1875 60.93229 471.01562 61.385414Q470.84375 61.83854 470.84375 62.68229L470.84375 65.916664L469.79688 65.916664ZM484.85938 63.635414L485.89062 63.77604Q485.71875 64.83854 485.01562 65.447914Q484.3125 66.05729 483.29688 66.05729Q482.01562 66.05729 481.23438 65.229164Q480.46875 64.385414 480.46875 62.822914Q480.46875 61.822914 480.79688 61.072914Q481.14062 60.30729 481.8125 59.93229Q482.5 59.55729 483.3125 59.55729Q484.3125 59.55729 484.95312 60.072914Q485.60938 60.572914 485.79688 61.52604L484.76562 61.68229Q484.625 61.05729 484.25 60.74479Q483.875 60.416664 483.34375 60.416664Q482.54688 60.416664 482.04688 60.99479Q481.54688 61.55729 481.54688 62.791664Q481.54688 64.05729 482.03125 64.61979Q482.51562 65.18229 483.28125 65.18229Q483.90625 65.18229 484.3125 64.80729Q484.73438 64.43229 484.85938 63.635414ZM486.79688 68.30729L486.79688 59.697914L487.75 59.697914L487.75 60.49479Q488.09375 60.02604 488.51562 59.791664Q488.95312 59.55729 489.5625 59.55729Q490.35938 59.55729 490.96875 59.96354Q491.57812 60.36979 491.875 61.11979Q492.1875 61.86979 492.1875 62.760414Q492.1875 63.71354 491.84375 64.479164Q491.51562 65.24479 490.85938 65.65104Q490.20312 66.05729 489.48438 66.05729Q488.95312 66.05729 488.53125 65.83854Q488.10938 65.604164 487.84375 65.27604L487.84375 68.30729L486.79688 68.30729ZM487.75 62.83854Q487.75 64.041664 488.23438 64.61979Q488.71875 65.18229 489.40625 65.18229Q490.10938 65.18229 490.60938 64.58854Q491.10938 63.99479 491.10938 62.74479Q491.10938 61.55729 490.625 60.979164Q490.14062 60.385414 489.45312 60.385414Q488.78125 60.385414 488.26562 61.010414Q487.75 61.635414 487.75 62.83854ZM493.75 68.30729L493.625 67.322914Q493.96875 67.416664 494.23438 67.416664Q494.57812 67.416664 494.78125 67.291664Q495.0 67.18229 495.14062 66.979164Q495.23438 66.80729 495.46875 66.18229Q495.48438 66.104164 495.5625 65.93229L493.1875 59.697914L494.32812 59.697914L495.625 63.291664Q495.875 63.979164 496.07812 64.74479Q496.26562 64.010414 496.51562 63.322914L497.84375 59.697914L498.89062 59.697914L496.53125 66.02604Q496.14062 67.041664 495.9375 67.43229Q495.65625 67.96354 495.28125 68.197914Q494.92188 68.447914 494.42188 68.447914Q494.125 68.447914 493.75 68.30729Z" fill-rule="nonzero"/><path fill="#757575" d="M139.8125 37.55L139.8125 27.175L141.39062 27.175L141.39062 28.628124Q141.875 27.878124 142.6875 27.409374Q143.5 26.940624 144.53125 26.940624Q145.6875 26.940624 146.42188 27.425Q147.15625 27.89375 147.46875 28.753124Q148.70312 26.940624 150.67188 26.940624Q152.21875 26.940624 153.04688 27.8Q153.875 28.659374 153.875 30.425L153.875 37.55L152.125 37.55L152.125 31.01875Q152.125 29.95625 151.95312 29.503124Q151.78125 29.034374 151.32812 28.753124Q150.89062 28.471874 150.28125 28.471874Q149.1875 28.471874 148.45312 29.20625Q147.73438 29.925 147.73438 31.51875L147.73438 37.55L145.98438 37.55L145.98438 30.815624Q145.98438 29.64375 145.54688 29.065624Q145.125 28.471874 144.14062 28.471874Q143.40625 28.471874 142.76562 28.8625Q142.14062 29.253124 141.85938 30.003124Q141.57812 30.753124 141.57812 32.175L141.57812 37.55L139.8125 37.55ZM162.92188 34.20625L164.73438 34.440624Q164.3125 36.01875 163.14062 36.909374Q161.98438 37.784374 160.17188 37.784374Q157.90625 37.784374 156.5625 36.39375Q155.23438 34.9875 155.23438 32.45625Q155.23438 29.83125 156.57812 28.39375Q157.92188 26.940624 160.07812 26.940624Q162.15625 26.940624 163.46875 28.3625Q164.79688 29.76875 164.79688 32.346874Q164.79688 32.503124 164.78125 32.815624L157.04688 32.815624Q157.14062 34.51875 158.01562 35.425Q158.89062 36.33125 160.1875 36.33125Q161.15625 36.33125 161.82812 35.83125Q162.51562 35.315624 162.92188 34.20625ZM157.14062 31.3625L162.9375 31.3625Q162.82812 30.065624 162.28125 29.409374Q161.4375 28.39375 160.09375 28.39375Q158.89062 28.39375 158.0625 29.20625Q157.23438 30.003124 157.14062 31.3625ZM166.8125 37.55L166.8125 27.175L168.39062 27.175L168.39062 28.628124Q168.875 27.878124 169.6875 27.409374Q170.5 26.940624 171.53125 26.940624Q172.6875 26.940624 173.42188 27.425Q174.15625 27.89375 174.46875 28.753124Q175.70312 26.940624 177.67188 26.940624Q179.21875 26.940624 180.04688 27.8Q180.875 28.659374 180.875 30.425L180.875 37.55L179.125 37.55L179.125 31.01875Q179.125 29.95625 178.95312 29.503124Q178.78125 29.034374 178.32812 28.753124Q177.89062 28.471874 177.28125 28.471874Q176.1875 28.471874 175.45312 29.20625Q174.73438 29.925 174.73438 31.51875L174.73438 37.55L172.98438 37.55L172.98438 30.815624Q172.98438 29.64375 172.54688 29.065624Q172.125 28.471874 171.14062 28.471874Q170.40625 28.471874 169.76562 28.8625Q169.14062 29.253124 168.85938 30.003124Q168.57812 30.753124 168.57812 32.175L168.57812 37.55L166.8125 37.55ZM189.59375 33.753124L191.3125 33.971874Q191.03125 35.76875 189.85938 36.784374Q188.70312 37.784374 187.0 37.784374Q184.875 37.784374 183.57812 36.39375Q182.28125 35.003124 182.28125 32.409374Q182.28125 30.721874 182.82812 29.471874Q183.39062 28.20625 184.53125 27.58125Q185.67188 26.940624 187.01562 26.940624Q188.70312 26.940624 189.76562 27.8Q190.84375 28.659374 191.15625 30.221874L189.4375 30.4875Q189.20312 29.440624 188.57812 28.925Q187.95312 28.39375 187.07812 28.39375Q185.75 28.39375 184.92188 29.346874Q184.09375 30.3 184.09375 32.346874Q184.09375 34.440624 184.89062 35.39375Q185.6875 36.33125 186.98438 36.33125Q188.01562 36.33125 188.70312 35.70625Q189.40625 35.065624 189.59375 33.753124ZM192.8125 41.51875L192.8125 27.175L194.42188 27.175L194.42188 28.51875Q194.98438 27.7375 195.6875 27.346874Q196.40625 26.940624 197.42188 26.940624Q198.75 26.940624 199.76562 27.628124Q200.78125 28.315624 201.29688 29.565624Q201.82812 30.8 201.82812 32.284374Q201.82812 33.878124 201.25 35.159374Q200.6875 36.425 199.59375 37.1125Q198.5 37.784374 197.29688 37.784374Q196.42188 37.784374 195.71875 37.409374Q195.03125 37.034374 194.57812 36.471874L194.57812 41.51875L192.8125 41.51875ZM194.40625 32.425Q194.40625 34.425 195.21875 35.378124Q196.03125 36.33125 197.1875 36.33125Q198.35938 36.33125 199.1875 35.346874Q200.03125 34.3625 200.03125 32.26875Q200.03125 30.3 199.20312 29.315624Q198.39062 28.315624 197.26562 28.315624Q196.14062 28.315624 195.26562 29.378124Q194.40625 30.425 194.40625 32.425ZM203.73438 41.55L203.54688 39.89375Q204.125 40.05 204.54688 40.05Q205.14062 40.05 205.48438 39.846874Q205.84375 39.659374 206.0625 39.315624Q206.23438 39.05 206.60938 38.003124Q206.65625 37.846874 206.76562 37.565624L202.82812 27.175L204.71875 27.175L206.875 33.190624Q207.29688 34.33125 207.625 35.58125Q207.9375 34.378124 208.34375 33.221874L210.5625 27.175L212.32812 27.175L208.375 37.721874Q207.75 39.440624 207.39062 40.08125Q206.92188 40.95625 206.3125 41.346874Q205.71875 41.753124 204.875 41.753124Q204.35938 41.753124 203.73438 41.55ZM224.14062 37.55L218.59375 23.2375L220.64062 23.2375L224.35938 33.628124Q224.8125 34.878124 225.10938 35.971874Q225.4375 34.8 225.89062 33.628124L229.75 23.2375L231.6875 23.2375L226.07812 37.55L224.14062 37.55ZM232.96875 37.55L232.96875 23.2375L234.85938 23.2375L234.85938 35.8625L241.90625 35.8625L241.90625 37.55L232.96875 37.55ZM244.07812 37.55L244.07812 23.2375L254.4375 23.2375L254.4375 24.925L245.98438 24.925L245.98438 29.3L253.89062 29.3L253.89062 30.9875L245.98438 30.9875L245.98438 35.8625L254.76562 35.8625L254.76562 37.55L244.07812 37.55ZM257.03125 37.55L257.03125 23.2375L258.96875 23.2375L266.48438 34.471874L266.48438 23.2375L268.29688 23.2375L268.29688 37.55L266.35938 37.55L258.84375 26.3L258.84375 37.55L257.03125 37.55ZM279.0625 29.128124L269.60938 29.128124L269.60938 27.4875L279.0625 27.4875L279.0625 29.128124ZM279.0625 33.471874L269.60938 33.471874L269.60938 31.83125L279.0625 31.83125L279.0625 33.471874ZM287.95312 37.55L286.1875 37.55L286.1875 26.346874Q285.5625 26.95625 284.53125 27.565624Q283.5 28.159374 282.67188 28.471874L282.67188 26.76875Q284.15625 26.08125 285.25 25.096874Q286.35938 24.096874 286.8125 23.175L287.95312 23.175L287.95312 37.55ZM292.32812 30.4875Q292.32812 27.95625 292.84375 26.409374Q293.375 24.846874 294.40625 24.01875Q295.4375 23.175 297.0 23.175Q298.15625 23.175 299.01562 23.64375Q299.89062 24.096874 300.45312 24.971874Q301.01562 25.846874 301.34375 27.1125Q301.67188 28.3625 301.67188 30.4875Q301.67188 33.003124 301.14062 34.55Q300.625 36.096874 299.59375 36.95625Q298.57812 37.8 297.0 37.8Q294.92188 37.8 293.75 36.315624Q292.32812 34.51875 292.32812 30.4875ZM294.14062 30.4875Q294.14062 34.01875 294.95312 35.190624Q295.78125 36.346874 297.0 36.346874Q298.20312 36.346874 299.03125 35.175Q299.85938 34.003124 299.85938 30.4875Q299.85938 26.95625 299.03125 25.8Q298.20312 24.628124 296.98438 24.628124Q295.76562 24.628124 295.04688 25.659374Q294.14062 26.95625 294.14062 30.4875ZM312.5625 35.8625L312.5625 37.55L303.10938 37.55Q303.09375 36.909374 303.3125 36.33125Q303.67188 35.3625 304.46875 34.425Q305.26562 33.4875 306.76562 32.253124Q309.10938 30.346874 309.92188 29.2375Q310.75 28.1125 310.75 27.1125Q310.75 26.065624 310.0 25.346874Q309.25 24.628124 308.04688 24.628124Q306.78125 24.628124 306.01562 25.39375Q305.25 26.159374 305.25 27.503124L303.4375 27.315624Q303.625 25.3 304.82812 24.2375Q306.04688 23.175 308.09375 23.175Q310.14062 23.175 311.34375 24.315624Q312.54688 25.45625 312.54688 27.14375Q312.54688 28.003124 312.1875 28.846874Q311.84375 29.675 311.03125 30.596874Q310.21875 31.503124 308.32812 33.1125Q306.73438 34.440624 306.28125 34.909374Q305.84375 35.378124 305.54688 35.8625L312.5625 35.8625ZM319.96875 37.55L319.96875 34.128124L313.75 34.128124L313.75 32.503124L320.28125 23.2375L321.71875 23.2375L321.71875 32.503124L323.65625 32.503124L323.65625 34.128124L321.71875 34.128124L321.71875 37.55L319.96875 37.55ZM319.96875 32.503124L319.96875 26.05L315.48438 32.503124L319.96875 32.503124ZM331.96875 37.55L331.96875 23.2375L333.85938 23.2375L333.85938 35.8625L340.90625 35.8625L340.90625 37.55L331.96875 37.55ZM342.98438 37.55L342.98438 23.2375L345.84375 23.2375L349.21875 33.3625Q349.6875 34.784374 349.90625 35.4875Q350.15625 34.70625 350.67188 33.190624L354.09375 23.2375L356.64062 23.2375L356.64062 37.55L354.82812 37.55L354.82812 25.565624L350.65625 37.55L348.95312 37.55L344.8125 25.3625L344.8125 37.55L342.98438 37.55ZM369.4375 23.2375L371.32812 23.2375L371.32812 31.503124Q371.32812 33.659374 370.84375 34.940624Q370.35938 36.20625 369.07812 37.003124Q367.8125 37.8 365.73438 37.8Q363.71875 37.8 362.4375 37.1125Q361.17188 36.409374 360.625 35.096874Q360.07812 33.784374 360.07812 31.503124L360.07812 23.2375L361.96875 23.2375L361.96875 31.4875Q361.96875 33.3625 362.3125 34.253124Q362.65625 35.128124 363.5 35.6125Q364.34375 36.08125 365.57812 36.08125Q367.65625 36.08125 368.54688 35.14375Q369.4375 34.190624 369.4375 31.4875L369.4375 23.2375ZM372.96875 37.55L372.96875 23.2375L374.85938 23.2375L374.85938 35.8625L381.90625 35.8625L381.90625 37.55L372.96875 37.55ZM393.0625 29.128124L383.60938 29.128124L383.60938 27.4875L393.0625 27.4875L393.0625 29.128124ZM393.0625 33.471874L383.60938 33.471874L383.60938 31.83125L393.0625 31.83125L393.0625 33.471874ZM398.03125 29.784374Q396.9375 29.378124 396.40625 28.64375Q395.89062 27.89375 395.89062 26.8625Q395.89062 25.3 397.01562 24.2375Q398.14062 23.175 400.0 23.175Q401.875 23.175 403.01562 24.26875Q404.15625 25.346874 404.15625 26.909374Q404.15625 27.909374 403.625 28.64375Q403.10938 29.378124 402.04688 29.784374Q403.375 30.221874 404.0625 31.175Q404.75 32.128124 404.75 33.45625Q404.75 35.3 403.4375 36.55Q402.14062 37.8 400.03125 37.8Q397.90625 37.8 396.60938 36.55Q395.3125 35.284374 395.3125 33.409374Q395.3125 32.01875 396.01562 31.08125Q396.73438 30.128124 398.03125 29.784374ZM397.6875 26.8Q397.6875 27.815624 398.34375 28.471874Q399.0 29.1125 400.03125 29.1125Q401.04688 29.1125 401.70312 28.471874Q402.35938 27.83125 402.35938 26.909374Q402.35938 25.940624 401.6875 25.284374Q401.01562 24.6125 400.01562 24.6125Q399.01562 24.6125 398.34375 25.26875Q397.6875 25.909374 397.6875 26.8ZM397.125 33.425Q397.125 34.175 397.46875 34.878124Q397.82812 35.58125 398.53125 35.971874Q399.23438 36.346874 400.04688 36.346874Q401.3125 36.346874 402.125 35.534374Q402.95312 34.721874 402.95312 33.471874Q402.95312 32.20625 402.10938 31.378124Q401.26562 30.55 399.98438 30.55Q398.75 30.55 397.9375 31.378124Q397.125 32.190624 397.125 33.425Z" fill-rule="nonzero"/></svg>