<svg version="1.1" viewBox="0.0 0.0 544.0 371.0" fill="none" stroke="none" stroke-linecap="square" stroke-miterlimit="10" width="544" height="371" xmlns:xlink="http://www.w3.org/1999/xlink" xmlns="http://www.w3.org/2000/svg"><path fill="#ffffff" d="M0 0L544.0 0L544.0 371.0L0 371.0L0 0Z" fill-rule="nonzero"/><path stroke="#cccccc" stroke-width="1.0" stroke-linecap="butt" d="M77.5 88.5L77.5 300.5" fill-rule="nonzero"/><path stroke="#cccccc" stroke-width="1.0" stroke-linecap="butt" d="M192.5 88.5L192.5 300.5" fill-rule="nonzero"/><path stroke="#cccccc" stroke-width="1.0" stroke-linecap="butt" d="M306.5 88.5L306.5 300.5" fill-rule="nonzero"/><path stroke="#cccccc" stroke-width="1.0" stroke-linecap="butt" d="M420.5 88.5L420.5 300.5" fill-rule="nonzero"/><path stroke="#333333" stroke-width="1.0" stroke-linecap="butt" d="M77.5 300.5L525.5 300.5" fill-rule="nonzero"/><path stroke="#cccccc" stroke-width="1.0" stroke-linecap="butt" d="M77.5 258.5L525.5 258.5" fill-rule="nonzero"/><path stroke="#cccccc" stroke-width="1.0" stroke-linecap="butt" d="M77.5 215.5L525.5 215.5" fill-rule="nonzero"/><path stroke="#cccccc" stroke-width="1.0" stroke-linecap="butt" d="M77.5 173.5L525.5 173.5" fill-rule="nonzero"/><path stroke="#cccccc" stroke-width="1.0" stroke-linecap="butt" d="M77.5 130.5L525.5 130.5" fill-rule="nonzero"/><path stroke="#cccccc" stroke-width="1.0" stroke-linecap="butt" d="M77.5 88.5L525.5 88.5" fill-rule="nonzero"/><clipPath id="id_0"><path d="M77.55 88.28333L525.45 88.28333L525.45 300.45L77.55 300.45L77.55 88.28333Z" clip-rule="nonzero"/></clipPath><path stroke="#4285f4" stroke-width="2.0" stroke-linecap="butt" clip-path="url(#id_0)" d="M77.55 280.10745L112.003845 270.44113L146.45769 245.3885L180.91154 206.40924L215.36539 121.16917L249.81923 120.744835L284.27307 120.53267L318.72693 119.684L353.18076 123.07867L387.6346 117.986664L422.08847 112.89467L456.5423 123.92733L490.99615 112.89467L525.45 122.23" fill-rule="nonzero"/><path stroke="#ea4335" stroke-width="2.0" stroke-linecap="butt" clip-path="url(#id_0)" d="M77.55 283.50214L112.003845 280.43845L146.45769 280.7694L180.91154 281.19376L215.36539 270.8485L249.81923 259.28967L284.27307 260.13834L318.72693 256.31934L353.18076 253.77333L387.6346 260.56265L422.08847 262.26L456.5423 273.29266L490.99615 271.59534L525.45 270.74667" fill-rule="nonzero"/><path fill="#000000" fill-opacity="0.0" clip-path="url(#id_0)" d="M80.55 280.10745C80.55 281.7643 79.206856 283.10745 77.55 283.10745C75.89314 283.10745 74.55 281.7643 74.55 280.10745C74.55 278.4506 75.89314 277.10745 77.55 277.10745C79.206856 277.10745 80.55 278.4506 80.55 280.10745Z" fill-rule="nonzero"/><path fill="#000000" fill-opacity="0.0" clip-path="url(#id_0)" d="M115.003845 270.44113C115.003845 272.098 113.6607 273.44113 112.003845 273.44113C110.34699 273.44113 109.003845 272.098 109.003845 270.44113C109.003845 268.7843 110.34699 267.44113 112.003845 267.44113C113.6607 267.44113 115.003845 268.7843 115.003845 270.44113Z" fill-rule="nonzero"/><path fill="#000000" fill-opacity="0.0" clip-path="url(#id_0)" d="M149.45769 245.3885C149.45769 247.04536 148.11455 248.3885 146.45769 248.3885C144.80084 248.3885 143.45769 247.04536 143.45769 245.3885C143.45769 243.73166 144.80084 242.3885 146.45769 242.3885C148.11455 242.3885 149.45769 243.73166 149.45769 245.3885Z" fill-rule="nonzero"/><path fill="#000000" fill-opacity="0.0" clip-path="url(#id_0)" d="M183.91154 206.40924C183.91154 208.0661 182.56839 209.40924 180.91154 209.40924C179.25468 209.40924 177.91154 208.0661 177.91154 206.40924C177.91154 204.7524 179.25468 203.40924 180.91154 203.40924C182.56839 203.40924 183.91154 204.7524 183.91154 206.40924Z" fill-rule="nonzero"/><path fill="#000000" fill-opacity="0.0" clip-path="url(#id_0)" d="M218.36539 121.16917C218.36539 122.82602 217.02223 124.16917 215.36539 124.16917C213.70853 124.16917 212.36539 122.82602 212.36539 121.16917C212.36539 119.512314 213.70853 118.16917 215.36539 118.16917C217.02223 118.16917 218.36539 119.512314 218.36539 121.16917Z" fill-rule="nonzero"/><path fill="#000000" fill-opacity="0.0" clip-path="url(#id_0)" d="M252.81923 120.744835C252.81923 122.40169 251.47609 123.744835 249.81923 123.744835C248.16238 123.744835 246.81923 122.40169 246.81923 120.744835C246.81923 119.08798 248.16238 117.744835 249.81923 117.744835C251.47609 117.744835 252.81923 119.08798 252.81923 120.744835Z" fill-rule="nonzero"/><path fill="#000000" fill-opacity="0.0" clip-path="url(#id_0)" d="M287.27307 120.53267C287.27307 122.18952 285.92993 123.53267 284.27307 123.53267C282.6162 123.53267 281.27307 122.18952 281.27307 120.53267C281.27307 118.87581 282.6162 117.53267 284.27307 117.53267C285.92993 117.53267 287.27307 118.87581 287.27307 120.53267Z" fill-rule="nonzero"/><path fill="#000000" fill-opacity="0.0" clip-path="url(#id_0)" d="M321.72693 119.684C321.72693 121.34085 320.3838 122.684 318.72693 122.684C317.07007 122.684 315.72693 121.34085 315.72693 119.684C315.72693 118.027145 317.07007 116.684 318.72693 116.684C320.3838 116.684 321.72693 118.027145 321.72693 119.684Z" fill-rule="nonzero"/><path fill="#000000" fill-opacity="0.0" clip-path="url(#id_0)" d="M356.18076 123.07867C356.18076 124.73552 354.83762 126.07867 353.18076 126.07867C351.52393 126.07867 350.18076 124.73552 350.18076 123.07867C350.18076 121.421814 351.52393 120.07867 353.18076 120.07867C354.83762 120.07867 356.18076 121.421814 356.18076 123.07867Z" fill-rule="nonzero"/><path fill="#000000" fill-opacity="0.0" clip-path="url(#id_0)" d="M390.6346 117.986664C390.6346 119.643524 389.29147 120.986664 387.6346 120.986664C385.97775 120.986664 384.6346 119.643524 384.6346 117.986664C384.6346 116.32981 385.97775 114.986664 387.6346 114.986664C389.29147 114.986664 390.6346 116.32981 390.6346 117.986664Z" fill-rule="nonzero"/><path fill="#000000" fill-opacity="0.0" clip-path="url(#id_0)" d="M425.08847 112.89467C425.08847 114.55152 423.74533 115.89467 422.08847 115.89467C420.4316 115.89467 419.08847 114.55152 419.08847 112.89467C419.08847 111.237816 420.4316 109.89467 422.08847 109.89467C423.74533 109.89467 425.08847 111.237816 425.08847 112.89467Z" fill-rule="nonzero"/><path fill="#000000" fill-opacity="0.0" clip-path="url(#id_0)" d="M459.5423 123.92733C459.5423 125.58419 458.19916 126.92733 456.5423 126.92733C454.88547 126.92733 453.5423 125.58419 453.5423 123.92733C453.5423 122.27048 454.88547 120.92733 456.5423 120.92733C458.19916 120.92733 459.5423 122.27048 459.5423 123.92733Z" fill-rule="nonzero"/><path fill="#000000" fill-opacity="0.0" clip-path="url(#id_0)" d="M493.99615 112.89467C493.99615 114.55152 492.653 115.89467 490.99615 115.89467C489.3393 115.89467 487.99615 114.55152 487.99615 112.89467C487.99615 111.237816 489.3393 109.89467 490.99615 109.89467C492.653 109.89467 493.99615 111.237816 493.99615 112.89467Z" fill-rule="nonzero"/><path fill="#000000" fill-opacity="0.0" clip-path="url(#id_0)" d="M528.45 122.23C528.45 123.886856 527.1069 125.23 525.45 125.23C523.79315 125.23 522.45 123.886856 522.45 122.23C522.45 120.57314 523.79315 119.23 525.45 119.23C527.1069 119.23 528.45 120.57314 528.45 122.23Z" fill-rule="nonzero"/><path fill="#000000" fill-opacity="0.0" clip-path="url(#id_0)" d="M80.55 283.50214C80.55 285.15897 79.206856 286.50214 77.55 286.50214C75.89314 286.50214 74.55 285.15897 74.55 283.50214C74.55 281.84528 75.89314 280.50214 77.55 280.50214C79.206856 280.50214 80.55 281.84528 80.55 283.50214Z" fill-rule="nonzero"/><path fill="#000000" fill-opacity="0.0" clip-path="url(#id_0)" d="M115.003845 280.43845C115.003845 282.0953 113.6607 283.43845 112.003845 283.43845C110.34699 283.43845 109.003845 282.0953 109.003845 280.43845C109.003845 278.7816 110.34699 277.43845 112.003845 277.43845C113.6607 277.43845 115.003845 278.7816 115.003845 280.43845Z" fill-rule="nonzero"/><path fill="#000000" fill-opacity="0.0" clip-path="url(#id_0)" d="M149.45769 280.7694C149.45769 282.42627 148.11455 283.7694 146.45769 283.7694C144.80084 283.7694 143.45769 282.42627 143.45769 280.7694C143.45769 279.11258 144.80084 277.7694 146.45769 277.7694C148.11455 277.7694 149.45769 279.11258 149.45769 280.7694Z" fill-rule="nonzero"/><path fill="#000000" fill-opacity="0.0" clip-path="url(#id_0)" d="M183.91154 281.19376C183.91154 282.85062 182.56839 284.19376 180.91154 284.19376C179.25468 284.19376 177.91154 282.85062 177.91154 281.19376C177.91154 279.5369 179.25468 278.19376 180.91154 278.19376C182.56839 278.19376 183.91154 279.5369 183.91154 281.19376Z" fill-rule="nonzero"/><path fill="#000000" fill-opacity="0.0" clip-path="url(#id_0)" d="M218.36539 270.8485C218.36539 272.50537 217.02223 273.8485 215.36539 273.8485C213.70853 273.8485 212.36539 272.50537 212.36539 270.8485C212.36539 269.19165 213.70853 267.8485 215.36539 267.8485C217.02223 267.8485 218.36539 269.19165 218.36539 270.8485Z" fill-rule="nonzero"/><path fill="#000000" fill-opacity="0.0" clip-path="url(#id_0)" d="M252.81923 259.28967C252.81923 260.94653 251.47609 262.28967 249.81923 262.28967C248.16238 262.28967 246.81923 260.94653 246.81923 259.28967C246.81923 257.6328 248.16238 256.28967 249.81923 256.28967C251.47609 256.28967 252.81923 257.6328 252.81923 259.28967Z" fill-rule="nonzero"/><path fill="#000000" fill-opacity="0.0" clip-path="url(#id_0)" d="M287.27307 260.13834C287.27307 261.7952 285.92993 263.13834 284.27307 263.13834C282.6162 263.13834 281.27307 261.7952 281.27307 260.13834C281.27307 258.48148 282.6162 257.13834 284.27307 257.13834C285.92993 257.13834 287.27307 258.48148 287.27307 260.13834Z" fill-rule="nonzero"/><path fill="#000000" fill-opacity="0.0" clip-path="url(#id_0)" d="M321.72693 256.31934C321.72693 257.9762 320.3838 259.31934 318.72693 259.31934C317.07007 259.31934 315.72693 257.9762 315.72693 256.31934C315.72693 254.66248 317.07007 253.31934 318.72693 253.31934C320.3838 253.31934 321.72693 254.66248 321.72693 256.31934Z" fill-rule="nonzero"/><path fill="#000000" fill-opacity="0.0" clip-path="url(#id_0)" d="M356.18076 253.77333C356.18076 255.43019 354.83762 256.77335 353.18076 256.77335C351.52393 256.77335 350.18076 255.43019 350.18076 253.77333C350.18076 252.11649 351.52393 250.77333 353.18076 250.77333C354.83762 250.77333 356.18076 252.11649 356.18076 253.77333Z" fill-rule="nonzero"/><path fill="#000000" fill-opacity="0.0" clip-path="url(#id_0)" d="M390.6346 260.56265C390.6346 262.2195 389.29147 263.56265 387.6346 263.56265C385.97775 263.56265 384.6346 262.2195 384.6346 260.56265C384.6346 258.90582 385.97775 257.56265 387.6346 257.56265C389.29147 257.56265 390.6346 258.90582 390.6346 260.56265Z" fill-rule="nonzero"/><path fill="#000000" fill-opacity="0.0" clip-path="url(#id_0)" d="M425.08847 262.26C425.08847 263.91684 423.74533 265.26 422.08847 265.26C420.4316 265.26 419.08847 263.91684 419.08847 262.26C419.08847 260.60315 420.4316 259.26 422.08847 259.26C423.74533 259.26 425.08847 260.60315 425.08847 262.26Z" fill-rule="nonzero"/><path fill="#000000" fill-opacity="0.0" clip-path="url(#id_0)" d="M459.5423 273.29266C459.5423 274.94952 458.19916 276.29266 456.5423 276.29266C454.88547 276.29266 453.5423 274.94952 453.5423 273.29266C453.5423 271.6358 454.88547 270.29266 456.5423 270.29266C458.19916 270.29266 459.5423 271.6358 459.5423 273.29266Z" fill-rule="nonzero"/><path fill="#000000" fill-opacity="0.0" clip-path="url(#id_0)" d="M493.99615 271.59534C493.99615 273.2522 492.653 274.59534 490.99615 274.59534C489.3393 274.59534 487.99615 273.2522 487.99615 271.59534C487.99615 269.93848 489.3393 268.59534 490.99615 268.59534C492.653 268.59534 493.99615 269.93848 493.99615 271.59534Z" fill-rule="nonzero"/><path fill="#000000" fill-opacity="0.0" clip-path="url(#id_0)" d="M528.45 270.74667C528.45 272.40353 527.1069 273.74667 525.45 273.74667C523.79315 273.74667 522.45 272.40353 522.45 270.74667C522.45 269.0898 523.79315 267.74667 525.45 267.74667C527.1069 267.74667 528.45 269.0898 528.45 270.74667Z" fill-rule="nonzero"/><path fill="#000000" d="M270.54688 346.6844L271.60938 346.59064Q271.6875 347.2469 271.96875 347.65314Q272.25 348.0594 272.82812 348.325Q273.42188 348.575 274.15625 348.575Q274.79688 348.575 275.29688 348.3875Q275.79688 348.1844 276.03125 347.85626Q276.28125 347.5125 276.28125 347.1219Q276.28125 346.71564 276.04688 346.41876Q275.8125 346.10626 275.28125 345.90314Q274.92188 345.7625 273.73438 345.48126Q272.5625 345.2 272.09375 344.95Q271.46875 344.6219 271.17188 344.15314Q270.875 343.66876 270.875 343.075Q270.875 342.4344 271.23438 341.8719Q271.60938 341.29376 272.3125 341.0125Q273.03125 340.71564 273.89062 340.71564Q274.84375 340.71564 275.57812 341.02814Q276.3125 341.325 276.70312 341.9344Q277.09375 342.52814 277.125 343.27814L276.03125 343.35626Q275.9375 342.54376 275.42188 342.1375Q274.92188 341.71564 273.9375 341.71564Q272.90625 341.71564 272.4375 342.09064Q271.96875 342.46564 271.96875 342.9969Q271.96875 343.46564 272.29688 343.7625Q272.625 344.0594 274.0 344.3719Q275.39062 344.6844 275.90625 344.91876Q276.65625 345.27814 277.01562 345.8094Q277.375 346.325 277.375 347.02814Q277.375 347.71564 276.98438 348.325Q276.59375 348.91876 275.85938 349.2625Q275.125 349.59064 274.20312 349.59064Q273.03125 349.59064 272.23438 349.2625Q271.45312 348.91876 271.0 348.23126Q270.5625 347.54376 270.54688 346.6844ZM278.79688 342.075L278.79688 340.85626L279.85938 340.85626L279.85938 342.075L278.79688 342.075ZM278.79688 349.45L278.79688 343.23126L279.85938 343.23126L279.85938 349.45L278.79688 349.45ZM281.23438 349.45L281.23438 348.59064L285.20312 344.04376Q284.51562 344.075 284.0 344.075L281.46875 344.075L281.46875 343.23126L286.5625 343.23126L286.5625 343.91876L283.1875 347.8719L282.53125 348.59064Q283.25 348.54376 283.85938 348.54376L286.75 348.54376L286.75 349.45L281.23438 349.45ZM291.04688 347.45L292.14062 347.575Q291.89062 348.52814 291.1875 349.0594Q290.48438 349.59064 289.40625 349.59064Q288.04688 349.59064 287.23438 348.7469Q286.4375 347.90314 286.4375 346.3875Q286.4375 344.825 287.25 343.96564Q288.0625 343.09064 289.34375 343.09064Q290.59375 343.09064 291.375 343.9344Q292.17188 344.77814 292.17188 346.325Q292.17188 346.41876 292.17188 346.60626L287.53125 346.60626Q287.59375 347.6375 288.10938 348.1844Q288.625 348.71564 289.40625 348.71564Q289.98438 348.71564 290.39062 348.41876Q290.8125 348.10626 291.04688 347.45ZM287.59375 345.7469L291.0625 345.7469Q291.0 344.95 290.67188 344.5594Q290.15625 343.95 289.35938 343.95Q288.625 343.95 288.125 344.4344Q287.64062 344.91876 287.59375 345.7469ZM298.8125 351.98126Q297.9375 350.8719 297.32812 349.40314Q296.73438 347.91876 296.73438 346.34064Q296.73438 344.95 297.17188 343.66876Q297.70312 342.1844 298.8125 340.71564L299.5625 340.71564Q298.85938 341.9344 298.625 342.45Q298.26562 343.2625 298.0625 344.1375Q297.8125 345.23126 297.8125 346.34064Q297.8125 349.16876 299.5625 351.98126L298.8125 351.98126ZM301.76562 349.45L300.78125 349.45L300.78125 340.85626L301.84375 340.85626L301.84375 343.91876Q302.51562 343.09064 303.54688 343.09064Q304.125 343.09064 304.625 343.325Q305.14062 343.54376 305.46875 343.96564Q305.8125 344.3875 306.0 344.98126Q306.1875 345.575 306.1875 346.2469Q306.1875 347.84064 305.39062 348.71564Q304.59375 349.59064 303.5 349.59064Q302.39062 349.59064 301.76562 348.66876L301.76562 349.45ZM301.75 346.29376Q301.75 347.40314 302.0625 347.90314Q302.5625 348.71564 303.40625 348.71564Q304.09375 348.71564 304.59375 348.1219Q305.10938 347.52814 305.10938 346.325Q305.10938 345.10626 304.625 344.52814Q304.14062 343.95 303.45312 343.95Q302.76562 343.95 302.25 344.5594Q301.75 345.15314 301.75 346.29376ZM307.75 351.84064L307.625 350.85626Q307.96875 350.95 308.23438 350.95Q308.57812 350.95 308.78125 350.825Q309.0 350.71564 309.14062 350.5125Q309.23438 350.34064 309.46875 349.71564Q309.48438 349.6375 309.5625 349.46564L307.1875 343.23126L308.32812 343.23126L309.625 346.825Q309.875 347.5125 310.07812 348.27814Q310.26562 347.54376 310.51562 346.85626L311.84375 343.23126L312.89062 343.23126L310.53125 349.5594Q310.14062 350.575 309.9375 350.96564Q309.65625 351.4969 309.28125 351.73126Q308.92188 351.98126 308.42188 351.98126Q308.125 351.98126 307.75 351.84064ZM315.09375 348.5125L315.25 349.4344Q314.79688 349.52814 314.45312 349.52814Q313.875 349.52814 313.5625 349.35626Q313.25 349.16876 313.10938 348.8719Q312.98438 348.575 312.98438 347.6219L312.98438 344.04376L312.21875 344.04376L312.21875 343.23126L312.98438 343.23126L312.98438 341.6844L314.03125 341.0594L314.03125 343.23126L315.09375 343.23126L315.09375 344.04376L314.03125 344.04376L314.03125 347.6844Q314.03125 348.1375 314.07812 348.2625Q314.14062 348.3875 314.26562 348.46564Q314.39062 348.54376 314.625 348.54376Q314.8125 348.54376 315.09375 348.5125ZM320.04688 347.45L321.14062 347.575Q320.89062 348.52814 320.1875 349.0594Q319.48438 349.59064 318.40625 349.59064Q317.04688 349.59064 316.23438 348.7469Q315.4375 347.90314 315.4375 346.3875Q315.4375 344.825 316.25 343.96564Q317.0625 343.09064 318.34375 343.09064Q319.59375 343.09064 320.375 343.9344Q321.17188 344.77814 321.17188 346.325Q321.17188 346.41876 321.17188 346.60626L316.53125 346.60626Q316.59375 347.6375 317.10938 348.1844Q317.625 348.71564 318.40625 348.71564Q318.98438 348.71564 319.39062 348.41876Q319.8125 348.10626 320.04688 347.45ZM316.59375 345.7469L320.0625 345.7469Q320.0 344.95 319.67188 344.5594Q319.15625 343.95 318.35938 343.95Q317.625 343.95 317.125 344.4344Q316.64062 344.91876 316.59375 345.7469ZM322.375 347.59064L323.40625 347.4344Q323.5 348.0594 323.89062 348.3875Q324.29688 348.71564 325.03125 348.71564Q325.75 348.71564 326.09375 348.4344Q326.45312 348.1375 326.45312 347.73126Q326.45312 347.3719 326.14062 347.16876Q325.92188 347.02814 325.0625 346.8094Q323.90625 346.5125 323.45312 346.3094Q323.01562 346.09064 322.78125 345.71564Q322.54688 345.34064 322.54688 344.8719Q322.54688 344.46564 322.73438 344.10626Q322.92188 343.7469 323.25 343.5125Q323.5 343.34064 323.92188 343.21564Q324.34375 343.09064 324.84375 343.09064Q325.5625 343.09064 326.10938 343.3094Q326.67188 343.5125 326.9375 343.8719Q327.20312 344.23126 327.29688 344.825L326.26562 344.96564Q326.20312 344.4969 325.85938 344.23126Q325.53125 343.95 324.90625 343.95Q324.1875 343.95 323.875 344.2Q323.5625 344.4344 323.5625 344.7625Q323.5625 344.96564 323.6875 345.1219Q323.82812 345.29376 324.09375 345.40314Q324.25 345.46564 325.03125 345.66876Q326.15625 345.98126 326.59375 346.16876Q327.03125 346.35626 327.28125 346.71564Q327.53125 347.075 327.53125 347.6219Q327.53125 348.15314 327.21875 348.6219Q326.92188 349.075 326.34375 349.34064Q325.76562 349.59064 325.03125 349.59064Q323.8125 349.59064 323.17188 349.09064Q322.54688 348.575 322.375 347.59064ZM330.48438 351.98126L329.73438 351.98126Q331.48438 349.16876 331.48438 346.34064Q331.48438 345.2469 331.23438 344.15314Q331.03125 343.27814 330.67188 342.46564Q330.4375 341.95 329.73438 340.71564L330.48438 340.71564Q331.57812 342.1844 332.10938 343.66876Q332.5625 344.95 332.5625 346.34064Q332.5625 347.91876 331.95312 349.40314Q331.34375 350.8719 330.48438 351.98126Z" fill-rule="nonzero"/><path fill="#000000" d="M27.550013 274.8198L27.675013 273.72604Q28.628138 273.97604 29.159388 274.67917Q29.690638 275.3823 29.690638 276.46042Q29.690638 277.8198 28.846888 278.6323Q28.003138 279.42917 26.487513 279.42917Q24.925013 279.42917 24.065638 278.61667Q23.190638 277.80417 23.190638 276.52292Q23.190638 275.27292 24.034388 274.49167Q24.878138 273.6948 26.425013 273.6948Q26.518763 273.6948 26.706263 273.6948L26.706263 278.33542Q27.737513 278.27292 28.284388 277.7573Q28.815638 277.24167 28.815638 276.46042Q28.815638 275.8823 28.518763 275.47604Q28.206263 275.05417 27.550013 274.8198ZM25.846888 278.27292L25.846888 274.80417Q25.050013 274.86667 24.659388 275.1948Q24.050013 275.71042 24.050013 276.5073Q24.050013 277.24167 24.534388 277.74167Q25.018763 278.22604 25.846888 278.27292ZM29.550013 272.77292L26.315638 270.5073L23.331263 272.60104L23.331263 271.28854L24.784388 270.33542Q25.206263 270.0698 25.487513 269.89792Q25.096888 269.64792 24.800013 269.42917L23.331263 268.3823L23.331263 267.11667L26.253138 269.27292L29.550013 266.96042L29.550013 268.24167L27.612513 269.52292L27.096888 269.86667L29.550013 271.5073L29.550013 272.77292ZM27.550013 262.8198L27.675013 261.72604Q28.628138 261.97604 29.159388 262.67917Q29.690638 263.3823 29.690638 264.46042Q29.690638 265.8198 28.846888 266.6323Q28.003138 267.42917 26.487513 267.42917Q24.925013 267.42917 24.065638 266.61667Q23.190638 265.80417 23.190638 264.52292Q23.190638 263.27292 24.034388 262.49167Q24.878138 261.6948 26.425013 261.6948Q26.518763 261.6948 26.706263 261.6948L26.706263 266.33542Q27.737513 266.27292 28.284388 265.7573Q28.815638 265.24167 28.815638 264.46042Q28.815638 263.8823 28.518763 263.47604Q28.206263 263.05417 27.550013 262.8198ZM25.846888 266.27292L25.846888 262.80417Q25.050013 262.86667 24.659388 263.1948Q24.050013 263.71042 24.050013 264.5073Q24.050013 265.24167 24.534388 265.74167Q25.018763 266.22604 25.846888 266.27292ZM27.268763 256.0073L27.409388 254.97604Q28.471888 255.14792 29.081263 255.85104Q29.690638 256.55417 29.690638 257.5698Q29.690638 258.85104 28.862513 259.6323Q28.018763 260.39792 26.456263 260.39792Q25.456263 260.39792 24.706263 260.0698Q23.940638 259.72604 23.565638 259.05417Q23.190638 258.36667 23.190638 257.55417Q23.190638 256.55417 23.706263 255.91354Q24.206263 255.2573 25.159388 255.0698L25.315638 256.10104Q24.690638 256.24167 24.378138 256.61667Q24.050013 256.99167 24.050013 257.52292Q24.050013 258.3198 24.628138 258.8198Q25.190638 259.3198 26.425013 259.3198Q27.690638 259.3198 28.253138 258.83542Q28.815638 258.35104 28.815638 257.58542Q28.815638 256.96042 28.440638 256.55417Q28.065638 256.1323 27.268763 256.0073ZM28.612513 248.77292L29.534388 248.61667Q29.628138 249.0698 29.628138 249.41354Q29.628138 249.99167 29.456263 250.30417Q29.268763 250.61667 28.971888 250.7573Q28.675013 250.8823 27.721888 250.8823L24.143763 250.8823L24.143763 251.64792L23.331263 251.64792L23.331263 250.8823L21.784388 250.8823L21.159388 249.83542L23.331263 249.83542L23.331263 248.77292L24.143763 248.77292L24.143763 249.83542L27.784388 249.83542Q28.237513 249.83542 28.362513 249.78854Q28.487513 249.72604 28.565638 249.60104Q28.643763 249.47604 28.643763 249.24167Q28.643763 249.05417 28.612513 248.77292ZM22.175013 248.0698L20.956263 248.0698L20.956263 247.0073L22.175013 247.0073L22.175013 248.0698ZM29.550013 248.0698L23.331263 248.0698L23.331263 247.0073L29.550013 247.0073L29.550013 248.0698ZM29.550013 245.0698L23.331263 245.0698L23.331263 244.1323L24.206263 244.1323Q23.737513 243.83542 23.471888 243.35104Q23.190638 242.86667 23.190638 242.24167Q23.190638 241.55417 23.471888 241.11667Q23.753138 240.66354 24.268763 240.49167Q23.190638 239.74167 23.190638 238.5698Q23.190638 237.6323 23.706263 237.14792Q24.206263 236.64792 25.284388 236.64792L29.550013 236.64792L29.550013 237.6948L25.628138 237.6948Q25.003138 237.6948 24.721888 237.80417Q24.440638 237.89792 24.268763 238.16354Q24.096888 238.42917 24.096888 238.80417Q24.096888 239.46042 24.534388 239.89792Q24.971888 240.3198 25.940638 240.3198L29.550013 240.3198L29.550013 241.3823L25.503138 241.3823Q24.800013 241.3823 24.456263 241.64792Q24.096888 241.89792 24.096888 242.47604Q24.096888 242.92917 24.331263 243.30417Q24.565638 243.67917 25.018763 243.85104Q25.471888 244.02292 26.315638 244.02292L29.550013 244.02292L29.550013 245.0698ZM27.550013 229.8198L27.675013 228.72604Q28.628138 228.97604 29.159388 229.67917Q29.690638 230.3823 29.690638 231.46042Q29.690638 232.8198 28.846888 233.6323Q28.003138 234.42917 26.487513 234.42917Q24.925013 234.42917 24.065638 233.61667Q23.190638 232.80417 23.190638 231.52292Q23.190638 230.27292 24.034388 229.49167Q24.878138 228.6948 26.425013 228.6948Q26.518763 228.6948 26.706263 228.6948L26.706263 233.33542Q27.737513 233.27292 28.284388 232.7573Q28.815638 232.24167 28.815638 231.46042Q28.815638 230.8823 28.518763 230.47604Q28.206263 230.05417 27.550013 229.8198ZM25.846888 233.27292L25.846888 229.80417Q25.050013 229.86667 24.659388 230.1948Q24.050013 230.71042 24.050013 231.5073Q24.050013 232.24167 24.534388 232.74167Q25.018763 233.22604 25.846888 233.27292ZM31.940638 224.0698L23.331263 224.0698L23.331263 223.11667L24.128138 223.11667Q23.659388 222.77292 23.425013 222.35104Q23.190638 221.91354 23.190638 221.30417Q23.190638 220.5073 23.596888 219.89792Q24.003138 219.28854 24.753138 218.99167Q25.503138 218.67917 26.393763 218.67917Q27.346888 218.67917 28.112513 219.02292Q28.878138 219.35104 29.284388 220.0073Q29.690638 220.66354 29.690638 221.3823Q29.690638 221.91354 29.471888 222.33542Q29.237513 222.7573 28.909388 223.02292L31.940638 223.02292L31.940638 224.0698ZM26.471888 223.11667Q27.675013 223.11667 28.253138 222.6323Q28.815638 222.14792 28.815638 221.46042Q28.815638 220.7573 28.221888 220.2573Q27.628138 219.7573 26.378138 219.7573Q25.190638 219.7573 24.612513 220.24167Q24.018763 220.72604 24.018763 221.41354Q24.018763 222.08542 24.643763 222.60104Q25.268763 223.11667 26.471888 223.11667ZM27.550013 212.8198L27.675013 211.72604Q28.628138 211.97604 29.159388 212.67917Q29.690638 213.3823 29.690638 214.46042Q29.690638 215.8198 28.846888 216.6323Q28.003138 217.42917 26.487513 217.42917Q24.925013 217.42917 24.065638 216.61667Q23.190638 215.80417 23.190638 214.52292Q23.190638 213.27292 24.034388 212.49167Q24.878138 211.6948 26.425013 211.6948Q26.518763 211.6948 26.706263 211.6948L26.706263 216.33542Q27.737513 216.27292 28.284388 215.7573Q28.815638 215.24167 28.815638 214.46042Q28.815638 213.8823 28.518763 213.47604Q28.206263 213.05417 27.550013 212.8198ZM25.846888 216.27292L25.846888 212.80417Q25.050013 212.86667 24.659388 213.1948Q24.050013 213.71042 24.050013 214.5073Q24.050013 215.24167 24.534388 215.74167Q25.018763 216.22604 25.846888 216.27292ZM29.550013 210.08542L23.331263 210.08542L23.331263 209.1323L24.268763 209.1323Q23.612513 208.77292 23.409388 208.47604Q23.190638 208.16354 23.190638 207.78854Q23.190638 207.2573 23.518763 206.71042L24.503138 207.0698Q24.268763 207.46042 24.268763 207.83542Q24.268763 208.1948 24.487513 208.47604Q24.690638 208.74167 25.065638 208.85104Q25.628138 209.03854 26.284388 209.03854L29.550013 209.03854L29.550013 210.08542ZM22.175013 203.0698L20.956263 203.0698L20.956263 202.0073L22.175013 202.0073L22.175013 203.0698ZM29.550013 203.0698L23.331263 203.0698L23.331263 202.0073L29.550013 202.0073L29.550013 203.0698ZM29.550013 200.0698L23.331263 200.0698L23.331263 199.1323L24.206263 199.1323Q23.190638 198.4448 23.190638 197.14792Q23.190638 196.58542 23.393763 196.11667Q23.596888 195.6323 23.925013 195.39792Q24.253138 195.16354 24.690638 195.0698Q24.987513 195.02292 25.721888 195.02292L29.550013 195.02292L29.550013 196.0698L25.768763 196.0698Q25.112513 196.0698 24.800013 196.1948Q24.487513 196.3198 24.300013 196.6323Q24.096888 196.9448 24.096888 197.36667Q24.096888 198.03854 24.534388 198.53854Q24.956263 199.02292 26.143763 199.02292L29.550013 199.02292L29.550013 200.0698ZM27.690638 193.49167L27.534388 192.46042Q28.159388 192.36667 28.487513 191.97604Q28.815638 191.5698 28.815638 190.83542Q28.815638 190.11667 28.534388 189.77292Q28.237513 189.41354 27.831263 189.41354Q27.471888 189.41354 27.268763 189.72604Q27.128138 189.9448 26.909388 190.80417Q26.612513 191.96042 26.409388 192.41354Q26.190638 192.85104 25.815638 193.08542Q25.440638 193.3198 24.971888 193.3198Q24.565638 193.3198 24.206263 193.1323Q23.846888 192.9448 23.612513 192.61667Q23.440638 192.36667 23.315638 191.9448Q23.190638 191.52292 23.190638 191.02292Q23.190638 190.30417 23.409388 189.7573Q23.612513 189.1948 23.971888 188.92917Q24.331263 188.66354 24.925013 188.5698L25.065638 189.60104Q24.596888 189.66354 24.331263 190.0073Q24.050013 190.33542 24.050013 190.96042Q24.050013 191.67917 24.300013 191.99167Q24.534388 192.30417 24.862513 192.30417Q25.065638 192.30417 25.221888 192.17917Q25.393763 192.03854 25.503138 191.77292Q25.565638 191.61667 25.768763 190.83542Q26.081263 189.71042 26.268763 189.27292Q26.456263 188.83542 26.815638 188.58542Q27.175013 188.33542 27.721888 188.33542Q28.253138 188.33542 28.721888 188.64792Q29.175013 188.9448 29.440638 189.52292Q29.690638 190.10104 29.690638 190.83542Q29.690638 192.05417 29.190638 192.6948Q28.675013 193.3198 27.690638 193.49167ZM28.612513 183.77292L29.534388 183.61667Q29.628138 184.0698 29.628138 184.41354Q29.628138 184.99167 29.456263 185.30417Q29.268763 185.61667 28.971888 185.7573Q28.675013 185.8823 27.721888 185.8823L24.143763 185.8823L24.143763 186.64792L23.331263 186.64792L23.331263 185.8823L21.784388 185.8823L21.159388 184.83542L23.331263 184.83542L23.331263 183.77292L24.143763 183.77292L24.143763 184.83542L27.784388 184.83542Q28.237513 184.83542 28.362513 184.78854Q28.487513 184.72604 28.565638 184.60104Q28.643763 184.47604 28.643763 184.24167Q28.643763 184.05417 28.612513 183.77292ZM29.550013 183.08542L23.331263 183.08542L23.331263 182.1323L24.268763 182.1323Q23.612513 181.77292 23.409388 181.47604Q23.190638 181.16354 23.190638 180.78854Q23.190638 180.2573 23.518763 179.71042L24.503138 180.0698Q24.268763 180.46042 24.268763 180.83542Q24.268763 181.1948 24.487513 181.47604Q24.690638 181.74167 25.065638 181.85104Q25.628138 182.03854 26.284388 182.03854L29.550013 182.03854L29.550013 183.08542ZM29.550013 174.99167L28.628138 174.99167Q29.690638 175.72604 29.690638 176.97604Q29.690638 177.52292 29.487513 178.0073Q29.268763 178.47604 28.956263 178.71042Q28.628138 178.9448 28.159388 179.03854Q27.862513 179.10104 27.175013 179.10104L23.331263 179.10104L23.331263 178.03854L26.784388 178.03854Q27.596888 178.03854 27.893763 177.97604Q28.300013 177.8823 28.550013 177.5698Q28.784388 177.24167 28.784388 176.7573Q28.784388 176.28854 28.550013 175.8823Q28.300013 175.46042 27.878138 175.28854Q27.456263 175.10104 26.659388 175.10104L23.331263 175.10104L23.331263 174.05417L29.550013 174.05417L29.550013 174.99167ZM27.268763 168.0073L27.409388 166.97604Q28.471888 167.14792 29.081263 167.85104Q29.690638 168.55417 29.690638 169.5698Q29.690638 170.85104 28.862513 171.6323Q28.018763 172.39792 26.456263 172.39792Q25.456263 172.39792 24.706263 172.0698Q23.940638 171.72604 23.565638 171.05417Q23.190638 170.36667 23.190638 169.55417Q23.190638 168.55417 23.706263 167.91354Q24.206263 167.2573 25.159388 167.0698L25.315638 168.10104Q24.690638 168.24167 24.378138 168.61667Q24.050013 168.99167 24.050013 169.52292Q24.050013 170.3198 24.628138 170.8198Q25.190638 171.3198 26.425013 171.3198Q27.690638 171.3198 28.253138 170.83542Q28.815638 170.35104 28.815638 169.58542Q28.815638 168.96042 28.440638 168.55417Q28.065638 168.1323 27.268763 168.0073ZM28.612513 163.77292L29.534388 163.61667Q29.628138 164.0698 29.628138 164.41354Q29.628138 164.99167 29.456263 165.30417Q29.268763 165.61667 28.971888 165.7573Q28.675013 165.8823 27.721888 165.8823L24.143763 165.8823L24.143763 166.64792L23.331263 166.64792L23.331263 165.8823L21.784388 165.8823L21.159388 164.83542L23.331263 164.83542L23.331263 163.77292L24.143763 163.77292L24.143763 164.83542L27.784388 164.83542Q28.237513 164.83542 28.362513 164.78854Q28.487513 164.72604 28.565638 164.60104Q28.643763 164.47604 28.643763 164.24167Q28.643763 164.05417 28.612513 163.77292ZM22.175013 163.0698L20.956263 163.0698L20.956263 162.0073L22.175013 162.0073L22.175013 163.0698ZM29.550013 163.0698L23.331263 163.0698L23.331263 162.0073L29.550013 162.0073L29.550013 163.0698ZM26.440638 160.46042Q24.706263 160.46042 23.878138 159.5073Q23.190638 158.71042 23.190638 157.55417Q23.190638 156.27292 24.034388 155.46042Q24.862513 154.6323 26.346888 154.6323Q27.550013 154.6323 28.237513 154.99167Q28.925013 155.35104 29.315638 156.05417Q29.690638 156.74167 29.690638 157.55417Q29.690638 158.85104 28.862513 159.66354Q28.018763 160.46042 26.440638 160.46042ZM26.440638 159.3823Q27.628138 159.3823 28.221888 158.86667Q28.815638 158.33542 28.815638 157.55417Q28.815638 156.7573 28.221888 156.24167Q27.628138 155.72604 26.409388 155.72604Q25.253138 155.72604 24.659388 156.2573Q24.065638 156.77292 24.065638 157.55417Q24.065638 158.33542 24.659388 158.86667Q25.237513 159.3823 26.440638 159.3823ZM29.550013 153.0698L23.331263 153.0698L23.331263 152.1323L24.206263 152.1323Q23.190638 151.4448 23.190638 150.14792Q23.190638 149.58542 23.393763 149.11667Q23.596888 148.6323 23.925013 148.39792Q24.253138 148.16354 24.690638 148.0698Q24.987513 148.02292 25.721888 148.02292L29.550013 148.02292L29.550013 149.0698L25.768763 149.0698Q25.112513 149.0698 24.800013 149.1948Q24.487513 149.3198 24.300013 149.6323Q24.096888 149.9448 24.096888 150.36667Q24.096888 151.03854 24.534388 151.53854Q24.956263 152.02292 26.143763 152.02292L29.550013 152.02292L29.550013 153.0698ZM32.08126 141.05417Q30.971888 141.92917 29.503138 142.53854Q28.018763 143.1323 26.440638 143.1323Q25.050013 143.1323 23.768763 142.6948Q22.284388 142.16354 20.815638 141.05417L20.815638 140.30417Q22.034388 141.0073 22.550013 141.24167Q23.362513 141.60104 24.237513 141.80417Q25.331263 142.05417 26.440638 142.05417Q29.268763 142.05417 32.08126 140.30417L32.08126 141.05417ZM29.550013 139.0698L23.331263 139.0698L23.331263 138.1323L24.206263 138.1323Q23.190638 137.4448 23.190638 136.14792Q23.190638 135.58542 23.393763 135.11667Q23.596888 134.6323 23.925013 134.39792Q24.253138 134.16354 24.690638 134.0698Q24.987513 134.02292 25.721888 134.02292L29.550013 134.02292L29.550013 135.0698L25.768763 135.0698Q25.112513 135.0698 24.800013 135.1948Q24.487513 135.3198 24.300013 135.6323Q24.096888 135.9448 24.096888 136.36667Q24.096888 137.03854 24.534388 137.53854Q24.956263 138.02292 26.143763 138.02292L29.550013 138.02292L29.550013 139.0698ZM27.690638 132.49167L27.534388 131.46042Q28.159388 131.36667 28.487513 130.97604Q28.815638 130.5698 28.815638 129.83542Q28.815638 129.11667 28.534388 128.77292Q28.237513 128.41354 27.831263 128.41354Q27.471888 128.41354 27.268763 128.72604Q27.128138 128.9448 26.909388 129.80417Q26.612513 130.96042 26.409388 131.41354Q26.190638 131.85104 25.815638 132.08542Q25.440638 132.3198 24.971888 132.3198Q24.565638 132.3198 24.206263 132.1323Q23.846888 131.9448 23.612513 131.61667Q23.440638 131.36667 23.315638 130.9448Q23.190638 130.52292 23.190638 130.02292Q23.190638 129.30417 23.409388 128.7573Q23.612513 128.1948 23.971888 127.92917Q24.331263 127.66354 24.925013 127.56979L25.065638 128.60104Q24.596888 128.66354 24.331263 129.0073Q24.050013 129.33542 24.050013 129.96042Q24.050013 130.67917 24.300013 130.99167Q24.534388 131.30417 24.862513 131.30417Q25.065638 131.30417 25.221888 131.17917Q25.393763 131.03854 25.503138 130.77292Q25.565638 130.61667 25.768763 129.83542Q26.081263 128.71042 26.268763 128.27292Q26.456263 127.83542 26.815638 127.58542Q27.175013 127.33542 27.721888 127.33542Q28.253138 127.33542 28.721888 127.64792Q29.175013 127.94479 29.440638 128.52292Q29.690638 129.10104 29.690638 129.83542Q29.690638 131.05417 29.190638 131.6948Q28.675013 132.3198 27.690638 132.49167ZM32.08126 124.38229L32.08126 125.13229Q29.268763 123.38229 26.440638 123.38229Q25.346888 123.38229 24.253138 123.63229Q23.378138 123.83542 22.565638 124.19479Q22.050013 124.42917 20.815638 125.13229L20.815638 124.38229Q22.284388 123.28854 23.768763 122.75729Q25.050013 122.30417 26.440638 122.30417Q28.018763 122.30417 29.503138 122.91354Q30.971888 123.52292 32.08126 124.38229Z" fill-rule="nonzero"/><path fill="#000000" d="M65.05 300.21564Q65.05 298.6844 65.3625 297.7625Q65.675 296.825 66.28438 296.325Q66.90938 295.825 67.84688 295.825Q68.53438 295.825 69.05 296.10626Q69.58125 296.3875 69.925 296.91876Q70.26875 297.4344 70.45625 298.1844Q70.64375 298.9344 70.64375 300.21564Q70.64375 301.73126 70.33125 302.65314Q70.03438 303.575 69.40938 304.09064Q68.8 304.59064 67.84688 304.59064Q66.6125 304.59064 65.89375 303.7Q65.05 302.6375 65.05 300.21564ZM66.12813 300.21564Q66.12813 302.325 66.62813 303.02814Q67.12813 303.73126 67.84688 303.73126Q68.58125 303.73126 69.06563 303.02814Q69.56563 302.325 69.56563 300.21564Q69.56563 298.09064 69.06563 297.40314Q68.58125 296.7 67.83125 296.7Q67.1125 296.7 66.675 297.3094Q66.12813 298.09064 66.12813 300.21564Z" fill-rule="nonzero"/><path fill="#000000" d="M58.05 259.76666L59.159374 259.6729Q59.284374 260.4854 59.721874 260.89166Q60.175 261.2979 60.815624 261.2979Q61.565624 261.2979 62.096874 260.7198Q62.628124 260.14166 62.628124 259.20416Q62.628124 258.2979 62.1125 257.7823Q61.6125 257.25104 60.784374 257.25104Q60.284374 257.25104 59.8625 257.4854Q59.45625 257.7198 59.221874 258.07916L58.2375 257.95416L59.065624 253.54791L63.346874 253.54791L63.346874 254.54791L59.909374 254.54791L59.45625 256.8604Q60.221874 256.31354 61.065624 256.31354Q62.190624 256.31354 62.95625 257.0948Q63.7375 257.87604 63.7375 259.1104Q63.7375 260.26666 63.065624 261.12604Q62.2375 262.1573 60.815624 262.1573Q59.64375 262.1573 58.89375 261.50104Q58.159374 260.8448 58.05 259.76666ZM65.05 257.7823Q65.05 256.25104 65.3625 255.32916Q65.675 254.39166 66.28438 253.89166Q66.90938 253.39166 67.84688 253.39166Q68.53438 253.39166 69.05 253.67291Q69.58125 253.95416 69.925 254.48541Q70.26875 255.00104 70.45625 255.75104Q70.64375 256.50104 70.64375 257.7823Q70.64375 259.2979 70.33125 260.2198Q70.03438 261.14166 69.40938 261.6573Q68.8 262.1573 67.84688 262.1573Q66.6125 262.1573 65.89375 261.26666Q65.05 260.20416 65.05 257.7823ZM66.12813 257.7823Q66.12813 259.89166 66.62813 260.5948Q67.12813 261.2979 67.84688 261.2979Q68.58125 261.2979 69.06563 260.5948Q69.56563 259.89166 69.56563 257.7823Q69.56563 255.65729 69.06563 254.96979Q68.58125 254.26666 67.83125 254.26666Q67.1125 254.26666 66.675 254.87604Q66.12813 255.65729 66.12813 257.7823Z" fill-rule="nonzero"/><path fill="#000000" d="M55.01875 219.58333L53.971874 219.58333L53.971874 212.86458Q53.58125 213.22395 52.95625 213.59895Q52.346874 213.95833 51.8625 214.1302L51.8625 213.11458Q52.7375 212.6927 53.39375 212.11458Q54.065624 211.52083 54.346874 210.95833L55.01875 210.95833L55.01875 219.58333ZM58.05 215.34895Q58.05 213.8177 58.3625 212.89583Q58.675 211.95833 59.284374 211.45833Q59.909374 210.95833 60.846874 210.95833Q61.534374 210.95833 62.05 211.23958Q62.58125 211.52083 62.925 212.05208Q63.26875 212.5677 63.45625 213.3177Q63.64375 214.0677 63.64375 215.34895Q63.64375 216.86458 63.33125 217.78645Q63.034374 218.70833 62.409374 219.22395Q61.8 219.72395 60.846874 219.72395Q59.6125 219.72395 58.89375 218.83333Q58.05 217.77083 58.05 215.34895ZM59.128124 215.34895Q59.128124 217.45833 59.628124 218.16145Q60.128124 218.86458 60.846874 218.86458Q61.58125 218.86458 62.065624 218.16145Q62.565624 217.45833 62.565624 215.34895Q62.565624 213.22395 62.065624 212.53645Q61.58125 211.83333 60.83125 211.83333Q60.1125 211.83333 59.675 212.4427Q59.128124 213.22395 59.128124 215.34895ZM65.05 215.34895Q65.05 213.8177 65.3625 212.89583Q65.675 211.95833 66.28438 211.45833Q66.90938 210.95833 67.84688 210.95833Q68.53438 210.95833 69.05 211.23958Q69.58125 211.52083 69.925 212.05208Q70.26875 212.5677 70.45625 213.3177Q70.64375 214.0677 70.64375 215.34895Q70.64375 216.86458 70.33125 217.78645Q70.03438 218.70833 69.40938 219.22395Q68.8 219.72395 67.84688 219.72395Q66.6125 219.72395 65.89375 218.83333Q65.05 217.77083 65.05 215.34895ZM66.12813 215.34895Q66.12813 217.45833 66.62813 218.16145Q67.12813 218.86458 67.84688 218.86458Q68.58125 218.86458 69.06563 218.16145Q69.56563 217.45833 69.56563 215.34895Q69.56563 213.22395 69.06563 212.53645Q68.58125 211.83333 67.83125 211.83333Q67.1125 211.83333 66.675 212.4427Q66.12813 213.22395 66.12813 215.34895Z" fill-rule="nonzero"/><path fill="#000000" d="M55.01875 177.15L53.971874 177.15L53.971874 170.43124Q53.58125 170.79062 52.95625 171.16562Q52.346874 171.525 51.8625 171.69687L51.8625 170.68124Q52.7375 170.25937 53.39375 169.68124Q54.065624 169.0875 54.346874 168.525L55.01875 168.525L55.01875 177.15ZM58.05 174.9L59.159374 174.80624Q59.284374 175.61874 59.721874 176.025Q60.175 176.43124 60.815624 176.43124Q61.565624 176.43124 62.096874 175.85312Q62.628124 175.275 62.628124 174.3375Q62.628124 173.43124 62.1125 172.91562Q61.6125 172.38437 60.784374 172.38437Q60.284374 172.38437 59.8625 172.61874Q59.45625 172.85312 59.221874 173.2125L58.2375 173.0875L59.065624 168.68124L63.346874 168.68124L63.346874 169.68124L59.909374 169.68124L59.45625 171.99374Q60.221874 171.44687 61.065624 171.44687Q62.190624 171.44687 62.95625 172.22812Q63.7375 173.00937 63.7375 174.24374Q63.7375 175.4 63.065624 176.25937Q62.2375 177.29062 60.815624 177.29062Q59.64375 177.29062 58.89375 176.63437Q58.159374 175.97812 58.05 174.9ZM65.05 172.91562Q65.05 171.38437 65.3625 170.4625Q65.675 169.525 66.28438 169.025Q66.90938 168.525 67.84688 168.525Q68.53438 168.525 69.05 168.80624Q69.58125 169.0875 69.925 169.61874Q70.26875 170.13437 70.45625 170.88437Q70.64375 171.63437 70.64375 172.91562Q70.64375 174.43124 70.33125 175.35312Q70.03438 176.275 69.40938 176.79062Q68.8 177.29062 67.84688 177.29062Q66.6125 177.29062 65.89375 176.4Q65.05 175.3375 65.05 172.91562ZM66.12813 172.91562Q66.12813 175.025 66.62813 175.72812Q67.12813 176.43124 67.84688 176.43124Q68.58125 176.43124 69.06563 175.72812Q69.56563 175.025 69.56563 172.91562Q69.56563 170.79062 69.06563 170.10312Q68.58125 169.4 67.83125 169.4Q67.1125 169.4 66.675 170.00937Q66.12813 170.79062 66.12813 172.91562Z" fill-rule="nonzero"/><path fill="#000000" d="M56.596874 133.70103L56.596874 134.71666L50.909374 134.71666Q50.909374 134.34166 51.034374 133.98228Q51.253124 133.40416 51.721874 132.84166Q52.20625 132.27916 53.1125 131.54478Q54.51875 130.38853 55.003124 129.71666Q55.503124 129.04478 55.503124 128.45103Q55.503124 127.826035 55.05 127.40416Q54.596874 126.96666 53.878124 126.96666Q53.1125 126.96666 52.659374 127.419785Q52.20625 127.87291 52.190624 128.68541L51.1125 128.57603Q51.221874 127.357285 51.940624 126.732285Q52.675 126.09166 53.909374 126.09166Q55.14375 126.09166 55.8625 126.77916Q56.58125 127.46666 56.58125 128.48228Q56.58125 128.99791 56.3625 129.49791Q56.159374 129.98228 55.659374 130.54478Q55.175 131.09166 54.05 132.04478Q53.096874 132.84166 52.815624 133.13853Q52.55 133.41978 52.378124 133.70103L56.596874 133.70103ZM58.05 130.48228Q58.05 128.95103 58.3625 128.02916Q58.675 127.09166 59.284374 126.59166Q59.909374 126.09166 60.846874 126.09166Q61.534374 126.09166 62.05 126.37291Q62.58125 126.65416 62.925 127.18541Q63.26875 127.701035 63.45625 128.45103Q63.64375 129.20103 63.64375 130.48228Q63.64375 131.99791 63.33125 132.91978Q63.034374 133.84166 62.409374 134.35728Q61.8 134.85728 60.846874 134.85728Q59.6125 134.85728 58.89375 133.96666Q58.05 132.90416 58.05 130.48228ZM59.128124 130.48228Q59.128124 132.59166 59.628124 133.29478Q60.128124 133.99791 60.846874 133.99791Q61.58125 133.99791 62.065624 133.29478Q62.565624 132.59166 62.565624 130.48228Q62.565624 128.35728 62.065624 127.669785Q61.58125 126.96666 60.83125 126.96666Q60.1125 126.96666 59.675 127.576035Q59.128124 128.35728 59.128124 130.48228ZM65.05 130.48228Q65.05 128.95103 65.3625 128.02916Q65.675 127.09166 66.28438 126.59166Q66.90938 126.09166 67.84688 126.09166Q68.53438 126.09166 69.05 126.37291Q69.58125 126.65416 69.925 127.18541Q70.26875 127.701035 70.45625 128.45103Q70.64375 129.20103 70.64375 130.48228Q70.64375 131.99791 70.33125 132.91978Q70.03438 133.84166 69.40938 134.35728Q68.8 134.85728 67.84688 134.85728Q66.6125 134.85728 65.89375 133.96666Q65.05 132.90416 65.05 130.48228ZM66.12813 130.48228Q66.12813 132.59166 66.62813 133.29478Q67.12813 133.99791 67.84688 133.99791Q68.58125 133.99791 69.06563 133.29478Q69.56563 132.59166 69.56563 130.48228Q69.56563 128.35728 69.06563 127.669785Q68.58125 126.96666 67.83125 126.96666Q67.1125 126.96666 66.675 127.576035Q66.12813 128.35728 66.12813 130.48228Z" fill-rule="nonzero"/><path fill="#000000" d="M56.596874 91.26771L56.596874 92.28333L50.909374 92.28333Q50.909374 91.90833 51.034374 91.54896Q51.253124 90.97083 51.721874 90.40833Q52.20625 89.84583 53.1125 89.11146Q54.51875 87.95521 55.003124 87.28333Q55.503124 86.61146 55.503124 86.01771Q55.503124 85.39271 55.05 84.97083Q54.596874 84.53333 53.878124 84.53333Q53.1125 84.53333 52.659374 84.98646Q52.20625 85.43958 52.190624 86.25208L51.1125 86.14271Q51.221874 84.92396 51.940624 84.29896Q52.675 83.65833 53.909374 83.65833Q55.14375 83.65833 55.8625 84.34583Q56.58125 85.03333 56.58125 86.04896Q56.58125 86.56458 56.3625 87.06458Q56.159374 87.54896 55.659374 88.11146Q55.175 88.65833 54.05 89.61146Q53.096874 90.40833 52.815624 90.70521Q52.55 90.98646 52.378124 91.26771L56.596874 91.26771ZM58.05 90.03333L59.159374 89.93958Q59.284374 90.75208 59.721874 91.15833Q60.175 91.56458 60.815624 91.56458Q61.565624 91.56458 62.096874 90.98646Q62.628124 90.40833 62.628124 89.47083Q62.628124 88.56458 62.1125 88.04896Q61.6125 87.51771 60.784374 87.51771Q60.284374 87.51771 59.8625 87.75208Q59.45625 87.98646 59.221874 88.34583L58.2375 88.22083L59.065624 83.81458L63.346874 83.81458L63.346874 84.81458L59.909374 84.81458L59.45625 87.12708Q60.221874 86.58021 61.065624 86.58021Q62.190624 86.58021 62.95625 87.36146Q63.7375 88.14271 63.7375 89.37708Q63.7375 90.53333 63.065624 91.39271Q62.2375 92.42396 60.815624 92.42396Q59.64375 92.42396 58.89375 91.76771Q58.159374 91.11146 58.05 90.03333ZM65.05 88.04896Q65.05 86.51771 65.3625 85.59583Q65.675 84.65833 66.28438 84.15833Q66.90938 83.65833 67.84688 83.65833Q68.53438 83.65833 69.05 83.93958Q69.58125 84.22083 69.925 84.75208Q70.26875 85.26771 70.45625 86.01771Q70.64375 86.76771 70.64375 88.04896Q70.64375 89.56458 70.33125 90.48646Q70.03438 91.40833 69.40938 91.92396Q68.8 92.42396 67.84688 92.42396Q66.6125 92.42396 65.89375 91.53333Q65.05 90.47083 65.05 88.04896ZM66.12813 88.04896Q66.12813 90.15833 66.62813 90.86146Q67.12813 91.56458 67.84688 91.56458Q68.58125 91.56458 69.06563 90.86146Q69.56563 90.15833 69.56563 88.04896Q69.56563 85.92396 69.06563 85.23646Q68.58125 84.53333 67.83125 84.53333Q67.1125 84.53333 66.675 85.14271Q66.12813 85.92396 66.12813 88.04896Z" fill-rule="nonzero"/><path fill="#000000" d="M78.51875 317.45L77.47188 317.45L77.47188 310.73126Q77.08125 311.09064 76.45625 311.46564Q75.84688 311.825 75.3625 311.9969L75.3625 310.98126Q76.2375 310.5594 76.89375 309.98126Q77.56563 309.3875 77.84688 308.825L78.51875 308.825L78.51875 317.45Z" fill-rule="nonzero"/><path fill="#000000" d="M189.47195 317.45L188.42508 317.45L188.42508 310.73126Q188.03445 311.09064 187.40945 311.46564Q186.80008 311.825 186.3157 311.9969L186.3157 310.98126Q187.1907 310.5594 187.84695 309.98126Q188.51883 309.3875 188.80008 308.825L189.47195 308.825L189.47195 317.45ZM192.5032 313.21564Q192.5032 311.6844 192.8157 310.7625Q193.1282 309.825 193.73758 309.325Q194.36258 308.825 195.30008 308.825Q195.98758 308.825 196.5032 309.10626Q197.03445 309.3875 197.3782 309.91876Q197.72195 310.4344 197.90945 311.1844Q198.09695 311.9344 198.09695 313.21564Q198.09695 314.73126 197.78445 315.65314Q197.48758 316.575 196.86258 317.09064Q196.2532 317.59064 195.30008 317.59064Q194.0657 317.59064 193.34695 316.7Q192.5032 315.6375 192.5032 313.21564ZM193.58133 313.21564Q193.58133 315.325 194.08133 316.02814Q194.58133 316.73126 195.30008 316.73126Q196.03445 316.73126 196.51883 316.02814Q197.01883 315.325 197.01883 313.21564Q197.01883 311.09064 196.51883 310.40314Q196.03445 309.7 195.28445 309.7Q194.5657 309.7 194.1282 310.3094Q193.58133 311.09064 193.58133 313.21564Z" fill-rule="nonzero"/><path fill="#000000" d="M300.42514 317.45L299.37827 317.45L299.37827 310.73126Q298.98764 311.09064 298.36264 311.46564Q297.75327 311.825 297.2689 311.9969L297.2689 310.98126Q298.1439 310.5594 298.80014 309.98126Q299.47202 309.3875 299.75327 308.825L300.42514 308.825L300.42514 317.45ZM303.4564 313.21564Q303.4564 311.6844 303.7689 310.7625Q304.0814 309.825 304.69077 309.325Q305.31577 308.825 306.25327 308.825Q306.94077 308.825 307.4564 309.10626Q307.98764 309.3875 308.3314 309.91876Q308.67514 310.4344 308.86264 311.1844Q309.05014 311.9344 309.05014 313.21564Q309.05014 314.73126 308.73764 315.65314Q308.44077 316.575 307.81577 317.09064Q307.2064 317.59064 306.25327 317.59064Q305.0189 317.59064 304.30014 316.7Q303.4564 315.6375 303.4564 313.21564ZM304.53452 313.21564Q304.53452 315.325 305.03452 316.02814Q305.53452 316.73126 306.25327 316.73126Q306.98764 316.73126 307.47202 316.02814Q307.97202 315.325 307.97202 313.21564Q307.97202 311.09064 307.47202 310.40314Q306.98764 309.7 306.23764 309.7Q305.5189 309.7 305.0814 310.3094Q304.53452 311.09064 304.53452 313.21564ZM310.4564 313.21564Q310.4564 311.6844 310.7689 310.7625Q311.0814 309.825 311.69077 309.325Q312.31577 308.825 313.25327 308.825Q313.94077 308.825 314.4564 309.10626Q314.98764 309.3875 315.3314 309.91876Q315.67514 310.4344 315.86264 311.1844Q316.05014 311.9344 316.05014 313.21564Q316.05014 314.73126 315.73764 315.65314Q315.44077 316.575 314.81577 317.09064Q314.2064 317.59064 313.25327 317.59064Q312.0189 317.59064 311.30014 316.7Q310.4564 315.6375 310.4564 313.21564ZM311.53452 313.21564Q311.53452 315.325 312.03452 316.02814Q312.53452 316.73126 313.25327 316.73126Q313.98764 316.73126 314.47202 316.02814Q314.97202 315.325 314.97202 313.21564Q314.97202 311.09064 314.47202 310.40314Q313.98764 309.7 313.23764 309.7Q312.5189 309.7 312.0814 310.3094Q311.53452 311.09064 311.53452 313.21564Z" fill-rule="nonzero"/><path fill="#000000" d="M411.37836 317.45L410.33148 317.45L410.33148 310.73126Q409.94086 311.09064 409.31586 311.46564Q408.70648 311.825 408.2221 311.9969L408.2221 310.98126Q409.0971 310.5594 409.75336 309.98126Q410.42523 309.3875 410.70648 308.825L411.37836 308.825L411.37836 317.45ZM414.4096 313.21564Q414.4096 311.6844 414.7221 310.7625Q415.0346 309.825 415.64398 309.325Q416.26898 308.825 417.20648 308.825Q417.89398 308.825 418.4096 309.10626Q418.94086 309.3875 419.2846 309.91876Q419.62836 310.4344 419.81586 311.1844Q420.00336 311.9344 420.00336 313.21564Q420.00336 314.73126 419.69086 315.65314Q419.39398 316.575 418.76898 317.09064Q418.1596 317.59064 417.20648 317.59064Q415.9721 317.59064 415.25336 316.7Q414.4096 315.6375 414.4096 313.21564ZM415.48773 313.21564Q415.48773 315.325 415.98773 316.02814Q416.48773 316.73126 417.20648 316.73126Q417.94086 316.73126 418.42523 316.02814Q418.92523 315.325 418.92523 313.21564Q418.92523 311.09064 418.42523 310.40314Q417.94086 309.7 417.19086 309.7Q416.4721 309.7 416.0346 310.3094Q415.48773 311.09064 415.48773 313.21564ZM421.4096 313.21564Q421.4096 311.6844 421.7221 310.7625Q422.0346 309.825 422.64398 309.325Q423.26898 308.825 424.20648 308.825Q424.89398 308.825 425.4096 309.10626Q425.94086 309.3875 426.2846 309.91876Q426.62836 310.4344 426.81586 311.1844Q427.00336 311.9344 427.00336 313.21564Q427.00336 314.73126 426.69086 315.65314Q426.39398 316.575 425.76898 317.09064Q425.1596 317.59064 424.20648 317.59064Q422.9721 317.59064 422.25336 316.7Q421.4096 315.6375 421.4096 313.21564ZM422.48773 313.21564Q422.48773 315.325 422.98773 316.02814Q423.48773 316.73126 424.20648 316.73126Q424.94086 316.73126 425.42523 316.02814Q425.92523 315.325 425.92523 313.21564Q425.92523 311.09064 425.42523 310.40314Q424.94086 309.7 424.19086 309.7Q423.4721 309.7 423.0346 310.3094Q422.48773 311.09064 422.48773 313.21564ZM428.4096 313.21564Q428.4096 311.6844 428.7221 310.7625Q429.0346 309.825 429.64398 309.325Q430.26898 308.825 431.20648 308.825Q431.89398 308.825 432.4096 309.10626Q432.94086 309.3875 433.2846 309.91876Q433.62836 310.4344 433.81586 311.1844Q434.00336 311.9344 434.00336 313.21564Q434.00336 314.73126 433.69086 315.65314Q433.39398 316.575 432.76898 317.09064Q432.1596 317.59064 431.20648 317.59064Q429.9721 317.59064 429.25336 316.7Q428.4096 315.6375 428.4096 313.21564ZM429.48773 313.21564Q429.48773 315.325 429.98773 316.02814Q430.48773 316.73126 431.20648 316.73126Q431.94086 316.73126 432.42523 316.02814Q432.92523 315.325 432.92523 313.21564Q432.92523 311.09064 432.42523 310.40314Q431.94086 309.7 431.19086 309.7Q430.4721 309.7 430.0346 310.3094Q429.48773 311.09064 429.48773 313.21564Z" fill-rule="nonzero"/><path stroke="#4285f4" stroke-width="4.0" stroke-linecap="butt" d="M197.0 61.916668L209.0 61.916668" fill-rule="nonzero"/><path fill="#1a1a1a" d="M217.875 65.916664L217.875 57.322914L221.10938 57.322914Q222.09375 57.322914 222.6875 57.58854Q223.28125 57.854164 223.60938 58.40104Q223.95312 58.93229 223.95312 59.52604Q223.95312 60.072914 223.65625 60.55729Q223.35938 61.041664 222.75 61.33854Q223.53125 61.572914 223.9375 62.135414Q224.35938 62.68229 224.35938 63.43229Q224.35938 64.02604 224.10938 64.55729Q223.85938 65.072914 223.48438 65.354164Q223.10938 65.635414 222.53125 65.77604Q221.96875 65.916664 221.15625 65.916664L217.875 65.916664ZM219.01562 60.93229L220.875 60.93229Q221.625 60.93229 221.95312 60.83854Q222.39062 60.71354 222.60938 60.416664Q222.82812 60.104164 222.82812 59.65104Q222.82812 59.229164 222.625 58.90104Q222.42188 58.572914 222.03125 58.46354Q221.65625 58.33854 220.73438 58.33854L219.01562 58.33854L219.01562 60.93229ZM219.01562 64.90104L221.15625 64.90104Q221.70312 64.90104 221.92188 64.854164Q222.32812 64.791664 222.57812 64.635414Q222.84375 64.46354 223.01562 64.15104Q223.1875 63.83854 223.1875 63.43229Q223.1875 62.947914 222.9375 62.58854Q222.70312 62.229164 222.26562 62.08854Q221.82812 61.947914 221.0 61.947914L219.01562 61.947914L219.01562 64.90104ZM229.85938 65.15104Q229.26562 65.65104 228.71875 65.854164Q228.1875 66.05729 227.5625 66.05729Q226.53125 66.05729 225.98438 65.55729Q225.4375 65.05729 225.4375 64.27604Q225.4375 63.822914 225.64062 63.447914Q225.84375 63.05729 226.1875 62.83854Q226.53125 62.604164 226.95312 62.49479Q227.25 62.40104 227.89062 62.322914Q229.15625 62.18229 229.76562 61.96354Q229.76562 61.74479 229.76562 61.697914Q229.76562 61.041664 229.46875 60.77604Q229.0625 60.43229 228.26562 60.43229Q227.53125 60.43229 227.17188 60.697914Q226.8125 60.947914 226.64062 61.604164L225.60938 61.46354Q225.75 60.80729 226.07812 60.40104Q226.40625 59.99479 227.01562 59.77604Q227.625 59.55729 228.42188 59.55729Q229.21875 59.55729 229.71875 59.74479Q230.21875 59.93229 230.45312 60.21354Q230.6875 60.49479 230.78125 60.93229Q230.82812 61.197914 230.82812 61.90104L230.82812 63.30729Q230.82812 64.77604 230.89062 65.166664Q230.96875 65.55729 231.17188 65.916664L230.0625 65.916664Q229.90625 65.58854 229.85938 65.15104ZM229.76562 62.791664Q229.1875 63.02604 228.04688 63.197914Q227.39062 63.291664 227.125 63.416664Q226.85938 63.52604 226.70312 63.74479Q226.5625 63.96354 226.5625 64.24479Q226.5625 64.666664 226.875 64.947914Q227.20312 65.229164 227.8125 65.229164Q228.42188 65.229164 228.89062 64.96354Q229.375 64.697914 229.59375 64.229164Q229.76562 63.86979 229.76562 63.18229L229.76562 62.791664ZM232.375 64.05729L233.40625 63.90104Q233.5 64.52604 233.89062 64.854164Q234.29688 65.18229 235.03125 65.18229Q235.75 65.18229 236.09375 64.90104Q236.45312 64.604164 236.45312 64.197914Q236.45312 63.83854 236.14062 63.635414Q235.92188 63.49479 235.0625 63.27604Q233.90625 62.979164 233.45312 62.77604Q233.01562 62.55729 232.78125 62.18229Q232.54688 61.80729 232.54688 61.33854Q232.54688 60.93229 232.73438 60.572914Q232.92188 60.21354 233.25 59.979164Q233.5 59.80729 233.92188 59.68229Q234.34375 59.55729 234.84375 59.55729Q235.5625 59.55729 236.10938 59.77604Q236.67188 59.979164 236.9375 60.33854Q237.20312 60.697914 237.29688 61.291664L236.26562 61.43229Q236.20312 60.96354 235.85938 60.697914Q235.53125 60.416664 234.90625 60.416664Q234.1875 60.416664 233.875 60.666664Q233.5625 60.90104 233.5625 61.229164Q233.5625 61.43229 233.6875 61.58854Q233.82812 61.760414 234.09375 61.86979Q234.25 61.93229 235.03125 62.135414Q236.15625 62.447914 236.59375 62.635414Q237.03125 62.822914 237.28125 63.18229Q237.53125 63.541664 237.53125 64.08854Q237.53125 64.61979 237.21875 65.08854Q236.92188 65.541664 236.34375 65.80729Q235.76562 66.05729 235.03125 66.05729Q233.8125 66.05729 233.17188 65.55729Q232.54688 65.041664 232.375 64.05729ZM244.04688 63.916664L245.14062 64.041664Q244.89062 64.99479 244.1875 65.52604Q243.48438 66.05729 242.40625 66.05729Q241.04688 66.05729 240.23438 65.21354Q239.4375 64.36979 239.4375 62.854164Q239.4375 61.291664 240.25 60.43229Q241.0625 59.55729 242.34375 59.55729Q243.59375 59.55729 244.375 60.40104Q245.17188 61.24479 245.17188 62.791664Q245.17188 62.885414 245.17188 63.072914L240.53125 63.072914Q240.59375 64.104164 241.10938 64.65104Q241.625 65.18229 242.40625 65.18229Q242.98438 65.18229 243.39062 64.885414Q243.8125 64.572914 244.04688 63.916664ZM240.59375 62.21354L244.0625 62.21354Q244.0 61.416664 243.67188 61.02604Q243.15625 60.416664 242.35938 60.416664Q241.625 60.416664 241.125 60.90104Q240.64062 61.385414 240.59375 62.21354ZM246.76562 65.916664L246.76562 57.322914L247.82812 57.322914L247.82812 65.916664L246.76562 65.916664ZM249.79688 58.541664L249.79688 57.322914L250.85938 57.322914L250.85938 58.541664L249.79688 58.541664ZM249.79688 65.916664L249.79688 59.697914L250.85938 59.697914L250.85938 65.916664L249.79688 65.916664ZM252.79688 65.916664L252.79688 59.697914L253.73438 59.697914L253.73438 60.572914Q254.42188 59.55729 255.71875 59.55729Q256.28125 59.55729 256.75 59.760414Q257.23438 59.96354 257.46875 60.291664Q257.70312 60.61979 257.79688 61.05729Q257.84375 61.354164 257.84375 62.08854L257.84375 65.916664L256.79688 65.916664L256.79688 62.135414Q256.79688 61.479164 256.67188 61.166664Q256.54688 60.854164 256.23438 60.666664Q255.92188 60.46354 255.5 60.46354Q254.82812 60.46354 254.32812 60.90104Q253.84375 61.322914 253.84375 62.510414L253.84375 65.916664L252.79688 65.916664ZM264.04688 63.916664L265.14062 64.041664Q264.89062 64.99479 264.1875 65.52604Q263.48438 66.05729 262.40625 66.05729Q261.04688 66.05729 260.23438 65.21354Q259.4375 64.36979 259.4375 62.854164Q259.4375 61.291664 260.25 60.43229Q261.0625 59.55729 262.34375 59.55729Q263.59375 59.55729 264.375 60.40104Q265.17188 61.24479 265.17188 62.791664Q265.17188 62.885414 265.17188 63.072914L260.53125 63.072914Q260.59375 64.104164 261.10938 64.65104Q261.625 65.18229 262.40625 65.18229Q262.98438 65.18229 263.39062 64.885414Q263.8125 64.572914 264.04688 63.916664ZM260.59375 62.21354L264.0625 62.21354Q264.0 61.416664 263.67188 61.02604Q263.15625 60.416664 262.35938 60.416664Q261.625 60.416664 261.125 60.90104Q260.64062 61.385414 260.59375 62.21354Z" fill-rule="nonzero"/><path stroke="#ea4335" stroke-width="4.0" stroke-linecap="butt" d="M282.0 61.916668L294.0 61.916668" fill-rule="nonzero"/><path fill="#1a1a1a" d="M302.92188 65.916664L302.92188 57.322914L306.17188 57.322914Q307.01562 57.322914 307.46875 57.40104Q308.10938 57.510414 308.53125 57.80729Q308.96875 58.104164 309.21875 58.635414Q309.48438 59.166664 309.48438 59.80729Q309.48438 60.90104 308.78125 61.666664Q308.09375 62.416664 306.26562 62.416664L304.0625 62.416664L304.0625 65.916664L302.92188 65.916664ZM304.0625 61.416664L306.28125 61.416664Q307.39062 61.416664 307.84375 61.010414Q308.3125 60.58854 308.3125 59.83854Q308.3125 59.30729 308.03125 58.93229Q307.76562 58.541664 307.32812 58.416664Q307.03125 58.33854 306.26562 58.33854L304.0625 58.33854L304.0625 61.416664ZM314.85938 65.15104Q314.26562 65.65104 313.71875 65.854164Q313.1875 66.05729 312.5625 66.05729Q311.53125 66.05729 310.98438 65.55729Q310.4375 65.05729 310.4375 64.27604Q310.4375 63.822914 310.64062 63.447914Q310.84375 63.05729 311.1875 62.83854Q311.53125 62.604164 311.95312 62.49479Q312.25 62.40104 312.89062 62.322914Q314.15625 62.18229 314.76562 61.96354Q314.76562 61.74479 314.76562 61.697914Q314.76562 61.041664 314.46875 60.77604Q314.0625 60.43229 313.26562 60.43229Q312.53125 60.43229 312.17188 60.697914Q311.8125 60.947914 311.64062 61.604164L310.60938 61.46354Q310.75 60.80729 311.07812 60.40104Q311.40625 59.99479 312.01562 59.77604Q312.625 59.55729 313.42188 59.55729Q314.21875 59.55729 314.71875 59.74479Q315.21875 59.93229 315.45312 60.21354Q315.6875 60.49479 315.78125 60.93229Q315.82812 61.197914 315.82812 61.90104L315.82812 63.30729Q315.82812 64.77604 315.89062 65.166664Q315.96875 65.55729 316.17188 65.916664L315.0625 65.916664Q314.90625 65.58854 314.85938 65.15104ZM314.76562 62.791664Q314.1875 63.02604 313.04688 63.197914Q312.39062 63.291664 312.125 63.416664Q311.85938 63.52604 311.70312 63.74479Q311.5625 63.96354 311.5625 64.24479Q311.5625 64.666664 311.875 64.947914Q312.20312 65.229164 312.8125 65.229164Q313.42188 65.229164 313.89062 64.96354Q314.375 64.697914 314.59375 64.229164Q314.76562 63.86979 314.76562 63.18229L314.76562 62.791664ZM320.09375 64.979164L320.25 65.90104Q319.79688 65.99479 319.45312 65.99479Q318.875 65.99479 318.5625 65.822914Q318.25 65.635414 318.10938 65.33854Q317.98438 65.041664 317.98438 64.08854L317.98438 60.510414L317.21875 60.510414L317.21875 59.697914L317.98438 59.697914L317.98438 58.15104L319.03125 57.52604L319.03125 59.697914L320.09375 59.697914L320.09375 60.510414L319.03125 60.510414L319.03125 64.15104Q319.03125 64.604164 319.07812 64.729164Q319.14062 64.854164 319.26562 64.93229Q319.39062 65.010414 319.625 65.010414Q319.8125 65.010414 320.09375 64.979164ZM324.85938 63.635414L325.89062 63.77604Q325.71875 64.83854 325.01562 65.447914Q324.3125 66.05729 323.29688 66.05729Q322.01562 66.05729 321.23438 65.229164Q320.46875 64.385414 320.46875 62.822914Q320.46875 61.822914 320.79688 61.072914Q321.14062 60.30729 321.8125 59.93229Q322.5 59.55729 323.3125 59.55729Q324.3125 59.55729 324.95312 60.072914Q325.60938 60.572914 325.79688 61.52604L324.76562 61.68229Q324.625 61.05729 324.25 60.74479Q323.875 60.416664 323.34375 60.416664Q322.54688 60.416664 322.04688 60.99479Q321.54688 61.55729 321.54688 62.791664Q321.54688 64.05729 322.03125 64.61979Q322.51562 65.18229 323.28125 65.18229Q323.90625 65.18229 324.3125 64.80729Q324.73438 64.43229 324.85938 63.635414ZM326.79688 65.916664L326.79688 57.322914L327.84375 57.322914L327.84375 60.40104Q328.57812 59.55729 329.70312 59.55729Q330.40625 59.55729 330.90625 59.83854Q331.42188 60.104164 331.64062 60.58854Q331.85938 61.05729 331.85938 61.979164L331.85938 65.916664L330.8125 65.916664L330.8125 61.979164Q330.8125 61.18229 330.46875 60.822914Q330.125 60.46354 329.5 60.46354Q329.03125 60.46354 328.60938 60.71354Q328.20312 60.947914 328.01562 61.36979Q327.84375 61.77604 327.84375 62.510414L327.84375 65.916664L326.79688 65.916664ZM338.04688 63.916664L339.14062 64.041664Q338.89062 64.99479 338.1875 65.52604Q337.48438 66.05729 336.40625 66.05729Q335.04688 66.05729 334.23438 65.21354Q333.4375 64.36979 333.4375 62.854164Q333.4375 61.291664 334.25 60.43229Q335.0625 59.55729 336.34375 59.55729Q337.59375 59.55729 338.375 60.40104Q339.17188 61.24479 339.17188 62.791664Q339.17188 62.885414 339.17188 63.072914L334.53125 63.072914Q334.59375 64.104164 335.10938 64.65104Q335.625 65.18229 336.40625 65.18229Q336.98438 65.18229 337.39062 64.885414Q337.8125 64.572914 338.04688 63.916664ZM334.59375 62.21354L338.0625 62.21354Q338.0 61.416664 337.67188 61.02604Q337.15625 60.416664 336.35938 60.416664Q335.625 60.416664 335.125 60.90104Q334.64062 61.385414 334.59375 62.21354ZM344.82812 65.916664L344.82812 65.135414Q344.23438 66.05729 343.09375 66.05729Q342.34375 66.05729 341.71875 65.65104Q341.09375 65.229164 340.75 64.49479Q340.40625 63.760414 340.40625 62.80729Q340.40625 61.885414 340.71875 61.11979Q341.03125 60.354164 341.65625 59.96354Q342.28125 59.55729 343.04688 59.55729Q343.60938 59.55729 344.04688 59.791664Q344.48438 60.02604 344.76562 60.40104L344.76562 57.322914L345.8125 57.322914L345.8125 65.916664L344.82812 65.916664ZM341.5 62.80729Q341.5 64.010414 342.0 64.604164Q342.5 65.18229 343.1875 65.18229Q343.875 65.18229 344.35938 64.61979Q344.84375 64.05729 344.84375 62.90104Q344.84375 61.61979 344.34375 61.02604Q343.85938 60.43229 343.14062 60.43229Q342.4375 60.43229 341.96875 61.010414Q341.5 61.572914 341.5 62.80729Z" fill-rule="nonzero"/><path fill="#757575" d="M84.703125 37.55L80.75 27.175L82.609375 27.175L84.84375 33.39375Q85.203125 34.39375 85.5 35.471874Q85.734375 34.659374 86.15625 33.503124L88.453125 27.175L90.265625 27.175L86.34375 37.55L84.703125 37.55ZM90.78125 37.55L90.78125 23.2375L92.53125 23.2375L92.53125 37.55L90.78125 37.55ZM101.921875 34.20625L103.734375 34.440624Q103.3125 36.01875 102.140625 36.909374Q100.984375 37.784374 99.171875 37.784374Q96.90625 37.784374 95.5625 36.39375Q94.234375 34.9875 94.234375 32.45625Q94.234375 29.83125 95.578125 28.39375Q96.921875 26.940624 99.078125 26.940624Q101.15625 26.940624 102.46875 28.3625Q103.796875 29.76875 103.796875 32.346874Q103.796875 32.503124 103.78125 32.815624L96.046875 32.815624Q96.140625 34.51875 97.015625 35.425Q97.890625 36.33125 99.1875 36.33125Q100.15625 36.33125 100.828125 35.83125Q101.515625 35.315624 101.921875 34.20625ZM96.140625 31.3625L101.9375 31.3625Q101.828125 30.065624 101.28125 29.409374Q100.4375 28.39375 99.09375 28.39375Q97.890625 28.39375 97.0625 29.20625Q96.234375 30.003124 96.140625 31.3625ZM108.03125 29.784374Q106.9375 29.378124 106.40625 28.64375Q105.890625 27.89375 105.890625 26.8625Q105.890625 25.3 107.015625 24.2375Q108.140625 23.175 110.0 23.175Q111.875 23.175 113.015625 24.26875Q114.15625 25.346874 114.15625 26.909374Q114.15625 27.909374 113.625 28.64375Q113.109375 29.378124 112.046875 29.784374Q113.375 30.221874 114.0625 31.175Q114.75 32.128124 114.75 33.45625Q114.75 35.3 113.4375 36.55Q112.140625 37.8 110.03125 37.8Q107.90625 37.8 106.609375 36.55Q105.3125 35.284374 105.3125 33.409374Q105.3125 32.01875 106.015625 31.08125Q106.734375 30.128124 108.03125 29.784374ZM107.6875 26.8Q107.6875 27.815624 108.34375 28.471874Q109.0 29.1125 110.03125 29.1125Q111.046875 29.1125 111.703125 28.471874Q112.359375 27.83125 112.359375 26.909374Q112.359375 25.940624 111.6875 25.284374Q111.015625 24.6125 110.015625 24.6125Q109.015625 24.6125 108.34375 25.26875Q107.6875 25.909374 107.6875 26.8ZM107.125 33.425Q107.125 34.175 107.46875 34.878124Q107.828125 35.58125 108.53125 35.971874Q109.234375 36.346874 110.046875 36.346874Q111.3125 36.346874 112.125 35.534374Q112.953125 34.721874 112.953125 33.471874Q112.953125 32.20625 112.109375 31.378124Q111.265625 30.55 109.984375 30.55Q108.75 30.55 107.9375 31.378124Q107.125 32.190624 107.125 33.425ZM117.3125 37.55L117.3125 35.55L119.3125 35.55L119.3125 37.55L117.3125 37.55ZM125.703125 37.55L121.75 27.175L123.609375 27.175L125.84375 33.39375Q126.203125 34.39375 126.5 35.471874Q126.734375 34.659374 127.15625 33.503124L129.45312 27.175L131.26562 27.175L127.34375 37.55L125.703125 37.55ZM137.82812 25.253124L137.82812 23.2375L139.59375 23.2375L139.59375 25.253124L137.82812 25.253124ZM137.82812 37.55L137.82812 27.175L139.59375 27.175L139.59375 37.55L137.82812 37.55ZM141.8125 37.55L141.8125 27.175L143.40625 27.175L143.40625 28.659374Q144.54688 26.940624 146.70312 26.940624Q147.64062 26.940624 148.42188 27.284374Q149.21875 27.6125 149.60938 28.159374Q150.0 28.70625 150.15625 29.45625Q150.25 29.95625 150.25 31.175L150.25 37.55L148.48438 37.55L148.48438 31.2375Q148.48438 30.159374 148.28125 29.628124Q148.07812 29.096874 147.54688 28.784374Q147.03125 28.471874 146.32812 28.471874Q145.20312 28.471874 144.39062 29.190624Q143.57812 29.89375 143.57812 31.878124L143.57812 37.55L141.8125 37.55ZM151.10938 34.45625L152.85938 34.175Q153.0 35.221874 153.67188 35.784374Q154.34375 36.33125 155.54688 36.33125Q156.75 36.33125 157.32812 35.846874Q157.92188 35.346874 157.92188 34.690624Q157.92188 34.096874 157.40625 33.753124Q157.04688 33.51875 155.60938 33.159374Q153.67188 32.659374 152.92188 32.315624Q152.1875 31.95625 151.79688 31.33125Q151.40625 30.690624 151.40625 29.925Q151.40625 29.2375 151.71875 28.64375Q152.04688 28.05 152.59375 27.659374Q153.0 27.3625 153.70312 27.159374Q154.42188 26.940624 155.23438 26.940624Q156.45312 26.940624 157.375 27.3Q158.29688 27.64375 158.73438 28.253124Q159.17188 28.846874 159.34375 29.846874L157.625 30.08125Q157.5 29.284374 156.9375 28.846874Q156.375 28.39375 155.35938 28.39375Q154.14062 28.39375 153.625 28.8Q153.10938 29.190624 153.10938 29.721874Q153.10938 30.065624 153.32812 30.346874Q153.53125 30.628124 154.0 30.815624Q154.26562 30.909374 155.54688 31.253124Q157.42188 31.753124 158.15625 32.08125Q158.89062 32.39375 159.3125 33.003124Q159.73438 33.596874 159.73438 34.503124Q159.73438 35.378124 159.21875 36.159374Q158.70312 36.940624 157.73438 37.3625Q156.76562 37.784374 155.54688 37.784374Q153.53125 37.784374 152.46875 36.940624Q151.40625 36.096874 151.10938 34.45625ZM165.65625 35.971874L165.90625 37.534374Q165.17188 37.690624 164.57812 37.690624Q163.625 37.690624 163.09375 37.39375Q162.57812 37.08125 162.35938 36.596874Q162.14062 36.096874 162.14062 34.51875L162.14062 28.55L160.85938 28.55L160.85938 27.175L162.14062 27.175L162.14062 24.6125L163.89062 23.55L163.89062 27.175L165.65625 27.175L165.65625 28.55L163.89062 28.55L163.89062 34.6125Q163.89062 35.3625 163.98438 35.58125Q164.07812 35.784374 164.28125 35.925Q164.5 36.05 164.89062 36.05Q165.17188 36.05 165.65625 35.971874ZM167.79688 37.55L167.79688 27.175L169.375 27.175L169.375 28.753124Q169.98438 27.64375 170.5 27.3Q171.01562 26.940624 171.625 26.940624Q172.51562 26.940624 173.4375 27.503124L172.82812 29.14375Q172.1875 28.753124 171.54688 28.753124Q170.96875 28.753124 170.5 29.1125Q170.04688 29.45625 169.84375 30.065624Q169.5625 31.003124 169.5625 32.1125L169.5625 37.55L167.79688 37.55ZM181.60938 37.55L181.60938 36.01875Q180.40625 37.784374 178.32812 37.784374Q177.40625 37.784374 176.60938 37.440624Q175.8125 37.08125 175.42188 36.55Q175.04688 36.01875 174.89062 35.2375Q174.78125 34.721874 174.78125 33.596874L174.78125 27.175L176.53125 27.175L176.53125 32.925Q176.53125 34.3 176.64062 34.784374Q176.8125 35.471874 177.34375 35.878124Q177.89062 36.26875 178.67188 36.26875Q179.46875 36.26875 180.15625 35.8625Q180.85938 35.45625 181.14062 34.76875Q181.4375 34.065624 181.4375 32.7375L181.4375 27.175L183.1875 27.175L183.1875 37.55L181.60938 37.55ZM191.59375 33.753124L193.3125 33.971874Q193.03125 35.76875 191.85938 36.784374Q190.70312 37.784374 189.0 37.784374Q186.875 37.784374 185.57812 36.39375Q184.28125 35.003124 184.28125 32.409374Q184.28125 30.721874 184.82812 29.471874Q185.39062 28.20625 186.53125 27.58125Q187.67188 26.940624 189.01562 26.940624Q190.70312 26.940624 191.76562 27.8Q192.84375 28.659374 193.15625 30.221874L191.4375 30.4875Q191.20312 29.440624 190.57812 28.925Q189.95312 28.39375 189.07812 28.39375Q187.75 28.39375 186.92188 29.346874Q186.09375 30.3 186.09375 32.346874Q186.09375 34.440624 186.89062 35.39375Q187.6875 36.33125 188.98438 36.33125Q190.01562 36.33125 190.70312 35.70625Q191.40625 35.065624 191.59375 33.753124ZM198.65625 35.971874L198.90625 37.534374Q198.17188 37.690624 197.57812 37.690624Q196.625 37.690624 196.09375 37.39375Q195.57812 37.08125 195.35938 36.596874Q195.14062 36.096874 195.14062 34.51875L195.14062 28.55L193.85938 28.55L193.85938 27.175L195.14062 27.175L195.14062 24.6125L196.89062 23.55L196.89062 27.175L198.65625 27.175L198.65625 28.55L196.89062 28.55L196.89062 34.6125Q196.89062 35.3625 196.98438 35.58125Q197.07812 35.784374 197.28125 35.925Q197.5 36.05 197.89062 36.05Q198.17188 36.05 198.65625 35.971874ZM200.82812 25.253124L200.82812 23.2375L202.59375 23.2375L202.59375 25.253124L200.82812 25.253124ZM200.82812 37.55L200.82812 27.175L202.59375 27.175L202.59375 37.55L200.82812 37.55ZM204.17188 32.3625Q204.17188 29.4875 205.76562 28.096874Q207.10938 26.940624 209.03125 26.940624Q211.17188 26.940624 212.51562 28.346874Q213.875 29.753124 213.875 32.221874Q213.875 34.221874 213.28125 35.378124Q212.6875 36.51875 211.53125 37.159374Q210.39062 37.784374 209.03125 37.784374Q206.84375 37.784374 205.5 36.39375Q204.17188 34.9875 204.17188 32.3625ZM205.96875 32.3625Q205.96875 34.3625 206.82812 35.346874Q207.70312 36.33125 209.03125 36.33125Q210.34375 36.33125 211.20312 35.346874Q212.07812 34.346874 212.07812 32.3Q212.07812 30.378124 211.20312 29.39375Q210.32812 28.39375 209.03125 28.39375Q207.70312 28.39375 206.82812 29.39375Q205.96875 30.378124 205.96875 32.3625ZM215.8125 37.55L215.8125 27.175L217.40625 27.175L217.40625 28.659374Q218.54688 26.940624 220.70312 26.940624Q221.64062 26.940624 222.42188 27.284374Q223.21875 27.6125 223.60938 28.159374Q224.0 28.70625 224.15625 29.45625Q224.25 29.95625 224.25 31.175L224.25 37.55L222.48438 37.55L222.48438 31.2375Q222.48438 30.159374 222.28125 29.628124Q222.07812 29.096874 221.54688 28.784374Q221.03125 28.471874 220.32812 28.471874Q219.20312 28.471874 218.39062 29.190624Q217.57812 29.89375 217.57812 31.878124L217.57812 37.55L215.8125 37.55ZM235.65625 35.971874L235.90625 37.534374Q235.17188 37.690624 234.57812 37.690624Q233.625 37.690624 233.09375 37.39375Q232.57812 37.08125 232.35938 36.596874Q232.14062 36.096874 232.14062 34.51875L232.14062 28.55L230.85938 28.55L230.85938 27.175L232.14062 27.175L232.14062 24.6125L233.89062 23.55L233.89062 27.175L235.65625 27.175L235.65625 28.55L233.89062 28.55L233.89062 34.6125Q233.89062 35.3625 233.98438 35.58125Q234.07812 35.784374 234.28125 35.925Q234.5 36.05 234.89062 36.05Q235.17188 36.05 235.65625 35.971874ZM237.82812 25.253124L237.82812 23.2375L239.59375 23.2375L239.59375 25.253124L237.82812 25.253124ZM237.82812 37.55L237.82812 27.175L239.59375 27.175L239.59375 37.55L237.82812 37.55ZM241.8125 37.55L241.8125 27.175L243.39062 27.175L243.39062 28.628124Q243.875 27.878124 244.6875 27.409374Q245.5 26.940624 246.53125 26.940624Q247.6875 26.940624 248.42188 27.425Q249.15625 27.89375 249.46875 28.753124Q250.70312 26.940624 252.67188 26.940624Q254.21875 26.940624 255.04688 27.8Q255.875 28.659374 255.875 30.425L255.875 37.55L254.125 37.55L254.125 31.01875Q254.125 29.95625 253.95312 29.503124Q253.78125 29.034374 253.32812 28.753124Q252.89062 28.471874 252.28125 28.471874Q251.1875 28.471874 250.45312 29.20625Q249.73438 29.925 249.73438 31.51875L249.73438 37.55L247.98438 37.55L247.98438 30.815624Q247.98438 29.64375 247.54688 29.065624Q247.125 28.471874 246.14062 28.471874Q245.40625 28.471874 244.76562 28.8625Q244.14062 29.253124 243.85938 30.003124Q243.57812 30.753124 243.57812 32.175L243.57812 37.55L241.8125 37.55ZM257.82812 25.253124L257.82812 23.2375L259.59375 23.2375L259.59375 25.253124L257.82812 25.253124ZM257.82812 37.55L257.82812 27.175L259.59375 27.175L259.59375 37.55L257.82812 37.55ZM261.8125 37.55L261.8125 27.175L263.40625 27.175L263.40625 28.659374Q264.54688 26.940624 266.70312 26.940624Q267.64062 26.940624 268.42188 27.284374Q269.21875 27.6125 269.60938 28.159374Q270.0 28.70625 270.15625 29.45625Q270.25 29.95625 270.25 31.175L270.25 37.55L268.48438 37.55L268.48438 31.2375Q268.48438 30.159374 268.28125 29.628124Q268.07812 29.096874 267.54688 28.784374Q267.03125 28.471874 266.32812 28.471874Q265.20312 28.471874 264.39062 29.190624Q263.57812 29.89375 263.57812 31.878124L263.57812 37.55L261.8125 37.55ZM271.5 38.409374L273.20312 38.659374Q273.3125 39.45625 273.79688 39.815624Q274.45312 40.3 275.59375 40.3Q276.8125 40.3 277.46875 39.815624Q278.14062 39.33125 278.375 38.45625Q278.51562 37.909374 278.5 36.190624Q277.34375 37.55 275.625 37.55Q273.48438 37.55 272.3125 36.003124Q271.14062 34.45625 271.14062 32.3Q271.14062 30.815624 271.67188 29.565624Q272.21875 28.315624 273.23438 27.628124Q274.26562 26.940624 275.64062 26.940624Q277.46875 26.940624 278.67188 28.425L278.67188 27.175L280.28125 27.175L280.28125 36.14375Q280.28125 38.565624 279.78125 39.565624Q279.29688 40.58125 278.21875 41.159374Q277.15625 41.753124 275.59375 41.753124Q273.75 41.753124 272.59375 40.925Q271.45312 40.096874 271.5 38.409374ZM272.95312 32.175Q272.95312 34.221874 273.76562 35.159374Q274.57812 36.096874 275.79688 36.096874Q277.0 36.096874 277.8125 35.159374Q278.64062 34.221874 278.64062 32.2375Q278.64062 30.33125 277.79688 29.3625Q276.95312 28.39375 275.76562 28.39375Q274.59375 28.39375 273.76562 29.346874Q272.95312 30.3 272.95312 32.175ZM293.14062 37.55L287.59375 23.2375L289.64062 23.2375L293.35938 33.628124Q293.8125 34.878124 294.10938 35.971874Q294.4375 34.8 294.89062 33.628124L298.75 23.2375L300.6875 23.2375L295.07812 37.55L293.14062 37.55ZM301.96875 37.55L301.96875 23.2375L303.85938 23.2375L303.85938 35.8625L310.90625 35.8625L310.90625 37.55L301.96875 37.55ZM313.07812 37.55L313.07812 23.2375L323.4375 23.2375L323.4375 24.925L314.98438 24.925L314.98438 29.3L322.89062 29.3L322.89062 30.9875L314.98438 30.9875L314.98438 35.8625L323.76562 35.8625L323.76562 37.55L313.07812 37.55ZM326.03125 37.55L326.03125 23.2375L327.96875 23.2375L335.48438 34.471874L335.48438 23.2375L337.29688 23.2375L337.29688 37.55L335.35938 37.55L327.84375 26.3L327.84375 37.55L326.03125 37.55ZM348.0625 29.128124L338.60938 29.128124L338.60938 27.4875L348.0625 27.4875L348.0625 29.128124ZM348.0625 33.471874L338.60938 33.471874L338.60938 31.83125L348.0625 31.83125L348.0625 33.471874ZM356.95312 37.55L355.1875 37.55L355.1875 26.346874Q354.5625 26.95625 353.53125 27.565624Q352.5 28.159374 351.67188 28.471874L351.67188 26.76875Q353.15625 26.08125 354.25 25.096874Q355.35938 24.096874 355.8125 23.175L356.95312 23.175L356.95312 37.55ZM370.5625 35.8625L370.5625 37.55L361.10938 37.55Q361.09375 36.909374 361.3125 36.33125Q361.67188 35.3625 362.46875 34.425Q363.26562 33.4875 364.76562 32.253124Q367.10938 30.346874 367.92188 29.2375Q368.75 28.1125 368.75 27.1125Q368.75 26.065624 368.0 25.346874Q367.25 24.628124 366.04688 24.628124Q364.78125 24.628124 364.01562 25.39375Q363.25 26.159374 363.25 27.503124L361.4375 27.315624Q361.625 25.3 362.82812 24.2375Q364.04688 23.175 366.09375 23.175Q368.14062 23.175 369.34375 24.315624Q370.54688 25.45625 370.54688 27.14375Q370.54688 28.003124 370.1875 28.846874Q369.84375 29.675 369.03125 30.596874Q368.21875 31.503124 366.32812 33.1125Q364.73438 34.440624 364.28125 34.909374Q363.84375 35.378124 363.54688 35.8625L370.5625 35.8625ZM375.03125 29.784374Q373.9375 29.378124 373.40625 28.64375Q372.89062 27.89375 372.89062 26.8625Q372.89062 25.3 374.01562 24.2375Q375.14062 23.175 377.0 23.175Q378.875 23.175 380.01562 24.26875Q381.15625 25.346874 381.15625 26.909374Q381.15625 27.909374 380.625 28.64375Q380.10938 29.378124 379.04688 29.784374Q380.375 30.221874 381.0625 31.175Q381.75 32.128124 381.75 33.45625Q381.75 35.3 380.4375 36.55Q379.14062 37.8 377.03125 37.8Q374.90625 37.8 373.60938 36.55Q372.3125 35.284374 372.3125 33.409374Q372.3125 32.01875 373.01562 31.08125Q373.73438 30.128124 375.03125 29.784374ZM374.6875 26.8Q374.6875 27.815624 375.34375 28.471874Q376.0 29.1125 377.03125 29.1125Q378.04688 29.1125 378.70312 28.471874Q379.35938 27.83125 379.35938 26.909374Q379.35938 25.940624 378.6875 25.284374Q378.01562 24.6125 377.01562 24.6125Q376.01562 24.6125 375.34375 25.26875Q374.6875 25.909374 374.6875 26.8ZM374.125 33.425Q374.125 34.175 374.46875 34.878124Q374.82812 35.58125 375.53125 35.971874Q376.23438 36.346874 377.04688 36.346874Q378.3125 36.346874 379.125 35.534374Q379.95312 34.721874 379.95312 33.471874Q379.95312 32.20625 379.10938 31.378124Q378.26562 30.55 376.98438 30.55Q375.75 30.55 374.9375 31.378124Q374.125 32.190624 374.125 33.425ZM389.96875 37.55L389.96875 23.2375L391.85938 23.2375L391.85938 35.8625L398.90625 35.8625L398.90625 37.55L389.96875 37.55ZM400.98438 37.55L400.98438 23.2375L403.84375 23.2375L407.21875 33.3625Q407.6875 34.784374 407.90625 35.4875Q408.15625 34.70625 408.67188 33.190624L412.09375 23.2375L414.64062 23.2375L414.64062 37.55L412.82812 37.55L412.82812 25.565624L408.65625 37.55L406.95312 37.55L402.8125 25.3625L402.8125 37.55L400.98438 37.55ZM427.4375 23.2375L429.32812 23.2375L429.32812 31.503124Q429.32812 33.659374 428.84375 34.940624Q428.35938 36.20625 427.07812 37.003124Q425.8125 37.8 423.73438 37.8Q421.71875 37.8 420.4375 37.1125Q419.17188 36.409374 418.625 35.096874Q418.07812 33.784374 418.07812 31.503124L418.07812 23.2375L419.96875 23.2375L419.96875 31.4875Q419.96875 33.3625 420.3125 34.253124Q420.65625 35.128124 421.5 35.6125Q422.34375 36.08125 423.57812 36.08125Q425.65625 36.08125 426.54688 35.14375Q427.4375 34.190624 427.4375 31.4875L427.4375 23.2375ZM430.96875 37.55L430.96875 23.2375L432.85938 23.2375L432.85938 35.8625L439.90625 35.8625L439.90625 37.55L430.96875 37.55ZM451.0625 29.128124L441.60938 29.128124L441.60938 27.4875L451.0625 27.4875L451.0625 29.128124ZM451.0625 33.471874L441.60938 33.471874L441.60938 31.83125L451.0625 31.83125L451.0625 33.471874ZM459.95312 37.55L458.1875 37.55L458.1875 26.346874Q457.5625 26.95625 456.53125 27.565624Q455.5 28.159374 454.67188 28.471874L454.67188 26.76875Q456.15625 26.08125 457.25 25.096874Q458.35938 24.096874 458.8125 23.175L459.95312 23.175L459.95312 37.55Z" fill-rule="nonzero"/></svg>