<svg version="1.1" viewBox="0.0 0.0 544.0 371.0" fill="none" stroke="none" stroke-linecap="square" stroke-miterlimit="10" width="544" height="371" xmlns:xlink="http://www.w3.org/1999/xlink" xmlns="http://www.w3.org/2000/svg"><path fill="#ffffff" d="M0 0L544.0 0L544.0 371.0L0 371.0L0 0Z" fill-rule="nonzero"/><path stroke="#cccccc" stroke-width="1.0" stroke-linecap="butt" d="M77.5 88.5L77.5 300.5" fill-rule="nonzero"/><path stroke="#cccccc" stroke-width="1.0" stroke-linecap="butt" d="M192.5 88.5L192.5 300.5" fill-rule="nonzero"/><path stroke="#cccccc" stroke-width="1.0" stroke-linecap="butt" d="M306.5 88.5L306.5 300.5" fill-rule="nonzero"/><path stroke="#cccccc" stroke-width="1.0" stroke-linecap="butt" d="M420.5 88.5L420.5 300.5" fill-rule="nonzero"/><path stroke="#333333" stroke-width="1.0" stroke-linecap="butt" d="M77.5 300.5L525.5 300.5" fill-rule="nonzero"/><path stroke="#cccccc" stroke-width="1.0" stroke-linecap="butt" d="M77.5 229.5L525.5 229.5" fill-rule="nonzero"/><path stroke="#cccccc" stroke-width="1.0" stroke-linecap="butt" d="M77.5 159.5L525.5 159.5" fill-rule="nonzero"/><path stroke="#cccccc" stroke-width="1.0" stroke-linecap="butt" d="M77.5 88.5L525.5 88.5" fill-rule="nonzero"/><clipPath id="id_0"><path d="M77.55 88.28333L525.45 88.28333L525.45 300.45L77.55 300.45L77.55 88.28333Z" clip-rule="nonzero"/></clipPath><path stroke="#ea4335" stroke-width="2.0" stroke-linecap="butt" clip-path="url(#id_0)" d="M77.55 286.532L112.003845 281.2313L146.45769 267.3967L180.91154 246.54486L215.36539 200.68993L249.81923 200.6138L284.27307 199.82509L318.72693 194.36667L353.18076 203.20694L387.6346 196.30426L422.08847 198.95901L456.5423 199.69505L490.99615 196.2526L525.45 205.24701" fill-rule="nonzero"/><path stroke="#fbbc04" stroke-width="2.0" stroke-linecap="butt" clip-path="url(#id_0)" d="M77.55 268.12332L112.003845 267.34518L146.45769 266.43118L180.91154 167.89368L215.36539 132.58405L249.81923 170.22887L284.27307 170.07512L318.72693 176.97595L353.18076 170.79259L387.6346 164.6886L422.08847 167.99567L456.5423 137.00308L490.99615 114.3832L525.45 131.68106" fill-rule="nonzero"/><path stroke="#34a853" stroke-width="2.0" stroke-linecap="butt" clip-path="url(#id_0)" d="M77.55 256.73645L112.003845 243.8466L146.45769 193.29312L180.91154 117.17756L215.36539 155.73798L249.81923 163.68808L284.27307 160.32747L318.72693 152.76537L353.18076 158.32553L387.6346 164.6886L422.08847 155.73138L456.5423 161.67432L490.99615 153.00084L525.45 145.74513" fill-rule="nonzero"/><path stroke="#ff6d01" stroke-width="2.0" stroke-linecap="butt" clip-path="url(#id_0)" d="M77.55 253.59506L112.003845 241.85727L146.45769 191.66722L180.91154 111.06553L215.36539 153.97873L249.81923 163.06073L284.27307 161.6249L318.72693 155.60545L353.18076 173.02806L387.6346 162.2202L422.08847 158.36263L456.5423 166.7207L490.99615 137.64156L525.45 154.84543" fill-rule="nonzero"/><path fill="#000000" fill-opacity="0.0" clip-path="url(#id_0)" d="M80.55 286.532C80.55 288.18887 79.206856 289.532 77.55 289.532C75.89314 289.532 74.55 288.18887 74.55 286.532C74.55 284.87515 75.89314 283.532 77.55 283.532C79.206856 283.532 80.55 284.87515 80.55 286.532Z" fill-rule="nonzero"/><path fill="#000000" fill-opacity="0.0" clip-path="url(#id_0)" d="M115.003845 281.2313C115.003845 282.88815 113.6607 284.2313 112.003845 284.2313C110.34699 284.2313 109.003845 282.88815 109.003845 281.2313C109.003845 279.57443 110.34699 278.2313 112.003845 278.2313C113.6607 278.2313 115.003845 279.57443 115.003845 281.2313Z" fill-rule="nonzero"/><path fill="#000000" fill-opacity="0.0" clip-path="url(#id_0)" d="M149.45769 267.3967C149.45769 269.05356 148.11455 270.3967 146.45769 270.3967C144.80084 270.3967 143.45769 269.05356 143.45769 267.3967C143.45769 265.73987 144.80084 264.3967 146.45769 264.3967C148.11455 264.3967 149.45769 265.73987 149.45769 267.3967Z" fill-rule="nonzero"/><path fill="#000000" fill-opacity="0.0" clip-path="url(#id_0)" d="M183.91154 246.54486C183.91154 248.2017 182.56839 249.54486 180.91154 249.54486C179.25468 249.54486 177.91154 248.2017 177.91154 246.54486C177.91154 244.888 179.25468 243.54486 180.91154 243.54486C182.56839 243.54486 183.91154 244.888 183.91154 246.54486Z" fill-rule="nonzero"/><path fill="#000000" fill-opacity="0.0" clip-path="url(#id_0)" d="M218.36539 200.68993C218.36539 202.34677 217.02223 203.68993 215.36539 203.68993C213.70853 203.68993 212.36539 202.34677 212.36539 200.68993C212.36539 199.03307 213.70853 197.68993 215.36539 197.68993C217.02223 197.68993 218.36539 199.03307 218.36539 200.68993Z" fill-rule="nonzero"/><path fill="#000000" fill-opacity="0.0" clip-path="url(#id_0)" d="M252.81923 200.6138C252.81923 202.27065 251.47609 203.6138 249.81923 203.6138C248.16238 203.6138 246.81923 202.27065 246.81923 200.6138C246.81923 198.95694 248.16238 197.6138 249.81923 197.6138C251.47609 197.6138 252.81923 198.95694 252.81923 200.6138Z" fill-rule="nonzero"/><path fill="#000000" fill-opacity="0.0" clip-path="url(#id_0)" d="M287.27307 199.82509C287.27307 201.48195 285.92993 202.82509 284.27307 202.82509C282.6162 202.82509 281.27307 201.48195 281.27307 199.82509C281.27307 198.16824 282.6162 196.82509 284.27307 196.82509C285.92993 196.82509 287.27307 198.16824 287.27307 199.82509Z" fill-rule="nonzero"/><path fill="#000000" fill-opacity="0.0" clip-path="url(#id_0)" d="M321.72693 194.36667C321.72693 196.02351 320.3838 197.36667 318.72693 197.36667C317.07007 197.36667 315.72693 196.02351 315.72693 194.36667C315.72693 192.70981 317.07007 191.36667 318.72693 191.36667C320.3838 191.36667 321.72693 192.70981 321.72693 194.36667Z" fill-rule="nonzero"/><path fill="#000000" fill-opacity="0.0" clip-path="url(#id_0)" d="M356.18076 203.20694C356.18076 204.8638 354.83762 206.20694 353.18076 206.20694C351.52393 206.20694 350.18076 204.8638 350.18076 203.20694C350.18076 201.5501 351.52393 200.20694 353.18076 200.20694C354.83762 200.20694 356.18076 201.5501 356.18076 203.20694Z" fill-rule="nonzero"/><path fill="#000000" fill-opacity="0.0" clip-path="url(#id_0)" d="M390.6346 196.30426C390.6346 197.96112 389.29147 199.30426 387.6346 199.30426C385.97775 199.30426 384.6346 197.96112 384.6346 196.30426C384.6346 194.64742 385.97775 193.30426 387.6346 193.30426C389.29147 193.30426 390.6346 194.64742 390.6346 196.30426Z" fill-rule="nonzero"/><path fill="#000000" fill-opacity="0.0" clip-path="url(#id_0)" d="M425.08847 198.95901C425.08847 200.61588 423.74533 201.95901 422.08847 201.95901C420.4316 201.95901 419.08847 200.61588 419.08847 198.95901C419.08847 197.30217 420.4316 195.95901 422.08847 195.95901C423.74533 195.95901 425.08847 197.30217 425.08847 198.95901Z" fill-rule="nonzero"/><path fill="#000000" fill-opacity="0.0" clip-path="url(#id_0)" d="M459.5423 199.69505C459.5423 201.35191 458.19916 202.69505 456.5423 202.69505C454.88547 202.69505 453.5423 201.35191 453.5423 199.69505C453.5423 198.0382 454.88547 196.69505 456.5423 196.69505C458.19916 196.69505 459.5423 198.0382 459.5423 199.69505Z" fill-rule="nonzero"/><path fill="#000000" fill-opacity="0.0" clip-path="url(#id_0)" d="M493.99615 196.2526C493.99615 197.90945 492.653 199.2526 490.99615 199.2526C489.3393 199.2526 487.99615 197.90945 487.99615 196.2526C487.99615 194.59573 489.3393 193.2526 490.99615 193.2526C492.653 193.2526 493.99615 194.59573 493.99615 196.2526Z" fill-rule="nonzero"/><path fill="#000000" fill-opacity="0.0" clip-path="url(#id_0)" d="M528.45 205.24701C528.45 206.90387 527.1069 208.24701 525.45 208.24701C523.79315 208.24701 522.45 206.90387 522.45 205.24701C522.45 203.59015 523.79315 202.24701 525.45 202.24701C527.1069 202.24701 528.45 203.59015 528.45 205.24701Z" fill-rule="nonzero"/><path fill="#000000" fill-opacity="0.0" clip-path="url(#id_0)" d="M80.55 268.12332C80.55 269.78015 79.206856 271.12332 77.55 271.12332C75.89314 271.12332 74.55 269.78015 74.55 268.12332C74.55 266.46646 75.89314 265.12332 77.55 265.12332C79.206856 265.12332 80.55 266.46646 80.55 268.12332Z" fill-rule="nonzero"/><path fill="#000000" fill-opacity="0.0" clip-path="url(#id_0)" d="M115.003845 267.34518C115.003845 269.00204 113.6607 270.34518 112.003845 270.34518C110.34699 270.34518 109.003845 269.00204 109.003845 267.34518C109.003845 265.68832 110.34699 264.34518 112.003845 264.34518C113.6607 264.34518 115.003845 265.68832 115.003845 267.34518Z" fill-rule="nonzero"/><path fill="#000000" fill-opacity="0.0" clip-path="url(#id_0)" d="M149.45769 266.43118C149.45769 268.08804 148.11455 269.43118 146.45769 269.43118C144.80084 269.43118 143.45769 268.08804 143.45769 266.43118C143.45769 264.77432 144.80084 263.43118 146.45769 263.43118C148.11455 263.43118 149.45769 264.77432 149.45769 266.43118Z" fill-rule="nonzero"/><path fill="#000000" fill-opacity="0.0" clip-path="url(#id_0)" d="M183.91154 167.89368C183.91154 169.55054 182.56839 170.89368 180.91154 170.89368C179.25468 170.89368 177.91154 169.55054 177.91154 167.89368C177.91154 166.23683 179.25468 164.89368 180.91154 164.89368C182.56839 164.89368 183.91154 166.23683 183.91154 167.89368Z" fill-rule="nonzero"/><path fill="#000000" fill-opacity="0.0" clip-path="url(#id_0)" d="M218.36539 132.58405C218.36539 134.2409 217.02223 135.58405 215.36539 135.58405C213.70853 135.58405 212.36539 134.2409 212.36539 132.58405C212.36539 130.9272 213.70853 129.58405 215.36539 129.58405C217.02223 129.58405 218.36539 130.9272 218.36539 132.58405Z" fill-rule="nonzero"/><path fill="#000000" fill-opacity="0.0" clip-path="url(#id_0)" d="M252.81923 170.22887C252.81923 171.88571 251.47609 173.22887 249.81923 173.22887C248.16238 173.22887 246.81923 171.88571 246.81923 170.22887C246.81923 168.572 248.16238 167.22887 249.81923 167.22887C251.47609 167.22887 252.81923 168.572 252.81923 170.22887Z" fill-rule="nonzero"/><path fill="#000000" fill-opacity="0.0" clip-path="url(#id_0)" d="M287.27307 170.07512C287.27307 171.73198 285.92993 173.07512 284.27307 173.07512C282.6162 173.07512 281.27307 171.73198 281.27307 170.07512C281.27307 168.41827 282.6162 167.07512 284.27307 167.07512C285.92993 167.07512 287.27307 168.41827 287.27307 170.07512Z" fill-rule="nonzero"/><path fill="#000000" fill-opacity="0.0" clip-path="url(#id_0)" d="M321.72693 176.97595C321.72693 178.63281 320.3838 179.97595 318.72693 179.97595C317.07007 179.97595 315.72693 178.63281 315.72693 176.97595C315.72693 175.3191 317.07007 173.97595 318.72693 173.97595C320.3838 173.97595 321.72693 175.3191 321.72693 176.97595Z" fill-rule="nonzero"/><path fill="#000000" fill-opacity="0.0" clip-path="url(#id_0)" d="M356.18076 170.79259C356.18076 172.44945 354.83762 173.79259 353.18076 173.79259C351.52393 173.79259 350.18076 172.44945 350.18076 170.79259C350.18076 169.13574 351.52393 167.79259 353.18076 167.79259C354.83762 167.79259 356.18076 169.13574 356.18076 170.79259Z" fill-rule="nonzero"/><path fill="#000000" fill-opacity="0.0" clip-path="url(#id_0)" d="M390.6346 164.6886C390.6346 166.34544 389.29147 167.6886 387.6346 167.6886C385.97775 167.6886 384.6346 166.34544 384.6346 164.6886C384.6346 163.03174 385.97775 161.6886 387.6346 161.6886C389.29147 161.6886 390.6346 163.03174 390.6346 164.6886Z" fill-rule="nonzero"/><path fill="#000000" fill-opacity="0.0" clip-path="url(#id_0)" d="M425.08847 167.99567C425.08847 169.65253 423.74533 170.99567 422.08847 170.99567C420.4316 170.99567 419.08847 169.65253 419.08847 167.99567C419.08847 166.33882 420.4316 164.99567 422.08847 164.99567C423.74533 164.99567 425.08847 166.33882 425.08847 167.99567Z" fill-rule="nonzero"/><path fill="#000000" fill-opacity="0.0" clip-path="url(#id_0)" d="M459.5423 137.00308C459.5423 138.65994 458.19916 140.00308 456.5423 140.00308C454.88547 140.00308 453.5423 138.65994 453.5423 137.00308C453.5423 135.34624 454.88547 134.00308 456.5423 134.00308C458.19916 134.00308 459.5423 135.34624 459.5423 137.00308Z" fill-rule="nonzero"/><path fill="#000000" fill-opacity="0.0" clip-path="url(#id_0)" d="M493.99615 114.3832C493.99615 116.040054 492.653 117.3832 490.99615 117.3832C489.3393 117.3832 487.99615 116.040054 487.99615 114.3832C487.99615 112.72635 489.3393 111.3832 490.99615 111.3832C492.653 111.3832 493.99615 112.72635 493.99615 114.3832Z" fill-rule="nonzero"/><path fill="#000000" fill-opacity="0.0" clip-path="url(#id_0)" d="M528.45 131.68106C528.45 133.33792 527.1069 134.68106 525.45 134.68106C523.79315 134.68106 522.45 133.33792 522.45 131.68106C522.45 130.0242 523.79315 128.68106 525.45 128.68106C527.1069 128.68106 528.45 130.0242 528.45 131.68106Z" fill-rule="nonzero"/><path fill="#000000" fill-opacity="0.0" clip-path="url(#id_0)" d="M80.55 256.73645C80.55 258.3933 79.206856 259.73645 77.55 259.73645C75.89314 259.73645 74.55 258.3933 74.55 256.73645C74.55 255.07959 75.89314 253.73645 77.55 253.73645C79.206856 253.73645 80.55 255.07959 80.55 256.73645Z" fill-rule="nonzero"/><path fill="#000000" fill-opacity="0.0" clip-path="url(#id_0)" d="M115.003845 243.8466C115.003845 245.50346 113.6607 246.8466 112.003845 246.8466C110.34699 246.8466 109.003845 245.50346 109.003845 243.8466C109.003845 242.18976 110.34699 240.8466 112.003845 240.8466C113.6607 240.8466 115.003845 242.18976 115.003845 243.8466Z" fill-rule="nonzero"/><path fill="#000000" fill-opacity="0.0" clip-path="url(#id_0)" d="M149.45769 193.29312C149.45769 194.94997 148.11455 196.29312 146.45769 196.29312C144.80084 196.29312 143.45769 194.94997 143.45769 193.29312C143.45769 191.63626 144.80084 190.29312 146.45769 190.29312C148.11455 190.29312 149.45769 191.63626 149.45769 193.29312Z" fill-rule="nonzero"/><path fill="#000000" fill-opacity="0.0" clip-path="url(#id_0)" d="M183.91154 117.17756C183.91154 118.83442 182.56839 120.17756 180.91154 120.17756C179.25468 120.17756 177.91154 118.83442 177.91154 117.17756C177.91154 115.520706 179.25468 114.17756 180.91154 114.17756C182.56839 114.17756 183.91154 115.520706 183.91154 117.17756Z" fill-rule="nonzero"/><path fill="#000000" fill-opacity="0.0" clip-path="url(#id_0)" d="M218.36539 155.73798C218.36539 157.39484 217.02223 158.73798 215.36539 158.73798C213.70853 158.73798 212.36539 157.39484 212.36539 155.73798C212.36539 154.08112 213.70853 152.73798 215.36539 152.73798C217.02223 152.73798 218.36539 154.08112 218.36539 155.73798Z" fill-rule="nonzero"/><path fill="#000000" fill-opacity="0.0" clip-path="url(#id_0)" d="M252.81923 163.68808C252.81923 165.34492 251.47609 166.68808 249.81923 166.68808C248.16238 166.68808 246.81923 165.34492 246.81923 163.68808C246.81923 162.03122 248.16238 160.68808 249.81923 160.68808C251.47609 160.68808 252.81923 162.03122 252.81923 163.68808Z" fill-rule="nonzero"/><path fill="#000000" fill-opacity="0.0" clip-path="url(#id_0)" d="M287.27307 160.32747C287.27307 161.98431 285.92993 163.32747 284.27307 163.32747C282.6162 163.32747 281.27307 161.98431 281.27307 160.32747C281.27307 158.67061 282.6162 157.32747 284.27307 157.32747C285.92993 157.32747 287.27307 158.67061 287.27307 160.32747Z" fill-rule="nonzero"/><path fill="#000000" fill-opacity="0.0" clip-path="url(#id_0)" d="M321.72693 152.76537C321.72693 154.42221 320.3838 155.76537 318.72693 155.76537C317.07007 155.76537 315.72693 154.42221 315.72693 152.76537C315.72693 151.1085 317.07007 149.76537 318.72693 149.76537C320.3838 149.76537 321.72693 151.1085 321.72693 152.76537Z" fill-rule="nonzero"/><path fill="#000000" fill-opacity="0.0" clip-path="url(#id_0)" d="M356.18076 158.32553C356.18076 159.98239 354.83762 161.32553 353.18076 161.32553C351.52393 161.32553 350.18076 159.98239 350.18076 158.32553C350.18076 156.66869 351.52393 155.32553 353.18076 155.32553C354.83762 155.32553 356.18076 156.66869 356.18076 158.32553Z" fill-rule="nonzero"/><path fill="#000000" fill-opacity="0.0" clip-path="url(#id_0)" d="M390.6346 164.6886C390.6346 166.34544 389.29147 167.6886 387.6346 167.6886C385.97775 167.6886 384.6346 166.34544 384.6346 164.6886C384.6346 163.03174 385.97775 161.6886 387.6346 161.6886C389.29147 161.6886 390.6346 163.03174 390.6346 164.6886Z" fill-rule="nonzero"/><path fill="#000000" fill-opacity="0.0" clip-path="url(#id_0)" d="M425.08847 155.73138C425.08847 157.38823 423.74533 158.73138 422.08847 158.73138C420.4316 158.73138 419.08847 157.38823 419.08847 155.73138C419.08847 154.07452 420.4316 152.73138 422.08847 152.73138C423.74533 152.73138 425.08847 154.07452 425.08847 155.73138Z" fill-rule="nonzero"/><path fill="#000000" fill-opacity="0.0" clip-path="url(#id_0)" d="M459.5423 161.67432C459.5423 163.33118 458.19916 164.67432 456.5423 164.67432C454.88547 164.67432 453.5423 163.33118 453.5423 161.67432C453.5423 160.01747 454.88547 158.67432 456.5423 158.67432C458.19916 158.67432 459.5423 160.01747 459.5423 161.67432Z" fill-rule="nonzero"/><path fill="#000000" fill-opacity="0.0" clip-path="url(#id_0)" d="M493.99615 153.00084C493.99615 154.6577 492.653 156.00084 490.99615 156.00084C489.3393 156.00084 487.99615 154.6577 487.99615 153.00084C487.99615 151.34398 489.3393 150.00084 490.99615 150.00084C492.653 150.00084 493.99615 151.34398 493.99615 153.00084Z" fill-rule="nonzero"/><path fill="#000000" fill-opacity="0.0" clip-path="url(#id_0)" d="M528.45 145.74513C528.45 147.402 527.1069 148.74513 525.45 148.74513C523.79315 148.74513 522.45 147.402 522.45 145.74513C522.45 144.08829 523.79315 142.74513 525.45 142.74513C527.1069 142.74513 528.45 144.08829 528.45 145.74513Z" fill-rule="nonzero"/><path fill="#000000" fill-opacity="0.0" clip-path="url(#id_0)" d="M80.55 253.59506C80.55 255.25192 79.206856 256.59506 77.55 256.59506C75.89314 256.59506 74.55 255.25192 74.55 253.59506C74.55 251.9382 75.89314 250.59506 77.55 250.59506C79.206856 250.59506 80.55 251.9382 80.55 253.59506Z" fill-rule="nonzero"/><path fill="#000000" fill-opacity="0.0" clip-path="url(#id_0)" d="M115.003845 241.85727C115.003845 243.51413 113.6607 244.85727 112.003845 244.85727C110.34699 244.85727 109.003845 243.51413 109.003845 241.85727C109.003845 240.20041 110.34699 238.85727 112.003845 238.85727C113.6607 238.85727 115.003845 240.20041 115.003845 241.85727Z" fill-rule="nonzero"/><path fill="#000000" fill-opacity="0.0" clip-path="url(#id_0)" d="M149.45769 191.66722C149.45769 193.32407 148.11455 194.66722 146.45769 194.66722C144.80084 194.66722 143.45769 193.32407 143.45769 191.66722C143.45769 190.01036 144.80084 188.66722 146.45769 188.66722C148.11455 188.66722 149.45769 190.01036 149.45769 191.66722Z" fill-rule="nonzero"/><path fill="#000000" fill-opacity="0.0" clip-path="url(#id_0)" d="M183.91154 111.06553C183.91154 112.72238 182.56839 114.06553 180.91154 114.06553C179.25468 114.06553 177.91154 112.72238 177.91154 111.06553C177.91154 109.408676 179.25468 108.06553 180.91154 108.06553C182.56839 108.06553 183.91154 109.408676 183.91154 111.06553Z" fill-rule="nonzero"/><path fill="#000000" fill-opacity="0.0" clip-path="url(#id_0)" d="M218.36539 153.97873C218.36539 155.63559 217.02223 156.97873 215.36539 156.97873C213.70853 156.97873 212.36539 155.63559 212.36539 153.97873C212.36539 152.32188 213.70853 150.97873 215.36539 150.97873C217.02223 150.97873 218.36539 152.32188 218.36539 153.97873Z" fill-rule="nonzero"/><path fill="#000000" fill-opacity="0.0" clip-path="url(#id_0)" d="M252.81923 163.06073C252.81923 164.71759 251.47609 166.06073 249.81923 166.06073C248.16238 166.06073 246.81923 164.71759 246.81923 163.06073C246.81923 161.40387 248.16238 160.06073 249.81923 160.06073C251.47609 160.06073 252.81923 161.40387 252.81923 163.06073Z" fill-rule="nonzero"/><path fill="#000000" fill-opacity="0.0" clip-path="url(#id_0)" d="M287.27307 161.6249C287.27307 163.28175 285.92993 164.6249 284.27307 164.6249C282.6162 164.6249 281.27307 163.28175 281.27307 161.6249C281.27307 159.96805 282.6162 158.6249 284.27307 158.6249C285.92993 158.6249 287.27307 159.96805 287.27307 161.6249Z" fill-rule="nonzero"/><path fill="#000000" fill-opacity="0.0" clip-path="url(#id_0)" d="M321.72693 155.60545C321.72693 157.2623 320.3838 158.60545 318.72693 158.60545C317.07007 158.60545 315.72693 157.2623 315.72693 155.60545C315.72693 153.9486 317.07007 152.60545 318.72693 152.60545C320.3838 152.60545 321.72693 153.9486 321.72693 155.60545Z" fill-rule="nonzero"/><path fill="#000000" fill-opacity="0.0" clip-path="url(#id_0)" d="M356.18076 173.02806C356.18076 174.68492 354.83762 176.02806 353.18076 176.02806C351.52393 176.02806 350.18076 174.68492 350.18076 173.02806C350.18076 171.37122 351.52393 170.02806 353.18076 170.02806C354.83762 170.02806 356.18076 171.37122 356.18076 173.02806Z" fill-rule="nonzero"/><path fill="#000000" fill-opacity="0.0" clip-path="url(#id_0)" d="M390.6346 162.2202C390.6346 163.87706 389.29147 165.2202 387.6346 165.2202C385.97775 165.2202 384.6346 163.87706 384.6346 162.2202C384.6346 160.56335 385.97775 159.2202 387.6346 159.2202C389.29147 159.2202 390.6346 160.56335 390.6346 162.2202Z" fill-rule="nonzero"/><path fill="#000000" fill-opacity="0.0" clip-path="url(#id_0)" d="M425.08847 158.36263C425.08847 160.01949 423.74533 161.36263 422.08847 161.36263C420.4316 161.36263 419.08847 160.01949 419.08847 158.36263C419.08847 156.70576 420.4316 155.36263 422.08847 155.36263C423.74533 155.36263 425.08847 156.70576 425.08847 158.36263Z" fill-rule="nonzero"/><path fill="#000000" fill-opacity="0.0" clip-path="url(#id_0)" d="M459.5423 166.7207C459.5423 168.37756 458.19916 169.7207 456.5423 169.7207C454.88547 169.7207 453.5423 168.37756 453.5423 166.7207C453.5423 165.06386 454.88547 163.7207 456.5423 163.7207C458.19916 163.7207 459.5423 165.06386 459.5423 166.7207Z" fill-rule="nonzero"/><path fill="#000000" fill-opacity="0.0" clip-path="url(#id_0)" d="M493.99615 137.64156C493.99615 139.2984 492.653 140.64156 490.99615 140.64156C489.3393 140.64156 487.99615 139.2984 487.99615 137.64156C487.99615 135.9847 489.3393 134.64156 490.99615 134.64156C492.653 134.64156 493.99615 135.9847 493.99615 137.64156Z" fill-rule="nonzero"/><path fill="#000000" fill-opacity="0.0" clip-path="url(#id_0)" d="M528.45 154.84543C528.45 156.50227 527.1069 157.84543 525.45 157.84543C523.79315 157.84543 522.45 156.50227 522.45 154.84543C522.45 153.18857 523.79315 151.84543 525.45 151.84543C527.1069 151.84543 528.45 153.18857 528.45 154.84543Z" fill-rule="nonzero"/><path fill="#000000" d="M270.54688 346.6844L271.60938 346.59064Q271.6875 347.2469 271.96875 347.65314Q272.25 348.0594 272.82812 348.325Q273.42188 348.575 274.15625 348.575Q274.79688 348.575 275.29688 348.3875Q275.79688 348.1844 276.03125 347.85626Q276.28125 347.5125 276.28125 347.1219Q276.28125 346.71564 276.04688 346.41876Q275.8125 346.10626 275.28125 345.90314Q274.92188 345.7625 273.73438 345.48126Q272.5625 345.2 272.09375 344.95Q271.46875 344.6219 271.17188 344.15314Q270.875 343.66876 270.875 343.075Q270.875 342.4344 271.23438 341.8719Q271.60938 341.29376 272.3125 341.0125Q273.03125 340.71564 273.89062 340.71564Q274.84375 340.71564 275.57812 341.02814Q276.3125 341.325 276.70312 341.9344Q277.09375 342.52814 277.125 343.27814L276.03125 343.35626Q275.9375 342.54376 275.42188 342.1375Q274.92188 341.71564 273.9375 341.71564Q272.90625 341.71564 272.4375 342.09064Q271.96875 342.46564 271.96875 342.9969Q271.96875 343.46564 272.29688 343.7625Q272.625 344.0594 274.0 344.3719Q275.39062 344.6844 275.90625 344.91876Q276.65625 345.27814 277.01562 345.8094Q277.375 346.325 277.375 347.02814Q277.375 347.71564 276.98438 348.325Q276.59375 348.91876 275.85938 349.2625Q275.125 349.59064 274.20312 349.59064Q273.03125 349.59064 272.23438 349.2625Q271.45312 348.91876 271.0 348.23126Q270.5625 347.54376 270.54688 346.6844ZM278.79688 342.075L278.79688 340.85626L279.85938 340.85626L279.85938 342.075L278.79688 342.075ZM278.79688 349.45L278.79688 343.23126L279.85938 343.23126L279.85938 349.45L278.79688 349.45ZM281.23438 349.45L281.23438 348.59064L285.20312 344.04376Q284.51562 344.075 284.0 344.075L281.46875 344.075L281.46875 343.23126L286.5625 343.23126L286.5625 343.91876L283.1875 347.8719L282.53125 348.59064Q283.25 348.54376 283.85938 348.54376L286.75 348.54376L286.75 349.45L281.23438 349.45ZM291.04688 347.45L292.14062 347.575Q291.89062 348.52814 291.1875 349.0594Q290.48438 349.59064 289.40625 349.59064Q288.04688 349.59064 287.23438 348.7469Q286.4375 347.90314 286.4375 346.3875Q286.4375 344.825 287.25 343.96564Q288.0625 343.09064 289.34375 343.09064Q290.59375 343.09064 291.375 343.9344Q292.17188 344.77814 292.17188 346.325Q292.17188 346.41876 292.17188 346.60626L287.53125 346.60626Q287.59375 347.6375 288.10938 348.1844Q288.625 348.71564 289.40625 348.71564Q289.98438 348.71564 290.39062 348.41876Q290.8125 348.10626 291.04688 347.45ZM287.59375 345.7469L291.0625 345.7469Q291.0 344.95 290.67188 344.5594Q290.15625 343.95 289.35938 343.95Q288.625 343.95 288.125 344.4344Q287.64062 344.91876 287.59375 345.7469ZM298.8125 351.98126Q297.9375 350.8719 297.32812 349.40314Q296.73438 347.91876 296.73438 346.34064Q296.73438 344.95 297.17188 343.66876Q297.70312 342.1844 298.8125 340.71564L299.5625 340.71564Q298.85938 341.9344 298.625 342.45Q298.26562 343.2625 298.0625 344.1375Q297.8125 345.23126 297.8125 346.34064Q297.8125 349.16876 299.5625 351.98126L298.8125 351.98126ZM301.76562 349.45L300.78125 349.45L300.78125 340.85626L301.84375 340.85626L301.84375 343.91876Q302.51562 343.09064 303.54688 343.09064Q304.125 343.09064 304.625 343.325Q305.14062 343.54376 305.46875 343.96564Q305.8125 344.3875 306.0 344.98126Q306.1875 345.575 306.1875 346.2469Q306.1875 347.84064 305.39062 348.71564Q304.59375 349.59064 303.5 349.59064Q302.39062 349.59064 301.76562 348.66876L301.76562 349.45ZM301.75 346.29376Q301.75 347.40314 302.0625 347.90314Q302.5625 348.71564 303.40625 348.71564Q304.09375 348.71564 304.59375 348.1219Q305.10938 347.52814 305.10938 346.325Q305.10938 345.10626 304.625 344.52814Q304.14062 343.95 303.45312 343.95Q302.76562 343.95 302.25 344.5594Q301.75 345.15314 301.75 346.29376ZM307.75 351.84064L307.625 350.85626Q307.96875 350.95 308.23438 350.95Q308.57812 350.95 308.78125 350.825Q309.0 350.71564 309.14062 350.5125Q309.23438 350.34064 309.46875 349.71564Q309.48438 349.6375 309.5625 349.46564L307.1875 343.23126L308.32812 343.23126L309.625 346.825Q309.875 347.5125 310.07812 348.27814Q310.26562 347.54376 310.51562 346.85626L311.84375 343.23126L312.89062 343.23126L310.53125 349.5594Q310.14062 350.575 309.9375 350.96564Q309.65625 351.4969 309.28125 351.73126Q308.92188 351.98126 308.42188 351.98126Q308.125 351.98126 307.75 351.84064ZM315.09375 348.5125L315.25 349.4344Q314.79688 349.52814 314.45312 349.52814Q313.875 349.52814 313.5625 349.35626Q313.25 349.16876 313.10938 348.8719Q312.98438 348.575 312.98438 347.6219L312.98438 344.04376L312.21875 344.04376L312.21875 343.23126L312.98438 343.23126L312.98438 341.6844L314.03125 341.0594L314.03125 343.23126L315.09375 343.23126L315.09375 344.04376L314.03125 344.04376L314.03125 347.6844Q314.03125 348.1375 314.07812 348.2625Q314.14062 348.3875 314.26562 348.46564Q314.39062 348.54376 314.625 348.54376Q314.8125 348.54376 315.09375 348.5125ZM320.04688 347.45L321.14062 347.575Q320.89062 348.52814 320.1875 349.0594Q319.48438 349.59064 318.40625 349.59064Q317.04688 349.59064 316.23438 348.7469Q315.4375 347.90314 315.4375 346.3875Q315.4375 344.825 316.25 343.96564Q317.0625 343.09064 318.34375 343.09064Q319.59375 343.09064 320.375 343.9344Q321.17188 344.77814 321.17188 346.325Q321.17188 346.41876 321.17188 346.60626L316.53125 346.60626Q316.59375 347.6375 317.10938 348.1844Q317.625 348.71564 318.40625 348.71564Q318.98438 348.71564 319.39062 348.41876Q319.8125 348.10626 320.04688 347.45ZM316.59375 345.7469L320.0625 345.7469Q320.0 344.95 319.67188 344.5594Q319.15625 343.95 318.35938 343.95Q317.625 343.95 317.125 344.4344Q316.64062 344.91876 316.59375 345.7469ZM322.375 347.59064L323.40625 347.4344Q323.5 348.0594 323.89062 348.3875Q324.29688 348.71564 325.03125 348.71564Q325.75 348.71564 326.09375 348.4344Q326.45312 348.1375 326.45312 347.73126Q326.45312 347.3719 326.14062 347.16876Q325.92188 347.02814 325.0625 346.8094Q323.90625 346.5125 323.45312 346.3094Q323.01562 346.09064 322.78125 345.71564Q322.54688 345.34064 322.54688 344.8719Q322.54688 344.46564 322.73438 344.10626Q322.92188 343.7469 323.25 343.5125Q323.5 343.34064 323.92188 343.21564Q324.34375 343.09064 324.84375 343.09064Q325.5625 343.09064 326.10938 343.3094Q326.67188 343.5125 326.9375 343.8719Q327.20312 344.23126 327.29688 344.825L326.26562 344.96564Q326.20312 344.4969 325.85938 344.23126Q325.53125 343.95 324.90625 343.95Q324.1875 343.95 323.875 344.2Q323.5625 344.4344 323.5625 344.7625Q323.5625 344.96564 323.6875 345.1219Q323.82812 345.29376 324.09375 345.40314Q324.25 345.46564 325.03125 345.66876Q326.15625 345.98126 326.59375 346.16876Q327.03125 346.35626 327.28125 346.71564Q327.53125 347.075 327.53125 347.6219Q327.53125 348.15314 327.21875 348.6219Q326.92188 349.075 326.34375 349.34064Q325.76562 349.59064 325.03125 349.59064Q323.8125 349.59064 323.17188 349.09064Q322.54688 348.575 322.375 347.59064ZM330.48438 351.98126L329.73438 351.98126Q331.48438 349.16876 331.48438 346.34064Q331.48438 345.2469 331.23438 344.15314Q331.03125 343.27814 330.67188 342.46564Q330.4375 341.95 329.73438 340.71564L330.48438 340.71564Q331.57812 342.1844 332.10938 343.66876Q332.5625 344.95 332.5625 346.34064Q332.5625 347.91876 331.95312 349.40314Q331.34375 350.8719 330.48438 351.98126Z" fill-rule="nonzero"/><path fill="#000000" d="M27.690638 282.49167L27.534388 281.46042Q28.159388 281.36667 28.487513 280.97604Q28.815638 280.5698 28.815638 279.83542Q28.815638 279.11667 28.534388 278.77292Q28.237513 278.41354 27.831263 278.41354Q27.471888 278.41354 27.268763 278.72604Q27.128138 278.9448 26.909388 279.80417Q26.612513 280.96042 26.409388 281.41354Q26.190638 281.85104 25.815638 282.08542Q25.440638 282.3198 24.971888 282.3198Q24.565638 282.3198 24.206263 282.1323Q23.846888 281.9448 23.612513 281.61667Q23.440638 281.36667 23.315638 280.9448Q23.190638 280.52292 23.190638 280.02292Q23.190638 279.30417 23.409388 278.7573Q23.612513 278.1948 23.971888 277.92917Q24.331263 277.66354 24.925013 277.5698L25.065638 278.60104Q24.596888 278.66354 24.331263 279.0073Q24.050013 279.33542 24.050013 279.96042Q24.050013 280.67917 24.300013 280.99167Q24.534388 281.30417 24.862513 281.30417Q25.065638 281.30417 25.221888 281.17917Q25.393763 281.03854 25.503138 280.77292Q25.565638 280.61667 25.768763 279.83542Q26.081263 278.71042 26.268763 278.27292Q26.456263 277.83542 26.815638 277.58542Q27.175013 277.33542 27.721888 277.33542Q28.253138 277.33542 28.721888 277.64792Q29.175013 277.9448 29.440638 278.52292Q29.690638 279.10104 29.690638 279.83542Q29.690638 281.05417 29.190638 281.6948Q28.675013 282.3198 27.690638 282.49167ZM31.940638 275.0698L23.331263 275.0698L23.331263 274.11667L24.128138 274.11667Q23.659388 273.77292 23.425013 273.35104Q23.190638 272.91354 23.190638 272.30417Q23.190638 271.5073 23.596888 270.89792Q24.003138 270.28854 24.753138 269.99167Q25.503138 269.67917 26.393763 269.67917Q27.346888 269.67917 28.112513 270.02292Q28.878138 270.35104 29.284388 271.0073Q29.690638 271.66354 29.690638 272.3823Q29.690638 272.91354 29.471888 273.33542Q29.237513 273.7573 28.909388 274.02292L31.940638 274.02292L31.940638 275.0698ZM26.471888 274.11667Q27.675013 274.11667 28.253138 273.6323Q28.815638 273.14792 28.815638 272.46042Q28.815638 271.7573 28.221888 271.2573Q27.628138 270.7573 26.378138 270.7573Q25.190638 270.7573 24.612513 271.24167Q24.018763 271.72604 24.018763 272.41354Q24.018763 273.08542 24.643763 273.60104Q25.268763 274.11667 26.471888 274.11667ZM27.550013 263.8198L27.675013 262.72604Q28.628138 262.97604 29.159388 263.67917Q29.690638 264.3823 29.690638 265.46042Q29.690638 266.8198 28.846888 267.6323Q28.003138 268.42917 26.487513 268.42917Q24.925013 268.42917 24.065638 267.61667Q23.190638 266.80417 23.190638 265.52292Q23.190638 264.27292 24.034388 263.49167Q24.878138 262.6948 26.425013 262.6948Q26.518763 262.6948 26.706263 262.6948L26.706263 267.33542Q27.737513 267.27292 28.284388 266.7573Q28.815638 266.24167 28.815638 265.46042Q28.815638 264.8823 28.518763 264.47604Q28.206263 264.05417 27.550013 263.8198ZM25.846888 267.27292L25.846888 263.80417Q25.050013 263.86667 24.659388 264.1948Q24.050013 264.71042 24.050013 265.5073Q24.050013 266.24167 24.534388 266.74167Q25.018763 267.22604 25.846888 267.27292ZM27.550013 256.8198L27.675013 255.72604Q28.628138 255.97604 29.159388 256.67917Q29.690638 257.3823 29.690638 258.46042Q29.690638 259.8198 28.846888 260.6323Q28.003138 261.42917 26.487513 261.42917Q24.925013 261.42917 24.065638 260.61667Q23.190638 259.80417 23.190638 258.52292Q23.190638 257.27292 24.034388 256.49167Q24.878138 255.6948 26.425013 255.6948Q26.518763 255.6948 26.706263 255.6948L26.706263 260.33542Q27.737513 260.27292 28.284388 259.7573Q28.815638 259.24167 28.815638 258.46042Q28.815638 257.8823 28.518763 257.47604Q28.206263 257.05417 27.550013 256.8198ZM25.846888 260.27292L25.846888 256.80417Q25.050013 256.86667 24.659388 257.1948Q24.050013 257.71042 24.050013 258.5073Q24.050013 259.24167 24.534388 259.74167Q25.018763 260.22604 25.846888 260.27292ZM29.550013 250.03854L28.768763 250.03854Q29.690638 250.6323 29.690638 251.77292Q29.690638 252.52292 29.284388 253.14792Q28.862513 253.77292 28.128138 254.11667Q27.393763 254.46042 26.440638 254.46042Q25.518763 254.46042 24.753138 254.14792Q23.987513 253.83542 23.596888 253.21042Q23.190638 252.58542 23.190638 251.8198Q23.190638 251.2573 23.425013 250.8198Q23.659388 250.3823 24.034388 250.10104L20.956263 250.10104L20.956263 249.05417L29.550013 249.05417L29.550013 250.03854ZM26.440638 253.36667Q27.643763 253.36667 28.237513 252.86667Q28.815638 252.36667 28.815638 251.67917Q28.815638 250.99167 28.253138 250.5073Q27.690638 250.02292 26.534388 250.02292Q25.253138 250.02292 24.659388 250.52292Q24.065638 251.0073 24.065638 251.72604Q24.065638 252.42917 24.643763 252.89792Q25.206263 253.36667 26.440638 253.36667ZM29.550013 239.99167L28.628138 239.99167Q29.690638 240.72604 29.690638 241.97604Q29.690638 242.52292 29.487513 243.0073Q29.268763 243.47604 28.956263 243.71042Q28.628138 243.9448 28.159388 244.03854Q27.862513 244.10104 27.175013 244.10104L23.331263 244.10104L23.331263 243.03854L26.784388 243.03854Q27.596888 243.03854 27.893763 242.97604Q28.300013 242.8823 28.550013 242.5698Q28.784388 242.24167 28.784388 241.7573Q28.784388 241.28854 28.550013 240.8823Q28.300013 240.46042 27.878138 240.28854Q27.456263 240.10104 26.659388 240.10104L23.331263 240.10104L23.331263 239.05417L29.550013 239.05417L29.550013 239.99167ZM31.940638 237.0698L23.331263 237.0698L23.331263 236.11667L24.128138 236.11667Q23.659388 235.77292 23.425013 235.35104Q23.190638 234.91354 23.190638 234.30417Q23.190638 233.5073 23.596888 232.89792Q24.003138 232.28854 24.753138 231.99167Q25.503138 231.67917 26.393763 231.67917Q27.346888 231.67917 28.112513 232.02292Q28.878138 232.35104 29.284388 233.0073Q29.690638 233.66354 29.690638 234.3823Q29.690638 234.91354 29.471888 235.33542Q29.237513 235.7573 28.909388 236.02292L31.940638 236.02292L31.940638 237.0698ZM26.471888 236.11667Q27.675013 236.11667 28.253138 235.6323Q28.815638 235.14792 28.815638 234.46042Q28.815638 233.7573 28.221888 233.2573Q27.628138 232.7573 26.378138 232.7573Q25.190638 232.7573 24.612513 233.24167Q24.018763 233.72604 24.018763 234.41354Q24.018763 235.08542 24.643763 235.60104Q25.268763 236.11667 26.471888 236.11667ZM26.440638 227.46042Q24.706263 227.46042 23.878138 226.5073Q23.190638 225.71042 23.190638 224.55417Q23.190638 223.27292 24.034388 222.46042Q24.862513 221.6323 26.346888 221.6323Q27.550013 221.6323 28.237513 221.99167Q28.925013 222.35104 29.315638 223.05417Q29.690638 223.74167 29.690638 224.55417Q29.690638 225.85104 28.862513 226.66354Q28.018763 227.46042 26.440638 227.46042ZM26.440638 226.3823Q27.628138 226.3823 28.221888 225.86667Q28.815638 225.33542 28.815638 224.55417Q28.815638 223.7573 28.221888 223.24167Q27.628138 222.72604 26.409388 222.72604Q25.253138 222.72604 24.659388 223.2573Q24.065638 223.77292 24.065638 224.55417Q24.065638 225.33542 24.659388 225.86667Q25.237513 226.3823 26.440638 226.3823ZM29.550013 218.35104L23.331263 220.71042L23.331263 219.60104L27.050013 218.2573Q27.659388 218.05417 28.300013 217.86667Q27.815638 217.72604 27.128138 217.47604L23.331263 216.08542L23.331263 215.0073L29.550013 217.36667L29.550013 218.35104ZM27.550013 210.8198L27.675013 209.72604Q28.628138 209.97604 29.159388 210.67917Q29.690638 211.3823 29.690638 212.46042Q29.690638 213.8198 28.846888 214.6323Q28.003138 215.42917 26.487513 215.42917Q24.925013 215.42917 24.065638 214.61667Q23.190638 213.80417 23.190638 212.52292Q23.190638 211.27292 24.034388 210.49167Q24.878138 209.6948 26.425013 209.6948Q26.518763 209.6948 26.706263 209.6948L26.706263 214.33542Q27.737513 214.27292 28.284388 213.7573Q28.815638 213.24167 28.815638 212.46042Q28.815638 211.8823 28.518763 211.47604Q28.206263 211.05417 27.550013 210.8198ZM25.846888 214.27292L25.846888 210.80417Q25.050013 210.86667 24.659388 211.1948Q24.050013 211.71042 24.050013 212.5073Q24.050013 213.24167 24.534388 213.74167Q25.018763 214.22604 25.846888 214.27292ZM29.550013 208.08542L23.331263 208.08542L23.331263 207.1323L24.268763 207.1323Q23.612513 206.77292 23.409388 206.47604Q23.190638 206.16354 23.190638 205.78854Q23.190638 205.2573 23.518763 204.71042L24.503138 205.0698Q24.268763 205.46042 24.268763 205.83542Q24.268763 206.1948 24.487513 206.47604Q24.690638 206.74167 25.065638 206.85104Q25.628138 207.03854 26.284388 207.03854L29.550013 207.03854L29.550013 208.08542ZM29.550013 200.10104L29.550013 201.08542L20.956263 201.08542L20.956263 200.02292L24.018763 200.02292Q23.190638 199.35104 23.190638 198.3198Q23.190638 197.74167 23.425013 197.24167Q23.643763 196.72604 24.065638 196.39792Q24.487513 196.05417 25.081263 195.86667Q25.675013 195.67917 26.346888 195.67917Q27.940638 195.67917 28.815638 196.47604Q29.690638 197.27292 29.690638 198.36667Q29.690638 199.47604 28.768763 200.10104L29.550013 200.10104ZM26.393763 200.11667Q27.503138 200.11667 28.003138 199.80417Q28.815638 199.30417 28.815638 198.46042Q28.815638 197.77292 28.221888 197.27292Q27.628138 196.7573 26.425013 196.7573Q25.206263 196.7573 24.628138 197.24167Q24.050013 197.72604 24.050013 198.41354Q24.050013 199.10104 24.659388 199.61667Q25.253138 200.11667 26.393763 200.11667ZM28.784388 190.0073Q29.284388 190.60104 29.487513 191.14792Q29.690638 191.67917 29.690638 192.30417Q29.690638 193.33542 29.190638 193.8823Q28.690638 194.42917 27.909388 194.42917Q27.456263 194.42917 27.081263 194.22604Q26.690638 194.02292 26.471888 193.67917Q26.237513 193.33542 26.128138 192.91354Q26.034388 192.61667 25.956263 191.97604Q25.815638 190.71042 25.596888 190.10104Q25.378138 190.10104 25.331263 190.10104Q24.675013 190.10104 24.409388 190.39792Q24.065638 190.80417 24.065638 191.60104Q24.065638 192.33542 24.331263 192.6948Q24.581263 193.05417 25.237513 193.22604L25.096888 194.2573Q24.440638 194.11667 24.034388 193.78854Q23.628138 193.46042 23.409388 192.85104Q23.190638 192.24167 23.190638 191.4448Q23.190638 190.64792 23.378138 190.14792Q23.565638 189.64792 23.846888 189.41354Q24.128138 189.17917 24.565638 189.08542Q24.831263 189.03854 25.534388 189.03854L26.940638 189.03854Q28.409388 189.03854 28.800013 188.97604Q29.190638 188.89792 29.550013 188.6948L29.550013 189.80417Q29.221888 189.96042 28.784388 190.0073ZM26.425013 190.10104Q26.659388 190.67917 26.831263 191.8198Q26.925013 192.47604 27.050013 192.74167Q27.159388 193.0073 27.378138 193.16354Q27.596888 193.30417 27.878138 193.30417Q28.300013 193.30417 28.581263 192.99167Q28.862513 192.66354 28.862513 192.05417Q28.862513 191.4448 28.596888 190.97604Q28.331263 190.49167 27.862513 190.27292Q27.503138 190.10104 26.815638 190.10104L26.425013 190.10104ZM27.690638 187.49167L27.534388 186.46042Q28.159388 186.36667 28.487513 185.97604Q28.815638 185.5698 28.815638 184.83542Q28.815638 184.11667 28.534388 183.77292Q28.237513 183.41354 27.831263 183.41354Q27.471888 183.41354 27.268763 183.72604Q27.128138 183.9448 26.909388 184.80417Q26.612513 185.96042 26.409388 186.41354Q26.190638 186.85104 25.815638 187.08542Q25.440638 187.3198 24.971888 187.3198Q24.565638 187.3198 24.206263 187.1323Q23.846888 186.9448 23.612513 186.61667Q23.440638 186.36667 23.315638 185.9448Q23.190638 185.52292 23.190638 185.02292Q23.190638 184.30417 23.409388 183.7573Q23.612513 183.1948 23.971888 182.92917Q24.331263 182.66354 24.925013 182.5698L25.065638 183.60104Q24.596888 183.66354 24.331263 184.0073Q24.050013 184.33542 24.050013 184.96042Q24.050013 185.67917 24.300013 185.99167Q24.534388 186.30417 24.862513 186.30417Q25.065638 186.30417 25.221888 186.17917Q25.393763 186.03854 25.503138 185.77292Q25.565638 185.61667 25.768763 184.83542Q26.081263 183.71042 26.268763 183.27292Q26.456263 182.83542 26.815638 182.58542Q27.175013 182.33542 27.721888 182.33542Q28.253138 182.33542 28.721888 182.64792Q29.175013 182.9448 29.440638 183.52292Q29.690638 184.10104 29.690638 184.83542Q29.690638 186.05417 29.190638 186.6948Q28.675013 187.3198 27.690638 187.49167ZM27.550013 175.8198L27.675013 174.72604Q28.628138 174.97604 29.159388 175.67917Q29.690638 176.3823 29.690638 177.46042Q29.690638 178.8198 28.846888 179.6323Q28.003138 180.42917 26.487513 180.42917Q24.925013 180.42917 24.065638 179.61667Q23.190638 178.80417 23.190638 177.52292Q23.190638 176.27292 24.034388 175.49167Q24.878138 174.6948 26.425013 174.6948Q26.518763 174.6948 26.706263 174.6948L26.706263 179.33542Q27.737513 179.27292 28.284388 178.7573Q28.815638 178.24167 28.815638 177.46042Q28.815638 176.8823 28.518763 176.47604Q28.206263 176.05417 27.550013 175.8198ZM25.846888 179.27292L25.846888 175.80417Q25.050013 175.86667 24.659388 176.1948Q24.050013 176.71042 24.050013 177.5073Q24.050013 178.24167 24.534388 178.74167Q25.018763 179.22604 25.846888 179.27292ZM29.550013 173.10104L20.956263 173.10104L20.956263 172.03854L29.550013 172.03854L29.550013 173.10104ZM22.175013 170.0698L20.956263 170.0698L20.956263 169.0073L22.175013 169.0073L22.175013 170.0698ZM29.550013 170.0698L23.331263 170.0698L23.331263 169.0073L29.550013 169.0073L29.550013 170.0698ZM29.550013 167.0698L23.331263 167.0698L23.331263 166.1323L24.206263 166.1323Q23.190638 165.4448 23.190638 164.14792Q23.190638 163.58542 23.393763 163.11667Q23.596888 162.6323 23.925013 162.39792Q24.253138 162.16354 24.690638 162.0698Q24.987513 162.02292 25.721888 162.02292L29.550013 162.02292L29.550013 163.0698L25.768763 163.0698Q25.112513 163.0698 24.800013 163.1948Q24.487513 163.3198 24.300013 163.6323Q24.096888 163.9448 24.096888 164.36667Q24.096888 165.03854 24.534388 165.53854Q24.956263 166.02292 26.143763 166.02292L29.550013 166.02292L29.550013 167.0698ZM27.550013 155.8198L27.675013 154.72604Q28.628138 154.97604 29.159388 155.67917Q29.690638 156.3823 29.690638 157.46042Q29.690638 158.8198 28.846888 159.6323Q28.003138 160.42917 26.487513 160.42917Q24.925013 160.42917 24.065638 159.61667Q23.190638 158.80417 23.190638 157.52292Q23.190638 156.27292 24.034388 155.49167Q24.878138 154.6948 26.425013 154.6948Q26.518763 154.6948 26.706263 154.6948L26.706263 159.33542Q27.737513 159.27292 28.284388 158.7573Q28.815638 158.24167 28.815638 157.46042Q28.815638 156.8823 28.518763 156.47604Q28.206263 156.05417 27.550013 155.8198ZM25.846888 159.27292L25.846888 155.80417Q25.050013 155.86667 24.659388 156.1948Q24.050013 156.71042 24.050013 157.5073Q24.050013 158.24167 24.534388 158.74167Q25.018763 159.22604 25.846888 159.27292ZM32.08126 148.05417Q30.971888 148.92917 29.503138 149.53854Q28.018763 150.1323 26.440638 150.1323Q25.050013 150.1323 23.768763 149.6948Q22.284388 149.16354 20.815638 148.05417L20.815638 147.30417Q22.034388 148.0073 22.550013 148.24167Q23.362513 148.60104 24.237513 148.80417Q25.331263 149.05417 26.440638 149.05417Q29.268763 149.05417 32.08126 147.30417L32.08126 148.05417ZM29.550013 146.08542L23.331263 146.08542L23.331263 145.1323L24.268763 145.1323Q23.612513 144.77292 23.409388 144.47604Q23.190638 144.16354 23.190638 143.78854Q23.190638 143.2573 23.518763 142.71042L24.503138 143.0698Q24.268763 143.46042 24.268763 143.83542Q24.268763 144.1948 24.487513 144.47604Q24.690638 144.74167 25.065638 144.85104Q25.628138 145.03854 26.284388 145.03854L29.550013 145.03854L29.550013 146.08542ZM28.784388 138.0073Q29.284388 138.60104 29.487513 139.14792Q29.690638 139.67917 29.690638 140.30417Q29.690638 141.33542 29.190638 141.8823Q28.690638 142.42917 27.909388 142.42917Q27.456263 142.42917 27.081263 142.22604Q26.690638 142.02292 26.471888 141.67917Q26.237513 141.33542 26.128138 140.91354Q26.034388 140.61667 25.956263 139.97604Q25.815638 138.71042 25.596888 138.10104Q25.378138 138.10104 25.331263 138.10104Q24.675013 138.10104 24.409388 138.39792Q24.065638 138.80417 24.065638 139.60104Q24.065638 140.33542 24.331263 140.6948Q24.581263 141.05417 25.237513 141.22604L25.096888 142.2573Q24.440638 142.11667 24.034388 141.78854Q23.628138 141.46042 23.409388 140.85104Q23.190638 140.24167 23.190638 139.4448Q23.190638 138.64792 23.378138 138.14792Q23.565638 137.64792 23.846888 137.41354Q24.128138 137.17917 24.565638 137.08542Q24.831263 137.03854 25.534388 137.03854L26.940638 137.03854Q28.409388 137.03854 28.800013 136.97604Q29.190638 136.89792 29.550013 136.6948L29.550013 137.80417Q29.221888 137.96042 28.784388 138.0073ZM26.425013 138.10104Q26.659388 138.67917 26.831263 139.8198Q26.925013 140.47604 27.050013 140.74167Q27.159388 141.0073 27.378138 141.16354Q27.596888 141.30417 27.878138 141.30417Q28.300013 141.30417 28.581263 140.99167Q28.862513 140.66354 28.862513 140.05417Q28.862513 139.4448 28.596888 138.97604Q28.331263 138.49167 27.862513 138.27292Q27.503138 138.10104 26.815638 138.10104L26.425013 138.10104ZM28.612513 132.77292L29.534388 132.61667Q29.628138 133.0698 29.628138 133.41354Q29.628138 133.99167 29.456263 134.30417Q29.268763 134.61667 28.971888 134.7573Q28.675013 134.8823 27.721888 134.8823L24.143763 134.8823L24.143763 135.64792L23.331263 135.64792L23.331263 134.8823L21.784388 134.8823L21.159388 133.83542L23.331263 133.83542L23.331263 132.77292L24.143763 132.77292L24.143763 133.83542L27.784388 133.83542Q28.237513 133.83542 28.362513 133.78854Q28.487513 133.72604 28.565638 133.60104Q28.643763 133.47604 28.643763 133.24167Q28.643763 133.05417 28.612513 132.77292ZM22.175013 132.0698L20.956263 132.0698L20.956263 131.0073L22.175013 131.0073L22.175013 132.0698ZM29.550013 132.0698L23.331263 132.0698L23.331263 131.0073L29.550013 131.0073L29.550013 132.0698ZM26.440638 129.46042Q24.706263 129.46042 23.878138 128.5073Q23.190638 127.71042 23.190638 126.55417Q23.190638 125.27292 24.034388 124.46042Q24.862513 123.63229 26.346888 123.63229Q27.550013 123.63229 28.237513 123.99167Q28.925013 124.35104 29.315638 125.05417Q29.690638 125.74167 29.690638 126.55417Q29.690638 127.85104 28.862513 128.66354Q28.018763 129.46042 26.440638 129.46042ZM26.440638 128.3823Q27.628138 128.3823 28.221888 127.86667Q28.815638 127.33542 28.815638 126.55417Q28.815638 125.75729 28.221888 125.24167Q27.628138 124.72604 26.409388 124.72604Q25.253138 124.72604 24.659388 125.25729Q24.065638 125.77292 24.065638 126.55417Q24.065638 127.33542 24.659388 127.86667Q25.237513 128.3823 26.440638 128.3823ZM32.08126 121.38229L32.08126 122.13229Q29.268763 120.38229 26.440638 120.38229Q25.346888 120.38229 24.253138 120.63229Q23.378138 120.83542 22.565638 121.19479Q22.050013 121.42917 20.815638 122.13229L20.815638 121.38229Q22.284388 120.28854 23.768763 119.75729Q25.050013 119.30417 26.440638 119.30417Q28.018763 119.30417 29.503138 119.91354Q30.971888 120.52292 32.08126 121.38229Z" fill-rule="nonzero"/><path fill="#000000" d="M65.05 300.21564Q65.05 298.6844 65.3625 297.7625Q65.675 296.825 66.28438 296.325Q66.90938 295.825 67.84688 295.825Q68.53438 295.825 69.05 296.10626Q69.58125 296.3875 69.925 296.91876Q70.26875 297.4344 70.45625 298.1844Q70.64375 298.9344 70.64375 300.21564Q70.64375 301.73126 70.33125 302.65314Q70.03438 303.575 69.40938 304.09064Q68.8 304.59064 67.84688 304.59064Q66.6125 304.59064 65.89375 303.7Q65.05 302.6375 65.05 300.21564ZM66.12813 300.21564Q66.12813 302.325 66.62813 303.02814Q67.12813 303.73126 67.84688 303.73126Q68.58125 303.73126 69.06563 303.02814Q69.56563 302.325 69.56563 300.21564Q69.56563 298.09064 69.06563 297.40314Q68.58125 296.7 67.83125 296.7Q67.1125 296.7 66.675 297.3094Q66.12813 298.09064 66.12813 300.21564Z" fill-rule="nonzero"/><path fill="#000000" d="M70.59688 232.71216L70.59688 233.72778L64.90938 233.72778Q64.90938 233.35278 65.03438 232.99341Q65.25313 232.41528 65.72188 231.85278Q66.20625 231.29028 67.1125 230.55591Q68.51875 229.39966 69.00313 228.72778Q69.50313 228.05591 69.50313 227.46216Q69.50313 226.83716 69.05 226.41528Q68.59688 225.97778 67.87813 225.97778Q67.1125 225.97778 66.65938 226.43091Q66.20625 226.88403 66.19063 227.69653L65.1125 227.58716Q65.22188 226.36841 65.94063 225.74341Q66.675 225.10278 67.90938 225.10278Q69.14375 225.10278 69.8625 225.79028Q70.58125 226.47778 70.58125 227.49341Q70.58125 228.00903 70.3625 228.50903Q70.15938 228.99341 69.65938 229.55591Q69.175 230.10278 68.05 231.05591Q67.09688 231.85278 66.81563 232.14966Q66.55 232.43091 66.37813 232.71216L70.59688 232.71216Z" fill-rule="nonzero"/><path fill="#000000" d="M68.425 163.00555L68.425 160.94305L64.70625 160.94305L64.70625 159.9743L68.62813 154.4118L69.4875 154.4118L69.4875 159.9743L70.64375 159.9743L70.64375 160.94305L69.4875 160.94305L69.4875 163.00555L68.425 163.00555ZM68.425 159.9743L68.425 156.11493L65.7375 159.9743L68.425 159.9743Z" fill-rule="nonzero"/><path fill="#000000" d="M70.51875 85.79896L69.47188 85.87708Q69.33125 85.25208 69.08125 84.97083Q68.64375 84.51771 68.01875 84.51771Q67.51875 84.51771 67.12813 84.79896Q66.64375 85.17396 66.34688 85.87708Q66.06563 86.56458 66.05 87.84583Q66.425 87.26771 66.97188 86.98646Q67.53438 86.70521 68.14375 86.70521Q69.19063 86.70521 69.925 87.48646Q70.675 88.26771 70.675 89.48646Q70.675 90.29896 70.31563 91.00208Q69.97188 91.68958 69.3625 92.06458Q68.75313 92.42396 67.9875 92.42396Q66.65938 92.42396 65.83125 91.45521Q65.00313 90.48646 65.00313 88.26771Q65.00313 85.76771 65.925 84.64271Q66.72188 83.65833 68.08125 83.65833Q69.09688 83.65833 69.7375 84.23646Q70.39375 84.79896 70.51875 85.79896ZM66.22188 89.50208Q66.22188 90.04896 66.44063 90.54896Q66.675 91.03333 67.08125 91.29896Q67.50313 91.56458 67.97188 91.56458Q68.62813 91.56458 69.1125 91.03333Q69.59688 90.48646 69.59688 89.56458Q69.59688 88.67396 69.1125 88.15833Q68.64375 87.64271 67.925 87.64271Q67.20625 87.64271 66.70625 88.15833Q66.22188 88.67396 66.22188 89.50208Z" fill-rule="nonzero"/><path fill="#000000" d="M78.51875 317.45L77.47188 317.45L77.47188 310.73126Q77.08125 311.09064 76.45625 311.46564Q75.84688 311.825 75.3625 311.9969L75.3625 310.98126Q76.2375 310.5594 76.89375 309.98126Q77.56563 309.3875 77.84688 308.825L78.51875 308.825L78.51875 317.45Z" fill-rule="nonzero"/><path fill="#000000" d="M189.47195 317.45L188.42508 317.45L188.42508 310.73126Q188.03445 311.09064 187.40945 311.46564Q186.80008 311.825 186.3157 311.9969L186.3157 310.98126Q187.1907 310.5594 187.84695 309.98126Q188.51883 309.3875 188.80008 308.825L189.47195 308.825L189.47195 317.45ZM192.5032 313.21564Q192.5032 311.6844 192.8157 310.7625Q193.1282 309.825 193.73758 309.325Q194.36258 308.825 195.30008 308.825Q195.98758 308.825 196.5032 309.10626Q197.03445 309.3875 197.3782 309.91876Q197.72195 310.4344 197.90945 311.1844Q198.09695 311.9344 198.09695 313.21564Q198.09695 314.73126 197.78445 315.65314Q197.48758 316.575 196.86258 317.09064Q196.2532 317.59064 195.30008 317.59064Q194.0657 317.59064 193.34695 316.7Q192.5032 315.6375 192.5032 313.21564ZM193.58133 313.21564Q193.58133 315.325 194.08133 316.02814Q194.58133 316.73126 195.30008 316.73126Q196.03445 316.73126 196.51883 316.02814Q197.01883 315.325 197.01883 313.21564Q197.01883 311.09064 196.51883 310.40314Q196.03445 309.7 195.28445 309.7Q194.5657 309.7 194.1282 310.3094Q193.58133 311.09064 193.58133 313.21564Z" fill-rule="nonzero"/><path fill="#000000" d="M300.42514 317.45L299.37827 317.45L299.37827 310.73126Q298.98764 311.09064 298.36264 311.46564Q297.75327 311.825 297.2689 311.9969L297.2689 310.98126Q298.1439 310.5594 298.80014 309.98126Q299.47202 309.3875 299.75327 308.825L300.42514 308.825L300.42514 317.45ZM303.4564 313.21564Q303.4564 311.6844 303.7689 310.7625Q304.0814 309.825 304.69077 309.325Q305.31577 308.825 306.25327 308.825Q306.94077 308.825 307.4564 309.10626Q307.98764 309.3875 308.3314 309.91876Q308.67514 310.4344 308.86264 311.1844Q309.05014 311.9344 309.05014 313.21564Q309.05014 314.73126 308.73764 315.65314Q308.44077 316.575 307.81577 317.09064Q307.2064 317.59064 306.25327 317.59064Q305.0189 317.59064 304.30014 316.7Q303.4564 315.6375 303.4564 313.21564ZM304.53452 313.21564Q304.53452 315.325 305.03452 316.02814Q305.53452 316.73126 306.25327 316.73126Q306.98764 316.73126 307.47202 316.02814Q307.97202 315.325 307.97202 313.21564Q307.97202 311.09064 307.47202 310.40314Q306.98764 309.7 306.23764 309.7Q305.5189 309.7 305.0814 310.3094Q304.53452 311.09064 304.53452 313.21564ZM310.4564 313.21564Q310.4564 311.6844 310.7689 310.7625Q311.0814 309.825 311.69077 309.325Q312.31577 308.825 313.25327 308.825Q313.94077 308.825 314.4564 309.10626Q314.98764 309.3875 315.3314 309.91876Q315.67514 310.4344 315.86264 311.1844Q316.05014 311.9344 316.05014 313.21564Q316.05014 314.73126 315.73764 315.65314Q315.44077 316.575 314.81577 317.09064Q314.2064 317.59064 313.25327 317.59064Q312.0189 317.59064 311.30014 316.7Q310.4564 315.6375 310.4564 313.21564ZM311.53452 313.21564Q311.53452 315.325 312.03452 316.02814Q312.53452 316.73126 313.25327 316.73126Q313.98764 316.73126 314.47202 316.02814Q314.97202 315.325 314.97202 313.21564Q314.97202 311.09064 314.47202 310.40314Q313.98764 309.7 313.23764 309.7Q312.5189 309.7 312.0814 310.3094Q311.53452 311.09064 311.53452 313.21564Z" fill-rule="nonzero"/><path fill="#000000" d="M411.37836 317.45L410.33148 317.45L410.33148 310.73126Q409.94086 311.09064 409.31586 311.46564Q408.70648 311.825 408.2221 311.9969L408.2221 310.98126Q409.0971 310.5594 409.75336 309.98126Q410.42523 309.3875 410.70648 308.825L411.37836 308.825L411.37836 317.45ZM414.4096 313.21564Q414.4096 311.6844 414.7221 310.7625Q415.0346 309.825 415.64398 309.325Q416.26898 308.825 417.20648 308.825Q417.89398 308.825 418.4096 309.10626Q418.94086 309.3875 419.2846 309.91876Q419.62836 310.4344 419.81586 311.1844Q420.00336 311.9344 420.00336 313.21564Q420.00336 314.73126 419.69086 315.65314Q419.39398 316.575 418.76898 317.09064Q418.1596 317.59064 417.20648 317.59064Q415.9721 317.59064 415.25336 316.7Q414.4096 315.6375 414.4096 313.21564ZM415.48773 313.21564Q415.48773 315.325 415.98773 316.02814Q416.48773 316.73126 417.20648 316.73126Q417.94086 316.73126 418.42523 316.02814Q418.92523 315.325 418.92523 313.21564Q418.92523 311.09064 418.42523 310.40314Q417.94086 309.7 417.19086 309.7Q416.4721 309.7 416.0346 310.3094Q415.48773 311.09064 415.48773 313.21564ZM421.4096 313.21564Q421.4096 311.6844 421.7221 310.7625Q422.0346 309.825 422.64398 309.325Q423.26898 308.825 424.20648 308.825Q424.89398 308.825 425.4096 309.10626Q425.94086 309.3875 426.2846 309.91876Q426.62836 310.4344 426.81586 311.1844Q427.00336 311.9344 427.00336 313.21564Q427.00336 314.73126 426.69086 315.65314Q426.39398 316.575 425.76898 317.09064Q425.1596 317.59064 424.20648 317.59064Q422.9721 317.59064 422.25336 316.7Q421.4096 315.6375 421.4096 313.21564ZM422.48773 313.21564Q422.48773 315.325 422.98773 316.02814Q423.48773 316.73126 424.20648 316.73126Q424.94086 316.73126 425.42523 316.02814Q425.92523 315.325 425.92523 313.21564Q425.92523 311.09064 425.42523 310.40314Q424.94086 309.7 424.19086 309.7Q423.4721 309.7 423.0346 310.3094Q422.48773 311.09064 422.48773 313.21564ZM428.4096 313.21564Q428.4096 311.6844 428.7221 310.7625Q429.0346 309.825 429.64398 309.325Q430.26898 308.825 431.20648 308.825Q431.89398 308.825 432.4096 309.10626Q432.94086 309.3875 433.2846 309.91876Q433.62836 310.4344 433.81586 311.1844Q434.00336 311.9344 434.00336 313.21564Q434.00336 314.73126 433.69086 315.65314Q433.39398 316.575 432.76898 317.09064Q432.1596 317.59064 431.20648 317.59064Q429.9721 317.59064 429.25336 316.7Q428.4096 315.6375 428.4096 313.21564ZM429.48773 313.21564Q429.48773 315.325 429.98773 316.02814Q430.48773 316.73126 431.20648 316.73126Q431.94086 316.73126 432.42523 316.02814Q432.92523 315.325 432.92523 313.21564Q432.92523 311.09064 432.42523 310.40314Q431.94086 309.7 431.19086 309.7Q430.4721 309.7 430.0346 310.3094Q429.48773 311.09064 429.48773 313.21564Z" fill-rule="nonzero"/><path stroke="#ea4335" stroke-width="4.0" stroke-linecap="butt" d="M95.5 61.916668L107.5 61.916668" fill-rule="nonzero"/><path fill="#1a1a1a" d="M116.390625 65.916664L116.390625 57.322914L118.109375 57.322914L120.140625 63.40104Q120.421875 64.260414 120.546875 64.68229Q120.6875 64.21354 121.0 63.30729L123.0625 57.322914L124.59375 57.322914L124.59375 65.916664L123.5 65.916664L123.5 58.729164L121.0 65.916664L119.96875 65.916664L117.484375 58.604164L117.484375 65.916664L116.390625 65.916664ZM129.35938 65.15104Q128.76562 65.65104 128.21875 65.854164Q127.6875 66.05729 127.0625 66.05729Q126.03125 66.05729 125.484375 65.55729Q124.9375 65.05729 124.9375 64.27604Q124.9375 63.822914 125.140625 63.447914Q125.34375 63.05729 125.6875 62.83854Q126.03125 62.604164 126.453125 62.49479Q126.75 62.40104 127.390625 62.322914Q128.65625 62.18229 129.26562 61.96354Q129.26562 61.74479 129.26562 61.697914Q129.26562 61.041664 128.96875 60.77604Q128.5625 60.43229 127.765625 60.43229Q127.03125 60.43229 126.671875 60.697914Q126.3125 60.947914 126.140625 61.604164L125.109375 61.46354Q125.25 60.80729 125.578125 60.40104Q125.90625 59.99479 126.515625 59.77604Q127.125 59.55729 127.921875 59.55729Q128.71875 59.55729 129.21875 59.74479Q129.71875 59.93229 129.95312 60.21354Q130.1875 60.49479 130.28125 60.93229Q130.32812 61.197914 130.32812 61.90104L130.32812 63.30729Q130.32812 64.77604 130.39062 65.166664Q130.46875 65.55729 130.67188 65.916664L129.5625 65.916664Q129.40625 65.58854 129.35938 65.15104ZM129.26562 62.791664Q128.6875 63.02604 127.546875 63.197914Q126.890625 63.291664 126.625 63.416664Q126.359375 63.52604 126.203125 63.74479Q126.0625 63.96354 126.0625 64.24479Q126.0625 64.666664 126.375 64.947914Q126.703125 65.229164 127.3125 65.229164Q127.921875 65.229164 128.39062 64.96354Q128.875 64.697914 129.09375 64.229164Q129.26562 63.86979 129.26562 63.18229L129.26562 62.791664ZM131.59375 65.916664L133.85938 62.68229L131.76562 59.697914L133.07812 59.697914L134.03125 61.15104Q134.29688 61.572914 134.46875 61.854164Q134.71875 61.46354 134.9375 61.166664L135.98438 59.697914L137.25 59.697914L135.09375 62.61979L137.40625 65.916664L136.125 65.916664L134.84375 63.979164L134.5 63.46354L132.85938 65.916664L131.59375 65.916664Z" fill-rule="nonzero"/><path stroke="#fbbc04" stroke-width="4.0" stroke-linecap="butt" d="M152.5 61.916668L164.5 61.916668" fill-rule="nonzero"/><path fill="#1a1a1a" d="M173.46875 65.916664L173.46875 57.322914L174.59375 57.322914L174.59375 60.854164L179.0625 60.854164L179.0625 57.322914L180.20312 57.322914L180.20312 65.916664L179.0625 65.916664L179.0625 61.86979L174.59375 61.86979L174.59375 65.916664L173.46875 65.916664ZM188.5625 62.90104L189.6875 63.197914Q189.32812 64.58854 188.40625 65.322914Q187.48438 66.05729 186.14062 66.05729Q184.75 66.05729 183.875 65.49479Q183.0 64.93229 182.54688 63.86979Q182.09375 62.791664 182.09375 61.55729Q182.09375 60.21354 182.60938 59.21354Q183.125 58.21354 184.0625 57.697914Q185.01562 57.18229 186.15625 57.18229Q187.4375 57.18229 188.3125 57.83854Q189.20312 58.49479 189.54688 59.68229L188.42188 59.947914Q188.125 59.010414 187.54688 58.58854Q186.98438 58.15104 186.125 58.15104Q185.14062 58.15104 184.46875 58.635414Q183.8125 59.104164 183.53125 59.90104Q183.26562 60.697914 183.26562 61.55729Q183.26562 62.65104 183.57812 63.46354Q183.90625 64.27604 184.57812 64.68229Q185.25 65.08854 186.04688 65.08854Q187.0 65.08854 187.65625 64.541664Q188.32812 63.99479 188.5625 62.90104Z" fill-rule="nonzero"/><path stroke="#34a853" stroke-width="4.0" stroke-linecap="butt" d="M206.5 61.916668L218.5 61.916668" fill-rule="nonzero"/><path fill="#1a1a1a" d="M227.46875 65.916664L227.46875 57.322914L228.59375 57.322914L228.59375 60.854164L233.0625 60.854164L233.0625 57.322914L234.20312 57.322914L234.20312 65.916664L233.0625 65.916664L233.0625 61.86979L228.59375 61.86979L228.59375 65.916664L227.46875 65.916664ZM242.5625 62.90104L243.6875 63.197914Q243.32812 64.58854 242.40625 65.322914Q241.48438 66.05729 240.14062 66.05729Q238.75 66.05729 237.875 65.49479Q237.0 64.93229 236.54688 63.86979Q236.09375 62.791664 236.09375 61.55729Q236.09375 60.21354 236.60938 59.21354Q237.125 58.21354 238.0625 57.697914Q239.01562 57.18229 240.15625 57.18229Q241.4375 57.18229 242.3125 57.83854Q243.20312 58.49479 243.54688 59.68229L242.42188 59.947914Q242.125 59.010414 241.54688 58.58854Q240.98438 58.15104 240.125 58.15104Q239.14062 58.15104 238.46875 58.635414Q237.8125 59.104164 237.53125 59.90104Q237.26562 60.697914 237.26562 61.55729Q237.26562 62.65104 237.57812 63.46354Q237.90625 64.27604 238.57812 64.68229Q239.25 65.08854 240.04688 65.08854Q241.0 65.08854 241.65625 64.541664Q242.32812 63.99479 242.5625 62.90104ZM247.5 64.52604L247.5 62.166664L245.17188 62.166664L245.17188 61.18229L247.5 61.18229L247.5 58.854164L248.5 58.854164L248.5 61.18229L250.84375 61.18229L250.84375 62.166664L248.5 62.166664L248.5 64.52604L247.5 64.52604ZM252.39062 65.916664L252.39062 57.322914L254.10938 57.322914L256.14062 63.40104Q256.42188 64.260414 256.54688 64.68229Q256.6875 64.21354 257.0 63.30729L259.0625 57.322914L260.59375 57.322914L260.59375 65.916664L259.5 65.916664L259.5 58.729164L257.0 65.916664L255.96875 65.916664L253.48438 58.604164L253.48438 65.916664L252.39062 65.916664ZM265.35938 65.15104Q264.76562 65.65104 264.21875 65.854164Q263.6875 66.05729 263.0625 66.05729Q262.03125 66.05729 261.48438 65.55729Q260.9375 65.05729 260.9375 64.27604Q260.9375 63.822914 261.14062 63.447914Q261.34375 63.05729 261.6875 62.83854Q262.03125 62.604164 262.45312 62.49479Q262.75 62.40104 263.39062 62.322914Q264.65625 62.18229 265.26562 61.96354Q265.26562 61.74479 265.26562 61.697914Q265.26562 61.041664 264.96875 60.77604Q264.5625 60.43229 263.76562 60.43229Q263.03125 60.43229 262.67188 60.697914Q262.3125 60.947914 262.14062 61.604164L261.10938 61.46354Q261.25 60.80729 261.57812 60.40104Q261.90625 59.99479 262.51562 59.77604Q263.125 59.55729 263.92188 59.55729Q264.71875 59.55729 265.21875 59.74479Q265.71875 59.93229 265.95312 60.21354Q266.1875 60.49479 266.28125 60.93229Q266.32812 61.197914 266.32812 61.90104L266.32812 63.30729Q266.32812 64.77604 266.39062 65.166664Q266.46875 65.55729 266.67188 65.916664L265.5625 65.916664Q265.40625 65.58854 265.35938 65.15104ZM265.26562 62.791664Q264.6875 63.02604 263.54688 63.197914Q262.89062 63.291664 262.625 63.416664Q262.35938 63.52604 262.20312 63.74479Q262.0625 63.96354 262.0625 64.24479Q262.0625 64.666664 262.375 64.947914Q262.70312 65.229164 263.3125 65.229164Q263.92188 65.229164 264.39062 64.96354Q264.875 64.697914 265.09375 64.229164Q265.26562 63.86979 265.26562 63.18229L265.26562 62.791664ZM267.59375 65.916664L269.85938 62.68229L267.76562 59.697914L269.07812 59.697914L270.03125 61.15104Q270.29688 61.572914 270.46875 61.854164Q270.71875 61.46354 270.9375 61.166664L271.98438 59.697914L273.25 59.697914L271.09375 62.61979L273.40625 65.916664L272.125 65.916664L270.84375 63.979164L270.5 63.46354L268.85938 65.916664L267.59375 65.916664Z" fill-rule="nonzero"/><path stroke="#ff6d01" stroke-width="4.0" stroke-linecap="butt" d="M288.5 61.916668L300.5 61.916668" fill-rule="nonzero"/><path fill="#1a1a1a" d="M309.46875 65.916664L309.46875 57.322914L310.59375 57.322914L310.59375 60.854164L315.0625 60.854164L315.0625 57.322914L316.20312 57.322914L316.20312 65.916664L315.0625 65.916664L315.0625 61.86979L310.59375 61.86979L310.59375 65.916664L309.46875 65.916664ZM324.5625 62.90104L325.6875 63.197914Q325.32812 64.58854 324.40625 65.322914Q323.48438 66.05729 322.14062 66.05729Q320.75 66.05729 319.875 65.49479Q319.0 64.93229 318.54688 63.86979Q318.09375 62.791664 318.09375 61.55729Q318.09375 60.21354 318.60938 59.21354Q319.125 58.21354 320.0625 57.697914Q321.01562 57.18229 322.15625 57.18229Q323.4375 57.18229 324.3125 57.83854Q325.20312 58.49479 325.54688 59.68229L324.42188 59.947914Q324.125 59.010414 323.54688 58.58854Q322.98438 58.15104 322.125 58.15104Q321.14062 58.15104 320.46875 58.635414Q319.8125 59.104164 319.53125 59.90104Q319.26562 60.697914 319.26562 61.55729Q319.26562 62.65104 319.57812 63.46354Q319.90625 64.27604 320.57812 64.68229Q321.25 65.08854 322.04688 65.08854Q323.0 65.08854 323.65625 64.541664Q324.32812 63.99479 324.5625 62.90104ZM329.5 64.52604L329.5 62.166664L327.17188 62.166664L327.17188 61.18229L329.5 61.18229L329.5 58.854164L330.5 58.854164L330.5 61.18229L332.84375 61.18229L332.84375 62.166664L330.5 62.166664L330.5 64.52604L329.5 64.52604ZM334.39062 65.916664L334.39062 57.322914L336.10938 57.322914L338.14062 63.40104Q338.42188 64.260414 338.54688 64.68229Q338.6875 64.21354 339.0 63.30729L341.0625 57.322914L342.59375 57.322914L342.59375 65.916664L341.5 65.916664L341.5 58.729164L339.0 65.916664L337.96875 65.916664L335.48438 58.604164L335.48438 65.916664L334.39062 65.916664ZM347.35938 65.15104Q346.76562 65.65104 346.21875 65.854164Q345.6875 66.05729 345.0625 66.05729Q344.03125 66.05729 343.48438 65.55729Q342.9375 65.05729 342.9375 64.27604Q342.9375 63.822914 343.14062 63.447914Q343.34375 63.05729 343.6875 62.83854Q344.03125 62.604164 344.45312 62.49479Q344.75 62.40104 345.39062 62.322914Q346.65625 62.18229 347.26562 61.96354Q347.26562 61.74479 347.26562 61.697914Q347.26562 61.041664 346.96875 60.77604Q346.5625 60.43229 345.76562 60.43229Q345.03125 60.43229 344.67188 60.697914Q344.3125 60.947914 344.14062 61.604164L343.10938 61.46354Q343.25 60.80729 343.57812 60.40104Q343.90625 59.99479 344.51562 59.77604Q345.125 59.55729 345.92188 59.55729Q346.71875 59.55729 347.21875 59.74479Q347.71875 59.93229 347.95312 60.21354Q348.1875 60.49479 348.28125 60.93229Q348.32812 61.197914 348.32812 61.90104L348.32812 63.30729Q348.32812 64.77604 348.39062 65.166664Q348.46875 65.55729 348.67188 65.916664L347.5625 65.916664Q347.40625 65.58854 347.35938 65.15104ZM347.26562 62.791664Q346.6875 63.02604 345.54688 63.197914Q344.89062 63.291664 344.625 63.416664Q344.35938 63.52604 344.20312 63.74479Q344.0625 63.96354 344.0625 64.24479Q344.0625 64.666664 344.375 64.947914Q344.70312 65.229164 345.3125 65.229164Q345.92188 65.229164 346.39062 64.96354Q346.875 64.697914 347.09375 64.229164Q347.26562 63.86979 347.26562 63.18229L347.26562 62.791664ZM349.59375 65.916664L351.85938 62.68229L349.76562 59.697914L351.07812 59.697914L352.03125 61.15104Q352.29688 61.572914 352.46875 61.854164Q352.71875 61.46354 352.9375 61.166664L353.98438 59.697914L355.25 59.697914L353.09375 62.61979L355.40625 65.916664L354.125 65.916664L352.84375 63.979164L352.5 63.46354L350.85938 65.916664L349.59375 65.916664ZM357.5 64.52604L357.5 62.166664L355.17188 62.166664L355.17188 61.18229L357.5 61.18229L357.5 58.854164L358.5 58.854164L358.5 61.18229L360.84375 61.18229L360.84375 62.166664L358.5 62.166664L358.5 64.52604L357.5 64.52604ZM363.26562 65.916664L362.28125 65.916664L362.28125 57.322914L363.34375 57.322914L363.34375 60.385414Q364.01562 59.55729 365.04688 59.55729Q365.625 59.55729 366.125 59.791664Q366.64062 60.010414 366.96875 60.43229Q367.3125 60.854164 367.5 61.447914Q367.6875 62.041664 367.6875 62.71354Q367.6875 64.30729 366.89062 65.18229Q366.09375 66.05729 365.0 66.05729Q363.89062 66.05729 363.26562 65.135414L363.26562 65.916664ZM363.25 62.760414Q363.25 63.86979 363.5625 64.36979Q364.0625 65.18229 364.90625 65.18229Q365.59375 65.18229 366.09375 64.58854Q366.60938 63.99479 366.60938 62.791664Q366.60938 61.572914 366.125 60.99479Q365.64062 60.416664 364.95312 60.416664Q364.26562 60.416664 363.75 61.02604Q363.25 61.61979 363.25 62.760414ZM373.375 65.916664L373.375 64.99479Q372.64062 66.05729 371.39062 66.05729Q370.84375 66.05729 370.35938 65.854164Q369.89062 65.635414 369.65625 65.322914Q369.42188 64.99479 369.32812 64.52604Q369.26562 64.229164 369.26562 63.541664L369.26562 59.697914L370.32812 59.697914L370.32812 63.15104Q370.32812 63.96354 370.39062 64.260414Q370.48438 64.666664 370.79688 64.916664Q371.125 65.15104 371.60938 65.15104Q372.07812 65.15104 372.48438 64.916664Q372.90625 64.666664 373.07812 64.24479Q373.26562 63.822914 373.26562 63.02604L373.26562 59.697914L374.3125 59.697914L374.3125 65.916664L373.375 65.916664ZM376.29688 58.541664L376.29688 57.322914L377.35938 57.322914L377.35938 58.541664L376.29688 58.541664ZM376.29688 65.916664L376.29688 59.697914L377.35938 59.697914L377.35938 65.916664L376.29688 65.916664ZM379.26562 65.916664L379.26562 57.322914L380.32812 57.322914L380.32812 65.916664L379.26562 65.916664ZM384.59375 64.979164L384.75 65.90104Q384.29688 65.99479 383.95312 65.99479Q383.375 65.99479 383.0625 65.822914Q382.75 65.635414 382.60938 65.33854Q382.48438 65.041664 382.48438 64.08854L382.48438 60.510414L381.71875 60.510414L381.71875 59.697914L382.48438 59.697914L382.48438 58.15104L383.53125 57.52604L383.53125 59.697914L384.59375 59.697914L384.59375 60.510414L383.53125 60.510414L383.53125 64.15104Q383.53125 64.604164 383.57812 64.729164Q383.64062 64.854164 383.76562 64.93229Q383.89062 65.010414 384.125 65.010414Q384.3125 65.010414 384.59375 64.979164ZM385.29688 58.541664L385.29688 57.322914L386.35938 57.322914L386.35938 58.541664L385.29688 58.541664ZM385.29688 65.916664L385.29688 59.697914L386.35938 59.697914L386.35938 65.916664L385.29688 65.916664ZM388.29688 65.916664L388.29688 59.697914L389.23438 59.697914L389.23438 60.572914Q389.92188 59.55729 391.21875 59.55729Q391.78125 59.55729 392.25 59.760414Q392.73438 59.96354 392.96875 60.291664Q393.20312 60.61979 393.29688 61.05729Q393.34375 61.354164 393.34375 62.08854L393.34375 65.916664L392.29688 65.916664L392.29688 62.135414Q392.29688 61.479164 392.17188 61.166664Q392.04688 60.854164 391.73438 60.666664Q391.42188 60.46354 391.0 60.46354Q390.32812 60.46354 389.82812 60.90104Q389.34375 61.322914 389.34375 62.510414L389.34375 65.916664L388.29688 65.916664ZM394.3125 68.30729L394.3125 67.541664L401.3125 67.541664L401.3125 68.30729L394.3125 68.30729ZM402.29688 65.916664L402.29688 59.697914L403.23438 59.697914L403.23438 60.572914Q403.53125 60.104164 404.01562 59.83854Q404.5 59.55729 405.125 59.55729Q405.8125 59.55729 406.25 59.83854Q406.70312 60.11979 406.875 60.635414Q407.625 59.55729 408.79688 59.55729Q409.73438 59.55729 410.21875 60.072914Q410.71875 60.572914 410.71875 61.65104L410.71875 65.916664L409.67188 65.916664L409.67188 61.99479Q409.67188 61.36979 409.5625 61.08854Q409.46875 60.80729 409.20312 60.635414Q408.9375 60.46354 408.5625 60.46354Q407.90625 60.46354 407.46875 60.90104Q407.04688 61.33854 407.04688 62.30729L407.04688 65.916664L405.98438 65.916664L405.98438 61.86979Q405.98438 61.166664 405.71875 60.822914Q405.46875 60.46354 404.89062 60.46354Q404.4375 60.46354 404.0625 60.697914Q403.6875 60.93229 403.51562 61.385414Q403.34375 61.83854 403.34375 62.68229L403.34375 65.916664L402.29688 65.916664ZM417.54688 63.916664L418.64062 64.041664Q418.39062 64.99479 417.6875 65.52604Q416.98438 66.05729 415.90625 66.05729Q414.54688 66.05729 413.73438 65.21354Q412.9375 64.36979 412.9375 62.854164Q412.9375 61.291664 413.75 60.43229Q414.5625 59.55729 415.84375 59.55729Q417.09375 59.55729 417.875 60.40104Q418.67188 61.24479 418.67188 62.791664Q418.67188 62.885414 418.67188 63.072914L414.03125 63.072914Q414.09375 64.104164 414.60938 64.65104Q415.125 65.18229 415.90625 65.18229Q416.48438 65.18229 416.89062 64.885414Q417.3125 64.572914 417.54688 63.916664ZM414.09375 62.21354L417.5625 62.21354Q417.5 61.416664 417.17188 61.02604Q416.65625 60.416664 415.85938 60.416664Q415.125 60.416664 414.625 60.90104Q414.14062 61.385414 414.09375 62.21354ZM420.29688 65.916664L420.29688 59.697914L421.23438 59.697914L421.23438 60.572914Q421.53125 60.104164 422.01562 59.83854Q422.5 59.55729 423.125 59.55729Q423.8125 59.55729 424.25 59.83854Q424.70312 60.11979 424.875 60.635414Q425.625 59.55729 426.79688 59.55729Q427.73438 59.55729 428.21875 60.072914Q428.71875 60.572914 428.71875 61.65104L428.71875 65.916664L427.67188 65.916664L427.67188 61.99479Q427.67188 61.36979 427.5625 61.08854Q427.46875 60.80729 427.20312 60.635414Q426.9375 60.46354 426.5625 60.46354Q425.90625 60.46354 425.46875 60.90104Q425.04688 61.33854 425.04688 62.30729L425.04688 65.916664L423.98438 65.916664L423.98438 61.86979Q423.98438 61.166664 423.71875 60.822914Q423.46875 60.46354 422.89062 60.46354Q422.4375 60.46354 422.0625 60.697914Q421.6875 60.93229 421.51562 61.385414Q421.34375 61.83854 421.34375 62.68229L421.34375 65.916664L420.29688 65.916664ZM435.35938 63.635414L436.39062 63.77604Q436.21875 64.83854 435.51562 65.447914Q434.8125 66.05729 433.79688 66.05729Q432.51562 66.05729 431.73438 65.229164Q430.96875 64.385414 430.96875 62.822914Q430.96875 61.822914 431.29688 61.072914Q431.64062 60.30729 432.3125 59.93229Q433.0 59.55729 433.8125 59.55729Q434.8125 59.55729 435.45312 60.072914Q436.10938 60.572914 436.29688 61.52604L435.26562 61.68229Q435.125 61.05729 434.75 60.74479Q434.375 60.416664 433.84375 60.416664Q433.04688 60.416664 432.54688 60.99479Q432.04688 61.55729 432.04688 62.791664Q432.04688 64.05729 432.53125 64.61979Q433.01562 65.18229 433.78125 65.18229Q434.40625 65.18229 434.8125 64.80729Q435.23438 64.43229 435.35938 63.635414ZM437.29688 68.30729L437.29688 59.697914L438.25 59.697914L438.25 60.49479Q438.59375 60.02604 439.01562 59.791664Q439.45312 59.55729 440.0625 59.55729Q440.85938 59.55729 441.46875 59.96354Q442.07812 60.36979 442.375 61.11979Q442.6875 61.86979 442.6875 62.760414Q442.6875 63.71354 442.34375 64.479164Q442.01562 65.24479 441.35938 65.65104Q440.70312 66.05729 439.98438 66.05729Q439.45312 66.05729 439.03125 65.83854Q438.60938 65.604164 438.34375 65.27604L438.34375 68.30729L437.29688 68.30729ZM438.25 62.83854Q438.25 64.041664 438.73438 64.61979Q439.21875 65.18229 439.90625 65.18229Q440.60938 65.18229 441.10938 64.58854Q441.60938 63.99479 441.60938 62.74479Q441.60938 61.55729 441.125 60.979164Q440.64062 60.385414 439.95312 60.385414Q439.28125 60.385414 438.76562 61.010414Q438.25 61.635414 438.25 62.83854ZM444.25 68.30729L444.125 67.322914Q444.46875 67.416664 444.73438 67.416664Q445.07812 67.416664 445.28125 67.291664Q445.5 67.18229 445.64062 66.979164Q445.73438 66.80729 445.96875 66.18229Q445.98438 66.104164 446.0625 65.93229L443.6875 59.697914L444.82812 59.697914L446.125 63.291664Q446.375 63.979164 446.57812 64.74479Q446.76562 64.010414 447.01562 63.322914L448.34375 59.697914L449.39062 59.697914L447.03125 66.02604Q446.64062 67.041664 446.4375 67.43229Q446.15625 67.96354 445.78125 68.197914Q445.42188 68.447914 444.92188 68.447914Q444.625 68.447914 444.25 68.30729Z" fill-rule="nonzero"/><path fill="#757575" d="M160.20312 37.55L156.25 27.175L158.10938 27.175L160.34375 33.39375Q160.70312 34.39375 161.0 35.471874Q161.23438 34.659374 161.65625 33.503124L163.95312 27.175L165.76562 27.175L161.84375 37.55L160.20312 37.55ZM166.28125 37.55L166.28125 23.2375L168.03125 23.2375L168.03125 37.55L166.28125 37.55ZM177.42188 34.20625L179.23438 34.440624Q178.8125 36.01875 177.64062 36.909374Q176.48438 37.784374 174.67188 37.784374Q172.40625 37.784374 171.0625 36.39375Q169.73438 34.9875 169.73438 32.45625Q169.73438 29.83125 171.07812 28.39375Q172.42188 26.940624 174.57812 26.940624Q176.65625 26.940624 177.96875 28.3625Q179.29688 29.76875 179.29688 32.346874Q179.29688 32.503124 179.28125 32.815624L171.54688 32.815624Q171.64062 34.51875 172.51562 35.425Q173.39062 36.33125 174.6875 36.33125Q175.65625 36.33125 176.32812 35.83125Q177.01562 35.315624 177.42188 34.20625ZM171.64062 31.3625L177.4375 31.3625Q177.32812 30.065624 176.78125 29.409374Q175.9375 28.39375 174.59375 28.39375Q173.39062 28.39375 172.5625 29.20625Q171.73438 30.003124 171.64062 31.3625ZM183.53125 29.784374Q182.4375 29.378124 181.90625 28.64375Q181.39062 27.89375 181.39062 26.8625Q181.39062 25.3 182.51562 24.2375Q183.64062 23.175 185.5 23.175Q187.375 23.175 188.51562 24.26875Q189.65625 25.346874 189.65625 26.909374Q189.65625 27.909374 189.125 28.64375Q188.60938 29.378124 187.54688 29.784374Q188.875 30.221874 189.5625 31.175Q190.25 32.128124 190.25 33.45625Q190.25 35.3 188.9375 36.55Q187.64062 37.8 185.53125 37.8Q183.40625 37.8 182.10938 36.55Q180.8125 35.284374 180.8125 33.409374Q180.8125 32.01875 181.51562 31.08125Q182.23438 30.128124 183.53125 29.784374ZM183.1875 26.8Q183.1875 27.815624 183.84375 28.471874Q184.5 29.1125 185.53125 29.1125Q186.54688 29.1125 187.20312 28.471874Q187.85938 27.83125 187.85938 26.909374Q187.85938 25.940624 187.1875 25.284374Q186.51562 24.6125 185.51562 24.6125Q184.51562 24.6125 183.84375 25.26875Q183.1875 25.909374 183.1875 26.8ZM182.625 33.425Q182.625 34.175 182.96875 34.878124Q183.32812 35.58125 184.03125 35.971874Q184.73438 36.346874 185.54688 36.346874Q186.8125 36.346874 187.625 35.534374Q188.45312 34.721874 188.45312 33.471874Q188.45312 32.20625 187.60938 31.378124Q186.76562 30.55 185.48438 30.55Q184.25 30.55 183.4375 31.378124Q182.625 32.190624 182.625 33.425ZM192.8125 37.55L192.8125 35.55L194.8125 35.55L194.8125 37.55L192.8125 37.55ZM201.20312 37.55L197.25 27.175L199.10938 27.175L201.34375 33.39375Q201.70312 34.39375 202.0 35.471874Q202.23438 34.659374 202.65625 33.503124L204.95312 27.175L206.76562 27.175L202.84375 37.55L201.20312 37.55ZM217.64062 37.55L212.09375 23.2375L214.14062 23.2375L217.85938 33.628124Q218.3125 34.878124 218.60938 35.971874Q218.9375 34.8 219.39062 33.628124L223.25 23.2375L225.1875 23.2375L219.57812 37.55L217.64062 37.55ZM226.46875 37.55L226.46875 23.2375L228.35938 23.2375L228.35938 35.8625L235.40625 35.8625L235.40625 37.55L226.46875 37.55ZM237.57812 37.55L237.57812 23.2375L247.9375 23.2375L247.9375 24.925L239.48438 24.925L239.48438 29.3L247.39062 29.3L247.39062 30.9875L239.48438 30.9875L239.48438 35.8625L248.26562 35.8625L248.26562 37.55L237.57812 37.55ZM250.53125 37.55L250.53125 23.2375L252.46875 23.2375L259.98438 34.471874L259.98438 23.2375L261.79688 23.2375L261.79688 37.55L259.85938 37.55L252.34375 26.3L252.34375 37.55L250.53125 37.55ZM272.5625 29.128124L263.10938 29.128124L263.10938 27.4875L272.5625 27.4875L272.5625 29.128124ZM272.5625 33.471874L263.10938 33.471874L263.10938 31.83125L272.5625 31.83125L272.5625 33.471874ZM281.45312 37.55L279.6875 37.55L279.6875 26.346874Q279.0625 26.95625 278.03125 27.565624Q277.0 28.159374 276.17188 28.471874L276.17188 26.76875Q277.65625 26.08125 278.75 25.096874Q279.85938 24.096874 280.3125 23.175L281.45312 23.175L281.45312 37.55ZM295.0625 35.8625L295.0625 37.55L285.60938 37.55Q285.59375 36.909374 285.8125 36.33125Q286.17188 35.3625 286.96875 34.425Q287.76562 33.4875 289.26562 32.253124Q291.60938 30.346874 292.42188 29.2375Q293.25 28.1125 293.25 27.1125Q293.25 26.065624 292.5 25.346874Q291.75 24.628124 290.54688 24.628124Q289.28125 24.628124 288.51562 25.39375Q287.75 26.159374 287.75 27.503124L285.9375 27.315624Q286.125 25.3 287.32812 24.2375Q288.54688 23.175 290.59375 23.175Q292.64062 23.175 293.84375 24.315624Q295.04688 25.45625 295.04688 27.14375Q295.04688 28.003124 294.6875 28.846874Q294.34375 29.675 293.53125 30.596874Q292.71875 31.503124 290.82812 33.1125Q289.23438 34.440624 288.78125 34.909374Q288.34375 35.378124 288.04688 35.8625L295.0625 35.8625ZM299.53125 29.784374Q298.4375 29.378124 297.90625 28.64375Q297.39062 27.89375 297.39062 26.8625Q297.39062 25.3 298.51562 24.2375Q299.64062 23.175 301.5 23.175Q303.375 23.175 304.51562 24.26875Q305.65625 25.346874 305.65625 26.909374Q305.65625 27.909374 305.125 28.64375Q304.60938 29.378124 303.54688 29.784374Q304.875 30.221874 305.5625 31.175Q306.25 32.128124 306.25 33.45625Q306.25 35.3 304.9375 36.55Q303.64062 37.8 301.53125 37.8Q299.40625 37.8 298.10938 36.55Q296.8125 35.284374 296.8125 33.409374Q296.8125 32.01875 297.51562 31.08125Q298.23438 30.128124 299.53125 29.784374ZM299.1875 26.8Q299.1875 27.815624 299.84375 28.471874Q300.5 29.1125 301.53125 29.1125Q302.54688 29.1125 303.20312 28.471874Q303.85938 27.83125 303.85938 26.909374Q303.85938 25.940624 303.1875 25.284374Q302.51562 24.6125 301.51562 24.6125Q300.51562 24.6125 299.84375 25.26875Q299.1875 25.909374 299.1875 26.8ZM298.625 33.425Q298.625 34.175 298.96875 34.878124Q299.32812 35.58125 300.03125 35.971874Q300.73438 36.346874 301.54688 36.346874Q302.8125 36.346874 303.625 35.534374Q304.45312 34.721874 304.45312 33.471874Q304.45312 32.20625 303.60938 31.378124Q302.76562 30.55 301.48438 30.55Q300.25 30.55 299.4375 31.378124Q298.625 32.190624 298.625 33.425ZM314.46875 37.55L314.46875 23.2375L316.35938 23.2375L316.35938 35.8625L323.40625 35.8625L323.40625 37.55L314.46875 37.55ZM325.48438 37.55L325.48438 23.2375L328.34375 23.2375L331.71875 33.3625Q332.1875 34.784374 332.40625 35.4875Q332.65625 34.70625 333.17188 33.190624L336.59375 23.2375L339.14062 23.2375L339.14062 37.55L337.32812 37.55L337.32812 25.565624L333.15625 37.55L331.45312 37.55L327.3125 25.3625L327.3125 37.55L325.48438 37.55ZM351.9375 23.2375L353.82812 23.2375L353.82812 31.503124Q353.82812 33.659374 353.34375 34.940624Q352.85938 36.20625 351.57812 37.003124Q350.3125 37.8 348.23438 37.8Q346.21875 37.8 344.9375 37.1125Q343.67188 36.409374 343.125 35.096874Q342.57812 33.784374 342.57812 31.503124L342.57812 23.2375L344.46875 23.2375L344.46875 31.4875Q344.46875 33.3625 344.8125 34.253124Q345.15625 35.128124 346.0 35.6125Q346.84375 36.08125 348.07812 36.08125Q350.15625 36.08125 351.04688 35.14375Q351.9375 34.190624 351.9375 31.4875L351.9375 23.2375ZM355.46875 37.55L355.46875 23.2375L357.35938 23.2375L357.35938 35.8625L364.40625 35.8625L364.40625 37.55L355.46875 37.55ZM375.5625 29.128124L366.10938 29.128124L366.10938 27.4875L375.5625 27.4875L375.5625 29.128124ZM375.5625 33.471874L366.10938 33.471874L366.10938 31.83125L375.5625 31.83125L375.5625 33.471874ZM384.45312 37.55L382.6875 37.55L382.6875 26.346874Q382.0625 26.95625 381.03125 27.565624Q380.0 28.159374 379.17188 28.471874L379.17188 26.76875Q380.65625 26.08125 381.75 25.096874Q382.85938 24.096874 383.3125 23.175L384.45312 23.175L384.45312 37.55Z" fill-rule="nonzero"/></svg>