<svg version="1.1" viewBox="0.0 0.0 544.0 371.0" fill="none" stroke="none" stroke-linecap="square" stroke-miterlimit="10" width="544" height="371" xmlns:xlink="http://www.w3.org/1999/xlink" xmlns="http://www.w3.org/2000/svg"><path fill="#ffffff" d="M0 0L544.0 0L544.0 371.0L0 371.0L0 0Z" fill-rule="nonzero"/><path stroke="#cccccc" stroke-width="1.0" stroke-linecap="butt" d="M77.5 61.5L77.5 300.5" fill-rule="nonzero"/><path stroke="#cccccc" stroke-width="1.0" stroke-linecap="butt" d="M212.5 61.5L212.5 300.5" fill-rule="nonzero"/><path stroke="#cccccc" stroke-width="1.0" stroke-linecap="butt" d="M348.5 61.5L348.5 300.5" fill-rule="nonzero"/><path stroke="#cccccc" stroke-width="1.0" stroke-linecap="butt" d="M483.5 61.5L483.5 300.5" fill-rule="nonzero"/><path stroke="#333333" stroke-width="1.0" stroke-linecap="butt" d="M77.5 300.5L525.5 300.5" fill-rule="nonzero"/><path stroke="#cccccc" stroke-width="1.0" stroke-linecap="butt" d="M77.5 220.5L525.5 220.5" fill-rule="nonzero"/><path stroke="#cccccc" stroke-width="1.0" stroke-linecap="butt" d="M77.5 141.5L525.5 141.5" fill-rule="nonzero"/><path stroke="#cccccc" stroke-width="1.0" stroke-linecap="butt" d="M77.5 61.5L525.5 61.5" fill-rule="nonzero"/><clipPath id="id_0"><path d="M77.55 61.916668L525.45 61.916668L525.45 300.45L77.55 300.45L77.55 61.916668Z" clip-rule="nonzero"/></clipPath><path stroke="#ea4335" stroke-width="2.0" stroke-linecap="butt" clip-path="url(#id_0)" d="M77.55 296.76035L118.26818 294.8797L158.98636 295.6783L199.70454 290.32916L240.42273 290.7131L281.1409 285.93643L321.8591 274.87973L362.57727 256.55325L403.29544 215.10342L444.01364 158.26543L484.7318 69.45035L525.45 66.55918" fill-rule="nonzero"/><path fill="#000000" fill-opacity="0.0" clip-path="url(#id_0)" d="M80.55 296.76035C80.55 298.4172 79.206856 299.76035 77.55 299.76035C75.89314 299.76035 74.55 298.4172 74.55 296.76035C74.55 295.1035 75.89314 293.76035 77.55 293.76035C79.206856 293.76035 80.55 295.1035 80.55 296.76035Z" fill-rule="nonzero"/><path fill="#000000" fill-opacity="0.0" clip-path="url(#id_0)" d="M121.26818 294.8797C121.26818 296.53653 119.92503 297.8797 118.26818 297.8797C116.61133 297.8797 115.26818 296.53653 115.26818 294.8797C115.26818 293.22284 116.61133 291.8797 118.26818 291.8797C119.92503 291.8797 121.26818 293.22284 121.26818 294.8797Z" fill-rule="nonzero"/><path fill="#000000" fill-opacity="0.0" clip-path="url(#id_0)" d="M161.98636 295.6783C161.98636 297.33517 160.64322 298.6783 158.98636 298.6783C157.32951 298.6783 155.98636 297.33517 155.98636 295.6783C155.98636 294.02148 157.32951 292.6783 158.98636 292.6783C160.64322 292.6783 161.98636 294.02148 161.98636 295.6783Z" fill-rule="nonzero"/><path fill="#000000" fill-opacity="0.0" clip-path="url(#id_0)" d="M202.70454 290.32916C202.70454 291.98602 201.3614 293.32916 199.70454 293.32916C198.04768 293.32916 196.70454 291.98602 196.70454 290.32916C196.70454 288.6723 198.04768 287.32916 199.70454 287.32916C201.3614 287.32916 202.70454 288.6723 202.70454 290.32916Z" fill-rule="nonzero"/><path fill="#000000" fill-opacity="0.0" clip-path="url(#id_0)" d="M243.42273 290.7131C243.42273 292.36996 242.07957 293.7131 240.42273 293.7131C238.76587 293.7131 237.42273 292.36996 237.42273 290.7131C237.42273 289.05624 238.76587 287.7131 240.42273 287.7131C242.07957 287.7131 243.42273 289.05624 243.42273 290.7131Z" fill-rule="nonzero"/><path fill="#000000" fill-opacity="0.0" clip-path="url(#id_0)" d="M284.1409 285.93643C284.1409 287.5933 282.79776 288.93643 281.1409 288.93643C279.48407 288.93643 278.1409 287.5933 278.1409 285.93643C278.1409 284.27957 279.48407 282.93643 281.1409 282.93643C282.79776 282.93643 284.1409 284.27957 284.1409 285.93643Z" fill-rule="nonzero"/><path fill="#000000" fill-opacity="0.0" clip-path="url(#id_0)" d="M324.8591 274.87973C324.8591 276.5366 323.51593 277.87973 321.8591 277.87973C320.20224 277.87973 318.8591 276.5366 318.8591 274.87973C318.8591 273.22287 320.20224 271.87973 321.8591 271.87973C323.51593 271.87973 324.8591 273.22287 324.8591 274.87973Z" fill-rule="nonzero"/><path fill="#000000" fill-opacity="0.0" clip-path="url(#id_0)" d="M365.57727 256.55325C365.57727 258.21008 364.23413 259.55325 362.57727 259.55325C360.9204 259.55325 359.57727 258.21008 359.57727 256.55325C359.57727 254.8964 360.9204 253.55324 362.57727 253.55324C364.23413 253.55324 365.57727 254.8964 365.57727 256.55325Z" fill-rule="nonzero"/><path fill="#000000" fill-opacity="0.0" clip-path="url(#id_0)" d="M406.29544 215.10342C406.29544 216.76028 404.9523 218.10342 403.29544 218.10342C401.6386 218.10342 400.29544 216.76028 400.29544 215.10342C400.29544 213.44656 401.6386 212.10342 403.29544 212.10342C404.9523 212.10342 406.29544 213.44656 406.29544 215.10342Z" fill-rule="nonzero"/><path fill="#000000" fill-opacity="0.0" clip-path="url(#id_0)" d="M447.01364 158.26543C447.01364 159.92227 445.6705 161.26543 444.01364 161.26543C442.35678 161.26543 441.01364 159.92227 441.01364 158.26543C441.01364 156.60857 442.35678 155.26543 444.01364 155.26543C445.6705 155.26543 447.01364 156.60857 447.01364 158.26543Z" fill-rule="nonzero"/><path fill="#000000" fill-opacity="0.0" clip-path="url(#id_0)" d="M487.7318 69.45035C487.7318 71.1072 486.38867 72.45035 484.7318 72.45035C483.07495 72.45035 481.7318 71.1072 481.7318 69.45035C481.7318 67.79349 483.07495 66.45035 484.7318 66.45035C486.38867 66.45035 487.7318 67.79349 487.7318 69.45035Z" fill-rule="nonzero"/><path fill="#000000" fill-opacity="0.0" clip-path="url(#id_0)" d="M528.45 66.55918C528.45 68.216034 527.1069 69.55918 525.45 69.55918C523.79315 69.55918 522.45 68.216034 522.45 66.55918C522.45 64.90232 523.79315 63.559177 525.45 63.559177C527.1069 63.559177 528.45 64.90232 528.45 66.55918Z" fill-rule="nonzero"/><path fill="#000000" d="M270.54688 346.6844L271.60938 346.59064Q271.6875 347.2469 271.96875 347.65314Q272.25 348.0594 272.82812 348.325Q273.42188 348.575 274.15625 348.575Q274.79688 348.575 275.29688 348.3875Q275.79688 348.1844 276.03125 347.85626Q276.28125 347.5125 276.28125 347.1219Q276.28125 346.71564 276.04688 346.41876Q275.8125 346.10626 275.28125 345.90314Q274.92188 345.7625 273.73438 345.48126Q272.5625 345.2 272.09375 344.95Q271.46875 344.6219 271.17188 344.15314Q270.875 343.66876 270.875 343.075Q270.875 342.4344 271.23438 341.8719Q271.60938 341.29376 272.3125 341.0125Q273.03125 340.71564 273.89062 340.71564Q274.84375 340.71564 275.57812 341.02814Q276.3125 341.325 276.70312 341.9344Q277.09375 342.52814 277.125 343.27814L276.03125 343.35626Q275.9375 342.54376 275.42188 342.1375Q274.92188 341.71564 273.9375 341.71564Q272.90625 341.71564 272.4375 342.09064Q271.96875 342.46564 271.96875 342.9969Q271.96875 343.46564 272.29688 343.7625Q272.625 344.0594 274.0 344.3719Q275.39062 344.6844 275.90625 344.91876Q276.65625 345.27814 277.01562 345.8094Q277.375 346.325 277.375 347.02814Q277.375 347.71564 276.98438 348.325Q276.59375 348.91876 275.85938 349.2625Q275.125 349.59064 274.20312 349.59064Q273.03125 349.59064 272.23438 349.2625Q271.45312 348.91876 271.0 348.23126Q270.5625 347.54376 270.54688 346.6844ZM278.79688 342.075L278.79688 340.85626L279.85938 340.85626L279.85938 342.075L278.79688 342.075ZM278.79688 349.45L278.79688 343.23126L279.85938 343.23126L279.85938 349.45L278.79688 349.45ZM281.23438 349.45L281.23438 348.59064L285.20312 344.04376Q284.51562 344.075 284.0 344.075L281.46875 344.075L281.46875 343.23126L286.5625 343.23126L286.5625 343.91876L283.1875 347.8719L282.53125 348.59064Q283.25 348.54376 283.85938 348.54376L286.75 348.54376L286.75 349.45L281.23438 349.45ZM291.04688 347.45L292.14062 347.575Q291.89062 348.52814 291.1875 349.0594Q290.48438 349.59064 289.40625 349.59064Q288.04688 349.59064 287.23438 348.7469Q286.4375 347.90314 286.4375 346.3875Q286.4375 344.825 287.25 343.96564Q288.0625 343.09064 289.34375 343.09064Q290.59375 343.09064 291.375 343.9344Q292.17188 344.77814 292.17188 346.325Q292.17188 346.41876 292.17188 346.60626L287.53125 346.60626Q287.59375 347.6375 288.10938 348.1844Q288.625 348.71564 289.40625 348.71564Q289.98438 348.71564 290.39062 348.41876Q290.8125 348.10626 291.04688 347.45ZM287.59375 345.7469L291.0625 345.7469Q291.0 344.95 290.67188 344.5594Q290.15625 343.95 289.35938 343.95Q288.625 343.95 288.125 344.4344Q287.64062 344.91876 287.59375 345.7469ZM298.8125 351.98126Q297.9375 350.8719 297.32812 349.40314Q296.73438 347.91876 296.73438 346.34064Q296.73438 344.95 297.17188 343.66876Q297.70312 342.1844 298.8125 340.71564L299.5625 340.71564Q298.85938 341.9344 298.625 342.45Q298.26562 343.2625 298.0625 344.1375Q297.8125 345.23126 297.8125 346.34064Q297.8125 349.16876 299.5625 351.98126L298.8125 351.98126ZM301.76562 349.45L300.78125 349.45L300.78125 340.85626L301.84375 340.85626L301.84375 343.91876Q302.51562 343.09064 303.54688 343.09064Q304.125 343.09064 304.625 343.325Q305.14062 343.54376 305.46875 343.96564Q305.8125 344.3875 306.0 344.98126Q306.1875 345.575 306.1875 346.2469Q306.1875 347.84064 305.39062 348.71564Q304.59375 349.59064 303.5 349.59064Q302.39062 349.59064 301.76562 348.66876L301.76562 349.45ZM301.75 346.29376Q301.75 347.40314 302.0625 347.90314Q302.5625 348.71564 303.40625 348.71564Q304.09375 348.71564 304.59375 348.1219Q305.10938 347.52814 305.10938 346.325Q305.10938 345.10626 304.625 344.52814Q304.14062 343.95 303.45312 343.95Q302.76562 343.95 302.25 344.5594Q301.75 345.15314 301.75 346.29376ZM307.75 351.84064L307.625 350.85626Q307.96875 350.95 308.23438 350.95Q308.57812 350.95 308.78125 350.825Q309.0 350.71564 309.14062 350.5125Q309.23438 350.34064 309.46875 349.71564Q309.48438 349.6375 309.5625 349.46564L307.1875 343.23126L308.32812 343.23126L309.625 346.825Q309.875 347.5125 310.07812 348.27814Q310.26562 347.54376 310.51562 346.85626L311.84375 343.23126L312.89062 343.23126L310.53125 349.5594Q310.14062 350.575 309.9375 350.96564Q309.65625 351.4969 309.28125 351.73126Q308.92188 351.98126 308.42188 351.98126Q308.125 351.98126 307.75 351.84064ZM315.09375 348.5125L315.25 349.4344Q314.79688 349.52814 314.45312 349.52814Q313.875 349.52814 313.5625 349.35626Q313.25 349.16876 313.10938 348.8719Q312.98438 348.575 312.98438 347.6219L312.98438 344.04376L312.21875 344.04376L312.21875 343.23126L312.98438 343.23126L312.98438 341.6844L314.03125 341.0594L314.03125 343.23126L315.09375 343.23126L315.09375 344.04376L314.03125 344.04376L314.03125 347.6844Q314.03125 348.1375 314.07812 348.2625Q314.14062 348.3875 314.26562 348.46564Q314.39062 348.54376 314.625 348.54376Q314.8125 348.54376 315.09375 348.5125ZM320.04688 347.45L321.14062 347.575Q320.89062 348.52814 320.1875 349.0594Q319.48438 349.59064 318.40625 349.59064Q317.04688 349.59064 316.23438 348.7469Q315.4375 347.90314 315.4375 346.3875Q315.4375 344.825 316.25 343.96564Q317.0625 343.09064 318.34375 343.09064Q319.59375 343.09064 320.375 343.9344Q321.17188 344.77814 321.17188 346.325Q321.17188 346.41876 321.17188 346.60626L316.53125 346.60626Q316.59375 347.6375 317.10938 348.1844Q317.625 348.71564 318.40625 348.71564Q318.98438 348.71564 319.39062 348.41876Q319.8125 348.10626 320.04688 347.45ZM316.59375 345.7469L320.0625 345.7469Q320.0 344.95 319.67188 344.5594Q319.15625 343.95 318.35938 343.95Q317.625 343.95 317.125 344.4344Q316.64062 344.91876 316.59375 345.7469ZM322.375 347.59064L323.40625 347.4344Q323.5 348.0594 323.89062 348.3875Q324.29688 348.71564 325.03125 348.71564Q325.75 348.71564 326.09375 348.4344Q326.45312 348.1375 326.45312 347.73126Q326.45312 347.3719 326.14062 347.16876Q325.92188 347.02814 325.0625 346.8094Q323.90625 346.5125 323.45312 346.3094Q323.01562 346.09064 322.78125 345.71564Q322.54688 345.34064 322.54688 344.8719Q322.54688 344.46564 322.73438 344.10626Q322.92188 343.7469 323.25 343.5125Q323.5 343.34064 323.92188 343.21564Q324.34375 343.09064 324.84375 343.09064Q325.5625 343.09064 326.10938 343.3094Q326.67188 343.5125 326.9375 343.8719Q327.20312 344.23126 327.29688 344.825L326.26562 344.96564Q326.20312 344.4969 325.85938 344.23126Q325.53125 343.95 324.90625 343.95Q324.1875 343.95 323.875 344.2Q323.5625 344.4344 323.5625 344.7625Q323.5625 344.96564 323.6875 345.1219Q323.82812 345.29376 324.09375 345.40314Q324.25 345.46564 325.03125 345.66876Q326.15625 345.98126 326.59375 346.16876Q327.03125 346.35626 327.28125 346.71564Q327.53125 347.075 327.53125 347.6219Q327.53125 348.15314 327.21875 348.6219Q326.92188 349.075 326.34375 349.34064Q325.76562 349.59064 325.03125 349.59064Q323.8125 349.59064 323.17188 349.09064Q322.54688 348.575 322.375 347.59064ZM330.48438 351.98126L329.73438 351.98126Q331.48438 349.16876 331.48438 346.34064Q331.48438 345.2469 331.23438 344.15314Q331.03125 343.27814 330.67188 342.46564Q330.4375 341.95 329.73438 340.71564L330.48438 340.71564Q331.57812 342.1844 332.10938 343.66876Q332.5625 344.95 332.5625 346.34064Q332.5625 347.91876 331.95312 349.40314Q331.34375 350.8719 330.48438 351.98126Z" fill-rule="nonzero"/><path fill="#000000" d="M26.784388 252.13646L26.690638 251.07396Q27.346888 250.99583 27.753138 250.71458Q28.159388 250.43333 28.425013 249.85521Q28.675013 249.26146 28.675013 248.52708Q28.675013 247.88646 28.487513 247.38646Q28.284388 246.88646 27.956263 246.65208Q27.612513 246.40208 27.221888 246.40208Q26.815638 246.40208 26.518763 246.63646Q26.206263 246.87083 26.003138 247.40208Q25.862513 247.76146 25.581263 248.94896Q25.300013 250.12083 25.050013 250.58958Q24.721888 251.21458 24.253138 251.51146Q23.768763 251.80833 23.175013 251.80833Q22.534388 251.80833 21.971888 251.44896Q21.393763 251.07396 21.112513 250.37083Q20.815638 249.65208 20.815638 248.79271Q20.815638 247.83958 21.128138 247.10521Q21.425013 246.37083 22.034388 245.98021Q22.628138 245.58958 23.378138 245.55833L23.456263 246.65208Q22.643763 246.74583 22.237513 247.26146Q21.815638 247.76146 21.815638 248.74583Q21.815638 249.77708 22.190638 250.24583Q22.565638 250.71458 23.096888 250.71458Q23.565638 250.71458 23.862513 250.38646Q24.159388 250.05833 24.471888 248.68333Q24.784388 247.29271 25.018763 246.77708Q25.378138 246.02708 25.909388 245.66771Q26.425013 245.30833 27.128138 245.30833Q27.815638 245.30833 28.425013 245.69896Q29.018763 246.08958 29.362513 246.82396Q29.690638 247.55833 29.690638 248.48021Q29.690638 249.65208 29.362513 250.44896Q29.018763 251.23021 28.331263 251.68333Q27.643763 252.12083 26.784388 252.13646ZM31.940638 243.88646L23.331263 243.88646L23.331263 242.93333L24.128138 242.93333Q23.659388 242.58958 23.425013 242.16771Q23.190638 241.73021 23.190638 241.12083Q23.190638 240.32396 23.596888 239.71458Q24.003138 239.10521 24.753138 238.80833Q25.503138 238.49583 26.393763 238.49583Q27.346888 238.49583 28.112513 238.83958Q28.878138 239.16771 29.284388 239.82396Q29.690638 240.48021 29.690638 241.19896Q29.690638 241.73021 29.471888 242.15208Q29.237513 242.57396 28.909388 242.83958L31.940638 242.83958L31.940638 243.88646ZM26.471888 242.93333Q27.675013 242.93333 28.253138 242.44896Q28.815638 241.96458 28.815638 241.27708Q28.815638 240.57396 28.221888 240.07396Q27.628138 239.57396 26.378138 239.57396Q25.190638 239.57396 24.612513 240.05833Q24.018763 240.54271 24.018763 241.23021Q24.018763 241.90208 24.643763 242.41771Q25.268763 242.93333 26.471888 242.93333ZM27.550013 232.63646L27.675013 231.54271Q28.628138 231.79271 29.159388 232.49583Q29.690638 233.19896 29.690638 234.27708Q29.690638 235.63646 28.846888 236.44896Q28.003138 237.24583 26.487513 237.24583Q24.925013 237.24583 24.065638 236.43333Q23.190638 235.62083 23.190638 234.33958Q23.190638 233.08958 24.034388 232.30833Q24.878138 231.51146 26.425013 231.51146Q26.518763 231.51146 26.706263 231.51146L26.706263 236.15208Q27.737513 236.08958 28.284388 235.57396Q28.815638 235.05833 28.815638 234.27708Q28.815638 233.69896 28.518763 233.29271Q28.206263 232.87083 27.550013 232.63646ZM25.846888 236.08958L25.846888 232.62083Q25.050013 232.68333 24.659388 233.01146Q24.050013 233.52708 24.050013 234.32396Q24.050013 235.05833 24.534388 235.55833Q25.018763 236.04271 25.846888 236.08958ZM27.550013 225.63646L27.675013 224.54271Q28.628138 224.79271 29.159388 225.49583Q29.690638 226.19896 29.690638 227.27708Q29.690638 228.63646 28.846888 229.44896Q28.003138 230.24583 26.487513 230.24583Q24.925013 230.24583 24.065638 229.43333Q23.190638 228.62083 23.190638 227.33958Q23.190638 226.08958 24.034388 225.30833Q24.878138 224.51146 26.425013 224.51146Q26.518763 224.51146 26.706263 224.51146L26.706263 229.15208Q27.737513 229.08958 28.284388 228.57396Q28.815638 228.05833 28.815638 227.27708Q28.815638 226.69896 28.518763 226.29271Q28.206263 225.87083 27.550013 225.63646ZM25.846888 229.08958L25.846888 225.62083Q25.050013 225.68333 24.659388 226.01146Q24.050013 226.52708 24.050013 227.32396Q24.050013 228.05833 24.534388 228.55833Q25.018763 229.04271 25.846888 229.08958ZM29.550013 218.85521L28.768763 218.85521Q29.690638 219.44896 29.690638 220.58958Q29.690638 221.33958 29.284388 221.96458Q28.862513 222.58958 28.128138 222.93333Q27.393763 223.27708 26.440638 223.27708Q25.518763 223.27708 24.753138 222.96458Q23.987513 222.65208 23.596888 222.02708Q23.190638 221.40208 23.190638 220.63646Q23.190638 220.07396 23.425013 219.63646Q23.659388 219.19896 24.034388 218.91771L20.956263 218.91771L20.956263 217.87083L29.550013 217.87083L29.550013 218.85521ZM26.440638 222.18333Q27.643763 222.18333 28.237513 221.68333Q28.815638 221.18333 28.815638 220.49583Q28.815638 219.80833 28.253138 219.32396Q27.690638 218.83958 26.534388 218.83958Q25.253138 218.83958 24.659388 219.33958Q24.065638 219.82396 24.065638 220.54271Q24.065638 221.24583 24.643763 221.71458Q25.206263 222.18333 26.440638 222.18333ZM29.550013 208.80833L28.628138 208.80833Q29.690638 209.54271 29.690638 210.79271Q29.690638 211.33958 29.487513 211.82396Q29.268763 212.29271 28.956263 212.52708Q28.628138 212.76146 28.159388 212.85521Q27.862513 212.91771 27.175013 212.91771L23.331263 212.91771L23.331263 211.85521L26.784388 211.85521Q27.596888 211.85521 27.893763 211.79271Q28.300013 211.69896 28.550013 211.38646Q28.784388 211.05833 28.784388 210.57396Q28.784388 210.10521 28.550013 209.69896Q28.300013 209.27708 27.878138 209.10521Q27.456263 208.91771 26.659388 208.91771L23.331263 208.91771L23.331263 207.87083L29.550013 207.87083L29.550013 208.80833ZM31.940638 205.88646L23.331263 205.88646L23.331263 204.93333L24.128138 204.93333Q23.659388 204.58958 23.425013 204.16771Q23.190638 203.73021 23.190638 203.12083Q23.190638 202.32396 23.596888 201.71458Q24.003138 201.10521 24.753138 200.80833Q25.503138 200.49583 26.393763 200.49583Q27.346888 200.49583 28.112513 200.83958Q28.878138 201.16771 29.284388 201.82396Q29.690638 202.48021 29.690638 203.19896Q29.690638 203.73021 29.471888 204.15208Q29.237513 204.57396 28.909388 204.83958L31.940638 204.83958L31.940638 205.88646ZM26.471888 204.93333Q27.675013 204.93333 28.253138 204.44896Q28.815638 203.96458 28.815638 203.27708Q28.815638 202.57396 28.221888 202.07396Q27.628138 201.57396 26.378138 201.57396Q25.190638 201.57396 24.612513 202.05833Q24.018763 202.54271 24.018763 203.23021Q24.018763 203.90208 24.643763 204.41771Q25.268763 204.93333 26.471888 204.93333ZM26.440638 196.27708Q24.706263 196.27708 23.878138 195.32396Q23.190638 194.52708 23.190638 193.37083Q23.190638 192.08958 24.034388 191.27708Q24.862513 190.44896 26.346888 190.44896Q27.550013 190.44896 28.237513 190.80833Q28.925013 191.16771 29.315638 191.87083Q29.690638 192.55833 29.690638 193.37083Q29.690638 194.66771 28.862513 195.48021Q28.018763 196.27708 26.440638 196.27708ZM26.440638 195.19896Q27.628138 195.19896 28.221888 194.68333Q28.815638 194.15208 28.815638 193.37083Q28.815638 192.57396 28.221888 192.05833Q27.628138 191.54271 26.409388 191.54271Q25.253138 191.54271 24.659388 192.07396Q24.065638 192.58958 24.065638 193.37083Q24.065638 194.15208 24.659388 194.68333Q25.237513 195.19896 26.440638 195.19896ZM29.550013 187.16771L23.331263 189.52708L23.331263 188.41771L27.050013 187.07396Q27.659388 186.87083 28.300013 186.68333Q27.815638 186.54271 27.128138 186.29271L23.331263 184.90208L23.331263 183.82396L29.550013 186.18333L29.550013 187.16771ZM27.550013 179.63646L27.675013 178.54271Q28.628138 178.79271 29.159388 179.49583Q29.690638 180.19896 29.690638 181.27708Q29.690638 182.63646 28.846888 183.44896Q28.003138 184.24583 26.487513 184.24583Q24.925013 184.24583 24.065638 183.43333Q23.190638 182.62083 23.190638 181.33958Q23.190638 180.08958 24.034388 179.30833Q24.878138 178.51146 26.425013 178.51146Q26.518763 178.51146 26.706263 178.51146L26.706263 183.15208Q27.737513 183.08958 28.284388 182.57396Q28.815638 182.05833 28.815638 181.27708Q28.815638 180.69896 28.518763 180.29271Q28.206263 179.87083 27.550013 179.63646ZM25.846888 183.08958L25.846888 179.62083Q25.050013 179.68333 24.659388 180.01146Q24.050013 180.52708 24.050013 181.32396Q24.050013 182.05833 24.534388 182.55833Q25.018763 183.04271 25.846888 183.08958ZM29.550013 176.90208L23.331263 176.90208L23.331263 175.94896L24.268763 175.94896Q23.612513 175.58958 23.409388 175.29271Q23.190638 174.98021 23.190638 174.60521Q23.190638 174.07396 23.518763 173.52708L24.503138 173.88646Q24.268763 174.27708 24.268763 174.65208Q24.268763 175.01146 24.487513 175.29271Q24.690638 175.55833 25.065638 175.66771Q25.628138 175.85521 26.284388 175.85521L29.550013 175.85521L29.550013 176.90208ZM29.550013 168.91771L29.550013 169.90208L20.956263 169.90208L20.956263 168.83958L24.018763 168.83958Q23.190638 168.16771 23.190638 167.13646Q23.190638 166.55833 23.425013 166.05833Q23.643763 165.54271 24.065638 165.21458Q24.487513 164.87083 25.081263 164.68333Q25.675013 164.49583 26.346888 164.49583Q27.940638 164.49583 28.815638 165.29271Q29.690638 166.08958 29.690638 167.18333Q29.690638 168.29271 28.768763 168.91771L29.550013 168.91771ZM26.393763 168.93333Q27.503138 168.93333 28.003138 168.62083Q28.815638 168.12083 28.815638 167.27708Q28.815638 166.58958 28.221888 166.08958Q27.628138 165.57396 26.425013 165.57396Q25.206263 165.57396 24.628138 166.05833Q24.050013 166.54271 24.050013 167.23021Q24.050013 167.91771 24.659388 168.43333Q25.253138 168.93333 26.393763 168.93333ZM28.784388 158.82396Q29.284388 159.41771 29.487513 159.96458Q29.690638 160.49583 29.690638 161.12083Q29.690638 162.15208 29.190638 162.69896Q28.690638 163.24583 27.909388 163.24583Q27.456263 163.24583 27.081263 163.04271Q26.690638 162.83958 26.471888 162.49583Q26.237513 162.15208 26.128138 161.73021Q26.034388 161.43333 25.956263 160.79271Q25.815638 159.52708 25.596888 158.91771Q25.378138 158.91771 25.331263 158.91771Q24.675013 158.91771 24.409388 159.21458Q24.065638 159.62083 24.065638 160.41771Q24.065638 161.15208 24.331263 161.51146Q24.581263 161.87083 25.237513 162.04271L25.096888 163.07396Q24.440638 162.93333 24.034388 162.60521Q23.628138 162.27708 23.409388 161.66771Q23.190638 161.05833 23.190638 160.26146Q23.190638 159.46458 23.378138 158.96458Q23.565638 158.46458 23.846888 158.23021Q24.128138 157.99583 24.565638 157.90208Q24.831263 157.85521 25.534388 157.85521L26.940638 157.85521Q28.409388 157.85521 28.800013 157.79271Q29.190638 157.71458 29.550013 157.51146L29.550013 158.62083Q29.221888 158.77708 28.784388 158.82396ZM26.425013 158.91771Q26.659388 159.49583 26.831263 160.63646Q26.925013 161.29271 27.050013 161.55833Q27.159388 161.82396 27.378138 161.98021Q27.596888 162.12083 27.878138 162.12083Q28.300013 162.12083 28.581263 161.80833Q28.862513 161.48021 28.862513 160.87083Q28.862513 160.26146 28.596888 159.79271Q28.331263 159.30833 27.862513 159.08958Q27.503138 158.91771 26.815638 158.91771L26.425013 158.91771ZM27.690638 156.30833L27.534388 155.27708Q28.159388 155.18333 28.487513 154.79271Q28.815638 154.38646 28.815638 153.65208Q28.815638 152.93333 28.534388 152.58958Q28.237513 152.23021 27.831263 152.23021Q27.471888 152.23021 27.268763 152.54271Q27.128138 152.76146 26.909388 153.62083Q26.612513 154.77708 26.409388 155.23021Q26.190638 155.66771 25.815638 155.90208Q25.440638 156.13646 24.971888 156.13646Q24.565638 156.13646 24.206263 155.94896Q23.846888 155.76146 23.612513 155.43333Q23.440638 155.18333 23.315638 154.76146Q23.190638 154.33958 23.190638 153.83958Q23.190638 153.12083 23.409388 152.57396Q23.612513 152.01146 23.971888 151.74583Q24.331263 151.48021 24.925013 151.38646L25.065638 152.41771Q24.596888 152.48021 24.331263 152.82396Q24.050013 153.15208 24.050013 153.77708Q24.050013 154.49583 24.300013 154.80833Q24.534388 155.12083 24.862513 155.12083Q25.065638 155.12083 25.221888 154.99583Q25.393763 154.85521 25.503138 154.58958Q25.565638 154.43333 25.768763 153.65208Q26.081263 152.52708 26.268763 152.08958Q26.456263 151.65208 26.815638 151.40208Q27.175013 151.15208 27.721888 151.15208Q28.253138 151.15208 28.721888 151.46458Q29.175013 151.76146 29.440638 152.33958Q29.690638 152.91771 29.690638 153.65208Q29.690638 154.87083 29.190638 155.51146Q28.675013 156.13646 27.690638 156.30833ZM27.550013 144.63646L27.675013 143.54271Q28.628138 143.79271 29.159388 144.49583Q29.690638 145.19896 29.690638 146.27708Q29.690638 147.63646 28.846888 148.44896Q28.003138 149.24583 26.487513 149.24583Q24.925013 149.24583 24.065638 148.43333Q23.190638 147.62083 23.190638 146.33958Q23.190638 145.08958 24.034388 144.30833Q24.878138 143.51146 26.425013 143.51146Q26.518763 143.51146 26.706263 143.51146L26.706263 148.15208Q27.737513 148.08958 28.284388 147.57396Q28.815638 147.05833 28.815638 146.27708Q28.815638 145.69896 28.518763 145.29271Q28.206263 144.87083 27.550013 144.63646ZM25.846888 148.08958L25.846888 144.62083Q25.050013 144.68333 24.659388 145.01146Q24.050013 145.52708 24.050013 146.32396Q24.050013 147.05833 24.534388 147.55833Q25.018763 148.04271 25.846888 148.08958ZM29.550013 141.91771L20.956263 141.91771L20.956263 140.85521L29.550013 140.85521L29.550013 141.91771ZM22.175013 138.88646L20.956263 138.88646L20.956263 137.82396L22.175013 137.82396L22.175013 138.88646ZM29.550013 138.88646L23.331263 138.88646L23.331263 137.82396L29.550013 137.82396L29.550013 138.88646ZM29.550013 135.88646L23.331263 135.88646L23.331263 134.94896L24.206263 134.94896Q23.190638 134.26146 23.190638 132.96458Q23.190638 132.40208 23.393763 131.93333Q23.596888 131.44896 23.925013 131.21458Q24.253138 130.98021 24.690638 130.88646Q24.987513 130.83958 25.721888 130.83958L29.550013 130.83958L29.550013 131.88646L25.768763 131.88646Q25.112513 131.88646 24.800013 132.01146Q24.487513 132.13646 24.300013 132.44896Q24.096888 132.76146 24.096888 133.18333Q24.096888 133.85521 24.534388 134.35521Q24.956263 134.83958 26.143763 134.83958L29.550013 134.83958L29.550013 135.88646ZM27.550013 124.63646L27.675013 123.54271Q28.628138 123.79271 29.159388 124.495834Q29.690638 125.19896 29.690638 126.277084Q29.690638 127.63646 28.846888 128.44896Q28.003138 129.24583 26.487513 129.24583Q24.925013 129.24583 24.065638 128.43333Q23.190638 127.620834 23.190638 126.339584Q23.190638 125.089584 24.034388 124.308334Q24.878138 123.51146 26.425013 123.51146Q26.518763 123.51146 26.706263 123.51146L26.706263 128.15208Q27.737513 128.08958 28.284388 127.57396Q28.815638 127.058334 28.815638 126.277084Q28.815638 125.69896 28.518763 125.29271Q28.206263 124.870834 27.550013 124.63646ZM25.846888 128.08958L25.846888 124.620834Q25.050013 124.683334 24.659388 125.01146Q24.050013 125.527084 24.050013 126.32396Q24.050013 127.058334 24.534388 127.558334Q25.018763 128.04271 25.846888 128.08958Z" fill-rule="nonzero"/><path fill="#000000" d="M65.05 300.21564Q65.05 298.6844 65.3625 297.7625Q65.675 296.825 66.28438 296.325Q66.90938 295.825 67.84688 295.825Q68.53438 295.825 69.05 296.10626Q69.58125 296.3875 69.925 296.91876Q70.26875 297.4344 70.45625 298.1844Q70.64375 298.9344 70.64375 300.21564Q70.64375 301.73126 70.33125 302.65314Q70.03438 303.575 69.40938 304.09064Q68.8 304.59064 67.84688 304.59064Q66.6125 304.59064 65.89375 303.7Q65.05 302.6375 65.05 300.21564ZM66.12813 300.21564Q66.12813 302.325 66.62813 303.02814Q67.12813 303.73126 67.84688 303.73126Q68.58125 303.73126 69.06563 303.02814Q69.56563 302.325 69.56563 300.21564Q69.56563 298.09064 69.06563 297.40314Q68.58125 296.7 67.83125 296.7Q67.1125 296.7 66.675 297.3094Q66.12813 298.09064 66.12813 300.21564Z" fill-rule="nonzero"/><path fill="#000000" d="M63.596874 223.92326L63.596874 224.93889L57.909374 224.93889Q57.909374 224.56389 58.034374 224.20451Q58.253124 223.62639 58.721874 223.06389Q59.20625 222.50139 60.1125 221.76701Q61.51875 220.61076 62.003124 219.93889Q62.503124 219.26701 62.503124 218.67326Q62.503124 218.04826 62.05 217.62639Q61.596874 217.18889 60.878124 217.18889Q60.1125 217.18889 59.659374 217.64201Q59.20625 218.09514 59.190624 218.90764L58.1125 218.79826Q58.221874 217.57951 58.940624 216.95451Q59.675 216.31389 60.909374 216.31389Q62.14375 216.31389 62.8625 217.00139Q63.58125 217.68889 63.58125 218.70451Q63.58125 219.22014 63.3625 219.72014Q63.159374 220.20451 62.659374 220.76701Q62.175 221.31389 61.05 222.26701Q60.096874 223.06389 59.815624 223.36076Q59.55 223.64201 59.378124 223.92326L63.596874 223.92326ZM65.05 220.70451Q65.05 219.17326 65.3625 218.25139Q65.675 217.31389 66.28438 216.81389Q66.90938 216.31389 67.84688 216.31389Q68.53438 216.31389 69.05 216.59514Q69.58125 216.87639 69.925 217.40764Q70.26875 217.92326 70.45625 218.67326Q70.64375 219.42326 70.64375 220.70451Q70.64375 222.22014 70.33125 223.14201Q70.03438 224.06389 69.40938 224.57951Q68.8 225.07951 67.84688 225.07951Q66.6125 225.07951 65.89375 224.18889Q65.05 223.12639 65.05 220.70451ZM66.12813 220.70451Q66.12813 222.81389 66.62813 223.51701Q67.12813 224.22014 67.84688 224.22014Q68.58125 224.22014 69.06563 223.51701Q69.56563 222.81389 69.56563 220.70451Q69.56563 218.57951 69.06563 217.89201Q68.58125 217.18889 67.83125 217.18889Q67.1125 217.18889 66.675 217.79826Q66.12813 218.57951 66.12813 220.70451Z" fill-rule="nonzero"/><path fill="#000000" d="M61.425 145.42778L61.425 143.36528L57.70625 143.36528L57.70625 142.39653L61.628124 136.83403L62.4875 136.83403L62.4875 142.39653L63.64375 142.39653L63.64375 143.36528L62.4875 143.36528L62.4875 145.42778L61.425 145.42778ZM61.425 142.39653L61.425 138.53716L58.7375 142.39653L61.425 142.39653ZM65.05 141.1934Q65.05 139.66216 65.3625 138.74028Q65.675 137.80278 66.28438 137.30278Q66.90938 136.80278 67.84688 136.80278Q68.53438 136.80278 69.05 137.08403Q69.58125 137.36528 69.925 137.89653Q70.26875 138.41216 70.45625 139.16216Q70.64375 139.91216 70.64375 141.1934Q70.64375 142.70903 70.33125 143.6309Q70.03438 144.55278 69.40938 145.0684Q68.8 145.5684 67.84688 145.5684Q66.6125 145.5684 65.89375 144.67778Q65.05 143.61528 65.05 141.1934ZM66.12813 141.1934Q66.12813 143.30278 66.62813 144.0059Q67.12813 144.70903 67.84688 144.70903Q68.58125 144.70903 69.06563 144.0059Q69.56563 143.30278 69.56563 141.1934Q69.56563 139.0684 69.06563 138.3809Q68.58125 137.67778 67.83125 137.67778Q67.1125 137.67778 66.675 138.28716Q66.12813 139.0684 66.12813 141.1934Z" fill-rule="nonzero"/><path fill="#000000" d="M63.51875 59.43229L62.471874 59.510414Q62.33125 58.885414 62.08125 58.604164Q61.64375 58.15104 61.01875 58.15104Q60.51875 58.15104 60.128124 58.43229Q59.64375 58.80729 59.346874 59.510414Q59.065624 60.197914 59.05 61.479164Q59.425 60.90104 59.971874 60.61979Q60.534374 60.33854 61.14375 60.33854Q62.190624 60.33854 62.925 61.11979Q63.675 61.90104 63.675 63.11979Q63.675 63.93229 63.315624 64.635414Q62.971874 65.322914 62.3625 65.697914Q61.753124 66.05729 60.9875 66.05729Q59.659374 66.05729 58.83125 65.08854Q58.003124 64.11979 58.003124 61.90104Q58.003124 59.40104 58.925 58.27604Q59.721874 57.291664 61.08125 57.291664Q62.096874 57.291664 62.7375 57.86979Q63.39375 58.43229 63.51875 59.43229ZM59.221874 63.135414Q59.221874 63.68229 59.440624 64.18229Q59.675 64.666664 60.08125 64.93229Q60.503124 65.197914 60.971874 65.197914Q61.628124 65.197914 62.1125 64.666664Q62.596874 64.11979 62.596874 63.197914Q62.596874 62.30729 62.1125 61.791664Q61.64375 61.27604 60.925 61.27604Q60.20625 61.27604 59.70625 61.791664Q59.221874 62.30729 59.221874 63.135414ZM65.05 61.68229Q65.05 60.15104 65.3625 59.229164Q65.675 58.291664 66.28438 57.791664Q66.90938 57.291664 67.84688 57.291664Q68.53438 57.291664 69.05 57.572914Q69.58125 57.854164 69.925 58.385414Q70.26875 58.90104 70.45625 59.65104Q70.64375 60.40104 70.64375 61.68229Q70.64375 63.197914 70.33125 64.11979Q70.03438 65.041664 69.40938 65.55729Q68.8 66.05729 67.84688 66.05729Q66.6125 66.05729 65.89375 65.166664Q65.05 64.104164 65.05 61.68229ZM66.12813 61.68229Q66.12813 63.791664 66.62813 64.49479Q67.12813 65.197914 67.84688 65.197914Q68.58125 65.197914 69.06563 64.49479Q69.56563 63.791664 69.56563 61.68229Q69.56563 59.55729 69.06563 58.86979Q68.58125 58.166664 67.83125 58.166664Q67.1125 58.166664 66.675 58.77604Q66.12813 59.55729 66.12813 61.68229Z" fill-rule="nonzero"/><path fill="#000000" d="M78.51875 317.45L77.47188 317.45L77.47188 310.73126Q77.08125 311.09064 76.45625 311.46564Q75.84688 311.825 75.3625 311.9969L75.3625 310.98126Q76.2375 310.5594 76.89375 309.98126Q77.56563 309.3875 77.84688 308.825L78.51875 308.825L78.51875 317.45Z" fill-rule="nonzero"/><path fill="#000000" d="M210.28162 317.45L209.23474 317.45L209.23474 310.73126Q208.84412 311.09064 208.21912 311.46564Q207.60974 311.825 207.12537 311.9969L207.12537 310.98126Q208.00037 310.5594 208.65662 309.98126Q209.32849 309.3875 209.60974 308.825L210.28162 308.825L210.28162 317.45ZM213.31287 313.21564Q213.31287 311.6844 213.62537 310.7625Q213.93787 309.825 214.54724 309.325Q215.17224 308.825 216.10974 308.825Q216.79724 308.825 217.31287 309.10626Q217.84412 309.3875 218.18787 309.91876Q218.53162 310.4344 218.71912 311.1844Q218.90662 311.9344 218.90662 313.21564Q218.90662 314.73126 218.59412 315.65314Q218.29724 316.575 217.67224 317.09064Q217.06287 317.59064 216.10974 317.59064Q214.87537 317.59064 214.15662 316.7Q213.31287 315.6375 213.31287 313.21564ZM214.39099 313.21564Q214.39099 315.325 214.89099 316.02814Q215.39099 316.73126 216.10974 316.73126Q216.84412 316.73126 217.32849 316.02814Q217.82849 315.325 217.82849 313.21564Q217.82849 311.09064 217.32849 310.40314Q216.84412 309.7 216.09412 309.7Q215.37537 309.7 214.93787 310.3094Q214.39099 311.09064 214.39099 313.21564Z" fill-rule="nonzero"/><path fill="#000000" d="M342.0445 317.45L340.99762 317.45L340.99762 310.73126Q340.607 311.09064 339.982 311.46564Q339.37262 311.825 338.88824 311.9969L338.88824 310.98126Q339.76324 310.5594 340.4195 309.98126Q341.09137 309.3875 341.37262 308.825L342.0445 308.825L342.0445 317.45ZM345.07574 313.21564Q345.07574 311.6844 345.38824 310.7625Q345.70074 309.825 346.31012 309.325Q346.93512 308.825 347.87262 308.825Q348.56012 308.825 349.07574 309.10626Q349.607 309.3875 349.95074 309.91876Q350.2945 310.4344 350.482 311.1844Q350.6695 311.9344 350.6695 313.21564Q350.6695 314.73126 350.357 315.65314Q350.06012 316.575 349.43512 317.09064Q348.82574 317.59064 347.87262 317.59064Q346.63824 317.59064 345.9195 316.7Q345.07574 315.6375 345.07574 313.21564ZM346.15387 313.21564Q346.15387 315.325 346.65387 316.02814Q347.15387 316.73126 347.87262 316.73126Q348.607 316.73126 349.09137 316.02814Q349.59137 315.325 349.59137 313.21564Q349.59137 311.09064 349.09137 310.40314Q348.607 309.7 347.857 309.7Q347.13824 309.7 346.70074 310.3094Q346.15387 311.09064 346.15387 313.21564ZM352.07574 313.21564Q352.07574 311.6844 352.38824 310.7625Q352.70074 309.825 353.31012 309.325Q353.93512 308.825 354.87262 308.825Q355.56012 308.825 356.07574 309.10626Q356.607 309.3875 356.95074 309.91876Q357.2945 310.4344 357.482 311.1844Q357.6695 311.9344 357.6695 313.21564Q357.6695 314.73126 357.357 315.65314Q357.06012 316.575 356.43512 317.09064Q355.82574 317.59064 354.87262 317.59064Q353.63824 317.59064 352.9195 316.7Q352.07574 315.6375 352.07574 313.21564ZM353.15387 313.21564Q353.15387 315.325 353.65387 316.02814Q354.15387 316.73126 354.87262 316.73126Q355.607 316.73126 356.09137 316.02814Q356.59137 315.325 356.59137 313.21564Q356.59137 311.09064 356.09137 310.40314Q355.607 309.7 354.857 309.7Q354.13824 309.7 353.70074 310.3094Q353.15387 311.09064 353.15387 313.21564Z" fill-rule="nonzero"/><path fill="#000000" d="M473.80737 317.45L472.7605 317.45L472.7605 310.73126Q472.36987 311.09064 471.74487 311.46564Q471.1355 311.825 470.65112 311.9969L470.65112 310.98126Q471.52612 310.5594 472.18237 309.98126Q472.85425 309.3875 473.1355 308.825L473.80737 308.825L473.80737 317.45ZM476.83862 313.21564Q476.83862 311.6844 477.15112 310.7625Q477.46362 309.825 478.073 309.325Q478.698 308.825 479.6355 308.825Q480.323 308.825 480.83862 309.10626Q481.36987 309.3875 481.71362 309.91876Q482.05737 310.4344 482.24487 311.1844Q482.43237 311.9344 482.43237 313.21564Q482.43237 314.73126 482.11987 315.65314Q481.823 316.575 481.198 317.09064Q480.58862 317.59064 479.6355 317.59064Q478.40112 317.59064 477.68237 316.7Q476.83862 315.6375 476.83862 313.21564ZM477.91675 313.21564Q477.91675 315.325 478.41675 316.02814Q478.91675 316.73126 479.6355 316.73126Q480.36987 316.73126 480.85425 316.02814Q481.35425 315.325 481.35425 313.21564Q481.35425 311.09064 480.85425 310.40314Q480.36987 309.7 479.61987 309.7Q478.90112 309.7 478.46362 310.3094Q477.91675 311.09064 477.91675 313.21564ZM483.83862 313.21564Q483.83862 311.6844 484.15112 310.7625Q484.46362 309.825 485.073 309.325Q485.698 308.825 486.6355 308.825Q487.323 308.825 487.83862 309.10626Q488.36987 309.3875 488.71362 309.91876Q489.05737 310.4344 489.24487 311.1844Q489.43237 311.9344 489.43237 313.21564Q489.43237 314.73126 489.11987 315.65314Q488.823 316.575 488.198 317.09064Q487.58862 317.59064 486.6355 317.59064Q485.40112 317.59064 484.68237 316.7Q483.83862 315.6375 483.83862 313.21564ZM484.91675 313.21564Q484.91675 315.325 485.41675 316.02814Q485.91675 316.73126 486.6355 316.73126Q487.36987 316.73126 487.85425 316.02814Q488.35425 315.325 488.35425 313.21564Q488.35425 311.09064 487.85425 310.40314Q487.36987 309.7 486.61987 309.7Q485.90112 309.7 485.46362 310.3094Q484.91675 311.09064 484.91675 313.21564ZM490.83862 313.21564Q490.83862 311.6844 491.15112 310.7625Q491.46362 309.825 492.073 309.325Q492.698 308.825 493.6355 308.825Q494.323 308.825 494.83862 309.10626Q495.36987 309.3875 495.71362 309.91876Q496.05737 310.4344 496.24487 311.1844Q496.43237 311.9344 496.43237 313.21564Q496.43237 314.73126 496.11987 315.65314Q495.823 316.575 495.198 317.09064Q494.58862 317.59064 493.6355 317.59064Q492.40112 317.59064 491.68237 316.7Q490.83862 315.6375 490.83862 313.21564ZM491.91675 313.21564Q491.91675 315.325 492.41675 316.02814Q492.91675 316.73126 493.6355 316.73126Q494.36987 316.73126 494.85425 316.02814Q495.35425 315.325 495.35425 313.21564Q495.35425 311.09064 494.85425 310.40314Q494.36987 309.7 493.61987 309.7Q492.90112 309.7 492.46362 310.3094Q491.91675 311.09064 491.91675 313.21564Z" fill-rule="nonzero"/><path fill="#757575" d="M99.3125 37.55L99.3125 27.175L100.890625 27.175L100.890625 28.628124Q101.375 27.878124 102.1875 27.409374Q103.0 26.940624 104.03125 26.940624Q105.1875 26.940624 105.921875 27.425Q106.65625 27.89375 106.96875 28.753124Q108.203125 26.940624 110.171875 26.940624Q111.71875 26.940624 112.546875 27.8Q113.375 28.659374 113.375 30.425L113.375 37.55L111.625 37.55L111.625 31.01875Q111.625 29.95625 111.453125 29.503124Q111.28125 29.034374 110.828125 28.753124Q110.390625 28.471874 109.78125 28.471874Q108.6875 28.471874 107.953125 29.20625Q107.234375 29.925 107.234375 31.51875L107.234375 37.55L105.484375 37.55L105.484375 30.815624Q105.484375 29.64375 105.046875 29.065624Q104.625 28.471874 103.640625 28.471874Q102.90625 28.471874 102.265625 28.8625Q101.640625 29.253124 101.359375 30.003124Q101.078125 30.753124 101.078125 32.175L101.078125 37.55L99.3125 37.55ZM122.421875 34.20625L124.234375 34.440624Q123.8125 36.01875 122.640625 36.909374Q121.484375 37.784374 119.671875 37.784374Q117.40625 37.784374 116.0625 36.39375Q114.734375 34.9875 114.734375 32.45625Q114.734375 29.83125 116.078125 28.39375Q117.421875 26.940624 119.578125 26.940624Q121.65625 26.940624 122.96875 28.3625Q124.296875 29.76875 124.296875 32.346874Q124.296875 32.503124 124.28125 32.815624L116.546875 32.815624Q116.640625 34.51875 117.515625 35.425Q118.390625 36.33125 119.6875 36.33125Q120.65625 36.33125 121.328125 35.83125Q122.015625 35.315624 122.421875 34.20625ZM116.640625 31.3625L122.4375 31.3625Q122.328125 30.065624 121.78125 29.409374Q120.9375 28.39375 119.59375 28.39375Q118.390625 28.39375 117.5625 29.20625Q116.734375 30.003124 116.640625 31.3625ZM126.3125 37.55L126.3125 27.175L127.890625 27.175L127.890625 28.628124Q128.375 27.878124 129.1875 27.409374Q130.0 26.940624 131.03125 26.940624Q132.1875 26.940624 132.92188 27.425Q133.65625 27.89375 133.96875 28.753124Q135.20312 26.940624 137.17188 26.940624Q138.71875 26.940624 139.54688 27.8Q140.375 28.659374 140.375 30.425L140.375 37.55L138.625 37.55L138.625 31.01875Q138.625 29.95625 138.45312 29.503124Q138.28125 29.034374 137.82812 28.753124Q137.39062 28.471874 136.78125 28.471874Q135.6875 28.471874 134.95312 29.20625Q134.23438 29.925 134.23438 31.51875L134.23438 37.55L132.48438 37.55L132.48438 30.815624Q132.48438 29.64375 132.04688 29.065624Q131.625 28.471874 130.64062 28.471874Q129.90625 28.471874 129.26562 28.8625Q128.64062 29.253124 128.35938 30.003124Q128.07812 30.753124 128.07812 32.175L128.07812 37.55L126.3125 37.55ZM149.09375 33.753124L150.8125 33.971874Q150.53125 35.76875 149.35938 36.784374Q148.20312 37.784374 146.5 37.784374Q144.375 37.784374 143.07812 36.39375Q141.78125 35.003124 141.78125 32.409374Q141.78125 30.721874 142.32812 29.471874Q142.89062 28.20625 144.03125 27.58125Q145.17188 26.940624 146.51562 26.940624Q148.20312 26.940624 149.26562 27.8Q150.34375 28.659374 150.65625 30.221874L148.9375 30.4875Q148.70312 29.440624 148.07812 28.925Q147.45312 28.39375 146.57812 28.39375Q145.25 28.39375 144.42188 29.346874Q143.59375 30.3 143.59375 32.346874Q143.59375 34.440624 144.39062 35.39375Q145.1875 36.33125 146.48438 36.33125Q147.51562 36.33125 148.20312 35.70625Q148.90625 35.065624 149.09375 33.753124ZM152.3125 41.51875L152.3125 27.175L153.92188 27.175L153.92188 28.51875Q154.48438 27.7375 155.1875 27.346874Q155.90625 26.940624 156.92188 26.940624Q158.25 26.940624 159.26562 27.628124Q160.28125 28.315624 160.79688 29.565624Q161.32812 30.8 161.32812 32.284374Q161.32812 33.878124 160.75 35.159374Q160.1875 36.425 159.09375 37.1125Q158.0 37.784374 156.79688 37.784374Q155.92188 37.784374 155.21875 37.409374Q154.53125 37.034374 154.07812 36.471874L154.07812 41.51875L152.3125 41.51875ZM153.90625 32.425Q153.90625 34.425 154.71875 35.378124Q155.53125 36.33125 156.6875 36.33125Q157.85938 36.33125 158.6875 35.346874Q159.53125 34.3625 159.53125 32.26875Q159.53125 30.3 158.70312 29.315624Q157.89062 28.315624 156.76562 28.315624Q155.64062 28.315624 154.76562 29.378124Q153.90625 30.425 153.90625 32.425ZM163.23438 41.55L163.04688 39.89375Q163.625 40.05 164.04688 40.05Q164.64062 40.05 164.98438 39.846874Q165.34375 39.659374 165.5625 39.315624Q165.73438 39.05 166.10938 38.003124Q166.15625 37.846874 166.26562 37.565624L162.32812 27.175L164.21875 27.175L166.375 33.190624Q166.79688 34.33125 167.125 35.58125Q167.4375 34.378124 167.84375 33.221874L170.0625 27.175L171.82812 27.175L167.875 37.721874Q167.25 39.440624 166.89062 40.08125Q166.42188 40.95625 165.8125 41.346874Q165.21875 41.753124 164.375 41.753124Q163.85938 41.753124 163.23438 41.55ZM178.60938 34.45625L180.35938 34.175Q180.5 35.221874 181.17188 35.784374Q181.84375 36.33125 183.04688 36.33125Q184.25 36.33125 184.82812 35.846874Q185.42188 35.346874 185.42188 34.690624Q185.42188 34.096874 184.90625 33.753124Q184.54688 33.51875 183.10938 33.159374Q181.17188 32.659374 180.42188 32.315624Q179.6875 31.95625 179.29688 31.33125Q178.90625 30.690624 178.90625 29.925Q178.90625 29.2375 179.21875 28.64375Q179.54688 28.05 180.09375 27.659374Q180.5 27.3625 181.20312 27.159374Q181.92188 26.940624 182.73438 26.940624Q183.95312 26.940624 184.875 27.3Q185.79688 27.64375 186.23438 28.253124Q186.67188 28.846874 186.84375 29.846874L185.125 30.08125Q185.0 29.284374 184.4375 28.846874Q183.875 28.39375 182.85938 28.39375Q181.64062 28.39375 181.125 28.8Q180.60938 29.190624 180.60938 29.721874Q180.60938 30.065624 180.82812 30.346874Q181.03125 30.628124 181.5 30.815624Q181.76562 30.909374 183.04688 31.253124Q184.92188 31.753124 185.65625 32.08125Q186.39062 32.39375 186.8125 33.003124Q187.23438 33.596874 187.23438 34.503124Q187.23438 35.378124 186.71875 36.159374Q186.20312 36.940624 185.23438 37.3625Q184.26562 37.784374 183.04688 37.784374Q181.03125 37.784374 179.96875 36.940624Q178.90625 36.096874 178.60938 34.45625ZM189.3125 41.51875L189.3125 27.175L190.92188 27.175L190.92188 28.51875Q191.48438 27.7375 192.1875 27.346874Q192.90625 26.940624 193.92188 26.940624Q195.25 26.940624 196.26562 27.628124Q197.28125 28.315624 197.79688 29.565624Q198.32812 30.8 198.32812 32.284374Q198.32812 33.878124 197.75 35.159374Q197.1875 36.425 196.09375 37.1125Q195.0 37.784374 193.79688 37.784374Q192.92188 37.784374 192.21875 37.409374Q191.53125 37.034374 191.07812 36.471874L191.07812 41.51875L189.3125 41.51875ZM190.90625 32.425Q190.90625 34.425 191.71875 35.378124Q192.53125 36.33125 193.6875 36.33125Q194.85938 36.33125 195.6875 35.346874Q196.53125 34.3625 196.53125 32.26875Q196.53125 30.3 195.70312 29.315624Q194.89062 28.315624 193.76562 28.315624Q192.64062 28.315624 191.76562 29.378124Q190.90625 30.425 190.90625 32.425ZM207.42188 34.20625L209.23438 34.440624Q208.8125 36.01875 207.64062 36.909374Q206.48438 37.784374 204.67188 37.784374Q202.40625 37.784374 201.0625 36.39375Q199.73438 34.9875 199.73438 32.45625Q199.73438 29.83125 201.07812 28.39375Q202.42188 26.940624 204.57812 26.940624Q206.65625 26.940624 207.96875 28.3625Q209.29688 29.76875 209.29688 32.346874Q209.29688 32.503124 209.28125 32.815624L201.54688 32.815624Q201.64062 34.51875 202.51562 35.425Q203.39062 36.33125 204.6875 36.33125Q205.65625 36.33125 206.32812 35.83125Q207.01562 35.315624 207.42188 34.20625ZM201.64062 31.3625L207.4375 31.3625Q207.32812 30.065624 206.78125 29.409374Q205.9375 28.39375 204.59375 28.39375Q203.39062 28.39375 202.5625 29.20625Q201.73438 30.003124 201.64062 31.3625ZM218.42188 34.20625L220.23438 34.440624Q219.8125 36.01875 218.64062 36.909374Q217.48438 37.784374 215.67188 37.784374Q213.40625 37.784374 212.0625 36.39375Q210.73438 34.9875 210.73438 32.45625Q210.73438 29.83125 212.07812 28.39375Q213.42188 26.940624 215.57812 26.940624Q217.65625 26.940624 218.96875 28.3625Q220.29688 29.76875 220.29688 32.346874Q220.29688 32.503124 220.28125 32.815624L212.54688 32.815624Q212.64062 34.51875 213.51562 35.425Q214.39062 36.33125 215.6875 36.33125Q216.65625 36.33125 217.32812 35.83125Q218.01562 35.315624 218.42188 34.20625ZM212.64062 31.3625L218.4375 31.3625Q218.32812 30.065624 217.78125 29.409374Q216.9375 28.39375 215.59375 28.39375Q214.39062 28.39375 213.5625 29.20625Q212.73438 30.003124 212.64062 31.3625ZM229.04688 37.55L229.04688 36.2375Q228.0625 37.784374 226.14062 37.784374Q224.90625 37.784374 223.85938 37.096874Q222.82812 36.409374 222.25 35.190624Q221.6875 33.971874 221.6875 32.378124Q221.6875 30.815624 222.20312 29.55Q222.71875 28.284374 223.75 27.6125Q224.79688 26.940624 226.0625 26.940624Q227.0 26.940624 227.73438 27.346874Q228.46875 27.7375 228.9375 28.3625L228.9375 23.2375L230.67188 23.2375L230.67188 37.55L229.04688 37.55ZM223.48438 32.378124Q223.48438 34.3625 224.32812 35.346874Q225.17188 36.33125 226.3125 36.33125Q227.46875 36.33125 228.26562 35.39375Q229.07812 34.45625 229.07812 32.51875Q229.07812 30.39375 228.25 29.39375Q227.4375 28.39375 226.23438 28.39375Q225.0625 28.39375 224.26562 29.3625Q223.48438 30.315624 223.48438 32.378124ZM240.10938 37.55L240.10938 36.01875Q238.90625 37.784374 236.82812 37.784374Q235.90625 37.784374 235.10938 37.440624Q234.3125 37.08125 233.92188 36.55Q233.54688 36.01875 233.39062 35.2375Q233.28125 34.721874 233.28125 33.596874L233.28125 27.175L235.03125 27.175L235.03125 32.925Q235.03125 34.3 235.14062 34.784374Q235.3125 35.471874 235.84375 35.878124Q236.39062 36.26875 237.17188 36.26875Q237.96875 36.26875 238.65625 35.8625Q239.35938 35.45625 239.64062 34.76875Q239.9375 34.065624 239.9375 32.7375L239.9375 27.175L241.6875 27.175L241.6875 37.55L240.10938 37.55ZM243.3125 41.51875L243.3125 27.175L244.92188 27.175L244.92188 28.51875Q245.48438 27.7375 246.1875 27.346874Q246.90625 26.940624 247.92188 26.940624Q249.25 26.940624 250.26562 27.628124Q251.28125 28.315624 251.79688 29.565624Q252.32812 30.8 252.32812 32.284374Q252.32812 33.878124 251.75 35.159374Q251.1875 36.425 250.09375 37.1125Q249.0 37.784374 247.79688 37.784374Q246.92188 37.784374 246.21875 37.409374Q245.53125 37.034374 245.07812 36.471874L245.07812 41.51875L243.3125 41.51875ZM244.90625 32.425Q244.90625 34.425 245.71875 35.378124Q246.53125 36.33125 247.6875 36.33125Q248.85938 36.33125 249.6875 35.346874Q250.53125 34.3625 250.53125 32.26875Q250.53125 30.3 249.70312 29.315624Q248.89062 28.315624 247.76562 28.315624Q246.64062 28.315624 245.76562 29.378124Q244.90625 30.425 244.90625 32.425ZM264.64062 37.55L259.09375 23.2375L261.14062 23.2375L264.85938 33.628124Q265.3125 34.878124 265.60938 35.971874Q265.9375 34.8 266.39062 33.628124L270.25 23.2375L272.1875 23.2375L266.57812 37.55L264.64062 37.55ZM273.46875 37.55L273.46875 23.2375L275.35938 23.2375L275.35938 35.8625L282.40625 35.8625L282.40625 37.55L273.46875 37.55ZM284.57812 37.55L284.57812 23.2375L294.9375 23.2375L294.9375 24.925L286.48438 24.925L286.48438 29.3L294.39062 29.3L294.39062 30.9875L286.48438 30.9875L286.48438 35.8625L295.26562 35.8625L295.26562 37.55L284.57812 37.55ZM297.53125 37.55L297.53125 23.2375L299.46875 23.2375L306.98438 34.471874L306.98438 23.2375L308.79688 23.2375L308.79688 37.55L306.85938 37.55L299.34375 26.3L299.34375 37.55L297.53125 37.55ZM319.5625 29.128124L310.10938 29.128124L310.10938 27.4875L319.5625 27.4875L319.5625 29.128124ZM319.5625 33.471874L310.10938 33.471874L310.10938 31.83125L319.5625 31.83125L319.5625 33.471874ZM328.45312 37.55L326.6875 37.55L326.6875 26.346874Q326.0625 26.95625 325.03125 27.565624Q324.0 28.159374 323.17188 28.471874L323.17188 26.76875Q324.65625 26.08125 325.75 25.096874Q326.85938 24.096874 327.3125 23.175L328.45312 23.175L328.45312 37.55ZM332.82812 30.4875Q332.82812 27.95625 333.34375 26.409374Q333.875 24.846874 334.90625 24.01875Q335.9375 23.175 337.5 23.175Q338.65625 23.175 339.51562 23.64375Q340.39062 24.096874 340.95312 24.971874Q341.51562 25.846874 341.84375 27.1125Q342.17188 28.3625 342.17188 30.4875Q342.17188 33.003124 341.64062 34.55Q341.125 36.096874 340.09375 36.95625Q339.07812 37.8 337.5 37.8Q335.42188 37.8 334.25 36.315624Q332.82812 34.51875 332.82812 30.4875ZM334.64062 30.4875Q334.64062 34.01875 335.45312 35.190624Q336.28125 36.346874 337.5 36.346874Q338.70312 36.346874 339.53125 35.175Q340.35938 34.003124 340.35938 30.4875Q340.35938 26.95625 339.53125 25.8Q338.70312 24.628124 337.48438 24.628124Q336.26562 24.628124 335.54688 25.659374Q334.64062 26.95625 334.64062 30.4875ZM353.0625 35.8625L353.0625 37.55L343.60938 37.55Q343.59375 36.909374 343.8125 36.33125Q344.17188 35.3625 344.96875 34.425Q345.76562 33.4875 347.26562 32.253124Q349.60938 30.346874 350.42188 29.2375Q351.25 28.1125 351.25 27.1125Q351.25 26.065624 350.5 25.346874Q349.75 24.628124 348.54688 24.628124Q347.28125 24.628124 346.51562 25.39375Q345.75 26.159374 345.75 27.503124L343.9375 27.315624Q344.125 25.3 345.32812 24.2375Q346.54688 23.175 348.59375 23.175Q350.64062 23.175 351.84375 24.315624Q353.04688 25.45625 353.04688 27.14375Q353.04688 28.003124 352.6875 28.846874Q352.34375 29.675 351.53125 30.596874Q350.71875 31.503124 348.82812 33.1125Q347.23438 34.440624 346.78125 34.909374Q346.34375 35.378124 346.04688 35.8625L353.0625 35.8625ZM360.46875 37.55L360.46875 34.128124L354.25 34.128124L354.25 32.503124L360.78125 23.2375L362.21875 23.2375L362.21875 32.503124L364.15625 32.503124L364.15625 34.128124L362.21875 34.128124L362.21875 37.55L360.46875 37.55ZM360.46875 32.503124L360.46875 26.05L355.98438 32.503124L360.46875 32.503124ZM372.46875 37.55L372.46875 23.2375L374.35938 23.2375L374.35938 35.8625L381.40625 35.8625L381.40625 37.55L372.46875 37.55ZM383.48438 37.55L383.48438 23.2375L386.34375 23.2375L389.71875 33.3625Q390.1875 34.784374 390.40625 35.4875Q390.65625 34.70625 391.17188 33.190624L394.59375 23.2375L397.14062 23.2375L397.14062 37.55L395.32812 37.55L395.32812 25.565624L391.15625 37.55L389.45312 37.55L385.3125 25.3625L385.3125 37.55L383.48438 37.55ZM409.9375 23.2375L411.82812 23.2375L411.82812 31.503124Q411.82812 33.659374 411.34375 34.940624Q410.85938 36.20625 409.57812 37.003124Q408.3125 37.8 406.23438 37.8Q404.21875 37.8 402.9375 37.1125Q401.67188 36.409374 401.125 35.096874Q400.57812 33.784374 400.57812 31.503124L400.57812 23.2375L402.46875 23.2375L402.46875 31.4875Q402.46875 33.3625 402.8125 34.253124Q403.15625 35.128124 404.0 35.6125Q404.84375 36.08125 406.07812 36.08125Q408.15625 36.08125 409.04688 35.14375Q409.9375 34.190624 409.9375 31.4875L409.9375 23.2375ZM413.46875 37.55L413.46875 23.2375L415.35938 23.2375L415.35938 35.8625L422.40625 35.8625L422.40625 37.55L413.46875 37.55ZM433.5625 29.128124L424.10938 29.128124L424.10938 27.4875L433.5625 27.4875L433.5625 29.128124ZM433.5625 33.471874L424.10938 33.471874L424.10938 31.83125L433.5625 31.83125L433.5625 33.471874ZM438.53125 29.784374Q437.4375 29.378124 436.90625 28.64375Q436.39062 27.89375 436.39062 26.8625Q436.39062 25.3 437.51562 24.2375Q438.64062 23.175 440.5 23.175Q442.375 23.175 443.51562 24.26875Q444.65625 25.346874 444.65625 26.909374Q444.65625 27.909374 444.125 28.64375Q443.60938 29.378124 442.54688 29.784374Q443.875 30.221874 444.5625 31.175Q445.25 32.128124 445.25 33.45625Q445.25 35.3 443.9375 36.55Q442.64062 37.8 440.53125 37.8Q438.40625 37.8 437.10938 36.55Q435.8125 35.284374 435.8125 33.409374Q435.8125 32.01875 436.51562 31.08125Q437.23438 30.128124 438.53125 29.784374ZM438.1875 26.8Q438.1875 27.815624 438.84375 28.471874Q439.5 29.1125 440.53125 29.1125Q441.54688 29.1125 442.20312 28.471874Q442.85938 27.83125 442.85938 26.909374Q442.85938 25.940624 442.1875 25.284374Q441.51562 24.6125 440.51562 24.6125Q439.51562 24.6125 438.84375 25.26875Q438.1875 25.909374 438.1875 26.8ZM437.625 33.425Q437.625 34.175 437.96875 34.878124Q438.32812 35.58125 439.03125 35.971874Q439.73438 36.346874 440.54688 36.346874Q441.8125 36.346874 442.625 35.534374Q443.45312 34.721874 443.45312 33.471874Q443.45312 32.20625 442.60938 31.378124Q441.76562 30.55 440.48438 30.55Q439.25 30.55 438.4375 31.378124Q437.625 32.190624 437.625 33.425Z" fill-rule="nonzero"/></svg>