<svg version="1.1" viewBox="0.0 0.0 544.0 371.0" fill="none" stroke="none" stroke-linecap="square" stroke-miterlimit="10" width="544" height="371" xmlns:xlink="http://www.w3.org/1999/xlink" xmlns="http://www.w3.org/2000/svg"><path fill="#ffffff" d="M0 0L544.0 0L544.0 371.0L0 371.0L0 0Z" fill-rule="nonzero"/><path stroke="#cccccc" stroke-width="1.0" stroke-linecap="butt" d="M77.5 88.5L77.5 300.5" fill-rule="nonzero"/><path stroke="#cccccc" stroke-width="1.0" stroke-linecap="butt" d="M192.5 88.5L192.5 300.5" fill-rule="nonzero"/><path stroke="#cccccc" stroke-width="1.0" stroke-linecap="butt" d="M306.5 88.5L306.5 300.5" fill-rule="nonzero"/><path stroke="#cccccc" stroke-width="1.0" stroke-linecap="butt" d="M420.5 88.5L420.5 300.5" fill-rule="nonzero"/><path stroke="#333333" stroke-width="1.0" stroke-linecap="butt" d="M77.5 300.5L525.5 300.5" fill-rule="nonzero"/><path stroke="#cccccc" stroke-width="1.0" stroke-linecap="butt" d="M77.5 247.5L525.5 247.5" fill-rule="nonzero"/><path stroke="#cccccc" stroke-width="1.0" stroke-linecap="butt" d="M77.5 194.5L525.5 194.5" fill-rule="nonzero"/><path stroke="#cccccc" stroke-width="1.0" stroke-linecap="butt" d="M77.5 141.5L525.5 141.5" fill-rule="nonzero"/><path stroke="#cccccc" stroke-width="1.0" stroke-linecap="butt" d="M77.5 88.5L525.5 88.5" fill-rule="nonzero"/><clipPath id="id_0"><path d="M77.55 88.28333L525.45 88.28333L525.45 300.45L77.55 300.45L77.55 88.28333Z" clip-rule="nonzero"/></clipPath><path stroke="#ea4335" stroke-width="2.0" stroke-linecap="butt" clip-path="url(#id_0)" d="M77.55 299.4059L112.003845 299.00537L146.45769 297.96176L180.91154 296.4071L215.36539 292.98306L249.81923 287.32303L284.27307 277.88507L318.72693 265.17496L353.18076 249.46156L387.6346 235.29239L422.08847 224.32874L456.5423 224.53734L490.99615 223.89622L525.45 224.40425" fill-rule="nonzero"/><path stroke="#fbbc04" stroke-width="2.0" stroke-linecap="butt" clip-path="url(#id_0)" d="M77.55 298.02188L112.003845 297.95355L146.45769 297.88666L180.91154 290.48807L215.36539 287.81107L249.81923 289.34793L284.27307 288.4288L318.72693 287.9935L353.18076 287.70288L387.6346 287.49374L422.08847 287.3806L456.5423 284.53345L490.99615 284.55634L525.45 284.58463" fill-rule="nonzero"/><path stroke="#34a853" stroke-width="2.0" stroke-linecap="butt" clip-path="url(#id_0)" d="M77.55 297.17453L112.003845 296.18622L146.45769 292.3833L180.91154 286.65942L215.36539 293.3722L249.81923 287.98917L284.27307 279.07898L318.72693 266.38092L353.18076 250.42969L387.6346 236.35619L422.08847 225.24586L456.5423 224.90407L490.99615 224.82079L525.45 224.7725" fill-rule="nonzero"/><path stroke="#ff6d01" stroke-width="2.0" stroke-linecap="butt" clip-path="url(#id_0)" d="M77.55 296.9393L112.003845 296.04437L146.45769 292.2878L180.91154 286.28723L215.36539 293.43857L249.81923 287.64514L284.27307 276.4076L318.72693 256.16022L353.18076 218.97363L387.6346 165.07944L422.08847 96.46492L456.5423 94.68672L490.99615 98.4468L525.45 92.084656" fill-rule="nonzero"/><path fill="#000000" fill-opacity="0.0" clip-path="url(#id_0)" d="M80.55 299.4059C80.55 301.06274 79.206856 302.4059 77.55 302.4059C75.89314 302.4059 74.55 301.06274 74.55 299.4059C74.55 297.74905 75.89314 296.4059 77.55 296.4059C79.206856 296.4059 80.55 297.74905 80.55 299.4059Z" fill-rule="nonzero"/><path fill="#000000" fill-opacity="0.0" clip-path="url(#id_0)" d="M115.003845 299.00537C115.003845 300.66223 113.6607 302.00537 112.003845 302.00537C110.34699 302.00537 109.003845 300.66223 109.003845 299.00537C109.003845 297.3485 110.34699 296.00537 112.003845 296.00537C113.6607 296.00537 115.003845 297.3485 115.003845 299.00537Z" fill-rule="nonzero"/><path fill="#000000" fill-opacity="0.0" clip-path="url(#id_0)" d="M149.45769 297.96176C149.45769 299.61862 148.11455 300.96176 146.45769 300.96176C144.80084 300.96176 143.45769 299.61862 143.45769 297.96176C143.45769 296.3049 144.80084 294.96176 146.45769 294.96176C148.11455 294.96176 149.45769 296.3049 149.45769 297.96176Z" fill-rule="nonzero"/><path fill="#000000" fill-opacity="0.0" clip-path="url(#id_0)" d="M183.91154 296.4071C183.91154 298.06396 182.56839 299.4071 180.91154 299.4071C179.25468 299.4071 177.91154 298.06396 177.91154 296.4071C177.91154 294.75027 179.25468 293.4071 180.91154 293.4071C182.56839 293.4071 183.91154 294.75027 183.91154 296.4071Z" fill-rule="nonzero"/><path fill="#000000" fill-opacity="0.0" clip-path="url(#id_0)" d="M218.36539 292.98306C218.36539 294.63992 217.02223 295.98306 215.36539 295.98306C213.70853 295.98306 212.36539 294.63992 212.36539 292.98306C212.36539 291.32623 213.70853 289.98306 215.36539 289.98306C217.02223 289.98306 218.36539 291.32623 218.36539 292.98306Z" fill-rule="nonzero"/><path fill="#000000" fill-opacity="0.0" clip-path="url(#id_0)" d="M252.81923 287.32303C252.81923 288.9799 251.47609 290.32303 249.81923 290.32303C248.16238 290.32303 246.81923 288.9799 246.81923 287.32303C246.81923 285.66617 248.16238 284.32303 249.81923 284.32303C251.47609 284.32303 252.81923 285.66617 252.81923 287.32303Z" fill-rule="nonzero"/><path fill="#000000" fill-opacity="0.0" clip-path="url(#id_0)" d="M287.27307 277.88507C287.27307 279.54193 285.92993 280.88507 284.27307 280.88507C282.6162 280.88507 281.27307 279.54193 281.27307 277.88507C281.27307 276.2282 282.6162 274.88507 284.27307 274.88507C285.92993 274.88507 287.27307 276.2282 287.27307 277.88507Z" fill-rule="nonzero"/><path fill="#000000" fill-opacity="0.0" clip-path="url(#id_0)" d="M321.72693 265.17496C321.72693 266.8318 320.3838 268.17496 318.72693 268.17496C317.07007 268.17496 315.72693 266.8318 315.72693 265.17496C315.72693 263.5181 317.07007 262.17496 318.72693 262.17496C320.3838 262.17496 321.72693 263.5181 321.72693 265.17496Z" fill-rule="nonzero"/><path fill="#000000" fill-opacity="0.0" clip-path="url(#id_0)" d="M356.18076 249.46156C356.18076 251.11841 354.83762 252.46156 353.18076 252.46156C351.52393 252.46156 350.18076 251.11841 350.18076 249.46156C350.18076 247.8047 351.52393 246.46156 353.18076 246.46156C354.83762 246.46156 356.18076 247.8047 356.18076 249.46156Z" fill-rule="nonzero"/><path fill="#000000" fill-opacity="0.0" clip-path="url(#id_0)" d="M390.6346 235.29239C390.6346 236.94923 389.29147 238.29239 387.6346 238.29239C385.97775 238.29239 384.6346 236.94923 384.6346 235.29239C384.6346 233.63553 385.97775 232.29239 387.6346 232.29239C389.29147 232.29239 390.6346 233.63553 390.6346 235.29239Z" fill-rule="nonzero"/><path fill="#000000" fill-opacity="0.0" clip-path="url(#id_0)" d="M425.08847 224.32874C425.08847 225.9856 423.74533 227.32874 422.08847 227.32874C420.4316 227.32874 419.08847 225.9856 419.08847 224.32874C419.08847 222.67189 420.4316 221.32874 422.08847 221.32874C423.74533 221.32874 425.08847 222.67189 425.08847 224.32874Z" fill-rule="nonzero"/><path fill="#000000" fill-opacity="0.0" clip-path="url(#id_0)" d="M459.5423 224.53734C459.5423 226.19418 458.19916 227.53734 456.5423 227.53734C454.88547 227.53734 453.5423 226.19418 453.5423 224.53734C453.5423 222.88048 454.88547 221.53734 456.5423 221.53734C458.19916 221.53734 459.5423 222.88048 459.5423 224.53734Z" fill-rule="nonzero"/><path fill="#000000" fill-opacity="0.0" clip-path="url(#id_0)" d="M493.99615 223.89622C493.99615 225.55307 492.653 226.89622 490.99615 226.89622C489.3393 226.89622 487.99615 225.55307 487.99615 223.89622C487.99615 222.23936 489.3393 220.89622 490.99615 220.89622C492.653 220.89622 493.99615 222.23936 493.99615 223.89622Z" fill-rule="nonzero"/><path fill="#000000" fill-opacity="0.0" clip-path="url(#id_0)" d="M528.45 224.40425C528.45 226.06111 527.1069 227.40425 525.45 227.40425C523.79315 227.40425 522.45 226.06111 522.45 224.40425C522.45 222.7474 523.79315 221.40425 525.45 221.40425C527.1069 221.40425 528.45 222.7474 528.45 224.40425Z" fill-rule="nonzero"/><path fill="#000000" fill-opacity="0.0" clip-path="url(#id_0)" d="M80.55 298.02188C80.55 299.67874 79.206856 301.02188 77.55 301.02188C75.89314 301.02188 74.55 299.67874 74.55 298.02188C74.55 296.36502 75.89314 295.02188 77.55 295.02188C79.206856 295.02188 80.55 296.36502 80.55 298.02188Z" fill-rule="nonzero"/><path fill="#000000" fill-opacity="0.0" clip-path="url(#id_0)" d="M115.003845 297.95355C115.003845 299.6104 113.6607 300.95355 112.003845 300.95355C110.34699 300.95355 109.003845 299.6104 109.003845 297.95355C109.003845 296.2967 110.34699 294.95355 112.003845 294.95355C113.6607 294.95355 115.003845 296.2967 115.003845 297.95355Z" fill-rule="nonzero"/><path fill="#000000" fill-opacity="0.0" clip-path="url(#id_0)" d="M149.45769 297.88666C149.45769 299.5435 148.11455 300.88666 146.45769 300.88666C144.80084 300.88666 143.45769 299.5435 143.45769 297.88666C143.45769 296.2298 144.80084 294.88666 146.45769 294.88666C148.11455 294.88666 149.45769 296.2298 149.45769 297.88666Z" fill-rule="nonzero"/><path fill="#000000" fill-opacity="0.0" clip-path="url(#id_0)" d="M183.91154 290.48807C183.91154 292.1449 182.56839 293.48807 180.91154 293.48807C179.25468 293.48807 177.91154 292.1449 177.91154 290.48807C177.91154 288.8312 179.25468 287.48807 180.91154 287.48807C182.56839 287.48807 183.91154 288.8312 183.91154 290.48807Z" fill-rule="nonzero"/><path fill="#000000" fill-opacity="0.0" clip-path="url(#id_0)" d="M218.36539 287.81107C218.36539 289.46793 217.02223 290.81107 215.36539 290.81107C213.70853 290.81107 212.36539 289.46793 212.36539 287.81107C212.36539 286.1542 213.70853 284.81107 215.36539 284.81107C217.02223 284.81107 218.36539 286.1542 218.36539 287.81107Z" fill-rule="nonzero"/><path fill="#000000" fill-opacity="0.0" clip-path="url(#id_0)" d="M252.81923 289.34793C252.81923 291.0048 251.47609 292.34793 249.81923 292.34793C248.16238 292.34793 246.81923 291.0048 246.81923 289.34793C246.81923 287.69107 248.16238 286.34793 249.81923 286.34793C251.47609 286.34793 252.81923 287.69107 252.81923 289.34793Z" fill-rule="nonzero"/><path fill="#000000" fill-opacity="0.0" clip-path="url(#id_0)" d="M287.27307 288.4288C287.27307 290.08566 285.92993 291.4288 284.27307 291.4288C282.6162 291.4288 281.27307 290.08566 281.27307 288.4288C281.27307 286.77194 282.6162 285.4288 284.27307 285.4288C285.92993 285.4288 287.27307 286.77194 287.27307 288.4288Z" fill-rule="nonzero"/><path fill="#000000" fill-opacity="0.0" clip-path="url(#id_0)" d="M321.72693 287.9935C321.72693 289.65036 320.3838 290.9935 318.72693 290.9935C317.07007 290.9935 315.72693 289.65036 315.72693 287.9935C315.72693 286.33664 317.07007 284.9935 318.72693 284.9935C320.3838 284.9935 321.72693 286.33664 321.72693 287.9935Z" fill-rule="nonzero"/><path fill="#000000" fill-opacity="0.0" clip-path="url(#id_0)" d="M356.18076 287.70288C356.18076 289.35974 354.83762 290.70288 353.18076 290.70288C351.52393 290.70288 350.18076 289.35974 350.18076 287.70288C350.18076 286.04602 351.52393 284.70288 353.18076 284.70288C354.83762 284.70288 356.18076 286.04602 356.18076 287.70288Z" fill-rule="nonzero"/><path fill="#000000" fill-opacity="0.0" clip-path="url(#id_0)" d="M390.6346 287.49374C390.6346 289.1506 389.29147 290.49374 387.6346 290.49374C385.97775 290.49374 384.6346 289.1506 384.6346 287.49374C384.6346 285.83688 385.97775 284.49374 387.6346 284.49374C389.29147 284.49374 390.6346 285.83688 390.6346 287.49374Z" fill-rule="nonzero"/><path fill="#000000" fill-opacity="0.0" clip-path="url(#id_0)" d="M425.08847 287.3806C425.08847 289.03745 423.74533 290.3806 422.08847 290.3806C420.4316 290.3806 419.08847 289.03745 419.08847 287.3806C419.08847 285.72375 420.4316 284.3806 422.08847 284.3806C423.74533 284.3806 425.08847 285.72375 425.08847 287.3806Z" fill-rule="nonzero"/><path fill="#000000" fill-opacity="0.0" clip-path="url(#id_0)" d="M459.5423 284.53345C459.5423 286.1903 458.19916 287.53345 456.5423 287.53345C454.88547 287.53345 453.5423 286.1903 453.5423 284.53345C453.5423 282.8766 454.88547 281.53345 456.5423 281.53345C458.19916 281.53345 459.5423 282.8766 459.5423 284.53345Z" fill-rule="nonzero"/><path fill="#000000" fill-opacity="0.0" clip-path="url(#id_0)" d="M493.99615 284.55634C493.99615 286.2132 492.653 287.55634 490.99615 287.55634C489.3393 287.55634 487.99615 286.2132 487.99615 284.55634C487.99615 282.8995 489.3393 281.55634 490.99615 281.55634C492.653 281.55634 493.99615 282.8995 493.99615 284.55634Z" fill-rule="nonzero"/><path fill="#000000" fill-opacity="0.0" clip-path="url(#id_0)" d="M528.45 284.58463C528.45 286.2415 527.1069 287.58463 525.45 287.58463C523.79315 287.58463 522.45 286.2415 522.45 284.58463C522.45 282.92776 523.79315 281.58463 525.45 281.58463C527.1069 281.58463 528.45 282.92776 528.45 284.58463Z" fill-rule="nonzero"/><path fill="#000000" fill-opacity="0.0" clip-path="url(#id_0)" d="M80.55 297.17453C80.55 298.8314 79.206856 300.17453 77.55 300.17453C75.89314 300.17453 74.55 298.8314 74.55 297.17453C74.55 295.5177 75.89314 294.17453 77.55 294.17453C79.206856 294.17453 80.55 295.5177 80.55 297.17453Z" fill-rule="nonzero"/><path fill="#000000" fill-opacity="0.0" clip-path="url(#id_0)" d="M115.003845 296.18622C115.003845 297.84308 113.6607 299.18622 112.003845 299.18622C110.34699 299.18622 109.003845 297.84308 109.003845 296.18622C109.003845 294.52936 110.34699 293.18622 112.003845 293.18622C113.6607 293.18622 115.003845 294.52936 115.003845 296.18622Z" fill-rule="nonzero"/><path fill="#000000" fill-opacity="0.0" clip-path="url(#id_0)" d="M149.45769 292.3833C149.45769 294.04016 148.11455 295.3833 146.45769 295.3833C144.80084 295.3833 143.45769 294.04016 143.45769 292.3833C143.45769 290.72644 144.80084 289.3833 146.45769 289.3833C148.11455 289.3833 149.45769 290.72644 149.45769 292.3833Z" fill-rule="nonzero"/><path fill="#000000" fill-opacity="0.0" clip-path="url(#id_0)" d="M183.91154 286.65942C183.91154 288.31628 182.56839 289.65942 180.91154 289.65942C179.25468 289.65942 177.91154 288.31628 177.91154 286.65942C177.91154 285.00256 179.25468 283.65942 180.91154 283.65942C182.56839 283.65942 183.91154 285.00256 183.91154 286.65942Z" fill-rule="nonzero"/><path fill="#000000" fill-opacity="0.0" clip-path="url(#id_0)" d="M218.36539 293.3722C218.36539 295.02905 217.02223 296.3722 215.36539 296.3722C213.70853 296.3722 212.36539 295.02905 212.36539 293.3722C212.36539 291.71533 213.70853 290.3722 215.36539 290.3722C217.02223 290.3722 218.36539 291.71533 218.36539 293.3722Z" fill-rule="nonzero"/><path fill="#000000" fill-opacity="0.0" clip-path="url(#id_0)" d="M252.81923 287.98917C252.81923 289.64603 251.47609 290.98917 249.81923 290.98917C248.16238 290.98917 246.81923 289.64603 246.81923 287.98917C246.81923 286.3323 248.16238 284.98917 249.81923 284.98917C251.47609 284.98917 252.81923 286.3323 252.81923 287.98917Z" fill-rule="nonzero"/><path fill="#000000" fill-opacity="0.0" clip-path="url(#id_0)" d="M287.27307 279.07898C287.27307 280.73584 285.92993 282.07898 284.27307 282.07898C282.6162 282.07898 281.27307 280.73584 281.27307 279.07898C281.27307 277.42212 282.6162 276.07898 284.27307 276.07898C285.92993 276.07898 287.27307 277.42212 287.27307 279.07898Z" fill-rule="nonzero"/><path fill="#000000" fill-opacity="0.0" clip-path="url(#id_0)" d="M321.72693 266.38092C321.72693 268.03778 320.3838 269.38092 318.72693 269.38092C317.07007 269.38092 315.72693 268.03778 315.72693 266.38092C315.72693 264.72406 317.07007 263.38092 318.72693 263.38092C320.3838 263.38092 321.72693 264.72406 321.72693 266.38092Z" fill-rule="nonzero"/><path fill="#000000" fill-opacity="0.0" clip-path="url(#id_0)" d="M356.18076 250.42969C356.18076 252.08655 354.83762 253.42969 353.18076 253.42969C351.52393 253.42969 350.18076 252.08655 350.18076 250.42969C350.18076 248.77284 351.52393 247.42969 353.18076 247.42969C354.83762 247.42969 356.18076 248.77284 356.18076 250.42969Z" fill-rule="nonzero"/><path fill="#000000" fill-opacity="0.0" clip-path="url(#id_0)" d="M390.6346 236.35619C390.6346 238.01303 389.29147 239.35619 387.6346 239.35619C385.97775 239.35619 384.6346 238.01303 384.6346 236.35619C384.6346 234.69933 385.97775 233.35619 387.6346 233.35619C389.29147 233.35619 390.6346 234.69933 390.6346 236.35619Z" fill-rule="nonzero"/><path fill="#000000" fill-opacity="0.0" clip-path="url(#id_0)" d="M425.08847 225.24586C425.08847 226.90273 423.74533 228.24586 422.08847 228.24586C420.4316 228.24586 419.08847 226.90273 419.08847 225.24586C419.08847 223.589 420.4316 222.24586 422.08847 222.24586C423.74533 222.24586 425.08847 223.589 425.08847 225.24586Z" fill-rule="nonzero"/><path fill="#000000" fill-opacity="0.0" clip-path="url(#id_0)" d="M459.5423 224.90407C459.5423 226.56091 458.19916 227.90407 456.5423 227.90407C454.88547 227.90407 453.5423 226.56091 453.5423 224.90407C453.5423 223.24721 454.88547 221.90407 456.5423 221.90407C458.19916 221.90407 459.5423 223.24721 459.5423 224.90407Z" fill-rule="nonzero"/><path fill="#000000" fill-opacity="0.0" clip-path="url(#id_0)" d="M493.99615 224.82079C493.99615 226.47763 492.653 227.82079 490.99615 227.82079C489.3393 227.82079 487.99615 226.47763 487.99615 224.82079C487.99615 223.16393 489.3393 221.82079 490.99615 221.82079C492.653 221.82079 493.99615 223.16393 493.99615 224.82079Z" fill-rule="nonzero"/><path fill="#000000" fill-opacity="0.0" clip-path="url(#id_0)" d="M528.45 224.7725C528.45 226.42937 527.1069 227.7725 525.45 227.7725C523.79315 227.7725 522.45 226.42937 522.45 224.7725C522.45 223.11566 523.79315 221.7725 525.45 221.7725C527.1069 221.7725 528.45 223.11566 528.45 224.7725Z" fill-rule="nonzero"/><path fill="#000000" fill-opacity="0.0" clip-path="url(#id_0)" d="M80.55 296.9393C80.55 298.59613 79.206856 299.9393 77.55 299.9393C75.89314 299.9393 74.55 298.59613 74.55 296.9393C74.55 295.28244 75.89314 293.9393 77.55 293.9393C79.206856 293.9393 80.55 295.28244 80.55 296.9393Z" fill-rule="nonzero"/><path fill="#000000" fill-opacity="0.0" clip-path="url(#id_0)" d="M115.003845 296.04437C115.003845 297.7012 113.6607 299.04437 112.003845 299.04437C110.34699 299.04437 109.003845 297.7012 109.003845 296.04437C109.003845 294.3875 110.34699 293.04437 112.003845 293.04437C113.6607 293.04437 115.003845 294.3875 115.003845 296.04437Z" fill-rule="nonzero"/><path fill="#000000" fill-opacity="0.0" clip-path="url(#id_0)" d="M149.45769 292.2878C149.45769 293.94467 148.11455 295.2878 146.45769 295.2878C144.80084 295.2878 143.45769 293.94467 143.45769 292.2878C143.45769 290.63095 144.80084 289.2878 146.45769 289.2878C148.11455 289.2878 149.45769 290.63095 149.45769 292.2878Z" fill-rule="nonzero"/><path fill="#000000" fill-opacity="0.0" clip-path="url(#id_0)" d="M183.91154 286.28723C183.91154 287.9441 182.56839 289.28723 180.91154 289.28723C179.25468 289.28723 177.91154 287.9441 177.91154 286.28723C177.91154 284.63037 179.25468 283.28723 180.91154 283.28723C182.56839 283.28723 183.91154 284.63037 183.91154 286.28723Z" fill-rule="nonzero"/><path fill="#000000" fill-opacity="0.0" clip-path="url(#id_0)" d="M218.36539 293.43857C218.36539 295.0954 217.02223 296.43857 215.36539 296.43857C213.70853 296.43857 212.36539 295.0954 212.36539 293.43857C212.36539 291.7817 213.70853 290.43857 215.36539 290.43857C217.02223 290.43857 218.36539 291.7817 218.36539 293.43857Z" fill-rule="nonzero"/><path fill="#000000" fill-opacity="0.0" clip-path="url(#id_0)" d="M252.81923 287.64514C252.81923 289.302 251.47609 290.64514 249.81923 290.64514C248.16238 290.64514 246.81923 289.302 246.81923 287.64514C246.81923 285.9883 248.16238 284.64514 249.81923 284.64514C251.47609 284.64514 252.81923 285.9883 252.81923 287.64514Z" fill-rule="nonzero"/><path fill="#000000" fill-opacity="0.0" clip-path="url(#id_0)" d="M287.27307 276.4076C287.27307 278.06445 285.92993 279.4076 284.27307 279.4076C282.6162 279.4076 281.27307 278.06445 281.27307 276.4076C281.27307 274.75073 282.6162 273.4076 284.27307 273.4076C285.92993 273.4076 287.27307 274.75073 287.27307 276.4076Z" fill-rule="nonzero"/><path fill="#000000" fill-opacity="0.0" clip-path="url(#id_0)" d="M321.72693 256.16022C321.72693 257.81708 320.3838 259.16022 318.72693 259.16022C317.07007 259.16022 315.72693 257.81708 315.72693 256.16022C315.72693 254.50336 317.07007 253.1602 318.72693 253.1602C320.3838 253.1602 321.72693 254.50336 321.72693 256.16022Z" fill-rule="nonzero"/><path fill="#000000" fill-opacity="0.0" clip-path="url(#id_0)" d="M356.18076 218.97363C356.18076 220.63048 354.83762 221.97363 353.18076 221.97363C351.52393 221.97363 350.18076 220.63048 350.18076 218.97363C350.18076 217.31677 351.52393 215.97363 353.18076 215.97363C354.83762 215.97363 356.18076 217.31677 356.18076 218.97363Z" fill-rule="nonzero"/><path fill="#000000" fill-opacity="0.0" clip-path="url(#id_0)" d="M390.6346 165.07944C390.6346 166.7363 389.29147 168.07944 387.6346 168.07944C385.97775 168.07944 384.6346 166.7363 384.6346 165.07944C384.6346 163.42258 385.97775 162.07944 387.6346 162.07944C389.29147 162.07944 390.6346 163.42258 390.6346 165.07944Z" fill-rule="nonzero"/><path fill="#000000" fill-opacity="0.0" clip-path="url(#id_0)" d="M425.08847 96.46492C425.08847 98.12178 423.74533 99.46492 422.08847 99.46492C420.4316 99.46492 419.08847 98.12178 419.08847 96.46492C419.08847 94.80807 420.4316 93.46492 422.08847 93.46492C423.74533 93.46492 425.08847 94.80807 425.08847 96.46492Z" fill-rule="nonzero"/><path fill="#000000" fill-opacity="0.0" clip-path="url(#id_0)" d="M459.5423 94.68672C459.5423 96.343575 458.19916 97.68672 456.5423 97.68672C454.88547 97.68672 453.5423 96.343575 453.5423 94.68672C453.5423 93.02986 454.88547 91.68672 456.5423 91.68672C458.19916 91.68672 459.5423 93.02986 459.5423 94.68672Z" fill-rule="nonzero"/><path fill="#000000" fill-opacity="0.0" clip-path="url(#id_0)" d="M493.99615 98.4468C493.99615 100.10365 492.653 101.4468 490.99615 101.4468C489.3393 101.4468 487.99615 100.10365 487.99615 98.4468C487.99615 96.78995 489.3393 95.4468 490.99615 95.4468C492.653 95.4468 493.99615 96.78995 493.99615 98.4468Z" fill-rule="nonzero"/><path fill="#000000" fill-opacity="0.0" clip-path="url(#id_0)" d="M528.45 92.084656C528.45 93.74151 527.1069 95.084656 525.45 95.084656C523.79315 95.084656 522.45 93.74151 522.45 92.084656C522.45 90.427795 523.79315 89.084656 525.45 89.084656C527.1069 89.084656 528.45 90.427795 528.45 92.084656Z" fill-rule="nonzero"/><path fill="#000000" d="M270.54688 346.6844L271.60938 346.59064Q271.6875 347.2469 271.96875 347.65314Q272.25 348.0594 272.82812 348.325Q273.42188 348.575 274.15625 348.575Q274.79688 348.575 275.29688 348.3875Q275.79688 348.1844 276.03125 347.85626Q276.28125 347.5125 276.28125 347.1219Q276.28125 346.71564 276.04688 346.41876Q275.8125 346.10626 275.28125 345.90314Q274.92188 345.7625 273.73438 345.48126Q272.5625 345.2 272.09375 344.95Q271.46875 344.6219 271.17188 344.15314Q270.875 343.66876 270.875 343.075Q270.875 342.4344 271.23438 341.8719Q271.60938 341.29376 272.3125 341.0125Q273.03125 340.71564 273.89062 340.71564Q274.84375 340.71564 275.57812 341.02814Q276.3125 341.325 276.70312 341.9344Q277.09375 342.52814 277.125 343.27814L276.03125 343.35626Q275.9375 342.54376 275.42188 342.1375Q274.92188 341.71564 273.9375 341.71564Q272.90625 341.71564 272.4375 342.09064Q271.96875 342.46564 271.96875 342.9969Q271.96875 343.46564 272.29688 343.7625Q272.625 344.0594 274.0 344.3719Q275.39062 344.6844 275.90625 344.91876Q276.65625 345.27814 277.01562 345.8094Q277.375 346.325 277.375 347.02814Q277.375 347.71564 276.98438 348.325Q276.59375 348.91876 275.85938 349.2625Q275.125 349.59064 274.20312 349.59064Q273.03125 349.59064 272.23438 349.2625Q271.45312 348.91876 271.0 348.23126Q270.5625 347.54376 270.54688 346.6844ZM278.79688 342.075L278.79688 340.85626L279.85938 340.85626L279.85938 342.075L278.79688 342.075ZM278.79688 349.45L278.79688 343.23126L279.85938 343.23126L279.85938 349.45L278.79688 349.45ZM281.23438 349.45L281.23438 348.59064L285.20312 344.04376Q284.51562 344.075 284.0 344.075L281.46875 344.075L281.46875 343.23126L286.5625 343.23126L286.5625 343.91876L283.1875 347.8719L282.53125 348.59064Q283.25 348.54376 283.85938 348.54376L286.75 348.54376L286.75 349.45L281.23438 349.45ZM291.04688 347.45L292.14062 347.575Q291.89062 348.52814 291.1875 349.0594Q290.48438 349.59064 289.40625 349.59064Q288.04688 349.59064 287.23438 348.7469Q286.4375 347.90314 286.4375 346.3875Q286.4375 344.825 287.25 343.96564Q288.0625 343.09064 289.34375 343.09064Q290.59375 343.09064 291.375 343.9344Q292.17188 344.77814 292.17188 346.325Q292.17188 346.41876 292.17188 346.60626L287.53125 346.60626Q287.59375 347.6375 288.10938 348.1844Q288.625 348.71564 289.40625 348.71564Q289.98438 348.71564 290.39062 348.41876Q290.8125 348.10626 291.04688 347.45ZM287.59375 345.7469L291.0625 345.7469Q291.0 344.95 290.67188 344.5594Q290.15625 343.95 289.35938 343.95Q288.625 343.95 288.125 344.4344Q287.64062 344.91876 287.59375 345.7469ZM298.8125 351.98126Q297.9375 350.8719 297.32812 349.40314Q296.73438 347.91876 296.73438 346.34064Q296.73438 344.95 297.17188 343.66876Q297.70312 342.1844 298.8125 340.71564L299.5625 340.71564Q298.85938 341.9344 298.625 342.45Q298.26562 343.2625 298.0625 344.1375Q297.8125 345.23126 297.8125 346.34064Q297.8125 349.16876 299.5625 351.98126L298.8125 351.98126ZM301.76562 349.45L300.78125 349.45L300.78125 340.85626L301.84375 340.85626L301.84375 343.91876Q302.51562 343.09064 303.54688 343.09064Q304.125 343.09064 304.625 343.325Q305.14062 343.54376 305.46875 343.96564Q305.8125 344.3875 306.0 344.98126Q306.1875 345.575 306.1875 346.2469Q306.1875 347.84064 305.39062 348.71564Q304.59375 349.59064 303.5 349.59064Q302.39062 349.59064 301.76562 348.66876L301.76562 349.45ZM301.75 346.29376Q301.75 347.40314 302.0625 347.90314Q302.5625 348.71564 303.40625 348.71564Q304.09375 348.71564 304.59375 348.1219Q305.10938 347.52814 305.10938 346.325Q305.10938 345.10626 304.625 344.52814Q304.14062 343.95 303.45312 343.95Q302.76562 343.95 302.25 344.5594Q301.75 345.15314 301.75 346.29376ZM307.75 351.84064L307.625 350.85626Q307.96875 350.95 308.23438 350.95Q308.57812 350.95 308.78125 350.825Q309.0 350.71564 309.14062 350.5125Q309.23438 350.34064 309.46875 349.71564Q309.48438 349.6375 309.5625 349.46564L307.1875 343.23126L308.32812 343.23126L309.625 346.825Q309.875 347.5125 310.07812 348.27814Q310.26562 347.54376 310.51562 346.85626L311.84375 343.23126L312.89062 343.23126L310.53125 349.5594Q310.14062 350.575 309.9375 350.96564Q309.65625 351.4969 309.28125 351.73126Q308.92188 351.98126 308.42188 351.98126Q308.125 351.98126 307.75 351.84064ZM315.09375 348.5125L315.25 349.4344Q314.79688 349.52814 314.45312 349.52814Q313.875 349.52814 313.5625 349.35626Q313.25 349.16876 313.10938 348.8719Q312.98438 348.575 312.98438 347.6219L312.98438 344.04376L312.21875 344.04376L312.21875 343.23126L312.98438 343.23126L312.98438 341.6844L314.03125 341.0594L314.03125 343.23126L315.09375 343.23126L315.09375 344.04376L314.03125 344.04376L314.03125 347.6844Q314.03125 348.1375 314.07812 348.2625Q314.14062 348.3875 314.26562 348.46564Q314.39062 348.54376 314.625 348.54376Q314.8125 348.54376 315.09375 348.5125ZM320.04688 347.45L321.14062 347.575Q320.89062 348.52814 320.1875 349.0594Q319.48438 349.59064 318.40625 349.59064Q317.04688 349.59064 316.23438 348.7469Q315.4375 347.90314 315.4375 346.3875Q315.4375 344.825 316.25 343.96564Q317.0625 343.09064 318.34375 343.09064Q319.59375 343.09064 320.375 343.9344Q321.17188 344.77814 321.17188 346.325Q321.17188 346.41876 321.17188 346.60626L316.53125 346.60626Q316.59375 347.6375 317.10938 348.1844Q317.625 348.71564 318.40625 348.71564Q318.98438 348.71564 319.39062 348.41876Q319.8125 348.10626 320.04688 347.45ZM316.59375 345.7469L320.0625 345.7469Q320.0 344.95 319.67188 344.5594Q319.15625 343.95 318.35938 343.95Q317.625 343.95 317.125 344.4344Q316.64062 344.91876 316.59375 345.7469ZM322.375 347.59064L323.40625 347.4344Q323.5 348.0594 323.89062 348.3875Q324.29688 348.71564 325.03125 348.71564Q325.75 348.71564 326.09375 348.4344Q326.45312 348.1375 326.45312 347.73126Q326.45312 347.3719 326.14062 347.16876Q325.92188 347.02814 325.0625 346.8094Q323.90625 346.5125 323.45312 346.3094Q323.01562 346.09064 322.78125 345.71564Q322.54688 345.34064 322.54688 344.8719Q322.54688 344.46564 322.73438 344.10626Q322.92188 343.7469 323.25 343.5125Q323.5 343.34064 323.92188 343.21564Q324.34375 343.09064 324.84375 343.09064Q325.5625 343.09064 326.10938 343.3094Q326.67188 343.5125 326.9375 343.8719Q327.20312 344.23126 327.29688 344.825L326.26562 344.96564Q326.20312 344.4969 325.85938 344.23126Q325.53125 343.95 324.90625 343.95Q324.1875 343.95 323.875 344.2Q323.5625 344.4344 323.5625 344.7625Q323.5625 344.96564 323.6875 345.1219Q323.82812 345.29376 324.09375 345.40314Q324.25 345.46564 325.03125 345.66876Q326.15625 345.98126 326.59375 346.16876Q327.03125 346.35626 327.28125 346.71564Q327.53125 347.075 327.53125 347.6219Q327.53125 348.15314 327.21875 348.6219Q326.92188 349.075 326.34375 349.34064Q325.76562 349.59064 325.03125 349.59064Q323.8125 349.59064 323.17188 349.09064Q322.54688 348.575 322.375 347.59064ZM330.48438 351.98126L329.73438 351.98126Q331.48438 349.16876 331.48438 346.34064Q331.48438 345.2469 331.23438 344.15314Q331.03125 343.27814 330.67188 342.46564Q330.4375 341.95 329.73438 340.71564L330.48438 340.71564Q331.57812 342.1844 332.10938 343.66876Q332.5625 344.95 332.5625 346.34064Q332.5625 347.91876 331.95312 349.40314Q331.34375 350.8719 330.48438 351.98126Z" fill-rule="nonzero"/><path fill="#000000" d="M27.690638 282.49167L27.534388 281.46042Q28.159388 281.36667 28.487513 280.97604Q28.815638 280.5698 28.815638 279.83542Q28.815638 279.11667 28.534388 278.77292Q28.237513 278.41354 27.831263 278.41354Q27.471888 278.41354 27.268763 278.72604Q27.128138 278.9448 26.909388 279.80417Q26.612513 280.96042 26.409388 281.41354Q26.190638 281.85104 25.815638 282.08542Q25.440638 282.3198 24.971888 282.3198Q24.565638 282.3198 24.206263 282.1323Q23.846888 281.9448 23.612513 281.61667Q23.440638 281.36667 23.315638 280.9448Q23.190638 280.52292 23.190638 280.02292Q23.190638 279.30417 23.409388 278.7573Q23.612513 278.1948 23.971888 277.92917Q24.331263 277.66354 24.925013 277.5698L25.065638 278.60104Q24.596888 278.66354 24.331263 279.0073Q24.050013 279.33542 24.050013 279.96042Q24.050013 280.67917 24.300013 280.99167Q24.534388 281.30417 24.862513 281.30417Q25.065638 281.30417 25.221888 281.17917Q25.393763 281.03854 25.503138 280.77292Q25.565638 280.61667 25.768763 279.83542Q26.081263 278.71042 26.268763 278.27292Q26.456263 277.83542 26.815638 277.58542Q27.175013 277.33542 27.721888 277.33542Q28.253138 277.33542 28.721888 277.64792Q29.175013 277.9448 29.440638 278.52292Q29.690638 279.10104 29.690638 279.83542Q29.690638 281.05417 29.190638 281.6948Q28.675013 282.3198 27.690638 282.49167ZM31.940638 275.0698L23.331263 275.0698L23.331263 274.11667L24.128138 274.11667Q23.659388 273.77292 23.425013 273.35104Q23.190638 272.91354 23.190638 272.30417Q23.190638 271.5073 23.596888 270.89792Q24.003138 270.28854 24.753138 269.99167Q25.503138 269.67917 26.393763 269.67917Q27.346888 269.67917 28.112513 270.02292Q28.878138 270.35104 29.284388 271.0073Q29.690638 271.66354 29.690638 272.3823Q29.690638 272.91354 29.471888 273.33542Q29.237513 273.7573 28.909388 274.02292L31.940638 274.02292L31.940638 275.0698ZM26.471888 274.11667Q27.675013 274.11667 28.253138 273.6323Q28.815638 273.14792 28.815638 272.46042Q28.815638 271.7573 28.221888 271.2573Q27.628138 270.7573 26.378138 270.7573Q25.190638 270.7573 24.612513 271.24167Q24.018763 271.72604 24.018763 272.41354Q24.018763 273.08542 24.643763 273.60104Q25.268763 274.11667 26.471888 274.11667ZM27.550013 263.8198L27.675013 262.72604Q28.628138 262.97604 29.159388 263.67917Q29.690638 264.3823 29.690638 265.46042Q29.690638 266.8198 28.846888 267.6323Q28.003138 268.42917 26.487513 268.42917Q24.925013 268.42917 24.065638 267.61667Q23.190638 266.80417 23.190638 265.52292Q23.190638 264.27292 24.034388 263.49167Q24.878138 262.6948 26.425013 262.6948Q26.518763 262.6948 26.706263 262.6948L26.706263 267.33542Q27.737513 267.27292 28.284388 266.7573Q28.815638 266.24167 28.815638 265.46042Q28.815638 264.8823 28.518763 264.47604Q28.206263 264.05417 27.550013 263.8198ZM25.846888 267.27292L25.846888 263.80417Q25.050013 263.86667 24.659388 264.1948Q24.050013 264.71042 24.050013 265.5073Q24.050013 266.24167 24.534388 266.74167Q25.018763 267.22604 25.846888 267.27292ZM27.550013 256.8198L27.675013 255.72604Q28.628138 255.97604 29.159388 256.67917Q29.690638 257.3823 29.690638 258.46042Q29.690638 259.8198 28.846888 260.6323Q28.003138 261.42917 26.487513 261.42917Q24.925013 261.42917 24.065638 260.61667Q23.190638 259.80417 23.190638 258.52292Q23.190638 257.27292 24.034388 256.49167Q24.878138 255.6948 26.425013 255.6948Q26.518763 255.6948 26.706263 255.6948L26.706263 260.33542Q27.737513 260.27292 28.284388 259.7573Q28.815638 259.24167 28.815638 258.46042Q28.815638 257.8823 28.518763 257.47604Q28.206263 257.05417 27.550013 256.8198ZM25.846888 260.27292L25.846888 256.80417Q25.050013 256.86667 24.659388 257.1948Q24.050013 257.71042 24.050013 258.5073Q24.050013 259.24167 24.534388 259.74167Q25.018763 260.22604 25.846888 260.27292ZM29.550013 250.03854L28.768763 250.03854Q29.690638 250.6323 29.690638 251.77292Q29.690638 252.52292 29.284388 253.14792Q28.862513 253.77292 28.128138 254.11667Q27.393763 254.46042 26.440638 254.46042Q25.518763 254.46042 24.753138 254.14792Q23.987513 253.83542 23.596888 253.21042Q23.190638 252.58542 23.190638 251.8198Q23.190638 251.2573 23.425013 250.8198Q23.659388 250.3823 24.034388 250.10104L20.956263 250.10104L20.956263 249.05417L29.550013 249.05417L29.550013 250.03854ZM26.440638 253.36667Q27.643763 253.36667 28.237513 252.86667Q28.815638 252.36667 28.815638 251.67917Q28.815638 250.99167 28.253138 250.5073Q27.690638 250.02292 26.534388 250.02292Q25.253138 250.02292 24.659388 250.52292Q24.065638 251.0073 24.065638 251.72604Q24.065638 252.42917 24.643763 252.89792Q25.206263 253.36667 26.440638 253.36667ZM29.550013 239.99167L28.628138 239.99167Q29.690638 240.72604 29.690638 241.97604Q29.690638 242.52292 29.487513 243.0073Q29.268763 243.47604 28.956263 243.71042Q28.628138 243.9448 28.159388 244.03854Q27.862513 244.10104 27.175013 244.10104L23.331263 244.10104L23.331263 243.03854L26.784388 243.03854Q27.596888 243.03854 27.893763 242.97604Q28.300013 242.8823 28.550013 242.5698Q28.784388 242.24167 28.784388 241.7573Q28.784388 241.28854 28.550013 240.8823Q28.300013 240.46042 27.878138 240.28854Q27.456263 240.10104 26.659388 240.10104L23.331263 240.10104L23.331263 239.05417L29.550013 239.05417L29.550013 239.99167ZM31.940638 237.0698L23.331263 237.0698L23.331263 236.11667L24.128138 236.11667Q23.659388 235.77292 23.425013 235.35104Q23.190638 234.91354 23.190638 234.30417Q23.190638 233.5073 23.596888 232.89792Q24.003138 232.28854 24.753138 231.99167Q25.503138 231.67917 26.393763 231.67917Q27.346888 231.67917 28.112513 232.02292Q28.878138 232.35104 29.284388 233.0073Q29.690638 233.66354 29.690638 234.3823Q29.690638 234.91354 29.471888 235.33542Q29.237513 235.7573 28.909388 236.02292L31.940638 236.02292L31.940638 237.0698ZM26.471888 236.11667Q27.675013 236.11667 28.253138 235.6323Q28.815638 235.14792 28.815638 234.46042Q28.815638 233.7573 28.221888 233.2573Q27.628138 232.7573 26.378138 232.7573Q25.190638 232.7573 24.612513 233.24167Q24.018763 233.72604 24.018763 234.41354Q24.018763 235.08542 24.643763 235.60104Q25.268763 236.11667 26.471888 236.11667ZM26.440638 227.46042Q24.706263 227.46042 23.878138 226.5073Q23.190638 225.71042 23.190638 224.55417Q23.190638 223.27292 24.034388 222.46042Q24.862513 221.6323 26.346888 221.6323Q27.550013 221.6323 28.237513 221.99167Q28.925013 222.35104 29.315638 223.05417Q29.690638 223.74167 29.690638 224.55417Q29.690638 225.85104 28.862513 226.66354Q28.018763 227.46042 26.440638 227.46042ZM26.440638 226.3823Q27.628138 226.3823 28.221888 225.86667Q28.815638 225.33542 28.815638 224.55417Q28.815638 223.7573 28.221888 223.24167Q27.628138 222.72604 26.409388 222.72604Q25.253138 222.72604 24.659388 223.2573Q24.065638 223.77292 24.065638 224.55417Q24.065638 225.33542 24.659388 225.86667Q25.237513 226.3823 26.440638 226.3823ZM29.550013 218.35104L23.331263 220.71042L23.331263 219.60104L27.050013 218.2573Q27.659388 218.05417 28.300013 217.86667Q27.815638 217.72604 27.128138 217.47604L23.331263 216.08542L23.331263 215.0073L29.550013 217.36667L29.550013 218.35104ZM27.550013 210.8198L27.675013 209.72604Q28.628138 209.97604 29.159388 210.67917Q29.690638 211.3823 29.690638 212.46042Q29.690638 213.8198 28.846888 214.6323Q28.003138 215.42917 26.487513 215.42917Q24.925013 215.42917 24.065638 214.61667Q23.190638 213.80417 23.190638 212.52292Q23.190638 211.27292 24.034388 210.49167Q24.878138 209.6948 26.425013 209.6948Q26.518763 209.6948 26.706263 209.6948L26.706263 214.33542Q27.737513 214.27292 28.284388 213.7573Q28.815638 213.24167 28.815638 212.46042Q28.815638 211.8823 28.518763 211.47604Q28.206263 211.05417 27.550013 210.8198ZM25.846888 214.27292L25.846888 210.80417Q25.050013 210.86667 24.659388 211.1948Q24.050013 211.71042 24.050013 212.5073Q24.050013 213.24167 24.534388 213.74167Q25.018763 214.22604 25.846888 214.27292ZM29.550013 208.08542L23.331263 208.08542L23.331263 207.1323L24.268763 207.1323Q23.612513 206.77292 23.409388 206.47604Q23.190638 206.16354 23.190638 205.78854Q23.190638 205.2573 23.518763 204.71042L24.503138 205.0698Q24.268763 205.46042 24.268763 205.83542Q24.268763 206.1948 24.487513 206.47604Q24.690638 206.74167 25.065638 206.85104Q25.628138 207.03854 26.284388 207.03854L29.550013 207.03854L29.550013 208.08542ZM29.550013 200.10104L29.550013 201.08542L20.956263 201.08542L20.956263 200.02292L24.018763 200.02292Q23.190638 199.35104 23.190638 198.3198Q23.190638 197.74167 23.425013 197.24167Q23.643763 196.72604 24.065638 196.39792Q24.487513 196.05417 25.081263 195.86667Q25.675013 195.67917 26.346888 195.67917Q27.940638 195.67917 28.815638 196.47604Q29.690638 197.27292 29.690638 198.36667Q29.690638 199.47604 28.768763 200.10104L29.550013 200.10104ZM26.393763 200.11667Q27.503138 200.11667 28.003138 199.80417Q28.815638 199.30417 28.815638 198.46042Q28.815638 197.77292 28.221888 197.27292Q27.628138 196.7573 26.425013 196.7573Q25.206263 196.7573 24.628138 197.24167Q24.050013 197.72604 24.050013 198.41354Q24.050013 199.10104 24.659388 199.61667Q25.253138 200.11667 26.393763 200.11667ZM28.784388 190.0073Q29.284388 190.60104 29.487513 191.14792Q29.690638 191.67917 29.690638 192.30417Q29.690638 193.33542 29.190638 193.8823Q28.690638 194.42917 27.909388 194.42917Q27.456263 194.42917 27.081263 194.22604Q26.690638 194.02292 26.471888 193.67917Q26.237513 193.33542 26.128138 192.91354Q26.034388 192.61667 25.956263 191.97604Q25.815638 190.71042 25.596888 190.10104Q25.378138 190.10104 25.331263 190.10104Q24.675013 190.10104 24.409388 190.39792Q24.065638 190.80417 24.065638 191.60104Q24.065638 192.33542 24.331263 192.6948Q24.581263 193.05417 25.237513 193.22604L25.096888 194.2573Q24.440638 194.11667 24.034388 193.78854Q23.628138 193.46042 23.409388 192.85104Q23.190638 192.24167 23.190638 191.4448Q23.190638 190.64792 23.378138 190.14792Q23.565638 189.64792 23.846888 189.41354Q24.128138 189.17917 24.565638 189.08542Q24.831263 189.03854 25.534388 189.03854L26.940638 189.03854Q28.409388 189.03854 28.800013 188.97604Q29.190638 188.89792 29.550013 188.6948L29.550013 189.80417Q29.221888 189.96042 28.784388 190.0073ZM26.425013 190.10104Q26.659388 190.67917 26.831263 191.8198Q26.925013 192.47604 27.050013 192.74167Q27.159388 193.0073 27.378138 193.16354Q27.596888 193.30417 27.878138 193.30417Q28.300013 193.30417 28.581263 192.99167Q28.862513 192.66354 28.862513 192.05417Q28.862513 191.4448 28.596888 190.97604Q28.331263 190.49167 27.862513 190.27292Q27.503138 190.10104 26.815638 190.10104L26.425013 190.10104ZM27.690638 187.49167L27.534388 186.46042Q28.159388 186.36667 28.487513 185.97604Q28.815638 185.5698 28.815638 184.83542Q28.815638 184.11667 28.534388 183.77292Q28.237513 183.41354 27.831263 183.41354Q27.471888 183.41354 27.268763 183.72604Q27.128138 183.9448 26.909388 184.80417Q26.612513 185.96042 26.409388 186.41354Q26.190638 186.85104 25.815638 187.08542Q25.440638 187.3198 24.971888 187.3198Q24.565638 187.3198 24.206263 187.1323Q23.846888 186.9448 23.612513 186.61667Q23.440638 186.36667 23.315638 185.9448Q23.190638 185.52292 23.190638 185.02292Q23.190638 184.30417 23.409388 183.7573Q23.612513 183.1948 23.971888 182.92917Q24.331263 182.66354 24.925013 182.5698L25.065638 183.60104Q24.596888 183.66354 24.331263 184.0073Q24.050013 184.33542 24.050013 184.96042Q24.050013 185.67917 24.300013 185.99167Q24.534388 186.30417 24.862513 186.30417Q25.065638 186.30417 25.221888 186.17917Q25.393763 186.03854 25.503138 185.77292Q25.565638 185.61667 25.768763 184.83542Q26.081263 183.71042 26.268763 183.27292Q26.456263 182.83542 26.815638 182.58542Q27.175013 182.33542 27.721888 182.33542Q28.253138 182.33542 28.721888 182.64792Q29.175013 182.9448 29.440638 183.52292Q29.690638 184.10104 29.690638 184.83542Q29.690638 186.05417 29.190638 186.6948Q28.675013 187.3198 27.690638 187.49167ZM27.550013 175.8198L27.675013 174.72604Q28.628138 174.97604 29.159388 175.67917Q29.690638 176.3823 29.690638 177.46042Q29.690638 178.8198 28.846888 179.6323Q28.003138 180.42917 26.487513 180.42917Q24.925013 180.42917 24.065638 179.61667Q23.190638 178.80417 23.190638 177.52292Q23.190638 176.27292 24.034388 175.49167Q24.878138 174.6948 26.425013 174.6948Q26.518763 174.6948 26.706263 174.6948L26.706263 179.33542Q27.737513 179.27292 28.284388 178.7573Q28.815638 178.24167 28.815638 177.46042Q28.815638 176.8823 28.518763 176.47604Q28.206263 176.05417 27.550013 175.8198ZM25.846888 179.27292L25.846888 175.80417Q25.050013 175.86667 24.659388 176.1948Q24.050013 176.71042 24.050013 177.5073Q24.050013 178.24167 24.534388 178.74167Q25.018763 179.22604 25.846888 179.27292ZM29.550013 173.10104L20.956263 173.10104L20.956263 172.03854L29.550013 172.03854L29.550013 173.10104ZM22.175013 170.0698L20.956263 170.0698L20.956263 169.0073L22.175013 169.0073L22.175013 170.0698ZM29.550013 170.0698L23.331263 170.0698L23.331263 169.0073L29.550013 169.0073L29.550013 170.0698ZM29.550013 167.0698L23.331263 167.0698L23.331263 166.1323L24.206263 166.1323Q23.190638 165.4448 23.190638 164.14792Q23.190638 163.58542 23.393763 163.11667Q23.596888 162.6323 23.925013 162.39792Q24.253138 162.16354 24.690638 162.0698Q24.987513 162.02292 25.721888 162.02292L29.550013 162.02292L29.550013 163.0698L25.768763 163.0698Q25.112513 163.0698 24.800013 163.1948Q24.487513 163.3198 24.300013 163.6323Q24.096888 163.9448 24.096888 164.36667Q24.096888 165.03854 24.534388 165.53854Q24.956263 166.02292 26.143763 166.02292L29.550013 166.02292L29.550013 167.0698ZM27.550013 155.8198L27.675013 154.72604Q28.628138 154.97604 29.159388 155.67917Q29.690638 156.3823 29.690638 157.46042Q29.690638 158.8198 28.846888 159.6323Q28.003138 160.42917 26.487513 160.42917Q24.925013 160.42917 24.065638 159.61667Q23.190638 158.80417 23.190638 157.52292Q23.190638 156.27292 24.034388 155.49167Q24.878138 154.6948 26.425013 154.6948Q26.518763 154.6948 26.706263 154.6948L26.706263 159.33542Q27.737513 159.27292 28.284388 158.7573Q28.815638 158.24167 28.815638 157.46042Q28.815638 156.8823 28.518763 156.47604Q28.206263 156.05417 27.550013 155.8198ZM25.846888 159.27292L25.846888 155.80417Q25.050013 155.86667 24.659388 156.1948Q24.050013 156.71042 24.050013 157.5073Q24.050013 158.24167 24.534388 158.74167Q25.018763 159.22604 25.846888 159.27292ZM32.08126 148.05417Q30.971888 148.92917 29.503138 149.53854Q28.018763 150.1323 26.440638 150.1323Q25.050013 150.1323 23.768763 149.6948Q22.284388 149.16354 20.815638 148.05417L20.815638 147.30417Q22.034388 148.0073 22.550013 148.24167Q23.362513 148.60104 24.237513 148.80417Q25.331263 149.05417 26.440638 149.05417Q29.268763 149.05417 32.08126 147.30417L32.08126 148.05417ZM29.550013 146.08542L23.331263 146.08542L23.331263 145.1323L24.268763 145.1323Q23.612513 144.77292 23.409388 144.47604Q23.190638 144.16354 23.190638 143.78854Q23.190638 143.2573 23.518763 142.71042L24.503138 143.0698Q24.268763 143.46042 24.268763 143.83542Q24.268763 144.1948 24.487513 144.47604Q24.690638 144.74167 25.065638 144.85104Q25.628138 145.03854 26.284388 145.03854L29.550013 145.03854L29.550013 146.08542ZM28.784388 138.0073Q29.284388 138.60104 29.487513 139.14792Q29.690638 139.67917 29.690638 140.30417Q29.690638 141.33542 29.190638 141.8823Q28.690638 142.42917 27.909388 142.42917Q27.456263 142.42917 27.081263 142.22604Q26.690638 142.02292 26.471888 141.67917Q26.237513 141.33542 26.128138 140.91354Q26.034388 140.61667 25.956263 139.97604Q25.815638 138.71042 25.596888 138.10104Q25.378138 138.10104 25.331263 138.10104Q24.675013 138.10104 24.409388 138.39792Q24.065638 138.80417 24.065638 139.60104Q24.065638 140.33542 24.331263 140.6948Q24.581263 141.05417 25.237513 141.22604L25.096888 142.2573Q24.440638 142.11667 24.034388 141.78854Q23.628138 141.46042 23.409388 140.85104Q23.190638 140.24167 23.190638 139.4448Q23.190638 138.64792 23.378138 138.14792Q23.565638 137.64792 23.846888 137.41354Q24.128138 137.17917 24.565638 137.08542Q24.831263 137.03854 25.534388 137.03854L26.940638 137.03854Q28.409388 137.03854 28.800013 136.97604Q29.190638 136.89792 29.550013 136.6948L29.550013 137.80417Q29.221888 137.96042 28.784388 138.0073ZM26.425013 138.10104Q26.659388 138.67917 26.831263 139.8198Q26.925013 140.47604 27.050013 140.74167Q27.159388 141.0073 27.378138 141.16354Q27.596888 141.30417 27.878138 141.30417Q28.300013 141.30417 28.581263 140.99167Q28.862513 140.66354 28.862513 140.05417Q28.862513 139.4448 28.596888 138.97604Q28.331263 138.49167 27.862513 138.27292Q27.503138 138.10104 26.815638 138.10104L26.425013 138.10104ZM28.612513 132.77292L29.534388 132.61667Q29.628138 133.0698 29.628138 133.41354Q29.628138 133.99167 29.456263 134.30417Q29.268763 134.61667 28.971888 134.7573Q28.675013 134.8823 27.721888 134.8823L24.143763 134.8823L24.143763 135.64792L23.331263 135.64792L23.331263 134.8823L21.784388 134.8823L21.159388 133.83542L23.331263 133.83542L23.331263 132.77292L24.143763 132.77292L24.143763 133.83542L27.784388 133.83542Q28.237513 133.83542 28.362513 133.78854Q28.487513 133.72604 28.565638 133.60104Q28.643763 133.47604 28.643763 133.24167Q28.643763 133.05417 28.612513 132.77292ZM22.175013 132.0698L20.956263 132.0698L20.956263 131.0073L22.175013 131.0073L22.175013 132.0698ZM29.550013 132.0698L23.331263 132.0698L23.331263 131.0073L29.550013 131.0073L29.550013 132.0698ZM26.440638 129.46042Q24.706263 129.46042 23.878138 128.5073Q23.190638 127.71042 23.190638 126.55417Q23.190638 125.27292 24.034388 124.46042Q24.862513 123.63229 26.346888 123.63229Q27.550013 123.63229 28.237513 123.99167Q28.925013 124.35104 29.315638 125.05417Q29.690638 125.74167 29.690638 126.55417Q29.690638 127.85104 28.862513 128.66354Q28.018763 129.46042 26.440638 129.46042ZM26.440638 128.3823Q27.628138 128.3823 28.221888 127.86667Q28.815638 127.33542 28.815638 126.55417Q28.815638 125.75729 28.221888 125.24167Q27.628138 124.72604 26.409388 124.72604Q25.253138 124.72604 24.659388 125.25729Q24.065638 125.77292 24.065638 126.55417Q24.065638 127.33542 24.659388 127.86667Q25.237513 128.3823 26.440638 128.3823ZM32.08126 121.38229L32.08126 122.13229Q29.268763 120.38229 26.440638 120.38229Q25.346888 120.38229 24.253138 120.63229Q23.378138 120.83542 22.565638 121.19479Q22.050013 121.42917 20.815638 122.13229L20.815638 121.38229Q22.284388 120.28854 23.768763 119.75729Q25.050013 119.30417 26.440638 119.30417Q28.018763 119.30417 29.503138 119.91354Q30.971888 120.52292 32.08126 121.38229Z" fill-rule="nonzero"/><path fill="#000000" d="M65.05 300.21564Q65.05 298.6844 65.3625 297.7625Q65.675 296.825 66.28438 296.325Q66.90938 295.825 67.84688 295.825Q68.53438 295.825 69.05 296.10626Q69.58125 296.3875 69.925 296.91876Q70.26875 297.4344 70.45625 298.1844Q70.64375 298.9344 70.64375 300.21564Q70.64375 301.73126 70.33125 302.65314Q70.03438 303.575 69.40938 304.09064Q68.8 304.59064 67.84688 304.59064Q66.6125 304.59064 65.89375 303.7Q65.05 302.6375 65.05 300.21564ZM66.12813 300.21564Q66.12813 302.325 66.62813 303.02814Q67.12813 303.73126 67.84688 303.73126Q68.58125 303.73126 69.06563 303.02814Q69.56563 302.325 69.56563 300.21564Q69.56563 298.09064 69.06563 297.40314Q68.58125 296.7 67.83125 296.7Q67.1125 296.7 66.675 297.3094Q66.12813 298.09064 66.12813 300.21564Z" fill-rule="nonzero"/><path fill="#000000" d="M63.596874 250.39272L63.596874 251.40834L57.909374 251.40834Q57.909374 251.03334 58.034374 250.67397Q58.253124 250.09584 58.721874 249.53334Q59.20625 248.97084 60.1125 248.23647Q61.51875 247.08022 62.003124 246.40834Q62.503124 245.73647 62.503124 245.14272Q62.503124 244.51772 62.05 244.09584Q61.596874 243.65834 60.878124 243.65834Q60.1125 243.65834 59.659374 244.11147Q59.20625 244.56459 59.190624 245.37709L58.1125 245.26772Q58.221874 244.04897 58.940624 243.42397Q59.675 242.78334 60.909374 242.78334Q62.14375 242.78334 62.8625 243.47084Q63.58125 244.15834 63.58125 245.17397Q63.58125 245.68959 63.3625 246.18959Q63.159374 246.67397 62.659374 247.23647Q62.175 247.78334 61.05 248.73647Q60.096874 249.53334 59.815624 249.83022Q59.55 250.11147 59.378124 250.39272L63.596874 250.39272ZM65.05 247.17397Q65.05 245.64272 65.3625 244.72084Q65.675 243.78334 66.28438 243.28334Q66.90938 242.78334 67.84688 242.78334Q68.53438 242.78334 69.05 243.06459Q69.58125 243.34584 69.925 243.87709Q70.26875 244.39272 70.45625 245.14272Q70.64375 245.89272 70.64375 247.17397Q70.64375 248.68959 70.33125 249.61147Q70.03438 250.53334 69.40938 251.04897Q68.8 251.54897 67.84688 251.54897Q66.6125 251.54897 65.89375 250.65834Q65.05 249.59584 65.05 247.17397ZM66.12813 247.17397Q66.12813 249.28334 66.62813 249.98647Q67.12813 250.68959 67.84688 250.68959Q68.58125 250.68959 69.06563 249.98647Q69.56563 249.28334 69.56563 247.17397Q69.56563 245.04897 69.06563 244.36147Q68.58125 243.65834 67.83125 243.65834Q67.1125 243.65834 66.675 244.26772Q66.12813 245.04897 66.12813 247.17397Z" fill-rule="nonzero"/><path fill="#000000" d="M61.425 198.36667L61.425 196.30417L57.70625 196.30417L57.70625 195.33542L61.628124 189.77292L62.4875 189.77292L62.4875 195.33542L63.64375 195.33542L63.64375 196.30417L62.4875 196.30417L62.4875 198.36667L61.425 198.36667ZM61.425 195.33542L61.425 191.47604L58.7375 195.33542L61.425 195.33542ZM65.05 194.1323Q65.05 192.60104 65.3625 191.67917Q65.675 190.74167 66.28438 190.24167Q66.90938 189.74167 67.84688 189.74167Q68.53438 189.74167 69.05 190.02292Q69.58125 190.30417 69.925 190.83542Q70.26875 191.35104 70.45625 192.10104Q70.64375 192.85104 70.64375 194.1323Q70.64375 195.64792 70.33125 196.5698Q70.03438 197.49167 69.40938 198.0073Q68.8 198.5073 67.84688 198.5073Q66.6125 198.5073 65.89375 197.61667Q65.05 196.55417 65.05 194.1323ZM66.12813 194.1323Q66.12813 196.24167 66.62813 196.9448Q67.12813 197.64792 67.84688 197.64792Q68.58125 197.64792 69.06563 196.9448Q69.56563 196.24167 69.56563 194.1323Q69.56563 192.0073 69.06563 191.3198Q68.58125 190.61667 67.83125 190.61667Q67.1125 190.61667 66.675 191.22604Q66.12813 192.0073 66.12813 194.1323Z" fill-rule="nonzero"/><path fill="#000000" d="M63.51875 138.84062L62.471874 138.91875Q62.33125 138.29375 62.08125 138.0125Q61.64375 137.55937 61.01875 137.55937Q60.51875 137.55937 60.128124 137.84062Q59.64375 138.21562 59.346874 138.91875Q59.065624 139.60625 59.05 140.8875Q59.425 140.30937 59.971874 140.02812Q60.534374 139.74687 61.14375 139.74687Q62.190624 139.74687 62.925 140.52812Q63.675 141.30937 63.675 142.52812Q63.675 143.34062 63.315624 144.04375Q62.971874 144.73125 62.3625 145.10625Q61.753124 145.46562 60.9875 145.46562Q59.659374 145.46562 58.83125 144.49687Q58.003124 143.52812 58.003124 141.30937Q58.003124 138.80937 58.925 137.68437Q59.721874 136.7 61.08125 136.7Q62.096874 136.7 62.7375 137.27812Q63.39375 137.84062 63.51875 138.84062ZM59.221874 142.54375Q59.221874 143.09062 59.440624 143.59062Q59.675 144.075 60.08125 144.34062Q60.503124 144.60625 60.971874 144.60625Q61.628124 144.60625 62.1125 144.075Q62.596874 143.52812 62.596874 142.60625Q62.596874 141.71562 62.1125 141.2Q61.64375 140.68437 60.925 140.68437Q60.20625 140.68437 59.70625 141.2Q59.221874 141.71562 59.221874 142.54375ZM65.05 141.09062Q65.05 139.55937 65.3625 138.6375Q65.675 137.7 66.28438 137.2Q66.90938 136.7 67.84688 136.7Q68.53438 136.7 69.05 136.98125Q69.58125 137.2625 69.925 137.79375Q70.26875 138.30937 70.45625 139.05937Q70.64375 139.80937 70.64375 141.09062Q70.64375 142.60625 70.33125 143.52812Q70.03438 144.45 69.40938 144.96562Q68.8 145.46562 67.84688 145.46562Q66.6125 145.46562 65.89375 144.575Q65.05 143.5125 65.05 141.09062ZM66.12813 141.09062Q66.12813 143.2 66.62813 143.90312Q67.12813 144.60625 67.84688 144.60625Q68.58125 144.60625 69.06563 143.90312Q69.56563 143.2 69.56563 141.09062Q69.56563 138.96562 69.06563 138.27812Q68.58125 137.575 67.83125 137.575Q67.1125 137.575 66.675 138.18437Q66.12813 138.96562 66.12813 141.09062Z" fill-rule="nonzero"/><path fill="#000000" d="M59.675 87.62708Q59.01875 87.37708 58.690624 86.93958Q58.378124 86.48646 58.378124 85.87708Q58.378124 84.93958 59.05 84.29896Q59.7375 83.65833 60.846874 83.65833Q61.971874 83.65833 62.659374 84.31458Q63.346874 84.97083 63.346874 85.90833Q63.346874 86.50208 63.034374 86.93958Q62.721874 87.37708 62.08125 87.62708Q62.878124 87.87708 63.284374 88.45521Q63.690624 89.03333 63.690624 89.83021Q63.690624 90.92396 62.909374 91.67396Q62.14375 92.42396 60.8625 92.42396Q59.596874 92.42396 58.815624 91.67396Q58.034374 90.92396 58.034374 89.79896Q58.034374 88.95521 58.45625 88.39271Q58.89375 87.83021 59.675 87.62708ZM59.45625 85.83021Q59.45625 86.43958 59.846874 86.83021Q60.253124 87.22083 60.878124 87.22083Q61.4875 87.22083 61.878124 86.84583Q62.26875 86.45521 62.26875 85.89271Q62.26875 85.31458 61.8625 84.92396Q61.45625 84.51771 60.8625 84.51771Q60.253124 84.51771 59.846874 84.90833Q59.45625 85.29896 59.45625 85.83021ZM59.128124 89.79896Q59.128124 90.25208 59.33125 90.67396Q59.55 91.09583 59.971874 91.33021Q60.39375 91.56458 60.878124 91.56458Q61.628124 91.56458 62.1125 91.08021Q62.6125 90.59583 62.6125 89.84583Q62.6125 89.08021 62.1125 88.58021Q61.6125 88.08021 60.846874 88.08021Q60.096874 88.08021 59.6125 88.58021Q59.128124 89.06458 59.128124 89.79896ZM65.05 88.04896Q65.05 86.51771 65.3625 85.59583Q65.675 84.65833 66.28438 84.15833Q66.90938 83.65833 67.84688 83.65833Q68.53438 83.65833 69.05 83.93958Q69.58125 84.22083 69.925 84.75208Q70.26875 85.26771 70.45625 86.01771Q70.64375 86.76771 70.64375 88.04896Q70.64375 89.56458 70.33125 90.48646Q70.03438 91.40833 69.40938 91.92396Q68.8 92.42396 67.84688 92.42396Q66.6125 92.42396 65.89375 91.53333Q65.05 90.47083 65.05 88.04896ZM66.12813 88.04896Q66.12813 90.15833 66.62813 90.86146Q67.12813 91.56458 67.84688 91.56458Q68.58125 91.56458 69.06563 90.86146Q69.56563 90.15833 69.56563 88.04896Q69.56563 85.92396 69.06563 85.23646Q68.58125 84.53333 67.83125 84.53333Q67.1125 84.53333 66.675 85.14271Q66.12813 85.92396 66.12813 88.04896Z" fill-rule="nonzero"/><path fill="#000000" d="M78.51875 317.45L77.47188 317.45L77.47188 310.73126Q77.08125 311.09064 76.45625 311.46564Q75.84688 311.825 75.3625 311.9969L75.3625 310.98126Q76.2375 310.5594 76.89375 309.98126Q77.56563 309.3875 77.84688 308.825L78.51875 308.825L78.51875 317.45Z" fill-rule="nonzero"/><path fill="#000000" d="M189.47195 317.45L188.42508 317.45L188.42508 310.73126Q188.03445 311.09064 187.40945 311.46564Q186.80008 311.825 186.3157 311.9969L186.3157 310.98126Q187.1907 310.5594 187.84695 309.98126Q188.51883 309.3875 188.80008 308.825L189.47195 308.825L189.47195 317.45ZM192.5032 313.21564Q192.5032 311.6844 192.8157 310.7625Q193.1282 309.825 193.73758 309.325Q194.36258 308.825 195.30008 308.825Q195.98758 308.825 196.5032 309.10626Q197.03445 309.3875 197.3782 309.91876Q197.72195 310.4344 197.90945 311.1844Q198.09695 311.9344 198.09695 313.21564Q198.09695 314.73126 197.78445 315.65314Q197.48758 316.575 196.86258 317.09064Q196.2532 317.59064 195.30008 317.59064Q194.0657 317.59064 193.34695 316.7Q192.5032 315.6375 192.5032 313.21564ZM193.58133 313.21564Q193.58133 315.325 194.08133 316.02814Q194.58133 316.73126 195.30008 316.73126Q196.03445 316.73126 196.51883 316.02814Q197.01883 315.325 197.01883 313.21564Q197.01883 311.09064 196.51883 310.40314Q196.03445 309.7 195.28445 309.7Q194.5657 309.7 194.1282 310.3094Q193.58133 311.09064 193.58133 313.21564Z" fill-rule="nonzero"/><path fill="#000000" d="M300.42514 317.45L299.37827 317.45L299.37827 310.73126Q298.98764 311.09064 298.36264 311.46564Q297.75327 311.825 297.2689 311.9969L297.2689 310.98126Q298.1439 310.5594 298.80014 309.98126Q299.47202 309.3875 299.75327 308.825L300.42514 308.825L300.42514 317.45ZM303.4564 313.21564Q303.4564 311.6844 303.7689 310.7625Q304.0814 309.825 304.69077 309.325Q305.31577 308.825 306.25327 308.825Q306.94077 308.825 307.4564 309.10626Q307.98764 309.3875 308.3314 309.91876Q308.67514 310.4344 308.86264 311.1844Q309.05014 311.9344 309.05014 313.21564Q309.05014 314.73126 308.73764 315.65314Q308.44077 316.575 307.81577 317.09064Q307.2064 317.59064 306.25327 317.59064Q305.0189 317.59064 304.30014 316.7Q303.4564 315.6375 303.4564 313.21564ZM304.53452 313.21564Q304.53452 315.325 305.03452 316.02814Q305.53452 316.73126 306.25327 316.73126Q306.98764 316.73126 307.47202 316.02814Q307.97202 315.325 307.97202 313.21564Q307.97202 311.09064 307.47202 310.40314Q306.98764 309.7 306.23764 309.7Q305.5189 309.7 305.0814 310.3094Q304.53452 311.09064 304.53452 313.21564ZM310.4564 313.21564Q310.4564 311.6844 310.7689 310.7625Q311.0814 309.825 311.69077 309.325Q312.31577 308.825 313.25327 308.825Q313.94077 308.825 314.4564 309.10626Q314.98764 309.3875 315.3314 309.91876Q315.67514 310.4344 315.86264 311.1844Q316.05014 311.9344 316.05014 313.21564Q316.05014 314.73126 315.73764 315.65314Q315.44077 316.575 314.81577 317.09064Q314.2064 317.59064 313.25327 317.59064Q312.0189 317.59064 311.30014 316.7Q310.4564 315.6375 310.4564 313.21564ZM311.53452 313.21564Q311.53452 315.325 312.03452 316.02814Q312.53452 316.73126 313.25327 316.73126Q313.98764 316.73126 314.47202 316.02814Q314.97202 315.325 314.97202 313.21564Q314.97202 311.09064 314.47202 310.40314Q313.98764 309.7 313.23764 309.7Q312.5189 309.7 312.0814 310.3094Q311.53452 311.09064 311.53452 313.21564Z" fill-rule="nonzero"/><path fill="#000000" d="M411.37836 317.45L410.33148 317.45L410.33148 310.73126Q409.94086 311.09064 409.31586 311.46564Q408.70648 311.825 408.2221 311.9969L408.2221 310.98126Q409.0971 310.5594 409.75336 309.98126Q410.42523 309.3875 410.70648 308.825L411.37836 308.825L411.37836 317.45ZM414.4096 313.21564Q414.4096 311.6844 414.7221 310.7625Q415.0346 309.825 415.64398 309.325Q416.26898 308.825 417.20648 308.825Q417.89398 308.825 418.4096 309.10626Q418.94086 309.3875 419.2846 309.91876Q419.62836 310.4344 419.81586 311.1844Q420.00336 311.9344 420.00336 313.21564Q420.00336 314.73126 419.69086 315.65314Q419.39398 316.575 418.76898 317.09064Q418.1596 317.59064 417.20648 317.59064Q415.9721 317.59064 415.25336 316.7Q414.4096 315.6375 414.4096 313.21564ZM415.48773 313.21564Q415.48773 315.325 415.98773 316.02814Q416.48773 316.73126 417.20648 316.73126Q417.94086 316.73126 418.42523 316.02814Q418.92523 315.325 418.92523 313.21564Q418.92523 311.09064 418.42523 310.40314Q417.94086 309.7 417.19086 309.7Q416.4721 309.7 416.0346 310.3094Q415.48773 311.09064 415.48773 313.21564ZM421.4096 313.21564Q421.4096 311.6844 421.7221 310.7625Q422.0346 309.825 422.64398 309.325Q423.26898 308.825 424.20648 308.825Q424.89398 308.825 425.4096 309.10626Q425.94086 309.3875 426.2846 309.91876Q426.62836 310.4344 426.81586 311.1844Q427.00336 311.9344 427.00336 313.21564Q427.00336 314.73126 426.69086 315.65314Q426.39398 316.575 425.76898 317.09064Q425.1596 317.59064 424.20648 317.59064Q422.9721 317.59064 422.25336 316.7Q421.4096 315.6375 421.4096 313.21564ZM422.48773 313.21564Q422.48773 315.325 422.98773 316.02814Q423.48773 316.73126 424.20648 316.73126Q424.94086 316.73126 425.42523 316.02814Q425.92523 315.325 425.92523 313.21564Q425.92523 311.09064 425.42523 310.40314Q424.94086 309.7 424.19086 309.7Q423.4721 309.7 423.0346 310.3094Q422.48773 311.09064 422.48773 313.21564ZM428.4096 313.21564Q428.4096 311.6844 428.7221 310.7625Q429.0346 309.825 429.64398 309.325Q430.26898 308.825 431.20648 308.825Q431.89398 308.825 432.4096 309.10626Q432.94086 309.3875 433.2846 309.91876Q433.62836 310.4344 433.81586 311.1844Q434.00336 311.9344 434.00336 313.21564Q434.00336 314.73126 433.69086 315.65314Q433.39398 316.575 432.76898 317.09064Q432.1596 317.59064 431.20648 317.59064Q429.9721 317.59064 429.25336 316.7Q428.4096 315.6375 428.4096 313.21564ZM429.48773 313.21564Q429.48773 315.325 429.98773 316.02814Q430.48773 316.73126 431.20648 316.73126Q431.94086 316.73126 432.42523 316.02814Q432.92523 315.325 432.92523 313.21564Q432.92523 311.09064 432.42523 310.40314Q431.94086 309.7 431.19086 309.7Q430.4721 309.7 430.0346 310.3094Q429.48773 311.09064 429.48773 313.21564Z" fill-rule="nonzero"/><path stroke="#ea4335" stroke-width="4.0" stroke-linecap="butt" d="M95.5 61.916668L107.5 61.916668" fill-rule="nonzero"/><path fill="#1a1a1a" d="M116.390625 65.916664L116.390625 57.322914L118.109375 57.322914L120.140625 63.40104Q120.421875 64.260414 120.546875 64.68229Q120.6875 64.21354 121.0 63.30729L123.0625 57.322914L124.59375 57.322914L124.59375 65.916664L123.5 65.916664L123.5 58.729164L121.0 65.916664L119.96875 65.916664L117.484375 58.604164L117.484375 65.916664L116.390625 65.916664ZM129.35938 65.15104Q128.76562 65.65104 128.21875 65.854164Q127.6875 66.05729 127.0625 66.05729Q126.03125 66.05729 125.484375 65.55729Q124.9375 65.05729 124.9375 64.27604Q124.9375 63.822914 125.140625 63.447914Q125.34375 63.05729 125.6875 62.83854Q126.03125 62.604164 126.453125 62.49479Q126.75 62.40104 127.390625 62.322914Q128.65625 62.18229 129.26562 61.96354Q129.26562 61.74479 129.26562 61.697914Q129.26562 61.041664 128.96875 60.77604Q128.5625 60.43229 127.765625 60.43229Q127.03125 60.43229 126.671875 60.697914Q126.3125 60.947914 126.140625 61.604164L125.109375 61.46354Q125.25 60.80729 125.578125 60.40104Q125.90625 59.99479 126.515625 59.77604Q127.125 59.55729 127.921875 59.55729Q128.71875 59.55729 129.21875 59.74479Q129.71875 59.93229 129.95312 60.21354Q130.1875 60.49479 130.28125 60.93229Q130.32812 61.197914 130.32812 61.90104L130.32812 63.30729Q130.32812 64.77604 130.39062 65.166664Q130.46875 65.55729 130.67188 65.916664L129.5625 65.916664Q129.40625 65.58854 129.35938 65.15104ZM129.26562 62.791664Q128.6875 63.02604 127.546875 63.197914Q126.890625 63.291664 126.625 63.416664Q126.359375 63.52604 126.203125 63.74479Q126.0625 63.96354 126.0625 64.24479Q126.0625 64.666664 126.375 64.947914Q126.703125 65.229164 127.3125 65.229164Q127.921875 65.229164 128.39062 64.96354Q128.875 64.697914 129.09375 64.229164Q129.26562 63.86979 129.26562 63.18229L129.26562 62.791664ZM131.59375 65.916664L133.85938 62.68229L131.76562 59.697914L133.07812 59.697914L134.03125 61.15104Q134.29688 61.572914 134.46875 61.854164Q134.71875 61.46354 134.9375 61.166664L135.98438 59.697914L137.25 59.697914L135.09375 62.61979L137.40625 65.916664L136.125 65.916664L134.84375 63.979164L134.5 63.46354L132.85938 65.916664L131.59375 65.916664Z" fill-rule="nonzero"/><path stroke="#fbbc04" stroke-width="4.0" stroke-linecap="butt" d="M152.5 61.916668L164.5 61.916668" fill-rule="nonzero"/><path fill="#1a1a1a" d="M173.46875 65.916664L173.46875 57.322914L174.59375 57.322914L174.59375 60.854164L179.0625 60.854164L179.0625 57.322914L180.20312 57.322914L180.20312 65.916664L179.0625 65.916664L179.0625 61.86979L174.59375 61.86979L174.59375 65.916664L173.46875 65.916664ZM188.5625 62.90104L189.6875 63.197914Q189.32812 64.58854 188.40625 65.322914Q187.48438 66.05729 186.14062 66.05729Q184.75 66.05729 183.875 65.49479Q183.0 64.93229 182.54688 63.86979Q182.09375 62.791664 182.09375 61.55729Q182.09375 60.21354 182.60938 59.21354Q183.125 58.21354 184.0625 57.697914Q185.01562 57.18229 186.15625 57.18229Q187.4375 57.18229 188.3125 57.83854Q189.20312 58.49479 189.54688 59.68229L188.42188 59.947914Q188.125 59.010414 187.54688 58.58854Q186.98438 58.15104 186.125 58.15104Q185.14062 58.15104 184.46875 58.635414Q183.8125 59.104164 183.53125 59.90104Q183.26562 60.697914 183.26562 61.55729Q183.26562 62.65104 183.57812 63.46354Q183.90625 64.27604 184.57812 64.68229Q185.25 65.08854 186.04688 65.08854Q187.0 65.08854 187.65625 64.541664Q188.32812 63.99479 188.5625 62.90104Z" fill-rule="nonzero"/><path stroke="#34a853" stroke-width="4.0" stroke-linecap="butt" d="M206.5 61.916668L218.5 61.916668" fill-rule="nonzero"/><path fill="#1a1a1a" d="M227.46875 65.916664L227.46875 57.322914L228.59375 57.322914L228.59375 60.854164L233.0625 60.854164L233.0625 57.322914L234.20312 57.322914L234.20312 65.916664L233.0625 65.916664L233.0625 61.86979L228.59375 61.86979L228.59375 65.916664L227.46875 65.916664ZM242.5625 62.90104L243.6875 63.197914Q243.32812 64.58854 242.40625 65.322914Q241.48438 66.05729 240.14062 66.05729Q238.75 66.05729 237.875 65.49479Q237.0 64.93229 236.54688 63.86979Q236.09375 62.791664 236.09375 61.55729Q236.09375 60.21354 236.60938 59.21354Q237.125 58.21354 238.0625 57.697914Q239.01562 57.18229 240.15625 57.18229Q241.4375 57.18229 242.3125 57.83854Q243.20312 58.49479 243.54688 59.68229L242.42188 59.947914Q242.125 59.010414 241.54688 58.58854Q240.98438 58.15104 240.125 58.15104Q239.14062 58.15104 238.46875 58.635414Q237.8125 59.104164 237.53125 59.90104Q237.26562 60.697914 237.26562 61.55729Q237.26562 62.65104 237.57812 63.46354Q237.90625 64.27604 238.57812 64.68229Q239.25 65.08854 240.04688 65.08854Q241.0 65.08854 241.65625 64.541664Q242.32812 63.99479 242.5625 62.90104ZM247.5 64.52604L247.5 62.166664L245.17188 62.166664L245.17188 61.18229L247.5 61.18229L247.5 58.854164L248.5 58.854164L248.5 61.18229L250.84375 61.18229L250.84375 62.166664L248.5 62.166664L248.5 64.52604L247.5 64.52604ZM252.39062 65.916664L252.39062 57.322914L254.10938 57.322914L256.14062 63.40104Q256.42188 64.260414 256.54688 64.68229Q256.6875 64.21354 257.0 63.30729L259.0625 57.322914L260.59375 57.322914L260.59375 65.916664L259.5 65.916664L259.5 58.729164L257.0 65.916664L255.96875 65.916664L253.48438 58.604164L253.48438 65.916664L252.39062 65.916664ZM265.35938 65.15104Q264.76562 65.65104 264.21875 65.854164Q263.6875 66.05729 263.0625 66.05729Q262.03125 66.05729 261.48438 65.55729Q260.9375 65.05729 260.9375 64.27604Q260.9375 63.822914 261.14062 63.447914Q261.34375 63.05729 261.6875 62.83854Q262.03125 62.604164 262.45312 62.49479Q262.75 62.40104 263.39062 62.322914Q264.65625 62.18229 265.26562 61.96354Q265.26562 61.74479 265.26562 61.697914Q265.26562 61.041664 264.96875 60.77604Q264.5625 60.43229 263.76562 60.43229Q263.03125 60.43229 262.67188 60.697914Q262.3125 60.947914 262.14062 61.604164L261.10938 61.46354Q261.25 60.80729 261.57812 60.40104Q261.90625 59.99479 262.51562 59.77604Q263.125 59.55729 263.92188 59.55729Q264.71875 59.55729 265.21875 59.74479Q265.71875 59.93229 265.95312 60.21354Q266.1875 60.49479 266.28125 60.93229Q266.32812 61.197914 266.32812 61.90104L266.32812 63.30729Q266.32812 64.77604 266.39062 65.166664Q266.46875 65.55729 266.67188 65.916664L265.5625 65.916664Q265.40625 65.58854 265.35938 65.15104ZM265.26562 62.791664Q264.6875 63.02604 263.54688 63.197914Q262.89062 63.291664 262.625 63.416664Q262.35938 63.52604 262.20312 63.74479Q262.0625 63.96354 262.0625 64.24479Q262.0625 64.666664 262.375 64.947914Q262.70312 65.229164 263.3125 65.229164Q263.92188 65.229164 264.39062 64.96354Q264.875 64.697914 265.09375 64.229164Q265.26562 63.86979 265.26562 63.18229L265.26562 62.791664ZM267.59375 65.916664L269.85938 62.68229L267.76562 59.697914L269.07812 59.697914L270.03125 61.15104Q270.29688 61.572914 270.46875 61.854164Q270.71875 61.46354 270.9375 61.166664L271.98438 59.697914L273.25 59.697914L271.09375 62.61979L273.40625 65.916664L272.125 65.916664L270.84375 63.979164L270.5 63.46354L268.85938 65.916664L267.59375 65.916664Z" fill-rule="nonzero"/><path stroke="#ff6d01" stroke-width="4.0" stroke-linecap="butt" d="M288.5 61.916668L300.5 61.916668" fill-rule="nonzero"/><path fill="#1a1a1a" d="M309.46875 65.916664L309.46875 57.322914L310.59375 57.322914L310.59375 60.854164L315.0625 60.854164L315.0625 57.322914L316.20312 57.322914L316.20312 65.916664L315.0625 65.916664L315.0625 61.86979L310.59375 61.86979L310.59375 65.916664L309.46875 65.916664ZM324.5625 62.90104L325.6875 63.197914Q325.32812 64.58854 324.40625 65.322914Q323.48438 66.05729 322.14062 66.05729Q320.75 66.05729 319.875 65.49479Q319.0 64.93229 318.54688 63.86979Q318.09375 62.791664 318.09375 61.55729Q318.09375 60.21354 318.60938 59.21354Q319.125 58.21354 320.0625 57.697914Q321.01562 57.18229 322.15625 57.18229Q323.4375 57.18229 324.3125 57.83854Q325.20312 58.49479 325.54688 59.68229L324.42188 59.947914Q324.125 59.010414 323.54688 58.58854Q322.98438 58.15104 322.125 58.15104Q321.14062 58.15104 320.46875 58.635414Q319.8125 59.104164 319.53125 59.90104Q319.26562 60.697914 319.26562 61.55729Q319.26562 62.65104 319.57812 63.46354Q319.90625 64.27604 320.57812 64.68229Q321.25 65.08854 322.04688 65.08854Q323.0 65.08854 323.65625 64.541664Q324.32812 63.99479 324.5625 62.90104ZM329.5 64.52604L329.5 62.166664L327.17188 62.166664L327.17188 61.18229L329.5 61.18229L329.5 58.854164L330.5 58.854164L330.5 61.18229L332.84375 61.18229L332.84375 62.166664L330.5 62.166664L330.5 64.52604L329.5 64.52604ZM334.39062 65.916664L334.39062 57.322914L336.10938 57.322914L338.14062 63.40104Q338.42188 64.260414 338.54688 64.68229Q338.6875 64.21354 339.0 63.30729L341.0625 57.322914L342.59375 57.322914L342.59375 65.916664L341.5 65.916664L341.5 58.729164L339.0 65.916664L337.96875 65.916664L335.48438 58.604164L335.48438 65.916664L334.39062 65.916664ZM347.35938 65.15104Q346.76562 65.65104 346.21875 65.854164Q345.6875 66.05729 345.0625 66.05729Q344.03125 66.05729 343.48438 65.55729Q342.9375 65.05729 342.9375 64.27604Q342.9375 63.822914 343.14062 63.447914Q343.34375 63.05729 343.6875 62.83854Q344.03125 62.604164 344.45312 62.49479Q344.75 62.40104 345.39062 62.322914Q346.65625 62.18229 347.26562 61.96354Q347.26562 61.74479 347.26562 61.697914Q347.26562 61.041664 346.96875 60.77604Q346.5625 60.43229 345.76562 60.43229Q345.03125 60.43229 344.67188 60.697914Q344.3125 60.947914 344.14062 61.604164L343.10938 61.46354Q343.25 60.80729 343.57812 60.40104Q343.90625 59.99479 344.51562 59.77604Q345.125 59.55729 345.92188 59.55729Q346.71875 59.55729 347.21875 59.74479Q347.71875 59.93229 347.95312 60.21354Q348.1875 60.49479 348.28125 60.93229Q348.32812 61.197914 348.32812 61.90104L348.32812 63.30729Q348.32812 64.77604 348.39062 65.166664Q348.46875 65.55729 348.67188 65.916664L347.5625 65.916664Q347.40625 65.58854 347.35938 65.15104ZM347.26562 62.791664Q346.6875 63.02604 345.54688 63.197914Q344.89062 63.291664 344.625 63.416664Q344.35938 63.52604 344.20312 63.74479Q344.0625 63.96354 344.0625 64.24479Q344.0625 64.666664 344.375 64.947914Q344.70312 65.229164 345.3125 65.229164Q345.92188 65.229164 346.39062 64.96354Q346.875 64.697914 347.09375 64.229164Q347.26562 63.86979 347.26562 63.18229L347.26562 62.791664ZM349.59375 65.916664L351.85938 62.68229L349.76562 59.697914L351.07812 59.697914L352.03125 61.15104Q352.29688 61.572914 352.46875 61.854164Q352.71875 61.46354 352.9375 61.166664L353.98438 59.697914L355.25 59.697914L353.09375 62.61979L355.40625 65.916664L354.125 65.916664L352.84375 63.979164L352.5 63.46354L350.85938 65.916664L349.59375 65.916664ZM357.5 64.52604L357.5 62.166664L355.17188 62.166664L355.17188 61.18229L357.5 61.18229L357.5 58.854164L358.5 58.854164L358.5 61.18229L360.84375 61.18229L360.84375 62.166664L358.5 62.166664L358.5 64.52604L357.5 64.52604ZM363.26562 65.916664L362.28125 65.916664L362.28125 57.322914L363.34375 57.322914L363.34375 60.385414Q364.01562 59.55729 365.04688 59.55729Q365.625 59.55729 366.125 59.791664Q366.64062 60.010414 366.96875 60.43229Q367.3125 60.854164 367.5 61.447914Q367.6875 62.041664 367.6875 62.71354Q367.6875 64.30729 366.89062 65.18229Q366.09375 66.05729 365.0 66.05729Q363.89062 66.05729 363.26562 65.135414L363.26562 65.916664ZM363.25 62.760414Q363.25 63.86979 363.5625 64.36979Q364.0625 65.18229 364.90625 65.18229Q365.59375 65.18229 366.09375 64.58854Q366.60938 63.99479 366.60938 62.791664Q366.60938 61.572914 366.125 60.99479Q365.64062 60.416664 364.95312 60.416664Q364.26562 60.416664 363.75 61.02604Q363.25 61.61979 363.25 62.760414ZM373.375 65.916664L373.375 64.99479Q372.64062 66.05729 371.39062 66.05729Q370.84375 66.05729 370.35938 65.854164Q369.89062 65.635414 369.65625 65.322914Q369.42188 64.99479 369.32812 64.52604Q369.26562 64.229164 369.26562 63.541664L369.26562 59.697914L370.32812 59.697914L370.32812 63.15104Q370.32812 63.96354 370.39062 64.260414Q370.48438 64.666664 370.79688 64.916664Q371.125 65.15104 371.60938 65.15104Q372.07812 65.15104 372.48438 64.916664Q372.90625 64.666664 373.07812 64.24479Q373.26562 63.822914 373.26562 63.02604L373.26562 59.697914L374.3125 59.697914L374.3125 65.916664L373.375 65.916664ZM376.29688 58.541664L376.29688 57.322914L377.35938 57.322914L377.35938 58.541664L376.29688 58.541664ZM376.29688 65.916664L376.29688 59.697914L377.35938 59.697914L377.35938 65.916664L376.29688 65.916664ZM379.26562 65.916664L379.26562 57.322914L380.32812 57.322914L380.32812 65.916664L379.26562 65.916664ZM384.59375 64.979164L384.75 65.90104Q384.29688 65.99479 383.95312 65.99479Q383.375 65.99479 383.0625 65.822914Q382.75 65.635414 382.60938 65.33854Q382.48438 65.041664 382.48438 64.08854L382.48438 60.510414L381.71875 60.510414L381.71875 59.697914L382.48438 59.697914L382.48438 58.15104L383.53125 57.52604L383.53125 59.697914L384.59375 59.697914L384.59375 60.510414L383.53125 60.510414L383.53125 64.15104Q383.53125 64.604164 383.57812 64.729164Q383.64062 64.854164 383.76562 64.93229Q383.89062 65.010414 384.125 65.010414Q384.3125 65.010414 384.59375 64.979164ZM385.29688 58.541664L385.29688 57.322914L386.35938 57.322914L386.35938 58.541664L385.29688 58.541664ZM385.29688 65.916664L385.29688 59.697914L386.35938 59.697914L386.35938 65.916664L385.29688 65.916664ZM388.29688 65.916664L388.29688 59.697914L389.23438 59.697914L389.23438 60.572914Q389.92188 59.55729 391.21875 59.55729Q391.78125 59.55729 392.25 59.760414Q392.73438 59.96354 392.96875 60.291664Q393.20312 60.61979 393.29688 61.05729Q393.34375 61.354164 393.34375 62.08854L393.34375 65.916664L392.29688 65.916664L392.29688 62.135414Q392.29688 61.479164 392.17188 61.166664Q392.04688 60.854164 391.73438 60.666664Q391.42188 60.46354 391.0 60.46354Q390.32812 60.46354 389.82812 60.90104Q389.34375 61.322914 389.34375 62.510414L389.34375 65.916664L388.29688 65.916664ZM394.3125 68.30729L394.3125 67.541664L401.3125 67.541664L401.3125 68.30729L394.3125 68.30729ZM402.29688 65.916664L402.29688 59.697914L403.23438 59.697914L403.23438 60.572914Q403.53125 60.104164 404.01562 59.83854Q404.5 59.55729 405.125 59.55729Q405.8125 59.55729 406.25 59.83854Q406.70312 60.11979 406.875 60.635414Q407.625 59.55729 408.79688 59.55729Q409.73438 59.55729 410.21875 60.072914Q410.71875 60.572914 410.71875 61.65104L410.71875 65.916664L409.67188 65.916664L409.67188 61.99479Q409.67188 61.36979 409.5625 61.08854Q409.46875 60.80729 409.20312 60.635414Q408.9375 60.46354 408.5625 60.46354Q407.90625 60.46354 407.46875 60.90104Q407.04688 61.33854 407.04688 62.30729L407.04688 65.916664L405.98438 65.916664L405.98438 61.86979Q405.98438 61.166664 405.71875 60.822914Q405.46875 60.46354 404.89062 60.46354Q404.4375 60.46354 404.0625 60.697914Q403.6875 60.93229 403.51562 61.385414Q403.34375 61.83854 403.34375 62.68229L403.34375 65.916664L402.29688 65.916664ZM417.54688 63.916664L418.64062 64.041664Q418.39062 64.99479 417.6875 65.52604Q416.98438 66.05729 415.90625 66.05729Q414.54688 66.05729 413.73438 65.21354Q412.9375 64.36979 412.9375 62.854164Q412.9375 61.291664 413.75 60.43229Q414.5625 59.55729 415.84375 59.55729Q417.09375 59.55729 417.875 60.40104Q418.67188 61.24479 418.67188 62.791664Q418.67188 62.885414 418.67188 63.072914L414.03125 63.072914Q414.09375 64.104164 414.60938 64.65104Q415.125 65.18229 415.90625 65.18229Q416.48438 65.18229 416.89062 64.885414Q417.3125 64.572914 417.54688 63.916664ZM414.09375 62.21354L417.5625 62.21354Q417.5 61.416664 417.17188 61.02604Q416.65625 60.416664 415.85938 60.416664Q415.125 60.416664 414.625 60.90104Q414.14062 61.385414 414.09375 62.21354ZM420.29688 65.916664L420.29688 59.697914L421.23438 59.697914L421.23438 60.572914Q421.53125 60.104164 422.01562 59.83854Q422.5 59.55729 423.125 59.55729Q423.8125 59.55729 424.25 59.83854Q424.70312 60.11979 424.875 60.635414Q425.625 59.55729 426.79688 59.55729Q427.73438 59.55729 428.21875 60.072914Q428.71875 60.572914 428.71875 61.65104L428.71875 65.916664L427.67188 65.916664L427.67188 61.99479Q427.67188 61.36979 427.5625 61.08854Q427.46875 60.80729 427.20312 60.635414Q426.9375 60.46354 426.5625 60.46354Q425.90625 60.46354 425.46875 60.90104Q425.04688 61.33854 425.04688 62.30729L425.04688 65.916664L423.98438 65.916664L423.98438 61.86979Q423.98438 61.166664 423.71875 60.822914Q423.46875 60.46354 422.89062 60.46354Q422.4375 60.46354 422.0625 60.697914Q421.6875 60.93229 421.51562 61.385414Q421.34375 61.83854 421.34375 62.68229L421.34375 65.916664L420.29688 65.916664ZM435.35938 63.635414L436.39062 63.77604Q436.21875 64.83854 435.51562 65.447914Q434.8125 66.05729 433.79688 66.05729Q432.51562 66.05729 431.73438 65.229164Q430.96875 64.385414 430.96875 62.822914Q430.96875 61.822914 431.29688 61.072914Q431.64062 60.30729 432.3125 59.93229Q433.0 59.55729 433.8125 59.55729Q434.8125 59.55729 435.45312 60.072914Q436.10938 60.572914 436.29688 61.52604L435.26562 61.68229Q435.125 61.05729 434.75 60.74479Q434.375 60.416664 433.84375 60.416664Q433.04688 60.416664 432.54688 60.99479Q432.04688 61.55729 432.04688 62.791664Q432.04688 64.05729 432.53125 64.61979Q433.01562 65.18229 433.78125 65.18229Q434.40625 65.18229 434.8125 64.80729Q435.23438 64.43229 435.35938 63.635414ZM437.29688 68.30729L437.29688 59.697914L438.25 59.697914L438.25 60.49479Q438.59375 60.02604 439.01562 59.791664Q439.45312 59.55729 440.0625 59.55729Q440.85938 59.55729 441.46875 59.96354Q442.07812 60.36979 442.375 61.11979Q442.6875 61.86979 442.6875 62.760414Q442.6875 63.71354 442.34375 64.479164Q442.01562 65.24479 441.35938 65.65104Q440.70312 66.05729 439.98438 66.05729Q439.45312 66.05729 439.03125 65.83854Q438.60938 65.604164 438.34375 65.27604L438.34375 68.30729L437.29688 68.30729ZM438.25 62.83854Q438.25 64.041664 438.73438 64.61979Q439.21875 65.18229 439.90625 65.18229Q440.60938 65.18229 441.10938 64.58854Q441.60938 63.99479 441.60938 62.74479Q441.60938 61.55729 441.125 60.979164Q440.64062 60.385414 439.95312 60.385414Q439.28125 60.385414 438.76562 61.010414Q438.25 61.635414 438.25 62.83854ZM444.25 68.30729L444.125 67.322914Q444.46875 67.416664 444.73438 67.416664Q445.07812 67.416664 445.28125 67.291664Q445.5 67.18229 445.64062 66.979164Q445.73438 66.80729 445.96875 66.18229Q445.98438 66.104164 446.0625 65.93229L443.6875 59.697914L444.82812 59.697914L446.125 63.291664Q446.375 63.979164 446.57812 64.74479Q446.76562 64.010414 447.01562 63.322914L448.34375 59.697914L449.39062 59.697914L447.03125 66.02604Q446.64062 67.041664 446.4375 67.43229Q446.15625 67.96354 445.78125 68.197914Q445.42188 68.447914 444.92188 68.447914Q444.625 68.447914 444.25 68.30729Z" fill-rule="nonzero"/><path fill="#757575" d="M154.70312 37.55L150.75 27.175L152.60938 27.175L154.84375 33.39375Q155.20312 34.39375 155.5 35.471874Q155.73438 34.659374 156.15625 33.503124L158.45312 27.175L160.26562 27.175L156.34375 37.55L154.70312 37.55ZM160.78125 37.55L160.78125 23.2375L162.53125 23.2375L162.53125 37.55L160.78125 37.55ZM171.92188 34.20625L173.73438 34.440624Q173.3125 36.01875 172.14062 36.909374Q170.98438 37.784374 169.17188 37.784374Q166.90625 37.784374 165.5625 36.39375Q164.23438 34.9875 164.23438 32.45625Q164.23438 29.83125 165.57812 28.39375Q166.92188 26.940624 169.07812 26.940624Q171.15625 26.940624 172.46875 28.3625Q173.79688 29.76875 173.79688 32.346874Q173.79688 32.503124 173.78125 32.815624L166.04688 32.815624Q166.14062 34.51875 167.01562 35.425Q167.89062 36.33125 169.1875 36.33125Q170.15625 36.33125 170.82812 35.83125Q171.51562 35.315624 171.92188 34.20625ZM166.14062 31.3625L171.9375 31.3625Q171.82812 30.065624 171.28125 29.409374Q170.4375 28.39375 169.09375 28.39375Q167.89062 28.39375 167.0625 29.20625Q166.23438 30.003124 166.14062 31.3625ZM178.03125 29.784374Q176.9375 29.378124 176.40625 28.64375Q175.89062 27.89375 175.89062 26.8625Q175.89062 25.3 177.01562 24.2375Q178.14062 23.175 180.0 23.175Q181.875 23.175 183.01562 24.26875Q184.15625 25.346874 184.15625 26.909374Q184.15625 27.909374 183.625 28.64375Q183.10938 29.378124 182.04688 29.784374Q183.375 30.221874 184.0625 31.175Q184.75 32.128124 184.75 33.45625Q184.75 35.3 183.4375 36.55Q182.14062 37.8 180.03125 37.8Q177.90625 37.8 176.60938 36.55Q175.3125 35.284374 175.3125 33.409374Q175.3125 32.01875 176.01562 31.08125Q176.73438 30.128124 178.03125 29.784374ZM177.6875 26.8Q177.6875 27.815624 178.34375 28.471874Q179.0 29.1125 180.03125 29.1125Q181.04688 29.1125 181.70312 28.471874Q182.35938 27.83125 182.35938 26.909374Q182.35938 25.940624 181.6875 25.284374Q181.01562 24.6125 180.01562 24.6125Q179.01562 24.6125 178.34375 25.26875Q177.6875 25.909374 177.6875 26.8ZM177.125 33.425Q177.125 34.175 177.46875 34.878124Q177.82812 35.58125 178.53125 35.971874Q179.23438 36.346874 180.04688 36.346874Q181.3125 36.346874 182.125 35.534374Q182.95312 34.721874 182.95312 33.471874Q182.95312 32.20625 182.10938 31.378124Q181.26562 30.55 179.98438 30.55Q178.75 30.55 177.9375 31.378124Q177.125 32.190624 177.125 33.425ZM187.3125 37.55L187.3125 35.55L189.3125 35.55L189.3125 37.55L187.3125 37.55ZM195.70312 37.55L191.75 27.175L193.60938 27.175L195.84375 33.39375Q196.20312 34.39375 196.5 35.471874Q196.73438 34.659374 197.15625 33.503124L199.45312 27.175L201.26562 27.175L197.34375 37.55L195.70312 37.55ZM212.14062 37.55L206.59375 23.2375L208.64062 23.2375L212.35938 33.628124Q212.8125 34.878124 213.10938 35.971874Q213.4375 34.8 213.89062 33.628124L217.75 23.2375L219.6875 23.2375L214.07812 37.55L212.14062 37.55ZM220.96875 37.55L220.96875 23.2375L222.85938 23.2375L222.85938 35.8625L229.90625 35.8625L229.90625 37.55L220.96875 37.55ZM232.07812 37.55L232.07812 23.2375L242.4375 23.2375L242.4375 24.925L233.98438 24.925L233.98438 29.3L241.89062 29.3L241.89062 30.9875L233.98438 30.9875L233.98438 35.8625L242.76562 35.8625L242.76562 37.55L232.07812 37.55ZM245.03125 37.55L245.03125 23.2375L246.96875 23.2375L254.48438 34.471874L254.48438 23.2375L256.29688 23.2375L256.29688 37.55L254.35938 37.55L246.84375 26.3L246.84375 37.55L245.03125 37.55ZM267.0625 29.128124L257.60938 29.128124L257.60938 27.4875L267.0625 27.4875L267.0625 29.128124ZM267.0625 33.471874L257.60938 33.471874L257.60938 31.83125L267.0625 31.83125L267.0625 33.471874ZM275.95312 37.55L274.1875 37.55L274.1875 26.346874Q273.5625 26.95625 272.53125 27.565624Q271.5 28.159374 270.67188 28.471874L270.67188 26.76875Q272.15625 26.08125 273.25 25.096874Q274.35938 24.096874 274.8125 23.175L275.95312 23.175L275.95312 37.55ZM280.32812 30.4875Q280.32812 27.95625 280.84375 26.409374Q281.375 24.846874 282.40625 24.01875Q283.4375 23.175 285.0 23.175Q286.15625 23.175 287.01562 23.64375Q287.89062 24.096874 288.45312 24.971874Q289.01562 25.846874 289.34375 27.1125Q289.67188 28.3625 289.67188 30.4875Q289.67188 33.003124 289.14062 34.55Q288.625 36.096874 287.59375 36.95625Q286.57812 37.8 285.0 37.8Q282.92188 37.8 281.75 36.315624Q280.32812 34.51875 280.32812 30.4875ZM282.14062 30.4875Q282.14062 34.01875 282.95312 35.190624Q283.78125 36.346874 285.0 36.346874Q286.20312 36.346874 287.03125 35.175Q287.85938 34.003124 287.85938 30.4875Q287.85938 26.95625 287.03125 25.8Q286.20312 24.628124 284.98438 24.628124Q283.76562 24.628124 283.04688 25.659374Q282.14062 26.95625 282.14062 30.4875ZM300.5625 35.8625L300.5625 37.55L291.10938 37.55Q291.09375 36.909374 291.3125 36.33125Q291.67188 35.3625 292.46875 34.425Q293.26562 33.4875 294.76562 32.253124Q297.10938 30.346874 297.92188 29.2375Q298.75 28.1125 298.75 27.1125Q298.75 26.065624 298.0 25.346874Q297.25 24.628124 296.04688 24.628124Q294.78125 24.628124 294.01562 25.39375Q293.25 26.159374 293.25 27.503124L291.4375 27.315624Q291.625 25.3 292.82812 24.2375Q294.04688 23.175 296.09375 23.175Q298.14062 23.175 299.34375 24.315624Q300.54688 25.45625 300.54688 27.14375Q300.54688 28.003124 300.1875 28.846874Q299.84375 29.675 299.03125 30.596874Q298.21875 31.503124 296.32812 33.1125Q294.73438 34.440624 294.28125 34.909374Q293.84375 35.378124 293.54688 35.8625L300.5625 35.8625ZM307.96875 37.55L307.96875 34.128124L301.75 34.128124L301.75 32.503124L308.28125 23.2375L309.71875 23.2375L309.71875 32.503124L311.65625 32.503124L311.65625 34.128124L309.71875 34.128124L309.71875 37.55L307.96875 37.55ZM307.96875 32.503124L307.96875 26.05L303.48438 32.503124L307.96875 32.503124ZM319.96875 37.55L319.96875 23.2375L321.85938 23.2375L321.85938 35.8625L328.90625 35.8625L328.90625 37.55L319.96875 37.55ZM330.98438 37.55L330.98438 23.2375L333.84375 23.2375L337.21875 33.3625Q337.6875 34.784374 337.90625 35.4875Q338.15625 34.70625 338.67188 33.190624L342.09375 23.2375L344.64062 23.2375L344.64062 37.55L342.82812 37.55L342.82812 25.565624L338.65625 37.55L336.95312 37.55L332.8125 25.3625L332.8125 37.55L330.98438 37.55ZM357.4375 23.2375L359.32812 23.2375L359.32812 31.503124Q359.32812 33.659374 358.84375 34.940624Q358.35938 36.20625 357.07812 37.003124Q355.8125 37.8 353.73438 37.8Q351.71875 37.8 350.4375 37.1125Q349.17188 36.409374 348.625 35.096874Q348.07812 33.784374 348.07812 31.503124L348.07812 23.2375L349.96875 23.2375L349.96875 31.4875Q349.96875 33.3625 350.3125 34.253124Q350.65625 35.128124 351.5 35.6125Q352.34375 36.08125 353.57812 36.08125Q355.65625 36.08125 356.54688 35.14375Q357.4375 34.190624 357.4375 31.4875L357.4375 23.2375ZM360.96875 37.55L360.96875 23.2375L362.85938 23.2375L362.85938 35.8625L369.90625 35.8625L369.90625 37.55L360.96875 37.55ZM381.0625 29.128124L371.60938 29.128124L371.60938 27.4875L381.0625 27.4875L381.0625 29.128124ZM381.0625 33.471874L371.60938 33.471874L371.60938 31.83125L381.0625 31.83125L381.0625 33.471874ZM386.03125 29.784374Q384.9375 29.378124 384.40625 28.64375Q383.89062 27.89375 383.89062 26.8625Q383.89062 25.3 385.01562 24.2375Q386.14062 23.175 388.0 23.175Q389.875 23.175 391.01562 24.26875Q392.15625 25.346874 392.15625 26.909374Q392.15625 27.909374 391.625 28.64375Q391.10938 29.378124 390.04688 29.784374Q391.375 30.221874 392.0625 31.175Q392.75 32.128124 392.75 33.45625Q392.75 35.3 391.4375 36.55Q390.14062 37.8 388.03125 37.8Q385.90625 37.8 384.60938 36.55Q383.3125 35.284374 383.3125 33.409374Q383.3125 32.01875 384.01562 31.08125Q384.73438 30.128124 386.03125 29.784374ZM385.6875 26.8Q385.6875 27.815624 386.34375 28.471874Q387.0 29.1125 388.03125 29.1125Q389.04688 29.1125 389.70312 28.471874Q390.35938 27.83125 390.35938 26.909374Q390.35938 25.940624 389.6875 25.284374Q389.01562 24.6125 388.01562 24.6125Q387.01562 24.6125 386.34375 25.26875Q385.6875 25.909374 385.6875 26.8ZM385.125 33.425Q385.125 34.175 385.46875 34.878124Q385.82812 35.58125 386.53125 35.971874Q387.23438 36.346874 388.04688 36.346874Q389.3125 36.346874 390.125 35.534374Q390.95312 34.721874 390.95312 33.471874Q390.95312 32.20625 390.10938 31.378124Q389.26562 30.55 387.98438 30.55Q386.75 30.55 385.9375 31.378124Q385.125 32.190624 385.125 33.425Z" fill-rule="nonzero"/></svg>