<svg version="1.1" viewBox="0.0 0.0 544.0 371.0" fill="none" stroke="none" stroke-linecap="square" stroke-miterlimit="10" width="544" height="371" xmlns:xlink="http://www.w3.org/1999/xlink" xmlns="http://www.w3.org/2000/svg"><path fill="#ffffff" d="M0 0L544.0 0L544.0 371.0L0 371.0L0 0Z" fill-rule="nonzero"/><path stroke="#cccccc" stroke-width="1.0" stroke-linecap="butt" d="M77.5 61.5L77.5 300.5" fill-rule="nonzero"/><path stroke="#cccccc" stroke-width="1.0" stroke-linecap="butt" d="M212.5 61.5L212.5 300.5" fill-rule="nonzero"/><path stroke="#cccccc" stroke-width="1.0" stroke-linecap="butt" d="M348.5 61.5L348.5 300.5" fill-rule="nonzero"/><path stroke="#cccccc" stroke-width="1.0" stroke-linecap="butt" d="M483.5 61.5L483.5 300.5" fill-rule="nonzero"/><path stroke="#333333" stroke-width="1.0" stroke-linecap="butt" d="M77.5 300.5L525.5 300.5" fill-rule="nonzero"/><path stroke="#cccccc" stroke-width="1.0" stroke-linecap="butt" d="M77.5 252.5L525.5 252.5" fill-rule="nonzero"/><path stroke="#cccccc" stroke-width="1.0" stroke-linecap="butt" d="M77.5 205.5L525.5 205.5" fill-rule="nonzero"/><path stroke="#cccccc" stroke-width="1.0" stroke-linecap="butt" d="M77.5 157.5L525.5 157.5" fill-rule="nonzero"/><path stroke="#cccccc" stroke-width="1.0" stroke-linecap="butt" d="M77.5 109.5L525.5 109.5" fill-rule="nonzero"/><path stroke="#cccccc" stroke-width="1.0" stroke-linecap="butt" d="M77.5 61.5L525.5 61.5" fill-rule="nonzero"/><clipPath id="id_0"><path d="M77.55 61.916668L525.45 61.916668L525.45 300.45L77.55 300.45L77.55 61.916668Z" clip-rule="nonzero"/></clipPath><path stroke="#ea4335" stroke-width="2.0" stroke-linecap="butt" clip-path="url(#id_0)" d="M77.55 264.67L118.26818 258.6925L158.98636 219.27611L199.70454 166.7625L240.42273 150.53325L281.1409 111.779564L321.8591 121.03145L362.57727 117.16747L403.29544 99.47923L444.01364 97.68781L484.7318 96.14707L525.45 95.60821" fill-rule="nonzero"/><path fill="#000000" fill-opacity="0.0" clip-path="url(#id_0)" d="M80.55 264.67C80.55 266.32684 79.206856 267.67 77.55 267.67C75.89314 267.67 74.55 266.32684 74.55 264.67C74.55 263.01315 75.89314 261.67 77.55 261.67C79.206856 261.67 80.55 263.01315 80.55 264.67Z" fill-rule="nonzero"/><path fill="#000000" fill-opacity="0.0" clip-path="url(#id_0)" d="M121.26818 258.6925C121.26818 260.34937 119.92503 261.6925 118.26818 261.6925C116.61133 261.6925 115.26818 260.34937 115.26818 258.6925C115.26818 257.03564 116.61133 255.6925 118.26818 255.6925C119.92503 255.6925 121.26818 257.03564 121.26818 258.6925Z" fill-rule="nonzero"/><path fill="#000000" fill-opacity="0.0" clip-path="url(#id_0)" d="M161.98636 219.27611C161.98636 220.93297 160.64322 222.27611 158.98636 222.27611C157.32951 222.27611 155.98636 220.93297 155.98636 219.27611C155.98636 217.61925 157.32951 216.27611 158.98636 216.27611C160.64322 216.27611 161.98636 217.61925 161.98636 219.27611Z" fill-rule="nonzero"/><path fill="#000000" fill-opacity="0.0" clip-path="url(#id_0)" d="M202.70454 166.7625C202.70454 168.41936 201.3614 169.7625 199.70454 169.7625C198.04768 169.7625 196.70454 168.41936 196.70454 166.7625C196.70454 165.10564 198.04768 163.7625 199.70454 163.7625C201.3614 163.7625 202.70454 165.10564 202.70454 166.7625Z" fill-rule="nonzero"/><path fill="#000000" fill-opacity="0.0" clip-path="url(#id_0)" d="M243.42273 150.53325C243.42273 152.19011 242.07957 153.53325 240.42273 153.53325C238.76587 153.53325 237.42273 152.19011 237.42273 150.53325C237.42273 148.8764 238.76587 147.53325 240.42273 147.53325C242.07957 147.53325 243.42273 148.8764 243.42273 150.53325Z" fill-rule="nonzero"/><path fill="#000000" fill-opacity="0.0" clip-path="url(#id_0)" d="M284.1409 111.779564C284.1409 113.436424 282.79776 114.779564 281.1409 114.779564C279.48407 114.779564 278.1409 113.436424 278.1409 111.779564C278.1409 110.12271 279.48407 108.779564 281.1409 108.779564C282.79776 108.779564 284.1409 110.12271 284.1409 111.779564Z" fill-rule="nonzero"/><path fill="#000000" fill-opacity="0.0" clip-path="url(#id_0)" d="M324.8591 121.03145C324.8591 122.6883 323.51593 124.03145 321.8591 124.03145C320.20224 124.03145 318.8591 122.6883 318.8591 121.03145C318.8591 119.374596 320.20224 118.03145 321.8591 118.03145C323.51593 118.03145 324.8591 119.374596 324.8591 121.03145Z" fill-rule="nonzero"/><path fill="#000000" fill-opacity="0.0" clip-path="url(#id_0)" d="M365.57727 117.16747C365.57727 118.824326 364.23413 120.16747 362.57727 120.16747C360.9204 120.16747 359.57727 118.824326 359.57727 117.16747C359.57727 115.51062 360.9204 114.16747 362.57727 114.16747C364.23413 114.16747 365.57727 115.51062 365.57727 117.16747Z" fill-rule="nonzero"/><path fill="#000000" fill-opacity="0.0" clip-path="url(#id_0)" d="M406.29544 99.47923C406.29544 101.136086 404.9523 102.47923 403.29544 102.47923C401.6386 102.47923 400.29544 101.136086 400.29544 99.47923C400.29544 97.82238 401.6386 96.47923 403.29544 96.47923C404.9523 96.47923 406.29544 97.82238 406.29544 99.47923Z" fill-rule="nonzero"/><path fill="#000000" fill-opacity="0.0" clip-path="url(#id_0)" d="M447.01364 97.68781C447.01364 99.344666 445.6705 100.68781 444.01364 100.68781C442.35678 100.68781 441.01364 99.344666 441.01364 97.68781C441.01364 96.03096 442.35678 94.68781 444.01364 94.68781C445.6705 94.68781 447.01364 96.03096 447.01364 97.68781Z" fill-rule="nonzero"/><path fill="#000000" fill-opacity="0.0" clip-path="url(#id_0)" d="M487.7318 96.14707C487.7318 97.803925 486.38867 99.14707 484.7318 99.14707C483.07495 99.14707 481.7318 97.803925 481.7318 96.14707C481.7318 94.49022 483.07495 93.14707 484.7318 93.14707C486.38867 93.14707 487.7318 94.49022 487.7318 96.14707Z" fill-rule="nonzero"/><path fill="#000000" fill-opacity="0.0" clip-path="url(#id_0)" d="M528.45 95.60821C528.45 97.26506 527.1069 98.60821 525.45 98.60821C523.79315 98.60821 522.45 97.26506 522.45 95.60821C522.45 93.951355 523.79315 92.60821 525.45 92.60821C527.1069 92.60821 528.45 93.951355 528.45 95.60821Z" fill-rule="nonzero"/><path fill="#000000" d="M270.54688 346.6844L271.60938 346.59064Q271.6875 347.2469 271.96875 347.65314Q272.25 348.0594 272.82812 348.325Q273.42188 348.575 274.15625 348.575Q274.79688 348.575 275.29688 348.3875Q275.79688 348.1844 276.03125 347.85626Q276.28125 347.5125 276.28125 347.1219Q276.28125 346.71564 276.04688 346.41876Q275.8125 346.10626 275.28125 345.90314Q274.92188 345.7625 273.73438 345.48126Q272.5625 345.2 272.09375 344.95Q271.46875 344.6219 271.17188 344.15314Q270.875 343.66876 270.875 343.075Q270.875 342.4344 271.23438 341.8719Q271.60938 341.29376 272.3125 341.0125Q273.03125 340.71564 273.89062 340.71564Q274.84375 340.71564 275.57812 341.02814Q276.3125 341.325 276.70312 341.9344Q277.09375 342.52814 277.125 343.27814L276.03125 343.35626Q275.9375 342.54376 275.42188 342.1375Q274.92188 341.71564 273.9375 341.71564Q272.90625 341.71564 272.4375 342.09064Q271.96875 342.46564 271.96875 342.9969Q271.96875 343.46564 272.29688 343.7625Q272.625 344.0594 274.0 344.3719Q275.39062 344.6844 275.90625 344.91876Q276.65625 345.27814 277.01562 345.8094Q277.375 346.325 277.375 347.02814Q277.375 347.71564 276.98438 348.325Q276.59375 348.91876 275.85938 349.2625Q275.125 349.59064 274.20312 349.59064Q273.03125 349.59064 272.23438 349.2625Q271.45312 348.91876 271.0 348.23126Q270.5625 347.54376 270.54688 346.6844ZM278.79688 342.075L278.79688 340.85626L279.85938 340.85626L279.85938 342.075L278.79688 342.075ZM278.79688 349.45L278.79688 343.23126L279.85938 343.23126L279.85938 349.45L278.79688 349.45ZM281.23438 349.45L281.23438 348.59064L285.20312 344.04376Q284.51562 344.075 284.0 344.075L281.46875 344.075L281.46875 343.23126L286.5625 343.23126L286.5625 343.91876L283.1875 347.8719L282.53125 348.59064Q283.25 348.54376 283.85938 348.54376L286.75 348.54376L286.75 349.45L281.23438 349.45ZM291.04688 347.45L292.14062 347.575Q291.89062 348.52814 291.1875 349.0594Q290.48438 349.59064 289.40625 349.59064Q288.04688 349.59064 287.23438 348.7469Q286.4375 347.90314 286.4375 346.3875Q286.4375 344.825 287.25 343.96564Q288.0625 343.09064 289.34375 343.09064Q290.59375 343.09064 291.375 343.9344Q292.17188 344.77814 292.17188 346.325Q292.17188 346.41876 292.17188 346.60626L287.53125 346.60626Q287.59375 347.6375 288.10938 348.1844Q288.625 348.71564 289.40625 348.71564Q289.98438 348.71564 290.39062 348.41876Q290.8125 348.10626 291.04688 347.45ZM287.59375 345.7469L291.0625 345.7469Q291.0 344.95 290.67188 344.5594Q290.15625 343.95 289.35938 343.95Q288.625 343.95 288.125 344.4344Q287.64062 344.91876 287.59375 345.7469ZM298.8125 351.98126Q297.9375 350.8719 297.32812 349.40314Q296.73438 347.91876 296.73438 346.34064Q296.73438 344.95 297.17188 343.66876Q297.70312 342.1844 298.8125 340.71564L299.5625 340.71564Q298.85938 341.9344 298.625 342.45Q298.26562 343.2625 298.0625 344.1375Q297.8125 345.23126 297.8125 346.34064Q297.8125 349.16876 299.5625 351.98126L298.8125 351.98126ZM301.76562 349.45L300.78125 349.45L300.78125 340.85626L301.84375 340.85626L301.84375 343.91876Q302.51562 343.09064 303.54688 343.09064Q304.125 343.09064 304.625 343.325Q305.14062 343.54376 305.46875 343.96564Q305.8125 344.3875 306.0 344.98126Q306.1875 345.575 306.1875 346.2469Q306.1875 347.84064 305.39062 348.71564Q304.59375 349.59064 303.5 349.59064Q302.39062 349.59064 301.76562 348.66876L301.76562 349.45ZM301.75 346.29376Q301.75 347.40314 302.0625 347.90314Q302.5625 348.71564 303.40625 348.71564Q304.09375 348.71564 304.59375 348.1219Q305.10938 347.52814 305.10938 346.325Q305.10938 345.10626 304.625 344.52814Q304.14062 343.95 303.45312 343.95Q302.76562 343.95 302.25 344.5594Q301.75 345.15314 301.75 346.29376ZM307.75 351.84064L307.625 350.85626Q307.96875 350.95 308.23438 350.95Q308.57812 350.95 308.78125 350.825Q309.0 350.71564 309.14062 350.5125Q309.23438 350.34064 309.46875 349.71564Q309.48438 349.6375 309.5625 349.46564L307.1875 343.23126L308.32812 343.23126L309.625 346.825Q309.875 347.5125 310.07812 348.27814Q310.26562 347.54376 310.51562 346.85626L311.84375 343.23126L312.89062 343.23126L310.53125 349.5594Q310.14062 350.575 309.9375 350.96564Q309.65625 351.4969 309.28125 351.73126Q308.92188 351.98126 308.42188 351.98126Q308.125 351.98126 307.75 351.84064ZM315.09375 348.5125L315.25 349.4344Q314.79688 349.52814 314.45312 349.52814Q313.875 349.52814 313.5625 349.35626Q313.25 349.16876 313.10938 348.8719Q312.98438 348.575 312.98438 347.6219L312.98438 344.04376L312.21875 344.04376L312.21875 343.23126L312.98438 343.23126L312.98438 341.6844L314.03125 341.0594L314.03125 343.23126L315.09375 343.23126L315.09375 344.04376L314.03125 344.04376L314.03125 347.6844Q314.03125 348.1375 314.07812 348.2625Q314.14062 348.3875 314.26562 348.46564Q314.39062 348.54376 314.625 348.54376Q314.8125 348.54376 315.09375 348.5125ZM320.04688 347.45L321.14062 347.575Q320.89062 348.52814 320.1875 349.0594Q319.48438 349.59064 318.40625 349.59064Q317.04688 349.59064 316.23438 348.7469Q315.4375 347.90314 315.4375 346.3875Q315.4375 344.825 316.25 343.96564Q317.0625 343.09064 318.34375 343.09064Q319.59375 343.09064 320.375 343.9344Q321.17188 344.77814 321.17188 346.325Q321.17188 346.41876 321.17188 346.60626L316.53125 346.60626Q316.59375 347.6375 317.10938 348.1844Q317.625 348.71564 318.40625 348.71564Q318.98438 348.71564 319.39062 348.41876Q319.8125 348.10626 320.04688 347.45ZM316.59375 345.7469L320.0625 345.7469Q320.0 344.95 319.67188 344.5594Q319.15625 343.95 318.35938 343.95Q317.625 343.95 317.125 344.4344Q316.64062 344.91876 316.59375 345.7469ZM322.375 347.59064L323.40625 347.4344Q323.5 348.0594 323.89062 348.3875Q324.29688 348.71564 325.03125 348.71564Q325.75 348.71564 326.09375 348.4344Q326.45312 348.1375 326.45312 347.73126Q326.45312 347.3719 326.14062 347.16876Q325.92188 347.02814 325.0625 346.8094Q323.90625 346.5125 323.45312 346.3094Q323.01562 346.09064 322.78125 345.71564Q322.54688 345.34064 322.54688 344.8719Q322.54688 344.46564 322.73438 344.10626Q322.92188 343.7469 323.25 343.5125Q323.5 343.34064 323.92188 343.21564Q324.34375 343.09064 324.84375 343.09064Q325.5625 343.09064 326.10938 343.3094Q326.67188 343.5125 326.9375 343.8719Q327.20312 344.23126 327.29688 344.825L326.26562 344.96564Q326.20312 344.4969 325.85938 344.23126Q325.53125 343.95 324.90625 343.95Q324.1875 343.95 323.875 344.2Q323.5625 344.4344 323.5625 344.7625Q323.5625 344.96564 323.6875 345.1219Q323.82812 345.29376 324.09375 345.40314Q324.25 345.46564 325.03125 345.66876Q326.15625 345.98126 326.59375 346.16876Q327.03125 346.35626 327.28125 346.71564Q327.53125 347.075 327.53125 347.6219Q327.53125 348.15314 327.21875 348.6219Q326.92188 349.075 326.34375 349.34064Q325.76562 349.59064 325.03125 349.59064Q323.8125 349.59064 323.17188 349.09064Q322.54688 348.575 322.375 347.59064ZM330.48438 351.98126L329.73438 351.98126Q331.48438 349.16876 331.48438 346.34064Q331.48438 345.2469 331.23438 344.15314Q331.03125 343.27814 330.67188 342.46564Q330.4375 341.95 329.73438 340.71564L330.48438 340.71564Q331.57812 342.1844 332.10938 343.66876Q332.5625 344.95 332.5625 346.34064Q332.5625 347.91876 331.95312 349.40314Q331.34375 350.8719 330.48438 351.98126Z" fill-rule="nonzero"/><path fill="#000000" d="M26.784388 252.13646L26.690638 251.07396Q27.346888 250.99583 27.753138 250.71458Q28.159388 250.43333 28.425013 249.85521Q28.675013 249.26146 28.675013 248.52708Q28.675013 247.88646 28.487513 247.38646Q28.284388 246.88646 27.956263 246.65208Q27.612513 246.40208 27.221888 246.40208Q26.815638 246.40208 26.518763 246.63646Q26.206263 246.87083 26.003138 247.40208Q25.862513 247.76146 25.581263 248.94896Q25.300013 250.12083 25.050013 250.58958Q24.721888 251.21458 24.253138 251.51146Q23.768763 251.80833 23.175013 251.80833Q22.534388 251.80833 21.971888 251.44896Q21.393763 251.07396 21.112513 250.37083Q20.815638 249.65208 20.815638 248.79271Q20.815638 247.83958 21.128138 247.10521Q21.425013 246.37083 22.034388 245.98021Q22.628138 245.58958 23.378138 245.55833L23.456263 246.65208Q22.643763 246.74583 22.237513 247.26146Q21.815638 247.76146 21.815638 248.74583Q21.815638 249.77708 22.190638 250.24583Q22.565638 250.71458 23.096888 250.71458Q23.565638 250.71458 23.862513 250.38646Q24.159388 250.05833 24.471888 248.68333Q24.784388 247.29271 25.018763 246.77708Q25.378138 246.02708 25.909388 245.66771Q26.425013 245.30833 27.128138 245.30833Q27.815638 245.30833 28.425013 245.69896Q29.018763 246.08958 29.362513 246.82396Q29.690638 247.55833 29.690638 248.48021Q29.690638 249.65208 29.362513 250.44896Q29.018763 251.23021 28.331263 251.68333Q27.643763 252.12083 26.784388 252.13646ZM31.940638 243.88646L23.331263 243.88646L23.331263 242.93333L24.128138 242.93333Q23.659388 242.58958 23.425013 242.16771Q23.190638 241.73021 23.190638 241.12083Q23.190638 240.32396 23.596888 239.71458Q24.003138 239.10521 24.753138 238.80833Q25.503138 238.49583 26.393763 238.49583Q27.346888 238.49583 28.112513 238.83958Q28.878138 239.16771 29.284388 239.82396Q29.690638 240.48021 29.690638 241.19896Q29.690638 241.73021 29.471888 242.15208Q29.237513 242.57396 28.909388 242.83958L31.940638 242.83958L31.940638 243.88646ZM26.471888 242.93333Q27.675013 242.93333 28.253138 242.44896Q28.815638 241.96458 28.815638 241.27708Q28.815638 240.57396 28.221888 240.07396Q27.628138 239.57396 26.378138 239.57396Q25.190638 239.57396 24.612513 240.05833Q24.018763 240.54271 24.018763 241.23021Q24.018763 241.90208 24.643763 242.41771Q25.268763 242.93333 26.471888 242.93333ZM27.550013 232.63646L27.675013 231.54271Q28.628138 231.79271 29.159388 232.49583Q29.690638 233.19896 29.690638 234.27708Q29.690638 235.63646 28.846888 236.44896Q28.003138 237.24583 26.487513 237.24583Q24.925013 237.24583 24.065638 236.43333Q23.190638 235.62083 23.190638 234.33958Q23.190638 233.08958 24.034388 232.30833Q24.878138 231.51146 26.425013 231.51146Q26.518763 231.51146 26.706263 231.51146L26.706263 236.15208Q27.737513 236.08958 28.284388 235.57396Q28.815638 235.05833 28.815638 234.27708Q28.815638 233.69896 28.518763 233.29271Q28.206263 232.87083 27.550013 232.63646ZM25.846888 236.08958L25.846888 232.62083Q25.050013 232.68333 24.659388 233.01146Q24.050013 233.52708 24.050013 234.32396Q24.050013 235.05833 24.534388 235.55833Q25.018763 236.04271 25.846888 236.08958ZM27.550013 225.63646L27.675013 224.54271Q28.628138 224.79271 29.159388 225.49583Q29.690638 226.19896 29.690638 227.27708Q29.690638 228.63646 28.846888 229.44896Q28.003138 230.24583 26.487513 230.24583Q24.925013 230.24583 24.065638 229.43333Q23.190638 228.62083 23.190638 227.33958Q23.190638 226.08958 24.034388 225.30833Q24.878138 224.51146 26.425013 224.51146Q26.518763 224.51146 26.706263 224.51146L26.706263 229.15208Q27.737513 229.08958 28.284388 228.57396Q28.815638 228.05833 28.815638 227.27708Q28.815638 226.69896 28.518763 226.29271Q28.206263 225.87083 27.550013 225.63646ZM25.846888 229.08958L25.846888 225.62083Q25.050013 225.68333 24.659388 226.01146Q24.050013 226.52708 24.050013 227.32396Q24.050013 228.05833 24.534388 228.55833Q25.018763 229.04271 25.846888 229.08958ZM29.550013 218.85521L28.768763 218.85521Q29.690638 219.44896 29.690638 220.58958Q29.690638 221.33958 29.284388 221.96458Q28.862513 222.58958 28.128138 222.93333Q27.393763 223.27708 26.440638 223.27708Q25.518763 223.27708 24.753138 222.96458Q23.987513 222.65208 23.596888 222.02708Q23.190638 221.40208 23.190638 220.63646Q23.190638 220.07396 23.425013 219.63646Q23.659388 219.19896 24.034388 218.91771L20.956263 218.91771L20.956263 217.87083L29.550013 217.87083L29.550013 218.85521ZM26.440638 222.18333Q27.643763 222.18333 28.237513 221.68333Q28.815638 221.18333 28.815638 220.49583Q28.815638 219.80833 28.253138 219.32396Q27.690638 218.83958 26.534388 218.83958Q25.253138 218.83958 24.659388 219.33958Q24.065638 219.82396 24.065638 220.54271Q24.065638 221.24583 24.643763 221.71458Q25.206263 222.18333 26.440638 222.18333ZM29.550013 208.80833L28.628138 208.80833Q29.690638 209.54271 29.690638 210.79271Q29.690638 211.33958 29.487513 211.82396Q29.268763 212.29271 28.956263 212.52708Q28.628138 212.76146 28.159388 212.85521Q27.862513 212.91771 27.175013 212.91771L23.331263 212.91771L23.331263 211.85521L26.784388 211.85521Q27.596888 211.85521 27.893763 211.79271Q28.300013 211.69896 28.550013 211.38646Q28.784388 211.05833 28.784388 210.57396Q28.784388 210.10521 28.550013 209.69896Q28.300013 209.27708 27.878138 209.10521Q27.456263 208.91771 26.659388 208.91771L23.331263 208.91771L23.331263 207.87083L29.550013 207.87083L29.550013 208.80833ZM31.940638 205.88646L23.331263 205.88646L23.331263 204.93333L24.128138 204.93333Q23.659388 204.58958 23.425013 204.16771Q23.190638 203.73021 23.190638 203.12083Q23.190638 202.32396 23.596888 201.71458Q24.003138 201.10521 24.753138 200.80833Q25.503138 200.49583 26.393763 200.49583Q27.346888 200.49583 28.112513 200.83958Q28.878138 201.16771 29.284388 201.82396Q29.690638 202.48021 29.690638 203.19896Q29.690638 203.73021 29.471888 204.15208Q29.237513 204.57396 28.909388 204.83958L31.940638 204.83958L31.940638 205.88646ZM26.471888 204.93333Q27.675013 204.93333 28.253138 204.44896Q28.815638 203.96458 28.815638 203.27708Q28.815638 202.57396 28.221888 202.07396Q27.628138 201.57396 26.378138 201.57396Q25.190638 201.57396 24.612513 202.05833Q24.018763 202.54271 24.018763 203.23021Q24.018763 203.90208 24.643763 204.41771Q25.268763 204.93333 26.471888 204.93333ZM26.440638 196.27708Q24.706263 196.27708 23.878138 195.32396Q23.190638 194.52708 23.190638 193.37083Q23.190638 192.08958 24.034388 191.27708Q24.862513 190.44896 26.346888 190.44896Q27.550013 190.44896 28.237513 190.80833Q28.925013 191.16771 29.315638 191.87083Q29.690638 192.55833 29.690638 193.37083Q29.690638 194.66771 28.862513 195.48021Q28.018763 196.27708 26.440638 196.27708ZM26.440638 195.19896Q27.628138 195.19896 28.221888 194.68333Q28.815638 194.15208 28.815638 193.37083Q28.815638 192.57396 28.221888 192.05833Q27.628138 191.54271 26.409388 191.54271Q25.253138 191.54271 24.659388 192.07396Q24.065638 192.58958 24.065638 193.37083Q24.065638 194.15208 24.659388 194.68333Q25.237513 195.19896 26.440638 195.19896ZM29.550013 187.16771L23.331263 189.52708L23.331263 188.41771L27.050013 187.07396Q27.659388 186.87083 28.300013 186.68333Q27.815638 186.54271 27.128138 186.29271L23.331263 184.90208L23.331263 183.82396L29.550013 186.18333L29.550013 187.16771ZM27.550013 179.63646L27.675013 178.54271Q28.628138 178.79271 29.159388 179.49583Q29.690638 180.19896 29.690638 181.27708Q29.690638 182.63646 28.846888 183.44896Q28.003138 184.24583 26.487513 184.24583Q24.925013 184.24583 24.065638 183.43333Q23.190638 182.62083 23.190638 181.33958Q23.190638 180.08958 24.034388 179.30833Q24.878138 178.51146 26.425013 178.51146Q26.518763 178.51146 26.706263 178.51146L26.706263 183.15208Q27.737513 183.08958 28.284388 182.57396Q28.815638 182.05833 28.815638 181.27708Q28.815638 180.69896 28.518763 180.29271Q28.206263 179.87083 27.550013 179.63646ZM25.846888 183.08958L25.846888 179.62083Q25.050013 179.68333 24.659388 180.01146Q24.050013 180.52708 24.050013 181.32396Q24.050013 182.05833 24.534388 182.55833Q25.018763 183.04271 25.846888 183.08958ZM29.550013 176.90208L23.331263 176.90208L23.331263 175.94896L24.268763 175.94896Q23.612513 175.58958 23.409388 175.29271Q23.190638 174.98021 23.190638 174.60521Q23.190638 174.07396 23.518763 173.52708L24.503138 173.88646Q24.268763 174.27708 24.268763 174.65208Q24.268763 175.01146 24.487513 175.29271Q24.690638 175.55833 25.065638 175.66771Q25.628138 175.85521 26.284388 175.85521L29.550013 175.85521L29.550013 176.90208ZM29.550013 168.91771L29.550013 169.90208L20.956263 169.90208L20.956263 168.83958L24.018763 168.83958Q23.190638 168.16771 23.190638 167.13646Q23.190638 166.55833 23.425013 166.05833Q23.643763 165.54271 24.065638 165.21458Q24.487513 164.87083 25.081263 164.68333Q25.675013 164.49583 26.346888 164.49583Q27.940638 164.49583 28.815638 165.29271Q29.690638 166.08958 29.690638 167.18333Q29.690638 168.29271 28.768763 168.91771L29.550013 168.91771ZM26.393763 168.93333Q27.503138 168.93333 28.003138 168.62083Q28.815638 168.12083 28.815638 167.27708Q28.815638 166.58958 28.221888 166.08958Q27.628138 165.57396 26.425013 165.57396Q25.206263 165.57396 24.628138 166.05833Q24.050013 166.54271 24.050013 167.23021Q24.050013 167.91771 24.659388 168.43333Q25.253138 168.93333 26.393763 168.93333ZM28.784388 158.82396Q29.284388 159.41771 29.487513 159.96458Q29.690638 160.49583 29.690638 161.12083Q29.690638 162.15208 29.190638 162.69896Q28.690638 163.24583 27.909388 163.24583Q27.456263 163.24583 27.081263 163.04271Q26.690638 162.83958 26.471888 162.49583Q26.237513 162.15208 26.128138 161.73021Q26.034388 161.43333 25.956263 160.79271Q25.815638 159.52708 25.596888 158.91771Q25.378138 158.91771 25.331263 158.91771Q24.675013 158.91771 24.409388 159.21458Q24.065638 159.62083 24.065638 160.41771Q24.065638 161.15208 24.331263 161.51146Q24.581263 161.87083 25.237513 162.04271L25.096888 163.07396Q24.440638 162.93333 24.034388 162.60521Q23.628138 162.27708 23.409388 161.66771Q23.190638 161.05833 23.190638 160.26146Q23.190638 159.46458 23.378138 158.96458Q23.565638 158.46458 23.846888 158.23021Q24.128138 157.99583 24.565638 157.90208Q24.831263 157.85521 25.534388 157.85521L26.940638 157.85521Q28.409388 157.85521 28.800013 157.79271Q29.190638 157.71458 29.550013 157.51146L29.550013 158.62083Q29.221888 158.77708 28.784388 158.82396ZM26.425013 158.91771Q26.659388 159.49583 26.831263 160.63646Q26.925013 161.29271 27.050013 161.55833Q27.159388 161.82396 27.378138 161.98021Q27.596888 162.12083 27.878138 162.12083Q28.300013 162.12083 28.581263 161.80833Q28.862513 161.48021 28.862513 160.87083Q28.862513 160.26146 28.596888 159.79271Q28.331263 159.30833 27.862513 159.08958Q27.503138 158.91771 26.815638 158.91771L26.425013 158.91771ZM27.690638 156.30833L27.534388 155.27708Q28.159388 155.18333 28.487513 154.79271Q28.815638 154.38646 28.815638 153.65208Q28.815638 152.93333 28.534388 152.58958Q28.237513 152.23021 27.831263 152.23021Q27.471888 152.23021 27.268763 152.54271Q27.128138 152.76146 26.909388 153.62083Q26.612513 154.77708 26.409388 155.23021Q26.190638 155.66771 25.815638 155.90208Q25.440638 156.13646 24.971888 156.13646Q24.565638 156.13646 24.206263 155.94896Q23.846888 155.76146 23.612513 155.43333Q23.440638 155.18333 23.315638 154.76146Q23.190638 154.33958 23.190638 153.83958Q23.190638 153.12083 23.409388 152.57396Q23.612513 152.01146 23.971888 151.74583Q24.331263 151.48021 24.925013 151.38646L25.065638 152.41771Q24.596888 152.48021 24.331263 152.82396Q24.050013 153.15208 24.050013 153.77708Q24.050013 154.49583 24.300013 154.80833Q24.534388 155.12083 24.862513 155.12083Q25.065638 155.12083 25.221888 154.99583Q25.393763 154.85521 25.503138 154.58958Q25.565638 154.43333 25.768763 153.65208Q26.081263 152.52708 26.268763 152.08958Q26.456263 151.65208 26.815638 151.40208Q27.175013 151.15208 27.721888 151.15208Q28.253138 151.15208 28.721888 151.46458Q29.175013 151.76146 29.440638 152.33958Q29.690638 152.91771 29.690638 153.65208Q29.690638 154.87083 29.190638 155.51146Q28.675013 156.13646 27.690638 156.30833ZM27.550013 144.63646L27.675013 143.54271Q28.628138 143.79271 29.159388 144.49583Q29.690638 145.19896 29.690638 146.27708Q29.690638 147.63646 28.846888 148.44896Q28.003138 149.24583 26.487513 149.24583Q24.925013 149.24583 24.065638 148.43333Q23.190638 147.62083 23.190638 146.33958Q23.190638 145.08958 24.034388 144.30833Q24.878138 143.51146 26.425013 143.51146Q26.518763 143.51146 26.706263 143.51146L26.706263 148.15208Q27.737513 148.08958 28.284388 147.57396Q28.815638 147.05833 28.815638 146.27708Q28.815638 145.69896 28.518763 145.29271Q28.206263 144.87083 27.550013 144.63646ZM25.846888 148.08958L25.846888 144.62083Q25.050013 144.68333 24.659388 145.01146Q24.050013 145.52708 24.050013 146.32396Q24.050013 147.05833 24.534388 147.55833Q25.018763 148.04271 25.846888 148.08958ZM29.550013 141.91771L20.956263 141.91771L20.956263 140.85521L29.550013 140.85521L29.550013 141.91771ZM22.175013 138.88646L20.956263 138.88646L20.956263 137.82396L22.175013 137.82396L22.175013 138.88646ZM29.550013 138.88646L23.331263 138.88646L23.331263 137.82396L29.550013 137.82396L29.550013 138.88646ZM29.550013 135.88646L23.331263 135.88646L23.331263 134.94896L24.206263 134.94896Q23.190638 134.26146 23.190638 132.96458Q23.190638 132.40208 23.393763 131.93333Q23.596888 131.44896 23.925013 131.21458Q24.253138 130.98021 24.690638 130.88646Q24.987513 130.83958 25.721888 130.83958L29.550013 130.83958L29.550013 131.88646L25.768763 131.88646Q25.112513 131.88646 24.800013 132.01146Q24.487513 132.13646 24.300013 132.44896Q24.096888 132.76146 24.096888 133.18333Q24.096888 133.85521 24.534388 134.35521Q24.956263 134.83958 26.143763 134.83958L29.550013 134.83958L29.550013 135.88646ZM27.550013 124.63646L27.675013 123.54271Q28.628138 123.79271 29.159388 124.495834Q29.690638 125.19896 29.690638 126.277084Q29.690638 127.63646 28.846888 128.44896Q28.003138 129.24583 26.487513 129.24583Q24.925013 129.24583 24.065638 128.43333Q23.190638 127.620834 23.190638 126.339584Q23.190638 125.089584 24.034388 124.308334Q24.878138 123.51146 26.425013 123.51146Q26.518763 123.51146 26.706263 123.51146L26.706263 128.15208Q27.737513 128.08958 28.284388 127.57396Q28.815638 127.058334 28.815638 126.277084Q28.815638 125.69896 28.518763 125.29271Q28.206263 124.870834 27.550013 124.63646ZM25.846888 128.08958L25.846888 124.620834Q25.050013 124.683334 24.659388 125.01146Q24.050013 125.527084 24.050013 126.32396Q24.050013 127.058334 24.534388 127.558334Q25.018763 128.04271 25.846888 128.08958Z" fill-rule="nonzero"/><path fill="#000000" d="M65.05 300.21564Q65.05 298.6844 65.3625 297.7625Q65.675 296.825 66.28438 296.325Q66.90938 295.825 67.84688 295.825Q68.53438 295.825 69.05 296.10626Q69.58125 296.3875 69.925 296.91876Q70.26875 297.4344 70.45625 298.1844Q70.64375 298.9344 70.64375 300.21564Q70.64375 301.73126 70.33125 302.65314Q70.03438 303.575 69.40938 304.09064Q68.8 304.59064 67.84688 304.59064Q66.6125 304.59064 65.89375 303.7Q65.05 302.6375 65.05 300.21564ZM66.12813 300.21564Q66.12813 302.325 66.62813 303.02814Q67.12813 303.73126 67.84688 303.73126Q68.58125 303.73126 69.06563 303.02814Q69.56563 302.325 69.56563 300.21564Q69.56563 298.09064 69.06563 297.40314Q68.58125 296.7 67.83125 296.7Q67.1125 296.7 66.675 297.3094Q66.12813 298.09064 66.12813 300.21564Z" fill-rule="nonzero"/><path fill="#000000" d="M69.01875 256.74335L67.97188 256.74335L67.97188 250.0246Q67.58125 250.38397 66.95625 250.75897Q66.34688 251.11835 65.8625 251.29022L65.8625 250.2746Q66.7375 249.85272 67.39375 249.2746Q68.06563 248.68085 68.34688 248.11835L69.01875 248.11835L69.01875 256.74335Z" fill-rule="nonzero"/><path fill="#000000" d="M70.59688 208.02104L70.59688 209.03667L64.90938 209.03667Q64.90938 208.66167 65.03438 208.30229Q65.25313 207.72417 65.72188 207.16167Q66.20625 206.59917 67.1125 205.86479Q68.51875 204.70854 69.00313 204.03667Q69.50313 203.36479 69.50313 202.77104Q69.50313 202.14604 69.05 201.72417Q68.59688 201.28667 67.87813 201.28667Q67.1125 201.28667 66.65938 201.73979Q66.20625 202.19292 66.19063 203.00542L65.1125 202.89604Q65.22188 201.67729 65.94063 201.05229Q66.675 200.41167 67.90938 200.41167Q69.14375 200.41167 69.8625 201.09917Q70.58125 201.78667 70.58125 202.80229Q70.58125 203.31792 70.3625 203.81792Q70.15938 204.30229 69.65938 204.86479Q69.175 205.41167 68.05 206.36479Q67.09688 207.16167 66.81563 207.45854Q66.55 207.73979 66.37813 208.02104L70.59688 208.02104Z" fill-rule="nonzero"/><path fill="#000000" d="M65.05 159.06438L66.1125 158.92375Q66.28438 159.81438 66.72188 160.22063Q67.15938 160.61125 67.78438 160.61125Q68.53438 160.61125 69.05 160.09563Q69.56563 159.58 69.56563 158.81438Q69.56563 158.09563 69.08125 157.62688Q68.6125 157.1425 67.87813 157.1425Q67.58125 157.1425 67.12813 157.2675L67.25313 156.33Q67.3625 156.34563 67.425 156.34563Q68.09688 156.34563 68.62813 156.00188Q69.175 155.6425 69.175 154.90813Q69.175 154.33 68.78438 153.955Q68.39375 153.56438 67.76875 153.56438Q67.15938 153.56438 66.7375 153.955Q66.33125 154.34563 66.22188 155.11125L65.15938 154.92375Q65.34688 153.87688 66.03438 153.29875Q66.72188 152.705 67.7375 152.705Q68.44063 152.705 69.03438 153.0175Q69.62813 153.31438 69.94063 153.83Q70.25313 154.34563 70.25313 154.93938Q70.25313 155.48625 69.95625 155.955Q69.65938 156.40813 69.08125 156.67375Q69.83125 156.84563 70.25313 157.40813Q70.675 157.955 70.675 158.79875Q70.675 159.92375 69.84688 160.705Q69.03438 161.48625 67.78438 161.48625Q66.65938 161.48625 65.90938 160.81438Q65.15938 160.12688 65.05 159.06438Z" fill-rule="nonzero"/><path fill="#000000" d="M68.425 113.62334L68.425 111.56084L64.70625 111.56084L64.70625 110.59209L68.62813 105.02959L69.4875 105.02959L69.4875 110.59209L70.64375 110.59209L70.64375 111.56084L69.4875 111.56084L69.4875 113.62334L68.425 113.62334ZM68.425 110.59209L68.425 106.73271L65.7375 110.59209L68.425 110.59209Z" fill-rule="nonzero"/><path fill="#000000" d="M65.05 63.666664L66.15938 63.572914Q66.28438 64.385414 66.72188 64.791664Q67.175 65.197914 67.81563 65.197914Q68.56563 65.197914 69.09688 64.61979Q69.62813 64.041664 69.62813 63.104164Q69.62813 62.197914 69.1125 61.68229Q68.6125 61.15104 67.78438 61.15104Q67.28438 61.15104 66.8625 61.385414Q66.45625 61.61979 66.22188 61.979164L65.2375 61.854164L66.06563 57.447914L70.34688 57.447914L70.34688 58.447914L66.90938 58.447914L66.45625 60.760414Q67.22188 60.21354 68.06563 60.21354Q69.19063 60.21354 69.95625 60.99479Q70.7375 61.77604 70.7375 63.010414Q70.7375 64.166664 70.06563 65.02604Q69.2375 66.05729 67.81563 66.05729Q66.64375 66.05729 65.89375 65.40104Q65.15938 64.74479 65.05 63.666664Z" fill-rule="nonzero"/><path fill="#000000" d="M78.51875 317.45L77.47188 317.45L77.47188 310.73126Q77.08125 311.09064 76.45625 311.46564Q75.84688 311.825 75.3625 311.9969L75.3625 310.98126Q76.2375 310.5594 76.89375 309.98126Q77.56563 309.3875 77.84688 308.825L78.51875 308.825L78.51875 317.45Z" fill-rule="nonzero"/><path fill="#000000" d="M210.28162 317.45L209.23474 317.45L209.23474 310.73126Q208.84412 311.09064 208.21912 311.46564Q207.60974 311.825 207.12537 311.9969L207.12537 310.98126Q208.00037 310.5594 208.65662 309.98126Q209.32849 309.3875 209.60974 308.825L210.28162 308.825L210.28162 317.45ZM213.31287 313.21564Q213.31287 311.6844 213.62537 310.7625Q213.93787 309.825 214.54724 309.325Q215.17224 308.825 216.10974 308.825Q216.79724 308.825 217.31287 309.10626Q217.84412 309.3875 218.18787 309.91876Q218.53162 310.4344 218.71912 311.1844Q218.90662 311.9344 218.90662 313.21564Q218.90662 314.73126 218.59412 315.65314Q218.29724 316.575 217.67224 317.09064Q217.06287 317.59064 216.10974 317.59064Q214.87537 317.59064 214.15662 316.7Q213.31287 315.6375 213.31287 313.21564ZM214.39099 313.21564Q214.39099 315.325 214.89099 316.02814Q215.39099 316.73126 216.10974 316.73126Q216.84412 316.73126 217.32849 316.02814Q217.82849 315.325 217.82849 313.21564Q217.82849 311.09064 217.32849 310.40314Q216.84412 309.7 216.09412 309.7Q215.37537 309.7 214.93787 310.3094Q214.39099 311.09064 214.39099 313.21564Z" fill-rule="nonzero"/><path fill="#000000" d="M342.0445 317.45L340.99762 317.45L340.99762 310.73126Q340.607 311.09064 339.982 311.46564Q339.37262 311.825 338.88824 311.9969L338.88824 310.98126Q339.76324 310.5594 340.4195 309.98126Q341.09137 309.3875 341.37262 308.825L342.0445 308.825L342.0445 317.45ZM345.07574 313.21564Q345.07574 311.6844 345.38824 310.7625Q345.70074 309.825 346.31012 309.325Q346.93512 308.825 347.87262 308.825Q348.56012 308.825 349.07574 309.10626Q349.607 309.3875 349.95074 309.91876Q350.2945 310.4344 350.482 311.1844Q350.6695 311.9344 350.6695 313.21564Q350.6695 314.73126 350.357 315.65314Q350.06012 316.575 349.43512 317.09064Q348.82574 317.59064 347.87262 317.59064Q346.63824 317.59064 345.9195 316.7Q345.07574 315.6375 345.07574 313.21564ZM346.15387 313.21564Q346.15387 315.325 346.65387 316.02814Q347.15387 316.73126 347.87262 316.73126Q348.607 316.73126 349.09137 316.02814Q349.59137 315.325 349.59137 313.21564Q349.59137 311.09064 349.09137 310.40314Q348.607 309.7 347.857 309.7Q347.13824 309.7 346.70074 310.3094Q346.15387 311.09064 346.15387 313.21564ZM352.07574 313.21564Q352.07574 311.6844 352.38824 310.7625Q352.70074 309.825 353.31012 309.325Q353.93512 308.825 354.87262 308.825Q355.56012 308.825 356.07574 309.10626Q356.607 309.3875 356.95074 309.91876Q357.2945 310.4344 357.482 311.1844Q357.6695 311.9344 357.6695 313.21564Q357.6695 314.73126 357.357 315.65314Q357.06012 316.575 356.43512 317.09064Q355.82574 317.59064 354.87262 317.59064Q353.63824 317.59064 352.9195 316.7Q352.07574 315.6375 352.07574 313.21564ZM353.15387 313.21564Q353.15387 315.325 353.65387 316.02814Q354.15387 316.73126 354.87262 316.73126Q355.607 316.73126 356.09137 316.02814Q356.59137 315.325 356.59137 313.21564Q356.59137 311.09064 356.09137 310.40314Q355.607 309.7 354.857 309.7Q354.13824 309.7 353.70074 310.3094Q353.15387 311.09064 353.15387 313.21564Z" fill-rule="nonzero"/><path fill="#000000" d="M473.80737 317.45L472.7605 317.45L472.7605 310.73126Q472.36987 311.09064 471.74487 311.46564Q471.1355 311.825 470.65112 311.9969L470.65112 310.98126Q471.52612 310.5594 472.18237 309.98126Q472.85425 309.3875 473.1355 308.825L473.80737 308.825L473.80737 317.45ZM476.83862 313.21564Q476.83862 311.6844 477.15112 310.7625Q477.46362 309.825 478.073 309.325Q478.698 308.825 479.6355 308.825Q480.323 308.825 480.83862 309.10626Q481.36987 309.3875 481.71362 309.91876Q482.05737 310.4344 482.24487 311.1844Q482.43237 311.9344 482.43237 313.21564Q482.43237 314.73126 482.11987 315.65314Q481.823 316.575 481.198 317.09064Q480.58862 317.59064 479.6355 317.59064Q478.40112 317.59064 477.68237 316.7Q476.83862 315.6375 476.83862 313.21564ZM477.91675 313.21564Q477.91675 315.325 478.41675 316.02814Q478.91675 316.73126 479.6355 316.73126Q480.36987 316.73126 480.85425 316.02814Q481.35425 315.325 481.35425 313.21564Q481.35425 311.09064 480.85425 310.40314Q480.36987 309.7 479.61987 309.7Q478.90112 309.7 478.46362 310.3094Q477.91675 311.09064 477.91675 313.21564ZM483.83862 313.21564Q483.83862 311.6844 484.15112 310.7625Q484.46362 309.825 485.073 309.325Q485.698 308.825 486.6355 308.825Q487.323 308.825 487.83862 309.10626Q488.36987 309.3875 488.71362 309.91876Q489.05737 310.4344 489.24487 311.1844Q489.43237 311.9344 489.43237 313.21564Q489.43237 314.73126 489.11987 315.65314Q488.823 316.575 488.198 317.09064Q487.58862 317.59064 486.6355 317.59064Q485.40112 317.59064 484.68237 316.7Q483.83862 315.6375 483.83862 313.21564ZM484.91675 313.21564Q484.91675 315.325 485.41675 316.02814Q485.91675 316.73126 486.6355 316.73126Q487.36987 316.73126 487.85425 316.02814Q488.35425 315.325 488.35425 313.21564Q488.35425 311.09064 487.85425 310.40314Q487.36987 309.7 486.61987 309.7Q485.90112 309.7 485.46362 310.3094Q484.91675 311.09064 484.91675 313.21564ZM490.83862 313.21564Q490.83862 311.6844 491.15112 310.7625Q491.46362 309.825 492.073 309.325Q492.698 308.825 493.6355 308.825Q494.323 308.825 494.83862 309.10626Q495.36987 309.3875 495.71362 309.91876Q496.05737 310.4344 496.24487 311.1844Q496.43237 311.9344 496.43237 313.21564Q496.43237 314.73126 496.11987 315.65314Q495.823 316.575 495.198 317.09064Q494.58862 317.59064 493.6355 317.59064Q492.40112 317.59064 491.68237 316.7Q490.83862 315.6375 490.83862 313.21564ZM491.91675 313.21564Q491.91675 315.325 492.41675 316.02814Q492.91675 316.73126 493.6355 316.73126Q494.36987 316.73126 494.85425 316.02814Q495.35425 315.325 495.35425 313.21564Q495.35425 311.09064 494.85425 310.40314Q494.36987 309.7 493.61987 309.7Q492.90112 309.7 492.46362 310.3094Q491.91675 311.09064 491.91675 313.21564Z" fill-rule="nonzero"/><path fill="#757575" d="M104.8125 37.55L104.8125 27.175L106.390625 27.175L106.390625 28.628124Q106.875 27.878124 107.6875 27.409374Q108.5 26.940624 109.53125 26.940624Q110.6875 26.940624 111.421875 27.425Q112.15625 27.89375 112.46875 28.753124Q113.703125 26.940624 115.671875 26.940624Q117.21875 26.940624 118.046875 27.8Q118.875 28.659374 118.875 30.425L118.875 37.55L117.125 37.55L117.125 31.01875Q117.125 29.95625 116.953125 29.503124Q116.78125 29.034374 116.328125 28.753124Q115.890625 28.471874 115.28125 28.471874Q114.1875 28.471874 113.453125 29.20625Q112.734375 29.925 112.734375 31.51875L112.734375 37.55L110.984375 37.55L110.984375 30.815624Q110.984375 29.64375 110.546875 29.065624Q110.125 28.471874 109.140625 28.471874Q108.40625 28.471874 107.765625 28.8625Q107.140625 29.253124 106.859375 30.003124Q106.578125 30.753124 106.578125 32.175L106.578125 37.55L104.8125 37.55ZM127.921875 34.20625L129.73438 34.440624Q129.3125 36.01875 128.14062 36.909374Q126.984375 37.784374 125.171875 37.784374Q122.90625 37.784374 121.5625 36.39375Q120.234375 34.9875 120.234375 32.45625Q120.234375 29.83125 121.578125 28.39375Q122.921875 26.940624 125.078125 26.940624Q127.15625 26.940624 128.46875 28.3625Q129.79688 29.76875 129.79688 32.346874Q129.79688 32.503124 129.78125 32.815624L122.046875 32.815624Q122.140625 34.51875 123.015625 35.425Q123.890625 36.33125 125.1875 36.33125Q126.15625 36.33125 126.828125 35.83125Q127.515625 35.315624 127.921875 34.20625ZM122.140625 31.3625L127.9375 31.3625Q127.828125 30.065624 127.28125 29.409374Q126.4375 28.39375 125.09375 28.39375Q123.890625 28.39375 123.0625 29.20625Q122.234375 30.003124 122.140625 31.3625ZM131.8125 37.55L131.8125 27.175L133.39062 27.175L133.39062 28.628124Q133.875 27.878124 134.6875 27.409374Q135.5 26.940624 136.53125 26.940624Q137.6875 26.940624 138.42188 27.425Q139.15625 27.89375 139.46875 28.753124Q140.70312 26.940624 142.67188 26.940624Q144.21875 26.940624 145.04688 27.8Q145.875 28.659374 145.875 30.425L145.875 37.55L144.125 37.55L144.125 31.01875Q144.125 29.95625 143.95312 29.503124Q143.78125 29.034374 143.32812 28.753124Q142.89062 28.471874 142.28125 28.471874Q141.1875 28.471874 140.45312 29.20625Q139.73438 29.925 139.73438 31.51875L139.73438 37.55L137.98438 37.55L137.98438 30.815624Q137.98438 29.64375 137.54688 29.065624Q137.125 28.471874 136.14062 28.471874Q135.40625 28.471874 134.76562 28.8625Q134.14062 29.253124 133.85938 30.003124Q133.57812 30.753124 133.57812 32.175L133.57812 37.55L131.8125 37.55ZM154.59375 33.753124L156.3125 33.971874Q156.03125 35.76875 154.85938 36.784374Q153.70312 37.784374 152.0 37.784374Q149.875 37.784374 148.57812 36.39375Q147.28125 35.003124 147.28125 32.409374Q147.28125 30.721874 147.82812 29.471874Q148.39062 28.20625 149.53125 27.58125Q150.67188 26.940624 152.01562 26.940624Q153.70312 26.940624 154.76562 27.8Q155.84375 28.659374 156.15625 30.221874L154.4375 30.4875Q154.20312 29.440624 153.57812 28.925Q152.95312 28.39375 152.07812 28.39375Q150.75 28.39375 149.92188 29.346874Q149.09375 30.3 149.09375 32.346874Q149.09375 34.440624 149.89062 35.39375Q150.6875 36.33125 151.98438 36.33125Q153.01562 36.33125 153.70312 35.70625Q154.40625 35.065624 154.59375 33.753124ZM157.8125 41.51875L157.8125 27.175L159.42188 27.175L159.42188 28.51875Q159.98438 27.7375 160.6875 27.346874Q161.40625 26.940624 162.42188 26.940624Q163.75 26.940624 164.76562 27.628124Q165.78125 28.315624 166.29688 29.565624Q166.82812 30.8 166.82812 32.284374Q166.82812 33.878124 166.25 35.159374Q165.6875 36.425 164.59375 37.1125Q163.5 37.784374 162.29688 37.784374Q161.42188 37.784374 160.71875 37.409374Q160.03125 37.034374 159.57812 36.471874L159.57812 41.51875L157.8125 41.51875ZM159.40625 32.425Q159.40625 34.425 160.21875 35.378124Q161.03125 36.33125 162.1875 36.33125Q163.35938 36.33125 164.1875 35.346874Q165.03125 34.3625 165.03125 32.26875Q165.03125 30.3 164.20312 29.315624Q163.39062 28.315624 162.26562 28.315624Q161.14062 28.315624 160.26562 29.378124Q159.40625 30.425 159.40625 32.425ZM168.73438 41.55L168.54688 39.89375Q169.125 40.05 169.54688 40.05Q170.14062 40.05 170.48438 39.846874Q170.84375 39.659374 171.0625 39.315624Q171.23438 39.05 171.60938 38.003124Q171.65625 37.846874 171.76562 37.565624L167.82812 27.175L169.71875 27.175L171.875 33.190624Q172.29688 34.33125 172.625 35.58125Q172.9375 34.378124 173.34375 33.221874L175.5625 27.175L177.32812 27.175L173.375 37.721874Q172.75 39.440624 172.39062 40.08125Q171.92188 40.95625 171.3125 41.346874Q170.71875 41.753124 169.875 41.753124Q169.35938 41.753124 168.73438 41.55ZM184.10938 34.45625L185.85938 34.175Q186.0 35.221874 186.67188 35.784374Q187.34375 36.33125 188.54688 36.33125Q189.75 36.33125 190.32812 35.846874Q190.92188 35.346874 190.92188 34.690624Q190.92188 34.096874 190.40625 33.753124Q190.04688 33.51875 188.60938 33.159374Q186.67188 32.659374 185.92188 32.315624Q185.1875 31.95625 184.79688 31.33125Q184.40625 30.690624 184.40625 29.925Q184.40625 29.2375 184.71875 28.64375Q185.04688 28.05 185.59375 27.659374Q186.0 27.3625 186.70312 27.159374Q187.42188 26.940624 188.23438 26.940624Q189.45312 26.940624 190.375 27.3Q191.29688 27.64375 191.73438 28.253124Q192.17188 28.846874 192.34375 29.846874L190.625 30.08125Q190.5 29.284374 189.9375 28.846874Q189.375 28.39375 188.35938 28.39375Q187.14062 28.39375 186.625 28.8Q186.10938 29.190624 186.10938 29.721874Q186.10938 30.065624 186.32812 30.346874Q186.53125 30.628124 187.0 30.815624Q187.26562 30.909374 188.54688 31.253124Q190.42188 31.753124 191.15625 32.08125Q191.89062 32.39375 192.3125 33.003124Q192.73438 33.596874 192.73438 34.503124Q192.73438 35.378124 192.21875 36.159374Q191.70312 36.940624 190.73438 37.3625Q189.76562 37.784374 188.54688 37.784374Q186.53125 37.784374 185.46875 36.940624Q184.40625 36.096874 184.10938 34.45625ZM194.8125 41.51875L194.8125 27.175L196.42188 27.175L196.42188 28.51875Q196.98438 27.7375 197.6875 27.346874Q198.40625 26.940624 199.42188 26.940624Q200.75 26.940624 201.76562 27.628124Q202.78125 28.315624 203.29688 29.565624Q203.82812 30.8 203.82812 32.284374Q203.82812 33.878124 203.25 35.159374Q202.6875 36.425 201.59375 37.1125Q200.5 37.784374 199.29688 37.784374Q198.42188 37.784374 197.71875 37.409374Q197.03125 37.034374 196.57812 36.471874L196.57812 41.51875L194.8125 41.51875ZM196.40625 32.425Q196.40625 34.425 197.21875 35.378124Q198.03125 36.33125 199.1875 36.33125Q200.35938 36.33125 201.1875 35.346874Q202.03125 34.3625 202.03125 32.26875Q202.03125 30.3 201.20312 29.315624Q200.39062 28.315624 199.26562 28.315624Q198.14062 28.315624 197.26562 29.378124Q196.40625 30.425 196.40625 32.425ZM212.92188 34.20625L214.73438 34.440624Q214.3125 36.01875 213.14062 36.909374Q211.98438 37.784374 210.17188 37.784374Q207.90625 37.784374 206.5625 36.39375Q205.23438 34.9875 205.23438 32.45625Q205.23438 29.83125 206.57812 28.39375Q207.92188 26.940624 210.07812 26.940624Q212.15625 26.940624 213.46875 28.3625Q214.79688 29.76875 214.79688 32.346874Q214.79688 32.503124 214.78125 32.815624L207.04688 32.815624Q207.14062 34.51875 208.01562 35.425Q208.89062 36.33125 210.1875 36.33125Q211.15625 36.33125 211.82812 35.83125Q212.51562 35.315624 212.92188 34.20625ZM207.14062 31.3625L212.9375 31.3625Q212.82812 30.065624 212.28125 29.409374Q211.4375 28.39375 210.09375 28.39375Q208.89062 28.39375 208.0625 29.20625Q207.23438 30.003124 207.14062 31.3625ZM223.92188 34.20625L225.73438 34.440624Q225.3125 36.01875 224.14062 36.909374Q222.98438 37.784374 221.17188 37.784374Q218.90625 37.784374 217.5625 36.39375Q216.23438 34.9875 216.23438 32.45625Q216.23438 29.83125 217.57812 28.39375Q218.92188 26.940624 221.07812 26.940624Q223.15625 26.940624 224.46875 28.3625Q225.79688 29.76875 225.79688 32.346874Q225.79688 32.503124 225.78125 32.815624L218.04688 32.815624Q218.14062 34.51875 219.01562 35.425Q219.89062 36.33125 221.1875 36.33125Q222.15625 36.33125 222.82812 35.83125Q223.51562 35.315624 223.92188 34.20625ZM218.14062 31.3625L223.9375 31.3625Q223.82812 30.065624 223.28125 29.409374Q222.4375 28.39375 221.09375 28.39375Q219.89062 28.39375 219.0625 29.20625Q218.23438 30.003124 218.14062 31.3625ZM234.54688 37.55L234.54688 36.2375Q233.5625 37.784374 231.64062 37.784374Q230.40625 37.784374 229.35938 37.096874Q228.32812 36.409374 227.75 35.190624Q227.1875 33.971874 227.1875 32.378124Q227.1875 30.815624 227.70312 29.55Q228.21875 28.284374 229.25 27.6125Q230.29688 26.940624 231.5625 26.940624Q232.5 26.940624 233.23438 27.346874Q233.96875 27.7375 234.4375 28.3625L234.4375 23.2375L236.17188 23.2375L236.17188 37.55L234.54688 37.55ZM228.98438 32.378124Q228.98438 34.3625 229.82812 35.346874Q230.67188 36.33125 231.8125 36.33125Q232.96875 36.33125 233.76562 35.39375Q234.57812 34.45625 234.57812 32.51875Q234.57812 30.39375 233.75 29.39375Q232.9375 28.39375 231.73438 28.39375Q230.5625 28.39375 229.76562 29.3625Q228.98438 30.315624 228.98438 32.378124ZM245.60938 37.55L245.60938 36.01875Q244.40625 37.784374 242.32812 37.784374Q241.40625 37.784374 240.60938 37.440624Q239.8125 37.08125 239.42188 36.55Q239.04688 36.01875 238.89062 35.2375Q238.78125 34.721874 238.78125 33.596874L238.78125 27.175L240.53125 27.175L240.53125 32.925Q240.53125 34.3 240.64062 34.784374Q240.8125 35.471874 241.34375 35.878124Q241.89062 36.26875 242.67188 36.26875Q243.46875 36.26875 244.15625 35.8625Q244.85938 35.45625 245.14062 34.76875Q245.4375 34.065624 245.4375 32.7375L245.4375 27.175L247.1875 27.175L247.1875 37.55L245.60938 37.55ZM248.8125 41.51875L248.8125 27.175L250.42188 27.175L250.42188 28.51875Q250.98438 27.7375 251.6875 27.346874Q252.40625 26.940624 253.42188 26.940624Q254.75 26.940624 255.76562 27.628124Q256.78125 28.315624 257.29688 29.565624Q257.82812 30.8 257.82812 32.284374Q257.82812 33.878124 257.25 35.159374Q256.6875 36.425 255.59375 37.1125Q254.5 37.784374 253.29688 37.784374Q252.42188 37.784374 251.71875 37.409374Q251.03125 37.034374 250.57812 36.471874L250.57812 41.51875L248.8125 41.51875ZM250.40625 32.425Q250.40625 34.425 251.21875 35.378124Q252.03125 36.33125 253.1875 36.33125Q254.35938 36.33125 255.1875 35.346874Q256.03125 34.3625 256.03125 32.26875Q256.03125 30.3 255.20312 29.315624Q254.39062 28.315624 253.26562 28.315624Q252.14062 28.315624 251.26562 29.378124Q250.40625 30.425 250.40625 32.425ZM270.14062 37.55L264.59375 23.2375L266.64062 23.2375L270.35938 33.628124Q270.8125 34.878124 271.10938 35.971874Q271.4375 34.8 271.89062 33.628124L275.75 23.2375L277.6875 23.2375L272.07812 37.55L270.14062 37.55ZM278.96875 37.55L278.96875 23.2375L280.85938 23.2375L280.85938 35.8625L287.90625 35.8625L287.90625 37.55L278.96875 37.55ZM290.07812 37.55L290.07812 23.2375L300.4375 23.2375L300.4375 24.925L291.98438 24.925L291.98438 29.3L299.89062 29.3L299.89062 30.9875L291.98438 30.9875L291.98438 35.8625L300.76562 35.8625L300.76562 37.55L290.07812 37.55ZM303.03125 37.55L303.03125 23.2375L304.96875 23.2375L312.48438 34.471874L312.48438 23.2375L314.29688 23.2375L314.29688 37.55L312.35938 37.55L304.84375 26.3L304.84375 37.55L303.03125 37.55ZM325.0625 29.128124L315.60938 29.128124L315.60938 27.4875L325.0625 27.4875L325.0625 29.128124ZM325.0625 33.471874L315.60938 33.471874L315.60938 31.83125L325.0625 31.83125L325.0625 33.471874ZM333.95312 37.55L332.1875 37.55L332.1875 26.346874Q331.5625 26.95625 330.53125 27.565624Q329.5 28.159374 328.67188 28.471874L328.67188 26.76875Q330.15625 26.08125 331.25 25.096874Q332.35938 24.096874 332.8125 23.175L333.95312 23.175L333.95312 37.55ZM347.5625 35.8625L347.5625 37.55L338.10938 37.55Q338.09375 36.909374 338.3125 36.33125Q338.67188 35.3625 339.46875 34.425Q340.26562 33.4875 341.76562 32.253124Q344.10938 30.346874 344.92188 29.2375Q345.75 28.1125 345.75 27.1125Q345.75 26.065624 345.0 25.346874Q344.25 24.628124 343.04688 24.628124Q341.78125 24.628124 341.01562 25.39375Q340.25 26.159374 340.25 27.503124L338.4375 27.315624Q338.625 25.3 339.82812 24.2375Q341.04688 23.175 343.09375 23.175Q345.14062 23.175 346.34375 24.315624Q347.54688 25.45625 347.54688 27.14375Q347.54688 28.003124 347.1875 28.846874Q346.84375 29.675 346.03125 30.596874Q345.21875 31.503124 343.32812 33.1125Q341.73438 34.440624 341.28125 34.909374Q340.84375 35.378124 340.54688 35.8625L347.5625 35.8625ZM352.03125 29.784374Q350.9375 29.378124 350.40625 28.64375Q349.89062 27.89375 349.89062 26.8625Q349.89062 25.3 351.01562 24.2375Q352.14062 23.175 354.0 23.175Q355.875 23.175 357.01562 24.26875Q358.15625 25.346874 358.15625 26.909374Q358.15625 27.909374 357.625 28.64375Q357.10938 29.378124 356.04688 29.784374Q357.375 30.221874 358.0625 31.175Q358.75 32.128124 358.75 33.45625Q358.75 35.3 357.4375 36.55Q356.14062 37.8 354.03125 37.8Q351.90625 37.8 350.60938 36.55Q349.3125 35.284374 349.3125 33.409374Q349.3125 32.01875 350.01562 31.08125Q350.73438 30.128124 352.03125 29.784374ZM351.6875 26.8Q351.6875 27.815624 352.34375 28.471874Q353.0 29.1125 354.03125 29.1125Q355.04688 29.1125 355.70312 28.471874Q356.35938 27.83125 356.35938 26.909374Q356.35938 25.940624 355.6875 25.284374Q355.01562 24.6125 354.01562 24.6125Q353.01562 24.6125 352.34375 25.26875Q351.6875 25.909374 351.6875 26.8ZM351.125 33.425Q351.125 34.175 351.46875 34.878124Q351.82812 35.58125 352.53125 35.971874Q353.23438 36.346874 354.04688 36.346874Q355.3125 36.346874 356.125 35.534374Q356.95312 34.721874 356.95312 33.471874Q356.95312 32.20625 356.10938 31.378124Q355.26562 30.55 353.98438 30.55Q352.75 30.55 351.9375 31.378124Q351.125 32.190624 351.125 33.425ZM366.96875 37.55L366.96875 23.2375L368.85938 23.2375L368.85938 35.8625L375.90625 35.8625L375.90625 37.55L366.96875 37.55ZM377.98438 37.55L377.98438 23.2375L380.84375 23.2375L384.21875 33.3625Q384.6875 34.784374 384.90625 35.4875Q385.15625 34.70625 385.67188 33.190624L389.09375 23.2375L391.64062 23.2375L391.64062 37.55L389.82812 37.55L389.82812 25.565624L385.65625 37.55L383.95312 37.55L379.8125 25.3625L379.8125 37.55L377.98438 37.55ZM404.4375 23.2375L406.32812 23.2375L406.32812 31.503124Q406.32812 33.659374 405.84375 34.940624Q405.35938 36.20625 404.07812 37.003124Q402.8125 37.8 400.73438 37.8Q398.71875 37.8 397.4375 37.1125Q396.17188 36.409374 395.625 35.096874Q395.07812 33.784374 395.07812 31.503124L395.07812 23.2375L396.96875 23.2375L396.96875 31.4875Q396.96875 33.3625 397.3125 34.253124Q397.65625 35.128124 398.5 35.6125Q399.34375 36.08125 400.57812 36.08125Q402.65625 36.08125 403.54688 35.14375Q404.4375 34.190624 404.4375 31.4875L404.4375 23.2375ZM407.96875 37.55L407.96875 23.2375L409.85938 23.2375L409.85938 35.8625L416.90625 35.8625L416.90625 37.55L407.96875 37.55ZM428.0625 29.128124L418.60938 29.128124L418.60938 27.4875L428.0625 27.4875L428.0625 29.128124ZM428.0625 33.471874L418.60938 33.471874L418.60938 31.83125L428.0625 31.83125L428.0625 33.471874ZM436.95312 37.55L435.1875 37.55L435.1875 26.346874Q434.5625 26.95625 433.53125 27.565624Q432.5 28.159374 431.67188 28.471874L431.67188 26.76875Q433.15625 26.08125 434.25 25.096874Q435.35938 24.096874 435.8125 23.175L436.95312 23.175L436.95312 37.55Z" fill-rule="nonzero"/></svg>