<svg version="1.1" viewBox="0.0 0.0 544.0 371.0" fill="none" stroke="none" stroke-linecap="square" stroke-miterlimit="10" width="544" height="371" xmlns:xlink="http://www.w3.org/1999/xlink" xmlns="http://www.w3.org/2000/svg"><path fill="#ffffff" d="M0 0L544.0 0L544.0 371.0L0 371.0L0 0Z" fill-rule="nonzero"/><path stroke="#cccccc" stroke-width="1.0" stroke-linecap="butt" d="M94.5 88.5L94.5 300.5" fill-rule="nonzero"/><path stroke="#cccccc" stroke-width="1.0" stroke-linecap="butt" d="M204.5 88.5L204.5 300.5" fill-rule="nonzero"/><path stroke="#cccccc" stroke-width="1.0" stroke-linecap="butt" d="M314.5 88.5L314.5 300.5" fill-rule="nonzero"/><path stroke="#cccccc" stroke-width="1.0" stroke-linecap="butt" d="M424.5 88.5L424.5 300.5" fill-rule="nonzero"/><path stroke="#333333" stroke-width="1.0" stroke-linecap="butt" d="M94.5 300.5L525.5 300.5" fill-rule="nonzero"/><path stroke="#cccccc" stroke-width="1.0" stroke-linecap="butt" d="M94.5 258.5L525.5 258.5" fill-rule="nonzero"/><path stroke="#cccccc" stroke-width="1.0" stroke-linecap="butt" d="M94.5 215.5L525.5 215.5" fill-rule="nonzero"/><path stroke="#cccccc" stroke-width="1.0" stroke-linecap="butt" d="M94.5 173.5L525.5 173.5" fill-rule="nonzero"/><path stroke="#cccccc" stroke-width="1.0" stroke-linecap="butt" d="M94.5 130.5L525.5 130.5" fill-rule="nonzero"/><path stroke="#cccccc" stroke-width="1.0" stroke-linecap="butt" d="M94.5 88.5L525.5 88.5" fill-rule="nonzero"/><clipPath id="id_0"><path d="M94.55 88.28333L525.45 88.28333L525.45 300.45L94.55 300.45L94.55 88.28333Z" clip-rule="nonzero"/></clipPath><path stroke="#4285f4" stroke-width="2.0" stroke-linecap="butt" clip-path="url(#id_0)" d="M94.55 300.0433L127.69615 299.8483L160.8423 299.34674L193.98846 298.56918L227.13461 296.86014L260.28076 293.771L293.4269 287.5248L326.5731 274.9391L359.71924 249.86946L392.8654 199.9509L426.01154 100.70782L459.15768 100.28348L492.30383 100.06283L525.45 100.419266" fill-rule="nonzero"/><path stroke="#ea4335" stroke-width="2.0" stroke-linecap="butt" clip-path="url(#id_0)" d="M94.55 300.11105L127.69615 300.04977L160.8423 300.0564L193.98846 300.06488L227.13461 299.85797L260.28076 299.6268L293.4269 299.64377L326.5731 299.56738L359.71924 299.51648L392.8654 299.65225L426.01154 299.6862L459.15768 299.90686L492.30383 299.8729L525.45 299.85593" fill-rule="nonzero"/><path fill="#000000" fill-opacity="0.0" clip-path="url(#id_0)" d="M97.55 300.0433C97.55 301.70016 96.206856 303.0433 94.55 303.0433C92.89314 303.0433 91.55 301.70016 91.55 300.0433C91.55 298.38647 92.89314 297.0433 94.55 297.0433C96.206856 297.0433 97.55 298.38647 97.55 300.0433Z" fill-rule="nonzero"/><path fill="#000000" fill-opacity="0.0" clip-path="url(#id_0)" d="M130.69615 299.8483C130.69615 301.50516 129.35301 302.8483 127.69615 302.8483C126.0393 302.8483 124.69615 301.50516 124.69615 299.8483C124.69615 298.19144 126.0393 296.8483 127.69615 296.8483C129.35301 296.8483 130.69615 298.19144 130.69615 299.8483Z" fill-rule="nonzero"/><path fill="#000000" fill-opacity="0.0" clip-path="url(#id_0)" d="M163.8423 299.34674C163.8423 301.0036 162.49916 302.34674 160.8423 302.34674C159.18546 302.34674 157.8423 301.0036 157.8423 299.34674C157.8423 297.68988 159.18546 296.34674 160.8423 296.34674C162.49916 296.34674 163.8423 297.68988 163.8423 299.34674Z" fill-rule="nonzero"/><path fill="#000000" fill-opacity="0.0" clip-path="url(#id_0)" d="M196.98846 298.56918C196.98846 300.22604 195.64531 301.56918 193.98846 301.56918C192.3316 301.56918 190.98846 300.22604 190.98846 298.56918C190.98846 296.91232 192.3316 295.56918 193.98846 295.56918C195.64531 295.56918 196.98846 296.91232 196.98846 298.56918Z" fill-rule="nonzero"/><path fill="#000000" fill-opacity="0.0" clip-path="url(#id_0)" d="M230.13461 296.86014C230.13461 298.517 228.79147 299.86014 227.13461 299.86014C225.47777 299.86014 224.13461 298.517 224.13461 296.86014C224.13461 295.20328 225.47777 293.86014 227.13461 293.86014C228.79147 293.86014 230.13461 295.20328 230.13461 296.86014Z" fill-rule="nonzero"/><path fill="#000000" fill-opacity="0.0" clip-path="url(#id_0)" d="M263.28076 293.771C263.28076 295.42786 261.93762 296.771 260.28076 296.771C258.6239 296.771 257.28076 295.42786 257.28076 293.771C257.28076 292.11414 258.6239 290.771 260.28076 290.771C261.93762 290.771 263.28076 292.11414 263.28076 293.771Z" fill-rule="nonzero"/><path fill="#000000" fill-opacity="0.0" clip-path="url(#id_0)" d="M296.4269 287.5248C296.4269 289.18167 295.08377 290.5248 293.4269 290.5248C291.77008 290.5248 290.4269 289.18167 290.4269 287.5248C290.4269 285.86795 291.77008 284.5248 293.4269 284.5248C295.08377 284.5248 296.4269 285.86795 296.4269 287.5248Z" fill-rule="nonzero"/><path fill="#000000" fill-opacity="0.0" clip-path="url(#id_0)" d="M329.5731 274.9391C329.5731 276.59595 328.22992 277.9391 326.5731 277.9391C324.91623 277.9391 323.5731 276.59595 323.5731 274.9391C323.5731 273.28223 324.91623 271.9391 326.5731 271.9391C328.22992 271.9391 329.5731 273.28223 329.5731 274.9391Z" fill-rule="nonzero"/><path fill="#000000" fill-opacity="0.0" clip-path="url(#id_0)" d="M362.71924 249.86946C362.71924 251.52632 361.3761 252.86946 359.71924 252.86946C358.06238 252.86946 356.71924 251.52632 356.71924 249.86946C356.71924 248.21262 358.06238 246.86946 359.71924 246.86946C361.3761 246.86946 362.71924 248.21262 362.71924 249.86946Z" fill-rule="nonzero"/><path fill="#000000" fill-opacity="0.0" clip-path="url(#id_0)" d="M395.8654 199.9509C395.8654 201.60774 394.52225 202.9509 392.8654 202.9509C391.20853 202.9509 389.8654 201.60774 389.8654 199.9509C389.8654 198.29404 391.20853 196.9509 392.8654 196.9509C394.52225 196.9509 395.8654 198.29404 395.8654 199.9509Z" fill-rule="nonzero"/><path fill="#000000" fill-opacity="0.0" clip-path="url(#id_0)" d="M429.01154 100.70782C429.01154 102.36467 427.6684 103.70782 426.01154 103.70782C424.35468 103.70782 423.01154 102.36467 423.01154 100.70782C423.01154 99.05096 424.35468 97.70782 426.01154 97.70782C427.6684 97.70782 429.01154 99.05096 429.01154 100.70782Z" fill-rule="nonzero"/><path fill="#000000" fill-opacity="0.0" clip-path="url(#id_0)" d="M462.15768 100.28348C462.15768 101.94033 460.81454 103.28348 459.15768 103.28348C457.50082 103.28348 456.15768 101.94033 456.15768 100.28348C456.15768 98.626625 457.50082 97.28348 459.15768 97.28348C460.81454 97.28348 462.15768 98.626625 462.15768 100.28348Z" fill-rule="nonzero"/><path fill="#000000" fill-opacity="0.0" clip-path="url(#id_0)" d="M495.30383 100.06283C495.30383 101.71968 493.9607 103.06283 492.30383 103.06283C490.647 103.06283 489.30383 101.71968 489.30383 100.06283C489.30383 98.405975 490.647 97.06283 492.30383 97.06283C493.9607 97.06283 495.30383 98.405975 495.30383 100.06283Z" fill-rule="nonzero"/><path fill="#000000" fill-opacity="0.0" clip-path="url(#id_0)" d="M528.45 100.419266C528.45 102.07612 527.1069 103.419266 525.45 103.419266C523.79315 103.419266 522.45 102.07612 522.45 100.419266C522.45 98.76241 523.79315 97.419266 525.45 97.419266C527.1069 97.419266 528.45 98.76241 528.45 100.419266Z" fill-rule="nonzero"/><path fill="#000000" fill-opacity="0.0" clip-path="url(#id_0)" d="M97.55 300.11105C97.55 301.76788 96.206856 303.11105 94.55 303.11105C92.89314 303.11105 91.55 301.76788 91.55 300.11105C91.55 298.4542 92.89314 297.11105 94.55 297.11105C96.206856 297.11105 97.55 298.4542 97.55 300.11105Z" fill-rule="nonzero"/><path fill="#000000" fill-opacity="0.0" clip-path="url(#id_0)" d="M130.69615 300.04977C130.69615 301.70663 129.35301 303.04977 127.69615 303.04977C126.0393 303.04977 124.69615 301.70663 124.69615 300.04977C124.69615 298.3929 126.0393 297.04977 127.69615 297.04977C129.35301 297.04977 130.69615 298.3929 130.69615 300.04977Z" fill-rule="nonzero"/><path fill="#000000" fill-opacity="0.0" clip-path="url(#id_0)" d="M163.8423 300.0564C163.8423 301.71326 162.49916 303.0564 160.8423 303.0564C159.18546 303.0564 157.8423 301.71326 157.8423 300.0564C157.8423 298.39954 159.18546 297.0564 160.8423 297.0564C162.49916 297.0564 163.8423 298.39954 163.8423 300.0564Z" fill-rule="nonzero"/><path fill="#000000" fill-opacity="0.0" clip-path="url(#id_0)" d="M196.98846 300.06488C196.98846 301.72174 195.64531 303.06488 193.98846 303.06488C192.3316 303.06488 190.98846 301.72174 190.98846 300.06488C190.98846 298.40802 192.3316 297.06488 193.98846 297.06488C195.64531 297.06488 196.98846 298.40802 196.98846 300.06488Z" fill-rule="nonzero"/><path fill="#000000" fill-opacity="0.0" clip-path="url(#id_0)" d="M230.13461 299.85797C230.13461 301.51483 228.79147 302.85797 227.13461 302.85797C225.47777 302.85797 224.13461 301.51483 224.13461 299.85797C224.13461 298.2011 225.47777 296.85797 227.13461 296.85797C228.79147 296.85797 230.13461 298.2011 230.13461 299.85797Z" fill-rule="nonzero"/><path fill="#000000" fill-opacity="0.0" clip-path="url(#id_0)" d="M263.28076 299.6268C263.28076 301.28366 261.93762 302.6268 260.28076 302.6268C258.6239 302.6268 257.28076 301.28366 257.28076 299.6268C257.28076 297.96994 258.6239 296.6268 260.28076 296.6268C261.93762 296.6268 263.28076 297.96994 263.28076 299.6268Z" fill-rule="nonzero"/><path fill="#000000" fill-opacity="0.0" clip-path="url(#id_0)" d="M296.4269 299.64377C296.4269 301.30063 295.08377 302.64377 293.4269 302.64377C291.77008 302.64377 290.4269 301.30063 290.4269 299.64377C290.4269 297.9869 291.77008 296.64377 293.4269 296.64377C295.08377 296.64377 296.4269 297.9869 296.4269 299.64377Z" fill-rule="nonzero"/><path fill="#000000" fill-opacity="0.0" clip-path="url(#id_0)" d="M329.5731 299.56738C329.5731 301.22424 328.22992 302.56738 326.5731 302.56738C324.91623 302.56738 323.5731 301.22424 323.5731 299.56738C323.5731 297.91052 324.91623 296.56738 326.5731 296.56738C328.22992 296.56738 329.5731 297.91052 329.5731 299.56738Z" fill-rule="nonzero"/><path fill="#000000" fill-opacity="0.0" clip-path="url(#id_0)" d="M362.71924 299.51648C362.71924 301.1733 361.3761 302.51648 359.71924 302.51648C358.06238 302.51648 356.71924 301.1733 356.71924 299.51648C356.71924 297.85962 358.06238 296.51648 359.71924 296.51648C361.3761 296.51648 362.71924 297.85962 362.71924 299.51648Z" fill-rule="nonzero"/><path fill="#000000" fill-opacity="0.0" clip-path="url(#id_0)" d="M395.8654 299.65225C395.8654 301.3091 394.52225 302.65225 392.8654 302.65225C391.20853 302.65225 389.8654 301.3091 389.8654 299.65225C389.8654 297.9954 391.20853 296.65225 392.8654 296.65225C394.52225 296.65225 395.8654 297.9954 395.8654 299.65225Z" fill-rule="nonzero"/><path fill="#000000" fill-opacity="0.0" clip-path="url(#id_0)" d="M429.01154 299.6862C429.01154 301.34305 427.6684 302.6862 426.01154 302.6862C424.35468 302.6862 423.01154 301.34305 423.01154 299.6862C423.01154 298.02936 424.35468 296.6862 426.01154 296.6862C427.6684 296.6862 429.01154 298.02936 429.01154 299.6862Z" fill-rule="nonzero"/><path fill="#000000" fill-opacity="0.0" clip-path="url(#id_0)" d="M462.15768 299.90686C462.15768 301.56372 460.81454 302.90686 459.15768 302.90686C457.50082 302.90686 456.15768 301.56372 456.15768 299.90686C456.15768 298.25 457.50082 296.90686 459.15768 296.90686C460.81454 296.90686 462.15768 298.25 462.15768 299.90686Z" fill-rule="nonzero"/><path fill="#000000" fill-opacity="0.0" clip-path="url(#id_0)" d="M495.30383 299.8729C495.30383 301.52975 493.9607 302.8729 492.30383 302.8729C490.647 302.8729 489.30383 301.52975 489.30383 299.8729C489.30383 298.21606 490.647 296.8729 492.30383 296.8729C493.9607 296.8729 495.30383 298.21606 495.30383 299.8729Z" fill-rule="nonzero"/><path fill="#000000" fill-opacity="0.0" clip-path="url(#id_0)" d="M528.45 299.85593C528.45 301.5128 527.1069 302.85593 525.45 302.85593C523.79315 302.85593 522.45 301.5128 522.45 299.85593C522.45 298.19907 523.79315 296.85593 525.45 296.85593C527.1069 296.85593 528.45 298.19907 528.45 299.85593Z" fill-rule="nonzero"/><path fill="#000000" d="M279.04688 346.6844L280.10938 346.59064Q280.1875 347.2469 280.46875 347.65314Q280.75 348.0594 281.32812 348.325Q281.92188 348.575 282.65625 348.575Q283.29688 348.575 283.79688 348.3875Q284.29688 348.1844 284.53125 347.85626Q284.78125 347.5125 284.78125 347.1219Q284.78125 346.71564 284.54688 346.41876Q284.3125 346.10626 283.78125 345.90314Q283.42188 345.7625 282.23438 345.48126Q281.0625 345.2 280.59375 344.95Q279.96875 344.6219 279.67188 344.15314Q279.375 343.66876 279.375 343.075Q279.375 342.4344 279.73438 341.8719Q280.10938 341.29376 280.8125 341.0125Q281.53125 340.71564 282.39062 340.71564Q283.34375 340.71564 284.07812 341.02814Q284.8125 341.325 285.20312 341.9344Q285.59375 342.52814 285.625 343.27814L284.53125 343.35626Q284.4375 342.54376 283.92188 342.1375Q283.42188 341.71564 282.4375 341.71564Q281.40625 341.71564 280.9375 342.09064Q280.46875 342.46564 280.46875 342.9969Q280.46875 343.46564 280.79688 343.7625Q281.125 344.0594 282.5 344.3719Q283.89062 344.6844 284.40625 344.91876Q285.15625 345.27814 285.51562 345.8094Q285.875 346.325 285.875 347.02814Q285.875 347.71564 285.48438 348.325Q285.09375 348.91876 284.35938 349.2625Q283.625 349.59064 282.70312 349.59064Q281.53125 349.59064 280.73438 349.2625Q279.95312 348.91876 279.5 348.23126Q279.0625 347.54376 279.04688 346.6844ZM287.29688 342.075L287.29688 340.85626L288.35938 340.85626L288.35938 342.075L287.29688 342.075ZM287.29688 349.45L287.29688 343.23126L288.35938 343.23126L288.35938 349.45L287.29688 349.45ZM289.73438 349.45L289.73438 348.59064L293.70312 344.04376Q293.01562 344.075 292.5 344.075L289.96875 344.075L289.96875 343.23126L295.0625 343.23126L295.0625 343.91876L291.6875 347.8719L291.03125 348.59064Q291.75 348.54376 292.35938 348.54376L295.25 348.54376L295.25 349.45L289.73438 349.45ZM299.54688 347.45L300.64062 347.575Q300.39062 348.52814 299.6875 349.0594Q298.98438 349.59064 297.90625 349.59064Q296.54688 349.59064 295.73438 348.7469Q294.9375 347.90314 294.9375 346.3875Q294.9375 344.825 295.75 343.96564Q296.5625 343.09064 297.84375 343.09064Q299.09375 343.09064 299.875 343.9344Q300.67188 344.77814 300.67188 346.325Q300.67188 346.41876 300.67188 346.60626L296.03125 346.60626Q296.09375 347.6375 296.60938 348.1844Q297.125 348.71564 297.90625 348.71564Q298.48438 348.71564 298.89062 348.41876Q299.3125 348.10626 299.54688 347.45ZM296.09375 345.7469L299.5625 345.7469Q299.5 344.95 299.17188 344.5594Q298.65625 343.95 297.85938 343.95Q297.125 343.95 296.625 344.4344Q296.14062 344.91876 296.09375 345.7469ZM307.3125 351.98126Q306.4375 350.8719 305.82812 349.40314Q305.23438 347.91876 305.23438 346.34064Q305.23438 344.95 305.67188 343.66876Q306.20312 342.1844 307.3125 340.71564L308.0625 340.71564Q307.35938 341.9344 307.125 342.45Q306.76562 343.2625 306.5625 344.1375Q306.3125 345.23126 306.3125 346.34064Q306.3125 349.16876 308.0625 351.98126L307.3125 351.98126ZM310.26562 349.45L309.28125 349.45L309.28125 340.85626L310.34375 340.85626L310.34375 343.91876Q311.01562 343.09064 312.04688 343.09064Q312.625 343.09064 313.125 343.325Q313.64062 343.54376 313.96875 343.96564Q314.3125 344.3875 314.5 344.98126Q314.6875 345.575 314.6875 346.2469Q314.6875 347.84064 313.89062 348.71564Q313.09375 349.59064 312.0 349.59064Q310.89062 349.59064 310.26562 348.66876L310.26562 349.45ZM310.25 346.29376Q310.25 347.40314 310.5625 347.90314Q311.0625 348.71564 311.90625 348.71564Q312.59375 348.71564 313.09375 348.1219Q313.60938 347.52814 313.60938 346.325Q313.60938 345.10626 313.125 344.52814Q312.64062 343.95 311.95312 343.95Q311.26562 343.95 310.75 344.5594Q310.25 345.15314 310.25 346.29376ZM316.25 351.84064L316.125 350.85626Q316.46875 350.95 316.73438 350.95Q317.07812 350.95 317.28125 350.825Q317.5 350.71564 317.64062 350.5125Q317.73438 350.34064 317.96875 349.71564Q317.98438 349.6375 318.0625 349.46564L315.6875 343.23126L316.82812 343.23126L318.125 346.825Q318.375 347.5125 318.57812 348.27814Q318.76562 347.54376 319.01562 346.85626L320.34375 343.23126L321.39062 343.23126L319.03125 349.5594Q318.64062 350.575 318.4375 350.96564Q318.15625 351.4969 317.78125 351.73126Q317.42188 351.98126 316.92188 351.98126Q316.625 351.98126 316.25 351.84064ZM323.59375 348.5125L323.75 349.4344Q323.29688 349.52814 322.95312 349.52814Q322.375 349.52814 322.0625 349.35626Q321.75 349.16876 321.60938 348.8719Q321.48438 348.575 321.48438 347.6219L321.48438 344.04376L320.71875 344.04376L320.71875 343.23126L321.48438 343.23126L321.48438 341.6844L322.53125 341.0594L322.53125 343.23126L323.59375 343.23126L323.59375 344.04376L322.53125 344.04376L322.53125 347.6844Q322.53125 348.1375 322.57812 348.2625Q322.64062 348.3875 322.76562 348.46564Q322.89062 348.54376 323.125 348.54376Q323.3125 348.54376 323.59375 348.5125ZM328.54688 347.45L329.64062 347.575Q329.39062 348.52814 328.6875 349.0594Q327.98438 349.59064 326.90625 349.59064Q325.54688 349.59064 324.73438 348.7469Q323.9375 347.90314 323.9375 346.3875Q323.9375 344.825 324.75 343.96564Q325.5625 343.09064 326.84375 343.09064Q328.09375 343.09064 328.875 343.9344Q329.67188 344.77814 329.67188 346.325Q329.67188 346.41876 329.67188 346.60626L325.03125 346.60626Q325.09375 347.6375 325.60938 348.1844Q326.125 348.71564 326.90625 348.71564Q327.48438 348.71564 327.89062 348.41876Q328.3125 348.10626 328.54688 347.45ZM325.09375 345.7469L328.5625 345.7469Q328.5 344.95 328.17188 344.5594Q327.65625 343.95 326.85938 343.95Q326.125 343.95 325.625 344.4344Q325.14062 344.91876 325.09375 345.7469ZM330.875 347.59064L331.90625 347.4344Q332.0 348.0594 332.39062 348.3875Q332.79688 348.71564 333.53125 348.71564Q334.25 348.71564 334.59375 348.4344Q334.95312 348.1375 334.95312 347.73126Q334.95312 347.3719 334.64062 347.16876Q334.42188 347.02814 333.5625 346.8094Q332.40625 346.5125 331.95312 346.3094Q331.51562 346.09064 331.28125 345.71564Q331.04688 345.34064 331.04688 344.8719Q331.04688 344.46564 331.23438 344.10626Q331.42188 343.7469 331.75 343.5125Q332.0 343.34064 332.42188 343.21564Q332.84375 343.09064 333.34375 343.09064Q334.0625 343.09064 334.60938 343.3094Q335.17188 343.5125 335.4375 343.8719Q335.70312 344.23126 335.79688 344.825L334.76562 344.96564Q334.70312 344.4969 334.35938 344.23126Q334.03125 343.95 333.40625 343.95Q332.6875 343.95 332.375 344.2Q332.0625 344.4344 332.0625 344.7625Q332.0625 344.96564 332.1875 345.1219Q332.32812 345.29376 332.59375 345.40314Q332.75 345.46564 333.53125 345.66876Q334.65625 345.98126 335.09375 346.16876Q335.53125 346.35626 335.78125 346.71564Q336.03125 347.075 336.03125 347.6219Q336.03125 348.15314 335.71875 348.6219Q335.42188 349.075 334.84375 349.34064Q334.26562 349.59064 333.53125 349.59064Q332.3125 349.59064 331.67188 349.09064Q331.04688 348.575 330.875 347.59064ZM338.98438 351.98126L338.23438 351.98126Q339.98438 349.16876 339.98438 346.34064Q339.98438 345.2469 339.73438 344.15314Q339.53125 343.27814 339.17188 342.46564Q338.9375 341.95 338.23438 340.71564L338.98438 340.71564Q340.07812 342.1844 340.60938 343.66876Q341.0625 344.95 341.0625 346.34064Q341.0625 347.91876 340.45312 349.40314Q339.84375 350.8719 338.98438 351.98126Z" fill-rule="nonzero"/><path fill="#000000" d="M27.550013 274.8198L27.675013 273.72604Q28.628138 273.97604 29.159388 274.67917Q29.690638 275.3823 29.690638 276.46042Q29.690638 277.8198 28.846888 278.6323Q28.003138 279.42917 26.487513 279.42917Q24.925013 279.42917 24.065638 278.61667Q23.190638 277.80417 23.190638 276.52292Q23.190638 275.27292 24.034388 274.49167Q24.878138 273.6948 26.425013 273.6948Q26.518763 273.6948 26.706263 273.6948L26.706263 278.33542Q27.737513 278.27292 28.284388 277.7573Q28.815638 277.24167 28.815638 276.46042Q28.815638 275.8823 28.518763 275.47604Q28.206263 275.05417 27.550013 274.8198ZM25.846888 278.27292L25.846888 274.80417Q25.050013 274.86667 24.659388 275.1948Q24.050013 275.71042 24.050013 276.5073Q24.050013 277.24167 24.534388 277.74167Q25.018763 278.22604 25.846888 278.27292ZM29.550013 272.77292L26.315638 270.5073L23.331263 272.60104L23.331263 271.28854L24.784388 270.33542Q25.206263 270.0698 25.487513 269.89792Q25.096888 269.64792 24.800013 269.42917L23.331263 268.3823L23.331263 267.11667L26.253138 269.27292L29.550013 266.96042L29.550013 268.24167L27.612513 269.52292L27.096888 269.86667L29.550013 271.5073L29.550013 272.77292ZM27.550013 262.8198L27.675013 261.72604Q28.628138 261.97604 29.159388 262.67917Q29.690638 263.3823 29.690638 264.46042Q29.690638 265.8198 28.846888 266.6323Q28.003138 267.42917 26.487513 267.42917Q24.925013 267.42917 24.065638 266.61667Q23.190638 265.80417 23.190638 264.52292Q23.190638 263.27292 24.034388 262.49167Q24.878138 261.6948 26.425013 261.6948Q26.518763 261.6948 26.706263 261.6948L26.706263 266.33542Q27.737513 266.27292 28.284388 265.7573Q28.815638 265.24167 28.815638 264.46042Q28.815638 263.8823 28.518763 263.47604Q28.206263 263.05417 27.550013 262.8198ZM25.846888 266.27292L25.846888 262.80417Q25.050013 262.86667 24.659388 263.1948Q24.050013 263.71042 24.050013 264.5073Q24.050013 265.24167 24.534388 265.74167Q25.018763 266.22604 25.846888 266.27292ZM27.268763 256.0073L27.409388 254.97604Q28.471888 255.14792 29.081263 255.85104Q29.690638 256.55417 29.690638 257.5698Q29.690638 258.85104 28.862513 259.6323Q28.018763 260.39792 26.456263 260.39792Q25.456263 260.39792 24.706263 260.0698Q23.940638 259.72604 23.565638 259.05417Q23.190638 258.36667 23.190638 257.55417Q23.190638 256.55417 23.706263 255.91354Q24.206263 255.2573 25.159388 255.0698L25.315638 256.10104Q24.690638 256.24167 24.378138 256.61667Q24.050013 256.99167 24.050013 257.52292Q24.050013 258.3198 24.628138 258.8198Q25.190638 259.3198 26.425013 259.3198Q27.690638 259.3198 28.253138 258.83542Q28.815638 258.35104 28.815638 257.58542Q28.815638 256.96042 28.440638 256.55417Q28.065638 256.1323 27.268763 256.0073ZM28.612513 248.77292L29.534388 248.61667Q29.628138 249.0698 29.628138 249.41354Q29.628138 249.99167 29.456263 250.30417Q29.268763 250.61667 28.971888 250.7573Q28.675013 250.8823 27.721888 250.8823L24.143763 250.8823L24.143763 251.64792L23.331263 251.64792L23.331263 250.8823L21.784388 250.8823L21.159388 249.83542L23.331263 249.83542L23.331263 248.77292L24.143763 248.77292L24.143763 249.83542L27.784388 249.83542Q28.237513 249.83542 28.362513 249.78854Q28.487513 249.72604 28.565638 249.60104Q28.643763 249.47604 28.643763 249.24167Q28.643763 249.05417 28.612513 248.77292ZM22.175013 248.0698L20.956263 248.0698L20.956263 247.0073L22.175013 247.0073L22.175013 248.0698ZM29.550013 248.0698L23.331263 248.0698L23.331263 247.0073L29.550013 247.0073L29.550013 248.0698ZM29.550013 245.0698L23.331263 245.0698L23.331263 244.1323L24.206263 244.1323Q23.737513 243.83542 23.471888 243.35104Q23.190638 242.86667 23.190638 242.24167Q23.190638 241.55417 23.471888 241.11667Q23.753138 240.66354 24.268763 240.49167Q23.190638 239.74167 23.190638 238.5698Q23.190638 237.6323 23.706263 237.14792Q24.206263 236.64792 25.284388 236.64792L29.550013 236.64792L29.550013 237.6948L25.628138 237.6948Q25.003138 237.6948 24.721888 237.80417Q24.440638 237.89792 24.268763 238.16354Q24.096888 238.42917 24.096888 238.80417Q24.096888 239.46042 24.534388 239.89792Q24.971888 240.3198 25.940638 240.3198L29.550013 240.3198L29.550013 241.3823L25.503138 241.3823Q24.800013 241.3823 24.456263 241.64792Q24.096888 241.89792 24.096888 242.47604Q24.096888 242.92917 24.331263 243.30417Q24.565638 243.67917 25.018763 243.85104Q25.471888 244.02292 26.315638 244.02292L29.550013 244.02292L29.550013 245.0698ZM27.550013 229.8198L27.675013 228.72604Q28.628138 228.97604 29.159388 229.67917Q29.690638 230.3823 29.690638 231.46042Q29.690638 232.8198 28.846888 233.6323Q28.003138 234.42917 26.487513 234.42917Q24.925013 234.42917 24.065638 233.61667Q23.190638 232.80417 23.190638 231.52292Q23.190638 230.27292 24.034388 229.49167Q24.878138 228.6948 26.425013 228.6948Q26.518763 228.6948 26.706263 228.6948L26.706263 233.33542Q27.737513 233.27292 28.284388 232.7573Q28.815638 232.24167 28.815638 231.46042Q28.815638 230.8823 28.518763 230.47604Q28.206263 230.05417 27.550013 229.8198ZM25.846888 233.27292L25.846888 229.80417Q25.050013 229.86667 24.659388 230.1948Q24.050013 230.71042 24.050013 231.5073Q24.050013 232.24167 24.534388 232.74167Q25.018763 233.22604 25.846888 233.27292ZM31.940638 224.0698L23.331263 224.0698L23.331263 223.11667L24.128138 223.11667Q23.659388 222.77292 23.425013 222.35104Q23.190638 221.91354 23.190638 221.30417Q23.190638 220.5073 23.596888 219.89792Q24.003138 219.28854 24.753138 218.99167Q25.503138 218.67917 26.393763 218.67917Q27.346888 218.67917 28.112513 219.02292Q28.878138 219.35104 29.284388 220.0073Q29.690638 220.66354 29.690638 221.3823Q29.690638 221.91354 29.471888 222.33542Q29.237513 222.7573 28.909388 223.02292L31.940638 223.02292L31.940638 224.0698ZM26.471888 223.11667Q27.675013 223.11667 28.253138 222.6323Q28.815638 222.14792 28.815638 221.46042Q28.815638 220.7573 28.221888 220.2573Q27.628138 219.7573 26.378138 219.7573Q25.190638 219.7573 24.612513 220.24167Q24.018763 220.72604 24.018763 221.41354Q24.018763 222.08542 24.643763 222.60104Q25.268763 223.11667 26.471888 223.11667ZM27.550013 212.8198L27.675013 211.72604Q28.628138 211.97604 29.159388 212.67917Q29.690638 213.3823 29.690638 214.46042Q29.690638 215.8198 28.846888 216.6323Q28.003138 217.42917 26.487513 217.42917Q24.925013 217.42917 24.065638 216.61667Q23.190638 215.80417 23.190638 214.52292Q23.190638 213.27292 24.034388 212.49167Q24.878138 211.6948 26.425013 211.6948Q26.518763 211.6948 26.706263 211.6948L26.706263 216.33542Q27.737513 216.27292 28.284388 215.7573Q28.815638 215.24167 28.815638 214.46042Q28.815638 213.8823 28.518763 213.47604Q28.206263 213.05417 27.550013 212.8198ZM25.846888 216.27292L25.846888 212.80417Q25.050013 212.86667 24.659388 213.1948Q24.050013 213.71042 24.050013 214.5073Q24.050013 215.24167 24.534388 215.74167Q25.018763 216.22604 25.846888 216.27292ZM29.550013 210.08542L23.331263 210.08542L23.331263 209.1323L24.268763 209.1323Q23.612513 208.77292 23.409388 208.47604Q23.190638 208.16354 23.190638 207.78854Q23.190638 207.2573 23.518763 206.71042L24.503138 207.0698Q24.268763 207.46042 24.268763 207.83542Q24.268763 208.1948 24.487513 208.47604Q24.690638 208.74167 25.065638 208.85104Q25.628138 209.03854 26.284388 209.03854L29.550013 209.03854L29.550013 210.08542ZM22.175013 203.0698L20.956263 203.0698L20.956263 202.0073L22.175013 202.0073L22.175013 203.0698ZM29.550013 203.0698L23.331263 203.0698L23.331263 202.0073L29.550013 202.0073L29.550013 203.0698ZM29.550013 200.0698L23.331263 200.0698L23.331263 199.1323L24.206263 199.1323Q23.190638 198.4448 23.190638 197.14792Q23.190638 196.58542 23.393763 196.11667Q23.596888 195.6323 23.925013 195.39792Q24.253138 195.16354 24.690638 195.0698Q24.987513 195.02292 25.721888 195.02292L29.550013 195.02292L29.550013 196.0698L25.768763 196.0698Q25.112513 196.0698 24.800013 196.1948Q24.487513 196.3198 24.300013 196.6323Q24.096888 196.9448 24.096888 197.36667Q24.096888 198.03854 24.534388 198.53854Q24.956263 199.02292 26.143763 199.02292L29.550013 199.02292L29.550013 200.0698ZM27.690638 193.49167L27.534388 192.46042Q28.159388 192.36667 28.487513 191.97604Q28.815638 191.5698 28.815638 190.83542Q28.815638 190.11667 28.534388 189.77292Q28.237513 189.41354 27.831263 189.41354Q27.471888 189.41354 27.268763 189.72604Q27.128138 189.9448 26.909388 190.80417Q26.612513 191.96042 26.409388 192.41354Q26.190638 192.85104 25.815638 193.08542Q25.440638 193.3198 24.971888 193.3198Q24.565638 193.3198 24.206263 193.1323Q23.846888 192.9448 23.612513 192.61667Q23.440638 192.36667 23.315638 191.9448Q23.190638 191.52292 23.190638 191.02292Q23.190638 190.30417 23.409388 189.7573Q23.612513 189.1948 23.971888 188.92917Q24.331263 188.66354 24.925013 188.5698L25.065638 189.60104Q24.596888 189.66354 24.331263 190.0073Q24.050013 190.33542 24.050013 190.96042Q24.050013 191.67917 24.300013 191.99167Q24.534388 192.30417 24.862513 192.30417Q25.065638 192.30417 25.221888 192.17917Q25.393763 192.03854 25.503138 191.77292Q25.565638 191.61667 25.768763 190.83542Q26.081263 189.71042 26.268763 189.27292Q26.456263 188.83542 26.815638 188.58542Q27.175013 188.33542 27.721888 188.33542Q28.253138 188.33542 28.721888 188.64792Q29.175013 188.9448 29.440638 189.52292Q29.690638 190.10104 29.690638 190.83542Q29.690638 192.05417 29.190638 192.6948Q28.675013 193.3198 27.690638 193.49167ZM28.612513 183.77292L29.534388 183.61667Q29.628138 184.0698 29.628138 184.41354Q29.628138 184.99167 29.456263 185.30417Q29.268763 185.61667 28.971888 185.7573Q28.675013 185.8823 27.721888 185.8823L24.143763 185.8823L24.143763 186.64792L23.331263 186.64792L23.331263 185.8823L21.784388 185.8823L21.159388 184.83542L23.331263 184.83542L23.331263 183.77292L24.143763 183.77292L24.143763 184.83542L27.784388 184.83542Q28.237513 184.83542 28.362513 184.78854Q28.487513 184.72604 28.565638 184.60104Q28.643763 184.47604 28.643763 184.24167Q28.643763 184.05417 28.612513 183.77292ZM29.550013 183.08542L23.331263 183.08542L23.331263 182.1323L24.268763 182.1323Q23.612513 181.77292 23.409388 181.47604Q23.190638 181.16354 23.190638 180.78854Q23.190638 180.2573 23.518763 179.71042L24.503138 180.0698Q24.268763 180.46042 24.268763 180.83542Q24.268763 181.1948 24.487513 181.47604Q24.690638 181.74167 25.065638 181.85104Q25.628138 182.03854 26.284388 182.03854L29.550013 182.03854L29.550013 183.08542ZM29.550013 174.99167L28.628138 174.99167Q29.690638 175.72604 29.690638 176.97604Q29.690638 177.52292 29.487513 178.0073Q29.268763 178.47604 28.956263 178.71042Q28.628138 178.9448 28.159388 179.03854Q27.862513 179.10104 27.175013 179.10104L23.331263 179.10104L23.331263 178.03854L26.784388 178.03854Q27.596888 178.03854 27.893763 177.97604Q28.300013 177.8823 28.550013 177.5698Q28.784388 177.24167 28.784388 176.7573Q28.784388 176.28854 28.550013 175.8823Q28.300013 175.46042 27.878138 175.28854Q27.456263 175.10104 26.659388 175.10104L23.331263 175.10104L23.331263 174.05417L29.550013 174.05417L29.550013 174.99167ZM27.268763 168.0073L27.409388 166.97604Q28.471888 167.14792 29.081263 167.85104Q29.690638 168.55417 29.690638 169.5698Q29.690638 170.85104 28.862513 171.6323Q28.018763 172.39792 26.456263 172.39792Q25.456263 172.39792 24.706263 172.0698Q23.940638 171.72604 23.565638 171.05417Q23.190638 170.36667 23.190638 169.55417Q23.190638 168.55417 23.706263 167.91354Q24.206263 167.2573 25.159388 167.0698L25.315638 168.10104Q24.690638 168.24167 24.378138 168.61667Q24.050013 168.99167 24.050013 169.52292Q24.050013 170.3198 24.628138 170.8198Q25.190638 171.3198 26.425013 171.3198Q27.690638 171.3198 28.253138 170.83542Q28.815638 170.35104 28.815638 169.58542Q28.815638 168.96042 28.440638 168.55417Q28.065638 168.1323 27.268763 168.0073ZM28.612513 163.77292L29.534388 163.61667Q29.628138 164.0698 29.628138 164.41354Q29.628138 164.99167 29.456263 165.30417Q29.268763 165.61667 28.971888 165.7573Q28.675013 165.8823 27.721888 165.8823L24.143763 165.8823L24.143763 166.64792L23.331263 166.64792L23.331263 165.8823L21.784388 165.8823L21.159388 164.83542L23.331263 164.83542L23.331263 163.77292L24.143763 163.77292L24.143763 164.83542L27.784388 164.83542Q28.237513 164.83542 28.362513 164.78854Q28.487513 164.72604 28.565638 164.60104Q28.643763 164.47604 28.643763 164.24167Q28.643763 164.05417 28.612513 163.77292ZM22.175013 163.0698L20.956263 163.0698L20.956263 162.0073L22.175013 162.0073L22.175013 163.0698ZM29.550013 163.0698L23.331263 163.0698L23.331263 162.0073L29.550013 162.0073L29.550013 163.0698ZM26.440638 160.46042Q24.706263 160.46042 23.878138 159.5073Q23.190638 158.71042 23.190638 157.55417Q23.190638 156.27292 24.034388 155.46042Q24.862513 154.6323 26.346888 154.6323Q27.550013 154.6323 28.237513 154.99167Q28.925013 155.35104 29.315638 156.05417Q29.690638 156.74167 29.690638 157.55417Q29.690638 158.85104 28.862513 159.66354Q28.018763 160.46042 26.440638 160.46042ZM26.440638 159.3823Q27.628138 159.3823 28.221888 158.86667Q28.815638 158.33542 28.815638 157.55417Q28.815638 156.7573 28.221888 156.24167Q27.628138 155.72604 26.409388 155.72604Q25.253138 155.72604 24.659388 156.2573Q24.065638 156.77292 24.065638 157.55417Q24.065638 158.33542 24.659388 158.86667Q25.237513 159.3823 26.440638 159.3823ZM29.550013 153.0698L23.331263 153.0698L23.331263 152.1323L24.206263 152.1323Q23.190638 151.4448 23.190638 150.14792Q23.190638 149.58542 23.393763 149.11667Q23.596888 148.6323 23.925013 148.39792Q24.253138 148.16354 24.690638 148.0698Q24.987513 148.02292 25.721888 148.02292L29.550013 148.02292L29.550013 149.0698L25.768763 149.0698Q25.112513 149.0698 24.800013 149.1948Q24.487513 149.3198 24.300013 149.6323Q24.096888 149.9448 24.096888 150.36667Q24.096888 151.03854 24.534388 151.53854Q24.956263 152.02292 26.143763 152.02292L29.550013 152.02292L29.550013 153.0698ZM32.08126 141.05417Q30.971888 141.92917 29.503138 142.53854Q28.018763 143.1323 26.440638 143.1323Q25.050013 143.1323 23.768763 142.6948Q22.284388 142.16354 20.815638 141.05417L20.815638 140.30417Q22.034388 141.0073 22.550013 141.24167Q23.362513 141.60104 24.237513 141.80417Q25.331263 142.05417 26.440638 142.05417Q29.268763 142.05417 32.08126 140.30417L32.08126 141.05417ZM29.550013 139.0698L23.331263 139.0698L23.331263 138.1323L24.206263 138.1323Q23.190638 137.4448 23.190638 136.14792Q23.190638 135.58542 23.393763 135.11667Q23.596888 134.6323 23.925013 134.39792Q24.253138 134.16354 24.690638 134.0698Q24.987513 134.02292 25.721888 134.02292L29.550013 134.02292L29.550013 135.0698L25.768763 135.0698Q25.112513 135.0698 24.800013 135.1948Q24.487513 135.3198 24.300013 135.6323Q24.096888 135.9448 24.096888 136.36667Q24.096888 137.03854 24.534388 137.53854Q24.956263 138.02292 26.143763 138.02292L29.550013 138.02292L29.550013 139.0698ZM27.690638 132.49167L27.534388 131.46042Q28.159388 131.36667 28.487513 130.97604Q28.815638 130.5698 28.815638 129.83542Q28.815638 129.11667 28.534388 128.77292Q28.237513 128.41354 27.831263 128.41354Q27.471888 128.41354 27.268763 128.72604Q27.128138 128.9448 26.909388 129.80417Q26.612513 130.96042 26.409388 131.41354Q26.190638 131.85104 25.815638 132.08542Q25.440638 132.3198 24.971888 132.3198Q24.565638 132.3198 24.206263 132.1323Q23.846888 131.9448 23.612513 131.61667Q23.440638 131.36667 23.315638 130.9448Q23.190638 130.52292 23.190638 130.02292Q23.190638 129.30417 23.409388 128.7573Q23.612513 128.1948 23.971888 127.92917Q24.331263 127.66354 24.925013 127.56979L25.065638 128.60104Q24.596888 128.66354 24.331263 129.0073Q24.050013 129.33542 24.050013 129.96042Q24.050013 130.67917 24.300013 130.99167Q24.534388 131.30417 24.862513 131.30417Q25.065638 131.30417 25.221888 131.17917Q25.393763 131.03854 25.503138 130.77292Q25.565638 130.61667 25.768763 129.83542Q26.081263 128.71042 26.268763 128.27292Q26.456263 127.83542 26.815638 127.58542Q27.175013 127.33542 27.721888 127.33542Q28.253138 127.33542 28.721888 127.64792Q29.175013 127.94479 29.440638 128.52292Q29.690638 129.10104 29.690638 129.83542Q29.690638 131.05417 29.190638 131.6948Q28.675013 132.3198 27.690638 132.49167ZM32.08126 124.38229L32.08126 125.13229Q29.268763 123.38229 26.440638 123.38229Q25.346888 123.38229 24.253138 123.63229Q23.378138 123.83542 22.565638 124.19479Q22.050013 124.42917 20.815638 125.13229L20.815638 124.38229Q22.284388 123.28854 23.768763 122.75729Q25.050013 122.30417 26.440638 122.30417Q28.018763 122.30417 29.503138 122.91354Q30.971888 123.52292 32.08126 124.38229Z" fill-rule="nonzero"/><path fill="#000000" d="M82.05 300.21564Q82.05 298.6844 82.3625 297.7625Q82.675 296.825 83.28438 296.325Q83.90938 295.825 84.84688 295.825Q85.53438 295.825 86.05 296.10626Q86.58125 296.3875 86.925 296.91876Q87.26875 297.4344 87.45625 298.1844Q87.64375 298.9344 87.64375 300.21564Q87.64375 301.73126 87.33125 302.65314Q87.03438 303.575 86.40938 304.09064Q85.8 304.59064 84.84688 304.59064Q83.6125 304.59064 82.89375 303.7Q82.05 302.6375 82.05 300.21564ZM83.12813 300.21564Q83.12813 302.325 83.62813 303.02814Q84.12813 303.73126 84.84688 303.73126Q85.58125 303.73126 86.06563 303.02814Q86.56563 302.325 86.56563 300.21564Q86.56563 298.09064 86.06563 297.40314Q85.58125 296.7 84.83125 296.7Q84.1125 296.7 83.675 297.3094Q83.12813 298.09064 83.12813 300.21564Z" fill-rule="nonzero"/><path fill="#000000" d="M63.596874 261.00104L63.596874 262.01666L57.909374 262.01666Q57.909374 261.64166 58.034374 261.2823Q58.253124 260.70416 58.721874 260.14166Q59.20625 259.57916 60.1125 258.8448Q61.51875 257.68854 62.003124 257.01666Q62.503124 256.3448 62.503124 255.75104Q62.503124 255.12604 62.05 254.70416Q61.596874 254.26666 60.878124 254.26666Q60.1125 254.26666 59.659374 254.71979Q59.20625 255.17291 59.190624 255.98541L58.1125 255.87604Q58.221874 254.65729 58.940624 254.03229Q59.675 253.39166 60.909374 253.39166Q62.14375 253.39166 62.8625 254.07916Q63.58125 254.76666 63.58125 255.78229Q63.58125 256.2979 63.3625 256.7979Q63.159374 257.2823 62.659374 257.8448Q62.175 258.39166 61.05 259.3448Q60.096874 260.14166 59.815624 260.43854Q59.55 260.7198 59.378124 261.00104L63.596874 261.00104ZM65.6125 262.01666L65.6125 260.81354L66.81563 260.81354L66.81563 262.01666Q66.81563 262.6729 66.58125 263.07916Q66.34688 263.50104 65.84688 263.7198L65.55 263.26666Q65.87813 263.12604 66.03438 262.82916Q66.19063 262.5479 66.22188 262.01666L65.6125 262.01666ZM68.05 259.76666L69.15938 259.6729Q69.28438 260.4854 69.72188 260.89166Q70.175 261.2979 70.81563 261.2979Q71.56563 261.2979 72.09688 260.7198Q72.62813 260.14166 72.62813 259.20416Q72.62813 258.2979 72.1125 257.7823Q71.6125 257.25104 70.78438 257.25104Q70.28438 257.25104 69.8625 257.4854Q69.45625 257.7198 69.22188 258.07916L68.2375 257.95416L69.06563 253.54791L73.34688 253.54791L73.34688 254.54791L69.90938 254.54791L69.45625 256.8604Q70.22188 256.31354 71.06563 256.31354Q72.19063 256.31354 72.95625 257.0948Q73.7375 257.87604 73.7375 259.1104Q73.7375 260.26666 73.06563 261.12604Q72.2375 262.1573 70.81563 262.1573Q69.64375 262.1573 68.89375 261.50104Q68.15938 260.8448 68.05 259.76666ZM75.05 257.7823Q75.05 256.25104 75.3625 255.32916Q75.675 254.39166 76.28438 253.89166Q76.90938 253.39166 77.84688 253.39166Q78.53438 253.39166 79.05 253.67291Q79.58125 253.95416 79.925 254.48541Q80.26875 255.00104 80.45625 255.75104Q80.64375 256.50104 80.64375 257.7823Q80.64375 259.2979 80.33125 260.2198Q80.03438 261.14166 79.40938 261.6573Q78.8 262.1573 77.84688 262.1573Q76.6125 262.1573 75.89375 261.26666Q75.05 260.20416 75.05 257.7823ZM76.12813 257.7823Q76.12813 259.89166 76.62813 260.5948Q77.12813 261.2979 77.84688 261.2979Q78.58125 261.2979 79.06563 260.5948Q79.56563 259.89166 79.56563 257.7823Q79.56563 255.65729 79.06563 254.96979Q78.58125 254.26666 77.83125 254.26666Q77.1125 254.26666 76.675 254.87604Q76.12813 255.65729 76.12813 257.7823ZM82.05 257.7823Q82.05 256.25104 82.3625 255.32916Q82.675 254.39166 83.28438 253.89166Q83.90938 253.39166 84.84688 253.39166Q85.53438 253.39166 86.05 253.67291Q86.58125 253.95416 86.925 254.48541Q87.26875 255.00104 87.45625 255.75104Q87.64375 256.50104 87.64375 257.7823Q87.64375 259.2979 87.33125 260.2198Q87.03438 261.14166 86.40938 261.6573Q85.8 262.1573 84.84688 262.1573Q83.6125 262.1573 82.89375 261.26666Q82.05 260.20416 82.05 257.7823ZM83.12813 257.7823Q83.12813 259.89166 83.62813 260.5948Q84.12813 261.2979 84.84688 261.2979Q85.58125 261.2979 86.06563 260.5948Q86.56563 259.89166 86.56563 257.7823Q86.56563 255.65729 86.06563 254.96979Q85.58125 254.26666 84.83125 254.26666Q84.1125 254.26666 83.675 254.87604Q83.12813 255.65729 83.12813 257.7823Z" fill-rule="nonzero"/><path fill="#000000" d="M58.05 217.33333L59.159374 217.23958Q59.284374 218.05208 59.721874 218.45833Q60.175 218.86458 60.815624 218.86458Q61.565624 218.86458 62.096874 218.28645Q62.628124 217.70833 62.628124 216.77083Q62.628124 215.86458 62.1125 215.34895Q61.6125 214.8177 60.784374 214.8177Q60.284374 214.8177 59.8625 215.05208Q59.45625 215.28645 59.221874 215.64583L58.2375 215.52083L59.065624 211.11458L63.346874 211.11458L63.346874 212.11458L59.909374 212.11458L59.45625 214.42708Q60.221874 213.8802 61.065624 213.8802Q62.190624 213.8802 62.95625 214.66145Q63.7375 215.4427 63.7375 216.67708Q63.7375 217.83333 63.065624 218.6927Q62.2375 219.72395 60.815624 219.72395Q59.64375 219.72395 58.89375 219.0677Q58.159374 218.41145 58.05 217.33333ZM65.6125 219.58333L65.6125 218.3802L66.81563 218.3802L66.81563 219.58333Q66.81563 220.23958 66.58125 220.64583Q66.34688 221.0677 65.84688 221.28645L65.55 220.83333Q65.87813 220.6927 66.03438 220.39583Q66.19063 220.11458 66.22188 219.58333L65.6125 219.58333ZM68.05 215.34895Q68.05 213.8177 68.3625 212.89583Q68.675 211.95833 69.28438 211.45833Q69.90938 210.95833 70.84688 210.95833Q71.53438 210.95833 72.05 211.23958Q72.58125 211.52083 72.925 212.05208Q73.26875 212.5677 73.45625 213.3177Q73.64375 214.0677 73.64375 215.34895Q73.64375 216.86458 73.33125 217.78645Q73.03438 218.70833 72.40938 219.22395Q71.8 219.72395 70.84688 219.72395Q69.6125 219.72395 68.89375 218.83333Q68.05 217.77083 68.05 215.34895ZM69.12813 215.34895Q69.12813 217.45833 69.62813 218.16145Q70.12813 218.86458 70.84688 218.86458Q71.58125 218.86458 72.06563 218.16145Q72.56563 217.45833 72.56563 215.34895Q72.56563 213.22395 72.06563 212.53645Q71.58125 211.83333 70.83125 211.83333Q70.1125 211.83333 69.675 212.4427Q69.12813 213.22395 69.12813 215.34895ZM75.05 215.34895Q75.05 213.8177 75.3625 212.89583Q75.675 211.95833 76.28438 211.45833Q76.90938 210.95833 77.84688 210.95833Q78.53438 210.95833 79.05 211.23958Q79.58125 211.52083 79.925 212.05208Q80.26875 212.5677 80.45625 213.3177Q80.64375 214.0677 80.64375 215.34895Q80.64375 216.86458 80.33125 217.78645Q80.03438 218.70833 79.40938 219.22395Q78.8 219.72395 77.84688 219.72395Q76.6125 219.72395 75.89375 218.83333Q75.05 217.77083 75.05 215.34895ZM76.12813 215.34895Q76.12813 217.45833 76.62813 218.16145Q77.12813 218.86458 77.84688 218.86458Q78.58125 218.86458 79.06563 218.16145Q79.56563 217.45833 79.56563 215.34895Q79.56563 213.22395 79.06563 212.53645Q78.58125 211.83333 77.83125 211.83333Q77.1125 211.83333 76.675 212.4427Q76.12813 213.22395 76.12813 215.34895ZM82.05 215.34895Q82.05 213.8177 82.3625 212.89583Q82.675 211.95833 83.28438 211.45833Q83.90938 210.95833 84.84688 210.95833Q85.53438 210.95833 86.05 211.23958Q86.58125 211.52083 86.925 212.05208Q87.26875 212.5677 87.45625 213.3177Q87.64375 214.0677 87.64375 215.34895Q87.64375 216.86458 87.33125 217.78645Q87.03438 218.70833 86.40938 219.22395Q85.8 219.72395 84.84688 219.72395Q83.6125 219.72395 82.89375 218.83333Q82.05 217.77083 82.05 215.34895ZM83.12813 215.34895Q83.12813 217.45833 83.62813 218.16145Q84.12813 218.86458 84.84688 218.86458Q85.58125 218.86458 86.06563 218.16145Q86.56563 217.45833 86.56563 215.34895Q86.56563 213.22395 86.06563 212.53645Q85.58125 211.83333 84.83125 211.83333Q84.1125 211.83333 83.675 212.4427Q83.12813 213.22395 83.12813 215.34895Z" fill-rule="nonzero"/><path fill="#000000" d="M58.1125 169.68124L58.1125 168.66562L63.675 168.66562L63.675 169.49374Q62.8625 170.36874 62.05 171.82187Q61.253124 173.25937 60.815624 174.79062Q60.4875 175.86874 60.409374 177.15L59.315624 177.15Q59.33125 176.13437 59.70625 174.69687Q60.096874 173.25937 60.8 171.93124Q61.51875 170.60312 62.33125 169.68124L58.1125 169.68124ZM65.6125 177.15L65.6125 175.94687L66.81563 175.94687L66.81563 177.15Q66.81563 177.80624 66.58125 178.2125Q66.34688 178.63437 65.84688 178.85312L65.55 178.4Q65.87813 178.25937 66.03438 177.9625Q66.19063 177.68124 66.22188 177.15L65.6125 177.15ZM68.05 174.9L69.15938 174.80624Q69.28438 175.61874 69.72188 176.025Q70.175 176.43124 70.81563 176.43124Q71.56563 176.43124 72.09688 175.85312Q72.62813 175.275 72.62813 174.3375Q72.62813 173.43124 72.1125 172.91562Q71.6125 172.38437 70.78438 172.38437Q70.28438 172.38437 69.8625 172.61874Q69.45625 172.85312 69.22188 173.2125L68.2375 173.0875L69.06563 168.68124L73.34688 168.68124L73.34688 169.68124L69.90938 169.68124L69.45625 171.99374Q70.22188 171.44687 71.06563 171.44687Q72.19063 171.44687 72.95625 172.22812Q73.7375 173.00937 73.7375 174.24374Q73.7375 175.4 73.06563 176.25937Q72.2375 177.29062 70.81563 177.29062Q69.64375 177.29062 68.89375 176.63437Q68.15938 175.97812 68.05 174.9ZM75.05 172.91562Q75.05 171.38437 75.3625 170.4625Q75.675 169.525 76.28438 169.025Q76.90938 168.525 77.84688 168.525Q78.53438 168.525 79.05 168.80624Q79.58125 169.0875 79.925 169.61874Q80.26875 170.13437 80.45625 170.88437Q80.64375 171.63437 80.64375 172.91562Q80.64375 174.43124 80.33125 175.35312Q80.03438 176.275 79.40938 176.79062Q78.8 177.29062 77.84688 177.29062Q76.6125 177.29062 75.89375 176.4Q75.05 175.3375 75.05 172.91562ZM76.12813 172.91562Q76.12813 175.025 76.62813 175.72812Q77.12813 176.43124 77.84688 176.43124Q78.58125 176.43124 79.06563 175.72812Q79.56563 175.025 79.56563 172.91562Q79.56563 170.79062 79.06563 170.10312Q78.58125 169.4 77.83125 169.4Q77.1125 169.4 76.675 170.00937Q76.12813 170.79062 76.12813 172.91562ZM82.05 172.91562Q82.05 171.38437 82.3625 170.4625Q82.675 169.525 83.28438 169.025Q83.90938 168.525 84.84688 168.525Q85.53438 168.525 86.05 168.80624Q86.58125 169.0875 86.925 169.61874Q87.26875 170.13437 87.45625 170.88437Q87.64375 171.63437 87.64375 172.91562Q87.64375 174.43124 87.33125 175.35312Q87.03438 176.275 86.40938 176.79062Q85.8 177.29062 84.84688 177.29062Q83.6125 177.29062 82.89375 176.4Q82.05 175.3375 82.05 172.91562ZM83.12813 172.91562Q83.12813 175.025 83.62813 175.72812Q84.12813 176.43124 84.84688 176.43124Q85.58125 176.43124 86.06563 175.72812Q86.56563 175.025 86.56563 172.91562Q86.56563 170.79062 86.06563 170.10312Q85.58125 169.4 84.83125 169.4Q84.1125 169.4 83.675 170.00937Q83.12813 170.79062 83.12813 172.91562Z" fill-rule="nonzero"/><path fill="#000000" d="M55.01875 134.71666L53.971874 134.71666L53.971874 127.99791Q53.58125 128.35728 52.95625 128.73228Q52.346874 129.09166 51.8625 129.26353L51.8625 128.24791Q52.7375 127.826035 53.39375 127.24791Q54.065624 126.65416 54.346874 126.09166L55.01875 126.09166L55.01875 134.71666ZM58.05 130.48228Q58.05 128.95103 58.3625 128.02916Q58.675 127.09166 59.284374 126.59166Q59.909374 126.09166 60.846874 126.09166Q61.534374 126.09166 62.05 126.37291Q62.58125 126.65416 62.925 127.18541Q63.26875 127.701035 63.45625 128.45103Q63.64375 129.20103 63.64375 130.48228Q63.64375 131.99791 63.33125 132.91978Q63.034374 133.84166 62.409374 134.35728Q61.8 134.85728 60.846874 134.85728Q59.6125 134.85728 58.89375 133.96666Q58.05 132.90416 58.05 130.48228ZM59.128124 130.48228Q59.128124 132.59166 59.628124 133.29478Q60.128124 133.99791 60.846874 133.99791Q61.58125 133.99791 62.065624 133.29478Q62.565624 132.59166 62.565624 130.48228Q62.565624 128.35728 62.065624 127.669785Q61.58125 126.96666 60.83125 126.96666Q60.1125 126.96666 59.675 127.576035Q59.128124 128.35728 59.128124 130.48228ZM65.6125 134.71666L65.6125 133.51353L66.81563 133.51353L66.81563 134.71666Q66.81563 135.37291 66.58125 135.77916Q66.34688 136.20103 65.84688 136.41978L65.55 135.96666Q65.87813 135.82603 66.03438 135.52916Q66.19063 135.24791 66.22188 134.71666L65.6125 134.71666ZM68.05 130.48228Q68.05 128.95103 68.3625 128.02916Q68.675 127.09166 69.28438 126.59166Q69.90938 126.09166 70.84688 126.09166Q71.53438 126.09166 72.05 126.37291Q72.58125 126.65416 72.925 127.18541Q73.26875 127.701035 73.45625 128.45103Q73.64375 129.20103 73.64375 130.48228Q73.64375 131.99791 73.33125 132.91978Q73.03438 133.84166 72.40938 134.35728Q71.8 134.85728 70.84688 134.85728Q69.6125 134.85728 68.89375 133.96666Q68.05 132.90416 68.05 130.48228ZM69.12813 130.48228Q69.12813 132.59166 69.62813 133.29478Q70.12813 133.99791 70.84688 133.99791Q71.58125 133.99791 72.06563 133.29478Q72.56563 132.59166 72.56563 130.48228Q72.56563 128.35728 72.06563 127.669785Q71.58125 126.96666 70.83125 126.96666Q70.1125 126.96666 69.675 127.576035Q69.12813 128.35728 69.12813 130.48228ZM75.05 130.48228Q75.05 128.95103 75.3625 128.02916Q75.675 127.09166 76.28438 126.59166Q76.90938 126.09166 77.84688 126.09166Q78.53438 126.09166 79.05 126.37291Q79.58125 126.65416 79.925 127.18541Q80.26875 127.701035 80.45625 128.45103Q80.64375 129.20103 80.64375 130.48228Q80.64375 131.99791 80.33125 132.91978Q80.03438 133.84166 79.40938 134.35728Q78.8 134.85728 77.84688 134.85728Q76.6125 134.85728 75.89375 133.96666Q75.05 132.90416 75.05 130.48228ZM76.12813 130.48228Q76.12813 132.59166 76.62813 133.29478Q77.12813 133.99791 77.84688 133.99791Q78.58125 133.99791 79.06563 133.29478Q79.56563 132.59166 79.56563 130.48228Q79.56563 128.35728 79.06563 127.669785Q78.58125 126.96666 77.83125 126.96666Q77.1125 126.96666 76.675 127.576035Q76.12813 128.35728 76.12813 130.48228ZM82.05 130.48228Q82.05 128.95103 82.3625 128.02916Q82.675 127.09166 83.28438 126.59166Q83.90938 126.09166 84.84688 126.09166Q85.53438 126.09166 86.05 126.37291Q86.58125 126.65416 86.925 127.18541Q87.26875 127.701035 87.45625 128.45103Q87.64375 129.20103 87.64375 130.48228Q87.64375 131.99791 87.33125 132.91978Q87.03438 133.84166 86.40938 134.35728Q85.8 134.85728 84.84688 134.85728Q83.6125 134.85728 82.89375 133.96666Q82.05 132.90416 82.05 130.48228ZM83.12813 130.48228Q83.12813 132.59166 83.62813 133.29478Q84.12813 133.99791 84.84688 133.99791Q85.58125 133.99791 86.06563 133.29478Q86.56563 132.59166 86.56563 130.48228Q86.56563 128.35728 86.06563 127.669785Q85.58125 126.96666 84.83125 126.96666Q84.1125 126.96666 83.675 127.576035Q83.12813 128.35728 83.12813 130.48228Z" fill-rule="nonzero"/><path fill="#000000" d="M55.01875 92.28333L53.971874 92.28333L53.971874 85.56458Q53.58125 85.92396 52.95625 86.29896Q52.346874 86.65833 51.8625 86.83021L51.8625 85.81458Q52.7375 85.39271 53.39375 84.81458Q54.065624 84.22083 54.346874 83.65833L55.01875 83.65833L55.01875 92.28333ZM63.596874 91.26771L63.596874 92.28333L57.909374 92.28333Q57.909374 91.90833 58.034374 91.54896Q58.253124 90.97083 58.721874 90.40833Q59.20625 89.84583 60.1125 89.11146Q61.51875 87.95521 62.003124 87.28333Q62.503124 86.61146 62.503124 86.01771Q62.503124 85.39271 62.05 84.97083Q61.596874 84.53333 60.878124 84.53333Q60.1125 84.53333 59.659374 84.98646Q59.20625 85.43958 59.190624 86.25208L58.1125 86.14271Q58.221874 84.92396 58.940624 84.29896Q59.675 83.65833 60.909374 83.65833Q62.14375 83.65833 62.8625 84.34583Q63.58125 85.03333 63.58125 86.04896Q63.58125 86.56458 63.3625 87.06458Q63.159374 87.54896 62.659374 88.11146Q62.175 88.65833 61.05 89.61146Q60.096874 90.40833 59.815624 90.70521Q59.55 90.98646 59.378124 91.26771L63.596874 91.26771ZM65.6125 92.28333L65.6125 91.08021L66.81563 91.08021L66.81563 92.28333Q66.81563 92.93958 66.58125 93.34583Q66.34688 93.76771 65.84688 93.98646L65.55 93.53333Q65.87813 93.39271 66.03438 93.09583Q66.19063 92.81458 66.22188 92.28333L65.6125 92.28333ZM68.05 90.03333L69.15938 89.93958Q69.28438 90.75208 69.72188 91.15833Q70.175 91.56458 70.81563 91.56458Q71.56563 91.56458 72.09688 90.98646Q72.62813 90.40833 72.62813 89.47083Q72.62813 88.56458 72.1125 88.04896Q71.6125 87.51771 70.78438 87.51771Q70.28438 87.51771 69.8625 87.75208Q69.45625 87.98646 69.22188 88.34583L68.2375 88.22083L69.06563 83.81458L73.34688 83.81458L73.34688 84.81458L69.90938 84.81458L69.45625 87.12708Q70.22188 86.58021 71.06563 86.58021Q72.19063 86.58021 72.95625 87.36146Q73.7375 88.14271 73.7375 89.37708Q73.7375 90.53333 73.06563 91.39271Q72.2375 92.42396 70.81563 92.42396Q69.64375 92.42396 68.89375 91.76771Q68.15938 91.11146 68.05 90.03333ZM75.05 88.04896Q75.05 86.51771 75.3625 85.59583Q75.675 84.65833 76.28438 84.15833Q76.90938 83.65833 77.84688 83.65833Q78.53438 83.65833 79.05 83.93958Q79.58125 84.22083 79.925 84.75208Q80.26875 85.26771 80.45625 86.01771Q80.64375 86.76771 80.64375 88.04896Q80.64375 89.56458 80.33125 90.48646Q80.03438 91.40833 79.40938 91.92396Q78.8 92.42396 77.84688 92.42396Q76.6125 92.42396 75.89375 91.53333Q75.05 90.47083 75.05 88.04896ZM76.12813 88.04896Q76.12813 90.15833 76.62813 90.86146Q77.12813 91.56458 77.84688 91.56458Q78.58125 91.56458 79.06563 90.86146Q79.56563 90.15833 79.56563 88.04896Q79.56563 85.92396 79.06563 85.23646Q78.58125 84.53333 77.83125 84.53333Q77.1125 84.53333 76.675 85.14271Q76.12813 85.92396 76.12813 88.04896ZM82.05 88.04896Q82.05 86.51771 82.3625 85.59583Q82.675 84.65833 83.28438 84.15833Q83.90938 83.65833 84.84688 83.65833Q85.53438 83.65833 86.05 83.93958Q86.58125 84.22083 86.925 84.75208Q87.26875 85.26771 87.45625 86.01771Q87.64375 86.76771 87.64375 88.04896Q87.64375 89.56458 87.33125 90.48646Q87.03438 91.40833 86.40938 91.92396Q85.8 92.42396 84.84688 92.42396Q83.6125 92.42396 82.89375 91.53333Q82.05 90.47083 82.05 88.04896ZM83.12813 88.04896Q83.12813 90.15833 83.62813 90.86146Q84.12813 91.56458 84.84688 91.56458Q85.58125 91.56458 86.06563 90.86146Q86.56563 90.15833 86.56563 88.04896Q86.56563 85.92396 86.06563 85.23646Q85.58125 84.53333 84.83125 84.53333Q84.1125 84.53333 83.675 85.14271Q83.12813 85.92396 83.12813 88.04896Z" fill-rule="nonzero"/><path fill="#000000" d="M95.51875 317.45L94.47188 317.45L94.47188 310.73126Q94.08125 311.09064 93.45625 311.46564Q92.84688 311.825 92.3625 311.9969L92.3625 310.98126Q93.2375 310.5594 93.89375 309.98126Q94.56563 309.3875 94.84688 308.825L95.51875 308.825L95.51875 317.45Z" fill-rule="nonzero"/><path fill="#000000" d="M202.12788 317.45L201.08101 317.45L201.08101 310.73126Q200.69038 311.09064 200.06538 311.46564Q199.45601 311.825 198.97163 311.9969L198.97163 310.98126Q199.84663 310.5594 200.50288 309.98126Q201.17476 309.3875 201.45601 308.825L202.12788 308.825L202.12788 317.45ZM205.15913 313.21564Q205.15913 311.6844 205.47163 310.7625Q205.78413 309.825 206.39351 309.325Q207.01851 308.825 207.95601 308.825Q208.64351 308.825 209.15913 309.10626Q209.69038 309.3875 210.03413 309.91876Q210.37788 310.4344 210.56538 311.1844Q210.75288 311.9344 210.75288 313.21564Q210.75288 314.73126 210.44038 315.65314Q210.14351 316.575 209.51851 317.09064Q208.90913 317.59064 207.95601 317.59064Q206.72163 317.59064 206.00288 316.7Q205.15913 315.6375 205.15913 313.21564ZM206.23726 313.21564Q206.23726 315.325 206.73726 316.02814Q207.23726 316.73126 207.95601 316.73126Q208.69038 316.73126 209.17476 316.02814Q209.67476 315.325 209.67476 313.21564Q209.67476 311.09064 209.17476 310.40314Q208.69038 309.7 207.94038 309.7Q207.22163 309.7 206.78413 310.3094Q206.23726 311.09064 206.23726 313.21564Z" fill-rule="nonzero"/><path fill="#000000" d="M308.73703 317.45L307.69016 317.45L307.69016 310.73126Q307.29953 311.09064 306.67453 311.46564Q306.06516 311.825 305.58078 311.9969L305.58078 310.98126Q306.45578 310.5594 307.11203 309.98126Q307.7839 309.3875 308.06516 308.825L308.73703 308.825L308.73703 317.45ZM311.76828 313.21564Q311.76828 311.6844 312.08078 310.7625Q312.39328 309.825 313.00266 309.325Q313.62766 308.825 314.56516 308.825Q315.25266 308.825 315.76828 309.10626Q316.29953 309.3875 316.64328 309.91876Q316.98703 310.4344 317.17453 311.1844Q317.36203 311.9344 317.36203 313.21564Q317.36203 314.73126 317.04953 315.65314Q316.75266 316.575 316.12766 317.09064Q315.51828 317.59064 314.56516 317.59064Q313.33078 317.59064 312.61203 316.7Q311.76828 315.6375 311.76828 313.21564ZM312.8464 313.21564Q312.8464 315.325 313.3464 316.02814Q313.8464 316.73126 314.56516 316.73126Q315.29953 316.73126 315.7839 316.02814Q316.2839 315.325 316.2839 313.21564Q316.2839 311.09064 315.7839 310.40314Q315.29953 309.7 314.54953 309.7Q313.83078 309.7 313.39328 310.3094Q312.8464 311.09064 312.8464 313.21564ZM318.76828 313.21564Q318.76828 311.6844 319.08078 310.7625Q319.39328 309.825 320.00266 309.325Q320.62766 308.825 321.56516 308.825Q322.25266 308.825 322.76828 309.10626Q323.29953 309.3875 323.64328 309.91876Q323.98703 310.4344 324.17453 311.1844Q324.36203 311.9344 324.36203 313.21564Q324.36203 314.73126 324.04953 315.65314Q323.75266 316.575 323.12766 317.09064Q322.51828 317.59064 321.56516 317.59064Q320.33078 317.59064 319.61203 316.7Q318.76828 315.6375 318.76828 313.21564ZM319.8464 313.21564Q319.8464 315.325 320.3464 316.02814Q320.8464 316.73126 321.56516 316.73126Q322.29953 316.73126 322.7839 316.02814Q323.2839 315.325 323.2839 313.21564Q323.2839 311.09064 322.7839 310.40314Q322.29953 309.7 321.54953 309.7Q320.83078 309.7 320.39328 310.3094Q319.8464 311.09064 319.8464 313.21564Z" fill-rule="nonzero"/><path fill="#000000" d="M415.34616 317.45L414.2993 317.45L414.2993 310.73126Q413.90866 311.09064 413.28366 311.46564Q412.6743 311.825 412.1899 311.9969L412.1899 310.98126Q413.0649 310.5594 413.72116 309.98126Q414.39304 309.3875 414.6743 308.825L415.34616 308.825L415.34616 317.45ZM418.3774 313.21564Q418.3774 311.6844 418.6899 310.7625Q419.0024 309.825 419.6118 309.325Q420.2368 308.825 421.1743 308.825Q421.8618 308.825 422.3774 309.10626Q422.90866 309.3875 423.2524 309.91876Q423.59616 310.4344 423.78366 311.1844Q423.97116 311.9344 423.97116 313.21564Q423.97116 314.73126 423.65866 315.65314Q423.3618 316.575 422.7368 317.09064Q422.1274 317.59064 421.1743 317.59064Q419.9399 317.59064 419.22116 316.7Q418.3774 315.6375 418.3774 313.21564ZM419.45554 313.21564Q419.45554 315.325 419.95554 316.02814Q420.45554 316.73126 421.1743 316.73126Q421.90866 316.73126 422.39304 316.02814Q422.89304 315.325 422.89304 313.21564Q422.89304 311.09064 422.39304 310.40314Q421.90866 309.7 421.15866 309.7Q420.4399 309.7 420.0024 310.3094Q419.45554 311.09064 419.45554 313.21564ZM425.3774 313.21564Q425.3774 311.6844 425.6899 310.7625Q426.0024 309.825 426.6118 309.325Q427.2368 308.825 428.1743 308.825Q428.8618 308.825 429.3774 309.10626Q429.90866 309.3875 430.2524 309.91876Q430.59616 310.4344 430.78366 311.1844Q430.97116 311.9344 430.97116 313.21564Q430.97116 314.73126 430.65866 315.65314Q430.3618 316.575 429.7368 317.09064Q429.1274 317.59064 428.1743 317.59064Q426.9399 317.59064 426.22116 316.7Q425.3774 315.6375 425.3774 313.21564ZM426.45554 313.21564Q426.45554 315.325 426.95554 316.02814Q427.45554 316.73126 428.1743 316.73126Q428.90866 316.73126 429.39304 316.02814Q429.89304 315.325 429.89304 313.21564Q429.89304 311.09064 429.39304 310.40314Q428.90866 309.7 428.15866 309.7Q427.4399 309.7 427.0024 310.3094Q426.45554 311.09064 426.45554 313.21564ZM432.3774 313.21564Q432.3774 311.6844 432.6899 310.7625Q433.0024 309.825 433.6118 309.325Q434.2368 308.825 435.1743 308.825Q435.8618 308.825 436.3774 309.10626Q436.90866 309.3875 437.2524 309.91876Q437.59616 310.4344 437.78366 311.1844Q437.97116 311.9344 437.97116 313.21564Q437.97116 314.73126 437.65866 315.65314Q437.3618 316.575 436.7368 317.09064Q436.1274 317.59064 435.1743 317.59064Q433.9399 317.59064 433.22116 316.7Q432.3774 315.6375 432.3774 313.21564ZM433.45554 313.21564Q433.45554 315.325 433.95554 316.02814Q434.45554 316.73126 435.1743 316.73126Q435.90866 316.73126 436.39304 316.02814Q436.89304 315.325 436.89304 313.21564Q436.89304 311.09064 436.39304 310.40314Q435.90866 309.7 435.15866 309.7Q434.4399 309.7 434.0024 310.3094Q433.45554 311.09064 433.45554 313.21564Z" fill-rule="nonzero"/><path stroke="#4285f4" stroke-width="4.0" stroke-linecap="butt" d="M197.0 61.916668L209.0 61.916668" fill-rule="nonzero"/><path fill="#1a1a1a" d="M217.875 65.916664L217.875 57.322914L221.10938 57.322914Q222.09375 57.322914 222.6875 57.58854Q223.28125 57.854164 223.60938 58.40104Q223.95312 58.93229 223.95312 59.52604Q223.95312 60.072914 223.65625 60.55729Q223.35938 61.041664 222.75 61.33854Q223.53125 61.572914 223.9375 62.135414Q224.35938 62.68229 224.35938 63.43229Q224.35938 64.02604 224.10938 64.55729Q223.85938 65.072914 223.48438 65.354164Q223.10938 65.635414 222.53125 65.77604Q221.96875 65.916664 221.15625 65.916664L217.875 65.916664ZM219.01562 60.93229L220.875 60.93229Q221.625 60.93229 221.95312 60.83854Q222.39062 60.71354 222.60938 60.416664Q222.82812 60.104164 222.82812 59.65104Q222.82812 59.229164 222.625 58.90104Q222.42188 58.572914 222.03125 58.46354Q221.65625 58.33854 220.73438 58.33854L219.01562 58.33854L219.01562 60.93229ZM219.01562 64.90104L221.15625 64.90104Q221.70312 64.90104 221.92188 64.854164Q222.32812 64.791664 222.57812 64.635414Q222.84375 64.46354 223.01562 64.15104Q223.1875 63.83854 223.1875 63.43229Q223.1875 62.947914 222.9375 62.58854Q222.70312 62.229164 222.26562 62.08854Q221.82812 61.947914 221.0 61.947914L219.01562 61.947914L219.01562 64.90104ZM229.85938 65.15104Q229.26562 65.65104 228.71875 65.854164Q228.1875 66.05729 227.5625 66.05729Q226.53125 66.05729 225.98438 65.55729Q225.4375 65.05729 225.4375 64.27604Q225.4375 63.822914 225.64062 63.447914Q225.84375 63.05729 226.1875 62.83854Q226.53125 62.604164 226.95312 62.49479Q227.25 62.40104 227.89062 62.322914Q229.15625 62.18229 229.76562 61.96354Q229.76562 61.74479 229.76562 61.697914Q229.76562 61.041664 229.46875 60.77604Q229.0625 60.43229 228.26562 60.43229Q227.53125 60.43229 227.17188 60.697914Q226.8125 60.947914 226.64062 61.604164L225.60938 61.46354Q225.75 60.80729 226.07812 60.40104Q226.40625 59.99479 227.01562 59.77604Q227.625 59.55729 228.42188 59.55729Q229.21875 59.55729 229.71875 59.74479Q230.21875 59.93229 230.45312 60.21354Q230.6875 60.49479 230.78125 60.93229Q230.82812 61.197914 230.82812 61.90104L230.82812 63.30729Q230.82812 64.77604 230.89062 65.166664Q230.96875 65.55729 231.17188 65.916664L230.0625 65.916664Q229.90625 65.58854 229.85938 65.15104ZM229.76562 62.791664Q229.1875 63.02604 228.04688 63.197914Q227.39062 63.291664 227.125 63.416664Q226.85938 63.52604 226.70312 63.74479Q226.5625 63.96354 226.5625 64.24479Q226.5625 64.666664 226.875 64.947914Q227.20312 65.229164 227.8125 65.229164Q228.42188 65.229164 228.89062 64.96354Q229.375 64.697914 229.59375 64.229164Q229.76562 63.86979 229.76562 63.18229L229.76562 62.791664ZM232.375 64.05729L233.40625 63.90104Q233.5 64.52604 233.89062 64.854164Q234.29688 65.18229 235.03125 65.18229Q235.75 65.18229 236.09375 64.90104Q236.45312 64.604164 236.45312 64.197914Q236.45312 63.83854 236.14062 63.635414Q235.92188 63.49479 235.0625 63.27604Q233.90625 62.979164 233.45312 62.77604Q233.01562 62.55729 232.78125 62.18229Q232.54688 61.80729 232.54688 61.33854Q232.54688 60.93229 232.73438 60.572914Q232.92188 60.21354 233.25 59.979164Q233.5 59.80729 233.92188 59.68229Q234.34375 59.55729 234.84375 59.55729Q235.5625 59.55729 236.10938 59.77604Q236.67188 59.979164 236.9375 60.33854Q237.20312 60.697914 237.29688 61.291664L236.26562 61.43229Q236.20312 60.96354 235.85938 60.697914Q235.53125 60.416664 234.90625 60.416664Q234.1875 60.416664 233.875 60.666664Q233.5625 60.90104 233.5625 61.229164Q233.5625 61.43229 233.6875 61.58854Q233.82812 61.760414 234.09375 61.86979Q234.25 61.93229 235.03125 62.135414Q236.15625 62.447914 236.59375 62.635414Q237.03125 62.822914 237.28125 63.18229Q237.53125 63.541664 237.53125 64.08854Q237.53125 64.61979 237.21875 65.08854Q236.92188 65.541664 236.34375 65.80729Q235.76562 66.05729 235.03125 66.05729Q233.8125 66.05729 233.17188 65.55729Q232.54688 65.041664 232.375 64.05729ZM244.04688 63.916664L245.14062 64.041664Q244.89062 64.99479 244.1875 65.52604Q243.48438 66.05729 242.40625 66.05729Q241.04688 66.05729 240.23438 65.21354Q239.4375 64.36979 239.4375 62.854164Q239.4375 61.291664 240.25 60.43229Q241.0625 59.55729 242.34375 59.55729Q243.59375 59.55729 244.375 60.40104Q245.17188 61.24479 245.17188 62.791664Q245.17188 62.885414 245.17188 63.072914L240.53125 63.072914Q240.59375 64.104164 241.10938 64.65104Q241.625 65.18229 242.40625 65.18229Q242.98438 65.18229 243.39062 64.885414Q243.8125 64.572914 244.04688 63.916664ZM240.59375 62.21354L244.0625 62.21354Q244.0 61.416664 243.67188 61.02604Q243.15625 60.416664 242.35938 60.416664Q241.625 60.416664 241.125 60.90104Q240.64062 61.385414 240.59375 62.21354ZM246.76562 65.916664L246.76562 57.322914L247.82812 57.322914L247.82812 65.916664L246.76562 65.916664ZM249.79688 58.541664L249.79688 57.322914L250.85938 57.322914L250.85938 58.541664L249.79688 58.541664ZM249.79688 65.916664L249.79688 59.697914L250.85938 59.697914L250.85938 65.916664L249.79688 65.916664ZM252.79688 65.916664L252.79688 59.697914L253.73438 59.697914L253.73438 60.572914Q254.42188 59.55729 255.71875 59.55729Q256.28125 59.55729 256.75 59.760414Q257.23438 59.96354 257.46875 60.291664Q257.70312 60.61979 257.79688 61.05729Q257.84375 61.354164 257.84375 62.08854L257.84375 65.916664L256.79688 65.916664L256.79688 62.135414Q256.79688 61.479164 256.67188 61.166664Q256.54688 60.854164 256.23438 60.666664Q255.92188 60.46354 255.5 60.46354Q254.82812 60.46354 254.32812 60.90104Q253.84375 61.322914 253.84375 62.510414L253.84375 65.916664L252.79688 65.916664ZM264.04688 63.916664L265.14062 64.041664Q264.89062 64.99479 264.1875 65.52604Q263.48438 66.05729 262.40625 66.05729Q261.04688 66.05729 260.23438 65.21354Q259.4375 64.36979 259.4375 62.854164Q259.4375 61.291664 260.25 60.43229Q261.0625 59.55729 262.34375 59.55729Q263.59375 59.55729 264.375 60.40104Q265.17188 61.24479 265.17188 62.791664Q265.17188 62.885414 265.17188 63.072914L260.53125 63.072914Q260.59375 64.104164 261.10938 64.65104Q261.625 65.18229 262.40625 65.18229Q262.98438 65.18229 263.39062 64.885414Q263.8125 64.572914 264.04688 63.916664ZM260.59375 62.21354L264.0625 62.21354Q264.0 61.416664 263.67188 61.02604Q263.15625 60.416664 262.35938 60.416664Q261.625 60.416664 261.125 60.90104Q260.64062 61.385414 260.59375 62.21354Z" fill-rule="nonzero"/><path stroke="#ea4335" stroke-width="4.0" stroke-linecap="butt" d="M282.0 61.916668L294.0 61.916668" fill-rule="nonzero"/><path fill="#1a1a1a" d="M302.92188 65.916664L302.92188 57.322914L306.17188 57.322914Q307.01562 57.322914 307.46875 57.40104Q308.10938 57.510414 308.53125 57.80729Q308.96875 58.104164 309.21875 58.635414Q309.48438 59.166664 309.48438 59.80729Q309.48438 60.90104 308.78125 61.666664Q308.09375 62.416664 306.26562 62.416664L304.0625 62.416664L304.0625 65.916664L302.92188 65.916664ZM304.0625 61.416664L306.28125 61.416664Q307.39062 61.416664 307.84375 61.010414Q308.3125 60.58854 308.3125 59.83854Q308.3125 59.30729 308.03125 58.93229Q307.76562 58.541664 307.32812 58.416664Q307.03125 58.33854 306.26562 58.33854L304.0625 58.33854L304.0625 61.416664ZM314.85938 65.15104Q314.26562 65.65104 313.71875 65.854164Q313.1875 66.05729 312.5625 66.05729Q311.53125 66.05729 310.98438 65.55729Q310.4375 65.05729 310.4375 64.27604Q310.4375 63.822914 310.64062 63.447914Q310.84375 63.05729 311.1875 62.83854Q311.53125 62.604164 311.95312 62.49479Q312.25 62.40104 312.89062 62.322914Q314.15625 62.18229 314.76562 61.96354Q314.76562 61.74479 314.76562 61.697914Q314.76562 61.041664 314.46875 60.77604Q314.0625 60.43229 313.26562 60.43229Q312.53125 60.43229 312.17188 60.697914Q311.8125 60.947914 311.64062 61.604164L310.60938 61.46354Q310.75 60.80729 311.07812 60.40104Q311.40625 59.99479 312.01562 59.77604Q312.625 59.55729 313.42188 59.55729Q314.21875 59.55729 314.71875 59.74479Q315.21875 59.93229 315.45312 60.21354Q315.6875 60.49479 315.78125 60.93229Q315.82812 61.197914 315.82812 61.90104L315.82812 63.30729Q315.82812 64.77604 315.89062 65.166664Q315.96875 65.55729 316.17188 65.916664L315.0625 65.916664Q314.90625 65.58854 314.85938 65.15104ZM314.76562 62.791664Q314.1875 63.02604 313.04688 63.197914Q312.39062 63.291664 312.125 63.416664Q311.85938 63.52604 311.70312 63.74479Q311.5625 63.96354 311.5625 64.24479Q311.5625 64.666664 311.875 64.947914Q312.20312 65.229164 312.8125 65.229164Q313.42188 65.229164 313.89062 64.96354Q314.375 64.697914 314.59375 64.229164Q314.76562 63.86979 314.76562 63.18229L314.76562 62.791664ZM320.09375 64.979164L320.25 65.90104Q319.79688 65.99479 319.45312 65.99479Q318.875 65.99479 318.5625 65.822914Q318.25 65.635414 318.10938 65.33854Q317.98438 65.041664 317.98438 64.08854L317.98438 60.510414L317.21875 60.510414L317.21875 59.697914L317.98438 59.697914L317.98438 58.15104L319.03125 57.52604L319.03125 59.697914L320.09375 59.697914L320.09375 60.510414L319.03125 60.510414L319.03125 64.15104Q319.03125 64.604164 319.07812 64.729164Q319.14062 64.854164 319.26562 64.93229Q319.39062 65.010414 319.625 65.010414Q319.8125 65.010414 320.09375 64.979164ZM324.85938 63.635414L325.89062 63.77604Q325.71875 64.83854 325.01562 65.447914Q324.3125 66.05729 323.29688 66.05729Q322.01562 66.05729 321.23438 65.229164Q320.46875 64.385414 320.46875 62.822914Q320.46875 61.822914 320.79688 61.072914Q321.14062 60.30729 321.8125 59.93229Q322.5 59.55729 323.3125 59.55729Q324.3125 59.55729 324.95312 60.072914Q325.60938 60.572914 325.79688 61.52604L324.76562 61.68229Q324.625 61.05729 324.25 60.74479Q323.875 60.416664 323.34375 60.416664Q322.54688 60.416664 322.04688 60.99479Q321.54688 61.55729 321.54688 62.791664Q321.54688 64.05729 322.03125 64.61979Q322.51562 65.18229 323.28125 65.18229Q323.90625 65.18229 324.3125 64.80729Q324.73438 64.43229 324.85938 63.635414ZM326.79688 65.916664L326.79688 57.322914L327.84375 57.322914L327.84375 60.40104Q328.57812 59.55729 329.70312 59.55729Q330.40625 59.55729 330.90625 59.83854Q331.42188 60.104164 331.64062 60.58854Q331.85938 61.05729 331.85938 61.979164L331.85938 65.916664L330.8125 65.916664L330.8125 61.979164Q330.8125 61.18229 330.46875 60.822914Q330.125 60.46354 329.5 60.46354Q329.03125 60.46354 328.60938 60.71354Q328.20312 60.947914 328.01562 61.36979Q327.84375 61.77604 327.84375 62.510414L327.84375 65.916664L326.79688 65.916664ZM338.04688 63.916664L339.14062 64.041664Q338.89062 64.99479 338.1875 65.52604Q337.48438 66.05729 336.40625 66.05729Q335.04688 66.05729 334.23438 65.21354Q333.4375 64.36979 333.4375 62.854164Q333.4375 61.291664 334.25 60.43229Q335.0625 59.55729 336.34375 59.55729Q337.59375 59.55729 338.375 60.40104Q339.17188 61.24479 339.17188 62.791664Q339.17188 62.885414 339.17188 63.072914L334.53125 63.072914Q334.59375 64.104164 335.10938 64.65104Q335.625 65.18229 336.40625 65.18229Q336.98438 65.18229 337.39062 64.885414Q337.8125 64.572914 338.04688 63.916664ZM334.59375 62.21354L338.0625 62.21354Q338.0 61.416664 337.67188 61.02604Q337.15625 60.416664 336.35938 60.416664Q335.625 60.416664 335.125 60.90104Q334.64062 61.385414 334.59375 62.21354ZM344.82812 65.916664L344.82812 65.135414Q344.23438 66.05729 343.09375 66.05729Q342.34375 66.05729 341.71875 65.65104Q341.09375 65.229164 340.75 64.49479Q340.40625 63.760414 340.40625 62.80729Q340.40625 61.885414 340.71875 61.11979Q341.03125 60.354164 341.65625 59.96354Q342.28125 59.55729 343.04688 59.55729Q343.60938 59.55729 344.04688 59.791664Q344.48438 60.02604 344.76562 60.40104L344.76562 57.322914L345.8125 57.322914L345.8125 65.916664L344.82812 65.916664ZM341.5 62.80729Q341.5 64.010414 342.0 64.604164Q342.5 65.18229 343.1875 65.18229Q343.875 65.18229 344.35938 64.61979Q344.84375 64.05729 344.84375 62.90104Q344.84375 61.61979 344.34375 61.02604Q343.85938 60.43229 343.14062 60.43229Q342.4375 60.43229 341.96875 61.010414Q341.5 61.572914 341.5 62.80729Z" fill-rule="nonzero"/><path fill="#757575" d="M79.203125 37.55L75.25 27.175L77.109375 27.175L79.34375 33.39375Q79.703125 34.39375 80.0 35.471874Q80.234375 34.659374 80.65625 33.503124L82.953125 27.175L84.765625 27.175L80.84375 37.55L79.203125 37.55ZM85.28125 37.55L85.28125 23.2375L87.03125 23.2375L87.03125 37.55L85.28125 37.55ZM96.421875 34.20625L98.234375 34.440624Q97.8125 36.01875 96.640625 36.909374Q95.484375 37.784374 93.671875 37.784374Q91.40625 37.784374 90.0625 36.39375Q88.734375 34.9875 88.734375 32.45625Q88.734375 29.83125 90.078125 28.39375Q91.421875 26.940624 93.578125 26.940624Q95.65625 26.940624 96.96875 28.3625Q98.296875 29.76875 98.296875 32.346874Q98.296875 32.503124 98.28125 32.815624L90.546875 32.815624Q90.640625 34.51875 91.515625 35.425Q92.390625 36.33125 93.6875 36.33125Q94.65625 36.33125 95.328125 35.83125Q96.015625 35.315624 96.421875 34.20625ZM90.640625 31.3625L96.4375 31.3625Q96.328125 30.065624 95.78125 29.409374Q94.9375 28.39375 93.59375 28.39375Q92.390625 28.39375 91.5625 29.20625Q90.734375 30.003124 90.640625 31.3625ZM102.53125 29.784374Q101.4375 29.378124 100.90625 28.64375Q100.390625 27.89375 100.390625 26.8625Q100.390625 25.3 101.515625 24.2375Q102.640625 23.175 104.5 23.175Q106.375 23.175 107.515625 24.26875Q108.65625 25.346874 108.65625 26.909374Q108.65625 27.909374 108.125 28.64375Q107.609375 29.378124 106.546875 29.784374Q107.875 30.221874 108.5625 31.175Q109.25 32.128124 109.25 33.45625Q109.25 35.3 107.9375 36.55Q106.640625 37.8 104.53125 37.8Q102.40625 37.8 101.109375 36.55Q99.8125 35.284374 99.8125 33.409374Q99.8125 32.01875 100.515625 31.08125Q101.234375 30.128124 102.53125 29.784374ZM102.1875 26.8Q102.1875 27.815624 102.84375 28.471874Q103.5 29.1125 104.53125 29.1125Q105.546875 29.1125 106.203125 28.471874Q106.859375 27.83125 106.859375 26.909374Q106.859375 25.940624 106.1875 25.284374Q105.515625 24.6125 104.515625 24.6125Q103.515625 24.6125 102.84375 25.26875Q102.1875 25.909374 102.1875 26.8ZM101.625 33.425Q101.625 34.175 101.96875 34.878124Q102.328125 35.58125 103.03125 35.971874Q103.734375 36.346874 104.546875 36.346874Q105.8125 36.346874 106.625 35.534374Q107.453125 34.721874 107.453125 33.471874Q107.453125 32.20625 106.609375 31.378124Q105.765625 30.55 104.484375 30.55Q103.25 30.55 102.4375 31.378124Q101.625 32.190624 101.625 33.425ZM111.8125 37.55L111.8125 35.55L113.8125 35.55L113.8125 37.55L111.8125 37.55ZM120.203125 37.55L116.25 27.175L118.109375 27.175L120.34375 33.39375Q120.703125 34.39375 121.0 35.471874Q121.234375 34.659374 121.65625 33.503124L123.953125 27.175L125.765625 27.175L121.84375 37.55L120.203125 37.55ZM132.32812 25.253124L132.32812 23.2375L134.09375 23.2375L134.09375 25.253124L132.32812 25.253124ZM132.32812 37.55L132.32812 27.175L134.09375 27.175L134.09375 37.55L132.32812 37.55ZM136.3125 37.55L136.3125 27.175L137.90625 27.175L137.90625 28.659374Q139.04688 26.940624 141.20312 26.940624Q142.14062 26.940624 142.92188 27.284374Q143.71875 27.6125 144.10938 28.159374Q144.5 28.70625 144.65625 29.45625Q144.75 29.95625 144.75 31.175L144.75 37.55L142.98438 37.55L142.98438 31.2375Q142.98438 30.159374 142.78125 29.628124Q142.57812 29.096874 142.04688 28.784374Q141.53125 28.471874 140.82812 28.471874Q139.70312 28.471874 138.89062 29.190624Q138.07812 29.89375 138.07812 31.878124L138.07812 37.55L136.3125 37.55ZM145.60938 34.45625L147.35938 34.175Q147.5 35.221874 148.17188 35.784374Q148.84375 36.33125 150.04688 36.33125Q151.25 36.33125 151.82812 35.846874Q152.42188 35.346874 152.42188 34.690624Q152.42188 34.096874 151.90625 33.753124Q151.54688 33.51875 150.10938 33.159374Q148.17188 32.659374 147.42188 32.315624Q146.6875 31.95625 146.29688 31.33125Q145.90625 30.690624 145.90625 29.925Q145.90625 29.2375 146.21875 28.64375Q146.54688 28.05 147.09375 27.659374Q147.5 27.3625 148.20312 27.159374Q148.92188 26.940624 149.73438 26.940624Q150.95312 26.940624 151.875 27.3Q152.79688 27.64375 153.23438 28.253124Q153.67188 28.846874 153.84375 29.846874L152.125 30.08125Q152.0 29.284374 151.4375 28.846874Q150.875 28.39375 149.85938 28.39375Q148.64062 28.39375 148.125 28.8Q147.60938 29.190624 147.60938 29.721874Q147.60938 30.065624 147.82812 30.346874Q148.03125 30.628124 148.5 30.815624Q148.76562 30.909374 150.04688 31.253124Q151.92188 31.753124 152.65625 32.08125Q153.39062 32.39375 153.8125 33.003124Q154.23438 33.596874 154.23438 34.503124Q154.23438 35.378124 153.71875 36.159374Q153.20312 36.940624 152.23438 37.3625Q151.26562 37.784374 150.04688 37.784374Q148.03125 37.784374 146.96875 36.940624Q145.90625 36.096874 145.60938 34.45625ZM160.15625 35.971874L160.40625 37.534374Q159.67188 37.690624 159.07812 37.690624Q158.125 37.690624 157.59375 37.39375Q157.07812 37.08125 156.85938 36.596874Q156.64062 36.096874 156.64062 34.51875L156.64062 28.55L155.35938 28.55L155.35938 27.175L156.64062 27.175L156.64062 24.6125L158.39062 23.55L158.39062 27.175L160.15625 27.175L160.15625 28.55L158.39062 28.55L158.39062 34.6125Q158.39062 35.3625 158.48438 35.58125Q158.57812 35.784374 158.78125 35.925Q159.0 36.05 159.39062 36.05Q159.67188 36.05 160.15625 35.971874ZM162.29688 37.55L162.29688 27.175L163.875 27.175L163.875 28.753124Q164.48438 27.64375 165.0 27.3Q165.51562 26.940624 166.125 26.940624Q167.01562 26.940624 167.9375 27.503124L167.32812 29.14375Q166.6875 28.753124 166.04688 28.753124Q165.46875 28.753124 165.0 29.1125Q164.54688 29.45625 164.34375 30.065624Q164.0625 31.003124 164.0625 32.1125L164.0625 37.55L162.29688 37.55ZM176.10938 37.55L176.10938 36.01875Q174.90625 37.784374 172.82812 37.784374Q171.90625 37.784374 171.10938 37.440624Q170.3125 37.08125 169.92188 36.55Q169.54688 36.01875 169.39062 35.2375Q169.28125 34.721874 169.28125 33.596874L169.28125 27.175L171.03125 27.175L171.03125 32.925Q171.03125 34.3 171.14062 34.784374Q171.3125 35.471874 171.84375 35.878124Q172.39062 36.26875 173.17188 36.26875Q173.96875 36.26875 174.65625 35.8625Q175.35938 35.45625 175.64062 34.76875Q175.9375 34.065624 175.9375 32.7375L175.9375 27.175L177.6875 27.175L177.6875 37.55L176.10938 37.55ZM186.09375 33.753124L187.8125 33.971874Q187.53125 35.76875 186.35938 36.784374Q185.20312 37.784374 183.5 37.784374Q181.375 37.784374 180.07812 36.39375Q178.78125 35.003124 178.78125 32.409374Q178.78125 30.721874 179.32812 29.471874Q179.89062 28.20625 181.03125 27.58125Q182.17188 26.940624 183.51562 26.940624Q185.20312 26.940624 186.26562 27.8Q187.34375 28.659374 187.65625 30.221874L185.9375 30.4875Q185.70312 29.440624 185.07812 28.925Q184.45312 28.39375 183.57812 28.39375Q182.25 28.39375 181.42188 29.346874Q180.59375 30.3 180.59375 32.346874Q180.59375 34.440624 181.39062 35.39375Q182.1875 36.33125 183.48438 36.33125Q184.51562 36.33125 185.20312 35.70625Q185.90625 35.065624 186.09375 33.753124ZM193.15625 35.971874L193.40625 37.534374Q192.67188 37.690624 192.07812 37.690624Q191.125 37.690624 190.59375 37.39375Q190.07812 37.08125 189.85938 36.596874Q189.64062 36.096874 189.64062 34.51875L189.64062 28.55L188.35938 28.55L188.35938 27.175L189.64062 27.175L189.64062 24.6125L191.39062 23.55L191.39062 27.175L193.15625 27.175L193.15625 28.55L191.39062 28.55L191.39062 34.6125Q191.39062 35.3625 191.48438 35.58125Q191.57812 35.784374 191.78125 35.925Q192.0 36.05 192.39062 36.05Q192.67188 36.05 193.15625 35.971874ZM195.32812 25.253124L195.32812 23.2375L197.09375 23.2375L197.09375 25.253124L195.32812 25.253124ZM195.32812 37.55L195.32812 27.175L197.09375 27.175L197.09375 37.55L195.32812 37.55ZM198.67188 32.3625Q198.67188 29.4875 200.26562 28.096874Q201.60938 26.940624 203.53125 26.940624Q205.67188 26.940624 207.01562 28.346874Q208.375 29.753124 208.375 32.221874Q208.375 34.221874 207.78125 35.378124Q207.1875 36.51875 206.03125 37.159374Q204.89062 37.784374 203.53125 37.784374Q201.34375 37.784374 200.0 36.39375Q198.67188 34.9875 198.67188 32.3625ZM200.46875 32.3625Q200.46875 34.3625 201.32812 35.346874Q202.20312 36.33125 203.53125 36.33125Q204.84375 36.33125 205.70312 35.346874Q206.57812 34.346874 206.57812 32.3Q206.57812 30.378124 205.70312 29.39375Q204.82812 28.39375 203.53125 28.39375Q202.20312 28.39375 201.32812 29.39375Q200.46875 30.378124 200.46875 32.3625ZM210.3125 37.55L210.3125 27.175L211.90625 27.175L211.90625 28.659374Q213.04688 26.940624 215.20312 26.940624Q216.14062 26.940624 216.92188 27.284374Q217.71875 27.6125 218.10938 28.159374Q218.5 28.70625 218.65625 29.45625Q218.75 29.95625 218.75 31.175L218.75 37.55L216.98438 37.55L216.98438 31.2375Q216.98438 30.159374 216.78125 29.628124Q216.57812 29.096874 216.04688 28.784374Q215.53125 28.471874 214.82812 28.471874Q213.70312 28.471874 212.89062 29.190624Q212.07812 29.89375 212.07812 31.878124L212.07812 37.55L210.3125 37.55ZM230.15625 35.971874L230.40625 37.534374Q229.67188 37.690624 229.07812 37.690624Q228.125 37.690624 227.59375 37.39375Q227.07812 37.08125 226.85938 36.596874Q226.64062 36.096874 226.64062 34.51875L226.64062 28.55L225.35938 28.55L225.35938 27.175L226.64062 27.175L226.64062 24.6125L228.39062 23.55L228.39062 27.175L230.15625 27.175L230.15625 28.55L228.39062 28.55L228.39062 34.6125Q228.39062 35.3625 228.48438 35.58125Q228.57812 35.784374 228.78125 35.925Q229.0 36.05 229.39062 36.05Q229.67188 36.05 230.15625 35.971874ZM232.32812 25.253124L232.32812 23.2375L234.09375 23.2375L234.09375 25.253124L232.32812 25.253124ZM232.32812 37.55L232.32812 27.175L234.09375 27.175L234.09375 37.55L232.32812 37.55ZM236.3125 37.55L236.3125 27.175L237.89062 27.175L237.89062 28.628124Q238.375 27.878124 239.1875 27.409374Q240.0 26.940624 241.03125 26.940624Q242.1875 26.940624 242.92188 27.425Q243.65625 27.89375 243.96875 28.753124Q245.20312 26.940624 247.17188 26.940624Q248.71875 26.940624 249.54688 27.8Q250.375 28.659374 250.375 30.425L250.375 37.55L248.625 37.55L248.625 31.01875Q248.625 29.95625 248.45312 29.503124Q248.28125 29.034374 247.82812 28.753124Q247.39062 28.471874 246.78125 28.471874Q245.6875 28.471874 244.95312 29.20625Q244.23438 29.925 244.23438 31.51875L244.23438 37.55L242.48438 37.55L242.48438 30.815624Q242.48438 29.64375 242.04688 29.065624Q241.625 28.471874 240.64062 28.471874Q239.90625 28.471874 239.26562 28.8625Q238.64062 29.253124 238.35938 30.003124Q238.07812 30.753124 238.07812 32.175L238.07812 37.55L236.3125 37.55ZM252.32812 25.253124L252.32812 23.2375L254.09375 23.2375L254.09375 25.253124L252.32812 25.253124ZM252.32812 37.55L252.32812 27.175L254.09375 27.175L254.09375 37.55L252.32812 37.55ZM256.3125 37.55L256.3125 27.175L257.90625 27.175L257.90625 28.659374Q259.04688 26.940624 261.20312 26.940624Q262.14062 26.940624 262.92188 27.284374Q263.71875 27.6125 264.10938 28.159374Q264.5 28.70625 264.65625 29.45625Q264.75 29.95625 264.75 31.175L264.75 37.55L262.98438 37.55L262.98438 31.2375Q262.98438 30.159374 262.78125 29.628124Q262.57812 29.096874 262.04688 28.784374Q261.53125 28.471874 260.82812 28.471874Q259.70312 28.471874 258.89062 29.190624Q258.07812 29.89375 258.07812 31.878124L258.07812 37.55L256.3125 37.55ZM266.0 38.409374L267.70312 38.659374Q267.8125 39.45625 268.29688 39.815624Q268.95312 40.3 270.09375 40.3Q271.3125 40.3 271.96875 39.815624Q272.64062 39.33125 272.875 38.45625Q273.01562 37.909374 273.0 36.190624Q271.84375 37.55 270.125 37.55Q267.98438 37.55 266.8125 36.003124Q265.64062 34.45625 265.64062 32.3Q265.64062 30.815624 266.17188 29.565624Q266.71875 28.315624 267.73438 27.628124Q268.76562 26.940624 270.14062 26.940624Q271.96875 26.940624 273.17188 28.425L273.17188 27.175L274.78125 27.175L274.78125 36.14375Q274.78125 38.565624 274.28125 39.565624Q273.79688 40.58125 272.71875 41.159374Q271.65625 41.753124 270.09375 41.753124Q268.25 41.753124 267.09375 40.925Q265.95312 40.096874 266.0 38.409374ZM267.45312 32.175Q267.45312 34.221874 268.26562 35.159374Q269.07812 36.096874 270.29688 36.096874Q271.5 36.096874 272.3125 35.159374Q273.14062 34.221874 273.14062 32.2375Q273.14062 30.33125 272.29688 29.3625Q271.45312 28.39375 270.26562 28.39375Q269.09375 28.39375 268.26562 29.346874Q267.45312 30.3 267.45312 32.175ZM287.64062 37.55L282.09375 23.2375L284.14062 23.2375L287.85938 33.628124Q288.3125 34.878124 288.60938 35.971874Q288.9375 34.8 289.39062 33.628124L293.25 23.2375L295.1875 23.2375L289.57812 37.55L287.64062 37.55ZM296.46875 37.55L296.46875 23.2375L298.35938 23.2375L298.35938 35.8625L305.40625 35.8625L305.40625 37.55L296.46875 37.55ZM307.57812 37.55L307.57812 23.2375L317.9375 23.2375L317.9375 24.925L309.48438 24.925L309.48438 29.3L317.39062 29.3L317.39062 30.9875L309.48438 30.9875L309.48438 35.8625L318.26562 35.8625L318.26562 37.55L307.57812 37.55ZM320.53125 37.55L320.53125 23.2375L322.46875 23.2375L329.98438 34.471874L329.98438 23.2375L331.79688 23.2375L331.79688 37.55L329.85938 37.55L322.34375 26.3L322.34375 37.55L320.53125 37.55ZM342.5625 29.128124L333.10938 29.128124L333.10938 27.4875L342.5625 27.4875L342.5625 29.128124ZM342.5625 33.471874L333.10938 33.471874L333.10938 31.83125L342.5625 31.83125L342.5625 33.471874ZM351.45312 37.55L349.6875 37.55L349.6875 26.346874Q349.0625 26.95625 348.03125 27.565624Q347.0 28.159374 346.17188 28.471874L346.17188 26.76875Q347.65625 26.08125 348.75 25.096874Q349.85938 24.096874 350.3125 23.175L351.45312 23.175L351.45312 37.55ZM355.82812 30.4875Q355.82812 27.95625 356.34375 26.409374Q356.875 24.846874 357.90625 24.01875Q358.9375 23.175 360.5 23.175Q361.65625 23.175 362.51562 23.64375Q363.39062 24.096874 363.95312 24.971874Q364.51562 25.846874 364.84375 27.1125Q365.17188 28.3625 365.17188 30.4875Q365.17188 33.003124 364.64062 34.55Q364.125 36.096874 363.09375 36.95625Q362.07812 37.8 360.5 37.8Q358.42188 37.8 357.25 36.315624Q355.82812 34.51875 355.82812 30.4875ZM357.64062 30.4875Q357.64062 34.01875 358.45312 35.190624Q359.28125 36.346874 360.5 36.346874Q361.70312 36.346874 362.53125 35.175Q363.35938 34.003124 363.35938 30.4875Q363.35938 26.95625 362.53125 25.8Q361.70312 24.628124 360.48438 24.628124Q359.26562 24.628124 358.54688 25.659374Q357.64062 26.95625 357.64062 30.4875ZM376.0625 35.8625L376.0625 37.55L366.60938 37.55Q366.59375 36.909374 366.8125 36.33125Q367.17188 35.3625 367.96875 34.425Q368.76562 33.4875 370.26562 32.253124Q372.60938 30.346874 373.42188 29.2375Q374.25 28.1125 374.25 27.1125Q374.25 26.065624 373.5 25.346874Q372.75 24.628124 371.54688 24.628124Q370.28125 24.628124 369.51562 25.39375Q368.75 26.159374 368.75 27.503124L366.9375 27.315624Q367.125 25.3 368.32812 24.2375Q369.54688 23.175 371.59375 23.175Q373.64062 23.175 374.84375 24.315624Q376.04688 25.45625 376.04688 27.14375Q376.04688 28.003124 375.6875 28.846874Q375.34375 29.675 374.53125 30.596874Q373.71875 31.503124 371.82812 33.1125Q370.23438 34.440624 369.78125 34.909374Q369.34375 35.378124 369.04688 35.8625L376.0625 35.8625ZM383.46875 37.55L383.46875 34.128124L377.25 34.128124L377.25 32.503124L383.78125 23.2375L385.21875 23.2375L385.21875 32.503124L387.15625 32.503124L387.15625 34.128124L385.21875 34.128124L385.21875 37.55L383.46875 37.55ZM383.46875 32.503124L383.46875 26.05L378.98438 32.503124L383.46875 32.503124ZM395.46875 37.55L395.46875 23.2375L397.35938 23.2375L397.35938 35.8625L404.40625 35.8625L404.40625 37.55L395.46875 37.55ZM406.48438 37.55L406.48438 23.2375L409.34375 23.2375L412.71875 33.3625Q413.1875 34.784374 413.40625 35.4875Q413.65625 34.70625 414.17188 33.190624L417.59375 23.2375L420.14062 23.2375L420.14062 37.55L418.32812 37.55L418.32812 25.565624L414.15625 37.55L412.45312 37.55L408.3125 25.3625L408.3125 37.55L406.48438 37.55ZM432.9375 23.2375L434.82812 23.2375L434.82812 31.503124Q434.82812 33.659374 434.34375 34.940624Q433.85938 36.20625 432.57812 37.003124Q431.3125 37.8 429.23438 37.8Q427.21875 37.8 425.9375 37.1125Q424.67188 36.409374 424.125 35.096874Q423.57812 33.784374 423.57812 31.503124L423.57812 23.2375L425.46875 23.2375L425.46875 31.4875Q425.46875 33.3625 425.8125 34.253124Q426.15625 35.128124 427.0 35.6125Q427.84375 36.08125 429.07812 36.08125Q431.15625 36.08125 432.04688 35.14375Q432.9375 34.190624 432.9375 31.4875L432.9375 23.2375ZM436.46875 37.55L436.46875 23.2375L438.35938 23.2375L438.35938 35.8625L445.40625 35.8625L445.40625 37.55L436.46875 37.55ZM456.5625 29.128124L447.10938 29.128124L447.10938 27.4875L456.5625 27.4875L456.5625 29.128124ZM456.5625 33.471874L447.10938 33.471874L447.10938 31.83125L456.5625 31.83125L456.5625 33.471874ZM461.53125 29.784374Q460.4375 29.378124 459.90625 28.64375Q459.39062 27.89375 459.39062 26.8625Q459.39062 25.3 460.51562 24.2375Q461.64062 23.175 463.5 23.175Q465.375 23.175 466.51562 24.26875Q467.65625 25.346874 467.65625 26.909374Q467.65625 27.909374 467.125 28.64375Q466.60938 29.378124 465.54688 29.784374Q466.875 30.221874 467.5625 31.175Q468.25 32.128124 468.25 33.45625Q468.25 35.3 466.9375 36.55Q465.64062 37.8 463.53125 37.8Q461.40625 37.8 460.10938 36.55Q458.8125 35.284374 458.8125 33.409374Q458.8125 32.01875 459.51562 31.08125Q460.23438 30.128124 461.53125 29.784374ZM461.1875 26.8Q461.1875 27.815624 461.84375 28.471874Q462.5 29.1125 463.53125 29.1125Q464.54688 29.1125 465.20312 28.471874Q465.85938 27.83125 465.85938 26.909374Q465.85938 25.940624 465.1875 25.284374Q464.51562 24.6125 463.51562 24.6125Q462.51562 24.6125 461.84375 25.26875Q461.1875 25.909374 461.1875 26.8ZM460.625 33.425Q460.625 34.175 460.96875 34.878124Q461.32812 35.58125 462.03125 35.971874Q462.73438 36.346874 463.54688 36.346874Q464.8125 36.346874 465.625 35.534374Q466.45312 34.721874 466.45312 33.471874Q466.45312 32.20625 465.60938 31.378124Q464.76562 30.55 463.48438 30.55Q462.25 30.55 461.4375 31.378124Q460.625 32.190624 460.625 33.425Z" fill-rule="nonzero"/></svg>