<svg version="1.1" viewBox="0.0 0.0 544.0 371.0" fill="none" stroke="none" stroke-linecap="square" stroke-miterlimit="10" width="544" height="371" xmlns:xlink="http://www.w3.org/1999/xlink" xmlns="http://www.w3.org/2000/svg"><path fill="#ffffff" d="M0 0L544.0 0L544.0 371.0L0 371.0L0 0Z" fill-rule="nonzero"/><path stroke="#cccccc" stroke-width="1.0" stroke-linecap="butt" d="M77.5 88.5L77.5 300.5" fill-rule="nonzero"/><path stroke="#cccccc" stroke-width="1.0" stroke-linecap="butt" d="M192.5 88.5L192.5 300.5" fill-rule="nonzero"/><path stroke="#cccccc" stroke-width="1.0" stroke-linecap="butt" d="M306.5 88.5L306.5 300.5" fill-rule="nonzero"/><path stroke="#cccccc" stroke-width="1.0" stroke-linecap="butt" d="M420.5 88.5L420.5 300.5" fill-rule="nonzero"/><path stroke="#333333" stroke-width="1.0" stroke-linecap="butt" d="M77.5 300.5L525.5 300.5" fill-rule="nonzero"/><path stroke="#cccccc" stroke-width="1.0" stroke-linecap="butt" d="M77.5 247.5L525.5 247.5" fill-rule="nonzero"/><path stroke="#cccccc" stroke-width="1.0" stroke-linecap="butt" d="M77.5 194.5L525.5 194.5" fill-rule="nonzero"/><path stroke="#cccccc" stroke-width="1.0" stroke-linecap="butt" d="M77.5 141.5L525.5 141.5" fill-rule="nonzero"/><path stroke="#cccccc" stroke-width="1.0" stroke-linecap="butt" d="M77.5 88.5L525.5 88.5" fill-rule="nonzero"/><clipPath id="id_0"><path d="M77.55 88.28333L525.45 88.28333L525.45 300.45L77.55 300.45L77.55 88.28333Z" clip-rule="nonzero"/></clipPath><path stroke="#ea4335" stroke-width="2.0" stroke-linecap="butt" clip-path="url(#id_0)" d="M77.55 297.22604L112.003845 296.44077L146.45769 292.9745L180.91154 287.49817L215.36539 293.43857L249.81923 287.80035L284.27307 276.69046L318.72693 255.66257L353.18076 219.80502L387.6346 162.70451L422.08847 95.12292L456.5423 96.03158L490.99615 93.095726L525.45 92.084656" fill-rule="nonzero"/><path fill="#000000" fill-opacity="0.0" clip-path="url(#id_0)" d="M80.55 297.22604C80.55 298.8829 79.206856 300.22604 77.55 300.22604C75.89314 300.22604 74.55 298.8829 74.55 297.22604C74.55 295.5692 75.89314 294.22604 77.55 294.22604C79.206856 294.22604 80.55 295.5692 80.55 297.22604Z" fill-rule="nonzero"/><path fill="#000000" fill-opacity="0.0" clip-path="url(#id_0)" d="M115.003845 296.44077C115.003845 298.09763 113.6607 299.44077 112.003845 299.44077C110.34699 299.44077 109.003845 298.09763 109.003845 296.44077C109.003845 294.7839 110.34699 293.44077 112.003845 293.44077C113.6607 293.44077 115.003845 294.7839 115.003845 296.44077Z" fill-rule="nonzero"/><path fill="#000000" fill-opacity="0.0" clip-path="url(#id_0)" d="M149.45769 292.9745C149.45769 294.63135 148.11455 295.9745 146.45769 295.9745C144.80084 295.9745 143.45769 294.63135 143.45769 292.9745C143.45769 291.31763 144.80084 289.9745 146.45769 289.9745C148.11455 289.9745 149.45769 291.31763 149.45769 292.9745Z" fill-rule="nonzero"/><path fill="#000000" fill-opacity="0.0" clip-path="url(#id_0)" d="M183.91154 287.49817C183.91154 289.155 182.56839 290.49817 180.91154 290.49817C179.25468 290.49817 177.91154 289.155 177.91154 287.49817C177.91154 285.8413 179.25468 284.49817 180.91154 284.49817C182.56839 284.49817 183.91154 285.8413 183.91154 287.49817Z" fill-rule="nonzero"/><path fill="#000000" fill-opacity="0.0" clip-path="url(#id_0)" d="M218.36539 293.43857C218.36539 295.0954 217.02223 296.43857 215.36539 296.43857C213.70853 296.43857 212.36539 295.0954 212.36539 293.43857C212.36539 291.7817 213.70853 290.43857 215.36539 290.43857C217.02223 290.43857 218.36539 291.7817 218.36539 293.43857Z" fill-rule="nonzero"/><path fill="#000000" fill-opacity="0.0" clip-path="url(#id_0)" d="M252.81923 287.80035C252.81923 289.4572 251.47609 290.80035 249.81923 290.80035C248.16238 290.80035 246.81923 289.4572 246.81923 287.80035C246.81923 286.14352 248.16238 284.80035 249.81923 284.80035C251.47609 284.80035 252.81923 286.14352 252.81923 287.80035Z" fill-rule="nonzero"/><path fill="#000000" fill-opacity="0.0" clip-path="url(#id_0)" d="M287.27307 276.69046C287.27307 278.34732 285.92993 279.69046 284.27307 279.69046C282.6162 279.69046 281.27307 278.34732 281.27307 276.69046C281.27307 275.0336 282.6162 273.69046 284.27307 273.69046C285.92993 273.69046 287.27307 275.0336 287.27307 276.69046Z" fill-rule="nonzero"/><path fill="#000000" fill-opacity="0.0" clip-path="url(#id_0)" d="M321.72693 255.66257C321.72693 257.31943 320.3838 258.66257 318.72693 258.66257C317.07007 258.66257 315.72693 257.31943 315.72693 255.66257C315.72693 254.00572 317.07007 252.66257 318.72693 252.66257C320.3838 252.66257 321.72693 254.00572 321.72693 255.66257Z" fill-rule="nonzero"/><path fill="#000000" fill-opacity="0.0" clip-path="url(#id_0)" d="M356.18076 219.80502C356.18076 221.46187 354.83762 222.80502 353.18076 222.80502C351.52393 222.80502 350.18076 221.46187 350.18076 219.80502C350.18076 218.14816 351.52393 216.80502 353.18076 216.80502C354.83762 216.80502 356.18076 218.14816 356.18076 219.80502Z" fill-rule="nonzero"/><path fill="#000000" fill-opacity="0.0" clip-path="url(#id_0)" d="M390.6346 162.70451C390.6346 164.36137 389.29147 165.70451 387.6346 165.70451C385.97775 165.70451 384.6346 164.36137 384.6346 162.70451C384.6346 161.04765 385.97775 159.70451 387.6346 159.70451C389.29147 159.70451 390.6346 161.04765 390.6346 162.70451Z" fill-rule="nonzero"/><path fill="#000000" fill-opacity="0.0" clip-path="url(#id_0)" d="M425.08847 95.12292C425.08847 96.77977 423.74533 98.12292 422.08847 98.12292C420.4316 98.12292 419.08847 96.77977 419.08847 95.12292C419.08847 93.466064 420.4316 92.12292 422.08847 92.12292C423.74533 92.12292 425.08847 93.466064 425.08847 95.12292Z" fill-rule="nonzero"/><path fill="#000000" fill-opacity="0.0" clip-path="url(#id_0)" d="M459.5423 96.03158C459.5423 97.68843 458.19916 99.03158 456.5423 99.03158C454.88547 99.03158 453.5423 97.68843 453.5423 96.03158C453.5423 94.374725 454.88547 93.03158 456.5423 93.03158C458.19916 93.03158 459.5423 94.374725 459.5423 96.03158Z" fill-rule="nonzero"/><path fill="#000000" fill-opacity="0.0" clip-path="url(#id_0)" d="M493.99615 93.095726C493.99615 94.75258 492.653 96.095726 490.99615 96.095726C489.3393 96.095726 487.99615 94.75258 487.99615 93.095726C487.99615 91.438866 489.3393 90.095726 490.99615 90.095726C492.653 90.095726 493.99615 91.438866 493.99615 93.095726Z" fill-rule="nonzero"/><path fill="#000000" fill-opacity="0.0" clip-path="url(#id_0)" d="M528.45 92.084656C528.45 93.74151 527.1069 95.084656 525.45 95.084656C523.79315 95.084656 522.45 93.74151 522.45 92.084656C522.45 90.427795 523.79315 89.084656 525.45 89.084656C527.1069 89.084656 528.45 90.427795 528.45 92.084656Z" fill-rule="nonzero"/><path fill="#000000" d="M270.54688 346.6844L271.60938 346.59064Q271.6875 347.2469 271.96875 347.65314Q272.25 348.0594 272.82812 348.325Q273.42188 348.575 274.15625 348.575Q274.79688 348.575 275.29688 348.3875Q275.79688 348.1844 276.03125 347.85626Q276.28125 347.5125 276.28125 347.1219Q276.28125 346.71564 276.04688 346.41876Q275.8125 346.10626 275.28125 345.90314Q274.92188 345.7625 273.73438 345.48126Q272.5625 345.2 272.09375 344.95Q271.46875 344.6219 271.17188 344.15314Q270.875 343.66876 270.875 343.075Q270.875 342.4344 271.23438 341.8719Q271.60938 341.29376 272.3125 341.0125Q273.03125 340.71564 273.89062 340.71564Q274.84375 340.71564 275.57812 341.02814Q276.3125 341.325 276.70312 341.9344Q277.09375 342.52814 277.125 343.27814L276.03125 343.35626Q275.9375 342.54376 275.42188 342.1375Q274.92188 341.71564 273.9375 341.71564Q272.90625 341.71564 272.4375 342.09064Q271.96875 342.46564 271.96875 342.9969Q271.96875 343.46564 272.29688 343.7625Q272.625 344.0594 274.0 344.3719Q275.39062 344.6844 275.90625 344.91876Q276.65625 345.27814 277.01562 345.8094Q277.375 346.325 277.375 347.02814Q277.375 347.71564 276.98438 348.325Q276.59375 348.91876 275.85938 349.2625Q275.125 349.59064 274.20312 349.59064Q273.03125 349.59064 272.23438 349.2625Q271.45312 348.91876 271.0 348.23126Q270.5625 347.54376 270.54688 346.6844ZM278.79688 342.075L278.79688 340.85626L279.85938 340.85626L279.85938 342.075L278.79688 342.075ZM278.79688 349.45L278.79688 343.23126L279.85938 343.23126L279.85938 349.45L278.79688 349.45ZM281.23438 349.45L281.23438 348.59064L285.20312 344.04376Q284.51562 344.075 284.0 344.075L281.46875 344.075L281.46875 343.23126L286.5625 343.23126L286.5625 343.91876L283.1875 347.8719L282.53125 348.59064Q283.25 348.54376 283.85938 348.54376L286.75 348.54376L286.75 349.45L281.23438 349.45ZM291.04688 347.45L292.14062 347.575Q291.89062 348.52814 291.1875 349.0594Q290.48438 349.59064 289.40625 349.59064Q288.04688 349.59064 287.23438 348.7469Q286.4375 347.90314 286.4375 346.3875Q286.4375 344.825 287.25 343.96564Q288.0625 343.09064 289.34375 343.09064Q290.59375 343.09064 291.375 343.9344Q292.17188 344.77814 292.17188 346.325Q292.17188 346.41876 292.17188 346.60626L287.53125 346.60626Q287.59375 347.6375 288.10938 348.1844Q288.625 348.71564 289.40625 348.71564Q289.98438 348.71564 290.39062 348.41876Q290.8125 348.10626 291.04688 347.45ZM287.59375 345.7469L291.0625 345.7469Q291.0 344.95 290.67188 344.5594Q290.15625 343.95 289.35938 343.95Q288.625 343.95 288.125 344.4344Q287.64062 344.91876 287.59375 345.7469ZM298.8125 351.98126Q297.9375 350.8719 297.32812 349.40314Q296.73438 347.91876 296.73438 346.34064Q296.73438 344.95 297.17188 343.66876Q297.70312 342.1844 298.8125 340.71564L299.5625 340.71564Q298.85938 341.9344 298.625 342.45Q298.26562 343.2625 298.0625 344.1375Q297.8125 345.23126 297.8125 346.34064Q297.8125 349.16876 299.5625 351.98126L298.8125 351.98126ZM301.76562 349.45L300.78125 349.45L300.78125 340.85626L301.84375 340.85626L301.84375 343.91876Q302.51562 343.09064 303.54688 343.09064Q304.125 343.09064 304.625 343.325Q305.14062 343.54376 305.46875 343.96564Q305.8125 344.3875 306.0 344.98126Q306.1875 345.575 306.1875 346.2469Q306.1875 347.84064 305.39062 348.71564Q304.59375 349.59064 303.5 349.59064Q302.39062 349.59064 301.76562 348.66876L301.76562 349.45ZM301.75 346.29376Q301.75 347.40314 302.0625 347.90314Q302.5625 348.71564 303.40625 348.71564Q304.09375 348.71564 304.59375 348.1219Q305.10938 347.52814 305.10938 346.325Q305.10938 345.10626 304.625 344.52814Q304.14062 343.95 303.45312 343.95Q302.76562 343.95 302.25 344.5594Q301.75 345.15314 301.75 346.29376ZM307.75 351.84064L307.625 350.85626Q307.96875 350.95 308.23438 350.95Q308.57812 350.95 308.78125 350.825Q309.0 350.71564 309.14062 350.5125Q309.23438 350.34064 309.46875 349.71564Q309.48438 349.6375 309.5625 349.46564L307.1875 343.23126L308.32812 343.23126L309.625 346.825Q309.875 347.5125 310.07812 348.27814Q310.26562 347.54376 310.51562 346.85626L311.84375 343.23126L312.89062 343.23126L310.53125 349.5594Q310.14062 350.575 309.9375 350.96564Q309.65625 351.4969 309.28125 351.73126Q308.92188 351.98126 308.42188 351.98126Q308.125 351.98126 307.75 351.84064ZM315.09375 348.5125L315.25 349.4344Q314.79688 349.52814 314.45312 349.52814Q313.875 349.52814 313.5625 349.35626Q313.25 349.16876 313.10938 348.8719Q312.98438 348.575 312.98438 347.6219L312.98438 344.04376L312.21875 344.04376L312.21875 343.23126L312.98438 343.23126L312.98438 341.6844L314.03125 341.0594L314.03125 343.23126L315.09375 343.23126L315.09375 344.04376L314.03125 344.04376L314.03125 347.6844Q314.03125 348.1375 314.07812 348.2625Q314.14062 348.3875 314.26562 348.46564Q314.39062 348.54376 314.625 348.54376Q314.8125 348.54376 315.09375 348.5125ZM320.04688 347.45L321.14062 347.575Q320.89062 348.52814 320.1875 349.0594Q319.48438 349.59064 318.40625 349.59064Q317.04688 349.59064 316.23438 348.7469Q315.4375 347.90314 315.4375 346.3875Q315.4375 344.825 316.25 343.96564Q317.0625 343.09064 318.34375 343.09064Q319.59375 343.09064 320.375 343.9344Q321.17188 344.77814 321.17188 346.325Q321.17188 346.41876 321.17188 346.60626L316.53125 346.60626Q316.59375 347.6375 317.10938 348.1844Q317.625 348.71564 318.40625 348.71564Q318.98438 348.71564 319.39062 348.41876Q319.8125 348.10626 320.04688 347.45ZM316.59375 345.7469L320.0625 345.7469Q320.0 344.95 319.67188 344.5594Q319.15625 343.95 318.35938 343.95Q317.625 343.95 317.125 344.4344Q316.64062 344.91876 316.59375 345.7469ZM322.375 347.59064L323.40625 347.4344Q323.5 348.0594 323.89062 348.3875Q324.29688 348.71564 325.03125 348.71564Q325.75 348.71564 326.09375 348.4344Q326.45312 348.1375 326.45312 347.73126Q326.45312 347.3719 326.14062 347.16876Q325.92188 347.02814 325.0625 346.8094Q323.90625 346.5125 323.45312 346.3094Q323.01562 346.09064 322.78125 345.71564Q322.54688 345.34064 322.54688 344.8719Q322.54688 344.46564 322.73438 344.10626Q322.92188 343.7469 323.25 343.5125Q323.5 343.34064 323.92188 343.21564Q324.34375 343.09064 324.84375 343.09064Q325.5625 343.09064 326.10938 343.3094Q326.67188 343.5125 326.9375 343.8719Q327.20312 344.23126 327.29688 344.825L326.26562 344.96564Q326.20312 344.4969 325.85938 344.23126Q325.53125 343.95 324.90625 343.95Q324.1875 343.95 323.875 344.2Q323.5625 344.4344 323.5625 344.7625Q323.5625 344.96564 323.6875 345.1219Q323.82812 345.29376 324.09375 345.40314Q324.25 345.46564 325.03125 345.66876Q326.15625 345.98126 326.59375 346.16876Q327.03125 346.35626 327.28125 346.71564Q327.53125 347.075 327.53125 347.6219Q327.53125 348.15314 327.21875 348.6219Q326.92188 349.075 326.34375 349.34064Q325.76562 349.59064 325.03125 349.59064Q323.8125 349.59064 323.17188 349.09064Q322.54688 348.575 322.375 347.59064ZM330.48438 351.98126L329.73438 351.98126Q331.48438 349.16876 331.48438 346.34064Q331.48438 345.2469 331.23438 344.15314Q331.03125 343.27814 330.67188 342.46564Q330.4375 341.95 329.73438 340.71564L330.48438 340.71564Q331.57812 342.1844 332.10938 343.66876Q332.5625 344.95 332.5625 346.34064Q332.5625 347.91876 331.95312 349.40314Q331.34375 350.8719 330.48438 351.98126Z" fill-rule="nonzero"/><path fill="#000000" d="M27.690638 282.49167L27.534388 281.46042Q28.159388 281.36667 28.487513 280.97604Q28.815638 280.5698 28.815638 279.83542Q28.815638 279.11667 28.534388 278.77292Q28.237513 278.41354 27.831263 278.41354Q27.471888 278.41354 27.268763 278.72604Q27.128138 278.9448 26.909388 279.80417Q26.612513 280.96042 26.409388 281.41354Q26.190638 281.85104 25.815638 282.08542Q25.440638 282.3198 24.971888 282.3198Q24.565638 282.3198 24.206263 282.1323Q23.846888 281.9448 23.612513 281.61667Q23.440638 281.36667 23.315638 280.9448Q23.190638 280.52292 23.190638 280.02292Q23.190638 279.30417 23.409388 278.7573Q23.612513 278.1948 23.971888 277.92917Q24.331263 277.66354 24.925013 277.5698L25.065638 278.60104Q24.596888 278.66354 24.331263 279.0073Q24.050013 279.33542 24.050013 279.96042Q24.050013 280.67917 24.300013 280.99167Q24.534388 281.30417 24.862513 281.30417Q25.065638 281.30417 25.221888 281.17917Q25.393763 281.03854 25.503138 280.77292Q25.565638 280.61667 25.768763 279.83542Q26.081263 278.71042 26.268763 278.27292Q26.456263 277.83542 26.815638 277.58542Q27.175013 277.33542 27.721888 277.33542Q28.253138 277.33542 28.721888 277.64792Q29.175013 277.9448 29.440638 278.52292Q29.690638 279.10104 29.690638 279.83542Q29.690638 281.05417 29.190638 281.6948Q28.675013 282.3198 27.690638 282.49167ZM31.940638 275.0698L23.331263 275.0698L23.331263 274.11667L24.128138 274.11667Q23.659388 273.77292 23.425013 273.35104Q23.190638 272.91354 23.190638 272.30417Q23.190638 271.5073 23.596888 270.89792Q24.003138 270.28854 24.753138 269.99167Q25.503138 269.67917 26.393763 269.67917Q27.346888 269.67917 28.112513 270.02292Q28.878138 270.35104 29.284388 271.0073Q29.690638 271.66354 29.690638 272.3823Q29.690638 272.91354 29.471888 273.33542Q29.237513 273.7573 28.909388 274.02292L31.940638 274.02292L31.940638 275.0698ZM26.471888 274.11667Q27.675013 274.11667 28.253138 273.6323Q28.815638 273.14792 28.815638 272.46042Q28.815638 271.7573 28.221888 271.2573Q27.628138 270.7573 26.378138 270.7573Q25.190638 270.7573 24.612513 271.24167Q24.018763 271.72604 24.018763 272.41354Q24.018763 273.08542 24.643763 273.60104Q25.268763 274.11667 26.471888 274.11667ZM27.550013 263.8198L27.675013 262.72604Q28.628138 262.97604 29.159388 263.67917Q29.690638 264.3823 29.690638 265.46042Q29.690638 266.8198 28.846888 267.6323Q28.003138 268.42917 26.487513 268.42917Q24.925013 268.42917 24.065638 267.61667Q23.190638 266.80417 23.190638 265.52292Q23.190638 264.27292 24.034388 263.49167Q24.878138 262.6948 26.425013 262.6948Q26.518763 262.6948 26.706263 262.6948L26.706263 267.33542Q27.737513 267.27292 28.284388 266.7573Q28.815638 266.24167 28.815638 265.46042Q28.815638 264.8823 28.518763 264.47604Q28.206263 264.05417 27.550013 263.8198ZM25.846888 267.27292L25.846888 263.80417Q25.050013 263.86667 24.659388 264.1948Q24.050013 264.71042 24.050013 265.5073Q24.050013 266.24167 24.534388 266.74167Q25.018763 267.22604 25.846888 267.27292ZM27.550013 256.8198L27.675013 255.72604Q28.628138 255.97604 29.159388 256.67917Q29.690638 257.3823 29.690638 258.46042Q29.690638 259.8198 28.846888 260.6323Q28.003138 261.42917 26.487513 261.42917Q24.925013 261.42917 24.065638 260.61667Q23.190638 259.80417 23.190638 258.52292Q23.190638 257.27292 24.034388 256.49167Q24.878138 255.6948 26.425013 255.6948Q26.518763 255.6948 26.706263 255.6948L26.706263 260.33542Q27.737513 260.27292 28.284388 259.7573Q28.815638 259.24167 28.815638 258.46042Q28.815638 257.8823 28.518763 257.47604Q28.206263 257.05417 27.550013 256.8198ZM25.846888 260.27292L25.846888 256.80417Q25.050013 256.86667 24.659388 257.1948Q24.050013 257.71042 24.050013 258.5073Q24.050013 259.24167 24.534388 259.74167Q25.018763 260.22604 25.846888 260.27292ZM29.550013 250.03854L28.768763 250.03854Q29.690638 250.6323 29.690638 251.77292Q29.690638 252.52292 29.284388 253.14792Q28.862513 253.77292 28.128138 254.11667Q27.393763 254.46042 26.440638 254.46042Q25.518763 254.46042 24.753138 254.14792Q23.987513 253.83542 23.596888 253.21042Q23.190638 252.58542 23.190638 251.8198Q23.190638 251.2573 23.425013 250.8198Q23.659388 250.3823 24.034388 250.10104L20.956263 250.10104L20.956263 249.05417L29.550013 249.05417L29.550013 250.03854ZM26.440638 253.36667Q27.643763 253.36667 28.237513 252.86667Q28.815638 252.36667 28.815638 251.67917Q28.815638 250.99167 28.253138 250.5073Q27.690638 250.02292 26.534388 250.02292Q25.253138 250.02292 24.659388 250.52292Q24.065638 251.0073 24.065638 251.72604Q24.065638 252.42917 24.643763 252.89792Q25.206263 253.36667 26.440638 253.36667ZM29.550013 239.99167L28.628138 239.99167Q29.690638 240.72604 29.690638 241.97604Q29.690638 242.52292 29.487513 243.0073Q29.268763 243.47604 28.956263 243.71042Q28.628138 243.9448 28.159388 244.03854Q27.862513 244.10104 27.175013 244.10104L23.331263 244.10104L23.331263 243.03854L26.784388 243.03854Q27.596888 243.03854 27.893763 242.97604Q28.300013 242.8823 28.550013 242.5698Q28.784388 242.24167 28.784388 241.7573Q28.784388 241.28854 28.550013 240.8823Q28.300013 240.46042 27.878138 240.28854Q27.456263 240.10104 26.659388 240.10104L23.331263 240.10104L23.331263 239.05417L29.550013 239.05417L29.550013 239.99167ZM31.940638 237.0698L23.331263 237.0698L23.331263 236.11667L24.128138 236.11667Q23.659388 235.77292 23.425013 235.35104Q23.190638 234.91354 23.190638 234.30417Q23.190638 233.5073 23.596888 232.89792Q24.003138 232.28854 24.753138 231.99167Q25.503138 231.67917 26.393763 231.67917Q27.346888 231.67917 28.112513 232.02292Q28.878138 232.35104 29.284388 233.0073Q29.690638 233.66354 29.690638 234.3823Q29.690638 234.91354 29.471888 235.33542Q29.237513 235.7573 28.909388 236.02292L31.940638 236.02292L31.940638 237.0698ZM26.471888 236.11667Q27.675013 236.11667 28.253138 235.6323Q28.815638 235.14792 28.815638 234.46042Q28.815638 233.7573 28.221888 233.2573Q27.628138 232.7573 26.378138 232.7573Q25.190638 232.7573 24.612513 233.24167Q24.018763 233.72604 24.018763 234.41354Q24.018763 235.08542 24.643763 235.60104Q25.268763 236.11667 26.471888 236.11667ZM26.440638 227.46042Q24.706263 227.46042 23.878138 226.5073Q23.190638 225.71042 23.190638 224.55417Q23.190638 223.27292 24.034388 222.46042Q24.862513 221.6323 26.346888 221.6323Q27.550013 221.6323 28.237513 221.99167Q28.925013 222.35104 29.315638 223.05417Q29.690638 223.74167 29.690638 224.55417Q29.690638 225.85104 28.862513 226.66354Q28.018763 227.46042 26.440638 227.46042ZM26.440638 226.3823Q27.628138 226.3823 28.221888 225.86667Q28.815638 225.33542 28.815638 224.55417Q28.815638 223.7573 28.221888 223.24167Q27.628138 222.72604 26.409388 222.72604Q25.253138 222.72604 24.659388 223.2573Q24.065638 223.77292 24.065638 224.55417Q24.065638 225.33542 24.659388 225.86667Q25.237513 226.3823 26.440638 226.3823ZM29.550013 218.35104L23.331263 220.71042L23.331263 219.60104L27.050013 218.2573Q27.659388 218.05417 28.300013 217.86667Q27.815638 217.72604 27.128138 217.47604L23.331263 216.08542L23.331263 215.0073L29.550013 217.36667L29.550013 218.35104ZM27.550013 210.8198L27.675013 209.72604Q28.628138 209.97604 29.159388 210.67917Q29.690638 211.3823 29.690638 212.46042Q29.690638 213.8198 28.846888 214.6323Q28.003138 215.42917 26.487513 215.42917Q24.925013 215.42917 24.065638 214.61667Q23.190638 213.80417 23.190638 212.52292Q23.190638 211.27292 24.034388 210.49167Q24.878138 209.6948 26.425013 209.6948Q26.518763 209.6948 26.706263 209.6948L26.706263 214.33542Q27.737513 214.27292 28.284388 213.7573Q28.815638 213.24167 28.815638 212.46042Q28.815638 211.8823 28.518763 211.47604Q28.206263 211.05417 27.550013 210.8198ZM25.846888 214.27292L25.846888 210.80417Q25.050013 210.86667 24.659388 211.1948Q24.050013 211.71042 24.050013 212.5073Q24.050013 213.24167 24.534388 213.74167Q25.018763 214.22604 25.846888 214.27292ZM29.550013 208.08542L23.331263 208.08542L23.331263 207.1323L24.268763 207.1323Q23.612513 206.77292 23.409388 206.47604Q23.190638 206.16354 23.190638 205.78854Q23.190638 205.2573 23.518763 204.71042L24.503138 205.0698Q24.268763 205.46042 24.268763 205.83542Q24.268763 206.1948 24.487513 206.47604Q24.690638 206.74167 25.065638 206.85104Q25.628138 207.03854 26.284388 207.03854L29.550013 207.03854L29.550013 208.08542ZM29.550013 200.10104L29.550013 201.08542L20.956263 201.08542L20.956263 200.02292L24.018763 200.02292Q23.190638 199.35104 23.190638 198.3198Q23.190638 197.74167 23.425013 197.24167Q23.643763 196.72604 24.065638 196.39792Q24.487513 196.05417 25.081263 195.86667Q25.675013 195.67917 26.346888 195.67917Q27.940638 195.67917 28.815638 196.47604Q29.690638 197.27292 29.690638 198.36667Q29.690638 199.47604 28.768763 200.10104L29.550013 200.10104ZM26.393763 200.11667Q27.503138 200.11667 28.003138 199.80417Q28.815638 199.30417 28.815638 198.46042Q28.815638 197.77292 28.221888 197.27292Q27.628138 196.7573 26.425013 196.7573Q25.206263 196.7573 24.628138 197.24167Q24.050013 197.72604 24.050013 198.41354Q24.050013 199.10104 24.659388 199.61667Q25.253138 200.11667 26.393763 200.11667ZM28.784388 190.0073Q29.284388 190.60104 29.487513 191.14792Q29.690638 191.67917 29.690638 192.30417Q29.690638 193.33542 29.190638 193.8823Q28.690638 194.42917 27.909388 194.42917Q27.456263 194.42917 27.081263 194.22604Q26.690638 194.02292 26.471888 193.67917Q26.237513 193.33542 26.128138 192.91354Q26.034388 192.61667 25.956263 191.97604Q25.815638 190.71042 25.596888 190.10104Q25.378138 190.10104 25.331263 190.10104Q24.675013 190.10104 24.409388 190.39792Q24.065638 190.80417 24.065638 191.60104Q24.065638 192.33542 24.331263 192.6948Q24.581263 193.05417 25.237513 193.22604L25.096888 194.2573Q24.440638 194.11667 24.034388 193.78854Q23.628138 193.46042 23.409388 192.85104Q23.190638 192.24167 23.190638 191.4448Q23.190638 190.64792 23.378138 190.14792Q23.565638 189.64792 23.846888 189.41354Q24.128138 189.17917 24.565638 189.08542Q24.831263 189.03854 25.534388 189.03854L26.940638 189.03854Q28.409388 189.03854 28.800013 188.97604Q29.190638 188.89792 29.550013 188.6948L29.550013 189.80417Q29.221888 189.96042 28.784388 190.0073ZM26.425013 190.10104Q26.659388 190.67917 26.831263 191.8198Q26.925013 192.47604 27.050013 192.74167Q27.159388 193.0073 27.378138 193.16354Q27.596888 193.30417 27.878138 193.30417Q28.300013 193.30417 28.581263 192.99167Q28.862513 192.66354 28.862513 192.05417Q28.862513 191.4448 28.596888 190.97604Q28.331263 190.49167 27.862513 190.27292Q27.503138 190.10104 26.815638 190.10104L26.425013 190.10104ZM27.690638 187.49167L27.534388 186.46042Q28.159388 186.36667 28.487513 185.97604Q28.815638 185.5698 28.815638 184.83542Q28.815638 184.11667 28.534388 183.77292Q28.237513 183.41354 27.831263 183.41354Q27.471888 183.41354 27.268763 183.72604Q27.128138 183.9448 26.909388 184.80417Q26.612513 185.96042 26.409388 186.41354Q26.190638 186.85104 25.815638 187.08542Q25.440638 187.3198 24.971888 187.3198Q24.565638 187.3198 24.206263 187.1323Q23.846888 186.9448 23.612513 186.61667Q23.440638 186.36667 23.315638 185.9448Q23.190638 185.52292 23.190638 185.02292Q23.190638 184.30417 23.409388 183.7573Q23.612513 183.1948 23.971888 182.92917Q24.331263 182.66354 24.925013 182.5698L25.065638 183.60104Q24.596888 183.66354 24.331263 184.0073Q24.050013 184.33542 24.050013 184.96042Q24.050013 185.67917 24.300013 185.99167Q24.534388 186.30417 24.862513 186.30417Q25.065638 186.30417 25.221888 186.17917Q25.393763 186.03854 25.503138 185.77292Q25.565638 185.61667 25.768763 184.83542Q26.081263 183.71042 26.268763 183.27292Q26.456263 182.83542 26.815638 182.58542Q27.175013 182.33542 27.721888 182.33542Q28.253138 182.33542 28.721888 182.64792Q29.175013 182.9448 29.440638 183.52292Q29.690638 184.10104 29.690638 184.83542Q29.690638 186.05417 29.190638 186.6948Q28.675013 187.3198 27.690638 187.49167ZM27.550013 175.8198L27.675013 174.72604Q28.628138 174.97604 29.159388 175.67917Q29.690638 176.3823 29.690638 177.46042Q29.690638 178.8198 28.846888 179.6323Q28.003138 180.42917 26.487513 180.42917Q24.925013 180.42917 24.065638 179.61667Q23.190638 178.80417 23.190638 177.52292Q23.190638 176.27292 24.034388 175.49167Q24.878138 174.6948 26.425013 174.6948Q26.518763 174.6948 26.706263 174.6948L26.706263 179.33542Q27.737513 179.27292 28.284388 178.7573Q28.815638 178.24167 28.815638 177.46042Q28.815638 176.8823 28.518763 176.47604Q28.206263 176.05417 27.550013 175.8198ZM25.846888 179.27292L25.846888 175.80417Q25.050013 175.86667 24.659388 176.1948Q24.050013 176.71042 24.050013 177.5073Q24.050013 178.24167 24.534388 178.74167Q25.018763 179.22604 25.846888 179.27292ZM29.550013 173.10104L20.956263 173.10104L20.956263 172.03854L29.550013 172.03854L29.550013 173.10104ZM22.175013 170.0698L20.956263 170.0698L20.956263 169.0073L22.175013 169.0073L22.175013 170.0698ZM29.550013 170.0698L23.331263 170.0698L23.331263 169.0073L29.550013 169.0073L29.550013 170.0698ZM29.550013 167.0698L23.331263 167.0698L23.331263 166.1323L24.206263 166.1323Q23.190638 165.4448 23.190638 164.14792Q23.190638 163.58542 23.393763 163.11667Q23.596888 162.6323 23.925013 162.39792Q24.253138 162.16354 24.690638 162.0698Q24.987513 162.02292 25.721888 162.02292L29.550013 162.02292L29.550013 163.0698L25.768763 163.0698Q25.112513 163.0698 24.800013 163.1948Q24.487513 163.3198 24.300013 163.6323Q24.096888 163.9448 24.096888 164.36667Q24.096888 165.03854 24.534388 165.53854Q24.956263 166.02292 26.143763 166.02292L29.550013 166.02292L29.550013 167.0698ZM27.550013 155.8198L27.675013 154.72604Q28.628138 154.97604 29.159388 155.67917Q29.690638 156.3823 29.690638 157.46042Q29.690638 158.8198 28.846888 159.6323Q28.003138 160.42917 26.487513 160.42917Q24.925013 160.42917 24.065638 159.61667Q23.190638 158.80417 23.190638 157.52292Q23.190638 156.27292 24.034388 155.49167Q24.878138 154.6948 26.425013 154.6948Q26.518763 154.6948 26.706263 154.6948L26.706263 159.33542Q27.737513 159.27292 28.284388 158.7573Q28.815638 158.24167 28.815638 157.46042Q28.815638 156.8823 28.518763 156.47604Q28.206263 156.05417 27.550013 155.8198ZM25.846888 159.27292L25.846888 155.80417Q25.050013 155.86667 24.659388 156.1948Q24.050013 156.71042 24.050013 157.5073Q24.050013 158.24167 24.534388 158.74167Q25.018763 159.22604 25.846888 159.27292ZM32.08126 148.05417Q30.971888 148.92917 29.503138 149.53854Q28.018763 150.1323 26.440638 150.1323Q25.050013 150.1323 23.768763 149.6948Q22.284388 149.16354 20.815638 148.05417L20.815638 147.30417Q22.034388 148.0073 22.550013 148.24167Q23.362513 148.60104 24.237513 148.80417Q25.331263 149.05417 26.440638 149.05417Q29.268763 149.05417 32.08126 147.30417L32.08126 148.05417ZM29.550013 146.08542L23.331263 146.08542L23.331263 145.1323L24.268763 145.1323Q23.612513 144.77292 23.409388 144.47604Q23.190638 144.16354 23.190638 143.78854Q23.190638 143.2573 23.518763 142.71042L24.503138 143.0698Q24.268763 143.46042 24.268763 143.83542Q24.268763 144.1948 24.487513 144.47604Q24.690638 144.74167 25.065638 144.85104Q25.628138 145.03854 26.284388 145.03854L29.550013 145.03854L29.550013 146.08542ZM28.784388 138.0073Q29.284388 138.60104 29.487513 139.14792Q29.690638 139.67917 29.690638 140.30417Q29.690638 141.33542 29.190638 141.8823Q28.690638 142.42917 27.909388 142.42917Q27.456263 142.42917 27.081263 142.22604Q26.690638 142.02292 26.471888 141.67917Q26.237513 141.33542 26.128138 140.91354Q26.034388 140.61667 25.956263 139.97604Q25.815638 138.71042 25.596888 138.10104Q25.378138 138.10104 25.331263 138.10104Q24.675013 138.10104 24.409388 138.39792Q24.065638 138.80417 24.065638 139.60104Q24.065638 140.33542 24.331263 140.6948Q24.581263 141.05417 25.237513 141.22604L25.096888 142.2573Q24.440638 142.11667 24.034388 141.78854Q23.628138 141.46042 23.409388 140.85104Q23.190638 140.24167 23.190638 139.4448Q23.190638 138.64792 23.378138 138.14792Q23.565638 137.64792 23.846888 137.41354Q24.128138 137.17917 24.565638 137.08542Q24.831263 137.03854 25.534388 137.03854L26.940638 137.03854Q28.409388 137.03854 28.800013 136.97604Q29.190638 136.89792 29.550013 136.6948L29.550013 137.80417Q29.221888 137.96042 28.784388 138.0073ZM26.425013 138.10104Q26.659388 138.67917 26.831263 139.8198Q26.925013 140.47604 27.050013 140.74167Q27.159388 141.0073 27.378138 141.16354Q27.596888 141.30417 27.878138 141.30417Q28.300013 141.30417 28.581263 140.99167Q28.862513 140.66354 28.862513 140.05417Q28.862513 139.4448 28.596888 138.97604Q28.331263 138.49167 27.862513 138.27292Q27.503138 138.10104 26.815638 138.10104L26.425013 138.10104ZM28.612513 132.77292L29.534388 132.61667Q29.628138 133.0698 29.628138 133.41354Q29.628138 133.99167 29.456263 134.30417Q29.268763 134.61667 28.971888 134.7573Q28.675013 134.8823 27.721888 134.8823L24.143763 134.8823L24.143763 135.64792L23.331263 135.64792L23.331263 134.8823L21.784388 134.8823L21.159388 133.83542L23.331263 133.83542L23.331263 132.77292L24.143763 132.77292L24.143763 133.83542L27.784388 133.83542Q28.237513 133.83542 28.362513 133.78854Q28.487513 133.72604 28.565638 133.60104Q28.643763 133.47604 28.643763 133.24167Q28.643763 133.05417 28.612513 132.77292ZM22.175013 132.0698L20.956263 132.0698L20.956263 131.0073L22.175013 131.0073L22.175013 132.0698ZM29.550013 132.0698L23.331263 132.0698L23.331263 131.0073L29.550013 131.0073L29.550013 132.0698ZM26.440638 129.46042Q24.706263 129.46042 23.878138 128.5073Q23.190638 127.71042 23.190638 126.55417Q23.190638 125.27292 24.034388 124.46042Q24.862513 123.63229 26.346888 123.63229Q27.550013 123.63229 28.237513 123.99167Q28.925013 124.35104 29.315638 125.05417Q29.690638 125.74167 29.690638 126.55417Q29.690638 127.85104 28.862513 128.66354Q28.018763 129.46042 26.440638 129.46042ZM26.440638 128.3823Q27.628138 128.3823 28.221888 127.86667Q28.815638 127.33542 28.815638 126.55417Q28.815638 125.75729 28.221888 125.24167Q27.628138 124.72604 26.409388 124.72604Q25.253138 124.72604 24.659388 125.25729Q24.065638 125.77292 24.065638 126.55417Q24.065638 127.33542 24.659388 127.86667Q25.237513 128.3823 26.440638 128.3823ZM32.08126 121.38229L32.08126 122.13229Q29.268763 120.38229 26.440638 120.38229Q25.346888 120.38229 24.253138 120.63229Q23.378138 120.83542 22.565638 121.19479Q22.050013 121.42917 20.815638 122.13229L20.815638 121.38229Q22.284388 120.28854 23.768763 119.75729Q25.050013 119.30417 26.440638 119.30417Q28.018763 119.30417 29.503138 119.91354Q30.971888 120.52292 32.08126 121.38229Z" fill-rule="nonzero"/><path fill="#000000" d="M65.05 300.21564Q65.05 298.6844 65.3625 297.7625Q65.675 296.825 66.28438 296.325Q66.90938 295.825 67.84688 295.825Q68.53438 295.825 69.05 296.10626Q69.58125 296.3875 69.925 296.91876Q70.26875 297.4344 70.45625 298.1844Q70.64375 298.9344 70.64375 300.21564Q70.64375 301.73126 70.33125 302.65314Q70.03438 303.575 69.40938 304.09064Q68.8 304.59064 67.84688 304.59064Q66.6125 304.59064 65.89375 303.7Q65.05 302.6375 65.05 300.21564ZM66.12813 300.21564Q66.12813 302.325 66.62813 303.02814Q67.12813 303.73126 67.84688 303.73126Q68.58125 303.73126 69.06563 303.02814Q69.56563 302.325 69.56563 300.21564Q69.56563 298.09064 69.06563 297.40314Q68.58125 296.7 67.83125 296.7Q67.1125 296.7 66.675 297.3094Q66.12813 298.09064 66.12813 300.21564Z" fill-rule="nonzero"/><path fill="#000000" d="M63.596874 250.39272L63.596874 251.40834L57.909374 251.40834Q57.909374 251.03334 58.034374 250.67397Q58.253124 250.09584 58.721874 249.53334Q59.20625 248.97084 60.1125 248.23647Q61.51875 247.08022 62.003124 246.40834Q62.503124 245.73647 62.503124 245.14272Q62.503124 244.51772 62.05 244.09584Q61.596874 243.65834 60.878124 243.65834Q60.1125 243.65834 59.659374 244.11147Q59.20625 244.56459 59.190624 245.37709L58.1125 245.26772Q58.221874 244.04897 58.940624 243.42397Q59.675 242.78334 60.909374 242.78334Q62.14375 242.78334 62.8625 243.47084Q63.58125 244.15834 63.58125 245.17397Q63.58125 245.68959 63.3625 246.18959Q63.159374 246.67397 62.659374 247.23647Q62.175 247.78334 61.05 248.73647Q60.096874 249.53334 59.815624 249.83022Q59.55 250.11147 59.378124 250.39272L63.596874 250.39272ZM65.05 247.17397Q65.05 245.64272 65.3625 244.72084Q65.675 243.78334 66.28438 243.28334Q66.90938 242.78334 67.84688 242.78334Q68.53438 242.78334 69.05 243.06459Q69.58125 243.34584 69.925 243.87709Q70.26875 244.39272 70.45625 245.14272Q70.64375 245.89272 70.64375 247.17397Q70.64375 248.68959 70.33125 249.61147Q70.03438 250.53334 69.40938 251.04897Q68.8 251.54897 67.84688 251.54897Q66.6125 251.54897 65.89375 250.65834Q65.05 249.59584 65.05 247.17397ZM66.12813 247.17397Q66.12813 249.28334 66.62813 249.98647Q67.12813 250.68959 67.84688 250.68959Q68.58125 250.68959 69.06563 249.98647Q69.56563 249.28334 69.56563 247.17397Q69.56563 245.04897 69.06563 244.36147Q68.58125 243.65834 67.83125 243.65834Q67.1125 243.65834 66.675 244.26772Q66.12813 245.04897 66.12813 247.17397Z" fill-rule="nonzero"/><path fill="#000000" d="M61.425 198.36667L61.425 196.30417L57.70625 196.30417L57.70625 195.33542L61.628124 189.77292L62.4875 189.77292L62.4875 195.33542L63.64375 195.33542L63.64375 196.30417L62.4875 196.30417L62.4875 198.36667L61.425 198.36667ZM61.425 195.33542L61.425 191.47604L58.7375 195.33542L61.425 195.33542ZM65.05 194.1323Q65.05 192.60104 65.3625 191.67917Q65.675 190.74167 66.28438 190.24167Q66.90938 189.74167 67.84688 189.74167Q68.53438 189.74167 69.05 190.02292Q69.58125 190.30417 69.925 190.83542Q70.26875 191.35104 70.45625 192.10104Q70.64375 192.85104 70.64375 194.1323Q70.64375 195.64792 70.33125 196.5698Q70.03438 197.49167 69.40938 198.0073Q68.8 198.5073 67.84688 198.5073Q66.6125 198.5073 65.89375 197.61667Q65.05 196.55417 65.05 194.1323ZM66.12813 194.1323Q66.12813 196.24167 66.62813 196.9448Q67.12813 197.64792 67.84688 197.64792Q68.58125 197.64792 69.06563 196.9448Q69.56563 196.24167 69.56563 194.1323Q69.56563 192.0073 69.06563 191.3198Q68.58125 190.61667 67.83125 190.61667Q67.1125 190.61667 66.675 191.22604Q66.12813 192.0073 66.12813 194.1323Z" fill-rule="nonzero"/><path fill="#000000" d="M63.51875 138.84062L62.471874 138.91875Q62.33125 138.29375 62.08125 138.0125Q61.64375 137.55937 61.01875 137.55937Q60.51875 137.55937 60.128124 137.84062Q59.64375 138.21562 59.346874 138.91875Q59.065624 139.60625 59.05 140.8875Q59.425 140.30937 59.971874 140.02812Q60.534374 139.74687 61.14375 139.74687Q62.190624 139.74687 62.925 140.52812Q63.675 141.30937 63.675 142.52812Q63.675 143.34062 63.315624 144.04375Q62.971874 144.73125 62.3625 145.10625Q61.753124 145.46562 60.9875 145.46562Q59.659374 145.46562 58.83125 144.49687Q58.003124 143.52812 58.003124 141.30937Q58.003124 138.80937 58.925 137.68437Q59.721874 136.7 61.08125 136.7Q62.096874 136.7 62.7375 137.27812Q63.39375 137.84062 63.51875 138.84062ZM59.221874 142.54375Q59.221874 143.09062 59.440624 143.59062Q59.675 144.075 60.08125 144.34062Q60.503124 144.60625 60.971874 144.60625Q61.628124 144.60625 62.1125 144.075Q62.596874 143.52812 62.596874 142.60625Q62.596874 141.71562 62.1125 141.2Q61.64375 140.68437 60.925 140.68437Q60.20625 140.68437 59.70625 141.2Q59.221874 141.71562 59.221874 142.54375ZM65.05 141.09062Q65.05 139.55937 65.3625 138.6375Q65.675 137.7 66.28438 137.2Q66.90938 136.7 67.84688 136.7Q68.53438 136.7 69.05 136.98125Q69.58125 137.2625 69.925 137.79375Q70.26875 138.30937 70.45625 139.05937Q70.64375 139.80937 70.64375 141.09062Q70.64375 142.60625 70.33125 143.52812Q70.03438 144.45 69.40938 144.96562Q68.8 145.46562 67.84688 145.46562Q66.6125 145.46562 65.89375 144.575Q65.05 143.5125 65.05 141.09062ZM66.12813 141.09062Q66.12813 143.2 66.62813 143.90312Q67.12813 144.60625 67.84688 144.60625Q68.58125 144.60625 69.06563 143.90312Q69.56563 143.2 69.56563 141.09062Q69.56563 138.96562 69.06563 138.27812Q68.58125 137.575 67.83125 137.575Q67.1125 137.575 66.675 138.18437Q66.12813 138.96562 66.12813 141.09062Z" fill-rule="nonzero"/><path fill="#000000" d="M59.675 87.62708Q59.01875 87.37708 58.690624 86.93958Q58.378124 86.48646 58.378124 85.87708Q58.378124 84.93958 59.05 84.29896Q59.7375 83.65833 60.846874 83.65833Q61.971874 83.65833 62.659374 84.31458Q63.346874 84.97083 63.346874 85.90833Q63.346874 86.50208 63.034374 86.93958Q62.721874 87.37708 62.08125 87.62708Q62.878124 87.87708 63.284374 88.45521Q63.690624 89.03333 63.690624 89.83021Q63.690624 90.92396 62.909374 91.67396Q62.14375 92.42396 60.8625 92.42396Q59.596874 92.42396 58.815624 91.67396Q58.034374 90.92396 58.034374 89.79896Q58.034374 88.95521 58.45625 88.39271Q58.89375 87.83021 59.675 87.62708ZM59.45625 85.83021Q59.45625 86.43958 59.846874 86.83021Q60.253124 87.22083 60.878124 87.22083Q61.4875 87.22083 61.878124 86.84583Q62.26875 86.45521 62.26875 85.89271Q62.26875 85.31458 61.8625 84.92396Q61.45625 84.51771 60.8625 84.51771Q60.253124 84.51771 59.846874 84.90833Q59.45625 85.29896 59.45625 85.83021ZM59.128124 89.79896Q59.128124 90.25208 59.33125 90.67396Q59.55 91.09583 59.971874 91.33021Q60.39375 91.56458 60.878124 91.56458Q61.628124 91.56458 62.1125 91.08021Q62.6125 90.59583 62.6125 89.84583Q62.6125 89.08021 62.1125 88.58021Q61.6125 88.08021 60.846874 88.08021Q60.096874 88.08021 59.6125 88.58021Q59.128124 89.06458 59.128124 89.79896ZM65.05 88.04896Q65.05 86.51771 65.3625 85.59583Q65.675 84.65833 66.28438 84.15833Q66.90938 83.65833 67.84688 83.65833Q68.53438 83.65833 69.05 83.93958Q69.58125 84.22083 69.925 84.75208Q70.26875 85.26771 70.45625 86.01771Q70.64375 86.76771 70.64375 88.04896Q70.64375 89.56458 70.33125 90.48646Q70.03438 91.40833 69.40938 91.92396Q68.8 92.42396 67.84688 92.42396Q66.6125 92.42396 65.89375 91.53333Q65.05 90.47083 65.05 88.04896ZM66.12813 88.04896Q66.12813 90.15833 66.62813 90.86146Q67.12813 91.56458 67.84688 91.56458Q68.58125 91.56458 69.06563 90.86146Q69.56563 90.15833 69.56563 88.04896Q69.56563 85.92396 69.06563 85.23646Q68.58125 84.53333 67.83125 84.53333Q67.1125 84.53333 66.675 85.14271Q66.12813 85.92396 66.12813 88.04896Z" fill-rule="nonzero"/><path fill="#000000" d="M78.51875 317.45L77.47188 317.45L77.47188 310.73126Q77.08125 311.09064 76.45625 311.46564Q75.84688 311.825 75.3625 311.9969L75.3625 310.98126Q76.2375 310.5594 76.89375 309.98126Q77.56563 309.3875 77.84688 308.825L78.51875 308.825L78.51875 317.45Z" fill-rule="nonzero"/><path fill="#000000" d="M189.47195 317.45L188.42508 317.45L188.42508 310.73126Q188.03445 311.09064 187.40945 311.46564Q186.80008 311.825 186.3157 311.9969L186.3157 310.98126Q187.1907 310.5594 187.84695 309.98126Q188.51883 309.3875 188.80008 308.825L189.47195 308.825L189.47195 317.45ZM192.5032 313.21564Q192.5032 311.6844 192.8157 310.7625Q193.1282 309.825 193.73758 309.325Q194.36258 308.825 195.30008 308.825Q195.98758 308.825 196.5032 309.10626Q197.03445 309.3875 197.3782 309.91876Q197.72195 310.4344 197.90945 311.1844Q198.09695 311.9344 198.09695 313.21564Q198.09695 314.73126 197.78445 315.65314Q197.48758 316.575 196.86258 317.09064Q196.2532 317.59064 195.30008 317.59064Q194.0657 317.59064 193.34695 316.7Q192.5032 315.6375 192.5032 313.21564ZM193.58133 313.21564Q193.58133 315.325 194.08133 316.02814Q194.58133 316.73126 195.30008 316.73126Q196.03445 316.73126 196.51883 316.02814Q197.01883 315.325 197.01883 313.21564Q197.01883 311.09064 196.51883 310.40314Q196.03445 309.7 195.28445 309.7Q194.5657 309.7 194.1282 310.3094Q193.58133 311.09064 193.58133 313.21564Z" fill-rule="nonzero"/><path fill="#000000" d="M300.42514 317.45L299.37827 317.45L299.37827 310.73126Q298.98764 311.09064 298.36264 311.46564Q297.75327 311.825 297.2689 311.9969L297.2689 310.98126Q298.1439 310.5594 298.80014 309.98126Q299.47202 309.3875 299.75327 308.825L300.42514 308.825L300.42514 317.45ZM303.4564 313.21564Q303.4564 311.6844 303.7689 310.7625Q304.0814 309.825 304.69077 309.325Q305.31577 308.825 306.25327 308.825Q306.94077 308.825 307.4564 309.10626Q307.98764 309.3875 308.3314 309.91876Q308.67514 310.4344 308.86264 311.1844Q309.05014 311.9344 309.05014 313.21564Q309.05014 314.73126 308.73764 315.65314Q308.44077 316.575 307.81577 317.09064Q307.2064 317.59064 306.25327 317.59064Q305.0189 317.59064 304.30014 316.7Q303.4564 315.6375 303.4564 313.21564ZM304.53452 313.21564Q304.53452 315.325 305.03452 316.02814Q305.53452 316.73126 306.25327 316.73126Q306.98764 316.73126 307.47202 316.02814Q307.97202 315.325 307.97202 313.21564Q307.97202 311.09064 307.47202 310.40314Q306.98764 309.7 306.23764 309.7Q305.5189 309.7 305.0814 310.3094Q304.53452 311.09064 304.53452 313.21564ZM310.4564 313.21564Q310.4564 311.6844 310.7689 310.7625Q311.0814 309.825 311.69077 309.325Q312.31577 308.825 313.25327 308.825Q313.94077 308.825 314.4564 309.10626Q314.98764 309.3875 315.3314 309.91876Q315.67514 310.4344 315.86264 311.1844Q316.05014 311.9344 316.05014 313.21564Q316.05014 314.73126 315.73764 315.65314Q315.44077 316.575 314.81577 317.09064Q314.2064 317.59064 313.25327 317.59064Q312.0189 317.59064 311.30014 316.7Q310.4564 315.6375 310.4564 313.21564ZM311.53452 313.21564Q311.53452 315.325 312.03452 316.02814Q312.53452 316.73126 313.25327 316.73126Q313.98764 316.73126 314.47202 316.02814Q314.97202 315.325 314.97202 313.21564Q314.97202 311.09064 314.47202 310.40314Q313.98764 309.7 313.23764 309.7Q312.5189 309.7 312.0814 310.3094Q311.53452 311.09064 311.53452 313.21564Z" fill-rule="nonzero"/><path fill="#000000" d="M411.37836 317.45L410.33148 317.45L410.33148 310.73126Q409.94086 311.09064 409.31586 311.46564Q408.70648 311.825 408.2221 311.9969L408.2221 310.98126Q409.0971 310.5594 409.75336 309.98126Q410.42523 309.3875 410.70648 308.825L411.37836 308.825L411.37836 317.45ZM414.4096 313.21564Q414.4096 311.6844 414.7221 310.7625Q415.0346 309.825 415.64398 309.325Q416.26898 308.825 417.20648 308.825Q417.89398 308.825 418.4096 309.10626Q418.94086 309.3875 419.2846 309.91876Q419.62836 310.4344 419.81586 311.1844Q420.00336 311.9344 420.00336 313.21564Q420.00336 314.73126 419.69086 315.65314Q419.39398 316.575 418.76898 317.09064Q418.1596 317.59064 417.20648 317.59064Q415.9721 317.59064 415.25336 316.7Q414.4096 315.6375 414.4096 313.21564ZM415.48773 313.21564Q415.48773 315.325 415.98773 316.02814Q416.48773 316.73126 417.20648 316.73126Q417.94086 316.73126 418.42523 316.02814Q418.92523 315.325 418.92523 313.21564Q418.92523 311.09064 418.42523 310.40314Q417.94086 309.7 417.19086 309.7Q416.4721 309.7 416.0346 310.3094Q415.48773 311.09064 415.48773 313.21564ZM421.4096 313.21564Q421.4096 311.6844 421.7221 310.7625Q422.0346 309.825 422.64398 309.325Q423.26898 308.825 424.20648 308.825Q424.89398 308.825 425.4096 309.10626Q425.94086 309.3875 426.2846 309.91876Q426.62836 310.4344 426.81586 311.1844Q427.00336 311.9344 427.00336 313.21564Q427.00336 314.73126 426.69086 315.65314Q426.39398 316.575 425.76898 317.09064Q425.1596 317.59064 424.20648 317.59064Q422.9721 317.59064 422.25336 316.7Q421.4096 315.6375 421.4096 313.21564ZM422.48773 313.21564Q422.48773 315.325 422.98773 316.02814Q423.48773 316.73126 424.20648 316.73126Q424.94086 316.73126 425.42523 316.02814Q425.92523 315.325 425.92523 313.21564Q425.92523 311.09064 425.42523 310.40314Q424.94086 309.7 424.19086 309.7Q423.4721 309.7 423.0346 310.3094Q422.48773 311.09064 422.48773 313.21564ZM428.4096 313.21564Q428.4096 311.6844 428.7221 310.7625Q429.0346 309.825 429.64398 309.325Q430.26898 308.825 431.20648 308.825Q431.89398 308.825 432.4096 309.10626Q432.94086 309.3875 433.2846 309.91876Q433.62836 310.4344 433.81586 311.1844Q434.00336 311.9344 434.00336 313.21564Q434.00336 314.73126 433.69086 315.65314Q433.39398 316.575 432.76898 317.09064Q432.1596 317.59064 431.20648 317.59064Q429.9721 317.59064 429.25336 316.7Q428.4096 315.6375 428.4096 313.21564ZM429.48773 313.21564Q429.48773 315.325 429.98773 316.02814Q430.48773 316.73126 431.20648 316.73126Q431.94086 316.73126 432.42523 316.02814Q432.92523 315.325 432.92523 313.21564Q432.92523 311.09064 432.42523 310.40314Q431.94086 309.7 431.19086 309.7Q430.4721 309.7 430.0346 310.3094Q429.48773 311.09064 429.48773 313.21564Z" fill-rule="nonzero"/><path stroke="#ea4335" stroke-width="4.0" stroke-linecap="butt" d="M239.5 61.916668L251.5 61.916668" fill-rule="nonzero"/><path fill="#1a1a1a" d="M260.42188 65.916664L260.42188 57.322914L263.67188 57.322914Q264.51562 57.322914 264.96875 57.40104Q265.60938 57.510414 266.03125 57.80729Q266.46875 58.104164 266.71875 58.635414Q266.98438 59.166664 266.98438 59.80729Q266.98438 60.90104 266.28125 61.666664Q265.59375 62.416664 263.76562 62.416664L261.5625 62.416664L261.5625 65.916664L260.42188 65.916664ZM261.5625 61.416664L263.78125 61.416664Q264.89062 61.416664 265.34375 61.010414Q265.8125 60.58854 265.8125 59.83854Q265.8125 59.30729 265.53125 58.93229Q265.26562 58.541664 264.82812 58.416664Q264.53125 58.33854 263.76562 58.33854L261.5625 58.33854L261.5625 61.416664ZM272.35938 65.15104Q271.76562 65.65104 271.21875 65.854164Q270.6875 66.05729 270.0625 66.05729Q269.03125 66.05729 268.48438 65.55729Q267.9375 65.05729 267.9375 64.27604Q267.9375 63.822914 268.14062 63.447914Q268.34375 63.05729 268.6875 62.83854Q269.03125 62.604164 269.45312 62.49479Q269.75 62.40104 270.39062 62.322914Q271.65625 62.18229 272.26562 61.96354Q272.26562 61.74479 272.26562 61.697914Q272.26562 61.041664 271.96875 60.77604Q271.5625 60.43229 270.76562 60.43229Q270.03125 60.43229 269.67188 60.697914Q269.3125 60.947914 269.14062 61.604164L268.10938 61.46354Q268.25 60.80729 268.57812 60.40104Q268.90625 59.99479 269.51562 59.77604Q270.125 59.55729 270.92188 59.55729Q271.71875 59.55729 272.21875 59.74479Q272.71875 59.93229 272.95312 60.21354Q273.1875 60.49479 273.28125 60.93229Q273.32812 61.197914 273.32812 61.90104L273.32812 63.30729Q273.32812 64.77604 273.39062 65.166664Q273.46875 65.55729 273.67188 65.916664L272.5625 65.916664Q272.40625 65.58854 272.35938 65.15104ZM272.26562 62.791664Q271.6875 63.02604 270.54688 63.197914Q269.89062 63.291664 269.625 63.416664Q269.35938 63.52604 269.20312 63.74479Q269.0625 63.96354 269.0625 64.24479Q269.0625 64.666664 269.375 64.947914Q269.70312 65.229164 270.3125 65.229164Q270.92188 65.229164 271.39062 64.96354Q271.875 64.697914 272.09375 64.229164Q272.26562 63.86979 272.26562 63.18229L272.26562 62.791664ZM277.59375 64.979164L277.75 65.90104Q277.29688 65.99479 276.95312 65.99479Q276.375 65.99479 276.0625 65.822914Q275.75 65.635414 275.60938 65.33854Q275.48438 65.041664 275.48438 64.08854L275.48438 60.510414L274.71875 60.510414L274.71875 59.697914L275.48438 59.697914L275.48438 58.15104L276.53125 57.52604L276.53125 59.697914L277.59375 59.697914L277.59375 60.510414L276.53125 60.510414L276.53125 64.15104Q276.53125 64.604164 276.57812 64.729164Q276.64062 64.854164 276.76562 64.93229Q276.89062 65.010414 277.125 65.010414Q277.3125 65.010414 277.59375 64.979164ZM282.35938 63.635414L283.39062 63.77604Q283.21875 64.83854 282.51562 65.447914Q281.8125 66.05729 280.79688 66.05729Q279.51562 66.05729 278.73438 65.229164Q277.96875 64.385414 277.96875 62.822914Q277.96875 61.822914 278.29688 61.072914Q278.64062 60.30729 279.3125 59.93229Q280.0 59.55729 280.8125 59.55729Q281.8125 59.55729 282.45312 60.072914Q283.10938 60.572914 283.29688 61.52604L282.26562 61.68229Q282.125 61.05729 281.75 60.74479Q281.375 60.416664 280.84375 60.416664Q280.04688 60.416664 279.54688 60.99479Q279.04688 61.55729 279.04688 62.791664Q279.04688 64.05729 279.53125 64.61979Q280.01562 65.18229 280.78125 65.18229Q281.40625 65.18229 281.8125 64.80729Q282.23438 64.43229 282.35938 63.635414ZM284.29688 65.916664L284.29688 57.322914L285.34375 57.322914L285.34375 60.40104Q286.07812 59.55729 287.20312 59.55729Q287.90625 59.55729 288.40625 59.83854Q288.92188 60.104164 289.14062 60.58854Q289.35938 61.05729 289.35938 61.979164L289.35938 65.916664L288.3125 65.916664L288.3125 61.979164Q288.3125 61.18229 287.96875 60.822914Q287.625 60.46354 287.0 60.46354Q286.53125 60.46354 286.10938 60.71354Q285.70312 60.947914 285.51562 61.36979Q285.34375 61.77604 285.34375 62.510414L285.34375 65.916664L284.29688 65.916664ZM295.54688 63.916664L296.64062 64.041664Q296.39062 64.99479 295.6875 65.52604Q294.98438 66.05729 293.90625 66.05729Q292.54688 66.05729 291.73438 65.21354Q290.9375 64.36979 290.9375 62.854164Q290.9375 61.291664 291.75 60.43229Q292.5625 59.55729 293.84375 59.55729Q295.09375 59.55729 295.875 60.40104Q296.67188 61.24479 296.67188 62.791664Q296.67188 62.885414 296.67188 63.072914L292.03125 63.072914Q292.09375 64.104164 292.60938 64.65104Q293.125 65.18229 293.90625 65.18229Q294.48438 65.18229 294.89062 64.885414Q295.3125 64.572914 295.54688 63.916664ZM292.09375 62.21354L295.5625 62.21354Q295.5 61.416664 295.17188 61.02604Q294.65625 60.416664 293.85938 60.416664Q293.125 60.416664 292.625 60.90104Q292.14062 61.385414 292.09375 62.21354ZM302.32812 65.916664L302.32812 65.135414Q301.73438 66.05729 300.59375 66.05729Q299.84375 66.05729 299.21875 65.65104Q298.59375 65.229164 298.25 64.49479Q297.90625 63.760414 297.90625 62.80729Q297.90625 61.885414 298.21875 61.11979Q298.53125 60.354164 299.15625 59.96354Q299.78125 59.55729 300.54688 59.55729Q301.10938 59.55729 301.54688 59.791664Q301.98438 60.02604 302.26562 60.40104L302.26562 57.322914L303.3125 57.322914L303.3125 65.916664L302.32812 65.916664ZM299.0 62.80729Q299.0 64.010414 299.5 64.604164Q300.0 65.18229 300.6875 65.18229Q301.375 65.18229 301.85938 64.61979Q302.34375 64.05729 302.34375 62.90104Q302.34375 61.61979 301.84375 61.02604Q301.35938 60.43229 300.64062 60.43229Q299.9375 60.43229 299.46875 61.010414Q299.0 61.572914 299.0 62.80729Z" fill-rule="nonzero"/><path fill="#757575" d="M114.203125 37.55L110.25 27.175L112.109375 27.175L114.34375 33.39375Q114.703125 34.39375 115.0 35.471874Q115.234375 34.659374 115.65625 33.503124L117.953125 27.175L119.765625 27.175L115.84375 37.55L114.203125 37.55ZM120.28125 37.55L120.28125 23.2375L122.03125 23.2375L122.03125 37.55L120.28125 37.55ZM131.42188 34.20625L133.23438 34.440624Q132.8125 36.01875 131.64062 36.909374Q130.48438 37.784374 128.67188 37.784374Q126.40625 37.784374 125.0625 36.39375Q123.734375 34.9875 123.734375 32.45625Q123.734375 29.83125 125.078125 28.39375Q126.421875 26.940624 128.57812 26.940624Q130.65625 26.940624 131.96875 28.3625Q133.29688 29.76875 133.29688 32.346874Q133.29688 32.503124 133.28125 32.815624L125.546875 32.815624Q125.640625 34.51875 126.515625 35.425Q127.390625 36.33125 128.6875 36.33125Q129.65625 36.33125 130.32812 35.83125Q131.01562 35.315624 131.42188 34.20625ZM125.640625 31.3625L131.4375 31.3625Q131.32812 30.065624 130.78125 29.409374Q129.9375 28.39375 128.59375 28.39375Q127.390625 28.39375 126.5625 29.20625Q125.734375 30.003124 125.640625 31.3625ZM137.53125 29.784374Q136.4375 29.378124 135.90625 28.64375Q135.39062 27.89375 135.39062 26.8625Q135.39062 25.3 136.51562 24.2375Q137.64062 23.175 139.5 23.175Q141.375 23.175 142.51562 24.26875Q143.65625 25.346874 143.65625 26.909374Q143.65625 27.909374 143.125 28.64375Q142.60938 29.378124 141.54688 29.784374Q142.875 30.221874 143.5625 31.175Q144.25 32.128124 144.25 33.45625Q144.25 35.3 142.9375 36.55Q141.64062 37.8 139.53125 37.8Q137.40625 37.8 136.10938 36.55Q134.8125 35.284374 134.8125 33.409374Q134.8125 32.01875 135.51562 31.08125Q136.23438 30.128124 137.53125 29.784374ZM137.1875 26.8Q137.1875 27.815624 137.84375 28.471874Q138.5 29.1125 139.53125 29.1125Q140.54688 29.1125 141.20312 28.471874Q141.85938 27.83125 141.85938 26.909374Q141.85938 25.940624 141.1875 25.284374Q140.51562 24.6125 139.51562 24.6125Q138.51562 24.6125 137.84375 25.26875Q137.1875 25.909374 137.1875 26.8ZM136.625 33.425Q136.625 34.175 136.96875 34.878124Q137.32812 35.58125 138.03125 35.971874Q138.73438 36.346874 139.54688 36.346874Q140.8125 36.346874 141.625 35.534374Q142.45312 34.721874 142.45312 33.471874Q142.45312 32.20625 141.60938 31.378124Q140.76562 30.55 139.48438 30.55Q138.25 30.55 137.4375 31.378124Q136.625 32.190624 136.625 33.425ZM146.8125 37.55L146.8125 35.55L148.8125 35.55L148.8125 37.55L146.8125 37.55ZM155.20312 37.55L151.25 27.175L153.10938 27.175L155.34375 33.39375Q155.70312 34.39375 156.0 35.471874Q156.23438 34.659374 156.65625 33.503124L158.95312 27.175L160.76562 27.175L156.84375 37.55L155.20312 37.55ZM166.60938 34.45625L168.35938 34.175Q168.5 35.221874 169.17188 35.784374Q169.84375 36.33125 171.04688 36.33125Q172.25 36.33125 172.82812 35.846874Q173.42188 35.346874 173.42188 34.690624Q173.42188 34.096874 172.90625 33.753124Q172.54688 33.51875 171.10938 33.159374Q169.17188 32.659374 168.42188 32.315624Q167.6875 31.95625 167.29688 31.33125Q166.90625 30.690624 166.90625 29.925Q166.90625 29.2375 167.21875 28.64375Q167.54688 28.05 168.09375 27.659374Q168.5 27.3625 169.20312 27.159374Q169.92188 26.940624 170.73438 26.940624Q171.95312 26.940624 172.875 27.3Q173.79688 27.64375 174.23438 28.253124Q174.67188 28.846874 174.84375 29.846874L173.125 30.08125Q173.0 29.284374 172.4375 28.846874Q171.875 28.39375 170.85938 28.39375Q169.64062 28.39375 169.125 28.8Q168.60938 29.190624 168.60938 29.721874Q168.60938 30.065624 168.82812 30.346874Q169.03125 30.628124 169.5 30.815624Q169.76562 30.909374 171.04688 31.253124Q172.92188 31.753124 173.65625 32.08125Q174.39062 32.39375 174.8125 33.003124Q175.23438 33.596874 175.23438 34.503124Q175.23438 35.378124 174.71875 36.159374Q174.20312 36.940624 173.23438 37.3625Q172.26562 37.784374 171.04688 37.784374Q169.03125 37.784374 167.96875 36.940624Q166.90625 36.096874 166.60938 34.45625ZM177.3125 41.51875L177.3125 27.175L178.92188 27.175L178.92188 28.51875Q179.48438 27.7375 180.1875 27.346874Q180.90625 26.940624 181.92188 26.940624Q183.25 26.940624 184.26562 27.628124Q185.28125 28.315624 185.79688 29.565624Q186.32812 30.8 186.32812 32.284374Q186.32812 33.878124 185.75 35.159374Q185.1875 36.425 184.09375 37.1125Q183.0 37.784374 181.79688 37.784374Q180.92188 37.784374 180.21875 37.409374Q179.53125 37.034374 179.07812 36.471874L179.07812 41.51875L177.3125 41.51875ZM178.90625 32.425Q178.90625 34.425 179.71875 35.378124Q180.53125 36.33125 181.6875 36.33125Q182.85938 36.33125 183.6875 35.346874Q184.53125 34.3625 184.53125 32.26875Q184.53125 30.3 183.70312 29.315624Q182.89062 28.315624 181.76562 28.315624Q180.64062 28.315624 179.76562 29.378124Q178.90625 30.425 178.90625 32.425ZM195.42188 34.20625L197.23438 34.440624Q196.8125 36.01875 195.64062 36.909374Q194.48438 37.784374 192.67188 37.784374Q190.40625 37.784374 189.0625 36.39375Q187.73438 34.9875 187.73438 32.45625Q187.73438 29.83125 189.07812 28.39375Q190.42188 26.940624 192.57812 26.940624Q194.65625 26.940624 195.96875 28.3625Q197.29688 29.76875 197.29688 32.346874Q197.29688 32.503124 197.28125 32.815624L189.54688 32.815624Q189.64062 34.51875 190.51562 35.425Q191.39062 36.33125 192.6875 36.33125Q193.65625 36.33125 194.32812 35.83125Q195.01562 35.315624 195.42188 34.20625ZM189.64062 31.3625L195.4375 31.3625Q195.32812 30.065624 194.78125 29.409374Q193.9375 28.39375 192.59375 28.39375Q191.39062 28.39375 190.5625 29.20625Q189.73438 30.003124 189.64062 31.3625ZM206.42188 34.20625L208.23438 34.440624Q207.8125 36.01875 206.64062 36.909374Q205.48438 37.784374 203.67188 37.784374Q201.40625 37.784374 200.0625 36.39375Q198.73438 34.9875 198.73438 32.45625Q198.73438 29.83125 200.07812 28.39375Q201.42188 26.940624 203.57812 26.940624Q205.65625 26.940624 206.96875 28.3625Q208.29688 29.76875 208.29688 32.346874Q208.29688 32.503124 208.28125 32.815624L200.54688 32.815624Q200.64062 34.51875 201.51562 35.425Q202.39062 36.33125 203.6875 36.33125Q204.65625 36.33125 205.32812 35.83125Q206.01562 35.315624 206.42188 34.20625ZM200.64062 31.3625L206.4375 31.3625Q206.32812 30.065624 205.78125 29.409374Q204.9375 28.39375 203.59375 28.39375Q202.39062 28.39375 201.5625 29.20625Q200.73438 30.003124 200.64062 31.3625ZM217.04688 37.55L217.04688 36.2375Q216.0625 37.784374 214.14062 37.784374Q212.90625 37.784374 211.85938 37.096874Q210.82812 36.409374 210.25 35.190624Q209.6875 33.971874 209.6875 32.378124Q209.6875 30.815624 210.20312 29.55Q210.71875 28.284374 211.75 27.6125Q212.79688 26.940624 214.0625 26.940624Q215.0 26.940624 215.73438 27.346874Q216.46875 27.7375 216.9375 28.3625L216.9375 23.2375L218.67188 23.2375L218.67188 37.55L217.04688 37.55ZM211.48438 32.378124Q211.48438 34.3625 212.32812 35.346874Q213.17188 36.33125 214.3125 36.33125Q215.46875 36.33125 216.26562 35.39375Q217.07812 34.45625 217.07812 32.51875Q217.07812 30.39375 216.25 29.39375Q215.4375 28.39375 214.23438 28.39375Q213.0625 28.39375 212.26562 29.3625Q211.48438 30.315624 211.48438 32.378124ZM228.10938 37.55L228.10938 36.01875Q226.90625 37.784374 224.82812 37.784374Q223.90625 37.784374 223.10938 37.440624Q222.3125 37.08125 221.92188 36.55Q221.54688 36.01875 221.39062 35.2375Q221.28125 34.721874 221.28125 33.596874L221.28125 27.175L223.03125 27.175L223.03125 32.925Q223.03125 34.3 223.14062 34.784374Q223.3125 35.471874 223.84375 35.878124Q224.39062 36.26875 225.17188 36.26875Q225.96875 36.26875 226.65625 35.8625Q227.35938 35.45625 227.64062 34.76875Q227.9375 34.065624 227.9375 32.7375L227.9375 27.175L229.6875 27.175L229.6875 37.55L228.10938 37.55ZM231.3125 41.51875L231.3125 27.175L232.92188 27.175L232.92188 28.51875Q233.48438 27.7375 234.1875 27.346874Q234.90625 26.940624 235.92188 26.940624Q237.25 26.940624 238.26562 27.628124Q239.28125 28.315624 239.79688 29.565624Q240.32812 30.8 240.32812 32.284374Q240.32812 33.878124 239.75 35.159374Q239.1875 36.425 238.09375 37.1125Q237.0 37.784374 235.79688 37.784374Q234.92188 37.784374 234.21875 37.409374Q233.53125 37.034374 233.07812 36.471874L233.07812 41.51875L231.3125 41.51875ZM232.90625 32.425Q232.90625 34.425 233.71875 35.378124Q234.53125 36.33125 235.6875 36.33125Q236.85938 36.33125 237.6875 35.346874Q238.53125 34.3625 238.53125 32.26875Q238.53125 30.3 237.70312 29.315624Q236.89062 28.315624 235.76562 28.315624Q234.64062 28.315624 233.76562 29.378124Q232.90625 30.425 232.90625 32.425ZM252.64062 37.55L247.09375 23.2375L249.14062 23.2375L252.85938 33.628124Q253.3125 34.878124 253.60938 35.971874Q253.9375 34.8 254.39062 33.628124L258.25 23.2375L260.1875 23.2375L254.57812 37.55L252.64062 37.55ZM261.46875 37.55L261.46875 23.2375L263.35938 23.2375L263.35938 35.8625L270.40625 35.8625L270.40625 37.55L261.46875 37.55ZM272.57812 37.55L272.57812 23.2375L282.9375 23.2375L282.9375 24.925L274.48438 24.925L274.48438 29.3L282.39062 29.3L282.39062 30.9875L274.48438 30.9875L274.48438 35.8625L283.26562 35.8625L283.26562 37.55L272.57812 37.55ZM285.53125 37.55L285.53125 23.2375L287.46875 23.2375L294.98438 34.471874L294.98438 23.2375L296.79688 23.2375L296.79688 37.55L294.85938 37.55L287.34375 26.3L287.34375 37.55L285.53125 37.55ZM307.5625 29.128124L298.10938 29.128124L298.10938 27.4875L307.5625 27.4875L307.5625 29.128124ZM307.5625 33.471874L298.10938 33.471874L298.10938 31.83125L307.5625 31.83125L307.5625 33.471874ZM316.45312 37.55L314.6875 37.55L314.6875 26.346874Q314.0625 26.95625 313.03125 27.565624Q312.0 28.159374 311.17188 28.471874L311.17188 26.76875Q312.65625 26.08125 313.75 25.096874Q314.85938 24.096874 315.3125 23.175L316.45312 23.175L316.45312 37.55ZM320.82812 30.4875Q320.82812 27.95625 321.34375 26.409374Q321.875 24.846874 322.90625 24.01875Q323.9375 23.175 325.5 23.175Q326.65625 23.175 327.51562 23.64375Q328.39062 24.096874 328.95312 24.971874Q329.51562 25.846874 329.84375 27.1125Q330.17188 28.3625 330.17188 30.4875Q330.17188 33.003124 329.64062 34.55Q329.125 36.096874 328.09375 36.95625Q327.07812 37.8 325.5 37.8Q323.42188 37.8 322.25 36.315624Q320.82812 34.51875 320.82812 30.4875ZM322.64062 30.4875Q322.64062 34.01875 323.45312 35.190624Q324.28125 36.346874 325.5 36.346874Q326.70312 36.346874 327.53125 35.175Q328.35938 34.003124 328.35938 30.4875Q328.35938 26.95625 327.53125 25.8Q326.70312 24.628124 325.48438 24.628124Q324.26562 24.628124 323.54688 25.659374Q322.64062 26.95625 322.64062 30.4875ZM341.0625 35.8625L341.0625 37.55L331.60938 37.55Q331.59375 36.909374 331.8125 36.33125Q332.17188 35.3625 332.96875 34.425Q333.76562 33.4875 335.26562 32.253124Q337.60938 30.346874 338.42188 29.2375Q339.25 28.1125 339.25 27.1125Q339.25 26.065624 338.5 25.346874Q337.75 24.628124 336.54688 24.628124Q335.28125 24.628124 334.51562 25.39375Q333.75 26.159374 333.75 27.503124L331.9375 27.315624Q332.125 25.3 333.32812 24.2375Q334.54688 23.175 336.59375 23.175Q338.64062 23.175 339.84375 24.315624Q341.04688 25.45625 341.04688 27.14375Q341.04688 28.003124 340.6875 28.846874Q340.34375 29.675 339.53125 30.596874Q338.71875 31.503124 336.82812 33.1125Q335.23438 34.440624 334.78125 34.909374Q334.34375 35.378124 334.04688 35.8625L341.0625 35.8625ZM348.46875 37.55L348.46875 34.128124L342.25 34.128124L342.25 32.503124L348.78125 23.2375L350.21875 23.2375L350.21875 32.503124L352.15625 32.503124L352.15625 34.128124L350.21875 34.128124L350.21875 37.55L348.46875 37.55ZM348.46875 32.503124L348.46875 26.05L343.98438 32.503124L348.46875 32.503124ZM360.46875 37.55L360.46875 23.2375L362.35938 23.2375L362.35938 35.8625L369.40625 35.8625L369.40625 37.55L360.46875 37.55ZM371.48438 37.55L371.48438 23.2375L374.34375 23.2375L377.71875 33.3625Q378.1875 34.784374 378.40625 35.4875Q378.65625 34.70625 379.17188 33.190624L382.59375 23.2375L385.14062 23.2375L385.14062 37.55L383.32812 37.55L383.32812 25.565624L379.15625 37.55L377.45312 37.55L373.3125 25.3625L373.3125 37.55L371.48438 37.55ZM397.9375 23.2375L399.82812 23.2375L399.82812 31.503124Q399.82812 33.659374 399.34375 34.940624Q398.85938 36.20625 397.57812 37.003124Q396.3125 37.8 394.23438 37.8Q392.21875 37.8 390.9375 37.1125Q389.67188 36.409374 389.125 35.096874Q388.57812 33.784374 388.57812 31.503124L388.57812 23.2375L390.46875 23.2375L390.46875 31.4875Q390.46875 33.3625 390.8125 34.253124Q391.15625 35.128124 392.0 35.6125Q392.84375 36.08125 394.07812 36.08125Q396.15625 36.08125 397.04688 35.14375Q397.9375 34.190624 397.9375 31.4875L397.9375 23.2375ZM401.46875 37.55L401.46875 23.2375L403.35938 23.2375L403.35938 35.8625L410.40625 35.8625L410.40625 37.55L401.46875 37.55ZM421.5625 29.128124L412.10938 29.128124L412.10938 27.4875L421.5625 27.4875L421.5625 29.128124ZM421.5625 33.471874L412.10938 33.471874L412.10938 31.83125L421.5625 31.83125L421.5625 33.471874ZM426.53125 29.784374Q425.4375 29.378124 424.90625 28.64375Q424.39062 27.89375 424.39062 26.8625Q424.39062 25.3 425.51562 24.2375Q426.64062 23.175 428.5 23.175Q430.375 23.175 431.51562 24.26875Q432.65625 25.346874 432.65625 26.909374Q432.65625 27.909374 432.125 28.64375Q431.60938 29.378124 430.54688 29.784374Q431.875 30.221874 432.5625 31.175Q433.25 32.128124 433.25 33.45625Q433.25 35.3 431.9375 36.55Q430.64062 37.8 428.53125 37.8Q426.40625 37.8 425.10938 36.55Q423.8125 35.284374 423.8125 33.409374Q423.8125 32.01875 424.51562 31.08125Q425.23438 30.128124 426.53125 29.784374ZM426.1875 26.8Q426.1875 27.815624 426.84375 28.471874Q427.5 29.1125 428.53125 29.1125Q429.54688 29.1125 430.20312 28.471874Q430.85938 27.83125 430.85938 26.909374Q430.85938 25.940624 430.1875 25.284374Q429.51562 24.6125 428.51562 24.6125Q427.51562 24.6125 426.84375 25.26875Q426.1875 25.909374 426.1875 26.8ZM425.625 33.425Q425.625 34.175 425.96875 34.878124Q426.32812 35.58125 427.03125 35.971874Q427.73438 36.346874 428.54688 36.346874Q429.8125 36.346874 430.625 35.534374Q431.45312 34.721874 431.45312 33.471874Q431.45312 32.20625 430.60938 31.378124Q429.76562 30.55 428.48438 30.55Q427.25 30.55 426.4375 31.378124Q425.625 32.190624 425.625 33.425Z" fill-rule="nonzero"/></svg>