<svg version="1.1" viewBox="0.0 0.0 544.0 371.0" fill="none" stroke="none" stroke-linecap="square" stroke-miterlimit="10" width="544" height="371" xmlns:xlink="http://www.w3.org/1999/xlink" xmlns="http://www.w3.org/2000/svg"><path fill="#ffffff" d="M0 0L544.0 0L544.0 371.0L0 371.0L0 0Z" fill-rule="nonzero"/><path stroke="#cccccc" stroke-width="1.0" stroke-linecap="butt" d="M77.5 88.5L77.5 300.5" fill-rule="nonzero"/><path stroke="#cccccc" stroke-width="1.0" stroke-linecap="butt" d="M212.5 88.5L212.5 300.5" fill-rule="nonzero"/><path stroke="#cccccc" stroke-width="1.0" stroke-linecap="butt" d="M348.5 88.5L348.5 300.5" fill-rule="nonzero"/><path stroke="#cccccc" stroke-width="1.0" stroke-linecap="butt" d="M483.5 88.5L483.5 300.5" fill-rule="nonzero"/><path stroke="#333333" stroke-width="1.0" stroke-linecap="butt" d="M77.5 300.5L525.5 300.5" fill-rule="nonzero"/><path stroke="#cccccc" stroke-width="1.0" stroke-linecap="butt" d="M77.5 247.5L525.5 247.5" fill-rule="nonzero"/><path stroke="#cccccc" stroke-width="1.0" stroke-linecap="butt" d="M77.5 194.5L525.5 194.5" fill-rule="nonzero"/><path stroke="#cccccc" stroke-width="1.0" stroke-linecap="butt" d="M77.5 141.5L525.5 141.5" fill-rule="nonzero"/><path stroke="#cccccc" stroke-width="1.0" stroke-linecap="butt" d="M77.5 88.5L525.5 88.5" fill-rule="nonzero"/><clipPath id="id_0"><path d="M77.55 88.28333L525.45 88.28333L525.45 300.45L77.55 300.45L77.55 88.28333Z" clip-rule="nonzero"/></clipPath><path stroke="#4285f4" stroke-width="2.0" stroke-linecap="butt" clip-path="url(#id_0)" d="M77.55 297.09778L118.26818 296.82196L158.98636 295.42694L199.70454 293.1939L240.42273 287.88974L281.1409 278.6764L321.8591 258.2978L362.57727 220.8875L403.29544 184.36832L444.01364 150.7399L484.7318 124.0069L525.45 107.14495" fill-rule="nonzero"/><path stroke="#ea4335" stroke-width="2.0" stroke-linecap="butt" clip-path="url(#id_0)" d="M77.55 297.37888L118.26818 297.09778L158.98636 296.82196L199.70454 297.37888L240.42273 294.30777L281.1409 292.91278L321.8591 293.75082L362.57727 293.75082L403.29544 291.06693L444.01364 289.31125L484.7318 287.42297L525.45 286.03326" fill-rule="nonzero"/><path fill="#000000" fill-opacity="0.0" clip-path="url(#id_0)" d="M80.55 297.09778C80.55 298.7546 79.206856 300.09778 77.55 300.09778C75.89314 300.09778 74.55 298.7546 74.55 297.09778C74.55 295.44092 75.89314 294.09778 77.55 294.09778C79.206856 294.09778 80.55 295.44092 80.55 297.09778Z" fill-rule="nonzero"/><path fill="#000000" fill-opacity="0.0" clip-path="url(#id_0)" d="M121.26818 296.82196C121.26818 298.4788 119.92503 299.82196 118.26818 299.82196C116.61133 299.82196 115.26818 298.4788 115.26818 296.82196C115.26818 295.1651 116.61133 293.82196 118.26818 293.82196C119.92503 293.82196 121.26818 295.1651 121.26818 296.82196Z" fill-rule="nonzero"/><path fill="#000000" fill-opacity="0.0" clip-path="url(#id_0)" d="M161.98636 295.42694C161.98636 297.0838 160.64322 298.42694 158.98636 298.42694C157.32951 298.42694 155.98636 297.0838 155.98636 295.42694C155.98636 293.7701 157.32951 292.42694 158.98636 292.42694C160.64322 292.42694 161.98636 293.7701 161.98636 295.42694Z" fill-rule="nonzero"/><path fill="#000000" fill-opacity="0.0" clip-path="url(#id_0)" d="M202.70454 293.1939C202.70454 294.85077 201.3614 296.1939 199.70454 296.1939C198.04768 296.1939 196.70454 294.85077 196.70454 293.1939C196.70454 291.53705 198.04768 290.1939 199.70454 290.1939C201.3614 290.1939 202.70454 291.53705 202.70454 293.1939Z" fill-rule="nonzero"/><path fill="#000000" fill-opacity="0.0" clip-path="url(#id_0)" d="M243.42273 287.88974C243.42273 289.5466 242.07957 290.88974 240.42273 290.88974C238.76587 290.88974 237.42273 289.5466 237.42273 287.88974C237.42273 286.23288 238.76587 284.88974 240.42273 284.88974C242.07957 284.88974 243.42273 286.23288 243.42273 287.88974Z" fill-rule="nonzero"/><path fill="#000000" fill-opacity="0.0" clip-path="url(#id_0)" d="M284.1409 278.6764C284.1409 280.33325 282.79776 281.6764 281.1409 281.6764C279.48407 281.6764 278.1409 280.33325 278.1409 278.6764C278.1409 277.01953 279.48407 275.6764 281.1409 275.6764C282.79776 275.6764 284.1409 277.01953 284.1409 278.6764Z" fill-rule="nonzero"/><path fill="#000000" fill-opacity="0.0" clip-path="url(#id_0)" d="M324.8591 258.2978C324.8591 259.95465 323.51593 261.2978 321.8591 261.2978C320.20224 261.2978 318.8591 259.95465 318.8591 258.2978C318.8591 256.64093 320.20224 255.29779 321.8591 255.29779C323.51593 255.29779 324.8591 256.64093 324.8591 258.2978Z" fill-rule="nonzero"/><path fill="#000000" fill-opacity="0.0" clip-path="url(#id_0)" d="M365.57727 220.8875C365.57727 222.54436 364.23413 223.8875 362.57727 223.8875C360.9204 223.8875 359.57727 222.54436 359.57727 220.8875C359.57727 219.23065 360.9204 217.8875 362.57727 217.8875C364.23413 217.8875 365.57727 219.23065 365.57727 220.8875Z" fill-rule="nonzero"/><path fill="#000000" fill-opacity="0.0" clip-path="url(#id_0)" d="M406.29544 184.36832C406.29544 186.02516 404.9523 187.36832 403.29544 187.36832C401.6386 187.36832 400.29544 186.02516 400.29544 184.36832C400.29544 182.71146 401.6386 181.36832 403.29544 181.36832C404.9523 181.36832 406.29544 182.71146 406.29544 184.36832Z" fill-rule="nonzero"/><path fill="#000000" fill-opacity="0.0" clip-path="url(#id_0)" d="M447.01364 150.7399C447.01364 152.39674 445.6705 153.7399 444.01364 153.7399C442.35678 153.7399 441.01364 152.39674 441.01364 150.7399C441.01364 149.08304 442.35678 147.7399 444.01364 147.7399C445.6705 147.7399 447.01364 149.08304 447.01364 150.7399Z" fill-rule="nonzero"/><path fill="#000000" fill-opacity="0.0" clip-path="url(#id_0)" d="M487.7318 124.0069C487.7318 125.66375 486.38867 127.0069 484.7318 127.0069C483.07495 127.0069 481.7318 125.66375 481.7318 124.0069C481.7318 122.350044 483.07495 121.0069 484.7318 121.0069C486.38867 121.0069 487.7318 122.350044 487.7318 124.0069Z" fill-rule="nonzero"/><path fill="#000000" fill-opacity="0.0" clip-path="url(#id_0)" d="M528.45 107.14495C528.45 108.8018 527.1069 110.14495 525.45 110.14495C523.79315 110.14495 522.45 108.8018 522.45 107.14495C522.45 105.4881 523.79315 104.14495 525.45 104.14495C527.1069 104.14495 528.45 105.4881 528.45 107.14495Z" fill-rule="nonzero"/><path fill="#000000" fill-opacity="0.0" clip-path="url(#id_0)" d="M80.55 297.37888C80.55 299.03574 79.206856 300.37888 77.55 300.37888C75.89314 300.37888 74.55 299.03574 74.55 297.37888C74.55 295.72205 75.89314 294.37888 77.55 294.37888C79.206856 294.37888 80.55 295.72205 80.55 297.37888Z" fill-rule="nonzero"/><path fill="#000000" fill-opacity="0.0" clip-path="url(#id_0)" d="M121.26818 297.09778C121.26818 298.7546 119.92503 300.09778 118.26818 300.09778C116.61133 300.09778 115.26818 298.7546 115.26818 297.09778C115.26818 295.44092 116.61133 294.09778 118.26818 294.09778C119.92503 294.09778 121.26818 295.44092 121.26818 297.09778Z" fill-rule="nonzero"/><path fill="#000000" fill-opacity="0.0" clip-path="url(#id_0)" d="M161.98636 296.82196C161.98636 298.4788 160.64322 299.82196 158.98636 299.82196C157.32951 299.82196 155.98636 298.4788 155.98636 296.82196C155.98636 295.1651 157.32951 293.82196 158.98636 293.82196C160.64322 293.82196 161.98636 295.1651 161.98636 296.82196Z" fill-rule="nonzero"/><path fill="#000000" fill-opacity="0.0" clip-path="url(#id_0)" d="M202.70454 297.37888C202.70454 299.03574 201.3614 300.37888 199.70454 300.37888C198.04768 300.37888 196.70454 299.03574 196.70454 297.37888C196.70454 295.72205 198.04768 294.37888 199.70454 294.37888C201.3614 294.37888 202.70454 295.72205 202.70454 297.37888Z" fill-rule="nonzero"/><path fill="#000000" fill-opacity="0.0" clip-path="url(#id_0)" d="M243.42273 294.30777C243.42273 295.96463 242.07957 297.30777 240.42273 297.30777C238.76587 297.30777 237.42273 295.96463 237.42273 294.30777C237.42273 292.6509 238.76587 291.30777 240.42273 291.30777C242.07957 291.30777 243.42273 292.6509 243.42273 294.30777Z" fill-rule="nonzero"/><path fill="#000000" fill-opacity="0.0" clip-path="url(#id_0)" d="M284.1409 292.91278C284.1409 294.56964 282.79776 295.91278 281.1409 295.91278C279.48407 295.91278 278.1409 294.56964 278.1409 292.91278C278.1409 291.25592 279.48407 289.91278 281.1409 289.91278C282.79776 289.91278 284.1409 291.25592 284.1409 292.91278Z" fill-rule="nonzero"/><path fill="#000000" fill-opacity="0.0" clip-path="url(#id_0)" d="M324.8591 293.75082C324.8591 295.40768 323.51593 296.75082 321.8591 296.75082C320.20224 296.75082 318.8591 295.40768 318.8591 293.75082C318.8591 292.094 320.20224 290.75082 321.8591 290.75082C323.51593 290.75082 324.8591 292.094 324.8591 293.75082Z" fill-rule="nonzero"/><path fill="#000000" fill-opacity="0.0" clip-path="url(#id_0)" d="M365.57727 293.75082C365.57727 295.40768 364.23413 296.75082 362.57727 296.75082C360.9204 296.75082 359.57727 295.40768 359.57727 293.75082C359.57727 292.094 360.9204 290.75082 362.57727 290.75082C364.23413 290.75082 365.57727 292.094 365.57727 293.75082Z" fill-rule="nonzero"/><path fill="#000000" fill-opacity="0.0" clip-path="url(#id_0)" d="M406.29544 291.06693C406.29544 292.7238 404.9523 294.06693 403.29544 294.06693C401.6386 294.06693 400.29544 292.7238 400.29544 291.06693C400.29544 289.41006 401.6386 288.06693 403.29544 288.06693C404.9523 288.06693 406.29544 289.41006 406.29544 291.06693Z" fill-rule="nonzero"/><path fill="#000000" fill-opacity="0.0" clip-path="url(#id_0)" d="M447.01364 289.31125C447.01364 290.9681 445.6705 292.31125 444.01364 292.31125C442.35678 292.31125 441.01364 290.9681 441.01364 289.31125C441.01364 287.6544 442.35678 286.31125 444.01364 286.31125C445.6705 286.31125 447.01364 287.6544 447.01364 289.31125Z" fill-rule="nonzero"/><path fill="#000000" fill-opacity="0.0" clip-path="url(#id_0)" d="M487.7318 287.42297C487.7318 289.07983 486.38867 290.42297 484.7318 290.42297C483.07495 290.42297 481.7318 289.07983 481.7318 287.42297C481.7318 285.7661 483.07495 284.42297 484.7318 284.42297C486.38867 284.42297 487.7318 285.7661 487.7318 287.42297Z" fill-rule="nonzero"/><path fill="#000000" fill-opacity="0.0" clip-path="url(#id_0)" d="M528.45 286.03326C528.45 287.69012 527.1069 289.03326 525.45 289.03326C523.79315 289.03326 522.45 287.69012 522.45 286.03326C522.45 284.37643 523.79315 283.03326 525.45 283.03326C527.1069 283.03326 528.45 284.37643 528.45 286.03326Z" fill-rule="nonzero"/><path fill="#000000" d="M270.54688 346.6844L271.60938 346.59064Q271.6875 347.2469 271.96875 347.65314Q272.25 348.0594 272.82812 348.325Q273.42188 348.575 274.15625 348.575Q274.79688 348.575 275.29688 348.3875Q275.79688 348.1844 276.03125 347.85626Q276.28125 347.5125 276.28125 347.1219Q276.28125 346.71564 276.04688 346.41876Q275.8125 346.10626 275.28125 345.90314Q274.92188 345.7625 273.73438 345.48126Q272.5625 345.2 272.09375 344.95Q271.46875 344.6219 271.17188 344.15314Q270.875 343.66876 270.875 343.075Q270.875 342.4344 271.23438 341.8719Q271.60938 341.29376 272.3125 341.0125Q273.03125 340.71564 273.89062 340.71564Q274.84375 340.71564 275.57812 341.02814Q276.3125 341.325 276.70312 341.9344Q277.09375 342.52814 277.125 343.27814L276.03125 343.35626Q275.9375 342.54376 275.42188 342.1375Q274.92188 341.71564 273.9375 341.71564Q272.90625 341.71564 272.4375 342.09064Q271.96875 342.46564 271.96875 342.9969Q271.96875 343.46564 272.29688 343.7625Q272.625 344.0594 274.0 344.3719Q275.39062 344.6844 275.90625 344.91876Q276.65625 345.27814 277.01562 345.8094Q277.375 346.325 277.375 347.02814Q277.375 347.71564 276.98438 348.325Q276.59375 348.91876 275.85938 349.2625Q275.125 349.59064 274.20312 349.59064Q273.03125 349.59064 272.23438 349.2625Q271.45312 348.91876 271.0 348.23126Q270.5625 347.54376 270.54688 346.6844ZM278.79688 342.075L278.79688 340.85626L279.85938 340.85626L279.85938 342.075L278.79688 342.075ZM278.79688 349.45L278.79688 343.23126L279.85938 343.23126L279.85938 349.45L278.79688 349.45ZM281.23438 349.45L281.23438 348.59064L285.20312 344.04376Q284.51562 344.075 284.0 344.075L281.46875 344.075L281.46875 343.23126L286.5625 343.23126L286.5625 343.91876L283.1875 347.8719L282.53125 348.59064Q283.25 348.54376 283.85938 348.54376L286.75 348.54376L286.75 349.45L281.23438 349.45ZM291.04688 347.45L292.14062 347.575Q291.89062 348.52814 291.1875 349.0594Q290.48438 349.59064 289.40625 349.59064Q288.04688 349.59064 287.23438 348.7469Q286.4375 347.90314 286.4375 346.3875Q286.4375 344.825 287.25 343.96564Q288.0625 343.09064 289.34375 343.09064Q290.59375 343.09064 291.375 343.9344Q292.17188 344.77814 292.17188 346.325Q292.17188 346.41876 292.17188 346.60626L287.53125 346.60626Q287.59375 347.6375 288.10938 348.1844Q288.625 348.71564 289.40625 348.71564Q289.98438 348.71564 290.39062 348.41876Q290.8125 348.10626 291.04688 347.45ZM287.59375 345.7469L291.0625 345.7469Q291.0 344.95 290.67188 344.5594Q290.15625 343.95 289.35938 343.95Q288.625 343.95 288.125 344.4344Q287.64062 344.91876 287.59375 345.7469ZM298.8125 351.98126Q297.9375 350.8719 297.32812 349.40314Q296.73438 347.91876 296.73438 346.34064Q296.73438 344.95 297.17188 343.66876Q297.70312 342.1844 298.8125 340.71564L299.5625 340.71564Q298.85938 341.9344 298.625 342.45Q298.26562 343.2625 298.0625 344.1375Q297.8125 345.23126 297.8125 346.34064Q297.8125 349.16876 299.5625 351.98126L298.8125 351.98126ZM301.76562 349.45L300.78125 349.45L300.78125 340.85626L301.84375 340.85626L301.84375 343.91876Q302.51562 343.09064 303.54688 343.09064Q304.125 343.09064 304.625 343.325Q305.14062 343.54376 305.46875 343.96564Q305.8125 344.3875 306.0 344.98126Q306.1875 345.575 306.1875 346.2469Q306.1875 347.84064 305.39062 348.71564Q304.59375 349.59064 303.5 349.59064Q302.39062 349.59064 301.76562 348.66876L301.76562 349.45ZM301.75 346.29376Q301.75 347.40314 302.0625 347.90314Q302.5625 348.71564 303.40625 348.71564Q304.09375 348.71564 304.59375 348.1219Q305.10938 347.52814 305.10938 346.325Q305.10938 345.10626 304.625 344.52814Q304.14062 343.95 303.45312 343.95Q302.76562 343.95 302.25 344.5594Q301.75 345.15314 301.75 346.29376ZM307.75 351.84064L307.625 350.85626Q307.96875 350.95 308.23438 350.95Q308.57812 350.95 308.78125 350.825Q309.0 350.71564 309.14062 350.5125Q309.23438 350.34064 309.46875 349.71564Q309.48438 349.6375 309.5625 349.46564L307.1875 343.23126L308.32812 343.23126L309.625 346.825Q309.875 347.5125 310.07812 348.27814Q310.26562 347.54376 310.51562 346.85626L311.84375 343.23126L312.89062 343.23126L310.53125 349.5594Q310.14062 350.575 309.9375 350.96564Q309.65625 351.4969 309.28125 351.73126Q308.92188 351.98126 308.42188 351.98126Q308.125 351.98126 307.75 351.84064ZM315.09375 348.5125L315.25 349.4344Q314.79688 349.52814 314.45312 349.52814Q313.875 349.52814 313.5625 349.35626Q313.25 349.16876 313.10938 348.8719Q312.98438 348.575 312.98438 347.6219L312.98438 344.04376L312.21875 344.04376L312.21875 343.23126L312.98438 343.23126L312.98438 341.6844L314.03125 341.0594L314.03125 343.23126L315.09375 343.23126L315.09375 344.04376L314.03125 344.04376L314.03125 347.6844Q314.03125 348.1375 314.07812 348.2625Q314.14062 348.3875 314.26562 348.46564Q314.39062 348.54376 314.625 348.54376Q314.8125 348.54376 315.09375 348.5125ZM320.04688 347.45L321.14062 347.575Q320.89062 348.52814 320.1875 349.0594Q319.48438 349.59064 318.40625 349.59064Q317.04688 349.59064 316.23438 348.7469Q315.4375 347.90314 315.4375 346.3875Q315.4375 344.825 316.25 343.96564Q317.0625 343.09064 318.34375 343.09064Q319.59375 343.09064 320.375 343.9344Q321.17188 344.77814 321.17188 346.325Q321.17188 346.41876 321.17188 346.60626L316.53125 346.60626Q316.59375 347.6375 317.10938 348.1844Q317.625 348.71564 318.40625 348.71564Q318.98438 348.71564 319.39062 348.41876Q319.8125 348.10626 320.04688 347.45ZM316.59375 345.7469L320.0625 345.7469Q320.0 344.95 319.67188 344.5594Q319.15625 343.95 318.35938 343.95Q317.625 343.95 317.125 344.4344Q316.64062 344.91876 316.59375 345.7469ZM322.375 347.59064L323.40625 347.4344Q323.5 348.0594 323.89062 348.3875Q324.29688 348.71564 325.03125 348.71564Q325.75 348.71564 326.09375 348.4344Q326.45312 348.1375 326.45312 347.73126Q326.45312 347.3719 326.14062 347.16876Q325.92188 347.02814 325.0625 346.8094Q323.90625 346.5125 323.45312 346.3094Q323.01562 346.09064 322.78125 345.71564Q322.54688 345.34064 322.54688 344.8719Q322.54688 344.46564 322.73438 344.10626Q322.92188 343.7469 323.25 343.5125Q323.5 343.34064 323.92188 343.21564Q324.34375 343.09064 324.84375 343.09064Q325.5625 343.09064 326.10938 343.3094Q326.67188 343.5125 326.9375 343.8719Q327.20312 344.23126 327.29688 344.825L326.26562 344.96564Q326.20312 344.4969 325.85938 344.23126Q325.53125 343.95 324.90625 343.95Q324.1875 343.95 323.875 344.2Q323.5625 344.4344 323.5625 344.7625Q323.5625 344.96564 323.6875 345.1219Q323.82812 345.29376 324.09375 345.40314Q324.25 345.46564 325.03125 345.66876Q326.15625 345.98126 326.59375 346.16876Q327.03125 346.35626 327.28125 346.71564Q327.53125 347.075 327.53125 347.6219Q327.53125 348.15314 327.21875 348.6219Q326.92188 349.075 326.34375 349.34064Q325.76562 349.59064 325.03125 349.59064Q323.8125 349.59064 323.17188 349.09064Q322.54688 348.575 322.375 347.59064ZM330.48438 351.98126L329.73438 351.98126Q331.48438 349.16876 331.48438 346.34064Q331.48438 345.2469 331.23438 344.15314Q331.03125 343.27814 330.67188 342.46564Q330.4375 341.95 329.73438 340.71564L330.48438 340.71564Q331.57812 342.1844 332.10938 343.66876Q332.5625 344.95 332.5625 346.34064Q332.5625 347.91876 331.95312 349.40314Q331.34375 350.8719 330.48438 351.98126Z" fill-rule="nonzero"/><path fill="#000000" d="M27.550013 274.8198L27.675013 273.72604Q28.628138 273.97604 29.159388 274.67917Q29.690638 275.3823 29.690638 276.46042Q29.690638 277.8198 28.846888 278.6323Q28.003138 279.42917 26.487513 279.42917Q24.925013 279.42917 24.065638 278.61667Q23.190638 277.80417 23.190638 276.52292Q23.190638 275.27292 24.034388 274.49167Q24.878138 273.6948 26.425013 273.6948Q26.518763 273.6948 26.706263 273.6948L26.706263 278.33542Q27.737513 278.27292 28.284388 277.7573Q28.815638 277.24167 28.815638 276.46042Q28.815638 275.8823 28.518763 275.47604Q28.206263 275.05417 27.550013 274.8198ZM25.846888 278.27292L25.846888 274.80417Q25.050013 274.86667 24.659388 275.1948Q24.050013 275.71042 24.050013 276.5073Q24.050013 277.24167 24.534388 277.74167Q25.018763 278.22604 25.846888 278.27292ZM29.550013 272.77292L26.315638 270.5073L23.331263 272.60104L23.331263 271.28854L24.784388 270.33542Q25.206263 270.0698 25.487513 269.89792Q25.096888 269.64792 24.800013 269.42917L23.331263 268.3823L23.331263 267.11667L26.253138 269.27292L29.550013 266.96042L29.550013 268.24167L27.612513 269.52292L27.096888 269.86667L29.550013 271.5073L29.550013 272.77292ZM27.550013 262.8198L27.675013 261.72604Q28.628138 261.97604 29.159388 262.67917Q29.690638 263.3823 29.690638 264.46042Q29.690638 265.8198 28.846888 266.6323Q28.003138 267.42917 26.487513 267.42917Q24.925013 267.42917 24.065638 266.61667Q23.190638 265.80417 23.190638 264.52292Q23.190638 263.27292 24.034388 262.49167Q24.878138 261.6948 26.425013 261.6948Q26.518763 261.6948 26.706263 261.6948L26.706263 266.33542Q27.737513 266.27292 28.284388 265.7573Q28.815638 265.24167 28.815638 264.46042Q28.815638 263.8823 28.518763 263.47604Q28.206263 263.05417 27.550013 262.8198ZM25.846888 266.27292L25.846888 262.80417Q25.050013 262.86667 24.659388 263.1948Q24.050013 263.71042 24.050013 264.5073Q24.050013 265.24167 24.534388 265.74167Q25.018763 266.22604 25.846888 266.27292ZM27.268763 256.0073L27.409388 254.97604Q28.471888 255.14792 29.081263 255.85104Q29.690638 256.55417 29.690638 257.5698Q29.690638 258.85104 28.862513 259.6323Q28.018763 260.39792 26.456263 260.39792Q25.456263 260.39792 24.706263 260.0698Q23.940638 259.72604 23.565638 259.05417Q23.190638 258.36667 23.190638 257.55417Q23.190638 256.55417 23.706263 255.91354Q24.206263 255.2573 25.159388 255.0698L25.315638 256.10104Q24.690638 256.24167 24.378138 256.61667Q24.050013 256.99167 24.050013 257.52292Q24.050013 258.3198 24.628138 258.8198Q25.190638 259.3198 26.425013 259.3198Q27.690638 259.3198 28.253138 258.83542Q28.815638 258.35104 28.815638 257.58542Q28.815638 256.96042 28.440638 256.55417Q28.065638 256.1323 27.268763 256.0073ZM28.612513 248.77292L29.534388 248.61667Q29.628138 249.0698 29.628138 249.41354Q29.628138 249.99167 29.456263 250.30417Q29.268763 250.61667 28.971888 250.7573Q28.675013 250.8823 27.721888 250.8823L24.143763 250.8823L24.143763 251.64792L23.331263 251.64792L23.331263 250.8823L21.784388 250.8823L21.159388 249.83542L23.331263 249.83542L23.331263 248.77292L24.143763 248.77292L24.143763 249.83542L27.784388 249.83542Q28.237513 249.83542 28.362513 249.78854Q28.487513 249.72604 28.565638 249.60104Q28.643763 249.47604 28.643763 249.24167Q28.643763 249.05417 28.612513 248.77292ZM22.175013 248.0698L20.956263 248.0698L20.956263 247.0073L22.175013 247.0073L22.175013 248.0698ZM29.550013 248.0698L23.331263 248.0698L23.331263 247.0073L29.550013 247.0073L29.550013 248.0698ZM29.550013 245.0698L23.331263 245.0698L23.331263 244.1323L24.206263 244.1323Q23.737513 243.83542 23.471888 243.35104Q23.190638 242.86667 23.190638 242.24167Q23.190638 241.55417 23.471888 241.11667Q23.753138 240.66354 24.268763 240.49167Q23.190638 239.74167 23.190638 238.5698Q23.190638 237.6323 23.706263 237.14792Q24.206263 236.64792 25.284388 236.64792L29.550013 236.64792L29.550013 237.6948L25.628138 237.6948Q25.003138 237.6948 24.721888 237.80417Q24.440638 237.89792 24.268763 238.16354Q24.096888 238.42917 24.096888 238.80417Q24.096888 239.46042 24.534388 239.89792Q24.971888 240.3198 25.940638 240.3198L29.550013 240.3198L29.550013 241.3823L25.503138 241.3823Q24.800013 241.3823 24.456263 241.64792Q24.096888 241.89792 24.096888 242.47604Q24.096888 242.92917 24.331263 243.30417Q24.565638 243.67917 25.018763 243.85104Q25.471888 244.02292 26.315638 244.02292L29.550013 244.02292L29.550013 245.0698ZM27.550013 229.8198L27.675013 228.72604Q28.628138 228.97604 29.159388 229.67917Q29.690638 230.3823 29.690638 231.46042Q29.690638 232.8198 28.846888 233.6323Q28.003138 234.42917 26.487513 234.42917Q24.925013 234.42917 24.065638 233.61667Q23.190638 232.80417 23.190638 231.52292Q23.190638 230.27292 24.034388 229.49167Q24.878138 228.6948 26.425013 228.6948Q26.518763 228.6948 26.706263 228.6948L26.706263 233.33542Q27.737513 233.27292 28.284388 232.7573Q28.815638 232.24167 28.815638 231.46042Q28.815638 230.8823 28.518763 230.47604Q28.206263 230.05417 27.550013 229.8198ZM25.846888 233.27292L25.846888 229.80417Q25.050013 229.86667 24.659388 230.1948Q24.050013 230.71042 24.050013 231.5073Q24.050013 232.24167 24.534388 232.74167Q25.018763 233.22604 25.846888 233.27292ZM31.940638 224.0698L23.331263 224.0698L23.331263 223.11667L24.128138 223.11667Q23.659388 222.77292 23.425013 222.35104Q23.190638 221.91354 23.190638 221.30417Q23.190638 220.5073 23.596888 219.89792Q24.003138 219.28854 24.753138 218.99167Q25.503138 218.67917 26.393763 218.67917Q27.346888 218.67917 28.112513 219.02292Q28.878138 219.35104 29.284388 220.0073Q29.690638 220.66354 29.690638 221.3823Q29.690638 221.91354 29.471888 222.33542Q29.237513 222.7573 28.909388 223.02292L31.940638 223.02292L31.940638 224.0698ZM26.471888 223.11667Q27.675013 223.11667 28.253138 222.6323Q28.815638 222.14792 28.815638 221.46042Q28.815638 220.7573 28.221888 220.2573Q27.628138 219.7573 26.378138 219.7573Q25.190638 219.7573 24.612513 220.24167Q24.018763 220.72604 24.018763 221.41354Q24.018763 222.08542 24.643763 222.60104Q25.268763 223.11667 26.471888 223.11667ZM27.550013 212.8198L27.675013 211.72604Q28.628138 211.97604 29.159388 212.67917Q29.690638 213.3823 29.690638 214.46042Q29.690638 215.8198 28.846888 216.6323Q28.003138 217.42917 26.487513 217.42917Q24.925013 217.42917 24.065638 216.61667Q23.190638 215.80417 23.190638 214.52292Q23.190638 213.27292 24.034388 212.49167Q24.878138 211.6948 26.425013 211.6948Q26.518763 211.6948 26.706263 211.6948L26.706263 216.33542Q27.737513 216.27292 28.284388 215.7573Q28.815638 215.24167 28.815638 214.46042Q28.815638 213.8823 28.518763 213.47604Q28.206263 213.05417 27.550013 212.8198ZM25.846888 216.27292L25.846888 212.80417Q25.050013 212.86667 24.659388 213.1948Q24.050013 213.71042 24.050013 214.5073Q24.050013 215.24167 24.534388 215.74167Q25.018763 216.22604 25.846888 216.27292ZM29.550013 210.08542L23.331263 210.08542L23.331263 209.1323L24.268763 209.1323Q23.612513 208.77292 23.409388 208.47604Q23.190638 208.16354 23.190638 207.78854Q23.190638 207.2573 23.518763 206.71042L24.503138 207.0698Q24.268763 207.46042 24.268763 207.83542Q24.268763 208.1948 24.487513 208.47604Q24.690638 208.74167 25.065638 208.85104Q25.628138 209.03854 26.284388 209.03854L29.550013 209.03854L29.550013 210.08542ZM22.175013 203.0698L20.956263 203.0698L20.956263 202.0073L22.175013 202.0073L22.175013 203.0698ZM29.550013 203.0698L23.331263 203.0698L23.331263 202.0073L29.550013 202.0073L29.550013 203.0698ZM29.550013 200.0698L23.331263 200.0698L23.331263 199.1323L24.206263 199.1323Q23.190638 198.4448 23.190638 197.14792Q23.190638 196.58542 23.393763 196.11667Q23.596888 195.6323 23.925013 195.39792Q24.253138 195.16354 24.690638 195.0698Q24.987513 195.02292 25.721888 195.02292L29.550013 195.02292L29.550013 196.0698L25.768763 196.0698Q25.112513 196.0698 24.800013 196.1948Q24.487513 196.3198 24.300013 196.6323Q24.096888 196.9448 24.096888 197.36667Q24.096888 198.03854 24.534388 198.53854Q24.956263 199.02292 26.143763 199.02292L29.550013 199.02292L29.550013 200.0698ZM27.690638 193.49167L27.534388 192.46042Q28.159388 192.36667 28.487513 191.97604Q28.815638 191.5698 28.815638 190.83542Q28.815638 190.11667 28.534388 189.77292Q28.237513 189.41354 27.831263 189.41354Q27.471888 189.41354 27.268763 189.72604Q27.128138 189.9448 26.909388 190.80417Q26.612513 191.96042 26.409388 192.41354Q26.190638 192.85104 25.815638 193.08542Q25.440638 193.3198 24.971888 193.3198Q24.565638 193.3198 24.206263 193.1323Q23.846888 192.9448 23.612513 192.61667Q23.440638 192.36667 23.315638 191.9448Q23.190638 191.52292 23.190638 191.02292Q23.190638 190.30417 23.409388 189.7573Q23.612513 189.1948 23.971888 188.92917Q24.331263 188.66354 24.925013 188.5698L25.065638 189.60104Q24.596888 189.66354 24.331263 190.0073Q24.050013 190.33542 24.050013 190.96042Q24.050013 191.67917 24.300013 191.99167Q24.534388 192.30417 24.862513 192.30417Q25.065638 192.30417 25.221888 192.17917Q25.393763 192.03854 25.503138 191.77292Q25.565638 191.61667 25.768763 190.83542Q26.081263 189.71042 26.268763 189.27292Q26.456263 188.83542 26.815638 188.58542Q27.175013 188.33542 27.721888 188.33542Q28.253138 188.33542 28.721888 188.64792Q29.175013 188.9448 29.440638 189.52292Q29.690638 190.10104 29.690638 190.83542Q29.690638 192.05417 29.190638 192.6948Q28.675013 193.3198 27.690638 193.49167ZM28.612513 183.77292L29.534388 183.61667Q29.628138 184.0698 29.628138 184.41354Q29.628138 184.99167 29.456263 185.30417Q29.268763 185.61667 28.971888 185.7573Q28.675013 185.8823 27.721888 185.8823L24.143763 185.8823L24.143763 186.64792L23.331263 186.64792L23.331263 185.8823L21.784388 185.8823L21.159388 184.83542L23.331263 184.83542L23.331263 183.77292L24.143763 183.77292L24.143763 184.83542L27.784388 184.83542Q28.237513 184.83542 28.362513 184.78854Q28.487513 184.72604 28.565638 184.60104Q28.643763 184.47604 28.643763 184.24167Q28.643763 184.05417 28.612513 183.77292ZM29.550013 183.08542L23.331263 183.08542L23.331263 182.1323L24.268763 182.1323Q23.612513 181.77292 23.409388 181.47604Q23.190638 181.16354 23.190638 180.78854Q23.190638 180.2573 23.518763 179.71042L24.503138 180.0698Q24.268763 180.46042 24.268763 180.83542Q24.268763 181.1948 24.487513 181.47604Q24.690638 181.74167 25.065638 181.85104Q25.628138 182.03854 26.284388 182.03854L29.550013 182.03854L29.550013 183.08542ZM29.550013 174.99167L28.628138 174.99167Q29.690638 175.72604 29.690638 176.97604Q29.690638 177.52292 29.487513 178.0073Q29.268763 178.47604 28.956263 178.71042Q28.628138 178.9448 28.159388 179.03854Q27.862513 179.10104 27.175013 179.10104L23.331263 179.10104L23.331263 178.03854L26.784388 178.03854Q27.596888 178.03854 27.893763 177.97604Q28.300013 177.8823 28.550013 177.5698Q28.784388 177.24167 28.784388 176.7573Q28.784388 176.28854 28.550013 175.8823Q28.300013 175.46042 27.878138 175.28854Q27.456263 175.10104 26.659388 175.10104L23.331263 175.10104L23.331263 174.05417L29.550013 174.05417L29.550013 174.99167ZM27.268763 168.0073L27.409388 166.97604Q28.471888 167.14792 29.081263 167.85104Q29.690638 168.55417 29.690638 169.5698Q29.690638 170.85104 28.862513 171.6323Q28.018763 172.39792 26.456263 172.39792Q25.456263 172.39792 24.706263 172.0698Q23.940638 171.72604 23.565638 171.05417Q23.190638 170.36667 23.190638 169.55417Q23.190638 168.55417 23.706263 167.91354Q24.206263 167.2573 25.159388 167.0698L25.315638 168.10104Q24.690638 168.24167 24.378138 168.61667Q24.050013 168.99167 24.050013 169.52292Q24.050013 170.3198 24.628138 170.8198Q25.190638 171.3198 26.425013 171.3198Q27.690638 171.3198 28.253138 170.83542Q28.815638 170.35104 28.815638 169.58542Q28.815638 168.96042 28.440638 168.55417Q28.065638 168.1323 27.268763 168.0073ZM28.612513 163.77292L29.534388 163.61667Q29.628138 164.0698 29.628138 164.41354Q29.628138 164.99167 29.456263 165.30417Q29.268763 165.61667 28.971888 165.7573Q28.675013 165.8823 27.721888 165.8823L24.143763 165.8823L24.143763 166.64792L23.331263 166.64792L23.331263 165.8823L21.784388 165.8823L21.159388 164.83542L23.331263 164.83542L23.331263 163.77292L24.143763 163.77292L24.143763 164.83542L27.784388 164.83542Q28.237513 164.83542 28.362513 164.78854Q28.487513 164.72604 28.565638 164.60104Q28.643763 164.47604 28.643763 164.24167Q28.643763 164.05417 28.612513 163.77292ZM22.175013 163.0698L20.956263 163.0698L20.956263 162.0073L22.175013 162.0073L22.175013 163.0698ZM29.550013 163.0698L23.331263 163.0698L23.331263 162.0073L29.550013 162.0073L29.550013 163.0698ZM26.440638 160.46042Q24.706263 160.46042 23.878138 159.5073Q23.190638 158.71042 23.190638 157.55417Q23.190638 156.27292 24.034388 155.46042Q24.862513 154.6323 26.346888 154.6323Q27.550013 154.6323 28.237513 154.99167Q28.925013 155.35104 29.315638 156.05417Q29.690638 156.74167 29.690638 157.55417Q29.690638 158.85104 28.862513 159.66354Q28.018763 160.46042 26.440638 160.46042ZM26.440638 159.3823Q27.628138 159.3823 28.221888 158.86667Q28.815638 158.33542 28.815638 157.55417Q28.815638 156.7573 28.221888 156.24167Q27.628138 155.72604 26.409388 155.72604Q25.253138 155.72604 24.659388 156.2573Q24.065638 156.77292 24.065638 157.55417Q24.065638 158.33542 24.659388 158.86667Q25.237513 159.3823 26.440638 159.3823ZM29.550013 153.0698L23.331263 153.0698L23.331263 152.1323L24.206263 152.1323Q23.190638 151.4448 23.190638 150.14792Q23.190638 149.58542 23.393763 149.11667Q23.596888 148.6323 23.925013 148.39792Q24.253138 148.16354 24.690638 148.0698Q24.987513 148.02292 25.721888 148.02292L29.550013 148.02292L29.550013 149.0698L25.768763 149.0698Q25.112513 149.0698 24.800013 149.1948Q24.487513 149.3198 24.300013 149.6323Q24.096888 149.9448 24.096888 150.36667Q24.096888 151.03854 24.534388 151.53854Q24.956263 152.02292 26.143763 152.02292L29.550013 152.02292L29.550013 153.0698ZM32.08126 141.05417Q30.971888 141.92917 29.503138 142.53854Q28.018763 143.1323 26.440638 143.1323Q25.050013 143.1323 23.768763 142.6948Q22.284388 142.16354 20.815638 141.05417L20.815638 140.30417Q22.034388 141.0073 22.550013 141.24167Q23.362513 141.60104 24.237513 141.80417Q25.331263 142.05417 26.440638 142.05417Q29.268763 142.05417 32.08126 140.30417L32.08126 141.05417ZM29.550013 139.0698L23.331263 139.0698L23.331263 138.1323L24.206263 138.1323Q23.190638 137.4448 23.190638 136.14792Q23.190638 135.58542 23.393763 135.11667Q23.596888 134.6323 23.925013 134.39792Q24.253138 134.16354 24.690638 134.0698Q24.987513 134.02292 25.721888 134.02292L29.550013 134.02292L29.550013 135.0698L25.768763 135.0698Q25.112513 135.0698 24.800013 135.1948Q24.487513 135.3198 24.300013 135.6323Q24.096888 135.9448 24.096888 136.36667Q24.096888 137.03854 24.534388 137.53854Q24.956263 138.02292 26.143763 138.02292L29.550013 138.02292L29.550013 139.0698ZM27.690638 132.49167L27.534388 131.46042Q28.159388 131.36667 28.487513 130.97604Q28.815638 130.5698 28.815638 129.83542Q28.815638 129.11667 28.534388 128.77292Q28.237513 128.41354 27.831263 128.41354Q27.471888 128.41354 27.268763 128.72604Q27.128138 128.9448 26.909388 129.80417Q26.612513 130.96042 26.409388 131.41354Q26.190638 131.85104 25.815638 132.08542Q25.440638 132.3198 24.971888 132.3198Q24.565638 132.3198 24.206263 132.1323Q23.846888 131.9448 23.612513 131.61667Q23.440638 131.36667 23.315638 130.9448Q23.190638 130.52292 23.190638 130.02292Q23.190638 129.30417 23.409388 128.7573Q23.612513 128.1948 23.971888 127.92917Q24.331263 127.66354 24.925013 127.56979L25.065638 128.60104Q24.596888 128.66354 24.331263 129.0073Q24.050013 129.33542 24.050013 129.96042Q24.050013 130.67917 24.300013 130.99167Q24.534388 131.30417 24.862513 131.30417Q25.065638 131.30417 25.221888 131.17917Q25.393763 131.03854 25.503138 130.77292Q25.565638 130.61667 25.768763 129.83542Q26.081263 128.71042 26.268763 128.27292Q26.456263 127.83542 26.815638 127.58542Q27.175013 127.33542 27.721888 127.33542Q28.253138 127.33542 28.721888 127.64792Q29.175013 127.94479 29.440638 128.52292Q29.690638 129.10104 29.690638 129.83542Q29.690638 131.05417 29.190638 131.6948Q28.675013 132.3198 27.690638 132.49167ZM32.08126 124.38229L32.08126 125.13229Q29.268763 123.38229 26.440638 123.38229Q25.346888 123.38229 24.253138 123.63229Q23.378138 123.83542 22.565638 124.19479Q22.050013 124.42917 20.815638 125.13229L20.815638 124.38229Q22.284388 123.28854 23.768763 122.75729Q25.050013 122.30417 26.440638 122.30417Q28.018763 122.30417 29.503138 122.91354Q30.971888 123.52292 32.08126 124.38229Z" fill-rule="nonzero"/><path fill="#000000" d="M65.05 300.21564Q65.05 298.6844 65.3625 297.7625Q65.675 296.825 66.28438 296.325Q66.90938 295.825 67.84688 295.825Q68.53438 295.825 69.05 296.10626Q69.58125 296.3875 69.925 296.91876Q70.26875 297.4344 70.45625 298.1844Q70.64375 298.9344 70.64375 300.21564Q70.64375 301.73126 70.33125 302.65314Q70.03438 303.575 69.40938 304.09064Q68.8 304.59064 67.84688 304.59064Q66.6125 304.59064 65.89375 303.7Q65.05 302.6375 65.05 300.21564ZM66.12813 300.21564Q66.12813 302.325 66.62813 303.02814Q67.12813 303.73126 67.84688 303.73126Q68.58125 303.73126 69.06563 303.02814Q69.56563 302.325 69.56563 300.21564Q69.56563 298.09064 69.06563 297.40314Q68.58125 296.7 67.83125 296.7Q67.1125 296.7 66.675 297.3094Q66.12813 298.09064 66.12813 300.21564Z" fill-rule="nonzero"/><path fill="#000000" d="M55.01875 251.40834L53.971874 251.40834L53.971874 244.68959Q53.58125 245.04897 52.95625 245.42397Q52.346874 245.78334 51.8625 245.95522L51.8625 244.93959Q52.7375 244.51772 53.39375 243.93959Q54.065624 243.34584 54.346874 242.78334L55.01875 242.78334L55.01875 251.40834ZM58.05 247.17397Q58.05 245.64272 58.3625 244.72084Q58.675 243.78334 59.284374 243.28334Q59.909374 242.78334 60.846874 242.78334Q61.534374 242.78334 62.05 243.06459Q62.58125 243.34584 62.925 243.87709Q63.26875 244.39272 63.45625 245.14272Q63.64375 245.89272 63.64375 247.17397Q63.64375 248.68959 63.33125 249.61147Q63.034374 250.53334 62.409374 251.04897Q61.8 251.54897 60.846874 251.54897Q59.6125 251.54897 58.89375 250.65834Q58.05 249.59584 58.05 247.17397ZM59.128124 247.17397Q59.128124 249.28334 59.628124 249.98647Q60.128124 250.68959 60.846874 250.68959Q61.58125 250.68959 62.065624 249.98647Q62.565624 249.28334 62.565624 247.17397Q62.565624 245.04897 62.065624 244.36147Q61.58125 243.65834 60.83125 243.65834Q60.1125 243.65834 59.675 244.26772Q59.128124 245.04897 59.128124 247.17397ZM65.05 247.17397Q65.05 245.64272 65.3625 244.72084Q65.675 243.78334 66.28438 243.28334Q66.90938 242.78334 67.84688 242.78334Q68.53438 242.78334 69.05 243.06459Q69.58125 243.34584 69.925 243.87709Q70.26875 244.39272 70.45625 245.14272Q70.64375 245.89272 70.64375 247.17397Q70.64375 248.68959 70.33125 249.61147Q70.03438 250.53334 69.40938 251.04897Q68.8 251.54897 67.84688 251.54897Q66.6125 251.54897 65.89375 250.65834Q65.05 249.59584 65.05 247.17397ZM66.12813 247.17397Q66.12813 249.28334 66.62813 249.98647Q67.12813 250.68959 67.84688 250.68959Q68.58125 250.68959 69.06563 249.98647Q69.56563 249.28334 69.56563 247.17397Q69.56563 245.04897 69.06563 244.36147Q68.58125 243.65834 67.83125 243.65834Q67.1125 243.65834 66.675 244.26772Q66.12813 245.04897 66.12813 247.17397Z" fill-rule="nonzero"/><path fill="#000000" d="M56.596874 197.35104L56.596874 198.36667L50.909374 198.36667Q50.909374 197.99167 51.034374 197.6323Q51.253124 197.05417 51.721874 196.49167Q52.20625 195.92917 53.1125 195.1948Q54.51875 194.03854 55.003124 193.36667Q55.503124 192.6948 55.503124 192.10104Q55.503124 191.47604 55.05 191.05417Q54.596874 190.61667 53.878124 190.61667Q53.1125 190.61667 52.659374 191.0698Q52.20625 191.52292 52.190624 192.33542L51.1125 192.22604Q51.221874 191.0073 51.940624 190.3823Q52.675 189.74167 53.909374 189.74167Q55.14375 189.74167 55.8625 190.42917Q56.58125 191.11667 56.58125 192.1323Q56.58125 192.64792 56.3625 193.14792Q56.159374 193.6323 55.659374 194.1948Q55.175 194.74167 54.05 195.6948Q53.096874 196.49167 52.815624 196.78854Q52.55 197.0698 52.378124 197.35104L56.596874 197.35104ZM58.05 194.1323Q58.05 192.60104 58.3625 191.67917Q58.675 190.74167 59.284374 190.24167Q59.909374 189.74167 60.846874 189.74167Q61.534374 189.74167 62.05 190.02292Q62.58125 190.30417 62.925 190.83542Q63.26875 191.35104 63.45625 192.10104Q63.64375 192.85104 63.64375 194.1323Q63.64375 195.64792 63.33125 196.5698Q63.034374 197.49167 62.409374 198.0073Q61.8 198.5073 60.846874 198.5073Q59.6125 198.5073 58.89375 197.61667Q58.05 196.55417 58.05 194.1323ZM59.128124 194.1323Q59.128124 196.24167 59.628124 196.9448Q60.128124 197.64792 60.846874 197.64792Q61.58125 197.64792 62.065624 196.9448Q62.565624 196.24167 62.565624 194.1323Q62.565624 192.0073 62.065624 191.3198Q61.58125 190.61667 60.83125 190.61667Q60.1125 190.61667 59.675 191.22604Q59.128124 192.0073 59.128124 194.1323ZM65.05 194.1323Q65.05 192.60104 65.3625 191.67917Q65.675 190.74167 66.28438 190.24167Q66.90938 189.74167 67.84688 189.74167Q68.53438 189.74167 69.05 190.02292Q69.58125 190.30417 69.925 190.83542Q70.26875 191.35104 70.45625 192.10104Q70.64375 192.85104 70.64375 194.1323Q70.64375 195.64792 70.33125 196.5698Q70.03438 197.49167 69.40938 198.0073Q68.8 198.5073 67.84688 198.5073Q66.6125 198.5073 65.89375 197.61667Q65.05 196.55417 65.05 194.1323ZM66.12813 194.1323Q66.12813 196.24167 66.62813 196.9448Q67.12813 197.64792 67.84688 197.64792Q68.58125 197.64792 69.06563 196.9448Q69.56563 196.24167 69.56563 194.1323Q69.56563 192.0073 69.06563 191.3198Q68.58125 190.61667 67.83125 190.61667Q67.1125 190.61667 66.675 191.22604Q66.12813 192.0073 66.12813 194.1323Z" fill-rule="nonzero"/><path fill="#000000" d="M51.05 143.05937L52.1125 142.91875Q52.284374 143.80937 52.721874 144.21562Q53.159374 144.60625 53.784374 144.60625Q54.534374 144.60625 55.05 144.09062Q55.565624 143.575 55.565624 142.80937Q55.565624 142.09062 55.08125 141.62187Q54.6125 141.1375 53.878124 141.1375Q53.58125 141.1375 53.128124 141.2625L53.253124 140.325Q53.3625 140.34062 53.425 140.34062Q54.096874 140.34062 54.628124 139.99687Q55.175 139.6375 55.175 138.90312Q55.175 138.325 54.784374 137.95Q54.39375 137.55937 53.76875 137.55937Q53.159374 137.55937 52.7375 137.95Q52.33125 138.34062 52.221874 139.10625L51.159374 138.91875Q51.346874 137.87187 52.034374 137.29375Q52.721874 136.7 53.7375 136.7Q54.440624 136.7 55.034374 137.0125Q55.628124 137.30937 55.940624 137.825Q56.253124 138.34062 56.253124 138.93437Q56.253124 139.48125 55.95625 139.95Q55.659374 140.40312 55.08125 140.66875Q55.83125 140.84062 56.253124 141.40312Q56.675 141.95 56.675 142.79375Q56.675 143.91875 55.846874 144.7Q55.034374 145.48125 53.784374 145.48125Q52.659374 145.48125 51.909374 144.80937Q51.159374 144.12187 51.05 143.05937ZM58.05 141.09062Q58.05 139.55937 58.3625 138.6375Q58.675 137.7 59.284374 137.2Q59.909374 136.7 60.846874 136.7Q61.534374 136.7 62.05 136.98125Q62.58125 137.2625 62.925 137.79375Q63.26875 138.30937 63.45625 139.05937Q63.64375 139.80937 63.64375 141.09062Q63.64375 142.60625 63.33125 143.52812Q63.034374 144.45 62.409374 144.96562Q61.8 145.46562 60.846874 145.46562Q59.6125 145.46562 58.89375 144.575Q58.05 143.5125 58.05 141.09062ZM59.128124 141.09062Q59.128124 143.2 59.628124 143.90312Q60.128124 144.60625 60.846874 144.60625Q61.58125 144.60625 62.065624 143.90312Q62.565624 143.2 62.565624 141.09062Q62.565624 138.96562 62.065624 138.27812Q61.58125 137.575 60.83125 137.575Q60.1125 137.575 59.675 138.18437Q59.128124 138.96562 59.128124 141.09062ZM65.05 141.09062Q65.05 139.55937 65.3625 138.6375Q65.675 137.7 66.28438 137.2Q66.90938 136.7 67.84688 136.7Q68.53438 136.7 69.05 136.98125Q69.58125 137.2625 69.925 137.79375Q70.26875 138.30937 70.45625 139.05937Q70.64375 139.80937 70.64375 141.09062Q70.64375 142.60625 70.33125 143.52812Q70.03438 144.45 69.40938 144.96562Q68.8 145.46562 67.84688 145.46562Q66.6125 145.46562 65.89375 144.575Q65.05 143.5125 65.05 141.09062ZM66.12813 141.09062Q66.12813 143.2 66.62813 143.90312Q67.12813 144.60625 67.84688 144.60625Q68.58125 144.60625 69.06563 143.90312Q69.56563 143.2 69.56563 141.09062Q69.56563 138.96562 69.06563 138.27812Q68.58125 137.575 67.83125 137.575Q67.1125 137.575 66.675 138.18437Q66.12813 138.96562 66.12813 141.09062Z" fill-rule="nonzero"/><path fill="#000000" d="M54.425 92.28333L54.425 90.22083L50.70625 90.22083L50.70625 89.25208L54.628124 83.68958L55.4875 83.68958L55.4875 89.25208L56.64375 89.25208L56.64375 90.22083L55.4875 90.22083L55.4875 92.28333L54.425 92.28333ZM54.425 89.25208L54.425 85.39271L51.7375 89.25208L54.425 89.25208ZM58.05 88.04896Q58.05 86.51771 58.3625 85.59583Q58.675 84.65833 59.284374 84.15833Q59.909374 83.65833 60.846874 83.65833Q61.534374 83.65833 62.05 83.93958Q62.58125 84.22083 62.925 84.75208Q63.26875 85.26771 63.45625 86.01771Q63.64375 86.76771 63.64375 88.04896Q63.64375 89.56458 63.33125 90.48646Q63.034374 91.40833 62.409374 91.92396Q61.8 92.42396 60.846874 92.42396Q59.6125 92.42396 58.89375 91.53333Q58.05 90.47083 58.05 88.04896ZM59.128124 88.04896Q59.128124 90.15833 59.628124 90.86146Q60.128124 91.56458 60.846874 91.56458Q61.58125 91.56458 62.065624 90.86146Q62.565624 90.15833 62.565624 88.04896Q62.565624 85.92396 62.065624 85.23646Q61.58125 84.53333 60.83125 84.53333Q60.1125 84.53333 59.675 85.14271Q59.128124 85.92396 59.128124 88.04896ZM65.05 88.04896Q65.05 86.51771 65.3625 85.59583Q65.675 84.65833 66.28438 84.15833Q66.90938 83.65833 67.84688 83.65833Q68.53438 83.65833 69.05 83.93958Q69.58125 84.22083 69.925 84.75208Q70.26875 85.26771 70.45625 86.01771Q70.64375 86.76771 70.64375 88.04896Q70.64375 89.56458 70.33125 90.48646Q70.03438 91.40833 69.40938 91.92396Q68.8 92.42396 67.84688 92.42396Q66.6125 92.42396 65.89375 91.53333Q65.05 90.47083 65.05 88.04896ZM66.12813 88.04896Q66.12813 90.15833 66.62813 90.86146Q67.12813 91.56458 67.84688 91.56458Q68.58125 91.56458 69.06563 90.86146Q69.56563 90.15833 69.56563 88.04896Q69.56563 85.92396 69.06563 85.23646Q68.58125 84.53333 67.83125 84.53333Q67.1125 84.53333 66.675 85.14271Q66.12813 85.92396 66.12813 88.04896Z" fill-rule="nonzero"/><path fill="#000000" d="M78.51875 317.45L77.47188 317.45L77.47188 310.73126Q77.08125 311.09064 76.45625 311.46564Q75.84688 311.825 75.3625 311.9969L75.3625 310.98126Q76.2375 310.5594 76.89375 309.98126Q77.56563 309.3875 77.84688 308.825L78.51875 308.825L78.51875 317.45Z" fill-rule="nonzero"/><path fill="#000000" d="M210.28162 317.45L209.23474 317.45L209.23474 310.73126Q208.84412 311.09064 208.21912 311.46564Q207.60974 311.825 207.12537 311.9969L207.12537 310.98126Q208.00037 310.5594 208.65662 309.98126Q209.32849 309.3875 209.60974 308.825L210.28162 308.825L210.28162 317.45ZM213.31287 313.21564Q213.31287 311.6844 213.62537 310.7625Q213.93787 309.825 214.54724 309.325Q215.17224 308.825 216.10974 308.825Q216.79724 308.825 217.31287 309.10626Q217.84412 309.3875 218.18787 309.91876Q218.53162 310.4344 218.71912 311.1844Q218.90662 311.9344 218.90662 313.21564Q218.90662 314.73126 218.59412 315.65314Q218.29724 316.575 217.67224 317.09064Q217.06287 317.59064 216.10974 317.59064Q214.87537 317.59064 214.15662 316.7Q213.31287 315.6375 213.31287 313.21564ZM214.39099 313.21564Q214.39099 315.325 214.89099 316.02814Q215.39099 316.73126 216.10974 316.73126Q216.84412 316.73126 217.32849 316.02814Q217.82849 315.325 217.82849 313.21564Q217.82849 311.09064 217.32849 310.40314Q216.84412 309.7 216.09412 309.7Q215.37537 309.7 214.93787 310.3094Q214.39099 311.09064 214.39099 313.21564Z" fill-rule="nonzero"/><path fill="#000000" d="M342.0445 317.45L340.99762 317.45L340.99762 310.73126Q340.607 311.09064 339.982 311.46564Q339.37262 311.825 338.88824 311.9969L338.88824 310.98126Q339.76324 310.5594 340.4195 309.98126Q341.09137 309.3875 341.37262 308.825L342.0445 308.825L342.0445 317.45ZM345.07574 313.21564Q345.07574 311.6844 345.38824 310.7625Q345.70074 309.825 346.31012 309.325Q346.93512 308.825 347.87262 308.825Q348.56012 308.825 349.07574 309.10626Q349.607 309.3875 349.95074 309.91876Q350.2945 310.4344 350.482 311.1844Q350.6695 311.9344 350.6695 313.21564Q350.6695 314.73126 350.357 315.65314Q350.06012 316.575 349.43512 317.09064Q348.82574 317.59064 347.87262 317.59064Q346.63824 317.59064 345.9195 316.7Q345.07574 315.6375 345.07574 313.21564ZM346.15387 313.21564Q346.15387 315.325 346.65387 316.02814Q347.15387 316.73126 347.87262 316.73126Q348.607 316.73126 349.09137 316.02814Q349.59137 315.325 349.59137 313.21564Q349.59137 311.09064 349.09137 310.40314Q348.607 309.7 347.857 309.7Q347.13824 309.7 346.70074 310.3094Q346.15387 311.09064 346.15387 313.21564ZM352.07574 313.21564Q352.07574 311.6844 352.38824 310.7625Q352.70074 309.825 353.31012 309.325Q353.93512 308.825 354.87262 308.825Q355.56012 308.825 356.07574 309.10626Q356.607 309.3875 356.95074 309.91876Q357.2945 310.4344 357.482 311.1844Q357.6695 311.9344 357.6695 313.21564Q357.6695 314.73126 357.357 315.65314Q357.06012 316.575 356.43512 317.09064Q355.82574 317.59064 354.87262 317.59064Q353.63824 317.59064 352.9195 316.7Q352.07574 315.6375 352.07574 313.21564ZM353.15387 313.21564Q353.15387 315.325 353.65387 316.02814Q354.15387 316.73126 354.87262 316.73126Q355.607 316.73126 356.09137 316.02814Q356.59137 315.325 356.59137 313.21564Q356.59137 311.09064 356.09137 310.40314Q355.607 309.7 354.857 309.7Q354.13824 309.7 353.70074 310.3094Q353.15387 311.09064 353.15387 313.21564Z" fill-rule="nonzero"/><path fill="#000000" d="M473.80737 317.45L472.7605 317.45L472.7605 310.73126Q472.36987 311.09064 471.74487 311.46564Q471.1355 311.825 470.65112 311.9969L470.65112 310.98126Q471.52612 310.5594 472.18237 309.98126Q472.85425 309.3875 473.1355 308.825L473.80737 308.825L473.80737 317.45ZM476.83862 313.21564Q476.83862 311.6844 477.15112 310.7625Q477.46362 309.825 478.073 309.325Q478.698 308.825 479.6355 308.825Q480.323 308.825 480.83862 309.10626Q481.36987 309.3875 481.71362 309.91876Q482.05737 310.4344 482.24487 311.1844Q482.43237 311.9344 482.43237 313.21564Q482.43237 314.73126 482.11987 315.65314Q481.823 316.575 481.198 317.09064Q480.58862 317.59064 479.6355 317.59064Q478.40112 317.59064 477.68237 316.7Q476.83862 315.6375 476.83862 313.21564ZM477.91675 313.21564Q477.91675 315.325 478.41675 316.02814Q478.91675 316.73126 479.6355 316.73126Q480.36987 316.73126 480.85425 316.02814Q481.35425 315.325 481.35425 313.21564Q481.35425 311.09064 480.85425 310.40314Q480.36987 309.7 479.61987 309.7Q478.90112 309.7 478.46362 310.3094Q477.91675 311.09064 477.91675 313.21564ZM483.83862 313.21564Q483.83862 311.6844 484.15112 310.7625Q484.46362 309.825 485.073 309.325Q485.698 308.825 486.6355 308.825Q487.323 308.825 487.83862 309.10626Q488.36987 309.3875 488.71362 309.91876Q489.05737 310.4344 489.24487 311.1844Q489.43237 311.9344 489.43237 313.21564Q489.43237 314.73126 489.11987 315.65314Q488.823 316.575 488.198 317.09064Q487.58862 317.59064 486.6355 317.59064Q485.40112 317.59064 484.68237 316.7Q483.83862 315.6375 483.83862 313.21564ZM484.91675 313.21564Q484.91675 315.325 485.41675 316.02814Q485.91675 316.73126 486.6355 316.73126Q487.36987 316.73126 487.85425 316.02814Q488.35425 315.325 488.35425 313.21564Q488.35425 311.09064 487.85425 310.40314Q487.36987 309.7 486.61987 309.7Q485.90112 309.7 485.46362 310.3094Q484.91675 311.09064 484.91675 313.21564ZM490.83862 313.21564Q490.83862 311.6844 491.15112 310.7625Q491.46362 309.825 492.073 309.325Q492.698 308.825 493.6355 308.825Q494.323 308.825 494.83862 309.10626Q495.36987 309.3875 495.71362 309.91876Q496.05737 310.4344 496.24487 311.1844Q496.43237 311.9344 496.43237 313.21564Q496.43237 314.73126 496.11987 315.65314Q495.823 316.575 495.198 317.09064Q494.58862 317.59064 493.6355 317.59064Q492.40112 317.59064 491.68237 316.7Q490.83862 315.6375 490.83862 313.21564ZM491.91675 313.21564Q491.91675 315.325 492.41675 316.02814Q492.91675 316.73126 493.6355 316.73126Q494.36987 316.73126 494.85425 316.02814Q495.35425 315.325 495.35425 313.21564Q495.35425 311.09064 494.85425 310.40314Q494.36987 309.7 493.61987 309.7Q492.90112 309.7 492.46362 310.3094Q491.91675 311.09064 491.91675 313.21564Z" fill-rule="nonzero"/><path stroke="#4285f4" stroke-width="4.0" stroke-linecap="butt" d="M198.0 61.916668L210.0 61.916668" fill-rule="nonzero"/><path fill="#1a1a1a" d="M219.76562 65.916664L218.78125 65.916664L218.78125 57.322914L219.84375 57.322914L219.84375 60.385414Q220.51562 59.55729 221.54688 59.55729Q222.125 59.55729 222.625 59.791664Q223.14062 60.010414 223.46875 60.43229Q223.8125 60.854164 224.0 61.447914Q224.1875 62.041664 224.1875 62.71354Q224.1875 64.30729 223.39062 65.18229Q222.59375 66.05729 221.5 66.05729Q220.39062 66.05729 219.76562 65.135414L219.76562 65.916664ZM219.75 62.760414Q219.75 63.86979 220.0625 64.36979Q220.5625 65.18229 221.40625 65.18229Q222.09375 65.18229 222.59375 64.58854Q223.10938 63.99479 223.10938 62.791664Q223.10938 61.572914 222.625 60.99479Q222.14062 60.416664 221.45312 60.416664Q220.76562 60.416664 220.25 61.02604Q219.75 61.61979 219.75 62.760414ZM229.85938 65.15104Q229.26562 65.65104 228.71875 65.854164Q228.1875 66.05729 227.5625 66.05729Q226.53125 66.05729 225.98438 65.55729Q225.4375 65.05729 225.4375 64.27604Q225.4375 63.822914 225.64062 63.447914Q225.84375 63.05729 226.1875 62.83854Q226.53125 62.604164 226.95312 62.49479Q227.25 62.40104 227.89062 62.322914Q229.15625 62.18229 229.76562 61.96354Q229.76562 61.74479 229.76562 61.697914Q229.76562 61.041664 229.46875 60.77604Q229.0625 60.43229 228.26562 60.43229Q227.53125 60.43229 227.17188 60.697914Q226.8125 60.947914 226.64062 61.604164L225.60938 61.46354Q225.75 60.80729 226.07812 60.40104Q226.40625 59.99479 227.01562 59.77604Q227.625 59.55729 228.42188 59.55729Q229.21875 59.55729 229.71875 59.74479Q230.21875 59.93229 230.45312 60.21354Q230.6875 60.49479 230.78125 60.93229Q230.82812 61.197914 230.82812 61.90104L230.82812 63.30729Q230.82812 64.77604 230.89062 65.166664Q230.96875 65.55729 231.17188 65.916664L230.0625 65.916664Q229.90625 65.58854 229.85938 65.15104ZM229.76562 62.791664Q229.1875 63.02604 228.04688 63.197914Q227.39062 63.291664 227.125 63.416664Q226.85938 63.52604 226.70312 63.74479Q226.5625 63.96354 226.5625 64.24479Q226.5625 64.666664 226.875 64.947914Q227.20312 65.229164 227.8125 65.229164Q228.42188 65.229164 228.89062 64.96354Q229.375 64.697914 229.59375 64.229164Q229.76562 63.86979 229.76562 63.18229L229.76562 62.791664ZM232.375 64.05729L233.40625 63.90104Q233.5 64.52604 233.89062 64.854164Q234.29688 65.18229 235.03125 65.18229Q235.75 65.18229 236.09375 64.90104Q236.45312 64.604164 236.45312 64.197914Q236.45312 63.83854 236.14062 63.635414Q235.92188 63.49479 235.0625 63.27604Q233.90625 62.979164 233.45312 62.77604Q233.01562 62.55729 232.78125 62.18229Q232.54688 61.80729 232.54688 61.33854Q232.54688 60.93229 232.73438 60.572914Q232.92188 60.21354 233.25 59.979164Q233.5 59.80729 233.92188 59.68229Q234.34375 59.55729 234.84375 59.55729Q235.5625 59.55729 236.10938 59.77604Q236.67188 59.979164 236.9375 60.33854Q237.20312 60.697914 237.29688 61.291664L236.26562 61.43229Q236.20312 60.96354 235.85938 60.697914Q235.53125 60.416664 234.90625 60.416664Q234.1875 60.416664 233.875 60.666664Q233.5625 60.90104 233.5625 61.229164Q233.5625 61.43229 233.6875 61.58854Q233.82812 61.760414 234.09375 61.86979Q234.25 61.93229 235.03125 62.135414Q236.15625 62.447914 236.59375 62.635414Q237.03125 62.822914 237.28125 63.18229Q237.53125 63.541664 237.53125 64.08854Q237.53125 64.61979 237.21875 65.08854Q236.92188 65.541664 236.34375 65.80729Q235.76562 66.05729 235.03125 66.05729Q233.8125 66.05729 233.17188 65.55729Q232.54688 65.041664 232.375 64.05729ZM244.04688 63.916664L245.14062 64.041664Q244.89062 64.99479 244.1875 65.52604Q243.48438 66.05729 242.40625 66.05729Q241.04688 66.05729 240.23438 65.21354Q239.4375 64.36979 239.4375 62.854164Q239.4375 61.291664 240.25 60.43229Q241.0625 59.55729 242.34375 59.55729Q243.59375 59.55729 244.375 60.40104Q245.17188 61.24479 245.17188 62.791664Q245.17188 62.885414 245.17188 63.072914L240.53125 63.072914Q240.59375 64.104164 241.10938 64.65104Q241.625 65.18229 242.40625 65.18229Q242.98438 65.18229 243.39062 64.885414Q243.8125 64.572914 244.04688 63.916664ZM240.59375 62.21354L244.0625 62.21354Q244.0 61.416664 243.67188 61.02604Q243.15625 60.416664 242.35938 60.416664Q241.625 60.416664 241.125 60.90104Q240.64062 61.385414 240.59375 62.21354ZM246.76562 65.916664L246.76562 57.322914L247.82812 57.322914L247.82812 65.916664L246.76562 65.916664ZM249.79688 58.541664L249.79688 57.322914L250.85938 57.322914L250.85938 58.541664L249.79688 58.541664ZM249.79688 65.916664L249.79688 59.697914L250.85938 59.697914L250.85938 65.916664L249.79688 65.916664ZM252.79688 65.916664L252.79688 59.697914L253.73438 59.697914L253.73438 60.572914Q254.42188 59.55729 255.71875 59.55729Q256.28125 59.55729 256.75 59.760414Q257.23438 59.96354 257.46875 60.291664Q257.70312 60.61979 257.79688 61.05729Q257.84375 61.354164 257.84375 62.08854L257.84375 65.916664L256.79688 65.916664L256.79688 62.135414Q256.79688 61.479164 256.67188 61.166664Q256.54688 60.854164 256.23438 60.666664Q255.92188 60.46354 255.5 60.46354Q254.82812 60.46354 254.32812 60.90104Q253.84375 61.322914 253.84375 62.510414L253.84375 65.916664L252.79688 65.916664ZM264.04688 63.916664L265.14062 64.041664Q264.89062 64.99479 264.1875 65.52604Q263.48438 66.05729 262.40625 66.05729Q261.04688 66.05729 260.23438 65.21354Q259.4375 64.36979 259.4375 62.854164Q259.4375 61.291664 260.25 60.43229Q261.0625 59.55729 262.34375 59.55729Q263.59375 59.55729 264.375 60.40104Q265.17188 61.24479 265.17188 62.791664Q265.17188 62.885414 265.17188 63.072914L260.53125 63.072914Q260.59375 64.104164 261.10938 64.65104Q261.625 65.18229 262.40625 65.18229Q262.98438 65.18229 263.39062 64.885414Q263.8125 64.572914 264.04688 63.916664ZM260.59375 62.21354L264.0625 62.21354Q264.0 61.416664 263.67188 61.02604Q263.15625 60.416664 262.35938 60.416664Q261.625 60.416664 261.125 60.90104Q260.64062 61.385414 260.59375 62.21354Z" fill-rule="nonzero"/><path stroke="#ea4335" stroke-width="4.0" stroke-linecap="butt" d="M282.0 61.916668L294.0 61.916668" fill-rule="nonzero"/><path fill="#1a1a1a" d="M302.79688 68.30729L302.79688 59.697914L303.75 59.697914L303.75 60.49479Q304.09375 60.02604 304.51562 59.791664Q304.95312 59.55729 305.5625 59.55729Q306.35938 59.55729 306.96875 59.96354Q307.57812 60.36979 307.875 61.11979Q308.1875 61.86979 308.1875 62.760414Q308.1875 63.71354 307.84375 64.479164Q307.51562 65.24479 306.85938 65.65104Q306.20312 66.05729 305.48438 66.05729Q304.95312 66.05729 304.53125 65.83854Q304.10938 65.604164 303.84375 65.27604L303.84375 68.30729L302.79688 68.30729ZM303.75 62.83854Q303.75 64.041664 304.23438 64.61979Q304.71875 65.18229 305.40625 65.18229Q306.10938 65.18229 306.60938 64.58854Q307.10938 63.99479 307.10938 62.74479Q307.10938 61.55729 306.625 60.979164Q306.14062 60.385414 305.45312 60.385414Q304.78125 60.385414 304.26562 61.010414Q303.75 61.635414 303.75 62.83854ZM313.85938 65.15104Q313.26562 65.65104 312.71875 65.854164Q312.1875 66.05729 311.5625 66.05729Q310.53125 66.05729 309.98438 65.55729Q309.4375 65.05729 309.4375 64.27604Q309.4375 63.822914 309.64062 63.447914Q309.84375 63.05729 310.1875 62.83854Q310.53125 62.604164 310.95312 62.49479Q311.25 62.40104 311.89062 62.322914Q313.15625 62.18229 313.76562 61.96354Q313.76562 61.74479 313.76562 61.697914Q313.76562 61.041664 313.46875 60.77604Q313.0625 60.43229 312.26562 60.43229Q311.53125 60.43229 311.17188 60.697914Q310.8125 60.947914 310.64062 61.604164L309.60938 61.46354Q309.75 60.80729 310.07812 60.40104Q310.40625 59.99479 311.01562 59.77604Q311.625 59.55729 312.42188 59.55729Q313.21875 59.55729 313.71875 59.74479Q314.21875 59.93229 314.45312 60.21354Q314.6875 60.49479 314.78125 60.93229Q314.82812 61.197914 314.82812 61.90104L314.82812 63.30729Q314.82812 64.77604 314.89062 65.166664Q314.96875 65.55729 315.17188 65.916664L314.0625 65.916664Q313.90625 65.58854 313.85938 65.15104ZM313.76562 62.791664Q313.1875 63.02604 312.04688 63.197914Q311.39062 63.291664 311.125 63.416664Q310.85938 63.52604 310.70312 63.74479Q310.5625 63.96354 310.5625 64.24479Q310.5625 64.666664 310.875 64.947914Q311.20312 65.229164 311.8125 65.229164Q312.42188 65.229164 312.89062 64.96354Q313.375 64.697914 313.59375 64.229164Q313.76562 63.86979 313.76562 63.18229L313.76562 62.791664ZM319.09375 64.979164L319.25 65.90104Q318.79688 65.99479 318.45312 65.99479Q317.875 65.99479 317.5625 65.822914Q317.25 65.635414 317.10938 65.33854Q316.98438 65.041664 316.98438 64.08854L316.98438 60.510414L316.21875 60.510414L316.21875 59.697914L316.98438 59.697914L316.98438 58.15104L318.03125 57.52604L318.03125 59.697914L319.09375 59.697914L319.09375 60.510414L318.03125 60.510414L318.03125 64.15104Q318.03125 64.604164 318.07812 64.729164Q318.14062 64.854164 318.26562 64.93229Q318.39062 65.010414 318.625 65.010414Q318.8125 65.010414 319.09375 64.979164ZM323.85938 63.635414L324.89062 63.77604Q324.71875 64.83854 324.01562 65.447914Q323.3125 66.05729 322.29688 66.05729Q321.01562 66.05729 320.23438 65.229164Q319.46875 64.385414 319.46875 62.822914Q319.46875 61.822914 319.79688 61.072914Q320.14062 60.30729 320.8125 59.93229Q321.5 59.55729 322.3125 59.55729Q323.3125 59.55729 323.95312 60.072914Q324.60938 60.572914 324.79688 61.52604L323.76562 61.68229Q323.625 61.05729 323.25 60.74479Q322.875 60.416664 322.34375 60.416664Q321.54688 60.416664 321.04688 60.99479Q320.54688 61.55729 320.54688 62.791664Q320.54688 64.05729 321.03125 64.61979Q321.51562 65.18229 322.28125 65.18229Q322.90625 65.18229 323.3125 64.80729Q323.73438 64.43229 323.85938 63.635414ZM325.79688 65.916664L325.79688 57.322914L326.84375 57.322914L326.84375 60.40104Q327.57812 59.55729 328.70312 59.55729Q329.40625 59.55729 329.90625 59.83854Q330.42188 60.104164 330.64062 60.58854Q330.85938 61.05729 330.85938 61.979164L330.85938 65.916664L329.8125 65.916664L329.8125 61.979164Q329.8125 61.18229 329.46875 60.822914Q329.125 60.46354 328.5 60.46354Q328.03125 60.46354 327.60938 60.71354Q327.20312 60.947914 327.01562 61.36979Q326.84375 61.77604 326.84375 62.510414L326.84375 65.916664L325.79688 65.916664ZM337.04688 63.916664L338.14062 64.041664Q337.89062 64.99479 337.1875 65.52604Q336.48438 66.05729 335.40625 66.05729Q334.04688 66.05729 333.23438 65.21354Q332.4375 64.36979 332.4375 62.854164Q332.4375 61.291664 333.25 60.43229Q334.0625 59.55729 335.34375 59.55729Q336.59375 59.55729 337.375 60.40104Q338.17188 61.24479 338.17188 62.791664Q338.17188 62.885414 338.17188 63.072914L333.53125 63.072914Q333.59375 64.104164 334.10938 64.65104Q334.625 65.18229 335.40625 65.18229Q335.98438 65.18229 336.39062 64.885414Q336.8125 64.572914 337.04688 63.916664ZM333.59375 62.21354L337.0625 62.21354Q337.0 61.416664 336.67188 61.02604Q336.15625 60.416664 335.35938 60.416664Q334.625 60.416664 334.125 60.90104Q333.64062 61.385414 333.59375 62.21354ZM343.82812 65.916664L343.82812 65.135414Q343.23438 66.05729 342.09375 66.05729Q341.34375 66.05729 340.71875 65.65104Q340.09375 65.229164 339.75 64.49479Q339.40625 63.760414 339.40625 62.80729Q339.40625 61.885414 339.71875 61.11979Q340.03125 60.354164 340.65625 59.96354Q341.28125 59.55729 342.04688 59.55729Q342.60938 59.55729 343.04688 59.791664Q343.48438 60.02604 343.76562 60.40104L343.76562 57.322914L344.8125 57.322914L344.8125 65.916664L343.82812 65.916664ZM340.5 62.80729Q340.5 64.010414 341.0 64.604164Q341.5 65.18229 342.1875 65.18229Q342.875 65.18229 343.35938 64.61979Q343.84375 64.05729 343.84375 62.90104Q343.84375 61.61979 343.34375 61.02604Q342.85938 60.43229 342.14062 60.43229Q341.4375 60.43229 340.96875 61.010414Q340.5 61.572914 340.5 62.80729Z" fill-rule="nonzero"/><path fill="#757575" d="M64.3125 37.55L64.3125 27.175L65.890625 27.175L65.890625 28.628124Q66.375 27.878124 67.1875 27.409374Q68.0 26.940624 69.03125 26.940624Q70.1875 26.940624 70.921875 27.425Q71.65625 27.89375 71.96875 28.753124Q73.203125 26.940624 75.171875 26.940624Q76.71875 26.940624 77.546875 27.8Q78.375 28.659374 78.375 30.425L78.375 37.55L76.625 37.55L76.625 31.01875Q76.625 29.95625 76.453125 29.503124Q76.28125 29.034374 75.828125 28.753124Q75.390625 28.471874 74.78125 28.471874Q73.6875 28.471874 72.953125 29.20625Q72.234375 29.925 72.234375 31.51875L72.234375 37.55L70.484375 37.55L70.484375 30.815624Q70.484375 29.64375 70.046875 29.065624Q69.625 28.471874 68.640625 28.471874Q67.90625 28.471874 67.265625 28.8625Q66.640625 29.253124 66.359375 30.003124Q66.078125 30.753124 66.078125 32.175L66.078125 37.55L64.3125 37.55ZM87.421875 34.20625L89.234375 34.440624Q88.8125 36.01875 87.640625 36.909374Q86.484375 37.784374 84.671875 37.784374Q82.40625 37.784374 81.0625 36.39375Q79.734375 34.9875 79.734375 32.45625Q79.734375 29.83125 81.078125 28.39375Q82.421875 26.940624 84.578125 26.940624Q86.65625 26.940624 87.96875 28.3625Q89.296875 29.76875 89.296875 32.346874Q89.296875 32.503124 89.28125 32.815624L81.546875 32.815624Q81.640625 34.51875 82.515625 35.425Q83.390625 36.33125 84.6875 36.33125Q85.65625 36.33125 86.328125 35.83125Q87.015625 35.315624 87.421875 34.20625ZM81.640625 31.3625L87.4375 31.3625Q87.328125 30.065624 86.78125 29.409374Q85.9375 28.39375 84.59375 28.39375Q83.390625 28.39375 82.5625 29.20625Q81.734375 30.003124 81.640625 31.3625ZM91.3125 37.55L91.3125 27.175L92.890625 27.175L92.890625 28.628124Q93.375 27.878124 94.1875 27.409374Q95.0 26.940624 96.03125 26.940624Q97.1875 26.940624 97.921875 27.425Q98.65625 27.89375 98.96875 28.753124Q100.203125 26.940624 102.171875 26.940624Q103.71875 26.940624 104.546875 27.8Q105.375 28.659374 105.375 30.425L105.375 37.55L103.625 37.55L103.625 31.01875Q103.625 29.95625 103.453125 29.503124Q103.28125 29.034374 102.828125 28.753124Q102.390625 28.471874 101.78125 28.471874Q100.6875 28.471874 99.953125 29.20625Q99.234375 29.925 99.234375 31.51875L99.234375 37.55L97.484375 37.55L97.484375 30.815624Q97.484375 29.64375 97.046875 29.065624Q96.625 28.471874 95.640625 28.471874Q94.90625 28.471874 94.265625 28.8625Q93.640625 29.253124 93.359375 30.003124Q93.078125 30.753124 93.078125 32.175L93.078125 37.55L91.3125 37.55ZM114.09375 33.753124L115.8125 33.971874Q115.53125 35.76875 114.359375 36.784374Q113.203125 37.784374 111.5 37.784374Q109.375 37.784374 108.078125 36.39375Q106.78125 35.003124 106.78125 32.409374Q106.78125 30.721874 107.328125 29.471874Q107.890625 28.20625 109.03125 27.58125Q110.171875 26.940624 111.515625 26.940624Q113.203125 26.940624 114.265625 27.8Q115.34375 28.659374 115.65625 30.221874L113.9375 30.4875Q113.703125 29.440624 113.078125 28.925Q112.453125 28.39375 111.578125 28.39375Q110.25 28.39375 109.421875 29.346874Q108.59375 30.3 108.59375 32.346874Q108.59375 34.440624 109.390625 35.39375Q110.1875 36.33125 111.484375 36.33125Q112.515625 36.33125 113.203125 35.70625Q113.90625 35.065624 114.09375 33.753124ZM117.3125 41.51875L117.3125 27.175L118.921875 27.175L118.921875 28.51875Q119.484375 27.7375 120.1875 27.346874Q120.90625 26.940624 121.921875 26.940624Q123.25 26.940624 124.265625 27.628124Q125.28125 28.315624 125.796875 29.565624Q126.328125 30.8 126.328125 32.284374Q126.328125 33.878124 125.75 35.159374Q125.1875 36.425 124.09375 37.1125Q123.0 37.784374 121.796875 37.784374Q120.921875 37.784374 120.21875 37.409374Q119.53125 37.034374 119.078125 36.471874L119.078125 41.51875L117.3125 41.51875ZM118.90625 32.425Q118.90625 34.425 119.71875 35.378124Q120.53125 36.33125 121.6875 36.33125Q122.859375 36.33125 123.6875 35.346874Q124.53125 34.3625 124.53125 32.26875Q124.53125 30.3 123.703125 29.315624Q122.890625 28.315624 121.765625 28.315624Q120.640625 28.315624 119.765625 29.378124Q118.90625 30.425 118.90625 32.425ZM128.23438 41.55L128.04688 39.89375Q128.625 40.05 129.04688 40.05Q129.64062 40.05 129.98438 39.846874Q130.34375 39.659374 130.5625 39.315624Q130.73438 39.05 131.10938 38.003124Q131.15625 37.846874 131.26562 37.565624L127.328125 27.175L129.21875 27.175L131.375 33.190624Q131.79688 34.33125 132.125 35.58125Q132.4375 34.378124 132.84375 33.221874L135.0625 27.175L136.82812 27.175L132.875 37.721874Q132.25 39.440624 131.89062 40.08125Q131.42188 40.95625 130.8125 41.346874Q130.21875 41.753124 129.375 41.753124Q128.85938 41.753124 128.23438 41.55ZM144.32812 25.253124L144.32812 23.2375L146.09375 23.2375L146.09375 25.253124L144.32812 25.253124ZM144.32812 37.55L144.32812 27.175L146.09375 27.175L146.09375 37.55L144.32812 37.55ZM148.3125 37.55L148.3125 27.175L149.90625 27.175L149.90625 28.659374Q151.04688 26.940624 153.20312 26.940624Q154.14062 26.940624 154.92188 27.284374Q155.71875 27.6125 156.10938 28.159374Q156.5 28.70625 156.65625 29.45625Q156.75 29.95625 156.75 31.175L156.75 37.55L154.98438 37.55L154.98438 31.2375Q154.98438 30.159374 154.78125 29.628124Q154.57812 29.096874 154.04688 28.784374Q153.53125 28.471874 152.82812 28.471874Q151.70312 28.471874 150.89062 29.190624Q150.07812 29.89375 150.07812 31.878124L150.07812 37.55L148.3125 37.55ZM157.60938 34.45625L159.35938 34.175Q159.5 35.221874 160.17188 35.784374Q160.84375 36.33125 162.04688 36.33125Q163.25 36.33125 163.82812 35.846874Q164.42188 35.346874 164.42188 34.690624Q164.42188 34.096874 163.90625 33.753124Q163.54688 33.51875 162.10938 33.159374Q160.17188 32.659374 159.42188 32.315624Q158.6875 31.95625 158.29688 31.33125Q157.90625 30.690624 157.90625 29.925Q157.90625 29.2375 158.21875 28.64375Q158.54688 28.05 159.09375 27.659374Q159.5 27.3625 160.20312 27.159374Q160.92188 26.940624 161.73438 26.940624Q162.95312 26.940624 163.875 27.3Q164.79688 27.64375 165.23438 28.253124Q165.67188 28.846874 165.84375 29.846874L164.125 30.08125Q164.0 29.284374 163.4375 28.846874Q162.875 28.39375 161.85938 28.39375Q160.64062 28.39375 160.125 28.8Q159.60938 29.190624 159.60938 29.721874Q159.60938 30.065624 159.82812 30.346874Q160.03125 30.628124 160.5 30.815624Q160.76562 30.909374 162.04688 31.253124Q163.92188 31.753124 164.65625 32.08125Q165.39062 32.39375 165.8125 33.003124Q166.23438 33.596874 166.23438 34.503124Q166.23438 35.378124 165.71875 36.159374Q165.20312 36.940624 164.23438 37.3625Q163.26562 37.784374 162.04688 37.784374Q160.03125 37.784374 158.96875 36.940624Q157.90625 36.096874 157.60938 34.45625ZM172.15625 35.971874L172.40625 37.534374Q171.67188 37.690624 171.07812 37.690624Q170.125 37.690624 169.59375 37.39375Q169.07812 37.08125 168.85938 36.596874Q168.64062 36.096874 168.64062 34.51875L168.64062 28.55L167.35938 28.55L167.35938 27.175L168.64062 27.175L168.64062 24.6125L170.39062 23.55L170.39062 27.175L172.15625 27.175L172.15625 28.55L170.39062 28.55L170.39062 34.6125Q170.39062 35.3625 170.48438 35.58125Q170.57812 35.784374 170.78125 35.925Q171.0 36.05 171.39062 36.05Q171.67188 36.05 172.15625 35.971874ZM174.29688 37.55L174.29688 27.175L175.875 27.175L175.875 28.753124Q176.48438 27.64375 177.0 27.3Q177.51562 26.940624 178.125 26.940624Q179.01562 26.940624 179.9375 27.503124L179.32812 29.14375Q178.6875 28.753124 178.04688 28.753124Q177.46875 28.753124 177.0 29.1125Q176.54688 29.45625 176.34375 30.065624Q176.0625 31.003124 176.0625 32.1125L176.0625 37.55L174.29688 37.55ZM188.10938 37.55L188.10938 36.01875Q186.90625 37.784374 184.82812 37.784374Q183.90625 37.784374 183.10938 37.440624Q182.3125 37.08125 181.92188 36.55Q181.54688 36.01875 181.39062 35.2375Q181.28125 34.721874 181.28125 33.596874L181.28125 27.175L183.03125 27.175L183.03125 32.925Q183.03125 34.3 183.14062 34.784374Q183.3125 35.471874 183.84375 35.878124Q184.39062 36.26875 185.17188 36.26875Q185.96875 36.26875 186.65625 35.8625Q187.35938 35.45625 187.64062 34.76875Q187.9375 34.065624 187.9375 32.7375L187.9375 27.175L189.6875 27.175L189.6875 37.55L188.10938 37.55ZM198.09375 33.753124L199.8125 33.971874Q199.53125 35.76875 198.35938 36.784374Q197.20312 37.784374 195.5 37.784374Q193.375 37.784374 192.07812 36.39375Q190.78125 35.003124 190.78125 32.409374Q190.78125 30.721874 191.32812 29.471874Q191.89062 28.20625 193.03125 27.58125Q194.17188 26.940624 195.51562 26.940624Q197.20312 26.940624 198.26562 27.8Q199.34375 28.659374 199.65625 30.221874L197.9375 30.4875Q197.70312 29.440624 197.07812 28.925Q196.45312 28.39375 195.57812 28.39375Q194.25 28.39375 193.42188 29.346874Q192.59375 30.3 192.59375 32.346874Q192.59375 34.440624 193.39062 35.39375Q194.1875 36.33125 195.48438 36.33125Q196.51562 36.33125 197.20312 35.70625Q197.90625 35.065624 198.09375 33.753124ZM205.15625 35.971874L205.40625 37.534374Q204.67188 37.690624 204.07812 37.690624Q203.125 37.690624 202.59375 37.39375Q202.07812 37.08125 201.85938 36.596874Q201.64062 36.096874 201.64062 34.51875L201.64062 28.55L200.35938 28.55L200.35938 27.175L201.64062 27.175L201.64062 24.6125L203.39062 23.55L203.39062 27.175L205.15625 27.175L205.15625 28.55L203.39062 28.55L203.39062 34.6125Q203.39062 35.3625 203.48438 35.58125Q203.57812 35.784374 203.78125 35.925Q204.0 36.05 204.39062 36.05Q204.67188 36.05 205.15625 35.971874ZM207.32812 25.253124L207.32812 23.2375L209.09375 23.2375L209.09375 25.253124L207.32812 25.253124ZM207.32812 37.55L207.32812 27.175L209.09375 27.175L209.09375 37.55L207.32812 37.55ZM210.67188 32.3625Q210.67188 29.4875 212.26562 28.096874Q213.60938 26.940624 215.53125 26.940624Q217.67188 26.940624 219.01562 28.346874Q220.375 29.753124 220.375 32.221874Q220.375 34.221874 219.78125 35.378124Q219.1875 36.51875 218.03125 37.159374Q216.89062 37.784374 215.53125 37.784374Q213.34375 37.784374 212.0 36.39375Q210.67188 34.9875 210.67188 32.3625ZM212.46875 32.3625Q212.46875 34.3625 213.32812 35.346874Q214.20312 36.33125 215.53125 36.33125Q216.84375 36.33125 217.70312 35.346874Q218.57812 34.346874 218.57812 32.3Q218.57812 30.378124 217.70312 29.39375Q216.82812 28.39375 215.53125 28.39375Q214.20312 28.39375 213.32812 29.39375Q212.46875 30.378124 212.46875 32.3625ZM222.3125 37.55L222.3125 27.175L223.90625 27.175L223.90625 28.659374Q225.04688 26.940624 227.20312 26.940624Q228.14062 26.940624 228.92188 27.284374Q229.71875 27.6125 230.10938 28.159374Q230.5 28.70625 230.65625 29.45625Q230.75 29.95625 230.75 31.175L230.75 37.55L228.98438 37.55L228.98438 31.2375Q228.98438 30.159374 228.78125 29.628124Q228.57812 29.096874 228.04688 28.784374Q227.53125 28.471874 226.82812 28.471874Q225.70312 28.471874 224.89062 29.190624Q224.07812 29.89375 224.07812 31.878124L224.07812 37.55L222.3125 37.55ZM242.15625 35.971874L242.40625 37.534374Q241.67188 37.690624 241.07812 37.690624Q240.125 37.690624 239.59375 37.39375Q239.07812 37.08125 238.85938 36.596874Q238.64062 36.096874 238.64062 34.51875L238.64062 28.55L237.35938 28.55L237.35938 27.175L238.64062 27.175L238.64062 24.6125L240.39062 23.55L240.39062 27.175L242.15625 27.175L242.15625 28.55L240.39062 28.55L240.39062 34.6125Q240.39062 35.3625 240.48438 35.58125Q240.57812 35.784374 240.78125 35.925Q241.0 36.05 241.39062 36.05Q241.67188 36.05 242.15625 35.971874ZM244.32812 25.253124L244.32812 23.2375L246.09375 23.2375L246.09375 25.253124L244.32812 25.253124ZM244.32812 37.55L244.32812 27.175L246.09375 27.175L246.09375 37.55L244.32812 37.55ZM248.3125 37.55L248.3125 27.175L249.89062 27.175L249.89062 28.628124Q250.375 27.878124 251.1875 27.409374Q252.0 26.940624 253.03125 26.940624Q254.1875 26.940624 254.92188 27.425Q255.65625 27.89375 255.96875 28.753124Q257.20312 26.940624 259.17188 26.940624Q260.71875 26.940624 261.54688 27.8Q262.375 28.659374 262.375 30.425L262.375 37.55L260.625 37.55L260.625 31.01875Q260.625 29.95625 260.45312 29.503124Q260.28125 29.034374 259.82812 28.753124Q259.39062 28.471874 258.78125 28.471874Q257.6875 28.471874 256.95312 29.20625Q256.23438 29.925 256.23438 31.51875L256.23438 37.55L254.48438 37.55L254.48438 30.815624Q254.48438 29.64375 254.04688 29.065624Q253.625 28.471874 252.64062 28.471874Q251.90625 28.471874 251.26562 28.8625Q250.64062 29.253124 250.35938 30.003124Q250.07812 30.753124 250.07812 32.175L250.07812 37.55L248.3125 37.55ZM264.32812 25.253124L264.32812 23.2375L266.09375 23.2375L266.09375 25.253124L264.32812 25.253124ZM264.32812 37.55L264.32812 27.175L266.09375 27.175L266.09375 37.55L264.32812 37.55ZM268.3125 37.55L268.3125 27.175L269.90625 27.175L269.90625 28.659374Q271.04688 26.940624 273.20312 26.940624Q274.14062 26.940624 274.92188 27.284374Q275.71875 27.6125 276.10938 28.159374Q276.5 28.70625 276.65625 29.45625Q276.75 29.95625 276.75 31.175L276.75 37.55L274.98438 37.55L274.98438 31.2375Q274.98438 30.159374 274.78125 29.628124Q274.57812 29.096874 274.04688 28.784374Q273.53125 28.471874 272.82812 28.471874Q271.70312 28.471874 270.89062 29.190624Q270.07812 29.89375 270.07812 31.878124L270.07812 37.55L268.3125 37.55ZM278.0 38.409374L279.70312 38.659374Q279.8125 39.45625 280.29688 39.815624Q280.95312 40.3 282.09375 40.3Q283.3125 40.3 283.96875 39.815624Q284.64062 39.33125 284.875 38.45625Q285.01562 37.909374 285.0 36.190624Q283.84375 37.55 282.125 37.55Q279.98438 37.55 278.8125 36.003124Q277.64062 34.45625 277.64062 32.3Q277.64062 30.815624 278.17188 29.565624Q278.71875 28.315624 279.73438 27.628124Q280.76562 26.940624 282.14062 26.940624Q283.96875 26.940624 285.17188 28.425L285.17188 27.175L286.78125 27.175L286.78125 36.14375Q286.78125 38.565624 286.28125 39.565624Q285.79688 40.58125 284.71875 41.159374Q283.65625 41.753124 282.09375 41.753124Q280.25 41.753124 279.09375 40.925Q277.95312 40.096874 278.0 38.409374ZM279.45312 32.175Q279.45312 34.221874 280.26562 35.159374Q281.07812 36.096874 282.29688 36.096874Q283.5 36.096874 284.3125 35.159374Q285.14062 34.221874 285.14062 32.2375Q285.14062 30.33125 284.29688 29.3625Q283.45312 28.39375 282.26562 28.39375Q281.09375 28.39375 280.26562 29.346874Q279.45312 30.3 279.45312 32.175ZM299.64062 37.55L294.09375 23.2375L296.14062 23.2375L299.85938 33.628124Q300.3125 34.878124 300.60938 35.971874Q300.9375 34.8 301.39062 33.628124L305.25 23.2375L307.1875 23.2375L301.57812 37.55L299.64062 37.55ZM308.46875 37.55L308.46875 23.2375L310.35938 23.2375L310.35938 35.8625L317.40625 35.8625L317.40625 37.55L308.46875 37.55ZM319.57812 37.55L319.57812 23.2375L329.9375 23.2375L329.9375 24.925L321.48438 24.925L321.48438 29.3L329.39062 29.3L329.39062 30.9875L321.48438 30.9875L321.48438 35.8625L330.26562 35.8625L330.26562 37.55L319.57812 37.55ZM332.53125 37.55L332.53125 23.2375L334.46875 23.2375L341.98438 34.471874L341.98438 23.2375L343.79688 23.2375L343.79688 37.55L341.85938 37.55L334.34375 26.3L334.34375 37.55L332.53125 37.55ZM354.5625 29.128124L345.10938 29.128124L345.10938 27.4875L354.5625 27.4875L354.5625 29.128124ZM354.5625 33.471874L345.10938 33.471874L345.10938 31.83125L354.5625 31.83125L354.5625 33.471874ZM363.45312 37.55L361.6875 37.55L361.6875 26.346874Q361.0625 26.95625 360.03125 27.565624Q359.0 28.159374 358.17188 28.471874L358.17188 26.76875Q359.65625 26.08125 360.75 25.096874Q361.85938 24.096874 362.3125 23.175L363.45312 23.175L363.45312 37.55ZM367.82812 30.4875Q367.82812 27.95625 368.34375 26.409374Q368.875 24.846874 369.90625 24.01875Q370.9375 23.175 372.5 23.175Q373.65625 23.175 374.51562 23.64375Q375.39062 24.096874 375.95312 24.971874Q376.51562 25.846874 376.84375 27.1125Q377.17188 28.3625 377.17188 30.4875Q377.17188 33.003124 376.64062 34.55Q376.125 36.096874 375.09375 36.95625Q374.07812 37.8 372.5 37.8Q370.42188 37.8 369.25 36.315624Q367.82812 34.51875 367.82812 30.4875ZM369.64062 30.4875Q369.64062 34.01875 370.45312 35.190624Q371.28125 36.346874 372.5 36.346874Q373.70312 36.346874 374.53125 35.175Q375.35938 34.003124 375.35938 30.4875Q375.35938 26.95625 374.53125 25.8Q373.70312 24.628124 372.48438 24.628124Q371.26562 24.628124 370.54688 25.659374Q369.64062 26.95625 369.64062 30.4875ZM388.0625 35.8625L388.0625 37.55L378.60938 37.55Q378.59375 36.909374 378.8125 36.33125Q379.17188 35.3625 379.96875 34.425Q380.76562 33.4875 382.26562 32.253124Q384.60938 30.346874 385.42188 29.2375Q386.25 28.1125 386.25 27.1125Q386.25 26.065624 385.5 25.346874Q384.75 24.628124 383.54688 24.628124Q382.28125 24.628124 381.51562 25.39375Q380.75 26.159374 380.75 27.503124L378.9375 27.315624Q379.125 25.3 380.32812 24.2375Q381.54688 23.175 383.59375 23.175Q385.64062 23.175 386.84375 24.315624Q388.04688 25.45625 388.04688 27.14375Q388.04688 28.003124 387.6875 28.846874Q387.34375 29.675 386.53125 30.596874Q385.71875 31.503124 383.82812 33.1125Q382.23438 34.440624 381.78125 34.909374Q381.34375 35.378124 381.04688 35.8625L388.0625 35.8625ZM395.46875 37.55L395.46875 34.128124L389.25 34.128124L389.25 32.503124L395.78125 23.2375L397.21875 23.2375L397.21875 32.503124L399.15625 32.503124L399.15625 34.128124L397.21875 34.128124L397.21875 37.55L395.46875 37.55ZM395.46875 32.503124L395.46875 26.05L390.98438 32.503124L395.46875 32.503124ZM407.46875 37.55L407.46875 23.2375L409.35938 23.2375L409.35938 35.8625L416.40625 35.8625L416.40625 37.55L407.46875 37.55ZM418.48438 37.55L418.48438 23.2375L421.34375 23.2375L424.71875 33.3625Q425.1875 34.784374 425.40625 35.4875Q425.65625 34.70625 426.17188 33.190624L429.59375 23.2375L432.14062 23.2375L432.14062 37.55L430.32812 37.55L430.32812 25.565624L426.15625 37.55L424.45312 37.55L420.3125 25.3625L420.3125 37.55L418.48438 37.55ZM444.9375 23.2375L446.82812 23.2375L446.82812 31.503124Q446.82812 33.659374 446.34375 34.940624Q445.85938 36.20625 444.57812 37.003124Q443.3125 37.8 441.23438 37.8Q439.21875 37.8 437.9375 37.1125Q436.67188 36.409374 436.125 35.096874Q435.57812 33.784374 435.57812 31.503124L435.57812 23.2375L437.46875 23.2375L437.46875 31.4875Q437.46875 33.3625 437.8125 34.253124Q438.15625 35.128124 439.0 35.6125Q439.84375 36.08125 441.07812 36.08125Q443.15625 36.08125 444.04688 35.14375Q444.9375 34.190624 444.9375 31.4875L444.9375 23.2375ZM448.46875 37.55L448.46875 23.2375L450.35938 23.2375L450.35938 35.8625L457.40625 35.8625L457.40625 37.55L448.46875 37.55ZM468.5625 29.128124L459.10938 29.128124L459.10938 27.4875L468.5625 27.4875L468.5625 29.128124ZM468.5625 33.471874L459.10938 33.471874L459.10938 31.83125L468.5625 31.83125L468.5625 33.471874ZM473.53125 29.784374Q472.4375 29.378124 471.90625 28.64375Q471.39062 27.89375 471.39062 26.8625Q471.39062 25.3 472.51562 24.2375Q473.64062 23.175 475.5 23.175Q477.375 23.175 478.51562 24.26875Q479.65625 25.346874 479.65625 26.909374Q479.65625 27.909374 479.125 28.64375Q478.60938 29.378124 477.54688 29.784374Q478.875 30.221874 479.5625 31.175Q480.25 32.128124 480.25 33.45625Q480.25 35.3 478.9375 36.55Q477.64062 37.8 475.53125 37.8Q473.40625 37.8 472.10938 36.55Q470.8125 35.284374 470.8125 33.409374Q470.8125 32.01875 471.51562 31.08125Q472.23438 30.128124 473.53125 29.784374ZM473.1875 26.8Q473.1875 27.815624 473.84375 28.471874Q474.5 29.1125 475.53125 29.1125Q476.54688 29.1125 477.20312 28.471874Q477.85938 27.83125 477.85938 26.909374Q477.85938 25.940624 477.1875 25.284374Q476.51562 24.6125 475.51562 24.6125Q474.51562 24.6125 473.84375 25.26875Q473.1875 25.909374 473.1875 26.8ZM472.625 33.425Q472.625 34.175 472.96875 34.878124Q473.32812 35.58125 474.03125 35.971874Q474.73438 36.346874 475.54688 36.346874Q476.8125 36.346874 477.625 35.534374Q478.45312 34.721874 478.45312 33.471874Q478.45312 32.20625 477.60938 31.378124Q476.76562 30.55 475.48438 30.55Q474.25 30.55 473.4375 31.378124Q472.625 32.190624 472.625 33.425Z" fill-rule="nonzero"/></svg>