<svg version="1.1" viewBox="0.0 0.0 544.0 371.0" fill="none" stroke="none" stroke-linecap="square" stroke-miterlimit="10" width="544" height="371" xmlns:xlink="http://www.w3.org/1999/xlink" xmlns="http://www.w3.org/2000/svg"><path fill="#ffffff" d="M0 0L544.0 0L544.0 371.0L0 371.0L0 0Z" fill-rule="nonzero"/><path stroke="#cccccc" stroke-width="1.0" stroke-linecap="butt" d="M87.5 88.5L87.5 300.5" fill-rule="nonzero"/><path stroke="#cccccc" stroke-width="1.0" stroke-linecap="butt" d="M198.5 88.5L198.5 300.5" fill-rule="nonzero"/><path stroke="#cccccc" stroke-width="1.0" stroke-linecap="butt" d="M308.5 88.5L308.5 300.5" fill-rule="nonzero"/><path stroke="#cccccc" stroke-width="1.0" stroke-linecap="butt" d="M419.5 88.5L419.5 300.5" fill-rule="nonzero"/><path stroke="#333333" stroke-width="1.0" stroke-linecap="butt" d="M87.5 300.5L525.5 300.5" fill-rule="nonzero"/><path stroke="#cccccc" stroke-width="1.0" stroke-linecap="butt" d="M87.5 247.5L525.5 247.5" fill-rule="nonzero"/><path stroke="#cccccc" stroke-width="1.0" stroke-linecap="butt" d="M87.5 194.5L525.5 194.5" fill-rule="nonzero"/><path stroke="#cccccc" stroke-width="1.0" stroke-linecap="butt" d="M87.5 141.5L525.5 141.5" fill-rule="nonzero"/><path stroke="#cccccc" stroke-width="1.0" stroke-linecap="butt" d="M87.5 88.5L525.5 88.5" fill-rule="nonzero"/><clipPath id="id_0"><path d="M87.55 88.28333L525.45 88.28333L525.45 300.45L87.55 300.45L87.55 88.28333Z" clip-rule="nonzero"/></clipPath><path stroke="#4285f4" stroke-width="2.0" stroke-linecap="butt" clip-path="url(#id_0)" d="M87.55 155.29617L120.84499 132.96457L140.32132 121.7993L154.14 138.54774L164.85858 127.38247L173.61632 138.54774L181.02087 138.54774L187.43498 144.1309L193.09264 149.71301L198.15358 132.95715L202.73177 110.62448L206.91132 127.37398L210.75613 138.54031L214.31587 144.12347L217.62991 144.12347L220.72998 132.95715L223.64206 138.54031L226.38763 127.37398L228.98473 121.79082L231.44858 138.54031L233.79219 144.12347L236.02676 132.95715L238.16197 132.95715L240.20631 138.54031L242.16718 132.95715L244.05112 132.95715L245.86397 132.95715L247.61087 132.95715L249.29646 132.95715L250.92491 138.54031L252.49995 132.95715L254.02498 132.95715L255.50308 138.54031L256.93704 127.37398L258.32947 138.54031L268.21747 132.95715L274.49173 127.37398L275.46216 138.54031L276.4134 149.70665L277.34613 132.95715L278.26108 110.62448L283.41257 132.95715L284.2199 138.54031L285.0139 132.95715L285.79495 110.62448L286.5635 138.54031L287.31998 138.54031L288.06473 132.95715L288.7981 121.79082L289.52042 132.95715L297.43436 132.95715L320.23822 127.37717L320.61496 127.37717L320.9888 125.011505L321.3597 129.09148L321.72778 116.85158L322.09308 129.09148L322.4556 125.011505L341.3262 116.85158L353.90997 125.011505L358.38568 126.864784L387.20496 117.461555L395.85312 124.40047L420.49997 116.37526L441.30252 120.21866L453.79495 163.5728L470.45392 239.13171L487.08997 284.26804L497.44125 284.46536L520.38495 283.84583L525.45 283.5923" fill-rule="nonzero"/><path fill="#000000" fill-opacity="0.0" clip-path="url(#id_0)" d="M90.55 155.29617C90.55 156.95303 89.206856 158.29617 87.55 158.29617C85.89314 158.29617 84.55 156.95303 84.55 155.29617C84.55 153.63933 85.89314 152.29617 87.55 152.29617C89.206856 152.29617 90.55 153.63933 90.55 155.29617Z" fill-rule="nonzero"/><path fill="#000000" fill-opacity="0.0" clip-path="url(#id_0)" d="M123.84499 132.96457C123.84499 134.62143 122.501854 135.96457 120.84499 135.96457C119.18814 135.96457 117.84499 134.62143 117.84499 132.96457C117.84499 131.30772 119.18814 129.96457 120.84499 129.96457C122.501854 129.96457 123.84499 131.30772 123.84499 132.96457Z" fill-rule="nonzero"/><path fill="#000000" fill-opacity="0.0" clip-path="url(#id_0)" d="M143.32132 121.7993C143.32132 123.456154 141.97818 124.7993 140.32132 124.7993C138.66446 124.7993 137.32132 123.456154 137.32132 121.7993C137.32132 120.14245 138.66446 118.7993 140.32132 118.7993C141.97818 118.7993 143.32132 120.14245 143.32132 121.7993Z" fill-rule="nonzero"/><path fill="#000000" fill-opacity="0.0" clip-path="url(#id_0)" d="M157.14 138.54774C157.14 140.20459 155.79684 141.54774 154.14 141.54774C152.48314 141.54774 151.14 140.20459 151.14 138.54774C151.14 136.89088 152.48314 135.54774 154.14 135.54774C155.79684 135.54774 157.14 136.89088 157.14 138.54774Z" fill-rule="nonzero"/><path fill="#000000" fill-opacity="0.0" clip-path="url(#id_0)" d="M167.85858 127.38247C167.85858 129.03932 166.51544 130.38246 164.85858 130.38246C163.20174 130.38246 161.85858 129.03932 161.85858 127.38247C161.85858 125.72562 163.20174 124.38247 164.85858 124.38247C166.51544 124.38247 167.85858 125.72562 167.85858 127.38247Z" fill-rule="nonzero"/><path fill="#000000" fill-opacity="0.0" clip-path="url(#id_0)" d="M176.61632 138.54774C176.61632 140.20459 175.27318 141.54774 173.61632 141.54774C171.95946 141.54774 170.61632 140.20459 170.61632 138.54774C170.61632 136.89088 171.95946 135.54774 173.61632 135.54774C175.27318 135.54774 176.61632 136.89088 176.61632 138.54774Z" fill-rule="nonzero"/><path fill="#000000" fill-opacity="0.0" clip-path="url(#id_0)" d="M184.02087 138.54774C184.02087 140.20459 182.67772 141.54774 181.02087 141.54774C179.36401 141.54774 178.02087 140.20459 178.02087 138.54774C178.02087 136.89088 179.36401 135.54774 181.02087 135.54774C182.67772 135.54774 184.02087 136.89088 184.02087 138.54774Z" fill-rule="nonzero"/><path fill="#000000" fill-opacity="0.0" clip-path="url(#id_0)" d="M190.43498 144.1309C190.43498 145.78777 189.09184 147.1309 187.43498 147.1309C185.77814 147.1309 184.43498 145.78777 184.43498 144.1309C184.43498 142.47404 185.77814 141.1309 187.43498 141.1309C189.09184 141.1309 190.43498 142.47404 190.43498 144.1309Z" fill-rule="nonzero"/><path fill="#000000" fill-opacity="0.0" clip-path="url(#id_0)" d="M196.09264 149.71301C196.09264 151.36986 194.7495 152.71301 193.09264 152.71301C191.43579 152.71301 190.09264 151.36986 190.09264 149.71301C190.09264 148.05615 191.43579 146.71301 193.09264 146.71301C194.7495 146.71301 196.09264 148.05615 196.09264 149.71301Z" fill-rule="nonzero"/><path fill="#000000" fill-opacity="0.0" clip-path="url(#id_0)" d="M201.15358 132.95715C201.15358 134.614 199.81044 135.95715 198.15358 135.95715C196.49673 135.95715 195.15358 134.614 195.15358 132.95715C195.15358 131.3003 196.49673 129.95715 198.15358 129.95715C199.81044 129.95715 201.15358 131.3003 201.15358 132.95715Z" fill-rule="nonzero"/><path fill="#000000" fill-opacity="0.0" clip-path="url(#id_0)" d="M205.73177 110.62448C205.73177 112.281334 204.38861 113.62448 202.73177 113.62448C201.0749 113.62448 199.73177 112.281334 199.73177 110.62448C199.73177 108.96763 201.0749 107.62448 202.73177 107.62448C204.38861 107.62448 205.73177 108.96763 205.73177 110.62448Z" fill-rule="nonzero"/><path fill="#000000" fill-opacity="0.0" clip-path="url(#id_0)" d="M209.91132 127.37398C209.91132 129.03084 208.56816 130.37398 206.91132 130.37398C205.25446 130.37398 203.91132 129.03084 203.91132 127.37398C203.91132 125.717125 205.25446 124.37398 206.91132 124.37398C208.56816 124.37398 209.91132 125.717125 209.91132 127.37398Z" fill-rule="nonzero"/><path fill="#000000" fill-opacity="0.0" clip-path="url(#id_0)" d="M213.75613 138.54031C213.75613 140.19717 212.41298 141.54031 210.75613 141.54031C209.09927 141.54031 207.75613 140.19717 207.75613 138.54031C207.75613 136.88345 209.09927 135.54031 210.75613 135.54031C212.41298 135.54031 213.75613 136.88345 213.75613 138.54031Z" fill-rule="nonzero"/><path fill="#000000" fill-opacity="0.0" clip-path="url(#id_0)" d="M217.31587 144.12347C217.31587 145.78033 215.97272 147.12347 214.31587 147.12347C212.65901 147.12347 211.31587 145.78033 211.31587 144.12347C211.31587 142.46663 212.65901 141.12347 214.31587 141.12347C215.97272 141.12347 217.31587 142.46663 217.31587 144.12347Z" fill-rule="nonzero"/><path fill="#000000" fill-opacity="0.0" clip-path="url(#id_0)" d="M220.62991 144.12347C220.62991 145.78033 219.28676 147.12347 217.62991 147.12347C215.97305 147.12347 214.62991 145.78033 214.62991 144.12347C214.62991 142.46663 215.97305 141.12347 217.62991 141.12347C219.28676 141.12347 220.62991 142.46663 220.62991 144.12347Z" fill-rule="nonzero"/><path fill="#000000" fill-opacity="0.0" clip-path="url(#id_0)" d="M223.72998 132.95715C223.72998 134.614 222.38684 135.95715 220.72998 135.95715C219.07314 135.95715 217.72998 134.614 217.72998 132.95715C217.72998 131.3003 219.07314 129.95715 220.72998 129.95715C222.38684 129.95715 223.72998 131.3003 223.72998 132.95715Z" fill-rule="nonzero"/><path fill="#000000" fill-opacity="0.0" clip-path="url(#id_0)" d="M226.64206 138.54031C226.64206 140.19717 225.29892 141.54031 223.64206 141.54031C221.9852 141.54031 220.64206 140.19717 220.64206 138.54031C220.64206 136.88345 221.9852 135.54031 223.64206 135.54031C225.29892 135.54031 226.64206 136.88345 226.64206 138.54031Z" fill-rule="nonzero"/><path fill="#000000" fill-opacity="0.0" clip-path="url(#id_0)" d="M229.38763 127.37398C229.38763 129.03084 228.0445 130.37398 226.38763 130.37398C224.73079 130.37398 223.38763 129.03084 223.38763 127.37398C223.38763 125.717125 224.73079 124.37398 226.38763 124.37398C228.0445 124.37398 229.38763 125.717125 229.38763 127.37398Z" fill-rule="nonzero"/><path fill="#000000" fill-opacity="0.0" clip-path="url(#id_0)" d="M231.98473 121.79082C231.98473 123.44767 230.64159 124.79082 228.98473 124.79082C227.32788 124.79082 225.98473 123.44767 225.98473 121.79082C225.98473 120.133965 227.32788 118.79082 228.98473 118.79082C230.64159 118.79082 231.98473 120.133965 231.98473 121.79082Z" fill-rule="nonzero"/><path fill="#000000" fill-opacity="0.0" clip-path="url(#id_0)" d="M234.44858 138.54031C234.44858 140.19717 233.10544 141.54031 231.44858 141.54031C229.79173 141.54031 228.44858 140.19717 228.44858 138.54031C228.44858 136.88345 229.79173 135.54031 231.44858 135.54031C233.10544 135.54031 234.44858 136.88345 234.44858 138.54031Z" fill-rule="nonzero"/><path fill="#000000" fill-opacity="0.0" clip-path="url(#id_0)" d="M236.79219 144.12347C236.79219 145.78033 235.44905 147.12347 233.79219 147.12347C232.13535 147.12347 230.79219 145.78033 230.79219 144.12347C230.79219 142.46663 232.13535 141.12347 233.79219 141.12347C235.44905 141.12347 236.79219 142.46663 236.79219 144.12347Z" fill-rule="nonzero"/><path fill="#000000" fill-opacity="0.0" clip-path="url(#id_0)" d="M239.02676 132.95715C239.02676 134.614 237.68361 135.95715 236.02676 135.95715C234.3699 135.95715 233.02676 134.614 233.02676 132.95715C233.02676 131.3003 234.3699 129.95715 236.02676 129.95715C237.68361 129.95715 239.02676 131.3003 239.02676 132.95715Z" fill-rule="nonzero"/><path fill="#000000" fill-opacity="0.0" clip-path="url(#id_0)" d="M241.16197 132.95715C241.16197 134.614 239.81883 135.95715 238.16197 135.95715C236.50513 135.95715 235.16197 134.614 235.16197 132.95715C235.16197 131.3003 236.50513 129.95715 238.16197 129.95715C239.81883 129.95715 241.16197 131.3003 241.16197 132.95715Z" fill-rule="nonzero"/><path fill="#000000" fill-opacity="0.0" clip-path="url(#id_0)" d="M243.20631 138.54031C243.20631 140.19717 241.86316 141.54031 240.20631 141.54031C238.54945 141.54031 237.20631 140.19717 237.20631 138.54031C237.20631 136.88345 238.54945 135.54031 240.20631 135.54031C241.86316 135.54031 243.20631 136.88345 243.20631 138.54031Z" fill-rule="nonzero"/><path fill="#000000" fill-opacity="0.0" clip-path="url(#id_0)" d="M245.16718 132.95715C245.16718 134.614 243.82404 135.95715 242.16718 135.95715C240.51031 135.95715 239.16718 134.614 239.16718 132.95715C239.16718 131.3003 240.51031 129.95715 242.16718 129.95715C243.82404 129.95715 245.16718 131.3003 245.16718 132.95715Z" fill-rule="nonzero"/><path fill="#000000" fill-opacity="0.0" clip-path="url(#id_0)" d="M247.05112 132.95715C247.05112 134.614 245.70798 135.95715 244.05112 135.95715C242.39427 135.95715 241.05112 134.614 241.05112 132.95715C241.05112 131.3003 242.39427 129.95715 244.05112 129.95715C245.70798 129.95715 247.05112 131.3003 247.05112 132.95715Z" fill-rule="nonzero"/><path fill="#000000" fill-opacity="0.0" clip-path="url(#id_0)" d="M248.86397 132.95715C248.86397 134.614 247.52081 135.95715 245.86397 135.95715C244.2071 135.95715 242.86397 134.614 242.86397 132.95715C242.86397 131.3003 244.2071 129.95715 245.86397 129.95715C247.52081 129.95715 248.86397 131.3003 248.86397 132.95715Z" fill-rule="nonzero"/><path fill="#000000" fill-opacity="0.0" clip-path="url(#id_0)" d="M250.61087 132.95715C250.61087 134.614 249.26772 135.95715 247.61087 135.95715C245.95401 135.95715 244.61087 134.614 244.61087 132.95715C244.61087 131.3003 245.95401 129.95715 247.61087 129.95715C249.26772 129.95715 250.61087 131.3003 250.61087 132.95715Z" fill-rule="nonzero"/><path fill="#000000" fill-opacity="0.0" clip-path="url(#id_0)" d="M252.29646 132.95715C252.29646 134.614 250.95331 135.95715 249.29646 135.95715C247.6396 135.95715 246.29646 134.614 246.29646 132.95715C246.29646 131.3003 247.6396 129.95715 249.29646 129.95715C250.95331 129.95715 252.29646 131.3003 252.29646 132.95715Z" fill-rule="nonzero"/><path fill="#000000" fill-opacity="0.0" clip-path="url(#id_0)" d="M253.92491 138.54031C253.92491 140.19717 252.58176 141.54031 250.92491 141.54031C249.26805 141.54031 247.92491 140.19717 247.92491 138.54031C247.92491 136.88345 249.26805 135.54031 250.92491 135.54031C252.58176 135.54031 253.92491 136.88345 253.92491 138.54031Z" fill-rule="nonzero"/><path fill="#000000" fill-opacity="0.0" clip-path="url(#id_0)" d="M255.49995 132.95715C255.49995 134.614 254.1568 135.95715 252.49995 135.95715C250.8431 135.95715 249.49995 134.614 249.49995 132.95715C249.49995 131.3003 250.8431 129.95715 252.49995 129.95715C254.1568 129.95715 255.49995 131.3003 255.49995 132.95715Z" fill-rule="nonzero"/><path fill="#000000" fill-opacity="0.0" clip-path="url(#id_0)" d="M257.025 132.95715C257.025 134.614 255.68184 135.95715 254.02498 135.95715C252.36813 135.95715 251.02498 134.614 251.02498 132.95715C251.02498 131.3003 252.36813 129.95715 254.02498 129.95715C255.68184 129.95715 257.025 131.3003 257.025 132.95715Z" fill-rule="nonzero"/><path fill="#000000" fill-opacity="0.0" clip-path="url(#id_0)" d="M258.50308 138.54031C258.50308 140.19717 257.15994 141.54031 255.50308 141.54031C253.84624 141.54031 252.50308 140.19717 252.50308 138.54031C252.50308 136.88345 253.84624 135.54031 255.50308 135.54031C257.15994 135.54031 258.50308 136.88345 258.50308 138.54031Z" fill-rule="nonzero"/><path fill="#000000" fill-opacity="0.0" clip-path="url(#id_0)" d="M259.93704 127.37398C259.93704 129.03084 258.5939 130.37398 256.93704 130.37398C255.2802 130.37398 253.93706 129.03084 253.93706 127.37398C253.93706 125.717125 255.2802 124.37398 256.93704 124.37398C258.5939 124.37398 259.93704 125.717125 259.93704 127.37398Z" fill-rule="nonzero"/><path fill="#000000" fill-opacity="0.0" clip-path="url(#id_0)" d="M261.32947 138.54031C261.32947 140.19717 259.98633 141.54031 258.32947 141.54031C256.6726 141.54031 255.32945 140.19717 255.32945 138.54031C255.32945 136.88345 256.6726 135.54031 258.32947 135.54031C259.98633 135.54031 261.32947 136.88345 261.32947 138.54031Z" fill-rule="nonzero"/><path fill="#000000" fill-opacity="0.0" clip-path="url(#id_0)" d="M271.21747 132.95715C271.21747 134.614 269.87433 135.95715 268.21747 135.95715C266.5606 135.95715 265.21747 134.614 265.21747 132.95715C265.21747 131.3003 266.5606 129.95715 268.21747 129.95715C269.87433 129.95715 271.21747 131.3003 271.21747 132.95715Z" fill-rule="nonzero"/><path fill="#000000" fill-opacity="0.0" clip-path="url(#id_0)" d="M277.49173 127.37398C277.49173 129.03084 276.1486 130.37398 274.49173 130.37398C272.8349 130.37398 271.49173 129.03084 271.49173 127.37398C271.49173 125.717125 272.8349 124.37398 274.49173 124.37398C276.1486 124.37398 277.49173 125.717125 277.49173 127.37398Z" fill-rule="nonzero"/><path fill="#000000" fill-opacity="0.0" clip-path="url(#id_0)" d="M278.46216 138.54031C278.46216 140.19717 277.11902 141.54031 275.46216 141.54031C273.80533 141.54031 272.46216 140.19717 272.46216 138.54031C272.46216 136.88345 273.80533 135.54031 275.46216 135.54031C277.11902 135.54031 278.46216 136.88345 278.46216 138.54031Z" fill-rule="nonzero"/><path fill="#000000" fill-opacity="0.0" clip-path="url(#id_0)" d="M279.4134 149.70665C279.4134 151.3635 278.07022 152.70665 276.4134 152.70665C274.75653 152.70665 273.4134 151.3635 273.4134 149.70665C273.4134 148.04979 274.75653 146.70665 276.4134 146.70665C278.07022 146.70665 279.4134 148.04979 279.4134 149.70665Z" fill-rule="nonzero"/><path fill="#000000" fill-opacity="0.0" clip-path="url(#id_0)" d="M280.34613 132.95715C280.34613 134.614 279.00296 135.95715 277.34613 135.95715C275.68927 135.95715 274.34613 134.614 274.34613 132.95715C274.34613 131.3003 275.68927 129.95715 277.34613 129.95715C279.00296 129.95715 280.34613 131.3003 280.34613 132.95715Z" fill-rule="nonzero"/><path fill="#000000" fill-opacity="0.0" clip-path="url(#id_0)" d="M281.26108 110.62448C281.26108 112.281334 279.91794 113.62448 278.26108 113.62448C276.60425 113.62448 275.26108 112.281334 275.26108 110.62448C275.26108 108.96763 276.60425 107.62448 278.26108 107.62448C279.91794 107.62448 281.26108 108.96763 281.26108 110.62448Z" fill-rule="nonzero"/><path fill="#000000" fill-opacity="0.0" clip-path="url(#id_0)" d="M286.41257 132.95715C286.41257 134.614 285.06943 135.95715 283.41257 135.95715C281.75574 135.95715 280.41257 134.614 280.41257 132.95715C280.41257 131.3003 281.75574 129.95715 283.41257 129.95715C285.06943 129.95715 286.41257 131.3003 286.41257 132.95715Z" fill-rule="nonzero"/><path fill="#000000" fill-opacity="0.0" clip-path="url(#id_0)" d="M287.2199 138.54031C287.2199 140.19717 285.87677 141.54031 284.2199 141.54031C282.56305 141.54031 281.2199 140.19717 281.2199 138.54031C281.2199 136.88345 282.56305 135.54031 284.2199 135.54031C285.87677 135.54031 287.2199 136.88345 287.2199 138.54031Z" fill-rule="nonzero"/><path fill="#000000" fill-opacity="0.0" clip-path="url(#id_0)" d="M288.0139 132.95715C288.0139 134.614 286.67075 135.95715 285.0139 135.95715C283.35703 135.95715 282.0139 134.614 282.0139 132.95715C282.0139 131.3003 283.35703 129.95715 285.0139 129.95715C286.67075 129.95715 288.0139 131.3003 288.0139 132.95715Z" fill-rule="nonzero"/><path fill="#000000" fill-opacity="0.0" clip-path="url(#id_0)" d="M288.79495 110.62448C288.79495 112.281334 287.4518 113.62448 285.79495 113.62448C284.1381 113.62448 282.79495 112.281334 282.79495 110.62448C282.79495 108.96763 284.1381 107.62448 285.79495 107.62448C287.4518 107.62448 288.79495 108.96763 288.79495 110.62448Z" fill-rule="nonzero"/><path fill="#000000" fill-opacity="0.0" clip-path="url(#id_0)" d="M289.5635 138.54031C289.5635 140.19717 288.22037 141.54031 286.5635 141.54031C284.90665 141.54031 283.5635 140.19717 283.5635 138.54031C283.5635 136.88345 284.90665 135.54031 286.5635 135.54031C288.22037 135.54031 289.5635 136.88345 289.5635 138.54031Z" fill-rule="nonzero"/><path fill="#000000" fill-opacity="0.0" clip-path="url(#id_0)" d="M290.31998 138.54031C290.31998 140.19717 288.97684 141.54031 287.31998 141.54031C285.66312 141.54031 284.31998 140.19717 284.31998 138.54031C284.31998 136.88345 285.66312 135.54031 287.31998 135.54031C288.97684 135.54031 290.31998 136.88345 290.31998 138.54031Z" fill-rule="nonzero"/><path fill="#000000" fill-opacity="0.0" clip-path="url(#id_0)" d="M291.06473 132.95715C291.06473 134.614 289.72156 135.95715 288.06473 135.95715C286.40787 135.95715 285.06473 134.614 285.06473 132.95715C285.06473 131.3003 286.40787 129.95715 288.06473 129.95715C289.72156 129.95715 291.06473 131.3003 291.06473 132.95715Z" fill-rule="nonzero"/><path fill="#000000" fill-opacity="0.0" clip-path="url(#id_0)" d="M291.7981 121.79082C291.7981 123.44767 290.45493 124.79082 288.7981 124.79082C287.14124 124.79082 285.7981 123.44767 285.7981 121.79082C285.7981 120.133965 287.14124 118.79082 288.7981 118.79082C290.45493 118.79082 291.7981 120.133965 291.7981 121.79082Z" fill-rule="nonzero"/><path fill="#000000" fill-opacity="0.0" clip-path="url(#id_0)" d="M292.52042 132.95715C292.52042 134.614 291.17728 135.95715 289.52042 135.95715C287.86356 135.95715 286.52042 134.614 286.52042 132.95715C286.52042 131.3003 287.86356 129.95715 289.52042 129.95715C291.17728 129.95715 292.52042 131.3003 292.52042 132.95715Z" fill-rule="nonzero"/><path fill="#000000" fill-opacity="0.0" clip-path="url(#id_0)" d="M300.43436 132.95715C300.43436 134.614 299.09122 135.95715 297.43436 135.95715C295.7775 135.95715 294.43436 134.614 294.43436 132.95715C294.43436 131.3003 295.7775 129.95715 297.43436 129.95715C299.09122 129.95715 300.43436 131.3003 300.43436 132.95715Z" fill-rule="nonzero"/><path fill="#000000" fill-opacity="0.0" clip-path="url(#id_0)" d="M323.23822 127.37717C323.23822 129.03401 321.89508 130.37717 320.23822 130.37717C318.5814 130.37717 317.23822 129.03401 317.23822 127.37717C317.23822 125.72031 318.5814 124.37717 320.23822 124.37717C321.89508 124.37717 323.23822 125.72031 323.23822 127.37717Z" fill-rule="nonzero"/><path fill="#000000" fill-opacity="0.0" clip-path="url(#id_0)" d="M323.61496 127.37717C323.61496 129.03401 322.27182 130.37717 320.61496 130.37717C318.95813 130.37717 317.61496 129.03401 317.61496 127.37717C317.61496 125.72031 318.95813 124.37717 320.61496 124.37717C322.27182 124.37717 323.61496 125.72031 323.61496 127.37717Z" fill-rule="nonzero"/><path fill="#000000" fill-opacity="0.0" clip-path="url(#id_0)" d="M323.9888 125.011505C323.9888 126.66836 322.64563 128.0115 320.9888 128.0115C319.33194 128.0115 317.9888 126.66836 317.9888 125.011505C317.9888 123.35465 319.33194 122.011505 320.9888 122.011505C322.64563 122.011505 323.9888 123.35465 323.9888 125.011505Z" fill-rule="nonzero"/><path fill="#000000" fill-opacity="0.0" clip-path="url(#id_0)" d="M324.3597 129.09148C324.3597 130.74832 323.01657 132.09148 321.3597 132.09148C319.70285 132.09148 318.3597 130.74832 318.3597 129.09148C318.3597 127.434616 319.70285 126.09147 321.3597 126.09147C323.01657 126.09147 324.3597 127.434616 324.3597 129.09148Z" fill-rule="nonzero"/><path fill="#000000" fill-opacity="0.0" clip-path="url(#id_0)" d="M324.72778 116.85158C324.72778 118.50843 323.38464 119.85158 321.72778 119.85158C320.07095 119.85158 318.72778 118.50843 318.72778 116.85158C318.72778 115.19472 320.07095 113.85158 321.72778 113.85158C323.38464 113.85158 324.72778 115.19472 324.72778 116.85158Z" fill-rule="nonzero"/><path fill="#000000" fill-opacity="0.0" clip-path="url(#id_0)" d="M325.09308 129.09148C325.09308 130.74832 323.74994 132.09148 322.09308 132.09148C320.43622 132.09148 319.09308 130.74832 319.09308 129.09148C319.09308 127.434616 320.43622 126.09147 322.09308 126.09147C323.74994 126.09147 325.09308 127.434616 325.09308 129.09148Z" fill-rule="nonzero"/><path fill="#000000" fill-opacity="0.0" clip-path="url(#id_0)" d="M325.4556 125.011505C325.4556 126.66836 324.11246 128.0115 322.4556 128.0115C320.79874 128.0115 319.4556 126.66836 319.4556 125.011505C319.4556 123.35465 320.79874 122.011505 322.4556 122.011505C324.11246 122.011505 325.4556 123.35465 325.4556 125.011505Z" fill-rule="nonzero"/><path fill="#000000" fill-opacity="0.0" clip-path="url(#id_0)" d="M344.3262 116.85158C344.3262 118.50843 342.98303 119.85158 341.3262 119.85158C339.66934 119.85158 338.3262 118.50843 338.3262 116.85158C338.3262 115.19472 339.66934 113.85158 341.3262 113.85158C342.98303 113.85158 344.3262 115.19472 344.3262 116.85158Z" fill-rule="nonzero"/><path fill="#000000" fill-opacity="0.0" clip-path="url(#id_0)" d="M356.90997 125.011505C356.90997 126.66836 355.56683 128.0115 353.90997 128.0115C352.2531 128.0115 350.90997 126.66836 350.90997 125.011505C350.90997 123.35465 352.2531 122.011505 353.90997 122.011505C355.56683 122.011505 356.90997 123.35465 356.90997 125.011505Z" fill-rule="nonzero"/><path fill="#000000" fill-opacity="0.0" clip-path="url(#id_0)" d="M361.38568 126.864784C361.38568 128.52164 360.04254 129.86478 358.38568 129.86478C356.72885 129.86478 355.38568 128.52164 355.38568 126.864784C355.38568 125.207924 356.72885 123.864784 358.38568 123.864784C360.04254 123.864784 361.38568 125.207924 361.38568 126.864784Z" fill-rule="nonzero"/><path fill="#000000" fill-opacity="0.0" clip-path="url(#id_0)" d="M390.20496 117.461555C390.20496 119.11841 388.86182 120.461555 387.20496 120.461555C385.54813 120.461555 384.20496 119.11841 384.20496 117.461555C384.20496 115.8047 385.54813 114.461555 387.20496 114.461555C388.86182 114.461555 390.20496 115.8047 390.20496 117.461555Z" fill-rule="nonzero"/><path fill="#000000" fill-opacity="0.0" clip-path="url(#id_0)" d="M398.85312 124.40047C398.85312 126.05732 397.50998 127.40047 395.85312 127.40047C394.19626 127.40047 392.85312 126.05732 392.85312 124.40047C392.85312 122.743614 394.19626 121.40047 395.85312 121.40047C397.50998 121.40047 398.85312 122.743614 398.85312 124.40047Z" fill-rule="nonzero"/><path fill="#000000" fill-opacity="0.0" clip-path="url(#id_0)" d="M423.49997 116.37526C423.49997 118.03211 422.15683 119.37526 420.49997 119.37526C418.8431 119.37526 417.49997 118.03211 417.49997 116.37526C417.49997 114.71841 418.8431 113.37526 420.49997 113.37526C422.15683 113.37526 423.49997 114.71841 423.49997 116.37526Z" fill-rule="nonzero"/><path fill="#000000" fill-opacity="0.0" clip-path="url(#id_0)" d="M444.30252 120.21866C444.30252 121.87551 442.95938 123.21866 441.30252 123.21866C439.64566 123.21866 438.30252 121.87551 438.30252 120.21866C438.30252 118.561806 439.64566 117.21866 441.30252 117.21866C442.95938 117.21866 444.30252 118.561806 444.30252 120.21866Z" fill-rule="nonzero"/><path fill="#000000" fill-opacity="0.0" clip-path="url(#id_0)" d="M456.79495 163.5728C456.79495 165.22964 455.4518 166.5728 453.79495 166.5728C452.1381 166.5728 450.79495 165.22964 450.79495 163.5728C450.79495 161.91594 452.1381 160.5728 453.79495 160.5728C455.4518 160.5728 456.79495 161.91594 456.79495 163.5728Z" fill-rule="nonzero"/><path fill="#000000" fill-opacity="0.0" clip-path="url(#id_0)" d="M473.45392 239.13171C473.45392 240.78856 472.11078 242.13171 470.45392 242.13171C468.79706 242.13171 467.45392 240.78856 467.45392 239.13171C467.45392 237.47485 468.79706 236.13171 470.45392 236.13171C472.11078 236.13171 473.45392 237.47485 473.45392 239.13171Z" fill-rule="nonzero"/><path fill="#000000" fill-opacity="0.0" clip-path="url(#id_0)" d="M490.08997 284.26804C490.08997 285.9249 488.74683 287.26804 487.08997 287.26804C485.4331 287.26804 484.08997 285.9249 484.08997 284.26804C484.08997 282.6112 485.4331 281.26804 487.08997 281.26804C488.74683 281.26804 490.08997 282.6112 490.08997 284.26804Z" fill-rule="nonzero"/><path fill="#000000" fill-opacity="0.0" clip-path="url(#id_0)" d="M500.44125 284.46536C500.44125 286.12222 499.0981 287.46536 497.44125 287.46536C495.78442 287.46536 494.44125 286.12222 494.44125 284.46536C494.44125 282.8085 495.78442 281.46536 497.44125 281.46536C499.0981 281.46536 500.44125 282.8085 500.44125 284.46536Z" fill-rule="nonzero"/><path fill="#000000" fill-opacity="0.0" clip-path="url(#id_0)" d="M523.38495 283.84583C523.38495 285.5027 522.0418 286.84583 520.38495 286.84583C518.7281 286.84583 517.38495 285.5027 517.38495 283.84583C517.38495 282.189 518.7281 280.84583 520.38495 280.84583C522.0418 280.84583 523.38495 282.189 523.38495 283.84583Z" fill-rule="nonzero"/><path fill="#000000" fill-opacity="0.0" clip-path="url(#id_0)" d="M528.45 283.5923C528.45 285.24915 527.1069 286.5923 525.45 286.5923C523.79315 286.5923 522.45 285.24915 522.45 283.5923C522.45 281.93546 523.79315 280.5923 525.45 280.5923C527.1069 280.5923 528.45 281.93546 528.45 283.5923Z" fill-rule="nonzero"/><path fill="#000000" d="M275.54688 346.6844L276.60938 346.59064Q276.6875 347.2469 276.96875 347.65314Q277.25 348.0594 277.82812 348.325Q278.42188 348.575 279.15625 348.575Q279.79688 348.575 280.29688 348.3875Q280.79688 348.1844 281.03125 347.85626Q281.28125 347.5125 281.28125 347.1219Q281.28125 346.71564 281.04688 346.41876Q280.8125 346.10626 280.28125 345.90314Q279.92188 345.7625 278.73438 345.48126Q277.5625 345.2 277.09375 344.95Q276.46875 344.6219 276.17188 344.15314Q275.875 343.66876 275.875 343.075Q275.875 342.4344 276.23438 341.8719Q276.60938 341.29376 277.3125 341.0125Q278.03125 340.71564 278.89062 340.71564Q279.84375 340.71564 280.57812 341.02814Q281.3125 341.325 281.70312 341.9344Q282.09375 342.52814 282.125 343.27814L281.03125 343.35626Q280.9375 342.54376 280.42188 342.1375Q279.92188 341.71564 278.9375 341.71564Q277.90625 341.71564 277.4375 342.09064Q276.96875 342.46564 276.96875 342.9969Q276.96875 343.46564 277.29688 343.7625Q277.625 344.0594 279.0 344.3719Q280.39062 344.6844 280.90625 344.91876Q281.65625 345.27814 282.01562 345.8094Q282.375 346.325 282.375 347.02814Q282.375 347.71564 281.98438 348.325Q281.59375 348.91876 280.85938 349.2625Q280.125 349.59064 279.20312 349.59064Q278.03125 349.59064 277.23438 349.2625Q276.45312 348.91876 276.0 348.23126Q275.5625 347.54376 275.54688 346.6844ZM283.79688 342.075L283.79688 340.85626L284.85938 340.85626L284.85938 342.075L283.79688 342.075ZM283.79688 349.45L283.79688 343.23126L284.85938 343.23126L284.85938 349.45L283.79688 349.45ZM286.23438 349.45L286.23438 348.59064L290.20312 344.04376Q289.51562 344.075 289.0 344.075L286.46875 344.075L286.46875 343.23126L291.5625 343.23126L291.5625 343.91876L288.1875 347.8719L287.53125 348.59064Q288.25 348.54376 288.85938 348.54376L291.75 348.54376L291.75 349.45L286.23438 349.45ZM296.04688 347.45L297.14062 347.575Q296.89062 348.52814 296.1875 349.0594Q295.48438 349.59064 294.40625 349.59064Q293.04688 349.59064 292.23438 348.7469Q291.4375 347.90314 291.4375 346.3875Q291.4375 344.825 292.25 343.96564Q293.0625 343.09064 294.34375 343.09064Q295.59375 343.09064 296.375 343.9344Q297.17188 344.77814 297.17188 346.325Q297.17188 346.41876 297.17188 346.60626L292.53125 346.60626Q292.59375 347.6375 293.10938 348.1844Q293.625 348.71564 294.40625 348.71564Q294.98438 348.71564 295.39062 348.41876Q295.8125 348.10626 296.04688 347.45ZM292.59375 345.7469L296.0625 345.7469Q296.0 344.95 295.67188 344.5594Q295.15625 343.95 294.35938 343.95Q293.625 343.95 293.125 344.4344Q292.64062 344.91876 292.59375 345.7469ZM303.8125 351.98126Q302.9375 350.8719 302.32812 349.40314Q301.73438 347.91876 301.73438 346.34064Q301.73438 344.95 302.17188 343.66876Q302.70312 342.1844 303.8125 340.71564L304.5625 340.71564Q303.85938 341.9344 303.625 342.45Q303.26562 343.2625 303.0625 344.1375Q302.8125 345.23126 302.8125 346.34064Q302.8125 349.16876 304.5625 351.98126L303.8125 351.98126ZM306.76562 349.45L305.78125 349.45L305.78125 340.85626L306.84375 340.85626L306.84375 343.91876Q307.51562 343.09064 308.54688 343.09064Q309.125 343.09064 309.625 343.325Q310.14062 343.54376 310.46875 343.96564Q310.8125 344.3875 311.0 344.98126Q311.1875 345.575 311.1875 346.2469Q311.1875 347.84064 310.39062 348.71564Q309.59375 349.59064 308.5 349.59064Q307.39062 349.59064 306.76562 348.66876L306.76562 349.45ZM306.75 346.29376Q306.75 347.40314 307.0625 347.90314Q307.5625 348.71564 308.40625 348.71564Q309.09375 348.71564 309.59375 348.1219Q310.10938 347.52814 310.10938 346.325Q310.10938 345.10626 309.625 344.52814Q309.14062 343.95 308.45312 343.95Q307.76562 343.95 307.25 344.5594Q306.75 345.15314 306.75 346.29376ZM312.75 351.84064L312.625 350.85626Q312.96875 350.95 313.23438 350.95Q313.57812 350.95 313.78125 350.825Q314.0 350.71564 314.14062 350.5125Q314.23438 350.34064 314.46875 349.71564Q314.48438 349.6375 314.5625 349.46564L312.1875 343.23126L313.32812 343.23126L314.625 346.825Q314.875 347.5125 315.07812 348.27814Q315.26562 347.54376 315.51562 346.85626L316.84375 343.23126L317.89062 343.23126L315.53125 349.5594Q315.14062 350.575 314.9375 350.96564Q314.65625 351.4969 314.28125 351.73126Q313.92188 351.98126 313.42188 351.98126Q313.125 351.98126 312.75 351.84064ZM320.09375 348.5125L320.25 349.4344Q319.79688 349.52814 319.45312 349.52814Q318.875 349.52814 318.5625 349.35626Q318.25 349.16876 318.10938 348.8719Q317.98438 348.575 317.98438 347.6219L317.98438 344.04376L317.21875 344.04376L317.21875 343.23126L317.98438 343.23126L317.98438 341.6844L319.03125 341.0594L319.03125 343.23126L320.09375 343.23126L320.09375 344.04376L319.03125 344.04376L319.03125 347.6844Q319.03125 348.1375 319.07812 348.2625Q319.14062 348.3875 319.26562 348.46564Q319.39062 348.54376 319.625 348.54376Q319.8125 348.54376 320.09375 348.5125ZM325.04688 347.45L326.14062 347.575Q325.89062 348.52814 325.1875 349.0594Q324.48438 349.59064 323.40625 349.59064Q322.04688 349.59064 321.23438 348.7469Q320.4375 347.90314 320.4375 346.3875Q320.4375 344.825 321.25 343.96564Q322.0625 343.09064 323.34375 343.09064Q324.59375 343.09064 325.375 343.9344Q326.17188 344.77814 326.17188 346.325Q326.17188 346.41876 326.17188 346.60626L321.53125 346.60626Q321.59375 347.6375 322.10938 348.1844Q322.625 348.71564 323.40625 348.71564Q323.98438 348.71564 324.39062 348.41876Q324.8125 348.10626 325.04688 347.45ZM321.59375 345.7469L325.0625 345.7469Q325.0 344.95 324.67188 344.5594Q324.15625 343.95 323.35938 343.95Q322.625 343.95 322.125 344.4344Q321.64062 344.91876 321.59375 345.7469ZM327.375 347.59064L328.40625 347.4344Q328.5 348.0594 328.89062 348.3875Q329.29688 348.71564 330.03125 348.71564Q330.75 348.71564 331.09375 348.4344Q331.45312 348.1375 331.45312 347.73126Q331.45312 347.3719 331.14062 347.16876Q330.92188 347.02814 330.0625 346.8094Q328.90625 346.5125 328.45312 346.3094Q328.01562 346.09064 327.78125 345.71564Q327.54688 345.34064 327.54688 344.8719Q327.54688 344.46564 327.73438 344.10626Q327.92188 343.7469 328.25 343.5125Q328.5 343.34064 328.92188 343.21564Q329.34375 343.09064 329.84375 343.09064Q330.5625 343.09064 331.10938 343.3094Q331.67188 343.5125 331.9375 343.8719Q332.20312 344.23126 332.29688 344.825L331.26562 344.96564Q331.20312 344.4969 330.85938 344.23126Q330.53125 343.95 329.90625 343.95Q329.1875 343.95 328.875 344.2Q328.5625 344.4344 328.5625 344.7625Q328.5625 344.96564 328.6875 345.1219Q328.82812 345.29376 329.09375 345.40314Q329.25 345.46564 330.03125 345.66876Q331.15625 345.98126 331.59375 346.16876Q332.03125 346.35626 332.28125 346.71564Q332.53125 347.075 332.53125 347.6219Q332.53125 348.15314 332.21875 348.6219Q331.92188 349.075 331.34375 349.34064Q330.76562 349.59064 330.03125 349.59064Q328.8125 349.59064 328.17188 349.09064Q327.54688 348.575 327.375 347.59064ZM335.48438 351.98126L334.73438 351.98126Q336.48438 349.16876 336.48438 346.34064Q336.48438 345.2469 336.23438 344.15314Q336.03125 343.27814 335.67188 342.46564Q335.4375 341.95 334.73438 340.71564L335.48438 340.71564Q336.57812 342.1844 337.10938 343.66876Q337.5625 344.95 337.5625 346.34064Q337.5625 347.91876 336.95312 349.40314Q336.34375 350.8719 335.48438 351.98126Z" fill-rule="nonzero"/><path fill="#000000" d="M27.550013 274.8198L27.675013 273.72604Q28.628138 273.97604 29.159388 274.67917Q29.690638 275.3823 29.690638 276.46042Q29.690638 277.8198 28.846888 278.6323Q28.003138 279.42917 26.487513 279.42917Q24.925013 279.42917 24.065638 278.61667Q23.190638 277.80417 23.190638 276.52292Q23.190638 275.27292 24.034388 274.49167Q24.878138 273.6948 26.425013 273.6948Q26.518763 273.6948 26.706263 273.6948L26.706263 278.33542Q27.737513 278.27292 28.284388 277.7573Q28.815638 277.24167 28.815638 276.46042Q28.815638 275.8823 28.518763 275.47604Q28.206263 275.05417 27.550013 274.8198ZM25.846888 278.27292L25.846888 274.80417Q25.050013 274.86667 24.659388 275.1948Q24.050013 275.71042 24.050013 276.5073Q24.050013 277.24167 24.534388 277.74167Q25.018763 278.22604 25.846888 278.27292ZM29.550013 272.77292L26.315638 270.5073L23.331263 272.60104L23.331263 271.28854L24.784388 270.33542Q25.206263 270.0698 25.487513 269.89792Q25.096888 269.64792 24.800013 269.42917L23.331263 268.3823L23.331263 267.11667L26.253138 269.27292L29.550013 266.96042L29.550013 268.24167L27.612513 269.52292L27.096888 269.86667L29.550013 271.5073L29.550013 272.77292ZM27.550013 262.8198L27.675013 261.72604Q28.628138 261.97604 29.159388 262.67917Q29.690638 263.3823 29.690638 264.46042Q29.690638 265.8198 28.846888 266.6323Q28.003138 267.42917 26.487513 267.42917Q24.925013 267.42917 24.065638 266.61667Q23.190638 265.80417 23.190638 264.52292Q23.190638 263.27292 24.034388 262.49167Q24.878138 261.6948 26.425013 261.6948Q26.518763 261.6948 26.706263 261.6948L26.706263 266.33542Q27.737513 266.27292 28.284388 265.7573Q28.815638 265.24167 28.815638 264.46042Q28.815638 263.8823 28.518763 263.47604Q28.206263 263.05417 27.550013 262.8198ZM25.846888 266.27292L25.846888 262.80417Q25.050013 262.86667 24.659388 263.1948Q24.050013 263.71042 24.050013 264.5073Q24.050013 265.24167 24.534388 265.74167Q25.018763 266.22604 25.846888 266.27292ZM27.268763 256.0073L27.409388 254.97604Q28.471888 255.14792 29.081263 255.85104Q29.690638 256.55417 29.690638 257.5698Q29.690638 258.85104 28.862513 259.6323Q28.018763 260.39792 26.456263 260.39792Q25.456263 260.39792 24.706263 260.0698Q23.940638 259.72604 23.565638 259.05417Q23.190638 258.36667 23.190638 257.55417Q23.190638 256.55417 23.706263 255.91354Q24.206263 255.2573 25.159388 255.0698L25.315638 256.10104Q24.690638 256.24167 24.378138 256.61667Q24.050013 256.99167 24.050013 257.52292Q24.050013 258.3198 24.628138 258.8198Q25.190638 259.3198 26.425013 259.3198Q27.690638 259.3198 28.253138 258.83542Q28.815638 258.35104 28.815638 257.58542Q28.815638 256.96042 28.440638 256.55417Q28.065638 256.1323 27.268763 256.0073ZM28.612513 248.77292L29.534388 248.61667Q29.628138 249.0698 29.628138 249.41354Q29.628138 249.99167 29.456263 250.30417Q29.268763 250.61667 28.971888 250.7573Q28.675013 250.8823 27.721888 250.8823L24.143763 250.8823L24.143763 251.64792L23.331263 251.64792L23.331263 250.8823L21.784388 250.8823L21.159388 249.83542L23.331263 249.83542L23.331263 248.77292L24.143763 248.77292L24.143763 249.83542L27.784388 249.83542Q28.237513 249.83542 28.362513 249.78854Q28.487513 249.72604 28.565638 249.60104Q28.643763 249.47604 28.643763 249.24167Q28.643763 249.05417 28.612513 248.77292ZM22.175013 248.0698L20.956263 248.0698L20.956263 247.0073L22.175013 247.0073L22.175013 248.0698ZM29.550013 248.0698L23.331263 248.0698L23.331263 247.0073L29.550013 247.0073L29.550013 248.0698ZM29.550013 245.0698L23.331263 245.0698L23.331263 244.1323L24.206263 244.1323Q23.737513 243.83542 23.471888 243.35104Q23.190638 242.86667 23.190638 242.24167Q23.190638 241.55417 23.471888 241.11667Q23.753138 240.66354 24.268763 240.49167Q23.190638 239.74167 23.190638 238.5698Q23.190638 237.6323 23.706263 237.14792Q24.206263 236.64792 25.284388 236.64792L29.550013 236.64792L29.550013 237.6948L25.628138 237.6948Q25.003138 237.6948 24.721888 237.80417Q24.440638 237.89792 24.268763 238.16354Q24.096888 238.42917 24.096888 238.80417Q24.096888 239.46042 24.534388 239.89792Q24.971888 240.3198 25.940638 240.3198L29.550013 240.3198L29.550013 241.3823L25.503138 241.3823Q24.800013 241.3823 24.456263 241.64792Q24.096888 241.89792 24.096888 242.47604Q24.096888 242.92917 24.331263 243.30417Q24.565638 243.67917 25.018763 243.85104Q25.471888 244.02292 26.315638 244.02292L29.550013 244.02292L29.550013 245.0698ZM27.550013 229.8198L27.675013 228.72604Q28.628138 228.97604 29.159388 229.67917Q29.690638 230.3823 29.690638 231.46042Q29.690638 232.8198 28.846888 233.6323Q28.003138 234.42917 26.487513 234.42917Q24.925013 234.42917 24.065638 233.61667Q23.190638 232.80417 23.190638 231.52292Q23.190638 230.27292 24.034388 229.49167Q24.878138 228.6948 26.425013 228.6948Q26.518763 228.6948 26.706263 228.6948L26.706263 233.33542Q27.737513 233.27292 28.284388 232.7573Q28.815638 232.24167 28.815638 231.46042Q28.815638 230.8823 28.518763 230.47604Q28.206263 230.05417 27.550013 229.8198ZM25.846888 233.27292L25.846888 229.80417Q25.050013 229.86667 24.659388 230.1948Q24.050013 230.71042 24.050013 231.5073Q24.050013 232.24167 24.534388 232.74167Q25.018763 233.22604 25.846888 233.27292ZM31.940638 224.0698L23.331263 224.0698L23.331263 223.11667L24.128138 223.11667Q23.659388 222.77292 23.425013 222.35104Q23.190638 221.91354 23.190638 221.30417Q23.190638 220.5073 23.596888 219.89792Q24.003138 219.28854 24.753138 218.99167Q25.503138 218.67917 26.393763 218.67917Q27.346888 218.67917 28.112513 219.02292Q28.878138 219.35104 29.284388 220.0073Q29.690638 220.66354 29.690638 221.3823Q29.690638 221.91354 29.471888 222.33542Q29.237513 222.7573 28.909388 223.02292L31.940638 223.02292L31.940638 224.0698ZM26.471888 223.11667Q27.675013 223.11667 28.253138 222.6323Q28.815638 222.14792 28.815638 221.46042Q28.815638 220.7573 28.221888 220.2573Q27.628138 219.7573 26.378138 219.7573Q25.190638 219.7573 24.612513 220.24167Q24.018763 220.72604 24.018763 221.41354Q24.018763 222.08542 24.643763 222.60104Q25.268763 223.11667 26.471888 223.11667ZM27.550013 212.8198L27.675013 211.72604Q28.628138 211.97604 29.159388 212.67917Q29.690638 213.3823 29.690638 214.46042Q29.690638 215.8198 28.846888 216.6323Q28.003138 217.42917 26.487513 217.42917Q24.925013 217.42917 24.065638 216.61667Q23.190638 215.80417 23.190638 214.52292Q23.190638 213.27292 24.034388 212.49167Q24.878138 211.6948 26.425013 211.6948Q26.518763 211.6948 26.706263 211.6948L26.706263 216.33542Q27.737513 216.27292 28.284388 215.7573Q28.815638 215.24167 28.815638 214.46042Q28.815638 213.8823 28.518763 213.47604Q28.206263 213.05417 27.550013 212.8198ZM25.846888 216.27292L25.846888 212.80417Q25.050013 212.86667 24.659388 213.1948Q24.050013 213.71042 24.050013 214.5073Q24.050013 215.24167 24.534388 215.74167Q25.018763 216.22604 25.846888 216.27292ZM29.550013 210.08542L23.331263 210.08542L23.331263 209.1323L24.268763 209.1323Q23.612513 208.77292 23.409388 208.47604Q23.190638 208.16354 23.190638 207.78854Q23.190638 207.2573 23.518763 206.71042L24.503138 207.0698Q24.268763 207.46042 24.268763 207.83542Q24.268763 208.1948 24.487513 208.47604Q24.690638 208.74167 25.065638 208.85104Q25.628138 209.03854 26.284388 209.03854L29.550013 209.03854L29.550013 210.08542ZM22.175013 203.0698L20.956263 203.0698L20.956263 202.0073L22.175013 202.0073L22.175013 203.0698ZM29.550013 203.0698L23.331263 203.0698L23.331263 202.0073L29.550013 202.0073L29.550013 203.0698ZM29.550013 200.0698L23.331263 200.0698L23.331263 199.1323L24.206263 199.1323Q23.190638 198.4448 23.190638 197.14792Q23.190638 196.58542 23.393763 196.11667Q23.596888 195.6323 23.925013 195.39792Q24.253138 195.16354 24.690638 195.0698Q24.987513 195.02292 25.721888 195.02292L29.550013 195.02292L29.550013 196.0698L25.768763 196.0698Q25.112513 196.0698 24.800013 196.1948Q24.487513 196.3198 24.300013 196.6323Q24.096888 196.9448 24.096888 197.36667Q24.096888 198.03854 24.534388 198.53854Q24.956263 199.02292 26.143763 199.02292L29.550013 199.02292L29.550013 200.0698ZM27.690638 193.49167L27.534388 192.46042Q28.159388 192.36667 28.487513 191.97604Q28.815638 191.5698 28.815638 190.83542Q28.815638 190.11667 28.534388 189.77292Q28.237513 189.41354 27.831263 189.41354Q27.471888 189.41354 27.268763 189.72604Q27.128138 189.9448 26.909388 190.80417Q26.612513 191.96042 26.409388 192.41354Q26.190638 192.85104 25.815638 193.08542Q25.440638 193.3198 24.971888 193.3198Q24.565638 193.3198 24.206263 193.1323Q23.846888 192.9448 23.612513 192.61667Q23.440638 192.36667 23.315638 191.9448Q23.190638 191.52292 23.190638 191.02292Q23.190638 190.30417 23.409388 189.7573Q23.612513 189.1948 23.971888 188.92917Q24.331263 188.66354 24.925013 188.5698L25.065638 189.60104Q24.596888 189.66354 24.331263 190.0073Q24.050013 190.33542 24.050013 190.96042Q24.050013 191.67917 24.300013 191.99167Q24.534388 192.30417 24.862513 192.30417Q25.065638 192.30417 25.221888 192.17917Q25.393763 192.03854 25.503138 191.77292Q25.565638 191.61667 25.768763 190.83542Q26.081263 189.71042 26.268763 189.27292Q26.456263 188.83542 26.815638 188.58542Q27.175013 188.33542 27.721888 188.33542Q28.253138 188.33542 28.721888 188.64792Q29.175013 188.9448 29.440638 189.52292Q29.690638 190.10104 29.690638 190.83542Q29.690638 192.05417 29.190638 192.6948Q28.675013 193.3198 27.690638 193.49167ZM28.612513 183.77292L29.534388 183.61667Q29.628138 184.0698 29.628138 184.41354Q29.628138 184.99167 29.456263 185.30417Q29.268763 185.61667 28.971888 185.7573Q28.675013 185.8823 27.721888 185.8823L24.143763 185.8823L24.143763 186.64792L23.331263 186.64792L23.331263 185.8823L21.784388 185.8823L21.159388 184.83542L23.331263 184.83542L23.331263 183.77292L24.143763 183.77292L24.143763 184.83542L27.784388 184.83542Q28.237513 184.83542 28.362513 184.78854Q28.487513 184.72604 28.565638 184.60104Q28.643763 184.47604 28.643763 184.24167Q28.643763 184.05417 28.612513 183.77292ZM29.550013 183.08542L23.331263 183.08542L23.331263 182.1323L24.268763 182.1323Q23.612513 181.77292 23.409388 181.47604Q23.190638 181.16354 23.190638 180.78854Q23.190638 180.2573 23.518763 179.71042L24.503138 180.0698Q24.268763 180.46042 24.268763 180.83542Q24.268763 181.1948 24.487513 181.47604Q24.690638 181.74167 25.065638 181.85104Q25.628138 182.03854 26.284388 182.03854L29.550013 182.03854L29.550013 183.08542ZM29.550013 174.99167L28.628138 174.99167Q29.690638 175.72604 29.690638 176.97604Q29.690638 177.52292 29.487513 178.0073Q29.268763 178.47604 28.956263 178.71042Q28.628138 178.9448 28.159388 179.03854Q27.862513 179.10104 27.175013 179.10104L23.331263 179.10104L23.331263 178.03854L26.784388 178.03854Q27.596888 178.03854 27.893763 177.97604Q28.300013 177.8823 28.550013 177.5698Q28.784388 177.24167 28.784388 176.7573Q28.784388 176.28854 28.550013 175.8823Q28.300013 175.46042 27.878138 175.28854Q27.456263 175.10104 26.659388 175.10104L23.331263 175.10104L23.331263 174.05417L29.550013 174.05417L29.550013 174.99167ZM27.268763 168.0073L27.409388 166.97604Q28.471888 167.14792 29.081263 167.85104Q29.690638 168.55417 29.690638 169.5698Q29.690638 170.85104 28.862513 171.6323Q28.018763 172.39792 26.456263 172.39792Q25.456263 172.39792 24.706263 172.0698Q23.940638 171.72604 23.565638 171.05417Q23.190638 170.36667 23.190638 169.55417Q23.190638 168.55417 23.706263 167.91354Q24.206263 167.2573 25.159388 167.0698L25.315638 168.10104Q24.690638 168.24167 24.378138 168.61667Q24.050013 168.99167 24.050013 169.52292Q24.050013 170.3198 24.628138 170.8198Q25.190638 171.3198 26.425013 171.3198Q27.690638 171.3198 28.253138 170.83542Q28.815638 170.35104 28.815638 169.58542Q28.815638 168.96042 28.440638 168.55417Q28.065638 168.1323 27.268763 168.0073ZM28.612513 163.77292L29.534388 163.61667Q29.628138 164.0698 29.628138 164.41354Q29.628138 164.99167 29.456263 165.30417Q29.268763 165.61667 28.971888 165.7573Q28.675013 165.8823 27.721888 165.8823L24.143763 165.8823L24.143763 166.64792L23.331263 166.64792L23.331263 165.8823L21.784388 165.8823L21.159388 164.83542L23.331263 164.83542L23.331263 163.77292L24.143763 163.77292L24.143763 164.83542L27.784388 164.83542Q28.237513 164.83542 28.362513 164.78854Q28.487513 164.72604 28.565638 164.60104Q28.643763 164.47604 28.643763 164.24167Q28.643763 164.05417 28.612513 163.77292ZM22.175013 163.0698L20.956263 163.0698L20.956263 162.0073L22.175013 162.0073L22.175013 163.0698ZM29.550013 163.0698L23.331263 163.0698L23.331263 162.0073L29.550013 162.0073L29.550013 163.0698ZM26.440638 160.46042Q24.706263 160.46042 23.878138 159.5073Q23.190638 158.71042 23.190638 157.55417Q23.190638 156.27292 24.034388 155.46042Q24.862513 154.6323 26.346888 154.6323Q27.550013 154.6323 28.237513 154.99167Q28.925013 155.35104 29.315638 156.05417Q29.690638 156.74167 29.690638 157.55417Q29.690638 158.85104 28.862513 159.66354Q28.018763 160.46042 26.440638 160.46042ZM26.440638 159.3823Q27.628138 159.3823 28.221888 158.86667Q28.815638 158.33542 28.815638 157.55417Q28.815638 156.7573 28.221888 156.24167Q27.628138 155.72604 26.409388 155.72604Q25.253138 155.72604 24.659388 156.2573Q24.065638 156.77292 24.065638 157.55417Q24.065638 158.33542 24.659388 158.86667Q25.237513 159.3823 26.440638 159.3823ZM29.550013 153.0698L23.331263 153.0698L23.331263 152.1323L24.206263 152.1323Q23.190638 151.4448 23.190638 150.14792Q23.190638 149.58542 23.393763 149.11667Q23.596888 148.6323 23.925013 148.39792Q24.253138 148.16354 24.690638 148.0698Q24.987513 148.02292 25.721888 148.02292L29.550013 148.02292L29.550013 149.0698L25.768763 149.0698Q25.112513 149.0698 24.800013 149.1948Q24.487513 149.3198 24.300013 149.6323Q24.096888 149.9448 24.096888 150.36667Q24.096888 151.03854 24.534388 151.53854Q24.956263 152.02292 26.143763 152.02292L29.550013 152.02292L29.550013 153.0698ZM32.08126 141.05417Q30.971888 141.92917 29.503138 142.53854Q28.018763 143.1323 26.440638 143.1323Q25.050013 143.1323 23.768763 142.6948Q22.284388 142.16354 20.815638 141.05417L20.815638 140.30417Q22.034388 141.0073 22.550013 141.24167Q23.362513 141.60104 24.237513 141.80417Q25.331263 142.05417 26.440638 142.05417Q29.268763 142.05417 32.08126 140.30417L32.08126 141.05417ZM29.550013 139.0698L23.331263 139.0698L23.331263 138.1323L24.206263 138.1323Q23.190638 137.4448 23.190638 136.14792Q23.190638 135.58542 23.393763 135.11667Q23.596888 134.6323 23.925013 134.39792Q24.253138 134.16354 24.690638 134.0698Q24.987513 134.02292 25.721888 134.02292L29.550013 134.02292L29.550013 135.0698L25.768763 135.0698Q25.112513 135.0698 24.800013 135.1948Q24.487513 135.3198 24.300013 135.6323Q24.096888 135.9448 24.096888 136.36667Q24.096888 137.03854 24.534388 137.53854Q24.956263 138.02292 26.143763 138.02292L29.550013 138.02292L29.550013 139.0698ZM27.690638 132.49167L27.534388 131.46042Q28.159388 131.36667 28.487513 130.97604Q28.815638 130.5698 28.815638 129.83542Q28.815638 129.11667 28.534388 128.77292Q28.237513 128.41354 27.831263 128.41354Q27.471888 128.41354 27.268763 128.72604Q27.128138 128.9448 26.909388 129.80417Q26.612513 130.96042 26.409388 131.41354Q26.190638 131.85104 25.815638 132.08542Q25.440638 132.3198 24.971888 132.3198Q24.565638 132.3198 24.206263 132.1323Q23.846888 131.9448 23.612513 131.61667Q23.440638 131.36667 23.315638 130.9448Q23.190638 130.52292 23.190638 130.02292Q23.190638 129.30417 23.409388 128.7573Q23.612513 128.1948 23.971888 127.92917Q24.331263 127.66354 24.925013 127.56979L25.065638 128.60104Q24.596888 128.66354 24.331263 129.0073Q24.050013 129.33542 24.050013 129.96042Q24.050013 130.67917 24.300013 130.99167Q24.534388 131.30417 24.862513 131.30417Q25.065638 131.30417 25.221888 131.17917Q25.393763 131.03854 25.503138 130.77292Q25.565638 130.61667 25.768763 129.83542Q26.081263 128.71042 26.268763 128.27292Q26.456263 127.83542 26.815638 127.58542Q27.175013 127.33542 27.721888 127.33542Q28.253138 127.33542 28.721888 127.64792Q29.175013 127.94479 29.440638 128.52292Q29.690638 129.10104 29.690638 129.83542Q29.690638 131.05417 29.190638 131.6948Q28.675013 132.3198 27.690638 132.49167ZM32.08126 124.38229L32.08126 125.13229Q29.268763 123.38229 26.440638 123.38229Q25.346888 123.38229 24.253138 123.63229Q23.378138 123.83542 22.565638 124.19479Q22.050013 124.42917 20.815638 125.13229L20.815638 124.38229Q22.284388 123.28854 23.768763 122.75729Q25.050013 122.30417 26.440638 122.30417Q28.018763 122.30417 29.503138 122.91354Q30.971888 123.52292 32.08126 124.38229Z" fill-rule="nonzero"/><path fill="#000000" d="M75.05 300.21564Q75.05 298.6844 75.3625 297.7625Q75.675 296.825 76.28438 296.325Q76.90938 295.825 77.84688 295.825Q78.53438 295.825 79.05 296.10626Q79.58125 296.3875 79.925 296.91876Q80.26875 297.4344 80.45625 298.1844Q80.64375 298.9344 80.64375 300.21564Q80.64375 301.73126 80.33125 302.65314Q80.03438 303.575 79.40938 304.09064Q78.8 304.59064 77.84688 304.59064Q76.6125 304.59064 75.89375 303.7Q75.05 302.6375 75.05 300.21564ZM76.12813 300.21564Q76.12813 302.325 76.62813 303.02814Q77.12813 303.73126 77.84688 303.73126Q78.58125 303.73126 79.06563 303.02814Q79.56563 302.325 79.56563 300.21564Q79.56563 298.09064 79.06563 297.40314Q78.58125 296.7 77.83125 296.7Q77.1125 296.7 76.675 297.3094Q76.12813 298.09064 76.12813 300.21564Z" fill-rule="nonzero"/><path fill="#000000" d="M61.05 249.15834L62.159374 249.06459Q62.284374 249.87709 62.721874 250.28334Q63.175 250.68959 63.815624 250.68959Q64.56563 250.68959 65.09688 250.11147Q65.62813 249.53334 65.62813 248.59584Q65.62813 247.68959 65.1125 247.17397Q64.6125 246.64272 63.784374 246.64272Q63.284374 246.64272 62.8625 246.87709Q62.45625 247.11147 62.221874 247.47084L61.2375 247.34584L62.065624 242.93959L66.34688 242.93959L66.34688 243.93959L62.909374 243.93959L62.45625 246.25209Q63.221874 245.70522 64.06563 245.70522Q65.19063 245.70522 65.95625 246.48647Q66.7375 247.26772 66.7375 248.50209Q66.7375 249.65834 66.06563 250.51772Q65.2375 251.54897 63.815624 251.54897Q62.64375 251.54897 61.89375 250.89272Q61.159374 250.23647 61.05 249.15834ZM68.05 247.17397Q68.05 245.64272 68.3625 244.72084Q68.675 243.78334 69.28438 243.28334Q69.90938 242.78334 70.84688 242.78334Q71.53438 242.78334 72.05 243.06459Q72.58125 243.34584 72.925 243.87709Q73.26875 244.39272 73.45625 245.14272Q73.64375 245.89272 73.64375 247.17397Q73.64375 248.68959 73.33125 249.61147Q73.03438 250.53334 72.40938 251.04897Q71.8 251.54897 70.84688 251.54897Q69.6125 251.54897 68.89375 250.65834Q68.05 249.59584 68.05 247.17397ZM69.12813 247.17397Q69.12813 249.28334 69.62813 249.98647Q70.12813 250.68959 70.84688 250.68959Q71.58125 250.68959 72.06563 249.98647Q72.56563 249.28334 72.56563 247.17397Q72.56563 245.04897 72.06563 244.36147Q71.58125 243.65834 70.83125 243.65834Q70.1125 243.65834 69.675 244.26772Q69.12813 245.04897 69.12813 247.17397ZM75.05 247.17397Q75.05 245.64272 75.3625 244.72084Q75.675 243.78334 76.28438 243.28334Q76.90938 242.78334 77.84688 242.78334Q78.53438 242.78334 79.05 243.06459Q79.58125 243.34584 79.925 243.87709Q80.26875 244.39272 80.45625 245.14272Q80.64375 245.89272 80.64375 247.17397Q80.64375 248.68959 80.33125 249.61147Q80.03438 250.53334 79.40938 251.04897Q78.8 251.54897 77.84688 251.54897Q76.6125 251.54897 75.89375 250.65834Q75.05 249.59584 75.05 247.17397ZM76.12813 247.17397Q76.12813 249.28334 76.62813 249.98647Q77.12813 250.68959 77.84688 250.68959Q78.58125 250.68959 79.06563 249.98647Q79.56563 249.28334 79.56563 247.17397Q79.56563 245.04897 79.06563 244.36147Q78.58125 243.65834 77.83125 243.65834Q77.1125 243.65834 76.675 244.26772Q76.12813 245.04897 76.12813 247.17397Z" fill-rule="nonzero"/><path fill="#000000" d="M55.01875 198.36667L53.971874 198.36667L53.971874 191.64792Q53.58125 192.0073 52.95625 192.3823Q52.346874 192.74167 51.8625 192.91354L51.8625 191.89792Q52.7375 191.47604 53.39375 190.89792Q54.065624 190.30417 54.346874 189.74167L55.01875 189.74167L55.01875 198.36667ZM58.6125 198.36667L58.6125 197.16354L59.815624 197.16354L59.815624 198.36667Q59.815624 199.02292 59.58125 199.42917Q59.346874 199.85104 58.846874 200.0698L58.55 199.61667Q58.878124 199.47604 59.034374 199.17917Q59.190624 198.89792 59.221874 198.36667L58.6125 198.36667ZM61.05 194.1323Q61.05 192.60104 61.3625 191.67917Q61.675 190.74167 62.284374 190.24167Q62.909374 189.74167 63.846874 189.74167Q64.53438 189.74167 65.05 190.02292Q65.58125 190.30417 65.925 190.83542Q66.26875 191.35104 66.45625 192.10104Q66.64375 192.85104 66.64375 194.1323Q66.64375 195.64792 66.33125 196.5698Q66.03438 197.49167 65.40938 198.0073Q64.8 198.5073 63.846874 198.5073Q62.6125 198.5073 61.89375 197.61667Q61.05 196.55417 61.05 194.1323ZM62.128124 194.1323Q62.128124 196.24167 62.628124 196.9448Q63.128124 197.64792 63.846874 197.64792Q64.58125 197.64792 65.06563 196.9448Q65.56563 196.24167 65.56563 194.1323Q65.56563 192.0073 65.06563 191.3198Q64.58125 190.61667 63.83125 190.61667Q63.1125 190.61667 62.675 191.22604Q62.128124 192.0073 62.128124 194.1323ZM68.05 194.1323Q68.05 192.60104 68.3625 191.67917Q68.675 190.74167 69.28438 190.24167Q69.90938 189.74167 70.84688 189.74167Q71.53438 189.74167 72.05 190.02292Q72.58125 190.30417 72.925 190.83542Q73.26875 191.35104 73.45625 192.10104Q73.64375 192.85104 73.64375 194.1323Q73.64375 195.64792 73.33125 196.5698Q73.03438 197.49167 72.40938 198.0073Q71.8 198.5073 70.84688 198.5073Q69.6125 198.5073 68.89375 197.61667Q68.05 196.55417 68.05 194.1323ZM69.12813 194.1323Q69.12813 196.24167 69.62813 196.9448Q70.12813 197.64792 70.84688 197.64792Q71.58125 197.64792 72.06563 196.9448Q72.56563 196.24167 72.56563 194.1323Q72.56563 192.0073 72.06563 191.3198Q71.58125 190.61667 70.83125 190.61667Q70.1125 190.61667 69.675 191.22604Q69.12813 192.0073 69.12813 194.1323ZM75.05 194.1323Q75.05 192.60104 75.3625 191.67917Q75.675 190.74167 76.28438 190.24167Q76.90938 189.74167 77.84688 189.74167Q78.53438 189.74167 79.05 190.02292Q79.58125 190.30417 79.925 190.83542Q80.26875 191.35104 80.45625 192.10104Q80.64375 192.85104 80.64375 194.1323Q80.64375 195.64792 80.33125 196.5698Q80.03438 197.49167 79.40938 198.0073Q78.8 198.5073 77.84688 198.5073Q76.6125 198.5073 75.89375 197.61667Q75.05 196.55417 75.05 194.1323ZM76.12813 194.1323Q76.12813 196.24167 76.62813 196.9448Q77.12813 197.64792 77.84688 197.64792Q78.58125 197.64792 79.06563 196.9448Q79.56563 196.24167 79.56563 194.1323Q79.56563 192.0073 79.06563 191.3198Q78.58125 190.61667 77.83125 190.61667Q77.1125 190.61667 76.675 191.22604Q76.12813 192.0073 76.12813 194.1323Z" fill-rule="nonzero"/><path fill="#000000" d="M55.01875 145.325L53.971874 145.325L53.971874 138.60625Q53.58125 138.96562 52.95625 139.34062Q52.346874 139.7 51.8625 139.87187L51.8625 138.85625Q52.7375 138.43437 53.39375 137.85625Q54.065624 137.2625 54.346874 136.7L55.01875 136.7L55.01875 145.325ZM58.6125 145.325L58.6125 144.12187L59.815624 144.12187L59.815624 145.325Q59.815624 145.98125 59.58125 146.3875Q59.346874 146.80937 58.846874 147.02812L58.55 146.575Q58.878124 146.43437 59.034374 146.1375Q59.190624 145.85625 59.221874 145.325L58.6125 145.325ZM61.05 143.075L62.159374 142.98125Q62.284374 143.79375 62.721874 144.2Q63.175 144.60625 63.815624 144.60625Q64.56563 144.60625 65.09688 144.02812Q65.62813 143.45 65.62813 142.5125Q65.62813 141.60625 65.1125 141.09062Q64.6125 140.55937 63.784374 140.55937Q63.284374 140.55937 62.8625 140.79375Q62.45625 141.02812 62.221874 141.3875L61.2375 141.2625L62.065624 136.85625L66.34688 136.85625L66.34688 137.85625L62.909374 137.85625L62.45625 140.16875Q63.221874 139.62187 64.06563 139.62187Q65.19063 139.62187 65.95625 140.40312Q66.7375 141.18437 66.7375 142.41875Q66.7375 143.575 66.06563 144.43437Q65.2375 145.46562 63.815624 145.46562Q62.64375 145.46562 61.89375 144.80937Q61.159374 144.15312 61.05 143.075ZM68.05 141.09062Q68.05 139.55937 68.3625 138.6375Q68.675 137.7 69.28438 137.2Q69.90938 136.7 70.84688 136.7Q71.53438 136.7 72.05 136.98125Q72.58125 137.2625 72.925 137.79375Q73.26875 138.30937 73.45625 139.05937Q73.64375 139.80937 73.64375 141.09062Q73.64375 142.60625 73.33125 143.52812Q73.03438 144.45 72.40938 144.96562Q71.8 145.46562 70.84688 145.46562Q69.6125 145.46562 68.89375 144.575Q68.05 143.5125 68.05 141.09062ZM69.12813 141.09062Q69.12813 143.2 69.62813 143.90312Q70.12813 144.60625 70.84688 144.60625Q71.58125 144.60625 72.06563 143.90312Q72.56563 143.2 72.56563 141.09062Q72.56563 138.96562 72.06563 138.27812Q71.58125 137.575 70.83125 137.575Q70.1125 137.575 69.675 138.18437Q69.12813 138.96562 69.12813 141.09062ZM75.05 141.09062Q75.05 139.55937 75.3625 138.6375Q75.675 137.7 76.28438 137.2Q76.90938 136.7 77.84688 136.7Q78.53438 136.7 79.05 136.98125Q79.58125 137.2625 79.925 137.79375Q80.26875 138.30937 80.45625 139.05937Q80.64375 139.80937 80.64375 141.09062Q80.64375 142.60625 80.33125 143.52812Q80.03438 144.45 79.40938 144.96562Q78.8 145.46562 77.84688 145.46562Q76.6125 145.46562 75.89375 144.575Q75.05 143.5125 75.05 141.09062ZM76.12813 141.09062Q76.12813 143.2 76.62813 143.90312Q77.12813 144.60625 77.84688 144.60625Q78.58125 144.60625 79.06563 143.90312Q79.56563 143.2 79.56563 141.09062Q79.56563 138.96562 79.06563 138.27812Q78.58125 137.575 77.83125 137.575Q77.1125 137.575 76.675 138.18437Q76.12813 138.96562 76.12813 141.09062Z" fill-rule="nonzero"/><path fill="#000000" d="M56.596874 91.26771L56.596874 92.28333L50.909374 92.28333Q50.909374 91.90833 51.034374 91.54896Q51.253124 90.97083 51.721874 90.40833Q52.20625 89.84583 53.1125 89.11146Q54.51875 87.95521 55.003124 87.28333Q55.503124 86.61146 55.503124 86.01771Q55.503124 85.39271 55.05 84.97083Q54.596874 84.53333 53.878124 84.53333Q53.1125 84.53333 52.659374 84.98646Q52.20625 85.43958 52.190624 86.25208L51.1125 86.14271Q51.221874 84.92396 51.940624 84.29896Q52.675 83.65833 53.909374 83.65833Q55.14375 83.65833 55.8625 84.34583Q56.58125 85.03333 56.58125 86.04896Q56.58125 86.56458 56.3625 87.06458Q56.159374 87.54896 55.659374 88.11146Q55.175 88.65833 54.05 89.61146Q53.096874 90.40833 52.815624 90.70521Q52.55 90.98646 52.378124 91.26771L56.596874 91.26771ZM58.6125 92.28333L58.6125 91.08021L59.815624 91.08021L59.815624 92.28333Q59.815624 92.93958 59.58125 93.34583Q59.346874 93.76771 58.846874 93.98646L58.55 93.53333Q58.878124 93.39271 59.034374 93.09583Q59.190624 92.81458 59.221874 92.28333L58.6125 92.28333ZM61.05 88.04896Q61.05 86.51771 61.3625 85.59583Q61.675 84.65833 62.284374 84.15833Q62.909374 83.65833 63.846874 83.65833Q64.53438 83.65833 65.05 83.93958Q65.58125 84.22083 65.925 84.75208Q66.26875 85.26771 66.45625 86.01771Q66.64375 86.76771 66.64375 88.04896Q66.64375 89.56458 66.33125 90.48646Q66.03438 91.40833 65.40938 91.92396Q64.8 92.42396 63.846874 92.42396Q62.6125 92.42396 61.89375 91.53333Q61.05 90.47083 61.05 88.04896ZM62.128124 88.04896Q62.128124 90.15833 62.628124 90.86146Q63.128124 91.56458 63.846874 91.56458Q64.58125 91.56458 65.06563 90.86146Q65.56563 90.15833 65.56563 88.04896Q65.56563 85.92396 65.06563 85.23646Q64.58125 84.53333 63.83125 84.53333Q63.1125 84.53333 62.675 85.14271Q62.128124 85.92396 62.128124 88.04896ZM68.05 88.04896Q68.05 86.51771 68.3625 85.59583Q68.675 84.65833 69.28438 84.15833Q69.90938 83.65833 70.84688 83.65833Q71.53438 83.65833 72.05 83.93958Q72.58125 84.22083 72.925 84.75208Q73.26875 85.26771 73.45625 86.01771Q73.64375 86.76771 73.64375 88.04896Q73.64375 89.56458 73.33125 90.48646Q73.03438 91.40833 72.40938 91.92396Q71.8 92.42396 70.84688 92.42396Q69.6125 92.42396 68.89375 91.53333Q68.05 90.47083 68.05 88.04896ZM69.12813 88.04896Q69.12813 90.15833 69.62813 90.86146Q70.12813 91.56458 70.84688 91.56458Q71.58125 91.56458 72.06563 90.86146Q72.56563 90.15833 72.56563 88.04896Q72.56563 85.92396 72.06563 85.23646Q71.58125 84.53333 70.83125 84.53333Q70.1125 84.53333 69.675 85.14271Q69.12813 85.92396 69.12813 88.04896ZM75.05 88.04896Q75.05 86.51771 75.3625 85.59583Q75.675 84.65833 76.28438 84.15833Q76.90938 83.65833 77.84688 83.65833Q78.53438 83.65833 79.05 83.93958Q79.58125 84.22083 79.925 84.75208Q80.26875 85.26771 80.45625 86.01771Q80.64375 86.76771 80.64375 88.04896Q80.64375 89.56458 80.33125 90.48646Q80.03438 91.40833 79.40938 91.92396Q78.8 92.42396 77.84688 92.42396Q76.6125 92.42396 75.89375 91.53333Q75.05 90.47083 75.05 88.04896ZM76.12813 88.04896Q76.12813 90.15833 76.62813 90.86146Q77.12813 91.56458 77.84688 91.56458Q78.58125 91.56458 79.06563 90.86146Q79.56563 90.15833 79.56563 88.04896Q79.56563 85.92396 79.06563 85.23646Q78.58125 84.53333 77.83125 84.53333Q77.1125 84.53333 76.675 85.14271Q76.12813 85.92396 76.12813 88.04896Z" fill-rule="nonzero"/><path fill="#000000" d="M88.51875 317.45L87.47188 317.45L87.47188 310.73126Q87.08125 311.09064 86.45625 311.46564Q85.84688 311.825 85.3625 311.9969L85.3625 310.98126Q86.2375 310.5594 86.89375 309.98126Q87.56563 309.3875 87.84688 308.825L88.51875 308.825L88.51875 317.45Z" fill-rule="nonzero"/><path fill="#000000" d="M195.62233 317.45L194.57545 317.45L194.57545 310.73126Q194.18483 311.09064 193.55983 311.46564Q192.95045 311.825 192.46608 311.9969L192.46608 310.98126Q193.34108 310.5594 193.99733 309.98126Q194.6692 309.3875 194.95045 308.825L195.62233 308.825L195.62233 317.45ZM198.65358 313.21564Q198.65358 311.6844 198.96608 310.7625Q199.27858 309.825 199.88795 309.325Q200.51295 308.825 201.45045 308.825Q202.13795 308.825 202.65358 309.10626Q203.18483 309.3875 203.52858 309.91876Q203.87233 310.4344 204.05983 311.1844Q204.24733 311.9344 204.24733 313.21564Q204.24733 314.73126 203.93483 315.65314Q203.63795 316.575 203.01295 317.09064Q202.40358 317.59064 201.45045 317.59064Q200.21608 317.59064 199.49733 316.7Q198.65358 315.6375 198.65358 313.21564ZM199.7317 313.21564Q199.7317 315.325 200.2317 316.02814Q200.7317 316.73126 201.45045 316.73126Q202.18483 316.73126 202.6692 316.02814Q203.1692 315.325 203.1692 313.21564Q203.1692 311.09064 202.6692 310.40314Q202.18483 309.7 201.43483 309.7Q200.71608 309.7 200.27858 310.3094Q199.7317 311.09064 199.7317 313.21564Z" fill-rule="nonzero"/><path fill="#000000" d="M302.72592 317.45L301.67905 317.45L301.67905 310.73126Q301.28842 311.09064 300.66342 311.46564Q300.05405 311.825 299.56967 311.9969L299.56967 310.98126Q300.44467 310.5594 301.10092 309.98126Q301.7728 309.3875 302.05405 308.825L302.72592 308.825L302.72592 317.45ZM305.75717 313.21564Q305.75717 311.6844 306.06967 310.7625Q306.38217 309.825 306.99155 309.325Q307.61655 308.825 308.55405 308.825Q309.24155 308.825 309.75717 309.10626Q310.28842 309.3875 310.63217 309.91876Q310.97592 310.4344 311.16342 311.1844Q311.35092 311.9344 311.35092 313.21564Q311.35092 314.73126 311.03842 315.65314Q310.74155 316.575 310.11655 317.09064Q309.50717 317.59064 308.55405 317.59064Q307.31967 317.59064 306.60092 316.7Q305.75717 315.6375 305.75717 313.21564ZM306.8353 313.21564Q306.8353 315.325 307.3353 316.02814Q307.8353 316.73126 308.55405 316.73126Q309.28842 316.73126 309.7728 316.02814Q310.2728 315.325 310.2728 313.21564Q310.2728 311.09064 309.7728 310.40314Q309.28842 309.7 308.53842 309.7Q307.81967 309.7 307.38217 310.3094Q306.8353 311.09064 306.8353 313.21564ZM312.75717 313.21564Q312.75717 311.6844 313.06967 310.7625Q313.38217 309.825 313.99155 309.325Q314.61655 308.825 315.55405 308.825Q316.24155 308.825 316.75717 309.10626Q317.28842 309.3875 317.63217 309.91876Q317.97592 310.4344 318.16342 311.1844Q318.35092 311.9344 318.35092 313.21564Q318.35092 314.73126 318.03842 315.65314Q317.74155 316.575 317.11655 317.09064Q316.50717 317.59064 315.55405 317.59064Q314.31967 317.59064 313.60092 316.7Q312.75717 315.6375 312.75717 313.21564ZM313.8353 313.21564Q313.8353 315.325 314.3353 316.02814Q314.8353 316.73126 315.55405 316.73126Q316.28842 316.73126 316.7728 316.02814Q317.2728 315.325 317.2728 313.21564Q317.2728 311.09064 316.7728 310.40314Q316.28842 309.7 315.53842 309.7Q314.81967 309.7 314.38217 310.3094Q313.8353 311.09064 313.8353 313.21564Z" fill-rule="nonzero"/><path fill="#000000" d="M409.8295 317.45L408.78262 317.45L408.78262 310.73126Q408.392 311.09064 407.767 311.46564Q407.15762 311.825 406.67325 311.9969L406.67325 310.98126Q407.54825 310.5594 408.2045 309.98126Q408.87637 309.3875 409.15762 308.825L409.8295 308.825L409.8295 317.45ZM412.86075 313.21564Q412.86075 311.6844 413.17325 310.7625Q413.48575 309.825 414.09512 309.325Q414.72012 308.825 415.65762 308.825Q416.34512 308.825 416.86075 309.10626Q417.392 309.3875 417.73575 309.91876Q418.0795 310.4344 418.267 311.1844Q418.4545 311.9344 418.4545 313.21564Q418.4545 314.73126 418.142 315.65314Q417.84512 316.575 417.22012 317.09064Q416.61075 317.59064 415.65762 317.59064Q414.42325 317.59064 413.7045 316.7Q412.86075 315.6375 412.86075 313.21564ZM413.93887 313.21564Q413.93887 315.325 414.43887 316.02814Q414.93887 316.73126 415.65762 316.73126Q416.392 316.73126 416.87637 316.02814Q417.37637 315.325 417.37637 313.21564Q417.37637 311.09064 416.87637 310.40314Q416.392 309.7 415.642 309.7Q414.92325 309.7 414.48575 310.3094Q413.93887 311.09064 413.93887 313.21564ZM419.86075 313.21564Q419.86075 311.6844 420.17325 310.7625Q420.48575 309.825 421.09512 309.325Q421.72012 308.825 422.65762 308.825Q423.34512 308.825 423.86075 309.10626Q424.392 309.3875 424.73575 309.91876Q425.0795 310.4344 425.267 311.1844Q425.4545 311.9344 425.4545 313.21564Q425.4545 314.73126 425.142 315.65314Q424.84512 316.575 424.22012 317.09064Q423.61075 317.59064 422.65762 317.59064Q421.42325 317.59064 420.7045 316.7Q419.86075 315.6375 419.86075 313.21564ZM420.93887 313.21564Q420.93887 315.325 421.43887 316.02814Q421.93887 316.73126 422.65762 316.73126Q423.392 316.73126 423.87637 316.02814Q424.37637 315.325 424.37637 313.21564Q424.37637 311.09064 423.87637 310.40314Q423.392 309.7 422.642 309.7Q421.92325 309.7 421.48575 310.3094Q420.93887 311.09064 420.93887 313.21564ZM426.86075 313.21564Q426.86075 311.6844 427.17325 310.7625Q427.48575 309.825 428.09512 309.325Q428.72012 308.825 429.65762 308.825Q430.34512 308.825 430.86075 309.10626Q431.392 309.3875 431.73575 309.91876Q432.0795 310.4344 432.267 311.1844Q432.4545 311.9344 432.4545 313.21564Q432.4545 314.73126 432.142 315.65314Q431.84512 316.575 431.22012 317.09064Q430.61075 317.59064 429.65762 317.59064Q428.42325 317.59064 427.7045 316.7Q426.86075 315.6375 426.86075 313.21564ZM427.93887 313.21564Q427.93887 315.325 428.43887 316.02814Q428.93887 316.73126 429.65762 316.73126Q430.392 316.73126 430.87637 316.02814Q431.37637 315.325 431.37637 313.21564Q431.37637 311.09064 430.87637 310.40314Q430.392 309.7 429.642 309.7Q428.92325 309.7 428.48575 310.3094Q427.93887 311.09064 427.93887 313.21564Z" fill-rule="nonzero"/><path stroke="#4285f4" stroke-width="4.0" stroke-linecap="butt" d="M238.0 61.916668L250.0 61.916668" fill-rule="nonzero"/><path fill="#1a1a1a" d="M259.76562 65.916664L258.78125 65.916664L258.78125 57.322914L259.84375 57.322914L259.84375 60.385414Q260.51562 59.55729 261.54688 59.55729Q262.125 59.55729 262.625 59.791664Q263.14062 60.010414 263.46875 60.43229Q263.8125 60.854164 264.0 61.447914Q264.1875 62.041664 264.1875 62.71354Q264.1875 64.30729 263.39062 65.18229Q262.59375 66.05729 261.5 66.05729Q260.39062 66.05729 259.76562 65.135414L259.76562 65.916664ZM259.75 62.760414Q259.75 63.86979 260.0625 64.36979Q260.5625 65.18229 261.40625 65.18229Q262.09375 65.18229 262.59375 64.58854Q263.10938 63.99479 263.10938 62.791664Q263.10938 61.572914 262.625 60.99479Q262.14062 60.416664 261.45312 60.416664Q260.76562 60.416664 260.25 61.02604Q259.75 61.61979 259.75 62.760414ZM269.85938 65.15104Q269.26562 65.65104 268.71875 65.854164Q268.1875 66.05729 267.5625 66.05729Q266.53125 66.05729 265.98438 65.55729Q265.4375 65.05729 265.4375 64.27604Q265.4375 63.822914 265.64062 63.447914Q265.84375 63.05729 266.1875 62.83854Q266.53125 62.604164 266.95312 62.49479Q267.25 62.40104 267.89062 62.322914Q269.15625 62.18229 269.76562 61.96354Q269.76562 61.74479 269.76562 61.697914Q269.76562 61.041664 269.46875 60.77604Q269.0625 60.43229 268.26562 60.43229Q267.53125 60.43229 267.17188 60.697914Q266.8125 60.947914 266.64062 61.604164L265.60938 61.46354Q265.75 60.80729 266.07812 60.40104Q266.40625 59.99479 267.01562 59.77604Q267.625 59.55729 268.42188 59.55729Q269.21875 59.55729 269.71875 59.74479Q270.21875 59.93229 270.45312 60.21354Q270.6875 60.49479 270.78125 60.93229Q270.82812 61.197914 270.82812 61.90104L270.82812 63.30729Q270.82812 64.77604 270.89062 65.166664Q270.96875 65.55729 271.17188 65.916664L270.0625 65.916664Q269.90625 65.58854 269.85938 65.15104ZM269.76562 62.791664Q269.1875 63.02604 268.04688 63.197914Q267.39062 63.291664 267.125 63.416664Q266.85938 63.52604 266.70312 63.74479Q266.5625 63.96354 266.5625 64.24479Q266.5625 64.666664 266.875 64.947914Q267.20312 65.229164 267.8125 65.229164Q268.42188 65.229164 268.89062 64.96354Q269.375 64.697914 269.59375 64.229164Q269.76562 63.86979 269.76562 63.18229L269.76562 62.791664ZM272.375 64.05729L273.40625 63.90104Q273.5 64.52604 273.89062 64.854164Q274.29688 65.18229 275.03125 65.18229Q275.75 65.18229 276.09375 64.90104Q276.45312 64.604164 276.45312 64.197914Q276.45312 63.83854 276.14062 63.635414Q275.92188 63.49479 275.0625 63.27604Q273.90625 62.979164 273.45312 62.77604Q273.01562 62.55729 272.78125 62.18229Q272.54688 61.80729 272.54688 61.33854Q272.54688 60.93229 272.73438 60.572914Q272.92188 60.21354 273.25 59.979164Q273.5 59.80729 273.92188 59.68229Q274.34375 59.55729 274.84375 59.55729Q275.5625 59.55729 276.10938 59.77604Q276.67188 59.979164 276.9375 60.33854Q277.20312 60.697914 277.29688 61.291664L276.26562 61.43229Q276.20312 60.96354 275.85938 60.697914Q275.53125 60.416664 274.90625 60.416664Q274.1875 60.416664 273.875 60.666664Q273.5625 60.90104 273.5625 61.229164Q273.5625 61.43229 273.6875 61.58854Q273.82812 61.760414 274.09375 61.86979Q274.25 61.93229 275.03125 62.135414Q276.15625 62.447914 276.59375 62.635414Q277.03125 62.822914 277.28125 63.18229Q277.53125 63.541664 277.53125 64.08854Q277.53125 64.61979 277.21875 65.08854Q276.92188 65.541664 276.34375 65.80729Q275.76562 66.05729 275.03125 66.05729Q273.8125 66.05729 273.17188 65.55729Q272.54688 65.041664 272.375 64.05729ZM284.04688 63.916664L285.14062 64.041664Q284.89062 64.99479 284.1875 65.52604Q283.48438 66.05729 282.40625 66.05729Q281.04688 66.05729 280.23438 65.21354Q279.4375 64.36979 279.4375 62.854164Q279.4375 61.291664 280.25 60.43229Q281.0625 59.55729 282.34375 59.55729Q283.59375 59.55729 284.375 60.40104Q285.17188 61.24479 285.17188 62.791664Q285.17188 62.885414 285.17188 63.072914L280.53125 63.072914Q280.59375 64.104164 281.10938 64.65104Q281.625 65.18229 282.40625 65.18229Q282.98438 65.18229 283.39062 64.885414Q283.8125 64.572914 284.04688 63.916664ZM280.59375 62.21354L284.0625 62.21354Q284.0 61.416664 283.67188 61.02604Q283.15625 60.416664 282.35938 60.416664Q281.625 60.416664 281.125 60.90104Q280.64062 61.385414 280.59375 62.21354ZM286.76562 65.916664L286.76562 57.322914L287.82812 57.322914L287.82812 65.916664L286.76562 65.916664ZM289.79688 58.541664L289.79688 57.322914L290.85938 57.322914L290.85938 58.541664L289.79688 58.541664ZM289.79688 65.916664L289.79688 59.697914L290.85938 59.697914L290.85938 65.916664L289.79688 65.916664ZM292.79688 65.916664L292.79688 59.697914L293.73438 59.697914L293.73438 60.572914Q294.42188 59.55729 295.71875 59.55729Q296.28125 59.55729 296.75 59.760414Q297.23438 59.96354 297.46875 60.291664Q297.70312 60.61979 297.79688 61.05729Q297.84375 61.354164 297.84375 62.08854L297.84375 65.916664L296.79688 65.916664L296.79688 62.135414Q296.79688 61.479164 296.67188 61.166664Q296.54688 60.854164 296.23438 60.666664Q295.92188 60.46354 295.5 60.46354Q294.82812 60.46354 294.32812 60.90104Q293.84375 61.322914 293.84375 62.510414L293.84375 65.916664L292.79688 65.916664ZM304.04688 63.916664L305.14062 64.041664Q304.89062 64.99479 304.1875 65.52604Q303.48438 66.05729 302.40625 66.05729Q301.04688 66.05729 300.23438 65.21354Q299.4375 64.36979 299.4375 62.854164Q299.4375 61.291664 300.25 60.43229Q301.0625 59.55729 302.34375 59.55729Q303.59375 59.55729 304.375 60.40104Q305.17188 61.24479 305.17188 62.791664Q305.17188 62.885414 305.17188 63.072914L300.53125 63.072914Q300.59375 64.104164 301.10938 64.65104Q301.625 65.18229 302.40625 65.18229Q302.98438 65.18229 303.39062 64.885414Q303.8125 64.572914 304.04688 63.916664ZM300.59375 62.21354L304.0625 62.21354Q304.0 61.416664 303.67188 61.02604Q303.15625 60.416664 302.35938 60.416664Q301.625 60.416664 301.125 60.90104Q300.64062 61.385414 300.59375 62.21354Z" fill-rule="nonzero"/><path fill="#757575" d="M23.46875 37.55L28.96875 23.2375L31.015625 23.2375L36.875 37.55L34.71875 37.55L33.046875 33.20625L27.0625 33.20625L25.484375 37.55L23.46875 37.55ZM27.609375 31.675L32.453125 31.675L30.96875 27.70625Q30.28125 25.89375 29.953125 24.7375Q29.671875 26.1125 29.171875 27.471874L27.609375 31.675ZM44.59375 36.26875Q43.609375 37.096874 42.703125 37.440624Q41.796875 37.784374 40.765625 37.784374Q39.0625 37.784374 38.140625 36.95625Q37.21875 36.1125 37.21875 34.815624Q37.21875 34.05 37.5625 33.425Q37.921875 32.8 38.484375 32.425Q39.046875 32.034374 39.75 31.83125Q40.265625 31.70625 41.3125 31.565624Q43.4375 31.315624 44.4375 30.971874Q44.453125 30.6125 44.453125 30.503124Q44.453125 29.440624 43.953125 28.9875Q43.28125 28.39375 41.953125 28.39375Q40.703125 28.39375 40.109375 28.83125Q39.53125 29.26875 39.25 30.378124L37.53125 30.14375Q37.765625 29.034374 38.296875 28.3625Q38.828125 27.675 39.84375 27.315624Q40.859375 26.940624 42.203125 26.940624Q43.53125 26.940624 44.359375 27.253124Q45.1875 27.565624 45.578125 28.05Q45.96875 28.51875 46.125 29.2375Q46.21875 29.690624 46.21875 30.8625L46.21875 33.20625Q46.21875 35.659374 46.328125 36.315624Q46.4375 36.95625 46.78125 37.55L44.9375 37.55Q44.671875 37.003124 44.59375 36.26875ZM44.4375 32.346874Q43.484375 32.7375 41.5625 33.003124Q40.484375 33.159374 40.03125 33.3625Q39.59375 33.55 39.34375 33.925Q39.09375 34.3 39.09375 34.76875Q39.09375 35.471874 39.625 35.940624Q40.15625 36.409374 41.1875 36.409374Q42.203125 36.409374 42.984375 35.971874Q43.78125 35.51875 44.15625 34.753124Q44.4375 34.14375 44.4375 32.9875L44.4375 32.346874ZM48.796875 37.55L48.796875 27.175L50.375 27.175L50.375 28.753124Q50.984375 27.64375 51.5 27.3Q52.015625 26.940624 52.625 26.940624Q53.515625 26.940624 54.4375 27.503124L53.828125 29.14375Q53.1875 28.753124 52.546875 28.753124Q51.96875 28.753124 51.5 29.1125Q51.046875 29.45625 50.84375 30.065624Q50.5625 31.003124 50.5625 32.1125L50.5625 37.55L48.796875 37.55ZM62.59375 33.753124L64.3125 33.971874Q64.03125 35.76875 62.859375 36.784374Q61.703125 37.784374 60.0 37.784374Q57.875 37.784374 56.578125 36.39375Q55.28125 35.003124 55.28125 32.409374Q55.28125 30.721874 55.828125 29.471874Q56.390625 28.20625 57.53125 27.58125Q58.671875 26.940624 60.015625 26.940624Q61.703125 26.940624 62.765625 27.8Q63.84375 28.659374 64.15625 30.221874L62.4375 30.4875Q62.203125 29.440624 61.578125 28.925Q60.953125 28.39375 60.078125 28.39375Q58.75 28.39375 57.921875 29.346874Q57.09375 30.3 57.09375 32.346874Q57.09375 34.440624 57.890625 35.39375Q58.6875 36.33125 59.984375 36.33125Q61.015625 36.33125 61.703125 35.70625Q62.40625 35.065624 62.59375 33.753124ZM65.8125 37.55L65.8125 23.2375L67.578125 23.2375L67.578125 28.3625Q68.8125 26.940624 70.6875 26.940624Q71.828125 26.940624 72.671875 27.39375Q73.53125 27.846874 73.890625 28.659374Q74.265625 29.45625 74.265625 30.971874L74.265625 37.55L72.515625 37.55L72.515625 30.971874Q72.515625 29.659374 71.9375 29.065624Q71.359375 28.45625 70.328125 28.45625Q69.546875 28.45625 68.84375 28.8625Q68.15625 29.26875 67.859375 29.971874Q67.578125 30.659374 67.578125 31.878124L67.578125 37.55L65.8125 37.55ZM84.453125 26.7375L82.703125 26.878124Q82.46875 25.846874 82.046875 25.378124Q81.328125 24.6125 80.28125 24.6125Q79.4375 24.6125 78.8125 25.08125Q77.984375 25.690624 77.5 26.8625Q77.015625 28.01875 77.0 30.159374Q77.640625 29.20625 78.546875 28.7375Q79.46875 28.26875 80.484375 28.26875Q82.234375 28.26875 83.46875 29.565624Q84.703125 30.846874 84.703125 32.89375Q84.703125 34.253124 84.125 35.409374Q83.546875 36.565624 82.53125 37.190624Q81.515625 37.8 80.21875 37.8Q78.03125 37.8 76.640625 36.190624Q75.25 34.565624 75.25 30.846874Q75.25 26.70625 76.78125 24.815624Q78.125 23.175 80.390625 23.175Q82.078125 23.175 83.15625 24.128124Q84.234375 25.065624 84.453125 26.7375ZM77.28125 32.909374Q77.28125 33.815624 77.65625 34.64375Q78.046875 35.471874 78.734375 35.909374Q79.4375 36.346874 80.1875 36.346874Q81.3125 36.346874 82.109375 35.45625Q82.90625 34.55 82.90625 33.003124Q82.90625 31.51875 82.109375 30.675Q81.328125 29.815624 80.125 29.815624Q78.9375 29.815624 78.109375 30.675Q77.28125 31.51875 77.28125 32.909374ZM91.96875 37.55L91.96875 34.128124L85.75 34.128124L85.75 32.503124L92.28125 23.2375L93.71875 23.2375L93.71875 32.503124L95.65625 32.503124L95.65625 34.128124L93.71875 34.128124L93.71875 37.55L91.96875 37.55ZM91.96875 32.503124L91.96875 26.05L87.484375 32.503124L91.96875 32.503124ZM103.8125 37.55L103.8125 27.175L105.390625 27.175L105.390625 28.628124Q105.875 27.878124 106.6875 27.409374Q107.5 26.940624 108.53125 26.940624Q109.6875 26.940624 110.421875 27.425Q111.15625 27.89375 111.46875 28.753124Q112.703125 26.940624 114.671875 26.940624Q116.21875 26.940624 117.046875 27.8Q117.875 28.659374 117.875 30.425L117.875 37.55L116.125 37.55L116.125 31.01875Q116.125 29.95625 115.953125 29.503124Q115.78125 29.034374 115.328125 28.753124Q114.890625 28.471874 114.28125 28.471874Q113.1875 28.471874 112.453125 29.20625Q111.734375 29.925 111.734375 31.51875L111.734375 37.55L109.984375 37.55L109.984375 30.815624Q109.984375 29.64375 109.546875 29.065624Q109.125 28.471874 108.140625 28.471874Q107.40625 28.471874 106.765625 28.8625Q106.140625 29.253124 105.859375 30.003124Q105.578125 30.753124 105.578125 32.175L105.578125 37.55L103.8125 37.55ZM126.921875 34.20625L128.73438 34.440624Q128.3125 36.01875 127.140625 36.909374Q125.984375 37.784374 124.171875 37.784374Q121.90625 37.784374 120.5625 36.39375Q119.234375 34.9875 119.234375 32.45625Q119.234375 29.83125 120.578125 28.39375Q121.921875 26.940624 124.078125 26.940624Q126.15625 26.940624 127.46875 28.3625Q128.79688 29.76875 128.79688 32.346874Q128.79688 32.503124 128.78125 32.815624L121.046875 32.815624Q121.140625 34.51875 122.015625 35.425Q122.890625 36.33125 124.1875 36.33125Q125.15625 36.33125 125.828125 35.83125Q126.515625 35.315624 126.921875 34.20625ZM121.140625 31.3625L126.9375 31.3625Q126.828125 30.065624 126.28125 29.409374Q125.4375 28.39375 124.09375 28.39375Q122.890625 28.39375 122.0625 29.20625Q121.234375 30.003124 121.140625 31.3625ZM130.8125 37.55L130.8125 27.175L132.39062 27.175L132.39062 28.628124Q132.875 27.878124 133.6875 27.409374Q134.5 26.940624 135.53125 26.940624Q136.6875 26.940624 137.42188 27.425Q138.15625 27.89375 138.46875 28.753124Q139.70312 26.940624 141.67188 26.940624Q143.21875 26.940624 144.04688 27.8Q144.875 28.659374 144.875 30.425L144.875 37.55L143.125 37.55L143.125 31.01875Q143.125 29.95625 142.95312 29.503124Q142.78125 29.034374 142.32812 28.753124Q141.89062 28.471874 141.28125 28.471874Q140.1875 28.471874 139.45312 29.20625Q138.73438 29.925 138.73438 31.51875L138.73438 37.55L136.98438 37.55L136.98438 30.815624Q136.98438 29.64375 136.54688 29.065624Q136.125 28.471874 135.14062 28.471874Q134.40625 28.471874 133.76562 28.8625Q133.14062 29.253124 132.85938 30.003124Q132.57812 30.753124 132.57812 32.175L132.57812 37.55L130.8125 37.55ZM153.59375 33.753124L155.3125 33.971874Q155.03125 35.76875 153.85938 36.784374Q152.70312 37.784374 151.0 37.784374Q148.875 37.784374 147.57812 36.39375Q146.28125 35.003124 146.28125 32.409374Q146.28125 30.721874 146.82812 29.471874Q147.39062 28.20625 148.53125 27.58125Q149.67188 26.940624 151.01562 26.940624Q152.70312 26.940624 153.76562 27.8Q154.84375 28.659374 155.15625 30.221874L153.4375 30.4875Q153.20312 29.440624 152.57812 28.925Q151.95312 28.39375 151.07812 28.39375Q149.75 28.39375 148.92188 29.346874Q148.09375 30.3 148.09375 32.346874Q148.09375 34.440624 148.89062 35.39375Q149.6875 36.33125 150.98438 36.33125Q152.01562 36.33125 152.70312 35.70625Q153.40625 35.065624 153.59375 33.753124ZM156.8125 41.51875L156.8125 27.175L158.42188 27.175L158.42188 28.51875Q158.98438 27.7375 159.6875 27.346874Q160.40625 26.940624 161.42188 26.940624Q162.75 26.940624 163.76562 27.628124Q164.78125 28.315624 165.29688 29.565624Q165.82812 30.8 165.82812 32.284374Q165.82812 33.878124 165.25 35.159374Q164.6875 36.425 163.59375 37.1125Q162.5 37.784374 161.29688 37.784374Q160.42188 37.784374 159.71875 37.409374Q159.03125 37.034374 158.57812 36.471874L158.57812 41.51875L156.8125 41.51875ZM158.40625 32.425Q158.40625 34.425 159.21875 35.378124Q160.03125 36.33125 161.1875 36.33125Q162.35938 36.33125 163.1875 35.346874Q164.03125 34.3625 164.03125 32.26875Q164.03125 30.3 163.20312 29.315624Q162.39062 28.315624 161.26562 28.315624Q160.14062 28.315624 159.26562 29.378124Q158.40625 30.425 158.40625 32.425ZM167.73438 41.55L167.54688 39.89375Q168.125 40.05 168.54688 40.05Q169.14062 40.05 169.48438 39.846874Q169.84375 39.659374 170.0625 39.315624Q170.23438 39.05 170.60938 38.003124Q170.65625 37.846874 170.76562 37.565624L166.82812 27.175L168.71875 27.175L170.875 33.190624Q171.29688 34.33125 171.625 35.58125Q171.9375 34.378124 172.34375 33.221874L174.5625 27.175L176.32812 27.175L172.375 37.721874Q171.75 39.440624 171.39062 40.08125Q170.92188 40.95625 170.3125 41.346874Q169.71875 41.753124 168.875 41.753124Q168.35938 41.753124 167.73438 41.55ZM183.82812 25.253124L183.82812 23.2375L185.59375 23.2375L185.59375 25.253124L183.82812 25.253124ZM183.82812 37.55L183.82812 27.175L185.59375 27.175L185.59375 37.55L183.82812 37.55ZM187.8125 37.55L187.8125 27.175L189.40625 27.175L189.40625 28.659374Q190.54688 26.940624 192.70312 26.940624Q193.64062 26.940624 194.42188 27.284374Q195.21875 27.6125 195.60938 28.159374Q196.0 28.70625 196.15625 29.45625Q196.25 29.95625 196.25 31.175L196.25 37.55L194.48438 37.55L194.48438 31.2375Q194.48438 30.159374 194.28125 29.628124Q194.07812 29.096874 193.54688 28.784374Q193.03125 28.471874 192.32812 28.471874Q191.20312 28.471874 190.39062 29.190624Q189.57812 29.89375 189.57812 31.878124L189.57812 37.55L187.8125 37.55ZM197.10938 34.45625L198.85938 34.175Q199.0 35.221874 199.67188 35.784374Q200.34375 36.33125 201.54688 36.33125Q202.75 36.33125 203.32812 35.846874Q203.92188 35.346874 203.92188 34.690624Q203.92188 34.096874 203.40625 33.753124Q203.04688 33.51875 201.60938 33.159374Q199.67188 32.659374 198.92188 32.315624Q198.1875 31.95625 197.79688 31.33125Q197.40625 30.690624 197.40625 29.925Q197.40625 29.2375 197.71875 28.64375Q198.04688 28.05 198.59375 27.659374Q199.0 27.3625 199.70312 27.159374Q200.42188 26.940624 201.23438 26.940624Q202.45312 26.940624 203.375 27.3Q204.29688 27.64375 204.73438 28.253124Q205.17188 28.846874 205.34375 29.846874L203.625 30.08125Q203.5 29.284374 202.9375 28.846874Q202.375 28.39375 201.35938 28.39375Q200.14062 28.39375 199.625 28.8Q199.10938 29.190624 199.10938 29.721874Q199.10938 30.065624 199.32812 30.346874Q199.53125 30.628124 200.0 30.815624Q200.26562 30.909374 201.54688 31.253124Q203.42188 31.753124 204.15625 32.08125Q204.89062 32.39375 205.3125 33.003124Q205.73438 33.596874 205.73438 34.503124Q205.73438 35.378124 205.21875 36.159374Q204.70312 36.940624 203.73438 37.3625Q202.76562 37.784374 201.54688 37.784374Q199.53125 37.784374 198.46875 36.940624Q197.40625 36.096874 197.10938 34.45625ZM211.65625 35.971874L211.90625 37.534374Q211.17188 37.690624 210.57812 37.690624Q209.625 37.690624 209.09375 37.39375Q208.57812 37.08125 208.35938 36.596874Q208.14062 36.096874 208.14062 34.51875L208.14062 28.55L206.85938 28.55L206.85938 27.175L208.14062 27.175L208.14062 24.6125L209.89062 23.55L209.89062 27.175L211.65625 27.175L211.65625 28.55L209.89062 28.55L209.89062 34.6125Q209.89062 35.3625 209.98438 35.58125Q210.07812 35.784374 210.28125 35.925Q210.5 36.05 210.89062 36.05Q211.17188 36.05 211.65625 35.971874ZM213.79688 37.55L213.79688 27.175L215.375 27.175L215.375 28.753124Q215.98438 27.64375 216.5 27.3Q217.01562 26.940624 217.625 26.940624Q218.51562 26.940624 219.4375 27.503124L218.82812 29.14375Q218.1875 28.753124 217.54688 28.753124Q216.96875 28.753124 216.5 29.1125Q216.04688 29.45625 215.84375 30.065624Q215.5625 31.003124 215.5625 32.1125L215.5625 37.55L213.79688 37.55ZM227.60938 37.55L227.60938 36.01875Q226.40625 37.784374 224.32812 37.784374Q223.40625 37.784374 222.60938 37.440624Q221.8125 37.08125 221.42188 36.55Q221.04688 36.01875 220.89062 35.2375Q220.78125 34.721874 220.78125 33.596874L220.78125 27.175L222.53125 27.175L222.53125 32.925Q222.53125 34.3 222.64062 34.784374Q222.8125 35.471874 223.34375 35.878124Q223.89062 36.26875 224.67188 36.26875Q225.46875 36.26875 226.15625 35.8625Q226.85938 35.45625 227.14062 34.76875Q227.4375 34.065624 227.4375 32.7375L227.4375 27.175L229.1875 27.175L229.1875 37.55L227.60938 37.55ZM237.59375 33.753124L239.3125 33.971874Q239.03125 35.76875 237.85938 36.784374Q236.70312 37.784374 235.0 37.784374Q232.875 37.784374 231.57812 36.39375Q230.28125 35.003124 230.28125 32.409374Q230.28125 30.721874 230.82812 29.471874Q231.39062 28.20625 232.53125 27.58125Q233.67188 26.940624 235.01562 26.940624Q236.70312 26.940624 237.76562 27.8Q238.84375 28.659374 239.15625 30.221874L237.4375 30.4875Q237.20312 29.440624 236.57812 28.925Q235.95312 28.39375 235.07812 28.39375Q233.75 28.39375 232.92188 29.346874Q232.09375 30.3 232.09375 32.346874Q232.09375 34.440624 232.89062 35.39375Q233.6875 36.33125 234.98438 36.33125Q236.01562 36.33125 236.70312 35.70625Q237.40625 35.065624 237.59375 33.753124ZM244.65625 35.971874L244.90625 37.534374Q244.17188 37.690624 243.57812 37.690624Q242.625 37.690624 242.09375 37.39375Q241.57812 37.08125 241.35938 36.596874Q241.14062 36.096874 241.14062 34.51875L241.14062 28.55L239.85938 28.55L239.85938 27.175L241.14062 27.175L241.14062 24.6125L242.89062 23.55L242.89062 27.175L244.65625 27.175L244.65625 28.55L242.89062 28.55L242.89062 34.6125Q242.89062 35.3625 242.98438 35.58125Q243.07812 35.784374 243.28125 35.925Q243.5 36.05 243.89062 36.05Q244.17188 36.05 244.65625 35.971874ZM246.82812 25.253124L246.82812 23.2375L248.59375 23.2375L248.59375 25.253124L246.82812 25.253124ZM246.82812 37.55L246.82812 27.175L248.59375 27.175L248.59375 37.55L246.82812 37.55ZM250.17188 32.3625Q250.17188 29.4875 251.76562 28.096874Q253.10938 26.940624 255.03125 26.940624Q257.17188 26.940624 258.51562 28.346874Q259.875 29.753124 259.875 32.221874Q259.875 34.221874 259.28125 35.378124Q258.6875 36.51875 257.53125 37.159374Q256.39062 37.784374 255.03125 37.784374Q252.84375 37.784374 251.5 36.39375Q250.17188 34.9875 250.17188 32.3625ZM251.96875 32.3625Q251.96875 34.3625 252.82812 35.346874Q253.70312 36.33125 255.03125 36.33125Q256.34375 36.33125 257.20312 35.346874Q258.07812 34.346874 258.07812 32.3Q258.07812 30.378124 257.20312 29.39375Q256.32812 28.39375 255.03125 28.39375Q253.70312 28.39375 252.82812 29.39375Q251.96875 30.378124 251.96875 32.3625ZM261.8125 37.55L261.8125 27.175L263.40625 27.175L263.40625 28.659374Q264.54688 26.940624 266.70312 26.940624Q267.64062 26.940624 268.42188 27.284374Q269.21875 27.6125 269.60938 28.159374Q270.0 28.70625 270.15625 29.45625Q270.25 29.95625 270.25 31.175L270.25 37.55L268.48438 37.55L268.48438 31.2375Q268.48438 30.159374 268.28125 29.628124Q268.07812 29.096874 267.54688 28.784374Q267.03125 28.471874 266.32812 28.471874Q265.20312 28.471874 264.39062 29.190624Q263.57812 29.89375 263.57812 31.878124L263.57812 37.55L261.8125 37.55ZM281.65625 35.971874L281.90625 37.534374Q281.17188 37.690624 280.57812 37.690624Q279.625 37.690624 279.09375 37.39375Q278.57812 37.08125 278.35938 36.596874Q278.14062 36.096874 278.14062 34.51875L278.14062 28.55L276.85938 28.55L276.85938 27.175L278.14062 27.175L278.14062 24.6125L279.89062 23.55L279.89062 27.175L281.65625 27.175L281.65625 28.55L279.89062 28.55L279.89062 34.6125Q279.89062 35.3625 279.98438 35.58125Q280.07812 35.784374 280.28125 35.925Q280.5 36.05 280.89062 36.05Q281.17188 36.05 281.65625 35.971874ZM283.82812 25.253124L283.82812 23.2375L285.59375 23.2375L285.59375 25.253124L283.82812 25.253124ZM283.82812 37.55L283.82812 27.175L285.59375 27.175L285.59375 37.55L283.82812 37.55ZM287.8125 37.55L287.8125 27.175L289.39062 27.175L289.39062 28.628124Q289.875 27.878124 290.6875 27.409374Q291.5 26.940624 292.53125 26.940624Q293.6875 26.940624 294.42188 27.425Q295.15625 27.89375 295.46875 28.753124Q296.70312 26.940624 298.67188 26.940624Q300.21875 26.940624 301.04688 27.8Q301.875 28.659374 301.875 30.425L301.875 37.55L300.125 37.55L300.125 31.01875Q300.125 29.95625 299.95312 29.503124Q299.78125 29.034374 299.32812 28.753124Q298.89062 28.471874 298.28125 28.471874Q297.1875 28.471874 296.45312 29.20625Q295.73438 29.925 295.73438 31.51875L295.73438 37.55L293.98438 37.55L293.98438 30.815624Q293.98438 29.64375 293.54688 29.065624Q293.125 28.471874 292.14062 28.471874Q291.40625 28.471874 290.76562 28.8625Q290.14062 29.253124 289.85938 30.003124Q289.57812 30.753124 289.57812 32.175L289.57812 37.55L287.8125 37.55ZM303.82812 25.253124L303.82812 23.2375L305.59375 23.2375L305.59375 25.253124L303.82812 25.253124ZM303.82812 37.55L303.82812 27.175L305.59375 27.175L305.59375 37.55L303.82812 37.55ZM307.8125 37.55L307.8125 27.175L309.40625 27.175L309.40625 28.659374Q310.54688 26.940624 312.70312 26.940624Q313.64062 26.940624 314.42188 27.284374Q315.21875 27.6125 315.60938 28.159374Q316.0 28.70625 316.15625 29.45625Q316.25 29.95625 316.25 31.175L316.25 37.55L314.48438 37.55L314.48438 31.2375Q314.48438 30.159374 314.28125 29.628124Q314.07812 29.096874 313.54688 28.784374Q313.03125 28.471874 312.32812 28.471874Q311.20312 28.471874 310.39062 29.190624Q309.57812 29.89375 309.57812 31.878124L309.57812 37.55L307.8125 37.55ZM317.5 38.409374L319.20312 38.659374Q319.3125 39.45625 319.79688 39.815624Q320.45312 40.3 321.59375 40.3Q322.8125 40.3 323.46875 39.815624Q324.14062 39.33125 324.375 38.45625Q324.51562 37.909374 324.5 36.190624Q323.34375 37.55 321.625 37.55Q319.48438 37.55 318.3125 36.003124Q317.14062 34.45625 317.14062 32.3Q317.14062 30.815624 317.67188 29.565624Q318.21875 28.315624 319.23438 27.628124Q320.26562 26.940624 321.64062 26.940624Q323.46875 26.940624 324.67188 28.425L324.67188 27.175L326.28125 27.175L326.28125 36.14375Q326.28125 38.565624 325.78125 39.565624Q325.29688 40.58125 324.21875 41.159374Q323.15625 41.753124 321.59375 41.753124Q319.75 41.753124 318.59375 40.925Q317.45312 40.096874 317.5 38.409374ZM318.95312 32.175Q318.95312 34.221874 319.76562 35.159374Q320.57812 36.096874 321.79688 36.096874Q323.0 36.096874 323.8125 35.159374Q324.64062 34.221874 324.64062 32.2375Q324.64062 30.33125 323.79688 29.3625Q322.95312 28.39375 321.76562 28.39375Q320.59375 28.39375 319.76562 29.346874Q318.95312 30.3 318.95312 32.175ZM339.14062 37.55L333.59375 23.2375L335.64062 23.2375L339.35938 33.628124Q339.8125 34.878124 340.10938 35.971874Q340.4375 34.8 340.89062 33.628124L344.75 23.2375L346.6875 23.2375L341.07812 37.55L339.14062 37.55ZM347.96875 37.55L347.96875 23.2375L349.85938 23.2375L349.85938 35.8625L356.90625 35.8625L356.90625 37.55L347.96875 37.55ZM359.07812 37.55L359.07812 23.2375L369.4375 23.2375L369.4375 24.925L360.98438 24.925L360.98438 29.3L368.89062 29.3L368.89062 30.9875L360.98438 30.9875L360.98438 35.8625L369.76562 35.8625L369.76562 37.55L359.07812 37.55ZM372.03125 37.55L372.03125 23.2375L373.96875 23.2375L381.48438 34.471874L381.48438 23.2375L383.29688 23.2375L383.29688 37.55L381.35938 37.55L373.84375 26.3L373.84375 37.55L372.03125 37.55ZM394.0625 29.128124L384.60938 29.128124L384.60938 27.4875L394.0625 27.4875L394.0625 29.128124ZM394.0625 33.471874L384.60938 33.471874L384.60938 31.83125L394.0625 31.83125L394.0625 33.471874ZM402.95312 37.55L401.1875 37.55L401.1875 26.346874Q400.5625 26.95625 399.53125 27.565624Q398.5 28.159374 397.67188 28.471874L397.67188 26.76875Q399.15625 26.08125 400.25 25.096874Q401.35938 24.096874 401.8125 23.175L402.95312 23.175L402.95312 37.55ZM407.32812 30.4875Q407.32812 27.95625 407.84375 26.409374Q408.375 24.846874 409.40625 24.01875Q410.4375 23.175 412.0 23.175Q413.15625 23.175 414.01562 23.64375Q414.89062 24.096874 415.45312 24.971874Q416.01562 25.846874 416.34375 27.1125Q416.67188 28.3625 416.67188 30.4875Q416.67188 33.003124 416.14062 34.55Q415.625 36.096874 414.59375 36.95625Q413.57812 37.8 412.0 37.8Q409.92188 37.8 408.75 36.315624Q407.32812 34.51875 407.32812 30.4875ZM409.14062 30.4875Q409.14062 34.01875 409.95312 35.190624Q410.78125 36.346874 412.0 36.346874Q413.20312 36.346874 414.03125 35.175Q414.85938 34.003124 414.85938 30.4875Q414.85938 26.95625 414.03125 25.8Q413.20312 24.628124 411.98438 24.628124Q410.76562 24.628124 410.04688 25.659374Q409.14062 26.95625 409.14062 30.4875ZM427.5625 35.8625L427.5625 37.55L418.10938 37.55Q418.09375 36.909374 418.3125 36.33125Q418.67188 35.3625 419.46875 34.425Q420.26562 33.4875 421.76562 32.253124Q424.10938 30.346874 424.92188 29.2375Q425.75 28.1125 425.75 27.1125Q425.75 26.065624 425.0 25.346874Q424.25 24.628124 423.04688 24.628124Q421.78125 24.628124 421.01562 25.39375Q420.25 26.159374 420.25 27.503124L418.4375 27.315624Q418.625 25.3 419.82812 24.2375Q421.04688 23.175 423.09375 23.175Q425.14062 23.175 426.34375 24.315624Q427.54688 25.45625 427.54688 27.14375Q427.54688 28.003124 427.1875 28.846874Q426.84375 29.675 426.03125 30.596874Q425.21875 31.503124 423.32812 33.1125Q421.73438 34.440624 421.28125 34.909374Q420.84375 35.378124 420.54688 35.8625L427.5625 35.8625ZM434.96875 37.55L434.96875 34.128124L428.75 34.128124L428.75 32.503124L435.28125 23.2375L436.71875 23.2375L436.71875 32.503124L438.65625 32.503124L438.65625 34.128124L436.71875 34.128124L436.71875 37.55L434.96875 37.55ZM434.96875 32.503124L434.96875 26.05L430.48438 32.503124L434.96875 32.503124ZM446.96875 37.55L446.96875 23.2375L448.85938 23.2375L448.85938 35.8625L455.90625 35.8625L455.90625 37.55L446.96875 37.55ZM457.98438 37.55L457.98438 23.2375L460.84375 23.2375L464.21875 33.3625Q464.6875 34.784374 464.90625 35.4875Q465.15625 34.70625 465.67188 33.190624L469.09375 23.2375L471.64062 23.2375L471.64062 37.55L469.82812 37.55L469.82812 25.565624L465.65625 37.55L463.95312 37.55L459.8125 25.3625L459.8125 37.55L457.98438 37.55ZM484.4375 23.2375L486.32812 23.2375L486.32812 31.503124Q486.32812 33.659374 485.84375 34.940624Q485.35938 36.20625 484.07812 37.003124Q482.8125 37.8 480.73438 37.8Q478.71875 37.8 477.4375 37.1125Q476.17188 36.409374 475.625 35.096874Q475.07812 33.784374 475.07812 31.503124L475.07812 23.2375L476.96875 23.2375L476.96875 31.4875Q476.96875 33.3625 477.3125 34.253124Q477.65625 35.128124 478.5 35.6125Q479.34375 36.08125 480.57812 36.08125Q482.65625 36.08125 483.54688 35.14375Q484.4375 34.190624 484.4375 31.4875L484.4375 23.2375ZM487.96875 37.55L487.96875 23.2375L489.85938 23.2375L489.85938 35.8625L496.90625 35.8625L496.90625 37.55L487.96875 37.55ZM508.0625 29.128124L498.60938 29.128124L498.60938 27.4875L508.0625 27.4875L508.0625 29.128124ZM508.0625 33.471874L498.60938 33.471874L498.60938 31.83125L508.0625 31.83125L508.0625 33.471874ZM513.03125 29.784374Q511.9375 29.378124 511.40625 28.64375Q510.89062 27.89375 510.89062 26.8625Q510.89062 25.3 512.0156 24.2375Q513.1406 23.175 515.0 23.175Q516.875 23.175 518.0156 24.26875Q519.15625 25.346874 519.15625 26.909374Q519.15625 27.909374 518.625 28.64375Q518.1094 29.378124 517.0469 29.784374Q518.375 30.221874 519.0625 31.175Q519.75 32.128124 519.75 33.45625Q519.75 35.3 518.4375 36.55Q517.1406 37.8 515.03125 37.8Q512.90625 37.8 511.60938 36.55Q510.3125 35.284374 510.3125 33.409374Q510.3125 32.01875 511.01562 31.08125Q511.73438 30.128124 513.03125 29.784374ZM512.6875 26.8Q512.6875 27.815624 513.34375 28.471874Q514.0 29.1125 515.03125 29.1125Q516.0469 29.1125 516.7031 28.471874Q517.3594 27.83125 517.3594 26.909374Q517.3594 25.940624 516.6875 25.284374Q516.0156 24.6125 515.0156 24.6125Q514.0156 24.6125 513.34375 25.26875Q512.6875 25.909374 512.6875 26.8ZM512.125 33.425Q512.125 34.175 512.46875 34.878124Q512.8281 35.58125 513.53125 35.971874Q514.2344 36.346874 515.0469 36.346874Q516.3125 36.346874 517.125 35.534374Q517.9531 34.721874 517.9531 33.471874Q517.9531 32.20625 517.1094 31.378124Q516.2656 30.55 514.9844 30.55Q513.75 30.55 512.9375 31.378124Q512.125 32.190624 512.125 33.425Z" fill-rule="nonzero"/></svg>