<svg version="1.1" viewBox="0.0 0.0 544.0 371.0" fill="none" stroke="none" stroke-linecap="square" stroke-miterlimit="10" width="544" height="371" xmlns:xlink="http://www.w3.org/1999/xlink" xmlns="http://www.w3.org/2000/svg"><path fill="#ffffff" d="M0 0L544.0 0L544.0 371.0L0 371.0L0 0Z" fill-rule="nonzero"/><path stroke="#cccccc" stroke-width="1.0" stroke-linecap="butt" d="M77.5 61.5L77.5 300.5" fill-rule="nonzero"/><path stroke="#cccccc" stroke-width="1.0" stroke-linecap="butt" d="M190.5 61.5L190.5 300.5" fill-rule="nonzero"/><path stroke="#cccccc" stroke-width="1.0" stroke-linecap="butt" d="M303.5 61.5L303.5 300.5" fill-rule="nonzero"/><path stroke="#cccccc" stroke-width="1.0" stroke-linecap="butt" d="M416.5 61.5L416.5 300.5" fill-rule="nonzero"/><path stroke="#333333" stroke-width="1.0" stroke-linecap="butt" d="M77.5 300.5L525.5 300.5" fill-rule="nonzero"/><path stroke="#cccccc" stroke-width="1.0" stroke-linecap="butt" d="M77.5 240.5L525.5 240.5" fill-rule="nonzero"/><path stroke="#cccccc" stroke-width="1.0" stroke-linecap="butt" d="M77.5 181.5L525.5 181.5" fill-rule="nonzero"/><path stroke="#cccccc" stroke-width="1.0" stroke-linecap="butt" d="M77.5 121.5L525.5 121.5" fill-rule="nonzero"/><path stroke="#cccccc" stroke-width="1.0" stroke-linecap="butt" d="M77.5 61.5L525.5 61.5" fill-rule="nonzero"/><clipPath id="id_0"><path d="M77.55 61.916668L525.45 61.916668L525.45 300.45L77.55 300.45L77.55 61.916668Z" clip-rule="nonzero"/></clipPath><path stroke="#ea4335" stroke-width="2.0" stroke-linecap="butt" clip-path="url(#id_0)" d="M77.55 267.4167L111.60533 257.66376L131.52641 258.78647L145.66066 234.75148L156.62402 241.38731L165.58176 236.66412L173.1554 240.90074L179.71599 186.69043L185.50284 199.41179L190.67935 202.02293L195.36209 215.43956L199.63708 189.37856L203.5697 201.10156L207.21072 193.0662L210.60045 203.10735L213.77132 151.16222L216.7499 152.317L219.55817 149.19379L222.21457 150.19672L224.73468 155.50787L227.13182 149.36963L229.41742 148.59302L231.6014 148.59302L233.69241 143.10422L235.69806 152.04431L237.62503 146.98186L239.47926 161.70311L241.26605 149.20604L242.99014 151.36667L244.65578 151.36667L246.26678 161.30556L247.82664 164.31337L249.3385 152.51411L250.80522 155.78947L252.22943 156.76718L262.34323 159.42523L268.7608 151.36667L269.7534 161.84279L270.72632 159.42523L271.68036 155.50787L272.6162 155.50787L277.88535 163.1364L278.71112 155.50787L279.52322 158.61937L280.3221 150.51476L281.10825 151.36667L281.882 137.3901L282.6437 156.3361L283.39383 163.92105L284.13266 154.67963L292.22733 162.35176L315.55197 154.67963L315.93732 125.52556L316.31964 161.30556L316.69907 154.67963L317.07553 125.52556L317.44916 154.67963L317.81998 163.92105L337.1215 159.64908L349.99265 162.35176L354.57056 165.49036L384.04797 160.78246L392.89362 156.3361L418.1033 146.1049L439.38092 161.30556L452.15863 156.3361L469.198 154.67963L486.21396 151.36667L496.80164 163.92105L520.2693 146.1049L525.45 110.90119" fill-rule="nonzero"/><path fill="#000000" fill-opacity="0.0" clip-path="url(#id_0)" d="M80.55 267.4167C80.55 269.07355 79.206856 270.4167 77.55 270.4167C75.89314 270.4167 74.55 269.07355 74.55 267.4167C74.55 265.75983 75.89314 264.4167 77.55 264.4167C79.206856 264.4167 80.55 265.75983 80.55 267.4167Z" fill-rule="nonzero"/><path fill="#000000" fill-opacity="0.0" clip-path="url(#id_0)" d="M114.60533 257.66376C114.60533 259.32062 113.262184 260.66376 111.60533 260.66376C109.94848 260.66376 108.60533 259.32062 108.60533 257.66376C108.60533 256.0069 109.94848 254.66376 111.60533 254.66376C113.262184 254.66376 114.60533 256.0069 114.60533 257.66376Z" fill-rule="nonzero"/><path fill="#000000" fill-opacity="0.0" clip-path="url(#id_0)" d="M134.52641 258.78647C134.52641 260.4433 133.18327 261.78647 131.52641 261.78647C129.86957 261.78647 128.52641 260.4433 128.52641 258.78647C128.52641 257.1296 129.86957 255.78645 131.52641 255.78645C133.18327 255.78645 134.52641 257.1296 134.52641 258.78647Z" fill-rule="nonzero"/><path fill="#000000" fill-opacity="0.0" clip-path="url(#id_0)" d="M148.66066 234.75148C148.66066 236.40833 147.31752 237.75148 145.66066 237.75148C144.0038 237.75148 142.66066 236.40833 142.66066 234.75148C142.66066 233.09462 144.0038 231.75148 145.66066 231.75148C147.31752 231.75148 148.66066 233.09462 148.66066 234.75148Z" fill-rule="nonzero"/><path fill="#000000" fill-opacity="0.0" clip-path="url(#id_0)" d="M159.62402 241.38731C159.62402 243.04417 158.28088 244.38731 156.62402 244.38731C154.96718 244.38731 153.62402 243.04417 153.62402 241.38731C153.62402 239.73047 154.96718 238.38731 156.62402 238.38731C158.28088 238.38731 159.62402 239.73047 159.62402 241.38731Z" fill-rule="nonzero"/><path fill="#000000" fill-opacity="0.0" clip-path="url(#id_0)" d="M168.58176 236.66412C168.58176 238.32097 167.2386 239.66412 165.58176 239.66412C163.9249 239.66412 162.58176 238.32097 162.58176 236.66412C162.58176 235.00726 163.9249 233.66412 165.58176 233.66412C167.2386 233.66412 168.58176 235.00726 168.58176 236.66412Z" fill-rule="nonzero"/><path fill="#000000" fill-opacity="0.0" clip-path="url(#id_0)" d="M176.1554 240.90074C176.1554 242.55759 174.81226 243.90074 173.1554 243.90074C171.49855 243.90074 170.1554 242.55759 170.1554 240.90074C170.1554 239.24388 171.49855 237.90074 173.1554 237.90074C174.81226 237.90074 176.1554 239.24388 176.1554 240.90074Z" fill-rule="nonzero"/><path fill="#000000" fill-opacity="0.0" clip-path="url(#id_0)" d="M182.71599 186.69043C182.71599 188.34729 181.37285 189.69043 179.71599 189.69043C178.05913 189.69043 176.71599 188.34729 176.71599 186.69043C176.71599 185.03357 178.05913 183.69043 179.71599 183.69043C181.37285 183.69043 182.71599 185.03357 182.71599 186.69043Z" fill-rule="nonzero"/><path fill="#000000" fill-opacity="0.0" clip-path="url(#id_0)" d="M188.50284 199.41179C188.50284 201.06863 187.1597 202.41179 185.50284 202.41179C183.846 202.41179 182.50284 201.06863 182.50284 199.41179C182.50284 197.75493 183.846 196.41179 185.50284 196.41179C187.1597 196.41179 188.50284 197.75493 188.50284 199.41179Z" fill-rule="nonzero"/><path fill="#000000" fill-opacity="0.0" clip-path="url(#id_0)" d="M193.67935 202.02293C193.67935 203.6798 192.33621 205.02293 190.67935 205.02293C189.0225 205.02293 187.67935 203.6798 187.67935 202.02293C187.67935 200.36609 189.0225 199.02293 190.67935 199.02293C192.33621 199.02293 193.67935 200.36609 193.67935 202.02293Z" fill-rule="nonzero"/><path fill="#000000" fill-opacity="0.0" clip-path="url(#id_0)" d="M198.36209 215.43956C198.36209 217.09642 197.01894 218.43956 195.36209 218.43956C193.70523 218.43956 192.36209 217.09642 192.36209 215.43956C192.36209 213.7827 193.70523 212.43956 195.36209 212.43956C197.01894 212.43956 198.36209 213.7827 198.36209 215.43956Z" fill-rule="nonzero"/><path fill="#000000" fill-opacity="0.0" clip-path="url(#id_0)" d="M202.63708 189.37856C202.63708 191.03542 201.29393 192.37856 199.63708 192.37856C197.98022 192.37856 196.63708 191.03542 196.63708 189.37856C196.63708 187.72171 197.98022 186.37856 199.63708 186.37856C201.29393 186.37856 202.63708 187.72171 202.63708 189.37856Z" fill-rule="nonzero"/><path fill="#000000" fill-opacity="0.0" clip-path="url(#id_0)" d="M206.5697 201.10156C206.5697 202.75842 205.22655 204.10156 203.5697 204.10156C201.91284 204.10156 200.5697 202.75842 200.5697 201.10156C200.5697 199.44472 201.91284 198.10156 203.5697 198.10156C205.22655 198.10156 206.5697 199.44472 206.5697 201.10156Z" fill-rule="nonzero"/><path fill="#000000" fill-opacity="0.0" clip-path="url(#id_0)" d="M210.21072 193.0662C210.21072 194.72305 208.86758 196.0662 207.21072 196.0662C205.55388 196.0662 204.21072 194.72305 204.21072 193.0662C204.21072 191.40933 205.55388 190.0662 207.21072 190.0662C208.86758 190.0662 210.21072 191.40933 210.21072 193.0662Z" fill-rule="nonzero"/><path fill="#000000" fill-opacity="0.0" clip-path="url(#id_0)" d="M213.60045 203.10735C213.60045 204.7642 212.25731 206.10735 210.60045 206.10735C208.94359 206.10735 207.60045 204.7642 207.60045 203.10735C207.60045 201.4505 208.94359 200.10735 210.60045 200.10735C212.25731 200.10735 213.60045 201.4505 213.60045 203.10735Z" fill-rule="nonzero"/><path fill="#000000" fill-opacity="0.0" clip-path="url(#id_0)" d="M216.77132 151.16222C216.77132 152.81906 215.42818 154.16222 213.77132 154.16222C212.11447 154.16222 210.77132 152.81906 210.77132 151.16222C210.77132 149.50536 212.11447 148.16222 213.77132 148.16222C215.42818 148.16222 216.77132 149.50536 216.77132 151.16222Z" fill-rule="nonzero"/><path fill="#000000" fill-opacity="0.0" clip-path="url(#id_0)" d="M219.7499 152.317C219.7499 153.97385 218.40675 155.317 216.7499 155.317C215.09305 155.317 213.7499 153.97385 213.7499 152.317C213.7499 150.66014 215.09305 149.317 216.7499 149.317C218.40675 149.317 219.7499 150.66014 219.7499 152.317Z" fill-rule="nonzero"/><path fill="#000000" fill-opacity="0.0" clip-path="url(#id_0)" d="M222.55817 149.19379C222.55817 150.85065 221.21503 152.19379 219.55817 152.19379C217.90132 152.19379 216.55817 150.85065 216.55817 149.19379C216.55817 147.53694 217.90132 146.19379 219.55817 146.19379C221.21503 146.19379 222.55817 147.53694 222.55817 149.19379Z" fill-rule="nonzero"/><path fill="#000000" fill-opacity="0.0" clip-path="url(#id_0)" d="M225.21457 150.19672C225.21457 151.85356 223.87143 153.19672 222.21457 153.19672C220.55772 153.19672 219.21457 151.85356 219.21457 150.19672C219.21457 148.53986 220.55772 147.19672 222.21457 147.19672C223.87143 147.19672 225.21457 148.53986 225.21457 150.19672Z" fill-rule="nonzero"/><path fill="#000000" fill-opacity="0.0" clip-path="url(#id_0)" d="M227.73468 155.50787C227.73468 157.16472 226.39154 158.50787 224.73468 158.50787C223.07784 158.50787 221.73468 157.16472 221.73468 155.50787C221.73468 153.85101 223.07784 152.50787 224.73468 152.50787C226.39154 152.50787 227.73468 153.85101 227.73468 155.50787Z" fill-rule="nonzero"/><path fill="#000000" fill-opacity="0.0" clip-path="url(#id_0)" d="M230.13182 149.36963C230.13182 151.02647 228.78867 152.36963 227.13182 152.36963C225.47496 152.36963 224.13182 151.02647 224.13182 149.36963C224.13182 147.71277 225.47496 146.36963 227.13182 146.36963C228.78867 146.36963 230.13182 147.71277 230.13182 149.36963Z" fill-rule="nonzero"/><path fill="#000000" fill-opacity="0.0" clip-path="url(#id_0)" d="M232.41742 148.59302C232.41742 150.24988 231.07426 151.59302 229.41742 151.59302C227.76056 151.59302 226.41742 150.24988 226.41742 148.59302C226.41742 146.93617 227.76056 145.59302 229.41742 145.59302C231.07426 145.59302 232.41742 146.93617 232.41742 148.59302Z" fill-rule="nonzero"/><path fill="#000000" fill-opacity="0.0" clip-path="url(#id_0)" d="M234.6014 148.59302C234.6014 150.24988 233.25826 151.59302 231.6014 151.59302C229.94453 151.59302 228.6014 150.24988 228.6014 148.59302C228.6014 146.93617 229.94453 145.59302 231.6014 145.59302C233.25826 145.59302 234.6014 146.93617 234.6014 148.59302Z" fill-rule="nonzero"/><path fill="#000000" fill-opacity="0.0" clip-path="url(#id_0)" d="M236.69241 143.10422C236.69241 144.76108 235.34926 146.10422 233.69241 146.10422C232.03555 146.10422 230.69241 144.76108 230.69241 143.10422C230.69241 141.44736 232.03555 140.10422 233.69241 140.10422C235.34926 140.10422 236.69241 141.44736 236.69241 143.10422Z" fill-rule="nonzero"/><path fill="#000000" fill-opacity="0.0" clip-path="url(#id_0)" d="M238.69806 152.04431C238.69806 153.70117 237.3549 155.04431 235.69806 155.04431C234.0412 155.04431 232.69806 153.70117 232.69806 152.04431C232.69806 150.38747 234.0412 149.04431 235.69806 149.04431C237.3549 149.04431 238.69806 150.38747 238.69806 152.04431Z" fill-rule="nonzero"/><path fill="#000000" fill-opacity="0.0" clip-path="url(#id_0)" d="M240.62503 146.98186C240.62503 148.63872 239.28188 149.98186 237.62503 149.98186C235.96817 149.98186 234.62503 148.63872 234.62503 146.98186C234.62503 145.32501 235.96817 143.98186 237.62503 143.98186C239.28188 143.98186 240.62503 145.32501 240.62503 146.98186Z" fill-rule="nonzero"/><path fill="#000000" fill-opacity="0.0" clip-path="url(#id_0)" d="M242.47926 161.70311C242.47926 163.35997 241.13611 164.70311 239.47926 164.70311C237.8224 164.70311 236.47926 163.35997 236.47926 161.70311C236.47926 160.04625 237.8224 158.70311 239.47926 158.70311C241.13611 158.70311 242.47926 160.04625 242.47926 161.70311Z" fill-rule="nonzero"/><path fill="#000000" fill-opacity="0.0" clip-path="url(#id_0)" d="M244.26605 149.20604C244.26605 150.8629 242.92291 152.20604 241.26605 152.20604C239.6092 152.20604 238.26605 150.8629 238.26605 149.20604C238.26605 147.54918 239.6092 146.20604 241.26605 146.20604C242.92291 146.20604 244.26605 147.54918 244.26605 149.20604Z" fill-rule="nonzero"/><path fill="#000000" fill-opacity="0.0" clip-path="url(#id_0)" d="M245.99014 151.36667C245.99014 153.02351 244.647 154.36667 242.99014 154.36667C241.3333 154.36667 239.99014 153.02351 239.99014 151.36667C239.99014 149.70981 241.3333 148.36667 242.99014 148.36667C244.647 148.36667 245.99014 149.70981 245.99014 151.36667Z" fill-rule="nonzero"/><path fill="#000000" fill-opacity="0.0" clip-path="url(#id_0)" d="M247.65578 151.36667C247.65578 153.02351 246.31264 154.36667 244.65578 154.36667C242.99892 154.36667 241.65578 153.02351 241.65578 151.36667C241.65578 149.70981 242.99892 148.36667 244.65578 148.36667C246.31264 148.36667 247.65578 149.70981 247.65578 151.36667Z" fill-rule="nonzero"/><path fill="#000000" fill-opacity="0.0" clip-path="url(#id_0)" d="M249.26678 161.30556C249.26678 162.9624 247.92365 164.30556 246.26678 164.30556C244.60994 164.30556 243.26678 162.9624 243.26678 161.30556C243.26678 159.6487 244.60994 158.30556 246.26678 158.30556C247.92365 158.30556 249.26678 159.6487 249.26678 161.30556Z" fill-rule="nonzero"/><path fill="#000000" fill-opacity="0.0" clip-path="url(#id_0)" d="M250.82664 164.31337C250.82664 165.97023 249.4835 167.31337 247.82664 167.31337C246.1698 167.31337 244.82664 165.97023 244.82664 164.31337C244.82664 162.65652 246.1698 161.31337 247.82664 161.31337C249.4835 161.31337 250.82664 162.65652 250.82664 164.31337Z" fill-rule="nonzero"/><path fill="#000000" fill-opacity="0.0" clip-path="url(#id_0)" d="M252.3385 152.51411C252.3385 154.17096 250.99536 155.51411 249.3385 155.51411C247.68166 155.51411 246.3385 154.17096 246.3385 152.51411C246.3385 150.85725 247.68166 149.51411 249.3385 149.51411C250.99536 149.51411 252.3385 150.85725 252.3385 152.51411Z" fill-rule="nonzero"/><path fill="#000000" fill-opacity="0.0" clip-path="url(#id_0)" d="M253.80522 155.78947C253.80522 157.44632 252.46208 158.78947 250.80522 158.78947C249.14838 158.78947 247.80522 157.44632 247.80522 155.78947C247.80522 154.13261 249.14838 152.78947 250.80522 152.78947C252.46208 152.78947 253.80522 154.13261 253.80522 155.78947Z" fill-rule="nonzero"/><path fill="#000000" fill-opacity="0.0" clip-path="url(#id_0)" d="M255.22943 156.76718C255.22943 158.42403 253.88628 159.76718 252.22943 159.76718C250.57257 159.76718 249.22943 158.42403 249.22943 156.76718C249.22943 155.11032 250.57257 153.76718 252.22943 153.76718C253.88628 153.76718 255.22943 155.11032 255.22943 156.76718Z" fill-rule="nonzero"/><path fill="#000000" fill-opacity="0.0" clip-path="url(#id_0)" d="M265.34323 159.42523C265.34323 161.08208 264.0001 162.42523 262.34323 162.42523C260.68637 162.42523 259.34323 161.08208 259.34323 159.42523C259.34323 157.76837 260.68637 156.42523 262.34323 156.42523C264.0001 156.42523 265.34323 157.76837 265.34323 159.42523Z" fill-rule="nonzero"/><path fill="#000000" fill-opacity="0.0" clip-path="url(#id_0)" d="M271.7608 151.36667C271.7608 153.02351 270.41766 154.36667 268.7608 154.36667C267.10394 154.36667 265.7608 153.02351 265.7608 151.36667C265.7608 149.70981 267.10394 148.36667 268.7608 148.36667C270.41766 148.36667 271.7608 149.70981 271.7608 151.36667Z" fill-rule="nonzero"/><path fill="#000000" fill-opacity="0.0" clip-path="url(#id_0)" d="M272.7534 161.84279C272.7534 163.49965 271.41025 164.84279 269.7534 164.84279C268.09653 164.84279 266.7534 163.49965 266.7534 161.84279C266.7534 160.18594 268.09653 158.84279 269.7534 158.84279C271.41025 158.84279 272.7534 160.18594 272.7534 161.84279Z" fill-rule="nonzero"/><path fill="#000000" fill-opacity="0.0" clip-path="url(#id_0)" d="M273.72632 159.42523C273.72632 161.08208 272.38318 162.42523 270.72632 162.42523C269.06946 162.42523 267.72632 161.08208 267.72632 159.42523C267.72632 157.76837 269.06946 156.42523 270.72632 156.42523C272.38318 156.42523 273.72632 157.76837 273.72632 159.42523Z" fill-rule="nonzero"/><path fill="#000000" fill-opacity="0.0" clip-path="url(#id_0)" d="M274.68036 155.50787C274.68036 157.16472 273.33722 158.50787 271.68036 158.50787C270.0235 158.50787 268.68036 157.16472 268.68036 155.50787C268.68036 153.85101 270.0235 152.50787 271.68036 152.50787C273.33722 152.50787 274.68036 153.85101 274.68036 155.50787Z" fill-rule="nonzero"/><path fill="#000000" fill-opacity="0.0" clip-path="url(#id_0)" d="M275.6162 155.50787C275.6162 157.16472 274.27307 158.50787 272.6162 158.50787C270.95935 158.50787 269.6162 157.16472 269.6162 155.50787C269.6162 153.85101 270.95935 152.50787 272.6162 152.50787C274.27307 152.50787 275.6162 153.85101 275.6162 155.50787Z" fill-rule="nonzero"/><path fill="#000000" fill-opacity="0.0" clip-path="url(#id_0)" d="M280.88535 163.1364C280.88535 164.79326 279.5422 166.1364 277.88535 166.1364C276.2285 166.1364 274.88535 164.79326 274.88535 163.1364C274.88535 161.47955 276.2285 160.1364 277.88535 160.1364C279.5422 160.1364 280.88535 161.47955 280.88535 163.1364Z" fill-rule="nonzero"/><path fill="#000000" fill-opacity="0.0" clip-path="url(#id_0)" d="M281.71112 155.50787C281.71112 157.16472 280.36795 158.50787 278.71112 158.50787C277.05426 158.50787 275.71112 157.16472 275.71112 155.50787C275.71112 153.85101 277.05426 152.50787 278.71112 152.50787C280.36795 152.50787 281.71112 153.85101 281.71112 155.50787Z" fill-rule="nonzero"/><path fill="#000000" fill-opacity="0.0" clip-path="url(#id_0)" d="M282.52322 158.61937C282.52322 160.27623 281.18008 161.61937 279.52322 161.61937C277.86636 161.61937 276.52322 160.27623 276.52322 158.61937C276.52322 156.96251 277.86636 155.61937 279.52322 155.61937C281.18008 155.61937 282.52322 156.96251 282.52322 158.61937Z" fill-rule="nonzero"/><path fill="#000000" fill-opacity="0.0" clip-path="url(#id_0)" d="M283.3221 150.51476C283.3221 152.17162 281.97897 153.51476 280.3221 153.51476C278.66525 153.51476 277.3221 152.17162 277.3221 150.51476C277.3221 148.85791 278.66525 147.51476 280.3221 147.51476C281.97897 147.51476 283.3221 148.85791 283.3221 150.51476Z" fill-rule="nonzero"/><path fill="#000000" fill-opacity="0.0" clip-path="url(#id_0)" d="M284.10825 151.36667C284.10825 153.02351 282.7651 154.36667 281.10825 154.36667C279.4514 154.36667 278.10825 153.02351 278.10825 151.36667C278.10825 149.70981 279.4514 148.36667 281.10825 148.36667C282.7651 148.36667 284.10825 149.70981 284.10825 151.36667Z" fill-rule="nonzero"/><path fill="#000000" fill-opacity="0.0" clip-path="url(#id_0)" d="M284.882 137.3901C284.882 139.04695 283.53882 140.3901 281.882 140.3901C280.22513 140.3901 278.882 139.04695 278.882 137.3901C278.882 135.73325 280.22513 134.3901 281.882 134.3901C283.53882 134.3901 284.882 135.73325 284.882 137.3901Z" fill-rule="nonzero"/><path fill="#000000" fill-opacity="0.0" clip-path="url(#id_0)" d="M285.6437 156.3361C285.6437 157.99297 284.30057 159.3361 282.6437 159.3361C280.98688 159.3361 279.6437 157.99297 279.6437 156.3361C279.6437 154.67926 280.98688 153.3361 282.6437 153.3361C284.30057 153.3361 285.6437 154.67926 285.6437 156.3361Z" fill-rule="nonzero"/><path fill="#000000" fill-opacity="0.0" clip-path="url(#id_0)" d="M286.39383 163.92105C286.39383 165.57791 285.0507 166.92105 283.39383 166.92105C281.73697 166.92105 280.39383 165.57791 280.39383 163.92105C280.39383 162.2642 281.73697 160.92105 283.39383 160.92105C285.0507 160.92105 286.39383 162.2642 286.39383 163.92105Z" fill-rule="nonzero"/><path fill="#000000" fill-opacity="0.0" clip-path="url(#id_0)" d="M287.13266 154.67963C287.13266 156.33649 285.78952 157.67963 284.13266 157.67963C282.4758 157.67963 281.13266 156.33649 281.13266 154.67963C281.13266 153.02278 282.4758 151.67963 284.13266 151.67963C285.78952 151.67963 287.13266 153.02278 287.13266 154.67963Z" fill-rule="nonzero"/><path fill="#000000" fill-opacity="0.0" clip-path="url(#id_0)" d="M295.22733 162.35176C295.22733 164.0086 293.8842 165.35176 292.22733 165.35176C290.57047 165.35176 289.22733 164.0086 289.22733 162.35176C289.22733 160.6949 290.57047 159.35176 292.22733 159.35176C293.8842 159.35176 295.22733 160.6949 295.22733 162.35176Z" fill-rule="nonzero"/><path fill="#000000" fill-opacity="0.0" clip-path="url(#id_0)" d="M318.55197 154.67963C318.55197 156.33649 317.2088 157.67963 315.55197 157.67963C313.8951 157.67963 312.55197 156.33649 312.55197 154.67963C312.55197 153.02278 313.8951 151.67963 315.55197 151.67963C317.2088 151.67963 318.55197 153.02278 318.55197 154.67963Z" fill-rule="nonzero"/><path fill="#000000" fill-opacity="0.0" clip-path="url(#id_0)" d="M318.93732 125.52556C318.93732 127.18241 317.59418 128.52556 315.93732 128.52556C314.28046 128.52556 312.93732 127.18241 312.93732 125.52556C312.93732 123.8687 314.28046 122.52556 315.93732 122.52556C317.59418 122.52556 318.93732 123.8687 318.93732 125.52556Z" fill-rule="nonzero"/><path fill="#000000" fill-opacity="0.0" clip-path="url(#id_0)" d="M319.31964 161.30556C319.31964 162.9624 317.9765 164.30556 316.31964 164.30556C314.6628 164.30556 313.31964 162.9624 313.31964 161.30556C313.31964 159.6487 314.6628 158.30556 316.31964 158.30556C317.9765 158.30556 319.31964 159.6487 319.31964 161.30556Z" fill-rule="nonzero"/><path fill="#000000" fill-opacity="0.0" clip-path="url(#id_0)" d="M319.69907 154.67963C319.69907 156.33649 318.3559 157.67963 316.69907 157.67963C315.0422 157.67963 313.69907 156.33649 313.69907 154.67963C313.69907 153.02278 315.0422 151.67963 316.69907 151.67963C318.3559 151.67963 319.69907 153.02278 319.69907 154.67963Z" fill-rule="nonzero"/><path fill="#000000" fill-opacity="0.0" clip-path="url(#id_0)" d="M320.07553 125.52556C320.07553 127.18241 318.7324 128.52556 317.07553 128.52556C315.41867 128.52556 314.07553 127.18241 314.07553 125.52556C314.07553 123.8687 315.41867 122.52556 317.07553 122.52556C318.7324 122.52556 320.07553 123.8687 320.07553 125.52556Z" fill-rule="nonzero"/><path fill="#000000" fill-opacity="0.0" clip-path="url(#id_0)" d="M320.44916 154.67963C320.44916 156.33649 319.10602 157.67963 317.44916 157.67963C315.7923 157.67963 314.44916 156.33649 314.44916 154.67963C314.44916 153.02278 315.7923 151.67963 317.44916 151.67963C319.10602 151.67963 320.44916 153.02278 320.44916 154.67963Z" fill-rule="nonzero"/><path fill="#000000" fill-opacity="0.0" clip-path="url(#id_0)" d="M320.81998 163.92105C320.81998 165.57791 319.47684 166.92105 317.81998 166.92105C316.16312 166.92105 314.81998 165.57791 314.81998 163.92105C314.81998 162.2642 316.16312 160.92105 317.81998 160.92105C319.47684 160.92105 320.81998 162.2642 320.81998 163.92105Z" fill-rule="nonzero"/><path fill="#000000" fill-opacity="0.0" clip-path="url(#id_0)" d="M340.1215 159.64908C340.1215 161.30592 338.77835 162.64908 337.1215 162.64908C335.46463 162.64908 334.1215 161.30592 334.1215 159.64908C334.1215 157.99222 335.46463 156.64908 337.1215 156.64908C338.77835 156.64908 340.1215 157.99222 340.1215 159.64908Z" fill-rule="nonzero"/><path fill="#000000" fill-opacity="0.0" clip-path="url(#id_0)" d="M352.99265 162.35176C352.99265 164.0086 351.6495 165.35176 349.99265 165.35176C348.3358 165.35176 346.99265 164.0086 346.99265 162.35176C346.99265 160.6949 348.3358 159.35176 349.99265 159.35176C351.6495 159.35176 352.99265 160.6949 352.99265 162.35176Z" fill-rule="nonzero"/><path fill="#000000" fill-opacity="0.0" clip-path="url(#id_0)" d="M357.57056 165.49036C357.57056 167.1472 356.22742 168.49036 354.57056 168.49036C352.91373 168.49036 351.57056 167.1472 351.57056 165.49036C351.57056 163.8335 352.91373 162.49036 354.57056 162.49036C356.22742 162.49036 357.57056 163.8335 357.57056 165.49036Z" fill-rule="nonzero"/><path fill="#000000" fill-opacity="0.0" clip-path="url(#id_0)" d="M387.04797 160.78246C387.04797 162.43932 385.70483 163.78246 384.04797 163.78246C382.3911 163.78246 381.04797 162.43932 381.04797 160.78246C381.04797 159.1256 382.3911 157.78246 384.04797 157.78246C385.70483 157.78246 387.04797 159.1256 387.04797 160.78246Z" fill-rule="nonzero"/><path fill="#000000" fill-opacity="0.0" clip-path="url(#id_0)" d="M395.89362 156.3361C395.89362 157.99297 394.55048 159.3361 392.89362 159.3361C391.23676 159.3361 389.89362 157.99297 389.89362 156.3361C389.89362 154.67926 391.23676 153.3361 392.89362 153.3361C394.55048 153.3361 395.89362 154.67926 395.89362 156.3361Z" fill-rule="nonzero"/><path fill="#000000" fill-opacity="0.0" clip-path="url(#id_0)" d="M421.1033 146.1049C421.1033 147.76175 419.76016 149.1049 418.1033 149.1049C416.44644 149.1049 415.1033 147.76175 415.1033 146.1049C415.1033 144.44804 416.44644 143.1049 418.1033 143.1049C419.76016 143.1049 421.1033 144.44804 421.1033 146.1049Z" fill-rule="nonzero"/><path fill="#000000" fill-opacity="0.0" clip-path="url(#id_0)" d="M442.38092 161.30556C442.38092 162.9624 441.03778 164.30556 439.38092 164.30556C437.72406 164.30556 436.38092 162.9624 436.38092 161.30556C436.38092 159.6487 437.72406 158.30556 439.38092 158.30556C441.03778 158.30556 442.38092 159.6487 442.38092 161.30556Z" fill-rule="nonzero"/><path fill="#000000" fill-opacity="0.0" clip-path="url(#id_0)" d="M455.15863 156.3361C455.15863 157.99297 453.8155 159.3361 452.15863 159.3361C450.50177 159.3361 449.15863 157.99297 449.15863 156.3361C449.15863 154.67926 450.50177 153.3361 452.15863 153.3361C453.8155 153.3361 455.15863 154.67926 455.15863 156.3361Z" fill-rule="nonzero"/><path fill="#000000" fill-opacity="0.0" clip-path="url(#id_0)" d="M472.198 154.67963C472.198 156.33649 470.85486 157.67963 469.198 157.67963C467.54114 157.67963 466.198 156.33649 466.198 154.67963C466.198 153.02278 467.54114 151.67963 469.198 151.67963C470.85486 151.67963 472.198 153.02278 472.198 154.67963Z" fill-rule="nonzero"/><path fill="#000000" fill-opacity="0.0" clip-path="url(#id_0)" d="M489.21396 151.36667C489.21396 153.02351 487.87082 154.36667 486.21396 154.36667C484.5571 154.36667 483.21396 153.02351 483.21396 151.36667C483.21396 149.70981 484.5571 148.36667 486.21396 148.36667C487.87082 148.36667 489.21396 149.70981 489.21396 151.36667Z" fill-rule="nonzero"/><path fill="#000000" fill-opacity="0.0" clip-path="url(#id_0)" d="M499.80164 163.92105C499.80164 165.57791 498.4585 166.92105 496.80164 166.92105C495.1448 166.92105 493.80164 165.57791 493.80164 163.92105C493.80164 162.2642 495.1448 160.92105 496.80164 160.92105C498.4585 160.92105 499.80164 162.2642 499.80164 163.92105Z" fill-rule="nonzero"/><path fill="#000000" fill-opacity="0.0" clip-path="url(#id_0)" d="M523.2693 146.1049C523.2693 147.76175 521.92615 149.1049 520.2693 149.1049C518.6124 149.1049 517.2693 147.76175 517.2693 146.1049C517.2693 144.44804 518.6124 143.1049 520.2693 143.1049C521.92615 143.1049 523.2693 144.44804 523.2693 146.1049Z" fill-rule="nonzero"/><path fill="#000000" fill-opacity="0.0" clip-path="url(#id_0)" d="M528.45 110.90119C528.45 112.558044 527.1069 113.90119 525.45 113.90119C523.79315 113.90119 522.45 112.558044 522.45 110.90119C522.45 109.24434 523.79315 107.90119 525.45 107.90119C527.1069 107.90119 528.45 109.24434 528.45 110.90119Z" fill-rule="nonzero"/><path fill="#000000" d="M270.54688 346.6844L271.60938 346.59064Q271.6875 347.2469 271.96875 347.65314Q272.25 348.0594 272.82812 348.325Q273.42188 348.575 274.15625 348.575Q274.79688 348.575 275.29688 348.3875Q275.79688 348.1844 276.03125 347.85626Q276.28125 347.5125 276.28125 347.1219Q276.28125 346.71564 276.04688 346.41876Q275.8125 346.10626 275.28125 345.90314Q274.92188 345.7625 273.73438 345.48126Q272.5625 345.2 272.09375 344.95Q271.46875 344.6219 271.17188 344.15314Q270.875 343.66876 270.875 343.075Q270.875 342.4344 271.23438 341.8719Q271.60938 341.29376 272.3125 341.0125Q273.03125 340.71564 273.89062 340.71564Q274.84375 340.71564 275.57812 341.02814Q276.3125 341.325 276.70312 341.9344Q277.09375 342.52814 277.125 343.27814L276.03125 343.35626Q275.9375 342.54376 275.42188 342.1375Q274.92188 341.71564 273.9375 341.71564Q272.90625 341.71564 272.4375 342.09064Q271.96875 342.46564 271.96875 342.9969Q271.96875 343.46564 272.29688 343.7625Q272.625 344.0594 274.0 344.3719Q275.39062 344.6844 275.90625 344.91876Q276.65625 345.27814 277.01562 345.8094Q277.375 346.325 277.375 347.02814Q277.375 347.71564 276.98438 348.325Q276.59375 348.91876 275.85938 349.2625Q275.125 349.59064 274.20312 349.59064Q273.03125 349.59064 272.23438 349.2625Q271.45312 348.91876 271.0 348.23126Q270.5625 347.54376 270.54688 346.6844ZM278.79688 342.075L278.79688 340.85626L279.85938 340.85626L279.85938 342.075L278.79688 342.075ZM278.79688 349.45L278.79688 343.23126L279.85938 343.23126L279.85938 349.45L278.79688 349.45ZM281.23438 349.45L281.23438 348.59064L285.20312 344.04376Q284.51562 344.075 284.0 344.075L281.46875 344.075L281.46875 343.23126L286.5625 343.23126L286.5625 343.91876L283.1875 347.8719L282.53125 348.59064Q283.25 348.54376 283.85938 348.54376L286.75 348.54376L286.75 349.45L281.23438 349.45ZM291.04688 347.45L292.14062 347.575Q291.89062 348.52814 291.1875 349.0594Q290.48438 349.59064 289.40625 349.59064Q288.04688 349.59064 287.23438 348.7469Q286.4375 347.90314 286.4375 346.3875Q286.4375 344.825 287.25 343.96564Q288.0625 343.09064 289.34375 343.09064Q290.59375 343.09064 291.375 343.9344Q292.17188 344.77814 292.17188 346.325Q292.17188 346.41876 292.17188 346.60626L287.53125 346.60626Q287.59375 347.6375 288.10938 348.1844Q288.625 348.71564 289.40625 348.71564Q289.98438 348.71564 290.39062 348.41876Q290.8125 348.10626 291.04688 347.45ZM287.59375 345.7469L291.0625 345.7469Q291.0 344.95 290.67188 344.5594Q290.15625 343.95 289.35938 343.95Q288.625 343.95 288.125 344.4344Q287.64062 344.91876 287.59375 345.7469ZM298.8125 351.98126Q297.9375 350.8719 297.32812 349.40314Q296.73438 347.91876 296.73438 346.34064Q296.73438 344.95 297.17188 343.66876Q297.70312 342.1844 298.8125 340.71564L299.5625 340.71564Q298.85938 341.9344 298.625 342.45Q298.26562 343.2625 298.0625 344.1375Q297.8125 345.23126 297.8125 346.34064Q297.8125 349.16876 299.5625 351.98126L298.8125 351.98126ZM301.76562 349.45L300.78125 349.45L300.78125 340.85626L301.84375 340.85626L301.84375 343.91876Q302.51562 343.09064 303.54688 343.09064Q304.125 343.09064 304.625 343.325Q305.14062 343.54376 305.46875 343.96564Q305.8125 344.3875 306.0 344.98126Q306.1875 345.575 306.1875 346.2469Q306.1875 347.84064 305.39062 348.71564Q304.59375 349.59064 303.5 349.59064Q302.39062 349.59064 301.76562 348.66876L301.76562 349.45ZM301.75 346.29376Q301.75 347.40314 302.0625 347.90314Q302.5625 348.71564 303.40625 348.71564Q304.09375 348.71564 304.59375 348.1219Q305.10938 347.52814 305.10938 346.325Q305.10938 345.10626 304.625 344.52814Q304.14062 343.95 303.45312 343.95Q302.76562 343.95 302.25 344.5594Q301.75 345.15314 301.75 346.29376ZM307.75 351.84064L307.625 350.85626Q307.96875 350.95 308.23438 350.95Q308.57812 350.95 308.78125 350.825Q309.0 350.71564 309.14062 350.5125Q309.23438 350.34064 309.46875 349.71564Q309.48438 349.6375 309.5625 349.46564L307.1875 343.23126L308.32812 343.23126L309.625 346.825Q309.875 347.5125 310.07812 348.27814Q310.26562 347.54376 310.51562 346.85626L311.84375 343.23126L312.89062 343.23126L310.53125 349.5594Q310.14062 350.575 309.9375 350.96564Q309.65625 351.4969 309.28125 351.73126Q308.92188 351.98126 308.42188 351.98126Q308.125 351.98126 307.75 351.84064ZM315.09375 348.5125L315.25 349.4344Q314.79688 349.52814 314.45312 349.52814Q313.875 349.52814 313.5625 349.35626Q313.25 349.16876 313.10938 348.8719Q312.98438 348.575 312.98438 347.6219L312.98438 344.04376L312.21875 344.04376L312.21875 343.23126L312.98438 343.23126L312.98438 341.6844L314.03125 341.0594L314.03125 343.23126L315.09375 343.23126L315.09375 344.04376L314.03125 344.04376L314.03125 347.6844Q314.03125 348.1375 314.07812 348.2625Q314.14062 348.3875 314.26562 348.46564Q314.39062 348.54376 314.625 348.54376Q314.8125 348.54376 315.09375 348.5125ZM320.04688 347.45L321.14062 347.575Q320.89062 348.52814 320.1875 349.0594Q319.48438 349.59064 318.40625 349.59064Q317.04688 349.59064 316.23438 348.7469Q315.4375 347.90314 315.4375 346.3875Q315.4375 344.825 316.25 343.96564Q317.0625 343.09064 318.34375 343.09064Q319.59375 343.09064 320.375 343.9344Q321.17188 344.77814 321.17188 346.325Q321.17188 346.41876 321.17188 346.60626L316.53125 346.60626Q316.59375 347.6375 317.10938 348.1844Q317.625 348.71564 318.40625 348.71564Q318.98438 348.71564 319.39062 348.41876Q319.8125 348.10626 320.04688 347.45ZM316.59375 345.7469L320.0625 345.7469Q320.0 344.95 319.67188 344.5594Q319.15625 343.95 318.35938 343.95Q317.625 343.95 317.125 344.4344Q316.64062 344.91876 316.59375 345.7469ZM322.375 347.59064L323.40625 347.4344Q323.5 348.0594 323.89062 348.3875Q324.29688 348.71564 325.03125 348.71564Q325.75 348.71564 326.09375 348.4344Q326.45312 348.1375 326.45312 347.73126Q326.45312 347.3719 326.14062 347.16876Q325.92188 347.02814 325.0625 346.8094Q323.90625 346.5125 323.45312 346.3094Q323.01562 346.09064 322.78125 345.71564Q322.54688 345.34064 322.54688 344.8719Q322.54688 344.46564 322.73438 344.10626Q322.92188 343.7469 323.25 343.5125Q323.5 343.34064 323.92188 343.21564Q324.34375 343.09064 324.84375 343.09064Q325.5625 343.09064 326.10938 343.3094Q326.67188 343.5125 326.9375 343.8719Q327.20312 344.23126 327.29688 344.825L326.26562 344.96564Q326.20312 344.4969 325.85938 344.23126Q325.53125 343.95 324.90625 343.95Q324.1875 343.95 323.875 344.2Q323.5625 344.4344 323.5625 344.7625Q323.5625 344.96564 323.6875 345.1219Q323.82812 345.29376 324.09375 345.40314Q324.25 345.46564 325.03125 345.66876Q326.15625 345.98126 326.59375 346.16876Q327.03125 346.35626 327.28125 346.71564Q327.53125 347.075 327.53125 347.6219Q327.53125 348.15314 327.21875 348.6219Q326.92188 349.075 326.34375 349.34064Q325.76562 349.59064 325.03125 349.59064Q323.8125 349.59064 323.17188 349.09064Q322.54688 348.575 322.375 347.59064ZM330.48438 351.98126L329.73438 351.98126Q331.48438 349.16876 331.48438 346.34064Q331.48438 345.2469 331.23438 344.15314Q331.03125 343.27814 330.67188 342.46564Q330.4375 341.95 329.73438 340.71564L330.48438 340.71564Q331.57812 342.1844 332.10938 343.66876Q332.5625 344.95 332.5625 346.34064Q332.5625 347.91876 331.95312 349.40314Q331.34375 350.8719 330.48438 351.98126Z" fill-rule="nonzero"/><path fill="#000000" d="M27.690638 269.30835L27.534388 268.2771Q28.159388 268.18335 28.487513 267.79272Q28.815638 267.38647 28.815638 266.6521Q28.815638 265.93335 28.534388 265.5896Q28.237513 265.23022 27.831263 265.23022Q27.471888 265.23022 27.268763 265.54272Q27.128138 265.76147 26.909388 266.62085Q26.612513 267.7771 26.409388 268.23022Q26.190638 268.66772 25.815638 268.9021Q25.440638 269.13647 24.971888 269.13647Q24.565638 269.13647 24.206263 268.94897Q23.846888 268.76147 23.612513 268.43335Q23.440638 268.18335 23.315638 267.76147Q23.190638 267.3396 23.190638 266.8396Q23.190638 266.12085 23.409388 265.57397Q23.612513 265.01147 23.971888 264.74585Q24.331263 264.48022 24.925013 264.38647L25.065638 265.41772Q24.596888 265.48022 24.331263 265.82397Q24.050013 266.1521 24.050013 266.7771Q24.050013 267.49585 24.300013 267.80835Q24.534388 268.12085 24.862513 268.12085Q25.065638 268.12085 25.221888 267.99585Q25.393763 267.85522 25.503138 267.5896Q25.565638 267.43335 25.768763 266.6521Q26.081263 265.5271 26.268763 265.0896Q26.456263 264.6521 26.815638 264.4021Q27.175013 264.1521 27.721888 264.1521Q28.253138 264.1521 28.721888 264.4646Q29.175013 264.76147 29.440638 265.3396Q29.690638 265.91772 29.690638 266.6521Q29.690638 267.87085 29.190638 268.51147Q28.675013 269.13647 27.690638 269.30835ZM31.940638 261.88647L23.331263 261.88647L23.331263 260.93335L24.128138 260.93335Q23.659388 260.5896 23.425013 260.16772Q23.190638 259.73022 23.190638 259.12085Q23.190638 258.32397 23.596888 257.7146Q24.003138 257.10522 24.753138 256.80835Q25.503138 256.49585 26.393763 256.49585Q27.346888 256.49585 28.112513 256.8396Q28.878138 257.16772 29.284388 257.82397Q29.690638 258.48022 29.690638 259.19897Q29.690638 259.73022 29.471888 260.1521Q29.237513 260.57397 28.909388 260.8396L31.940638 260.8396L31.940638 261.88647ZM26.471888 260.93335Q27.675013 260.93335 28.253138 260.44897Q28.815638 259.9646 28.815638 259.2771Q28.815638 258.57397 28.221888 258.07397Q27.628138 257.57397 26.378138 257.57397Q25.190638 257.57397 24.612513 258.05835Q24.018763 258.54272 24.018763 259.23022Q24.018763 259.9021 24.643763 260.41772Q25.268763 260.93335 26.471888 260.93335ZM27.550013 250.63646L27.675013 249.54271Q28.628138 249.79271 29.159388 250.49583Q29.690638 251.19896 29.690638 252.27708Q29.690638 253.63646 28.846888 254.44896Q28.003138 255.24583 26.487513 255.24583Q24.925013 255.24583 24.065638 254.43333Q23.190638 253.62083 23.190638 252.33958Q23.190638 251.08958 24.034388 250.30833Q24.878138 249.51146 26.425013 249.51146Q26.518763 249.51146 26.706263 249.51146L26.706263 254.15208Q27.737513 254.08958 28.284388 253.57396Q28.815638 253.05833 28.815638 252.27708Q28.815638 251.69896 28.518763 251.29271Q28.206263 250.87083 27.550013 250.63646ZM25.846888 254.08958L25.846888 250.62083Q25.050013 250.68333 24.659388 251.01146Q24.050013 251.52708 24.050013 252.32396Q24.050013 253.05833 24.534388 253.55833Q25.018763 254.04271 25.846888 254.08958ZM27.550013 243.63646L27.675013 242.54271Q28.628138 242.79271 29.159388 243.49583Q29.690638 244.19896 29.690638 245.27708Q29.690638 246.63646 28.846888 247.44896Q28.003138 248.24583 26.487513 248.24583Q24.925013 248.24583 24.065638 247.43333Q23.190638 246.62083 23.190638 245.33958Q23.190638 244.08958 24.034388 243.30833Q24.878138 242.51146 26.425013 242.51146Q26.518763 242.51146 26.706263 242.51146L26.706263 247.15208Q27.737513 247.08958 28.284388 246.57396Q28.815638 246.05833 28.815638 245.27708Q28.815638 244.69896 28.518763 244.29271Q28.206263 243.87083 27.550013 243.63646ZM25.846888 247.08958L25.846888 243.62083Q25.050013 243.68333 24.659388 244.01146Q24.050013 244.52708 24.050013 245.32396Q24.050013 246.05833 24.534388 246.55833Q25.018763 247.04271 25.846888 247.08958ZM29.550013 236.85521L28.768763 236.85521Q29.690638 237.44896 29.690638 238.58958Q29.690638 239.33958 29.284388 239.96458Q28.862513 240.58958 28.128138 240.93333Q27.393763 241.27708 26.440638 241.27708Q25.518763 241.27708 24.753138 240.96458Q23.987513 240.65208 23.596888 240.02708Q23.190638 239.40208 23.190638 238.63646Q23.190638 238.07396 23.425013 237.63646Q23.659388 237.19896 24.034388 236.91771L20.956263 236.91771L20.956263 235.87083L29.550013 235.87083L29.550013 236.85521ZM26.440638 240.18333Q27.643763 240.18333 28.237513 239.68333Q28.815638 239.18333 28.815638 238.49583Q28.815638 237.80833 28.253138 237.32396Q27.690638 236.83958 26.534388 236.83958Q25.253138 236.83958 24.659388 237.33958Q24.065638 237.82396 24.065638 238.54271Q24.065638 239.24583 24.643763 239.71458Q25.206263 240.18333 26.440638 240.18333ZM29.550013 226.80833L28.628138 226.80833Q29.690638 227.54271 29.690638 228.79271Q29.690638 229.33958 29.487513 229.82396Q29.268763 230.29271 28.956263 230.52708Q28.628138 230.76146 28.159388 230.85521Q27.862513 230.91771 27.175013 230.91771L23.331263 230.91771L23.331263 229.85521L26.784388 229.85521Q27.596888 229.85521 27.893763 229.79271Q28.300013 229.69896 28.550013 229.38646Q28.784388 229.05833 28.784388 228.57396Q28.784388 228.10521 28.550013 227.69896Q28.300013 227.27708 27.878138 227.10521Q27.456263 226.91771 26.659388 226.91771L23.331263 226.91771L23.331263 225.87083L29.550013 225.87083L29.550013 226.80833ZM31.940638 223.88646L23.331263 223.88646L23.331263 222.93333L24.128138 222.93333Q23.659388 222.58958 23.425013 222.16771Q23.190638 221.73021 23.190638 221.12083Q23.190638 220.32396 23.596888 219.71458Q24.003138 219.10521 24.753138 218.80833Q25.503138 218.49583 26.393763 218.49583Q27.346888 218.49583 28.112513 218.83958Q28.878138 219.16771 29.284388 219.82396Q29.690638 220.48021 29.690638 221.19896Q29.690638 221.73021 29.471888 222.15208Q29.237513 222.57396 28.909388 222.83958L31.940638 222.83958L31.940638 223.88646ZM26.471888 222.93333Q27.675013 222.93333 28.253138 222.44896Q28.815638 221.96458 28.815638 221.27708Q28.815638 220.57396 28.221888 220.07396Q27.628138 219.57396 26.378138 219.57396Q25.190638 219.57396 24.612513 220.05833Q24.018763 220.54271 24.018763 221.23021Q24.018763 221.90208 24.643763 222.41771Q25.268763 222.93333 26.471888 222.93333ZM26.440638 214.27708Q24.706263 214.27708 23.878138 213.32396Q23.190638 212.52708 23.190638 211.37083Q23.190638 210.08958 24.034388 209.27708Q24.862513 208.44896 26.346888 208.44896Q27.550013 208.44896 28.237513 208.80833Q28.925013 209.16771 29.315638 209.87083Q29.690638 210.55833 29.690638 211.37083Q29.690638 212.66771 28.862513 213.48021Q28.018763 214.27708 26.440638 214.27708ZM26.440638 213.19896Q27.628138 213.19896 28.221888 212.68333Q28.815638 212.15208 28.815638 211.37083Q28.815638 210.57396 28.221888 210.05833Q27.628138 209.54271 26.409388 209.54271Q25.253138 209.54271 24.659388 210.07396Q24.065638 210.58958 24.065638 211.37083Q24.065638 212.15208 24.659388 212.68333Q25.237513 213.19896 26.440638 213.19896ZM29.550013 205.16771L23.331263 207.52708L23.331263 206.41771L27.050013 205.07396Q27.659388 204.87083 28.300013 204.68333Q27.815638 204.54271 27.128138 204.29271L23.331263 202.90208L23.331263 201.82396L29.550013 204.18333L29.550013 205.16771ZM27.550013 197.63646L27.675013 196.54271Q28.628138 196.79271 29.159388 197.49583Q29.690638 198.19896 29.690638 199.27708Q29.690638 200.63646 28.846888 201.44896Q28.003138 202.24583 26.487513 202.24583Q24.925013 202.24583 24.065638 201.43333Q23.190638 200.62083 23.190638 199.33958Q23.190638 198.08958 24.034388 197.30833Q24.878138 196.51146 26.425013 196.51146Q26.518763 196.51146 26.706263 196.51146L26.706263 201.15208Q27.737513 201.08958 28.284388 200.57396Q28.815638 200.05833 28.815638 199.27708Q28.815638 198.69896 28.518763 198.29271Q28.206263 197.87083 27.550013 197.63646ZM25.846888 201.08958L25.846888 197.62083Q25.050013 197.68333 24.659388 198.01146Q24.050013 198.52708 24.050013 199.32396Q24.050013 200.05833 24.534388 200.55833Q25.018763 201.04271 25.846888 201.08958ZM29.550013 194.90208L23.331263 194.90208L23.331263 193.94896L24.268763 193.94896Q23.612513 193.58958 23.409388 193.29271Q23.190638 192.98021 23.190638 192.60521Q23.190638 192.07396 23.518763 191.52708L24.503138 191.88646Q24.268763 192.27708 24.268763 192.65208Q24.268763 193.01146 24.487513 193.29271Q24.690638 193.55833 25.065638 193.66771Q25.628138 193.85521 26.284388 193.85521L29.550013 193.85521L29.550013 194.90208ZM29.550013 186.91771L29.550013 187.90208L20.956263 187.90208L20.956263 186.83958L24.018763 186.83958Q23.190638 186.16771 23.190638 185.13646Q23.190638 184.55833 23.425013 184.05833Q23.643763 183.54271 24.065638 183.21458Q24.487513 182.87083 25.081263 182.68333Q25.675013 182.49583 26.346888 182.49583Q27.940638 182.49583 28.815638 183.29271Q29.690638 184.08958 29.690638 185.18333Q29.690638 186.29271 28.768763 186.91771L29.550013 186.91771ZM26.393763 186.93333Q27.503138 186.93333 28.003138 186.62083Q28.815638 186.12083 28.815638 185.27708Q28.815638 184.58958 28.221888 184.08958Q27.628138 183.57396 26.425013 183.57396Q25.206263 183.57396 24.628138 184.05833Q24.050013 184.54271 24.050013 185.23021Q24.050013 185.91771 24.659388 186.43333Q25.253138 186.93333 26.393763 186.93333ZM28.784388 176.82396Q29.284388 177.41771 29.487513 177.96458Q29.690638 178.49583 29.690638 179.12083Q29.690638 180.15208 29.190638 180.69896Q28.690638 181.24583 27.909388 181.24583Q27.456263 181.24583 27.081263 181.04271Q26.690638 180.83958 26.471888 180.49583Q26.237513 180.15208 26.128138 179.73021Q26.034388 179.43333 25.956263 178.79271Q25.815638 177.52708 25.596888 176.91771Q25.378138 176.91771 25.331263 176.91771Q24.675013 176.91771 24.409388 177.21458Q24.065638 177.62083 24.065638 178.41771Q24.065638 179.15208 24.331263 179.51146Q24.581263 179.87083 25.237513 180.04271L25.096888 181.07396Q24.440638 180.93333 24.034388 180.60521Q23.628138 180.27708 23.409388 179.66771Q23.190638 179.05833 23.190638 178.26146Q23.190638 177.46458 23.378138 176.96458Q23.565638 176.46458 23.846888 176.23021Q24.128138 175.99583 24.565638 175.90208Q24.831263 175.85521 25.534388 175.85521L26.940638 175.85521Q28.409388 175.85521 28.800013 175.79271Q29.190638 175.71458 29.550013 175.51146L29.550013 176.62083Q29.221888 176.77708 28.784388 176.82396ZM26.425013 176.91771Q26.659388 177.49583 26.831263 178.63646Q26.925013 179.29271 27.050013 179.55833Q27.159388 179.82396 27.378138 179.98021Q27.596888 180.12083 27.878138 180.12083Q28.300013 180.12083 28.581263 179.80833Q28.862513 179.48021 28.862513 178.87083Q28.862513 178.26146 28.596888 177.79271Q28.331263 177.30833 27.862513 177.08958Q27.503138 176.91771 26.815638 176.91771L26.425013 176.91771ZM27.690638 174.30833L27.534388 173.27708Q28.159388 173.18333 28.487513 172.79271Q28.815638 172.38646 28.815638 171.65208Q28.815638 170.93333 28.534388 170.58958Q28.237513 170.23021 27.831263 170.23021Q27.471888 170.23021 27.268763 170.54271Q27.128138 170.76146 26.909388 171.62083Q26.612513 172.77708 26.409388 173.23021Q26.190638 173.66771 25.815638 173.90208Q25.440638 174.13646 24.971888 174.13646Q24.565638 174.13646 24.206263 173.94896Q23.846888 173.76146 23.612513 173.43333Q23.440638 173.18333 23.315638 172.76146Q23.190638 172.33958 23.190638 171.83958Q23.190638 171.12083 23.409388 170.57396Q23.612513 170.01146 23.971888 169.74583Q24.331263 169.48021 24.925013 169.38646L25.065638 170.41771Q24.596888 170.48021 24.331263 170.82396Q24.050013 171.15208 24.050013 171.77708Q24.050013 172.49583 24.300013 172.80833Q24.534388 173.12083 24.862513 173.12083Q25.065638 173.12083 25.221888 172.99583Q25.393763 172.85521 25.503138 172.58958Q25.565638 172.43333 25.768763 171.65208Q26.081263 170.52708 26.268763 170.08958Q26.456263 169.65208 26.815638 169.40208Q27.175013 169.15208 27.721888 169.15208Q28.253138 169.15208 28.721888 169.46458Q29.175013 169.76146 29.440638 170.33958Q29.690638 170.91771 29.690638 171.65208Q29.690638 172.87083 29.190638 173.51146Q28.675013 174.13646 27.690638 174.30833ZM27.550013 162.63646L27.675013 161.54271Q28.628138 161.79271 29.159388 162.49583Q29.690638 163.19896 29.690638 164.27708Q29.690638 165.63646 28.846888 166.44896Q28.003138 167.24583 26.487513 167.24583Q24.925013 167.24583 24.065638 166.43333Q23.190638 165.62083 23.190638 164.33958Q23.190638 163.08958 24.034388 162.30833Q24.878138 161.51146 26.425013 161.51146Q26.518763 161.51146 26.706263 161.51146L26.706263 166.15208Q27.737513 166.08958 28.284388 165.57396Q28.815638 165.05833 28.815638 164.27708Q28.815638 163.69896 28.518763 163.29271Q28.206263 162.87083 27.550013 162.63646ZM25.846888 166.08958L25.846888 162.62083Q25.050013 162.68333 24.659388 163.01146Q24.050013 163.52708 24.050013 164.32396Q24.050013 165.05833 24.534388 165.55833Q25.018763 166.04271 25.846888 166.08958ZM29.550013 159.91771L20.956263 159.91771L20.956263 158.85521L29.550013 158.85521L29.550013 159.91771ZM22.175013 156.88646L20.956263 156.88646L20.956263 155.82396L22.175013 155.82396L22.175013 156.88646ZM29.550013 156.88646L23.331263 156.88646L23.331263 155.82396L29.550013 155.82396L29.550013 156.88646ZM29.550013 153.88646L23.331263 153.88646L23.331263 152.94896L24.206263 152.94896Q23.190638 152.26146 23.190638 150.96458Q23.190638 150.40208 23.393763 149.93333Q23.596888 149.44896 23.925013 149.21458Q24.253138 148.98021 24.690638 148.88646Q24.987513 148.83958 25.721888 148.83958L29.550013 148.83958L29.550013 149.88646L25.768763 149.88646Q25.112513 149.88646 24.800013 150.01146Q24.487513 150.13646 24.300013 150.44896Q24.096888 150.76146 24.096888 151.18333Q24.096888 151.85521 24.534388 152.35521Q24.956263 152.83958 26.143763 152.83958L29.550013 152.83958L29.550013 153.88646ZM27.550013 142.63646L27.675013 141.54271Q28.628138 141.79271 29.159388 142.49583Q29.690638 143.19896 29.690638 144.27708Q29.690638 145.63646 28.846888 146.44896Q28.003138 147.24583 26.487513 147.24583Q24.925013 147.24583 24.065638 146.43333Q23.190638 145.62083 23.190638 144.33958Q23.190638 143.08958 24.034388 142.30833Q24.878138 141.51146 26.425013 141.51146Q26.518763 141.51146 26.706263 141.51146L26.706263 146.15208Q27.737513 146.08958 28.284388 145.57396Q28.815638 145.05833 28.815638 144.27708Q28.815638 143.69896 28.518763 143.29271Q28.206263 142.87083 27.550013 142.63646ZM25.846888 146.08958L25.846888 142.62083Q25.050013 142.68333 24.659388 143.01146Q24.050013 143.52708 24.050013 144.32396Q24.050013 145.05833 24.534388 145.55833Q25.018763 146.04271 25.846888 146.08958ZM32.08126 134.87083Q30.971888 135.74583 29.503138 136.35521Q28.018763 136.94896 26.440638 136.94896Q25.050013 136.94896 23.768763 136.51146Q22.284388 135.98021 20.815638 134.87083L20.815638 134.12083Q22.034388 134.82396 22.550013 135.05833Q23.362513 135.41771 24.237513 135.62083Q25.331263 135.87083 26.440638 135.87083Q29.268763 135.87083 32.08126 134.12083L32.08126 134.87083ZM29.550013 132.90208L23.331263 132.90208L23.331263 131.94896L24.268763 131.94896Q23.612513 131.58958 23.409388 131.29271Q23.190638 130.98021 23.190638 130.60521Q23.190638 130.07396 23.518763 129.52708L24.503138 129.88646Q24.268763 130.27708 24.268763 130.65208Q24.268763 131.01146 24.487513 131.29271Q24.690638 131.55833 25.065638 131.66771Q25.628138 131.85521 26.284388 131.85521L29.550013 131.85521L29.550013 132.90208ZM28.784388 124.82396Q29.284388 125.41771 29.487513 125.964584Q29.690638 126.495834 29.690638 127.120834Q29.690638 128.15208 29.190638 128.69896Q28.690638 129.24583 27.909388 129.24583Q27.456263 129.24583 27.081263 129.04271Q26.690638 128.83958 26.471888 128.49583Q26.237513 128.15208 26.128138 127.73021Q26.034388 127.433334 25.956263 126.79271Q25.815638 125.527084 25.596888 124.91771Q25.378138 124.91771 25.331263 124.91771Q24.675013 124.91771 24.409388 125.214584Q24.065638 125.620834 24.065638 126.41771Q24.065638 127.152084 24.331263 127.51146Q24.581263 127.870834 25.237513 128.04271L25.096888 129.07396Q24.440638 128.93333 24.034388 128.60521Q23.628138 128.27708 23.409388 127.66771Q23.190638 127.058334 23.190638 126.26146Q23.190638 125.464584 23.378138 124.964584Q23.565638 124.464584 23.846888 124.23021Q24.128138 123.995834 24.565638 123.902084Q24.831263 123.85521 25.534388 123.85521L26.940638 123.85521Q28.409388 123.85521 28.800013 123.79271Q29.190638 123.714584 29.550013 123.51146L29.550013 124.620834Q29.221888 124.777084 28.784388 124.82396ZM26.425013 124.91771Q26.659388 125.495834 26.831263 126.63646Q26.925013 127.29271 27.050013 127.558334Q27.159388 127.82396 27.378138 127.98021Q27.596888 128.12083 27.878138 128.12083Q28.300013 128.12083 28.581263 127.808334Q28.862513 127.48021 28.862513 126.870834Q28.862513 126.26146 28.596888 125.79271Q28.331263 125.308334 27.862513 125.089584Q27.503138 124.91771 26.815638 124.91771L26.425013 124.91771ZM28.612513 119.589584L29.534388 119.433334Q29.628138 119.88646 29.628138 120.23021Q29.628138 120.808334 29.456263 121.120834Q29.268763 121.433334 28.971888 121.57396Q28.675013 121.69896 27.721888 121.69896L24.143763 121.69896L24.143763 122.464584L23.331263 122.464584L23.331263 121.69896L21.784388 121.69896L21.159388 120.652084L23.331263 120.652084L23.331263 119.589584L24.143763 119.589584L24.143763 120.652084L27.784388 120.652084Q28.237513 120.652084 28.362513 120.60521Q28.487513 120.54271 28.565638 120.41771Q28.643763 120.29271 28.643763 120.058334Q28.643763 119.870834 28.612513 119.589584ZM22.175013 118.88646L20.956263 118.88646L20.956263 117.82396L22.175013 117.82396L22.175013 118.88646ZM29.550013 118.88646L23.331263 118.88646L23.331263 117.82396L29.550013 117.82396L29.550013 118.88646ZM26.440638 116.277084Q24.706263 116.277084 23.878138 115.32396Q23.190638 114.527084 23.190638 113.370834Q23.190638 112.089584 24.034388 111.277084Q24.862513 110.44896 26.346888 110.44896Q27.550013 110.44896 28.237513 110.808334Q28.925013 111.16771 29.315638 111.870834Q29.690638 112.558334 29.690638 113.370834Q29.690638 114.66771 28.862513 115.48021Q28.018763 116.277084 26.440638 116.277084ZM26.440638 115.19896Q27.628138 115.19896 28.221888 114.683334Q28.815638 114.152084 28.815638 113.370834Q28.815638 112.57396 28.221888 112.058334Q27.628138 111.54271 26.409388 111.54271Q25.253138 111.54271 24.659388 112.07396Q24.065638 112.589584 24.065638 113.370834Q24.065638 114.152084 24.659388 114.683334Q25.237513 115.19896 26.440638 115.19896ZM32.08126 108.19896L32.08126 108.94896Q29.268763 107.19896 26.440638 107.19896Q25.346888 107.19896 24.253138 107.44896Q23.378138 107.652084 22.565638 108.01146Q22.050013 108.245834 20.815638 108.94896L20.815638 108.19896Q22.284388 107.10521 23.768763 106.57396Q25.050013 106.120834 26.440638 106.120834Q28.018763 106.120834 29.503138 106.73021Q30.971888 107.339584 32.08126 108.19896Z" fill-rule="nonzero"/><path fill="#000000" d="M65.05 300.21564Q65.05 298.6844 65.3625 297.7625Q65.675 296.825 66.28438 296.325Q66.90938 295.825 67.84688 295.825Q68.53438 295.825 69.05 296.10626Q69.58125 296.3875 69.925 296.91876Q70.26875 297.4344 70.45625 298.1844Q70.64375 298.9344 70.64375 300.21564Q70.64375 301.73126 70.33125 302.65314Q70.03438 303.575 69.40938 304.09064Q68.8 304.59064 67.84688 304.59064Q66.6125 304.59064 65.89375 303.7Q65.05 302.6375 65.05 300.21564ZM66.12813 300.21564Q66.12813 302.325 66.62813 303.02814Q67.12813 303.73126 67.84688 303.73126Q68.58125 303.73126 69.06563 303.02814Q69.56563 302.325 69.56563 300.21564Q69.56563 298.09064 69.06563 297.40314Q68.58125 296.7 67.83125 296.7Q67.1125 296.7 66.675 297.3094Q66.12813 298.09064 66.12813 300.21564Z" fill-rule="nonzero"/><path fill="#000000" d="M70.59688 243.80104L70.59688 244.81667L64.90938 244.81667Q64.90938 244.44167 65.03438 244.08229Q65.25313 243.50417 65.72188 242.94167Q66.20625 242.37917 67.1125 241.64479Q68.51875 240.48854 69.00313 239.81667Q69.50313 239.14479 69.50313 238.55104Q69.50313 237.92604 69.05 237.50417Q68.59688 237.06667 67.87813 237.06667Q67.1125 237.06667 66.65938 237.51979Q66.20625 237.97292 66.19063 238.78542L65.1125 238.67604Q65.22188 237.45729 65.94063 236.83229Q66.675 236.19167 67.90938 236.19167Q69.14375 236.19167 69.8625 236.87917Q70.58125 237.56667 70.58125 238.58229Q70.58125 239.09792 70.3625 239.59792Q70.15938 240.08229 69.65938 240.64479Q69.175 241.19167 68.05 242.14479Q67.09688 242.94167 66.81563 243.23854Q66.55 243.51979 66.37813 243.80104L70.59688 243.80104Z" fill-rule="nonzero"/><path fill="#000000" d="M68.425 185.18333L68.425 183.12083L64.70625 183.12083L64.70625 182.15208L68.62813 176.58958L69.4875 176.58958L69.4875 182.15208L70.64375 182.15208L70.64375 183.12083L69.4875 183.12083L69.4875 185.18333L68.425 185.18333ZM68.425 182.15208L68.425 178.29271L65.7375 182.15208L68.425 182.15208Z" fill-rule="nonzero"/><path fill="#000000" d="M70.51875 119.06563L69.47188 119.14375Q69.33125 118.51875 69.08125 118.2375Q68.64375 117.78438 68.01875 117.78438Q67.51875 117.78438 67.12813 118.06563Q66.64375 118.44063 66.34688 119.14375Q66.06563 119.83125 66.05 121.1125Q66.425 120.53438 66.97188 120.25313Q67.53438 119.97188 68.14375 119.97188Q69.19063 119.97188 69.925 120.75313Q70.675 121.53438 70.675 122.75313Q70.675 123.56563 70.31563 124.26875Q69.97188 124.95625 69.3625 125.33125Q68.75313 125.69063 67.9875 125.69063Q66.65938 125.69063 65.83125 124.72188Q65.00313 123.75313 65.00313 121.53438Q65.00313 119.03438 65.925 117.90938Q66.72188 116.925 68.08125 116.925Q69.09688 116.925 69.7375 117.50313Q70.39375 118.06563 70.51875 119.06563ZM66.22188 122.76875Q66.22188 123.31563 66.44063 123.81563Q66.675 124.3 67.08125 124.56563Q67.50313 124.83125 67.97188 124.83125Q68.62813 124.83125 69.1125 124.3Q69.59688 123.75313 69.59688 122.83125Q69.59688 121.94063 69.1125 121.425Q68.64375 120.90938 67.925 120.90938Q67.20625 120.90938 66.70625 121.425Q66.22188 121.94063 66.22188 122.76875Z" fill-rule="nonzero"/><path fill="#000000" d="M66.675 61.260414Q66.01875 61.010414 65.69063 60.572914Q65.37813 60.11979 65.37813 59.510414Q65.37813 58.572914 66.05 57.93229Q66.7375 57.291664 67.84688 57.291664Q68.97188 57.291664 69.65938 57.947914Q70.34688 58.604164 70.34688 59.541664Q70.34688 60.135414 70.03438 60.572914Q69.72188 61.010414 69.08125 61.260414Q69.87813 61.510414 70.28438 62.08854Q70.69063 62.666664 70.69063 63.46354Q70.69063 64.55729 69.90938 65.30729Q69.14375 66.05729 67.8625 66.05729Q66.59688 66.05729 65.81563 65.30729Q65.03438 64.55729 65.03438 63.43229Q65.03438 62.58854 65.45625 62.02604Q65.89375 61.46354 66.675 61.260414ZM66.45625 59.46354Q66.45625 60.072914 66.84688 60.46354Q67.25313 60.854164 67.87813 60.854164Q68.4875 60.854164 68.87813 60.479164Q69.26875 60.08854 69.26875 59.52604Q69.26875 58.947914 68.8625 58.55729Q68.45625 58.15104 67.8625 58.15104Q67.25313 58.15104 66.84688 58.541664Q66.45625 58.93229 66.45625 59.46354ZM66.12813 63.43229Q66.12813 63.885414 66.33125 64.30729Q66.55 64.729164 66.97188 64.96354Q67.39375 65.197914 67.87813 65.197914Q68.62813 65.197914 69.1125 64.71354Q69.6125 64.229164 69.6125 63.479164Q69.6125 62.71354 69.1125 62.21354Q68.6125 61.71354 67.84688 61.71354Q67.09688 61.71354 66.6125 62.21354Q66.12813 62.697914 66.12813 63.43229Z" fill-rule="nonzero"/><path fill="#000000" d="M78.51875 317.45L77.47188 317.45L77.47188 310.73126Q77.08125 311.09064 76.45625 311.46564Q75.84688 311.825 75.3625 311.9969L75.3625 310.98126Q76.2375 310.5594 76.89375 309.98126Q77.56563 309.3875 77.84688 308.825L78.51875 308.825L78.51875 317.45Z" fill-rule="nonzero"/><path fill="#000000" d="M188.1481 317.45L187.10123 317.45L187.10123 310.73126Q186.7106 311.09064 186.0856 311.46564Q185.47623 311.825 184.99185 311.9969L184.99185 310.98126Q185.86685 310.5594 186.5231 309.98126Q187.19498 309.3875 187.47623 308.825L188.1481 308.825L188.1481 317.45ZM191.17935 313.21564Q191.17935 311.6844 191.49185 310.7625Q191.80435 309.825 192.41373 309.325Q193.03873 308.825 193.97623 308.825Q194.66373 308.825 195.17935 309.10626Q195.7106 309.3875 196.05435 309.91876Q196.3981 310.4344 196.5856 311.1844Q196.7731 311.9344 196.7731 313.21564Q196.7731 314.73126 196.4606 315.65314Q196.16373 316.575 195.53873 317.09064Q194.92935 317.59064 193.97623 317.59064Q192.74185 317.59064 192.0231 316.7Q191.17935 315.6375 191.17935 313.21564ZM192.25748 313.21564Q192.25748 315.325 192.75748 316.02814Q193.25748 316.73126 193.97623 316.73126Q194.7106 316.73126 195.19498 316.02814Q195.69498 315.325 195.69498 313.21564Q195.69498 311.09064 195.19498 310.40314Q194.7106 309.7 193.9606 309.7Q193.24185 309.7 192.80435 310.3094Q192.25748 311.09064 192.25748 313.21564Z" fill-rule="nonzero"/><path fill="#000000" d="M297.77747 317.45L296.7306 317.45L296.7306 310.73126Q296.33997 311.09064 295.71497 311.46564Q295.1056 311.825 294.62122 311.9969L294.62122 310.98126Q295.49622 310.5594 296.15247 309.98126Q296.82434 309.3875 297.1056 308.825L297.77747 308.825L297.77747 317.45ZM300.80872 313.21564Q300.80872 311.6844 301.12122 310.7625Q301.43372 309.825 302.0431 309.325Q302.6681 308.825 303.6056 308.825Q304.2931 308.825 304.80872 309.10626Q305.33997 309.3875 305.68372 309.91876Q306.02747 310.4344 306.21497 311.1844Q306.40247 311.9344 306.40247 313.21564Q306.40247 314.73126 306.08997 315.65314Q305.7931 316.575 305.1681 317.09064Q304.55872 317.59064 303.6056 317.59064Q302.37122 317.59064 301.65247 316.7Q300.80872 315.6375 300.80872 313.21564ZM301.88684 313.21564Q301.88684 315.325 302.38684 316.02814Q302.88684 316.73126 303.6056 316.73126Q304.33997 316.73126 304.82434 316.02814Q305.32434 315.325 305.32434 313.21564Q305.32434 311.09064 304.82434 310.40314Q304.33997 309.7 303.58997 309.7Q302.87122 309.7 302.43372 310.3094Q301.88684 311.09064 301.88684 313.21564ZM307.80872 313.21564Q307.80872 311.6844 308.12122 310.7625Q308.43372 309.825 309.0431 309.325Q309.6681 308.825 310.6056 308.825Q311.2931 308.825 311.80872 309.10626Q312.33997 309.3875 312.68372 309.91876Q313.02747 310.4344 313.21497 311.1844Q313.40247 311.9344 313.40247 313.21564Q313.40247 314.73126 313.08997 315.65314Q312.7931 316.575 312.1681 317.09064Q311.55872 317.59064 310.6056 317.59064Q309.37122 317.59064 308.65247 316.7Q307.80872 315.6375 307.80872 313.21564ZM308.88684 313.21564Q308.88684 315.325 309.38684 316.02814Q309.88684 316.73126 310.6056 316.73126Q311.33997 316.73126 311.82434 316.02814Q312.32434 315.325 312.32434 313.21564Q312.32434 311.09064 311.82434 310.40314Q311.33997 309.7 310.58997 309.7Q309.87122 309.7 309.43372 310.3094Q308.88684 311.09064 308.88684 313.21564Z" fill-rule="nonzero"/><path fill="#000000" d="M407.40683 317.45L406.35995 317.45L406.35995 310.73126Q405.96933 311.09064 405.34433 311.46564Q404.73495 311.825 404.25058 311.9969L404.25058 310.98126Q405.12558 310.5594 405.78183 309.98126Q406.4537 309.3875 406.73495 308.825L407.40683 308.825L407.40683 317.45ZM410.43808 313.21564Q410.43808 311.6844 410.75058 310.7625Q411.06308 309.825 411.67245 309.325Q412.29745 308.825 413.23495 308.825Q413.92245 308.825 414.43808 309.10626Q414.96933 309.3875 415.31308 309.91876Q415.65683 310.4344 415.84433 311.1844Q416.03183 311.9344 416.03183 313.21564Q416.03183 314.73126 415.71933 315.65314Q415.42245 316.575 414.79745 317.09064Q414.18808 317.59064 413.23495 317.59064Q412.00058 317.59064 411.28183 316.7Q410.43808 315.6375 410.43808 313.21564ZM411.5162 313.21564Q411.5162 315.325 412.0162 316.02814Q412.5162 316.73126 413.23495 316.73126Q413.96933 316.73126 414.4537 316.02814Q414.9537 315.325 414.9537 313.21564Q414.9537 311.09064 414.4537 310.40314Q413.96933 309.7 413.21933 309.7Q412.50058 309.7 412.06308 310.3094Q411.5162 311.09064 411.5162 313.21564ZM417.43808 313.21564Q417.43808 311.6844 417.75058 310.7625Q418.06308 309.825 418.67245 309.325Q419.29745 308.825 420.23495 308.825Q420.92245 308.825 421.43808 309.10626Q421.96933 309.3875 422.31308 309.91876Q422.65683 310.4344 422.84433 311.1844Q423.03183 311.9344 423.03183 313.21564Q423.03183 314.73126 422.71933 315.65314Q422.42245 316.575 421.79745 317.09064Q421.18808 317.59064 420.23495 317.59064Q419.00058 317.59064 418.28183 316.7Q417.43808 315.6375 417.43808 313.21564ZM418.5162 313.21564Q418.5162 315.325 419.0162 316.02814Q419.5162 316.73126 420.23495 316.73126Q420.96933 316.73126 421.4537 316.02814Q421.9537 315.325 421.9537 313.21564Q421.9537 311.09064 421.4537 310.40314Q420.96933 309.7 420.21933 309.7Q419.50058 309.7 419.06308 310.3094Q418.5162 311.09064 418.5162 313.21564ZM424.43808 313.21564Q424.43808 311.6844 424.75058 310.7625Q425.06308 309.825 425.67245 309.325Q426.29745 308.825 427.23495 308.825Q427.92245 308.825 428.43808 309.10626Q428.96933 309.3875 429.31308 309.91876Q429.65683 310.4344 429.84433 311.1844Q430.03183 311.9344 430.03183 313.21564Q430.03183 314.73126 429.71933 315.65314Q429.42245 316.575 428.79745 317.09064Q428.18808 317.59064 427.23495 317.59064Q426.00058 317.59064 425.28183 316.7Q424.43808 315.6375 424.43808 313.21564ZM425.5162 313.21564Q425.5162 315.325 426.0162 316.02814Q426.5162 316.73126 427.23495 316.73126Q427.96933 316.73126 428.4537 316.02814Q428.9537 315.325 428.9537 313.21564Q428.9537 311.09064 428.4537 310.40314Q427.96933 309.7 427.21933 309.7Q426.50058 309.7 426.06308 310.3094Q425.5162 311.09064 425.5162 313.21564Z" fill-rule="nonzero"/><path fill="#757575" d="M75.96875 37.55L81.46875 23.2375L83.515625 23.2375L89.375 37.55L87.21875 37.55L85.546875 33.20625L79.5625 33.20625L77.984375 37.55L75.96875 37.55ZM80.109375 31.675L84.953125 31.675L83.46875 27.70625Q82.78125 25.89375 82.453125 24.7375Q82.171875 26.1125 81.671875 27.471874L80.109375 31.675ZM97.09375 36.26875Q96.109375 37.096874 95.203125 37.440624Q94.296875 37.784374 93.265625 37.784374Q91.5625 37.784374 90.640625 36.95625Q89.71875 36.1125 89.71875 34.815624Q89.71875 34.05 90.0625 33.425Q90.421875 32.8 90.984375 32.425Q91.546875 32.034374 92.25 31.83125Q92.765625 31.70625 93.8125 31.565624Q95.9375 31.315624 96.9375 30.971874Q96.953125 30.6125 96.953125 30.503124Q96.953125 29.440624 96.453125 28.9875Q95.78125 28.39375 94.453125 28.39375Q93.203125 28.39375 92.609375 28.83125Q92.03125 29.26875 91.75 30.378124L90.03125 30.14375Q90.265625 29.034374 90.796875 28.3625Q91.328125 27.675 92.34375 27.315624Q93.359375 26.940624 94.703125 26.940624Q96.03125 26.940624 96.859375 27.253124Q97.6875 27.565624 98.078125 28.05Q98.46875 28.51875 98.625 29.2375Q98.71875 29.690624 98.71875 30.8625L98.71875 33.20625Q98.71875 35.659374 98.828125 36.315624Q98.9375 36.95625 99.28125 37.55L97.4375 37.55Q97.171875 37.003124 97.09375 36.26875ZM96.9375 32.346874Q95.984375 32.7375 94.0625 33.003124Q92.984375 33.159374 92.53125 33.3625Q92.09375 33.55 91.84375 33.925Q91.59375 34.3 91.59375 34.76875Q91.59375 35.471874 92.125 35.940624Q92.65625 36.409374 93.6875 36.409374Q94.703125 36.409374 95.484375 35.971874Q96.28125 35.51875 96.65625 34.753124Q96.9375 34.14375 96.9375 32.9875L96.9375 32.346874ZM101.296875 37.55L101.296875 27.175L102.875 27.175L102.875 28.753124Q103.484375 27.64375 104.0 27.3Q104.515625 26.940624 105.125 26.940624Q106.015625 26.940624 106.9375 27.503124L106.328125 29.14375Q105.6875 28.753124 105.046875 28.753124Q104.46875 28.753124 104.0 29.1125Q103.546875 29.45625 103.34375 30.065624Q103.0625 31.003124 103.0625 32.1125L103.0625 37.55L101.296875 37.55ZM115.09375 33.753124L116.8125 33.971874Q116.53125 35.76875 115.359375 36.784374Q114.203125 37.784374 112.5 37.784374Q110.375 37.784374 109.078125 36.39375Q107.78125 35.003124 107.78125 32.409374Q107.78125 30.721874 108.328125 29.471874Q108.890625 28.20625 110.03125 27.58125Q111.171875 26.940624 112.515625 26.940624Q114.203125 26.940624 115.265625 27.8Q116.34375 28.659374 116.65625 30.221874L114.9375 30.4875Q114.703125 29.440624 114.078125 28.925Q113.453125 28.39375 112.578125 28.39375Q111.25 28.39375 110.421875 29.346874Q109.59375 30.3 109.59375 32.346874Q109.59375 34.440624 110.390625 35.39375Q111.1875 36.33125 112.484375 36.33125Q113.515625 36.33125 114.203125 35.70625Q114.90625 35.065624 115.09375 33.753124ZM118.3125 37.55L118.3125 23.2375L120.078125 23.2375L120.078125 28.3625Q121.3125 26.940624 123.1875 26.940624Q124.328125 26.940624 125.171875 27.39375Q126.03125 27.846874 126.390625 28.659374Q126.765625 29.45625 126.765625 30.971874L126.765625 37.55L125.015625 37.55L125.015625 30.971874Q125.015625 29.659374 124.4375 29.065624Q123.859375 28.45625 122.828125 28.45625Q122.046875 28.45625 121.34375 28.8625Q120.65625 29.26875 120.359375 29.971874Q120.078125 30.659374 120.078125 31.878124L120.078125 37.55L118.3125 37.55ZM136.95312 26.7375L135.20312 26.878124Q134.96875 25.846874 134.54688 25.378124Q133.82812 24.6125 132.78125 24.6125Q131.9375 24.6125 131.3125 25.08125Q130.48438 25.690624 130.0 26.8625Q129.51562 28.01875 129.5 30.159374Q130.14062 29.20625 131.04688 28.7375Q131.96875 28.26875 132.98438 28.26875Q134.73438 28.26875 135.96875 29.565624Q137.20312 30.846874 137.20312 32.89375Q137.20312 34.253124 136.625 35.409374Q136.04688 36.565624 135.03125 37.190624Q134.01562 37.8 132.71875 37.8Q130.53125 37.8 129.14062 36.190624Q127.75 34.565624 127.75 30.846874Q127.75 26.70625 129.28125 24.815624Q130.625 23.175 132.89062 23.175Q134.57812 23.175 135.65625 24.128124Q136.73438 25.065624 136.95312 26.7375ZM129.78125 32.909374Q129.78125 33.815624 130.15625 34.64375Q130.54688 35.471874 131.23438 35.909374Q131.9375 36.346874 132.6875 36.346874Q133.8125 36.346874 134.60938 35.45625Q135.40625 34.55 135.40625 33.003124Q135.40625 31.51875 134.60938 30.675Q133.82812 29.815624 132.625 29.815624Q131.4375 29.815624 130.60938 30.675Q129.78125 31.51875 129.78125 32.909374ZM144.46875 37.55L144.46875 34.128124L138.25 34.128124L138.25 32.503124L144.78125 23.2375L146.21875 23.2375L146.21875 32.503124L148.15625 32.503124L148.15625 34.128124L146.21875 34.128124L146.21875 37.55L144.46875 37.55ZM144.46875 32.503124L144.46875 26.05L139.98438 32.503124L144.46875 32.503124ZM159.20312 37.55L155.25 27.175L157.10938 27.175L159.34375 33.39375Q159.70312 34.39375 160.0 35.471874Q160.23438 34.659374 160.65625 33.503124L162.95312 27.175L164.76562 27.175L160.84375 37.55L159.20312 37.55ZM165.28125 37.55L165.28125 23.2375L167.03125 23.2375L167.03125 37.55L165.28125 37.55ZM176.42188 34.20625L178.23438 34.440624Q177.8125 36.01875 176.64062 36.909374Q175.48438 37.784374 173.67188 37.784374Q171.40625 37.784374 170.0625 36.39375Q168.73438 34.9875 168.73438 32.45625Q168.73438 29.83125 170.07812 28.39375Q171.42188 26.940624 173.57812 26.940624Q175.65625 26.940624 176.96875 28.3625Q178.29688 29.76875 178.29688 32.346874Q178.29688 32.503124 178.28125 32.815624L170.54688 32.815624Q170.64062 34.51875 171.51562 35.425Q172.39062 36.33125 173.6875 36.33125Q174.65625 36.33125 175.32812 35.83125Q176.01562 35.315624 176.42188 34.20625ZM170.64062 31.3625L176.4375 31.3625Q176.32812 30.065624 175.78125 29.409374Q174.9375 28.39375 173.59375 28.39375Q172.39062 28.39375 171.5625 29.20625Q170.73438 30.003124 170.64062 31.3625ZM182.53125 29.784374Q181.4375 29.378124 180.90625 28.64375Q180.39062 27.89375 180.39062 26.8625Q180.39062 25.3 181.51562 24.2375Q182.64062 23.175 184.5 23.175Q186.375 23.175 187.51562 24.26875Q188.65625 25.346874 188.65625 26.909374Q188.65625 27.909374 188.125 28.64375Q187.60938 29.378124 186.54688 29.784374Q187.875 30.221874 188.5625 31.175Q189.25 32.128124 189.25 33.45625Q189.25 35.3 187.9375 36.55Q186.64062 37.8 184.53125 37.8Q182.40625 37.8 181.10938 36.55Q179.8125 35.284374 179.8125 33.409374Q179.8125 32.01875 180.51562 31.08125Q181.23438 30.128124 182.53125 29.784374ZM182.1875 26.8Q182.1875 27.815624 182.84375 28.471874Q183.5 29.1125 184.53125 29.1125Q185.54688 29.1125 186.20312 28.471874Q186.85938 27.83125 186.85938 26.909374Q186.85938 25.940624 186.1875 25.284374Q185.51562 24.6125 184.51562 24.6125Q183.51562 24.6125 182.84375 25.26875Q182.1875 25.909374 182.1875 26.8ZM181.625 33.425Q181.625 34.175 181.96875 34.878124Q182.32812 35.58125 183.03125 35.971874Q183.73438 36.346874 184.54688 36.346874Q185.8125 36.346874 186.625 35.534374Q187.45312 34.721874 187.45312 33.471874Q187.45312 32.20625 186.60938 31.378124Q185.76562 30.55 184.48438 30.55Q183.25 30.55 182.4375 31.378124Q181.625 32.190624 181.625 33.425ZM191.8125 37.55L191.8125 35.55L193.8125 35.55L193.8125 37.55L191.8125 37.55ZM200.20312 37.55L196.25 27.175L198.10938 27.175L200.34375 33.39375Q200.70312 34.39375 201.0 35.471874Q201.23438 34.659374 201.65625 33.503124L203.95312 27.175L205.76562 27.175L201.84375 37.55L200.20312 37.55ZM211.60938 34.45625L213.35938 34.175Q213.5 35.221874 214.17188 35.784374Q214.84375 36.33125 216.04688 36.33125Q217.25 36.33125 217.82812 35.846874Q218.42188 35.346874 218.42188 34.690624Q218.42188 34.096874 217.90625 33.753124Q217.54688 33.51875 216.10938 33.159374Q214.17188 32.659374 213.42188 32.315624Q212.6875 31.95625 212.29688 31.33125Q211.90625 30.690624 211.90625 29.925Q211.90625 29.2375 212.21875 28.64375Q212.54688 28.05 213.09375 27.659374Q213.5 27.3625 214.20312 27.159374Q214.92188 26.940624 215.73438 26.940624Q216.95312 26.940624 217.875 27.3Q218.79688 27.64375 219.23438 28.253124Q219.67188 28.846874 219.84375 29.846874L218.125 30.08125Q218.0 29.284374 217.4375 28.846874Q216.875 28.39375 215.85938 28.39375Q214.64062 28.39375 214.125 28.8Q213.60938 29.190624 213.60938 29.721874Q213.60938 30.065624 213.82812 30.346874Q214.03125 30.628124 214.5 30.815624Q214.76562 30.909374 216.04688 31.253124Q217.92188 31.753124 218.65625 32.08125Q219.39062 32.39375 219.8125 33.003124Q220.23438 33.596874 220.23438 34.503124Q220.23438 35.378124 219.71875 36.159374Q219.20312 36.940624 218.23438 37.3625Q217.26562 37.784374 216.04688 37.784374Q214.03125 37.784374 212.96875 36.940624Q211.90625 36.096874 211.60938 34.45625ZM222.3125 41.51875L222.3125 27.175L223.92188 27.175L223.92188 28.51875Q224.48438 27.7375 225.1875 27.346874Q225.90625 26.940624 226.92188 26.940624Q228.25 26.940624 229.26562 27.628124Q230.28125 28.315624 230.79688 29.565624Q231.32812 30.8 231.32812 32.284374Q231.32812 33.878124 230.75 35.159374Q230.1875 36.425 229.09375 37.1125Q228.0 37.784374 226.79688 37.784374Q225.92188 37.784374 225.21875 37.409374Q224.53125 37.034374 224.07812 36.471874L224.07812 41.51875L222.3125 41.51875ZM223.90625 32.425Q223.90625 34.425 224.71875 35.378124Q225.53125 36.33125 226.6875 36.33125Q227.85938 36.33125 228.6875 35.346874Q229.53125 34.3625 229.53125 32.26875Q229.53125 30.3 228.70312 29.315624Q227.89062 28.315624 226.76562 28.315624Q225.64062 28.315624 224.76562 29.378124Q223.90625 30.425 223.90625 32.425ZM240.42188 34.20625L242.23438 34.440624Q241.8125 36.01875 240.64062 36.909374Q239.48438 37.784374 237.67188 37.784374Q235.40625 37.784374 234.0625 36.39375Q232.73438 34.9875 232.73438 32.45625Q232.73438 29.83125 234.07812 28.39375Q235.42188 26.940624 237.57812 26.940624Q239.65625 26.940624 240.96875 28.3625Q242.29688 29.76875 242.29688 32.346874Q242.29688 32.503124 242.28125 32.815624L234.54688 32.815624Q234.64062 34.51875 235.51562 35.425Q236.39062 36.33125 237.6875 36.33125Q238.65625 36.33125 239.32812 35.83125Q240.01562 35.315624 240.42188 34.20625ZM234.64062 31.3625L240.4375 31.3625Q240.32812 30.065624 239.78125 29.409374Q238.9375 28.39375 237.59375 28.39375Q236.39062 28.39375 235.5625 29.20625Q234.73438 30.003124 234.64062 31.3625ZM251.42188 34.20625L253.23438 34.440624Q252.8125 36.01875 251.64062 36.909374Q250.48438 37.784374 248.67188 37.784374Q246.40625 37.784374 245.0625 36.39375Q243.73438 34.9875 243.73438 32.45625Q243.73438 29.83125 245.07812 28.39375Q246.42188 26.940624 248.57812 26.940624Q250.65625 26.940624 251.96875 28.3625Q253.29688 29.76875 253.29688 32.346874Q253.29688 32.503124 253.28125 32.815624L245.54688 32.815624Q245.64062 34.51875 246.51562 35.425Q247.39062 36.33125 248.6875 36.33125Q249.65625 36.33125 250.32812 35.83125Q251.01562 35.315624 251.42188 34.20625ZM245.64062 31.3625L251.4375 31.3625Q251.32812 30.065624 250.78125 29.409374Q249.9375 28.39375 248.59375 28.39375Q247.39062 28.39375 246.5625 29.20625Q245.73438 30.003124 245.64062 31.3625ZM262.04688 37.55L262.04688 36.2375Q261.0625 37.784374 259.14062 37.784374Q257.90625 37.784374 256.85938 37.096874Q255.82812 36.409374 255.25 35.190624Q254.6875 33.971874 254.6875 32.378124Q254.6875 30.815624 255.20312 29.55Q255.71875 28.284374 256.75 27.6125Q257.79688 26.940624 259.0625 26.940624Q260.0 26.940624 260.73438 27.346874Q261.46875 27.7375 261.9375 28.3625L261.9375 23.2375L263.67188 23.2375L263.67188 37.55L262.04688 37.55ZM256.48438 32.378124Q256.48438 34.3625 257.32812 35.346874Q258.17188 36.33125 259.3125 36.33125Q260.46875 36.33125 261.26562 35.39375Q262.07812 34.45625 262.07812 32.51875Q262.07812 30.39375 261.25 29.39375Q260.4375 28.39375 259.23438 28.39375Q258.0625 28.39375 257.26562 29.3625Q256.48438 30.315624 256.48438 32.378124ZM273.10938 37.55L273.10938 36.01875Q271.90625 37.784374 269.82812 37.784374Q268.90625 37.784374 268.10938 37.440624Q267.3125 37.08125 266.92188 36.55Q266.54688 36.01875 266.39062 35.2375Q266.28125 34.721874 266.28125 33.596874L266.28125 27.175L268.03125 27.175L268.03125 32.925Q268.03125 34.3 268.14062 34.784374Q268.3125 35.471874 268.84375 35.878124Q269.39062 36.26875 270.17188 36.26875Q270.96875 36.26875 271.65625 35.8625Q272.35938 35.45625 272.64062 34.76875Q272.9375 34.065624 272.9375 32.7375L272.9375 27.175L274.6875 27.175L274.6875 37.55L273.10938 37.55ZM276.3125 41.51875L276.3125 27.175L277.92188 27.175L277.92188 28.51875Q278.48438 27.7375 279.1875 27.346874Q279.90625 26.940624 280.92188 26.940624Q282.25 26.940624 283.26562 27.628124Q284.28125 28.315624 284.79688 29.565624Q285.32812 30.8 285.32812 32.284374Q285.32812 33.878124 284.75 35.159374Q284.1875 36.425 283.09375 37.1125Q282.0 37.784374 280.79688 37.784374Q279.92188 37.784374 279.21875 37.409374Q278.53125 37.034374 278.07812 36.471874L278.07812 41.51875L276.3125 41.51875ZM277.90625 32.425Q277.90625 34.425 278.71875 35.378124Q279.53125 36.33125 280.6875 36.33125Q281.85938 36.33125 282.6875 35.346874Q283.53125 34.3625 283.53125 32.26875Q283.53125 30.3 282.70312 29.315624Q281.89062 28.315624 280.76562 28.315624Q279.64062 28.315624 278.76562 29.378124Q277.90625 30.425 277.90625 32.425ZM297.64062 37.55L292.09375 23.2375L294.14062 23.2375L297.85938 33.628124Q298.3125 34.878124 298.60938 35.971874Q298.9375 34.8 299.39062 33.628124L303.25 23.2375L305.1875 23.2375L299.57812 37.55L297.64062 37.55ZM306.46875 37.55L306.46875 23.2375L308.35938 23.2375L308.35938 35.8625L315.40625 35.8625L315.40625 37.55L306.46875 37.55ZM317.57812 37.55L317.57812 23.2375L327.9375 23.2375L327.9375 24.925L319.48438 24.925L319.48438 29.3L327.39062 29.3L327.39062 30.9875L319.48438 30.9875L319.48438 35.8625L328.26562 35.8625L328.26562 37.55L317.57812 37.55ZM330.53125 37.55L330.53125 23.2375L332.46875 23.2375L339.98438 34.471874L339.98438 23.2375L341.79688 23.2375L341.79688 37.55L339.85938 37.55L332.34375 26.3L332.34375 37.55L330.53125 37.55ZM352.5625 29.128124L343.10938 29.128124L343.10938 27.4875L352.5625 27.4875L352.5625 29.128124ZM352.5625 33.471874L343.10938 33.471874L343.10938 31.83125L352.5625 31.83125L352.5625 33.471874ZM361.45312 37.55L359.6875 37.55L359.6875 26.346874Q359.0625 26.95625 358.03125 27.565624Q357.0 28.159374 356.17188 28.471874L356.17188 26.76875Q357.65625 26.08125 358.75 25.096874Q359.85938 24.096874 360.3125 23.175L361.45312 23.175L361.45312 37.55ZM375.0625 35.8625L375.0625 37.55L365.60938 37.55Q365.59375 36.909374 365.8125 36.33125Q366.17188 35.3625 366.96875 34.425Q367.76562 33.4875 369.26562 32.253124Q371.60938 30.346874 372.42188 29.2375Q373.25 28.1125 373.25 27.1125Q373.25 26.065624 372.5 25.346874Q371.75 24.628124 370.54688 24.628124Q369.28125 24.628124 368.51562 25.39375Q367.75 26.159374 367.75 27.503124L365.9375 27.315624Q366.125 25.3 367.32812 24.2375Q368.54688 23.175 370.59375 23.175Q372.64062 23.175 373.84375 24.315624Q375.04688 25.45625 375.04688 27.14375Q375.04688 28.003124 374.6875 28.846874Q374.34375 29.675 373.53125 30.596874Q372.71875 31.503124 370.82812 33.1125Q369.23438 34.440624 368.78125 34.909374Q368.34375 35.378124 368.04688 35.8625L375.0625 35.8625ZM379.53125 29.784374Q378.4375 29.378124 377.90625 28.64375Q377.39062 27.89375 377.39062 26.8625Q377.39062 25.3 378.51562 24.2375Q379.64062 23.175 381.5 23.175Q383.375 23.175 384.51562 24.26875Q385.65625 25.346874 385.65625 26.909374Q385.65625 27.909374 385.125 28.64375Q384.60938 29.378124 383.54688 29.784374Q384.875 30.221874 385.5625 31.175Q386.25 32.128124 386.25 33.45625Q386.25 35.3 384.9375 36.55Q383.64062 37.8 381.53125 37.8Q379.40625 37.8 378.10938 36.55Q376.8125 35.284374 376.8125 33.409374Q376.8125 32.01875 377.51562 31.08125Q378.23438 30.128124 379.53125 29.784374ZM379.1875 26.8Q379.1875 27.815624 379.84375 28.471874Q380.5 29.1125 381.53125 29.1125Q382.54688 29.1125 383.20312 28.471874Q383.85938 27.83125 383.85938 26.909374Q383.85938 25.940624 383.1875 25.284374Q382.51562 24.6125 381.51562 24.6125Q380.51562 24.6125 379.84375 25.26875Q379.1875 25.909374 379.1875 26.8ZM378.625 33.425Q378.625 34.175 378.96875 34.878124Q379.32812 35.58125 380.03125 35.971874Q380.73438 36.346874 381.54688 36.346874Q382.8125 36.346874 383.625 35.534374Q384.45312 34.721874 384.45312 33.471874Q384.45312 32.20625 383.60938 31.378124Q382.76562 30.55 381.48438 30.55Q380.25 30.55 379.4375 31.378124Q378.625 32.190624 378.625 33.425ZM394.46875 37.55L394.46875 23.2375L396.35938 23.2375L396.35938 35.8625L403.40625 35.8625L403.40625 37.55L394.46875 37.55ZM405.48438 37.55L405.48438 23.2375L408.34375 23.2375L411.71875 33.3625Q412.1875 34.784374 412.40625 35.4875Q412.65625 34.70625 413.17188 33.190624L416.59375 23.2375L419.14062 23.2375L419.14062 37.55L417.32812 37.55L417.32812 25.565624L413.15625 37.55L411.45312 37.55L407.3125 25.3625L407.3125 37.55L405.48438 37.55ZM431.9375 23.2375L433.82812 23.2375L433.82812 31.503124Q433.82812 33.659374 433.34375 34.940624Q432.85938 36.20625 431.57812 37.003124Q430.3125 37.8 428.23438 37.8Q426.21875 37.8 424.9375 37.1125Q423.67188 36.409374 423.125 35.096874Q422.57812 33.784374 422.57812 31.503124L422.57812 23.2375L424.46875 23.2375L424.46875 31.4875Q424.46875 33.3625 424.8125 34.253124Q425.15625 35.128124 426.0 35.6125Q426.84375 36.08125 428.07812 36.08125Q430.15625 36.08125 431.04688 35.14375Q431.9375 34.190624 431.9375 31.4875L431.9375 23.2375ZM435.46875 37.55L435.46875 23.2375L437.35938 23.2375L437.35938 35.8625L444.40625 35.8625L444.40625 37.55L435.46875 37.55ZM455.5625 29.128124L446.10938 29.128124L446.10938 27.4875L455.5625 27.4875L455.5625 29.128124ZM455.5625 33.471874L446.10938 33.471874L446.10938 31.83125L455.5625 31.83125L455.5625 33.471874ZM464.45312 37.55L462.6875 37.55L462.6875 26.346874Q462.0625 26.95625 461.03125 27.565624Q460.0 28.159374 459.17188 28.471874L459.17188 26.76875Q460.65625 26.08125 461.75 25.096874Q462.85938 24.096874 463.3125 23.175L464.45312 23.175L464.45312 37.55Z" fill-rule="nonzero"/></svg>