<svg version="1.1" viewBox="0.0 0.0 544.0 371.0" fill="none" stroke="none" stroke-linecap="square" stroke-miterlimit="10" width="544" height="371" xmlns:xlink="http://www.w3.org/1999/xlink" xmlns="http://www.w3.org/2000/svg"><path fill="#ffffff" d="M0 0L544.0 0L544.0 371.0L0 371.0L0 0Z" fill-rule="nonzero"/><path stroke="#cccccc" stroke-width="1.0" stroke-linecap="butt" d="M77.5 88.5L77.5 300.5" fill-rule="nonzero"/><path stroke="#cccccc" stroke-width="1.0" stroke-linecap="butt" d="M212.5 88.5L212.5 300.5" fill-rule="nonzero"/><path stroke="#cccccc" stroke-width="1.0" stroke-linecap="butt" d="M348.5 88.5L348.5 300.5" fill-rule="nonzero"/><path stroke="#cccccc" stroke-width="1.0" stroke-linecap="butt" d="M483.5 88.5L483.5 300.5" fill-rule="nonzero"/><path stroke="#333333" stroke-width="1.0" stroke-linecap="butt" d="M77.5 300.5L525.5 300.5" fill-rule="nonzero"/><path stroke="#cccccc" stroke-width="1.0" stroke-linecap="butt" d="M77.5 229.5L525.5 229.5" fill-rule="nonzero"/><path stroke="#cccccc" stroke-width="1.0" stroke-linecap="butt" d="M77.5 159.5L525.5 159.5" fill-rule="nonzero"/><path stroke="#cccccc" stroke-width="1.0" stroke-linecap="butt" d="M77.5 88.5L525.5 88.5" fill-rule="nonzero"/><clipPath id="id_0"><path d="M77.55 88.28333L525.45 88.28333L525.45 300.45L77.55 300.45L77.55 88.28333Z" clip-rule="nonzero"/></clipPath><path stroke="#4285f4" stroke-width="2.0" stroke-linecap="butt" clip-path="url(#id_0)" d="M77.55 276.263L118.26818 266.963L158.98636 263.21475L199.70454 253.91478L240.42273 212.96661L281.1409 172.61958L321.8591 146.62917L362.57727 120.53267L403.29544 93.97647L444.01364 96.239586L484.7318 91.11222L525.45 88.35406" fill-rule="nonzero"/><path stroke="#ea4335" stroke-width="2.0" stroke-linecap="butt" clip-path="url(#id_0)" d="M77.55 261.37598L118.26818 263.21475L158.98636 263.21475L199.70454 259.50183L240.42273 261.37598L281.1409 243.34181L321.8591 233.26389L362.57727 222.9738L403.29544 217.74036L444.01364 214.13353L484.7318 211.90578L525.45 211.02174" fill-rule="nonzero"/><path stroke="#fbbc04" stroke-width="2.0" stroke-linecap="butt" clip-path="url(#id_0)" d="M77.55 276.263L118.26818 272.55008L158.98636 268.80182L199.70454 272.55008L240.42273 272.55008L281.1409 262.3661L321.8591 256.2486L362.57727 249.49464L403.29544 247.40834L444.01364 245.32202L484.7318 244.19048L525.45 243.41252" fill-rule="nonzero"/><path stroke="#34a853" stroke-width="2.0" stroke-linecap="butt" clip-path="url(#id_0)" d="M77.55 276.263L118.26818 278.10178L158.98636 281.85007L199.70454 274.38885L240.42273 272.55008L281.1409 259.64328L321.8591 253.59653L362.57727 248.4338L403.29544 243.69542L444.01364 241.85664L484.7318 240.7958L525.45 240.2654" fill-rule="nonzero"/><path stroke="#ff6d01" stroke-width="2.0" stroke-linecap="butt" clip-path="url(#id_0)" d="M77.55 279.97592L118.26818 274.38885L158.98636 279.97592L199.70454 279.97592L240.42273 265.0889L281.1409 266.43262L321.8591 252.7125L362.57727 246.38286L403.29544 243.41252L444.01364 240.97261L484.7318 240.01787L525.45 239.62889" fill-rule="nonzero"/><path fill="#000000" fill-opacity="0.0" clip-path="url(#id_0)" d="M80.55 276.263C80.55 277.91986 79.206856 279.263 77.55 279.263C75.89314 279.263 74.55 277.91986 74.55 276.263C74.55 274.60614 75.89314 273.263 77.55 273.263C79.206856 273.263 80.55 274.60614 80.55 276.263Z" fill-rule="nonzero"/><path fill="#000000" fill-opacity="0.0" clip-path="url(#id_0)" d="M121.26818 266.963C121.26818 268.61987 119.92503 269.963 118.26818 269.963C116.61133 269.963 115.26818 268.61987 115.26818 266.963C115.26818 265.30618 116.61133 263.963 118.26818 263.963C119.92503 263.963 121.26818 265.30618 121.26818 266.963Z" fill-rule="nonzero"/><path fill="#000000" fill-opacity="0.0" clip-path="url(#id_0)" d="M161.98636 263.21475C161.98636 264.8716 160.64322 266.21475 158.98636 266.21475C157.32951 266.21475 155.98636 264.8716 155.98636 263.21475C155.98636 261.5579 157.32951 260.21475 158.98636 260.21475C160.64322 260.21475 161.98636 261.5579 161.98636 263.21475Z" fill-rule="nonzero"/><path fill="#000000" fill-opacity="0.0" clip-path="url(#id_0)" d="M202.70454 253.91478C202.70454 255.57162 201.3614 256.91476 199.70454 256.91476C198.04768 256.91476 196.70454 255.57162 196.70454 253.91478C196.70454 252.25792 198.04768 250.91478 199.70454 250.91478C201.3614 250.91478 202.70454 252.25792 202.70454 253.91478Z" fill-rule="nonzero"/><path fill="#000000" fill-opacity="0.0" clip-path="url(#id_0)" d="M243.42273 212.96661C243.42273 214.62346 242.07957 215.96661 240.42273 215.96661C238.76587 215.96661 237.42273 214.62346 237.42273 212.96661C237.42273 211.30975 238.76587 209.96661 240.42273 209.96661C242.07957 209.96661 243.42273 211.30975 243.42273 212.96661Z" fill-rule="nonzero"/><path fill="#000000" fill-opacity="0.0" clip-path="url(#id_0)" d="M284.1409 172.61958C284.1409 174.27644 282.79776 175.61958 281.1409 175.61958C279.48407 175.61958 278.1409 174.27644 278.1409 172.61958C278.1409 170.96272 279.48407 169.61958 281.1409 169.61958C282.79776 169.61958 284.1409 170.96272 284.1409 172.61958Z" fill-rule="nonzero"/><path fill="#000000" fill-opacity="0.0" clip-path="url(#id_0)" d="M324.8591 146.62917C324.8591 148.28603 323.51593 149.62917 321.8591 149.62917C320.20224 149.62917 318.8591 148.28603 318.8591 146.62917C318.8591 144.9723 320.20224 143.62917 321.8591 143.62917C323.51593 143.62917 324.8591 144.9723 324.8591 146.62917Z" fill-rule="nonzero"/><path fill="#000000" fill-opacity="0.0" clip-path="url(#id_0)" d="M365.57727 120.53267C365.57727 122.18952 364.23413 123.53267 362.57727 123.53267C360.9204 123.53267 359.57727 122.18952 359.57727 120.53267C359.57727 118.87581 360.9204 117.53267 362.57727 117.53267C364.23413 117.53267 365.57727 118.87581 365.57727 120.53267Z" fill-rule="nonzero"/><path fill="#000000" fill-opacity="0.0" clip-path="url(#id_0)" d="M406.29544 93.97647C406.29544 95.63332 404.9523 96.97647 403.29544 96.97647C401.6386 96.97647 400.29544 95.63332 400.29544 93.97647C400.29544 92.31962 401.6386 90.97647 403.29544 90.97647C404.9523 90.97647 406.29544 92.31962 406.29544 93.97647Z" fill-rule="nonzero"/><path fill="#000000" fill-opacity="0.0" clip-path="url(#id_0)" d="M447.01364 96.239586C447.01364 97.89644 445.6705 99.239586 444.01364 99.239586C442.35678 99.239586 441.01364 97.89644 441.01364 96.239586C441.01364 94.582726 442.35678 93.239586 444.01364 93.239586C445.6705 93.239586 447.01364 94.582726 447.01364 96.239586Z" fill-rule="nonzero"/><path fill="#000000" fill-opacity="0.0" clip-path="url(#id_0)" d="M487.7318 91.11222C487.7318 92.76907 486.38867 94.11222 484.7318 94.11222C483.07495 94.11222 481.7318 92.76907 481.7318 91.11222C481.7318 89.45537 483.07495 88.11222 484.7318 88.11222C486.38867 88.11222 487.7318 89.45537 487.7318 91.11222Z" fill-rule="nonzero"/><path fill="#000000" fill-opacity="0.0" clip-path="url(#id_0)" d="M528.45 88.35406C528.45 90.01091 527.1069 91.35406 525.45 91.35406C523.79315 91.35406 522.45 90.01091 522.45 88.35406C522.45 86.697205 523.79315 85.35406 525.45 85.35406C527.1069 85.35406 528.45 86.697205 528.45 88.35406Z" fill-rule="nonzero"/><path fill="#000000" fill-opacity="0.0" clip-path="url(#id_0)" d="M80.55 261.37598C80.55 263.03284 79.206856 264.37598 77.55 264.37598C75.89314 264.37598 74.55 263.03284 74.55 261.37598C74.55 259.71912 75.89314 258.37598 77.55 258.37598C79.206856 258.37598 80.55 259.71912 80.55 261.37598Z" fill-rule="nonzero"/><path fill="#000000" fill-opacity="0.0" clip-path="url(#id_0)" d="M121.26818 263.21475C121.26818 264.8716 119.92503 266.21475 118.26818 266.21475C116.61133 266.21475 115.26818 264.8716 115.26818 263.21475C115.26818 261.5579 116.61133 260.21475 118.26818 260.21475C119.92503 260.21475 121.26818 261.5579 121.26818 263.21475Z" fill-rule="nonzero"/><path fill="#000000" fill-opacity="0.0" clip-path="url(#id_0)" d="M161.98636 263.21475C161.98636 264.8716 160.64322 266.21475 158.98636 266.21475C157.32951 266.21475 155.98636 264.8716 155.98636 263.21475C155.98636 261.5579 157.32951 260.21475 158.98636 260.21475C160.64322 260.21475 161.98636 261.5579 161.98636 263.21475Z" fill-rule="nonzero"/><path fill="#000000" fill-opacity="0.0" clip-path="url(#id_0)" d="M202.70454 259.50183C202.70454 261.1587 201.3614 262.50183 199.70454 262.50183C198.04768 262.50183 196.70454 261.1587 196.70454 259.50183C196.70454 257.84497 198.04768 256.50183 199.70454 256.50183C201.3614 256.50183 202.70454 257.84497 202.70454 259.50183Z" fill-rule="nonzero"/><path fill="#000000" fill-opacity="0.0" clip-path="url(#id_0)" d="M243.42273 261.37598C243.42273 263.03284 242.07957 264.37598 240.42273 264.37598C238.76587 264.37598 237.42273 263.03284 237.42273 261.37598C237.42273 259.71912 238.76587 258.37598 240.42273 258.37598C242.07957 258.37598 243.42273 259.71912 243.42273 261.37598Z" fill-rule="nonzero"/><path fill="#000000" fill-opacity="0.0" clip-path="url(#id_0)" d="M284.1409 243.34181C284.1409 244.99866 282.79776 246.34181 281.1409 246.34181C279.48407 246.34181 278.1409 244.99866 278.1409 243.34181C278.1409 241.68495 279.48407 240.34181 281.1409 240.34181C282.79776 240.34181 284.1409 241.68495 284.1409 243.34181Z" fill-rule="nonzero"/><path fill="#000000" fill-opacity="0.0" clip-path="url(#id_0)" d="M324.8591 233.26389C324.8591 234.92075 323.51593 236.26389 321.8591 236.26389C320.20224 236.26389 318.8591 234.92075 318.8591 233.26389C318.8591 231.60704 320.20224 230.26389 321.8591 230.26389C323.51593 230.26389 324.8591 231.60704 324.8591 233.26389Z" fill-rule="nonzero"/><path fill="#000000" fill-opacity="0.0" clip-path="url(#id_0)" d="M365.57727 222.9738C365.57727 224.63066 364.23413 225.9738 362.57727 225.9738C360.9204 225.9738 359.57727 224.63066 359.57727 222.9738C359.57727 221.31696 360.9204 219.9738 362.57727 219.9738C364.23413 219.9738 365.57727 221.31696 365.57727 222.9738Z" fill-rule="nonzero"/><path fill="#000000" fill-opacity="0.0" clip-path="url(#id_0)" d="M406.29544 217.74036C406.29544 219.39722 404.9523 220.74036 403.29544 220.74036C401.6386 220.74036 400.29544 219.39722 400.29544 217.74036C400.29544 216.08351 401.6386 214.74036 403.29544 214.74036C404.9523 214.74036 406.29544 216.08351 406.29544 217.74036Z" fill-rule="nonzero"/><path fill="#000000" fill-opacity="0.0" clip-path="url(#id_0)" d="M447.01364 214.13353C447.01364 215.79037 445.6705 217.13353 444.01364 217.13353C442.35678 217.13353 441.01364 215.79037 441.01364 214.13353C441.01364 212.47667 442.35678 211.13353 444.01364 211.13353C445.6705 211.13353 447.01364 212.47667 447.01364 214.13353Z" fill-rule="nonzero"/><path fill="#000000" fill-opacity="0.0" clip-path="url(#id_0)" d="M487.7318 211.90578C487.7318 213.56264 486.38867 214.90578 484.7318 214.90578C483.07495 214.90578 481.7318 213.56264 481.7318 211.90578C481.7318 210.24892 483.07495 208.90578 484.7318 208.90578C486.38867 208.90578 487.7318 210.24892 487.7318 211.90578Z" fill-rule="nonzero"/><path fill="#000000" fill-opacity="0.0" clip-path="url(#id_0)" d="M528.45 211.02174C528.45 212.6786 527.1069 214.02174 525.45 214.02174C523.79315 214.02174 522.45 212.6786 522.45 211.02174C522.45 209.3649 523.79315 208.02174 525.45 208.02174C527.1069 208.02174 528.45 209.3649 528.45 211.02174Z" fill-rule="nonzero"/><path fill="#000000" fill-opacity="0.0" clip-path="url(#id_0)" d="M80.55 276.263C80.55 277.91986 79.206856 279.263 77.55 279.263C75.89314 279.263 74.55 277.91986 74.55 276.263C74.55 274.60614 75.89314 273.263 77.55 273.263C79.206856 273.263 80.55 274.60614 80.55 276.263Z" fill-rule="nonzero"/><path fill="#000000" fill-opacity="0.0" clip-path="url(#id_0)" d="M121.26818 272.55008C121.26818 274.20694 119.92503 275.55008 118.26818 275.55008C116.61133 275.55008 115.26818 274.20694 115.26818 272.55008C115.26818 270.89322 116.61133 269.55008 118.26818 269.55008C119.92503 269.55008 121.26818 270.89322 121.26818 272.55008Z" fill-rule="nonzero"/><path fill="#000000" fill-opacity="0.0" clip-path="url(#id_0)" d="M161.98636 268.80182C161.98636 270.45865 160.64322 271.80182 158.98636 271.80182C157.32951 271.80182 155.98636 270.45865 155.98636 268.80182C155.98636 267.14496 157.32951 265.80182 158.98636 265.80182C160.64322 265.80182 161.98636 267.14496 161.98636 268.80182Z" fill-rule="nonzero"/><path fill="#000000" fill-opacity="0.0" clip-path="url(#id_0)" d="M202.70454 272.55008C202.70454 274.20694 201.3614 275.55008 199.70454 275.55008C198.04768 275.55008 196.70454 274.20694 196.70454 272.55008C196.70454 270.89322 198.04768 269.55008 199.70454 269.55008C201.3614 269.55008 202.70454 270.89322 202.70454 272.55008Z" fill-rule="nonzero"/><path fill="#000000" fill-opacity="0.0" clip-path="url(#id_0)" d="M243.42273 272.55008C243.42273 274.20694 242.07957 275.55008 240.42273 275.55008C238.76587 275.55008 237.42273 274.20694 237.42273 272.55008C237.42273 270.89322 238.76587 269.55008 240.42273 269.55008C242.07957 269.55008 243.42273 270.89322 243.42273 272.55008Z" fill-rule="nonzero"/><path fill="#000000" fill-opacity="0.0" clip-path="url(#id_0)" d="M284.1409 262.3661C284.1409 264.02295 282.79776 265.3661 281.1409 265.3661C279.48407 265.3661 278.1409 264.02295 278.1409 262.3661C278.1409 260.70923 279.48407 259.3661 281.1409 259.3661C282.79776 259.3661 284.1409 260.70923 284.1409 262.3661Z" fill-rule="nonzero"/><path fill="#000000" fill-opacity="0.0" clip-path="url(#id_0)" d="M324.8591 256.2486C324.8591 257.90546 323.51593 259.2486 321.8591 259.2486C320.20224 259.2486 318.8591 257.90546 318.8591 256.2486C318.8591 254.59175 320.20224 253.24861 321.8591 253.24861C323.51593 253.24861 324.8591 254.59175 324.8591 256.2486Z" fill-rule="nonzero"/><path fill="#000000" fill-opacity="0.0" clip-path="url(#id_0)" d="M365.57727 249.49464C365.57727 251.15149 364.23413 252.49464 362.57727 252.49464C360.9204 252.49464 359.57727 251.15149 359.57727 249.49464C359.57727 247.83778 360.9204 246.49464 362.57727 246.49464C364.23413 246.49464 365.57727 247.83778 365.57727 249.49464Z" fill-rule="nonzero"/><path fill="#000000" fill-opacity="0.0" clip-path="url(#id_0)" d="M406.29544 247.40834C406.29544 249.06519 404.9523 250.40834 403.29544 250.40834C401.6386 250.40834 400.29544 249.06519 400.29544 247.40834C400.29544 245.75148 401.6386 244.40834 403.29544 244.40834C404.9523 244.40834 406.29544 245.75148 406.29544 247.40834Z" fill-rule="nonzero"/><path fill="#000000" fill-opacity="0.0" clip-path="url(#id_0)" d="M447.01364 245.32202C447.01364 246.97888 445.6705 248.32202 444.01364 248.32202C442.35678 248.32202 441.01364 246.97888 441.01364 245.32202C441.01364 243.66518 442.35678 242.32202 444.01364 242.32202C445.6705 242.32202 447.01364 243.66518 447.01364 245.32202Z" fill-rule="nonzero"/><path fill="#000000" fill-opacity="0.0" clip-path="url(#id_0)" d="M487.7318 244.19048C487.7318 245.84732 486.38867 247.19048 484.7318 247.19048C483.07495 247.19048 481.7318 245.84732 481.7318 244.19048C481.7318 242.53362 483.07495 241.19048 484.7318 241.19048C486.38867 241.19048 487.7318 242.53362 487.7318 244.19048Z" fill-rule="nonzero"/><path fill="#000000" fill-opacity="0.0" clip-path="url(#id_0)" d="M528.45 243.41252C528.45 245.06938 527.1069 246.41252 525.45 246.41252C523.79315 246.41252 522.45 245.06938 522.45 243.41252C522.45 241.75568 523.79315 240.41252 525.45 240.41252C527.1069 240.41252 528.45 241.75568 528.45 243.41252Z" fill-rule="nonzero"/><path fill="#000000" fill-opacity="0.0" clip-path="url(#id_0)" d="M80.55 276.263C80.55 277.91986 79.206856 279.263 77.55 279.263C75.89314 279.263 74.55 277.91986 74.55 276.263C74.55 274.60614 75.89314 273.263 77.55 273.263C79.206856 273.263 80.55 274.60614 80.55 276.263Z" fill-rule="nonzero"/><path fill="#000000" fill-opacity="0.0" clip-path="url(#id_0)" d="M121.26818 278.10178C121.26818 279.75864 119.92503 281.10178 118.26818 281.10178C116.61133 281.10178 115.26818 279.75864 115.26818 278.10178C115.26818 276.44492 116.61133 275.10178 118.26818 275.10178C119.92503 275.10178 121.26818 276.44492 121.26818 278.10178Z" fill-rule="nonzero"/><path fill="#000000" fill-opacity="0.0" clip-path="url(#id_0)" d="M161.98636 281.85007C161.98636 283.5069 160.64322 284.85007 158.98636 284.85007C157.32951 284.85007 155.98636 283.5069 155.98636 281.85007C155.98636 280.1932 157.32951 278.85007 158.98636 278.85007C160.64322 278.85007 161.98636 280.1932 161.98636 281.85007Z" fill-rule="nonzero"/><path fill="#000000" fill-opacity="0.0" clip-path="url(#id_0)" d="M202.70454 274.38885C202.70454 276.04572 201.3614 277.38885 199.70454 277.38885C198.04768 277.38885 196.70454 276.04572 196.70454 274.38885C196.70454 272.732 198.04768 271.38885 199.70454 271.38885C201.3614 271.38885 202.70454 272.732 202.70454 274.38885Z" fill-rule="nonzero"/><path fill="#000000" fill-opacity="0.0" clip-path="url(#id_0)" d="M243.42273 272.55008C243.42273 274.20694 242.07957 275.55008 240.42273 275.55008C238.76587 275.55008 237.42273 274.20694 237.42273 272.55008C237.42273 270.89322 238.76587 269.55008 240.42273 269.55008C242.07957 269.55008 243.42273 270.89322 243.42273 272.55008Z" fill-rule="nonzero"/><path fill="#000000" fill-opacity="0.0" clip-path="url(#id_0)" d="M284.1409 259.64328C284.1409 261.30014 282.79776 262.64328 281.1409 262.64328C279.48407 262.64328 278.1409 261.30014 278.1409 259.64328C278.1409 257.98642 279.48407 256.64328 281.1409 256.64328C282.79776 256.64328 284.1409 257.98642 284.1409 259.64328Z" fill-rule="nonzero"/><path fill="#000000" fill-opacity="0.0" clip-path="url(#id_0)" d="M324.8591 253.59653C324.8591 255.25339 323.51593 256.59653 321.8591 256.59653C320.20224 256.59653 318.8591 255.25339 318.8591 253.59653C318.8591 251.93967 320.20224 250.59653 321.8591 250.59653C323.51593 250.59653 324.8591 251.93967 324.8591 253.59653Z" fill-rule="nonzero"/><path fill="#000000" fill-opacity="0.0" clip-path="url(#id_0)" d="M365.57727 248.4338C365.57727 250.09065 364.23413 251.4338 362.57727 251.4338C360.9204 251.4338 359.57727 250.09065 359.57727 248.4338C359.57727 246.77695 360.9204 245.4338 362.57727 245.4338C364.23413 245.4338 365.57727 246.77695 365.57727 248.4338Z" fill-rule="nonzero"/><path fill="#000000" fill-opacity="0.0" clip-path="url(#id_0)" d="M406.29544 243.69542C406.29544 245.35226 404.9523 246.69542 403.29544 246.69542C401.6386 246.69542 400.29544 245.35226 400.29544 243.69542C400.29544 242.03856 401.6386 240.69542 403.29544 240.69542C404.9523 240.69542 406.29544 242.03856 406.29544 243.69542Z" fill-rule="nonzero"/><path fill="#000000" fill-opacity="0.0" clip-path="url(#id_0)" d="M447.01364 241.85664C447.01364 243.51349 445.6705 244.85664 444.01364 244.85664C442.35678 244.85664 441.01364 243.51349 441.01364 241.85664C441.01364 240.19978 442.35678 238.85664 444.01364 238.85664C445.6705 238.85664 447.01364 240.19978 447.01364 241.85664Z" fill-rule="nonzero"/><path fill="#000000" fill-opacity="0.0" clip-path="url(#id_0)" d="M487.7318 240.7958C487.7318 242.45267 486.38867 243.7958 484.7318 243.7958C483.07495 243.7958 481.7318 242.45267 481.7318 240.7958C481.7318 239.13895 483.07495 237.7958 484.7318 237.7958C486.38867 237.7958 487.7318 239.13895 487.7318 240.7958Z" fill-rule="nonzero"/><path fill="#000000" fill-opacity="0.0" clip-path="url(#id_0)" d="M528.45 240.2654C528.45 241.92224 527.1069 243.2654 525.45 243.2654C523.79315 243.2654 522.45 241.92224 522.45 240.2654C522.45 238.60854 523.79315 237.2654 525.45 237.2654C527.1069 237.2654 528.45 238.60854 528.45 240.2654Z" fill-rule="nonzero"/><path fill="#000000" fill-opacity="0.0" clip-path="url(#id_0)" d="M80.55 279.97592C80.55 281.63278 79.206856 282.97592 77.55 282.97592C75.89314 282.97592 74.55 281.63278 74.55 279.97592C74.55 278.31906 75.89314 276.97592 77.55 276.97592C79.206856 276.97592 80.55 278.31906 80.55 279.97592Z" fill-rule="nonzero"/><path fill="#000000" fill-opacity="0.0" clip-path="url(#id_0)" d="M121.26818 274.38885C121.26818 276.04572 119.92503 277.38885 118.26818 277.38885C116.61133 277.38885 115.26818 276.04572 115.26818 274.38885C115.26818 272.732 116.61133 271.38885 118.26818 271.38885C119.92503 271.38885 121.26818 272.732 121.26818 274.38885Z" fill-rule="nonzero"/><path fill="#000000" fill-opacity="0.0" clip-path="url(#id_0)" d="M161.98636 279.97592C161.98636 281.63278 160.64322 282.97592 158.98636 282.97592C157.32951 282.97592 155.98636 281.63278 155.98636 279.97592C155.98636 278.31906 157.32951 276.97592 158.98636 276.97592C160.64322 276.97592 161.98636 278.31906 161.98636 279.97592Z" fill-rule="nonzero"/><path fill="#000000" fill-opacity="0.0" clip-path="url(#id_0)" d="M202.70454 279.97592C202.70454 281.63278 201.3614 282.97592 199.70454 282.97592C198.04768 282.97592 196.70454 281.63278 196.70454 279.97592C196.70454 278.31906 198.04768 276.97592 199.70454 276.97592C201.3614 276.97592 202.70454 278.31906 202.70454 279.97592Z" fill-rule="nonzero"/><path fill="#000000" fill-opacity="0.0" clip-path="url(#id_0)" d="M243.42273 265.0889C243.42273 266.74576 242.07957 268.0889 240.42273 268.0889C238.76587 268.0889 237.42273 266.74576 237.42273 265.0889C237.42273 263.43204 238.76587 262.0889 240.42273 262.0889C242.07957 262.0889 243.42273 263.43204 243.42273 265.0889Z" fill-rule="nonzero"/><path fill="#000000" fill-opacity="0.0" clip-path="url(#id_0)" d="M284.1409 266.43262C284.1409 268.08948 282.79776 269.43262 281.1409 269.43262C279.48407 269.43262 278.1409 268.08948 278.1409 266.43262C278.1409 264.77576 279.48407 263.43262 281.1409 263.43262C282.79776 263.43262 284.1409 264.77576 284.1409 266.43262Z" fill-rule="nonzero"/><path fill="#000000" fill-opacity="0.0" clip-path="url(#id_0)" d="M324.8591 252.7125C324.8591 254.36935 323.51593 255.7125 321.8591 255.7125C320.20224 255.7125 318.8591 254.36935 318.8591 252.7125C318.8591 251.05565 320.20224 249.7125 321.8591 249.7125C323.51593 249.7125 324.8591 251.05565 324.8591 252.7125Z" fill-rule="nonzero"/><path fill="#000000" fill-opacity="0.0" clip-path="url(#id_0)" d="M365.57727 246.38286C365.57727 248.03972 364.23413 249.38286 362.57727 249.38286C360.9204 249.38286 359.57727 248.03972 359.57727 246.38286C359.57727 244.72601 360.9204 243.38286 362.57727 243.38286C364.23413 243.38286 365.57727 244.72601 365.57727 246.38286Z" fill-rule="nonzero"/><path fill="#000000" fill-opacity="0.0" clip-path="url(#id_0)" d="M406.29544 243.41252C406.29544 245.06938 404.9523 246.41252 403.29544 246.41252C401.6386 246.41252 400.29544 245.06938 400.29544 243.41252C400.29544 241.75568 401.6386 240.41252 403.29544 240.41252C404.9523 240.41252 406.29544 241.75568 406.29544 243.41252Z" fill-rule="nonzero"/><path fill="#000000" fill-opacity="0.0" clip-path="url(#id_0)" d="M447.01364 240.97261C447.01364 242.62947 445.6705 243.97261 444.01364 243.97261C442.35678 243.97261 441.01364 242.62947 441.01364 240.97261C441.01364 239.31575 442.35678 237.97261 444.01364 237.97261C445.6705 237.97261 447.01364 239.31575 447.01364 240.97261Z" fill-rule="nonzero"/><path fill="#000000" fill-opacity="0.0" clip-path="url(#id_0)" d="M487.7318 240.01787C487.7318 241.67471 486.38867 243.01787 484.7318 243.01787C483.07495 243.01787 481.7318 241.67471 481.7318 240.01787C481.7318 238.36101 483.07495 237.01787 484.7318 237.01787C486.38867 237.01787 487.7318 238.36101 487.7318 240.01787Z" fill-rule="nonzero"/><path fill="#000000" fill-opacity="0.0" clip-path="url(#id_0)" d="M528.45 239.62889C528.45 241.28574 527.1069 242.62889 525.45 242.62889C523.79315 242.62889 522.45 241.28574 522.45 239.62889C522.45 237.97203 523.79315 236.62889 525.45 236.62889C527.1069 236.62889 528.45 237.97203 528.45 239.62889Z" fill-rule="nonzero"/><path fill="#000000" d="M270.54688 346.6844L271.60938 346.59064Q271.6875 347.2469 271.96875 347.65314Q272.25 348.0594 272.82812 348.325Q273.42188 348.575 274.15625 348.575Q274.79688 348.575 275.29688 348.3875Q275.79688 348.1844 276.03125 347.85626Q276.28125 347.5125 276.28125 347.1219Q276.28125 346.71564 276.04688 346.41876Q275.8125 346.10626 275.28125 345.90314Q274.92188 345.7625 273.73438 345.48126Q272.5625 345.2 272.09375 344.95Q271.46875 344.6219 271.17188 344.15314Q270.875 343.66876 270.875 343.075Q270.875 342.4344 271.23438 341.8719Q271.60938 341.29376 272.3125 341.0125Q273.03125 340.71564 273.89062 340.71564Q274.84375 340.71564 275.57812 341.02814Q276.3125 341.325 276.70312 341.9344Q277.09375 342.52814 277.125 343.27814L276.03125 343.35626Q275.9375 342.54376 275.42188 342.1375Q274.92188 341.71564 273.9375 341.71564Q272.90625 341.71564 272.4375 342.09064Q271.96875 342.46564 271.96875 342.9969Q271.96875 343.46564 272.29688 343.7625Q272.625 344.0594 274.0 344.3719Q275.39062 344.6844 275.90625 344.91876Q276.65625 345.27814 277.01562 345.8094Q277.375 346.325 277.375 347.02814Q277.375 347.71564 276.98438 348.325Q276.59375 348.91876 275.85938 349.2625Q275.125 349.59064 274.20312 349.59064Q273.03125 349.59064 272.23438 349.2625Q271.45312 348.91876 271.0 348.23126Q270.5625 347.54376 270.54688 346.6844ZM278.79688 342.075L278.79688 340.85626L279.85938 340.85626L279.85938 342.075L278.79688 342.075ZM278.79688 349.45L278.79688 343.23126L279.85938 343.23126L279.85938 349.45L278.79688 349.45ZM281.23438 349.45L281.23438 348.59064L285.20312 344.04376Q284.51562 344.075 284.0 344.075L281.46875 344.075L281.46875 343.23126L286.5625 343.23126L286.5625 343.91876L283.1875 347.8719L282.53125 348.59064Q283.25 348.54376 283.85938 348.54376L286.75 348.54376L286.75 349.45L281.23438 349.45ZM291.04688 347.45L292.14062 347.575Q291.89062 348.52814 291.1875 349.0594Q290.48438 349.59064 289.40625 349.59064Q288.04688 349.59064 287.23438 348.7469Q286.4375 347.90314 286.4375 346.3875Q286.4375 344.825 287.25 343.96564Q288.0625 343.09064 289.34375 343.09064Q290.59375 343.09064 291.375 343.9344Q292.17188 344.77814 292.17188 346.325Q292.17188 346.41876 292.17188 346.60626L287.53125 346.60626Q287.59375 347.6375 288.10938 348.1844Q288.625 348.71564 289.40625 348.71564Q289.98438 348.71564 290.39062 348.41876Q290.8125 348.10626 291.04688 347.45ZM287.59375 345.7469L291.0625 345.7469Q291.0 344.95 290.67188 344.5594Q290.15625 343.95 289.35938 343.95Q288.625 343.95 288.125 344.4344Q287.64062 344.91876 287.59375 345.7469ZM298.8125 351.98126Q297.9375 350.8719 297.32812 349.40314Q296.73438 347.91876 296.73438 346.34064Q296.73438 344.95 297.17188 343.66876Q297.70312 342.1844 298.8125 340.71564L299.5625 340.71564Q298.85938 341.9344 298.625 342.45Q298.26562 343.2625 298.0625 344.1375Q297.8125 345.23126 297.8125 346.34064Q297.8125 349.16876 299.5625 351.98126L298.8125 351.98126ZM301.76562 349.45L300.78125 349.45L300.78125 340.85626L301.84375 340.85626L301.84375 343.91876Q302.51562 343.09064 303.54688 343.09064Q304.125 343.09064 304.625 343.325Q305.14062 343.54376 305.46875 343.96564Q305.8125 344.3875 306.0 344.98126Q306.1875 345.575 306.1875 346.2469Q306.1875 347.84064 305.39062 348.71564Q304.59375 349.59064 303.5 349.59064Q302.39062 349.59064 301.76562 348.66876L301.76562 349.45ZM301.75 346.29376Q301.75 347.40314 302.0625 347.90314Q302.5625 348.71564 303.40625 348.71564Q304.09375 348.71564 304.59375 348.1219Q305.10938 347.52814 305.10938 346.325Q305.10938 345.10626 304.625 344.52814Q304.14062 343.95 303.45312 343.95Q302.76562 343.95 302.25 344.5594Q301.75 345.15314 301.75 346.29376ZM307.75 351.84064L307.625 350.85626Q307.96875 350.95 308.23438 350.95Q308.57812 350.95 308.78125 350.825Q309.0 350.71564 309.14062 350.5125Q309.23438 350.34064 309.46875 349.71564Q309.48438 349.6375 309.5625 349.46564L307.1875 343.23126L308.32812 343.23126L309.625 346.825Q309.875 347.5125 310.07812 348.27814Q310.26562 347.54376 310.51562 346.85626L311.84375 343.23126L312.89062 343.23126L310.53125 349.5594Q310.14062 350.575 309.9375 350.96564Q309.65625 351.4969 309.28125 351.73126Q308.92188 351.98126 308.42188 351.98126Q308.125 351.98126 307.75 351.84064ZM315.09375 348.5125L315.25 349.4344Q314.79688 349.52814 314.45312 349.52814Q313.875 349.52814 313.5625 349.35626Q313.25 349.16876 313.10938 348.8719Q312.98438 348.575 312.98438 347.6219L312.98438 344.04376L312.21875 344.04376L312.21875 343.23126L312.98438 343.23126L312.98438 341.6844L314.03125 341.0594L314.03125 343.23126L315.09375 343.23126L315.09375 344.04376L314.03125 344.04376L314.03125 347.6844Q314.03125 348.1375 314.07812 348.2625Q314.14062 348.3875 314.26562 348.46564Q314.39062 348.54376 314.625 348.54376Q314.8125 348.54376 315.09375 348.5125ZM320.04688 347.45L321.14062 347.575Q320.89062 348.52814 320.1875 349.0594Q319.48438 349.59064 318.40625 349.59064Q317.04688 349.59064 316.23438 348.7469Q315.4375 347.90314 315.4375 346.3875Q315.4375 344.825 316.25 343.96564Q317.0625 343.09064 318.34375 343.09064Q319.59375 343.09064 320.375 343.9344Q321.17188 344.77814 321.17188 346.325Q321.17188 346.41876 321.17188 346.60626L316.53125 346.60626Q316.59375 347.6375 317.10938 348.1844Q317.625 348.71564 318.40625 348.71564Q318.98438 348.71564 319.39062 348.41876Q319.8125 348.10626 320.04688 347.45ZM316.59375 345.7469L320.0625 345.7469Q320.0 344.95 319.67188 344.5594Q319.15625 343.95 318.35938 343.95Q317.625 343.95 317.125 344.4344Q316.64062 344.91876 316.59375 345.7469ZM322.375 347.59064L323.40625 347.4344Q323.5 348.0594 323.89062 348.3875Q324.29688 348.71564 325.03125 348.71564Q325.75 348.71564 326.09375 348.4344Q326.45312 348.1375 326.45312 347.73126Q326.45312 347.3719 326.14062 347.16876Q325.92188 347.02814 325.0625 346.8094Q323.90625 346.5125 323.45312 346.3094Q323.01562 346.09064 322.78125 345.71564Q322.54688 345.34064 322.54688 344.8719Q322.54688 344.46564 322.73438 344.10626Q322.92188 343.7469 323.25 343.5125Q323.5 343.34064 323.92188 343.21564Q324.34375 343.09064 324.84375 343.09064Q325.5625 343.09064 326.10938 343.3094Q326.67188 343.5125 326.9375 343.8719Q327.20312 344.23126 327.29688 344.825L326.26562 344.96564Q326.20312 344.4969 325.85938 344.23126Q325.53125 343.95 324.90625 343.95Q324.1875 343.95 323.875 344.2Q323.5625 344.4344 323.5625 344.7625Q323.5625 344.96564 323.6875 345.1219Q323.82812 345.29376 324.09375 345.40314Q324.25 345.46564 325.03125 345.66876Q326.15625 345.98126 326.59375 346.16876Q327.03125 346.35626 327.28125 346.71564Q327.53125 347.075 327.53125 347.6219Q327.53125 348.15314 327.21875 348.6219Q326.92188 349.075 326.34375 349.34064Q325.76562 349.59064 325.03125 349.59064Q323.8125 349.59064 323.17188 349.09064Q322.54688 348.575 322.375 347.59064ZM330.48438 351.98126L329.73438 351.98126Q331.48438 349.16876 331.48438 346.34064Q331.48438 345.2469 331.23438 344.15314Q331.03125 343.27814 330.67188 342.46564Q330.4375 341.95 329.73438 340.71564L330.48438 340.71564Q331.57812 342.1844 332.10938 343.66876Q332.5625 344.95 332.5625 346.34064Q332.5625 347.91876 331.95312 349.40314Q331.34375 350.8719 330.48438 351.98126Z" fill-rule="nonzero"/><path fill="#000000" d="M27.550013 274.8198L27.675013 273.72604Q28.628138 273.97604 29.159388 274.67917Q29.690638 275.3823 29.690638 276.46042Q29.690638 277.8198 28.846888 278.6323Q28.003138 279.42917 26.487513 279.42917Q24.925013 279.42917 24.065638 278.61667Q23.190638 277.80417 23.190638 276.52292Q23.190638 275.27292 24.034388 274.49167Q24.878138 273.6948 26.425013 273.6948Q26.518763 273.6948 26.706263 273.6948L26.706263 278.33542Q27.737513 278.27292 28.284388 277.7573Q28.815638 277.24167 28.815638 276.46042Q28.815638 275.8823 28.518763 275.47604Q28.206263 275.05417 27.550013 274.8198ZM25.846888 278.27292L25.846888 274.80417Q25.050013 274.86667 24.659388 275.1948Q24.050013 275.71042 24.050013 276.5073Q24.050013 277.24167 24.534388 277.74167Q25.018763 278.22604 25.846888 278.27292ZM29.550013 272.77292L26.315638 270.5073L23.331263 272.60104L23.331263 271.28854L24.784388 270.33542Q25.206263 270.0698 25.487513 269.89792Q25.096888 269.64792 24.800013 269.42917L23.331263 268.3823L23.331263 267.11667L26.253138 269.27292L29.550013 266.96042L29.550013 268.24167L27.612513 269.52292L27.096888 269.86667L29.550013 271.5073L29.550013 272.77292ZM27.550013 262.8198L27.675013 261.72604Q28.628138 261.97604 29.159388 262.67917Q29.690638 263.3823 29.690638 264.46042Q29.690638 265.8198 28.846888 266.6323Q28.003138 267.42917 26.487513 267.42917Q24.925013 267.42917 24.065638 266.61667Q23.190638 265.80417 23.190638 264.52292Q23.190638 263.27292 24.034388 262.49167Q24.878138 261.6948 26.425013 261.6948Q26.518763 261.6948 26.706263 261.6948L26.706263 266.33542Q27.737513 266.27292 28.284388 265.7573Q28.815638 265.24167 28.815638 264.46042Q28.815638 263.8823 28.518763 263.47604Q28.206263 263.05417 27.550013 262.8198ZM25.846888 266.27292L25.846888 262.80417Q25.050013 262.86667 24.659388 263.1948Q24.050013 263.71042 24.050013 264.5073Q24.050013 265.24167 24.534388 265.74167Q25.018763 266.22604 25.846888 266.27292ZM27.268763 256.0073L27.409388 254.97604Q28.471888 255.14792 29.081263 255.85104Q29.690638 256.55417 29.690638 257.5698Q29.690638 258.85104 28.862513 259.6323Q28.018763 260.39792 26.456263 260.39792Q25.456263 260.39792 24.706263 260.0698Q23.940638 259.72604 23.565638 259.05417Q23.190638 258.36667 23.190638 257.55417Q23.190638 256.55417 23.706263 255.91354Q24.206263 255.2573 25.159388 255.0698L25.315638 256.10104Q24.690638 256.24167 24.378138 256.61667Q24.050013 256.99167 24.050013 257.52292Q24.050013 258.3198 24.628138 258.8198Q25.190638 259.3198 26.425013 259.3198Q27.690638 259.3198 28.253138 258.83542Q28.815638 258.35104 28.815638 257.58542Q28.815638 256.96042 28.440638 256.55417Q28.065638 256.1323 27.268763 256.0073ZM28.612513 248.77292L29.534388 248.61667Q29.628138 249.0698 29.628138 249.41354Q29.628138 249.99167 29.456263 250.30417Q29.268763 250.61667 28.971888 250.7573Q28.675013 250.8823 27.721888 250.8823L24.143763 250.8823L24.143763 251.64792L23.331263 251.64792L23.331263 250.8823L21.784388 250.8823L21.159388 249.83542L23.331263 249.83542L23.331263 248.77292L24.143763 248.77292L24.143763 249.83542L27.784388 249.83542Q28.237513 249.83542 28.362513 249.78854Q28.487513 249.72604 28.565638 249.60104Q28.643763 249.47604 28.643763 249.24167Q28.643763 249.05417 28.612513 248.77292ZM22.175013 248.0698L20.956263 248.0698L20.956263 247.0073L22.175013 247.0073L22.175013 248.0698ZM29.550013 248.0698L23.331263 248.0698L23.331263 247.0073L29.550013 247.0073L29.550013 248.0698ZM29.550013 245.0698L23.331263 245.0698L23.331263 244.1323L24.206263 244.1323Q23.737513 243.83542 23.471888 243.35104Q23.190638 242.86667 23.190638 242.24167Q23.190638 241.55417 23.471888 241.11667Q23.753138 240.66354 24.268763 240.49167Q23.190638 239.74167 23.190638 238.5698Q23.190638 237.6323 23.706263 237.14792Q24.206263 236.64792 25.284388 236.64792L29.550013 236.64792L29.550013 237.6948L25.628138 237.6948Q25.003138 237.6948 24.721888 237.80417Q24.440638 237.89792 24.268763 238.16354Q24.096888 238.42917 24.096888 238.80417Q24.096888 239.46042 24.534388 239.89792Q24.971888 240.3198 25.940638 240.3198L29.550013 240.3198L29.550013 241.3823L25.503138 241.3823Q24.800013 241.3823 24.456263 241.64792Q24.096888 241.89792 24.096888 242.47604Q24.096888 242.92917 24.331263 243.30417Q24.565638 243.67917 25.018763 243.85104Q25.471888 244.02292 26.315638 244.02292L29.550013 244.02292L29.550013 245.0698ZM27.550013 229.8198L27.675013 228.72604Q28.628138 228.97604 29.159388 229.67917Q29.690638 230.3823 29.690638 231.46042Q29.690638 232.8198 28.846888 233.6323Q28.003138 234.42917 26.487513 234.42917Q24.925013 234.42917 24.065638 233.61667Q23.190638 232.80417 23.190638 231.52292Q23.190638 230.27292 24.034388 229.49167Q24.878138 228.6948 26.425013 228.6948Q26.518763 228.6948 26.706263 228.6948L26.706263 233.33542Q27.737513 233.27292 28.284388 232.7573Q28.815638 232.24167 28.815638 231.46042Q28.815638 230.8823 28.518763 230.47604Q28.206263 230.05417 27.550013 229.8198ZM25.846888 233.27292L25.846888 229.80417Q25.050013 229.86667 24.659388 230.1948Q24.050013 230.71042 24.050013 231.5073Q24.050013 232.24167 24.534388 232.74167Q25.018763 233.22604 25.846888 233.27292ZM31.940638 224.0698L23.331263 224.0698L23.331263 223.11667L24.128138 223.11667Q23.659388 222.77292 23.425013 222.35104Q23.190638 221.91354 23.190638 221.30417Q23.190638 220.5073 23.596888 219.89792Q24.003138 219.28854 24.753138 218.99167Q25.503138 218.67917 26.393763 218.67917Q27.346888 218.67917 28.112513 219.02292Q28.878138 219.35104 29.284388 220.0073Q29.690638 220.66354 29.690638 221.3823Q29.690638 221.91354 29.471888 222.33542Q29.237513 222.7573 28.909388 223.02292L31.940638 223.02292L31.940638 224.0698ZM26.471888 223.11667Q27.675013 223.11667 28.253138 222.6323Q28.815638 222.14792 28.815638 221.46042Q28.815638 220.7573 28.221888 220.2573Q27.628138 219.7573 26.378138 219.7573Q25.190638 219.7573 24.612513 220.24167Q24.018763 220.72604 24.018763 221.41354Q24.018763 222.08542 24.643763 222.60104Q25.268763 223.11667 26.471888 223.11667ZM27.550013 212.8198L27.675013 211.72604Q28.628138 211.97604 29.159388 212.67917Q29.690638 213.3823 29.690638 214.46042Q29.690638 215.8198 28.846888 216.6323Q28.003138 217.42917 26.487513 217.42917Q24.925013 217.42917 24.065638 216.61667Q23.190638 215.80417 23.190638 214.52292Q23.190638 213.27292 24.034388 212.49167Q24.878138 211.6948 26.425013 211.6948Q26.518763 211.6948 26.706263 211.6948L26.706263 216.33542Q27.737513 216.27292 28.284388 215.7573Q28.815638 215.24167 28.815638 214.46042Q28.815638 213.8823 28.518763 213.47604Q28.206263 213.05417 27.550013 212.8198ZM25.846888 216.27292L25.846888 212.80417Q25.050013 212.86667 24.659388 213.1948Q24.050013 213.71042 24.050013 214.5073Q24.050013 215.24167 24.534388 215.74167Q25.018763 216.22604 25.846888 216.27292ZM29.550013 210.08542L23.331263 210.08542L23.331263 209.1323L24.268763 209.1323Q23.612513 208.77292 23.409388 208.47604Q23.190638 208.16354 23.190638 207.78854Q23.190638 207.2573 23.518763 206.71042L24.503138 207.0698Q24.268763 207.46042 24.268763 207.83542Q24.268763 208.1948 24.487513 208.47604Q24.690638 208.74167 25.065638 208.85104Q25.628138 209.03854 26.284388 209.03854L29.550013 209.03854L29.550013 210.08542ZM22.175013 203.0698L20.956263 203.0698L20.956263 202.0073L22.175013 202.0073L22.175013 203.0698ZM29.550013 203.0698L23.331263 203.0698L23.331263 202.0073L29.550013 202.0073L29.550013 203.0698ZM29.550013 200.0698L23.331263 200.0698L23.331263 199.1323L24.206263 199.1323Q23.190638 198.4448 23.190638 197.14792Q23.190638 196.58542 23.393763 196.11667Q23.596888 195.6323 23.925013 195.39792Q24.253138 195.16354 24.690638 195.0698Q24.987513 195.02292 25.721888 195.02292L29.550013 195.02292L29.550013 196.0698L25.768763 196.0698Q25.112513 196.0698 24.800013 196.1948Q24.487513 196.3198 24.300013 196.6323Q24.096888 196.9448 24.096888 197.36667Q24.096888 198.03854 24.534388 198.53854Q24.956263 199.02292 26.143763 199.02292L29.550013 199.02292L29.550013 200.0698ZM27.690638 193.49167L27.534388 192.46042Q28.159388 192.36667 28.487513 191.97604Q28.815638 191.5698 28.815638 190.83542Q28.815638 190.11667 28.534388 189.77292Q28.237513 189.41354 27.831263 189.41354Q27.471888 189.41354 27.268763 189.72604Q27.128138 189.9448 26.909388 190.80417Q26.612513 191.96042 26.409388 192.41354Q26.190638 192.85104 25.815638 193.08542Q25.440638 193.3198 24.971888 193.3198Q24.565638 193.3198 24.206263 193.1323Q23.846888 192.9448 23.612513 192.61667Q23.440638 192.36667 23.315638 191.9448Q23.190638 191.52292 23.190638 191.02292Q23.190638 190.30417 23.409388 189.7573Q23.612513 189.1948 23.971888 188.92917Q24.331263 188.66354 24.925013 188.5698L25.065638 189.60104Q24.596888 189.66354 24.331263 190.0073Q24.050013 190.33542 24.050013 190.96042Q24.050013 191.67917 24.300013 191.99167Q24.534388 192.30417 24.862513 192.30417Q25.065638 192.30417 25.221888 192.17917Q25.393763 192.03854 25.503138 191.77292Q25.565638 191.61667 25.768763 190.83542Q26.081263 189.71042 26.268763 189.27292Q26.456263 188.83542 26.815638 188.58542Q27.175013 188.33542 27.721888 188.33542Q28.253138 188.33542 28.721888 188.64792Q29.175013 188.9448 29.440638 189.52292Q29.690638 190.10104 29.690638 190.83542Q29.690638 192.05417 29.190638 192.6948Q28.675013 193.3198 27.690638 193.49167ZM28.612513 183.77292L29.534388 183.61667Q29.628138 184.0698 29.628138 184.41354Q29.628138 184.99167 29.456263 185.30417Q29.268763 185.61667 28.971888 185.7573Q28.675013 185.8823 27.721888 185.8823L24.143763 185.8823L24.143763 186.64792L23.331263 186.64792L23.331263 185.8823L21.784388 185.8823L21.159388 184.83542L23.331263 184.83542L23.331263 183.77292L24.143763 183.77292L24.143763 184.83542L27.784388 184.83542Q28.237513 184.83542 28.362513 184.78854Q28.487513 184.72604 28.565638 184.60104Q28.643763 184.47604 28.643763 184.24167Q28.643763 184.05417 28.612513 183.77292ZM29.550013 183.08542L23.331263 183.08542L23.331263 182.1323L24.268763 182.1323Q23.612513 181.77292 23.409388 181.47604Q23.190638 181.16354 23.190638 180.78854Q23.190638 180.2573 23.518763 179.71042L24.503138 180.0698Q24.268763 180.46042 24.268763 180.83542Q24.268763 181.1948 24.487513 181.47604Q24.690638 181.74167 25.065638 181.85104Q25.628138 182.03854 26.284388 182.03854L29.550013 182.03854L29.550013 183.08542ZM29.550013 174.99167L28.628138 174.99167Q29.690638 175.72604 29.690638 176.97604Q29.690638 177.52292 29.487513 178.0073Q29.268763 178.47604 28.956263 178.71042Q28.628138 178.9448 28.159388 179.03854Q27.862513 179.10104 27.175013 179.10104L23.331263 179.10104L23.331263 178.03854L26.784388 178.03854Q27.596888 178.03854 27.893763 177.97604Q28.300013 177.8823 28.550013 177.5698Q28.784388 177.24167 28.784388 176.7573Q28.784388 176.28854 28.550013 175.8823Q28.300013 175.46042 27.878138 175.28854Q27.456263 175.10104 26.659388 175.10104L23.331263 175.10104L23.331263 174.05417L29.550013 174.05417L29.550013 174.99167ZM27.268763 168.0073L27.409388 166.97604Q28.471888 167.14792 29.081263 167.85104Q29.690638 168.55417 29.690638 169.5698Q29.690638 170.85104 28.862513 171.6323Q28.018763 172.39792 26.456263 172.39792Q25.456263 172.39792 24.706263 172.0698Q23.940638 171.72604 23.565638 171.05417Q23.190638 170.36667 23.190638 169.55417Q23.190638 168.55417 23.706263 167.91354Q24.206263 167.2573 25.159388 167.0698L25.315638 168.10104Q24.690638 168.24167 24.378138 168.61667Q24.050013 168.99167 24.050013 169.52292Q24.050013 170.3198 24.628138 170.8198Q25.190638 171.3198 26.425013 171.3198Q27.690638 171.3198 28.253138 170.83542Q28.815638 170.35104 28.815638 169.58542Q28.815638 168.96042 28.440638 168.55417Q28.065638 168.1323 27.268763 168.0073ZM28.612513 163.77292L29.534388 163.61667Q29.628138 164.0698 29.628138 164.41354Q29.628138 164.99167 29.456263 165.30417Q29.268763 165.61667 28.971888 165.7573Q28.675013 165.8823 27.721888 165.8823L24.143763 165.8823L24.143763 166.64792L23.331263 166.64792L23.331263 165.8823L21.784388 165.8823L21.159388 164.83542L23.331263 164.83542L23.331263 163.77292L24.143763 163.77292L24.143763 164.83542L27.784388 164.83542Q28.237513 164.83542 28.362513 164.78854Q28.487513 164.72604 28.565638 164.60104Q28.643763 164.47604 28.643763 164.24167Q28.643763 164.05417 28.612513 163.77292ZM22.175013 163.0698L20.956263 163.0698L20.956263 162.0073L22.175013 162.0073L22.175013 163.0698ZM29.550013 163.0698L23.331263 163.0698L23.331263 162.0073L29.550013 162.0073L29.550013 163.0698ZM26.440638 160.46042Q24.706263 160.46042 23.878138 159.5073Q23.190638 158.71042 23.190638 157.55417Q23.190638 156.27292 24.034388 155.46042Q24.862513 154.6323 26.346888 154.6323Q27.550013 154.6323 28.237513 154.99167Q28.925013 155.35104 29.315638 156.05417Q29.690638 156.74167 29.690638 157.55417Q29.690638 158.85104 28.862513 159.66354Q28.018763 160.46042 26.440638 160.46042ZM26.440638 159.3823Q27.628138 159.3823 28.221888 158.86667Q28.815638 158.33542 28.815638 157.55417Q28.815638 156.7573 28.221888 156.24167Q27.628138 155.72604 26.409388 155.72604Q25.253138 155.72604 24.659388 156.2573Q24.065638 156.77292 24.065638 157.55417Q24.065638 158.33542 24.659388 158.86667Q25.237513 159.3823 26.440638 159.3823ZM29.550013 153.0698L23.331263 153.0698L23.331263 152.1323L24.206263 152.1323Q23.190638 151.4448 23.190638 150.14792Q23.190638 149.58542 23.393763 149.11667Q23.596888 148.6323 23.925013 148.39792Q24.253138 148.16354 24.690638 148.0698Q24.987513 148.02292 25.721888 148.02292L29.550013 148.02292L29.550013 149.0698L25.768763 149.0698Q25.112513 149.0698 24.800013 149.1948Q24.487513 149.3198 24.300013 149.6323Q24.096888 149.9448 24.096888 150.36667Q24.096888 151.03854 24.534388 151.53854Q24.956263 152.02292 26.143763 152.02292L29.550013 152.02292L29.550013 153.0698ZM32.08126 141.05417Q30.971888 141.92917 29.503138 142.53854Q28.018763 143.1323 26.440638 143.1323Q25.050013 143.1323 23.768763 142.6948Q22.284388 142.16354 20.815638 141.05417L20.815638 140.30417Q22.034388 141.0073 22.550013 141.24167Q23.362513 141.60104 24.237513 141.80417Q25.331263 142.05417 26.440638 142.05417Q29.268763 142.05417 32.08126 140.30417L32.08126 141.05417ZM29.550013 139.0698L23.331263 139.0698L23.331263 138.1323L24.206263 138.1323Q23.190638 137.4448 23.190638 136.14792Q23.190638 135.58542 23.393763 135.11667Q23.596888 134.6323 23.925013 134.39792Q24.253138 134.16354 24.690638 134.0698Q24.987513 134.02292 25.721888 134.02292L29.550013 134.02292L29.550013 135.0698L25.768763 135.0698Q25.112513 135.0698 24.800013 135.1948Q24.487513 135.3198 24.300013 135.6323Q24.096888 135.9448 24.096888 136.36667Q24.096888 137.03854 24.534388 137.53854Q24.956263 138.02292 26.143763 138.02292L29.550013 138.02292L29.550013 139.0698ZM27.690638 132.49167L27.534388 131.46042Q28.159388 131.36667 28.487513 130.97604Q28.815638 130.5698 28.815638 129.83542Q28.815638 129.11667 28.534388 128.77292Q28.237513 128.41354 27.831263 128.41354Q27.471888 128.41354 27.268763 128.72604Q27.128138 128.9448 26.909388 129.80417Q26.612513 130.96042 26.409388 131.41354Q26.190638 131.85104 25.815638 132.08542Q25.440638 132.3198 24.971888 132.3198Q24.565638 132.3198 24.206263 132.1323Q23.846888 131.9448 23.612513 131.61667Q23.440638 131.36667 23.315638 130.9448Q23.190638 130.52292 23.190638 130.02292Q23.190638 129.30417 23.409388 128.7573Q23.612513 128.1948 23.971888 127.92917Q24.331263 127.66354 24.925013 127.56979L25.065638 128.60104Q24.596888 128.66354 24.331263 129.0073Q24.050013 129.33542 24.050013 129.96042Q24.050013 130.67917 24.300013 130.99167Q24.534388 131.30417 24.862513 131.30417Q25.065638 131.30417 25.221888 131.17917Q25.393763 131.03854 25.503138 130.77292Q25.565638 130.61667 25.768763 129.83542Q26.081263 128.71042 26.268763 128.27292Q26.456263 127.83542 26.815638 127.58542Q27.175013 127.33542 27.721888 127.33542Q28.253138 127.33542 28.721888 127.64792Q29.175013 127.94479 29.440638 128.52292Q29.690638 129.10104 29.690638 129.83542Q29.690638 131.05417 29.190638 131.6948Q28.675013 132.3198 27.690638 132.49167ZM32.08126 124.38229L32.08126 125.13229Q29.268763 123.38229 26.440638 123.38229Q25.346888 123.38229 24.253138 123.63229Q23.378138 123.83542 22.565638 124.19479Q22.050013 124.42917 20.815638 125.13229L20.815638 124.38229Q22.284388 123.28854 23.768763 122.75729Q25.050013 122.30417 26.440638 122.30417Q28.018763 122.30417 29.503138 122.91354Q30.971888 123.52292 32.08126 124.38229Z" fill-rule="nonzero"/><path fill="#000000" d="M65.05 300.21564Q65.05 298.6844 65.3625 297.7625Q65.675 296.825 66.28438 296.325Q66.90938 295.825 67.84688 295.825Q68.53438 295.825 69.05 296.10626Q69.58125 296.3875 69.925 296.91876Q70.26875 297.4344 70.45625 298.1844Q70.64375 298.9344 70.64375 300.21564Q70.64375 301.73126 70.33125 302.65314Q70.03438 303.575 69.40938 304.09064Q68.8 304.59064 67.84688 304.59064Q66.6125 304.59064 65.89375 303.7Q65.05 302.6375 65.05 300.21564ZM66.12813 300.21564Q66.12813 302.325 66.62813 303.02814Q67.12813 303.73126 67.84688 303.73126Q68.58125 303.73126 69.06563 303.02814Q69.56563 302.325 69.56563 300.21564Q69.56563 298.09064 69.06563 297.40314Q68.58125 296.7 67.83125 296.7Q67.1125 296.7 66.675 297.3094Q66.12813 298.09064 66.12813 300.21564Z" fill-rule="nonzero"/><path fill="#000000" d="M63.596874 232.71216L63.596874 233.72778L57.909374 233.72778Q57.909374 233.35278 58.034374 232.99341Q58.253124 232.41528 58.721874 231.85278Q59.20625 231.29028 60.1125 230.55591Q61.51875 229.39966 62.003124 228.72778Q62.503124 228.05591 62.503124 227.46216Q62.503124 226.83716 62.05 226.41528Q61.596874 225.97778 60.878124 225.97778Q60.1125 225.97778 59.659374 226.43091Q59.20625 226.88403 59.190624 227.69653L58.1125 227.58716Q58.221874 226.36841 58.940624 225.74341Q59.675 225.10278 60.909374 225.10278Q62.14375 225.10278 62.8625 225.79028Q63.58125 226.47778 63.58125 227.49341Q63.58125 228.00903 63.3625 228.50903Q63.159374 228.99341 62.659374 229.55591Q62.175 230.10278 61.05 231.05591Q60.096874 231.85278 59.815624 232.14966Q59.55 232.43091 59.378124 232.71216L63.596874 232.71216ZM65.05 229.49341Q65.05 227.96216 65.3625 227.04028Q65.675 226.10278 66.28438 225.60278Q66.90938 225.10278 67.84688 225.10278Q68.53438 225.10278 69.05 225.38403Q69.58125 225.66528 69.925 226.19653Q70.26875 226.71216 70.45625 227.46216Q70.64375 228.21216 70.64375 229.49341Q70.64375 231.00903 70.33125 231.93091Q70.03438 232.85278 69.40938 233.36841Q68.8 233.86841 67.84688 233.86841Q66.6125 233.86841 65.89375 232.97778Q65.05 231.91528 65.05 229.49341ZM66.12813 229.49341Q66.12813 231.60278 66.62813 232.30591Q67.12813 233.00903 67.84688 233.00903Q68.58125 233.00903 69.06563 232.30591Q69.56563 231.60278 69.56563 229.49341Q69.56563 227.36841 69.06563 226.68091Q68.58125 225.97778 67.83125 225.97778Q67.1125 225.97778 66.675 226.58716Q66.12813 227.36841 66.12813 229.49341Z" fill-rule="nonzero"/><path fill="#000000" d="M61.425 163.00555L61.425 160.94305L57.70625 160.94305L57.70625 159.9743L61.628124 154.4118L62.4875 154.4118L62.4875 159.9743L63.64375 159.9743L63.64375 160.94305L62.4875 160.94305L62.4875 163.00555L61.425 163.00555ZM61.425 159.9743L61.425 156.11493L58.7375 159.9743L61.425 159.9743ZM65.05 158.77118Q65.05 157.23993 65.3625 156.31805Q65.675 155.38055 66.28438 154.88055Q66.90938 154.38055 67.84688 154.38055Q68.53438 154.38055 69.05 154.6618Q69.58125 154.94305 69.925 155.4743Q70.26875 155.98993 70.45625 156.73993Q70.64375 157.48993 70.64375 158.77118Q70.64375 160.2868 70.33125 161.20868Q70.03438 162.13055 69.40938 162.64618Q68.8 163.14618 67.84688 163.14618Q66.6125 163.14618 65.89375 162.25555Q65.05 161.19305 65.05 158.77118ZM66.12813 158.77118Q66.12813 160.88055 66.62813 161.58368Q67.12813 162.2868 67.84688 162.2868Q68.58125 162.2868 69.06563 161.58368Q69.56563 160.88055 69.56563 158.77118Q69.56563 156.64618 69.06563 155.95868Q68.58125 155.25555 67.83125 155.25555Q67.1125 155.25555 66.675 155.86493Q66.12813 156.64618 66.12813 158.77118Z" fill-rule="nonzero"/><path fill="#000000" d="M63.51875 85.79896L62.471874 85.87708Q62.33125 85.25208 62.08125 84.97083Q61.64375 84.51771 61.01875 84.51771Q60.51875 84.51771 60.128124 84.79896Q59.64375 85.17396 59.346874 85.87708Q59.065624 86.56458 59.05 87.84583Q59.425 87.26771 59.971874 86.98646Q60.534374 86.70521 61.14375 86.70521Q62.190624 86.70521 62.925 87.48646Q63.675 88.26771 63.675 89.48646Q63.675 90.29896 63.315624 91.00208Q62.971874 91.68958 62.3625 92.06458Q61.753124 92.42396 60.9875 92.42396Q59.659374 92.42396 58.83125 91.45521Q58.003124 90.48646 58.003124 88.26771Q58.003124 85.76771 58.925 84.64271Q59.721874 83.65833 61.08125 83.65833Q62.096874 83.65833 62.7375 84.23646Q63.39375 84.79896 63.51875 85.79896ZM59.221874 89.50208Q59.221874 90.04896 59.440624 90.54896Q59.675 91.03333 60.08125 91.29896Q60.503124 91.56458 60.971874 91.56458Q61.628124 91.56458 62.1125 91.03333Q62.596874 90.48646 62.596874 89.56458Q62.596874 88.67396 62.1125 88.15833Q61.64375 87.64271 60.925 87.64271Q60.20625 87.64271 59.70625 88.15833Q59.221874 88.67396 59.221874 89.50208ZM65.05 88.04896Q65.05 86.51771 65.3625 85.59583Q65.675 84.65833 66.28438 84.15833Q66.90938 83.65833 67.84688 83.65833Q68.53438 83.65833 69.05 83.93958Q69.58125 84.22083 69.925 84.75208Q70.26875 85.26771 70.45625 86.01771Q70.64375 86.76771 70.64375 88.04896Q70.64375 89.56458 70.33125 90.48646Q70.03438 91.40833 69.40938 91.92396Q68.8 92.42396 67.84688 92.42396Q66.6125 92.42396 65.89375 91.53333Q65.05 90.47083 65.05 88.04896ZM66.12813 88.04896Q66.12813 90.15833 66.62813 90.86146Q67.12813 91.56458 67.84688 91.56458Q68.58125 91.56458 69.06563 90.86146Q69.56563 90.15833 69.56563 88.04896Q69.56563 85.92396 69.06563 85.23646Q68.58125 84.53333 67.83125 84.53333Q67.1125 84.53333 66.675 85.14271Q66.12813 85.92396 66.12813 88.04896Z" fill-rule="nonzero"/><path fill="#000000" d="M78.51875 317.45L77.47188 317.45L77.47188 310.73126Q77.08125 311.09064 76.45625 311.46564Q75.84688 311.825 75.3625 311.9969L75.3625 310.98126Q76.2375 310.5594 76.89375 309.98126Q77.56563 309.3875 77.84688 308.825L78.51875 308.825L78.51875 317.45Z" fill-rule="nonzero"/><path fill="#000000" d="M210.28162 317.45L209.23474 317.45L209.23474 310.73126Q208.84412 311.09064 208.21912 311.46564Q207.60974 311.825 207.12537 311.9969L207.12537 310.98126Q208.00037 310.5594 208.65662 309.98126Q209.32849 309.3875 209.60974 308.825L210.28162 308.825L210.28162 317.45ZM213.31287 313.21564Q213.31287 311.6844 213.62537 310.7625Q213.93787 309.825 214.54724 309.325Q215.17224 308.825 216.10974 308.825Q216.79724 308.825 217.31287 309.10626Q217.84412 309.3875 218.18787 309.91876Q218.53162 310.4344 218.71912 311.1844Q218.90662 311.9344 218.90662 313.21564Q218.90662 314.73126 218.59412 315.65314Q218.29724 316.575 217.67224 317.09064Q217.06287 317.59064 216.10974 317.59064Q214.87537 317.59064 214.15662 316.7Q213.31287 315.6375 213.31287 313.21564ZM214.39099 313.21564Q214.39099 315.325 214.89099 316.02814Q215.39099 316.73126 216.10974 316.73126Q216.84412 316.73126 217.32849 316.02814Q217.82849 315.325 217.82849 313.21564Q217.82849 311.09064 217.32849 310.40314Q216.84412 309.7 216.09412 309.7Q215.37537 309.7 214.93787 310.3094Q214.39099 311.09064 214.39099 313.21564Z" fill-rule="nonzero"/><path fill="#000000" d="M342.0445 317.45L340.99762 317.45L340.99762 310.73126Q340.607 311.09064 339.982 311.46564Q339.37262 311.825 338.88824 311.9969L338.88824 310.98126Q339.76324 310.5594 340.4195 309.98126Q341.09137 309.3875 341.37262 308.825L342.0445 308.825L342.0445 317.45ZM345.07574 313.21564Q345.07574 311.6844 345.38824 310.7625Q345.70074 309.825 346.31012 309.325Q346.93512 308.825 347.87262 308.825Q348.56012 308.825 349.07574 309.10626Q349.607 309.3875 349.95074 309.91876Q350.2945 310.4344 350.482 311.1844Q350.6695 311.9344 350.6695 313.21564Q350.6695 314.73126 350.357 315.65314Q350.06012 316.575 349.43512 317.09064Q348.82574 317.59064 347.87262 317.59064Q346.63824 317.59064 345.9195 316.7Q345.07574 315.6375 345.07574 313.21564ZM346.15387 313.21564Q346.15387 315.325 346.65387 316.02814Q347.15387 316.73126 347.87262 316.73126Q348.607 316.73126 349.09137 316.02814Q349.59137 315.325 349.59137 313.21564Q349.59137 311.09064 349.09137 310.40314Q348.607 309.7 347.857 309.7Q347.13824 309.7 346.70074 310.3094Q346.15387 311.09064 346.15387 313.21564ZM352.07574 313.21564Q352.07574 311.6844 352.38824 310.7625Q352.70074 309.825 353.31012 309.325Q353.93512 308.825 354.87262 308.825Q355.56012 308.825 356.07574 309.10626Q356.607 309.3875 356.95074 309.91876Q357.2945 310.4344 357.482 311.1844Q357.6695 311.9344 357.6695 313.21564Q357.6695 314.73126 357.357 315.65314Q357.06012 316.575 356.43512 317.09064Q355.82574 317.59064 354.87262 317.59064Q353.63824 317.59064 352.9195 316.7Q352.07574 315.6375 352.07574 313.21564ZM353.15387 313.21564Q353.15387 315.325 353.65387 316.02814Q354.15387 316.73126 354.87262 316.73126Q355.607 316.73126 356.09137 316.02814Q356.59137 315.325 356.59137 313.21564Q356.59137 311.09064 356.09137 310.40314Q355.607 309.7 354.857 309.7Q354.13824 309.7 353.70074 310.3094Q353.15387 311.09064 353.15387 313.21564Z" fill-rule="nonzero"/><path fill="#000000" d="M473.80737 317.45L472.7605 317.45L472.7605 310.73126Q472.36987 311.09064 471.74487 311.46564Q471.1355 311.825 470.65112 311.9969L470.65112 310.98126Q471.52612 310.5594 472.18237 309.98126Q472.85425 309.3875 473.1355 308.825L473.80737 308.825L473.80737 317.45ZM476.83862 313.21564Q476.83862 311.6844 477.15112 310.7625Q477.46362 309.825 478.073 309.325Q478.698 308.825 479.6355 308.825Q480.323 308.825 480.83862 309.10626Q481.36987 309.3875 481.71362 309.91876Q482.05737 310.4344 482.24487 311.1844Q482.43237 311.9344 482.43237 313.21564Q482.43237 314.73126 482.11987 315.65314Q481.823 316.575 481.198 317.09064Q480.58862 317.59064 479.6355 317.59064Q478.40112 317.59064 477.68237 316.7Q476.83862 315.6375 476.83862 313.21564ZM477.91675 313.21564Q477.91675 315.325 478.41675 316.02814Q478.91675 316.73126 479.6355 316.73126Q480.36987 316.73126 480.85425 316.02814Q481.35425 315.325 481.35425 313.21564Q481.35425 311.09064 480.85425 310.40314Q480.36987 309.7 479.61987 309.7Q478.90112 309.7 478.46362 310.3094Q477.91675 311.09064 477.91675 313.21564ZM483.83862 313.21564Q483.83862 311.6844 484.15112 310.7625Q484.46362 309.825 485.073 309.325Q485.698 308.825 486.6355 308.825Q487.323 308.825 487.83862 309.10626Q488.36987 309.3875 488.71362 309.91876Q489.05737 310.4344 489.24487 311.1844Q489.43237 311.9344 489.43237 313.21564Q489.43237 314.73126 489.11987 315.65314Q488.823 316.575 488.198 317.09064Q487.58862 317.59064 486.6355 317.59064Q485.40112 317.59064 484.68237 316.7Q483.83862 315.6375 483.83862 313.21564ZM484.91675 313.21564Q484.91675 315.325 485.41675 316.02814Q485.91675 316.73126 486.6355 316.73126Q487.36987 316.73126 487.85425 316.02814Q488.35425 315.325 488.35425 313.21564Q488.35425 311.09064 487.85425 310.40314Q487.36987 309.7 486.61987 309.7Q485.90112 309.7 485.46362 310.3094Q484.91675 311.09064 484.91675 313.21564ZM490.83862 313.21564Q490.83862 311.6844 491.15112 310.7625Q491.46362 309.825 492.073 309.325Q492.698 308.825 493.6355 308.825Q494.323 308.825 494.83862 309.10626Q495.36987 309.3875 495.71362 309.91876Q496.05737 310.4344 496.24487 311.1844Q496.43237 311.9344 496.43237 313.21564Q496.43237 314.73126 496.11987 315.65314Q495.823 316.575 495.198 317.09064Q494.58862 317.59064 493.6355 317.59064Q492.40112 317.59064 491.68237 316.7Q490.83862 315.6375 490.83862 313.21564ZM491.91675 313.21564Q491.91675 315.325 492.41675 316.02814Q492.91675 316.73126 493.6355 316.73126Q494.36987 316.73126 494.85425 316.02814Q495.35425 315.325 495.35425 313.21564Q495.35425 311.09064 494.85425 310.40314Q494.36987 309.7 493.61987 309.7Q492.90112 309.7 492.46362 310.3094Q491.91675 311.09064 491.91675 313.21564Z" fill-rule="nonzero"/><path stroke="#4285f4" stroke-width="4.0" stroke-linecap="butt" d="M46.0 61.916668L58.0 61.916668" fill-rule="nonzero"/><path fill="#1a1a1a" d="M66.875 65.916664L66.875 57.322914L70.109375 57.322914Q71.09375 57.322914 71.6875 57.58854Q72.28125 57.854164 72.609375 58.40104Q72.953125 58.93229 72.953125 59.52604Q72.953125 60.072914 72.65625 60.55729Q72.359375 61.041664 71.75 61.33854Q72.53125 61.572914 72.9375 62.135414Q73.359375 62.68229 73.359375 63.43229Q73.359375 64.02604 73.109375 64.55729Q72.859375 65.072914 72.484375 65.354164Q72.109375 65.635414 71.53125 65.77604Q70.96875 65.916664 70.15625 65.916664L66.875 65.916664ZM68.015625 60.93229L69.875 60.93229Q70.625 60.93229 70.953125 60.83854Q71.390625 60.71354 71.609375 60.416664Q71.828125 60.104164 71.828125 59.65104Q71.828125 59.229164 71.625 58.90104Q71.421875 58.572914 71.03125 58.46354Q70.65625 58.33854 69.734375 58.33854L68.015625 58.33854L68.015625 60.93229ZM68.015625 64.90104L70.15625 64.90104Q70.703125 64.90104 70.921875 64.854164Q71.328125 64.791664 71.578125 64.635414Q71.84375 64.46354 72.015625 64.15104Q72.1875 63.83854 72.1875 63.43229Q72.1875 62.947914 71.9375 62.58854Q71.703125 62.229164 71.265625 62.08854Q70.828125 61.947914 70.0 61.947914L68.015625 61.947914L68.015625 64.90104ZM78.859375 65.15104Q78.265625 65.65104 77.71875 65.854164Q77.1875 66.05729 76.5625 66.05729Q75.53125 66.05729 74.984375 65.55729Q74.4375 65.05729 74.4375 64.27604Q74.4375 63.822914 74.640625 63.447914Q74.84375 63.05729 75.1875 62.83854Q75.53125 62.604164 75.953125 62.49479Q76.25 62.40104 76.890625 62.322914Q78.15625 62.18229 78.765625 61.96354Q78.765625 61.74479 78.765625 61.697914Q78.765625 61.041664 78.46875 60.77604Q78.0625 60.43229 77.265625 60.43229Q76.53125 60.43229 76.171875 60.697914Q75.8125 60.947914 75.640625 61.604164L74.609375 61.46354Q74.75 60.80729 75.078125 60.40104Q75.40625 59.99479 76.015625 59.77604Q76.625 59.55729 77.421875 59.55729Q78.21875 59.55729 78.71875 59.74479Q79.21875 59.93229 79.453125 60.21354Q79.6875 60.49479 79.78125 60.93229Q79.828125 61.197914 79.828125 61.90104L79.828125 63.30729Q79.828125 64.77604 79.890625 65.166664Q79.96875 65.55729 80.171875 65.916664L79.0625 65.916664Q78.90625 65.58854 78.859375 65.15104ZM78.765625 62.791664Q78.1875 63.02604 77.046875 63.197914Q76.390625 63.291664 76.125 63.416664Q75.859375 63.52604 75.703125 63.74479Q75.5625 63.96354 75.5625 64.24479Q75.5625 64.666664 75.875 64.947914Q76.203125 65.229164 76.8125 65.229164Q77.421875 65.229164 77.890625 64.96354Q78.375 64.697914 78.59375 64.229164Q78.765625 63.86979 78.765625 63.18229L78.765625 62.791664ZM81.375 64.05729L82.40625 63.90104Q82.5 64.52604 82.890625 64.854164Q83.296875 65.18229 84.03125 65.18229Q84.75 65.18229 85.09375 64.90104Q85.453125 64.604164 85.453125 64.197914Q85.453125 63.83854 85.140625 63.635414Q84.921875 63.49479 84.0625 63.27604Q82.90625 62.979164 82.453125 62.77604Q82.015625 62.55729 81.78125 62.18229Q81.546875 61.80729 81.546875 61.33854Q81.546875 60.93229 81.734375 60.572914Q81.921875 60.21354 82.25 59.979164Q82.5 59.80729 82.921875 59.68229Q83.34375 59.55729 83.84375 59.55729Q84.5625 59.55729 85.109375 59.77604Q85.671875 59.979164 85.9375 60.33854Q86.203125 60.697914 86.296875 61.291664L85.265625 61.43229Q85.203125 60.96354 84.859375 60.697914Q84.53125 60.416664 83.90625 60.416664Q83.1875 60.416664 82.875 60.666664Q82.5625 60.90104 82.5625 61.229164Q82.5625 61.43229 82.6875 61.58854Q82.828125 61.760414 83.09375 61.86979Q83.25 61.93229 84.03125 62.135414Q85.15625 62.447914 85.59375 62.635414Q86.03125 62.822914 86.28125 63.18229Q86.53125 63.541664 86.53125 64.08854Q86.53125 64.61979 86.21875 65.08854Q85.921875 65.541664 85.34375 65.80729Q84.765625 66.05729 84.03125 66.05729Q82.8125 66.05729 82.171875 65.55729Q81.546875 65.041664 81.375 64.05729ZM93.046875 63.916664L94.140625 64.041664Q93.890625 64.99479 93.1875 65.52604Q92.484375 66.05729 91.40625 66.05729Q90.046875 66.05729 89.234375 65.21354Q88.4375 64.36979 88.4375 62.854164Q88.4375 61.291664 89.25 60.43229Q90.0625 59.55729 91.34375 59.55729Q92.59375 59.55729 93.375 60.40104Q94.171875 61.24479 94.171875 62.791664Q94.171875 62.885414 94.171875 63.072914L89.53125 63.072914Q89.59375 64.104164 90.109375 64.65104Q90.625 65.18229 91.40625 65.18229Q91.984375 65.18229 92.390625 64.885414Q92.8125 64.572914 93.046875 63.916664ZM89.59375 62.21354L93.0625 62.21354Q93.0 61.416664 92.671875 61.02604Q92.15625 60.416664 91.359375 60.416664Q90.625 60.416664 90.125 60.90104Q89.640625 61.385414 89.59375 62.21354ZM95.765625 65.916664L95.765625 57.322914L96.828125 57.322914L96.828125 65.916664L95.765625 65.916664ZM98.796875 58.541664L98.796875 57.322914L99.859375 57.322914L99.859375 58.541664L98.796875 58.541664ZM98.796875 65.916664L98.796875 59.697914L99.859375 59.697914L99.859375 65.916664L98.796875 65.916664ZM101.796875 65.916664L101.796875 59.697914L102.734375 59.697914L102.734375 60.572914Q103.421875 59.55729 104.71875 59.55729Q105.28125 59.55729 105.75 59.760414Q106.234375 59.96354 106.46875 60.291664Q106.703125 60.61979 106.796875 61.05729Q106.84375 61.354164 106.84375 62.08854L106.84375 65.916664L105.796875 65.916664L105.796875 62.135414Q105.796875 61.479164 105.671875 61.166664Q105.546875 60.854164 105.234375 60.666664Q104.921875 60.46354 104.5 60.46354Q103.828125 60.46354 103.328125 60.90104Q102.84375 61.322914 102.84375 62.510414L102.84375 65.916664L101.796875 65.916664ZM113.046875 63.916664L114.140625 64.041664Q113.890625 64.99479 113.1875 65.52604Q112.484375 66.05729 111.40625 66.05729Q110.046875 66.05729 109.234375 65.21354Q108.4375 64.36979 108.4375 62.854164Q108.4375 61.291664 109.25 60.43229Q110.0625 59.55729 111.34375 59.55729Q112.59375 59.55729 113.375 60.40104Q114.171875 61.24479 114.171875 62.791664Q114.171875 62.885414 114.171875 63.072914L109.53125 63.072914Q109.59375 64.104164 110.109375 64.65104Q110.625 65.18229 111.40625 65.18229Q111.984375 65.18229 112.390625 64.885414Q112.8125 64.572914 113.046875 63.916664ZM109.59375 62.21354L113.0625 62.21354Q113.0 61.416664 112.671875 61.02604Q112.15625 60.416664 111.359375 60.416664Q110.625 60.416664 110.125 60.90104Q109.640625 61.385414 109.59375 62.21354Z" fill-rule="nonzero"/><path stroke="#ea4335" stroke-width="4.0" stroke-linecap="butt" d="M131.0 61.916668L143.0 61.916668" fill-rule="nonzero"/><path fill="#1a1a1a" d="M151.89062 65.916664L151.89062 57.322914L153.60938 57.322914L155.64062 63.40104Q155.92188 64.260414 156.04688 64.68229Q156.1875 64.21354 156.5 63.30729L158.5625 57.322914L160.09375 57.322914L160.09375 65.916664L159.0 65.916664L159.0 58.729164L156.5 65.916664L155.46875 65.916664L152.98438 58.604164L152.98438 65.916664L151.89062 65.916664ZM164.85938 65.15104Q164.26562 65.65104 163.71875 65.854164Q163.1875 66.05729 162.5625 66.05729Q161.53125 66.05729 160.98438 65.55729Q160.4375 65.05729 160.4375 64.27604Q160.4375 63.822914 160.64062 63.447914Q160.84375 63.05729 161.1875 62.83854Q161.53125 62.604164 161.95312 62.49479Q162.25 62.40104 162.89062 62.322914Q164.15625 62.18229 164.76562 61.96354Q164.76562 61.74479 164.76562 61.697914Q164.76562 61.041664 164.46875 60.77604Q164.0625 60.43229 163.26562 60.43229Q162.53125 60.43229 162.17188 60.697914Q161.8125 60.947914 161.64062 61.604164L160.60938 61.46354Q160.75 60.80729 161.07812 60.40104Q161.40625 59.99479 162.01562 59.77604Q162.625 59.55729 163.42188 59.55729Q164.21875 59.55729 164.71875 59.74479Q165.21875 59.93229 165.45312 60.21354Q165.6875 60.49479 165.78125 60.93229Q165.82812 61.197914 165.82812 61.90104L165.82812 63.30729Q165.82812 64.77604 165.89062 65.166664Q165.96875 65.55729 166.17188 65.916664L165.0625 65.916664Q164.90625 65.58854 164.85938 65.15104ZM164.76562 62.791664Q164.1875 63.02604 163.04688 63.197914Q162.39062 63.291664 162.125 63.416664Q161.85938 63.52604 161.70312 63.74479Q161.5625 63.96354 161.5625 64.24479Q161.5625 64.666664 161.875 64.947914Q162.20312 65.229164 162.8125 65.229164Q163.42188 65.229164 163.89062 64.96354Q164.375 64.697914 164.59375 64.229164Q164.76562 63.86979 164.76562 63.18229L164.76562 62.791664ZM167.09375 65.916664L169.35938 62.68229L167.26562 59.697914L168.57812 59.697914L169.53125 61.15104Q169.79688 61.572914 169.96875 61.854164Q170.21875 61.46354 170.4375 61.166664L171.48438 59.697914L172.75 59.697914L170.59375 62.61979L172.90625 65.916664L171.625 65.916664L170.34375 63.979164L170.0 63.46354L168.35938 65.916664L167.09375 65.916664Z" fill-rule="nonzero"/><path stroke="#fbbc04" stroke-width="4.0" stroke-linecap="butt" d="M188.0 61.916668L200.0 61.916668" fill-rule="nonzero"/><path fill="#1a1a1a" d="M208.96875 65.916664L208.96875 57.322914L210.09375 57.322914L210.09375 60.854164L214.5625 60.854164L214.5625 57.322914L215.70312 57.322914L215.70312 65.916664L214.5625 65.916664L214.5625 61.86979L210.09375 61.86979L210.09375 65.916664L208.96875 65.916664ZM224.0625 62.90104L225.1875 63.197914Q224.82812 64.58854 223.90625 65.322914Q222.98438 66.05729 221.64062 66.05729Q220.25 66.05729 219.375 65.49479Q218.5 64.93229 218.04688 63.86979Q217.59375 62.791664 217.59375 61.55729Q217.59375 60.21354 218.10938 59.21354Q218.625 58.21354 219.5625 57.697914Q220.51562 57.18229 221.65625 57.18229Q222.9375 57.18229 223.8125 57.83854Q224.70312 58.49479 225.04688 59.68229L223.92188 59.947914Q223.625 59.010414 223.04688 58.58854Q222.48438 58.15104 221.625 58.15104Q220.64062 58.15104 219.96875 58.635414Q219.3125 59.104164 219.03125 59.90104Q218.76562 60.697914 218.76562 61.55729Q218.76562 62.65104 219.07812 63.46354Q219.40625 64.27604 220.07812 64.68229Q220.75 65.08854 221.54688 65.08854Q222.5 65.08854 223.15625 64.541664Q223.82812 63.99479 224.0625 62.90104Z" fill-rule="nonzero"/><path stroke="#34a853" stroke-width="4.0" stroke-linecap="butt" d="M242.0 61.916668L254.0 61.916668" fill-rule="nonzero"/><path fill="#1a1a1a" d="M262.96875 65.916664L262.96875 57.322914L264.09375 57.322914L264.09375 60.854164L268.5625 60.854164L268.5625 57.322914L269.70312 57.322914L269.70312 65.916664L268.5625 65.916664L268.5625 61.86979L264.09375 61.86979L264.09375 65.916664L262.96875 65.916664ZM278.0625 62.90104L279.1875 63.197914Q278.82812 64.58854 277.90625 65.322914Q276.98438 66.05729 275.64062 66.05729Q274.25 66.05729 273.375 65.49479Q272.5 64.93229 272.04688 63.86979Q271.59375 62.791664 271.59375 61.55729Q271.59375 60.21354 272.10938 59.21354Q272.625 58.21354 273.5625 57.697914Q274.51562 57.18229 275.65625 57.18229Q276.9375 57.18229 277.8125 57.83854Q278.70312 58.49479 279.04688 59.68229L277.92188 59.947914Q277.625 59.010414 277.04688 58.58854Q276.48438 58.15104 275.625 58.15104Q274.64062 58.15104 273.96875 58.635414Q273.3125 59.104164 273.03125 59.90104Q272.76562 60.697914 272.76562 61.55729Q272.76562 62.65104 273.07812 63.46354Q273.40625 64.27604 274.07812 64.68229Q274.75 65.08854 275.54688 65.08854Q276.5 65.08854 277.15625 64.541664Q277.82812 63.99479 278.0625 62.90104ZM283.0 64.52604L283.0 62.166664L280.67188 62.166664L280.67188 61.18229L283.0 61.18229L283.0 58.854164L284.0 58.854164L284.0 61.18229L286.34375 61.18229L286.34375 62.166664L284.0 62.166664L284.0 64.52604L283.0 64.52604ZM287.89062 65.916664L287.89062 57.322914L289.60938 57.322914L291.64062 63.40104Q291.92188 64.260414 292.04688 64.68229Q292.1875 64.21354 292.5 63.30729L294.5625 57.322914L296.09375 57.322914L296.09375 65.916664L295.0 65.916664L295.0 58.729164L292.5 65.916664L291.46875 65.916664L288.98438 58.604164L288.98438 65.916664L287.89062 65.916664ZM300.85938 65.15104Q300.26562 65.65104 299.71875 65.854164Q299.1875 66.05729 298.5625 66.05729Q297.53125 66.05729 296.98438 65.55729Q296.4375 65.05729 296.4375 64.27604Q296.4375 63.822914 296.64062 63.447914Q296.84375 63.05729 297.1875 62.83854Q297.53125 62.604164 297.95312 62.49479Q298.25 62.40104 298.89062 62.322914Q300.15625 62.18229 300.76562 61.96354Q300.76562 61.74479 300.76562 61.697914Q300.76562 61.041664 300.46875 60.77604Q300.0625 60.43229 299.26562 60.43229Q298.53125 60.43229 298.17188 60.697914Q297.8125 60.947914 297.64062 61.604164L296.60938 61.46354Q296.75 60.80729 297.07812 60.40104Q297.40625 59.99479 298.01562 59.77604Q298.625 59.55729 299.42188 59.55729Q300.21875 59.55729 300.71875 59.74479Q301.21875 59.93229 301.45312 60.21354Q301.6875 60.49479 301.78125 60.93229Q301.82812 61.197914 301.82812 61.90104L301.82812 63.30729Q301.82812 64.77604 301.89062 65.166664Q301.96875 65.55729 302.17188 65.916664L301.0625 65.916664Q300.90625 65.58854 300.85938 65.15104ZM300.76562 62.791664Q300.1875 63.02604 299.04688 63.197914Q298.39062 63.291664 298.125 63.416664Q297.85938 63.52604 297.70312 63.74479Q297.5625 63.96354 297.5625 64.24479Q297.5625 64.666664 297.875 64.947914Q298.20312 65.229164 298.8125 65.229164Q299.42188 65.229164 299.89062 64.96354Q300.375 64.697914 300.59375 64.229164Q300.76562 63.86979 300.76562 63.18229L300.76562 62.791664ZM303.09375 65.916664L305.35938 62.68229L303.26562 59.697914L304.57812 59.697914L305.53125 61.15104Q305.79688 61.572914 305.96875 61.854164Q306.21875 61.46354 306.4375 61.166664L307.48438 59.697914L308.75 59.697914L306.59375 62.61979L308.90625 65.916664L307.625 65.916664L306.34375 63.979164L306.0 63.46354L304.35938 65.916664L303.09375 65.916664Z" fill-rule="nonzero"/><path stroke="#ff6d01" stroke-width="4.0" stroke-linecap="butt" d="M324.0 61.916668L336.0 61.916668" fill-rule="nonzero"/><path fill="#1a1a1a" d="M344.96875 65.916664L344.96875 57.322914L346.09375 57.322914L346.09375 60.854164L350.5625 60.854164L350.5625 57.322914L351.70312 57.322914L351.70312 65.916664L350.5625 65.916664L350.5625 61.86979L346.09375 61.86979L346.09375 65.916664L344.96875 65.916664ZM360.0625 62.90104L361.1875 63.197914Q360.82812 64.58854 359.90625 65.322914Q358.98438 66.05729 357.64062 66.05729Q356.25 66.05729 355.375 65.49479Q354.5 64.93229 354.04688 63.86979Q353.59375 62.791664 353.59375 61.55729Q353.59375 60.21354 354.10938 59.21354Q354.625 58.21354 355.5625 57.697914Q356.51562 57.18229 357.65625 57.18229Q358.9375 57.18229 359.8125 57.83854Q360.70312 58.49479 361.04688 59.68229L359.92188 59.947914Q359.625 59.010414 359.04688 58.58854Q358.48438 58.15104 357.625 58.15104Q356.64062 58.15104 355.96875 58.635414Q355.3125 59.104164 355.03125 59.90104Q354.76562 60.697914 354.76562 61.55729Q354.76562 62.65104 355.07812 63.46354Q355.40625 64.27604 356.07812 64.68229Q356.75 65.08854 357.54688 65.08854Q358.5 65.08854 359.15625 64.541664Q359.82812 63.99479 360.0625 62.90104ZM365.0 64.52604L365.0 62.166664L362.67188 62.166664L362.67188 61.18229L365.0 61.18229L365.0 58.854164L366.0 58.854164L366.0 61.18229L368.34375 61.18229L368.34375 62.166664L366.0 62.166664L366.0 64.52604L365.0 64.52604ZM369.89062 65.916664L369.89062 57.322914L371.60938 57.322914L373.64062 63.40104Q373.92188 64.260414 374.04688 64.68229Q374.1875 64.21354 374.5 63.30729L376.5625 57.322914L378.09375 57.322914L378.09375 65.916664L377.0 65.916664L377.0 58.729164L374.5 65.916664L373.46875 65.916664L370.98438 58.604164L370.98438 65.916664L369.89062 65.916664ZM382.85938 65.15104Q382.26562 65.65104 381.71875 65.854164Q381.1875 66.05729 380.5625 66.05729Q379.53125 66.05729 378.98438 65.55729Q378.4375 65.05729 378.4375 64.27604Q378.4375 63.822914 378.64062 63.447914Q378.84375 63.05729 379.1875 62.83854Q379.53125 62.604164 379.95312 62.49479Q380.25 62.40104 380.89062 62.322914Q382.15625 62.18229 382.76562 61.96354Q382.76562 61.74479 382.76562 61.697914Q382.76562 61.041664 382.46875 60.77604Q382.0625 60.43229 381.26562 60.43229Q380.53125 60.43229 380.17188 60.697914Q379.8125 60.947914 379.64062 61.604164L378.60938 61.46354Q378.75 60.80729 379.07812 60.40104Q379.40625 59.99479 380.01562 59.77604Q380.625 59.55729 381.42188 59.55729Q382.21875 59.55729 382.71875 59.74479Q383.21875 59.93229 383.45312 60.21354Q383.6875 60.49479 383.78125 60.93229Q383.82812 61.197914 383.82812 61.90104L383.82812 63.30729Q383.82812 64.77604 383.89062 65.166664Q383.96875 65.55729 384.17188 65.916664L383.0625 65.916664Q382.90625 65.58854 382.85938 65.15104ZM382.76562 62.791664Q382.1875 63.02604 381.04688 63.197914Q380.39062 63.291664 380.125 63.416664Q379.85938 63.52604 379.70312 63.74479Q379.5625 63.96354 379.5625 64.24479Q379.5625 64.666664 379.875 64.947914Q380.20312 65.229164 380.8125 65.229164Q381.42188 65.229164 381.89062 64.96354Q382.375 64.697914 382.59375 64.229164Q382.76562 63.86979 382.76562 63.18229L382.76562 62.791664ZM385.09375 65.916664L387.35938 62.68229L385.26562 59.697914L386.57812 59.697914L387.53125 61.15104Q387.79688 61.572914 387.96875 61.854164Q388.21875 61.46354 388.4375 61.166664L389.48438 59.697914L390.75 59.697914L388.59375 62.61979L390.90625 65.916664L389.625 65.916664L388.34375 63.979164L388.0 63.46354L386.35938 65.916664L385.09375 65.916664ZM393.0 64.52604L393.0 62.166664L390.67188 62.166664L390.67188 61.18229L393.0 61.18229L393.0 58.854164L394.0 58.854164L394.0 61.18229L396.34375 61.18229L396.34375 62.166664L394.0 62.166664L394.0 64.52604L393.0 64.52604ZM396.8125 68.30729L396.8125 67.541664L403.8125 67.541664L403.8125 68.30729L396.8125 68.30729ZM403.8125 68.30729L403.8125 67.541664L410.8125 67.541664L410.8125 68.30729L403.8125 68.30729ZM412.76562 65.916664L411.78125 65.916664L411.78125 57.322914L412.84375 57.322914L412.84375 60.385414Q413.51562 59.55729 414.54688 59.55729Q415.125 59.55729 415.625 59.791664Q416.14062 60.010414 416.46875 60.43229Q416.8125 60.854164 417.0 61.447914Q417.1875 62.041664 417.1875 62.71354Q417.1875 64.30729 416.39062 65.18229Q415.59375 66.05729 414.5 66.05729Q413.39062 66.05729 412.76562 65.135414L412.76562 65.916664ZM412.75 62.760414Q412.75 63.86979 413.0625 64.36979Q413.5625 65.18229 414.40625 65.18229Q415.09375 65.18229 415.59375 64.58854Q416.10938 63.99479 416.10938 62.791664Q416.10938 61.572914 415.625 60.99479Q415.14062 60.416664 414.45312 60.416664Q413.76562 60.416664 413.25 61.02604Q412.75 61.61979 412.75 62.760414ZM422.875 65.916664L422.875 64.99479Q422.14062 66.05729 420.89062 66.05729Q420.34375 66.05729 419.85938 65.854164Q419.39062 65.635414 419.15625 65.322914Q418.92188 64.99479 418.82812 64.52604Q418.76562 64.229164 418.76562 63.541664L418.76562 59.697914L419.82812 59.697914L419.82812 63.15104Q419.82812 63.96354 419.89062 64.260414Q419.98438 64.666664 420.29688 64.916664Q420.625 65.15104 421.10938 65.15104Q421.57812 65.15104 421.98438 64.916664Q422.40625 64.666664 422.57812 64.24479Q422.76562 63.822914 422.76562 63.02604L422.76562 59.697914L423.8125 59.697914L423.8125 65.916664L422.875 65.916664ZM425.79688 58.541664L425.79688 57.322914L426.85938 57.322914L426.85938 58.541664L425.79688 58.541664ZM425.79688 65.916664L425.79688 59.697914L426.85938 59.697914L426.85938 65.916664L425.79688 65.916664ZM428.76562 65.916664L428.76562 57.322914L429.82812 57.322914L429.82812 65.916664L428.76562 65.916664ZM434.09375 64.979164L434.25 65.90104Q433.79688 65.99479 433.45312 65.99479Q432.875 65.99479 432.5625 65.822914Q432.25 65.635414 432.10938 65.33854Q431.98438 65.041664 431.98438 64.08854L431.98438 60.510414L431.21875 60.510414L431.21875 59.697914L431.98438 59.697914L431.98438 58.15104L433.03125 57.52604L433.03125 59.697914L434.09375 59.697914L434.09375 60.510414L433.03125 60.510414L433.03125 64.15104Q433.03125 64.604164 433.07812 64.729164Q433.14062 64.854164 433.26562 64.93229Q433.39062 65.010414 433.625 65.010414Q433.8125 65.010414 434.09375 64.979164ZM434.79688 58.541664L434.79688 57.322914L435.85938 57.322914L435.85938 58.541664L434.79688 58.541664ZM434.79688 65.916664L434.79688 59.697914L435.85938 59.697914L435.85938 65.916664L434.79688 65.916664ZM437.79688 65.916664L437.79688 59.697914L438.73438 59.697914L438.73438 60.572914Q439.42188 59.55729 440.71875 59.55729Q441.28125 59.55729 441.75 59.760414Q442.23438 59.96354 442.46875 60.291664Q442.70312 60.61979 442.79688 61.05729Q442.84375 61.354164 442.84375 62.08854L442.84375 65.916664L441.79688 65.916664L441.79688 62.135414Q441.79688 61.479164 441.67188 61.166664Q441.54688 60.854164 441.23438 60.666664Q440.92188 60.46354 440.5 60.46354Q439.82812 60.46354 439.32812 60.90104Q438.84375 61.322914 438.84375 62.510414L438.84375 65.916664L437.79688 65.916664ZM443.8125 68.30729L443.8125 67.541664L450.8125 67.541664L450.8125 68.30729L443.8125 68.30729ZM451.79688 65.916664L451.79688 59.697914L452.73438 59.697914L452.73438 60.572914Q453.03125 60.104164 453.51562 59.83854Q454.0 59.55729 454.625 59.55729Q455.3125 59.55729 455.75 59.83854Q456.20312 60.11979 456.375 60.635414Q457.125 59.55729 458.29688 59.55729Q459.23438 59.55729 459.71875 60.072914Q460.21875 60.572914 460.21875 61.65104L460.21875 65.916664L459.17188 65.916664L459.17188 61.99479Q459.17188 61.36979 459.0625 61.08854Q458.96875 60.80729 458.70312 60.635414Q458.4375 60.46354 458.0625 60.46354Q457.40625 60.46354 456.96875 60.90104Q456.54688 61.33854 456.54688 62.30729L456.54688 65.916664L455.48438 65.916664L455.48438 61.86979Q455.48438 61.166664 455.21875 60.822914Q454.96875 60.46354 454.39062 60.46354Q453.9375 60.46354 453.5625 60.697914Q453.1875 60.93229 453.01562 61.385414Q452.84375 61.83854 452.84375 62.68229L452.84375 65.916664L451.79688 65.916664ZM467.04688 63.916664L468.14062 64.041664Q467.89062 64.99479 467.1875 65.52604Q466.48438 66.05729 465.40625 66.05729Q464.04688 66.05729 463.23438 65.21354Q462.4375 64.36979 462.4375 62.854164Q462.4375 61.291664 463.25 60.43229Q464.0625 59.55729 465.34375 59.55729Q466.59375 59.55729 467.375 60.40104Q468.17188 61.24479 468.17188 62.791664Q468.17188 62.885414 468.17188 63.072914L463.53125 63.072914Q463.59375 64.104164 464.10938 64.65104Q464.625 65.18229 465.40625 65.18229Q465.98438 65.18229 466.39062 64.885414Q466.8125 64.572914 467.04688 63.916664ZM463.59375 62.21354L467.0625 62.21354Q467.0 61.416664 466.67188 61.02604Q466.15625 60.416664 465.35938 60.416664Q464.625 60.416664 464.125 60.90104Q463.64062 61.385414 463.59375 62.21354ZM469.79688 65.916664L469.79688 59.697914L470.73438 59.697914L470.73438 60.572914Q471.03125 60.104164 471.51562 59.83854Q472.0 59.55729 472.625 59.55729Q473.3125 59.55729 473.75 59.83854Q474.20312 60.11979 474.375 60.635414Q475.125 59.55729 476.29688 59.55729Q477.23438 59.55729 477.71875 60.072914Q478.21875 60.572914 478.21875 61.65104L478.21875 65.916664L477.17188 65.916664L477.17188 61.99479Q477.17188 61.36979 477.0625 61.08854Q476.96875 60.80729 476.70312 60.635414Q476.4375 60.46354 476.0625 60.46354Q475.40625 60.46354 474.96875 60.90104Q474.54688 61.33854 474.54688 62.30729L474.54688 65.916664L473.48438 65.916664L473.48438 61.86979Q473.48438 61.166664 473.21875 60.822914Q472.96875 60.46354 472.39062 60.46354Q471.9375 60.46354 471.5625 60.697914Q471.1875 60.93229 471.01562 61.385414Q470.84375 61.83854 470.84375 62.68229L470.84375 65.916664L469.79688 65.916664ZM484.85938 63.635414L485.89062 63.77604Q485.71875 64.83854 485.01562 65.447914Q484.3125 66.05729 483.29688 66.05729Q482.01562 66.05729 481.23438 65.229164Q480.46875 64.385414 480.46875 62.822914Q480.46875 61.822914 480.79688 61.072914Q481.14062 60.30729 481.8125 59.93229Q482.5 59.55729 483.3125 59.55729Q484.3125 59.55729 484.95312 60.072914Q485.60938 60.572914 485.79688 61.52604L484.76562 61.68229Q484.625 61.05729 484.25 60.74479Q483.875 60.416664 483.34375 60.416664Q482.54688 60.416664 482.04688 60.99479Q481.54688 61.55729 481.54688 62.791664Q481.54688 64.05729 482.03125 64.61979Q482.51562 65.18229 483.28125 65.18229Q483.90625 65.18229 484.3125 64.80729Q484.73438 64.43229 484.85938 63.635414ZM486.79688 68.30729L486.79688 59.697914L487.75 59.697914L487.75 60.49479Q488.09375 60.02604 488.51562 59.791664Q488.95312 59.55729 489.5625 59.55729Q490.35938 59.55729 490.96875 59.96354Q491.57812 60.36979 491.875 61.11979Q492.1875 61.86979 492.1875 62.760414Q492.1875 63.71354 491.84375 64.479164Q491.51562 65.24479 490.85938 65.65104Q490.20312 66.05729 489.48438 66.05729Q488.95312 66.05729 488.53125 65.83854Q488.10938 65.604164 487.84375 65.27604L487.84375 68.30729L486.79688 68.30729ZM487.75 62.83854Q487.75 64.041664 488.23438 64.61979Q488.71875 65.18229 489.40625 65.18229Q490.10938 65.18229 490.60938 64.58854Q491.10938 63.99479 491.10938 62.74479Q491.10938 61.55729 490.625 60.979164Q490.14062 60.385414 489.45312 60.385414Q488.78125 60.385414 488.26562 61.010414Q487.75 61.635414 487.75 62.83854ZM493.75 68.30729L493.625 67.322914Q493.96875 67.416664 494.23438 67.416664Q494.57812 67.416664 494.78125 67.291664Q495.0 67.18229 495.14062 66.979164Q495.23438 66.80729 495.46875 66.18229Q495.48438 66.104164 495.5625 65.93229L493.1875 59.697914L494.32812 59.697914L495.625 63.291664Q495.875 63.979164 496.07812 64.74479Q496.26562 64.010414 496.51562 63.322914L497.84375 59.697914L498.89062 59.697914L496.53125 66.02604Q496.14062 67.041664 495.9375 67.43229Q495.65625 67.96354 495.28125 68.197914Q494.92188 68.447914 494.42188 68.447914Q494.125 68.447914 493.75 68.30729Z" fill-rule="nonzero"/><path fill="#757575" d="M145.3125 37.55L145.3125 27.175L146.89062 27.175L146.89062 28.628124Q147.375 27.878124 148.1875 27.409374Q149.0 26.940624 150.03125 26.940624Q151.1875 26.940624 151.92188 27.425Q152.65625 27.89375 152.96875 28.753124Q154.20312 26.940624 156.17188 26.940624Q157.71875 26.940624 158.54688 27.8Q159.375 28.659374 159.375 30.425L159.375 37.55L157.625 37.55L157.625 31.01875Q157.625 29.95625 157.45312 29.503124Q157.28125 29.034374 156.82812 28.753124Q156.39062 28.471874 155.78125 28.471874Q154.6875 28.471874 153.95312 29.20625Q153.23438 29.925 153.23438 31.51875L153.23438 37.55L151.48438 37.55L151.48438 30.815624Q151.48438 29.64375 151.04688 29.065624Q150.625 28.471874 149.64062 28.471874Q148.90625 28.471874 148.26562 28.8625Q147.64062 29.253124 147.35938 30.003124Q147.07812 30.753124 147.07812 32.175L147.07812 37.55L145.3125 37.55ZM168.42188 34.20625L170.23438 34.440624Q169.8125 36.01875 168.64062 36.909374Q167.48438 37.784374 165.67188 37.784374Q163.40625 37.784374 162.0625 36.39375Q160.73438 34.9875 160.73438 32.45625Q160.73438 29.83125 162.07812 28.39375Q163.42188 26.940624 165.57812 26.940624Q167.65625 26.940624 168.96875 28.3625Q170.29688 29.76875 170.29688 32.346874Q170.29688 32.503124 170.28125 32.815624L162.54688 32.815624Q162.64062 34.51875 163.51562 35.425Q164.39062 36.33125 165.6875 36.33125Q166.65625 36.33125 167.32812 35.83125Q168.01562 35.315624 168.42188 34.20625ZM162.64062 31.3625L168.4375 31.3625Q168.32812 30.065624 167.78125 29.409374Q166.9375 28.39375 165.59375 28.39375Q164.39062 28.39375 163.5625 29.20625Q162.73438 30.003124 162.64062 31.3625ZM172.3125 37.55L172.3125 27.175L173.89062 27.175L173.89062 28.628124Q174.375 27.878124 175.1875 27.409374Q176.0 26.940624 177.03125 26.940624Q178.1875 26.940624 178.92188 27.425Q179.65625 27.89375 179.96875 28.753124Q181.20312 26.940624 183.17188 26.940624Q184.71875 26.940624 185.54688 27.8Q186.375 28.659374 186.375 30.425L186.375 37.55L184.625 37.55L184.625 31.01875Q184.625 29.95625 184.45312 29.503124Q184.28125 29.034374 183.82812 28.753124Q183.39062 28.471874 182.78125 28.471874Q181.6875 28.471874 180.95312 29.20625Q180.23438 29.925 180.23438 31.51875L180.23438 37.55L178.48438 37.55L178.48438 30.815624Q178.48438 29.64375 178.04688 29.065624Q177.625 28.471874 176.64062 28.471874Q175.90625 28.471874 175.26562 28.8625Q174.64062 29.253124 174.35938 30.003124Q174.07812 30.753124 174.07812 32.175L174.07812 37.55L172.3125 37.55ZM195.09375 33.753124L196.8125 33.971874Q196.53125 35.76875 195.35938 36.784374Q194.20312 37.784374 192.5 37.784374Q190.375 37.784374 189.07812 36.39375Q187.78125 35.003124 187.78125 32.409374Q187.78125 30.721874 188.32812 29.471874Q188.89062 28.20625 190.03125 27.58125Q191.17188 26.940624 192.51562 26.940624Q194.20312 26.940624 195.26562 27.8Q196.34375 28.659374 196.65625 30.221874L194.9375 30.4875Q194.70312 29.440624 194.07812 28.925Q193.45312 28.39375 192.57812 28.39375Q191.25 28.39375 190.42188 29.346874Q189.59375 30.3 189.59375 32.346874Q189.59375 34.440624 190.39062 35.39375Q191.1875 36.33125 192.48438 36.33125Q193.51562 36.33125 194.20312 35.70625Q194.90625 35.065624 195.09375 33.753124ZM198.3125 41.51875L198.3125 27.175L199.92188 27.175L199.92188 28.51875Q200.48438 27.7375 201.1875 27.346874Q201.90625 26.940624 202.92188 26.940624Q204.25 26.940624 205.26562 27.628124Q206.28125 28.315624 206.79688 29.565624Q207.32812 30.8 207.32812 32.284374Q207.32812 33.878124 206.75 35.159374Q206.1875 36.425 205.09375 37.1125Q204.0 37.784374 202.79688 37.784374Q201.92188 37.784374 201.21875 37.409374Q200.53125 37.034374 200.07812 36.471874L200.07812 41.51875L198.3125 41.51875ZM199.90625 32.425Q199.90625 34.425 200.71875 35.378124Q201.53125 36.33125 202.6875 36.33125Q203.85938 36.33125 204.6875 35.346874Q205.53125 34.3625 205.53125 32.26875Q205.53125 30.3 204.70312 29.315624Q203.89062 28.315624 202.76562 28.315624Q201.64062 28.315624 200.76562 29.378124Q199.90625 30.425 199.90625 32.425ZM209.23438 41.55L209.04688 39.89375Q209.625 40.05 210.04688 40.05Q210.64062 40.05 210.98438 39.846874Q211.34375 39.659374 211.5625 39.315624Q211.73438 39.05 212.10938 38.003124Q212.15625 37.846874 212.26562 37.565624L208.32812 27.175L210.21875 27.175L212.375 33.190624Q212.79688 34.33125 213.125 35.58125Q213.4375 34.378124 213.84375 33.221874L216.0625 27.175L217.82812 27.175L213.875 37.721874Q213.25 39.440624 212.89062 40.08125Q212.42188 40.95625 211.8125 41.346874Q211.21875 41.753124 210.375 41.753124Q209.85938 41.753124 209.23438 41.55ZM229.64062 37.55L224.09375 23.2375L226.14062 23.2375L229.85938 33.628124Q230.3125 34.878124 230.60938 35.971874Q230.9375 34.8 231.39062 33.628124L235.25 23.2375L237.1875 23.2375L231.57812 37.55L229.64062 37.55ZM238.46875 37.55L238.46875 23.2375L240.35938 23.2375L240.35938 35.8625L247.40625 35.8625L247.40625 37.55L238.46875 37.55ZM249.57812 37.55L249.57812 23.2375L259.9375 23.2375L259.9375 24.925L251.48438 24.925L251.48438 29.3L259.39062 29.3L259.39062 30.9875L251.48438 30.9875L251.48438 35.8625L260.26562 35.8625L260.26562 37.55L249.57812 37.55ZM262.53125 37.55L262.53125 23.2375L264.46875 23.2375L271.98438 34.471874L271.98438 23.2375L273.79688 23.2375L273.79688 37.55L271.85938 37.55L264.34375 26.3L264.34375 37.55L262.53125 37.55ZM284.5625 29.128124L275.10938 29.128124L275.10938 27.4875L284.5625 27.4875L284.5625 29.128124ZM284.5625 33.471874L275.10938 33.471874L275.10938 31.83125L284.5625 31.83125L284.5625 33.471874ZM293.45312 37.55L291.6875 37.55L291.6875 26.346874Q291.0625 26.95625 290.03125 27.565624Q289.0 28.159374 288.17188 28.471874L288.17188 26.76875Q289.65625 26.08125 290.75 25.096874Q291.85938 24.096874 292.3125 23.175L293.45312 23.175L293.45312 37.55ZM307.0625 35.8625L307.0625 37.55L297.60938 37.55Q297.59375 36.909374 297.8125 36.33125Q298.17188 35.3625 298.96875 34.425Q299.76562 33.4875 301.26562 32.253124Q303.60938 30.346874 304.42188 29.2375Q305.25 28.1125 305.25 27.1125Q305.25 26.065624 304.5 25.346874Q303.75 24.628124 302.54688 24.628124Q301.28125 24.628124 300.51562 25.39375Q299.75 26.159374 299.75 27.503124L297.9375 27.315624Q298.125 25.3 299.32812 24.2375Q300.54688 23.175 302.59375 23.175Q304.64062 23.175 305.84375 24.315624Q307.04688 25.45625 307.04688 27.14375Q307.04688 28.003124 306.6875 28.846874Q306.34375 29.675 305.53125 30.596874Q304.71875 31.503124 302.82812 33.1125Q301.23438 34.440624 300.78125 34.909374Q300.34375 35.378124 300.04688 35.8625L307.0625 35.8625ZM311.53125 29.784374Q310.4375 29.378124 309.90625 28.64375Q309.39062 27.89375 309.39062 26.8625Q309.39062 25.3 310.51562 24.2375Q311.64062 23.175 313.5 23.175Q315.375 23.175 316.51562 24.26875Q317.65625 25.346874 317.65625 26.909374Q317.65625 27.909374 317.125 28.64375Q316.60938 29.378124 315.54688 29.784374Q316.875 30.221874 317.5625 31.175Q318.25 32.128124 318.25 33.45625Q318.25 35.3 316.9375 36.55Q315.64062 37.8 313.53125 37.8Q311.40625 37.8 310.10938 36.55Q308.8125 35.284374 308.8125 33.409374Q308.8125 32.01875 309.51562 31.08125Q310.23438 30.128124 311.53125 29.784374ZM311.1875 26.8Q311.1875 27.815624 311.84375 28.471874Q312.5 29.1125 313.53125 29.1125Q314.54688 29.1125 315.20312 28.471874Q315.85938 27.83125 315.85938 26.909374Q315.85938 25.940624 315.1875 25.284374Q314.51562 24.6125 313.51562 24.6125Q312.51562 24.6125 311.84375 25.26875Q311.1875 25.909374 311.1875 26.8ZM310.625 33.425Q310.625 34.175 310.96875 34.878124Q311.32812 35.58125 312.03125 35.971874Q312.73438 36.346874 313.54688 36.346874Q314.8125 36.346874 315.625 35.534374Q316.45312 34.721874 316.45312 33.471874Q316.45312 32.20625 315.60938 31.378124Q314.76562 30.55 313.48438 30.55Q312.25 30.55 311.4375 31.378124Q310.625 32.190624 310.625 33.425ZM326.46875 37.55L326.46875 23.2375L328.35938 23.2375L328.35938 35.8625L335.40625 35.8625L335.40625 37.55L326.46875 37.55ZM337.48438 37.55L337.48438 23.2375L340.34375 23.2375L343.71875 33.3625Q344.1875 34.784374 344.40625 35.4875Q344.65625 34.70625 345.17188 33.190624L348.59375 23.2375L351.14062 23.2375L351.14062 37.55L349.32812 37.55L349.32812 25.565624L345.15625 37.55L343.45312 37.55L339.3125 25.3625L339.3125 37.55L337.48438 37.55ZM363.9375 23.2375L365.82812 23.2375L365.82812 31.503124Q365.82812 33.659374 365.34375 34.940624Q364.85938 36.20625 363.57812 37.003124Q362.3125 37.8 360.23438 37.8Q358.21875 37.8 356.9375 37.1125Q355.67188 36.409374 355.125 35.096874Q354.57812 33.784374 354.57812 31.503124L354.57812 23.2375L356.46875 23.2375L356.46875 31.4875Q356.46875 33.3625 356.8125 34.253124Q357.15625 35.128124 358.0 35.6125Q358.84375 36.08125 360.07812 36.08125Q362.15625 36.08125 363.04688 35.14375Q363.9375 34.190624 363.9375 31.4875L363.9375 23.2375ZM367.46875 37.55L367.46875 23.2375L369.35938 23.2375L369.35938 35.8625L376.40625 35.8625L376.40625 37.55L367.46875 37.55ZM387.5625 29.128124L378.10938 29.128124L378.10938 27.4875L387.5625 27.4875L387.5625 29.128124ZM387.5625 33.471874L378.10938 33.471874L378.10938 31.83125L387.5625 31.83125L387.5625 33.471874ZM396.45312 37.55L394.6875 37.55L394.6875 26.346874Q394.0625 26.95625 393.03125 27.565624Q392.0 28.159374 391.17188 28.471874L391.17188 26.76875Q392.65625 26.08125 393.75 25.096874Q394.85938 24.096874 395.3125 23.175L396.45312 23.175L396.45312 37.55Z" fill-rule="nonzero"/></svg>