<svg version="1.1" viewBox="0.0 0.0 544.0 371.0" fill="none" stroke="none" stroke-linecap="square" stroke-miterlimit="10" width="544" height="371" xmlns:xlink="http://www.w3.org/1999/xlink" xmlns="http://www.w3.org/2000/svg"><path fill="#ffffff" d="M0 0L544.0 0L544.0 371.0L0 371.0L0 0Z" fill-rule="nonzero"/><path stroke="#cccccc" stroke-width="1.0" stroke-linecap="butt" d="M77.5 61.5L77.5 300.5" fill-rule="nonzero"/><path stroke="#cccccc" stroke-width="1.0" stroke-linecap="butt" d="M190.5 61.5L190.5 300.5" fill-rule="nonzero"/><path stroke="#cccccc" stroke-width="1.0" stroke-linecap="butt" d="M303.5 61.5L303.5 300.5" fill-rule="nonzero"/><path stroke="#cccccc" stroke-width="1.0" stroke-linecap="butt" d="M416.5 61.5L416.5 300.5" fill-rule="nonzero"/><path stroke="#333333" stroke-width="1.0" stroke-linecap="butt" d="M77.5 300.5L525.5 300.5" fill-rule="nonzero"/><path stroke="#cccccc" stroke-width="1.0" stroke-linecap="butt" d="M77.5 240.5L525.5 240.5" fill-rule="nonzero"/><path stroke="#cccccc" stroke-width="1.0" stroke-linecap="butt" d="M77.5 181.5L525.5 181.5" fill-rule="nonzero"/><path stroke="#cccccc" stroke-width="1.0" stroke-linecap="butt" d="M77.5 121.5L525.5 121.5" fill-rule="nonzero"/><path stroke="#cccccc" stroke-width="1.0" stroke-linecap="butt" d="M77.5 61.5L525.5 61.5" fill-rule="nonzero"/><clipPath id="id_0"><path d="M77.55 61.916668L525.45 61.916668L525.45 300.45L77.55 300.45L77.55 61.916668Z" clip-rule="nonzero"/></clipPath><path stroke="#ea4335" stroke-width="2.0" stroke-linecap="butt" clip-path="url(#id_0)" d="M77.55 264.9461L111.60533 258.411L131.52641 250.99008L145.66066 219.3251L156.62402 228.65916L165.58176 226.58073L173.1554 240.71239L179.71599 157.80052L185.50284 182.53993L190.67935 186.54604L195.36209 212.2276L199.63708 158.7564L203.5697 192.42508L207.21072 193.58177L210.60045 200.5532L213.77132 119.04375L216.7499 119.68592L219.55817 115.2885L222.21457 115.70067L224.73468 115.849754L227.13182 116.48021L229.41742 114.70971L231.6014 118.08295L233.69241 116.28824L235.69806 115.795906L237.62503 113.31704L239.47926 113.255135L241.26605 113.70351L242.99014 118.04216L244.65578 118.503044L246.26678 116.47012L247.82664 167.3852L249.3385 166.15594L250.80522 166.15594L252.22943 165.4129L262.34323 166.275L268.7608 164.14523L269.7534 170.5121L270.72632 172.26907L271.68036 163.16228L272.6162 172.88385L277.88535 168.49539L278.71112 167.07652L279.52322 166.75592L280.3221 167.39713L281.10825 168.03835L281.882 169.57053L282.6437 169.76419L283.39383 168.49539L284.13266 169.76419L292.22733 177.60533L315.55197 161.30556L315.93732 165.62682L316.31964 167.861L316.69907 165.9578L317.07553 177.60533L317.44916 171.24445L317.81998 168.49539L337.1215 173.88129L349.99265 158.82083L354.57056 168.49539L384.04797 166.92319L392.89362 155.52713L418.1033 167.861L439.38092 167.861L452.15863 123.25381L469.198 118.91912L486.21396 119.79608L496.80164 135.24954L520.2693 111.611115L525.45 105.70989" fill-rule="nonzero"/><path fill="#000000" fill-opacity="0.0" clip-path="url(#id_0)" d="M80.55 264.9461C80.55 266.60297 79.206856 267.9461 77.55 267.9461C75.89314 267.9461 74.55 266.60297 74.55 264.9461C74.55 263.28925 75.89314 261.9461 77.55 261.9461C79.206856 261.9461 80.55 263.28925 80.55 264.9461Z" fill-rule="nonzero"/><path fill="#000000" fill-opacity="0.0" clip-path="url(#id_0)" d="M114.60533 258.411C114.60533 260.06787 113.262184 261.411 111.60533 261.411C109.94848 261.411 108.60533 260.06787 108.60533 258.411C108.60533 256.75418 109.94848 255.41103 111.60533 255.41103C113.262184 255.41103 114.60533 256.75418 114.60533 258.411Z" fill-rule="nonzero"/><path fill="#000000" fill-opacity="0.0" clip-path="url(#id_0)" d="M134.52641 250.99008C134.52641 252.64694 133.18327 253.99008 131.52641 253.99008C129.86957 253.99008 128.52641 252.64694 128.52641 250.99008C128.52641 249.33322 129.86957 247.99008 131.52641 247.99008C133.18327 247.99008 134.52641 249.33322 134.52641 250.99008Z" fill-rule="nonzero"/><path fill="#000000" fill-opacity="0.0" clip-path="url(#id_0)" d="M148.66066 219.3251C148.66066 220.98195 147.31752 222.3251 145.66066 222.3251C144.0038 222.3251 142.66066 220.98195 142.66066 219.3251C142.66066 217.66824 144.0038 216.3251 145.66066 216.3251C147.31752 216.3251 148.66066 217.66824 148.66066 219.3251Z" fill-rule="nonzero"/><path fill="#000000" fill-opacity="0.0" clip-path="url(#id_0)" d="M159.62402 228.65916C159.62402 230.31601 158.28088 231.65916 156.62402 231.65916C154.96718 231.65916 153.62402 230.31601 153.62402 228.65916C153.62402 227.0023 154.96718 225.65916 156.62402 225.65916C158.28088 225.65916 159.62402 227.0023 159.62402 228.65916Z" fill-rule="nonzero"/><path fill="#000000" fill-opacity="0.0" clip-path="url(#id_0)" d="M168.58176 226.58073C168.58176 228.23758 167.2386 229.58073 165.58176 229.58073C163.9249 229.58073 162.58176 228.23758 162.58176 226.58073C162.58176 224.92387 163.9249 223.58073 165.58176 223.58073C167.2386 223.58073 168.58176 224.92387 168.58176 226.58073Z" fill-rule="nonzero"/><path fill="#000000" fill-opacity="0.0" clip-path="url(#id_0)" d="M176.1554 240.71239C176.1554 242.36925 174.81226 243.71239 173.1554 243.71239C171.49855 243.71239 170.1554 242.36925 170.1554 240.71239C170.1554 239.05554 171.49855 237.71239 173.1554 237.71239C174.81226 237.71239 176.1554 239.05554 176.1554 240.71239Z" fill-rule="nonzero"/><path fill="#000000" fill-opacity="0.0" clip-path="url(#id_0)" d="M182.71599 157.80052C182.71599 159.45737 181.37285 160.80052 179.71599 160.80052C178.05913 160.80052 176.71599 159.45737 176.71599 157.80052C176.71599 156.14366 178.05913 154.80052 179.71599 154.80052C181.37285 154.80052 182.71599 156.14366 182.71599 157.80052Z" fill-rule="nonzero"/><path fill="#000000" fill-opacity="0.0" clip-path="url(#id_0)" d="M188.50284 182.53993C188.50284 184.19678 187.1597 185.53993 185.50284 185.53993C183.846 185.53993 182.50284 184.19678 182.50284 182.53993C182.50284 180.88307 183.846 179.53993 185.50284 179.53993C187.1597 179.53993 188.50284 180.88307 188.50284 182.53993Z" fill-rule="nonzero"/><path fill="#000000" fill-opacity="0.0" clip-path="url(#id_0)" d="M193.67935 186.54604C193.67935 188.2029 192.33621 189.54604 190.67935 189.54604C189.0225 189.54604 187.67935 188.2029 187.67935 186.54604C187.67935 184.88919 189.0225 183.54604 190.67935 183.54604C192.33621 183.54604 193.67935 184.88919 193.67935 186.54604Z" fill-rule="nonzero"/><path fill="#000000" fill-opacity="0.0" clip-path="url(#id_0)" d="M198.36209 212.2276C198.36209 213.88446 197.01894 215.2276 195.36209 215.2276C193.70523 215.2276 192.36209 213.88446 192.36209 212.2276C192.36209 210.57074 193.70523 209.2276 195.36209 209.2276C197.01894 209.2276 198.36209 210.57074 198.36209 212.2276Z" fill-rule="nonzero"/><path fill="#000000" fill-opacity="0.0" clip-path="url(#id_0)" d="M202.63708 158.7564C202.63708 160.41324 201.29393 161.7564 199.63708 161.7564C197.98022 161.7564 196.63708 160.41324 196.63708 158.7564C196.63708 157.09953 197.98022 155.7564 199.63708 155.7564C201.29393 155.7564 202.63708 157.09953 202.63708 158.7564Z" fill-rule="nonzero"/><path fill="#000000" fill-opacity="0.0" clip-path="url(#id_0)" d="M206.5697 192.42508C206.5697 194.08194 205.22655 195.42508 203.5697 195.42508C201.91284 195.42508 200.5697 194.08194 200.5697 192.42508C200.5697 190.76822 201.91284 189.42508 203.5697 189.42508C205.22655 189.42508 206.5697 190.76822 206.5697 192.42508Z" fill-rule="nonzero"/><path fill="#000000" fill-opacity="0.0" clip-path="url(#id_0)" d="M210.21072 193.58177C210.21072 195.23863 208.86758 196.58177 207.21072 196.58177C205.55388 196.58177 204.21072 195.23863 204.21072 193.58177C204.21072 191.92493 205.55388 190.58177 207.21072 190.58177C208.86758 190.58177 210.21072 191.92493 210.21072 193.58177Z" fill-rule="nonzero"/><path fill="#000000" fill-opacity="0.0" clip-path="url(#id_0)" d="M213.60045 200.5532C213.60045 202.21007 212.25731 203.5532 210.60045 203.5532C208.94359 203.5532 207.60045 202.21007 207.60045 200.5532C207.60045 198.89636 208.94359 197.5532 210.60045 197.5532C212.25731 197.5532 213.60045 198.89636 213.60045 200.5532Z" fill-rule="nonzero"/><path fill="#000000" fill-opacity="0.0" clip-path="url(#id_0)" d="M216.77132 119.04375C216.77132 120.7006 215.42818 122.04375 213.77132 122.04375C212.11447 122.04375 210.77132 120.7006 210.77132 119.04375C210.77132 117.386894 212.11447 116.04375 213.77132 116.04375C215.42818 116.04375 216.77132 117.386894 216.77132 119.04375Z" fill-rule="nonzero"/><path fill="#000000" fill-opacity="0.0" clip-path="url(#id_0)" d="M219.7499 119.68592C219.7499 121.34277 218.40675 122.68592 216.7499 122.68592C215.09305 122.68592 213.7499 121.34277 213.7499 119.68592C213.7499 118.02907 215.09305 116.68592 216.7499 116.68592C218.40675 116.68592 219.7499 118.02907 219.7499 119.68592Z" fill-rule="nonzero"/><path fill="#000000" fill-opacity="0.0" clip-path="url(#id_0)" d="M222.55817 115.2885C222.55817 116.94535 221.21503 118.2885 219.55817 118.2885C217.90132 118.2885 216.55817 116.94535 216.55817 115.2885C216.55817 113.631645 217.90132 112.2885 219.55817 112.2885C221.21503 112.2885 222.55817 113.631645 222.55817 115.2885Z" fill-rule="nonzero"/><path fill="#000000" fill-opacity="0.0" clip-path="url(#id_0)" d="M225.21457 115.70067C225.21457 117.35753 223.87143 118.70067 222.21457 118.70067C220.55772 118.70067 219.21457 117.35753 219.21457 115.70067C219.21457 114.043816 220.55772 112.70067 222.21457 112.70067C223.87143 112.70067 225.21457 114.043816 225.21457 115.70067Z" fill-rule="nonzero"/><path fill="#000000" fill-opacity="0.0" clip-path="url(#id_0)" d="M227.73468 115.849754C227.73468 117.50661 226.39154 118.849754 224.73468 118.849754C223.07784 118.849754 221.73468 117.50661 221.73468 115.849754C221.73468 114.1929 223.07784 112.849754 224.73468 112.849754C226.39154 112.849754 227.73468 114.1929 227.73468 115.849754Z" fill-rule="nonzero"/><path fill="#000000" fill-opacity="0.0" clip-path="url(#id_0)" d="M230.13182 116.48021C230.13182 118.13706 228.78867 119.48021 227.13182 119.48021C225.47496 119.48021 224.13182 118.13706 224.13182 116.48021C224.13182 114.82335 225.47496 113.48021 227.13182 113.48021C228.78867 113.48021 230.13182 114.82335 230.13182 116.48021Z" fill-rule="nonzero"/><path fill="#000000" fill-opacity="0.0" clip-path="url(#id_0)" d="M232.41742 114.70971C232.41742 116.36656 231.07426 117.70971 229.41742 117.70971C227.76056 117.70971 226.41742 116.36656 226.41742 114.70971C226.41742 113.05285 227.76056 111.70971 229.41742 111.70971C231.07426 111.70971 232.41742 113.05285 232.41742 114.70971Z" fill-rule="nonzero"/><path fill="#000000" fill-opacity="0.0" clip-path="url(#id_0)" d="M234.6014 118.08295C234.6014 119.7398 233.25826 121.08295 231.6014 121.08295C229.94453 121.08295 228.6014 119.7398 228.6014 118.08295C228.6014 116.426094 229.94453 115.08295 231.6014 115.08295C233.25826 115.08295 234.6014 116.426094 234.6014 118.08295Z" fill-rule="nonzero"/><path fill="#000000" fill-opacity="0.0" clip-path="url(#id_0)" d="M236.69241 116.28824C236.69241 117.94509 235.34926 119.28824 233.69241 119.28824C232.03555 119.28824 230.69241 117.94509 230.69241 116.28824C230.69241 114.63138 232.03555 113.28824 233.69241 113.28824C235.34926 113.28824 236.69241 114.63138 236.69241 116.28824Z" fill-rule="nonzero"/><path fill="#000000" fill-opacity="0.0" clip-path="url(#id_0)" d="M238.69806 115.795906C238.69806 117.45276 237.3549 118.795906 235.69806 118.795906C234.0412 118.795906 232.69806 117.45276 232.69806 115.795906C232.69806 114.13905 234.0412 112.795906 235.69806 112.795906C237.3549 112.795906 238.69806 114.13905 238.69806 115.795906Z" fill-rule="nonzero"/><path fill="#000000" fill-opacity="0.0" clip-path="url(#id_0)" d="M240.62503 113.31704C240.62503 114.97389 239.28188 116.31704 237.62503 116.31704C235.96817 116.31704 234.62503 114.97389 234.62503 113.31704C234.62503 111.66019 235.96817 110.31704 237.62503 110.31704C239.28188 110.31704 240.62503 111.66019 240.62503 113.31704Z" fill-rule="nonzero"/><path fill="#000000" fill-opacity="0.0" clip-path="url(#id_0)" d="M242.47926 113.255135C242.47926 114.911995 241.13611 116.255135 239.47926 116.255135C237.8224 116.255135 236.47926 114.911995 236.47926 113.255135C236.47926 111.59828 237.8224 110.255135 239.47926 110.255135C241.13611 110.255135 242.47926 111.59828 242.47926 113.255135Z" fill-rule="nonzero"/><path fill="#000000" fill-opacity="0.0" clip-path="url(#id_0)" d="M244.26605 113.70351C244.26605 115.36037 242.92291 116.70351 241.26605 116.70351C239.6092 116.70351 238.26605 115.36037 238.26605 113.70351C238.26605 112.04665 239.6092 110.70351 241.26605 110.70351C242.92291 110.70351 244.26605 112.04665 244.26605 113.70351Z" fill-rule="nonzero"/><path fill="#000000" fill-opacity="0.0" clip-path="url(#id_0)" d="M245.99014 118.04216C245.99014 119.69901 244.647 121.04216 242.99014 121.04216C241.3333 121.04216 239.99014 119.69901 239.99014 118.04216C239.99014 116.3853 241.3333 115.04216 242.99014 115.04216C244.647 115.04216 245.99014 116.3853 245.99014 118.04216Z" fill-rule="nonzero"/><path fill="#000000" fill-opacity="0.0" clip-path="url(#id_0)" d="M247.65578 118.503044C247.65578 120.1599 246.31264 121.503044 244.65578 121.503044C242.99892 121.503044 241.65578 120.1599 241.65578 118.503044C241.65578 116.84618 242.99892 115.503044 244.65578 115.503044C246.31264 115.503044 247.65578 116.84618 247.65578 118.503044Z" fill-rule="nonzero"/><path fill="#000000" fill-opacity="0.0" clip-path="url(#id_0)" d="M249.26678 116.47012C249.26678 118.126976 247.92365 119.47012 246.26678 119.47012C244.60994 119.47012 243.26678 118.126976 243.26678 116.47012C243.26678 114.81327 244.60994 113.47012 246.26678 113.47012C247.92365 113.47012 249.26678 114.81327 249.26678 116.47012Z" fill-rule="nonzero"/><path fill="#000000" fill-opacity="0.0" clip-path="url(#id_0)" d="M250.82664 167.3852C250.82664 169.04205 249.4835 170.3852 247.82664 170.3852C246.1698 170.3852 244.82664 169.04205 244.82664 167.3852C244.82664 165.72835 246.1698 164.3852 247.82664 164.3852C249.4835 164.3852 250.82664 165.72835 250.82664 167.3852Z" fill-rule="nonzero"/><path fill="#000000" fill-opacity="0.0" clip-path="url(#id_0)" d="M252.3385 166.15594C252.3385 167.81279 250.99536 169.15594 249.3385 169.15594C247.68166 169.15594 246.3385 167.81279 246.3385 166.15594C246.3385 164.49908 247.68166 163.15594 249.3385 163.15594C250.99536 163.15594 252.3385 164.49908 252.3385 166.15594Z" fill-rule="nonzero"/><path fill="#000000" fill-opacity="0.0" clip-path="url(#id_0)" d="M253.80522 166.15594C253.80522 167.81279 252.46208 169.15594 250.80522 169.15594C249.14838 169.15594 247.80522 167.81279 247.80522 166.15594C247.80522 164.49908 249.14838 163.15594 250.80522 163.15594C252.46208 163.15594 253.80522 164.49908 253.80522 166.15594Z" fill-rule="nonzero"/><path fill="#000000" fill-opacity="0.0" clip-path="url(#id_0)" d="M255.22943 165.4129C255.22943 167.06976 253.88628 168.4129 252.22943 168.4129C250.57257 168.4129 249.22943 167.06976 249.22943 165.4129C249.22943 163.75606 250.57257 162.4129 252.22943 162.4129C253.88628 162.4129 255.22943 163.75606 255.22943 165.4129Z" fill-rule="nonzero"/><path fill="#000000" fill-opacity="0.0" clip-path="url(#id_0)" d="M265.34323 166.275C265.34323 167.93185 264.0001 169.275 262.34323 169.275C260.68637 169.275 259.34323 167.93185 259.34323 166.275C259.34323 164.61815 260.68637 163.275 262.34323 163.275C264.0001 163.275 265.34323 164.61815 265.34323 166.275Z" fill-rule="nonzero"/><path fill="#000000" fill-opacity="0.0" clip-path="url(#id_0)" d="M271.7608 164.14523C271.7608 165.8021 270.41766 167.14523 268.7608 167.14523C267.10394 167.14523 265.7608 165.8021 265.7608 164.14523C265.7608 162.48839 267.10394 161.14523 268.7608 161.14523C270.41766 161.14523 271.7608 162.48839 271.7608 164.14523Z" fill-rule="nonzero"/><path fill="#000000" fill-opacity="0.0" clip-path="url(#id_0)" d="M272.7534 170.5121C272.7534 172.16896 271.41025 173.5121 269.7534 173.5121C268.09653 173.5121 266.7534 172.16896 266.7534 170.5121C266.7534 168.85526 268.09653 167.5121 269.7534 167.5121C271.41025 167.5121 272.7534 168.85526 272.7534 170.5121Z" fill-rule="nonzero"/><path fill="#000000" fill-opacity="0.0" clip-path="url(#id_0)" d="M273.72632 172.26907C273.72632 173.92593 272.38318 175.26907 270.72632 175.26907C269.06946 175.26907 267.72632 173.92593 267.72632 172.26907C267.72632 170.61221 269.06946 169.26907 270.72632 169.26907C272.38318 169.26907 273.72632 170.61221 273.72632 172.26907Z" fill-rule="nonzero"/><path fill="#000000" fill-opacity="0.0" clip-path="url(#id_0)" d="M274.68036 163.16228C274.68036 164.81912 273.33722 166.16228 271.68036 166.16228C270.0235 166.16228 268.68036 164.81912 268.68036 163.16228C268.68036 161.50542 270.0235 160.16228 271.68036 160.16228C273.33722 160.16228 274.68036 161.50542 274.68036 163.16228Z" fill-rule="nonzero"/><path fill="#000000" fill-opacity="0.0" clip-path="url(#id_0)" d="M275.6162 172.88385C275.6162 174.54071 274.27307 175.88385 272.6162 175.88385C270.95935 175.88385 269.6162 174.54071 269.6162 172.88385C269.6162 171.22699 270.95935 169.88385 272.6162 169.88385C274.27307 169.88385 275.6162 171.22699 275.6162 172.88385Z" fill-rule="nonzero"/><path fill="#000000" fill-opacity="0.0" clip-path="url(#id_0)" d="M280.88535 168.49539C280.88535 170.15224 279.5422 171.49539 277.88535 171.49539C276.2285 171.49539 274.88535 170.15224 274.88535 168.49539C274.88535 166.83853 276.2285 165.49539 277.88535 165.49539C279.5422 165.49539 280.88535 166.83853 280.88535 168.49539Z" fill-rule="nonzero"/><path fill="#000000" fill-opacity="0.0" clip-path="url(#id_0)" d="M281.71112 167.07652C281.71112 168.73338 280.36795 170.07652 278.71112 170.07652C277.05426 170.07652 275.71112 168.73338 275.71112 167.07652C275.71112 165.41966 277.05426 164.07652 278.71112 164.07652C280.36795 164.07652 281.71112 165.41966 281.71112 167.07652Z" fill-rule="nonzero"/><path fill="#000000" fill-opacity="0.0" clip-path="url(#id_0)" d="M282.52322 166.75592C282.52322 168.41277 281.18008 169.75592 279.52322 169.75592C277.86636 169.75592 276.52322 168.41277 276.52322 166.75592C276.52322 165.09906 277.86636 163.75592 279.52322 163.75592C281.18008 163.75592 282.52322 165.09906 282.52322 166.75592Z" fill-rule="nonzero"/><path fill="#000000" fill-opacity="0.0" clip-path="url(#id_0)" d="M283.3221 167.39713C283.3221 169.05399 281.97897 170.39713 280.3221 170.39713C278.66525 170.39713 277.3221 169.05399 277.3221 167.39713C277.3221 165.74028 278.66525 164.39713 280.3221 164.39713C281.97897 164.39713 283.3221 165.74028 283.3221 167.39713Z" fill-rule="nonzero"/><path fill="#000000" fill-opacity="0.0" clip-path="url(#id_0)" d="M284.10825 168.03835C284.10825 169.6952 282.7651 171.03835 281.10825 171.03835C279.4514 171.03835 278.10825 169.6952 278.10825 168.03835C278.10825 166.3815 279.4514 165.03835 281.10825 165.03835C282.7651 165.03835 284.10825 166.3815 284.10825 168.03835Z" fill-rule="nonzero"/><path fill="#000000" fill-opacity="0.0" clip-path="url(#id_0)" d="M284.882 169.57053C284.882 171.22739 283.53882 172.57053 281.882 172.57053C280.22513 172.57053 278.882 171.22739 278.882 169.57053C278.882 167.91367 280.22513 166.57053 281.882 166.57053C283.53882 166.57053 284.882 167.91367 284.882 169.57053Z" fill-rule="nonzero"/><path fill="#000000" fill-opacity="0.0" clip-path="url(#id_0)" d="M285.6437 169.76419C285.6437 171.42104 284.30057 172.76419 282.6437 172.76419C280.98688 172.76419 279.6437 171.42104 279.6437 169.76419C279.6437 168.10733 280.98688 166.76419 282.6437 166.76419C284.30057 166.76419 285.6437 168.10733 285.6437 169.76419Z" fill-rule="nonzero"/><path fill="#000000" fill-opacity="0.0" clip-path="url(#id_0)" d="M286.39383 168.49539C286.39383 170.15224 285.0507 171.49539 283.39383 171.49539C281.73697 171.49539 280.39383 170.15224 280.39383 168.49539C280.39383 166.83853 281.73697 165.49539 283.39383 165.49539C285.0507 165.49539 286.39383 166.83853 286.39383 168.49539Z" fill-rule="nonzero"/><path fill="#000000" fill-opacity="0.0" clip-path="url(#id_0)" d="M287.13266 169.76419C287.13266 171.42104 285.78952 172.76419 284.13266 172.76419C282.4758 172.76419 281.13266 171.42104 281.13266 169.76419C281.13266 168.10733 282.4758 166.76419 284.13266 166.76419C285.78952 166.76419 287.13266 168.10733 287.13266 169.76419Z" fill-rule="nonzero"/><path fill="#000000" fill-opacity="0.0" clip-path="url(#id_0)" d="M295.22733 177.60533C295.22733 179.26219 293.8842 180.60533 292.22733 180.60533C290.57047 180.60533 289.22733 179.26219 289.22733 177.60533C289.22733 175.94849 290.57047 174.60533 292.22733 174.60533C293.8842 174.60533 295.22733 175.94849 295.22733 177.60533Z" fill-rule="nonzero"/><path fill="#000000" fill-opacity="0.0" clip-path="url(#id_0)" d="M318.55197 161.30556C318.55197 162.9624 317.2088 164.30556 315.55197 164.30556C313.8951 164.30556 312.55197 162.9624 312.55197 161.30556C312.55197 159.6487 313.8951 158.30556 315.55197 158.30556C317.2088 158.30556 318.55197 159.6487 318.55197 161.30556Z" fill-rule="nonzero"/><path fill="#000000" fill-opacity="0.0" clip-path="url(#id_0)" d="M318.93732 165.62682C318.93732 167.28366 317.59418 168.62682 315.93732 168.62682C314.28046 168.62682 312.93732 167.28366 312.93732 165.62682C312.93732 163.96996 314.28046 162.62682 315.93732 162.62682C317.59418 162.62682 318.93732 163.96996 318.93732 165.62682Z" fill-rule="nonzero"/><path fill="#000000" fill-opacity="0.0" clip-path="url(#id_0)" d="M319.31964 167.861C319.31964 169.51785 317.9765 170.861 316.31964 170.861C314.6628 170.861 313.31964 169.51785 313.31964 167.861C313.31964 166.20413 314.6628 164.861 316.31964 164.861C317.9765 164.861 319.31964 166.20413 319.31964 167.861Z" fill-rule="nonzero"/><path fill="#000000" fill-opacity="0.0" clip-path="url(#id_0)" d="M319.69907 165.9578C319.69907 167.61465 318.3559 168.9578 316.69907 168.9578C315.0422 168.9578 313.69907 167.61465 313.69907 165.9578C313.69907 164.30095 315.0422 162.9578 316.69907 162.9578C318.3559 162.9578 319.69907 164.30095 319.69907 165.9578Z" fill-rule="nonzero"/><path fill="#000000" fill-opacity="0.0" clip-path="url(#id_0)" d="M320.07553 177.60533C320.07553 179.26219 318.7324 180.60533 317.07553 180.60533C315.41867 180.60533 314.07553 179.26219 314.07553 177.60533C314.07553 175.94849 315.41867 174.60533 317.07553 174.60533C318.7324 174.60533 320.07553 175.94849 320.07553 177.60533Z" fill-rule="nonzero"/><path fill="#000000" fill-opacity="0.0" clip-path="url(#id_0)" d="M320.44916 171.24445C320.44916 172.9013 319.10602 174.24445 317.44916 174.24445C315.7923 174.24445 314.44916 172.9013 314.44916 171.24445C314.44916 169.58759 315.7923 168.24445 317.44916 168.24445C319.10602 168.24445 320.44916 169.58759 320.44916 171.24445Z" fill-rule="nonzero"/><path fill="#000000" fill-opacity="0.0" clip-path="url(#id_0)" d="M320.81998 168.49539C320.81998 170.15224 319.47684 171.49539 317.81998 171.49539C316.16312 171.49539 314.81998 170.15224 314.81998 168.49539C314.81998 166.83853 316.16312 165.49539 317.81998 165.49539C319.47684 165.49539 320.81998 166.83853 320.81998 168.49539Z" fill-rule="nonzero"/><path fill="#000000" fill-opacity="0.0" clip-path="url(#id_0)" d="M340.1215 173.88129C340.1215 175.53815 338.77835 176.88129 337.1215 176.88129C335.46463 176.88129 334.1215 175.53815 334.1215 173.88129C334.1215 172.22444 335.46463 170.88129 337.1215 170.88129C338.77835 170.88129 340.1215 172.22444 340.1215 173.88129Z" fill-rule="nonzero"/><path fill="#000000" fill-opacity="0.0" clip-path="url(#id_0)" d="M352.99265 158.82083C352.99265 160.47769 351.6495 161.82083 349.99265 161.82083C348.3358 161.82083 346.99265 160.47769 346.99265 158.82083C346.99265 157.16399 348.3358 155.82083 349.99265 155.82083C351.6495 155.82083 352.99265 157.16399 352.99265 158.82083Z" fill-rule="nonzero"/><path fill="#000000" fill-opacity="0.0" clip-path="url(#id_0)" d="M357.57056 168.49539C357.57056 170.15224 356.22742 171.49539 354.57056 171.49539C352.91373 171.49539 351.57056 170.15224 351.57056 168.49539C351.57056 166.83853 352.91373 165.49539 354.57056 165.49539C356.22742 165.49539 357.57056 166.83853 357.57056 168.49539Z" fill-rule="nonzero"/><path fill="#000000" fill-opacity="0.0" clip-path="url(#id_0)" d="M387.04797 166.92319C387.04797 168.58005 385.70483 169.92319 384.04797 169.92319C382.3911 169.92319 381.04797 168.58005 381.04797 166.92319C381.04797 165.26633 382.3911 163.92319 384.04797 163.92319C385.70483 163.92319 387.04797 165.26633 387.04797 166.92319Z" fill-rule="nonzero"/><path fill="#000000" fill-opacity="0.0" clip-path="url(#id_0)" d="M395.89362 155.52713C395.89362 157.18399 394.55048 158.52713 392.89362 158.52713C391.23676 158.52713 389.89362 157.18399 389.89362 155.52713C389.89362 153.87029 391.23676 152.52713 392.89362 152.52713C394.55048 152.52713 395.89362 153.87029 395.89362 155.52713Z" fill-rule="nonzero"/><path fill="#000000" fill-opacity="0.0" clip-path="url(#id_0)" d="M421.1033 167.861C421.1033 169.51785 419.76016 170.861 418.1033 170.861C416.44644 170.861 415.1033 169.51785 415.1033 167.861C415.1033 166.20413 416.44644 164.861 418.1033 164.861C419.76016 164.861 421.1033 166.20413 421.1033 167.861Z" fill-rule="nonzero"/><path fill="#000000" fill-opacity="0.0" clip-path="url(#id_0)" d="M442.38092 167.861C442.38092 169.51785 441.03778 170.861 439.38092 170.861C437.72406 170.861 436.38092 169.51785 436.38092 167.861C436.38092 166.20413 437.72406 164.861 439.38092 164.861C441.03778 164.861 442.38092 166.20413 442.38092 167.861Z" fill-rule="nonzero"/><path fill="#000000" fill-opacity="0.0" clip-path="url(#id_0)" d="M455.15863 123.25381C455.15863 124.91067 453.8155 126.25381 452.15863 126.25381C450.50177 126.25381 449.15863 124.91067 449.15863 123.25381C449.15863 121.596954 450.50177 120.25381 452.15863 120.25381C453.8155 120.25381 455.15863 121.596954 455.15863 123.25381Z" fill-rule="nonzero"/><path fill="#000000" fill-opacity="0.0" clip-path="url(#id_0)" d="M472.198 118.91912C472.198 120.57597 470.85486 121.91912 469.198 121.91912C467.54114 121.91912 466.198 120.57597 466.198 118.91912C466.198 117.26226 467.54114 115.91912 469.198 115.91912C470.85486 115.91912 472.198 117.26226 472.198 118.91912Z" fill-rule="nonzero"/><path fill="#000000" fill-opacity="0.0" clip-path="url(#id_0)" d="M489.21396 119.79608C489.21396 121.452934 487.87082 122.79608 486.21396 122.79608C484.5571 122.79608 483.21396 121.452934 483.21396 119.79608C483.21396 118.13922 484.5571 116.79608 486.21396 116.79608C487.87082 116.79608 489.21396 118.13922 489.21396 119.79608Z" fill-rule="nonzero"/><path fill="#000000" fill-opacity="0.0" clip-path="url(#id_0)" d="M499.80164 135.24954C499.80164 136.9064 498.4585 138.24954 496.80164 138.24954C495.1448 138.24954 493.80164 136.9064 493.80164 135.24954C493.80164 133.5927 495.1448 132.24954 496.80164 132.24954C498.4585 132.24954 499.80164 133.5927 499.80164 135.24954Z" fill-rule="nonzero"/><path fill="#000000" fill-opacity="0.0" clip-path="url(#id_0)" d="M523.2693 111.611115C523.2693 113.26797 521.92615 114.611115 520.2693 114.611115C518.6124 114.611115 517.2693 113.26797 517.2693 111.611115C517.2693 109.954254 518.6124 108.611115 520.2693 108.611115C521.92615 108.611115 523.2693 109.954254 523.2693 111.611115Z" fill-rule="nonzero"/><path fill="#000000" fill-opacity="0.0" clip-path="url(#id_0)" d="M528.45 105.70989C528.45 107.36675 527.1069 108.70989 525.45 108.70989C523.79315 108.70989 522.45 107.36675 522.45 105.70989C522.45 104.05304 523.79315 102.70989 525.45 102.70989C527.1069 102.70989 528.45 104.05304 528.45 105.70989Z" fill-rule="nonzero"/><path fill="#000000" d="M270.54688 346.6844L271.60938 346.59064Q271.6875 347.2469 271.96875 347.65314Q272.25 348.0594 272.82812 348.325Q273.42188 348.575 274.15625 348.575Q274.79688 348.575 275.29688 348.3875Q275.79688 348.1844 276.03125 347.85626Q276.28125 347.5125 276.28125 347.1219Q276.28125 346.71564 276.04688 346.41876Q275.8125 346.10626 275.28125 345.90314Q274.92188 345.7625 273.73438 345.48126Q272.5625 345.2 272.09375 344.95Q271.46875 344.6219 271.17188 344.15314Q270.875 343.66876 270.875 343.075Q270.875 342.4344 271.23438 341.8719Q271.60938 341.29376 272.3125 341.0125Q273.03125 340.71564 273.89062 340.71564Q274.84375 340.71564 275.57812 341.02814Q276.3125 341.325 276.70312 341.9344Q277.09375 342.52814 277.125 343.27814L276.03125 343.35626Q275.9375 342.54376 275.42188 342.1375Q274.92188 341.71564 273.9375 341.71564Q272.90625 341.71564 272.4375 342.09064Q271.96875 342.46564 271.96875 342.9969Q271.96875 343.46564 272.29688 343.7625Q272.625 344.0594 274.0 344.3719Q275.39062 344.6844 275.90625 344.91876Q276.65625 345.27814 277.01562 345.8094Q277.375 346.325 277.375 347.02814Q277.375 347.71564 276.98438 348.325Q276.59375 348.91876 275.85938 349.2625Q275.125 349.59064 274.20312 349.59064Q273.03125 349.59064 272.23438 349.2625Q271.45312 348.91876 271.0 348.23126Q270.5625 347.54376 270.54688 346.6844ZM278.79688 342.075L278.79688 340.85626L279.85938 340.85626L279.85938 342.075L278.79688 342.075ZM278.79688 349.45L278.79688 343.23126L279.85938 343.23126L279.85938 349.45L278.79688 349.45ZM281.23438 349.45L281.23438 348.59064L285.20312 344.04376Q284.51562 344.075 284.0 344.075L281.46875 344.075L281.46875 343.23126L286.5625 343.23126L286.5625 343.91876L283.1875 347.8719L282.53125 348.59064Q283.25 348.54376 283.85938 348.54376L286.75 348.54376L286.75 349.45L281.23438 349.45ZM291.04688 347.45L292.14062 347.575Q291.89062 348.52814 291.1875 349.0594Q290.48438 349.59064 289.40625 349.59064Q288.04688 349.59064 287.23438 348.7469Q286.4375 347.90314 286.4375 346.3875Q286.4375 344.825 287.25 343.96564Q288.0625 343.09064 289.34375 343.09064Q290.59375 343.09064 291.375 343.9344Q292.17188 344.77814 292.17188 346.325Q292.17188 346.41876 292.17188 346.60626L287.53125 346.60626Q287.59375 347.6375 288.10938 348.1844Q288.625 348.71564 289.40625 348.71564Q289.98438 348.71564 290.39062 348.41876Q290.8125 348.10626 291.04688 347.45ZM287.59375 345.7469L291.0625 345.7469Q291.0 344.95 290.67188 344.5594Q290.15625 343.95 289.35938 343.95Q288.625 343.95 288.125 344.4344Q287.64062 344.91876 287.59375 345.7469ZM298.8125 351.98126Q297.9375 350.8719 297.32812 349.40314Q296.73438 347.91876 296.73438 346.34064Q296.73438 344.95 297.17188 343.66876Q297.70312 342.1844 298.8125 340.71564L299.5625 340.71564Q298.85938 341.9344 298.625 342.45Q298.26562 343.2625 298.0625 344.1375Q297.8125 345.23126 297.8125 346.34064Q297.8125 349.16876 299.5625 351.98126L298.8125 351.98126ZM301.76562 349.45L300.78125 349.45L300.78125 340.85626L301.84375 340.85626L301.84375 343.91876Q302.51562 343.09064 303.54688 343.09064Q304.125 343.09064 304.625 343.325Q305.14062 343.54376 305.46875 343.96564Q305.8125 344.3875 306.0 344.98126Q306.1875 345.575 306.1875 346.2469Q306.1875 347.84064 305.39062 348.71564Q304.59375 349.59064 303.5 349.59064Q302.39062 349.59064 301.76562 348.66876L301.76562 349.45ZM301.75 346.29376Q301.75 347.40314 302.0625 347.90314Q302.5625 348.71564 303.40625 348.71564Q304.09375 348.71564 304.59375 348.1219Q305.10938 347.52814 305.10938 346.325Q305.10938 345.10626 304.625 344.52814Q304.14062 343.95 303.45312 343.95Q302.76562 343.95 302.25 344.5594Q301.75 345.15314 301.75 346.29376ZM307.75 351.84064L307.625 350.85626Q307.96875 350.95 308.23438 350.95Q308.57812 350.95 308.78125 350.825Q309.0 350.71564 309.14062 350.5125Q309.23438 350.34064 309.46875 349.71564Q309.48438 349.6375 309.5625 349.46564L307.1875 343.23126L308.32812 343.23126L309.625 346.825Q309.875 347.5125 310.07812 348.27814Q310.26562 347.54376 310.51562 346.85626L311.84375 343.23126L312.89062 343.23126L310.53125 349.5594Q310.14062 350.575 309.9375 350.96564Q309.65625 351.4969 309.28125 351.73126Q308.92188 351.98126 308.42188 351.98126Q308.125 351.98126 307.75 351.84064ZM315.09375 348.5125L315.25 349.4344Q314.79688 349.52814 314.45312 349.52814Q313.875 349.52814 313.5625 349.35626Q313.25 349.16876 313.10938 348.8719Q312.98438 348.575 312.98438 347.6219L312.98438 344.04376L312.21875 344.04376L312.21875 343.23126L312.98438 343.23126L312.98438 341.6844L314.03125 341.0594L314.03125 343.23126L315.09375 343.23126L315.09375 344.04376L314.03125 344.04376L314.03125 347.6844Q314.03125 348.1375 314.07812 348.2625Q314.14062 348.3875 314.26562 348.46564Q314.39062 348.54376 314.625 348.54376Q314.8125 348.54376 315.09375 348.5125ZM320.04688 347.45L321.14062 347.575Q320.89062 348.52814 320.1875 349.0594Q319.48438 349.59064 318.40625 349.59064Q317.04688 349.59064 316.23438 348.7469Q315.4375 347.90314 315.4375 346.3875Q315.4375 344.825 316.25 343.96564Q317.0625 343.09064 318.34375 343.09064Q319.59375 343.09064 320.375 343.9344Q321.17188 344.77814 321.17188 346.325Q321.17188 346.41876 321.17188 346.60626L316.53125 346.60626Q316.59375 347.6375 317.10938 348.1844Q317.625 348.71564 318.40625 348.71564Q318.98438 348.71564 319.39062 348.41876Q319.8125 348.10626 320.04688 347.45ZM316.59375 345.7469L320.0625 345.7469Q320.0 344.95 319.67188 344.5594Q319.15625 343.95 318.35938 343.95Q317.625 343.95 317.125 344.4344Q316.64062 344.91876 316.59375 345.7469ZM322.375 347.59064L323.40625 347.4344Q323.5 348.0594 323.89062 348.3875Q324.29688 348.71564 325.03125 348.71564Q325.75 348.71564 326.09375 348.4344Q326.45312 348.1375 326.45312 347.73126Q326.45312 347.3719 326.14062 347.16876Q325.92188 347.02814 325.0625 346.8094Q323.90625 346.5125 323.45312 346.3094Q323.01562 346.09064 322.78125 345.71564Q322.54688 345.34064 322.54688 344.8719Q322.54688 344.46564 322.73438 344.10626Q322.92188 343.7469 323.25 343.5125Q323.5 343.34064 323.92188 343.21564Q324.34375 343.09064 324.84375 343.09064Q325.5625 343.09064 326.10938 343.3094Q326.67188 343.5125 326.9375 343.8719Q327.20312 344.23126 327.29688 344.825L326.26562 344.96564Q326.20312 344.4969 325.85938 344.23126Q325.53125 343.95 324.90625 343.95Q324.1875 343.95 323.875 344.2Q323.5625 344.4344 323.5625 344.7625Q323.5625 344.96564 323.6875 345.1219Q323.82812 345.29376 324.09375 345.40314Q324.25 345.46564 325.03125 345.66876Q326.15625 345.98126 326.59375 346.16876Q327.03125 346.35626 327.28125 346.71564Q327.53125 347.075 327.53125 347.6219Q327.53125 348.15314 327.21875 348.6219Q326.92188 349.075 326.34375 349.34064Q325.76562 349.59064 325.03125 349.59064Q323.8125 349.59064 323.17188 349.09064Q322.54688 348.575 322.375 347.59064ZM330.48438 351.98126L329.73438 351.98126Q331.48438 349.16876 331.48438 346.34064Q331.48438 345.2469 331.23438 344.15314Q331.03125 343.27814 330.67188 342.46564Q330.4375 341.95 329.73438 340.71564L330.48438 340.71564Q331.57812 342.1844 332.10938 343.66876Q332.5625 344.95 332.5625 346.34064Q332.5625 347.91876 331.95312 349.40314Q331.34375 350.8719 330.48438 351.98126Z" fill-rule="nonzero"/><path fill="#000000" d="M27.690638 269.30835L27.534388 268.2771Q28.159388 268.18335 28.487513 267.79272Q28.815638 267.38647 28.815638 266.6521Q28.815638 265.93335 28.534388 265.5896Q28.237513 265.23022 27.831263 265.23022Q27.471888 265.23022 27.268763 265.54272Q27.128138 265.76147 26.909388 266.62085Q26.612513 267.7771 26.409388 268.23022Q26.190638 268.66772 25.815638 268.9021Q25.440638 269.13647 24.971888 269.13647Q24.565638 269.13647 24.206263 268.94897Q23.846888 268.76147 23.612513 268.43335Q23.440638 268.18335 23.315638 267.76147Q23.190638 267.3396 23.190638 266.8396Q23.190638 266.12085 23.409388 265.57397Q23.612513 265.01147 23.971888 264.74585Q24.331263 264.48022 24.925013 264.38647L25.065638 265.41772Q24.596888 265.48022 24.331263 265.82397Q24.050013 266.1521 24.050013 266.7771Q24.050013 267.49585 24.300013 267.80835Q24.534388 268.12085 24.862513 268.12085Q25.065638 268.12085 25.221888 267.99585Q25.393763 267.85522 25.503138 267.5896Q25.565638 267.43335 25.768763 266.6521Q26.081263 265.5271 26.268763 265.0896Q26.456263 264.6521 26.815638 264.4021Q27.175013 264.1521 27.721888 264.1521Q28.253138 264.1521 28.721888 264.4646Q29.175013 264.76147 29.440638 265.3396Q29.690638 265.91772 29.690638 266.6521Q29.690638 267.87085 29.190638 268.51147Q28.675013 269.13647 27.690638 269.30835ZM31.940638 261.88647L23.331263 261.88647L23.331263 260.93335L24.128138 260.93335Q23.659388 260.5896 23.425013 260.16772Q23.190638 259.73022 23.190638 259.12085Q23.190638 258.32397 23.596888 257.7146Q24.003138 257.10522 24.753138 256.80835Q25.503138 256.49585 26.393763 256.49585Q27.346888 256.49585 28.112513 256.8396Q28.878138 257.16772 29.284388 257.82397Q29.690638 258.48022 29.690638 259.19897Q29.690638 259.73022 29.471888 260.1521Q29.237513 260.57397 28.909388 260.8396L31.940638 260.8396L31.940638 261.88647ZM26.471888 260.93335Q27.675013 260.93335 28.253138 260.44897Q28.815638 259.9646 28.815638 259.2771Q28.815638 258.57397 28.221888 258.07397Q27.628138 257.57397 26.378138 257.57397Q25.190638 257.57397 24.612513 258.05835Q24.018763 258.54272 24.018763 259.23022Q24.018763 259.9021 24.643763 260.41772Q25.268763 260.93335 26.471888 260.93335ZM27.550013 250.63646L27.675013 249.54271Q28.628138 249.79271 29.159388 250.49583Q29.690638 251.19896 29.690638 252.27708Q29.690638 253.63646 28.846888 254.44896Q28.003138 255.24583 26.487513 255.24583Q24.925013 255.24583 24.065638 254.43333Q23.190638 253.62083 23.190638 252.33958Q23.190638 251.08958 24.034388 250.30833Q24.878138 249.51146 26.425013 249.51146Q26.518763 249.51146 26.706263 249.51146L26.706263 254.15208Q27.737513 254.08958 28.284388 253.57396Q28.815638 253.05833 28.815638 252.27708Q28.815638 251.69896 28.518763 251.29271Q28.206263 250.87083 27.550013 250.63646ZM25.846888 254.08958L25.846888 250.62083Q25.050013 250.68333 24.659388 251.01146Q24.050013 251.52708 24.050013 252.32396Q24.050013 253.05833 24.534388 253.55833Q25.018763 254.04271 25.846888 254.08958ZM27.550013 243.63646L27.675013 242.54271Q28.628138 242.79271 29.159388 243.49583Q29.690638 244.19896 29.690638 245.27708Q29.690638 246.63646 28.846888 247.44896Q28.003138 248.24583 26.487513 248.24583Q24.925013 248.24583 24.065638 247.43333Q23.190638 246.62083 23.190638 245.33958Q23.190638 244.08958 24.034388 243.30833Q24.878138 242.51146 26.425013 242.51146Q26.518763 242.51146 26.706263 242.51146L26.706263 247.15208Q27.737513 247.08958 28.284388 246.57396Q28.815638 246.05833 28.815638 245.27708Q28.815638 244.69896 28.518763 244.29271Q28.206263 243.87083 27.550013 243.63646ZM25.846888 247.08958L25.846888 243.62083Q25.050013 243.68333 24.659388 244.01146Q24.050013 244.52708 24.050013 245.32396Q24.050013 246.05833 24.534388 246.55833Q25.018763 247.04271 25.846888 247.08958ZM29.550013 236.85521L28.768763 236.85521Q29.690638 237.44896 29.690638 238.58958Q29.690638 239.33958 29.284388 239.96458Q28.862513 240.58958 28.128138 240.93333Q27.393763 241.27708 26.440638 241.27708Q25.518763 241.27708 24.753138 240.96458Q23.987513 240.65208 23.596888 240.02708Q23.190638 239.40208 23.190638 238.63646Q23.190638 238.07396 23.425013 237.63646Q23.659388 237.19896 24.034388 236.91771L20.956263 236.91771L20.956263 235.87083L29.550013 235.87083L29.550013 236.85521ZM26.440638 240.18333Q27.643763 240.18333 28.237513 239.68333Q28.815638 239.18333 28.815638 238.49583Q28.815638 237.80833 28.253138 237.32396Q27.690638 236.83958 26.534388 236.83958Q25.253138 236.83958 24.659388 237.33958Q24.065638 237.82396 24.065638 238.54271Q24.065638 239.24583 24.643763 239.71458Q25.206263 240.18333 26.440638 240.18333ZM29.550013 226.80833L28.628138 226.80833Q29.690638 227.54271 29.690638 228.79271Q29.690638 229.33958 29.487513 229.82396Q29.268763 230.29271 28.956263 230.52708Q28.628138 230.76146 28.159388 230.85521Q27.862513 230.91771 27.175013 230.91771L23.331263 230.91771L23.331263 229.85521L26.784388 229.85521Q27.596888 229.85521 27.893763 229.79271Q28.300013 229.69896 28.550013 229.38646Q28.784388 229.05833 28.784388 228.57396Q28.784388 228.10521 28.550013 227.69896Q28.300013 227.27708 27.878138 227.10521Q27.456263 226.91771 26.659388 226.91771L23.331263 226.91771L23.331263 225.87083L29.550013 225.87083L29.550013 226.80833ZM31.940638 223.88646L23.331263 223.88646L23.331263 222.93333L24.128138 222.93333Q23.659388 222.58958 23.425013 222.16771Q23.190638 221.73021 23.190638 221.12083Q23.190638 220.32396 23.596888 219.71458Q24.003138 219.10521 24.753138 218.80833Q25.503138 218.49583 26.393763 218.49583Q27.346888 218.49583 28.112513 218.83958Q28.878138 219.16771 29.284388 219.82396Q29.690638 220.48021 29.690638 221.19896Q29.690638 221.73021 29.471888 222.15208Q29.237513 222.57396 28.909388 222.83958L31.940638 222.83958L31.940638 223.88646ZM26.471888 222.93333Q27.675013 222.93333 28.253138 222.44896Q28.815638 221.96458 28.815638 221.27708Q28.815638 220.57396 28.221888 220.07396Q27.628138 219.57396 26.378138 219.57396Q25.190638 219.57396 24.612513 220.05833Q24.018763 220.54271 24.018763 221.23021Q24.018763 221.90208 24.643763 222.41771Q25.268763 222.93333 26.471888 222.93333ZM26.440638 214.27708Q24.706263 214.27708 23.878138 213.32396Q23.190638 212.52708 23.190638 211.37083Q23.190638 210.08958 24.034388 209.27708Q24.862513 208.44896 26.346888 208.44896Q27.550013 208.44896 28.237513 208.80833Q28.925013 209.16771 29.315638 209.87083Q29.690638 210.55833 29.690638 211.37083Q29.690638 212.66771 28.862513 213.48021Q28.018763 214.27708 26.440638 214.27708ZM26.440638 213.19896Q27.628138 213.19896 28.221888 212.68333Q28.815638 212.15208 28.815638 211.37083Q28.815638 210.57396 28.221888 210.05833Q27.628138 209.54271 26.409388 209.54271Q25.253138 209.54271 24.659388 210.07396Q24.065638 210.58958 24.065638 211.37083Q24.065638 212.15208 24.659388 212.68333Q25.237513 213.19896 26.440638 213.19896ZM29.550013 205.16771L23.331263 207.52708L23.331263 206.41771L27.050013 205.07396Q27.659388 204.87083 28.300013 204.68333Q27.815638 204.54271 27.128138 204.29271L23.331263 202.90208L23.331263 201.82396L29.550013 204.18333L29.550013 205.16771ZM27.550013 197.63646L27.675013 196.54271Q28.628138 196.79271 29.159388 197.49583Q29.690638 198.19896 29.690638 199.27708Q29.690638 200.63646 28.846888 201.44896Q28.003138 202.24583 26.487513 202.24583Q24.925013 202.24583 24.065638 201.43333Q23.190638 200.62083 23.190638 199.33958Q23.190638 198.08958 24.034388 197.30833Q24.878138 196.51146 26.425013 196.51146Q26.518763 196.51146 26.706263 196.51146L26.706263 201.15208Q27.737513 201.08958 28.284388 200.57396Q28.815638 200.05833 28.815638 199.27708Q28.815638 198.69896 28.518763 198.29271Q28.206263 197.87083 27.550013 197.63646ZM25.846888 201.08958L25.846888 197.62083Q25.050013 197.68333 24.659388 198.01146Q24.050013 198.52708 24.050013 199.32396Q24.050013 200.05833 24.534388 200.55833Q25.018763 201.04271 25.846888 201.08958ZM29.550013 194.90208L23.331263 194.90208L23.331263 193.94896L24.268763 193.94896Q23.612513 193.58958 23.409388 193.29271Q23.190638 192.98021 23.190638 192.60521Q23.190638 192.07396 23.518763 191.52708L24.503138 191.88646Q24.268763 192.27708 24.268763 192.65208Q24.268763 193.01146 24.487513 193.29271Q24.690638 193.55833 25.065638 193.66771Q25.628138 193.85521 26.284388 193.85521L29.550013 193.85521L29.550013 194.90208ZM29.550013 186.91771L29.550013 187.90208L20.956263 187.90208L20.956263 186.83958L24.018763 186.83958Q23.190638 186.16771 23.190638 185.13646Q23.190638 184.55833 23.425013 184.05833Q23.643763 183.54271 24.065638 183.21458Q24.487513 182.87083 25.081263 182.68333Q25.675013 182.49583 26.346888 182.49583Q27.940638 182.49583 28.815638 183.29271Q29.690638 184.08958 29.690638 185.18333Q29.690638 186.29271 28.768763 186.91771L29.550013 186.91771ZM26.393763 186.93333Q27.503138 186.93333 28.003138 186.62083Q28.815638 186.12083 28.815638 185.27708Q28.815638 184.58958 28.221888 184.08958Q27.628138 183.57396 26.425013 183.57396Q25.206263 183.57396 24.628138 184.05833Q24.050013 184.54271 24.050013 185.23021Q24.050013 185.91771 24.659388 186.43333Q25.253138 186.93333 26.393763 186.93333ZM28.784388 176.82396Q29.284388 177.41771 29.487513 177.96458Q29.690638 178.49583 29.690638 179.12083Q29.690638 180.15208 29.190638 180.69896Q28.690638 181.24583 27.909388 181.24583Q27.456263 181.24583 27.081263 181.04271Q26.690638 180.83958 26.471888 180.49583Q26.237513 180.15208 26.128138 179.73021Q26.034388 179.43333 25.956263 178.79271Q25.815638 177.52708 25.596888 176.91771Q25.378138 176.91771 25.331263 176.91771Q24.675013 176.91771 24.409388 177.21458Q24.065638 177.62083 24.065638 178.41771Q24.065638 179.15208 24.331263 179.51146Q24.581263 179.87083 25.237513 180.04271L25.096888 181.07396Q24.440638 180.93333 24.034388 180.60521Q23.628138 180.27708 23.409388 179.66771Q23.190638 179.05833 23.190638 178.26146Q23.190638 177.46458 23.378138 176.96458Q23.565638 176.46458 23.846888 176.23021Q24.128138 175.99583 24.565638 175.90208Q24.831263 175.85521 25.534388 175.85521L26.940638 175.85521Q28.409388 175.85521 28.800013 175.79271Q29.190638 175.71458 29.550013 175.51146L29.550013 176.62083Q29.221888 176.77708 28.784388 176.82396ZM26.425013 176.91771Q26.659388 177.49583 26.831263 178.63646Q26.925013 179.29271 27.050013 179.55833Q27.159388 179.82396 27.378138 179.98021Q27.596888 180.12083 27.878138 180.12083Q28.300013 180.12083 28.581263 179.80833Q28.862513 179.48021 28.862513 178.87083Q28.862513 178.26146 28.596888 177.79271Q28.331263 177.30833 27.862513 177.08958Q27.503138 176.91771 26.815638 176.91771L26.425013 176.91771ZM27.690638 174.30833L27.534388 173.27708Q28.159388 173.18333 28.487513 172.79271Q28.815638 172.38646 28.815638 171.65208Q28.815638 170.93333 28.534388 170.58958Q28.237513 170.23021 27.831263 170.23021Q27.471888 170.23021 27.268763 170.54271Q27.128138 170.76146 26.909388 171.62083Q26.612513 172.77708 26.409388 173.23021Q26.190638 173.66771 25.815638 173.90208Q25.440638 174.13646 24.971888 174.13646Q24.565638 174.13646 24.206263 173.94896Q23.846888 173.76146 23.612513 173.43333Q23.440638 173.18333 23.315638 172.76146Q23.190638 172.33958 23.190638 171.83958Q23.190638 171.12083 23.409388 170.57396Q23.612513 170.01146 23.971888 169.74583Q24.331263 169.48021 24.925013 169.38646L25.065638 170.41771Q24.596888 170.48021 24.331263 170.82396Q24.050013 171.15208 24.050013 171.77708Q24.050013 172.49583 24.300013 172.80833Q24.534388 173.12083 24.862513 173.12083Q25.065638 173.12083 25.221888 172.99583Q25.393763 172.85521 25.503138 172.58958Q25.565638 172.43333 25.768763 171.65208Q26.081263 170.52708 26.268763 170.08958Q26.456263 169.65208 26.815638 169.40208Q27.175013 169.15208 27.721888 169.15208Q28.253138 169.15208 28.721888 169.46458Q29.175013 169.76146 29.440638 170.33958Q29.690638 170.91771 29.690638 171.65208Q29.690638 172.87083 29.190638 173.51146Q28.675013 174.13646 27.690638 174.30833ZM27.550013 162.63646L27.675013 161.54271Q28.628138 161.79271 29.159388 162.49583Q29.690638 163.19896 29.690638 164.27708Q29.690638 165.63646 28.846888 166.44896Q28.003138 167.24583 26.487513 167.24583Q24.925013 167.24583 24.065638 166.43333Q23.190638 165.62083 23.190638 164.33958Q23.190638 163.08958 24.034388 162.30833Q24.878138 161.51146 26.425013 161.51146Q26.518763 161.51146 26.706263 161.51146L26.706263 166.15208Q27.737513 166.08958 28.284388 165.57396Q28.815638 165.05833 28.815638 164.27708Q28.815638 163.69896 28.518763 163.29271Q28.206263 162.87083 27.550013 162.63646ZM25.846888 166.08958L25.846888 162.62083Q25.050013 162.68333 24.659388 163.01146Q24.050013 163.52708 24.050013 164.32396Q24.050013 165.05833 24.534388 165.55833Q25.018763 166.04271 25.846888 166.08958ZM29.550013 159.91771L20.956263 159.91771L20.956263 158.85521L29.550013 158.85521L29.550013 159.91771ZM22.175013 156.88646L20.956263 156.88646L20.956263 155.82396L22.175013 155.82396L22.175013 156.88646ZM29.550013 156.88646L23.331263 156.88646L23.331263 155.82396L29.550013 155.82396L29.550013 156.88646ZM29.550013 153.88646L23.331263 153.88646L23.331263 152.94896L24.206263 152.94896Q23.190638 152.26146 23.190638 150.96458Q23.190638 150.40208 23.393763 149.93333Q23.596888 149.44896 23.925013 149.21458Q24.253138 148.98021 24.690638 148.88646Q24.987513 148.83958 25.721888 148.83958L29.550013 148.83958L29.550013 149.88646L25.768763 149.88646Q25.112513 149.88646 24.800013 150.01146Q24.487513 150.13646 24.300013 150.44896Q24.096888 150.76146 24.096888 151.18333Q24.096888 151.85521 24.534388 152.35521Q24.956263 152.83958 26.143763 152.83958L29.550013 152.83958L29.550013 153.88646ZM27.550013 142.63646L27.675013 141.54271Q28.628138 141.79271 29.159388 142.49583Q29.690638 143.19896 29.690638 144.27708Q29.690638 145.63646 28.846888 146.44896Q28.003138 147.24583 26.487513 147.24583Q24.925013 147.24583 24.065638 146.43333Q23.190638 145.62083 23.190638 144.33958Q23.190638 143.08958 24.034388 142.30833Q24.878138 141.51146 26.425013 141.51146Q26.518763 141.51146 26.706263 141.51146L26.706263 146.15208Q27.737513 146.08958 28.284388 145.57396Q28.815638 145.05833 28.815638 144.27708Q28.815638 143.69896 28.518763 143.29271Q28.206263 142.87083 27.550013 142.63646ZM25.846888 146.08958L25.846888 142.62083Q25.050013 142.68333 24.659388 143.01146Q24.050013 143.52708 24.050013 144.32396Q24.050013 145.05833 24.534388 145.55833Q25.018763 146.04271 25.846888 146.08958ZM32.08126 134.87083Q30.971888 135.74583 29.503138 136.35521Q28.018763 136.94896 26.440638 136.94896Q25.050013 136.94896 23.768763 136.51146Q22.284388 135.98021 20.815638 134.87083L20.815638 134.12083Q22.034388 134.82396 22.550013 135.05833Q23.362513 135.41771 24.237513 135.62083Q25.331263 135.87083 26.440638 135.87083Q29.268763 135.87083 32.08126 134.12083L32.08126 134.87083ZM29.550013 132.90208L23.331263 132.90208L23.331263 131.94896L24.268763 131.94896Q23.612513 131.58958 23.409388 131.29271Q23.190638 130.98021 23.190638 130.60521Q23.190638 130.07396 23.518763 129.52708L24.503138 129.88646Q24.268763 130.27708 24.268763 130.65208Q24.268763 131.01146 24.487513 131.29271Q24.690638 131.55833 25.065638 131.66771Q25.628138 131.85521 26.284388 131.85521L29.550013 131.85521L29.550013 132.90208ZM28.784388 124.82396Q29.284388 125.41771 29.487513 125.964584Q29.690638 126.495834 29.690638 127.120834Q29.690638 128.15208 29.190638 128.69896Q28.690638 129.24583 27.909388 129.24583Q27.456263 129.24583 27.081263 129.04271Q26.690638 128.83958 26.471888 128.49583Q26.237513 128.15208 26.128138 127.73021Q26.034388 127.433334 25.956263 126.79271Q25.815638 125.527084 25.596888 124.91771Q25.378138 124.91771 25.331263 124.91771Q24.675013 124.91771 24.409388 125.214584Q24.065638 125.620834 24.065638 126.41771Q24.065638 127.152084 24.331263 127.51146Q24.581263 127.870834 25.237513 128.04271L25.096888 129.07396Q24.440638 128.93333 24.034388 128.60521Q23.628138 128.27708 23.409388 127.66771Q23.190638 127.058334 23.190638 126.26146Q23.190638 125.464584 23.378138 124.964584Q23.565638 124.464584 23.846888 124.23021Q24.128138 123.995834 24.565638 123.902084Q24.831263 123.85521 25.534388 123.85521L26.940638 123.85521Q28.409388 123.85521 28.800013 123.79271Q29.190638 123.714584 29.550013 123.51146L29.550013 124.620834Q29.221888 124.777084 28.784388 124.82396ZM26.425013 124.91771Q26.659388 125.495834 26.831263 126.63646Q26.925013 127.29271 27.050013 127.558334Q27.159388 127.82396 27.378138 127.98021Q27.596888 128.12083 27.878138 128.12083Q28.300013 128.12083 28.581263 127.808334Q28.862513 127.48021 28.862513 126.870834Q28.862513 126.26146 28.596888 125.79271Q28.331263 125.308334 27.862513 125.089584Q27.503138 124.91771 26.815638 124.91771L26.425013 124.91771ZM28.612513 119.589584L29.534388 119.433334Q29.628138 119.88646 29.628138 120.23021Q29.628138 120.808334 29.456263 121.120834Q29.268763 121.433334 28.971888 121.57396Q28.675013 121.69896 27.721888 121.69896L24.143763 121.69896L24.143763 122.464584L23.331263 122.464584L23.331263 121.69896L21.784388 121.69896L21.159388 120.652084L23.331263 120.652084L23.331263 119.589584L24.143763 119.589584L24.143763 120.652084L27.784388 120.652084Q28.237513 120.652084 28.362513 120.60521Q28.487513 120.54271 28.565638 120.41771Q28.643763 120.29271 28.643763 120.058334Q28.643763 119.870834 28.612513 119.589584ZM22.175013 118.88646L20.956263 118.88646L20.956263 117.82396L22.175013 117.82396L22.175013 118.88646ZM29.550013 118.88646L23.331263 118.88646L23.331263 117.82396L29.550013 117.82396L29.550013 118.88646ZM26.440638 116.277084Q24.706263 116.277084 23.878138 115.32396Q23.190638 114.527084 23.190638 113.370834Q23.190638 112.089584 24.034388 111.277084Q24.862513 110.44896 26.346888 110.44896Q27.550013 110.44896 28.237513 110.808334Q28.925013 111.16771 29.315638 111.870834Q29.690638 112.558334 29.690638 113.370834Q29.690638 114.66771 28.862513 115.48021Q28.018763 116.277084 26.440638 116.277084ZM26.440638 115.19896Q27.628138 115.19896 28.221888 114.683334Q28.815638 114.152084 28.815638 113.370834Q28.815638 112.57396 28.221888 112.058334Q27.628138 111.54271 26.409388 111.54271Q25.253138 111.54271 24.659388 112.07396Q24.065638 112.589584 24.065638 113.370834Q24.065638 114.152084 24.659388 114.683334Q25.237513 115.19896 26.440638 115.19896ZM32.08126 108.19896L32.08126 108.94896Q29.268763 107.19896 26.440638 107.19896Q25.346888 107.19896 24.253138 107.44896Q23.378138 107.652084 22.565638 108.01146Q22.050013 108.245834 20.815638 108.94896L20.815638 108.19896Q22.284388 107.10521 23.768763 106.57396Q25.050013 106.120834 26.440638 106.120834Q28.018763 106.120834 29.503138 106.73021Q30.971888 107.339584 32.08126 108.19896Z" fill-rule="nonzero"/><path fill="#000000" d="M65.05 300.21564Q65.05 298.6844 65.3625 297.7625Q65.675 296.825 66.28438 296.325Q66.90938 295.825 67.84688 295.825Q68.53438 295.825 69.05 296.10626Q69.58125 296.3875 69.925 296.91876Q70.26875 297.4344 70.45625 298.1844Q70.64375 298.9344 70.64375 300.21564Q70.64375 301.73126 70.33125 302.65314Q70.03438 303.575 69.40938 304.09064Q68.8 304.59064 67.84688 304.59064Q66.6125 304.59064 65.89375 303.7Q65.05 302.6375 65.05 300.21564ZM66.12813 300.21564Q66.12813 302.325 66.62813 303.02814Q67.12813 303.73126 67.84688 303.73126Q68.58125 303.73126 69.06563 303.02814Q69.56563 302.325 69.56563 300.21564Q69.56563 298.09064 69.06563 297.40314Q68.58125 296.7 67.83125 296.7Q67.1125 296.7 66.675 297.3094Q66.12813 298.09064 66.12813 300.21564Z" fill-rule="nonzero"/><path fill="#000000" d="M70.59688 243.80104L70.59688 244.81667L64.90938 244.81667Q64.90938 244.44167 65.03438 244.08229Q65.25313 243.50417 65.72188 242.94167Q66.20625 242.37917 67.1125 241.64479Q68.51875 240.48854 69.00313 239.81667Q69.50313 239.14479 69.50313 238.55104Q69.50313 237.92604 69.05 237.50417Q68.59688 237.06667 67.87813 237.06667Q67.1125 237.06667 66.65938 237.51979Q66.20625 237.97292 66.19063 238.78542L65.1125 238.67604Q65.22188 237.45729 65.94063 236.83229Q66.675 236.19167 67.90938 236.19167Q69.14375 236.19167 69.8625 236.87917Q70.58125 237.56667 70.58125 238.58229Q70.58125 239.09792 70.3625 239.59792Q70.15938 240.08229 69.65938 240.64479Q69.175 241.19167 68.05 242.14479Q67.09688 242.94167 66.81563 243.23854Q66.55 243.51979 66.37813 243.80104L70.59688 243.80104Z" fill-rule="nonzero"/><path fill="#000000" d="M68.425 185.18333L68.425 183.12083L64.70625 183.12083L64.70625 182.15208L68.62813 176.58958L69.4875 176.58958L69.4875 182.15208L70.64375 182.15208L70.64375 183.12083L69.4875 183.12083L69.4875 185.18333L68.425 185.18333ZM68.425 182.15208L68.425 178.29271L65.7375 182.15208L68.425 182.15208Z" fill-rule="nonzero"/><path fill="#000000" d="M70.51875 119.06563L69.47188 119.14375Q69.33125 118.51875 69.08125 118.2375Q68.64375 117.78438 68.01875 117.78438Q67.51875 117.78438 67.12813 118.06563Q66.64375 118.44063 66.34688 119.14375Q66.06563 119.83125 66.05 121.1125Q66.425 120.53438 66.97188 120.25313Q67.53438 119.97188 68.14375 119.97188Q69.19063 119.97188 69.925 120.75313Q70.675 121.53438 70.675 122.75313Q70.675 123.56563 70.31563 124.26875Q69.97188 124.95625 69.3625 125.33125Q68.75313 125.69063 67.9875 125.69063Q66.65938 125.69063 65.83125 124.72188Q65.00313 123.75313 65.00313 121.53438Q65.00313 119.03438 65.925 117.90938Q66.72188 116.925 68.08125 116.925Q69.09688 116.925 69.7375 117.50313Q70.39375 118.06563 70.51875 119.06563ZM66.22188 122.76875Q66.22188 123.31563 66.44063 123.81563Q66.675 124.3 67.08125 124.56563Q67.50313 124.83125 67.97188 124.83125Q68.62813 124.83125 69.1125 124.3Q69.59688 123.75313 69.59688 122.83125Q69.59688 121.94063 69.1125 121.425Q68.64375 120.90938 67.925 120.90938Q67.20625 120.90938 66.70625 121.425Q66.22188 121.94063 66.22188 122.76875Z" fill-rule="nonzero"/><path fill="#000000" d="M66.675 61.260414Q66.01875 61.010414 65.69063 60.572914Q65.37813 60.11979 65.37813 59.510414Q65.37813 58.572914 66.05 57.93229Q66.7375 57.291664 67.84688 57.291664Q68.97188 57.291664 69.65938 57.947914Q70.34688 58.604164 70.34688 59.541664Q70.34688 60.135414 70.03438 60.572914Q69.72188 61.010414 69.08125 61.260414Q69.87813 61.510414 70.28438 62.08854Q70.69063 62.666664 70.69063 63.46354Q70.69063 64.55729 69.90938 65.30729Q69.14375 66.05729 67.8625 66.05729Q66.59688 66.05729 65.81563 65.30729Q65.03438 64.55729 65.03438 63.43229Q65.03438 62.58854 65.45625 62.02604Q65.89375 61.46354 66.675 61.260414ZM66.45625 59.46354Q66.45625 60.072914 66.84688 60.46354Q67.25313 60.854164 67.87813 60.854164Q68.4875 60.854164 68.87813 60.479164Q69.26875 60.08854 69.26875 59.52604Q69.26875 58.947914 68.8625 58.55729Q68.45625 58.15104 67.8625 58.15104Q67.25313 58.15104 66.84688 58.541664Q66.45625 58.93229 66.45625 59.46354ZM66.12813 63.43229Q66.12813 63.885414 66.33125 64.30729Q66.55 64.729164 66.97188 64.96354Q67.39375 65.197914 67.87813 65.197914Q68.62813 65.197914 69.1125 64.71354Q69.6125 64.229164 69.6125 63.479164Q69.6125 62.71354 69.1125 62.21354Q68.6125 61.71354 67.84688 61.71354Q67.09688 61.71354 66.6125 62.21354Q66.12813 62.697914 66.12813 63.43229Z" fill-rule="nonzero"/><path fill="#000000" d="M78.51875 317.45L77.47188 317.45L77.47188 310.73126Q77.08125 311.09064 76.45625 311.46564Q75.84688 311.825 75.3625 311.9969L75.3625 310.98126Q76.2375 310.5594 76.89375 309.98126Q77.56563 309.3875 77.84688 308.825L78.51875 308.825L78.51875 317.45Z" fill-rule="nonzero"/><path fill="#000000" d="M188.1481 317.45L187.10123 317.45L187.10123 310.73126Q186.7106 311.09064 186.0856 311.46564Q185.47623 311.825 184.99185 311.9969L184.99185 310.98126Q185.86685 310.5594 186.5231 309.98126Q187.19498 309.3875 187.47623 308.825L188.1481 308.825L188.1481 317.45ZM191.17935 313.21564Q191.17935 311.6844 191.49185 310.7625Q191.80435 309.825 192.41373 309.325Q193.03873 308.825 193.97623 308.825Q194.66373 308.825 195.17935 309.10626Q195.7106 309.3875 196.05435 309.91876Q196.3981 310.4344 196.5856 311.1844Q196.7731 311.9344 196.7731 313.21564Q196.7731 314.73126 196.4606 315.65314Q196.16373 316.575 195.53873 317.09064Q194.92935 317.59064 193.97623 317.59064Q192.74185 317.59064 192.0231 316.7Q191.17935 315.6375 191.17935 313.21564ZM192.25748 313.21564Q192.25748 315.325 192.75748 316.02814Q193.25748 316.73126 193.97623 316.73126Q194.7106 316.73126 195.19498 316.02814Q195.69498 315.325 195.69498 313.21564Q195.69498 311.09064 195.19498 310.40314Q194.7106 309.7 193.9606 309.7Q193.24185 309.7 192.80435 310.3094Q192.25748 311.09064 192.25748 313.21564Z" fill-rule="nonzero"/><path fill="#000000" d="M297.77747 317.45L296.7306 317.45L296.7306 310.73126Q296.33997 311.09064 295.71497 311.46564Q295.1056 311.825 294.62122 311.9969L294.62122 310.98126Q295.49622 310.5594 296.15247 309.98126Q296.82434 309.3875 297.1056 308.825L297.77747 308.825L297.77747 317.45ZM300.80872 313.21564Q300.80872 311.6844 301.12122 310.7625Q301.43372 309.825 302.0431 309.325Q302.6681 308.825 303.6056 308.825Q304.2931 308.825 304.80872 309.10626Q305.33997 309.3875 305.68372 309.91876Q306.02747 310.4344 306.21497 311.1844Q306.40247 311.9344 306.40247 313.21564Q306.40247 314.73126 306.08997 315.65314Q305.7931 316.575 305.1681 317.09064Q304.55872 317.59064 303.6056 317.59064Q302.37122 317.59064 301.65247 316.7Q300.80872 315.6375 300.80872 313.21564ZM301.88684 313.21564Q301.88684 315.325 302.38684 316.02814Q302.88684 316.73126 303.6056 316.73126Q304.33997 316.73126 304.82434 316.02814Q305.32434 315.325 305.32434 313.21564Q305.32434 311.09064 304.82434 310.40314Q304.33997 309.7 303.58997 309.7Q302.87122 309.7 302.43372 310.3094Q301.88684 311.09064 301.88684 313.21564ZM307.80872 313.21564Q307.80872 311.6844 308.12122 310.7625Q308.43372 309.825 309.0431 309.325Q309.6681 308.825 310.6056 308.825Q311.2931 308.825 311.80872 309.10626Q312.33997 309.3875 312.68372 309.91876Q313.02747 310.4344 313.21497 311.1844Q313.40247 311.9344 313.40247 313.21564Q313.40247 314.73126 313.08997 315.65314Q312.7931 316.575 312.1681 317.09064Q311.55872 317.59064 310.6056 317.59064Q309.37122 317.59064 308.65247 316.7Q307.80872 315.6375 307.80872 313.21564ZM308.88684 313.21564Q308.88684 315.325 309.38684 316.02814Q309.88684 316.73126 310.6056 316.73126Q311.33997 316.73126 311.82434 316.02814Q312.32434 315.325 312.32434 313.21564Q312.32434 311.09064 311.82434 310.40314Q311.33997 309.7 310.58997 309.7Q309.87122 309.7 309.43372 310.3094Q308.88684 311.09064 308.88684 313.21564Z" fill-rule="nonzero"/><path fill="#000000" d="M407.40683 317.45L406.35995 317.45L406.35995 310.73126Q405.96933 311.09064 405.34433 311.46564Q404.73495 311.825 404.25058 311.9969L404.25058 310.98126Q405.12558 310.5594 405.78183 309.98126Q406.4537 309.3875 406.73495 308.825L407.40683 308.825L407.40683 317.45ZM410.43808 313.21564Q410.43808 311.6844 410.75058 310.7625Q411.06308 309.825 411.67245 309.325Q412.29745 308.825 413.23495 308.825Q413.92245 308.825 414.43808 309.10626Q414.96933 309.3875 415.31308 309.91876Q415.65683 310.4344 415.84433 311.1844Q416.03183 311.9344 416.03183 313.21564Q416.03183 314.73126 415.71933 315.65314Q415.42245 316.575 414.79745 317.09064Q414.18808 317.59064 413.23495 317.59064Q412.00058 317.59064 411.28183 316.7Q410.43808 315.6375 410.43808 313.21564ZM411.5162 313.21564Q411.5162 315.325 412.0162 316.02814Q412.5162 316.73126 413.23495 316.73126Q413.96933 316.73126 414.4537 316.02814Q414.9537 315.325 414.9537 313.21564Q414.9537 311.09064 414.4537 310.40314Q413.96933 309.7 413.21933 309.7Q412.50058 309.7 412.06308 310.3094Q411.5162 311.09064 411.5162 313.21564ZM417.43808 313.21564Q417.43808 311.6844 417.75058 310.7625Q418.06308 309.825 418.67245 309.325Q419.29745 308.825 420.23495 308.825Q420.92245 308.825 421.43808 309.10626Q421.96933 309.3875 422.31308 309.91876Q422.65683 310.4344 422.84433 311.1844Q423.03183 311.9344 423.03183 313.21564Q423.03183 314.73126 422.71933 315.65314Q422.42245 316.575 421.79745 317.09064Q421.18808 317.59064 420.23495 317.59064Q419.00058 317.59064 418.28183 316.7Q417.43808 315.6375 417.43808 313.21564ZM418.5162 313.21564Q418.5162 315.325 419.0162 316.02814Q419.5162 316.73126 420.23495 316.73126Q420.96933 316.73126 421.4537 316.02814Q421.9537 315.325 421.9537 313.21564Q421.9537 311.09064 421.4537 310.40314Q420.96933 309.7 420.21933 309.7Q419.50058 309.7 419.06308 310.3094Q418.5162 311.09064 418.5162 313.21564ZM424.43808 313.21564Q424.43808 311.6844 424.75058 310.7625Q425.06308 309.825 425.67245 309.325Q426.29745 308.825 427.23495 308.825Q427.92245 308.825 428.43808 309.10626Q428.96933 309.3875 429.31308 309.91876Q429.65683 310.4344 429.84433 311.1844Q430.03183 311.9344 430.03183 313.21564Q430.03183 314.73126 429.71933 315.65314Q429.42245 316.575 428.79745 317.09064Q428.18808 317.59064 427.23495 317.59064Q426.00058 317.59064 425.28183 316.7Q424.43808 315.6375 424.43808 313.21564ZM425.5162 313.21564Q425.5162 315.325 426.0162 316.02814Q426.5162 316.73126 427.23495 316.73126Q427.96933 316.73126 428.4537 316.02814Q428.9537 315.325 428.9537 313.21564Q428.9537 311.09064 428.4537 310.40314Q427.96933 309.7 427.21933 309.7Q426.50058 309.7 426.06308 310.3094Q425.5162 311.09064 425.5162 313.21564Z" fill-rule="nonzero"/><path fill="#757575" d="M97.140625 37.55L100.9375 32.159374L97.4375 27.175L99.625 27.175L101.21875 29.6125Q101.671875 30.3 101.9375 30.76875Q102.375 30.128124 102.734375 29.628124L104.484375 27.175L106.578125 27.175L103.0 32.065624L106.859375 37.55L104.703125 37.55L102.5625 34.33125L102.0 33.45625L99.28125 37.55L97.140625 37.55ZM109.53125 29.784374Q108.4375 29.378124 107.90625 28.64375Q107.390625 27.89375 107.390625 26.8625Q107.390625 25.3 108.515625 24.2375Q109.640625 23.175 111.5 23.175Q113.375 23.175 114.515625 24.26875Q115.65625 25.346874 115.65625 26.909374Q115.65625 27.909374 115.125 28.64375Q114.609375 29.378124 113.546875 29.784374Q114.875 30.221874 115.5625 31.175Q116.25 32.128124 116.25 33.45625Q116.25 35.3 114.9375 36.55Q113.640625 37.8 111.53125 37.8Q109.40625 37.8 108.109375 36.55Q106.8125 35.284374 106.8125 33.409374Q106.8125 32.01875 107.515625 31.08125Q108.234375 30.128124 109.53125 29.784374ZM109.1875 26.8Q109.1875 27.815624 109.84375 28.471874Q110.5 29.1125 111.53125 29.1125Q112.546875 29.1125 113.203125 28.471874Q113.859375 27.83125 113.859375 26.909374Q113.859375 25.940624 113.1875 25.284374Q112.515625 24.6125 111.515625 24.6125Q110.515625 24.6125 109.84375 25.26875Q109.1875 25.909374 109.1875 26.8ZM108.625 33.425Q108.625 34.175 108.96875 34.878124Q109.328125 35.58125 110.03125 35.971874Q110.734375 36.346874 111.546875 36.346874Q112.8125 36.346874 113.625 35.534374Q114.453125 34.721874 114.453125 33.471874Q114.453125 32.20625 113.609375 31.378124Q112.765625 30.55 111.484375 30.55Q110.25 30.55 109.4375 31.378124Q108.625 32.190624 108.625 33.425ZM126.953125 26.7375L125.203125 26.878124Q124.96875 25.846874 124.546875 25.378124Q123.828125 24.6125 122.78125 24.6125Q121.9375 24.6125 121.3125 25.08125Q120.484375 25.690624 120.0 26.8625Q119.515625 28.01875 119.5 30.159374Q120.140625 29.20625 121.046875 28.7375Q121.96875 28.26875 122.984375 28.26875Q124.734375 28.26875 125.96875 29.565624Q127.203125 30.846874 127.203125 32.89375Q127.203125 34.253124 126.625 35.409374Q126.046875 36.565624 125.03125 37.190624Q124.015625 37.8 122.71875 37.8Q120.53125 37.8 119.140625 36.190624Q117.75 34.565624 117.75 30.846874Q117.75 26.70625 119.28125 24.815624Q120.625 23.175 122.890625 23.175Q124.578125 23.175 125.65625 24.128124Q126.734375 25.065624 126.953125 26.7375ZM119.78125 32.909374Q119.78125 33.815624 120.15625 34.64375Q120.546875 35.471874 121.234375 35.909374Q121.9375 36.346874 122.6875 36.346874Q123.8125 36.346874 124.609375 35.45625Q125.40625 34.55 125.40625 33.003124Q125.40625 31.51875 124.609375 30.675Q123.828125 29.815624 122.625 29.815624Q121.4375 29.815624 120.609375 30.675Q119.78125 31.51875 119.78125 32.909374ZM138.20312 37.55L134.25 27.175L136.10938 27.175L138.34375 33.39375Q138.70312 34.39375 139.0 35.471874Q139.23438 34.659374 139.65625 33.503124L141.95312 27.175L143.76562 27.175L139.84375 37.55L138.20312 37.55ZM144.28125 37.55L144.28125 23.2375L146.03125 23.2375L146.03125 37.55L144.28125 37.55ZM155.42188 34.20625L157.23438 34.440624Q156.8125 36.01875 155.64062 36.909374Q154.48438 37.784374 152.67188 37.784374Q150.40625 37.784374 149.0625 36.39375Q147.73438 34.9875 147.73438 32.45625Q147.73438 29.83125 149.07812 28.39375Q150.42188 26.940624 152.57812 26.940624Q154.65625 26.940624 155.96875 28.3625Q157.29688 29.76875 157.29688 32.346874Q157.29688 32.503124 157.28125 32.815624L149.54688 32.815624Q149.64062 34.51875 150.51562 35.425Q151.39062 36.33125 152.6875 36.33125Q153.65625 36.33125 154.32812 35.83125Q155.01562 35.315624 155.42188 34.20625ZM149.64062 31.3625L155.4375 31.3625Q155.32812 30.065624 154.78125 29.409374Q153.9375 28.39375 152.59375 28.39375Q151.39062 28.39375 150.5625 29.20625Q149.73438 30.003124 149.64062 31.3625ZM161.53125 29.784374Q160.4375 29.378124 159.90625 28.64375Q159.39062 27.89375 159.39062 26.8625Q159.39062 25.3 160.51562 24.2375Q161.64062 23.175 163.5 23.175Q165.375 23.175 166.51562 24.26875Q167.65625 25.346874 167.65625 26.909374Q167.65625 27.909374 167.125 28.64375Q166.60938 29.378124 165.54688 29.784374Q166.875 30.221874 167.5625 31.175Q168.25 32.128124 168.25 33.45625Q168.25 35.3 166.9375 36.55Q165.64062 37.8 163.53125 37.8Q161.40625 37.8 160.10938 36.55Q158.8125 35.284374 158.8125 33.409374Q158.8125 32.01875 159.51562 31.08125Q160.23438 30.128124 161.53125 29.784374ZM161.1875 26.8Q161.1875 27.815624 161.84375 28.471874Q162.5 29.1125 163.53125 29.1125Q164.54688 29.1125 165.20312 28.471874Q165.85938 27.83125 165.85938 26.909374Q165.85938 25.940624 165.1875 25.284374Q164.51562 24.6125 163.51562 24.6125Q162.51562 24.6125 161.84375 25.26875Q161.1875 25.909374 161.1875 26.8ZM160.625 33.425Q160.625 34.175 160.96875 34.878124Q161.32812 35.58125 162.03125 35.971874Q162.73438 36.346874 163.54688 36.346874Q164.8125 36.346874 165.625 35.534374Q166.45312 34.721874 166.45312 33.471874Q166.45312 32.20625 165.60938 31.378124Q164.76562 30.55 163.48438 30.55Q162.25 30.55 161.4375 31.378124Q160.625 32.190624 160.625 33.425ZM170.8125 37.55L170.8125 35.55L172.8125 35.55L172.8125 37.55L170.8125 37.55ZM179.20312 37.55L175.25 27.175L177.10938 27.175L179.34375 33.39375Q179.70312 34.39375 180.0 35.471874Q180.23438 34.659374 180.65625 33.503124L182.95312 27.175L184.76562 27.175L180.84375 37.55L179.20312 37.55ZM190.60938 34.45625L192.35938 34.175Q192.5 35.221874 193.17188 35.784374Q193.84375 36.33125 195.04688 36.33125Q196.25 36.33125 196.82812 35.846874Q197.42188 35.346874 197.42188 34.690624Q197.42188 34.096874 196.90625 33.753124Q196.54688 33.51875 195.10938 33.159374Q193.17188 32.659374 192.42188 32.315624Q191.6875 31.95625 191.29688 31.33125Q190.90625 30.690624 190.90625 29.925Q190.90625 29.2375 191.21875 28.64375Q191.54688 28.05 192.09375 27.659374Q192.5 27.3625 193.20312 27.159374Q193.92188 26.940624 194.73438 26.940624Q195.95312 26.940624 196.875 27.3Q197.79688 27.64375 198.23438 28.253124Q198.67188 28.846874 198.84375 29.846874L197.125 30.08125Q197.0 29.284374 196.4375 28.846874Q195.875 28.39375 194.85938 28.39375Q193.64062 28.39375 193.125 28.8Q192.60938 29.190624 192.60938 29.721874Q192.60938 30.065624 192.82812 30.346874Q193.03125 30.628124 193.5 30.815624Q193.76562 30.909374 195.04688 31.253124Q196.92188 31.753124 197.65625 32.08125Q198.39062 32.39375 198.8125 33.003124Q199.23438 33.596874 199.23438 34.503124Q199.23438 35.378124 198.71875 36.159374Q198.20312 36.940624 197.23438 37.3625Q196.26562 37.784374 195.04688 37.784374Q193.03125 37.784374 191.96875 36.940624Q190.90625 36.096874 190.60938 34.45625ZM201.3125 41.51875L201.3125 27.175L202.92188 27.175L202.92188 28.51875Q203.48438 27.7375 204.1875 27.346874Q204.90625 26.940624 205.92188 26.940624Q207.25 26.940624 208.26562 27.628124Q209.28125 28.315624 209.79688 29.565624Q210.32812 30.8 210.32812 32.284374Q210.32812 33.878124 209.75 35.159374Q209.1875 36.425 208.09375 37.1125Q207.0 37.784374 205.79688 37.784374Q204.92188 37.784374 204.21875 37.409374Q203.53125 37.034374 203.07812 36.471874L203.07812 41.51875L201.3125 41.51875ZM202.90625 32.425Q202.90625 34.425 203.71875 35.378124Q204.53125 36.33125 205.6875 36.33125Q206.85938 36.33125 207.6875 35.346874Q208.53125 34.3625 208.53125 32.26875Q208.53125 30.3 207.70312 29.315624Q206.89062 28.315624 205.76562 28.315624Q204.64062 28.315624 203.76562 29.378124Q202.90625 30.425 202.90625 32.425ZM219.42188 34.20625L221.23438 34.440624Q220.8125 36.01875 219.64062 36.909374Q218.48438 37.784374 216.67188 37.784374Q214.40625 37.784374 213.0625 36.39375Q211.73438 34.9875 211.73438 32.45625Q211.73438 29.83125 213.07812 28.39375Q214.42188 26.940624 216.57812 26.940624Q218.65625 26.940624 219.96875 28.3625Q221.29688 29.76875 221.29688 32.346874Q221.29688 32.503124 221.28125 32.815624L213.54688 32.815624Q213.64062 34.51875 214.51562 35.425Q215.39062 36.33125 216.6875 36.33125Q217.65625 36.33125 218.32812 35.83125Q219.01562 35.315624 219.42188 34.20625ZM213.64062 31.3625L219.4375 31.3625Q219.32812 30.065624 218.78125 29.409374Q217.9375 28.39375 216.59375 28.39375Q215.39062 28.39375 214.5625 29.20625Q213.73438 30.003124 213.64062 31.3625ZM230.42188 34.20625L232.23438 34.440624Q231.8125 36.01875 230.64062 36.909374Q229.48438 37.784374 227.67188 37.784374Q225.40625 37.784374 224.0625 36.39375Q222.73438 34.9875 222.73438 32.45625Q222.73438 29.83125 224.07812 28.39375Q225.42188 26.940624 227.57812 26.940624Q229.65625 26.940624 230.96875 28.3625Q232.29688 29.76875 232.29688 32.346874Q232.29688 32.503124 232.28125 32.815624L224.54688 32.815624Q224.64062 34.51875 225.51562 35.425Q226.39062 36.33125 227.6875 36.33125Q228.65625 36.33125 229.32812 35.83125Q230.01562 35.315624 230.42188 34.20625ZM224.64062 31.3625L230.4375 31.3625Q230.32812 30.065624 229.78125 29.409374Q228.9375 28.39375 227.59375 28.39375Q226.39062 28.39375 225.5625 29.20625Q224.73438 30.003124 224.64062 31.3625ZM241.04688 37.55L241.04688 36.2375Q240.0625 37.784374 238.14062 37.784374Q236.90625 37.784374 235.85938 37.096874Q234.82812 36.409374 234.25 35.190624Q233.6875 33.971874 233.6875 32.378124Q233.6875 30.815624 234.20312 29.55Q234.71875 28.284374 235.75 27.6125Q236.79688 26.940624 238.0625 26.940624Q239.0 26.940624 239.73438 27.346874Q240.46875 27.7375 240.9375 28.3625L240.9375 23.2375L242.67188 23.2375L242.67188 37.55L241.04688 37.55ZM235.48438 32.378124Q235.48438 34.3625 236.32812 35.346874Q237.17188 36.33125 238.3125 36.33125Q239.46875 36.33125 240.26562 35.39375Q241.07812 34.45625 241.07812 32.51875Q241.07812 30.39375 240.25 29.39375Q239.4375 28.39375 238.23438 28.39375Q237.0625 28.39375 236.26562 29.3625Q235.48438 30.315624 235.48438 32.378124ZM252.10938 37.55L252.10938 36.01875Q250.90625 37.784374 248.82812 37.784374Q247.90625 37.784374 247.10938 37.440624Q246.3125 37.08125 245.92188 36.55Q245.54688 36.01875 245.39062 35.2375Q245.28125 34.721874 245.28125 33.596874L245.28125 27.175L247.03125 27.175L247.03125 32.925Q247.03125 34.3 247.14062 34.784374Q247.3125 35.471874 247.84375 35.878124Q248.39062 36.26875 249.17188 36.26875Q249.96875 36.26875 250.65625 35.8625Q251.35938 35.45625 251.64062 34.76875Q251.9375 34.065624 251.9375 32.7375L251.9375 27.175L253.6875 27.175L253.6875 37.55L252.10938 37.55ZM255.3125 41.51875L255.3125 27.175L256.92188 27.175L256.92188 28.51875Q257.48438 27.7375 258.1875 27.346874Q258.90625 26.940624 259.92188 26.940624Q261.25 26.940624 262.26562 27.628124Q263.28125 28.315624 263.79688 29.565624Q264.32812 30.8 264.32812 32.284374Q264.32812 33.878124 263.75 35.159374Q263.1875 36.425 262.09375 37.1125Q261.0 37.784374 259.79688 37.784374Q258.92188 37.784374 258.21875 37.409374Q257.53125 37.034374 257.07812 36.471874L257.07812 41.51875L255.3125 41.51875ZM256.90625 32.425Q256.90625 34.425 257.71875 35.378124Q258.53125 36.33125 259.6875 36.33125Q260.85938 36.33125 261.6875 35.346874Q262.53125 34.3625 262.53125 32.26875Q262.53125 30.3 261.70312 29.315624Q260.89062 28.315624 259.76562 28.315624Q258.64062 28.315624 257.76562 29.378124Q256.90625 30.425 256.90625 32.425ZM276.64062 37.55L271.09375 23.2375L273.14062 23.2375L276.85938 33.628124Q277.3125 34.878124 277.60938 35.971874Q277.9375 34.8 278.39062 33.628124L282.25 23.2375L284.1875 23.2375L278.57812 37.55L276.64062 37.55ZM285.46875 37.55L285.46875 23.2375L287.35938 23.2375L287.35938 35.8625L294.40625 35.8625L294.40625 37.55L285.46875 37.55ZM296.57812 37.55L296.57812 23.2375L306.9375 23.2375L306.9375 24.925L298.48438 24.925L298.48438 29.3L306.39062 29.3L306.39062 30.9875L298.48438 30.9875L298.48438 35.8625L307.26562 35.8625L307.26562 37.55L296.57812 37.55ZM309.53125 37.55L309.53125 23.2375L311.46875 23.2375L318.98438 34.471874L318.98438 23.2375L320.79688 23.2375L320.79688 37.55L318.85938 37.55L311.34375 26.3L311.34375 37.55L309.53125 37.55ZM331.5625 29.128124L322.10938 29.128124L322.10938 27.4875L331.5625 27.4875L331.5625 29.128124ZM331.5625 33.471874L322.10938 33.471874L322.10938 31.83125L331.5625 31.83125L331.5625 33.471874ZM340.45312 37.55L338.6875 37.55L338.6875 26.346874Q338.0625 26.95625 337.03125 27.565624Q336.0 28.159374 335.17188 28.471874L335.17188 26.76875Q336.65625 26.08125 337.75 25.096874Q338.85938 24.096874 339.3125 23.175L340.45312 23.175L340.45312 37.55ZM354.0625 35.8625L354.0625 37.55L344.60938 37.55Q344.59375 36.909374 344.8125 36.33125Q345.17188 35.3625 345.96875 34.425Q346.76562 33.4875 348.26562 32.253124Q350.60938 30.346874 351.42188 29.2375Q352.25 28.1125 352.25 27.1125Q352.25 26.065624 351.5 25.346874Q350.75 24.628124 349.54688 24.628124Q348.28125 24.628124 347.51562 25.39375Q346.75 26.159374 346.75 27.503124L344.9375 27.315624Q345.125 25.3 346.32812 24.2375Q347.54688 23.175 349.59375 23.175Q351.64062 23.175 352.84375 24.315624Q354.04688 25.45625 354.04688 27.14375Q354.04688 28.003124 353.6875 28.846874Q353.34375 29.675 352.53125 30.596874Q351.71875 31.503124 349.82812 33.1125Q348.23438 34.440624 347.78125 34.909374Q347.34375 35.378124 347.04688 35.8625L354.0625 35.8625ZM358.53125 29.784374Q357.4375 29.378124 356.90625 28.64375Q356.39062 27.89375 356.39062 26.8625Q356.39062 25.3 357.51562 24.2375Q358.64062 23.175 360.5 23.175Q362.375 23.175 363.51562 24.26875Q364.65625 25.346874 364.65625 26.909374Q364.65625 27.909374 364.125 28.64375Q363.60938 29.378124 362.54688 29.784374Q363.875 30.221874 364.5625 31.175Q365.25 32.128124 365.25 33.45625Q365.25 35.3 363.9375 36.55Q362.64062 37.8 360.53125 37.8Q358.40625 37.8 357.10938 36.55Q355.8125 35.284374 355.8125 33.409374Q355.8125 32.01875 356.51562 31.08125Q357.23438 30.128124 358.53125 29.784374ZM358.1875 26.8Q358.1875 27.815624 358.84375 28.471874Q359.5 29.1125 360.53125 29.1125Q361.54688 29.1125 362.20312 28.471874Q362.85938 27.83125 362.85938 26.909374Q362.85938 25.940624 362.1875 25.284374Q361.51562 24.6125 360.51562 24.6125Q359.51562 24.6125 358.84375 25.26875Q358.1875 25.909374 358.1875 26.8ZM357.625 33.425Q357.625 34.175 357.96875 34.878124Q358.32812 35.58125 359.03125 35.971874Q359.73438 36.346874 360.54688 36.346874Q361.8125 36.346874 362.625 35.534374Q363.45312 34.721874 363.45312 33.471874Q363.45312 32.20625 362.60938 31.378124Q361.76562 30.55 360.48438 30.55Q359.25 30.55 358.4375 31.378124Q357.625 32.190624 357.625 33.425ZM373.46875 37.55L373.46875 23.2375L375.35938 23.2375L375.35938 35.8625L382.40625 35.8625L382.40625 37.55L373.46875 37.55ZM384.48438 37.55L384.48438 23.2375L387.34375 23.2375L390.71875 33.3625Q391.1875 34.784374 391.40625 35.4875Q391.65625 34.70625 392.17188 33.190624L395.59375 23.2375L398.14062 23.2375L398.14062 37.55L396.32812 37.55L396.32812 25.565624L392.15625 37.55L390.45312 37.55L386.3125 25.3625L386.3125 37.55L384.48438 37.55ZM410.9375 23.2375L412.82812 23.2375L412.82812 31.503124Q412.82812 33.659374 412.34375 34.940624Q411.85938 36.20625 410.57812 37.003124Q409.3125 37.8 407.23438 37.8Q405.21875 37.8 403.9375 37.1125Q402.67188 36.409374 402.125 35.096874Q401.57812 33.784374 401.57812 31.503124L401.57812 23.2375L403.46875 23.2375L403.46875 31.4875Q403.46875 33.3625 403.8125 34.253124Q404.15625 35.128124 405.0 35.6125Q405.84375 36.08125 407.07812 36.08125Q409.15625 36.08125 410.04688 35.14375Q410.9375 34.190624 410.9375 31.4875L410.9375 23.2375ZM414.46875 37.55L414.46875 23.2375L416.35938 23.2375L416.35938 35.8625L423.40625 35.8625L423.40625 37.55L414.46875 37.55ZM434.5625 29.128124L425.10938 29.128124L425.10938 27.4875L434.5625 27.4875L434.5625 29.128124ZM434.5625 33.471874L425.10938 33.471874L425.10938 31.83125L434.5625 31.83125L434.5625 33.471874ZM443.45312 37.55L441.6875 37.55L441.6875 26.346874Q441.0625 26.95625 440.03125 27.565624Q439.0 28.159374 438.17188 28.471874L438.17188 26.76875Q439.65625 26.08125 440.75 25.096874Q441.85938 24.096874 442.3125 23.175L443.45312 23.175L443.45312 37.55Z" fill-rule="nonzero"/></svg>