<svg version="1.1" viewBox="0.0 0.0 544.0 371.0" fill="none" stroke="none" stroke-linecap="square" stroke-miterlimit="10" width="544" height="371" xmlns:xlink="http://www.w3.org/1999/xlink" xmlns="http://www.w3.org/2000/svg"><path fill="#ffffff" d="M0 0L544.0 0L544.0 371.0L0 371.0L0 0Z" fill-rule="nonzero"/><path stroke="#cccccc" stroke-width="1.0" stroke-linecap="butt" d="M77.5 88.5L77.5 300.5" fill-rule="nonzero"/><path stroke="#cccccc" stroke-width="1.0" stroke-linecap="butt" d="M212.5 88.5L212.5 300.5" fill-rule="nonzero"/><path stroke="#cccccc" stroke-width="1.0" stroke-linecap="butt" d="M348.5 88.5L348.5 300.5" fill-rule="nonzero"/><path stroke="#cccccc" stroke-width="1.0" stroke-linecap="butt" d="M483.5 88.5L483.5 300.5" fill-rule="nonzero"/><path stroke="#333333" stroke-width="1.0" stroke-linecap="butt" d="M77.5 300.5L525.5 300.5" fill-rule="nonzero"/><path stroke="#cccccc" stroke-width="1.0" stroke-linecap="butt" d="M77.5 229.5L525.5 229.5" fill-rule="nonzero"/><path stroke="#cccccc" stroke-width="1.0" stroke-linecap="butt" d="M77.5 159.5L525.5 159.5" fill-rule="nonzero"/><path stroke="#cccccc" stroke-width="1.0" stroke-linecap="butt" d="M77.5 88.5L525.5 88.5" fill-rule="nonzero"/><clipPath id="id_0"><path d="M77.55 88.28333L525.45 88.28333L525.45 300.45L77.55 300.45L77.55 88.28333Z" clip-rule="nonzero"/></clipPath><path stroke="#4285f4" stroke-width="2.0" stroke-linecap="butt" clip-path="url(#id_0)" d="M77.55 283.68884L118.26818 274.38885L158.98636 268.80182L199.70454 248.32773L240.42273 218.55367L281.1409 176.68611L321.8591 147.5132L362.57727 122.61897L403.29544 107.09544L444.01364 98.00764L484.7318 92.98636L525.45 90.617165" fill-rule="nonzero"/><path stroke="#ea4335" stroke-width="2.0" stroke-linecap="butt" clip-path="url(#id_0)" d="M77.55 278.10178L118.26818 270.67593L158.98636 281.85007L199.70454 281.85007L240.42273 274.38885L281.1409 269.15543L321.8591 259.78473L362.57727 254.16231L403.29544 254.55128L444.01364 252.81859L484.7318 252.00528L525.45 251.58095" fill-rule="nonzero"/><path fill="#000000" fill-opacity="0.0" clip-path="url(#id_0)" d="M80.55 283.68884C80.55 285.34567 79.206856 286.68884 77.55 286.68884C75.89314 286.68884 74.55 285.34567 74.55 283.68884C74.55 282.03198 75.89314 280.68884 77.55 280.68884C79.206856 280.68884 80.55 282.03198 80.55 283.68884Z" fill-rule="nonzero"/><path fill="#000000" fill-opacity="0.0" clip-path="url(#id_0)" d="M121.26818 274.38885C121.26818 276.04572 119.92503 277.38885 118.26818 277.38885C116.61133 277.38885 115.26818 276.04572 115.26818 274.38885C115.26818 272.732 116.61133 271.38885 118.26818 271.38885C119.92503 271.38885 121.26818 272.732 121.26818 274.38885Z" fill-rule="nonzero"/><path fill="#000000" fill-opacity="0.0" clip-path="url(#id_0)" d="M161.98636 268.80182C161.98636 270.45865 160.64322 271.80182 158.98636 271.80182C157.32951 271.80182 155.98636 270.45865 155.98636 268.80182C155.98636 267.14496 157.32951 265.80182 158.98636 265.80182C160.64322 265.80182 161.98636 267.14496 161.98636 268.80182Z" fill-rule="nonzero"/><path fill="#000000" fill-opacity="0.0" clip-path="url(#id_0)" d="M202.70454 248.32773C202.70454 249.98457 201.3614 251.32773 199.70454 251.32773C198.04768 251.32773 196.70454 249.98457 196.70454 248.32773C196.70454 246.67087 198.04768 245.32773 199.70454 245.32773C201.3614 245.32773 202.70454 246.67087 202.70454 248.32773Z" fill-rule="nonzero"/><path fill="#000000" fill-opacity="0.0" clip-path="url(#id_0)" d="M243.42273 218.55367C243.42273 220.21053 242.07957 221.55367 240.42273 221.55367C238.76587 221.55367 237.42273 220.21053 237.42273 218.55367C237.42273 216.8968 238.76587 215.55367 240.42273 215.55367C242.07957 215.55367 243.42273 216.8968 243.42273 218.55367Z" fill-rule="nonzero"/><path fill="#000000" fill-opacity="0.0" clip-path="url(#id_0)" d="M284.1409 176.68611C284.1409 178.34297 282.79776 179.68611 281.1409 179.68611C279.48407 179.68611 278.1409 178.34297 278.1409 176.68611C278.1409 175.02925 279.48407 173.68611 281.1409 173.68611C282.79776 173.68611 284.1409 175.02925 284.1409 176.68611Z" fill-rule="nonzero"/><path fill="#000000" fill-opacity="0.0" clip-path="url(#id_0)" d="M324.8591 147.5132C324.8591 149.17004 323.51593 150.5132 321.8591 150.5132C320.20224 150.5132 318.8591 149.17004 318.8591 147.5132C318.8591 145.85634 320.20224 144.5132 321.8591 144.5132C323.51593 144.5132 324.8591 145.85634 324.8591 147.5132Z" fill-rule="nonzero"/><path fill="#000000" fill-opacity="0.0" clip-path="url(#id_0)" d="M365.57727 122.61897C365.57727 124.275826 364.23413 125.61897 362.57727 125.61897C360.9204 125.61897 359.57727 124.275826 359.57727 122.61897C359.57727 120.96212 360.9204 119.61897 362.57727 119.61897C364.23413 119.61897 365.57727 120.96212 365.57727 122.61897Z" fill-rule="nonzero"/><path fill="#000000" fill-opacity="0.0" clip-path="url(#id_0)" d="M406.29544 107.09544C406.29544 108.7523 404.9523 110.09544 403.29544 110.09544C401.6386 110.09544 400.29544 108.7523 400.29544 107.09544C400.29544 105.43859 401.6386 104.09544 403.29544 104.09544C404.9523 104.09544 406.29544 105.43859 406.29544 107.09544Z" fill-rule="nonzero"/><path fill="#000000" fill-opacity="0.0" clip-path="url(#id_0)" d="M447.01364 98.00764C447.01364 99.66449 445.6705 101.00764 444.01364 101.00764C442.35678 101.00764 441.01364 99.66449 441.01364 98.00764C441.01364 96.350784 442.35678 95.00764 444.01364 95.00764C445.6705 95.00764 447.01364 96.350784 447.01364 98.00764Z" fill-rule="nonzero"/><path fill="#000000" fill-opacity="0.0" clip-path="url(#id_0)" d="M487.7318 92.98636C487.7318 94.64322 486.38867 95.98636 484.7318 95.98636C483.07495 95.98636 481.7318 94.64322 481.7318 92.98636C481.7318 91.329506 483.07495 89.98636 484.7318 89.98636C486.38867 89.98636 487.7318 91.329506 487.7318 92.98636Z" fill-rule="nonzero"/><path fill="#000000" fill-opacity="0.0" clip-path="url(#id_0)" d="M528.45 90.617165C528.45 92.27402 527.1069 93.617165 525.45 93.617165C523.79315 93.617165 522.45 92.27402 522.45 90.617165C522.45 88.96031 523.79315 87.617165 525.45 87.617165C527.1069 87.617165 528.45 88.96031 528.45 90.617165Z" fill-rule="nonzero"/><path fill="#000000" fill-opacity="0.0" clip-path="url(#id_0)" d="M80.55 278.10178C80.55 279.75864 79.206856 281.10178 77.55 281.10178C75.89314 281.10178 74.55 279.75864 74.55 278.10178C74.55 276.44492 75.89314 275.10178 77.55 275.10178C79.206856 275.10178 80.55 276.44492 80.55 278.10178Z" fill-rule="nonzero"/><path fill="#000000" fill-opacity="0.0" clip-path="url(#id_0)" d="M121.26818 270.67593C121.26818 272.3328 119.92503 273.67593 118.26818 273.67593C116.61133 273.67593 115.26818 272.3328 115.26818 270.67593C115.26818 269.0191 116.61133 267.67593 118.26818 267.67593C119.92503 267.67593 121.26818 269.0191 121.26818 270.67593Z" fill-rule="nonzero"/><path fill="#000000" fill-opacity="0.0" clip-path="url(#id_0)" d="M161.98636 281.85007C161.98636 283.5069 160.64322 284.85007 158.98636 284.85007C157.32951 284.85007 155.98636 283.5069 155.98636 281.85007C155.98636 280.1932 157.32951 278.85007 158.98636 278.85007C160.64322 278.85007 161.98636 280.1932 161.98636 281.85007Z" fill-rule="nonzero"/><path fill="#000000" fill-opacity="0.0" clip-path="url(#id_0)" d="M202.70454 281.85007C202.70454 283.5069 201.3614 284.85007 199.70454 284.85007C198.04768 284.85007 196.70454 283.5069 196.70454 281.85007C196.70454 280.1932 198.04768 278.85007 199.70454 278.85007C201.3614 278.85007 202.70454 280.1932 202.70454 281.85007Z" fill-rule="nonzero"/><path fill="#000000" fill-opacity="0.0" clip-path="url(#id_0)" d="M243.42273 274.38885C243.42273 276.04572 242.07957 277.38885 240.42273 277.38885C238.76587 277.38885 237.42273 276.04572 237.42273 274.38885C237.42273 272.732 238.76587 271.38885 240.42273 271.38885C242.07957 271.38885 243.42273 272.732 243.42273 274.38885Z" fill-rule="nonzero"/><path fill="#000000" fill-opacity="0.0" clip-path="url(#id_0)" d="M284.1409 269.15543C284.1409 270.81226 282.79776 272.15543 281.1409 272.15543C279.48407 272.15543 278.1409 270.81226 278.1409 269.15543C278.1409 267.49857 279.48407 266.15543 281.1409 266.15543C282.79776 266.15543 284.1409 267.49857 284.1409 269.15543Z" fill-rule="nonzero"/><path fill="#000000" fill-opacity="0.0" clip-path="url(#id_0)" d="M324.8591 259.78473C324.8591 261.4416 323.51593 262.78473 321.8591 262.78473C320.20224 262.78473 318.8591 261.4416 318.8591 259.78473C318.8591 258.12787 320.20224 256.78473 321.8591 256.78473C323.51593 256.78473 324.8591 258.12787 324.8591 259.78473Z" fill-rule="nonzero"/><path fill="#000000" fill-opacity="0.0" clip-path="url(#id_0)" d="M365.57727 254.16231C365.57727 255.81915 364.23413 257.1623 362.57727 257.1623C360.9204 257.1623 359.57727 255.81915 359.57727 254.16231C359.57727 252.50545 360.9204 251.16231 362.57727 251.16231C364.23413 251.16231 365.57727 252.50545 365.57727 254.16231Z" fill-rule="nonzero"/><path fill="#000000" fill-opacity="0.0" clip-path="url(#id_0)" d="M406.29544 254.55128C406.29544 256.20813 404.9523 257.55127 403.29544 257.55127C401.6386 257.55127 400.29544 256.20813 400.29544 254.55128C400.29544 252.89442 401.6386 251.55128 403.29544 251.55128C404.9523 251.55128 406.29544 252.89442 406.29544 254.55128Z" fill-rule="nonzero"/><path fill="#000000" fill-opacity="0.0" clip-path="url(#id_0)" d="M447.01364 252.81859C447.01364 254.47543 445.6705 255.81859 444.01364 255.81859C442.35678 255.81859 441.01364 254.47543 441.01364 252.81859C441.01364 251.16173 442.35678 249.81859 444.01364 249.81859C445.6705 249.81859 447.01364 251.16173 447.01364 252.81859Z" fill-rule="nonzero"/><path fill="#000000" fill-opacity="0.0" clip-path="url(#id_0)" d="M487.7318 252.00528C487.7318 253.66212 486.38867 255.00528 484.7318 255.00528C483.07495 255.00528 481.7318 253.66212 481.7318 252.00528C481.7318 250.34842 483.07495 249.00528 484.7318 249.00528C486.38867 249.00528 487.7318 250.34842 487.7318 252.00528Z" fill-rule="nonzero"/><path fill="#000000" fill-opacity="0.0" clip-path="url(#id_0)" d="M528.45 251.58095C528.45 253.2378 527.1069 254.58095 525.45 254.58095C523.79315 254.58095 522.45 253.2378 522.45 251.58095C522.45 249.92409 523.79315 248.58095 525.45 248.58095C527.1069 248.58095 528.45 249.92409 528.45 251.58095Z" fill-rule="nonzero"/><path fill="#000000" d="M270.54688 346.6844L271.60938 346.59064Q271.6875 347.2469 271.96875 347.65314Q272.25 348.0594 272.82812 348.325Q273.42188 348.575 274.15625 348.575Q274.79688 348.575 275.29688 348.3875Q275.79688 348.1844 276.03125 347.85626Q276.28125 347.5125 276.28125 347.1219Q276.28125 346.71564 276.04688 346.41876Q275.8125 346.10626 275.28125 345.90314Q274.92188 345.7625 273.73438 345.48126Q272.5625 345.2 272.09375 344.95Q271.46875 344.6219 271.17188 344.15314Q270.875 343.66876 270.875 343.075Q270.875 342.4344 271.23438 341.8719Q271.60938 341.29376 272.3125 341.0125Q273.03125 340.71564 273.89062 340.71564Q274.84375 340.71564 275.57812 341.02814Q276.3125 341.325 276.70312 341.9344Q277.09375 342.52814 277.125 343.27814L276.03125 343.35626Q275.9375 342.54376 275.42188 342.1375Q274.92188 341.71564 273.9375 341.71564Q272.90625 341.71564 272.4375 342.09064Q271.96875 342.46564 271.96875 342.9969Q271.96875 343.46564 272.29688 343.7625Q272.625 344.0594 274.0 344.3719Q275.39062 344.6844 275.90625 344.91876Q276.65625 345.27814 277.01562 345.8094Q277.375 346.325 277.375 347.02814Q277.375 347.71564 276.98438 348.325Q276.59375 348.91876 275.85938 349.2625Q275.125 349.59064 274.20312 349.59064Q273.03125 349.59064 272.23438 349.2625Q271.45312 348.91876 271.0 348.23126Q270.5625 347.54376 270.54688 346.6844ZM278.79688 342.075L278.79688 340.85626L279.85938 340.85626L279.85938 342.075L278.79688 342.075ZM278.79688 349.45L278.79688 343.23126L279.85938 343.23126L279.85938 349.45L278.79688 349.45ZM281.23438 349.45L281.23438 348.59064L285.20312 344.04376Q284.51562 344.075 284.0 344.075L281.46875 344.075L281.46875 343.23126L286.5625 343.23126L286.5625 343.91876L283.1875 347.8719L282.53125 348.59064Q283.25 348.54376 283.85938 348.54376L286.75 348.54376L286.75 349.45L281.23438 349.45ZM291.04688 347.45L292.14062 347.575Q291.89062 348.52814 291.1875 349.0594Q290.48438 349.59064 289.40625 349.59064Q288.04688 349.59064 287.23438 348.7469Q286.4375 347.90314 286.4375 346.3875Q286.4375 344.825 287.25 343.96564Q288.0625 343.09064 289.34375 343.09064Q290.59375 343.09064 291.375 343.9344Q292.17188 344.77814 292.17188 346.325Q292.17188 346.41876 292.17188 346.60626L287.53125 346.60626Q287.59375 347.6375 288.10938 348.1844Q288.625 348.71564 289.40625 348.71564Q289.98438 348.71564 290.39062 348.41876Q290.8125 348.10626 291.04688 347.45ZM287.59375 345.7469L291.0625 345.7469Q291.0 344.95 290.67188 344.5594Q290.15625 343.95 289.35938 343.95Q288.625 343.95 288.125 344.4344Q287.64062 344.91876 287.59375 345.7469ZM298.8125 351.98126Q297.9375 350.8719 297.32812 349.40314Q296.73438 347.91876 296.73438 346.34064Q296.73438 344.95 297.17188 343.66876Q297.70312 342.1844 298.8125 340.71564L299.5625 340.71564Q298.85938 341.9344 298.625 342.45Q298.26562 343.2625 298.0625 344.1375Q297.8125 345.23126 297.8125 346.34064Q297.8125 349.16876 299.5625 351.98126L298.8125 351.98126ZM301.76562 349.45L300.78125 349.45L300.78125 340.85626L301.84375 340.85626L301.84375 343.91876Q302.51562 343.09064 303.54688 343.09064Q304.125 343.09064 304.625 343.325Q305.14062 343.54376 305.46875 343.96564Q305.8125 344.3875 306.0 344.98126Q306.1875 345.575 306.1875 346.2469Q306.1875 347.84064 305.39062 348.71564Q304.59375 349.59064 303.5 349.59064Q302.39062 349.59064 301.76562 348.66876L301.76562 349.45ZM301.75 346.29376Q301.75 347.40314 302.0625 347.90314Q302.5625 348.71564 303.40625 348.71564Q304.09375 348.71564 304.59375 348.1219Q305.10938 347.52814 305.10938 346.325Q305.10938 345.10626 304.625 344.52814Q304.14062 343.95 303.45312 343.95Q302.76562 343.95 302.25 344.5594Q301.75 345.15314 301.75 346.29376ZM307.75 351.84064L307.625 350.85626Q307.96875 350.95 308.23438 350.95Q308.57812 350.95 308.78125 350.825Q309.0 350.71564 309.14062 350.5125Q309.23438 350.34064 309.46875 349.71564Q309.48438 349.6375 309.5625 349.46564L307.1875 343.23126L308.32812 343.23126L309.625 346.825Q309.875 347.5125 310.07812 348.27814Q310.26562 347.54376 310.51562 346.85626L311.84375 343.23126L312.89062 343.23126L310.53125 349.5594Q310.14062 350.575 309.9375 350.96564Q309.65625 351.4969 309.28125 351.73126Q308.92188 351.98126 308.42188 351.98126Q308.125 351.98126 307.75 351.84064ZM315.09375 348.5125L315.25 349.4344Q314.79688 349.52814 314.45312 349.52814Q313.875 349.52814 313.5625 349.35626Q313.25 349.16876 313.10938 348.8719Q312.98438 348.575 312.98438 347.6219L312.98438 344.04376L312.21875 344.04376L312.21875 343.23126L312.98438 343.23126L312.98438 341.6844L314.03125 341.0594L314.03125 343.23126L315.09375 343.23126L315.09375 344.04376L314.03125 344.04376L314.03125 347.6844Q314.03125 348.1375 314.07812 348.2625Q314.14062 348.3875 314.26562 348.46564Q314.39062 348.54376 314.625 348.54376Q314.8125 348.54376 315.09375 348.5125ZM320.04688 347.45L321.14062 347.575Q320.89062 348.52814 320.1875 349.0594Q319.48438 349.59064 318.40625 349.59064Q317.04688 349.59064 316.23438 348.7469Q315.4375 347.90314 315.4375 346.3875Q315.4375 344.825 316.25 343.96564Q317.0625 343.09064 318.34375 343.09064Q319.59375 343.09064 320.375 343.9344Q321.17188 344.77814 321.17188 346.325Q321.17188 346.41876 321.17188 346.60626L316.53125 346.60626Q316.59375 347.6375 317.10938 348.1844Q317.625 348.71564 318.40625 348.71564Q318.98438 348.71564 319.39062 348.41876Q319.8125 348.10626 320.04688 347.45ZM316.59375 345.7469L320.0625 345.7469Q320.0 344.95 319.67188 344.5594Q319.15625 343.95 318.35938 343.95Q317.625 343.95 317.125 344.4344Q316.64062 344.91876 316.59375 345.7469ZM322.375 347.59064L323.40625 347.4344Q323.5 348.0594 323.89062 348.3875Q324.29688 348.71564 325.03125 348.71564Q325.75 348.71564 326.09375 348.4344Q326.45312 348.1375 326.45312 347.73126Q326.45312 347.3719 326.14062 347.16876Q325.92188 347.02814 325.0625 346.8094Q323.90625 346.5125 323.45312 346.3094Q323.01562 346.09064 322.78125 345.71564Q322.54688 345.34064 322.54688 344.8719Q322.54688 344.46564 322.73438 344.10626Q322.92188 343.7469 323.25 343.5125Q323.5 343.34064 323.92188 343.21564Q324.34375 343.09064 324.84375 343.09064Q325.5625 343.09064 326.10938 343.3094Q326.67188 343.5125 326.9375 343.8719Q327.20312 344.23126 327.29688 344.825L326.26562 344.96564Q326.20312 344.4969 325.85938 344.23126Q325.53125 343.95 324.90625 343.95Q324.1875 343.95 323.875 344.2Q323.5625 344.4344 323.5625 344.7625Q323.5625 344.96564 323.6875 345.1219Q323.82812 345.29376 324.09375 345.40314Q324.25 345.46564 325.03125 345.66876Q326.15625 345.98126 326.59375 346.16876Q327.03125 346.35626 327.28125 346.71564Q327.53125 347.075 327.53125 347.6219Q327.53125 348.15314 327.21875 348.6219Q326.92188 349.075 326.34375 349.34064Q325.76562 349.59064 325.03125 349.59064Q323.8125 349.59064 323.17188 349.09064Q322.54688 348.575 322.375 347.59064ZM330.48438 351.98126L329.73438 351.98126Q331.48438 349.16876 331.48438 346.34064Q331.48438 345.2469 331.23438 344.15314Q331.03125 343.27814 330.67188 342.46564Q330.4375 341.95 329.73438 340.71564L330.48438 340.71564Q331.57812 342.1844 332.10938 343.66876Q332.5625 344.95 332.5625 346.34064Q332.5625 347.91876 331.95312 349.40314Q331.34375 350.8719 330.48438 351.98126Z" fill-rule="nonzero"/><path fill="#000000" d="M27.550013 274.8198L27.675013 273.72604Q28.628138 273.97604 29.159388 274.67917Q29.690638 275.3823 29.690638 276.46042Q29.690638 277.8198 28.846888 278.6323Q28.003138 279.42917 26.487513 279.42917Q24.925013 279.42917 24.065638 278.61667Q23.190638 277.80417 23.190638 276.52292Q23.190638 275.27292 24.034388 274.49167Q24.878138 273.6948 26.425013 273.6948Q26.518763 273.6948 26.706263 273.6948L26.706263 278.33542Q27.737513 278.27292 28.284388 277.7573Q28.815638 277.24167 28.815638 276.46042Q28.815638 275.8823 28.518763 275.47604Q28.206263 275.05417 27.550013 274.8198ZM25.846888 278.27292L25.846888 274.80417Q25.050013 274.86667 24.659388 275.1948Q24.050013 275.71042 24.050013 276.5073Q24.050013 277.24167 24.534388 277.74167Q25.018763 278.22604 25.846888 278.27292ZM29.550013 272.77292L26.315638 270.5073L23.331263 272.60104L23.331263 271.28854L24.784388 270.33542Q25.206263 270.0698 25.487513 269.89792Q25.096888 269.64792 24.800013 269.42917L23.331263 268.3823L23.331263 267.11667L26.253138 269.27292L29.550013 266.96042L29.550013 268.24167L27.612513 269.52292L27.096888 269.86667L29.550013 271.5073L29.550013 272.77292ZM27.550013 262.8198L27.675013 261.72604Q28.628138 261.97604 29.159388 262.67917Q29.690638 263.3823 29.690638 264.46042Q29.690638 265.8198 28.846888 266.6323Q28.003138 267.42917 26.487513 267.42917Q24.925013 267.42917 24.065638 266.61667Q23.190638 265.80417 23.190638 264.52292Q23.190638 263.27292 24.034388 262.49167Q24.878138 261.6948 26.425013 261.6948Q26.518763 261.6948 26.706263 261.6948L26.706263 266.33542Q27.737513 266.27292 28.284388 265.7573Q28.815638 265.24167 28.815638 264.46042Q28.815638 263.8823 28.518763 263.47604Q28.206263 263.05417 27.550013 262.8198ZM25.846888 266.27292L25.846888 262.80417Q25.050013 262.86667 24.659388 263.1948Q24.050013 263.71042 24.050013 264.5073Q24.050013 265.24167 24.534388 265.74167Q25.018763 266.22604 25.846888 266.27292ZM27.268763 256.0073L27.409388 254.97604Q28.471888 255.14792 29.081263 255.85104Q29.690638 256.55417 29.690638 257.5698Q29.690638 258.85104 28.862513 259.6323Q28.018763 260.39792 26.456263 260.39792Q25.456263 260.39792 24.706263 260.0698Q23.940638 259.72604 23.565638 259.05417Q23.190638 258.36667 23.190638 257.55417Q23.190638 256.55417 23.706263 255.91354Q24.206263 255.2573 25.159388 255.0698L25.315638 256.10104Q24.690638 256.24167 24.378138 256.61667Q24.050013 256.99167 24.050013 257.52292Q24.050013 258.3198 24.628138 258.8198Q25.190638 259.3198 26.425013 259.3198Q27.690638 259.3198 28.253138 258.83542Q28.815638 258.35104 28.815638 257.58542Q28.815638 256.96042 28.440638 256.55417Q28.065638 256.1323 27.268763 256.0073ZM28.612513 248.77292L29.534388 248.61667Q29.628138 249.0698 29.628138 249.41354Q29.628138 249.99167 29.456263 250.30417Q29.268763 250.61667 28.971888 250.7573Q28.675013 250.8823 27.721888 250.8823L24.143763 250.8823L24.143763 251.64792L23.331263 251.64792L23.331263 250.8823L21.784388 250.8823L21.159388 249.83542L23.331263 249.83542L23.331263 248.77292L24.143763 248.77292L24.143763 249.83542L27.784388 249.83542Q28.237513 249.83542 28.362513 249.78854Q28.487513 249.72604 28.565638 249.60104Q28.643763 249.47604 28.643763 249.24167Q28.643763 249.05417 28.612513 248.77292ZM22.175013 248.0698L20.956263 248.0698L20.956263 247.0073L22.175013 247.0073L22.175013 248.0698ZM29.550013 248.0698L23.331263 248.0698L23.331263 247.0073L29.550013 247.0073L29.550013 248.0698ZM29.550013 245.0698L23.331263 245.0698L23.331263 244.1323L24.206263 244.1323Q23.737513 243.83542 23.471888 243.35104Q23.190638 242.86667 23.190638 242.24167Q23.190638 241.55417 23.471888 241.11667Q23.753138 240.66354 24.268763 240.49167Q23.190638 239.74167 23.190638 238.5698Q23.190638 237.6323 23.706263 237.14792Q24.206263 236.64792 25.284388 236.64792L29.550013 236.64792L29.550013 237.6948L25.628138 237.6948Q25.003138 237.6948 24.721888 237.80417Q24.440638 237.89792 24.268763 238.16354Q24.096888 238.42917 24.096888 238.80417Q24.096888 239.46042 24.534388 239.89792Q24.971888 240.3198 25.940638 240.3198L29.550013 240.3198L29.550013 241.3823L25.503138 241.3823Q24.800013 241.3823 24.456263 241.64792Q24.096888 241.89792 24.096888 242.47604Q24.096888 242.92917 24.331263 243.30417Q24.565638 243.67917 25.018763 243.85104Q25.471888 244.02292 26.315638 244.02292L29.550013 244.02292L29.550013 245.0698ZM27.550013 229.8198L27.675013 228.72604Q28.628138 228.97604 29.159388 229.67917Q29.690638 230.3823 29.690638 231.46042Q29.690638 232.8198 28.846888 233.6323Q28.003138 234.42917 26.487513 234.42917Q24.925013 234.42917 24.065638 233.61667Q23.190638 232.80417 23.190638 231.52292Q23.190638 230.27292 24.034388 229.49167Q24.878138 228.6948 26.425013 228.6948Q26.518763 228.6948 26.706263 228.6948L26.706263 233.33542Q27.737513 233.27292 28.284388 232.7573Q28.815638 232.24167 28.815638 231.46042Q28.815638 230.8823 28.518763 230.47604Q28.206263 230.05417 27.550013 229.8198ZM25.846888 233.27292L25.846888 229.80417Q25.050013 229.86667 24.659388 230.1948Q24.050013 230.71042 24.050013 231.5073Q24.050013 232.24167 24.534388 232.74167Q25.018763 233.22604 25.846888 233.27292ZM31.940638 224.0698L23.331263 224.0698L23.331263 223.11667L24.128138 223.11667Q23.659388 222.77292 23.425013 222.35104Q23.190638 221.91354 23.190638 221.30417Q23.190638 220.5073 23.596888 219.89792Q24.003138 219.28854 24.753138 218.99167Q25.503138 218.67917 26.393763 218.67917Q27.346888 218.67917 28.112513 219.02292Q28.878138 219.35104 29.284388 220.0073Q29.690638 220.66354 29.690638 221.3823Q29.690638 221.91354 29.471888 222.33542Q29.237513 222.7573 28.909388 223.02292L31.940638 223.02292L31.940638 224.0698ZM26.471888 223.11667Q27.675013 223.11667 28.253138 222.6323Q28.815638 222.14792 28.815638 221.46042Q28.815638 220.7573 28.221888 220.2573Q27.628138 219.7573 26.378138 219.7573Q25.190638 219.7573 24.612513 220.24167Q24.018763 220.72604 24.018763 221.41354Q24.018763 222.08542 24.643763 222.60104Q25.268763 223.11667 26.471888 223.11667ZM27.550013 212.8198L27.675013 211.72604Q28.628138 211.97604 29.159388 212.67917Q29.690638 213.3823 29.690638 214.46042Q29.690638 215.8198 28.846888 216.6323Q28.003138 217.42917 26.487513 217.42917Q24.925013 217.42917 24.065638 216.61667Q23.190638 215.80417 23.190638 214.52292Q23.190638 213.27292 24.034388 212.49167Q24.878138 211.6948 26.425013 211.6948Q26.518763 211.6948 26.706263 211.6948L26.706263 216.33542Q27.737513 216.27292 28.284388 215.7573Q28.815638 215.24167 28.815638 214.46042Q28.815638 213.8823 28.518763 213.47604Q28.206263 213.05417 27.550013 212.8198ZM25.846888 216.27292L25.846888 212.80417Q25.050013 212.86667 24.659388 213.1948Q24.050013 213.71042 24.050013 214.5073Q24.050013 215.24167 24.534388 215.74167Q25.018763 216.22604 25.846888 216.27292ZM29.550013 210.08542L23.331263 210.08542L23.331263 209.1323L24.268763 209.1323Q23.612513 208.77292 23.409388 208.47604Q23.190638 208.16354 23.190638 207.78854Q23.190638 207.2573 23.518763 206.71042L24.503138 207.0698Q24.268763 207.46042 24.268763 207.83542Q24.268763 208.1948 24.487513 208.47604Q24.690638 208.74167 25.065638 208.85104Q25.628138 209.03854 26.284388 209.03854L29.550013 209.03854L29.550013 210.08542ZM22.175013 203.0698L20.956263 203.0698L20.956263 202.0073L22.175013 202.0073L22.175013 203.0698ZM29.550013 203.0698L23.331263 203.0698L23.331263 202.0073L29.550013 202.0073L29.550013 203.0698ZM29.550013 200.0698L23.331263 200.0698L23.331263 199.1323L24.206263 199.1323Q23.190638 198.4448 23.190638 197.14792Q23.190638 196.58542 23.393763 196.11667Q23.596888 195.6323 23.925013 195.39792Q24.253138 195.16354 24.690638 195.0698Q24.987513 195.02292 25.721888 195.02292L29.550013 195.02292L29.550013 196.0698L25.768763 196.0698Q25.112513 196.0698 24.800013 196.1948Q24.487513 196.3198 24.300013 196.6323Q24.096888 196.9448 24.096888 197.36667Q24.096888 198.03854 24.534388 198.53854Q24.956263 199.02292 26.143763 199.02292L29.550013 199.02292L29.550013 200.0698ZM27.690638 193.49167L27.534388 192.46042Q28.159388 192.36667 28.487513 191.97604Q28.815638 191.5698 28.815638 190.83542Q28.815638 190.11667 28.534388 189.77292Q28.237513 189.41354 27.831263 189.41354Q27.471888 189.41354 27.268763 189.72604Q27.128138 189.9448 26.909388 190.80417Q26.612513 191.96042 26.409388 192.41354Q26.190638 192.85104 25.815638 193.08542Q25.440638 193.3198 24.971888 193.3198Q24.565638 193.3198 24.206263 193.1323Q23.846888 192.9448 23.612513 192.61667Q23.440638 192.36667 23.315638 191.9448Q23.190638 191.52292 23.190638 191.02292Q23.190638 190.30417 23.409388 189.7573Q23.612513 189.1948 23.971888 188.92917Q24.331263 188.66354 24.925013 188.5698L25.065638 189.60104Q24.596888 189.66354 24.331263 190.0073Q24.050013 190.33542 24.050013 190.96042Q24.050013 191.67917 24.300013 191.99167Q24.534388 192.30417 24.862513 192.30417Q25.065638 192.30417 25.221888 192.17917Q25.393763 192.03854 25.503138 191.77292Q25.565638 191.61667 25.768763 190.83542Q26.081263 189.71042 26.268763 189.27292Q26.456263 188.83542 26.815638 188.58542Q27.175013 188.33542 27.721888 188.33542Q28.253138 188.33542 28.721888 188.64792Q29.175013 188.9448 29.440638 189.52292Q29.690638 190.10104 29.690638 190.83542Q29.690638 192.05417 29.190638 192.6948Q28.675013 193.3198 27.690638 193.49167ZM28.612513 183.77292L29.534388 183.61667Q29.628138 184.0698 29.628138 184.41354Q29.628138 184.99167 29.456263 185.30417Q29.268763 185.61667 28.971888 185.7573Q28.675013 185.8823 27.721888 185.8823L24.143763 185.8823L24.143763 186.64792L23.331263 186.64792L23.331263 185.8823L21.784388 185.8823L21.159388 184.83542L23.331263 184.83542L23.331263 183.77292L24.143763 183.77292L24.143763 184.83542L27.784388 184.83542Q28.237513 184.83542 28.362513 184.78854Q28.487513 184.72604 28.565638 184.60104Q28.643763 184.47604 28.643763 184.24167Q28.643763 184.05417 28.612513 183.77292ZM29.550013 183.08542L23.331263 183.08542L23.331263 182.1323L24.268763 182.1323Q23.612513 181.77292 23.409388 181.47604Q23.190638 181.16354 23.190638 180.78854Q23.190638 180.2573 23.518763 179.71042L24.503138 180.0698Q24.268763 180.46042 24.268763 180.83542Q24.268763 181.1948 24.487513 181.47604Q24.690638 181.74167 25.065638 181.85104Q25.628138 182.03854 26.284388 182.03854L29.550013 182.03854L29.550013 183.08542ZM29.550013 174.99167L28.628138 174.99167Q29.690638 175.72604 29.690638 176.97604Q29.690638 177.52292 29.487513 178.0073Q29.268763 178.47604 28.956263 178.71042Q28.628138 178.9448 28.159388 179.03854Q27.862513 179.10104 27.175013 179.10104L23.331263 179.10104L23.331263 178.03854L26.784388 178.03854Q27.596888 178.03854 27.893763 177.97604Q28.300013 177.8823 28.550013 177.5698Q28.784388 177.24167 28.784388 176.7573Q28.784388 176.28854 28.550013 175.8823Q28.300013 175.46042 27.878138 175.28854Q27.456263 175.10104 26.659388 175.10104L23.331263 175.10104L23.331263 174.05417L29.550013 174.05417L29.550013 174.99167ZM27.268763 168.0073L27.409388 166.97604Q28.471888 167.14792 29.081263 167.85104Q29.690638 168.55417 29.690638 169.5698Q29.690638 170.85104 28.862513 171.6323Q28.018763 172.39792 26.456263 172.39792Q25.456263 172.39792 24.706263 172.0698Q23.940638 171.72604 23.565638 171.05417Q23.190638 170.36667 23.190638 169.55417Q23.190638 168.55417 23.706263 167.91354Q24.206263 167.2573 25.159388 167.0698L25.315638 168.10104Q24.690638 168.24167 24.378138 168.61667Q24.050013 168.99167 24.050013 169.52292Q24.050013 170.3198 24.628138 170.8198Q25.190638 171.3198 26.425013 171.3198Q27.690638 171.3198 28.253138 170.83542Q28.815638 170.35104 28.815638 169.58542Q28.815638 168.96042 28.440638 168.55417Q28.065638 168.1323 27.268763 168.0073ZM28.612513 163.77292L29.534388 163.61667Q29.628138 164.0698 29.628138 164.41354Q29.628138 164.99167 29.456263 165.30417Q29.268763 165.61667 28.971888 165.7573Q28.675013 165.8823 27.721888 165.8823L24.143763 165.8823L24.143763 166.64792L23.331263 166.64792L23.331263 165.8823L21.784388 165.8823L21.159388 164.83542L23.331263 164.83542L23.331263 163.77292L24.143763 163.77292L24.143763 164.83542L27.784388 164.83542Q28.237513 164.83542 28.362513 164.78854Q28.487513 164.72604 28.565638 164.60104Q28.643763 164.47604 28.643763 164.24167Q28.643763 164.05417 28.612513 163.77292ZM22.175013 163.0698L20.956263 163.0698L20.956263 162.0073L22.175013 162.0073L22.175013 163.0698ZM29.550013 163.0698L23.331263 163.0698L23.331263 162.0073L29.550013 162.0073L29.550013 163.0698ZM26.440638 160.46042Q24.706263 160.46042 23.878138 159.5073Q23.190638 158.71042 23.190638 157.55417Q23.190638 156.27292 24.034388 155.46042Q24.862513 154.6323 26.346888 154.6323Q27.550013 154.6323 28.237513 154.99167Q28.925013 155.35104 29.315638 156.05417Q29.690638 156.74167 29.690638 157.55417Q29.690638 158.85104 28.862513 159.66354Q28.018763 160.46042 26.440638 160.46042ZM26.440638 159.3823Q27.628138 159.3823 28.221888 158.86667Q28.815638 158.33542 28.815638 157.55417Q28.815638 156.7573 28.221888 156.24167Q27.628138 155.72604 26.409388 155.72604Q25.253138 155.72604 24.659388 156.2573Q24.065638 156.77292 24.065638 157.55417Q24.065638 158.33542 24.659388 158.86667Q25.237513 159.3823 26.440638 159.3823ZM29.550013 153.0698L23.331263 153.0698L23.331263 152.1323L24.206263 152.1323Q23.190638 151.4448 23.190638 150.14792Q23.190638 149.58542 23.393763 149.11667Q23.596888 148.6323 23.925013 148.39792Q24.253138 148.16354 24.690638 148.0698Q24.987513 148.02292 25.721888 148.02292L29.550013 148.02292L29.550013 149.0698L25.768763 149.0698Q25.112513 149.0698 24.800013 149.1948Q24.487513 149.3198 24.300013 149.6323Q24.096888 149.9448 24.096888 150.36667Q24.096888 151.03854 24.534388 151.53854Q24.956263 152.02292 26.143763 152.02292L29.550013 152.02292L29.550013 153.0698ZM32.08126 141.05417Q30.971888 141.92917 29.503138 142.53854Q28.018763 143.1323 26.440638 143.1323Q25.050013 143.1323 23.768763 142.6948Q22.284388 142.16354 20.815638 141.05417L20.815638 140.30417Q22.034388 141.0073 22.550013 141.24167Q23.362513 141.60104 24.237513 141.80417Q25.331263 142.05417 26.440638 142.05417Q29.268763 142.05417 32.08126 140.30417L32.08126 141.05417ZM29.550013 139.0698L23.331263 139.0698L23.331263 138.1323L24.206263 138.1323Q23.190638 137.4448 23.190638 136.14792Q23.190638 135.58542 23.393763 135.11667Q23.596888 134.6323 23.925013 134.39792Q24.253138 134.16354 24.690638 134.0698Q24.987513 134.02292 25.721888 134.02292L29.550013 134.02292L29.550013 135.0698L25.768763 135.0698Q25.112513 135.0698 24.800013 135.1948Q24.487513 135.3198 24.300013 135.6323Q24.096888 135.9448 24.096888 136.36667Q24.096888 137.03854 24.534388 137.53854Q24.956263 138.02292 26.143763 138.02292L29.550013 138.02292L29.550013 139.0698ZM27.690638 132.49167L27.534388 131.46042Q28.159388 131.36667 28.487513 130.97604Q28.815638 130.5698 28.815638 129.83542Q28.815638 129.11667 28.534388 128.77292Q28.237513 128.41354 27.831263 128.41354Q27.471888 128.41354 27.268763 128.72604Q27.128138 128.9448 26.909388 129.80417Q26.612513 130.96042 26.409388 131.41354Q26.190638 131.85104 25.815638 132.08542Q25.440638 132.3198 24.971888 132.3198Q24.565638 132.3198 24.206263 132.1323Q23.846888 131.9448 23.612513 131.61667Q23.440638 131.36667 23.315638 130.9448Q23.190638 130.52292 23.190638 130.02292Q23.190638 129.30417 23.409388 128.7573Q23.612513 128.1948 23.971888 127.92917Q24.331263 127.66354 24.925013 127.56979L25.065638 128.60104Q24.596888 128.66354 24.331263 129.0073Q24.050013 129.33542 24.050013 129.96042Q24.050013 130.67917 24.300013 130.99167Q24.534388 131.30417 24.862513 131.30417Q25.065638 131.30417 25.221888 131.17917Q25.393763 131.03854 25.503138 130.77292Q25.565638 130.61667 25.768763 129.83542Q26.081263 128.71042 26.268763 128.27292Q26.456263 127.83542 26.815638 127.58542Q27.175013 127.33542 27.721888 127.33542Q28.253138 127.33542 28.721888 127.64792Q29.175013 127.94479 29.440638 128.52292Q29.690638 129.10104 29.690638 129.83542Q29.690638 131.05417 29.190638 131.6948Q28.675013 132.3198 27.690638 132.49167ZM32.08126 124.38229L32.08126 125.13229Q29.268763 123.38229 26.440638 123.38229Q25.346888 123.38229 24.253138 123.63229Q23.378138 123.83542 22.565638 124.19479Q22.050013 124.42917 20.815638 125.13229L20.815638 124.38229Q22.284388 123.28854 23.768763 122.75729Q25.050013 122.30417 26.440638 122.30417Q28.018763 122.30417 29.503138 122.91354Q30.971888 123.52292 32.08126 124.38229Z" fill-rule="nonzero"/><path fill="#000000" d="M65.05 300.21564Q65.05 298.6844 65.3625 297.7625Q65.675 296.825 66.28438 296.325Q66.90938 295.825 67.84688 295.825Q68.53438 295.825 69.05 296.10626Q69.58125 296.3875 69.925 296.91876Q70.26875 297.4344 70.45625 298.1844Q70.64375 298.9344 70.64375 300.21564Q70.64375 301.73126 70.33125 302.65314Q70.03438 303.575 69.40938 304.09064Q68.8 304.59064 67.84688 304.59064Q66.6125 304.59064 65.89375 303.7Q65.05 302.6375 65.05 300.21564ZM66.12813 300.21564Q66.12813 302.325 66.62813 303.02814Q67.12813 303.73126 67.84688 303.73126Q68.58125 303.73126 69.06563 303.02814Q69.56563 302.325 69.56563 300.21564Q69.56563 298.09064 69.06563 297.40314Q68.58125 296.7 67.83125 296.7Q67.1125 296.7 66.675 297.3094Q66.12813 298.09064 66.12813 300.21564Z" fill-rule="nonzero"/><path fill="#000000" d="M63.596874 232.71216L63.596874 233.72778L57.909374 233.72778Q57.909374 233.35278 58.034374 232.99341Q58.253124 232.41528 58.721874 231.85278Q59.20625 231.29028 60.1125 230.55591Q61.51875 229.39966 62.003124 228.72778Q62.503124 228.05591 62.503124 227.46216Q62.503124 226.83716 62.05 226.41528Q61.596874 225.97778 60.878124 225.97778Q60.1125 225.97778 59.659374 226.43091Q59.20625 226.88403 59.190624 227.69653L58.1125 227.58716Q58.221874 226.36841 58.940624 225.74341Q59.675 225.10278 60.909374 225.10278Q62.14375 225.10278 62.8625 225.79028Q63.58125 226.47778 63.58125 227.49341Q63.58125 228.00903 63.3625 228.50903Q63.159374 228.99341 62.659374 229.55591Q62.175 230.10278 61.05 231.05591Q60.096874 231.85278 59.815624 232.14966Q59.55 232.43091 59.378124 232.71216L63.596874 232.71216ZM65.05 229.49341Q65.05 227.96216 65.3625 227.04028Q65.675 226.10278 66.28438 225.60278Q66.90938 225.10278 67.84688 225.10278Q68.53438 225.10278 69.05 225.38403Q69.58125 225.66528 69.925 226.19653Q70.26875 226.71216 70.45625 227.46216Q70.64375 228.21216 70.64375 229.49341Q70.64375 231.00903 70.33125 231.93091Q70.03438 232.85278 69.40938 233.36841Q68.8 233.86841 67.84688 233.86841Q66.6125 233.86841 65.89375 232.97778Q65.05 231.91528 65.05 229.49341ZM66.12813 229.49341Q66.12813 231.60278 66.62813 232.30591Q67.12813 233.00903 67.84688 233.00903Q68.58125 233.00903 69.06563 232.30591Q69.56563 231.60278 69.56563 229.49341Q69.56563 227.36841 69.06563 226.68091Q68.58125 225.97778 67.83125 225.97778Q67.1125 225.97778 66.675 226.58716Q66.12813 227.36841 66.12813 229.49341Z" fill-rule="nonzero"/><path fill="#000000" d="M61.425 163.00555L61.425 160.94305L57.70625 160.94305L57.70625 159.9743L61.628124 154.4118L62.4875 154.4118L62.4875 159.9743L63.64375 159.9743L63.64375 160.94305L62.4875 160.94305L62.4875 163.00555L61.425 163.00555ZM61.425 159.9743L61.425 156.11493L58.7375 159.9743L61.425 159.9743ZM65.05 158.77118Q65.05 157.23993 65.3625 156.31805Q65.675 155.38055 66.28438 154.88055Q66.90938 154.38055 67.84688 154.38055Q68.53438 154.38055 69.05 154.6618Q69.58125 154.94305 69.925 155.4743Q70.26875 155.98993 70.45625 156.73993Q70.64375 157.48993 70.64375 158.77118Q70.64375 160.2868 70.33125 161.20868Q70.03438 162.13055 69.40938 162.64618Q68.8 163.14618 67.84688 163.14618Q66.6125 163.14618 65.89375 162.25555Q65.05 161.19305 65.05 158.77118ZM66.12813 158.77118Q66.12813 160.88055 66.62813 161.58368Q67.12813 162.2868 67.84688 162.2868Q68.58125 162.2868 69.06563 161.58368Q69.56563 160.88055 69.56563 158.77118Q69.56563 156.64618 69.06563 155.95868Q68.58125 155.25555 67.83125 155.25555Q67.1125 155.25555 66.675 155.86493Q66.12813 156.64618 66.12813 158.77118Z" fill-rule="nonzero"/><path fill="#000000" d="M63.51875 85.79896L62.471874 85.87708Q62.33125 85.25208 62.08125 84.97083Q61.64375 84.51771 61.01875 84.51771Q60.51875 84.51771 60.128124 84.79896Q59.64375 85.17396 59.346874 85.87708Q59.065624 86.56458 59.05 87.84583Q59.425 87.26771 59.971874 86.98646Q60.534374 86.70521 61.14375 86.70521Q62.190624 86.70521 62.925 87.48646Q63.675 88.26771 63.675 89.48646Q63.675 90.29896 63.315624 91.00208Q62.971874 91.68958 62.3625 92.06458Q61.753124 92.42396 60.9875 92.42396Q59.659374 92.42396 58.83125 91.45521Q58.003124 90.48646 58.003124 88.26771Q58.003124 85.76771 58.925 84.64271Q59.721874 83.65833 61.08125 83.65833Q62.096874 83.65833 62.7375 84.23646Q63.39375 84.79896 63.51875 85.79896ZM59.221874 89.50208Q59.221874 90.04896 59.440624 90.54896Q59.675 91.03333 60.08125 91.29896Q60.503124 91.56458 60.971874 91.56458Q61.628124 91.56458 62.1125 91.03333Q62.596874 90.48646 62.596874 89.56458Q62.596874 88.67396 62.1125 88.15833Q61.64375 87.64271 60.925 87.64271Q60.20625 87.64271 59.70625 88.15833Q59.221874 88.67396 59.221874 89.50208ZM65.05 88.04896Q65.05 86.51771 65.3625 85.59583Q65.675 84.65833 66.28438 84.15833Q66.90938 83.65833 67.84688 83.65833Q68.53438 83.65833 69.05 83.93958Q69.58125 84.22083 69.925 84.75208Q70.26875 85.26771 70.45625 86.01771Q70.64375 86.76771 70.64375 88.04896Q70.64375 89.56458 70.33125 90.48646Q70.03438 91.40833 69.40938 91.92396Q68.8 92.42396 67.84688 92.42396Q66.6125 92.42396 65.89375 91.53333Q65.05 90.47083 65.05 88.04896ZM66.12813 88.04896Q66.12813 90.15833 66.62813 90.86146Q67.12813 91.56458 67.84688 91.56458Q68.58125 91.56458 69.06563 90.86146Q69.56563 90.15833 69.56563 88.04896Q69.56563 85.92396 69.06563 85.23646Q68.58125 84.53333 67.83125 84.53333Q67.1125 84.53333 66.675 85.14271Q66.12813 85.92396 66.12813 88.04896Z" fill-rule="nonzero"/><path fill="#000000" d="M78.51875 317.45L77.47188 317.45L77.47188 310.73126Q77.08125 311.09064 76.45625 311.46564Q75.84688 311.825 75.3625 311.9969L75.3625 310.98126Q76.2375 310.5594 76.89375 309.98126Q77.56563 309.3875 77.84688 308.825L78.51875 308.825L78.51875 317.45Z" fill-rule="nonzero"/><path fill="#000000" d="M210.28162 317.45L209.23474 317.45L209.23474 310.73126Q208.84412 311.09064 208.21912 311.46564Q207.60974 311.825 207.12537 311.9969L207.12537 310.98126Q208.00037 310.5594 208.65662 309.98126Q209.32849 309.3875 209.60974 308.825L210.28162 308.825L210.28162 317.45ZM213.31287 313.21564Q213.31287 311.6844 213.62537 310.7625Q213.93787 309.825 214.54724 309.325Q215.17224 308.825 216.10974 308.825Q216.79724 308.825 217.31287 309.10626Q217.84412 309.3875 218.18787 309.91876Q218.53162 310.4344 218.71912 311.1844Q218.90662 311.9344 218.90662 313.21564Q218.90662 314.73126 218.59412 315.65314Q218.29724 316.575 217.67224 317.09064Q217.06287 317.59064 216.10974 317.59064Q214.87537 317.59064 214.15662 316.7Q213.31287 315.6375 213.31287 313.21564ZM214.39099 313.21564Q214.39099 315.325 214.89099 316.02814Q215.39099 316.73126 216.10974 316.73126Q216.84412 316.73126 217.32849 316.02814Q217.82849 315.325 217.82849 313.21564Q217.82849 311.09064 217.32849 310.40314Q216.84412 309.7 216.09412 309.7Q215.37537 309.7 214.93787 310.3094Q214.39099 311.09064 214.39099 313.21564Z" fill-rule="nonzero"/><path fill="#000000" d="M342.0445 317.45L340.99762 317.45L340.99762 310.73126Q340.607 311.09064 339.982 311.46564Q339.37262 311.825 338.88824 311.9969L338.88824 310.98126Q339.76324 310.5594 340.4195 309.98126Q341.09137 309.3875 341.37262 308.825L342.0445 308.825L342.0445 317.45ZM345.07574 313.21564Q345.07574 311.6844 345.38824 310.7625Q345.70074 309.825 346.31012 309.325Q346.93512 308.825 347.87262 308.825Q348.56012 308.825 349.07574 309.10626Q349.607 309.3875 349.95074 309.91876Q350.2945 310.4344 350.482 311.1844Q350.6695 311.9344 350.6695 313.21564Q350.6695 314.73126 350.357 315.65314Q350.06012 316.575 349.43512 317.09064Q348.82574 317.59064 347.87262 317.59064Q346.63824 317.59064 345.9195 316.7Q345.07574 315.6375 345.07574 313.21564ZM346.15387 313.21564Q346.15387 315.325 346.65387 316.02814Q347.15387 316.73126 347.87262 316.73126Q348.607 316.73126 349.09137 316.02814Q349.59137 315.325 349.59137 313.21564Q349.59137 311.09064 349.09137 310.40314Q348.607 309.7 347.857 309.7Q347.13824 309.7 346.70074 310.3094Q346.15387 311.09064 346.15387 313.21564ZM352.07574 313.21564Q352.07574 311.6844 352.38824 310.7625Q352.70074 309.825 353.31012 309.325Q353.93512 308.825 354.87262 308.825Q355.56012 308.825 356.07574 309.10626Q356.607 309.3875 356.95074 309.91876Q357.2945 310.4344 357.482 311.1844Q357.6695 311.9344 357.6695 313.21564Q357.6695 314.73126 357.357 315.65314Q357.06012 316.575 356.43512 317.09064Q355.82574 317.59064 354.87262 317.59064Q353.63824 317.59064 352.9195 316.7Q352.07574 315.6375 352.07574 313.21564ZM353.15387 313.21564Q353.15387 315.325 353.65387 316.02814Q354.15387 316.73126 354.87262 316.73126Q355.607 316.73126 356.09137 316.02814Q356.59137 315.325 356.59137 313.21564Q356.59137 311.09064 356.09137 310.40314Q355.607 309.7 354.857 309.7Q354.13824 309.7 353.70074 310.3094Q353.15387 311.09064 353.15387 313.21564Z" fill-rule="nonzero"/><path fill="#000000" d="M473.80737 317.45L472.7605 317.45L472.7605 310.73126Q472.36987 311.09064 471.74487 311.46564Q471.1355 311.825 470.65112 311.9969L470.65112 310.98126Q471.52612 310.5594 472.18237 309.98126Q472.85425 309.3875 473.1355 308.825L473.80737 308.825L473.80737 317.45ZM476.83862 313.21564Q476.83862 311.6844 477.15112 310.7625Q477.46362 309.825 478.073 309.325Q478.698 308.825 479.6355 308.825Q480.323 308.825 480.83862 309.10626Q481.36987 309.3875 481.71362 309.91876Q482.05737 310.4344 482.24487 311.1844Q482.43237 311.9344 482.43237 313.21564Q482.43237 314.73126 482.11987 315.65314Q481.823 316.575 481.198 317.09064Q480.58862 317.59064 479.6355 317.59064Q478.40112 317.59064 477.68237 316.7Q476.83862 315.6375 476.83862 313.21564ZM477.91675 313.21564Q477.91675 315.325 478.41675 316.02814Q478.91675 316.73126 479.6355 316.73126Q480.36987 316.73126 480.85425 316.02814Q481.35425 315.325 481.35425 313.21564Q481.35425 311.09064 480.85425 310.40314Q480.36987 309.7 479.61987 309.7Q478.90112 309.7 478.46362 310.3094Q477.91675 311.09064 477.91675 313.21564ZM483.83862 313.21564Q483.83862 311.6844 484.15112 310.7625Q484.46362 309.825 485.073 309.325Q485.698 308.825 486.6355 308.825Q487.323 308.825 487.83862 309.10626Q488.36987 309.3875 488.71362 309.91876Q489.05737 310.4344 489.24487 311.1844Q489.43237 311.9344 489.43237 313.21564Q489.43237 314.73126 489.11987 315.65314Q488.823 316.575 488.198 317.09064Q487.58862 317.59064 486.6355 317.59064Q485.40112 317.59064 484.68237 316.7Q483.83862 315.6375 483.83862 313.21564ZM484.91675 313.21564Q484.91675 315.325 485.41675 316.02814Q485.91675 316.73126 486.6355 316.73126Q487.36987 316.73126 487.85425 316.02814Q488.35425 315.325 488.35425 313.21564Q488.35425 311.09064 487.85425 310.40314Q487.36987 309.7 486.61987 309.7Q485.90112 309.7 485.46362 310.3094Q484.91675 311.09064 484.91675 313.21564ZM490.83862 313.21564Q490.83862 311.6844 491.15112 310.7625Q491.46362 309.825 492.073 309.325Q492.698 308.825 493.6355 308.825Q494.323 308.825 494.83862 309.10626Q495.36987 309.3875 495.71362 309.91876Q496.05737 310.4344 496.24487 311.1844Q496.43237 311.9344 496.43237 313.21564Q496.43237 314.73126 496.11987 315.65314Q495.823 316.575 495.198 317.09064Q494.58862 317.59064 493.6355 317.59064Q492.40112 317.59064 491.68237 316.7Q490.83862 315.6375 490.83862 313.21564ZM491.91675 313.21564Q491.91675 315.325 492.41675 316.02814Q492.91675 316.73126 493.6355 316.73126Q494.36987 316.73126 494.85425 316.02814Q495.35425 315.325 495.35425 313.21564Q495.35425 311.09064 494.85425 310.40314Q494.36987 309.7 493.61987 309.7Q492.90112 309.7 492.46362 310.3094Q491.91675 311.09064 491.91675 313.21564Z" fill-rule="nonzero"/><path stroke="#4285f4" stroke-width="4.0" stroke-linecap="butt" d="M198.0 61.916668L210.0 61.916668" fill-rule="nonzero"/><path fill="#1a1a1a" d="M219.76562 65.916664L218.78125 65.916664L218.78125 57.322914L219.84375 57.322914L219.84375 60.385414Q220.51562 59.55729 221.54688 59.55729Q222.125 59.55729 222.625 59.791664Q223.14062 60.010414 223.46875 60.43229Q223.8125 60.854164 224.0 61.447914Q224.1875 62.041664 224.1875 62.71354Q224.1875 64.30729 223.39062 65.18229Q222.59375 66.05729 221.5 66.05729Q220.39062 66.05729 219.76562 65.135414L219.76562 65.916664ZM219.75 62.760414Q219.75 63.86979 220.0625 64.36979Q220.5625 65.18229 221.40625 65.18229Q222.09375 65.18229 222.59375 64.58854Q223.10938 63.99479 223.10938 62.791664Q223.10938 61.572914 222.625 60.99479Q222.14062 60.416664 221.45312 60.416664Q220.76562 60.416664 220.25 61.02604Q219.75 61.61979 219.75 62.760414ZM229.85938 65.15104Q229.26562 65.65104 228.71875 65.854164Q228.1875 66.05729 227.5625 66.05729Q226.53125 66.05729 225.98438 65.55729Q225.4375 65.05729 225.4375 64.27604Q225.4375 63.822914 225.64062 63.447914Q225.84375 63.05729 226.1875 62.83854Q226.53125 62.604164 226.95312 62.49479Q227.25 62.40104 227.89062 62.322914Q229.15625 62.18229 229.76562 61.96354Q229.76562 61.74479 229.76562 61.697914Q229.76562 61.041664 229.46875 60.77604Q229.0625 60.43229 228.26562 60.43229Q227.53125 60.43229 227.17188 60.697914Q226.8125 60.947914 226.64062 61.604164L225.60938 61.46354Q225.75 60.80729 226.07812 60.40104Q226.40625 59.99479 227.01562 59.77604Q227.625 59.55729 228.42188 59.55729Q229.21875 59.55729 229.71875 59.74479Q230.21875 59.93229 230.45312 60.21354Q230.6875 60.49479 230.78125 60.93229Q230.82812 61.197914 230.82812 61.90104L230.82812 63.30729Q230.82812 64.77604 230.89062 65.166664Q230.96875 65.55729 231.17188 65.916664L230.0625 65.916664Q229.90625 65.58854 229.85938 65.15104ZM229.76562 62.791664Q229.1875 63.02604 228.04688 63.197914Q227.39062 63.291664 227.125 63.416664Q226.85938 63.52604 226.70312 63.74479Q226.5625 63.96354 226.5625 64.24479Q226.5625 64.666664 226.875 64.947914Q227.20312 65.229164 227.8125 65.229164Q228.42188 65.229164 228.89062 64.96354Q229.375 64.697914 229.59375 64.229164Q229.76562 63.86979 229.76562 63.18229L229.76562 62.791664ZM232.375 64.05729L233.40625 63.90104Q233.5 64.52604 233.89062 64.854164Q234.29688 65.18229 235.03125 65.18229Q235.75 65.18229 236.09375 64.90104Q236.45312 64.604164 236.45312 64.197914Q236.45312 63.83854 236.14062 63.635414Q235.92188 63.49479 235.0625 63.27604Q233.90625 62.979164 233.45312 62.77604Q233.01562 62.55729 232.78125 62.18229Q232.54688 61.80729 232.54688 61.33854Q232.54688 60.93229 232.73438 60.572914Q232.92188 60.21354 233.25 59.979164Q233.5 59.80729 233.92188 59.68229Q234.34375 59.55729 234.84375 59.55729Q235.5625 59.55729 236.10938 59.77604Q236.67188 59.979164 236.9375 60.33854Q237.20312 60.697914 237.29688 61.291664L236.26562 61.43229Q236.20312 60.96354 235.85938 60.697914Q235.53125 60.416664 234.90625 60.416664Q234.1875 60.416664 233.875 60.666664Q233.5625 60.90104 233.5625 61.229164Q233.5625 61.43229 233.6875 61.58854Q233.82812 61.760414 234.09375 61.86979Q234.25 61.93229 235.03125 62.135414Q236.15625 62.447914 236.59375 62.635414Q237.03125 62.822914 237.28125 63.18229Q237.53125 63.541664 237.53125 64.08854Q237.53125 64.61979 237.21875 65.08854Q236.92188 65.541664 236.34375 65.80729Q235.76562 66.05729 235.03125 66.05729Q233.8125 66.05729 233.17188 65.55729Q232.54688 65.041664 232.375 64.05729ZM244.04688 63.916664L245.14062 64.041664Q244.89062 64.99479 244.1875 65.52604Q243.48438 66.05729 242.40625 66.05729Q241.04688 66.05729 240.23438 65.21354Q239.4375 64.36979 239.4375 62.854164Q239.4375 61.291664 240.25 60.43229Q241.0625 59.55729 242.34375 59.55729Q243.59375 59.55729 244.375 60.40104Q245.17188 61.24479 245.17188 62.791664Q245.17188 62.885414 245.17188 63.072914L240.53125 63.072914Q240.59375 64.104164 241.10938 64.65104Q241.625 65.18229 242.40625 65.18229Q242.98438 65.18229 243.39062 64.885414Q243.8125 64.572914 244.04688 63.916664ZM240.59375 62.21354L244.0625 62.21354Q244.0 61.416664 243.67188 61.02604Q243.15625 60.416664 242.35938 60.416664Q241.625 60.416664 241.125 60.90104Q240.64062 61.385414 240.59375 62.21354ZM246.76562 65.916664L246.76562 57.322914L247.82812 57.322914L247.82812 65.916664L246.76562 65.916664ZM249.79688 58.541664L249.79688 57.322914L250.85938 57.322914L250.85938 58.541664L249.79688 58.541664ZM249.79688 65.916664L249.79688 59.697914L250.85938 59.697914L250.85938 65.916664L249.79688 65.916664ZM252.79688 65.916664L252.79688 59.697914L253.73438 59.697914L253.73438 60.572914Q254.42188 59.55729 255.71875 59.55729Q256.28125 59.55729 256.75 59.760414Q257.23438 59.96354 257.46875 60.291664Q257.70312 60.61979 257.79688 61.05729Q257.84375 61.354164 257.84375 62.08854L257.84375 65.916664L256.79688 65.916664L256.79688 62.135414Q256.79688 61.479164 256.67188 61.166664Q256.54688 60.854164 256.23438 60.666664Q255.92188 60.46354 255.5 60.46354Q254.82812 60.46354 254.32812 60.90104Q253.84375 61.322914 253.84375 62.510414L253.84375 65.916664L252.79688 65.916664ZM264.04688 63.916664L265.14062 64.041664Q264.89062 64.99479 264.1875 65.52604Q263.48438 66.05729 262.40625 66.05729Q261.04688 66.05729 260.23438 65.21354Q259.4375 64.36979 259.4375 62.854164Q259.4375 61.291664 260.25 60.43229Q261.0625 59.55729 262.34375 59.55729Q263.59375 59.55729 264.375 60.40104Q265.17188 61.24479 265.17188 62.791664Q265.17188 62.885414 265.17188 63.072914L260.53125 63.072914Q260.59375 64.104164 261.10938 64.65104Q261.625 65.18229 262.40625 65.18229Q262.98438 65.18229 263.39062 64.885414Q263.8125 64.572914 264.04688 63.916664ZM260.59375 62.21354L264.0625 62.21354Q264.0 61.416664 263.67188 61.02604Q263.15625 60.416664 262.35938 60.416664Q261.625 60.416664 261.125 60.90104Q260.64062 61.385414 260.59375 62.21354Z" fill-rule="nonzero"/><path stroke="#ea4335" stroke-width="4.0" stroke-linecap="butt" d="M282.0 61.916668L294.0 61.916668" fill-rule="nonzero"/><path fill="#1a1a1a" d="M302.79688 68.30729L302.79688 59.697914L303.75 59.697914L303.75 60.49479Q304.09375 60.02604 304.51562 59.791664Q304.95312 59.55729 305.5625 59.55729Q306.35938 59.55729 306.96875 59.96354Q307.57812 60.36979 307.875 61.11979Q308.1875 61.86979 308.1875 62.760414Q308.1875 63.71354 307.84375 64.479164Q307.51562 65.24479 306.85938 65.65104Q306.20312 66.05729 305.48438 66.05729Q304.95312 66.05729 304.53125 65.83854Q304.10938 65.604164 303.84375 65.27604L303.84375 68.30729L302.79688 68.30729ZM303.75 62.83854Q303.75 64.041664 304.23438 64.61979Q304.71875 65.18229 305.40625 65.18229Q306.10938 65.18229 306.60938 64.58854Q307.10938 63.99479 307.10938 62.74479Q307.10938 61.55729 306.625 60.979164Q306.14062 60.385414 305.45312 60.385414Q304.78125 60.385414 304.26562 61.010414Q303.75 61.635414 303.75 62.83854ZM313.85938 65.15104Q313.26562 65.65104 312.71875 65.854164Q312.1875 66.05729 311.5625 66.05729Q310.53125 66.05729 309.98438 65.55729Q309.4375 65.05729 309.4375 64.27604Q309.4375 63.822914 309.64062 63.447914Q309.84375 63.05729 310.1875 62.83854Q310.53125 62.604164 310.95312 62.49479Q311.25 62.40104 311.89062 62.322914Q313.15625 62.18229 313.76562 61.96354Q313.76562 61.74479 313.76562 61.697914Q313.76562 61.041664 313.46875 60.77604Q313.0625 60.43229 312.26562 60.43229Q311.53125 60.43229 311.17188 60.697914Q310.8125 60.947914 310.64062 61.604164L309.60938 61.46354Q309.75 60.80729 310.07812 60.40104Q310.40625 59.99479 311.01562 59.77604Q311.625 59.55729 312.42188 59.55729Q313.21875 59.55729 313.71875 59.74479Q314.21875 59.93229 314.45312 60.21354Q314.6875 60.49479 314.78125 60.93229Q314.82812 61.197914 314.82812 61.90104L314.82812 63.30729Q314.82812 64.77604 314.89062 65.166664Q314.96875 65.55729 315.17188 65.916664L314.0625 65.916664Q313.90625 65.58854 313.85938 65.15104ZM313.76562 62.791664Q313.1875 63.02604 312.04688 63.197914Q311.39062 63.291664 311.125 63.416664Q310.85938 63.52604 310.70312 63.74479Q310.5625 63.96354 310.5625 64.24479Q310.5625 64.666664 310.875 64.947914Q311.20312 65.229164 311.8125 65.229164Q312.42188 65.229164 312.89062 64.96354Q313.375 64.697914 313.59375 64.229164Q313.76562 63.86979 313.76562 63.18229L313.76562 62.791664ZM319.09375 64.979164L319.25 65.90104Q318.79688 65.99479 318.45312 65.99479Q317.875 65.99479 317.5625 65.822914Q317.25 65.635414 317.10938 65.33854Q316.98438 65.041664 316.98438 64.08854L316.98438 60.510414L316.21875 60.510414L316.21875 59.697914L316.98438 59.697914L316.98438 58.15104L318.03125 57.52604L318.03125 59.697914L319.09375 59.697914L319.09375 60.510414L318.03125 60.510414L318.03125 64.15104Q318.03125 64.604164 318.07812 64.729164Q318.14062 64.854164 318.26562 64.93229Q318.39062 65.010414 318.625 65.010414Q318.8125 65.010414 319.09375 64.979164ZM323.85938 63.635414L324.89062 63.77604Q324.71875 64.83854 324.01562 65.447914Q323.3125 66.05729 322.29688 66.05729Q321.01562 66.05729 320.23438 65.229164Q319.46875 64.385414 319.46875 62.822914Q319.46875 61.822914 319.79688 61.072914Q320.14062 60.30729 320.8125 59.93229Q321.5 59.55729 322.3125 59.55729Q323.3125 59.55729 323.95312 60.072914Q324.60938 60.572914 324.79688 61.52604L323.76562 61.68229Q323.625 61.05729 323.25 60.74479Q322.875 60.416664 322.34375 60.416664Q321.54688 60.416664 321.04688 60.99479Q320.54688 61.55729 320.54688 62.791664Q320.54688 64.05729 321.03125 64.61979Q321.51562 65.18229 322.28125 65.18229Q322.90625 65.18229 323.3125 64.80729Q323.73438 64.43229 323.85938 63.635414ZM325.79688 65.916664L325.79688 57.322914L326.84375 57.322914L326.84375 60.40104Q327.57812 59.55729 328.70312 59.55729Q329.40625 59.55729 329.90625 59.83854Q330.42188 60.104164 330.64062 60.58854Q330.85938 61.05729 330.85938 61.979164L330.85938 65.916664L329.8125 65.916664L329.8125 61.979164Q329.8125 61.18229 329.46875 60.822914Q329.125 60.46354 328.5 60.46354Q328.03125 60.46354 327.60938 60.71354Q327.20312 60.947914 327.01562 61.36979Q326.84375 61.77604 326.84375 62.510414L326.84375 65.916664L325.79688 65.916664ZM337.04688 63.916664L338.14062 64.041664Q337.89062 64.99479 337.1875 65.52604Q336.48438 66.05729 335.40625 66.05729Q334.04688 66.05729 333.23438 65.21354Q332.4375 64.36979 332.4375 62.854164Q332.4375 61.291664 333.25 60.43229Q334.0625 59.55729 335.34375 59.55729Q336.59375 59.55729 337.375 60.40104Q338.17188 61.24479 338.17188 62.791664Q338.17188 62.885414 338.17188 63.072914L333.53125 63.072914Q333.59375 64.104164 334.10938 64.65104Q334.625 65.18229 335.40625 65.18229Q335.98438 65.18229 336.39062 64.885414Q336.8125 64.572914 337.04688 63.916664ZM333.59375 62.21354L337.0625 62.21354Q337.0 61.416664 336.67188 61.02604Q336.15625 60.416664 335.35938 60.416664Q334.625 60.416664 334.125 60.90104Q333.64062 61.385414 333.59375 62.21354ZM343.82812 65.916664L343.82812 65.135414Q343.23438 66.05729 342.09375 66.05729Q341.34375 66.05729 340.71875 65.65104Q340.09375 65.229164 339.75 64.49479Q339.40625 63.760414 339.40625 62.80729Q339.40625 61.885414 339.71875 61.11979Q340.03125 60.354164 340.65625 59.96354Q341.28125 59.55729 342.04688 59.55729Q342.60938 59.55729 343.04688 59.791664Q343.48438 60.02604 343.76562 60.40104L343.76562 57.322914L344.8125 57.322914L344.8125 65.916664L343.82812 65.916664ZM340.5 62.80729Q340.5 64.010414 341.0 64.604164Q341.5 65.18229 342.1875 65.18229Q342.875 65.18229 343.35938 64.61979Q343.84375 64.05729 343.84375 62.90104Q343.84375 61.61979 343.34375 61.02604Q342.85938 60.43229 342.14062 60.43229Q341.4375 60.43229 340.96875 61.010414Q340.5 61.572914 340.5 62.80729Z" fill-rule="nonzero"/><path fill="#757575" d="M69.8125 37.55L69.8125 27.175L71.390625 27.175L71.390625 28.628124Q71.875 27.878124 72.6875 27.409374Q73.5 26.940624 74.53125 26.940624Q75.6875 26.940624 76.421875 27.425Q77.15625 27.89375 77.46875 28.753124Q78.703125 26.940624 80.671875 26.940624Q82.21875 26.940624 83.046875 27.8Q83.875 28.659374 83.875 30.425L83.875 37.55L82.125 37.55L82.125 31.01875Q82.125 29.95625 81.953125 29.503124Q81.78125 29.034374 81.328125 28.753124Q80.890625 28.471874 80.28125 28.471874Q79.1875 28.471874 78.453125 29.20625Q77.734375 29.925 77.734375 31.51875L77.734375 37.55L75.984375 37.55L75.984375 30.815624Q75.984375 29.64375 75.546875 29.065624Q75.125 28.471874 74.140625 28.471874Q73.40625 28.471874 72.765625 28.8625Q72.140625 29.253124 71.859375 30.003124Q71.578125 30.753124 71.578125 32.175L71.578125 37.55L69.8125 37.55ZM92.921875 34.20625L94.734375 34.440624Q94.3125 36.01875 93.140625 36.909374Q91.984375 37.784374 90.171875 37.784374Q87.90625 37.784374 86.5625 36.39375Q85.234375 34.9875 85.234375 32.45625Q85.234375 29.83125 86.578125 28.39375Q87.921875 26.940624 90.078125 26.940624Q92.15625 26.940624 93.46875 28.3625Q94.796875 29.76875 94.796875 32.346874Q94.796875 32.503124 94.78125 32.815624L87.046875 32.815624Q87.140625 34.51875 88.015625 35.425Q88.890625 36.33125 90.1875 36.33125Q91.15625 36.33125 91.828125 35.83125Q92.515625 35.315624 92.921875 34.20625ZM87.140625 31.3625L92.9375 31.3625Q92.828125 30.065624 92.28125 29.409374Q91.4375 28.39375 90.09375 28.39375Q88.890625 28.39375 88.0625 29.20625Q87.234375 30.003124 87.140625 31.3625ZM96.8125 37.55L96.8125 27.175L98.390625 27.175L98.390625 28.628124Q98.875 27.878124 99.6875 27.409374Q100.5 26.940624 101.53125 26.940624Q102.6875 26.940624 103.421875 27.425Q104.15625 27.89375 104.46875 28.753124Q105.703125 26.940624 107.671875 26.940624Q109.21875 26.940624 110.046875 27.8Q110.875 28.659374 110.875 30.425L110.875 37.55L109.125 37.55L109.125 31.01875Q109.125 29.95625 108.953125 29.503124Q108.78125 29.034374 108.328125 28.753124Q107.890625 28.471874 107.28125 28.471874Q106.1875 28.471874 105.453125 29.20625Q104.734375 29.925 104.734375 31.51875L104.734375 37.55L102.984375 37.55L102.984375 30.815624Q102.984375 29.64375 102.546875 29.065624Q102.125 28.471874 101.140625 28.471874Q100.40625 28.471874 99.765625 28.8625Q99.140625 29.253124 98.859375 30.003124Q98.578125 30.753124 98.578125 32.175L98.578125 37.55L96.8125 37.55ZM119.59375 33.753124L121.3125 33.971874Q121.03125 35.76875 119.859375 36.784374Q118.703125 37.784374 117.0 37.784374Q114.875 37.784374 113.578125 36.39375Q112.28125 35.003124 112.28125 32.409374Q112.28125 30.721874 112.828125 29.471874Q113.390625 28.20625 114.53125 27.58125Q115.671875 26.940624 117.015625 26.940624Q118.703125 26.940624 119.765625 27.8Q120.84375 28.659374 121.15625 30.221874L119.4375 30.4875Q119.203125 29.440624 118.578125 28.925Q117.953125 28.39375 117.078125 28.39375Q115.75 28.39375 114.921875 29.346874Q114.09375 30.3 114.09375 32.346874Q114.09375 34.440624 114.890625 35.39375Q115.6875 36.33125 116.984375 36.33125Q118.015625 36.33125 118.703125 35.70625Q119.40625 35.065624 119.59375 33.753124ZM122.8125 41.51875L122.8125 27.175L124.421875 27.175L124.421875 28.51875Q124.984375 27.7375 125.6875 27.346874Q126.40625 26.940624 127.421875 26.940624Q128.75 26.940624 129.76562 27.628124Q130.78125 28.315624 131.29688 29.565624Q131.82812 30.8 131.82812 32.284374Q131.82812 33.878124 131.25 35.159374Q130.6875 36.425 129.59375 37.1125Q128.5 37.784374 127.296875 37.784374Q126.421875 37.784374 125.71875 37.409374Q125.03125 37.034374 124.578125 36.471874L124.578125 41.51875L122.8125 41.51875ZM124.40625 32.425Q124.40625 34.425 125.21875 35.378124Q126.03125 36.33125 127.1875 36.33125Q128.35938 36.33125 129.1875 35.346874Q130.03125 34.3625 130.03125 32.26875Q130.03125 30.3 129.20312 29.315624Q128.39062 28.315624 127.265625 28.315624Q126.140625 28.315624 125.265625 29.378124Q124.40625 30.425 124.40625 32.425ZM133.73438 41.55L133.54688 39.89375Q134.125 40.05 134.54688 40.05Q135.14062 40.05 135.48438 39.846874Q135.84375 39.659374 136.0625 39.315624Q136.23438 39.05 136.60938 38.003124Q136.65625 37.846874 136.76562 37.565624L132.82812 27.175L134.71875 27.175L136.875 33.190624Q137.29688 34.33125 137.625 35.58125Q137.9375 34.378124 138.34375 33.221874L140.5625 27.175L142.32812 27.175L138.375 37.721874Q137.75 39.440624 137.39062 40.08125Q136.92188 40.95625 136.3125 41.346874Q135.71875 41.753124 134.875 41.753124Q134.35938 41.753124 133.73438 41.55ZM149.82812 25.253124L149.82812 23.2375L151.59375 23.2375L151.59375 25.253124L149.82812 25.253124ZM149.82812 37.55L149.82812 27.175L151.59375 27.175L151.59375 37.55L149.82812 37.55ZM153.8125 37.55L153.8125 27.175L155.40625 27.175L155.40625 28.659374Q156.54688 26.940624 158.70312 26.940624Q159.64062 26.940624 160.42188 27.284374Q161.21875 27.6125 161.60938 28.159374Q162.0 28.70625 162.15625 29.45625Q162.25 29.95625 162.25 31.175L162.25 37.55L160.48438 37.55L160.48438 31.2375Q160.48438 30.159374 160.28125 29.628124Q160.07812 29.096874 159.54688 28.784374Q159.03125 28.471874 158.32812 28.471874Q157.20312 28.471874 156.39062 29.190624Q155.57812 29.89375 155.57812 31.878124L155.57812 37.55L153.8125 37.55ZM163.10938 34.45625L164.85938 34.175Q165.0 35.221874 165.67188 35.784374Q166.34375 36.33125 167.54688 36.33125Q168.75 36.33125 169.32812 35.846874Q169.92188 35.346874 169.92188 34.690624Q169.92188 34.096874 169.40625 33.753124Q169.04688 33.51875 167.60938 33.159374Q165.67188 32.659374 164.92188 32.315624Q164.1875 31.95625 163.79688 31.33125Q163.40625 30.690624 163.40625 29.925Q163.40625 29.2375 163.71875 28.64375Q164.04688 28.05 164.59375 27.659374Q165.0 27.3625 165.70312 27.159374Q166.42188 26.940624 167.23438 26.940624Q168.45312 26.940624 169.375 27.3Q170.29688 27.64375 170.73438 28.253124Q171.17188 28.846874 171.34375 29.846874L169.625 30.08125Q169.5 29.284374 168.9375 28.846874Q168.375 28.39375 167.35938 28.39375Q166.14062 28.39375 165.625 28.8Q165.10938 29.190624 165.10938 29.721874Q165.10938 30.065624 165.32812 30.346874Q165.53125 30.628124 166.0 30.815624Q166.26562 30.909374 167.54688 31.253124Q169.42188 31.753124 170.15625 32.08125Q170.89062 32.39375 171.3125 33.003124Q171.73438 33.596874 171.73438 34.503124Q171.73438 35.378124 171.21875 36.159374Q170.70312 36.940624 169.73438 37.3625Q168.76562 37.784374 167.54688 37.784374Q165.53125 37.784374 164.46875 36.940624Q163.40625 36.096874 163.10938 34.45625ZM177.65625 35.971874L177.90625 37.534374Q177.17188 37.690624 176.57812 37.690624Q175.625 37.690624 175.09375 37.39375Q174.57812 37.08125 174.35938 36.596874Q174.14062 36.096874 174.14062 34.51875L174.14062 28.55L172.85938 28.55L172.85938 27.175L174.14062 27.175L174.14062 24.6125L175.89062 23.55L175.89062 27.175L177.65625 27.175L177.65625 28.55L175.89062 28.55L175.89062 34.6125Q175.89062 35.3625 175.98438 35.58125Q176.07812 35.784374 176.28125 35.925Q176.5 36.05 176.89062 36.05Q177.17188 36.05 177.65625 35.971874ZM179.79688 37.55L179.79688 27.175L181.375 27.175L181.375 28.753124Q181.98438 27.64375 182.5 27.3Q183.01562 26.940624 183.625 26.940624Q184.51562 26.940624 185.4375 27.503124L184.82812 29.14375Q184.1875 28.753124 183.54688 28.753124Q182.96875 28.753124 182.5 29.1125Q182.04688 29.45625 181.84375 30.065624Q181.5625 31.003124 181.5625 32.1125L181.5625 37.55L179.79688 37.55ZM193.60938 37.55L193.60938 36.01875Q192.40625 37.784374 190.32812 37.784374Q189.40625 37.784374 188.60938 37.440624Q187.8125 37.08125 187.42188 36.55Q187.04688 36.01875 186.89062 35.2375Q186.78125 34.721874 186.78125 33.596874L186.78125 27.175L188.53125 27.175L188.53125 32.925Q188.53125 34.3 188.64062 34.784374Q188.8125 35.471874 189.34375 35.878124Q189.89062 36.26875 190.67188 36.26875Q191.46875 36.26875 192.15625 35.8625Q192.85938 35.45625 193.14062 34.76875Q193.4375 34.065624 193.4375 32.7375L193.4375 27.175L195.1875 27.175L195.1875 37.55L193.60938 37.55ZM203.59375 33.753124L205.3125 33.971874Q205.03125 35.76875 203.85938 36.784374Q202.70312 37.784374 201.0 37.784374Q198.875 37.784374 197.57812 36.39375Q196.28125 35.003124 196.28125 32.409374Q196.28125 30.721874 196.82812 29.471874Q197.39062 28.20625 198.53125 27.58125Q199.67188 26.940624 201.01562 26.940624Q202.70312 26.940624 203.76562 27.8Q204.84375 28.659374 205.15625 30.221874L203.4375 30.4875Q203.20312 29.440624 202.57812 28.925Q201.95312 28.39375 201.07812 28.39375Q199.75 28.39375 198.92188 29.346874Q198.09375 30.3 198.09375 32.346874Q198.09375 34.440624 198.89062 35.39375Q199.6875 36.33125 200.98438 36.33125Q202.01562 36.33125 202.70312 35.70625Q203.40625 35.065624 203.59375 33.753124ZM210.65625 35.971874L210.90625 37.534374Q210.17188 37.690624 209.57812 37.690624Q208.625 37.690624 208.09375 37.39375Q207.57812 37.08125 207.35938 36.596874Q207.14062 36.096874 207.14062 34.51875L207.14062 28.55L205.85938 28.55L205.85938 27.175L207.14062 27.175L207.14062 24.6125L208.89062 23.55L208.89062 27.175L210.65625 27.175L210.65625 28.55L208.89062 28.55L208.89062 34.6125Q208.89062 35.3625 208.98438 35.58125Q209.07812 35.784374 209.28125 35.925Q209.5 36.05 209.89062 36.05Q210.17188 36.05 210.65625 35.971874ZM212.82812 25.253124L212.82812 23.2375L214.59375 23.2375L214.59375 25.253124L212.82812 25.253124ZM212.82812 37.55L212.82812 27.175L214.59375 27.175L214.59375 37.55L212.82812 37.55ZM216.17188 32.3625Q216.17188 29.4875 217.76562 28.096874Q219.10938 26.940624 221.03125 26.940624Q223.17188 26.940624 224.51562 28.346874Q225.875 29.753124 225.875 32.221874Q225.875 34.221874 225.28125 35.378124Q224.6875 36.51875 223.53125 37.159374Q222.39062 37.784374 221.03125 37.784374Q218.84375 37.784374 217.5 36.39375Q216.17188 34.9875 216.17188 32.3625ZM217.96875 32.3625Q217.96875 34.3625 218.82812 35.346874Q219.70312 36.33125 221.03125 36.33125Q222.34375 36.33125 223.20312 35.346874Q224.07812 34.346874 224.07812 32.3Q224.07812 30.378124 223.20312 29.39375Q222.32812 28.39375 221.03125 28.39375Q219.70312 28.39375 218.82812 29.39375Q217.96875 30.378124 217.96875 32.3625ZM227.8125 37.55L227.8125 27.175L229.40625 27.175L229.40625 28.659374Q230.54688 26.940624 232.70312 26.940624Q233.64062 26.940624 234.42188 27.284374Q235.21875 27.6125 235.60938 28.159374Q236.0 28.70625 236.15625 29.45625Q236.25 29.95625 236.25 31.175L236.25 37.55L234.48438 37.55L234.48438 31.2375Q234.48438 30.159374 234.28125 29.628124Q234.07812 29.096874 233.54688 28.784374Q233.03125 28.471874 232.32812 28.471874Q231.20312 28.471874 230.39062 29.190624Q229.57812 29.89375 229.57812 31.878124L229.57812 37.55L227.8125 37.55ZM247.65625 35.971874L247.90625 37.534374Q247.17188 37.690624 246.57812 37.690624Q245.625 37.690624 245.09375 37.39375Q244.57812 37.08125 244.35938 36.596874Q244.14062 36.096874 244.14062 34.51875L244.14062 28.55L242.85938 28.55L242.85938 27.175L244.14062 27.175L244.14062 24.6125L245.89062 23.55L245.89062 27.175L247.65625 27.175L247.65625 28.55L245.89062 28.55L245.89062 34.6125Q245.89062 35.3625 245.98438 35.58125Q246.07812 35.784374 246.28125 35.925Q246.5 36.05 246.89062 36.05Q247.17188 36.05 247.65625 35.971874ZM249.82812 25.253124L249.82812 23.2375L251.59375 23.2375L251.59375 25.253124L249.82812 25.253124ZM249.82812 37.55L249.82812 27.175L251.59375 27.175L251.59375 37.55L249.82812 37.55ZM253.8125 37.55L253.8125 27.175L255.39062 27.175L255.39062 28.628124Q255.875 27.878124 256.6875 27.409374Q257.5 26.940624 258.53125 26.940624Q259.6875 26.940624 260.42188 27.425Q261.15625 27.89375 261.46875 28.753124Q262.70312 26.940624 264.67188 26.940624Q266.21875 26.940624 267.04688 27.8Q267.875 28.659374 267.875 30.425L267.875 37.55L266.125 37.55L266.125 31.01875Q266.125 29.95625 265.95312 29.503124Q265.78125 29.034374 265.32812 28.753124Q264.89062 28.471874 264.28125 28.471874Q263.1875 28.471874 262.45312 29.20625Q261.73438 29.925 261.73438 31.51875L261.73438 37.55L259.98438 37.55L259.98438 30.815624Q259.98438 29.64375 259.54688 29.065624Q259.125 28.471874 258.14062 28.471874Q257.40625 28.471874 256.76562 28.8625Q256.14062 29.253124 255.85938 30.003124Q255.57812 30.753124 255.57812 32.175L255.57812 37.55L253.8125 37.55ZM269.82812 25.253124L269.82812 23.2375L271.59375 23.2375L271.59375 25.253124L269.82812 25.253124ZM269.82812 37.55L269.82812 27.175L271.59375 27.175L271.59375 37.55L269.82812 37.55ZM273.8125 37.55L273.8125 27.175L275.40625 27.175L275.40625 28.659374Q276.54688 26.940624 278.70312 26.940624Q279.64062 26.940624 280.42188 27.284374Q281.21875 27.6125 281.60938 28.159374Q282.0 28.70625 282.15625 29.45625Q282.25 29.95625 282.25 31.175L282.25 37.55L280.48438 37.55L280.48438 31.2375Q280.48438 30.159374 280.28125 29.628124Q280.07812 29.096874 279.54688 28.784374Q279.03125 28.471874 278.32812 28.471874Q277.20312 28.471874 276.39062 29.190624Q275.57812 29.89375 275.57812 31.878124L275.57812 37.55L273.8125 37.55ZM283.5 38.409374L285.20312 38.659374Q285.3125 39.45625 285.79688 39.815624Q286.45312 40.3 287.59375 40.3Q288.8125 40.3 289.46875 39.815624Q290.14062 39.33125 290.375 38.45625Q290.51562 37.909374 290.5 36.190624Q289.34375 37.55 287.625 37.55Q285.48438 37.55 284.3125 36.003124Q283.14062 34.45625 283.14062 32.3Q283.14062 30.815624 283.67188 29.565624Q284.21875 28.315624 285.23438 27.628124Q286.26562 26.940624 287.64062 26.940624Q289.46875 26.940624 290.67188 28.425L290.67188 27.175L292.28125 27.175L292.28125 36.14375Q292.28125 38.565624 291.78125 39.565624Q291.29688 40.58125 290.21875 41.159374Q289.15625 41.753124 287.59375 41.753124Q285.75 41.753124 284.59375 40.925Q283.45312 40.096874 283.5 38.409374ZM284.95312 32.175Q284.95312 34.221874 285.76562 35.159374Q286.57812 36.096874 287.79688 36.096874Q289.0 36.096874 289.8125 35.159374Q290.64062 34.221874 290.64062 32.2375Q290.64062 30.33125 289.79688 29.3625Q288.95312 28.39375 287.76562 28.39375Q286.59375 28.39375 285.76562 29.346874Q284.95312 30.3 284.95312 32.175ZM305.14062 37.55L299.59375 23.2375L301.64062 23.2375L305.35938 33.628124Q305.8125 34.878124 306.10938 35.971874Q306.4375 34.8 306.89062 33.628124L310.75 23.2375L312.6875 23.2375L307.07812 37.55L305.14062 37.55ZM313.96875 37.55L313.96875 23.2375L315.85938 23.2375L315.85938 35.8625L322.90625 35.8625L322.90625 37.55L313.96875 37.55ZM325.07812 37.55L325.07812 23.2375L335.4375 23.2375L335.4375 24.925L326.98438 24.925L326.98438 29.3L334.89062 29.3L334.89062 30.9875L326.98438 30.9875L326.98438 35.8625L335.76562 35.8625L335.76562 37.55L325.07812 37.55ZM338.03125 37.55L338.03125 23.2375L339.96875 23.2375L347.48438 34.471874L347.48438 23.2375L349.29688 23.2375L349.29688 37.55L347.35938 37.55L339.84375 26.3L339.84375 37.55L338.03125 37.55ZM360.0625 29.128124L350.60938 29.128124L350.60938 27.4875L360.0625 27.4875L360.0625 29.128124ZM360.0625 33.471874L350.60938 33.471874L350.60938 31.83125L360.0625 31.83125L360.0625 33.471874ZM368.95312 37.55L367.1875 37.55L367.1875 26.346874Q366.5625 26.95625 365.53125 27.565624Q364.5 28.159374 363.67188 28.471874L363.67188 26.76875Q365.15625 26.08125 366.25 25.096874Q367.35938 24.096874 367.8125 23.175L368.95312 23.175L368.95312 37.55ZM382.5625 35.8625L382.5625 37.55L373.10938 37.55Q373.09375 36.909374 373.3125 36.33125Q373.67188 35.3625 374.46875 34.425Q375.26562 33.4875 376.76562 32.253124Q379.10938 30.346874 379.92188 29.2375Q380.75 28.1125 380.75 27.1125Q380.75 26.065624 380.0 25.346874Q379.25 24.628124 378.04688 24.628124Q376.78125 24.628124 376.01562 25.39375Q375.25 26.159374 375.25 27.503124L373.4375 27.315624Q373.625 25.3 374.82812 24.2375Q376.04688 23.175 378.09375 23.175Q380.14062 23.175 381.34375 24.315624Q382.54688 25.45625 382.54688 27.14375Q382.54688 28.003124 382.1875 28.846874Q381.84375 29.675 381.03125 30.596874Q380.21875 31.503124 378.32812 33.1125Q376.73438 34.440624 376.28125 34.909374Q375.84375 35.378124 375.54688 35.8625L382.5625 35.8625ZM387.03125 29.784374Q385.9375 29.378124 385.40625 28.64375Q384.89062 27.89375 384.89062 26.8625Q384.89062 25.3 386.01562 24.2375Q387.14062 23.175 389.0 23.175Q390.875 23.175 392.01562 24.26875Q393.15625 25.346874 393.15625 26.909374Q393.15625 27.909374 392.625 28.64375Q392.10938 29.378124 391.04688 29.784374Q392.375 30.221874 393.0625 31.175Q393.75 32.128124 393.75 33.45625Q393.75 35.3 392.4375 36.55Q391.14062 37.8 389.03125 37.8Q386.90625 37.8 385.60938 36.55Q384.3125 35.284374 384.3125 33.409374Q384.3125 32.01875 385.01562 31.08125Q385.73438 30.128124 387.03125 29.784374ZM386.6875 26.8Q386.6875 27.815624 387.34375 28.471874Q388.0 29.1125 389.03125 29.1125Q390.04688 29.1125 390.70312 28.471874Q391.35938 27.83125 391.35938 26.909374Q391.35938 25.940624 390.6875 25.284374Q390.01562 24.6125 389.01562 24.6125Q388.01562 24.6125 387.34375 25.26875Q386.6875 25.909374 386.6875 26.8ZM386.125 33.425Q386.125 34.175 386.46875 34.878124Q386.82812 35.58125 387.53125 35.971874Q388.23438 36.346874 389.04688 36.346874Q390.3125 36.346874 391.125 35.534374Q391.95312 34.721874 391.95312 33.471874Q391.95312 32.20625 391.10938 31.378124Q390.26562 30.55 388.98438 30.55Q387.75 30.55 386.9375 31.378124Q386.125 32.190624 386.125 33.425ZM401.96875 37.55L401.96875 23.2375L403.85938 23.2375L403.85938 35.8625L410.90625 35.8625L410.90625 37.55L401.96875 37.55ZM412.98438 37.55L412.98438 23.2375L415.84375 23.2375L419.21875 33.3625Q419.6875 34.784374 419.90625 35.4875Q420.15625 34.70625 420.67188 33.190624L424.09375 23.2375L426.64062 23.2375L426.64062 37.55L424.82812 37.55L424.82812 25.565624L420.65625 37.55L418.95312 37.55L414.8125 25.3625L414.8125 37.55L412.98438 37.55ZM439.4375 23.2375L441.32812 23.2375L441.32812 31.503124Q441.32812 33.659374 440.84375 34.940624Q440.35938 36.20625 439.07812 37.003124Q437.8125 37.8 435.73438 37.8Q433.71875 37.8 432.4375 37.1125Q431.17188 36.409374 430.625 35.096874Q430.07812 33.784374 430.07812 31.503124L430.07812 23.2375L431.96875 23.2375L431.96875 31.4875Q431.96875 33.3625 432.3125 34.253124Q432.65625 35.128124 433.5 35.6125Q434.34375 36.08125 435.57812 36.08125Q437.65625 36.08125 438.54688 35.14375Q439.4375 34.190624 439.4375 31.4875L439.4375 23.2375ZM442.96875 37.55L442.96875 23.2375L444.85938 23.2375L444.85938 35.8625L451.90625 35.8625L451.90625 37.55L442.96875 37.55ZM463.0625 29.128124L453.60938 29.128124L453.60938 27.4875L463.0625 27.4875L463.0625 29.128124ZM463.0625 33.471874L453.60938 33.471874L453.60938 31.83125L463.0625 31.83125L463.0625 33.471874ZM471.95312 37.55L470.1875 37.55L470.1875 26.346874Q469.5625 26.95625 468.53125 27.565624Q467.5 28.159374 466.67188 28.471874L466.67188 26.76875Q468.15625 26.08125 469.25 25.096874Q470.35938 24.096874 470.8125 23.175L471.95312 23.175L471.95312 37.55Z" fill-rule="nonzero"/></svg>