<svg version="1.1" viewBox="0.0 0.0 544.0 371.0" fill="none" stroke="none" stroke-linecap="square" stroke-miterlimit="10" width="544" height="371" xmlns:xlink="http://www.w3.org/1999/xlink" xmlns="http://www.w3.org/2000/svg"><path fill="#ffffff" d="M0 0L544.0 0L544.0 371.0L0 371.0L0 0Z" fill-rule="nonzero"/><path stroke="#cccccc" stroke-width="1.0" stroke-linecap="butt" d="M77.5 61.5L77.5 300.5" fill-rule="nonzero"/><path stroke="#cccccc" stroke-width="1.0" stroke-linecap="butt" d="M190.5 61.5L190.5 300.5" fill-rule="nonzero"/><path stroke="#cccccc" stroke-width="1.0" stroke-linecap="butt" d="M303.5 61.5L303.5 300.5" fill-rule="nonzero"/><path stroke="#cccccc" stroke-width="1.0" stroke-linecap="butt" d="M416.5 61.5L416.5 300.5" fill-rule="nonzero"/><path stroke="#333333" stroke-width="1.0" stroke-linecap="butt" d="M77.5 300.5L525.5 300.5" fill-rule="nonzero"/><path stroke="#cccccc" stroke-width="1.0" stroke-linecap="butt" d="M77.5 252.5L525.5 252.5" fill-rule="nonzero"/><path stroke="#cccccc" stroke-width="1.0" stroke-linecap="butt" d="M77.5 205.5L525.5 205.5" fill-rule="nonzero"/><path stroke="#cccccc" stroke-width="1.0" stroke-linecap="butt" d="M77.5 157.5L525.5 157.5" fill-rule="nonzero"/><path stroke="#cccccc" stroke-width="1.0" stroke-linecap="butt" d="M77.5 109.5L525.5 109.5" fill-rule="nonzero"/><path stroke="#cccccc" stroke-width="1.0" stroke-linecap="butt" d="M77.5 61.5L525.5 61.5" fill-rule="nonzero"/><clipPath id="id_0"><path d="M77.55 61.916668L525.45 61.916668L525.45 300.45L77.55 300.45L77.55 61.916668Z" clip-rule="nonzero"/></clipPath><path stroke="#ea4335" stroke-width="2.0" stroke-linecap="butt" clip-path="url(#id_0)" d="M77.55 231.60747L111.60533 261.6954L131.52641 238.7245L145.66066 222.422L156.62402 213.0381L165.58176 227.22722L173.1554 231.53477L179.71599 176.37639L185.50284 201.67065L190.67935 207.98293L195.36209 202.03375L199.63708 191.01784L203.5697 199.69675L207.21072 197.9237L210.60045 197.49901L213.77132 166.28209L216.7499 196.53186L219.55817 211.00484L222.21457 195.52841L224.73468 198.87321L227.13182 197.59583L229.41742 181.18333L231.6014 181.90373L233.69241 177.01167L235.69806 172.09126L237.62503 173.246L239.47926 165.30867L241.26605 166.87961L242.99014 167.79369L244.65578 174.18053L246.26678 171.40857L247.82664 147.09766L249.3385 177.6014L250.80522 168.6769L252.22943 161.13991L262.34323 157.36748L268.7608 165.74883L269.7534 158.3036L270.72632 168.81494L271.68036 155.45915L272.6162 158.24744L277.88535 152.02927L278.71112 130.495L279.52322 140.81615L280.3221 146.72852L281.10825 139.32748L281.882 117.92014L282.6437 144.9974L283.39383 144.14688L284.13266 148.72957L292.22733 133.04944L315.55197 123.01468L315.93732 103.25453L316.31964 126.30038L316.69907 128.66306L317.07553 129.49226L317.44916 125.52556L317.81998 124.26019L337.1215 117.57445L349.99265 100.692116L354.57056 108.349266L384.04797 97.4036L392.89362 100.62602L418.1033 95.99286L439.38092 97.919754L452.15863 95.3148L469.198 96.768654L486.21396 95.25967L496.80164 94.83906L520.2693 95.11886L525.45 95.68463" fill-rule="nonzero"/><path fill="#000000" fill-opacity="0.0" clip-path="url(#id_0)" d="M80.55 231.60747C80.55 233.26433 79.206856 234.60747 77.55 234.60747C75.89314 234.60747 74.55 233.26433 74.55 231.60747C74.55 229.9506 75.89314 228.60747 77.55 228.60747C79.206856 228.60747 80.55 229.9506 80.55 231.60747Z" fill-rule="nonzero"/><path fill="#000000" fill-opacity="0.0" clip-path="url(#id_0)" d="M114.60533 261.6954C114.60533 263.35226 113.262184 264.6954 111.60533 264.6954C109.94848 264.6954 108.60533 263.35226 108.60533 261.6954C108.60533 260.03857 109.94848 258.6954 111.60533 258.6954C113.262184 258.6954 114.60533 260.03857 114.60533 261.6954Z" fill-rule="nonzero"/><path fill="#000000" fill-opacity="0.0" clip-path="url(#id_0)" d="M134.52641 238.7245C134.52641 240.38136 133.18327 241.7245 131.52641 241.7245C129.86957 241.7245 128.52641 240.38136 128.52641 238.7245C128.52641 237.06764 129.86957 235.7245 131.52641 235.7245C133.18327 235.7245 134.52641 237.06764 134.52641 238.7245Z" fill-rule="nonzero"/><path fill="#000000" fill-opacity="0.0" clip-path="url(#id_0)" d="M148.66066 222.422C148.66066 224.07886 147.31752 225.422 145.66066 225.422C144.0038 225.422 142.66066 224.07886 142.66066 222.422C142.66066 220.76514 144.0038 219.422 145.66066 219.422C147.31752 219.422 148.66066 220.76514 148.66066 222.422Z" fill-rule="nonzero"/><path fill="#000000" fill-opacity="0.0" clip-path="url(#id_0)" d="M159.62402 213.0381C159.62402 214.69496 158.28088 216.0381 156.62402 216.0381C154.96718 216.0381 153.62402 214.69496 153.62402 213.0381C153.62402 211.38124 154.96718 210.0381 156.62402 210.0381C158.28088 210.0381 159.62402 211.38124 159.62402 213.0381Z" fill-rule="nonzero"/><path fill="#000000" fill-opacity="0.0" clip-path="url(#id_0)" d="M168.58176 227.22722C168.58176 228.88408 167.2386 230.22722 165.58176 230.22722C163.9249 230.22722 162.58176 228.88408 162.58176 227.22722C162.58176 225.57036 163.9249 224.22722 165.58176 224.22722C167.2386 224.22722 168.58176 225.57036 168.58176 227.22722Z" fill-rule="nonzero"/><path fill="#000000" fill-opacity="0.0" clip-path="url(#id_0)" d="M176.1554 231.53477C176.1554 233.19162 174.81226 234.53477 173.1554 234.53477C171.49855 234.53477 170.1554 233.19162 170.1554 231.53477C170.1554 229.87791 171.49855 228.53477 173.1554 228.53477C174.81226 228.53477 176.1554 229.87791 176.1554 231.53477Z" fill-rule="nonzero"/><path fill="#000000" fill-opacity="0.0" clip-path="url(#id_0)" d="M182.71599 176.37639C182.71599 178.03325 181.37285 179.37639 179.71599 179.37639C178.05913 179.37639 176.71599 178.03325 176.71599 176.37639C176.71599 174.71953 178.05913 173.37639 179.71599 173.37639C181.37285 173.37639 182.71599 174.71953 182.71599 176.37639Z" fill-rule="nonzero"/><path fill="#000000" fill-opacity="0.0" clip-path="url(#id_0)" d="M188.50284 201.67065C188.50284 203.32751 187.1597 204.67065 185.50284 204.67065C183.846 204.67065 182.50284 203.32751 182.50284 201.67065C182.50284 200.01381 183.846 198.67065 185.50284 198.67065C187.1597 198.67065 188.50284 200.01381 188.50284 201.67065Z" fill-rule="nonzero"/><path fill="#000000" fill-opacity="0.0" clip-path="url(#id_0)" d="M193.67935 207.98293C193.67935 209.63977 192.33621 210.98293 190.67935 210.98293C189.0225 210.98293 187.67935 209.63977 187.67935 207.98293C187.67935 206.32607 189.0225 204.98293 190.67935 204.98293C192.33621 204.98293 193.67935 206.32607 193.67935 207.98293Z" fill-rule="nonzero"/><path fill="#000000" fill-opacity="0.0" clip-path="url(#id_0)" d="M198.36209 202.03375C198.36209 203.69061 197.01894 205.03375 195.36209 205.03375C193.70523 205.03375 192.36209 203.69061 192.36209 202.03375C192.36209 200.37689 193.70523 199.03375 195.36209 199.03375C197.01894 199.03375 198.36209 200.37689 198.36209 202.03375Z" fill-rule="nonzero"/><path fill="#000000" fill-opacity="0.0" clip-path="url(#id_0)" d="M202.63708 191.01784C202.63708 192.6747 201.29393 194.01784 199.63708 194.01784C197.98022 194.01784 196.63708 192.6747 196.63708 191.01784C196.63708 189.36098 197.98022 188.01784 199.63708 188.01784C201.29393 188.01784 202.63708 189.36098 202.63708 191.01784Z" fill-rule="nonzero"/><path fill="#000000" fill-opacity="0.0" clip-path="url(#id_0)" d="M206.5697 199.69675C206.5697 201.35359 205.22655 202.69675 203.5697 202.69675C201.91284 202.69675 200.5697 201.35359 200.5697 199.69675C200.5697 198.03989 201.91284 196.69675 203.5697 196.69675C205.22655 196.69675 206.5697 198.03989 206.5697 199.69675Z" fill-rule="nonzero"/><path fill="#000000" fill-opacity="0.0" clip-path="url(#id_0)" d="M210.21072 197.9237C210.21072 199.58057 208.86758 200.9237 207.21072 200.9237C205.55388 200.9237 204.21072 199.58057 204.21072 197.9237C204.21072 196.26685 205.55388 194.9237 207.21072 194.9237C208.86758 194.9237 210.21072 196.26685 210.21072 197.9237Z" fill-rule="nonzero"/><path fill="#000000" fill-opacity="0.0" clip-path="url(#id_0)" d="M213.60045 197.49901C213.60045 199.15587 212.25731 200.49901 210.60045 200.49901C208.94359 200.49901 207.60045 199.15587 207.60045 197.49901C207.60045 195.84216 208.94359 194.49901 210.60045 194.49901C212.25731 194.49901 213.60045 195.84216 213.60045 197.49901Z" fill-rule="nonzero"/><path fill="#000000" fill-opacity="0.0" clip-path="url(#id_0)" d="M216.77132 166.28209C216.77132 167.93893 215.42818 169.28209 213.77132 169.28209C212.11447 169.28209 210.77132 167.93893 210.77132 166.28209C210.77132 164.62523 212.11447 163.28209 213.77132 163.28209C215.42818 163.28209 216.77132 164.62523 216.77132 166.28209Z" fill-rule="nonzero"/><path fill="#000000" fill-opacity="0.0" clip-path="url(#id_0)" d="M219.7499 196.53186C219.7499 198.1887 218.40675 199.53186 216.7499 199.53186C215.09305 199.53186 213.7499 198.1887 213.7499 196.53186C213.7499 194.875 215.09305 193.53186 216.7499 193.53186C218.40675 193.53186 219.7499 194.875 219.7499 196.53186Z" fill-rule="nonzero"/><path fill="#000000" fill-opacity="0.0" clip-path="url(#id_0)" d="M222.55817 211.00484C222.55817 212.6617 221.21503 214.00484 219.55817 214.00484C217.90132 214.00484 216.55817 212.6617 216.55817 211.00484C216.55817 209.34799 217.90132 208.00484 219.55817 208.00484C221.21503 208.00484 222.55817 209.34799 222.55817 211.00484Z" fill-rule="nonzero"/><path fill="#000000" fill-opacity="0.0" clip-path="url(#id_0)" d="M225.21457 195.52841C225.21457 197.18526 223.87143 198.52841 222.21457 198.52841C220.55772 198.52841 219.21457 197.18526 219.21457 195.52841C219.21457 193.87155 220.55772 192.52841 222.21457 192.52841C223.87143 192.52841 225.21457 193.87155 225.21457 195.52841Z" fill-rule="nonzero"/><path fill="#000000" fill-opacity="0.0" clip-path="url(#id_0)" d="M227.73468 198.87321C227.73468 200.53008 226.39154 201.87321 224.73468 201.87321C223.07784 201.87321 221.73468 200.53008 221.73468 198.87321C221.73468 197.21637 223.07784 195.87321 224.73468 195.87321C226.39154 195.87321 227.73468 197.21637 227.73468 198.87321Z" fill-rule="nonzero"/><path fill="#000000" fill-opacity="0.0" clip-path="url(#id_0)" d="M230.13182 197.59583C230.13182 199.25267 228.78867 200.59583 227.13182 200.59583C225.47496 200.59583 224.13182 199.25267 224.13182 197.59583C224.13182 195.93896 225.47496 194.59583 227.13182 194.59583C228.78867 194.59583 230.13182 195.93896 230.13182 197.59583Z" fill-rule="nonzero"/><path fill="#000000" fill-opacity="0.0" clip-path="url(#id_0)" d="M232.41742 181.18333C232.41742 182.8402 231.07426 184.18333 229.41742 184.18333C227.76056 184.18333 226.41742 182.8402 226.41742 181.18333C226.41742 179.52647 227.76056 178.18333 229.41742 178.18333C231.07426 178.18333 232.41742 179.52647 232.41742 181.18333Z" fill-rule="nonzero"/><path fill="#000000" fill-opacity="0.0" clip-path="url(#id_0)" d="M234.6014 181.90373C234.6014 183.5606 233.25826 184.90373 231.6014 184.90373C229.94453 184.90373 228.6014 183.5606 228.6014 181.90373C228.6014 180.24689 229.94453 178.90373 231.6014 178.90373C233.25826 178.90373 234.6014 180.24689 234.6014 181.90373Z" fill-rule="nonzero"/><path fill="#000000" fill-opacity="0.0" clip-path="url(#id_0)" d="M236.69241 177.01167C236.69241 178.66853 235.34926 180.01167 233.69241 180.01167C232.03555 180.01167 230.69241 178.66853 230.69241 177.01167C230.69241 175.35481 232.03555 174.01167 233.69241 174.01167C235.34926 174.01167 236.69241 175.35481 236.69241 177.01167Z" fill-rule="nonzero"/><path fill="#000000" fill-opacity="0.0" clip-path="url(#id_0)" d="M238.69806 172.09126C238.69806 173.74811 237.3549 175.09126 235.69806 175.09126C234.0412 175.09126 232.69806 173.74811 232.69806 172.09126C232.69806 170.4344 234.0412 169.09126 235.69806 169.09126C237.3549 169.09126 238.69806 170.4344 238.69806 172.09126Z" fill-rule="nonzero"/><path fill="#000000" fill-opacity="0.0" clip-path="url(#id_0)" d="M240.62503 173.246C240.62503 174.90286 239.28188 176.246 237.62503 176.246C235.96817 176.246 234.62503 174.90286 234.62503 173.246C234.62503 171.58914 235.96817 170.246 237.62503 170.246C239.28188 170.246 240.62503 171.58914 240.62503 173.246Z" fill-rule="nonzero"/><path fill="#000000" fill-opacity="0.0" clip-path="url(#id_0)" d="M242.47926 165.30867C242.47926 166.96553 241.13611 168.30867 239.47926 168.30867C237.8224 168.30867 236.47926 166.96553 236.47926 165.30867C236.47926 163.65181 237.8224 162.30867 239.47926 162.30867C241.13611 162.30867 242.47926 163.65181 242.47926 165.30867Z" fill-rule="nonzero"/><path fill="#000000" fill-opacity="0.0" clip-path="url(#id_0)" d="M244.26605 166.87961C244.26605 168.53645 242.92291 169.87961 241.26605 169.87961C239.6092 169.87961 238.26605 168.53645 238.26605 166.87961C238.26605 165.22275 239.6092 163.87961 241.26605 163.87961C242.92291 163.87961 244.26605 165.22275 244.26605 166.87961Z" fill-rule="nonzero"/><path fill="#000000" fill-opacity="0.0" clip-path="url(#id_0)" d="M245.99014 167.79369C245.99014 169.45055 244.647 170.79369 242.99014 170.79369C241.3333 170.79369 239.99014 169.45055 239.99014 167.79369C239.99014 166.13684 241.3333 164.79369 242.99014 164.79369C244.647 164.79369 245.99014 166.13684 245.99014 167.79369Z" fill-rule="nonzero"/><path fill="#000000" fill-opacity="0.0" clip-path="url(#id_0)" d="M247.65578 174.18053C247.65578 175.83737 246.31264 177.18053 244.65578 177.18053C242.99892 177.18053 241.65578 175.83737 241.65578 174.18053C241.65578 172.52367 242.99892 171.18053 244.65578 171.18053C246.31264 171.18053 247.65578 172.52367 247.65578 174.18053Z" fill-rule="nonzero"/><path fill="#000000" fill-opacity="0.0" clip-path="url(#id_0)" d="M249.26678 171.40857C249.26678 173.06543 247.92365 174.40857 246.26678 174.40857C244.60994 174.40857 243.26678 173.06543 243.26678 171.40857C243.26678 169.75172 244.60994 168.40857 246.26678 168.40857C247.92365 168.40857 249.26678 169.75172 249.26678 171.40857Z" fill-rule="nonzero"/><path fill="#000000" fill-opacity="0.0" clip-path="url(#id_0)" d="M250.82664 147.09766C250.82664 148.7545 249.4835 150.09766 247.82664 150.09766C246.1698 150.09766 244.82664 148.7545 244.82664 147.09766C244.82664 145.4408 246.1698 144.09766 247.82664 144.09766C249.4835 144.09766 250.82664 145.4408 250.82664 147.09766Z" fill-rule="nonzero"/><path fill="#000000" fill-opacity="0.0" clip-path="url(#id_0)" d="M252.3385 177.6014C252.3385 179.25826 250.99536 180.6014 249.3385 180.6014C247.68166 180.6014 246.3385 179.25826 246.3385 177.6014C246.3385 175.94455 247.68166 174.6014 249.3385 174.6014C250.99536 174.6014 252.3385 175.94455 252.3385 177.6014Z" fill-rule="nonzero"/><path fill="#000000" fill-opacity="0.0" clip-path="url(#id_0)" d="M253.80522 168.6769C253.80522 170.33376 252.46208 171.6769 250.80522 171.6769C249.14838 171.6769 247.80522 170.33376 247.80522 168.6769C247.80522 167.02005 249.14838 165.6769 250.80522 165.6769C252.46208 165.6769 253.80522 167.02005 253.80522 168.6769Z" fill-rule="nonzero"/><path fill="#000000" fill-opacity="0.0" clip-path="url(#id_0)" d="M255.22943 161.13991C255.22943 162.79677 253.88628 164.13991 252.22943 164.13991C250.57257 164.13991 249.22943 162.79677 249.22943 161.13991C249.22943 159.48305 250.57257 158.13991 252.22943 158.13991C253.88628 158.13991 255.22943 159.48305 255.22943 161.13991Z" fill-rule="nonzero"/><path fill="#000000" fill-opacity="0.0" clip-path="url(#id_0)" d="M265.34323 157.36748C265.34323 159.02432 264.0001 160.36748 262.34323 160.36748C260.68637 160.36748 259.34323 159.02432 259.34323 157.36748C259.34323 155.71062 260.68637 154.36748 262.34323 154.36748C264.0001 154.36748 265.34323 155.71062 265.34323 157.36748Z" fill-rule="nonzero"/><path fill="#000000" fill-opacity="0.0" clip-path="url(#id_0)" d="M271.7608 165.74883C271.7608 167.40567 270.41766 168.74883 268.7608 168.74883C267.10394 168.74883 265.7608 167.40567 265.7608 165.74883C265.7608 164.09196 267.10394 162.74883 268.7608 162.74883C270.41766 162.74883 271.7608 164.09196 271.7608 165.74883Z" fill-rule="nonzero"/><path fill="#000000" fill-opacity="0.0" clip-path="url(#id_0)" d="M272.7534 158.3036C272.7534 159.96046 271.41025 161.3036 269.7534 161.3036C268.09653 161.3036 266.7534 159.96046 266.7534 158.3036C266.7534 156.64674 268.09653 155.3036 269.7534 155.3036C271.41025 155.3036 272.7534 156.64674 272.7534 158.3036Z" fill-rule="nonzero"/><path fill="#000000" fill-opacity="0.0" clip-path="url(#id_0)" d="M273.72632 168.81494C273.72632 170.47179 272.38318 171.81494 270.72632 171.81494C269.06946 171.81494 267.72632 170.47179 267.72632 168.81494C267.72632 167.15808 269.06946 165.81494 270.72632 165.81494C272.38318 165.81494 273.72632 167.15808 273.72632 168.81494Z" fill-rule="nonzero"/><path fill="#000000" fill-opacity="0.0" clip-path="url(#id_0)" d="M274.68036 155.45915C274.68036 157.116 273.33722 158.45915 271.68036 158.45915C270.0235 158.45915 268.68036 157.116 268.68036 155.45915C268.68036 153.80229 270.0235 152.45915 271.68036 152.45915C273.33722 152.45915 274.68036 153.80229 274.68036 155.45915Z" fill-rule="nonzero"/><path fill="#000000" fill-opacity="0.0" clip-path="url(#id_0)" d="M275.6162 158.24744C275.6162 159.9043 274.27307 161.24744 272.6162 161.24744C270.95935 161.24744 269.6162 159.9043 269.6162 158.24744C269.6162 156.59058 270.95935 155.24744 272.6162 155.24744C274.27307 155.24744 275.6162 156.59058 275.6162 158.24744Z" fill-rule="nonzero"/><path fill="#000000" fill-opacity="0.0" clip-path="url(#id_0)" d="M280.88535 152.02927C280.88535 153.68611 279.5422 155.02927 277.88535 155.02927C276.2285 155.02927 274.88535 153.68611 274.88535 152.02927C274.88535 150.3724 276.2285 149.02927 277.88535 149.02927C279.5422 149.02927 280.88535 150.3724 280.88535 152.02927Z" fill-rule="nonzero"/><path fill="#000000" fill-opacity="0.0" clip-path="url(#id_0)" d="M281.71112 130.495C281.71112 132.15186 280.36795 133.495 278.71112 133.495C277.05426 133.495 275.71112 132.15186 275.71112 130.495C275.71112 128.83815 277.05426 127.495 278.71112 127.495C280.36795 127.495 281.71112 128.83815 281.71112 130.495Z" fill-rule="nonzero"/><path fill="#000000" fill-opacity="0.0" clip-path="url(#id_0)" d="M282.52322 140.81615C282.52322 142.473 281.18008 143.81615 279.52322 143.81615C277.86636 143.81615 276.52322 142.473 276.52322 140.81615C276.52322 139.1593 277.86636 137.81615 279.52322 137.81615C281.18008 137.81615 282.52322 139.1593 282.52322 140.81615Z" fill-rule="nonzero"/><path fill="#000000" fill-opacity="0.0" clip-path="url(#id_0)" d="M283.3221 146.72852C283.3221 148.38538 281.97897 149.72852 280.3221 149.72852C278.66525 149.72852 277.3221 148.38538 277.3221 146.72852C277.3221 145.07167 278.66525 143.72852 280.3221 143.72852C281.97897 143.72852 283.3221 145.07167 283.3221 146.72852Z" fill-rule="nonzero"/><path fill="#000000" fill-opacity="0.0" clip-path="url(#id_0)" d="M284.10825 139.32748C284.10825 140.98434 282.7651 142.32748 281.10825 142.32748C279.4514 142.32748 278.10825 140.98434 278.10825 139.32748C278.10825 137.67062 279.4514 136.32748 281.10825 136.32748C282.7651 136.32748 284.10825 137.67062 284.10825 139.32748Z" fill-rule="nonzero"/><path fill="#000000" fill-opacity="0.0" clip-path="url(#id_0)" d="M284.882 117.92014C284.882 119.576996 283.53882 120.92014 281.882 120.92014C280.22513 120.92014 278.882 119.576996 278.882 117.92014C278.882 116.26329 280.22513 114.92014 281.882 114.92014C283.53882 114.92014 284.882 116.26329 284.882 117.92014Z" fill-rule="nonzero"/><path fill="#000000" fill-opacity="0.0" clip-path="url(#id_0)" d="M285.6437 144.9974C285.6437 146.65425 284.30057 147.9974 282.6437 147.9974C280.98688 147.9974 279.6437 146.65425 279.6437 144.9974C279.6437 143.34055 280.98688 141.9974 282.6437 141.9974C284.30057 141.9974 285.6437 143.34055 285.6437 144.9974Z" fill-rule="nonzero"/><path fill="#000000" fill-opacity="0.0" clip-path="url(#id_0)" d="M286.39383 144.14688C286.39383 145.80373 285.0507 147.14688 283.39383 147.14688C281.73697 147.14688 280.39383 145.80373 280.39383 144.14688C280.39383 142.49002 281.73697 141.14688 283.39383 141.14688C285.0507 141.14688 286.39383 142.49002 286.39383 144.14688Z" fill-rule="nonzero"/><path fill="#000000" fill-opacity="0.0" clip-path="url(#id_0)" d="M287.13266 148.72957C287.13266 150.38643 285.78952 151.72957 284.13266 151.72957C282.4758 151.72957 281.13266 150.38643 281.13266 148.72957C281.13266 147.07271 282.4758 145.72957 284.13266 145.72957C285.78952 145.72957 287.13266 147.07271 287.13266 148.72957Z" fill-rule="nonzero"/><path fill="#000000" fill-opacity="0.0" clip-path="url(#id_0)" d="M295.22733 133.04944C295.22733 134.7063 293.8842 136.04944 292.22733 136.04944C290.57047 136.04944 289.22733 134.7063 289.22733 133.04944C289.22733 131.3926 290.57047 130.04944 292.22733 130.04944C293.8842 130.04944 295.22733 131.3926 295.22733 133.04944Z" fill-rule="nonzero"/><path fill="#000000" fill-opacity="0.0" clip-path="url(#id_0)" d="M318.55197 123.01468C318.55197 124.67153 317.2088 126.01468 315.55197 126.01468C313.8951 126.01468 312.55197 124.67153 312.55197 123.01468C312.55197 121.35783 313.8951 120.01468 315.55197 120.01468C317.2088 120.01468 318.55197 121.35783 318.55197 123.01468Z" fill-rule="nonzero"/><path fill="#000000" fill-opacity="0.0" clip-path="url(#id_0)" d="M318.93732 103.25453C318.93732 104.911385 317.59418 106.25453 315.93732 106.25453C314.28046 106.25453 312.93732 104.911385 312.93732 103.25453C312.93732 101.59768 314.28046 100.25453 315.93732 100.25453C317.59418 100.25453 318.93732 101.59768 318.93732 103.25453Z" fill-rule="nonzero"/><path fill="#000000" fill-opacity="0.0" clip-path="url(#id_0)" d="M319.31964 126.30038C319.31964 127.95723 317.9765 129.30037 316.31964 129.30037C314.6628 129.30037 313.31964 127.95723 313.31964 126.30038C313.31964 124.64352 314.6628 123.30038 316.31964 123.30038C317.9765 123.30038 319.31964 124.64352 319.31964 126.30038Z" fill-rule="nonzero"/><path fill="#000000" fill-opacity="0.0" clip-path="url(#id_0)" d="M319.69907 128.66306C319.69907 130.3199 318.3559 131.66306 316.69907 131.66306C315.0422 131.66306 313.69907 130.3199 313.69907 128.66306C313.69907 127.0062 315.0422 125.663055 316.69907 125.663055C318.3559 125.663055 319.69907 127.0062 319.69907 128.66306Z" fill-rule="nonzero"/><path fill="#000000" fill-opacity="0.0" clip-path="url(#id_0)" d="M320.07553 129.49226C320.07553 131.14911 318.7324 132.49226 317.07553 132.49226C315.41867 132.49226 314.07553 131.14911 314.07553 129.49226C314.07553 127.8354 315.41867 126.492256 317.07553 126.492256C318.7324 126.492256 320.07553 127.8354 320.07553 129.49226Z" fill-rule="nonzero"/><path fill="#000000" fill-opacity="0.0" clip-path="url(#id_0)" d="M320.44916 125.52556C320.44916 127.18241 319.10602 128.52556 317.44916 128.52556C315.7923 128.52556 314.44916 127.18241 314.44916 125.52556C314.44916 123.8687 315.7923 122.52556 317.44916 122.52556C319.10602 122.52556 320.44916 123.8687 320.44916 125.52556Z" fill-rule="nonzero"/><path fill="#000000" fill-opacity="0.0" clip-path="url(#id_0)" d="M320.81998 124.26019C320.81998 125.917046 319.47684 127.26019 317.81998 127.26019C316.16312 127.26019 314.81998 125.917046 314.81998 124.26019C314.81998 122.60334 316.16312 121.26019 317.81998 121.26019C319.47684 121.26019 320.81998 122.60334 320.81998 124.26019Z" fill-rule="nonzero"/><path fill="#000000" fill-opacity="0.0" clip-path="url(#id_0)" d="M340.1215 117.57445C340.1215 119.2313 338.77835 120.57445 337.1215 120.57445C335.46463 120.57445 334.1215 119.2313 334.1215 117.57445C334.1215 115.91759 335.46463 114.57445 337.1215 114.57445C338.77835 114.57445 340.1215 115.91759 340.1215 117.57445Z" fill-rule="nonzero"/><path fill="#000000" fill-opacity="0.0" clip-path="url(#id_0)" d="M352.99265 100.692116C352.99265 102.34897 351.6495 103.692116 349.99265 103.692116C348.3358 103.692116 346.99265 102.34897 346.99265 100.692116C346.99265 99.03526 348.3358 97.692116 349.99265 97.692116C351.6495 97.692116 352.99265 99.03526 352.99265 100.692116Z" fill-rule="nonzero"/><path fill="#000000" fill-opacity="0.0" clip-path="url(#id_0)" d="M357.57056 108.349266C357.57056 110.00612 356.22742 111.349266 354.57056 111.349266C352.91373 111.349266 351.57056 110.00612 351.57056 108.349266C351.57056 106.69241 352.91373 105.349266 354.57056 105.349266C356.22742 105.349266 357.57056 106.69241 357.57056 108.349266Z" fill-rule="nonzero"/><path fill="#000000" fill-opacity="0.0" clip-path="url(#id_0)" d="M387.04797 97.4036C387.04797 99.06046 385.70483 100.4036 384.04797 100.4036C382.3911 100.4036 381.04797 99.06046 381.04797 97.4036C381.04797 95.74675 382.3911 94.4036 384.04797 94.4036C385.70483 94.4036 387.04797 95.74675 387.04797 97.4036Z" fill-rule="nonzero"/><path fill="#000000" fill-opacity="0.0" clip-path="url(#id_0)" d="M395.89362 100.62602C395.89362 102.282875 394.55048 103.62602 392.89362 103.62602C391.23676 103.62602 389.89362 102.282875 389.89362 100.62602C389.89362 98.96917 391.23676 97.62602 392.89362 97.62602C394.55048 97.62602 395.89362 98.96917 395.89362 100.62602Z" fill-rule="nonzero"/><path fill="#000000" fill-opacity="0.0" clip-path="url(#id_0)" d="M421.1033 95.99286C421.1033 97.64971 419.76016 98.99286 418.1033 98.99286C416.44644 98.99286 415.1033 97.64971 415.1033 95.99286C415.1033 94.336006 416.44644 92.99286 418.1033 92.99286C419.76016 92.99286 421.1033 94.336006 421.1033 95.99286Z" fill-rule="nonzero"/><path fill="#000000" fill-opacity="0.0" clip-path="url(#id_0)" d="M442.38092 97.919754C442.38092 99.57661 441.03778 100.919754 439.38092 100.919754C437.72406 100.919754 436.38092 99.57661 436.38092 97.919754C436.38092 96.2629 437.72406 94.919754 439.38092 94.919754C441.03778 94.919754 442.38092 96.2629 442.38092 97.919754Z" fill-rule="nonzero"/><path fill="#000000" fill-opacity="0.0" clip-path="url(#id_0)" d="M455.15863 95.3148C455.15863 96.97165 453.8155 98.3148 452.15863 98.3148C450.50177 98.3148 449.15863 96.97165 449.15863 95.3148C449.15863 93.65794 450.50177 92.3148 452.15863 92.3148C453.8155 92.3148 455.15863 93.65794 455.15863 95.3148Z" fill-rule="nonzero"/><path fill="#000000" fill-opacity="0.0" clip-path="url(#id_0)" d="M472.198 96.768654C472.198 98.42551 470.85486 99.768654 469.198 99.768654C467.54114 99.768654 466.198 98.42551 466.198 96.768654C466.198 95.1118 467.54114 93.768654 469.198 93.768654C470.85486 93.768654 472.198 95.1118 472.198 96.768654Z" fill-rule="nonzero"/><path fill="#000000" fill-opacity="0.0" clip-path="url(#id_0)" d="M489.21396 95.25967C489.21396 96.91652 487.87082 98.25967 486.21396 98.25967C484.5571 98.25967 483.21396 96.91652 483.21396 95.25967C483.21396 93.60281 484.5571 92.25967 486.21396 92.25967C487.87082 92.25967 489.21396 93.60281 489.21396 95.25967Z" fill-rule="nonzero"/><path fill="#000000" fill-opacity="0.0" clip-path="url(#id_0)" d="M499.80164 94.83906C499.80164 96.49591 498.4585 97.83906 496.80164 97.83906C495.1448 97.83906 493.80164 96.49591 493.80164 94.83906C493.80164 93.182205 495.1448 91.83906 496.80164 91.83906C498.4585 91.83906 499.80164 93.182205 499.80164 94.83906Z" fill-rule="nonzero"/><path fill="#000000" fill-opacity="0.0" clip-path="url(#id_0)" d="M523.2693 95.11886C523.2693 96.77571 521.92615 98.11886 520.2693 98.11886C518.6124 98.11886 517.2693 96.77571 517.2693 95.11886C517.2693 93.462006 518.6124 92.11886 520.2693 92.11886C521.92615 92.11886 523.2693 93.462006 523.2693 95.11886Z" fill-rule="nonzero"/><path fill="#000000" fill-opacity="0.0" clip-path="url(#id_0)" d="M528.45 95.68463C528.45 97.341484 527.1069 98.68463 525.45 98.68463C523.79315 98.68463 522.45 97.341484 522.45 95.68463C522.45 94.02778 523.79315 92.68463 525.45 92.68463C527.1069 92.68463 528.45 94.02778 528.45 95.68463Z" fill-rule="nonzero"/><path fill="#000000" d="M270.54688 346.6844L271.60938 346.59064Q271.6875 347.2469 271.96875 347.65314Q272.25 348.0594 272.82812 348.325Q273.42188 348.575 274.15625 348.575Q274.79688 348.575 275.29688 348.3875Q275.79688 348.1844 276.03125 347.85626Q276.28125 347.5125 276.28125 347.1219Q276.28125 346.71564 276.04688 346.41876Q275.8125 346.10626 275.28125 345.90314Q274.92188 345.7625 273.73438 345.48126Q272.5625 345.2 272.09375 344.95Q271.46875 344.6219 271.17188 344.15314Q270.875 343.66876 270.875 343.075Q270.875 342.4344 271.23438 341.8719Q271.60938 341.29376 272.3125 341.0125Q273.03125 340.71564 273.89062 340.71564Q274.84375 340.71564 275.57812 341.02814Q276.3125 341.325 276.70312 341.9344Q277.09375 342.52814 277.125 343.27814L276.03125 343.35626Q275.9375 342.54376 275.42188 342.1375Q274.92188 341.71564 273.9375 341.71564Q272.90625 341.71564 272.4375 342.09064Q271.96875 342.46564 271.96875 342.9969Q271.96875 343.46564 272.29688 343.7625Q272.625 344.0594 274.0 344.3719Q275.39062 344.6844 275.90625 344.91876Q276.65625 345.27814 277.01562 345.8094Q277.375 346.325 277.375 347.02814Q277.375 347.71564 276.98438 348.325Q276.59375 348.91876 275.85938 349.2625Q275.125 349.59064 274.20312 349.59064Q273.03125 349.59064 272.23438 349.2625Q271.45312 348.91876 271.0 348.23126Q270.5625 347.54376 270.54688 346.6844ZM278.79688 342.075L278.79688 340.85626L279.85938 340.85626L279.85938 342.075L278.79688 342.075ZM278.79688 349.45L278.79688 343.23126L279.85938 343.23126L279.85938 349.45L278.79688 349.45ZM281.23438 349.45L281.23438 348.59064L285.20312 344.04376Q284.51562 344.075 284.0 344.075L281.46875 344.075L281.46875 343.23126L286.5625 343.23126L286.5625 343.91876L283.1875 347.8719L282.53125 348.59064Q283.25 348.54376 283.85938 348.54376L286.75 348.54376L286.75 349.45L281.23438 349.45ZM291.04688 347.45L292.14062 347.575Q291.89062 348.52814 291.1875 349.0594Q290.48438 349.59064 289.40625 349.59064Q288.04688 349.59064 287.23438 348.7469Q286.4375 347.90314 286.4375 346.3875Q286.4375 344.825 287.25 343.96564Q288.0625 343.09064 289.34375 343.09064Q290.59375 343.09064 291.375 343.9344Q292.17188 344.77814 292.17188 346.325Q292.17188 346.41876 292.17188 346.60626L287.53125 346.60626Q287.59375 347.6375 288.10938 348.1844Q288.625 348.71564 289.40625 348.71564Q289.98438 348.71564 290.39062 348.41876Q290.8125 348.10626 291.04688 347.45ZM287.59375 345.7469L291.0625 345.7469Q291.0 344.95 290.67188 344.5594Q290.15625 343.95 289.35938 343.95Q288.625 343.95 288.125 344.4344Q287.64062 344.91876 287.59375 345.7469ZM298.8125 351.98126Q297.9375 350.8719 297.32812 349.40314Q296.73438 347.91876 296.73438 346.34064Q296.73438 344.95 297.17188 343.66876Q297.70312 342.1844 298.8125 340.71564L299.5625 340.71564Q298.85938 341.9344 298.625 342.45Q298.26562 343.2625 298.0625 344.1375Q297.8125 345.23126 297.8125 346.34064Q297.8125 349.16876 299.5625 351.98126L298.8125 351.98126ZM301.76562 349.45L300.78125 349.45L300.78125 340.85626L301.84375 340.85626L301.84375 343.91876Q302.51562 343.09064 303.54688 343.09064Q304.125 343.09064 304.625 343.325Q305.14062 343.54376 305.46875 343.96564Q305.8125 344.3875 306.0 344.98126Q306.1875 345.575 306.1875 346.2469Q306.1875 347.84064 305.39062 348.71564Q304.59375 349.59064 303.5 349.59064Q302.39062 349.59064 301.76562 348.66876L301.76562 349.45ZM301.75 346.29376Q301.75 347.40314 302.0625 347.90314Q302.5625 348.71564 303.40625 348.71564Q304.09375 348.71564 304.59375 348.1219Q305.10938 347.52814 305.10938 346.325Q305.10938 345.10626 304.625 344.52814Q304.14062 343.95 303.45312 343.95Q302.76562 343.95 302.25 344.5594Q301.75 345.15314 301.75 346.29376ZM307.75 351.84064L307.625 350.85626Q307.96875 350.95 308.23438 350.95Q308.57812 350.95 308.78125 350.825Q309.0 350.71564 309.14062 350.5125Q309.23438 350.34064 309.46875 349.71564Q309.48438 349.6375 309.5625 349.46564L307.1875 343.23126L308.32812 343.23126L309.625 346.825Q309.875 347.5125 310.07812 348.27814Q310.26562 347.54376 310.51562 346.85626L311.84375 343.23126L312.89062 343.23126L310.53125 349.5594Q310.14062 350.575 309.9375 350.96564Q309.65625 351.4969 309.28125 351.73126Q308.92188 351.98126 308.42188 351.98126Q308.125 351.98126 307.75 351.84064ZM315.09375 348.5125L315.25 349.4344Q314.79688 349.52814 314.45312 349.52814Q313.875 349.52814 313.5625 349.35626Q313.25 349.16876 313.10938 348.8719Q312.98438 348.575 312.98438 347.6219L312.98438 344.04376L312.21875 344.04376L312.21875 343.23126L312.98438 343.23126L312.98438 341.6844L314.03125 341.0594L314.03125 343.23126L315.09375 343.23126L315.09375 344.04376L314.03125 344.04376L314.03125 347.6844Q314.03125 348.1375 314.07812 348.2625Q314.14062 348.3875 314.26562 348.46564Q314.39062 348.54376 314.625 348.54376Q314.8125 348.54376 315.09375 348.5125ZM320.04688 347.45L321.14062 347.575Q320.89062 348.52814 320.1875 349.0594Q319.48438 349.59064 318.40625 349.59064Q317.04688 349.59064 316.23438 348.7469Q315.4375 347.90314 315.4375 346.3875Q315.4375 344.825 316.25 343.96564Q317.0625 343.09064 318.34375 343.09064Q319.59375 343.09064 320.375 343.9344Q321.17188 344.77814 321.17188 346.325Q321.17188 346.41876 321.17188 346.60626L316.53125 346.60626Q316.59375 347.6375 317.10938 348.1844Q317.625 348.71564 318.40625 348.71564Q318.98438 348.71564 319.39062 348.41876Q319.8125 348.10626 320.04688 347.45ZM316.59375 345.7469L320.0625 345.7469Q320.0 344.95 319.67188 344.5594Q319.15625 343.95 318.35938 343.95Q317.625 343.95 317.125 344.4344Q316.64062 344.91876 316.59375 345.7469ZM322.375 347.59064L323.40625 347.4344Q323.5 348.0594 323.89062 348.3875Q324.29688 348.71564 325.03125 348.71564Q325.75 348.71564 326.09375 348.4344Q326.45312 348.1375 326.45312 347.73126Q326.45312 347.3719 326.14062 347.16876Q325.92188 347.02814 325.0625 346.8094Q323.90625 346.5125 323.45312 346.3094Q323.01562 346.09064 322.78125 345.71564Q322.54688 345.34064 322.54688 344.8719Q322.54688 344.46564 322.73438 344.10626Q322.92188 343.7469 323.25 343.5125Q323.5 343.34064 323.92188 343.21564Q324.34375 343.09064 324.84375 343.09064Q325.5625 343.09064 326.10938 343.3094Q326.67188 343.5125 326.9375 343.8719Q327.20312 344.23126 327.29688 344.825L326.26562 344.96564Q326.20312 344.4969 325.85938 344.23126Q325.53125 343.95 324.90625 343.95Q324.1875 343.95 323.875 344.2Q323.5625 344.4344 323.5625 344.7625Q323.5625 344.96564 323.6875 345.1219Q323.82812 345.29376 324.09375 345.40314Q324.25 345.46564 325.03125 345.66876Q326.15625 345.98126 326.59375 346.16876Q327.03125 346.35626 327.28125 346.71564Q327.53125 347.075 327.53125 347.6219Q327.53125 348.15314 327.21875 348.6219Q326.92188 349.075 326.34375 349.34064Q325.76562 349.59064 325.03125 349.59064Q323.8125 349.59064 323.17188 349.09064Q322.54688 348.575 322.375 347.59064ZM330.48438 351.98126L329.73438 351.98126Q331.48438 349.16876 331.48438 346.34064Q331.48438 345.2469 331.23438 344.15314Q331.03125 343.27814 330.67188 342.46564Q330.4375 341.95 329.73438 340.71564L330.48438 340.71564Q331.57812 342.1844 332.10938 343.66876Q332.5625 344.95 332.5625 346.34064Q332.5625 347.91876 331.95312 349.40314Q331.34375 350.8719 330.48438 351.98126Z" fill-rule="nonzero"/><path fill="#000000" d="M26.784388 252.13646L26.690638 251.07396Q27.346888 250.99583 27.753138 250.71458Q28.159388 250.43333 28.425013 249.85521Q28.675013 249.26146 28.675013 248.52708Q28.675013 247.88646 28.487513 247.38646Q28.284388 246.88646 27.956263 246.65208Q27.612513 246.40208 27.221888 246.40208Q26.815638 246.40208 26.518763 246.63646Q26.206263 246.87083 26.003138 247.40208Q25.862513 247.76146 25.581263 248.94896Q25.300013 250.12083 25.050013 250.58958Q24.721888 251.21458 24.253138 251.51146Q23.768763 251.80833 23.175013 251.80833Q22.534388 251.80833 21.971888 251.44896Q21.393763 251.07396 21.112513 250.37083Q20.815638 249.65208 20.815638 248.79271Q20.815638 247.83958 21.128138 247.10521Q21.425013 246.37083 22.034388 245.98021Q22.628138 245.58958 23.378138 245.55833L23.456263 246.65208Q22.643763 246.74583 22.237513 247.26146Q21.815638 247.76146 21.815638 248.74583Q21.815638 249.77708 22.190638 250.24583Q22.565638 250.71458 23.096888 250.71458Q23.565638 250.71458 23.862513 250.38646Q24.159388 250.05833 24.471888 248.68333Q24.784388 247.29271 25.018763 246.77708Q25.378138 246.02708 25.909388 245.66771Q26.425013 245.30833 27.128138 245.30833Q27.815638 245.30833 28.425013 245.69896Q29.018763 246.08958 29.362513 246.82396Q29.690638 247.55833 29.690638 248.48021Q29.690638 249.65208 29.362513 250.44896Q29.018763 251.23021 28.331263 251.68333Q27.643763 252.12083 26.784388 252.13646ZM31.940638 243.88646L23.331263 243.88646L23.331263 242.93333L24.128138 242.93333Q23.659388 242.58958 23.425013 242.16771Q23.190638 241.73021 23.190638 241.12083Q23.190638 240.32396 23.596888 239.71458Q24.003138 239.10521 24.753138 238.80833Q25.503138 238.49583 26.393763 238.49583Q27.346888 238.49583 28.112513 238.83958Q28.878138 239.16771 29.284388 239.82396Q29.690638 240.48021 29.690638 241.19896Q29.690638 241.73021 29.471888 242.15208Q29.237513 242.57396 28.909388 242.83958L31.940638 242.83958L31.940638 243.88646ZM26.471888 242.93333Q27.675013 242.93333 28.253138 242.44896Q28.815638 241.96458 28.815638 241.27708Q28.815638 240.57396 28.221888 240.07396Q27.628138 239.57396 26.378138 239.57396Q25.190638 239.57396 24.612513 240.05833Q24.018763 240.54271 24.018763 241.23021Q24.018763 241.90208 24.643763 242.41771Q25.268763 242.93333 26.471888 242.93333ZM27.550013 232.63646L27.675013 231.54271Q28.628138 231.79271 29.159388 232.49583Q29.690638 233.19896 29.690638 234.27708Q29.690638 235.63646 28.846888 236.44896Q28.003138 237.24583 26.487513 237.24583Q24.925013 237.24583 24.065638 236.43333Q23.190638 235.62083 23.190638 234.33958Q23.190638 233.08958 24.034388 232.30833Q24.878138 231.51146 26.425013 231.51146Q26.518763 231.51146 26.706263 231.51146L26.706263 236.15208Q27.737513 236.08958 28.284388 235.57396Q28.815638 235.05833 28.815638 234.27708Q28.815638 233.69896 28.518763 233.29271Q28.206263 232.87083 27.550013 232.63646ZM25.846888 236.08958L25.846888 232.62083Q25.050013 232.68333 24.659388 233.01146Q24.050013 233.52708 24.050013 234.32396Q24.050013 235.05833 24.534388 235.55833Q25.018763 236.04271 25.846888 236.08958ZM27.550013 225.63646L27.675013 224.54271Q28.628138 224.79271 29.159388 225.49583Q29.690638 226.19896 29.690638 227.27708Q29.690638 228.63646 28.846888 229.44896Q28.003138 230.24583 26.487513 230.24583Q24.925013 230.24583 24.065638 229.43333Q23.190638 228.62083 23.190638 227.33958Q23.190638 226.08958 24.034388 225.30833Q24.878138 224.51146 26.425013 224.51146Q26.518763 224.51146 26.706263 224.51146L26.706263 229.15208Q27.737513 229.08958 28.284388 228.57396Q28.815638 228.05833 28.815638 227.27708Q28.815638 226.69896 28.518763 226.29271Q28.206263 225.87083 27.550013 225.63646ZM25.846888 229.08958L25.846888 225.62083Q25.050013 225.68333 24.659388 226.01146Q24.050013 226.52708 24.050013 227.32396Q24.050013 228.05833 24.534388 228.55833Q25.018763 229.04271 25.846888 229.08958ZM29.550013 218.85521L28.768763 218.85521Q29.690638 219.44896 29.690638 220.58958Q29.690638 221.33958 29.284388 221.96458Q28.862513 222.58958 28.128138 222.93333Q27.393763 223.27708 26.440638 223.27708Q25.518763 223.27708 24.753138 222.96458Q23.987513 222.65208 23.596888 222.02708Q23.190638 221.40208 23.190638 220.63646Q23.190638 220.07396 23.425013 219.63646Q23.659388 219.19896 24.034388 218.91771L20.956263 218.91771L20.956263 217.87083L29.550013 217.87083L29.550013 218.85521ZM26.440638 222.18333Q27.643763 222.18333 28.237513 221.68333Q28.815638 221.18333 28.815638 220.49583Q28.815638 219.80833 28.253138 219.32396Q27.690638 218.83958 26.534388 218.83958Q25.253138 218.83958 24.659388 219.33958Q24.065638 219.82396 24.065638 220.54271Q24.065638 221.24583 24.643763 221.71458Q25.206263 222.18333 26.440638 222.18333ZM29.550013 208.80833L28.628138 208.80833Q29.690638 209.54271 29.690638 210.79271Q29.690638 211.33958 29.487513 211.82396Q29.268763 212.29271 28.956263 212.52708Q28.628138 212.76146 28.159388 212.85521Q27.862513 212.91771 27.175013 212.91771L23.331263 212.91771L23.331263 211.85521L26.784388 211.85521Q27.596888 211.85521 27.893763 211.79271Q28.300013 211.69896 28.550013 211.38646Q28.784388 211.05833 28.784388 210.57396Q28.784388 210.10521 28.550013 209.69896Q28.300013 209.27708 27.878138 209.10521Q27.456263 208.91771 26.659388 208.91771L23.331263 208.91771L23.331263 207.87083L29.550013 207.87083L29.550013 208.80833ZM31.940638 205.88646L23.331263 205.88646L23.331263 204.93333L24.128138 204.93333Q23.659388 204.58958 23.425013 204.16771Q23.190638 203.73021 23.190638 203.12083Q23.190638 202.32396 23.596888 201.71458Q24.003138 201.10521 24.753138 200.80833Q25.503138 200.49583 26.393763 200.49583Q27.346888 200.49583 28.112513 200.83958Q28.878138 201.16771 29.284388 201.82396Q29.690638 202.48021 29.690638 203.19896Q29.690638 203.73021 29.471888 204.15208Q29.237513 204.57396 28.909388 204.83958L31.940638 204.83958L31.940638 205.88646ZM26.471888 204.93333Q27.675013 204.93333 28.253138 204.44896Q28.815638 203.96458 28.815638 203.27708Q28.815638 202.57396 28.221888 202.07396Q27.628138 201.57396 26.378138 201.57396Q25.190638 201.57396 24.612513 202.05833Q24.018763 202.54271 24.018763 203.23021Q24.018763 203.90208 24.643763 204.41771Q25.268763 204.93333 26.471888 204.93333ZM26.440638 196.27708Q24.706263 196.27708 23.878138 195.32396Q23.190638 194.52708 23.190638 193.37083Q23.190638 192.08958 24.034388 191.27708Q24.862513 190.44896 26.346888 190.44896Q27.550013 190.44896 28.237513 190.80833Q28.925013 191.16771 29.315638 191.87083Q29.690638 192.55833 29.690638 193.37083Q29.690638 194.66771 28.862513 195.48021Q28.018763 196.27708 26.440638 196.27708ZM26.440638 195.19896Q27.628138 195.19896 28.221888 194.68333Q28.815638 194.15208 28.815638 193.37083Q28.815638 192.57396 28.221888 192.05833Q27.628138 191.54271 26.409388 191.54271Q25.253138 191.54271 24.659388 192.07396Q24.065638 192.58958 24.065638 193.37083Q24.065638 194.15208 24.659388 194.68333Q25.237513 195.19896 26.440638 195.19896ZM29.550013 187.16771L23.331263 189.52708L23.331263 188.41771L27.050013 187.07396Q27.659388 186.87083 28.300013 186.68333Q27.815638 186.54271 27.128138 186.29271L23.331263 184.90208L23.331263 183.82396L29.550013 186.18333L29.550013 187.16771ZM27.550013 179.63646L27.675013 178.54271Q28.628138 178.79271 29.159388 179.49583Q29.690638 180.19896 29.690638 181.27708Q29.690638 182.63646 28.846888 183.44896Q28.003138 184.24583 26.487513 184.24583Q24.925013 184.24583 24.065638 183.43333Q23.190638 182.62083 23.190638 181.33958Q23.190638 180.08958 24.034388 179.30833Q24.878138 178.51146 26.425013 178.51146Q26.518763 178.51146 26.706263 178.51146L26.706263 183.15208Q27.737513 183.08958 28.284388 182.57396Q28.815638 182.05833 28.815638 181.27708Q28.815638 180.69896 28.518763 180.29271Q28.206263 179.87083 27.550013 179.63646ZM25.846888 183.08958L25.846888 179.62083Q25.050013 179.68333 24.659388 180.01146Q24.050013 180.52708 24.050013 181.32396Q24.050013 182.05833 24.534388 182.55833Q25.018763 183.04271 25.846888 183.08958ZM29.550013 176.90208L23.331263 176.90208L23.331263 175.94896L24.268763 175.94896Q23.612513 175.58958 23.409388 175.29271Q23.190638 174.98021 23.190638 174.60521Q23.190638 174.07396 23.518763 173.52708L24.503138 173.88646Q24.268763 174.27708 24.268763 174.65208Q24.268763 175.01146 24.487513 175.29271Q24.690638 175.55833 25.065638 175.66771Q25.628138 175.85521 26.284388 175.85521L29.550013 175.85521L29.550013 176.90208ZM29.550013 168.91771L29.550013 169.90208L20.956263 169.90208L20.956263 168.83958L24.018763 168.83958Q23.190638 168.16771 23.190638 167.13646Q23.190638 166.55833 23.425013 166.05833Q23.643763 165.54271 24.065638 165.21458Q24.487513 164.87083 25.081263 164.68333Q25.675013 164.49583 26.346888 164.49583Q27.940638 164.49583 28.815638 165.29271Q29.690638 166.08958 29.690638 167.18333Q29.690638 168.29271 28.768763 168.91771L29.550013 168.91771ZM26.393763 168.93333Q27.503138 168.93333 28.003138 168.62083Q28.815638 168.12083 28.815638 167.27708Q28.815638 166.58958 28.221888 166.08958Q27.628138 165.57396 26.425013 165.57396Q25.206263 165.57396 24.628138 166.05833Q24.050013 166.54271 24.050013 167.23021Q24.050013 167.91771 24.659388 168.43333Q25.253138 168.93333 26.393763 168.93333ZM28.784388 158.82396Q29.284388 159.41771 29.487513 159.96458Q29.690638 160.49583 29.690638 161.12083Q29.690638 162.15208 29.190638 162.69896Q28.690638 163.24583 27.909388 163.24583Q27.456263 163.24583 27.081263 163.04271Q26.690638 162.83958 26.471888 162.49583Q26.237513 162.15208 26.128138 161.73021Q26.034388 161.43333 25.956263 160.79271Q25.815638 159.52708 25.596888 158.91771Q25.378138 158.91771 25.331263 158.91771Q24.675013 158.91771 24.409388 159.21458Q24.065638 159.62083 24.065638 160.41771Q24.065638 161.15208 24.331263 161.51146Q24.581263 161.87083 25.237513 162.04271L25.096888 163.07396Q24.440638 162.93333 24.034388 162.60521Q23.628138 162.27708 23.409388 161.66771Q23.190638 161.05833 23.190638 160.26146Q23.190638 159.46458 23.378138 158.96458Q23.565638 158.46458 23.846888 158.23021Q24.128138 157.99583 24.565638 157.90208Q24.831263 157.85521 25.534388 157.85521L26.940638 157.85521Q28.409388 157.85521 28.800013 157.79271Q29.190638 157.71458 29.550013 157.51146L29.550013 158.62083Q29.221888 158.77708 28.784388 158.82396ZM26.425013 158.91771Q26.659388 159.49583 26.831263 160.63646Q26.925013 161.29271 27.050013 161.55833Q27.159388 161.82396 27.378138 161.98021Q27.596888 162.12083 27.878138 162.12083Q28.300013 162.12083 28.581263 161.80833Q28.862513 161.48021 28.862513 160.87083Q28.862513 160.26146 28.596888 159.79271Q28.331263 159.30833 27.862513 159.08958Q27.503138 158.91771 26.815638 158.91771L26.425013 158.91771ZM27.690638 156.30833L27.534388 155.27708Q28.159388 155.18333 28.487513 154.79271Q28.815638 154.38646 28.815638 153.65208Q28.815638 152.93333 28.534388 152.58958Q28.237513 152.23021 27.831263 152.23021Q27.471888 152.23021 27.268763 152.54271Q27.128138 152.76146 26.909388 153.62083Q26.612513 154.77708 26.409388 155.23021Q26.190638 155.66771 25.815638 155.90208Q25.440638 156.13646 24.971888 156.13646Q24.565638 156.13646 24.206263 155.94896Q23.846888 155.76146 23.612513 155.43333Q23.440638 155.18333 23.315638 154.76146Q23.190638 154.33958 23.190638 153.83958Q23.190638 153.12083 23.409388 152.57396Q23.612513 152.01146 23.971888 151.74583Q24.331263 151.48021 24.925013 151.38646L25.065638 152.41771Q24.596888 152.48021 24.331263 152.82396Q24.050013 153.15208 24.050013 153.77708Q24.050013 154.49583 24.300013 154.80833Q24.534388 155.12083 24.862513 155.12083Q25.065638 155.12083 25.221888 154.99583Q25.393763 154.85521 25.503138 154.58958Q25.565638 154.43333 25.768763 153.65208Q26.081263 152.52708 26.268763 152.08958Q26.456263 151.65208 26.815638 151.40208Q27.175013 151.15208 27.721888 151.15208Q28.253138 151.15208 28.721888 151.46458Q29.175013 151.76146 29.440638 152.33958Q29.690638 152.91771 29.690638 153.65208Q29.690638 154.87083 29.190638 155.51146Q28.675013 156.13646 27.690638 156.30833ZM27.550013 144.63646L27.675013 143.54271Q28.628138 143.79271 29.159388 144.49583Q29.690638 145.19896 29.690638 146.27708Q29.690638 147.63646 28.846888 148.44896Q28.003138 149.24583 26.487513 149.24583Q24.925013 149.24583 24.065638 148.43333Q23.190638 147.62083 23.190638 146.33958Q23.190638 145.08958 24.034388 144.30833Q24.878138 143.51146 26.425013 143.51146Q26.518763 143.51146 26.706263 143.51146L26.706263 148.15208Q27.737513 148.08958 28.284388 147.57396Q28.815638 147.05833 28.815638 146.27708Q28.815638 145.69896 28.518763 145.29271Q28.206263 144.87083 27.550013 144.63646ZM25.846888 148.08958L25.846888 144.62083Q25.050013 144.68333 24.659388 145.01146Q24.050013 145.52708 24.050013 146.32396Q24.050013 147.05833 24.534388 147.55833Q25.018763 148.04271 25.846888 148.08958ZM29.550013 141.91771L20.956263 141.91771L20.956263 140.85521L29.550013 140.85521L29.550013 141.91771ZM22.175013 138.88646L20.956263 138.88646L20.956263 137.82396L22.175013 137.82396L22.175013 138.88646ZM29.550013 138.88646L23.331263 138.88646L23.331263 137.82396L29.550013 137.82396L29.550013 138.88646ZM29.550013 135.88646L23.331263 135.88646L23.331263 134.94896L24.206263 134.94896Q23.190638 134.26146 23.190638 132.96458Q23.190638 132.40208 23.393763 131.93333Q23.596888 131.44896 23.925013 131.21458Q24.253138 130.98021 24.690638 130.88646Q24.987513 130.83958 25.721888 130.83958L29.550013 130.83958L29.550013 131.88646L25.768763 131.88646Q25.112513 131.88646 24.800013 132.01146Q24.487513 132.13646 24.300013 132.44896Q24.096888 132.76146 24.096888 133.18333Q24.096888 133.85521 24.534388 134.35521Q24.956263 134.83958 26.143763 134.83958L29.550013 134.83958L29.550013 135.88646ZM27.550013 124.63646L27.675013 123.54271Q28.628138 123.79271 29.159388 124.495834Q29.690638 125.19896 29.690638 126.277084Q29.690638 127.63646 28.846888 128.44896Q28.003138 129.24583 26.487513 129.24583Q24.925013 129.24583 24.065638 128.43333Q23.190638 127.620834 23.190638 126.339584Q23.190638 125.089584 24.034388 124.308334Q24.878138 123.51146 26.425013 123.51146Q26.518763 123.51146 26.706263 123.51146L26.706263 128.15208Q27.737513 128.08958 28.284388 127.57396Q28.815638 127.058334 28.815638 126.277084Q28.815638 125.69896 28.518763 125.29271Q28.206263 124.870834 27.550013 124.63646ZM25.846888 128.08958L25.846888 124.620834Q25.050013 124.683334 24.659388 125.01146Q24.050013 125.527084 24.050013 126.32396Q24.050013 127.058334 24.534388 127.558334Q25.018763 128.04271 25.846888 128.08958Z" fill-rule="nonzero"/><path fill="#000000" d="M65.05 300.21564Q65.05 298.6844 65.3625 297.7625Q65.675 296.825 66.28438 296.325Q66.90938 295.825 67.84688 295.825Q68.53438 295.825 69.05 296.10626Q69.58125 296.3875 69.925 296.91876Q70.26875 297.4344 70.45625 298.1844Q70.64375 298.9344 70.64375 300.21564Q70.64375 301.73126 70.33125 302.65314Q70.03438 303.575 69.40938 304.09064Q68.8 304.59064 67.84688 304.59064Q66.6125 304.59064 65.89375 303.7Q65.05 302.6375 65.05 300.21564ZM66.12813 300.21564Q66.12813 302.325 66.62813 303.02814Q67.12813 303.73126 67.84688 303.73126Q68.58125 303.73126 69.06563 303.02814Q69.56563 302.325 69.56563 300.21564Q69.56563 298.09064 69.06563 297.40314Q68.58125 296.7 67.83125 296.7Q67.1125 296.7 66.675 297.3094Q66.12813 298.09064 66.12813 300.21564Z" fill-rule="nonzero"/><path fill="#000000" d="M69.01875 256.74335L67.97188 256.74335L67.97188 250.0246Q67.58125 250.38397 66.95625 250.75897Q66.34688 251.11835 65.8625 251.29022L65.8625 250.2746Q66.7375 249.85272 67.39375 249.2746Q68.06563 248.68085 68.34688 248.11835L69.01875 248.11835L69.01875 256.74335Z" fill-rule="nonzero"/><path fill="#000000" d="M70.59688 208.02104L70.59688 209.03667L64.90938 209.03667Q64.90938 208.66167 65.03438 208.30229Q65.25313 207.72417 65.72188 207.16167Q66.20625 206.59917 67.1125 205.86479Q68.51875 204.70854 69.00313 204.03667Q69.50313 203.36479 69.50313 202.77104Q69.50313 202.14604 69.05 201.72417Q68.59688 201.28667 67.87813 201.28667Q67.1125 201.28667 66.65938 201.73979Q66.20625 202.19292 66.19063 203.00542L65.1125 202.89604Q65.22188 201.67729 65.94063 201.05229Q66.675 200.41167 67.90938 200.41167Q69.14375 200.41167 69.8625 201.09917Q70.58125 201.78667 70.58125 202.80229Q70.58125 203.31792 70.3625 203.81792Q70.15938 204.30229 69.65938 204.86479Q69.175 205.41167 68.05 206.36479Q67.09688 207.16167 66.81563 207.45854Q66.55 207.73979 66.37813 208.02104L70.59688 208.02104Z" fill-rule="nonzero"/><path fill="#000000" d="M65.05 159.06438L66.1125 158.92375Q66.28438 159.81438 66.72188 160.22063Q67.15938 160.61125 67.78438 160.61125Q68.53438 160.61125 69.05 160.09563Q69.56563 159.58 69.56563 158.81438Q69.56563 158.09563 69.08125 157.62688Q68.6125 157.1425 67.87813 157.1425Q67.58125 157.1425 67.12813 157.2675L67.25313 156.33Q67.3625 156.34563 67.425 156.34563Q68.09688 156.34563 68.62813 156.00188Q69.175 155.6425 69.175 154.90813Q69.175 154.33 68.78438 153.955Q68.39375 153.56438 67.76875 153.56438Q67.15938 153.56438 66.7375 153.955Q66.33125 154.34563 66.22188 155.11125L65.15938 154.92375Q65.34688 153.87688 66.03438 153.29875Q66.72188 152.705 67.7375 152.705Q68.44063 152.705 69.03438 153.0175Q69.62813 153.31438 69.94063 153.83Q70.25313 154.34563 70.25313 154.93938Q70.25313 155.48625 69.95625 155.955Q69.65938 156.40813 69.08125 156.67375Q69.83125 156.84563 70.25313 157.40813Q70.675 157.955 70.675 158.79875Q70.675 159.92375 69.84688 160.705Q69.03438 161.48625 67.78438 161.48625Q66.65938 161.48625 65.90938 160.81438Q65.15938 160.12688 65.05 159.06438Z" fill-rule="nonzero"/><path fill="#000000" d="M68.425 113.62334L68.425 111.56084L64.70625 111.56084L64.70625 110.59209L68.62813 105.02959L69.4875 105.02959L69.4875 110.59209L70.64375 110.59209L70.64375 111.56084L69.4875 111.56084L69.4875 113.62334L68.425 113.62334ZM68.425 110.59209L68.425 106.73271L65.7375 110.59209L68.425 110.59209Z" fill-rule="nonzero"/><path fill="#000000" d="M65.05 63.666664L66.15938 63.572914Q66.28438 64.385414 66.72188 64.791664Q67.175 65.197914 67.81563 65.197914Q68.56563 65.197914 69.09688 64.61979Q69.62813 64.041664 69.62813 63.104164Q69.62813 62.197914 69.1125 61.68229Q68.6125 61.15104 67.78438 61.15104Q67.28438 61.15104 66.8625 61.385414Q66.45625 61.61979 66.22188 61.979164L65.2375 61.854164L66.06563 57.447914L70.34688 57.447914L70.34688 58.447914L66.90938 58.447914L66.45625 60.760414Q67.22188 60.21354 68.06563 60.21354Q69.19063 60.21354 69.95625 60.99479Q70.7375 61.77604 70.7375 63.010414Q70.7375 64.166664 70.06563 65.02604Q69.2375 66.05729 67.81563 66.05729Q66.64375 66.05729 65.89375 65.40104Q65.15938 64.74479 65.05 63.666664Z" fill-rule="nonzero"/><path fill="#000000" d="M78.51875 317.45L77.47188 317.45L77.47188 310.73126Q77.08125 311.09064 76.45625 311.46564Q75.84688 311.825 75.3625 311.9969L75.3625 310.98126Q76.2375 310.5594 76.89375 309.98126Q77.56563 309.3875 77.84688 308.825L78.51875 308.825L78.51875 317.45Z" fill-rule="nonzero"/><path fill="#000000" d="M188.1481 317.45L187.10123 317.45L187.10123 310.73126Q186.7106 311.09064 186.0856 311.46564Q185.47623 311.825 184.99185 311.9969L184.99185 310.98126Q185.86685 310.5594 186.5231 309.98126Q187.19498 309.3875 187.47623 308.825L188.1481 308.825L188.1481 317.45ZM191.17935 313.21564Q191.17935 311.6844 191.49185 310.7625Q191.80435 309.825 192.41373 309.325Q193.03873 308.825 193.97623 308.825Q194.66373 308.825 195.17935 309.10626Q195.7106 309.3875 196.05435 309.91876Q196.3981 310.4344 196.5856 311.1844Q196.7731 311.9344 196.7731 313.21564Q196.7731 314.73126 196.4606 315.65314Q196.16373 316.575 195.53873 317.09064Q194.92935 317.59064 193.97623 317.59064Q192.74185 317.59064 192.0231 316.7Q191.17935 315.6375 191.17935 313.21564ZM192.25748 313.21564Q192.25748 315.325 192.75748 316.02814Q193.25748 316.73126 193.97623 316.73126Q194.7106 316.73126 195.19498 316.02814Q195.69498 315.325 195.69498 313.21564Q195.69498 311.09064 195.19498 310.40314Q194.7106 309.7 193.9606 309.7Q193.24185 309.7 192.80435 310.3094Q192.25748 311.09064 192.25748 313.21564Z" fill-rule="nonzero"/><path fill="#000000" d="M297.77747 317.45L296.7306 317.45L296.7306 310.73126Q296.33997 311.09064 295.71497 311.46564Q295.1056 311.825 294.62122 311.9969L294.62122 310.98126Q295.49622 310.5594 296.15247 309.98126Q296.82434 309.3875 297.1056 308.825L297.77747 308.825L297.77747 317.45ZM300.80872 313.21564Q300.80872 311.6844 301.12122 310.7625Q301.43372 309.825 302.0431 309.325Q302.6681 308.825 303.6056 308.825Q304.2931 308.825 304.80872 309.10626Q305.33997 309.3875 305.68372 309.91876Q306.02747 310.4344 306.21497 311.1844Q306.40247 311.9344 306.40247 313.21564Q306.40247 314.73126 306.08997 315.65314Q305.7931 316.575 305.1681 317.09064Q304.55872 317.59064 303.6056 317.59064Q302.37122 317.59064 301.65247 316.7Q300.80872 315.6375 300.80872 313.21564ZM301.88684 313.21564Q301.88684 315.325 302.38684 316.02814Q302.88684 316.73126 303.6056 316.73126Q304.33997 316.73126 304.82434 316.02814Q305.32434 315.325 305.32434 313.21564Q305.32434 311.09064 304.82434 310.40314Q304.33997 309.7 303.58997 309.7Q302.87122 309.7 302.43372 310.3094Q301.88684 311.09064 301.88684 313.21564ZM307.80872 313.21564Q307.80872 311.6844 308.12122 310.7625Q308.43372 309.825 309.0431 309.325Q309.6681 308.825 310.6056 308.825Q311.2931 308.825 311.80872 309.10626Q312.33997 309.3875 312.68372 309.91876Q313.02747 310.4344 313.21497 311.1844Q313.40247 311.9344 313.40247 313.21564Q313.40247 314.73126 313.08997 315.65314Q312.7931 316.575 312.1681 317.09064Q311.55872 317.59064 310.6056 317.59064Q309.37122 317.59064 308.65247 316.7Q307.80872 315.6375 307.80872 313.21564ZM308.88684 313.21564Q308.88684 315.325 309.38684 316.02814Q309.88684 316.73126 310.6056 316.73126Q311.33997 316.73126 311.82434 316.02814Q312.32434 315.325 312.32434 313.21564Q312.32434 311.09064 311.82434 310.40314Q311.33997 309.7 310.58997 309.7Q309.87122 309.7 309.43372 310.3094Q308.88684 311.09064 308.88684 313.21564Z" fill-rule="nonzero"/><path fill="#000000" d="M407.40683 317.45L406.35995 317.45L406.35995 310.73126Q405.96933 311.09064 405.34433 311.46564Q404.73495 311.825 404.25058 311.9969L404.25058 310.98126Q405.12558 310.5594 405.78183 309.98126Q406.4537 309.3875 406.73495 308.825L407.40683 308.825L407.40683 317.45ZM410.43808 313.21564Q410.43808 311.6844 410.75058 310.7625Q411.06308 309.825 411.67245 309.325Q412.29745 308.825 413.23495 308.825Q413.92245 308.825 414.43808 309.10626Q414.96933 309.3875 415.31308 309.91876Q415.65683 310.4344 415.84433 311.1844Q416.03183 311.9344 416.03183 313.21564Q416.03183 314.73126 415.71933 315.65314Q415.42245 316.575 414.79745 317.09064Q414.18808 317.59064 413.23495 317.59064Q412.00058 317.59064 411.28183 316.7Q410.43808 315.6375 410.43808 313.21564ZM411.5162 313.21564Q411.5162 315.325 412.0162 316.02814Q412.5162 316.73126 413.23495 316.73126Q413.96933 316.73126 414.4537 316.02814Q414.9537 315.325 414.9537 313.21564Q414.9537 311.09064 414.4537 310.40314Q413.96933 309.7 413.21933 309.7Q412.50058 309.7 412.06308 310.3094Q411.5162 311.09064 411.5162 313.21564ZM417.43808 313.21564Q417.43808 311.6844 417.75058 310.7625Q418.06308 309.825 418.67245 309.325Q419.29745 308.825 420.23495 308.825Q420.92245 308.825 421.43808 309.10626Q421.96933 309.3875 422.31308 309.91876Q422.65683 310.4344 422.84433 311.1844Q423.03183 311.9344 423.03183 313.21564Q423.03183 314.73126 422.71933 315.65314Q422.42245 316.575 421.79745 317.09064Q421.18808 317.59064 420.23495 317.59064Q419.00058 317.59064 418.28183 316.7Q417.43808 315.6375 417.43808 313.21564ZM418.5162 313.21564Q418.5162 315.325 419.0162 316.02814Q419.5162 316.73126 420.23495 316.73126Q420.96933 316.73126 421.4537 316.02814Q421.9537 315.325 421.9537 313.21564Q421.9537 311.09064 421.4537 310.40314Q420.96933 309.7 420.21933 309.7Q419.50058 309.7 419.06308 310.3094Q418.5162 311.09064 418.5162 313.21564ZM424.43808 313.21564Q424.43808 311.6844 424.75058 310.7625Q425.06308 309.825 425.67245 309.325Q426.29745 308.825 427.23495 308.825Q427.92245 308.825 428.43808 309.10626Q428.96933 309.3875 429.31308 309.91876Q429.65683 310.4344 429.84433 311.1844Q430.03183 311.9344 430.03183 313.21564Q430.03183 314.73126 429.71933 315.65314Q429.42245 316.575 428.79745 317.09064Q428.18808 317.59064 427.23495 317.59064Q426.00058 317.59064 425.28183 316.7Q424.43808 315.6375 424.43808 313.21564ZM425.5162 313.21564Q425.5162 315.325 426.0162 316.02814Q426.5162 316.73126 427.23495 316.73126Q427.96933 316.73126 428.4537 316.02814Q428.9537 315.325 428.9537 313.21564Q428.9537 311.09064 428.4537 310.40314Q427.96933 309.7 427.21933 309.7Q426.50058 309.7 426.06308 310.3094Q425.5162 311.09064 425.5162 313.21564Z" fill-rule="nonzero"/><path fill="#757575" d="M85.140625 37.55L88.9375 32.159374L85.4375 27.175L87.625 27.175L89.21875 29.6125Q89.671875 30.3 89.9375 30.76875Q90.375 30.128124 90.734375 29.628124L92.484375 27.175L94.578125 27.175L91.0 32.065624L94.859375 37.55L92.703125 37.55L90.5625 34.33125L90.0 33.45625L87.28125 37.55L85.140625 37.55ZM97.53125 29.784374Q96.4375 29.378124 95.90625 28.64375Q95.390625 27.89375 95.390625 26.8625Q95.390625 25.3 96.515625 24.2375Q97.640625 23.175 99.5 23.175Q101.375 23.175 102.515625 24.26875Q103.65625 25.346874 103.65625 26.909374Q103.65625 27.909374 103.125 28.64375Q102.609375 29.378124 101.546875 29.784374Q102.875 30.221874 103.5625 31.175Q104.25 32.128124 104.25 33.45625Q104.25 35.3 102.9375 36.55Q101.640625 37.8 99.53125 37.8Q97.40625 37.8 96.109375 36.55Q94.8125 35.284374 94.8125 33.409374Q94.8125 32.01875 95.515625 31.08125Q96.234375 30.128124 97.53125 29.784374ZM97.1875 26.8Q97.1875 27.815624 97.84375 28.471874Q98.5 29.1125 99.53125 29.1125Q100.546875 29.1125 101.203125 28.471874Q101.859375 27.83125 101.859375 26.909374Q101.859375 25.940624 101.1875 25.284374Q100.515625 24.6125 99.515625 24.6125Q98.515625 24.6125 97.84375 25.26875Q97.1875 25.909374 97.1875 26.8ZM96.625 33.425Q96.625 34.175 96.96875 34.878124Q97.328125 35.58125 98.03125 35.971874Q98.734375 36.346874 99.546875 36.346874Q100.8125 36.346874 101.625 35.534374Q102.453125 34.721874 102.453125 33.471874Q102.453125 32.20625 101.609375 31.378124Q100.765625 30.55 99.484375 30.55Q98.25 30.55 97.4375 31.378124Q96.625 32.190624 96.625 33.425ZM114.953125 26.7375L113.203125 26.878124Q112.96875 25.846874 112.546875 25.378124Q111.828125 24.6125 110.78125 24.6125Q109.9375 24.6125 109.3125 25.08125Q108.484375 25.690624 108.0 26.8625Q107.515625 28.01875 107.5 30.159374Q108.140625 29.20625 109.046875 28.7375Q109.96875 28.26875 110.984375 28.26875Q112.734375 28.26875 113.96875 29.565624Q115.203125 30.846874 115.203125 32.89375Q115.203125 34.253124 114.625 35.409374Q114.046875 36.565624 113.03125 37.190624Q112.015625 37.8 110.71875 37.8Q108.53125 37.8 107.140625 36.190624Q105.75 34.565624 105.75 30.846874Q105.75 26.70625 107.28125 24.815624Q108.625 23.175 110.890625 23.175Q112.578125 23.175 113.65625 24.128124Q114.734375 25.065624 114.953125 26.7375ZM107.78125 32.909374Q107.78125 33.815624 108.15625 34.64375Q108.546875 35.471874 109.234375 35.909374Q109.9375 36.346874 110.6875 36.346874Q111.8125 36.346874 112.609375 35.45625Q113.40625 34.55 113.40625 33.003124Q113.40625 31.51875 112.609375 30.675Q111.828125 29.815624 110.625 29.815624Q109.4375 29.815624 108.609375 30.675Q107.78125 31.51875 107.78125 32.909374ZM123.3125 37.55L123.3125 27.175L124.890625 27.175L124.890625 28.628124Q125.375 27.878124 126.1875 27.409374Q127.0 26.940624 128.03125 26.940624Q129.1875 26.940624 129.92188 27.425Q130.65625 27.89375 130.96875 28.753124Q132.20312 26.940624 134.17188 26.940624Q135.71875 26.940624 136.54688 27.8Q137.375 28.659374 137.375 30.425L137.375 37.55L135.625 37.55L135.625 31.01875Q135.625 29.95625 135.45312 29.503124Q135.28125 29.034374 134.82812 28.753124Q134.39062 28.471874 133.78125 28.471874Q132.6875 28.471874 131.95312 29.20625Q131.23438 29.925 131.23438 31.51875L131.23438 37.55L129.48438 37.55L129.48438 30.815624Q129.48438 29.64375 129.04688 29.065624Q128.625 28.471874 127.640625 28.471874Q126.90625 28.471874 126.265625 28.8625Q125.640625 29.253124 125.359375 30.003124Q125.078125 30.753124 125.078125 32.175L125.078125 37.55L123.3125 37.55ZM146.42188 34.20625L148.23438 34.440624Q147.8125 36.01875 146.64062 36.909374Q145.48438 37.784374 143.67188 37.784374Q141.40625 37.784374 140.0625 36.39375Q138.73438 34.9875 138.73438 32.45625Q138.73438 29.83125 140.07812 28.39375Q141.42188 26.940624 143.57812 26.940624Q145.65625 26.940624 146.96875 28.3625Q148.29688 29.76875 148.29688 32.346874Q148.29688 32.503124 148.28125 32.815624L140.54688 32.815624Q140.64062 34.51875 141.51562 35.425Q142.39062 36.33125 143.6875 36.33125Q144.65625 36.33125 145.32812 35.83125Q146.01562 35.315624 146.42188 34.20625ZM140.64062 31.3625L146.4375 31.3625Q146.32812 30.065624 145.78125 29.409374Q144.9375 28.39375 143.59375 28.39375Q142.39062 28.39375 141.5625 29.20625Q140.73438 30.003124 140.64062 31.3625ZM150.3125 37.55L150.3125 27.175L151.89062 27.175L151.89062 28.628124Q152.375 27.878124 153.1875 27.409374Q154.0 26.940624 155.03125 26.940624Q156.1875 26.940624 156.92188 27.425Q157.65625 27.89375 157.96875 28.753124Q159.20312 26.940624 161.17188 26.940624Q162.71875 26.940624 163.54688 27.8Q164.375 28.659374 164.375 30.425L164.375 37.55L162.625 37.55L162.625 31.01875Q162.625 29.95625 162.45312 29.503124Q162.28125 29.034374 161.82812 28.753124Q161.39062 28.471874 160.78125 28.471874Q159.6875 28.471874 158.95312 29.20625Q158.23438 29.925 158.23438 31.51875L158.23438 37.55L156.48438 37.55L156.48438 30.815624Q156.48438 29.64375 156.04688 29.065624Q155.625 28.471874 154.64062 28.471874Q153.90625 28.471874 153.26562 28.8625Q152.64062 29.253124 152.35938 30.003124Q152.07812 30.753124 152.07812 32.175L152.07812 37.55L150.3125 37.55ZM173.09375 33.753124L174.8125 33.971874Q174.53125 35.76875 173.35938 36.784374Q172.20312 37.784374 170.5 37.784374Q168.375 37.784374 167.07812 36.39375Q165.78125 35.003124 165.78125 32.409374Q165.78125 30.721874 166.32812 29.471874Q166.89062 28.20625 168.03125 27.58125Q169.17188 26.940624 170.51562 26.940624Q172.20312 26.940624 173.26562 27.8Q174.34375 28.659374 174.65625 30.221874L172.9375 30.4875Q172.70312 29.440624 172.07812 28.925Q171.45312 28.39375 170.57812 28.39375Q169.25 28.39375 168.42188 29.346874Q167.59375 30.3 167.59375 32.346874Q167.59375 34.440624 168.39062 35.39375Q169.1875 36.33125 170.48438 36.33125Q171.51562 36.33125 172.20312 35.70625Q172.90625 35.065624 173.09375 33.753124ZM176.3125 41.51875L176.3125 27.175L177.92188 27.175L177.92188 28.51875Q178.48438 27.7375 179.1875 27.346874Q179.90625 26.940624 180.92188 26.940624Q182.25 26.940624 183.26562 27.628124Q184.28125 28.315624 184.79688 29.565624Q185.32812 30.8 185.32812 32.284374Q185.32812 33.878124 184.75 35.159374Q184.1875 36.425 183.09375 37.1125Q182.0 37.784374 180.79688 37.784374Q179.92188 37.784374 179.21875 37.409374Q178.53125 37.034374 178.07812 36.471874L178.07812 41.51875L176.3125 41.51875ZM177.90625 32.425Q177.90625 34.425 178.71875 35.378124Q179.53125 36.33125 180.6875 36.33125Q181.85938 36.33125 182.6875 35.346874Q183.53125 34.3625 183.53125 32.26875Q183.53125 30.3 182.70312 29.315624Q181.89062 28.315624 180.76562 28.315624Q179.64062 28.315624 178.76562 29.378124Q177.90625 30.425 177.90625 32.425ZM187.23438 41.55L187.04688 39.89375Q187.625 40.05 188.04688 40.05Q188.64062 40.05 188.98438 39.846874Q189.34375 39.659374 189.5625 39.315624Q189.73438 39.05 190.10938 38.003124Q190.15625 37.846874 190.26562 37.565624L186.32812 27.175L188.21875 27.175L190.375 33.190624Q190.79688 34.33125 191.125 35.58125Q191.4375 34.378124 191.84375 33.221874L194.0625 27.175L195.82812 27.175L191.875 37.721874Q191.25 39.440624 190.89062 40.08125Q190.42188 40.95625 189.8125 41.346874Q189.21875 41.753124 188.375 41.753124Q187.85938 41.753124 187.23438 41.55ZM202.60938 34.45625L204.35938 34.175Q204.5 35.221874 205.17188 35.784374Q205.84375 36.33125 207.04688 36.33125Q208.25 36.33125 208.82812 35.846874Q209.42188 35.346874 209.42188 34.690624Q209.42188 34.096874 208.90625 33.753124Q208.54688 33.51875 207.10938 33.159374Q205.17188 32.659374 204.42188 32.315624Q203.6875 31.95625 203.29688 31.33125Q202.90625 30.690624 202.90625 29.925Q202.90625 29.2375 203.21875 28.64375Q203.54688 28.05 204.09375 27.659374Q204.5 27.3625 205.20312 27.159374Q205.92188 26.940624 206.73438 26.940624Q207.95312 26.940624 208.875 27.3Q209.79688 27.64375 210.23438 28.253124Q210.67188 28.846874 210.84375 29.846874L209.125 30.08125Q209.0 29.284374 208.4375 28.846874Q207.875 28.39375 206.85938 28.39375Q205.64062 28.39375 205.125 28.8Q204.60938 29.190624 204.60938 29.721874Q204.60938 30.065624 204.82812 30.346874Q205.03125 30.628124 205.5 30.815624Q205.76562 30.909374 207.04688 31.253124Q208.92188 31.753124 209.65625 32.08125Q210.39062 32.39375 210.8125 33.003124Q211.23438 33.596874 211.23438 34.503124Q211.23438 35.378124 210.71875 36.159374Q210.20312 36.940624 209.23438 37.3625Q208.26562 37.784374 207.04688 37.784374Q205.03125 37.784374 203.96875 36.940624Q202.90625 36.096874 202.60938 34.45625ZM213.3125 41.51875L213.3125 27.175L214.92188 27.175L214.92188 28.51875Q215.48438 27.7375 216.1875 27.346874Q216.90625 26.940624 217.92188 26.940624Q219.25 26.940624 220.26562 27.628124Q221.28125 28.315624 221.79688 29.565624Q222.32812 30.8 222.32812 32.284374Q222.32812 33.878124 221.75 35.159374Q221.1875 36.425 220.09375 37.1125Q219.0 37.784374 217.79688 37.784374Q216.92188 37.784374 216.21875 37.409374Q215.53125 37.034374 215.07812 36.471874L215.07812 41.51875L213.3125 41.51875ZM214.90625 32.425Q214.90625 34.425 215.71875 35.378124Q216.53125 36.33125 217.6875 36.33125Q218.85938 36.33125 219.6875 35.346874Q220.53125 34.3625 220.53125 32.26875Q220.53125 30.3 219.70312 29.315624Q218.89062 28.315624 217.76562 28.315624Q216.64062 28.315624 215.76562 29.378124Q214.90625 30.425 214.90625 32.425ZM231.42188 34.20625L233.23438 34.440624Q232.8125 36.01875 231.64062 36.909374Q230.48438 37.784374 228.67188 37.784374Q226.40625 37.784374 225.0625 36.39375Q223.73438 34.9875 223.73438 32.45625Q223.73438 29.83125 225.07812 28.39375Q226.42188 26.940624 228.57812 26.940624Q230.65625 26.940624 231.96875 28.3625Q233.29688 29.76875 233.29688 32.346874Q233.29688 32.503124 233.28125 32.815624L225.54688 32.815624Q225.64062 34.51875 226.51562 35.425Q227.39062 36.33125 228.6875 36.33125Q229.65625 36.33125 230.32812 35.83125Q231.01562 35.315624 231.42188 34.20625ZM225.64062 31.3625L231.4375 31.3625Q231.32812 30.065624 230.78125 29.409374Q229.9375 28.39375 228.59375 28.39375Q227.39062 28.39375 226.5625 29.20625Q225.73438 30.003124 225.64062 31.3625ZM242.42188 34.20625L244.23438 34.440624Q243.8125 36.01875 242.64062 36.909374Q241.48438 37.784374 239.67188 37.784374Q237.40625 37.784374 236.0625 36.39375Q234.73438 34.9875 234.73438 32.45625Q234.73438 29.83125 236.07812 28.39375Q237.42188 26.940624 239.57812 26.940624Q241.65625 26.940624 242.96875 28.3625Q244.29688 29.76875 244.29688 32.346874Q244.29688 32.503124 244.28125 32.815624L236.54688 32.815624Q236.64062 34.51875 237.51562 35.425Q238.39062 36.33125 239.6875 36.33125Q240.65625 36.33125 241.32812 35.83125Q242.01562 35.315624 242.42188 34.20625ZM236.64062 31.3625L242.4375 31.3625Q242.32812 30.065624 241.78125 29.409374Q240.9375 28.39375 239.59375 28.39375Q238.39062 28.39375 237.5625 29.20625Q236.73438 30.003124 236.64062 31.3625ZM253.04688 37.55L253.04688 36.2375Q252.0625 37.784374 250.14062 37.784374Q248.90625 37.784374 247.85938 37.096874Q246.82812 36.409374 246.25 35.190624Q245.6875 33.971874 245.6875 32.378124Q245.6875 30.815624 246.20312 29.55Q246.71875 28.284374 247.75 27.6125Q248.79688 26.940624 250.0625 26.940624Q251.0 26.940624 251.73438 27.346874Q252.46875 27.7375 252.9375 28.3625L252.9375 23.2375L254.67188 23.2375L254.67188 37.55L253.04688 37.55ZM247.48438 32.378124Q247.48438 34.3625 248.32812 35.346874Q249.17188 36.33125 250.3125 36.33125Q251.46875 36.33125 252.26562 35.39375Q253.07812 34.45625 253.07812 32.51875Q253.07812 30.39375 252.25 29.39375Q251.4375 28.39375 250.23438 28.39375Q249.0625 28.39375 248.26562 29.3625Q247.48438 30.315624 247.48438 32.378124ZM264.10938 37.55L264.10938 36.01875Q262.90625 37.784374 260.82812 37.784374Q259.90625 37.784374 259.10938 37.440624Q258.3125 37.08125 257.92188 36.55Q257.54688 36.01875 257.39062 35.2375Q257.28125 34.721874 257.28125 33.596874L257.28125 27.175L259.03125 27.175L259.03125 32.925Q259.03125 34.3 259.14062 34.784374Q259.3125 35.471874 259.84375 35.878124Q260.39062 36.26875 261.17188 36.26875Q261.96875 36.26875 262.65625 35.8625Q263.35938 35.45625 263.64062 34.76875Q263.9375 34.065624 263.9375 32.7375L263.9375 27.175L265.6875 27.175L265.6875 37.55L264.10938 37.55ZM267.3125 41.51875L267.3125 27.175L268.92188 27.175L268.92188 28.51875Q269.48438 27.7375 270.1875 27.346874Q270.90625 26.940624 271.92188 26.940624Q273.25 26.940624 274.26562 27.628124Q275.28125 28.315624 275.79688 29.565624Q276.32812 30.8 276.32812 32.284374Q276.32812 33.878124 275.75 35.159374Q275.1875 36.425 274.09375 37.1125Q273.0 37.784374 271.79688 37.784374Q270.92188 37.784374 270.21875 37.409374Q269.53125 37.034374 269.07812 36.471874L269.07812 41.51875L267.3125 41.51875ZM268.90625 32.425Q268.90625 34.425 269.71875 35.378124Q270.53125 36.33125 271.6875 36.33125Q272.85938 36.33125 273.6875 35.346874Q274.53125 34.3625 274.53125 32.26875Q274.53125 30.3 273.70312 29.315624Q272.89062 28.315624 271.76562 28.315624Q270.64062 28.315624 269.76562 29.378124Q268.90625 30.425 268.90625 32.425ZM288.64062 37.55L283.09375 23.2375L285.14062 23.2375L288.85938 33.628124Q289.3125 34.878124 289.60938 35.971874Q289.9375 34.8 290.39062 33.628124L294.25 23.2375L296.1875 23.2375L290.57812 37.55L288.64062 37.55ZM297.46875 37.55L297.46875 23.2375L299.35938 23.2375L299.35938 35.8625L306.40625 35.8625L306.40625 37.55L297.46875 37.55ZM308.57812 37.55L308.57812 23.2375L318.9375 23.2375L318.9375 24.925L310.48438 24.925L310.48438 29.3L318.39062 29.3L318.39062 30.9875L310.48438 30.9875L310.48438 35.8625L319.26562 35.8625L319.26562 37.55L308.57812 37.55ZM321.53125 37.55L321.53125 23.2375L323.46875 23.2375L330.98438 34.471874L330.98438 23.2375L332.79688 23.2375L332.79688 37.55L330.85938 37.55L323.34375 26.3L323.34375 37.55L321.53125 37.55ZM343.5625 29.128124L334.10938 29.128124L334.10938 27.4875L343.5625 27.4875L343.5625 29.128124ZM343.5625 33.471874L334.10938 33.471874L334.10938 31.83125L343.5625 31.83125L343.5625 33.471874ZM352.45312 37.55L350.6875 37.55L350.6875 26.346874Q350.0625 26.95625 349.03125 27.565624Q348.0 28.159374 347.17188 28.471874L347.17188 26.76875Q348.65625 26.08125 349.75 25.096874Q350.85938 24.096874 351.3125 23.175L352.45312 23.175L352.45312 37.55ZM366.0625 35.8625L366.0625 37.55L356.60938 37.55Q356.59375 36.909374 356.8125 36.33125Q357.17188 35.3625 357.96875 34.425Q358.76562 33.4875 360.26562 32.253124Q362.60938 30.346874 363.42188 29.2375Q364.25 28.1125 364.25 27.1125Q364.25 26.065624 363.5 25.346874Q362.75 24.628124 361.54688 24.628124Q360.28125 24.628124 359.51562 25.39375Q358.75 26.159374 358.75 27.503124L356.9375 27.315624Q357.125 25.3 358.32812 24.2375Q359.54688 23.175 361.59375 23.175Q363.64062 23.175 364.84375 24.315624Q366.04688 25.45625 366.04688 27.14375Q366.04688 28.003124 365.6875 28.846874Q365.34375 29.675 364.53125 30.596874Q363.71875 31.503124 361.82812 33.1125Q360.23438 34.440624 359.78125 34.909374Q359.34375 35.378124 359.04688 35.8625L366.0625 35.8625ZM370.53125 29.784374Q369.4375 29.378124 368.90625 28.64375Q368.39062 27.89375 368.39062 26.8625Q368.39062 25.3 369.51562 24.2375Q370.64062 23.175 372.5 23.175Q374.375 23.175 375.51562 24.26875Q376.65625 25.346874 376.65625 26.909374Q376.65625 27.909374 376.125 28.64375Q375.60938 29.378124 374.54688 29.784374Q375.875 30.221874 376.5625 31.175Q377.25 32.128124 377.25 33.45625Q377.25 35.3 375.9375 36.55Q374.64062 37.8 372.53125 37.8Q370.40625 37.8 369.10938 36.55Q367.8125 35.284374 367.8125 33.409374Q367.8125 32.01875 368.51562 31.08125Q369.23438 30.128124 370.53125 29.784374ZM370.1875 26.8Q370.1875 27.815624 370.84375 28.471874Q371.5 29.1125 372.53125 29.1125Q373.54688 29.1125 374.20312 28.471874Q374.85938 27.83125 374.85938 26.909374Q374.85938 25.940624 374.1875 25.284374Q373.51562 24.6125 372.51562 24.6125Q371.51562 24.6125 370.84375 25.26875Q370.1875 25.909374 370.1875 26.8ZM369.625 33.425Q369.625 34.175 369.96875 34.878124Q370.32812 35.58125 371.03125 35.971874Q371.73438 36.346874 372.54688 36.346874Q373.8125 36.346874 374.625 35.534374Q375.45312 34.721874 375.45312 33.471874Q375.45312 32.20625 374.60938 31.378124Q373.76562 30.55 372.48438 30.55Q371.25 30.55 370.4375 31.378124Q369.625 32.190624 369.625 33.425ZM385.46875 37.55L385.46875 23.2375L387.35938 23.2375L387.35938 35.8625L394.40625 35.8625L394.40625 37.55L385.46875 37.55ZM396.48438 37.55L396.48438 23.2375L399.34375 23.2375L402.71875 33.3625Q403.1875 34.784374 403.40625 35.4875Q403.65625 34.70625 404.17188 33.190624L407.59375 23.2375L410.14062 23.2375L410.14062 37.55L408.32812 37.55L408.32812 25.565624L404.15625 37.55L402.45312 37.55L398.3125 25.3625L398.3125 37.55L396.48438 37.55ZM422.9375 23.2375L424.82812 23.2375L424.82812 31.503124Q424.82812 33.659374 424.34375 34.940624Q423.85938 36.20625 422.57812 37.003124Q421.3125 37.8 419.23438 37.8Q417.21875 37.8 415.9375 37.1125Q414.67188 36.409374 414.125 35.096874Q413.57812 33.784374 413.57812 31.503124L413.57812 23.2375L415.46875 23.2375L415.46875 31.4875Q415.46875 33.3625 415.8125 34.253124Q416.15625 35.128124 417.0 35.6125Q417.84375 36.08125 419.07812 36.08125Q421.15625 36.08125 422.04688 35.14375Q422.9375 34.190624 422.9375 31.4875L422.9375 23.2375ZM426.46875 37.55L426.46875 23.2375L428.35938 23.2375L428.35938 35.8625L435.40625 35.8625L435.40625 37.55L426.46875 37.55ZM446.5625 29.128124L437.10938 29.128124L437.10938 27.4875L446.5625 27.4875L446.5625 29.128124ZM446.5625 33.471874L437.10938 33.471874L437.10938 31.83125L446.5625 31.83125L446.5625 33.471874ZM455.45312 37.55L453.6875 37.55L453.6875 26.346874Q453.0625 26.95625 452.03125 27.565624Q451.0 28.159374 450.17188 28.471874L450.17188 26.76875Q451.65625 26.08125 452.75 25.096874Q453.85938 24.096874 454.3125 23.175L455.45312 23.175L455.45312 37.55Z" fill-rule="nonzero"/></svg>