<svg version="1.1" viewBox="0.0 0.0 544.0 371.0" fill="none" stroke="none" stroke-linecap="square" stroke-miterlimit="10" width="544" height="371" xmlns:xlink="http://www.w3.org/1999/xlink" xmlns="http://www.w3.org/2000/svg"><path fill="#ffffff" d="M0 0L544.0 0L544.0 371.0L0 371.0L0 0Z" fill-rule="nonzero"/><path stroke="#cccccc" stroke-width="1.0" stroke-linecap="butt" d="M77.5 88.5L77.5 300.5" fill-rule="nonzero"/><path stroke="#cccccc" stroke-width="1.0" stroke-linecap="butt" d="M190.5 88.5L190.5 300.5" fill-rule="nonzero"/><path stroke="#cccccc" stroke-width="1.0" stroke-linecap="butt" d="M303.5 88.5L303.5 300.5" fill-rule="nonzero"/><path stroke="#cccccc" stroke-width="1.0" stroke-linecap="butt" d="M416.5 88.5L416.5 300.5" fill-rule="nonzero"/><path stroke="#333333" stroke-width="1.0" stroke-linecap="butt" d="M77.5 300.5L525.5 300.5" fill-rule="nonzero"/><path stroke="#cccccc" stroke-width="1.0" stroke-linecap="butt" d="M77.5 247.5L525.5 247.5" fill-rule="nonzero"/><path stroke="#cccccc" stroke-width="1.0" stroke-linecap="butt" d="M77.5 194.5L525.5 194.5" fill-rule="nonzero"/><path stroke="#cccccc" stroke-width="1.0" stroke-linecap="butt" d="M77.5 141.5L525.5 141.5" fill-rule="nonzero"/><path stroke="#cccccc" stroke-width="1.0" stroke-linecap="butt" d="M77.5 88.5L525.5 88.5" fill-rule="nonzero"/><clipPath id="id_0"><path d="M77.55 88.28333L525.45 88.28333L525.45 300.45L77.55 300.45L77.55 88.28333Z" clip-rule="nonzero"/></clipPath><path stroke="#ea4335" stroke-width="2.0" stroke-linecap="butt" clip-path="url(#id_0)" d="M77.55 268.6787L111.60533 260.62894L131.52641 256.1234L145.66066 227.32695L156.62402 236.79317L165.58176 233.89655L173.1554 247.52809L179.71599 171.73805L185.50284 196.87898L190.67935 200.41113L195.36209 225.91821L199.63708 173.306L203.5697 205.40028L207.21072 206.03764L210.60045 212.97731L213.77132 135.91869L216.7499 137.65108L219.55817 138.69534L222.21457 137.55748L224.73468 137.55748L227.13182 136.2209L229.41742 137.26888L231.6014 138.06805L233.69241 134.8139L235.69806 137.42488L237.62503 133.0125L239.47926 137.8149L241.26605 135.3875L242.99014 133.74762L244.65578 134.59584L246.26678 130.43959L247.82664 181.10625L249.3385 183.0812L250.80522 184.17448L252.22943 181.3023L262.34323 183.47917L268.7608 185.80264L269.7534 179.6649L270.72632 185.25014L271.68036 183.47917L272.6162 183.2L277.88535 184.59584L278.71112 187.33052L279.52322 182.51694L280.3221 179.95317L281.10825 182.2348L281.882 186.16435L282.6437 189.0625L283.39383 182.51694L284.13266 178.45416L292.22733 179.69557L315.55197 185.52638L315.93732 183.64548L316.31964 181.95265L316.69907 189.4955L317.07553 184.42136L317.44916 183.64548L317.81998 178.45416L337.1215 193.85664L349.99265 176.09676L354.57056 181.95265L384.04797 173.87329L392.89362 183.0812L418.1033 173.3967L439.38092 186.63142L452.15863 137.42488L469.198 128.89336L486.21396 137.42488L496.80164 113.03611L520.2693 146.48183L525.45 145.00845" fill-rule="nonzero"/><path fill="#000000" fill-opacity="0.0" clip-path="url(#id_0)" d="M80.55 268.6787C80.55 270.33557 79.206856 271.6787 77.55 271.6787C75.89314 271.6787 74.55 270.33557 74.55 268.6787C74.55 267.02185 75.89314 265.6787 77.55 265.6787C79.206856 265.6787 80.55 267.02185 80.55 268.6787Z" fill-rule="nonzero"/><path fill="#000000" fill-opacity="0.0" clip-path="url(#id_0)" d="M114.60533 260.62894C114.60533 262.2858 113.262184 263.62894 111.60533 263.62894C109.94848 263.62894 108.60533 262.2858 108.60533 260.62894C108.60533 258.97208 109.94848 257.62894 111.60533 257.62894C113.262184 257.62894 114.60533 258.97208 114.60533 260.62894Z" fill-rule="nonzero"/><path fill="#000000" fill-opacity="0.0" clip-path="url(#id_0)" d="M134.52641 256.1234C134.52641 257.78027 133.18327 259.1234 131.52641 259.1234C129.86957 259.1234 128.52641 257.78027 128.52641 256.1234C128.52641 254.46657 129.86957 253.12341 131.52641 253.12341C133.18327 253.12341 134.52641 254.46657 134.52641 256.1234Z" fill-rule="nonzero"/><path fill="#000000" fill-opacity="0.0" clip-path="url(#id_0)" d="M148.66066 227.32695C148.66066 228.98381 147.31752 230.32695 145.66066 230.32695C144.0038 230.32695 142.66066 228.98381 142.66066 227.32695C142.66066 225.6701 144.0038 224.32695 145.66066 224.32695C147.31752 224.32695 148.66066 225.6701 148.66066 227.32695Z" fill-rule="nonzero"/><path fill="#000000" fill-opacity="0.0" clip-path="url(#id_0)" d="M159.62402 236.79317C159.62402 238.45003 158.28088 239.79317 156.62402 239.79317C154.96718 239.79317 153.62402 238.45003 153.62402 236.79317C153.62402 235.13632 154.96718 233.79317 156.62402 233.79317C158.28088 233.79317 159.62402 235.13632 159.62402 236.79317Z" fill-rule="nonzero"/><path fill="#000000" fill-opacity="0.0" clip-path="url(#id_0)" d="M168.58176 233.89655C168.58176 235.5534 167.2386 236.89655 165.58176 236.89655C163.9249 236.89655 162.58176 235.5534 162.58176 233.89655C162.58176 232.2397 163.9249 230.89655 165.58176 230.89655C167.2386 230.89655 168.58176 232.2397 168.58176 233.89655Z" fill-rule="nonzero"/><path fill="#000000" fill-opacity="0.0" clip-path="url(#id_0)" d="M176.1554 247.52809C176.1554 249.18495 174.81226 250.52809 173.1554 250.52809C171.49855 250.52809 170.1554 249.18495 170.1554 247.52809C170.1554 245.87123 171.49855 244.52809 173.1554 244.52809C174.81226 244.52809 176.1554 245.87123 176.1554 247.52809Z" fill-rule="nonzero"/><path fill="#000000" fill-opacity="0.0" clip-path="url(#id_0)" d="M182.71599 171.73805C182.71599 173.3949 181.37285 174.73805 179.71599 174.73805C178.05913 174.73805 176.71599 173.3949 176.71599 171.73805C176.71599 170.08119 178.05913 168.73805 179.71599 168.73805C181.37285 168.73805 182.71599 170.08119 182.71599 171.73805Z" fill-rule="nonzero"/><path fill="#000000" fill-opacity="0.0" clip-path="url(#id_0)" d="M188.50284 196.87898C188.50284 198.53584 187.1597 199.87898 185.50284 199.87898C183.846 199.87898 182.50284 198.53584 182.50284 196.87898C182.50284 195.22214 183.846 193.87898 185.50284 193.87898C187.1597 193.87898 188.50284 195.22214 188.50284 196.87898Z" fill-rule="nonzero"/><path fill="#000000" fill-opacity="0.0" clip-path="url(#id_0)" d="M193.67935 200.41113C193.67935 202.06798 192.33621 203.41113 190.67935 203.41113C189.0225 203.41113 187.67935 202.06798 187.67935 200.41113C187.67935 198.75427 189.0225 197.41113 190.67935 197.41113C192.33621 197.41113 193.67935 198.75427 193.67935 200.41113Z" fill-rule="nonzero"/><path fill="#000000" fill-opacity="0.0" clip-path="url(#id_0)" d="M198.36209 225.91821C198.36209 227.57507 197.01894 228.91821 195.36209 228.91821C193.70523 228.91821 192.36209 227.57507 192.36209 225.91821C192.36209 224.26135 193.70523 222.91821 195.36209 222.91821C197.01894 222.91821 198.36209 224.26135 198.36209 225.91821Z" fill-rule="nonzero"/><path fill="#000000" fill-opacity="0.0" clip-path="url(#id_0)" d="M202.63708 173.306C202.63708 174.96286 201.29393 176.306 199.63708 176.306C197.98022 176.306 196.63708 174.96286 196.63708 173.306C196.63708 171.64915 197.98022 170.306 199.63708 170.306C201.29393 170.306 202.63708 171.64915 202.63708 173.306Z" fill-rule="nonzero"/><path fill="#000000" fill-opacity="0.0" clip-path="url(#id_0)" d="M206.5697 205.40028C206.5697 207.05714 205.22655 208.40028 203.5697 208.40028C201.91284 208.40028 200.5697 207.05714 200.5697 205.40028C200.5697 203.74344 201.91284 202.40028 203.5697 202.40028C205.22655 202.40028 206.5697 203.74344 206.5697 205.40028Z" fill-rule="nonzero"/><path fill="#000000" fill-opacity="0.0" clip-path="url(#id_0)" d="M210.21072 206.03764C210.21072 207.6945 208.86758 209.03764 207.21072 209.03764C205.55388 209.03764 204.21072 207.6945 204.21072 206.03764C204.21072 204.3808 205.55388 203.03764 207.21072 203.03764C208.86758 203.03764 210.21072 204.3808 210.21072 206.03764Z" fill-rule="nonzero"/><path fill="#000000" fill-opacity="0.0" clip-path="url(#id_0)" d="M213.60045 212.97731C213.60045 214.63417 212.25731 215.97731 210.60045 215.97731C208.94359 215.97731 207.60045 214.63417 207.60045 212.97731C207.60045 211.32045 208.94359 209.97731 210.60045 209.97731C212.25731 209.97731 213.60045 211.32045 213.60045 212.97731Z" fill-rule="nonzero"/><path fill="#000000" fill-opacity="0.0" clip-path="url(#id_0)" d="M216.77132 135.91869C216.77132 137.57553 215.42818 138.91869 213.77132 138.91869C212.11447 138.91869 210.77132 137.57553 210.77132 135.91869C210.77132 134.26183 212.11447 132.91869 213.77132 132.91869C215.42818 132.91869 216.77132 134.26183 216.77132 135.91869Z" fill-rule="nonzero"/><path fill="#000000" fill-opacity="0.0" clip-path="url(#id_0)" d="M219.7499 137.65108C219.7499 139.30794 218.40675 140.65108 216.7499 140.65108C215.09305 140.65108 213.7499 139.30794 213.7499 137.65108C213.7499 135.99423 215.09305 134.65108 216.7499 134.65108C218.40675 134.65108 219.7499 135.99423 219.7499 137.65108Z" fill-rule="nonzero"/><path fill="#000000" fill-opacity="0.0" clip-path="url(#id_0)" d="M222.55817 138.69534C222.55817 140.3522 221.21503 141.69534 219.55817 141.69534C217.90132 141.69534 216.55817 140.3522 216.55817 138.69534C216.55817 137.0385 217.90132 135.69534 219.55817 135.69534C221.21503 135.69534 222.55817 137.0385 222.55817 138.69534Z" fill-rule="nonzero"/><path fill="#000000" fill-opacity="0.0" clip-path="url(#id_0)" d="M225.21457 137.55748C225.21457 139.21434 223.87143 140.55748 222.21457 140.55748C220.55772 140.55748 219.21457 139.21434 219.21457 137.55748C219.21457 135.90063 220.55772 134.55748 222.21457 134.55748C223.87143 134.55748 225.21457 135.90063 225.21457 137.55748Z" fill-rule="nonzero"/><path fill="#000000" fill-opacity="0.0" clip-path="url(#id_0)" d="M227.73468 137.55748C227.73468 139.21434 226.39154 140.55748 224.73468 140.55748C223.07784 140.55748 221.73468 139.21434 221.73468 137.55748C221.73468 135.90063 223.07784 134.55748 224.73468 134.55748C226.39154 134.55748 227.73468 135.90063 227.73468 137.55748Z" fill-rule="nonzero"/><path fill="#000000" fill-opacity="0.0" clip-path="url(#id_0)" d="M230.13182 136.2209C230.13182 137.87776 228.78867 139.2209 227.13182 139.2209C225.47496 139.2209 224.13182 137.87776 224.13182 136.2209C224.13182 134.56404 225.47496 133.2209 227.13182 133.2209C228.78867 133.2209 230.13182 134.56404 230.13182 136.2209Z" fill-rule="nonzero"/><path fill="#000000" fill-opacity="0.0" clip-path="url(#id_0)" d="M232.41742 137.26888C232.41742 138.92572 231.07426 140.26888 229.41742 140.26888C227.76056 140.26888 226.41742 138.92572 226.41742 137.26888C226.41742 135.61201 227.76056 134.26888 229.41742 134.26888C231.07426 134.26888 232.41742 135.61201 232.41742 137.26888Z" fill-rule="nonzero"/><path fill="#000000" fill-opacity="0.0" clip-path="url(#id_0)" d="M234.6014 138.06805C234.6014 139.72491 233.25826 141.06805 231.6014 141.06805C229.94453 141.06805 228.6014 139.72491 228.6014 138.06805C228.6014 136.4112 229.94453 135.06805 231.6014 135.06805C233.25826 135.06805 234.6014 136.4112 234.6014 138.06805Z" fill-rule="nonzero"/><path fill="#000000" fill-opacity="0.0" clip-path="url(#id_0)" d="M236.69241 134.8139C236.69241 136.47075 235.34926 137.8139 233.69241 137.8139C232.03555 137.8139 230.69241 136.47075 230.69241 134.8139C230.69241 133.15704 232.03555 131.8139 233.69241 131.8139C235.34926 131.8139 236.69241 133.15704 236.69241 134.8139Z" fill-rule="nonzero"/><path fill="#000000" fill-opacity="0.0" clip-path="url(#id_0)" d="M238.69806 137.42488C238.69806 139.08173 237.3549 140.42488 235.69806 140.42488C234.0412 140.42488 232.69806 139.08173 232.69806 137.42488C232.69806 135.76802 234.0412 134.42488 235.69806 134.42488C237.3549 134.42488 238.69806 135.76802 238.69806 137.42488Z" fill-rule="nonzero"/><path fill="#000000" fill-opacity="0.0" clip-path="url(#id_0)" d="M240.62503 133.0125C240.62503 134.66936 239.28188 136.0125 237.62503 136.0125C235.96817 136.0125 234.62503 134.66936 234.62503 133.0125C234.62503 131.35565 235.96817 130.0125 237.62503 130.0125C239.28188 130.0125 240.62503 131.35565 240.62503 133.0125Z" fill-rule="nonzero"/><path fill="#000000" fill-opacity="0.0" clip-path="url(#id_0)" d="M242.47926 137.8149C242.47926 139.47174 241.13611 140.8149 239.47926 140.8149C237.8224 140.8149 236.47926 139.47174 236.47926 137.8149C236.47926 136.15804 237.8224 134.8149 239.47926 134.8149C241.13611 134.8149 242.47926 136.15804 242.47926 137.8149Z" fill-rule="nonzero"/><path fill="#000000" fill-opacity="0.0" clip-path="url(#id_0)" d="M244.26605 135.3875C244.26605 137.04436 242.92291 138.3875 241.26605 138.3875C239.6092 138.3875 238.26605 137.04436 238.26605 135.3875C238.26605 133.73065 239.6092 132.3875 241.26605 132.3875C242.92291 132.3875 244.26605 133.73065 244.26605 135.3875Z" fill-rule="nonzero"/><path fill="#000000" fill-opacity="0.0" clip-path="url(#id_0)" d="M245.99014 133.74762C245.99014 135.40448 244.647 136.74762 242.99014 136.74762C241.3333 136.74762 239.99014 135.40448 239.99014 133.74762C239.99014 132.09076 241.3333 130.74762 242.99014 130.74762C244.647 130.74762 245.99014 132.09076 245.99014 133.74762Z" fill-rule="nonzero"/><path fill="#000000" fill-opacity="0.0" clip-path="url(#id_0)" d="M247.65578 134.59584C247.65578 136.25269 246.31264 137.59584 244.65578 137.59584C242.99892 137.59584 241.65578 136.25269 241.65578 134.59584C241.65578 132.93898 242.99892 131.59584 244.65578 131.59584C246.31264 131.59584 247.65578 132.93898 247.65578 134.59584Z" fill-rule="nonzero"/><path fill="#000000" fill-opacity="0.0" clip-path="url(#id_0)" d="M249.26678 130.43959C249.26678 132.09644 247.92365 133.43959 246.26678 133.43959C244.60994 133.43959 243.26678 132.09644 243.26678 130.43959C243.26678 128.78273 244.60994 127.43958 246.26678 127.43958C247.92365 127.43958 249.26678 128.78273 249.26678 130.43959Z" fill-rule="nonzero"/><path fill="#000000" fill-opacity="0.0" clip-path="url(#id_0)" d="M250.82664 181.10625C250.82664 182.7631 249.4835 184.10625 247.82664 184.10625C246.1698 184.10625 244.82664 182.7631 244.82664 181.10625C244.82664 179.4494 246.1698 178.10625 247.82664 178.10625C249.4835 178.10625 250.82664 179.4494 250.82664 181.10625Z" fill-rule="nonzero"/><path fill="#000000" fill-opacity="0.0" clip-path="url(#id_0)" d="M252.3385 183.0812C252.3385 184.73805 250.99536 186.0812 249.3385 186.0812C247.68166 186.0812 246.3385 184.73805 246.3385 183.0812C246.3385 181.42435 247.68166 180.0812 249.3385 180.0812C250.99536 180.0812 252.3385 181.42435 252.3385 183.0812Z" fill-rule="nonzero"/><path fill="#000000" fill-opacity="0.0" clip-path="url(#id_0)" d="M253.80522 184.17448C253.80522 185.83133 252.46208 187.17448 250.80522 187.17448C249.14838 187.17448 247.80522 185.83133 247.80522 184.17448C247.80522 182.51762 249.14838 181.17448 250.80522 181.17448C252.46208 181.17448 253.80522 182.51762 253.80522 184.17448Z" fill-rule="nonzero"/><path fill="#000000" fill-opacity="0.0" clip-path="url(#id_0)" d="M255.22943 181.3023C255.22943 182.95915 253.88628 184.3023 252.22943 184.3023C250.57257 184.3023 249.22943 182.95915 249.22943 181.3023C249.22943 179.64545 250.57257 178.3023 252.22943 178.3023C253.88628 178.3023 255.22943 179.64545 255.22943 181.3023Z" fill-rule="nonzero"/><path fill="#000000" fill-opacity="0.0" clip-path="url(#id_0)" d="M265.34323 183.47917C265.34323 185.13602 264.0001 186.47917 262.34323 186.47917C260.68637 186.47917 259.34323 185.13602 259.34323 183.47917C259.34323 181.82231 260.68637 180.47917 262.34323 180.47917C264.0001 180.47917 265.34323 181.82231 265.34323 183.47917Z" fill-rule="nonzero"/><path fill="#000000" fill-opacity="0.0" clip-path="url(#id_0)" d="M271.7608 185.80264C271.7608 187.4595 270.41766 188.80264 268.7608 188.80264C267.10394 188.80264 265.7608 187.4595 265.7608 185.80264C265.7608 184.1458 267.10394 182.80264 268.7608 182.80264C270.41766 182.80264 271.7608 184.1458 271.7608 185.80264Z" fill-rule="nonzero"/><path fill="#000000" fill-opacity="0.0" clip-path="url(#id_0)" d="M272.7534 179.6649C272.7534 181.32176 271.41025 182.6649 269.7534 182.6649C268.09653 182.6649 266.7534 181.32176 266.7534 179.6649C266.7534 178.00804 268.09653 176.6649 269.7534 176.6649C271.41025 176.6649 272.7534 178.00804 272.7534 179.6649Z" fill-rule="nonzero"/><path fill="#000000" fill-opacity="0.0" clip-path="url(#id_0)" d="M273.72632 185.25014C273.72632 186.90698 272.38318 188.25014 270.72632 188.25014C269.06946 188.25014 267.72632 186.90698 267.72632 185.25014C267.72632 183.59328 269.06946 182.25014 270.72632 182.25014C272.38318 182.25014 273.72632 183.59328 273.72632 185.25014Z" fill-rule="nonzero"/><path fill="#000000" fill-opacity="0.0" clip-path="url(#id_0)" d="M274.68036 183.47917C274.68036 185.13602 273.33722 186.47917 271.68036 186.47917C270.0235 186.47917 268.68036 185.13602 268.68036 183.47917C268.68036 181.82231 270.0235 180.47917 271.68036 180.47917C273.33722 180.47917 274.68036 181.82231 274.68036 183.47917Z" fill-rule="nonzero"/><path fill="#000000" fill-opacity="0.0" clip-path="url(#id_0)" d="M275.6162 183.2C275.6162 184.85686 274.27307 186.2 272.6162 186.2C270.95935 186.2 269.6162 184.85686 269.6162 183.2C269.6162 181.54315 270.95935 180.2 272.6162 180.2C274.27307 180.2 275.6162 181.54315 275.6162 183.2Z" fill-rule="nonzero"/><path fill="#000000" fill-opacity="0.0" clip-path="url(#id_0)" d="M280.88535 184.59584C280.88535 186.25269 279.5422 187.59584 277.88535 187.59584C276.2285 187.59584 274.88535 186.25269 274.88535 184.59584C274.88535 182.93898 276.2285 181.59584 277.88535 181.59584C279.5422 181.59584 280.88535 182.93898 280.88535 184.59584Z" fill-rule="nonzero"/><path fill="#000000" fill-opacity="0.0" clip-path="url(#id_0)" d="M281.71112 187.33052C281.71112 188.98738 280.36795 190.33052 278.71112 190.33052C277.05426 190.33052 275.71112 188.98738 275.71112 187.33052C275.71112 185.67368 277.05426 184.33052 278.71112 184.33052C280.36795 184.33052 281.71112 185.67368 281.71112 187.33052Z" fill-rule="nonzero"/><path fill="#000000" fill-opacity="0.0" clip-path="url(#id_0)" d="M282.52322 182.51694C282.52322 184.17378 281.18008 185.51694 279.52322 185.51694C277.86636 185.51694 276.52322 184.17378 276.52322 182.51694C276.52322 180.86008 277.86636 179.51694 279.52322 179.51694C281.18008 179.51694 282.52322 180.86008 282.52322 182.51694Z" fill-rule="nonzero"/><path fill="#000000" fill-opacity="0.0" clip-path="url(#id_0)" d="M283.3221 179.95317C283.3221 181.61003 281.97897 182.95317 280.3221 182.95317C278.66525 182.95317 277.3221 181.61003 277.3221 179.95317C277.3221 178.29631 278.66525 176.95317 280.3221 176.95317C281.97897 176.95317 283.3221 178.29631 283.3221 179.95317Z" fill-rule="nonzero"/><path fill="#000000" fill-opacity="0.0" clip-path="url(#id_0)" d="M284.10825 182.2348C284.10825 183.89165 282.7651 185.2348 281.10825 185.2348C279.4514 185.2348 278.10825 183.89165 278.10825 182.2348C278.10825 180.57794 279.4514 179.2348 281.10825 179.2348C282.7651 179.2348 284.10825 180.57794 284.10825 182.2348Z" fill-rule="nonzero"/><path fill="#000000" fill-opacity="0.0" clip-path="url(#id_0)" d="M284.882 186.16435C284.882 187.8212 283.53882 189.16435 281.882 189.16435C280.22513 189.16435 278.882 187.8212 278.882 186.16435C278.882 184.50749 280.22513 183.16435 281.882 183.16435C283.53882 183.16435 284.882 184.50749 284.882 186.16435Z" fill-rule="nonzero"/><path fill="#000000" fill-opacity="0.0" clip-path="url(#id_0)" d="M285.6437 189.0625C285.6437 190.71936 284.30057 192.0625 282.6437 192.0625C280.98688 192.0625 279.6437 190.71936 279.6437 189.0625C279.6437 187.40564 280.98688 186.0625 282.6437 186.0625C284.30057 186.0625 285.6437 187.40564 285.6437 189.0625Z" fill-rule="nonzero"/><path fill="#000000" fill-opacity="0.0" clip-path="url(#id_0)" d="M286.39383 182.51694C286.39383 184.17378 285.0507 185.51694 283.39383 185.51694C281.73697 185.51694 280.39383 184.17378 280.39383 182.51694C280.39383 180.86008 281.73697 179.51694 283.39383 179.51694C285.0507 179.51694 286.39383 180.86008 286.39383 182.51694Z" fill-rule="nonzero"/><path fill="#000000" fill-opacity="0.0" clip-path="url(#id_0)" d="M287.13266 178.45416C287.13266 180.11102 285.78952 181.45416 284.13266 181.45416C282.4758 181.45416 281.13266 180.11102 281.13266 178.45416C281.13266 176.79732 282.4758 175.45416 284.13266 175.45416C285.78952 175.45416 287.13266 176.79732 287.13266 178.45416Z" fill-rule="nonzero"/><path fill="#000000" fill-opacity="0.0" clip-path="url(#id_0)" d="M295.22733 179.69557C295.22733 181.35242 293.8842 182.69557 292.22733 182.69557C290.57047 182.69557 289.22733 181.35242 289.22733 179.69557C289.22733 178.03871 290.57047 176.69557 292.22733 176.69557C293.8842 176.69557 295.22733 178.03871 295.22733 179.69557Z" fill-rule="nonzero"/><path fill="#000000" fill-opacity="0.0" clip-path="url(#id_0)" d="M318.55197 185.52638C318.55197 187.18324 317.2088 188.52638 315.55197 188.52638C313.8951 188.52638 312.55197 187.18324 312.55197 185.52638C312.55197 183.86954 313.8951 182.52638 315.55197 182.52638C317.2088 182.52638 318.55197 183.86954 318.55197 185.52638Z" fill-rule="nonzero"/><path fill="#000000" fill-opacity="0.0" clip-path="url(#id_0)" d="M318.93732 183.64548C318.93732 185.30234 317.59418 186.64548 315.93732 186.64548C314.28046 186.64548 312.93732 185.30234 312.93732 183.64548C312.93732 181.98862 314.28046 180.64548 315.93732 180.64548C317.59418 180.64548 318.93732 181.98862 318.93732 183.64548Z" fill-rule="nonzero"/><path fill="#000000" fill-opacity="0.0" clip-path="url(#id_0)" d="M319.31964 181.95265C319.31964 183.60951 317.9765 184.95265 316.31964 184.95265C314.6628 184.95265 313.31964 183.60951 313.31964 181.95265C313.31964 180.2958 314.6628 178.95265 316.31964 178.95265C317.9765 178.95265 319.31964 180.2958 319.31964 181.95265Z" fill-rule="nonzero"/><path fill="#000000" fill-opacity="0.0" clip-path="url(#id_0)" d="M319.69907 189.4955C319.69907 191.15234 318.3559 192.4955 316.69907 192.4955C315.0422 192.4955 313.69907 191.15234 313.69907 189.4955C313.69907 187.83864 315.0422 186.4955 316.69907 186.4955C318.3559 186.4955 319.69907 187.83864 319.69907 189.4955Z" fill-rule="nonzero"/><path fill="#000000" fill-opacity="0.0" clip-path="url(#id_0)" d="M320.07553 184.42136C320.07553 186.0782 318.7324 187.42136 317.07553 187.42136C315.41867 187.42136 314.07553 186.0782 314.07553 184.42136C314.07553 182.7645 315.41867 181.42136 317.07553 181.42136C318.7324 181.42136 320.07553 182.7645 320.07553 184.42136Z" fill-rule="nonzero"/><path fill="#000000" fill-opacity="0.0" clip-path="url(#id_0)" d="M320.44916 183.64548C320.44916 185.30234 319.10602 186.64548 317.44916 186.64548C315.7923 186.64548 314.44916 185.30234 314.44916 183.64548C314.44916 181.98862 315.7923 180.64548 317.44916 180.64548C319.10602 180.64548 320.44916 181.98862 320.44916 183.64548Z" fill-rule="nonzero"/><path fill="#000000" fill-opacity="0.0" clip-path="url(#id_0)" d="M320.81998 178.45416C320.81998 180.11102 319.47684 181.45416 317.81998 181.45416C316.16312 181.45416 314.81998 180.11102 314.81998 178.45416C314.81998 176.79732 316.16312 175.45416 317.81998 175.45416C319.47684 175.45416 320.81998 176.79732 320.81998 178.45416Z" fill-rule="nonzero"/><path fill="#000000" fill-opacity="0.0" clip-path="url(#id_0)" d="M340.1215 193.85664C340.1215 195.5135 338.77835 196.85664 337.1215 196.85664C335.46463 196.85664 334.1215 195.5135 334.1215 193.85664C334.1215 192.1998 335.46463 190.85664 337.1215 190.85664C338.77835 190.85664 340.1215 192.1998 340.1215 193.85664Z" fill-rule="nonzero"/><path fill="#000000" fill-opacity="0.0" clip-path="url(#id_0)" d="M352.99265 176.09676C352.99265 177.75362 351.6495 179.09676 349.99265 179.09676C348.3358 179.09676 346.99265 177.75362 346.99265 176.09676C346.99265 174.43991 348.3358 173.09676 349.99265 173.09676C351.6495 173.09676 352.99265 174.43991 352.99265 176.09676Z" fill-rule="nonzero"/><path fill="#000000" fill-opacity="0.0" clip-path="url(#id_0)" d="M357.57056 181.95265C357.57056 183.60951 356.22742 184.95265 354.57056 184.95265C352.91373 184.95265 351.57056 183.60951 351.57056 181.95265C351.57056 180.2958 352.91373 178.95265 354.57056 178.95265C356.22742 178.95265 357.57056 180.2958 357.57056 181.95265Z" fill-rule="nonzero"/><path fill="#000000" fill-opacity="0.0" clip-path="url(#id_0)" d="M387.04797 173.87329C387.04797 175.53015 385.70483 176.87329 384.04797 176.87329C382.3911 176.87329 381.04797 175.53015 381.04797 173.87329C381.04797 172.21645 382.3911 170.87329 384.04797 170.87329C385.70483 170.87329 387.04797 172.21645 387.04797 173.87329Z" fill-rule="nonzero"/><path fill="#000000" fill-opacity="0.0" clip-path="url(#id_0)" d="M395.89362 183.0812C395.89362 184.73805 394.55048 186.0812 392.89362 186.0812C391.23676 186.0812 389.89362 184.73805 389.89362 183.0812C389.89362 181.42435 391.23676 180.0812 392.89362 180.0812C394.55048 180.0812 395.89362 181.42435 395.89362 183.0812Z" fill-rule="nonzero"/><path fill="#000000" fill-opacity="0.0" clip-path="url(#id_0)" d="M421.1033 173.3967C421.1033 175.05356 419.76016 176.3967 418.1033 176.3967C416.44644 176.3967 415.1033 175.05356 415.1033 173.3967C415.1033 171.73985 416.44644 170.3967 418.1033 170.3967C419.76016 170.3967 421.1033 171.73985 421.1033 173.3967Z" fill-rule="nonzero"/><path fill="#000000" fill-opacity="0.0" clip-path="url(#id_0)" d="M442.38092 186.63142C442.38092 188.28828 441.03778 189.63142 439.38092 189.63142C437.72406 189.63142 436.38092 188.28828 436.38092 186.63142C436.38092 184.97456 437.72406 183.63142 439.38092 183.63142C441.03778 183.63142 442.38092 184.97456 442.38092 186.63142Z" fill-rule="nonzero"/><path fill="#000000" fill-opacity="0.0" clip-path="url(#id_0)" d="M455.15863 137.42488C455.15863 139.08173 453.8155 140.42488 452.15863 140.42488C450.50177 140.42488 449.15863 139.08173 449.15863 137.42488C449.15863 135.76802 450.50177 134.42488 452.15863 134.42488C453.8155 134.42488 455.15863 135.76802 455.15863 137.42488Z" fill-rule="nonzero"/><path fill="#000000" fill-opacity="0.0" clip-path="url(#id_0)" d="M472.198 128.89336C472.198 130.55022 470.85486 131.89336 469.198 131.89336C467.54114 131.89336 466.198 130.55022 466.198 128.89336C466.198 127.2365 467.54114 125.89336 469.198 125.89336C470.85486 125.89336 472.198 127.2365 472.198 128.89336Z" fill-rule="nonzero"/><path fill="#000000" fill-opacity="0.0" clip-path="url(#id_0)" d="M489.21396 137.42488C489.21396 139.08173 487.87082 140.42488 486.21396 140.42488C484.5571 140.42488 483.21396 139.08173 483.21396 137.42488C483.21396 135.76802 484.5571 134.42488 486.21396 134.42488C487.87082 134.42488 489.21396 135.76802 489.21396 137.42488Z" fill-rule="nonzero"/><path fill="#000000" fill-opacity="0.0" clip-path="url(#id_0)" d="M499.80164 113.03611C499.80164 114.69296 498.4585 116.03611 496.80164 116.03611C495.1448 116.03611 493.80164 114.69296 493.80164 113.03611C493.80164 111.37926 495.1448 110.03611 496.80164 110.03611C498.4585 110.03611 499.80164 111.37926 499.80164 113.03611Z" fill-rule="nonzero"/><path fill="#000000" fill-opacity="0.0" clip-path="url(#id_0)" d="M523.2693 146.48183C523.2693 148.13869 521.92615 149.48183 520.2693 149.48183C518.6124 149.48183 517.2693 148.13869 517.2693 146.48183C517.2693 144.82498 518.6124 143.48183 520.2693 143.48183C521.92615 143.48183 523.2693 144.82498 523.2693 146.48183Z" fill-rule="nonzero"/><path fill="#000000" fill-opacity="0.0" clip-path="url(#id_0)" d="M528.45 145.00845C528.45 146.6653 527.1069 148.00845 525.45 148.00845C523.79315 148.00845 522.45 146.6653 522.45 145.00845C522.45 143.3516 523.79315 142.00845 525.45 142.00845C527.1069 142.00845 528.45 143.3516 528.45 145.00845Z" fill-rule="nonzero"/><path fill="#000000" d="M270.54688 346.6844L271.60938 346.59064Q271.6875 347.2469 271.96875 347.65314Q272.25 348.0594 272.82812 348.325Q273.42188 348.575 274.15625 348.575Q274.79688 348.575 275.29688 348.3875Q275.79688 348.1844 276.03125 347.85626Q276.28125 347.5125 276.28125 347.1219Q276.28125 346.71564 276.04688 346.41876Q275.8125 346.10626 275.28125 345.90314Q274.92188 345.7625 273.73438 345.48126Q272.5625 345.2 272.09375 344.95Q271.46875 344.6219 271.17188 344.15314Q270.875 343.66876 270.875 343.075Q270.875 342.4344 271.23438 341.8719Q271.60938 341.29376 272.3125 341.0125Q273.03125 340.71564 273.89062 340.71564Q274.84375 340.71564 275.57812 341.02814Q276.3125 341.325 276.70312 341.9344Q277.09375 342.52814 277.125 343.27814L276.03125 343.35626Q275.9375 342.54376 275.42188 342.1375Q274.92188 341.71564 273.9375 341.71564Q272.90625 341.71564 272.4375 342.09064Q271.96875 342.46564 271.96875 342.9969Q271.96875 343.46564 272.29688 343.7625Q272.625 344.0594 274.0 344.3719Q275.39062 344.6844 275.90625 344.91876Q276.65625 345.27814 277.01562 345.8094Q277.375 346.325 277.375 347.02814Q277.375 347.71564 276.98438 348.325Q276.59375 348.91876 275.85938 349.2625Q275.125 349.59064 274.20312 349.59064Q273.03125 349.59064 272.23438 349.2625Q271.45312 348.91876 271.0 348.23126Q270.5625 347.54376 270.54688 346.6844ZM278.79688 342.075L278.79688 340.85626L279.85938 340.85626L279.85938 342.075L278.79688 342.075ZM278.79688 349.45L278.79688 343.23126L279.85938 343.23126L279.85938 349.45L278.79688 349.45ZM281.23438 349.45L281.23438 348.59064L285.20312 344.04376Q284.51562 344.075 284.0 344.075L281.46875 344.075L281.46875 343.23126L286.5625 343.23126L286.5625 343.91876L283.1875 347.8719L282.53125 348.59064Q283.25 348.54376 283.85938 348.54376L286.75 348.54376L286.75 349.45L281.23438 349.45ZM291.04688 347.45L292.14062 347.575Q291.89062 348.52814 291.1875 349.0594Q290.48438 349.59064 289.40625 349.59064Q288.04688 349.59064 287.23438 348.7469Q286.4375 347.90314 286.4375 346.3875Q286.4375 344.825 287.25 343.96564Q288.0625 343.09064 289.34375 343.09064Q290.59375 343.09064 291.375 343.9344Q292.17188 344.77814 292.17188 346.325Q292.17188 346.41876 292.17188 346.60626L287.53125 346.60626Q287.59375 347.6375 288.10938 348.1844Q288.625 348.71564 289.40625 348.71564Q289.98438 348.71564 290.39062 348.41876Q290.8125 348.10626 291.04688 347.45ZM287.59375 345.7469L291.0625 345.7469Q291.0 344.95 290.67188 344.5594Q290.15625 343.95 289.35938 343.95Q288.625 343.95 288.125 344.4344Q287.64062 344.91876 287.59375 345.7469ZM298.8125 351.98126Q297.9375 350.8719 297.32812 349.40314Q296.73438 347.91876 296.73438 346.34064Q296.73438 344.95 297.17188 343.66876Q297.70312 342.1844 298.8125 340.71564L299.5625 340.71564Q298.85938 341.9344 298.625 342.45Q298.26562 343.2625 298.0625 344.1375Q297.8125 345.23126 297.8125 346.34064Q297.8125 349.16876 299.5625 351.98126L298.8125 351.98126ZM301.76562 349.45L300.78125 349.45L300.78125 340.85626L301.84375 340.85626L301.84375 343.91876Q302.51562 343.09064 303.54688 343.09064Q304.125 343.09064 304.625 343.325Q305.14062 343.54376 305.46875 343.96564Q305.8125 344.3875 306.0 344.98126Q306.1875 345.575 306.1875 346.2469Q306.1875 347.84064 305.39062 348.71564Q304.59375 349.59064 303.5 349.59064Q302.39062 349.59064 301.76562 348.66876L301.76562 349.45ZM301.75 346.29376Q301.75 347.40314 302.0625 347.90314Q302.5625 348.71564 303.40625 348.71564Q304.09375 348.71564 304.59375 348.1219Q305.10938 347.52814 305.10938 346.325Q305.10938 345.10626 304.625 344.52814Q304.14062 343.95 303.45312 343.95Q302.76562 343.95 302.25 344.5594Q301.75 345.15314 301.75 346.29376ZM307.75 351.84064L307.625 350.85626Q307.96875 350.95 308.23438 350.95Q308.57812 350.95 308.78125 350.825Q309.0 350.71564 309.14062 350.5125Q309.23438 350.34064 309.46875 349.71564Q309.48438 349.6375 309.5625 349.46564L307.1875 343.23126L308.32812 343.23126L309.625 346.825Q309.875 347.5125 310.07812 348.27814Q310.26562 347.54376 310.51562 346.85626L311.84375 343.23126L312.89062 343.23126L310.53125 349.5594Q310.14062 350.575 309.9375 350.96564Q309.65625 351.4969 309.28125 351.73126Q308.92188 351.98126 308.42188 351.98126Q308.125 351.98126 307.75 351.84064ZM315.09375 348.5125L315.25 349.4344Q314.79688 349.52814 314.45312 349.52814Q313.875 349.52814 313.5625 349.35626Q313.25 349.16876 313.10938 348.8719Q312.98438 348.575 312.98438 347.6219L312.98438 344.04376L312.21875 344.04376L312.21875 343.23126L312.98438 343.23126L312.98438 341.6844L314.03125 341.0594L314.03125 343.23126L315.09375 343.23126L315.09375 344.04376L314.03125 344.04376L314.03125 347.6844Q314.03125 348.1375 314.07812 348.2625Q314.14062 348.3875 314.26562 348.46564Q314.39062 348.54376 314.625 348.54376Q314.8125 348.54376 315.09375 348.5125ZM320.04688 347.45L321.14062 347.575Q320.89062 348.52814 320.1875 349.0594Q319.48438 349.59064 318.40625 349.59064Q317.04688 349.59064 316.23438 348.7469Q315.4375 347.90314 315.4375 346.3875Q315.4375 344.825 316.25 343.96564Q317.0625 343.09064 318.34375 343.09064Q319.59375 343.09064 320.375 343.9344Q321.17188 344.77814 321.17188 346.325Q321.17188 346.41876 321.17188 346.60626L316.53125 346.60626Q316.59375 347.6375 317.10938 348.1844Q317.625 348.71564 318.40625 348.71564Q318.98438 348.71564 319.39062 348.41876Q319.8125 348.10626 320.04688 347.45ZM316.59375 345.7469L320.0625 345.7469Q320.0 344.95 319.67188 344.5594Q319.15625 343.95 318.35938 343.95Q317.625 343.95 317.125 344.4344Q316.64062 344.91876 316.59375 345.7469ZM322.375 347.59064L323.40625 347.4344Q323.5 348.0594 323.89062 348.3875Q324.29688 348.71564 325.03125 348.71564Q325.75 348.71564 326.09375 348.4344Q326.45312 348.1375 326.45312 347.73126Q326.45312 347.3719 326.14062 347.16876Q325.92188 347.02814 325.0625 346.8094Q323.90625 346.5125 323.45312 346.3094Q323.01562 346.09064 322.78125 345.71564Q322.54688 345.34064 322.54688 344.8719Q322.54688 344.46564 322.73438 344.10626Q322.92188 343.7469 323.25 343.5125Q323.5 343.34064 323.92188 343.21564Q324.34375 343.09064 324.84375 343.09064Q325.5625 343.09064 326.10938 343.3094Q326.67188 343.5125 326.9375 343.8719Q327.20312 344.23126 327.29688 344.825L326.26562 344.96564Q326.20312 344.4969 325.85938 344.23126Q325.53125 343.95 324.90625 343.95Q324.1875 343.95 323.875 344.2Q323.5625 344.4344 323.5625 344.7625Q323.5625 344.96564 323.6875 345.1219Q323.82812 345.29376 324.09375 345.40314Q324.25 345.46564 325.03125 345.66876Q326.15625 345.98126 326.59375 346.16876Q327.03125 346.35626 327.28125 346.71564Q327.53125 347.075 327.53125 347.6219Q327.53125 348.15314 327.21875 348.6219Q326.92188 349.075 326.34375 349.34064Q325.76562 349.59064 325.03125 349.59064Q323.8125 349.59064 323.17188 349.09064Q322.54688 348.575 322.375 347.59064ZM330.48438 351.98126L329.73438 351.98126Q331.48438 349.16876 331.48438 346.34064Q331.48438 345.2469 331.23438 344.15314Q331.03125 343.27814 330.67188 342.46564Q330.4375 341.95 329.73438 340.71564L330.48438 340.71564Q331.57812 342.1844 332.10938 343.66876Q332.5625 344.95 332.5625 346.34064Q332.5625 347.91876 331.95312 349.40314Q331.34375 350.8719 330.48438 351.98126Z" fill-rule="nonzero"/><path fill="#000000" d="M27.690638 282.49167L27.534388 281.46042Q28.159388 281.36667 28.487513 280.97604Q28.815638 280.5698 28.815638 279.83542Q28.815638 279.11667 28.534388 278.77292Q28.237513 278.41354 27.831263 278.41354Q27.471888 278.41354 27.268763 278.72604Q27.128138 278.9448 26.909388 279.80417Q26.612513 280.96042 26.409388 281.41354Q26.190638 281.85104 25.815638 282.08542Q25.440638 282.3198 24.971888 282.3198Q24.565638 282.3198 24.206263 282.1323Q23.846888 281.9448 23.612513 281.61667Q23.440638 281.36667 23.315638 280.9448Q23.190638 280.52292 23.190638 280.02292Q23.190638 279.30417 23.409388 278.7573Q23.612513 278.1948 23.971888 277.92917Q24.331263 277.66354 24.925013 277.5698L25.065638 278.60104Q24.596888 278.66354 24.331263 279.0073Q24.050013 279.33542 24.050013 279.96042Q24.050013 280.67917 24.300013 280.99167Q24.534388 281.30417 24.862513 281.30417Q25.065638 281.30417 25.221888 281.17917Q25.393763 281.03854 25.503138 280.77292Q25.565638 280.61667 25.768763 279.83542Q26.081263 278.71042 26.268763 278.27292Q26.456263 277.83542 26.815638 277.58542Q27.175013 277.33542 27.721888 277.33542Q28.253138 277.33542 28.721888 277.64792Q29.175013 277.9448 29.440638 278.52292Q29.690638 279.10104 29.690638 279.83542Q29.690638 281.05417 29.190638 281.6948Q28.675013 282.3198 27.690638 282.49167ZM31.940638 275.0698L23.331263 275.0698L23.331263 274.11667L24.128138 274.11667Q23.659388 273.77292 23.425013 273.35104Q23.190638 272.91354 23.190638 272.30417Q23.190638 271.5073 23.596888 270.89792Q24.003138 270.28854 24.753138 269.99167Q25.503138 269.67917 26.393763 269.67917Q27.346888 269.67917 28.112513 270.02292Q28.878138 270.35104 29.284388 271.0073Q29.690638 271.66354 29.690638 272.3823Q29.690638 272.91354 29.471888 273.33542Q29.237513 273.7573 28.909388 274.02292L31.940638 274.02292L31.940638 275.0698ZM26.471888 274.11667Q27.675013 274.11667 28.253138 273.6323Q28.815638 273.14792 28.815638 272.46042Q28.815638 271.7573 28.221888 271.2573Q27.628138 270.7573 26.378138 270.7573Q25.190638 270.7573 24.612513 271.24167Q24.018763 271.72604 24.018763 272.41354Q24.018763 273.08542 24.643763 273.60104Q25.268763 274.11667 26.471888 274.11667ZM27.550013 263.8198L27.675013 262.72604Q28.628138 262.97604 29.159388 263.67917Q29.690638 264.3823 29.690638 265.46042Q29.690638 266.8198 28.846888 267.6323Q28.003138 268.42917 26.487513 268.42917Q24.925013 268.42917 24.065638 267.61667Q23.190638 266.80417 23.190638 265.52292Q23.190638 264.27292 24.034388 263.49167Q24.878138 262.6948 26.425013 262.6948Q26.518763 262.6948 26.706263 262.6948L26.706263 267.33542Q27.737513 267.27292 28.284388 266.7573Q28.815638 266.24167 28.815638 265.46042Q28.815638 264.8823 28.518763 264.47604Q28.206263 264.05417 27.550013 263.8198ZM25.846888 267.27292L25.846888 263.80417Q25.050013 263.86667 24.659388 264.1948Q24.050013 264.71042 24.050013 265.5073Q24.050013 266.24167 24.534388 266.74167Q25.018763 267.22604 25.846888 267.27292ZM27.550013 256.8198L27.675013 255.72604Q28.628138 255.97604 29.159388 256.67917Q29.690638 257.3823 29.690638 258.46042Q29.690638 259.8198 28.846888 260.6323Q28.003138 261.42917 26.487513 261.42917Q24.925013 261.42917 24.065638 260.61667Q23.190638 259.80417 23.190638 258.52292Q23.190638 257.27292 24.034388 256.49167Q24.878138 255.6948 26.425013 255.6948Q26.518763 255.6948 26.706263 255.6948L26.706263 260.33542Q27.737513 260.27292 28.284388 259.7573Q28.815638 259.24167 28.815638 258.46042Q28.815638 257.8823 28.518763 257.47604Q28.206263 257.05417 27.550013 256.8198ZM25.846888 260.27292L25.846888 256.80417Q25.050013 256.86667 24.659388 257.1948Q24.050013 257.71042 24.050013 258.5073Q24.050013 259.24167 24.534388 259.74167Q25.018763 260.22604 25.846888 260.27292ZM29.550013 250.03854L28.768763 250.03854Q29.690638 250.6323 29.690638 251.77292Q29.690638 252.52292 29.284388 253.14792Q28.862513 253.77292 28.128138 254.11667Q27.393763 254.46042 26.440638 254.46042Q25.518763 254.46042 24.753138 254.14792Q23.987513 253.83542 23.596888 253.21042Q23.190638 252.58542 23.190638 251.8198Q23.190638 251.2573 23.425013 250.8198Q23.659388 250.3823 24.034388 250.10104L20.956263 250.10104L20.956263 249.05417L29.550013 249.05417L29.550013 250.03854ZM26.440638 253.36667Q27.643763 253.36667 28.237513 252.86667Q28.815638 252.36667 28.815638 251.67917Q28.815638 250.99167 28.253138 250.5073Q27.690638 250.02292 26.534388 250.02292Q25.253138 250.02292 24.659388 250.52292Q24.065638 251.0073 24.065638 251.72604Q24.065638 252.42917 24.643763 252.89792Q25.206263 253.36667 26.440638 253.36667ZM29.550013 239.99167L28.628138 239.99167Q29.690638 240.72604 29.690638 241.97604Q29.690638 242.52292 29.487513 243.0073Q29.268763 243.47604 28.956263 243.71042Q28.628138 243.9448 28.159388 244.03854Q27.862513 244.10104 27.175013 244.10104L23.331263 244.10104L23.331263 243.03854L26.784388 243.03854Q27.596888 243.03854 27.893763 242.97604Q28.300013 242.8823 28.550013 242.5698Q28.784388 242.24167 28.784388 241.7573Q28.784388 241.28854 28.550013 240.8823Q28.300013 240.46042 27.878138 240.28854Q27.456263 240.10104 26.659388 240.10104L23.331263 240.10104L23.331263 239.05417L29.550013 239.05417L29.550013 239.99167ZM31.940638 237.0698L23.331263 237.0698L23.331263 236.11667L24.128138 236.11667Q23.659388 235.77292 23.425013 235.35104Q23.190638 234.91354 23.190638 234.30417Q23.190638 233.5073 23.596888 232.89792Q24.003138 232.28854 24.753138 231.99167Q25.503138 231.67917 26.393763 231.67917Q27.346888 231.67917 28.112513 232.02292Q28.878138 232.35104 29.284388 233.0073Q29.690638 233.66354 29.690638 234.3823Q29.690638 234.91354 29.471888 235.33542Q29.237513 235.7573 28.909388 236.02292L31.940638 236.02292L31.940638 237.0698ZM26.471888 236.11667Q27.675013 236.11667 28.253138 235.6323Q28.815638 235.14792 28.815638 234.46042Q28.815638 233.7573 28.221888 233.2573Q27.628138 232.7573 26.378138 232.7573Q25.190638 232.7573 24.612513 233.24167Q24.018763 233.72604 24.018763 234.41354Q24.018763 235.08542 24.643763 235.60104Q25.268763 236.11667 26.471888 236.11667ZM26.440638 227.46042Q24.706263 227.46042 23.878138 226.5073Q23.190638 225.71042 23.190638 224.55417Q23.190638 223.27292 24.034388 222.46042Q24.862513 221.6323 26.346888 221.6323Q27.550013 221.6323 28.237513 221.99167Q28.925013 222.35104 29.315638 223.05417Q29.690638 223.74167 29.690638 224.55417Q29.690638 225.85104 28.862513 226.66354Q28.018763 227.46042 26.440638 227.46042ZM26.440638 226.3823Q27.628138 226.3823 28.221888 225.86667Q28.815638 225.33542 28.815638 224.55417Q28.815638 223.7573 28.221888 223.24167Q27.628138 222.72604 26.409388 222.72604Q25.253138 222.72604 24.659388 223.2573Q24.065638 223.77292 24.065638 224.55417Q24.065638 225.33542 24.659388 225.86667Q25.237513 226.3823 26.440638 226.3823ZM29.550013 218.35104L23.331263 220.71042L23.331263 219.60104L27.050013 218.2573Q27.659388 218.05417 28.300013 217.86667Q27.815638 217.72604 27.128138 217.47604L23.331263 216.08542L23.331263 215.0073L29.550013 217.36667L29.550013 218.35104ZM27.550013 210.8198L27.675013 209.72604Q28.628138 209.97604 29.159388 210.67917Q29.690638 211.3823 29.690638 212.46042Q29.690638 213.8198 28.846888 214.6323Q28.003138 215.42917 26.487513 215.42917Q24.925013 215.42917 24.065638 214.61667Q23.190638 213.80417 23.190638 212.52292Q23.190638 211.27292 24.034388 210.49167Q24.878138 209.6948 26.425013 209.6948Q26.518763 209.6948 26.706263 209.6948L26.706263 214.33542Q27.737513 214.27292 28.284388 213.7573Q28.815638 213.24167 28.815638 212.46042Q28.815638 211.8823 28.518763 211.47604Q28.206263 211.05417 27.550013 210.8198ZM25.846888 214.27292L25.846888 210.80417Q25.050013 210.86667 24.659388 211.1948Q24.050013 211.71042 24.050013 212.5073Q24.050013 213.24167 24.534388 213.74167Q25.018763 214.22604 25.846888 214.27292ZM29.550013 208.08542L23.331263 208.08542L23.331263 207.1323L24.268763 207.1323Q23.612513 206.77292 23.409388 206.47604Q23.190638 206.16354 23.190638 205.78854Q23.190638 205.2573 23.518763 204.71042L24.503138 205.0698Q24.268763 205.46042 24.268763 205.83542Q24.268763 206.1948 24.487513 206.47604Q24.690638 206.74167 25.065638 206.85104Q25.628138 207.03854 26.284388 207.03854L29.550013 207.03854L29.550013 208.08542ZM29.550013 200.10104L29.550013 201.08542L20.956263 201.08542L20.956263 200.02292L24.018763 200.02292Q23.190638 199.35104 23.190638 198.3198Q23.190638 197.74167 23.425013 197.24167Q23.643763 196.72604 24.065638 196.39792Q24.487513 196.05417 25.081263 195.86667Q25.675013 195.67917 26.346888 195.67917Q27.940638 195.67917 28.815638 196.47604Q29.690638 197.27292 29.690638 198.36667Q29.690638 199.47604 28.768763 200.10104L29.550013 200.10104ZM26.393763 200.11667Q27.503138 200.11667 28.003138 199.80417Q28.815638 199.30417 28.815638 198.46042Q28.815638 197.77292 28.221888 197.27292Q27.628138 196.7573 26.425013 196.7573Q25.206263 196.7573 24.628138 197.24167Q24.050013 197.72604 24.050013 198.41354Q24.050013 199.10104 24.659388 199.61667Q25.253138 200.11667 26.393763 200.11667ZM28.784388 190.0073Q29.284388 190.60104 29.487513 191.14792Q29.690638 191.67917 29.690638 192.30417Q29.690638 193.33542 29.190638 193.8823Q28.690638 194.42917 27.909388 194.42917Q27.456263 194.42917 27.081263 194.22604Q26.690638 194.02292 26.471888 193.67917Q26.237513 193.33542 26.128138 192.91354Q26.034388 192.61667 25.956263 191.97604Q25.815638 190.71042 25.596888 190.10104Q25.378138 190.10104 25.331263 190.10104Q24.675013 190.10104 24.409388 190.39792Q24.065638 190.80417 24.065638 191.60104Q24.065638 192.33542 24.331263 192.6948Q24.581263 193.05417 25.237513 193.22604L25.096888 194.2573Q24.440638 194.11667 24.034388 193.78854Q23.628138 193.46042 23.409388 192.85104Q23.190638 192.24167 23.190638 191.4448Q23.190638 190.64792 23.378138 190.14792Q23.565638 189.64792 23.846888 189.41354Q24.128138 189.17917 24.565638 189.08542Q24.831263 189.03854 25.534388 189.03854L26.940638 189.03854Q28.409388 189.03854 28.800013 188.97604Q29.190638 188.89792 29.550013 188.6948L29.550013 189.80417Q29.221888 189.96042 28.784388 190.0073ZM26.425013 190.10104Q26.659388 190.67917 26.831263 191.8198Q26.925013 192.47604 27.050013 192.74167Q27.159388 193.0073 27.378138 193.16354Q27.596888 193.30417 27.878138 193.30417Q28.300013 193.30417 28.581263 192.99167Q28.862513 192.66354 28.862513 192.05417Q28.862513 191.4448 28.596888 190.97604Q28.331263 190.49167 27.862513 190.27292Q27.503138 190.10104 26.815638 190.10104L26.425013 190.10104ZM27.690638 187.49167L27.534388 186.46042Q28.159388 186.36667 28.487513 185.97604Q28.815638 185.5698 28.815638 184.83542Q28.815638 184.11667 28.534388 183.77292Q28.237513 183.41354 27.831263 183.41354Q27.471888 183.41354 27.268763 183.72604Q27.128138 183.9448 26.909388 184.80417Q26.612513 185.96042 26.409388 186.41354Q26.190638 186.85104 25.815638 187.08542Q25.440638 187.3198 24.971888 187.3198Q24.565638 187.3198 24.206263 187.1323Q23.846888 186.9448 23.612513 186.61667Q23.440638 186.36667 23.315638 185.9448Q23.190638 185.52292 23.190638 185.02292Q23.190638 184.30417 23.409388 183.7573Q23.612513 183.1948 23.971888 182.92917Q24.331263 182.66354 24.925013 182.5698L25.065638 183.60104Q24.596888 183.66354 24.331263 184.0073Q24.050013 184.33542 24.050013 184.96042Q24.050013 185.67917 24.300013 185.99167Q24.534388 186.30417 24.862513 186.30417Q25.065638 186.30417 25.221888 186.17917Q25.393763 186.03854 25.503138 185.77292Q25.565638 185.61667 25.768763 184.83542Q26.081263 183.71042 26.268763 183.27292Q26.456263 182.83542 26.815638 182.58542Q27.175013 182.33542 27.721888 182.33542Q28.253138 182.33542 28.721888 182.64792Q29.175013 182.9448 29.440638 183.52292Q29.690638 184.10104 29.690638 184.83542Q29.690638 186.05417 29.190638 186.6948Q28.675013 187.3198 27.690638 187.49167ZM27.550013 175.8198L27.675013 174.72604Q28.628138 174.97604 29.159388 175.67917Q29.690638 176.3823 29.690638 177.46042Q29.690638 178.8198 28.846888 179.6323Q28.003138 180.42917 26.487513 180.42917Q24.925013 180.42917 24.065638 179.61667Q23.190638 178.80417 23.190638 177.52292Q23.190638 176.27292 24.034388 175.49167Q24.878138 174.6948 26.425013 174.6948Q26.518763 174.6948 26.706263 174.6948L26.706263 179.33542Q27.737513 179.27292 28.284388 178.7573Q28.815638 178.24167 28.815638 177.46042Q28.815638 176.8823 28.518763 176.47604Q28.206263 176.05417 27.550013 175.8198ZM25.846888 179.27292L25.846888 175.80417Q25.050013 175.86667 24.659388 176.1948Q24.050013 176.71042 24.050013 177.5073Q24.050013 178.24167 24.534388 178.74167Q25.018763 179.22604 25.846888 179.27292ZM29.550013 173.10104L20.956263 173.10104L20.956263 172.03854L29.550013 172.03854L29.550013 173.10104ZM22.175013 170.0698L20.956263 170.0698L20.956263 169.0073L22.175013 169.0073L22.175013 170.0698ZM29.550013 170.0698L23.331263 170.0698L23.331263 169.0073L29.550013 169.0073L29.550013 170.0698ZM29.550013 167.0698L23.331263 167.0698L23.331263 166.1323L24.206263 166.1323Q23.190638 165.4448 23.190638 164.14792Q23.190638 163.58542 23.393763 163.11667Q23.596888 162.6323 23.925013 162.39792Q24.253138 162.16354 24.690638 162.0698Q24.987513 162.02292 25.721888 162.02292L29.550013 162.02292L29.550013 163.0698L25.768763 163.0698Q25.112513 163.0698 24.800013 163.1948Q24.487513 163.3198 24.300013 163.6323Q24.096888 163.9448 24.096888 164.36667Q24.096888 165.03854 24.534388 165.53854Q24.956263 166.02292 26.143763 166.02292L29.550013 166.02292L29.550013 167.0698ZM27.550013 155.8198L27.675013 154.72604Q28.628138 154.97604 29.159388 155.67917Q29.690638 156.3823 29.690638 157.46042Q29.690638 158.8198 28.846888 159.6323Q28.003138 160.42917 26.487513 160.42917Q24.925013 160.42917 24.065638 159.61667Q23.190638 158.80417 23.190638 157.52292Q23.190638 156.27292 24.034388 155.49167Q24.878138 154.6948 26.425013 154.6948Q26.518763 154.6948 26.706263 154.6948L26.706263 159.33542Q27.737513 159.27292 28.284388 158.7573Q28.815638 158.24167 28.815638 157.46042Q28.815638 156.8823 28.518763 156.47604Q28.206263 156.05417 27.550013 155.8198ZM25.846888 159.27292L25.846888 155.80417Q25.050013 155.86667 24.659388 156.1948Q24.050013 156.71042 24.050013 157.5073Q24.050013 158.24167 24.534388 158.74167Q25.018763 159.22604 25.846888 159.27292ZM32.08126 148.05417Q30.971888 148.92917 29.503138 149.53854Q28.018763 150.1323 26.440638 150.1323Q25.050013 150.1323 23.768763 149.6948Q22.284388 149.16354 20.815638 148.05417L20.815638 147.30417Q22.034388 148.0073 22.550013 148.24167Q23.362513 148.60104 24.237513 148.80417Q25.331263 149.05417 26.440638 149.05417Q29.268763 149.05417 32.08126 147.30417L32.08126 148.05417ZM29.550013 146.08542L23.331263 146.08542L23.331263 145.1323L24.268763 145.1323Q23.612513 144.77292 23.409388 144.47604Q23.190638 144.16354 23.190638 143.78854Q23.190638 143.2573 23.518763 142.71042L24.503138 143.0698Q24.268763 143.46042 24.268763 143.83542Q24.268763 144.1948 24.487513 144.47604Q24.690638 144.74167 25.065638 144.85104Q25.628138 145.03854 26.284388 145.03854L29.550013 145.03854L29.550013 146.08542ZM28.784388 138.0073Q29.284388 138.60104 29.487513 139.14792Q29.690638 139.67917 29.690638 140.30417Q29.690638 141.33542 29.190638 141.8823Q28.690638 142.42917 27.909388 142.42917Q27.456263 142.42917 27.081263 142.22604Q26.690638 142.02292 26.471888 141.67917Q26.237513 141.33542 26.128138 140.91354Q26.034388 140.61667 25.956263 139.97604Q25.815638 138.71042 25.596888 138.10104Q25.378138 138.10104 25.331263 138.10104Q24.675013 138.10104 24.409388 138.39792Q24.065638 138.80417 24.065638 139.60104Q24.065638 140.33542 24.331263 140.6948Q24.581263 141.05417 25.237513 141.22604L25.096888 142.2573Q24.440638 142.11667 24.034388 141.78854Q23.628138 141.46042 23.409388 140.85104Q23.190638 140.24167 23.190638 139.4448Q23.190638 138.64792 23.378138 138.14792Q23.565638 137.64792 23.846888 137.41354Q24.128138 137.17917 24.565638 137.08542Q24.831263 137.03854 25.534388 137.03854L26.940638 137.03854Q28.409388 137.03854 28.800013 136.97604Q29.190638 136.89792 29.550013 136.6948L29.550013 137.80417Q29.221888 137.96042 28.784388 138.0073ZM26.425013 138.10104Q26.659388 138.67917 26.831263 139.8198Q26.925013 140.47604 27.050013 140.74167Q27.159388 141.0073 27.378138 141.16354Q27.596888 141.30417 27.878138 141.30417Q28.300013 141.30417 28.581263 140.99167Q28.862513 140.66354 28.862513 140.05417Q28.862513 139.4448 28.596888 138.97604Q28.331263 138.49167 27.862513 138.27292Q27.503138 138.10104 26.815638 138.10104L26.425013 138.10104ZM28.612513 132.77292L29.534388 132.61667Q29.628138 133.0698 29.628138 133.41354Q29.628138 133.99167 29.456263 134.30417Q29.268763 134.61667 28.971888 134.7573Q28.675013 134.8823 27.721888 134.8823L24.143763 134.8823L24.143763 135.64792L23.331263 135.64792L23.331263 134.8823L21.784388 134.8823L21.159388 133.83542L23.331263 133.83542L23.331263 132.77292L24.143763 132.77292L24.143763 133.83542L27.784388 133.83542Q28.237513 133.83542 28.362513 133.78854Q28.487513 133.72604 28.565638 133.60104Q28.643763 133.47604 28.643763 133.24167Q28.643763 133.05417 28.612513 132.77292ZM22.175013 132.0698L20.956263 132.0698L20.956263 131.0073L22.175013 131.0073L22.175013 132.0698ZM29.550013 132.0698L23.331263 132.0698L23.331263 131.0073L29.550013 131.0073L29.550013 132.0698ZM26.440638 129.46042Q24.706263 129.46042 23.878138 128.5073Q23.190638 127.71042 23.190638 126.55417Q23.190638 125.27292 24.034388 124.46042Q24.862513 123.63229 26.346888 123.63229Q27.550013 123.63229 28.237513 123.99167Q28.925013 124.35104 29.315638 125.05417Q29.690638 125.74167 29.690638 126.55417Q29.690638 127.85104 28.862513 128.66354Q28.018763 129.46042 26.440638 129.46042ZM26.440638 128.3823Q27.628138 128.3823 28.221888 127.86667Q28.815638 127.33542 28.815638 126.55417Q28.815638 125.75729 28.221888 125.24167Q27.628138 124.72604 26.409388 124.72604Q25.253138 124.72604 24.659388 125.25729Q24.065638 125.77292 24.065638 126.55417Q24.065638 127.33542 24.659388 127.86667Q25.237513 128.3823 26.440638 128.3823ZM32.08126 121.38229L32.08126 122.13229Q29.268763 120.38229 26.440638 120.38229Q25.346888 120.38229 24.253138 120.63229Q23.378138 120.83542 22.565638 121.19479Q22.050013 121.42917 20.815638 122.13229L20.815638 121.38229Q22.284388 120.28854 23.768763 119.75729Q25.050013 119.30417 26.440638 119.30417Q28.018763 119.30417 29.503138 119.91354Q30.971888 120.52292 32.08126 121.38229Z" fill-rule="nonzero"/><path fill="#000000" d="M65.05 300.21564Q65.05 298.6844 65.3625 297.7625Q65.675 296.825 66.28438 296.325Q66.90938 295.825 67.84688 295.825Q68.53438 295.825 69.05 296.10626Q69.58125 296.3875 69.925 296.91876Q70.26875 297.4344 70.45625 298.1844Q70.64375 298.9344 70.64375 300.21564Q70.64375 301.73126 70.33125 302.65314Q70.03438 303.575 69.40938 304.09064Q68.8 304.59064 67.84688 304.59064Q66.6125 304.59064 65.89375 303.7Q65.05 302.6375 65.05 300.21564ZM66.12813 300.21564Q66.12813 302.325 66.62813 303.02814Q67.12813 303.73126 67.84688 303.73126Q68.58125 303.73126 69.06563 303.02814Q69.56563 302.325 69.56563 300.21564Q69.56563 298.09064 69.06563 297.40314Q68.58125 296.7 67.83125 296.7Q67.1125 296.7 66.675 297.3094Q66.12813 298.09064 66.12813 300.21564Z" fill-rule="nonzero"/><path fill="#000000" d="M70.59688 250.39272L70.59688 251.40834L64.90938 251.40834Q64.90938 251.03334 65.03438 250.67397Q65.25313 250.09584 65.72188 249.53334Q66.20625 248.97084 67.1125 248.23647Q68.51875 247.08022 69.00313 246.40834Q69.50313 245.73647 69.50313 245.14272Q69.50313 244.51772 69.05 244.09584Q68.59688 243.65834 67.87813 243.65834Q67.1125 243.65834 66.65938 244.11147Q66.20625 244.56459 66.19063 245.37709L65.1125 245.26772Q65.22188 244.04897 65.94063 243.42397Q66.675 242.78334 67.90938 242.78334Q69.14375 242.78334 69.8625 243.47084Q70.58125 244.15834 70.58125 245.17397Q70.58125 245.68959 70.3625 246.18959Q70.15938 246.67397 69.65938 247.23647Q69.175 247.78334 68.05 248.73647Q67.09688 249.53334 66.81563 249.83022Q66.55 250.11147 66.37813 250.39272L70.59688 250.39272Z" fill-rule="nonzero"/><path fill="#000000" d="M68.425 198.36667L68.425 196.30417L64.70625 196.30417L64.70625 195.33542L68.62813 189.77292L69.4875 189.77292L69.4875 195.33542L70.64375 195.33542L70.64375 196.30417L69.4875 196.30417L69.4875 198.36667L68.425 198.36667ZM68.425 195.33542L68.425 191.47604L65.7375 195.33542L68.425 195.33542Z" fill-rule="nonzero"/><path fill="#000000" d="M70.51875 138.84062L69.47188 138.91875Q69.33125 138.29375 69.08125 138.0125Q68.64375 137.55937 68.01875 137.55937Q67.51875 137.55937 67.12813 137.84062Q66.64375 138.21562 66.34688 138.91875Q66.06563 139.60625 66.05 140.8875Q66.425 140.30937 66.97188 140.02812Q67.53438 139.74687 68.14375 139.74687Q69.19063 139.74687 69.925 140.52812Q70.675 141.30937 70.675 142.52812Q70.675 143.34062 70.31563 144.04375Q69.97188 144.73125 69.3625 145.10625Q68.75313 145.46562 67.9875 145.46562Q66.65938 145.46562 65.83125 144.49687Q65.00313 143.52812 65.00313 141.30937Q65.00313 138.80937 65.925 137.68437Q66.72188 136.7 68.08125 136.7Q69.09688 136.7 69.7375 137.27812Q70.39375 137.84062 70.51875 138.84062ZM66.22188 142.54375Q66.22188 143.09062 66.44063 143.59062Q66.675 144.075 67.08125 144.34062Q67.50313 144.60625 67.97188 144.60625Q68.62813 144.60625 69.1125 144.075Q69.59688 143.52812 69.59688 142.60625Q69.59688 141.71562 69.1125 141.2Q68.64375 140.68437 67.925 140.68437Q67.20625 140.68437 66.70625 141.2Q66.22188 141.71562 66.22188 142.54375Z" fill-rule="nonzero"/><path fill="#000000" d="M66.675 87.62708Q66.01875 87.37708 65.69063 86.93958Q65.37813 86.48646 65.37813 85.87708Q65.37813 84.93958 66.05 84.29896Q66.7375 83.65833 67.84688 83.65833Q68.97188 83.65833 69.65938 84.31458Q70.34688 84.97083 70.34688 85.90833Q70.34688 86.50208 70.03438 86.93958Q69.72188 87.37708 69.08125 87.62708Q69.87813 87.87708 70.28438 88.45521Q70.69063 89.03333 70.69063 89.83021Q70.69063 90.92396 69.90938 91.67396Q69.14375 92.42396 67.8625 92.42396Q66.59688 92.42396 65.81563 91.67396Q65.03438 90.92396 65.03438 89.79896Q65.03438 88.95521 65.45625 88.39271Q65.89375 87.83021 66.675 87.62708ZM66.45625 85.83021Q66.45625 86.43958 66.84688 86.83021Q67.25313 87.22083 67.87813 87.22083Q68.4875 87.22083 68.87813 86.84583Q69.26875 86.45521 69.26875 85.89271Q69.26875 85.31458 68.8625 84.92396Q68.45625 84.51771 67.8625 84.51771Q67.25313 84.51771 66.84688 84.90833Q66.45625 85.29896 66.45625 85.83021ZM66.12813 89.79896Q66.12813 90.25208 66.33125 90.67396Q66.55 91.09583 66.97188 91.33021Q67.39375 91.56458 67.87813 91.56458Q68.62813 91.56458 69.1125 91.08021Q69.6125 90.59583 69.6125 89.84583Q69.6125 89.08021 69.1125 88.58021Q68.6125 88.08021 67.84688 88.08021Q67.09688 88.08021 66.6125 88.58021Q66.12813 89.06458 66.12813 89.79896Z" fill-rule="nonzero"/><path fill="#000000" d="M78.51875 317.45L77.47188 317.45L77.47188 310.73126Q77.08125 311.09064 76.45625 311.46564Q75.84688 311.825 75.3625 311.9969L75.3625 310.98126Q76.2375 310.5594 76.89375 309.98126Q77.56563 309.3875 77.84688 308.825L78.51875 308.825L78.51875 317.45Z" fill-rule="nonzero"/><path fill="#000000" d="M188.1481 317.45L187.10123 317.45L187.10123 310.73126Q186.7106 311.09064 186.0856 311.46564Q185.47623 311.825 184.99185 311.9969L184.99185 310.98126Q185.86685 310.5594 186.5231 309.98126Q187.19498 309.3875 187.47623 308.825L188.1481 308.825L188.1481 317.45ZM191.17935 313.21564Q191.17935 311.6844 191.49185 310.7625Q191.80435 309.825 192.41373 309.325Q193.03873 308.825 193.97623 308.825Q194.66373 308.825 195.17935 309.10626Q195.7106 309.3875 196.05435 309.91876Q196.3981 310.4344 196.5856 311.1844Q196.7731 311.9344 196.7731 313.21564Q196.7731 314.73126 196.4606 315.65314Q196.16373 316.575 195.53873 317.09064Q194.92935 317.59064 193.97623 317.59064Q192.74185 317.59064 192.0231 316.7Q191.17935 315.6375 191.17935 313.21564ZM192.25748 313.21564Q192.25748 315.325 192.75748 316.02814Q193.25748 316.73126 193.97623 316.73126Q194.7106 316.73126 195.19498 316.02814Q195.69498 315.325 195.69498 313.21564Q195.69498 311.09064 195.19498 310.40314Q194.7106 309.7 193.9606 309.7Q193.24185 309.7 192.80435 310.3094Q192.25748 311.09064 192.25748 313.21564Z" fill-rule="nonzero"/><path fill="#000000" d="M297.77747 317.45L296.7306 317.45L296.7306 310.73126Q296.33997 311.09064 295.71497 311.46564Q295.1056 311.825 294.62122 311.9969L294.62122 310.98126Q295.49622 310.5594 296.15247 309.98126Q296.82434 309.3875 297.1056 308.825L297.77747 308.825L297.77747 317.45ZM300.80872 313.21564Q300.80872 311.6844 301.12122 310.7625Q301.43372 309.825 302.0431 309.325Q302.6681 308.825 303.6056 308.825Q304.2931 308.825 304.80872 309.10626Q305.33997 309.3875 305.68372 309.91876Q306.02747 310.4344 306.21497 311.1844Q306.40247 311.9344 306.40247 313.21564Q306.40247 314.73126 306.08997 315.65314Q305.7931 316.575 305.1681 317.09064Q304.55872 317.59064 303.6056 317.59064Q302.37122 317.59064 301.65247 316.7Q300.80872 315.6375 300.80872 313.21564ZM301.88684 313.21564Q301.88684 315.325 302.38684 316.02814Q302.88684 316.73126 303.6056 316.73126Q304.33997 316.73126 304.82434 316.02814Q305.32434 315.325 305.32434 313.21564Q305.32434 311.09064 304.82434 310.40314Q304.33997 309.7 303.58997 309.7Q302.87122 309.7 302.43372 310.3094Q301.88684 311.09064 301.88684 313.21564ZM307.80872 313.21564Q307.80872 311.6844 308.12122 310.7625Q308.43372 309.825 309.0431 309.325Q309.6681 308.825 310.6056 308.825Q311.2931 308.825 311.80872 309.10626Q312.33997 309.3875 312.68372 309.91876Q313.02747 310.4344 313.21497 311.1844Q313.40247 311.9344 313.40247 313.21564Q313.40247 314.73126 313.08997 315.65314Q312.7931 316.575 312.1681 317.09064Q311.55872 317.59064 310.6056 317.59064Q309.37122 317.59064 308.65247 316.7Q307.80872 315.6375 307.80872 313.21564ZM308.88684 313.21564Q308.88684 315.325 309.38684 316.02814Q309.88684 316.73126 310.6056 316.73126Q311.33997 316.73126 311.82434 316.02814Q312.32434 315.325 312.32434 313.21564Q312.32434 311.09064 311.82434 310.40314Q311.33997 309.7 310.58997 309.7Q309.87122 309.7 309.43372 310.3094Q308.88684 311.09064 308.88684 313.21564Z" fill-rule="nonzero"/><path fill="#000000" d="M407.40683 317.45L406.35995 317.45L406.35995 310.73126Q405.96933 311.09064 405.34433 311.46564Q404.73495 311.825 404.25058 311.9969L404.25058 310.98126Q405.12558 310.5594 405.78183 309.98126Q406.4537 309.3875 406.73495 308.825L407.40683 308.825L407.40683 317.45ZM410.43808 313.21564Q410.43808 311.6844 410.75058 310.7625Q411.06308 309.825 411.67245 309.325Q412.29745 308.825 413.23495 308.825Q413.92245 308.825 414.43808 309.10626Q414.96933 309.3875 415.31308 309.91876Q415.65683 310.4344 415.84433 311.1844Q416.03183 311.9344 416.03183 313.21564Q416.03183 314.73126 415.71933 315.65314Q415.42245 316.575 414.79745 317.09064Q414.18808 317.59064 413.23495 317.59064Q412.00058 317.59064 411.28183 316.7Q410.43808 315.6375 410.43808 313.21564ZM411.5162 313.21564Q411.5162 315.325 412.0162 316.02814Q412.5162 316.73126 413.23495 316.73126Q413.96933 316.73126 414.4537 316.02814Q414.9537 315.325 414.9537 313.21564Q414.9537 311.09064 414.4537 310.40314Q413.96933 309.7 413.21933 309.7Q412.50058 309.7 412.06308 310.3094Q411.5162 311.09064 411.5162 313.21564ZM417.43808 313.21564Q417.43808 311.6844 417.75058 310.7625Q418.06308 309.825 418.67245 309.325Q419.29745 308.825 420.23495 308.825Q420.92245 308.825 421.43808 309.10626Q421.96933 309.3875 422.31308 309.91876Q422.65683 310.4344 422.84433 311.1844Q423.03183 311.9344 423.03183 313.21564Q423.03183 314.73126 422.71933 315.65314Q422.42245 316.575 421.79745 317.09064Q421.18808 317.59064 420.23495 317.59064Q419.00058 317.59064 418.28183 316.7Q417.43808 315.6375 417.43808 313.21564ZM418.5162 313.21564Q418.5162 315.325 419.0162 316.02814Q419.5162 316.73126 420.23495 316.73126Q420.96933 316.73126 421.4537 316.02814Q421.9537 315.325 421.9537 313.21564Q421.9537 311.09064 421.4537 310.40314Q420.96933 309.7 420.21933 309.7Q419.50058 309.7 419.06308 310.3094Q418.5162 311.09064 418.5162 313.21564ZM424.43808 313.21564Q424.43808 311.6844 424.75058 310.7625Q425.06308 309.825 425.67245 309.325Q426.29745 308.825 427.23495 308.825Q427.92245 308.825 428.43808 309.10626Q428.96933 309.3875 429.31308 309.91876Q429.65683 310.4344 429.84433 311.1844Q430.03183 311.9344 430.03183 313.21564Q430.03183 314.73126 429.71933 315.65314Q429.42245 316.575 428.79745 317.09064Q428.18808 317.59064 427.23495 317.59064Q426.00058 317.59064 425.28183 316.7Q424.43808 315.6375 424.43808 313.21564ZM425.5162 313.21564Q425.5162 315.325 426.0162 316.02814Q426.5162 316.73126 427.23495 316.73126Q427.96933 316.73126 428.4537 316.02814Q428.9537 315.325 428.9537 313.21564Q428.9537 311.09064 428.4537 310.40314Q427.96933 309.7 427.21933 309.7Q426.50058 309.7 426.06308 310.3094Q425.5162 311.09064 425.5162 313.21564Z" fill-rule="nonzero"/><path stroke="#ea4335" stroke-width="4.0" stroke-linecap="butt" d="M239.5 61.916668L251.5 61.916668" fill-rule="nonzero"/><path fill="#1a1a1a" d="M260.42188 65.916664L260.42188 57.322914L263.67188 57.322914Q264.51562 57.322914 264.96875 57.40104Q265.60938 57.510414 266.03125 57.80729Q266.46875 58.104164 266.71875 58.635414Q266.98438 59.166664 266.98438 59.80729Q266.98438 60.90104 266.28125 61.666664Q265.59375 62.416664 263.76562 62.416664L261.5625 62.416664L261.5625 65.916664L260.42188 65.916664ZM261.5625 61.416664L263.78125 61.416664Q264.89062 61.416664 265.34375 61.010414Q265.8125 60.58854 265.8125 59.83854Q265.8125 59.30729 265.53125 58.93229Q265.26562 58.541664 264.82812 58.416664Q264.53125 58.33854 263.76562 58.33854L261.5625 58.33854L261.5625 61.416664ZM272.35938 65.15104Q271.76562 65.65104 271.21875 65.854164Q270.6875 66.05729 270.0625 66.05729Q269.03125 66.05729 268.48438 65.55729Q267.9375 65.05729 267.9375 64.27604Q267.9375 63.822914 268.14062 63.447914Q268.34375 63.05729 268.6875 62.83854Q269.03125 62.604164 269.45312 62.49479Q269.75 62.40104 270.39062 62.322914Q271.65625 62.18229 272.26562 61.96354Q272.26562 61.74479 272.26562 61.697914Q272.26562 61.041664 271.96875 60.77604Q271.5625 60.43229 270.76562 60.43229Q270.03125 60.43229 269.67188 60.697914Q269.3125 60.947914 269.14062 61.604164L268.10938 61.46354Q268.25 60.80729 268.57812 60.40104Q268.90625 59.99479 269.51562 59.77604Q270.125 59.55729 270.92188 59.55729Q271.71875 59.55729 272.21875 59.74479Q272.71875 59.93229 272.95312 60.21354Q273.1875 60.49479 273.28125 60.93229Q273.32812 61.197914 273.32812 61.90104L273.32812 63.30729Q273.32812 64.77604 273.39062 65.166664Q273.46875 65.55729 273.67188 65.916664L272.5625 65.916664Q272.40625 65.58854 272.35938 65.15104ZM272.26562 62.791664Q271.6875 63.02604 270.54688 63.197914Q269.89062 63.291664 269.625 63.416664Q269.35938 63.52604 269.20312 63.74479Q269.0625 63.96354 269.0625 64.24479Q269.0625 64.666664 269.375 64.947914Q269.70312 65.229164 270.3125 65.229164Q270.92188 65.229164 271.39062 64.96354Q271.875 64.697914 272.09375 64.229164Q272.26562 63.86979 272.26562 63.18229L272.26562 62.791664ZM277.59375 64.979164L277.75 65.90104Q277.29688 65.99479 276.95312 65.99479Q276.375 65.99479 276.0625 65.822914Q275.75 65.635414 275.60938 65.33854Q275.48438 65.041664 275.48438 64.08854L275.48438 60.510414L274.71875 60.510414L274.71875 59.697914L275.48438 59.697914L275.48438 58.15104L276.53125 57.52604L276.53125 59.697914L277.59375 59.697914L277.59375 60.510414L276.53125 60.510414L276.53125 64.15104Q276.53125 64.604164 276.57812 64.729164Q276.64062 64.854164 276.76562 64.93229Q276.89062 65.010414 277.125 65.010414Q277.3125 65.010414 277.59375 64.979164ZM282.35938 63.635414L283.39062 63.77604Q283.21875 64.83854 282.51562 65.447914Q281.8125 66.05729 280.79688 66.05729Q279.51562 66.05729 278.73438 65.229164Q277.96875 64.385414 277.96875 62.822914Q277.96875 61.822914 278.29688 61.072914Q278.64062 60.30729 279.3125 59.93229Q280.0 59.55729 280.8125 59.55729Q281.8125 59.55729 282.45312 60.072914Q283.10938 60.572914 283.29688 61.52604L282.26562 61.68229Q282.125 61.05729 281.75 60.74479Q281.375 60.416664 280.84375 60.416664Q280.04688 60.416664 279.54688 60.99479Q279.04688 61.55729 279.04688 62.791664Q279.04688 64.05729 279.53125 64.61979Q280.01562 65.18229 280.78125 65.18229Q281.40625 65.18229 281.8125 64.80729Q282.23438 64.43229 282.35938 63.635414ZM284.29688 65.916664L284.29688 57.322914L285.34375 57.322914L285.34375 60.40104Q286.07812 59.55729 287.20312 59.55729Q287.90625 59.55729 288.40625 59.83854Q288.92188 60.104164 289.14062 60.58854Q289.35938 61.05729 289.35938 61.979164L289.35938 65.916664L288.3125 65.916664L288.3125 61.979164Q288.3125 61.18229 287.96875 60.822914Q287.625 60.46354 287.0 60.46354Q286.53125 60.46354 286.10938 60.71354Q285.70312 60.947914 285.51562 61.36979Q285.34375 61.77604 285.34375 62.510414L285.34375 65.916664L284.29688 65.916664ZM295.54688 63.916664L296.64062 64.041664Q296.39062 64.99479 295.6875 65.52604Q294.98438 66.05729 293.90625 66.05729Q292.54688 66.05729 291.73438 65.21354Q290.9375 64.36979 290.9375 62.854164Q290.9375 61.291664 291.75 60.43229Q292.5625 59.55729 293.84375 59.55729Q295.09375 59.55729 295.875 60.40104Q296.67188 61.24479 296.67188 62.791664Q296.67188 62.885414 296.67188 63.072914L292.03125 63.072914Q292.09375 64.104164 292.60938 64.65104Q293.125 65.18229 293.90625 65.18229Q294.48438 65.18229 294.89062 64.885414Q295.3125 64.572914 295.54688 63.916664ZM292.09375 62.21354L295.5625 62.21354Q295.5 61.416664 295.17188 61.02604Q294.65625 60.416664 293.85938 60.416664Q293.125 60.416664 292.625 60.90104Q292.14062 61.385414 292.09375 62.21354ZM302.32812 65.916664L302.32812 65.135414Q301.73438 66.05729 300.59375 66.05729Q299.84375 66.05729 299.21875 65.65104Q298.59375 65.229164 298.25 64.49479Q297.90625 63.760414 297.90625 62.80729Q297.90625 61.885414 298.21875 61.11979Q298.53125 60.354164 299.15625 59.96354Q299.78125 59.55729 300.54688 59.55729Q301.10938 59.55729 301.54688 59.791664Q301.98438 60.02604 302.26562 60.40104L302.26562 57.322914L303.3125 57.322914L303.3125 65.916664L302.32812 65.916664ZM299.0 62.80729Q299.0 64.010414 299.5 64.604164Q300.0 65.18229 300.6875 65.18229Q301.375 65.18229 301.85938 64.61979Q302.34375 64.05729 302.34375 62.90104Q302.34375 61.61979 301.84375 61.02604Q301.35938 60.43229 300.64062 60.43229Q299.9375 60.43229 299.46875 61.010414Q299.0 61.572914 299.0 62.80729Z" fill-rule="nonzero"/><path fill="#757575" d="M97.140625 37.55L100.9375 32.159374L97.4375 27.175L99.625 27.175L101.21875 29.6125Q101.671875 30.3 101.9375 30.76875Q102.375 30.128124 102.734375 29.628124L104.484375 27.175L106.578125 27.175L103.0 32.065624L106.859375 37.55L104.703125 37.55L102.5625 34.33125L102.0 33.45625L99.28125 37.55L97.140625 37.55ZM109.53125 29.784374Q108.4375 29.378124 107.90625 28.64375Q107.390625 27.89375 107.390625 26.8625Q107.390625 25.3 108.515625 24.2375Q109.640625 23.175 111.5 23.175Q113.375 23.175 114.515625 24.26875Q115.65625 25.346874 115.65625 26.909374Q115.65625 27.909374 115.125 28.64375Q114.609375 29.378124 113.546875 29.784374Q114.875 30.221874 115.5625 31.175Q116.25 32.128124 116.25 33.45625Q116.25 35.3 114.9375 36.55Q113.640625 37.8 111.53125 37.8Q109.40625 37.8 108.109375 36.55Q106.8125 35.284374 106.8125 33.409374Q106.8125 32.01875 107.515625 31.08125Q108.234375 30.128124 109.53125 29.784374ZM109.1875 26.8Q109.1875 27.815624 109.84375 28.471874Q110.5 29.1125 111.53125 29.1125Q112.546875 29.1125 113.203125 28.471874Q113.859375 27.83125 113.859375 26.909374Q113.859375 25.940624 113.1875 25.284374Q112.515625 24.6125 111.515625 24.6125Q110.515625 24.6125 109.84375 25.26875Q109.1875 25.909374 109.1875 26.8ZM108.625 33.425Q108.625 34.175 108.96875 34.878124Q109.328125 35.58125 110.03125 35.971874Q110.734375 36.346874 111.546875 36.346874Q112.8125 36.346874 113.625 35.534374Q114.453125 34.721874 114.453125 33.471874Q114.453125 32.20625 113.609375 31.378124Q112.765625 30.55 111.484375 30.55Q110.25 30.55 109.4375 31.378124Q108.625 32.190624 108.625 33.425ZM126.953125 26.7375L125.203125 26.878124Q124.96875 25.846874 124.546875 25.378124Q123.828125 24.6125 122.78125 24.6125Q121.9375 24.6125 121.3125 25.08125Q120.484375 25.690624 120.0 26.8625Q119.515625 28.01875 119.5 30.159374Q120.140625 29.20625 121.046875 28.7375Q121.96875 28.26875 122.984375 28.26875Q124.734375 28.26875 125.96875 29.565624Q127.203125 30.846874 127.203125 32.89375Q127.203125 34.253124 126.625 35.409374Q126.046875 36.565624 125.03125 37.190624Q124.015625 37.8 122.71875 37.8Q120.53125 37.8 119.140625 36.190624Q117.75 34.565624 117.75 30.846874Q117.75 26.70625 119.28125 24.815624Q120.625 23.175 122.890625 23.175Q124.578125 23.175 125.65625 24.128124Q126.734375 25.065624 126.953125 26.7375ZM119.78125 32.909374Q119.78125 33.815624 120.15625 34.64375Q120.546875 35.471874 121.234375 35.909374Q121.9375 36.346874 122.6875 36.346874Q123.8125 36.346874 124.609375 35.45625Q125.40625 34.55 125.40625 33.003124Q125.40625 31.51875 124.609375 30.675Q123.828125 29.815624 122.625 29.815624Q121.4375 29.815624 120.609375 30.675Q119.78125 31.51875 119.78125 32.909374ZM138.20312 37.55L134.25 27.175L136.10938 27.175L138.34375 33.39375Q138.70312 34.39375 139.0 35.471874Q139.23438 34.659374 139.65625 33.503124L141.95312 27.175L143.76562 27.175L139.84375 37.55L138.20312 37.55ZM144.28125 37.55L144.28125 23.2375L146.03125 23.2375L146.03125 37.55L144.28125 37.55ZM155.42188 34.20625L157.23438 34.440624Q156.8125 36.01875 155.64062 36.909374Q154.48438 37.784374 152.67188 37.784374Q150.40625 37.784374 149.0625 36.39375Q147.73438 34.9875 147.73438 32.45625Q147.73438 29.83125 149.07812 28.39375Q150.42188 26.940624 152.57812 26.940624Q154.65625 26.940624 155.96875 28.3625Q157.29688 29.76875 157.29688 32.346874Q157.29688 32.503124 157.28125 32.815624L149.54688 32.815624Q149.64062 34.51875 150.51562 35.425Q151.39062 36.33125 152.6875 36.33125Q153.65625 36.33125 154.32812 35.83125Q155.01562 35.315624 155.42188 34.20625ZM149.64062 31.3625L155.4375 31.3625Q155.32812 30.065624 154.78125 29.409374Q153.9375 28.39375 152.59375 28.39375Q151.39062 28.39375 150.5625 29.20625Q149.73438 30.003124 149.64062 31.3625ZM161.53125 29.784374Q160.4375 29.378124 159.90625 28.64375Q159.39062 27.89375 159.39062 26.8625Q159.39062 25.3 160.51562 24.2375Q161.64062 23.175 163.5 23.175Q165.375 23.175 166.51562 24.26875Q167.65625 25.346874 167.65625 26.909374Q167.65625 27.909374 167.125 28.64375Q166.60938 29.378124 165.54688 29.784374Q166.875 30.221874 167.5625 31.175Q168.25 32.128124 168.25 33.45625Q168.25 35.3 166.9375 36.55Q165.64062 37.8 163.53125 37.8Q161.40625 37.8 160.10938 36.55Q158.8125 35.284374 158.8125 33.409374Q158.8125 32.01875 159.51562 31.08125Q160.23438 30.128124 161.53125 29.784374ZM161.1875 26.8Q161.1875 27.815624 161.84375 28.471874Q162.5 29.1125 163.53125 29.1125Q164.54688 29.1125 165.20312 28.471874Q165.85938 27.83125 165.85938 26.909374Q165.85938 25.940624 165.1875 25.284374Q164.51562 24.6125 163.51562 24.6125Q162.51562 24.6125 161.84375 25.26875Q161.1875 25.909374 161.1875 26.8ZM160.625 33.425Q160.625 34.175 160.96875 34.878124Q161.32812 35.58125 162.03125 35.971874Q162.73438 36.346874 163.54688 36.346874Q164.8125 36.346874 165.625 35.534374Q166.45312 34.721874 166.45312 33.471874Q166.45312 32.20625 165.60938 31.378124Q164.76562 30.55 163.48438 30.55Q162.25 30.55 161.4375 31.378124Q160.625 32.190624 160.625 33.425ZM170.8125 37.55L170.8125 35.55L172.8125 35.55L172.8125 37.55L170.8125 37.55ZM179.20312 37.55L175.25 27.175L177.10938 27.175L179.34375 33.39375Q179.70312 34.39375 180.0 35.471874Q180.23438 34.659374 180.65625 33.503124L182.95312 27.175L184.76562 27.175L180.84375 37.55L179.20312 37.55ZM190.60938 34.45625L192.35938 34.175Q192.5 35.221874 193.17188 35.784374Q193.84375 36.33125 195.04688 36.33125Q196.25 36.33125 196.82812 35.846874Q197.42188 35.346874 197.42188 34.690624Q197.42188 34.096874 196.90625 33.753124Q196.54688 33.51875 195.10938 33.159374Q193.17188 32.659374 192.42188 32.315624Q191.6875 31.95625 191.29688 31.33125Q190.90625 30.690624 190.90625 29.925Q190.90625 29.2375 191.21875 28.64375Q191.54688 28.05 192.09375 27.659374Q192.5 27.3625 193.20312 27.159374Q193.92188 26.940624 194.73438 26.940624Q195.95312 26.940624 196.875 27.3Q197.79688 27.64375 198.23438 28.253124Q198.67188 28.846874 198.84375 29.846874L197.125 30.08125Q197.0 29.284374 196.4375 28.846874Q195.875 28.39375 194.85938 28.39375Q193.64062 28.39375 193.125 28.8Q192.60938 29.190624 192.60938 29.721874Q192.60938 30.065624 192.82812 30.346874Q193.03125 30.628124 193.5 30.815624Q193.76562 30.909374 195.04688 31.253124Q196.92188 31.753124 197.65625 32.08125Q198.39062 32.39375 198.8125 33.003124Q199.23438 33.596874 199.23438 34.503124Q199.23438 35.378124 198.71875 36.159374Q198.20312 36.940624 197.23438 37.3625Q196.26562 37.784374 195.04688 37.784374Q193.03125 37.784374 191.96875 36.940624Q190.90625 36.096874 190.60938 34.45625ZM201.3125 41.51875L201.3125 27.175L202.92188 27.175L202.92188 28.51875Q203.48438 27.7375 204.1875 27.346874Q204.90625 26.940624 205.92188 26.940624Q207.25 26.940624 208.26562 27.628124Q209.28125 28.315624 209.79688 29.565624Q210.32812 30.8 210.32812 32.284374Q210.32812 33.878124 209.75 35.159374Q209.1875 36.425 208.09375 37.1125Q207.0 37.784374 205.79688 37.784374Q204.92188 37.784374 204.21875 37.409374Q203.53125 37.034374 203.07812 36.471874L203.07812 41.51875L201.3125 41.51875ZM202.90625 32.425Q202.90625 34.425 203.71875 35.378124Q204.53125 36.33125 205.6875 36.33125Q206.85938 36.33125 207.6875 35.346874Q208.53125 34.3625 208.53125 32.26875Q208.53125 30.3 207.70312 29.315624Q206.89062 28.315624 205.76562 28.315624Q204.64062 28.315624 203.76562 29.378124Q202.90625 30.425 202.90625 32.425ZM219.42188 34.20625L221.23438 34.440624Q220.8125 36.01875 219.64062 36.909374Q218.48438 37.784374 216.67188 37.784374Q214.40625 37.784374 213.0625 36.39375Q211.73438 34.9875 211.73438 32.45625Q211.73438 29.83125 213.07812 28.39375Q214.42188 26.940624 216.57812 26.940624Q218.65625 26.940624 219.96875 28.3625Q221.29688 29.76875 221.29688 32.346874Q221.29688 32.503124 221.28125 32.815624L213.54688 32.815624Q213.64062 34.51875 214.51562 35.425Q215.39062 36.33125 216.6875 36.33125Q217.65625 36.33125 218.32812 35.83125Q219.01562 35.315624 219.42188 34.20625ZM213.64062 31.3625L219.4375 31.3625Q219.32812 30.065624 218.78125 29.409374Q217.9375 28.39375 216.59375 28.39375Q215.39062 28.39375 214.5625 29.20625Q213.73438 30.003124 213.64062 31.3625ZM230.42188 34.20625L232.23438 34.440624Q231.8125 36.01875 230.64062 36.909374Q229.48438 37.784374 227.67188 37.784374Q225.40625 37.784374 224.0625 36.39375Q222.73438 34.9875 222.73438 32.45625Q222.73438 29.83125 224.07812 28.39375Q225.42188 26.940624 227.57812 26.940624Q229.65625 26.940624 230.96875 28.3625Q232.29688 29.76875 232.29688 32.346874Q232.29688 32.503124 232.28125 32.815624L224.54688 32.815624Q224.64062 34.51875 225.51562 35.425Q226.39062 36.33125 227.6875 36.33125Q228.65625 36.33125 229.32812 35.83125Q230.01562 35.315624 230.42188 34.20625ZM224.64062 31.3625L230.4375 31.3625Q230.32812 30.065624 229.78125 29.409374Q228.9375 28.39375 227.59375 28.39375Q226.39062 28.39375 225.5625 29.20625Q224.73438 30.003124 224.64062 31.3625ZM241.04688 37.55L241.04688 36.2375Q240.0625 37.784374 238.14062 37.784374Q236.90625 37.784374 235.85938 37.096874Q234.82812 36.409374 234.25 35.190624Q233.6875 33.971874 233.6875 32.378124Q233.6875 30.815624 234.20312 29.55Q234.71875 28.284374 235.75 27.6125Q236.79688 26.940624 238.0625 26.940624Q239.0 26.940624 239.73438 27.346874Q240.46875 27.7375 240.9375 28.3625L240.9375 23.2375L242.67188 23.2375L242.67188 37.55L241.04688 37.55ZM235.48438 32.378124Q235.48438 34.3625 236.32812 35.346874Q237.17188 36.33125 238.3125 36.33125Q239.46875 36.33125 240.26562 35.39375Q241.07812 34.45625 241.07812 32.51875Q241.07812 30.39375 240.25 29.39375Q239.4375 28.39375 238.23438 28.39375Q237.0625 28.39375 236.26562 29.3625Q235.48438 30.315624 235.48438 32.378124ZM252.10938 37.55L252.10938 36.01875Q250.90625 37.784374 248.82812 37.784374Q247.90625 37.784374 247.10938 37.440624Q246.3125 37.08125 245.92188 36.55Q245.54688 36.01875 245.39062 35.2375Q245.28125 34.721874 245.28125 33.596874L245.28125 27.175L247.03125 27.175L247.03125 32.925Q247.03125 34.3 247.14062 34.784374Q247.3125 35.471874 247.84375 35.878124Q248.39062 36.26875 249.17188 36.26875Q249.96875 36.26875 250.65625 35.8625Q251.35938 35.45625 251.64062 34.76875Q251.9375 34.065624 251.9375 32.7375L251.9375 27.175L253.6875 27.175L253.6875 37.55L252.10938 37.55ZM255.3125 41.51875L255.3125 27.175L256.92188 27.175L256.92188 28.51875Q257.48438 27.7375 258.1875 27.346874Q258.90625 26.940624 259.92188 26.940624Q261.25 26.940624 262.26562 27.628124Q263.28125 28.315624 263.79688 29.565624Q264.32812 30.8 264.32812 32.284374Q264.32812 33.878124 263.75 35.159374Q263.1875 36.425 262.09375 37.1125Q261.0 37.784374 259.79688 37.784374Q258.92188 37.784374 258.21875 37.409374Q257.53125 37.034374 257.07812 36.471874L257.07812 41.51875L255.3125 41.51875ZM256.90625 32.425Q256.90625 34.425 257.71875 35.378124Q258.53125 36.33125 259.6875 36.33125Q260.85938 36.33125 261.6875 35.346874Q262.53125 34.3625 262.53125 32.26875Q262.53125 30.3 261.70312 29.315624Q260.89062 28.315624 259.76562 28.315624Q258.64062 28.315624 257.76562 29.378124Q256.90625 30.425 256.90625 32.425ZM276.64062 37.55L271.09375 23.2375L273.14062 23.2375L276.85938 33.628124Q277.3125 34.878124 277.60938 35.971874Q277.9375 34.8 278.39062 33.628124L282.25 23.2375L284.1875 23.2375L278.57812 37.55L276.64062 37.55ZM285.46875 37.55L285.46875 23.2375L287.35938 23.2375L287.35938 35.8625L294.40625 35.8625L294.40625 37.55L285.46875 37.55ZM296.57812 37.55L296.57812 23.2375L306.9375 23.2375L306.9375 24.925L298.48438 24.925L298.48438 29.3L306.39062 29.3L306.39062 30.9875L298.48438 30.9875L298.48438 35.8625L307.26562 35.8625L307.26562 37.55L296.57812 37.55ZM309.53125 37.55L309.53125 23.2375L311.46875 23.2375L318.98438 34.471874L318.98438 23.2375L320.79688 23.2375L320.79688 37.55L318.85938 37.55L311.34375 26.3L311.34375 37.55L309.53125 37.55ZM331.5625 29.128124L322.10938 29.128124L322.10938 27.4875L331.5625 27.4875L331.5625 29.128124ZM331.5625 33.471874L322.10938 33.471874L322.10938 31.83125L331.5625 31.83125L331.5625 33.471874ZM340.45312 37.55L338.6875 37.55L338.6875 26.346874Q338.0625 26.95625 337.03125 27.565624Q336.0 28.159374 335.17188 28.471874L335.17188 26.76875Q336.65625 26.08125 337.75 25.096874Q338.85938 24.096874 339.3125 23.175L340.45312 23.175L340.45312 37.55ZM354.0625 35.8625L354.0625 37.55L344.60938 37.55Q344.59375 36.909374 344.8125 36.33125Q345.17188 35.3625 345.96875 34.425Q346.76562 33.4875 348.26562 32.253124Q350.60938 30.346874 351.42188 29.2375Q352.25 28.1125 352.25 27.1125Q352.25 26.065624 351.5 25.346874Q350.75 24.628124 349.54688 24.628124Q348.28125 24.628124 347.51562 25.39375Q346.75 26.159374 346.75 27.503124L344.9375 27.315624Q345.125 25.3 346.32812 24.2375Q347.54688 23.175 349.59375 23.175Q351.64062 23.175 352.84375 24.315624Q354.04688 25.45625 354.04688 27.14375Q354.04688 28.003124 353.6875 28.846874Q353.34375 29.675 352.53125 30.596874Q351.71875 31.503124 349.82812 33.1125Q348.23438 34.440624 347.78125 34.909374Q347.34375 35.378124 347.04688 35.8625L354.0625 35.8625ZM358.53125 29.784374Q357.4375 29.378124 356.90625 28.64375Q356.39062 27.89375 356.39062 26.8625Q356.39062 25.3 357.51562 24.2375Q358.64062 23.175 360.5 23.175Q362.375 23.175 363.51562 24.26875Q364.65625 25.346874 364.65625 26.909374Q364.65625 27.909374 364.125 28.64375Q363.60938 29.378124 362.54688 29.784374Q363.875 30.221874 364.5625 31.175Q365.25 32.128124 365.25 33.45625Q365.25 35.3 363.9375 36.55Q362.64062 37.8 360.53125 37.8Q358.40625 37.8 357.10938 36.55Q355.8125 35.284374 355.8125 33.409374Q355.8125 32.01875 356.51562 31.08125Q357.23438 30.128124 358.53125 29.784374ZM358.1875 26.8Q358.1875 27.815624 358.84375 28.471874Q359.5 29.1125 360.53125 29.1125Q361.54688 29.1125 362.20312 28.471874Q362.85938 27.83125 362.85938 26.909374Q362.85938 25.940624 362.1875 25.284374Q361.51562 24.6125 360.51562 24.6125Q359.51562 24.6125 358.84375 25.26875Q358.1875 25.909374 358.1875 26.8ZM357.625 33.425Q357.625 34.175 357.96875 34.878124Q358.32812 35.58125 359.03125 35.971874Q359.73438 36.346874 360.54688 36.346874Q361.8125 36.346874 362.625 35.534374Q363.45312 34.721874 363.45312 33.471874Q363.45312 32.20625 362.60938 31.378124Q361.76562 30.55 360.48438 30.55Q359.25 30.55 358.4375 31.378124Q357.625 32.190624 357.625 33.425ZM373.46875 37.55L373.46875 23.2375L375.35938 23.2375L375.35938 35.8625L382.40625 35.8625L382.40625 37.55L373.46875 37.55ZM384.48438 37.55L384.48438 23.2375L387.34375 23.2375L390.71875 33.3625Q391.1875 34.784374 391.40625 35.4875Q391.65625 34.70625 392.17188 33.190624L395.59375 23.2375L398.14062 23.2375L398.14062 37.55L396.32812 37.55L396.32812 25.565624L392.15625 37.55L390.45312 37.55L386.3125 25.3625L386.3125 37.55L384.48438 37.55ZM410.9375 23.2375L412.82812 23.2375L412.82812 31.503124Q412.82812 33.659374 412.34375 34.940624Q411.85938 36.20625 410.57812 37.003124Q409.3125 37.8 407.23438 37.8Q405.21875 37.8 403.9375 37.1125Q402.67188 36.409374 402.125 35.096874Q401.57812 33.784374 401.57812 31.503124L401.57812 23.2375L403.46875 23.2375L403.46875 31.4875Q403.46875 33.3625 403.8125 34.253124Q404.15625 35.128124 405.0 35.6125Q405.84375 36.08125 407.07812 36.08125Q409.15625 36.08125 410.04688 35.14375Q410.9375 34.190624 410.9375 31.4875L410.9375 23.2375ZM414.46875 37.55L414.46875 23.2375L416.35938 23.2375L416.35938 35.8625L423.40625 35.8625L423.40625 37.55L414.46875 37.55ZM434.5625 29.128124L425.10938 29.128124L425.10938 27.4875L434.5625 27.4875L434.5625 29.128124ZM434.5625 33.471874L425.10938 33.471874L425.10938 31.83125L434.5625 31.83125L434.5625 33.471874ZM443.45312 37.55L441.6875 37.55L441.6875 26.346874Q441.0625 26.95625 440.03125 27.565624Q439.0 28.159374 438.17188 28.471874L438.17188 26.76875Q439.65625 26.08125 440.75 25.096874Q441.85938 24.096874 442.3125 23.175L443.45312 23.175L443.45312 37.55Z" fill-rule="nonzero"/></svg>