<svg version="1.1" viewBox="0.0 0.0 544.0 371.0" fill="none" stroke="none" stroke-linecap="square" stroke-miterlimit="10" width="544" height="371" xmlns:xlink="http://www.w3.org/1999/xlink" xmlns="http://www.w3.org/2000/svg"><path fill="#ffffff" d="M0 0L544.0 0L544.0 371.0L0 371.0L0 0Z" fill-rule="nonzero"/><path stroke="#cccccc" stroke-width="1.0" stroke-linecap="butt" d="M87.5 88.5L87.5 300.5" fill-rule="nonzero"/><path stroke="#cccccc" stroke-width="1.0" stroke-linecap="butt" d="M198.5 88.5L198.5 300.5" fill-rule="nonzero"/><path stroke="#cccccc" stroke-width="1.0" stroke-linecap="butt" d="M308.5 88.5L308.5 300.5" fill-rule="nonzero"/><path stroke="#cccccc" stroke-width="1.0" stroke-linecap="butt" d="M419.5 88.5L419.5 300.5" fill-rule="nonzero"/><path stroke="#333333" stroke-width="1.0" stroke-linecap="butt" d="M87.5 300.5L525.5 300.5" fill-rule="nonzero"/><path stroke="#cccccc" stroke-width="1.0" stroke-linecap="butt" d="M87.5 247.5L525.5 247.5" fill-rule="nonzero"/><path stroke="#cccccc" stroke-width="1.0" stroke-linecap="butt" d="M87.5 194.5L525.5 194.5" fill-rule="nonzero"/><path stroke="#cccccc" stroke-width="1.0" stroke-linecap="butt" d="M87.5 141.5L525.5 141.5" fill-rule="nonzero"/><path stroke="#cccccc" stroke-width="1.0" stroke-linecap="butt" d="M87.5 88.5L525.5 88.5" fill-rule="nonzero"/><clipPath id="id_0"><path d="M87.55 88.28333L525.45 88.28333L525.45 300.45L87.55 300.45L87.55 88.28333Z" clip-rule="nonzero"/></clipPath><path stroke="#4285f4" stroke-width="2.0" stroke-linecap="butt" clip-path="url(#id_0)" d="M87.55 138.54774L120.84499 138.54774L140.32132 138.54774L154.14 138.54774L164.85858 132.96457L173.61632 132.96457L181.02087 144.1309L187.43498 132.96457L193.09264 138.54774L198.15358 132.95715L202.73177 116.20765L206.91132 138.54031L210.75613 138.54031L214.31587 144.12347L217.62991 132.95715L220.72998 132.95715L223.64206 133.17038L226.38763 133.17038L228.98473 133.17038L231.44858 137.25034L233.79219 137.25034L236.02676 141.3303L238.16197 137.25034L240.20631 133.17038L242.16718 129.09041L244.05112 133.17038L245.86397 133.17038L247.61087 133.17038L249.29646 133.17038L250.92491 129.09041L252.49995 141.3303L254.02498 133.17038L255.50308 130.07805L256.93704 130.07805L258.32947 133.29237L268.21747 130.07805L274.49173 130.71985L275.46216 122.763596L276.4134 136.02402L277.34613 133.37193L278.26108 128.06776L283.41257 133.37193L284.2199 130.71985L285.0139 128.06776L285.79495 130.71985L286.5635 133.37193L287.31998 138.6761L288.06473 131.1707L288.7981 131.1707L289.52042 128.9143L297.43436 131.1707L320.23822 136.64778L320.61496 136.64778L320.9888 133.54803L321.3597 130.7188L321.72778 132.13394L322.09308 134.96213L322.4556 132.13394L341.3262 130.51299L353.90997 126.7831L358.38568 132.10211L387.20496 129.63885L395.85312 130.34537L420.49997 128.41147L441.30252 131.46986L453.79495 188.64241L470.45392 266.38135L487.08997 297.68652L497.44125 297.6059L520.38495 297.61758L525.45 297.6091" fill-rule="nonzero"/><path fill="#000000" fill-opacity="0.0" clip-path="url(#id_0)" d="M90.55 138.54774C90.55 140.20459 89.206856 141.54774 87.55 141.54774C85.89314 141.54774 84.55 140.20459 84.55 138.54774C84.55 136.89088 85.89314 135.54774 87.55 135.54774C89.206856 135.54774 90.55 136.89088 90.55 138.54774Z" fill-rule="nonzero"/><path fill="#000000" fill-opacity="0.0" clip-path="url(#id_0)" d="M123.84499 138.54774C123.84499 140.20459 122.501854 141.54774 120.84499 141.54774C119.18814 141.54774 117.84499 140.20459 117.84499 138.54774C117.84499 136.89088 119.18814 135.54774 120.84499 135.54774C122.501854 135.54774 123.84499 136.89088 123.84499 138.54774Z" fill-rule="nonzero"/><path fill="#000000" fill-opacity="0.0" clip-path="url(#id_0)" d="M143.32132 138.54774C143.32132 140.20459 141.97818 141.54774 140.32132 141.54774C138.66446 141.54774 137.32132 140.20459 137.32132 138.54774C137.32132 136.89088 138.66446 135.54774 140.32132 135.54774C141.97818 135.54774 143.32132 136.89088 143.32132 138.54774Z" fill-rule="nonzero"/><path fill="#000000" fill-opacity="0.0" clip-path="url(#id_0)" d="M157.14 138.54774C157.14 140.20459 155.79684 141.54774 154.14 141.54774C152.48314 141.54774 151.14 140.20459 151.14 138.54774C151.14 136.89088 152.48314 135.54774 154.14 135.54774C155.79684 135.54774 157.14 136.89088 157.14 138.54774Z" fill-rule="nonzero"/><path fill="#000000" fill-opacity="0.0" clip-path="url(#id_0)" d="M167.85858 132.96457C167.85858 134.62143 166.51544 135.96457 164.85858 135.96457C163.20174 135.96457 161.85858 134.62143 161.85858 132.96457C161.85858 131.30772 163.20174 129.96457 164.85858 129.96457C166.51544 129.96457 167.85858 131.30772 167.85858 132.96457Z" fill-rule="nonzero"/><path fill="#000000" fill-opacity="0.0" clip-path="url(#id_0)" d="M176.61632 132.96457C176.61632 134.62143 175.27318 135.96457 173.61632 135.96457C171.95946 135.96457 170.61632 134.62143 170.61632 132.96457C170.61632 131.30772 171.95946 129.96457 173.61632 129.96457C175.27318 129.96457 176.61632 131.30772 176.61632 132.96457Z" fill-rule="nonzero"/><path fill="#000000" fill-opacity="0.0" clip-path="url(#id_0)" d="M184.02087 144.1309C184.02087 145.78777 182.67772 147.1309 181.02087 147.1309C179.36401 147.1309 178.02087 145.78777 178.02087 144.1309C178.02087 142.47404 179.36401 141.1309 181.02087 141.1309C182.67772 141.1309 184.02087 142.47404 184.02087 144.1309Z" fill-rule="nonzero"/><path fill="#000000" fill-opacity="0.0" clip-path="url(#id_0)" d="M190.43498 132.96457C190.43498 134.62143 189.09184 135.96457 187.43498 135.96457C185.77814 135.96457 184.43498 134.62143 184.43498 132.96457C184.43498 131.30772 185.77814 129.96457 187.43498 129.96457C189.09184 129.96457 190.43498 131.30772 190.43498 132.96457Z" fill-rule="nonzero"/><path fill="#000000" fill-opacity="0.0" clip-path="url(#id_0)" d="M196.09264 138.54774C196.09264 140.20459 194.7495 141.54774 193.09264 141.54774C191.43579 141.54774 190.09264 140.20459 190.09264 138.54774C190.09264 136.89088 191.43579 135.54774 193.09264 135.54774C194.7495 135.54774 196.09264 136.89088 196.09264 138.54774Z" fill-rule="nonzero"/><path fill="#000000" fill-opacity="0.0" clip-path="url(#id_0)" d="M201.15358 132.95715C201.15358 134.614 199.81044 135.95715 198.15358 135.95715C196.49673 135.95715 195.15358 134.614 195.15358 132.95715C195.15358 131.3003 196.49673 129.95715 198.15358 129.95715C199.81044 129.95715 201.15358 131.3003 201.15358 132.95715Z" fill-rule="nonzero"/><path fill="#000000" fill-opacity="0.0" clip-path="url(#id_0)" d="M205.73177 116.20765C205.73177 117.8645 204.38861 119.20765 202.73177 119.20765C201.0749 119.20765 199.73177 117.8645 199.73177 116.20765C199.73177 114.5508 201.0749 113.20765 202.73177 113.20765C204.38861 113.20765 205.73177 114.5508 205.73177 116.20765Z" fill-rule="nonzero"/><path fill="#000000" fill-opacity="0.0" clip-path="url(#id_0)" d="M209.91132 138.54031C209.91132 140.19717 208.56816 141.54031 206.91132 141.54031C205.25446 141.54031 203.91132 140.19717 203.91132 138.54031C203.91132 136.88345 205.25446 135.54031 206.91132 135.54031C208.56816 135.54031 209.91132 136.88345 209.91132 138.54031Z" fill-rule="nonzero"/><path fill="#000000" fill-opacity="0.0" clip-path="url(#id_0)" d="M213.75613 138.54031C213.75613 140.19717 212.41298 141.54031 210.75613 141.54031C209.09927 141.54031 207.75613 140.19717 207.75613 138.54031C207.75613 136.88345 209.09927 135.54031 210.75613 135.54031C212.41298 135.54031 213.75613 136.88345 213.75613 138.54031Z" fill-rule="nonzero"/><path fill="#000000" fill-opacity="0.0" clip-path="url(#id_0)" d="M217.31587 144.12347C217.31587 145.78033 215.97272 147.12347 214.31587 147.12347C212.65901 147.12347 211.31587 145.78033 211.31587 144.12347C211.31587 142.46663 212.65901 141.12347 214.31587 141.12347C215.97272 141.12347 217.31587 142.46663 217.31587 144.12347Z" fill-rule="nonzero"/><path fill="#000000" fill-opacity="0.0" clip-path="url(#id_0)" d="M220.62991 132.95715C220.62991 134.614 219.28676 135.95715 217.62991 135.95715C215.97305 135.95715 214.62991 134.614 214.62991 132.95715C214.62991 131.3003 215.97305 129.95715 217.62991 129.95715C219.28676 129.95715 220.62991 131.3003 220.62991 132.95715Z" fill-rule="nonzero"/><path fill="#000000" fill-opacity="0.0" clip-path="url(#id_0)" d="M223.72998 132.95715C223.72998 134.614 222.38684 135.95715 220.72998 135.95715C219.07314 135.95715 217.72998 134.614 217.72998 132.95715C217.72998 131.3003 219.07314 129.95715 220.72998 129.95715C222.38684 129.95715 223.72998 131.3003 223.72998 132.95715Z" fill-rule="nonzero"/><path fill="#000000" fill-opacity="0.0" clip-path="url(#id_0)" d="M226.64206 133.17038C226.64206 134.82722 225.29892 136.17038 223.64206 136.17038C221.9852 136.17038 220.64206 134.82722 220.64206 133.17038C220.64206 131.51352 221.9852 130.17038 223.64206 130.17038C225.29892 130.17038 226.64206 131.51352 226.64206 133.17038Z" fill-rule="nonzero"/><path fill="#000000" fill-opacity="0.0" clip-path="url(#id_0)" d="M229.38763 133.17038C229.38763 134.82722 228.0445 136.17038 226.38763 136.17038C224.73079 136.17038 223.38763 134.82722 223.38763 133.17038C223.38763 131.51352 224.73079 130.17038 226.38763 130.17038C228.0445 130.17038 229.38763 131.51352 229.38763 133.17038Z" fill-rule="nonzero"/><path fill="#000000" fill-opacity="0.0" clip-path="url(#id_0)" d="M231.98473 133.17038C231.98473 134.82722 230.64159 136.17038 228.98473 136.17038C227.32788 136.17038 225.98473 134.82722 225.98473 133.17038C225.98473 131.51352 227.32788 130.17038 228.98473 130.17038C230.64159 130.17038 231.98473 131.51352 231.98473 133.17038Z" fill-rule="nonzero"/><path fill="#000000" fill-opacity="0.0" clip-path="url(#id_0)" d="M234.44858 137.25034C234.44858 138.9072 233.10544 140.25034 231.44858 140.25034C229.79173 140.25034 228.44858 138.9072 228.44858 137.25034C228.44858 135.59349 229.79173 134.25034 231.44858 134.25034C233.10544 134.25034 234.44858 135.59349 234.44858 137.25034Z" fill-rule="nonzero"/><path fill="#000000" fill-opacity="0.0" clip-path="url(#id_0)" d="M236.79219 137.25034C236.79219 138.9072 235.44905 140.25034 233.79219 140.25034C232.13535 140.25034 230.79219 138.9072 230.79219 137.25034C230.79219 135.59349 232.13535 134.25034 233.79219 134.25034C235.44905 134.25034 236.79219 135.59349 236.79219 137.25034Z" fill-rule="nonzero"/><path fill="#000000" fill-opacity="0.0" clip-path="url(#id_0)" d="M239.02676 141.3303C239.02676 142.98715 237.68361 144.3303 236.02676 144.3303C234.3699 144.3303 233.02676 142.98715 233.02676 141.3303C233.02676 139.67345 234.3699 138.3303 236.02676 138.3303C237.68361 138.3303 239.02676 139.67345 239.02676 141.3303Z" fill-rule="nonzero"/><path fill="#000000" fill-opacity="0.0" clip-path="url(#id_0)" d="M241.16197 137.25034C241.16197 138.9072 239.81883 140.25034 238.16197 140.25034C236.50513 140.25034 235.16197 138.9072 235.16197 137.25034C235.16197 135.59349 236.50513 134.25034 238.16197 134.25034C239.81883 134.25034 241.16197 135.59349 241.16197 137.25034Z" fill-rule="nonzero"/><path fill="#000000" fill-opacity="0.0" clip-path="url(#id_0)" d="M243.20631 133.17038C243.20631 134.82722 241.86316 136.17038 240.20631 136.17038C238.54945 136.17038 237.20631 134.82722 237.20631 133.17038C237.20631 131.51352 238.54945 130.17038 240.20631 130.17038C241.86316 130.17038 243.20631 131.51352 243.20631 133.17038Z" fill-rule="nonzero"/><path fill="#000000" fill-opacity="0.0" clip-path="url(#id_0)" d="M245.16718 129.09041C245.16718 130.74727 243.82404 132.09041 242.16718 132.09041C240.51031 132.09041 239.16718 130.74727 239.16718 129.09041C239.16718 127.433556 240.51031 126.09041 242.16718 126.09041C243.82404 126.09041 245.16718 127.433556 245.16718 129.09041Z" fill-rule="nonzero"/><path fill="#000000" fill-opacity="0.0" clip-path="url(#id_0)" d="M247.05112 133.17038C247.05112 134.82722 245.70798 136.17038 244.05112 136.17038C242.39427 136.17038 241.05112 134.82722 241.05112 133.17038C241.05112 131.51352 242.39427 130.17038 244.05112 130.17038C245.70798 130.17038 247.05112 131.51352 247.05112 133.17038Z" fill-rule="nonzero"/><path fill="#000000" fill-opacity="0.0" clip-path="url(#id_0)" d="M248.86397 133.17038C248.86397 134.82722 247.52081 136.17038 245.86397 136.17038C244.2071 136.17038 242.86397 134.82722 242.86397 133.17038C242.86397 131.51352 244.2071 130.17038 245.86397 130.17038C247.52081 130.17038 248.86397 131.51352 248.86397 133.17038Z" fill-rule="nonzero"/><path fill="#000000" fill-opacity="0.0" clip-path="url(#id_0)" d="M250.61087 133.17038C250.61087 134.82722 249.26772 136.17038 247.61087 136.17038C245.95401 136.17038 244.61087 134.82722 244.61087 133.17038C244.61087 131.51352 245.95401 130.17038 247.61087 130.17038C249.26772 130.17038 250.61087 131.51352 250.61087 133.17038Z" fill-rule="nonzero"/><path fill="#000000" fill-opacity="0.0" clip-path="url(#id_0)" d="M252.29646 133.17038C252.29646 134.82722 250.95331 136.17038 249.29646 136.17038C247.6396 136.17038 246.29646 134.82722 246.29646 133.17038C246.29646 131.51352 247.6396 130.17038 249.29646 130.17038C250.95331 130.17038 252.29646 131.51352 252.29646 133.17038Z" fill-rule="nonzero"/><path fill="#000000" fill-opacity="0.0" clip-path="url(#id_0)" d="M253.92491 129.09041C253.92491 130.74727 252.58176 132.09041 250.92491 132.09041C249.26805 132.09041 247.92491 130.74727 247.92491 129.09041C247.92491 127.433556 249.26805 126.09041 250.92491 126.09041C252.58176 126.09041 253.92491 127.433556 253.92491 129.09041Z" fill-rule="nonzero"/><path fill="#000000" fill-opacity="0.0" clip-path="url(#id_0)" d="M255.49995 141.3303C255.49995 142.98715 254.1568 144.3303 252.49995 144.3303C250.8431 144.3303 249.49995 142.98715 249.49995 141.3303C249.49995 139.67345 250.8431 138.3303 252.49995 138.3303C254.1568 138.3303 255.49995 139.67345 255.49995 141.3303Z" fill-rule="nonzero"/><path fill="#000000" fill-opacity="0.0" clip-path="url(#id_0)" d="M257.025 133.17038C257.025 134.82722 255.68184 136.17038 254.02498 136.17038C252.36813 136.17038 251.02498 134.82722 251.02498 133.17038C251.02498 131.51352 252.36813 130.17038 254.02498 130.17038C255.68184 130.17038 257.025 131.51352 257.025 133.17038Z" fill-rule="nonzero"/><path fill="#000000" fill-opacity="0.0" clip-path="url(#id_0)" d="M258.50308 130.07805C258.50308 131.7349 257.15994 133.07805 255.50308 133.07805C253.84624 133.07805 252.50308 131.7349 252.50308 130.07805C252.50308 128.42119 253.84624 127.07805 255.50308 127.07805C257.15994 127.07805 258.50308 128.42119 258.50308 130.07805Z" fill-rule="nonzero"/><path fill="#000000" fill-opacity="0.0" clip-path="url(#id_0)" d="M259.93704 130.07805C259.93704 131.7349 258.5939 133.07805 256.93704 133.07805C255.2802 133.07805 253.93706 131.7349 253.93706 130.07805C253.93706 128.42119 255.2802 127.07805 256.93704 127.07805C258.5939 127.07805 259.93704 128.42119 259.93704 130.07805Z" fill-rule="nonzero"/><path fill="#000000" fill-opacity="0.0" clip-path="url(#id_0)" d="M261.32947 133.29237C261.32947 134.94922 259.98633 136.29237 258.32947 136.29237C256.6726 136.29237 255.32945 134.94922 255.32945 133.29237C255.32945 131.63551 256.6726 130.29237 258.32947 130.29237C259.98633 130.29237 261.32947 131.63551 261.32947 133.29237Z" fill-rule="nonzero"/><path fill="#000000" fill-opacity="0.0" clip-path="url(#id_0)" d="M271.21747 130.07805C271.21747 131.7349 269.87433 133.07805 268.21747 133.07805C266.5606 133.07805 265.21747 131.7349 265.21747 130.07805C265.21747 128.42119 266.5606 127.07805 268.21747 127.07805C269.87433 127.07805 271.21747 128.42119 271.21747 130.07805Z" fill-rule="nonzero"/><path fill="#000000" fill-opacity="0.0" clip-path="url(#id_0)" d="M277.49173 130.71985C277.49173 132.37671 276.1486 133.71985 274.49173 133.71985C272.8349 133.71985 271.49173 132.37671 271.49173 130.71985C271.49173 129.06299 272.8349 127.71985 274.49173 127.71985C276.1486 127.71985 277.49173 129.06299 277.49173 130.71985Z" fill-rule="nonzero"/><path fill="#000000" fill-opacity="0.0" clip-path="url(#id_0)" d="M278.46216 122.763596C278.46216 124.420456 277.11902 125.763596 275.46216 125.763596C273.80533 125.763596 272.46216 124.420456 272.46216 122.763596C272.46216 121.10674 273.80533 119.763596 275.46216 119.763596C277.11902 119.763596 278.46216 121.10674 278.46216 122.763596Z" fill-rule="nonzero"/><path fill="#000000" fill-opacity="0.0" clip-path="url(#id_0)" d="M279.4134 136.02402C279.4134 137.68088 278.07022 139.02402 276.4134 139.02402C274.75653 139.02402 273.4134 137.68088 273.4134 136.02402C273.4134 134.36716 274.75653 133.02402 276.4134 133.02402C278.07022 133.02402 279.4134 134.36716 279.4134 136.02402Z" fill-rule="nonzero"/><path fill="#000000" fill-opacity="0.0" clip-path="url(#id_0)" d="M280.34613 133.37193C280.34613 135.0288 279.00296 136.37193 277.34613 136.37193C275.68927 136.37193 274.34613 135.0288 274.34613 133.37193C274.34613 131.71507 275.68927 130.37193 277.34613 130.37193C279.00296 130.37193 280.34613 131.71507 280.34613 133.37193Z" fill-rule="nonzero"/><path fill="#000000" fill-opacity="0.0" clip-path="url(#id_0)" d="M281.26108 128.06776C281.26108 129.72462 279.91794 131.06776 278.26108 131.06776C276.60425 131.06776 275.26108 129.72462 275.26108 128.06776C275.26108 126.41091 276.60425 125.067764 278.26108 125.067764C279.91794 125.067764 281.26108 126.41091 281.26108 128.06776Z" fill-rule="nonzero"/><path fill="#000000" fill-opacity="0.0" clip-path="url(#id_0)" d="M286.41257 133.37193C286.41257 135.0288 285.06943 136.37193 283.41257 136.37193C281.75574 136.37193 280.41257 135.0288 280.41257 133.37193C280.41257 131.71507 281.75574 130.37193 283.41257 130.37193C285.06943 130.37193 286.41257 131.71507 286.41257 133.37193Z" fill-rule="nonzero"/><path fill="#000000" fill-opacity="0.0" clip-path="url(#id_0)" d="M287.2199 130.71985C287.2199 132.37671 285.87677 133.71985 284.2199 133.71985C282.56305 133.71985 281.2199 132.37671 281.2199 130.71985C281.2199 129.06299 282.56305 127.71985 284.2199 127.71985C285.87677 127.71985 287.2199 129.06299 287.2199 130.71985Z" fill-rule="nonzero"/><path fill="#000000" fill-opacity="0.0" clip-path="url(#id_0)" d="M288.0139 128.06776C288.0139 129.72462 286.67075 131.06776 285.0139 131.06776C283.35703 131.06776 282.0139 129.72462 282.0139 128.06776C282.0139 126.41091 283.35703 125.067764 285.0139 125.067764C286.67075 125.067764 288.0139 126.41091 288.0139 128.06776Z" fill-rule="nonzero"/><path fill="#000000" fill-opacity="0.0" clip-path="url(#id_0)" d="M288.79495 130.71985C288.79495 132.37671 287.4518 133.71985 285.79495 133.71985C284.1381 133.71985 282.79495 132.37671 282.79495 130.71985C282.79495 129.06299 284.1381 127.71985 285.79495 127.71985C287.4518 127.71985 288.79495 129.06299 288.79495 130.71985Z" fill-rule="nonzero"/><path fill="#000000" fill-opacity="0.0" clip-path="url(#id_0)" d="M289.5635 133.37193C289.5635 135.0288 288.22037 136.37193 286.5635 136.37193C284.90665 136.37193 283.5635 135.0288 283.5635 133.37193C283.5635 131.71507 284.90665 130.37193 286.5635 130.37193C288.22037 130.37193 289.5635 131.71507 289.5635 133.37193Z" fill-rule="nonzero"/><path fill="#000000" fill-opacity="0.0" clip-path="url(#id_0)" d="M290.31998 138.6761C290.31998 140.33295 288.97684 141.6761 287.31998 141.6761C285.66312 141.6761 284.31998 140.33295 284.31998 138.6761C284.31998 137.01924 285.66312 135.6761 287.31998 135.6761C288.97684 135.6761 290.31998 137.01924 290.31998 138.6761Z" fill-rule="nonzero"/><path fill="#000000" fill-opacity="0.0" clip-path="url(#id_0)" d="M291.06473 131.1707C291.06473 132.82756 289.72156 134.1707 288.06473 134.1707C286.40787 134.1707 285.06473 132.82756 285.06473 131.1707C285.06473 129.51385 286.40787 128.1707 288.06473 128.1707C289.72156 128.1707 291.06473 129.51385 291.06473 131.1707Z" fill-rule="nonzero"/><path fill="#000000" fill-opacity="0.0" clip-path="url(#id_0)" d="M291.7981 131.1707C291.7981 132.82756 290.45493 134.1707 288.7981 134.1707C287.14124 134.1707 285.7981 132.82756 285.7981 131.1707C285.7981 129.51385 287.14124 128.1707 288.7981 128.1707C290.45493 128.1707 291.7981 129.51385 291.7981 131.1707Z" fill-rule="nonzero"/><path fill="#000000" fill-opacity="0.0" clip-path="url(#id_0)" d="M292.52042 128.9143C292.52042 130.57117 291.17728 131.9143 289.52042 131.9143C287.86356 131.9143 286.52042 130.57117 286.52042 128.9143C286.52042 127.257454 287.86356 125.914314 289.52042 125.914314C291.17728 125.914314 292.52042 127.257454 292.52042 128.9143Z" fill-rule="nonzero"/><path fill="#000000" fill-opacity="0.0" clip-path="url(#id_0)" d="M300.43436 131.1707C300.43436 132.82756 299.09122 134.1707 297.43436 134.1707C295.7775 134.1707 294.43436 132.82756 294.43436 131.1707C294.43436 129.51385 295.7775 128.1707 297.43436 128.1707C299.09122 128.1707 300.43436 129.51385 300.43436 131.1707Z" fill-rule="nonzero"/><path fill="#000000" fill-opacity="0.0" clip-path="url(#id_0)" d="M323.23822 136.64778C323.23822 138.30464 321.89508 139.64778 320.23822 139.64778C318.5814 139.64778 317.23822 138.30464 317.23822 136.64778C317.23822 134.99094 318.5814 133.64778 320.23822 133.64778C321.89508 133.64778 323.23822 134.99094 323.23822 136.64778Z" fill-rule="nonzero"/><path fill="#000000" fill-opacity="0.0" clip-path="url(#id_0)" d="M323.61496 136.64778C323.61496 138.30464 322.27182 139.64778 320.61496 139.64778C318.95813 139.64778 317.61496 138.30464 317.61496 136.64778C317.61496 134.99094 318.95813 133.64778 320.61496 133.64778C322.27182 133.64778 323.61496 134.99094 323.61496 136.64778Z" fill-rule="nonzero"/><path fill="#000000" fill-opacity="0.0" clip-path="url(#id_0)" d="M323.9888 133.54803C323.9888 135.20488 322.64563 136.54803 320.9888 136.54803C319.33194 136.54803 317.9888 135.20488 317.9888 133.54803C317.9888 131.89117 319.33194 130.54803 320.9888 130.54803C322.64563 130.54803 323.9888 131.89117 323.9888 133.54803Z" fill-rule="nonzero"/><path fill="#000000" fill-opacity="0.0" clip-path="url(#id_0)" d="M324.3597 130.7188C324.3597 132.37564 323.01657 133.7188 321.3597 133.7188C319.70285 133.7188 318.3597 132.37564 318.3597 130.7188C318.3597 129.06194 319.70285 127.71879 321.3597 127.71879C323.01657 127.71879 324.3597 129.06194 324.3597 130.7188Z" fill-rule="nonzero"/><path fill="#000000" fill-opacity="0.0" clip-path="url(#id_0)" d="M324.72778 132.13394C324.72778 133.79079 323.38464 135.13394 321.72778 135.13394C320.07095 135.13394 318.72778 133.79079 318.72778 132.13394C318.72778 130.47708 320.07095 129.13394 321.72778 129.13394C323.38464 129.13394 324.72778 130.47708 324.72778 132.13394Z" fill-rule="nonzero"/><path fill="#000000" fill-opacity="0.0" clip-path="url(#id_0)" d="M325.09308 134.96213C325.09308 136.61897 323.74994 137.96213 322.09308 137.96213C320.43622 137.96213 319.09308 136.61897 319.09308 134.96213C319.09308 133.30527 320.43622 131.96213 322.09308 131.96213C323.74994 131.96213 325.09308 133.30527 325.09308 134.96213Z" fill-rule="nonzero"/><path fill="#000000" fill-opacity="0.0" clip-path="url(#id_0)" d="M325.4556 132.13394C325.4556 133.79079 324.11246 135.13394 322.4556 135.13394C320.79874 135.13394 319.4556 133.79079 319.4556 132.13394C319.4556 130.47708 320.79874 129.13394 322.4556 129.13394C324.11246 129.13394 325.4556 130.47708 325.4556 132.13394Z" fill-rule="nonzero"/><path fill="#000000" fill-opacity="0.0" clip-path="url(#id_0)" d="M344.3262 130.51299C344.3262 132.16985 342.98303 133.51299 341.3262 133.51299C339.66934 133.51299 338.3262 132.16985 338.3262 130.51299C338.3262 128.85612 339.66934 127.512985 341.3262 127.512985C342.98303 127.512985 344.3262 128.85612 344.3262 130.51299Z" fill-rule="nonzero"/><path fill="#000000" fill-opacity="0.0" clip-path="url(#id_0)" d="M356.90997 126.7831C356.90997 128.43996 355.56683 129.7831 353.90997 129.7831C352.2531 129.7831 350.90997 128.43996 350.90997 126.7831C350.90997 125.12624 352.2531 123.7831 353.90997 123.7831C355.56683 123.7831 356.90997 125.12624 356.90997 126.7831Z" fill-rule="nonzero"/><path fill="#000000" fill-opacity="0.0" clip-path="url(#id_0)" d="M361.38568 132.10211C361.38568 133.75897 360.04254 135.10211 358.38568 135.10211C356.72885 135.10211 355.38568 133.75897 355.38568 132.10211C355.38568 130.44527 356.72885 129.10211 358.38568 129.10211C360.04254 129.10211 361.38568 130.44527 361.38568 132.10211Z" fill-rule="nonzero"/><path fill="#000000" fill-opacity="0.0" clip-path="url(#id_0)" d="M390.20496 129.63885C390.20496 131.29572 388.86182 132.63885 387.20496 132.63885C385.54813 132.63885 384.20496 131.29572 384.20496 129.63885C384.20496 127.982 385.54813 126.63886 387.20496 126.63886C388.86182 126.63886 390.20496 127.982 390.20496 129.63885Z" fill-rule="nonzero"/><path fill="#000000" fill-opacity="0.0" clip-path="url(#id_0)" d="M398.85312 130.34537C398.85312 132.00223 397.50998 133.34537 395.85312 133.34537C394.19626 133.34537 392.85312 132.00223 392.85312 130.34537C392.85312 128.68852 394.19626 127.345375 395.85312 127.345375C397.50998 127.345375 398.85312 128.68852 398.85312 130.34537Z" fill-rule="nonzero"/><path fill="#000000" fill-opacity="0.0" clip-path="url(#id_0)" d="M423.49997 128.41147C423.49997 130.06833 422.15683 131.41147 420.49997 131.41147C418.8431 131.41147 417.49997 130.06833 417.49997 128.41147C417.49997 126.75462 418.8431 125.411476 420.49997 125.411476C422.15683 125.411476 423.49997 126.75462 423.49997 128.41147Z" fill-rule="nonzero"/><path fill="#000000" fill-opacity="0.0" clip-path="url(#id_0)" d="M444.30252 131.46986C444.30252 133.12671 442.95938 134.46986 441.30252 134.46986C439.64566 134.46986 438.30252 133.12671 438.30252 131.46986C438.30252 129.813 439.64566 128.46986 441.30252 128.46986C442.95938 128.46986 444.30252 129.813 444.30252 131.46986Z" fill-rule="nonzero"/><path fill="#000000" fill-opacity="0.0" clip-path="url(#id_0)" d="M456.79495 188.64241C456.79495 190.29927 455.4518 191.64241 453.79495 191.64241C452.1381 191.64241 450.79495 190.29927 450.79495 188.64241C450.79495 186.98555 452.1381 185.64241 453.79495 185.64241C455.4518 185.64241 456.79495 186.98555 456.79495 188.64241Z" fill-rule="nonzero"/><path fill="#000000" fill-opacity="0.0" clip-path="url(#id_0)" d="M473.45392 266.38135C473.45392 268.03818 472.11078 269.38135 470.45392 269.38135C468.79706 269.38135 467.45392 268.03818 467.45392 266.38135C467.45392 264.7245 468.79706 263.38135 470.45392 263.38135C472.11078 263.38135 473.45392 264.7245 473.45392 266.38135Z" fill-rule="nonzero"/><path fill="#000000" fill-opacity="0.0" clip-path="url(#id_0)" d="M490.08997 297.68652C490.08997 299.34338 488.74683 300.68652 487.08997 300.68652C485.4331 300.68652 484.08997 299.34338 484.08997 297.68652C484.08997 296.02966 485.4331 294.68652 487.08997 294.68652C488.74683 294.68652 490.08997 296.02966 490.08997 297.68652Z" fill-rule="nonzero"/><path fill="#000000" fill-opacity="0.0" clip-path="url(#id_0)" d="M500.44125 297.6059C500.44125 299.26276 499.0981 300.6059 497.44125 300.6059C495.78442 300.6059 494.44125 299.26276 494.44125 297.6059C494.44125 295.94907 495.78442 294.6059 497.44125 294.6059C499.0981 294.6059 500.44125 295.94907 500.44125 297.6059Z" fill-rule="nonzero"/><path fill="#000000" fill-opacity="0.0" clip-path="url(#id_0)" d="M523.38495 297.61758C523.38495 299.2744 522.0418 300.61758 520.38495 300.61758C518.7281 300.61758 517.38495 299.2744 517.38495 297.61758C517.38495 295.96072 518.7281 294.61758 520.38495 294.61758C522.0418 294.61758 523.38495 295.96072 523.38495 297.61758Z" fill-rule="nonzero"/><path fill="#000000" fill-opacity="0.0" clip-path="url(#id_0)" d="M528.45 297.6091C528.45 299.26593 527.1069 300.6091 525.45 300.6091C523.79315 300.6091 522.45 299.26593 522.45 297.6091C522.45 295.95224 523.79315 294.6091 525.45 294.6091C527.1069 294.6091 528.45 295.95224 528.45 297.6091Z" fill-rule="nonzero"/><path fill="#000000" d="M275.54688 346.6844L276.60938 346.59064Q276.6875 347.2469 276.96875 347.65314Q277.25 348.0594 277.82812 348.325Q278.42188 348.575 279.15625 348.575Q279.79688 348.575 280.29688 348.3875Q280.79688 348.1844 281.03125 347.85626Q281.28125 347.5125 281.28125 347.1219Q281.28125 346.71564 281.04688 346.41876Q280.8125 346.10626 280.28125 345.90314Q279.92188 345.7625 278.73438 345.48126Q277.5625 345.2 277.09375 344.95Q276.46875 344.6219 276.17188 344.15314Q275.875 343.66876 275.875 343.075Q275.875 342.4344 276.23438 341.8719Q276.60938 341.29376 277.3125 341.0125Q278.03125 340.71564 278.89062 340.71564Q279.84375 340.71564 280.57812 341.02814Q281.3125 341.325 281.70312 341.9344Q282.09375 342.52814 282.125 343.27814L281.03125 343.35626Q280.9375 342.54376 280.42188 342.1375Q279.92188 341.71564 278.9375 341.71564Q277.90625 341.71564 277.4375 342.09064Q276.96875 342.46564 276.96875 342.9969Q276.96875 343.46564 277.29688 343.7625Q277.625 344.0594 279.0 344.3719Q280.39062 344.6844 280.90625 344.91876Q281.65625 345.27814 282.01562 345.8094Q282.375 346.325 282.375 347.02814Q282.375 347.71564 281.98438 348.325Q281.59375 348.91876 280.85938 349.2625Q280.125 349.59064 279.20312 349.59064Q278.03125 349.59064 277.23438 349.2625Q276.45312 348.91876 276.0 348.23126Q275.5625 347.54376 275.54688 346.6844ZM283.79688 342.075L283.79688 340.85626L284.85938 340.85626L284.85938 342.075L283.79688 342.075ZM283.79688 349.45L283.79688 343.23126L284.85938 343.23126L284.85938 349.45L283.79688 349.45ZM286.23438 349.45L286.23438 348.59064L290.20312 344.04376Q289.51562 344.075 289.0 344.075L286.46875 344.075L286.46875 343.23126L291.5625 343.23126L291.5625 343.91876L288.1875 347.8719L287.53125 348.59064Q288.25 348.54376 288.85938 348.54376L291.75 348.54376L291.75 349.45L286.23438 349.45ZM296.04688 347.45L297.14062 347.575Q296.89062 348.52814 296.1875 349.0594Q295.48438 349.59064 294.40625 349.59064Q293.04688 349.59064 292.23438 348.7469Q291.4375 347.90314 291.4375 346.3875Q291.4375 344.825 292.25 343.96564Q293.0625 343.09064 294.34375 343.09064Q295.59375 343.09064 296.375 343.9344Q297.17188 344.77814 297.17188 346.325Q297.17188 346.41876 297.17188 346.60626L292.53125 346.60626Q292.59375 347.6375 293.10938 348.1844Q293.625 348.71564 294.40625 348.71564Q294.98438 348.71564 295.39062 348.41876Q295.8125 348.10626 296.04688 347.45ZM292.59375 345.7469L296.0625 345.7469Q296.0 344.95 295.67188 344.5594Q295.15625 343.95 294.35938 343.95Q293.625 343.95 293.125 344.4344Q292.64062 344.91876 292.59375 345.7469ZM303.8125 351.98126Q302.9375 350.8719 302.32812 349.40314Q301.73438 347.91876 301.73438 346.34064Q301.73438 344.95 302.17188 343.66876Q302.70312 342.1844 303.8125 340.71564L304.5625 340.71564Q303.85938 341.9344 303.625 342.45Q303.26562 343.2625 303.0625 344.1375Q302.8125 345.23126 302.8125 346.34064Q302.8125 349.16876 304.5625 351.98126L303.8125 351.98126ZM306.76562 349.45L305.78125 349.45L305.78125 340.85626L306.84375 340.85626L306.84375 343.91876Q307.51562 343.09064 308.54688 343.09064Q309.125 343.09064 309.625 343.325Q310.14062 343.54376 310.46875 343.96564Q310.8125 344.3875 311.0 344.98126Q311.1875 345.575 311.1875 346.2469Q311.1875 347.84064 310.39062 348.71564Q309.59375 349.59064 308.5 349.59064Q307.39062 349.59064 306.76562 348.66876L306.76562 349.45ZM306.75 346.29376Q306.75 347.40314 307.0625 347.90314Q307.5625 348.71564 308.40625 348.71564Q309.09375 348.71564 309.59375 348.1219Q310.10938 347.52814 310.10938 346.325Q310.10938 345.10626 309.625 344.52814Q309.14062 343.95 308.45312 343.95Q307.76562 343.95 307.25 344.5594Q306.75 345.15314 306.75 346.29376ZM312.75 351.84064L312.625 350.85626Q312.96875 350.95 313.23438 350.95Q313.57812 350.95 313.78125 350.825Q314.0 350.71564 314.14062 350.5125Q314.23438 350.34064 314.46875 349.71564Q314.48438 349.6375 314.5625 349.46564L312.1875 343.23126L313.32812 343.23126L314.625 346.825Q314.875 347.5125 315.07812 348.27814Q315.26562 347.54376 315.51562 346.85626L316.84375 343.23126L317.89062 343.23126L315.53125 349.5594Q315.14062 350.575 314.9375 350.96564Q314.65625 351.4969 314.28125 351.73126Q313.92188 351.98126 313.42188 351.98126Q313.125 351.98126 312.75 351.84064ZM320.09375 348.5125L320.25 349.4344Q319.79688 349.52814 319.45312 349.52814Q318.875 349.52814 318.5625 349.35626Q318.25 349.16876 318.10938 348.8719Q317.98438 348.575 317.98438 347.6219L317.98438 344.04376L317.21875 344.04376L317.21875 343.23126L317.98438 343.23126L317.98438 341.6844L319.03125 341.0594L319.03125 343.23126L320.09375 343.23126L320.09375 344.04376L319.03125 344.04376L319.03125 347.6844Q319.03125 348.1375 319.07812 348.2625Q319.14062 348.3875 319.26562 348.46564Q319.39062 348.54376 319.625 348.54376Q319.8125 348.54376 320.09375 348.5125ZM325.04688 347.45L326.14062 347.575Q325.89062 348.52814 325.1875 349.0594Q324.48438 349.59064 323.40625 349.59064Q322.04688 349.59064 321.23438 348.7469Q320.4375 347.90314 320.4375 346.3875Q320.4375 344.825 321.25 343.96564Q322.0625 343.09064 323.34375 343.09064Q324.59375 343.09064 325.375 343.9344Q326.17188 344.77814 326.17188 346.325Q326.17188 346.41876 326.17188 346.60626L321.53125 346.60626Q321.59375 347.6375 322.10938 348.1844Q322.625 348.71564 323.40625 348.71564Q323.98438 348.71564 324.39062 348.41876Q324.8125 348.10626 325.04688 347.45ZM321.59375 345.7469L325.0625 345.7469Q325.0 344.95 324.67188 344.5594Q324.15625 343.95 323.35938 343.95Q322.625 343.95 322.125 344.4344Q321.64062 344.91876 321.59375 345.7469ZM327.375 347.59064L328.40625 347.4344Q328.5 348.0594 328.89062 348.3875Q329.29688 348.71564 330.03125 348.71564Q330.75 348.71564 331.09375 348.4344Q331.45312 348.1375 331.45312 347.73126Q331.45312 347.3719 331.14062 347.16876Q330.92188 347.02814 330.0625 346.8094Q328.90625 346.5125 328.45312 346.3094Q328.01562 346.09064 327.78125 345.71564Q327.54688 345.34064 327.54688 344.8719Q327.54688 344.46564 327.73438 344.10626Q327.92188 343.7469 328.25 343.5125Q328.5 343.34064 328.92188 343.21564Q329.34375 343.09064 329.84375 343.09064Q330.5625 343.09064 331.10938 343.3094Q331.67188 343.5125 331.9375 343.8719Q332.20312 344.23126 332.29688 344.825L331.26562 344.96564Q331.20312 344.4969 330.85938 344.23126Q330.53125 343.95 329.90625 343.95Q329.1875 343.95 328.875 344.2Q328.5625 344.4344 328.5625 344.7625Q328.5625 344.96564 328.6875 345.1219Q328.82812 345.29376 329.09375 345.40314Q329.25 345.46564 330.03125 345.66876Q331.15625 345.98126 331.59375 346.16876Q332.03125 346.35626 332.28125 346.71564Q332.53125 347.075 332.53125 347.6219Q332.53125 348.15314 332.21875 348.6219Q331.92188 349.075 331.34375 349.34064Q330.76562 349.59064 330.03125 349.59064Q328.8125 349.59064 328.17188 349.09064Q327.54688 348.575 327.375 347.59064ZM335.48438 351.98126L334.73438 351.98126Q336.48438 349.16876 336.48438 346.34064Q336.48438 345.2469 336.23438 344.15314Q336.03125 343.27814 335.67188 342.46564Q335.4375 341.95 334.73438 340.71564L335.48438 340.71564Q336.57812 342.1844 337.10938 343.66876Q337.5625 344.95 337.5625 346.34064Q337.5625 347.91876 336.95312 349.40314Q336.34375 350.8719 335.48438 351.98126Z" fill-rule="nonzero"/><path fill="#000000" d="M27.550013 274.8198L27.675013 273.72604Q28.628138 273.97604 29.159388 274.67917Q29.690638 275.3823 29.690638 276.46042Q29.690638 277.8198 28.846888 278.6323Q28.003138 279.42917 26.487513 279.42917Q24.925013 279.42917 24.065638 278.61667Q23.190638 277.80417 23.190638 276.52292Q23.190638 275.27292 24.034388 274.49167Q24.878138 273.6948 26.425013 273.6948Q26.518763 273.6948 26.706263 273.6948L26.706263 278.33542Q27.737513 278.27292 28.284388 277.7573Q28.815638 277.24167 28.815638 276.46042Q28.815638 275.8823 28.518763 275.47604Q28.206263 275.05417 27.550013 274.8198ZM25.846888 278.27292L25.846888 274.80417Q25.050013 274.86667 24.659388 275.1948Q24.050013 275.71042 24.050013 276.5073Q24.050013 277.24167 24.534388 277.74167Q25.018763 278.22604 25.846888 278.27292ZM29.550013 272.77292L26.315638 270.5073L23.331263 272.60104L23.331263 271.28854L24.784388 270.33542Q25.206263 270.0698 25.487513 269.89792Q25.096888 269.64792 24.800013 269.42917L23.331263 268.3823L23.331263 267.11667L26.253138 269.27292L29.550013 266.96042L29.550013 268.24167L27.612513 269.52292L27.096888 269.86667L29.550013 271.5073L29.550013 272.77292ZM27.550013 262.8198L27.675013 261.72604Q28.628138 261.97604 29.159388 262.67917Q29.690638 263.3823 29.690638 264.46042Q29.690638 265.8198 28.846888 266.6323Q28.003138 267.42917 26.487513 267.42917Q24.925013 267.42917 24.065638 266.61667Q23.190638 265.80417 23.190638 264.52292Q23.190638 263.27292 24.034388 262.49167Q24.878138 261.6948 26.425013 261.6948Q26.518763 261.6948 26.706263 261.6948L26.706263 266.33542Q27.737513 266.27292 28.284388 265.7573Q28.815638 265.24167 28.815638 264.46042Q28.815638 263.8823 28.518763 263.47604Q28.206263 263.05417 27.550013 262.8198ZM25.846888 266.27292L25.846888 262.80417Q25.050013 262.86667 24.659388 263.1948Q24.050013 263.71042 24.050013 264.5073Q24.050013 265.24167 24.534388 265.74167Q25.018763 266.22604 25.846888 266.27292ZM27.268763 256.0073L27.409388 254.97604Q28.471888 255.14792 29.081263 255.85104Q29.690638 256.55417 29.690638 257.5698Q29.690638 258.85104 28.862513 259.6323Q28.018763 260.39792 26.456263 260.39792Q25.456263 260.39792 24.706263 260.0698Q23.940638 259.72604 23.565638 259.05417Q23.190638 258.36667 23.190638 257.55417Q23.190638 256.55417 23.706263 255.91354Q24.206263 255.2573 25.159388 255.0698L25.315638 256.10104Q24.690638 256.24167 24.378138 256.61667Q24.050013 256.99167 24.050013 257.52292Q24.050013 258.3198 24.628138 258.8198Q25.190638 259.3198 26.425013 259.3198Q27.690638 259.3198 28.253138 258.83542Q28.815638 258.35104 28.815638 257.58542Q28.815638 256.96042 28.440638 256.55417Q28.065638 256.1323 27.268763 256.0073ZM28.612513 248.77292L29.534388 248.61667Q29.628138 249.0698 29.628138 249.41354Q29.628138 249.99167 29.456263 250.30417Q29.268763 250.61667 28.971888 250.7573Q28.675013 250.8823 27.721888 250.8823L24.143763 250.8823L24.143763 251.64792L23.331263 251.64792L23.331263 250.8823L21.784388 250.8823L21.159388 249.83542L23.331263 249.83542L23.331263 248.77292L24.143763 248.77292L24.143763 249.83542L27.784388 249.83542Q28.237513 249.83542 28.362513 249.78854Q28.487513 249.72604 28.565638 249.60104Q28.643763 249.47604 28.643763 249.24167Q28.643763 249.05417 28.612513 248.77292ZM22.175013 248.0698L20.956263 248.0698L20.956263 247.0073L22.175013 247.0073L22.175013 248.0698ZM29.550013 248.0698L23.331263 248.0698L23.331263 247.0073L29.550013 247.0073L29.550013 248.0698ZM29.550013 245.0698L23.331263 245.0698L23.331263 244.1323L24.206263 244.1323Q23.737513 243.83542 23.471888 243.35104Q23.190638 242.86667 23.190638 242.24167Q23.190638 241.55417 23.471888 241.11667Q23.753138 240.66354 24.268763 240.49167Q23.190638 239.74167 23.190638 238.5698Q23.190638 237.6323 23.706263 237.14792Q24.206263 236.64792 25.284388 236.64792L29.550013 236.64792L29.550013 237.6948L25.628138 237.6948Q25.003138 237.6948 24.721888 237.80417Q24.440638 237.89792 24.268763 238.16354Q24.096888 238.42917 24.096888 238.80417Q24.096888 239.46042 24.534388 239.89792Q24.971888 240.3198 25.940638 240.3198L29.550013 240.3198L29.550013 241.3823L25.503138 241.3823Q24.800013 241.3823 24.456263 241.64792Q24.096888 241.89792 24.096888 242.47604Q24.096888 242.92917 24.331263 243.30417Q24.565638 243.67917 25.018763 243.85104Q25.471888 244.02292 26.315638 244.02292L29.550013 244.02292L29.550013 245.0698ZM27.550013 229.8198L27.675013 228.72604Q28.628138 228.97604 29.159388 229.67917Q29.690638 230.3823 29.690638 231.46042Q29.690638 232.8198 28.846888 233.6323Q28.003138 234.42917 26.487513 234.42917Q24.925013 234.42917 24.065638 233.61667Q23.190638 232.80417 23.190638 231.52292Q23.190638 230.27292 24.034388 229.49167Q24.878138 228.6948 26.425013 228.6948Q26.518763 228.6948 26.706263 228.6948L26.706263 233.33542Q27.737513 233.27292 28.284388 232.7573Q28.815638 232.24167 28.815638 231.46042Q28.815638 230.8823 28.518763 230.47604Q28.206263 230.05417 27.550013 229.8198ZM25.846888 233.27292L25.846888 229.80417Q25.050013 229.86667 24.659388 230.1948Q24.050013 230.71042 24.050013 231.5073Q24.050013 232.24167 24.534388 232.74167Q25.018763 233.22604 25.846888 233.27292ZM31.940638 224.0698L23.331263 224.0698L23.331263 223.11667L24.128138 223.11667Q23.659388 222.77292 23.425013 222.35104Q23.190638 221.91354 23.190638 221.30417Q23.190638 220.5073 23.596888 219.89792Q24.003138 219.28854 24.753138 218.99167Q25.503138 218.67917 26.393763 218.67917Q27.346888 218.67917 28.112513 219.02292Q28.878138 219.35104 29.284388 220.0073Q29.690638 220.66354 29.690638 221.3823Q29.690638 221.91354 29.471888 222.33542Q29.237513 222.7573 28.909388 223.02292L31.940638 223.02292L31.940638 224.0698ZM26.471888 223.11667Q27.675013 223.11667 28.253138 222.6323Q28.815638 222.14792 28.815638 221.46042Q28.815638 220.7573 28.221888 220.2573Q27.628138 219.7573 26.378138 219.7573Q25.190638 219.7573 24.612513 220.24167Q24.018763 220.72604 24.018763 221.41354Q24.018763 222.08542 24.643763 222.60104Q25.268763 223.11667 26.471888 223.11667ZM27.550013 212.8198L27.675013 211.72604Q28.628138 211.97604 29.159388 212.67917Q29.690638 213.3823 29.690638 214.46042Q29.690638 215.8198 28.846888 216.6323Q28.003138 217.42917 26.487513 217.42917Q24.925013 217.42917 24.065638 216.61667Q23.190638 215.80417 23.190638 214.52292Q23.190638 213.27292 24.034388 212.49167Q24.878138 211.6948 26.425013 211.6948Q26.518763 211.6948 26.706263 211.6948L26.706263 216.33542Q27.737513 216.27292 28.284388 215.7573Q28.815638 215.24167 28.815638 214.46042Q28.815638 213.8823 28.518763 213.47604Q28.206263 213.05417 27.550013 212.8198ZM25.846888 216.27292L25.846888 212.80417Q25.050013 212.86667 24.659388 213.1948Q24.050013 213.71042 24.050013 214.5073Q24.050013 215.24167 24.534388 215.74167Q25.018763 216.22604 25.846888 216.27292ZM29.550013 210.08542L23.331263 210.08542L23.331263 209.1323L24.268763 209.1323Q23.612513 208.77292 23.409388 208.47604Q23.190638 208.16354 23.190638 207.78854Q23.190638 207.2573 23.518763 206.71042L24.503138 207.0698Q24.268763 207.46042 24.268763 207.83542Q24.268763 208.1948 24.487513 208.47604Q24.690638 208.74167 25.065638 208.85104Q25.628138 209.03854 26.284388 209.03854L29.550013 209.03854L29.550013 210.08542ZM22.175013 203.0698L20.956263 203.0698L20.956263 202.0073L22.175013 202.0073L22.175013 203.0698ZM29.550013 203.0698L23.331263 203.0698L23.331263 202.0073L29.550013 202.0073L29.550013 203.0698ZM29.550013 200.0698L23.331263 200.0698L23.331263 199.1323L24.206263 199.1323Q23.190638 198.4448 23.190638 197.14792Q23.190638 196.58542 23.393763 196.11667Q23.596888 195.6323 23.925013 195.39792Q24.253138 195.16354 24.690638 195.0698Q24.987513 195.02292 25.721888 195.02292L29.550013 195.02292L29.550013 196.0698L25.768763 196.0698Q25.112513 196.0698 24.800013 196.1948Q24.487513 196.3198 24.300013 196.6323Q24.096888 196.9448 24.096888 197.36667Q24.096888 198.03854 24.534388 198.53854Q24.956263 199.02292 26.143763 199.02292L29.550013 199.02292L29.550013 200.0698ZM27.690638 193.49167L27.534388 192.46042Q28.159388 192.36667 28.487513 191.97604Q28.815638 191.5698 28.815638 190.83542Q28.815638 190.11667 28.534388 189.77292Q28.237513 189.41354 27.831263 189.41354Q27.471888 189.41354 27.268763 189.72604Q27.128138 189.9448 26.909388 190.80417Q26.612513 191.96042 26.409388 192.41354Q26.190638 192.85104 25.815638 193.08542Q25.440638 193.3198 24.971888 193.3198Q24.565638 193.3198 24.206263 193.1323Q23.846888 192.9448 23.612513 192.61667Q23.440638 192.36667 23.315638 191.9448Q23.190638 191.52292 23.190638 191.02292Q23.190638 190.30417 23.409388 189.7573Q23.612513 189.1948 23.971888 188.92917Q24.331263 188.66354 24.925013 188.5698L25.065638 189.60104Q24.596888 189.66354 24.331263 190.0073Q24.050013 190.33542 24.050013 190.96042Q24.050013 191.67917 24.300013 191.99167Q24.534388 192.30417 24.862513 192.30417Q25.065638 192.30417 25.221888 192.17917Q25.393763 192.03854 25.503138 191.77292Q25.565638 191.61667 25.768763 190.83542Q26.081263 189.71042 26.268763 189.27292Q26.456263 188.83542 26.815638 188.58542Q27.175013 188.33542 27.721888 188.33542Q28.253138 188.33542 28.721888 188.64792Q29.175013 188.9448 29.440638 189.52292Q29.690638 190.10104 29.690638 190.83542Q29.690638 192.05417 29.190638 192.6948Q28.675013 193.3198 27.690638 193.49167ZM28.612513 183.77292L29.534388 183.61667Q29.628138 184.0698 29.628138 184.41354Q29.628138 184.99167 29.456263 185.30417Q29.268763 185.61667 28.971888 185.7573Q28.675013 185.8823 27.721888 185.8823L24.143763 185.8823L24.143763 186.64792L23.331263 186.64792L23.331263 185.8823L21.784388 185.8823L21.159388 184.83542L23.331263 184.83542L23.331263 183.77292L24.143763 183.77292L24.143763 184.83542L27.784388 184.83542Q28.237513 184.83542 28.362513 184.78854Q28.487513 184.72604 28.565638 184.60104Q28.643763 184.47604 28.643763 184.24167Q28.643763 184.05417 28.612513 183.77292ZM29.550013 183.08542L23.331263 183.08542L23.331263 182.1323L24.268763 182.1323Q23.612513 181.77292 23.409388 181.47604Q23.190638 181.16354 23.190638 180.78854Q23.190638 180.2573 23.518763 179.71042L24.503138 180.0698Q24.268763 180.46042 24.268763 180.83542Q24.268763 181.1948 24.487513 181.47604Q24.690638 181.74167 25.065638 181.85104Q25.628138 182.03854 26.284388 182.03854L29.550013 182.03854L29.550013 183.08542ZM29.550013 174.99167L28.628138 174.99167Q29.690638 175.72604 29.690638 176.97604Q29.690638 177.52292 29.487513 178.0073Q29.268763 178.47604 28.956263 178.71042Q28.628138 178.9448 28.159388 179.03854Q27.862513 179.10104 27.175013 179.10104L23.331263 179.10104L23.331263 178.03854L26.784388 178.03854Q27.596888 178.03854 27.893763 177.97604Q28.300013 177.8823 28.550013 177.5698Q28.784388 177.24167 28.784388 176.7573Q28.784388 176.28854 28.550013 175.8823Q28.300013 175.46042 27.878138 175.28854Q27.456263 175.10104 26.659388 175.10104L23.331263 175.10104L23.331263 174.05417L29.550013 174.05417L29.550013 174.99167ZM27.268763 168.0073L27.409388 166.97604Q28.471888 167.14792 29.081263 167.85104Q29.690638 168.55417 29.690638 169.5698Q29.690638 170.85104 28.862513 171.6323Q28.018763 172.39792 26.456263 172.39792Q25.456263 172.39792 24.706263 172.0698Q23.940638 171.72604 23.565638 171.05417Q23.190638 170.36667 23.190638 169.55417Q23.190638 168.55417 23.706263 167.91354Q24.206263 167.2573 25.159388 167.0698L25.315638 168.10104Q24.690638 168.24167 24.378138 168.61667Q24.050013 168.99167 24.050013 169.52292Q24.050013 170.3198 24.628138 170.8198Q25.190638 171.3198 26.425013 171.3198Q27.690638 171.3198 28.253138 170.83542Q28.815638 170.35104 28.815638 169.58542Q28.815638 168.96042 28.440638 168.55417Q28.065638 168.1323 27.268763 168.0073ZM28.612513 163.77292L29.534388 163.61667Q29.628138 164.0698 29.628138 164.41354Q29.628138 164.99167 29.456263 165.30417Q29.268763 165.61667 28.971888 165.7573Q28.675013 165.8823 27.721888 165.8823L24.143763 165.8823L24.143763 166.64792L23.331263 166.64792L23.331263 165.8823L21.784388 165.8823L21.159388 164.83542L23.331263 164.83542L23.331263 163.77292L24.143763 163.77292L24.143763 164.83542L27.784388 164.83542Q28.237513 164.83542 28.362513 164.78854Q28.487513 164.72604 28.565638 164.60104Q28.643763 164.47604 28.643763 164.24167Q28.643763 164.05417 28.612513 163.77292ZM22.175013 163.0698L20.956263 163.0698L20.956263 162.0073L22.175013 162.0073L22.175013 163.0698ZM29.550013 163.0698L23.331263 163.0698L23.331263 162.0073L29.550013 162.0073L29.550013 163.0698ZM26.440638 160.46042Q24.706263 160.46042 23.878138 159.5073Q23.190638 158.71042 23.190638 157.55417Q23.190638 156.27292 24.034388 155.46042Q24.862513 154.6323 26.346888 154.6323Q27.550013 154.6323 28.237513 154.99167Q28.925013 155.35104 29.315638 156.05417Q29.690638 156.74167 29.690638 157.55417Q29.690638 158.85104 28.862513 159.66354Q28.018763 160.46042 26.440638 160.46042ZM26.440638 159.3823Q27.628138 159.3823 28.221888 158.86667Q28.815638 158.33542 28.815638 157.55417Q28.815638 156.7573 28.221888 156.24167Q27.628138 155.72604 26.409388 155.72604Q25.253138 155.72604 24.659388 156.2573Q24.065638 156.77292 24.065638 157.55417Q24.065638 158.33542 24.659388 158.86667Q25.237513 159.3823 26.440638 159.3823ZM29.550013 153.0698L23.331263 153.0698L23.331263 152.1323L24.206263 152.1323Q23.190638 151.4448 23.190638 150.14792Q23.190638 149.58542 23.393763 149.11667Q23.596888 148.6323 23.925013 148.39792Q24.253138 148.16354 24.690638 148.0698Q24.987513 148.02292 25.721888 148.02292L29.550013 148.02292L29.550013 149.0698L25.768763 149.0698Q25.112513 149.0698 24.800013 149.1948Q24.487513 149.3198 24.300013 149.6323Q24.096888 149.9448 24.096888 150.36667Q24.096888 151.03854 24.534388 151.53854Q24.956263 152.02292 26.143763 152.02292L29.550013 152.02292L29.550013 153.0698ZM32.08126 141.05417Q30.971888 141.92917 29.503138 142.53854Q28.018763 143.1323 26.440638 143.1323Q25.050013 143.1323 23.768763 142.6948Q22.284388 142.16354 20.815638 141.05417L20.815638 140.30417Q22.034388 141.0073 22.550013 141.24167Q23.362513 141.60104 24.237513 141.80417Q25.331263 142.05417 26.440638 142.05417Q29.268763 142.05417 32.08126 140.30417L32.08126 141.05417ZM29.550013 139.0698L23.331263 139.0698L23.331263 138.1323L24.206263 138.1323Q23.190638 137.4448 23.190638 136.14792Q23.190638 135.58542 23.393763 135.11667Q23.596888 134.6323 23.925013 134.39792Q24.253138 134.16354 24.690638 134.0698Q24.987513 134.02292 25.721888 134.02292L29.550013 134.02292L29.550013 135.0698L25.768763 135.0698Q25.112513 135.0698 24.800013 135.1948Q24.487513 135.3198 24.300013 135.6323Q24.096888 135.9448 24.096888 136.36667Q24.096888 137.03854 24.534388 137.53854Q24.956263 138.02292 26.143763 138.02292L29.550013 138.02292L29.550013 139.0698ZM27.690638 132.49167L27.534388 131.46042Q28.159388 131.36667 28.487513 130.97604Q28.815638 130.5698 28.815638 129.83542Q28.815638 129.11667 28.534388 128.77292Q28.237513 128.41354 27.831263 128.41354Q27.471888 128.41354 27.268763 128.72604Q27.128138 128.9448 26.909388 129.80417Q26.612513 130.96042 26.409388 131.41354Q26.190638 131.85104 25.815638 132.08542Q25.440638 132.3198 24.971888 132.3198Q24.565638 132.3198 24.206263 132.1323Q23.846888 131.9448 23.612513 131.61667Q23.440638 131.36667 23.315638 130.9448Q23.190638 130.52292 23.190638 130.02292Q23.190638 129.30417 23.409388 128.7573Q23.612513 128.1948 23.971888 127.92917Q24.331263 127.66354 24.925013 127.56979L25.065638 128.60104Q24.596888 128.66354 24.331263 129.0073Q24.050013 129.33542 24.050013 129.96042Q24.050013 130.67917 24.300013 130.99167Q24.534388 131.30417 24.862513 131.30417Q25.065638 131.30417 25.221888 131.17917Q25.393763 131.03854 25.503138 130.77292Q25.565638 130.61667 25.768763 129.83542Q26.081263 128.71042 26.268763 128.27292Q26.456263 127.83542 26.815638 127.58542Q27.175013 127.33542 27.721888 127.33542Q28.253138 127.33542 28.721888 127.64792Q29.175013 127.94479 29.440638 128.52292Q29.690638 129.10104 29.690638 129.83542Q29.690638 131.05417 29.190638 131.6948Q28.675013 132.3198 27.690638 132.49167ZM32.08126 124.38229L32.08126 125.13229Q29.268763 123.38229 26.440638 123.38229Q25.346888 123.38229 24.253138 123.63229Q23.378138 123.83542 22.565638 124.19479Q22.050013 124.42917 20.815638 125.13229L20.815638 124.38229Q22.284388 123.28854 23.768763 122.75729Q25.050013 122.30417 26.440638 122.30417Q28.018763 122.30417 29.503138 122.91354Q30.971888 123.52292 32.08126 124.38229Z" fill-rule="nonzero"/><path fill="#000000" d="M75.05 300.21564Q75.05 298.6844 75.3625 297.7625Q75.675 296.825 76.28438 296.325Q76.90938 295.825 77.84688 295.825Q78.53438 295.825 79.05 296.10626Q79.58125 296.3875 79.925 296.91876Q80.26875 297.4344 80.45625 298.1844Q80.64375 298.9344 80.64375 300.21564Q80.64375 301.73126 80.33125 302.65314Q80.03438 303.575 79.40938 304.09064Q78.8 304.59064 77.84688 304.59064Q76.6125 304.59064 75.89375 303.7Q75.05 302.6375 75.05 300.21564ZM76.12813 300.21564Q76.12813 302.325 76.62813 303.02814Q77.12813 303.73126 77.84688 303.73126Q78.58125 303.73126 79.06563 303.02814Q79.56563 302.325 79.56563 300.21564Q79.56563 298.09064 79.06563 297.40314Q78.58125 296.7 77.83125 296.7Q77.1125 296.7 76.675 297.3094Q76.12813 298.09064 76.12813 300.21564Z" fill-rule="nonzero"/><path fill="#000000" d="M61.05 249.15834L62.159374 249.06459Q62.284374 249.87709 62.721874 250.28334Q63.175 250.68959 63.815624 250.68959Q64.56563 250.68959 65.09688 250.11147Q65.62813 249.53334 65.62813 248.59584Q65.62813 247.68959 65.1125 247.17397Q64.6125 246.64272 63.784374 246.64272Q63.284374 246.64272 62.8625 246.87709Q62.45625 247.11147 62.221874 247.47084L61.2375 247.34584L62.065624 242.93959L66.34688 242.93959L66.34688 243.93959L62.909374 243.93959L62.45625 246.25209Q63.221874 245.70522 64.06563 245.70522Q65.19063 245.70522 65.95625 246.48647Q66.7375 247.26772 66.7375 248.50209Q66.7375 249.65834 66.06563 250.51772Q65.2375 251.54897 63.815624 251.54897Q62.64375 251.54897 61.89375 250.89272Q61.159374 250.23647 61.05 249.15834ZM68.05 247.17397Q68.05 245.64272 68.3625 244.72084Q68.675 243.78334 69.28438 243.28334Q69.90938 242.78334 70.84688 242.78334Q71.53438 242.78334 72.05 243.06459Q72.58125 243.34584 72.925 243.87709Q73.26875 244.39272 73.45625 245.14272Q73.64375 245.89272 73.64375 247.17397Q73.64375 248.68959 73.33125 249.61147Q73.03438 250.53334 72.40938 251.04897Q71.8 251.54897 70.84688 251.54897Q69.6125 251.54897 68.89375 250.65834Q68.05 249.59584 68.05 247.17397ZM69.12813 247.17397Q69.12813 249.28334 69.62813 249.98647Q70.12813 250.68959 70.84688 250.68959Q71.58125 250.68959 72.06563 249.98647Q72.56563 249.28334 72.56563 247.17397Q72.56563 245.04897 72.06563 244.36147Q71.58125 243.65834 70.83125 243.65834Q70.1125 243.65834 69.675 244.26772Q69.12813 245.04897 69.12813 247.17397ZM75.05 247.17397Q75.05 245.64272 75.3625 244.72084Q75.675 243.78334 76.28438 243.28334Q76.90938 242.78334 77.84688 242.78334Q78.53438 242.78334 79.05 243.06459Q79.58125 243.34584 79.925 243.87709Q80.26875 244.39272 80.45625 245.14272Q80.64375 245.89272 80.64375 247.17397Q80.64375 248.68959 80.33125 249.61147Q80.03438 250.53334 79.40938 251.04897Q78.8 251.54897 77.84688 251.54897Q76.6125 251.54897 75.89375 250.65834Q75.05 249.59584 75.05 247.17397ZM76.12813 247.17397Q76.12813 249.28334 76.62813 249.98647Q77.12813 250.68959 77.84688 250.68959Q78.58125 250.68959 79.06563 249.98647Q79.56563 249.28334 79.56563 247.17397Q79.56563 245.04897 79.06563 244.36147Q78.58125 243.65834 77.83125 243.65834Q77.1125 243.65834 76.675 244.26772Q76.12813 245.04897 76.12813 247.17397Z" fill-rule="nonzero"/><path fill="#000000" d="M55.01875 198.36667L53.971874 198.36667L53.971874 191.64792Q53.58125 192.0073 52.95625 192.3823Q52.346874 192.74167 51.8625 192.91354L51.8625 191.89792Q52.7375 191.47604 53.39375 190.89792Q54.065624 190.30417 54.346874 189.74167L55.01875 189.74167L55.01875 198.36667ZM58.6125 198.36667L58.6125 197.16354L59.815624 197.16354L59.815624 198.36667Q59.815624 199.02292 59.58125 199.42917Q59.346874 199.85104 58.846874 200.0698L58.55 199.61667Q58.878124 199.47604 59.034374 199.17917Q59.190624 198.89792 59.221874 198.36667L58.6125 198.36667ZM61.05 194.1323Q61.05 192.60104 61.3625 191.67917Q61.675 190.74167 62.284374 190.24167Q62.909374 189.74167 63.846874 189.74167Q64.53438 189.74167 65.05 190.02292Q65.58125 190.30417 65.925 190.83542Q66.26875 191.35104 66.45625 192.10104Q66.64375 192.85104 66.64375 194.1323Q66.64375 195.64792 66.33125 196.5698Q66.03438 197.49167 65.40938 198.0073Q64.8 198.5073 63.846874 198.5073Q62.6125 198.5073 61.89375 197.61667Q61.05 196.55417 61.05 194.1323ZM62.128124 194.1323Q62.128124 196.24167 62.628124 196.9448Q63.128124 197.64792 63.846874 197.64792Q64.58125 197.64792 65.06563 196.9448Q65.56563 196.24167 65.56563 194.1323Q65.56563 192.0073 65.06563 191.3198Q64.58125 190.61667 63.83125 190.61667Q63.1125 190.61667 62.675 191.22604Q62.128124 192.0073 62.128124 194.1323ZM68.05 194.1323Q68.05 192.60104 68.3625 191.67917Q68.675 190.74167 69.28438 190.24167Q69.90938 189.74167 70.84688 189.74167Q71.53438 189.74167 72.05 190.02292Q72.58125 190.30417 72.925 190.83542Q73.26875 191.35104 73.45625 192.10104Q73.64375 192.85104 73.64375 194.1323Q73.64375 195.64792 73.33125 196.5698Q73.03438 197.49167 72.40938 198.0073Q71.8 198.5073 70.84688 198.5073Q69.6125 198.5073 68.89375 197.61667Q68.05 196.55417 68.05 194.1323ZM69.12813 194.1323Q69.12813 196.24167 69.62813 196.9448Q70.12813 197.64792 70.84688 197.64792Q71.58125 197.64792 72.06563 196.9448Q72.56563 196.24167 72.56563 194.1323Q72.56563 192.0073 72.06563 191.3198Q71.58125 190.61667 70.83125 190.61667Q70.1125 190.61667 69.675 191.22604Q69.12813 192.0073 69.12813 194.1323ZM75.05 194.1323Q75.05 192.60104 75.3625 191.67917Q75.675 190.74167 76.28438 190.24167Q76.90938 189.74167 77.84688 189.74167Q78.53438 189.74167 79.05 190.02292Q79.58125 190.30417 79.925 190.83542Q80.26875 191.35104 80.45625 192.10104Q80.64375 192.85104 80.64375 194.1323Q80.64375 195.64792 80.33125 196.5698Q80.03438 197.49167 79.40938 198.0073Q78.8 198.5073 77.84688 198.5073Q76.6125 198.5073 75.89375 197.61667Q75.05 196.55417 75.05 194.1323ZM76.12813 194.1323Q76.12813 196.24167 76.62813 196.9448Q77.12813 197.64792 77.84688 197.64792Q78.58125 197.64792 79.06563 196.9448Q79.56563 196.24167 79.56563 194.1323Q79.56563 192.0073 79.06563 191.3198Q78.58125 190.61667 77.83125 190.61667Q77.1125 190.61667 76.675 191.22604Q76.12813 192.0073 76.12813 194.1323Z" fill-rule="nonzero"/><path fill="#000000" d="M55.01875 145.325L53.971874 145.325L53.971874 138.60625Q53.58125 138.96562 52.95625 139.34062Q52.346874 139.7 51.8625 139.87187L51.8625 138.85625Q52.7375 138.43437 53.39375 137.85625Q54.065624 137.2625 54.346874 136.7L55.01875 136.7L55.01875 145.325ZM58.6125 145.325L58.6125 144.12187L59.815624 144.12187L59.815624 145.325Q59.815624 145.98125 59.58125 146.3875Q59.346874 146.80937 58.846874 147.02812L58.55 146.575Q58.878124 146.43437 59.034374 146.1375Q59.190624 145.85625 59.221874 145.325L58.6125 145.325ZM61.05 143.075L62.159374 142.98125Q62.284374 143.79375 62.721874 144.2Q63.175 144.60625 63.815624 144.60625Q64.56563 144.60625 65.09688 144.02812Q65.62813 143.45 65.62813 142.5125Q65.62813 141.60625 65.1125 141.09062Q64.6125 140.55937 63.784374 140.55937Q63.284374 140.55937 62.8625 140.79375Q62.45625 141.02812 62.221874 141.3875L61.2375 141.2625L62.065624 136.85625L66.34688 136.85625L66.34688 137.85625L62.909374 137.85625L62.45625 140.16875Q63.221874 139.62187 64.06563 139.62187Q65.19063 139.62187 65.95625 140.40312Q66.7375 141.18437 66.7375 142.41875Q66.7375 143.575 66.06563 144.43437Q65.2375 145.46562 63.815624 145.46562Q62.64375 145.46562 61.89375 144.80937Q61.159374 144.15312 61.05 143.075ZM68.05 141.09062Q68.05 139.55937 68.3625 138.6375Q68.675 137.7 69.28438 137.2Q69.90938 136.7 70.84688 136.7Q71.53438 136.7 72.05 136.98125Q72.58125 137.2625 72.925 137.79375Q73.26875 138.30937 73.45625 139.05937Q73.64375 139.80937 73.64375 141.09062Q73.64375 142.60625 73.33125 143.52812Q73.03438 144.45 72.40938 144.96562Q71.8 145.46562 70.84688 145.46562Q69.6125 145.46562 68.89375 144.575Q68.05 143.5125 68.05 141.09062ZM69.12813 141.09062Q69.12813 143.2 69.62813 143.90312Q70.12813 144.60625 70.84688 144.60625Q71.58125 144.60625 72.06563 143.90312Q72.56563 143.2 72.56563 141.09062Q72.56563 138.96562 72.06563 138.27812Q71.58125 137.575 70.83125 137.575Q70.1125 137.575 69.675 138.18437Q69.12813 138.96562 69.12813 141.09062ZM75.05 141.09062Q75.05 139.55937 75.3625 138.6375Q75.675 137.7 76.28438 137.2Q76.90938 136.7 77.84688 136.7Q78.53438 136.7 79.05 136.98125Q79.58125 137.2625 79.925 137.79375Q80.26875 138.30937 80.45625 139.05937Q80.64375 139.80937 80.64375 141.09062Q80.64375 142.60625 80.33125 143.52812Q80.03438 144.45 79.40938 144.96562Q78.8 145.46562 77.84688 145.46562Q76.6125 145.46562 75.89375 144.575Q75.05 143.5125 75.05 141.09062ZM76.12813 141.09062Q76.12813 143.2 76.62813 143.90312Q77.12813 144.60625 77.84688 144.60625Q78.58125 144.60625 79.06563 143.90312Q79.56563 143.2 79.56563 141.09062Q79.56563 138.96562 79.06563 138.27812Q78.58125 137.575 77.83125 137.575Q77.1125 137.575 76.675 138.18437Q76.12813 138.96562 76.12813 141.09062Z" fill-rule="nonzero"/><path fill="#000000" d="M56.596874 91.26771L56.596874 92.28333L50.909374 92.28333Q50.909374 91.90833 51.034374 91.54896Q51.253124 90.97083 51.721874 90.40833Q52.20625 89.84583 53.1125 89.11146Q54.51875 87.95521 55.003124 87.28333Q55.503124 86.61146 55.503124 86.01771Q55.503124 85.39271 55.05 84.97083Q54.596874 84.53333 53.878124 84.53333Q53.1125 84.53333 52.659374 84.98646Q52.20625 85.43958 52.190624 86.25208L51.1125 86.14271Q51.221874 84.92396 51.940624 84.29896Q52.675 83.65833 53.909374 83.65833Q55.14375 83.65833 55.8625 84.34583Q56.58125 85.03333 56.58125 86.04896Q56.58125 86.56458 56.3625 87.06458Q56.159374 87.54896 55.659374 88.11146Q55.175 88.65833 54.05 89.61146Q53.096874 90.40833 52.815624 90.70521Q52.55 90.98646 52.378124 91.26771L56.596874 91.26771ZM58.6125 92.28333L58.6125 91.08021L59.815624 91.08021L59.815624 92.28333Q59.815624 92.93958 59.58125 93.34583Q59.346874 93.76771 58.846874 93.98646L58.55 93.53333Q58.878124 93.39271 59.034374 93.09583Q59.190624 92.81458 59.221874 92.28333L58.6125 92.28333ZM61.05 88.04896Q61.05 86.51771 61.3625 85.59583Q61.675 84.65833 62.284374 84.15833Q62.909374 83.65833 63.846874 83.65833Q64.53438 83.65833 65.05 83.93958Q65.58125 84.22083 65.925 84.75208Q66.26875 85.26771 66.45625 86.01771Q66.64375 86.76771 66.64375 88.04896Q66.64375 89.56458 66.33125 90.48646Q66.03438 91.40833 65.40938 91.92396Q64.8 92.42396 63.846874 92.42396Q62.6125 92.42396 61.89375 91.53333Q61.05 90.47083 61.05 88.04896ZM62.128124 88.04896Q62.128124 90.15833 62.628124 90.86146Q63.128124 91.56458 63.846874 91.56458Q64.58125 91.56458 65.06563 90.86146Q65.56563 90.15833 65.56563 88.04896Q65.56563 85.92396 65.06563 85.23646Q64.58125 84.53333 63.83125 84.53333Q63.1125 84.53333 62.675 85.14271Q62.128124 85.92396 62.128124 88.04896ZM68.05 88.04896Q68.05 86.51771 68.3625 85.59583Q68.675 84.65833 69.28438 84.15833Q69.90938 83.65833 70.84688 83.65833Q71.53438 83.65833 72.05 83.93958Q72.58125 84.22083 72.925 84.75208Q73.26875 85.26771 73.45625 86.01771Q73.64375 86.76771 73.64375 88.04896Q73.64375 89.56458 73.33125 90.48646Q73.03438 91.40833 72.40938 91.92396Q71.8 92.42396 70.84688 92.42396Q69.6125 92.42396 68.89375 91.53333Q68.05 90.47083 68.05 88.04896ZM69.12813 88.04896Q69.12813 90.15833 69.62813 90.86146Q70.12813 91.56458 70.84688 91.56458Q71.58125 91.56458 72.06563 90.86146Q72.56563 90.15833 72.56563 88.04896Q72.56563 85.92396 72.06563 85.23646Q71.58125 84.53333 70.83125 84.53333Q70.1125 84.53333 69.675 85.14271Q69.12813 85.92396 69.12813 88.04896ZM75.05 88.04896Q75.05 86.51771 75.3625 85.59583Q75.675 84.65833 76.28438 84.15833Q76.90938 83.65833 77.84688 83.65833Q78.53438 83.65833 79.05 83.93958Q79.58125 84.22083 79.925 84.75208Q80.26875 85.26771 80.45625 86.01771Q80.64375 86.76771 80.64375 88.04896Q80.64375 89.56458 80.33125 90.48646Q80.03438 91.40833 79.40938 91.92396Q78.8 92.42396 77.84688 92.42396Q76.6125 92.42396 75.89375 91.53333Q75.05 90.47083 75.05 88.04896ZM76.12813 88.04896Q76.12813 90.15833 76.62813 90.86146Q77.12813 91.56458 77.84688 91.56458Q78.58125 91.56458 79.06563 90.86146Q79.56563 90.15833 79.56563 88.04896Q79.56563 85.92396 79.06563 85.23646Q78.58125 84.53333 77.83125 84.53333Q77.1125 84.53333 76.675 85.14271Q76.12813 85.92396 76.12813 88.04896Z" fill-rule="nonzero"/><path fill="#000000" d="M88.51875 317.45L87.47188 317.45L87.47188 310.73126Q87.08125 311.09064 86.45625 311.46564Q85.84688 311.825 85.3625 311.9969L85.3625 310.98126Q86.2375 310.5594 86.89375 309.98126Q87.56563 309.3875 87.84688 308.825L88.51875 308.825L88.51875 317.45Z" fill-rule="nonzero"/><path fill="#000000" d="M195.62233 317.45L194.57545 317.45L194.57545 310.73126Q194.18483 311.09064 193.55983 311.46564Q192.95045 311.825 192.46608 311.9969L192.46608 310.98126Q193.34108 310.5594 193.99733 309.98126Q194.6692 309.3875 194.95045 308.825L195.62233 308.825L195.62233 317.45ZM198.65358 313.21564Q198.65358 311.6844 198.96608 310.7625Q199.27858 309.825 199.88795 309.325Q200.51295 308.825 201.45045 308.825Q202.13795 308.825 202.65358 309.10626Q203.18483 309.3875 203.52858 309.91876Q203.87233 310.4344 204.05983 311.1844Q204.24733 311.9344 204.24733 313.21564Q204.24733 314.73126 203.93483 315.65314Q203.63795 316.575 203.01295 317.09064Q202.40358 317.59064 201.45045 317.59064Q200.21608 317.59064 199.49733 316.7Q198.65358 315.6375 198.65358 313.21564ZM199.7317 313.21564Q199.7317 315.325 200.2317 316.02814Q200.7317 316.73126 201.45045 316.73126Q202.18483 316.73126 202.6692 316.02814Q203.1692 315.325 203.1692 313.21564Q203.1692 311.09064 202.6692 310.40314Q202.18483 309.7 201.43483 309.7Q200.71608 309.7 200.27858 310.3094Q199.7317 311.09064 199.7317 313.21564Z" fill-rule="nonzero"/><path fill="#000000" d="M302.72592 317.45L301.67905 317.45L301.67905 310.73126Q301.28842 311.09064 300.66342 311.46564Q300.05405 311.825 299.56967 311.9969L299.56967 310.98126Q300.44467 310.5594 301.10092 309.98126Q301.7728 309.3875 302.05405 308.825L302.72592 308.825L302.72592 317.45ZM305.75717 313.21564Q305.75717 311.6844 306.06967 310.7625Q306.38217 309.825 306.99155 309.325Q307.61655 308.825 308.55405 308.825Q309.24155 308.825 309.75717 309.10626Q310.28842 309.3875 310.63217 309.91876Q310.97592 310.4344 311.16342 311.1844Q311.35092 311.9344 311.35092 313.21564Q311.35092 314.73126 311.03842 315.65314Q310.74155 316.575 310.11655 317.09064Q309.50717 317.59064 308.55405 317.59064Q307.31967 317.59064 306.60092 316.7Q305.75717 315.6375 305.75717 313.21564ZM306.8353 313.21564Q306.8353 315.325 307.3353 316.02814Q307.8353 316.73126 308.55405 316.73126Q309.28842 316.73126 309.7728 316.02814Q310.2728 315.325 310.2728 313.21564Q310.2728 311.09064 309.7728 310.40314Q309.28842 309.7 308.53842 309.7Q307.81967 309.7 307.38217 310.3094Q306.8353 311.09064 306.8353 313.21564ZM312.75717 313.21564Q312.75717 311.6844 313.06967 310.7625Q313.38217 309.825 313.99155 309.325Q314.61655 308.825 315.55405 308.825Q316.24155 308.825 316.75717 309.10626Q317.28842 309.3875 317.63217 309.91876Q317.97592 310.4344 318.16342 311.1844Q318.35092 311.9344 318.35092 313.21564Q318.35092 314.73126 318.03842 315.65314Q317.74155 316.575 317.11655 317.09064Q316.50717 317.59064 315.55405 317.59064Q314.31967 317.59064 313.60092 316.7Q312.75717 315.6375 312.75717 313.21564ZM313.8353 313.21564Q313.8353 315.325 314.3353 316.02814Q314.8353 316.73126 315.55405 316.73126Q316.28842 316.73126 316.7728 316.02814Q317.2728 315.325 317.2728 313.21564Q317.2728 311.09064 316.7728 310.40314Q316.28842 309.7 315.53842 309.7Q314.81967 309.7 314.38217 310.3094Q313.8353 311.09064 313.8353 313.21564Z" fill-rule="nonzero"/><path fill="#000000" d="M409.8295 317.45L408.78262 317.45L408.78262 310.73126Q408.392 311.09064 407.767 311.46564Q407.15762 311.825 406.67325 311.9969L406.67325 310.98126Q407.54825 310.5594 408.2045 309.98126Q408.87637 309.3875 409.15762 308.825L409.8295 308.825L409.8295 317.45ZM412.86075 313.21564Q412.86075 311.6844 413.17325 310.7625Q413.48575 309.825 414.09512 309.325Q414.72012 308.825 415.65762 308.825Q416.34512 308.825 416.86075 309.10626Q417.392 309.3875 417.73575 309.91876Q418.0795 310.4344 418.267 311.1844Q418.4545 311.9344 418.4545 313.21564Q418.4545 314.73126 418.142 315.65314Q417.84512 316.575 417.22012 317.09064Q416.61075 317.59064 415.65762 317.59064Q414.42325 317.59064 413.7045 316.7Q412.86075 315.6375 412.86075 313.21564ZM413.93887 313.21564Q413.93887 315.325 414.43887 316.02814Q414.93887 316.73126 415.65762 316.73126Q416.392 316.73126 416.87637 316.02814Q417.37637 315.325 417.37637 313.21564Q417.37637 311.09064 416.87637 310.40314Q416.392 309.7 415.642 309.7Q414.92325 309.7 414.48575 310.3094Q413.93887 311.09064 413.93887 313.21564ZM419.86075 313.21564Q419.86075 311.6844 420.17325 310.7625Q420.48575 309.825 421.09512 309.325Q421.72012 308.825 422.65762 308.825Q423.34512 308.825 423.86075 309.10626Q424.392 309.3875 424.73575 309.91876Q425.0795 310.4344 425.267 311.1844Q425.4545 311.9344 425.4545 313.21564Q425.4545 314.73126 425.142 315.65314Q424.84512 316.575 424.22012 317.09064Q423.61075 317.59064 422.65762 317.59064Q421.42325 317.59064 420.7045 316.7Q419.86075 315.6375 419.86075 313.21564ZM420.93887 313.21564Q420.93887 315.325 421.43887 316.02814Q421.93887 316.73126 422.65762 316.73126Q423.392 316.73126 423.87637 316.02814Q424.37637 315.325 424.37637 313.21564Q424.37637 311.09064 423.87637 310.40314Q423.392 309.7 422.642 309.7Q421.92325 309.7 421.48575 310.3094Q420.93887 311.09064 420.93887 313.21564ZM426.86075 313.21564Q426.86075 311.6844 427.17325 310.7625Q427.48575 309.825 428.09512 309.325Q428.72012 308.825 429.65762 308.825Q430.34512 308.825 430.86075 309.10626Q431.392 309.3875 431.73575 309.91876Q432.0795 310.4344 432.267 311.1844Q432.4545 311.9344 432.4545 313.21564Q432.4545 314.73126 432.142 315.65314Q431.84512 316.575 431.22012 317.09064Q430.61075 317.59064 429.65762 317.59064Q428.42325 317.59064 427.7045 316.7Q426.86075 315.6375 426.86075 313.21564ZM427.93887 313.21564Q427.93887 315.325 428.43887 316.02814Q428.93887 316.73126 429.65762 316.73126Q430.392 316.73126 430.87637 316.02814Q431.37637 315.325 431.37637 313.21564Q431.37637 311.09064 430.87637 310.40314Q430.392 309.7 429.642 309.7Q428.92325 309.7 428.48575 310.3094Q427.93887 311.09064 427.93887 313.21564Z" fill-rule="nonzero"/><path stroke="#4285f4" stroke-width="4.0" stroke-linecap="butt" d="M238.0 61.916668L250.0 61.916668" fill-rule="nonzero"/><path fill="#1a1a1a" d="M259.76562 65.916664L258.78125 65.916664L258.78125 57.322914L259.84375 57.322914L259.84375 60.385414Q260.51562 59.55729 261.54688 59.55729Q262.125 59.55729 262.625 59.791664Q263.14062 60.010414 263.46875 60.43229Q263.8125 60.854164 264.0 61.447914Q264.1875 62.041664 264.1875 62.71354Q264.1875 64.30729 263.39062 65.18229Q262.59375 66.05729 261.5 66.05729Q260.39062 66.05729 259.76562 65.135414L259.76562 65.916664ZM259.75 62.760414Q259.75 63.86979 260.0625 64.36979Q260.5625 65.18229 261.40625 65.18229Q262.09375 65.18229 262.59375 64.58854Q263.10938 63.99479 263.10938 62.791664Q263.10938 61.572914 262.625 60.99479Q262.14062 60.416664 261.45312 60.416664Q260.76562 60.416664 260.25 61.02604Q259.75 61.61979 259.75 62.760414ZM269.85938 65.15104Q269.26562 65.65104 268.71875 65.854164Q268.1875 66.05729 267.5625 66.05729Q266.53125 66.05729 265.98438 65.55729Q265.4375 65.05729 265.4375 64.27604Q265.4375 63.822914 265.64062 63.447914Q265.84375 63.05729 266.1875 62.83854Q266.53125 62.604164 266.95312 62.49479Q267.25 62.40104 267.89062 62.322914Q269.15625 62.18229 269.76562 61.96354Q269.76562 61.74479 269.76562 61.697914Q269.76562 61.041664 269.46875 60.77604Q269.0625 60.43229 268.26562 60.43229Q267.53125 60.43229 267.17188 60.697914Q266.8125 60.947914 266.64062 61.604164L265.60938 61.46354Q265.75 60.80729 266.07812 60.40104Q266.40625 59.99479 267.01562 59.77604Q267.625 59.55729 268.42188 59.55729Q269.21875 59.55729 269.71875 59.74479Q270.21875 59.93229 270.45312 60.21354Q270.6875 60.49479 270.78125 60.93229Q270.82812 61.197914 270.82812 61.90104L270.82812 63.30729Q270.82812 64.77604 270.89062 65.166664Q270.96875 65.55729 271.17188 65.916664L270.0625 65.916664Q269.90625 65.58854 269.85938 65.15104ZM269.76562 62.791664Q269.1875 63.02604 268.04688 63.197914Q267.39062 63.291664 267.125 63.416664Q266.85938 63.52604 266.70312 63.74479Q266.5625 63.96354 266.5625 64.24479Q266.5625 64.666664 266.875 64.947914Q267.20312 65.229164 267.8125 65.229164Q268.42188 65.229164 268.89062 64.96354Q269.375 64.697914 269.59375 64.229164Q269.76562 63.86979 269.76562 63.18229L269.76562 62.791664ZM272.375 64.05729L273.40625 63.90104Q273.5 64.52604 273.89062 64.854164Q274.29688 65.18229 275.03125 65.18229Q275.75 65.18229 276.09375 64.90104Q276.45312 64.604164 276.45312 64.197914Q276.45312 63.83854 276.14062 63.635414Q275.92188 63.49479 275.0625 63.27604Q273.90625 62.979164 273.45312 62.77604Q273.01562 62.55729 272.78125 62.18229Q272.54688 61.80729 272.54688 61.33854Q272.54688 60.93229 272.73438 60.572914Q272.92188 60.21354 273.25 59.979164Q273.5 59.80729 273.92188 59.68229Q274.34375 59.55729 274.84375 59.55729Q275.5625 59.55729 276.10938 59.77604Q276.67188 59.979164 276.9375 60.33854Q277.20312 60.697914 277.29688 61.291664L276.26562 61.43229Q276.20312 60.96354 275.85938 60.697914Q275.53125 60.416664 274.90625 60.416664Q274.1875 60.416664 273.875 60.666664Q273.5625 60.90104 273.5625 61.229164Q273.5625 61.43229 273.6875 61.58854Q273.82812 61.760414 274.09375 61.86979Q274.25 61.93229 275.03125 62.135414Q276.15625 62.447914 276.59375 62.635414Q277.03125 62.822914 277.28125 63.18229Q277.53125 63.541664 277.53125 64.08854Q277.53125 64.61979 277.21875 65.08854Q276.92188 65.541664 276.34375 65.80729Q275.76562 66.05729 275.03125 66.05729Q273.8125 66.05729 273.17188 65.55729Q272.54688 65.041664 272.375 64.05729ZM284.04688 63.916664L285.14062 64.041664Q284.89062 64.99479 284.1875 65.52604Q283.48438 66.05729 282.40625 66.05729Q281.04688 66.05729 280.23438 65.21354Q279.4375 64.36979 279.4375 62.854164Q279.4375 61.291664 280.25 60.43229Q281.0625 59.55729 282.34375 59.55729Q283.59375 59.55729 284.375 60.40104Q285.17188 61.24479 285.17188 62.791664Q285.17188 62.885414 285.17188 63.072914L280.53125 63.072914Q280.59375 64.104164 281.10938 64.65104Q281.625 65.18229 282.40625 65.18229Q282.98438 65.18229 283.39062 64.885414Q283.8125 64.572914 284.04688 63.916664ZM280.59375 62.21354L284.0625 62.21354Q284.0 61.416664 283.67188 61.02604Q283.15625 60.416664 282.35938 60.416664Q281.625 60.416664 281.125 60.90104Q280.64062 61.385414 280.59375 62.21354ZM286.76562 65.916664L286.76562 57.322914L287.82812 57.322914L287.82812 65.916664L286.76562 65.916664ZM289.79688 58.541664L289.79688 57.322914L290.85938 57.322914L290.85938 58.541664L289.79688 58.541664ZM289.79688 65.916664L289.79688 59.697914L290.85938 59.697914L290.85938 65.916664L289.79688 65.916664ZM292.79688 65.916664L292.79688 59.697914L293.73438 59.697914L293.73438 60.572914Q294.42188 59.55729 295.71875 59.55729Q296.28125 59.55729 296.75 59.760414Q297.23438 59.96354 297.46875 60.291664Q297.70312 60.61979 297.79688 61.05729Q297.84375 61.354164 297.84375 62.08854L297.84375 65.916664L296.79688 65.916664L296.79688 62.135414Q296.79688 61.479164 296.67188 61.166664Q296.54688 60.854164 296.23438 60.666664Q295.92188 60.46354 295.5 60.46354Q294.82812 60.46354 294.32812 60.90104Q293.84375 61.322914 293.84375 62.510414L293.84375 65.916664L292.79688 65.916664ZM304.04688 63.916664L305.14062 64.041664Q304.89062 64.99479 304.1875 65.52604Q303.48438 66.05729 302.40625 66.05729Q301.04688 66.05729 300.23438 65.21354Q299.4375 64.36979 299.4375 62.854164Q299.4375 61.291664 300.25 60.43229Q301.0625 59.55729 302.34375 59.55729Q303.59375 59.55729 304.375 60.40104Q305.17188 61.24479 305.17188 62.791664Q305.17188 62.885414 305.17188 63.072914L300.53125 63.072914Q300.59375 64.104164 301.10938 64.65104Q301.625 65.18229 302.40625 65.18229Q302.98438 65.18229 303.39062 64.885414Q303.8125 64.572914 304.04688 63.916664ZM300.59375 62.21354L304.0625 62.21354Q304.0 61.416664 303.67188 61.02604Q303.15625 60.416664 302.35938 60.416664Q301.625 60.416664 301.125 60.90104Q300.64062 61.385414 300.59375 62.21354Z" fill-rule="nonzero"/><path fill="#757575" d="M28.96875 37.55L34.46875 23.2375L36.515625 23.2375L42.375 37.55L40.21875 37.55L38.546875 33.20625L32.5625 33.20625L30.984375 37.55L28.96875 37.55ZM33.109375 31.675L37.953125 31.675L36.46875 27.70625Q35.78125 25.89375 35.453125 24.7375Q35.171875 26.1125 34.671875 27.471874L33.109375 31.675ZM50.09375 36.26875Q49.109375 37.096874 48.203125 37.440624Q47.296875 37.784374 46.265625 37.784374Q44.5625 37.784374 43.640625 36.95625Q42.71875 36.1125 42.71875 34.815624Q42.71875 34.05 43.0625 33.425Q43.421875 32.8 43.984375 32.425Q44.546875 32.034374 45.25 31.83125Q45.765625 31.70625 46.8125 31.565624Q48.9375 31.315624 49.9375 30.971874Q49.953125 30.6125 49.953125 30.503124Q49.953125 29.440624 49.453125 28.9875Q48.78125 28.39375 47.453125 28.39375Q46.203125 28.39375 45.609375 28.83125Q45.03125 29.26875 44.75 30.378124L43.03125 30.14375Q43.265625 29.034374 43.796875 28.3625Q44.328125 27.675 45.34375 27.315624Q46.359375 26.940624 47.703125 26.940624Q49.03125 26.940624 49.859375 27.253124Q50.6875 27.565624 51.078125 28.05Q51.46875 28.51875 51.625 29.2375Q51.71875 29.690624 51.71875 30.8625L51.71875 33.20625Q51.71875 35.659374 51.828125 36.315624Q51.9375 36.95625 52.28125 37.55L50.4375 37.55Q50.171875 37.003124 50.09375 36.26875ZM49.9375 32.346874Q48.984375 32.7375 47.0625 33.003124Q45.984375 33.159374 45.53125 33.3625Q45.09375 33.55 44.84375 33.925Q44.59375 34.3 44.59375 34.76875Q44.59375 35.471874 45.125 35.940624Q45.65625 36.409374 46.6875 36.409374Q47.703125 36.409374 48.484375 35.971874Q49.28125 35.51875 49.65625 34.753124Q49.9375 34.14375 49.9375 32.9875L49.9375 32.346874ZM54.296875 37.55L54.296875 27.175L55.875 27.175L55.875 28.753124Q56.484375 27.64375 57.0 27.3Q57.515625 26.940624 58.125 26.940624Q59.015625 26.940624 59.9375 27.503124L59.328125 29.14375Q58.6875 28.753124 58.046875 28.753124Q57.46875 28.753124 57.0 29.1125Q56.546875 29.45625 56.34375 30.065624Q56.0625 31.003124 56.0625 32.1125L56.0625 37.55L54.296875 37.55ZM68.09375 33.753124L69.8125 33.971874Q69.53125 35.76875 68.359375 36.784374Q67.203125 37.784374 65.5 37.784374Q63.375 37.784374 62.078125 36.39375Q60.78125 35.003124 60.78125 32.409374Q60.78125 30.721874 61.328125 29.471874Q61.890625 28.20625 63.03125 27.58125Q64.171875 26.940624 65.515625 26.940624Q67.203125 26.940624 68.265625 27.8Q69.34375 28.659374 69.65625 30.221874L67.9375 30.4875Q67.703125 29.440624 67.078125 28.925Q66.453125 28.39375 65.578125 28.39375Q64.25 28.39375 63.421875 29.346874Q62.59375 30.3 62.59375 32.346874Q62.59375 34.440624 63.390625 35.39375Q64.1875 36.33125 65.484375 36.33125Q66.515625 36.33125 67.203125 35.70625Q67.90625 35.065624 68.09375 33.753124ZM71.3125 37.55L71.3125 23.2375L73.078125 23.2375L73.078125 28.3625Q74.3125 26.940624 76.1875 26.940624Q77.328125 26.940624 78.171875 27.39375Q79.03125 27.846874 79.390625 28.659374Q79.765625 29.45625 79.765625 30.971874L79.765625 37.55L78.015625 37.55L78.015625 30.971874Q78.015625 29.659374 77.4375 29.065624Q76.859375 28.45625 75.828125 28.45625Q75.046875 28.45625 74.34375 28.8625Q73.65625 29.26875 73.359375 29.971874Q73.078125 30.659374 73.078125 31.878124L73.078125 37.55L71.3125 37.55ZM89.953125 26.7375L88.203125 26.878124Q87.96875 25.846874 87.546875 25.378124Q86.828125 24.6125 85.78125 24.6125Q84.9375 24.6125 84.3125 25.08125Q83.484375 25.690624 83.0 26.8625Q82.515625 28.01875 82.5 30.159374Q83.140625 29.20625 84.046875 28.7375Q84.96875 28.26875 85.984375 28.26875Q87.734375 28.26875 88.96875 29.565624Q90.203125 30.846874 90.203125 32.89375Q90.203125 34.253124 89.625 35.409374Q89.046875 36.565624 88.03125 37.190624Q87.015625 37.8 85.71875 37.8Q83.53125 37.8 82.140625 36.190624Q80.75 34.565624 80.75 30.846874Q80.75 26.70625 82.28125 24.815624Q83.625 23.175 85.890625 23.175Q87.578125 23.175 88.65625 24.128124Q89.734375 25.065624 89.953125 26.7375ZM82.78125 32.909374Q82.78125 33.815624 83.15625 34.64375Q83.546875 35.471874 84.234375 35.909374Q84.9375 36.346874 85.6875 36.346874Q86.8125 36.346874 87.609375 35.45625Q88.40625 34.55 88.40625 33.003124Q88.40625 31.51875 87.609375 30.675Q86.828125 29.815624 85.625 29.815624Q84.4375 29.815624 83.609375 30.675Q82.78125 31.51875 82.78125 32.909374ZM97.46875 37.55L97.46875 34.128124L91.25 34.128124L91.25 32.503124L97.78125 23.2375L99.21875 23.2375L99.21875 32.503124L101.15625 32.503124L101.15625 34.128124L99.21875 34.128124L99.21875 37.55L97.46875 37.55ZM97.46875 32.503124L97.46875 26.05L92.984375 32.503124L97.46875 32.503124ZM109.3125 37.55L109.3125 27.175L110.890625 27.175L110.890625 28.628124Q111.375 27.878124 112.1875 27.409374Q113.0 26.940624 114.03125 26.940624Q115.1875 26.940624 115.921875 27.425Q116.65625 27.89375 116.96875 28.753124Q118.203125 26.940624 120.171875 26.940624Q121.71875 26.940624 122.546875 27.8Q123.375 28.659374 123.375 30.425L123.375 37.55L121.625 37.55L121.625 31.01875Q121.625 29.95625 121.453125 29.503124Q121.28125 29.034374 120.828125 28.753124Q120.390625 28.471874 119.78125 28.471874Q118.6875 28.471874 117.953125 29.20625Q117.234375 29.925 117.234375 31.51875L117.234375 37.55L115.484375 37.55L115.484375 30.815624Q115.484375 29.64375 115.046875 29.065624Q114.625 28.471874 113.640625 28.471874Q112.90625 28.471874 112.265625 28.8625Q111.640625 29.253124 111.359375 30.003124Q111.078125 30.753124 111.078125 32.175L111.078125 37.55L109.3125 37.55ZM132.42188 34.20625L134.23438 34.440624Q133.8125 36.01875 132.64062 36.909374Q131.48438 37.784374 129.67188 37.784374Q127.40625 37.784374 126.0625 36.39375Q124.734375 34.9875 124.734375 32.45625Q124.734375 29.83125 126.078125 28.39375Q127.421875 26.940624 129.57812 26.940624Q131.65625 26.940624 132.96875 28.3625Q134.29688 29.76875 134.29688 32.346874Q134.29688 32.503124 134.28125 32.815624L126.546875 32.815624Q126.640625 34.51875 127.515625 35.425Q128.39062 36.33125 129.6875 36.33125Q130.65625 36.33125 131.32812 35.83125Q132.01562 35.315624 132.42188 34.20625ZM126.640625 31.3625L132.4375 31.3625Q132.32812 30.065624 131.78125 29.409374Q130.9375 28.39375 129.59375 28.39375Q128.39062 28.39375 127.5625 29.20625Q126.734375 30.003124 126.640625 31.3625ZM136.3125 37.55L136.3125 27.175L137.89062 27.175L137.89062 28.628124Q138.375 27.878124 139.1875 27.409374Q140.0 26.940624 141.03125 26.940624Q142.1875 26.940624 142.92188 27.425Q143.65625 27.89375 143.96875 28.753124Q145.20312 26.940624 147.17188 26.940624Q148.71875 26.940624 149.54688 27.8Q150.375 28.659374 150.375 30.425L150.375 37.55L148.625 37.55L148.625 31.01875Q148.625 29.95625 148.45312 29.503124Q148.28125 29.034374 147.82812 28.753124Q147.39062 28.471874 146.78125 28.471874Q145.6875 28.471874 144.95312 29.20625Q144.23438 29.925 144.23438 31.51875L144.23438 37.55L142.48438 37.55L142.48438 30.815624Q142.48438 29.64375 142.04688 29.065624Q141.625 28.471874 140.64062 28.471874Q139.90625 28.471874 139.26562 28.8625Q138.64062 29.253124 138.35938 30.003124Q138.07812 30.753124 138.07812 32.175L138.07812 37.55L136.3125 37.55ZM159.09375 33.753124L160.8125 33.971874Q160.53125 35.76875 159.35938 36.784374Q158.20312 37.784374 156.5 37.784374Q154.375 37.784374 153.07812 36.39375Q151.78125 35.003124 151.78125 32.409374Q151.78125 30.721874 152.32812 29.471874Q152.89062 28.20625 154.03125 27.58125Q155.17188 26.940624 156.51562 26.940624Q158.20312 26.940624 159.26562 27.8Q160.34375 28.659374 160.65625 30.221874L158.9375 30.4875Q158.70312 29.440624 158.07812 28.925Q157.45312 28.39375 156.57812 28.39375Q155.25 28.39375 154.42188 29.346874Q153.59375 30.3 153.59375 32.346874Q153.59375 34.440624 154.39062 35.39375Q155.1875 36.33125 156.48438 36.33125Q157.51562 36.33125 158.20312 35.70625Q158.90625 35.065624 159.09375 33.753124ZM162.3125 41.51875L162.3125 27.175L163.92188 27.175L163.92188 28.51875Q164.48438 27.7375 165.1875 27.346874Q165.90625 26.940624 166.92188 26.940624Q168.25 26.940624 169.26562 27.628124Q170.28125 28.315624 170.79688 29.565624Q171.32812 30.8 171.32812 32.284374Q171.32812 33.878124 170.75 35.159374Q170.1875 36.425 169.09375 37.1125Q168.0 37.784374 166.79688 37.784374Q165.92188 37.784374 165.21875 37.409374Q164.53125 37.034374 164.07812 36.471874L164.07812 41.51875L162.3125 41.51875ZM163.90625 32.425Q163.90625 34.425 164.71875 35.378124Q165.53125 36.33125 166.6875 36.33125Q167.85938 36.33125 168.6875 35.346874Q169.53125 34.3625 169.53125 32.26875Q169.53125 30.3 168.70312 29.315624Q167.89062 28.315624 166.76562 28.315624Q165.64062 28.315624 164.76562 29.378124Q163.90625 30.425 163.90625 32.425ZM173.23438 41.55L173.04688 39.89375Q173.625 40.05 174.04688 40.05Q174.64062 40.05 174.98438 39.846874Q175.34375 39.659374 175.5625 39.315624Q175.73438 39.05 176.10938 38.003124Q176.15625 37.846874 176.26562 37.565624L172.32812 27.175L174.21875 27.175L176.375 33.190624Q176.79688 34.33125 177.125 35.58125Q177.4375 34.378124 177.84375 33.221874L180.0625 27.175L181.82812 27.175L177.875 37.721874Q177.25 39.440624 176.89062 40.08125Q176.42188 40.95625 175.8125 41.346874Q175.21875 41.753124 174.375 41.753124Q173.85938 41.753124 173.23438 41.55ZM189.32812 25.253124L189.32812 23.2375L191.09375 23.2375L191.09375 25.253124L189.32812 25.253124ZM189.32812 37.55L189.32812 27.175L191.09375 27.175L191.09375 37.55L189.32812 37.55ZM193.3125 37.55L193.3125 27.175L194.90625 27.175L194.90625 28.659374Q196.04688 26.940624 198.20312 26.940624Q199.14062 26.940624 199.92188 27.284374Q200.71875 27.6125 201.10938 28.159374Q201.5 28.70625 201.65625 29.45625Q201.75 29.95625 201.75 31.175L201.75 37.55L199.98438 37.55L199.98438 31.2375Q199.98438 30.159374 199.78125 29.628124Q199.57812 29.096874 199.04688 28.784374Q198.53125 28.471874 197.82812 28.471874Q196.70312 28.471874 195.89062 29.190624Q195.07812 29.89375 195.07812 31.878124L195.07812 37.55L193.3125 37.55ZM202.60938 34.45625L204.35938 34.175Q204.5 35.221874 205.17188 35.784374Q205.84375 36.33125 207.04688 36.33125Q208.25 36.33125 208.82812 35.846874Q209.42188 35.346874 209.42188 34.690624Q209.42188 34.096874 208.90625 33.753124Q208.54688 33.51875 207.10938 33.159374Q205.17188 32.659374 204.42188 32.315624Q203.6875 31.95625 203.29688 31.33125Q202.90625 30.690624 202.90625 29.925Q202.90625 29.2375 203.21875 28.64375Q203.54688 28.05 204.09375 27.659374Q204.5 27.3625 205.20312 27.159374Q205.92188 26.940624 206.73438 26.940624Q207.95312 26.940624 208.875 27.3Q209.79688 27.64375 210.23438 28.253124Q210.67188 28.846874 210.84375 29.846874L209.125 30.08125Q209.0 29.284374 208.4375 28.846874Q207.875 28.39375 206.85938 28.39375Q205.64062 28.39375 205.125 28.8Q204.60938 29.190624 204.60938 29.721874Q204.60938 30.065624 204.82812 30.346874Q205.03125 30.628124 205.5 30.815624Q205.76562 30.909374 207.04688 31.253124Q208.92188 31.753124 209.65625 32.08125Q210.39062 32.39375 210.8125 33.003124Q211.23438 33.596874 211.23438 34.503124Q211.23438 35.378124 210.71875 36.159374Q210.20312 36.940624 209.23438 37.3625Q208.26562 37.784374 207.04688 37.784374Q205.03125 37.784374 203.96875 36.940624Q202.90625 36.096874 202.60938 34.45625ZM217.15625 35.971874L217.40625 37.534374Q216.67188 37.690624 216.07812 37.690624Q215.125 37.690624 214.59375 37.39375Q214.07812 37.08125 213.85938 36.596874Q213.64062 36.096874 213.64062 34.51875L213.64062 28.55L212.35938 28.55L212.35938 27.175L213.64062 27.175L213.64062 24.6125L215.39062 23.55L215.39062 27.175L217.15625 27.175L217.15625 28.55L215.39062 28.55L215.39062 34.6125Q215.39062 35.3625 215.48438 35.58125Q215.57812 35.784374 215.78125 35.925Q216.0 36.05 216.39062 36.05Q216.67188 36.05 217.15625 35.971874ZM219.29688 37.55L219.29688 27.175L220.875 27.175L220.875 28.753124Q221.48438 27.64375 222.0 27.3Q222.51562 26.940624 223.125 26.940624Q224.01562 26.940624 224.9375 27.503124L224.32812 29.14375Q223.6875 28.753124 223.04688 28.753124Q222.46875 28.753124 222.0 29.1125Q221.54688 29.45625 221.34375 30.065624Q221.0625 31.003124 221.0625 32.1125L221.0625 37.55L219.29688 37.55ZM233.10938 37.55L233.10938 36.01875Q231.90625 37.784374 229.82812 37.784374Q228.90625 37.784374 228.10938 37.440624Q227.3125 37.08125 226.92188 36.55Q226.54688 36.01875 226.39062 35.2375Q226.28125 34.721874 226.28125 33.596874L226.28125 27.175L228.03125 27.175L228.03125 32.925Q228.03125 34.3 228.14062 34.784374Q228.3125 35.471874 228.84375 35.878124Q229.39062 36.26875 230.17188 36.26875Q230.96875 36.26875 231.65625 35.8625Q232.35938 35.45625 232.64062 34.76875Q232.9375 34.065624 232.9375 32.7375L232.9375 27.175L234.6875 27.175L234.6875 37.55L233.10938 37.55ZM243.09375 33.753124L244.8125 33.971874Q244.53125 35.76875 243.35938 36.784374Q242.20312 37.784374 240.5 37.784374Q238.375 37.784374 237.07812 36.39375Q235.78125 35.003124 235.78125 32.409374Q235.78125 30.721874 236.32812 29.471874Q236.89062 28.20625 238.03125 27.58125Q239.17188 26.940624 240.51562 26.940624Q242.20312 26.940624 243.26562 27.8Q244.34375 28.659374 244.65625 30.221874L242.9375 30.4875Q242.70312 29.440624 242.07812 28.925Q241.45312 28.39375 240.57812 28.39375Q239.25 28.39375 238.42188 29.346874Q237.59375 30.3 237.59375 32.346874Q237.59375 34.440624 238.39062 35.39375Q239.1875 36.33125 240.48438 36.33125Q241.51562 36.33125 242.20312 35.70625Q242.90625 35.065624 243.09375 33.753124ZM250.15625 35.971874L250.40625 37.534374Q249.67188 37.690624 249.07812 37.690624Q248.125 37.690624 247.59375 37.39375Q247.07812 37.08125 246.85938 36.596874Q246.64062 36.096874 246.64062 34.51875L246.64062 28.55L245.35938 28.55L245.35938 27.175L246.64062 27.175L246.64062 24.6125L248.39062 23.55L248.39062 27.175L250.15625 27.175L250.15625 28.55L248.39062 28.55L248.39062 34.6125Q248.39062 35.3625 248.48438 35.58125Q248.57812 35.784374 248.78125 35.925Q249.0 36.05 249.39062 36.05Q249.67188 36.05 250.15625 35.971874ZM252.32812 25.253124L252.32812 23.2375L254.09375 23.2375L254.09375 25.253124L252.32812 25.253124ZM252.32812 37.55L252.32812 27.175L254.09375 27.175L254.09375 37.55L252.32812 37.55ZM255.67188 32.3625Q255.67188 29.4875 257.26562 28.096874Q258.60938 26.940624 260.53125 26.940624Q262.67188 26.940624 264.01562 28.346874Q265.375 29.753124 265.375 32.221874Q265.375 34.221874 264.78125 35.378124Q264.1875 36.51875 263.03125 37.159374Q261.89062 37.784374 260.53125 37.784374Q258.34375 37.784374 257.0 36.39375Q255.67188 34.9875 255.67188 32.3625ZM257.46875 32.3625Q257.46875 34.3625 258.32812 35.346874Q259.20312 36.33125 260.53125 36.33125Q261.84375 36.33125 262.70312 35.346874Q263.57812 34.346874 263.57812 32.3Q263.57812 30.378124 262.70312 29.39375Q261.82812 28.39375 260.53125 28.39375Q259.20312 28.39375 258.32812 29.39375Q257.46875 30.378124 257.46875 32.3625ZM267.3125 37.55L267.3125 27.175L268.90625 27.175L268.90625 28.659374Q270.04688 26.940624 272.20312 26.940624Q273.14062 26.940624 273.92188 27.284374Q274.71875 27.6125 275.10938 28.159374Q275.5 28.70625 275.65625 29.45625Q275.75 29.95625 275.75 31.175L275.75 37.55L273.98438 37.55L273.98438 31.2375Q273.98438 30.159374 273.78125 29.628124Q273.57812 29.096874 273.04688 28.784374Q272.53125 28.471874 271.82812 28.471874Q270.70312 28.471874 269.89062 29.190624Q269.07812 29.89375 269.07812 31.878124L269.07812 37.55L267.3125 37.55ZM287.15625 35.971874L287.40625 37.534374Q286.67188 37.690624 286.07812 37.690624Q285.125 37.690624 284.59375 37.39375Q284.07812 37.08125 283.85938 36.596874Q283.64062 36.096874 283.64062 34.51875L283.64062 28.55L282.35938 28.55L282.35938 27.175L283.64062 27.175L283.64062 24.6125L285.39062 23.55L285.39062 27.175L287.15625 27.175L287.15625 28.55L285.39062 28.55L285.39062 34.6125Q285.39062 35.3625 285.48438 35.58125Q285.57812 35.784374 285.78125 35.925Q286.0 36.05 286.39062 36.05Q286.67188 36.05 287.15625 35.971874ZM289.32812 25.253124L289.32812 23.2375L291.09375 23.2375L291.09375 25.253124L289.32812 25.253124ZM289.32812 37.55L289.32812 27.175L291.09375 27.175L291.09375 37.55L289.32812 37.55ZM293.3125 37.55L293.3125 27.175L294.89062 27.175L294.89062 28.628124Q295.375 27.878124 296.1875 27.409374Q297.0 26.940624 298.03125 26.940624Q299.1875 26.940624 299.92188 27.425Q300.65625 27.89375 300.96875 28.753124Q302.20312 26.940624 304.17188 26.940624Q305.71875 26.940624 306.54688 27.8Q307.375 28.659374 307.375 30.425L307.375 37.55L305.625 37.55L305.625 31.01875Q305.625 29.95625 305.45312 29.503124Q305.28125 29.034374 304.82812 28.753124Q304.39062 28.471874 303.78125 28.471874Q302.6875 28.471874 301.95312 29.20625Q301.23438 29.925 301.23438 31.51875L301.23438 37.55L299.48438 37.55L299.48438 30.815624Q299.48438 29.64375 299.04688 29.065624Q298.625 28.471874 297.64062 28.471874Q296.90625 28.471874 296.26562 28.8625Q295.64062 29.253124 295.35938 30.003124Q295.07812 30.753124 295.07812 32.175L295.07812 37.55L293.3125 37.55ZM309.32812 25.253124L309.32812 23.2375L311.09375 23.2375L311.09375 25.253124L309.32812 25.253124ZM309.32812 37.55L309.32812 27.175L311.09375 27.175L311.09375 37.55L309.32812 37.55ZM313.3125 37.55L313.3125 27.175L314.90625 27.175L314.90625 28.659374Q316.04688 26.940624 318.20312 26.940624Q319.14062 26.940624 319.92188 27.284374Q320.71875 27.6125 321.10938 28.159374Q321.5 28.70625 321.65625 29.45625Q321.75 29.95625 321.75 31.175L321.75 37.55L319.98438 37.55L319.98438 31.2375Q319.98438 30.159374 319.78125 29.628124Q319.57812 29.096874 319.04688 28.784374Q318.53125 28.471874 317.82812 28.471874Q316.70312 28.471874 315.89062 29.190624Q315.07812 29.89375 315.07812 31.878124L315.07812 37.55L313.3125 37.55ZM323.0 38.409374L324.70312 38.659374Q324.8125 39.45625 325.29688 39.815624Q325.95312 40.3 327.09375 40.3Q328.3125 40.3 328.96875 39.815624Q329.64062 39.33125 329.875 38.45625Q330.01562 37.909374 330.0 36.190624Q328.84375 37.55 327.125 37.55Q324.98438 37.55 323.8125 36.003124Q322.64062 34.45625 322.64062 32.3Q322.64062 30.815624 323.17188 29.565624Q323.71875 28.315624 324.73438 27.628124Q325.76562 26.940624 327.14062 26.940624Q328.96875 26.940624 330.17188 28.425L330.17188 27.175L331.78125 27.175L331.78125 36.14375Q331.78125 38.565624 331.28125 39.565624Q330.79688 40.58125 329.71875 41.159374Q328.65625 41.753124 327.09375 41.753124Q325.25 41.753124 324.09375 40.925Q322.95312 40.096874 323.0 38.409374ZM324.45312 32.175Q324.45312 34.221874 325.26562 35.159374Q326.07812 36.096874 327.29688 36.096874Q328.5 36.096874 329.3125 35.159374Q330.14062 34.221874 330.14062 32.2375Q330.14062 30.33125 329.29688 29.3625Q328.45312 28.39375 327.26562 28.39375Q326.09375 28.39375 325.26562 29.346874Q324.45312 30.3 324.45312 32.175ZM344.64062 37.55L339.09375 23.2375L341.14062 23.2375L344.85938 33.628124Q345.3125 34.878124 345.60938 35.971874Q345.9375 34.8 346.39062 33.628124L350.25 23.2375L352.1875 23.2375L346.57812 37.55L344.64062 37.55ZM353.46875 37.55L353.46875 23.2375L355.35938 23.2375L355.35938 35.8625L362.40625 35.8625L362.40625 37.55L353.46875 37.55ZM364.57812 37.55L364.57812 23.2375L374.9375 23.2375L374.9375 24.925L366.48438 24.925L366.48438 29.3L374.39062 29.3L374.39062 30.9875L366.48438 30.9875L366.48438 35.8625L375.26562 35.8625L375.26562 37.55L364.57812 37.55ZM377.53125 37.55L377.53125 23.2375L379.46875 23.2375L386.98438 34.471874L386.98438 23.2375L388.79688 23.2375L388.79688 37.55L386.85938 37.55L379.34375 26.3L379.34375 37.55L377.53125 37.55ZM399.5625 29.128124L390.10938 29.128124L390.10938 27.4875L399.5625 27.4875L399.5625 29.128124ZM399.5625 33.471874L390.10938 33.471874L390.10938 31.83125L399.5625 31.83125L399.5625 33.471874ZM408.45312 37.55L406.6875 37.55L406.6875 26.346874Q406.0625 26.95625 405.03125 27.565624Q404.0 28.159374 403.17188 28.471874L403.17188 26.76875Q404.65625 26.08125 405.75 25.096874Q406.85938 24.096874 407.3125 23.175L408.45312 23.175L408.45312 37.55ZM422.0625 35.8625L422.0625 37.55L412.60938 37.55Q412.59375 36.909374 412.8125 36.33125Q413.17188 35.3625 413.96875 34.425Q414.76562 33.4875 416.26562 32.253124Q418.60938 30.346874 419.42188 29.2375Q420.25 28.1125 420.25 27.1125Q420.25 26.065624 419.5 25.346874Q418.75 24.628124 417.54688 24.628124Q416.28125 24.628124 415.51562 25.39375Q414.75 26.159374 414.75 27.503124L412.9375 27.315624Q413.125 25.3 414.32812 24.2375Q415.54688 23.175 417.59375 23.175Q419.64062 23.175 420.84375 24.315624Q422.04688 25.45625 422.04688 27.14375Q422.04688 28.003124 421.6875 28.846874Q421.34375 29.675 420.53125 30.596874Q419.71875 31.503124 417.82812 33.1125Q416.23438 34.440624 415.78125 34.909374Q415.34375 35.378124 415.04688 35.8625L422.0625 35.8625ZM426.53125 29.784374Q425.4375 29.378124 424.90625 28.64375Q424.39062 27.89375 424.39062 26.8625Q424.39062 25.3 425.51562 24.2375Q426.64062 23.175 428.5 23.175Q430.375 23.175 431.51562 24.26875Q432.65625 25.346874 432.65625 26.909374Q432.65625 27.909374 432.125 28.64375Q431.60938 29.378124 430.54688 29.784374Q431.875 30.221874 432.5625 31.175Q433.25 32.128124 433.25 33.45625Q433.25 35.3 431.9375 36.55Q430.64062 37.8 428.53125 37.8Q426.40625 37.8 425.10938 36.55Q423.8125 35.284374 423.8125 33.409374Q423.8125 32.01875 424.51562 31.08125Q425.23438 30.128124 426.53125 29.784374ZM426.1875 26.8Q426.1875 27.815624 426.84375 28.471874Q427.5 29.1125 428.53125 29.1125Q429.54688 29.1125 430.20312 28.471874Q430.85938 27.83125 430.85938 26.909374Q430.85938 25.940624 430.1875 25.284374Q429.51562 24.6125 428.51562 24.6125Q427.51562 24.6125 426.84375 25.26875Q426.1875 25.909374 426.1875 26.8ZM425.625 33.425Q425.625 34.175 425.96875 34.878124Q426.32812 35.58125 427.03125 35.971874Q427.73438 36.346874 428.54688 36.346874Q429.8125 36.346874 430.625 35.534374Q431.45312 34.721874 431.45312 33.471874Q431.45312 32.20625 430.60938 31.378124Q429.76562 30.55 428.48438 30.55Q427.25 30.55 426.4375 31.378124Q425.625 32.190624 425.625 33.425ZM441.46875 37.55L441.46875 23.2375L443.35938 23.2375L443.35938 35.8625L450.40625 35.8625L450.40625 37.55L441.46875 37.55ZM452.48438 37.55L452.48438 23.2375L455.34375 23.2375L458.71875 33.3625Q459.1875 34.784374 459.40625 35.4875Q459.65625 34.70625 460.17188 33.190624L463.59375 23.2375L466.14062 23.2375L466.14062 37.55L464.32812 37.55L464.32812 25.565624L460.15625 37.55L458.45312 37.55L454.3125 25.3625L454.3125 37.55L452.48438 37.55ZM478.9375 23.2375L480.82812 23.2375L480.82812 31.503124Q480.82812 33.659374 480.34375 34.940624Q479.85938 36.20625 478.57812 37.003124Q477.3125 37.8 475.23438 37.8Q473.21875 37.8 471.9375 37.1125Q470.67188 36.409374 470.125 35.096874Q469.57812 33.784374 469.57812 31.503124L469.57812 23.2375L471.46875 23.2375L471.46875 31.4875Q471.46875 33.3625 471.8125 34.253124Q472.15625 35.128124 473.0 35.6125Q473.84375 36.08125 475.07812 36.08125Q477.15625 36.08125 478.04688 35.14375Q478.9375 34.190624 478.9375 31.4875L478.9375 23.2375ZM482.46875 37.55L482.46875 23.2375L484.35938 23.2375L484.35938 35.8625L491.40625 35.8625L491.40625 37.55L482.46875 37.55ZM502.5625 29.128124L493.10938 29.128124L493.10938 27.4875L502.5625 27.4875L502.5625 29.128124ZM502.5625 33.471874L493.10938 33.471874L493.10938 31.83125L502.5625 31.83125L502.5625 33.471874ZM511.45312 37.55L509.6875 37.55L509.6875 26.346874Q509.0625 26.95625 508.03125 27.565624Q507.0 28.159374 506.17188 28.471874L506.17188 26.76875Q507.65625 26.08125 508.75 25.096874Q509.85938 24.096874 510.3125 23.175L511.45312 23.175L511.45312 37.55Z" fill-rule="nonzero"/></svg>