<svg version="1.1" viewBox="0.0 0.0 544.0 371.0" fill="none" stroke="none" stroke-linecap="square" stroke-miterlimit="10" width="544" height="371" xmlns:xlink="http://www.w3.org/1999/xlink" xmlns="http://www.w3.org/2000/svg"><path fill="#ffffff" d="M0 0L544.0 0L544.0 371.0L0 371.0L0 0Z" fill-rule="nonzero"/><path stroke="#cccccc" stroke-width="1.0" stroke-linecap="butt" d="M77.5 61.5L77.5 300.5" fill-rule="nonzero"/><path stroke="#cccccc" stroke-width="1.0" stroke-linecap="butt" d="M190.5 61.5L190.5 300.5" fill-rule="nonzero"/><path stroke="#cccccc" stroke-width="1.0" stroke-linecap="butt" d="M303.5 61.5L303.5 300.5" fill-rule="nonzero"/><path stroke="#cccccc" stroke-width="1.0" stroke-linecap="butt" d="M416.5 61.5L416.5 300.5" fill-rule="nonzero"/><path stroke="#333333" stroke-width="1.0" stroke-linecap="butt" d="M77.5 300.5L525.5 300.5" fill-rule="nonzero"/><path stroke="#cccccc" stroke-width="1.0" stroke-linecap="butt" d="M77.5 252.5L525.5 252.5" fill-rule="nonzero"/><path stroke="#cccccc" stroke-width="1.0" stroke-linecap="butt" d="M77.5 205.5L525.5 205.5" fill-rule="nonzero"/><path stroke="#cccccc" stroke-width="1.0" stroke-linecap="butt" d="M77.5 157.5L525.5 157.5" fill-rule="nonzero"/><path stroke="#cccccc" stroke-width="1.0" stroke-linecap="butt" d="M77.5 109.5L525.5 109.5" fill-rule="nonzero"/><path stroke="#cccccc" stroke-width="1.0" stroke-linecap="butt" d="M77.5 61.5L525.5 61.5" fill-rule="nonzero"/><clipPath id="id_0"><path d="M77.55 61.916668L525.45 61.916668L525.45 300.45L77.55 300.45L77.55 61.916668Z" clip-rule="nonzero"/></clipPath><path stroke="#ea4335" stroke-width="2.0" stroke-linecap="butt" clip-path="url(#id_0)" d="M77.55 259.54007L111.60533 252.74333L131.52641 252.74333L145.66066 236.89143L156.62402 230.43185L165.58176 230.43185L173.1554 239.44391L179.71599 192.01826L185.50284 178.99986L190.67935 213.45862L195.36209 198.62741L199.63708 177.78496L203.5697 173.17175L207.21072 194.4072L210.60045 186.4477L213.77132 125.626205L216.7499 198.2151L219.55817 206.55751L222.21457 214.5709L224.73468 177.50992L227.13182 192.70978L229.41742 190.73294L231.6014 196.64787L233.69241 174.38391L235.69806 182.71413L237.62503 170.0628L239.47926 178.21863L241.26605 153.91922L242.99014 183.2036L244.65578 175.60297L246.26678 167.1777L247.82664 127.506874L249.3385 180.0778L250.80522 177.6014L252.22943 176.6675L262.34323 152.52785L268.7608 146.95898L269.7534 154.40918L270.72632 168.81494L271.68036 142.81058L272.6162 153.51347L277.88535 146.32077L278.71112 150.26234L279.52322 144.96161L280.3221 143.82811L281.10825 147.78867L281.882 117.92014L282.6437 143.335L283.39383 141.71129L284.13266 145.96404L292.22733 143.56847L315.55197 130.03044L315.93732 104.50493L316.31964 124.04714L316.69907 124.34488L317.07553 124.7712L317.44916 128.1978L317.81998 121.87284L337.1215 116.22335L349.99265 99.12047L354.57056 106.59942L384.04797 97.08208L392.89362 101.253746L418.1033 95.85306L439.38092 97.670906L452.15863 95.90896L469.198 96.803024L486.21396 95.476555L496.80164 96.23259L520.2693 95.11886L525.45 95.9782" fill-rule="nonzero"/><path fill="#000000" fill-opacity="0.0" clip-path="url(#id_0)" d="M80.55 259.54007C80.55 261.19693 79.206856 262.54007 77.55 262.54007C75.89314 262.54007 74.55 261.19693 74.55 259.54007C74.55 257.8832 75.89314 256.54007 77.55 256.54007C79.206856 256.54007 80.55 257.8832 80.55 259.54007Z" fill-rule="nonzero"/><path fill="#000000" fill-opacity="0.0" clip-path="url(#id_0)" d="M114.60533 252.74333C114.60533 254.40019 113.262184 255.74333 111.60533 255.74333C109.94848 255.74333 108.60533 254.40019 108.60533 252.74333C108.60533 251.08647 109.94848 249.74333 111.60533 249.74333C113.262184 249.74333 114.60533 251.08647 114.60533 252.74333Z" fill-rule="nonzero"/><path fill="#000000" fill-opacity="0.0" clip-path="url(#id_0)" d="M134.52641 252.74333C134.52641 254.40019 133.18327 255.74333 131.52641 255.74333C129.86957 255.74333 128.52641 254.40019 128.52641 252.74333C128.52641 251.08647 129.86957 249.74333 131.52641 249.74333C133.18327 249.74333 134.52641 251.08647 134.52641 252.74333Z" fill-rule="nonzero"/><path fill="#000000" fill-opacity="0.0" clip-path="url(#id_0)" d="M148.66066 236.89143C148.66066 238.5483 147.31752 239.89143 145.66066 239.89143C144.0038 239.89143 142.66066 238.5483 142.66066 236.89143C142.66066 235.23457 144.0038 233.89143 145.66066 233.89143C147.31752 233.89143 148.66066 235.23457 148.66066 236.89143Z" fill-rule="nonzero"/><path fill="#000000" fill-opacity="0.0" clip-path="url(#id_0)" d="M159.62402 230.43185C159.62402 232.0887 158.28088 233.43185 156.62402 233.43185C154.96718 233.43185 153.62402 232.0887 153.62402 230.43185C153.62402 228.775 154.96718 227.43185 156.62402 227.43185C158.28088 227.43185 159.62402 228.775 159.62402 230.43185Z" fill-rule="nonzero"/><path fill="#000000" fill-opacity="0.0" clip-path="url(#id_0)" d="M168.58176 230.43185C168.58176 232.0887 167.2386 233.43185 165.58176 233.43185C163.9249 233.43185 162.58176 232.0887 162.58176 230.43185C162.58176 228.775 163.9249 227.43185 165.58176 227.43185C167.2386 227.43185 168.58176 228.775 168.58176 230.43185Z" fill-rule="nonzero"/><path fill="#000000" fill-opacity="0.0" clip-path="url(#id_0)" d="M176.1554 239.44391C176.1554 241.10075 174.81226 242.44391 173.1554 242.44391C171.49855 242.44391 170.1554 241.10075 170.1554 239.44391C170.1554 237.78705 171.49855 236.44391 173.1554 236.44391C174.81226 236.44391 176.1554 237.78705 176.1554 239.44391Z" fill-rule="nonzero"/><path fill="#000000" fill-opacity="0.0" clip-path="url(#id_0)" d="M182.71599 192.01826C182.71599 193.67513 181.37285 195.01826 179.71599 195.01826C178.05913 195.01826 176.71599 193.67513 176.71599 192.01826C176.71599 190.36142 178.05913 189.01826 179.71599 189.01826C181.37285 189.01826 182.71599 190.36142 182.71599 192.01826Z" fill-rule="nonzero"/><path fill="#000000" fill-opacity="0.0" clip-path="url(#id_0)" d="M188.50284 178.99986C188.50284 180.65672 187.1597 181.99986 185.50284 181.99986C183.846 181.99986 182.50284 180.65672 182.50284 178.99986C182.50284 177.34302 183.846 175.99986 185.50284 175.99986C187.1597 175.99986 188.50284 177.34302 188.50284 178.99986Z" fill-rule="nonzero"/><path fill="#000000" fill-opacity="0.0" clip-path="url(#id_0)" d="M193.67935 213.45862C193.67935 215.11548 192.33621 216.45862 190.67935 216.45862C189.0225 216.45862 187.67935 215.11548 187.67935 213.45862C187.67935 211.80177 189.0225 210.45862 190.67935 210.45862C192.33621 210.45862 193.67935 211.80177 193.67935 213.45862Z" fill-rule="nonzero"/><path fill="#000000" fill-opacity="0.0" clip-path="url(#id_0)" d="M198.36209 198.62741C198.36209 200.28426 197.01894 201.62741 195.36209 201.62741C193.70523 201.62741 192.36209 200.28426 192.36209 198.62741C192.36209 196.97055 193.70523 195.62741 195.36209 195.62741C197.01894 195.62741 198.36209 196.97055 198.36209 198.62741Z" fill-rule="nonzero"/><path fill="#000000" fill-opacity="0.0" clip-path="url(#id_0)" d="M202.63708 177.78496C202.63708 179.44182 201.29393 180.78496 199.63708 180.78496C197.98022 180.78496 196.63708 179.44182 196.63708 177.78496C196.63708 176.12811 197.98022 174.78496 199.63708 174.78496C201.29393 174.78496 202.63708 176.12811 202.63708 177.78496Z" fill-rule="nonzero"/><path fill="#000000" fill-opacity="0.0" clip-path="url(#id_0)" d="M206.5697 173.17175C206.5697 174.82861 205.22655 176.17175 203.5697 176.17175C201.91284 176.17175 200.5697 174.82861 200.5697 173.17175C200.5697 171.51491 201.91284 170.17175 203.5697 170.17175C205.22655 170.17175 206.5697 171.51491 206.5697 173.17175Z" fill-rule="nonzero"/><path fill="#000000" fill-opacity="0.0" clip-path="url(#id_0)" d="M210.21072 194.4072C210.21072 196.06406 208.86758 197.4072 207.21072 197.4072C205.55388 197.4072 204.21072 196.06406 204.21072 194.4072C204.21072 192.75035 205.55388 191.4072 207.21072 191.4072C208.86758 191.4072 210.21072 192.75035 210.21072 194.4072Z" fill-rule="nonzero"/><path fill="#000000" fill-opacity="0.0" clip-path="url(#id_0)" d="M213.60045 186.4477C213.60045 188.10454 212.25731 189.4477 210.60045 189.4477C208.94359 189.4477 207.60045 188.10454 207.60045 186.4477C207.60045 184.79083 208.94359 183.4477 210.60045 183.4477C212.25731 183.4477 213.60045 184.79083 213.60045 186.4477Z" fill-rule="nonzero"/><path fill="#000000" fill-opacity="0.0" clip-path="url(#id_0)" d="M216.77132 125.626205C216.77132 127.28306 215.42818 128.6262 213.77132 128.6262C212.11447 128.6262 210.77132 127.28306 210.77132 125.626205C210.77132 123.969345 212.11447 122.626205 213.77132 122.626205C215.42818 122.626205 216.77132 123.969345 216.77132 125.626205Z" fill-rule="nonzero"/><path fill="#000000" fill-opacity="0.0" clip-path="url(#id_0)" d="M219.7499 198.2151C219.7499 199.87195 218.40675 201.2151 216.7499 201.2151C215.09305 201.2151 213.7499 199.87195 213.7499 198.2151C213.7499 196.55824 215.09305 195.2151 216.7499 195.2151C218.40675 195.2151 219.7499 196.55824 219.7499 198.2151Z" fill-rule="nonzero"/><path fill="#000000" fill-opacity="0.0" clip-path="url(#id_0)" d="M222.55817 206.55751C222.55817 208.21437 221.21503 209.55751 219.55817 209.55751C217.90132 209.55751 216.55817 208.21437 216.55817 206.55751C216.55817 204.90067 217.90132 203.55751 219.55817 203.55751C221.21503 203.55751 222.55817 204.90067 222.55817 206.55751Z" fill-rule="nonzero"/><path fill="#000000" fill-opacity="0.0" clip-path="url(#id_0)" d="M225.21457 214.5709C225.21457 216.22777 223.87143 217.5709 222.21457 217.5709C220.55772 217.5709 219.21457 216.22777 219.21457 214.5709C219.21457 212.91406 220.55772 211.5709 222.21457 211.5709C223.87143 211.5709 225.21457 212.91406 225.21457 214.5709Z" fill-rule="nonzero"/><path fill="#000000" fill-opacity="0.0" clip-path="url(#id_0)" d="M227.73468 177.50992C227.73468 179.16678 226.39154 180.50992 224.73468 180.50992C223.07784 180.50992 221.73468 179.16678 221.73468 177.50992C221.73468 175.85307 223.07784 174.50992 224.73468 174.50992C226.39154 174.50992 227.73468 175.85307 227.73468 177.50992Z" fill-rule="nonzero"/><path fill="#000000" fill-opacity="0.0" clip-path="url(#id_0)" d="M230.13182 192.70978C230.13182 194.36662 228.78867 195.70978 227.13182 195.70978C225.47496 195.70978 224.13182 194.36662 224.13182 192.70978C224.13182 191.05292 225.47496 189.70978 227.13182 189.70978C228.78867 189.70978 230.13182 191.05292 230.13182 192.70978Z" fill-rule="nonzero"/><path fill="#000000" fill-opacity="0.0" clip-path="url(#id_0)" d="M232.41742 190.73294C232.41742 192.38979 231.07426 193.73294 229.41742 193.73294C227.76056 193.73294 226.41742 192.38979 226.41742 190.73294C226.41742 189.07608 227.76056 187.73294 229.41742 187.73294C231.07426 187.73294 232.41742 189.07608 232.41742 190.73294Z" fill-rule="nonzero"/><path fill="#000000" fill-opacity="0.0" clip-path="url(#id_0)" d="M234.6014 196.64787C234.6014 198.30473 233.25826 199.64787 231.6014 199.64787C229.94453 199.64787 228.6014 198.30473 228.6014 196.64787C228.6014 194.99103 229.94453 193.64787 231.6014 193.64787C233.25826 193.64787 234.6014 194.99103 234.6014 196.64787Z" fill-rule="nonzero"/><path fill="#000000" fill-opacity="0.0" clip-path="url(#id_0)" d="M236.69241 174.38391C236.69241 176.04077 235.34926 177.38391 233.69241 177.38391C232.03555 177.38391 230.69241 176.04077 230.69241 174.38391C230.69241 172.72707 232.03555 171.38391 233.69241 171.38391C235.34926 171.38391 236.69241 172.72707 236.69241 174.38391Z" fill-rule="nonzero"/><path fill="#000000" fill-opacity="0.0" clip-path="url(#id_0)" d="M238.69806 182.71413C238.69806 184.37099 237.3549 185.71413 235.69806 185.71413C234.0412 185.71413 232.69806 184.37099 232.69806 182.71413C232.69806 181.05728 234.0412 179.71413 235.69806 179.71413C237.3549 179.71413 238.69806 181.05728 238.69806 182.71413Z" fill-rule="nonzero"/><path fill="#000000" fill-opacity="0.0" clip-path="url(#id_0)" d="M240.62503 170.0628C240.62503 171.71965 239.28188 173.0628 237.62503 173.0628C235.96817 173.0628 234.62503 171.71965 234.62503 170.0628C234.62503 168.40594 235.96817 167.0628 237.62503 167.0628C239.28188 167.0628 240.62503 168.40594 240.62503 170.0628Z" fill-rule="nonzero"/><path fill="#000000" fill-opacity="0.0" clip-path="url(#id_0)" d="M242.47926 178.21863C242.47926 179.87547 241.13611 181.21863 239.47926 181.21863C237.8224 181.21863 236.47926 179.87547 236.47926 178.21863C236.47926 176.56177 237.8224 175.21863 239.47926 175.21863C241.13611 175.21863 242.47926 176.56177 242.47926 178.21863Z" fill-rule="nonzero"/><path fill="#000000" fill-opacity="0.0" clip-path="url(#id_0)" d="M244.26605 153.91922C244.26605 155.57607 242.92291 156.91922 241.26605 156.91922C239.6092 156.91922 238.26605 155.57607 238.26605 153.91922C238.26605 152.26236 239.6092 150.91922 241.26605 150.91922C242.92291 150.91922 244.26605 152.26236 244.26605 153.91922Z" fill-rule="nonzero"/><path fill="#000000" fill-opacity="0.0" clip-path="url(#id_0)" d="M245.99014 183.2036C245.99014 184.86046 244.647 186.2036 242.99014 186.2036C241.3333 186.2036 239.99014 184.86046 239.99014 183.2036C239.99014 181.54675 241.3333 180.2036 242.99014 180.2036C244.647 180.2036 245.99014 181.54675 245.99014 183.2036Z" fill-rule="nonzero"/><path fill="#000000" fill-opacity="0.0" clip-path="url(#id_0)" d="M247.65578 175.60297C247.65578 177.25983 246.31264 178.60297 244.65578 178.60297C242.99892 178.60297 241.65578 177.25983 241.65578 175.60297C241.65578 173.9461 242.99892 172.60297 244.65578 172.60297C246.31264 172.60297 247.65578 173.9461 247.65578 175.60297Z" fill-rule="nonzero"/><path fill="#000000" fill-opacity="0.0" clip-path="url(#id_0)" d="M249.26678 167.1777C249.26678 168.83456 247.92365 170.1777 246.26678 170.1777C244.60994 170.1777 243.26678 168.83456 243.26678 167.1777C243.26678 165.52086 244.60994 164.1777 246.26678 164.1777C247.92365 164.1777 249.26678 165.52086 249.26678 167.1777Z" fill-rule="nonzero"/><path fill="#000000" fill-opacity="0.0" clip-path="url(#id_0)" d="M250.82664 127.506874C250.82664 129.16373 249.4835 130.50687 247.82664 130.50687C246.1698 130.50687 244.82664 129.16373 244.82664 127.506874C244.82664 125.85002 246.1698 124.506874 247.82664 124.506874C249.4835 124.506874 250.82664 125.85002 250.82664 127.506874Z" fill-rule="nonzero"/><path fill="#000000" fill-opacity="0.0" clip-path="url(#id_0)" d="M252.3385 180.0778C252.3385 181.73465 250.99536 183.0778 249.3385 183.0778C247.68166 183.0778 246.3385 181.73465 246.3385 180.0778C246.3385 178.42094 247.68166 177.0778 249.3385 177.0778C250.99536 177.0778 252.3385 178.42094 252.3385 180.0778Z" fill-rule="nonzero"/><path fill="#000000" fill-opacity="0.0" clip-path="url(#id_0)" d="M253.80522 177.6014C253.80522 179.25826 252.46208 180.6014 250.80522 180.6014C249.14838 180.6014 247.80522 179.25826 247.80522 177.6014C247.80522 175.94455 249.14838 174.6014 250.80522 174.6014C252.46208 174.6014 253.80522 175.94455 253.80522 177.6014Z" fill-rule="nonzero"/><path fill="#000000" fill-opacity="0.0" clip-path="url(#id_0)" d="M255.22943 176.6675C255.22943 178.32436 253.88628 179.6675 252.22943 179.6675C250.57257 179.6675 249.22943 178.32436 249.22943 176.6675C249.22943 175.01065 250.57257 173.6675 252.22943 173.6675C253.88628 173.6675 255.22943 175.01065 255.22943 176.6675Z" fill-rule="nonzero"/><path fill="#000000" fill-opacity="0.0" clip-path="url(#id_0)" d="M265.34323 152.52785C265.34323 154.1847 264.0001 155.52785 262.34323 155.52785C260.68637 155.52785 259.34323 154.1847 259.34323 152.52785C259.34323 150.87099 260.68637 149.52785 262.34323 149.52785C264.0001 149.52785 265.34323 150.87099 265.34323 152.52785Z" fill-rule="nonzero"/><path fill="#000000" fill-opacity="0.0" clip-path="url(#id_0)" d="M271.7608 146.95898C271.7608 148.61584 270.41766 149.95898 268.7608 149.95898C267.10394 149.95898 265.7608 148.61584 265.7608 146.95898C265.7608 145.30212 267.10394 143.95898 268.7608 143.95898C270.41766 143.95898 271.7608 145.30212 271.7608 146.95898Z" fill-rule="nonzero"/><path fill="#000000" fill-opacity="0.0" clip-path="url(#id_0)" d="M272.7534 154.40918C272.7534 156.06604 271.41025 157.40918 269.7534 157.40918C268.09653 157.40918 266.7534 156.06604 266.7534 154.40918C266.7534 152.75233 268.09653 151.40918 269.7534 151.40918C271.41025 151.40918 272.7534 152.75233 272.7534 154.40918Z" fill-rule="nonzero"/><path fill="#000000" fill-opacity="0.0" clip-path="url(#id_0)" d="M273.72632 168.81494C273.72632 170.47179 272.38318 171.81494 270.72632 171.81494C269.06946 171.81494 267.72632 170.47179 267.72632 168.81494C267.72632 167.15808 269.06946 165.81494 270.72632 165.81494C272.38318 165.81494 273.72632 167.15808 273.72632 168.81494Z" fill-rule="nonzero"/><path fill="#000000" fill-opacity="0.0" clip-path="url(#id_0)" d="M274.68036 142.81058C274.68036 144.46744 273.33722 145.81058 271.68036 145.81058C270.0235 145.81058 268.68036 144.46744 268.68036 142.81058C268.68036 141.15373 270.0235 139.81058 271.68036 139.81058C273.33722 139.81058 274.68036 141.15373 274.68036 142.81058Z" fill-rule="nonzero"/><path fill="#000000" fill-opacity="0.0" clip-path="url(#id_0)" d="M275.6162 153.51347C275.6162 155.17032 274.27307 156.51347 272.6162 156.51347C270.95935 156.51347 269.6162 155.17032 269.6162 153.51347C269.6162 151.85661 270.95935 150.51347 272.6162 150.51347C274.27307 150.51347 275.6162 151.85661 275.6162 153.51347Z" fill-rule="nonzero"/><path fill="#000000" fill-opacity="0.0" clip-path="url(#id_0)" d="M280.88535 146.32077C280.88535 147.97763 279.5422 149.32077 277.88535 149.32077C276.2285 149.32077 274.88535 147.97763 274.88535 146.32077C274.88535 144.66391 276.2285 143.32077 277.88535 143.32077C279.5422 143.32077 280.88535 144.66391 280.88535 146.32077Z" fill-rule="nonzero"/><path fill="#000000" fill-opacity="0.0" clip-path="url(#id_0)" d="M281.71112 150.26234C281.71112 151.9192 280.36795 153.26234 278.71112 153.26234C277.05426 153.26234 275.71112 151.9192 275.71112 150.26234C275.71112 148.60548 277.05426 147.26234 278.71112 147.26234C280.36795 147.26234 281.71112 148.60548 281.71112 150.26234Z" fill-rule="nonzero"/><path fill="#000000" fill-opacity="0.0" clip-path="url(#id_0)" d="M282.52322 144.96161C282.52322 146.61845 281.18008 147.96161 279.52322 147.96161C277.86636 147.96161 276.52322 146.61845 276.52322 144.96161C276.52322 143.30475 277.86636 141.96161 279.52322 141.96161C281.18008 141.96161 282.52322 143.30475 282.52322 144.96161Z" fill-rule="nonzero"/><path fill="#000000" fill-opacity="0.0" clip-path="url(#id_0)" d="M283.3221 143.82811C283.3221 145.48497 281.97897 146.82811 280.3221 146.82811C278.66525 146.82811 277.3221 145.48497 277.3221 143.82811C277.3221 142.17126 278.66525 140.82811 280.3221 140.82811C281.97897 140.82811 283.3221 142.17126 283.3221 143.82811Z" fill-rule="nonzero"/><path fill="#000000" fill-opacity="0.0" clip-path="url(#id_0)" d="M284.10825 147.78867C284.10825 149.44553 282.7651 150.78867 281.10825 150.78867C279.4514 150.78867 278.10825 149.44553 278.10825 147.78867C278.10825 146.1318 279.4514 144.78867 281.10825 144.78867C282.7651 144.78867 284.10825 146.1318 284.10825 147.78867Z" fill-rule="nonzero"/><path fill="#000000" fill-opacity="0.0" clip-path="url(#id_0)" d="M284.882 117.92014C284.882 119.576996 283.53882 120.92014 281.882 120.92014C280.22513 120.92014 278.882 119.576996 278.882 117.92014C278.882 116.26329 280.22513 114.92014 281.882 114.92014C283.53882 114.92014 284.882 116.26329 284.882 117.92014Z" fill-rule="nonzero"/><path fill="#000000" fill-opacity="0.0" clip-path="url(#id_0)" d="M285.6437 143.335C285.6437 144.99187 284.30057 146.335 282.6437 146.335C280.98688 146.335 279.6437 144.99187 279.6437 143.335C279.6437 141.67816 280.98688 140.335 282.6437 140.335C284.30057 140.335 285.6437 141.67816 285.6437 143.335Z" fill-rule="nonzero"/><path fill="#000000" fill-opacity="0.0" clip-path="url(#id_0)" d="M286.39383 141.71129C286.39383 143.36813 285.0507 144.71129 283.39383 144.71129C281.73697 144.71129 280.39383 143.36813 280.39383 141.71129C280.39383 140.05443 281.73697 138.71129 283.39383 138.71129C285.0507 138.71129 286.39383 140.05443 286.39383 141.71129Z" fill-rule="nonzero"/><path fill="#000000" fill-opacity="0.0" clip-path="url(#id_0)" d="M287.13266 145.96404C287.13266 147.62088 285.78952 148.96404 284.13266 148.96404C282.4758 148.96404 281.13266 147.62088 281.13266 145.96404C281.13266 144.30717 282.4758 142.96404 284.13266 142.96404C285.78952 142.96404 287.13266 144.30717 287.13266 145.96404Z" fill-rule="nonzero"/><path fill="#000000" fill-opacity="0.0" clip-path="url(#id_0)" d="M295.22733 143.56847C295.22733 145.22531 293.8842 146.56847 292.22733 146.56847C290.57047 146.56847 289.22733 145.22531 289.22733 143.56847C289.22733 141.9116 290.57047 140.56847 292.22733 140.56847C293.8842 140.56847 295.22733 141.9116 295.22733 143.56847Z" fill-rule="nonzero"/><path fill="#000000" fill-opacity="0.0" clip-path="url(#id_0)" d="M318.55197 130.03044C318.55197 131.68729 317.2088 133.03044 315.55197 133.03044C313.8951 133.03044 312.55197 131.68729 312.55197 130.03044C312.55197 128.37358 313.8951 127.03043 315.55197 127.03043C317.2088 127.03043 318.55197 128.37358 318.55197 130.03044Z" fill-rule="nonzero"/><path fill="#000000" fill-opacity="0.0" clip-path="url(#id_0)" d="M318.93732 104.50493C318.93732 106.16178 317.59418 107.50493 315.93732 107.50493C314.28046 107.50493 312.93732 106.16178 312.93732 104.50493C312.93732 102.848076 314.28046 101.50493 315.93732 101.50493C317.59418 101.50493 318.93732 102.848076 318.93732 104.50493Z" fill-rule="nonzero"/><path fill="#000000" fill-opacity="0.0" clip-path="url(#id_0)" d="M319.31964 124.04714C319.31964 125.704 317.9765 127.04714 316.31964 127.04714C314.6628 127.04714 313.31964 125.704 313.31964 124.04714C313.31964 122.39029 314.6628 121.04714 316.31964 121.04714C317.9765 121.04714 319.31964 122.39029 319.31964 124.04714Z" fill-rule="nonzero"/><path fill="#000000" fill-opacity="0.0" clip-path="url(#id_0)" d="M319.69907 124.34488C319.69907 126.00173 318.3559 127.34488 316.69907 127.34488C315.0422 127.34488 313.69907 126.00173 313.69907 124.34488C313.69907 122.68803 315.0422 121.34488 316.69907 121.34488C318.3559 121.34488 319.69907 122.68803 319.69907 124.34488Z" fill-rule="nonzero"/><path fill="#000000" fill-opacity="0.0" clip-path="url(#id_0)" d="M320.07553 124.7712C320.07553 126.428055 318.7324 127.7712 317.07553 127.7712C315.41867 127.7712 314.07553 126.428055 314.07553 124.7712C314.07553 123.11435 315.41867 121.7712 317.07553 121.7712C318.7324 121.7712 320.07553 123.11435 320.07553 124.7712Z" fill-rule="nonzero"/><path fill="#000000" fill-opacity="0.0" clip-path="url(#id_0)" d="M320.44916 128.1978C320.44916 129.85464 319.10602 131.1978 317.44916 131.1978C315.7923 131.1978 314.44916 129.85464 314.44916 128.1978C314.44916 126.54094 315.7923 125.1978 317.44916 125.1978C319.10602 125.1978 320.44916 126.54094 320.44916 128.1978Z" fill-rule="nonzero"/><path fill="#000000" fill-opacity="0.0" clip-path="url(#id_0)" d="M320.81998 121.87284C320.81998 123.52969 319.47684 124.87284 317.81998 124.87284C316.16312 124.87284 314.81998 123.52969 314.81998 121.87284C314.81998 120.21599 316.16312 118.87284 317.81998 118.87284C319.47684 118.87284 320.81998 120.21599 320.81998 121.87284Z" fill-rule="nonzero"/><path fill="#000000" fill-opacity="0.0" clip-path="url(#id_0)" d="M340.1215 116.22335C340.1215 117.88021 338.77835 119.22335 337.1215 119.22335C335.46463 119.22335 334.1215 117.88021 334.1215 116.22335C334.1215 114.5665 335.46463 113.22335 337.1215 113.22335C338.77835 113.22335 340.1215 114.5665 340.1215 116.22335Z" fill-rule="nonzero"/><path fill="#000000" fill-opacity="0.0" clip-path="url(#id_0)" d="M352.99265 99.12047C352.99265 100.77732 351.6495 102.12047 349.99265 102.12047C348.3358 102.12047 346.99265 100.77732 346.99265 99.12047C346.99265 97.463615 348.3358 96.12047 349.99265 96.12047C351.6495 96.12047 352.99265 97.463615 352.99265 99.12047Z" fill-rule="nonzero"/><path fill="#000000" fill-opacity="0.0" clip-path="url(#id_0)" d="M357.57056 106.59942C357.57056 108.25627 356.22742 109.59942 354.57056 109.59942C352.91373 109.59942 351.57056 108.25627 351.57056 106.59942C351.57056 104.942566 352.91373 103.59942 354.57056 103.59942C356.22742 103.59942 357.57056 104.942566 357.57056 106.59942Z" fill-rule="nonzero"/><path fill="#000000" fill-opacity="0.0" clip-path="url(#id_0)" d="M387.04797 97.08208C387.04797 98.73893 385.70483 100.08208 384.04797 100.08208C382.3911 100.08208 381.04797 98.73893 381.04797 97.08208C381.04797 95.42522 382.3911 94.08208 384.04797 94.08208C385.70483 94.08208 387.04797 95.42522 387.04797 97.08208Z" fill-rule="nonzero"/><path fill="#000000" fill-opacity="0.0" clip-path="url(#id_0)" d="M395.89362 101.253746C395.89362 102.9106 394.55048 104.253746 392.89362 104.253746C391.23676 104.253746 389.89362 102.9106 389.89362 101.253746C389.89362 99.596886 391.23676 98.253746 392.89362 98.253746C394.55048 98.253746 395.89362 99.596886 395.89362 101.253746Z" fill-rule="nonzero"/><path fill="#000000" fill-opacity="0.0" clip-path="url(#id_0)" d="M421.1033 95.85306C421.1033 97.50991 419.76016 98.85306 418.1033 98.85306C416.44644 98.85306 415.1033 97.50991 415.1033 95.85306C415.1033 94.196205 416.44644 92.85306 418.1033 92.85306C419.76016 92.85306 421.1033 94.196205 421.1033 95.85306Z" fill-rule="nonzero"/><path fill="#000000" fill-opacity="0.0" clip-path="url(#id_0)" d="M442.38092 97.670906C442.38092 99.32776 441.03778 100.670906 439.38092 100.670906C437.72406 100.670906 436.38092 99.32776 436.38092 97.670906C436.38092 96.01405 437.72406 94.670906 439.38092 94.670906C441.03778 94.670906 442.38092 96.01405 442.38092 97.670906Z" fill-rule="nonzero"/><path fill="#000000" fill-opacity="0.0" clip-path="url(#id_0)" d="M455.15863 95.90896C455.15863 97.56582 453.8155 98.90896 452.15863 98.90896C450.50177 98.90896 449.15863 97.56582 449.15863 95.90896C449.15863 94.252106 450.50177 92.90896 452.15863 92.90896C453.8155 92.90896 455.15863 94.252106 455.15863 95.90896Z" fill-rule="nonzero"/><path fill="#000000" fill-opacity="0.0" clip-path="url(#id_0)" d="M472.198 96.803024C472.198 98.45988 470.85486 99.803024 469.198 99.803024C467.54114 99.803024 466.198 98.45988 466.198 96.803024C466.198 95.14617 467.54114 93.803024 469.198 93.803024C470.85486 93.803024 472.198 95.14617 472.198 96.803024Z" fill-rule="nonzero"/><path fill="#000000" fill-opacity="0.0" clip-path="url(#id_0)" d="M489.21396 95.476555C489.21396 97.13341 487.87082 98.476555 486.21396 98.476555C484.5571 98.476555 483.21396 97.13341 483.21396 95.476555C483.21396 93.819695 484.5571 92.476555 486.21396 92.476555C487.87082 92.476555 489.21396 93.819695 489.21396 95.476555Z" fill-rule="nonzero"/><path fill="#000000" fill-opacity="0.0" clip-path="url(#id_0)" d="M499.80164 96.23259C499.80164 97.88944 498.4585 99.23259 496.80164 99.23259C495.1448 99.23259 493.80164 97.88944 493.80164 96.23259C493.80164 94.57574 495.1448 93.23259 496.80164 93.23259C498.4585 93.23259 499.80164 94.57574 499.80164 96.23259Z" fill-rule="nonzero"/><path fill="#000000" fill-opacity="0.0" clip-path="url(#id_0)" d="M523.2693 95.11886C523.2693 96.77571 521.92615 98.11886 520.2693 98.11886C518.6124 98.11886 517.2693 96.77571 517.2693 95.11886C517.2693 93.462006 518.6124 92.11886 520.2693 92.11886C521.92615 92.11886 523.2693 93.462006 523.2693 95.11886Z" fill-rule="nonzero"/><path fill="#000000" fill-opacity="0.0" clip-path="url(#id_0)" d="M528.45 95.9782C528.45 97.635056 527.1069 98.9782 525.45 98.9782C523.79315 98.9782 522.45 97.635056 522.45 95.9782C522.45 94.32135 523.79315 92.9782 525.45 92.9782C527.1069 92.9782 528.45 94.32135 528.45 95.9782Z" fill-rule="nonzero"/><path fill="#000000" d="M270.54688 346.6844L271.60938 346.59064Q271.6875 347.2469 271.96875 347.65314Q272.25 348.0594 272.82812 348.325Q273.42188 348.575 274.15625 348.575Q274.79688 348.575 275.29688 348.3875Q275.79688 348.1844 276.03125 347.85626Q276.28125 347.5125 276.28125 347.1219Q276.28125 346.71564 276.04688 346.41876Q275.8125 346.10626 275.28125 345.90314Q274.92188 345.7625 273.73438 345.48126Q272.5625 345.2 272.09375 344.95Q271.46875 344.6219 271.17188 344.15314Q270.875 343.66876 270.875 343.075Q270.875 342.4344 271.23438 341.8719Q271.60938 341.29376 272.3125 341.0125Q273.03125 340.71564 273.89062 340.71564Q274.84375 340.71564 275.57812 341.02814Q276.3125 341.325 276.70312 341.9344Q277.09375 342.52814 277.125 343.27814L276.03125 343.35626Q275.9375 342.54376 275.42188 342.1375Q274.92188 341.71564 273.9375 341.71564Q272.90625 341.71564 272.4375 342.09064Q271.96875 342.46564 271.96875 342.9969Q271.96875 343.46564 272.29688 343.7625Q272.625 344.0594 274.0 344.3719Q275.39062 344.6844 275.90625 344.91876Q276.65625 345.27814 277.01562 345.8094Q277.375 346.325 277.375 347.02814Q277.375 347.71564 276.98438 348.325Q276.59375 348.91876 275.85938 349.2625Q275.125 349.59064 274.20312 349.59064Q273.03125 349.59064 272.23438 349.2625Q271.45312 348.91876 271.0 348.23126Q270.5625 347.54376 270.54688 346.6844ZM278.79688 342.075L278.79688 340.85626L279.85938 340.85626L279.85938 342.075L278.79688 342.075ZM278.79688 349.45L278.79688 343.23126L279.85938 343.23126L279.85938 349.45L278.79688 349.45ZM281.23438 349.45L281.23438 348.59064L285.20312 344.04376Q284.51562 344.075 284.0 344.075L281.46875 344.075L281.46875 343.23126L286.5625 343.23126L286.5625 343.91876L283.1875 347.8719L282.53125 348.59064Q283.25 348.54376 283.85938 348.54376L286.75 348.54376L286.75 349.45L281.23438 349.45ZM291.04688 347.45L292.14062 347.575Q291.89062 348.52814 291.1875 349.0594Q290.48438 349.59064 289.40625 349.59064Q288.04688 349.59064 287.23438 348.7469Q286.4375 347.90314 286.4375 346.3875Q286.4375 344.825 287.25 343.96564Q288.0625 343.09064 289.34375 343.09064Q290.59375 343.09064 291.375 343.9344Q292.17188 344.77814 292.17188 346.325Q292.17188 346.41876 292.17188 346.60626L287.53125 346.60626Q287.59375 347.6375 288.10938 348.1844Q288.625 348.71564 289.40625 348.71564Q289.98438 348.71564 290.39062 348.41876Q290.8125 348.10626 291.04688 347.45ZM287.59375 345.7469L291.0625 345.7469Q291.0 344.95 290.67188 344.5594Q290.15625 343.95 289.35938 343.95Q288.625 343.95 288.125 344.4344Q287.64062 344.91876 287.59375 345.7469ZM298.8125 351.98126Q297.9375 350.8719 297.32812 349.40314Q296.73438 347.91876 296.73438 346.34064Q296.73438 344.95 297.17188 343.66876Q297.70312 342.1844 298.8125 340.71564L299.5625 340.71564Q298.85938 341.9344 298.625 342.45Q298.26562 343.2625 298.0625 344.1375Q297.8125 345.23126 297.8125 346.34064Q297.8125 349.16876 299.5625 351.98126L298.8125 351.98126ZM301.76562 349.45L300.78125 349.45L300.78125 340.85626L301.84375 340.85626L301.84375 343.91876Q302.51562 343.09064 303.54688 343.09064Q304.125 343.09064 304.625 343.325Q305.14062 343.54376 305.46875 343.96564Q305.8125 344.3875 306.0 344.98126Q306.1875 345.575 306.1875 346.2469Q306.1875 347.84064 305.39062 348.71564Q304.59375 349.59064 303.5 349.59064Q302.39062 349.59064 301.76562 348.66876L301.76562 349.45ZM301.75 346.29376Q301.75 347.40314 302.0625 347.90314Q302.5625 348.71564 303.40625 348.71564Q304.09375 348.71564 304.59375 348.1219Q305.10938 347.52814 305.10938 346.325Q305.10938 345.10626 304.625 344.52814Q304.14062 343.95 303.45312 343.95Q302.76562 343.95 302.25 344.5594Q301.75 345.15314 301.75 346.29376ZM307.75 351.84064L307.625 350.85626Q307.96875 350.95 308.23438 350.95Q308.57812 350.95 308.78125 350.825Q309.0 350.71564 309.14062 350.5125Q309.23438 350.34064 309.46875 349.71564Q309.48438 349.6375 309.5625 349.46564L307.1875 343.23126L308.32812 343.23126L309.625 346.825Q309.875 347.5125 310.07812 348.27814Q310.26562 347.54376 310.51562 346.85626L311.84375 343.23126L312.89062 343.23126L310.53125 349.5594Q310.14062 350.575 309.9375 350.96564Q309.65625 351.4969 309.28125 351.73126Q308.92188 351.98126 308.42188 351.98126Q308.125 351.98126 307.75 351.84064ZM315.09375 348.5125L315.25 349.4344Q314.79688 349.52814 314.45312 349.52814Q313.875 349.52814 313.5625 349.35626Q313.25 349.16876 313.10938 348.8719Q312.98438 348.575 312.98438 347.6219L312.98438 344.04376L312.21875 344.04376L312.21875 343.23126L312.98438 343.23126L312.98438 341.6844L314.03125 341.0594L314.03125 343.23126L315.09375 343.23126L315.09375 344.04376L314.03125 344.04376L314.03125 347.6844Q314.03125 348.1375 314.07812 348.2625Q314.14062 348.3875 314.26562 348.46564Q314.39062 348.54376 314.625 348.54376Q314.8125 348.54376 315.09375 348.5125ZM320.04688 347.45L321.14062 347.575Q320.89062 348.52814 320.1875 349.0594Q319.48438 349.59064 318.40625 349.59064Q317.04688 349.59064 316.23438 348.7469Q315.4375 347.90314 315.4375 346.3875Q315.4375 344.825 316.25 343.96564Q317.0625 343.09064 318.34375 343.09064Q319.59375 343.09064 320.375 343.9344Q321.17188 344.77814 321.17188 346.325Q321.17188 346.41876 321.17188 346.60626L316.53125 346.60626Q316.59375 347.6375 317.10938 348.1844Q317.625 348.71564 318.40625 348.71564Q318.98438 348.71564 319.39062 348.41876Q319.8125 348.10626 320.04688 347.45ZM316.59375 345.7469L320.0625 345.7469Q320.0 344.95 319.67188 344.5594Q319.15625 343.95 318.35938 343.95Q317.625 343.95 317.125 344.4344Q316.64062 344.91876 316.59375 345.7469ZM322.375 347.59064L323.40625 347.4344Q323.5 348.0594 323.89062 348.3875Q324.29688 348.71564 325.03125 348.71564Q325.75 348.71564 326.09375 348.4344Q326.45312 348.1375 326.45312 347.73126Q326.45312 347.3719 326.14062 347.16876Q325.92188 347.02814 325.0625 346.8094Q323.90625 346.5125 323.45312 346.3094Q323.01562 346.09064 322.78125 345.71564Q322.54688 345.34064 322.54688 344.8719Q322.54688 344.46564 322.73438 344.10626Q322.92188 343.7469 323.25 343.5125Q323.5 343.34064 323.92188 343.21564Q324.34375 343.09064 324.84375 343.09064Q325.5625 343.09064 326.10938 343.3094Q326.67188 343.5125 326.9375 343.8719Q327.20312 344.23126 327.29688 344.825L326.26562 344.96564Q326.20312 344.4969 325.85938 344.23126Q325.53125 343.95 324.90625 343.95Q324.1875 343.95 323.875 344.2Q323.5625 344.4344 323.5625 344.7625Q323.5625 344.96564 323.6875 345.1219Q323.82812 345.29376 324.09375 345.40314Q324.25 345.46564 325.03125 345.66876Q326.15625 345.98126 326.59375 346.16876Q327.03125 346.35626 327.28125 346.71564Q327.53125 347.075 327.53125 347.6219Q327.53125 348.15314 327.21875 348.6219Q326.92188 349.075 326.34375 349.34064Q325.76562 349.59064 325.03125 349.59064Q323.8125 349.59064 323.17188 349.09064Q322.54688 348.575 322.375 347.59064ZM330.48438 351.98126L329.73438 351.98126Q331.48438 349.16876 331.48438 346.34064Q331.48438 345.2469 331.23438 344.15314Q331.03125 343.27814 330.67188 342.46564Q330.4375 341.95 329.73438 340.71564L330.48438 340.71564Q331.57812 342.1844 332.10938 343.66876Q332.5625 344.95 332.5625 346.34064Q332.5625 347.91876 331.95312 349.40314Q331.34375 350.8719 330.48438 351.98126Z" fill-rule="nonzero"/><path fill="#000000" d="M26.784388 252.13646L26.690638 251.07396Q27.346888 250.99583 27.753138 250.71458Q28.159388 250.43333 28.425013 249.85521Q28.675013 249.26146 28.675013 248.52708Q28.675013 247.88646 28.487513 247.38646Q28.284388 246.88646 27.956263 246.65208Q27.612513 246.40208 27.221888 246.40208Q26.815638 246.40208 26.518763 246.63646Q26.206263 246.87083 26.003138 247.40208Q25.862513 247.76146 25.581263 248.94896Q25.300013 250.12083 25.050013 250.58958Q24.721888 251.21458 24.253138 251.51146Q23.768763 251.80833 23.175013 251.80833Q22.534388 251.80833 21.971888 251.44896Q21.393763 251.07396 21.112513 250.37083Q20.815638 249.65208 20.815638 248.79271Q20.815638 247.83958 21.128138 247.10521Q21.425013 246.37083 22.034388 245.98021Q22.628138 245.58958 23.378138 245.55833L23.456263 246.65208Q22.643763 246.74583 22.237513 247.26146Q21.815638 247.76146 21.815638 248.74583Q21.815638 249.77708 22.190638 250.24583Q22.565638 250.71458 23.096888 250.71458Q23.565638 250.71458 23.862513 250.38646Q24.159388 250.05833 24.471888 248.68333Q24.784388 247.29271 25.018763 246.77708Q25.378138 246.02708 25.909388 245.66771Q26.425013 245.30833 27.128138 245.30833Q27.815638 245.30833 28.425013 245.69896Q29.018763 246.08958 29.362513 246.82396Q29.690638 247.55833 29.690638 248.48021Q29.690638 249.65208 29.362513 250.44896Q29.018763 251.23021 28.331263 251.68333Q27.643763 252.12083 26.784388 252.13646ZM31.940638 243.88646L23.331263 243.88646L23.331263 242.93333L24.128138 242.93333Q23.659388 242.58958 23.425013 242.16771Q23.190638 241.73021 23.190638 241.12083Q23.190638 240.32396 23.596888 239.71458Q24.003138 239.10521 24.753138 238.80833Q25.503138 238.49583 26.393763 238.49583Q27.346888 238.49583 28.112513 238.83958Q28.878138 239.16771 29.284388 239.82396Q29.690638 240.48021 29.690638 241.19896Q29.690638 241.73021 29.471888 242.15208Q29.237513 242.57396 28.909388 242.83958L31.940638 242.83958L31.940638 243.88646ZM26.471888 242.93333Q27.675013 242.93333 28.253138 242.44896Q28.815638 241.96458 28.815638 241.27708Q28.815638 240.57396 28.221888 240.07396Q27.628138 239.57396 26.378138 239.57396Q25.190638 239.57396 24.612513 240.05833Q24.018763 240.54271 24.018763 241.23021Q24.018763 241.90208 24.643763 242.41771Q25.268763 242.93333 26.471888 242.93333ZM27.550013 232.63646L27.675013 231.54271Q28.628138 231.79271 29.159388 232.49583Q29.690638 233.19896 29.690638 234.27708Q29.690638 235.63646 28.846888 236.44896Q28.003138 237.24583 26.487513 237.24583Q24.925013 237.24583 24.065638 236.43333Q23.190638 235.62083 23.190638 234.33958Q23.190638 233.08958 24.034388 232.30833Q24.878138 231.51146 26.425013 231.51146Q26.518763 231.51146 26.706263 231.51146L26.706263 236.15208Q27.737513 236.08958 28.284388 235.57396Q28.815638 235.05833 28.815638 234.27708Q28.815638 233.69896 28.518763 233.29271Q28.206263 232.87083 27.550013 232.63646ZM25.846888 236.08958L25.846888 232.62083Q25.050013 232.68333 24.659388 233.01146Q24.050013 233.52708 24.050013 234.32396Q24.050013 235.05833 24.534388 235.55833Q25.018763 236.04271 25.846888 236.08958ZM27.550013 225.63646L27.675013 224.54271Q28.628138 224.79271 29.159388 225.49583Q29.690638 226.19896 29.690638 227.27708Q29.690638 228.63646 28.846888 229.44896Q28.003138 230.24583 26.487513 230.24583Q24.925013 230.24583 24.065638 229.43333Q23.190638 228.62083 23.190638 227.33958Q23.190638 226.08958 24.034388 225.30833Q24.878138 224.51146 26.425013 224.51146Q26.518763 224.51146 26.706263 224.51146L26.706263 229.15208Q27.737513 229.08958 28.284388 228.57396Q28.815638 228.05833 28.815638 227.27708Q28.815638 226.69896 28.518763 226.29271Q28.206263 225.87083 27.550013 225.63646ZM25.846888 229.08958L25.846888 225.62083Q25.050013 225.68333 24.659388 226.01146Q24.050013 226.52708 24.050013 227.32396Q24.050013 228.05833 24.534388 228.55833Q25.018763 229.04271 25.846888 229.08958ZM29.550013 218.85521L28.768763 218.85521Q29.690638 219.44896 29.690638 220.58958Q29.690638 221.33958 29.284388 221.96458Q28.862513 222.58958 28.128138 222.93333Q27.393763 223.27708 26.440638 223.27708Q25.518763 223.27708 24.753138 222.96458Q23.987513 222.65208 23.596888 222.02708Q23.190638 221.40208 23.190638 220.63646Q23.190638 220.07396 23.425013 219.63646Q23.659388 219.19896 24.034388 218.91771L20.956263 218.91771L20.956263 217.87083L29.550013 217.87083L29.550013 218.85521ZM26.440638 222.18333Q27.643763 222.18333 28.237513 221.68333Q28.815638 221.18333 28.815638 220.49583Q28.815638 219.80833 28.253138 219.32396Q27.690638 218.83958 26.534388 218.83958Q25.253138 218.83958 24.659388 219.33958Q24.065638 219.82396 24.065638 220.54271Q24.065638 221.24583 24.643763 221.71458Q25.206263 222.18333 26.440638 222.18333ZM29.550013 208.80833L28.628138 208.80833Q29.690638 209.54271 29.690638 210.79271Q29.690638 211.33958 29.487513 211.82396Q29.268763 212.29271 28.956263 212.52708Q28.628138 212.76146 28.159388 212.85521Q27.862513 212.91771 27.175013 212.91771L23.331263 212.91771L23.331263 211.85521L26.784388 211.85521Q27.596888 211.85521 27.893763 211.79271Q28.300013 211.69896 28.550013 211.38646Q28.784388 211.05833 28.784388 210.57396Q28.784388 210.10521 28.550013 209.69896Q28.300013 209.27708 27.878138 209.10521Q27.456263 208.91771 26.659388 208.91771L23.331263 208.91771L23.331263 207.87083L29.550013 207.87083L29.550013 208.80833ZM31.940638 205.88646L23.331263 205.88646L23.331263 204.93333L24.128138 204.93333Q23.659388 204.58958 23.425013 204.16771Q23.190638 203.73021 23.190638 203.12083Q23.190638 202.32396 23.596888 201.71458Q24.003138 201.10521 24.753138 200.80833Q25.503138 200.49583 26.393763 200.49583Q27.346888 200.49583 28.112513 200.83958Q28.878138 201.16771 29.284388 201.82396Q29.690638 202.48021 29.690638 203.19896Q29.690638 203.73021 29.471888 204.15208Q29.237513 204.57396 28.909388 204.83958L31.940638 204.83958L31.940638 205.88646ZM26.471888 204.93333Q27.675013 204.93333 28.253138 204.44896Q28.815638 203.96458 28.815638 203.27708Q28.815638 202.57396 28.221888 202.07396Q27.628138 201.57396 26.378138 201.57396Q25.190638 201.57396 24.612513 202.05833Q24.018763 202.54271 24.018763 203.23021Q24.018763 203.90208 24.643763 204.41771Q25.268763 204.93333 26.471888 204.93333ZM26.440638 196.27708Q24.706263 196.27708 23.878138 195.32396Q23.190638 194.52708 23.190638 193.37083Q23.190638 192.08958 24.034388 191.27708Q24.862513 190.44896 26.346888 190.44896Q27.550013 190.44896 28.237513 190.80833Q28.925013 191.16771 29.315638 191.87083Q29.690638 192.55833 29.690638 193.37083Q29.690638 194.66771 28.862513 195.48021Q28.018763 196.27708 26.440638 196.27708ZM26.440638 195.19896Q27.628138 195.19896 28.221888 194.68333Q28.815638 194.15208 28.815638 193.37083Q28.815638 192.57396 28.221888 192.05833Q27.628138 191.54271 26.409388 191.54271Q25.253138 191.54271 24.659388 192.07396Q24.065638 192.58958 24.065638 193.37083Q24.065638 194.15208 24.659388 194.68333Q25.237513 195.19896 26.440638 195.19896ZM29.550013 187.16771L23.331263 189.52708L23.331263 188.41771L27.050013 187.07396Q27.659388 186.87083 28.300013 186.68333Q27.815638 186.54271 27.128138 186.29271L23.331263 184.90208L23.331263 183.82396L29.550013 186.18333L29.550013 187.16771ZM27.550013 179.63646L27.675013 178.54271Q28.628138 178.79271 29.159388 179.49583Q29.690638 180.19896 29.690638 181.27708Q29.690638 182.63646 28.846888 183.44896Q28.003138 184.24583 26.487513 184.24583Q24.925013 184.24583 24.065638 183.43333Q23.190638 182.62083 23.190638 181.33958Q23.190638 180.08958 24.034388 179.30833Q24.878138 178.51146 26.425013 178.51146Q26.518763 178.51146 26.706263 178.51146L26.706263 183.15208Q27.737513 183.08958 28.284388 182.57396Q28.815638 182.05833 28.815638 181.27708Q28.815638 180.69896 28.518763 180.29271Q28.206263 179.87083 27.550013 179.63646ZM25.846888 183.08958L25.846888 179.62083Q25.050013 179.68333 24.659388 180.01146Q24.050013 180.52708 24.050013 181.32396Q24.050013 182.05833 24.534388 182.55833Q25.018763 183.04271 25.846888 183.08958ZM29.550013 176.90208L23.331263 176.90208L23.331263 175.94896L24.268763 175.94896Q23.612513 175.58958 23.409388 175.29271Q23.190638 174.98021 23.190638 174.60521Q23.190638 174.07396 23.518763 173.52708L24.503138 173.88646Q24.268763 174.27708 24.268763 174.65208Q24.268763 175.01146 24.487513 175.29271Q24.690638 175.55833 25.065638 175.66771Q25.628138 175.85521 26.284388 175.85521L29.550013 175.85521L29.550013 176.90208ZM29.550013 168.91771L29.550013 169.90208L20.956263 169.90208L20.956263 168.83958L24.018763 168.83958Q23.190638 168.16771 23.190638 167.13646Q23.190638 166.55833 23.425013 166.05833Q23.643763 165.54271 24.065638 165.21458Q24.487513 164.87083 25.081263 164.68333Q25.675013 164.49583 26.346888 164.49583Q27.940638 164.49583 28.815638 165.29271Q29.690638 166.08958 29.690638 167.18333Q29.690638 168.29271 28.768763 168.91771L29.550013 168.91771ZM26.393763 168.93333Q27.503138 168.93333 28.003138 168.62083Q28.815638 168.12083 28.815638 167.27708Q28.815638 166.58958 28.221888 166.08958Q27.628138 165.57396 26.425013 165.57396Q25.206263 165.57396 24.628138 166.05833Q24.050013 166.54271 24.050013 167.23021Q24.050013 167.91771 24.659388 168.43333Q25.253138 168.93333 26.393763 168.93333ZM28.784388 158.82396Q29.284388 159.41771 29.487513 159.96458Q29.690638 160.49583 29.690638 161.12083Q29.690638 162.15208 29.190638 162.69896Q28.690638 163.24583 27.909388 163.24583Q27.456263 163.24583 27.081263 163.04271Q26.690638 162.83958 26.471888 162.49583Q26.237513 162.15208 26.128138 161.73021Q26.034388 161.43333 25.956263 160.79271Q25.815638 159.52708 25.596888 158.91771Q25.378138 158.91771 25.331263 158.91771Q24.675013 158.91771 24.409388 159.21458Q24.065638 159.62083 24.065638 160.41771Q24.065638 161.15208 24.331263 161.51146Q24.581263 161.87083 25.237513 162.04271L25.096888 163.07396Q24.440638 162.93333 24.034388 162.60521Q23.628138 162.27708 23.409388 161.66771Q23.190638 161.05833 23.190638 160.26146Q23.190638 159.46458 23.378138 158.96458Q23.565638 158.46458 23.846888 158.23021Q24.128138 157.99583 24.565638 157.90208Q24.831263 157.85521 25.534388 157.85521L26.940638 157.85521Q28.409388 157.85521 28.800013 157.79271Q29.190638 157.71458 29.550013 157.51146L29.550013 158.62083Q29.221888 158.77708 28.784388 158.82396ZM26.425013 158.91771Q26.659388 159.49583 26.831263 160.63646Q26.925013 161.29271 27.050013 161.55833Q27.159388 161.82396 27.378138 161.98021Q27.596888 162.12083 27.878138 162.12083Q28.300013 162.12083 28.581263 161.80833Q28.862513 161.48021 28.862513 160.87083Q28.862513 160.26146 28.596888 159.79271Q28.331263 159.30833 27.862513 159.08958Q27.503138 158.91771 26.815638 158.91771L26.425013 158.91771ZM27.690638 156.30833L27.534388 155.27708Q28.159388 155.18333 28.487513 154.79271Q28.815638 154.38646 28.815638 153.65208Q28.815638 152.93333 28.534388 152.58958Q28.237513 152.23021 27.831263 152.23021Q27.471888 152.23021 27.268763 152.54271Q27.128138 152.76146 26.909388 153.62083Q26.612513 154.77708 26.409388 155.23021Q26.190638 155.66771 25.815638 155.90208Q25.440638 156.13646 24.971888 156.13646Q24.565638 156.13646 24.206263 155.94896Q23.846888 155.76146 23.612513 155.43333Q23.440638 155.18333 23.315638 154.76146Q23.190638 154.33958 23.190638 153.83958Q23.190638 153.12083 23.409388 152.57396Q23.612513 152.01146 23.971888 151.74583Q24.331263 151.48021 24.925013 151.38646L25.065638 152.41771Q24.596888 152.48021 24.331263 152.82396Q24.050013 153.15208 24.050013 153.77708Q24.050013 154.49583 24.300013 154.80833Q24.534388 155.12083 24.862513 155.12083Q25.065638 155.12083 25.221888 154.99583Q25.393763 154.85521 25.503138 154.58958Q25.565638 154.43333 25.768763 153.65208Q26.081263 152.52708 26.268763 152.08958Q26.456263 151.65208 26.815638 151.40208Q27.175013 151.15208 27.721888 151.15208Q28.253138 151.15208 28.721888 151.46458Q29.175013 151.76146 29.440638 152.33958Q29.690638 152.91771 29.690638 153.65208Q29.690638 154.87083 29.190638 155.51146Q28.675013 156.13646 27.690638 156.30833ZM27.550013 144.63646L27.675013 143.54271Q28.628138 143.79271 29.159388 144.49583Q29.690638 145.19896 29.690638 146.27708Q29.690638 147.63646 28.846888 148.44896Q28.003138 149.24583 26.487513 149.24583Q24.925013 149.24583 24.065638 148.43333Q23.190638 147.62083 23.190638 146.33958Q23.190638 145.08958 24.034388 144.30833Q24.878138 143.51146 26.425013 143.51146Q26.518763 143.51146 26.706263 143.51146L26.706263 148.15208Q27.737513 148.08958 28.284388 147.57396Q28.815638 147.05833 28.815638 146.27708Q28.815638 145.69896 28.518763 145.29271Q28.206263 144.87083 27.550013 144.63646ZM25.846888 148.08958L25.846888 144.62083Q25.050013 144.68333 24.659388 145.01146Q24.050013 145.52708 24.050013 146.32396Q24.050013 147.05833 24.534388 147.55833Q25.018763 148.04271 25.846888 148.08958ZM29.550013 141.91771L20.956263 141.91771L20.956263 140.85521L29.550013 140.85521L29.550013 141.91771ZM22.175013 138.88646L20.956263 138.88646L20.956263 137.82396L22.175013 137.82396L22.175013 138.88646ZM29.550013 138.88646L23.331263 138.88646L23.331263 137.82396L29.550013 137.82396L29.550013 138.88646ZM29.550013 135.88646L23.331263 135.88646L23.331263 134.94896L24.206263 134.94896Q23.190638 134.26146 23.190638 132.96458Q23.190638 132.40208 23.393763 131.93333Q23.596888 131.44896 23.925013 131.21458Q24.253138 130.98021 24.690638 130.88646Q24.987513 130.83958 25.721888 130.83958L29.550013 130.83958L29.550013 131.88646L25.768763 131.88646Q25.112513 131.88646 24.800013 132.01146Q24.487513 132.13646 24.300013 132.44896Q24.096888 132.76146 24.096888 133.18333Q24.096888 133.85521 24.534388 134.35521Q24.956263 134.83958 26.143763 134.83958L29.550013 134.83958L29.550013 135.88646ZM27.550013 124.63646L27.675013 123.54271Q28.628138 123.79271 29.159388 124.495834Q29.690638 125.19896 29.690638 126.277084Q29.690638 127.63646 28.846888 128.44896Q28.003138 129.24583 26.487513 129.24583Q24.925013 129.24583 24.065638 128.43333Q23.190638 127.620834 23.190638 126.339584Q23.190638 125.089584 24.034388 124.308334Q24.878138 123.51146 26.425013 123.51146Q26.518763 123.51146 26.706263 123.51146L26.706263 128.15208Q27.737513 128.08958 28.284388 127.57396Q28.815638 127.058334 28.815638 126.277084Q28.815638 125.69896 28.518763 125.29271Q28.206263 124.870834 27.550013 124.63646ZM25.846888 128.08958L25.846888 124.620834Q25.050013 124.683334 24.659388 125.01146Q24.050013 125.527084 24.050013 126.32396Q24.050013 127.058334 24.534388 127.558334Q25.018763 128.04271 25.846888 128.08958Z" fill-rule="nonzero"/><path fill="#000000" d="M65.05 300.21564Q65.05 298.6844 65.3625 297.7625Q65.675 296.825 66.28438 296.325Q66.90938 295.825 67.84688 295.825Q68.53438 295.825 69.05 296.10626Q69.58125 296.3875 69.925 296.91876Q70.26875 297.4344 70.45625 298.1844Q70.64375 298.9344 70.64375 300.21564Q70.64375 301.73126 70.33125 302.65314Q70.03438 303.575 69.40938 304.09064Q68.8 304.59064 67.84688 304.59064Q66.6125 304.59064 65.89375 303.7Q65.05 302.6375 65.05 300.21564ZM66.12813 300.21564Q66.12813 302.325 66.62813 303.02814Q67.12813 303.73126 67.84688 303.73126Q68.58125 303.73126 69.06563 303.02814Q69.56563 302.325 69.56563 300.21564Q69.56563 298.09064 69.06563 297.40314Q68.58125 296.7 67.83125 296.7Q67.1125 296.7 66.675 297.3094Q66.12813 298.09064 66.12813 300.21564Z" fill-rule="nonzero"/><path fill="#000000" d="M69.01875 256.74335L67.97188 256.74335L67.97188 250.0246Q67.58125 250.38397 66.95625 250.75897Q66.34688 251.11835 65.8625 251.29022L65.8625 250.2746Q66.7375 249.85272 67.39375 249.2746Q68.06563 248.68085 68.34688 248.11835L69.01875 248.11835L69.01875 256.74335Z" fill-rule="nonzero"/><path fill="#000000" d="M70.59688 208.02104L70.59688 209.03667L64.90938 209.03667Q64.90938 208.66167 65.03438 208.30229Q65.25313 207.72417 65.72188 207.16167Q66.20625 206.59917 67.1125 205.86479Q68.51875 204.70854 69.00313 204.03667Q69.50313 203.36479 69.50313 202.77104Q69.50313 202.14604 69.05 201.72417Q68.59688 201.28667 67.87813 201.28667Q67.1125 201.28667 66.65938 201.73979Q66.20625 202.19292 66.19063 203.00542L65.1125 202.89604Q65.22188 201.67729 65.94063 201.05229Q66.675 200.41167 67.90938 200.41167Q69.14375 200.41167 69.8625 201.09917Q70.58125 201.78667 70.58125 202.80229Q70.58125 203.31792 70.3625 203.81792Q70.15938 204.30229 69.65938 204.86479Q69.175 205.41167 68.05 206.36479Q67.09688 207.16167 66.81563 207.45854Q66.55 207.73979 66.37813 208.02104L70.59688 208.02104Z" fill-rule="nonzero"/><path fill="#000000" d="M65.05 159.06438L66.1125 158.92375Q66.28438 159.81438 66.72188 160.22063Q67.15938 160.61125 67.78438 160.61125Q68.53438 160.61125 69.05 160.09563Q69.56563 159.58 69.56563 158.81438Q69.56563 158.09563 69.08125 157.62688Q68.6125 157.1425 67.87813 157.1425Q67.58125 157.1425 67.12813 157.2675L67.25313 156.33Q67.3625 156.34563 67.425 156.34563Q68.09688 156.34563 68.62813 156.00188Q69.175 155.6425 69.175 154.90813Q69.175 154.33 68.78438 153.955Q68.39375 153.56438 67.76875 153.56438Q67.15938 153.56438 66.7375 153.955Q66.33125 154.34563 66.22188 155.11125L65.15938 154.92375Q65.34688 153.87688 66.03438 153.29875Q66.72188 152.705 67.7375 152.705Q68.44063 152.705 69.03438 153.0175Q69.62813 153.31438 69.94063 153.83Q70.25313 154.34563 70.25313 154.93938Q70.25313 155.48625 69.95625 155.955Q69.65938 156.40813 69.08125 156.67375Q69.83125 156.84563 70.25313 157.40813Q70.675 157.955 70.675 158.79875Q70.675 159.92375 69.84688 160.705Q69.03438 161.48625 67.78438 161.48625Q66.65938 161.48625 65.90938 160.81438Q65.15938 160.12688 65.05 159.06438Z" fill-rule="nonzero"/><path fill="#000000" d="M68.425 113.62334L68.425 111.56084L64.70625 111.56084L64.70625 110.59209L68.62813 105.02959L69.4875 105.02959L69.4875 110.59209L70.64375 110.59209L70.64375 111.56084L69.4875 111.56084L69.4875 113.62334L68.425 113.62334ZM68.425 110.59209L68.425 106.73271L65.7375 110.59209L68.425 110.59209Z" fill-rule="nonzero"/><path fill="#000000" d="M65.05 63.666664L66.15938 63.572914Q66.28438 64.385414 66.72188 64.791664Q67.175 65.197914 67.81563 65.197914Q68.56563 65.197914 69.09688 64.61979Q69.62813 64.041664 69.62813 63.104164Q69.62813 62.197914 69.1125 61.68229Q68.6125 61.15104 67.78438 61.15104Q67.28438 61.15104 66.8625 61.385414Q66.45625 61.61979 66.22188 61.979164L65.2375 61.854164L66.06563 57.447914L70.34688 57.447914L70.34688 58.447914L66.90938 58.447914L66.45625 60.760414Q67.22188 60.21354 68.06563 60.21354Q69.19063 60.21354 69.95625 60.99479Q70.7375 61.77604 70.7375 63.010414Q70.7375 64.166664 70.06563 65.02604Q69.2375 66.05729 67.81563 66.05729Q66.64375 66.05729 65.89375 65.40104Q65.15938 64.74479 65.05 63.666664Z" fill-rule="nonzero"/><path fill="#000000" d="M78.51875 317.45L77.47188 317.45L77.47188 310.73126Q77.08125 311.09064 76.45625 311.46564Q75.84688 311.825 75.3625 311.9969L75.3625 310.98126Q76.2375 310.5594 76.89375 309.98126Q77.56563 309.3875 77.84688 308.825L78.51875 308.825L78.51875 317.45Z" fill-rule="nonzero"/><path fill="#000000" d="M188.1481 317.45L187.10123 317.45L187.10123 310.73126Q186.7106 311.09064 186.0856 311.46564Q185.47623 311.825 184.99185 311.9969L184.99185 310.98126Q185.86685 310.5594 186.5231 309.98126Q187.19498 309.3875 187.47623 308.825L188.1481 308.825L188.1481 317.45ZM191.17935 313.21564Q191.17935 311.6844 191.49185 310.7625Q191.80435 309.825 192.41373 309.325Q193.03873 308.825 193.97623 308.825Q194.66373 308.825 195.17935 309.10626Q195.7106 309.3875 196.05435 309.91876Q196.3981 310.4344 196.5856 311.1844Q196.7731 311.9344 196.7731 313.21564Q196.7731 314.73126 196.4606 315.65314Q196.16373 316.575 195.53873 317.09064Q194.92935 317.59064 193.97623 317.59064Q192.74185 317.59064 192.0231 316.7Q191.17935 315.6375 191.17935 313.21564ZM192.25748 313.21564Q192.25748 315.325 192.75748 316.02814Q193.25748 316.73126 193.97623 316.73126Q194.7106 316.73126 195.19498 316.02814Q195.69498 315.325 195.69498 313.21564Q195.69498 311.09064 195.19498 310.40314Q194.7106 309.7 193.9606 309.7Q193.24185 309.7 192.80435 310.3094Q192.25748 311.09064 192.25748 313.21564Z" fill-rule="nonzero"/><path fill="#000000" d="M297.77747 317.45L296.7306 317.45L296.7306 310.73126Q296.33997 311.09064 295.71497 311.46564Q295.1056 311.825 294.62122 311.9969L294.62122 310.98126Q295.49622 310.5594 296.15247 309.98126Q296.82434 309.3875 297.1056 308.825L297.77747 308.825L297.77747 317.45ZM300.80872 313.21564Q300.80872 311.6844 301.12122 310.7625Q301.43372 309.825 302.0431 309.325Q302.6681 308.825 303.6056 308.825Q304.2931 308.825 304.80872 309.10626Q305.33997 309.3875 305.68372 309.91876Q306.02747 310.4344 306.21497 311.1844Q306.40247 311.9344 306.40247 313.21564Q306.40247 314.73126 306.08997 315.65314Q305.7931 316.575 305.1681 317.09064Q304.55872 317.59064 303.6056 317.59064Q302.37122 317.59064 301.65247 316.7Q300.80872 315.6375 300.80872 313.21564ZM301.88684 313.21564Q301.88684 315.325 302.38684 316.02814Q302.88684 316.73126 303.6056 316.73126Q304.33997 316.73126 304.82434 316.02814Q305.32434 315.325 305.32434 313.21564Q305.32434 311.09064 304.82434 310.40314Q304.33997 309.7 303.58997 309.7Q302.87122 309.7 302.43372 310.3094Q301.88684 311.09064 301.88684 313.21564ZM307.80872 313.21564Q307.80872 311.6844 308.12122 310.7625Q308.43372 309.825 309.0431 309.325Q309.6681 308.825 310.6056 308.825Q311.2931 308.825 311.80872 309.10626Q312.33997 309.3875 312.68372 309.91876Q313.02747 310.4344 313.21497 311.1844Q313.40247 311.9344 313.40247 313.21564Q313.40247 314.73126 313.08997 315.65314Q312.7931 316.575 312.1681 317.09064Q311.55872 317.59064 310.6056 317.59064Q309.37122 317.59064 308.65247 316.7Q307.80872 315.6375 307.80872 313.21564ZM308.88684 313.21564Q308.88684 315.325 309.38684 316.02814Q309.88684 316.73126 310.6056 316.73126Q311.33997 316.73126 311.82434 316.02814Q312.32434 315.325 312.32434 313.21564Q312.32434 311.09064 311.82434 310.40314Q311.33997 309.7 310.58997 309.7Q309.87122 309.7 309.43372 310.3094Q308.88684 311.09064 308.88684 313.21564Z" fill-rule="nonzero"/><path fill="#000000" d="M407.40683 317.45L406.35995 317.45L406.35995 310.73126Q405.96933 311.09064 405.34433 311.46564Q404.73495 311.825 404.25058 311.9969L404.25058 310.98126Q405.12558 310.5594 405.78183 309.98126Q406.4537 309.3875 406.73495 308.825L407.40683 308.825L407.40683 317.45ZM410.43808 313.21564Q410.43808 311.6844 410.75058 310.7625Q411.06308 309.825 411.67245 309.325Q412.29745 308.825 413.23495 308.825Q413.92245 308.825 414.43808 309.10626Q414.96933 309.3875 415.31308 309.91876Q415.65683 310.4344 415.84433 311.1844Q416.03183 311.9344 416.03183 313.21564Q416.03183 314.73126 415.71933 315.65314Q415.42245 316.575 414.79745 317.09064Q414.18808 317.59064 413.23495 317.59064Q412.00058 317.59064 411.28183 316.7Q410.43808 315.6375 410.43808 313.21564ZM411.5162 313.21564Q411.5162 315.325 412.0162 316.02814Q412.5162 316.73126 413.23495 316.73126Q413.96933 316.73126 414.4537 316.02814Q414.9537 315.325 414.9537 313.21564Q414.9537 311.09064 414.4537 310.40314Q413.96933 309.7 413.21933 309.7Q412.50058 309.7 412.06308 310.3094Q411.5162 311.09064 411.5162 313.21564ZM417.43808 313.21564Q417.43808 311.6844 417.75058 310.7625Q418.06308 309.825 418.67245 309.325Q419.29745 308.825 420.23495 308.825Q420.92245 308.825 421.43808 309.10626Q421.96933 309.3875 422.31308 309.91876Q422.65683 310.4344 422.84433 311.1844Q423.03183 311.9344 423.03183 313.21564Q423.03183 314.73126 422.71933 315.65314Q422.42245 316.575 421.79745 317.09064Q421.18808 317.59064 420.23495 317.59064Q419.00058 317.59064 418.28183 316.7Q417.43808 315.6375 417.43808 313.21564ZM418.5162 313.21564Q418.5162 315.325 419.0162 316.02814Q419.5162 316.73126 420.23495 316.73126Q420.96933 316.73126 421.4537 316.02814Q421.9537 315.325 421.9537 313.21564Q421.9537 311.09064 421.4537 310.40314Q420.96933 309.7 420.21933 309.7Q419.50058 309.7 419.06308 310.3094Q418.5162 311.09064 418.5162 313.21564ZM424.43808 313.21564Q424.43808 311.6844 424.75058 310.7625Q425.06308 309.825 425.67245 309.325Q426.29745 308.825 427.23495 308.825Q427.92245 308.825 428.43808 309.10626Q428.96933 309.3875 429.31308 309.91876Q429.65683 310.4344 429.84433 311.1844Q430.03183 311.9344 430.03183 313.21564Q430.03183 314.73126 429.71933 315.65314Q429.42245 316.575 428.79745 317.09064Q428.18808 317.59064 427.23495 317.59064Q426.00058 317.59064 425.28183 316.7Q424.43808 315.6375 424.43808 313.21564ZM425.5162 313.21564Q425.5162 315.325 426.0162 316.02814Q426.5162 316.73126 427.23495 316.73126Q427.96933 316.73126 428.4537 316.02814Q428.9537 315.325 428.9537 313.21564Q428.9537 311.09064 428.4537 310.40314Q427.96933 309.7 427.21933 309.7Q426.50058 309.7 426.06308 310.3094Q425.5162 311.09064 425.5162 313.21564Z" fill-rule="nonzero"/><path fill="#757575" d="M85.140625 37.55L88.9375 32.159374L85.4375 27.175L87.625 27.175L89.21875 29.6125Q89.671875 30.3 89.9375 30.76875Q90.375 30.128124 90.734375 29.628124L92.484375 27.175L94.578125 27.175L91.0 32.065624L94.859375 37.55L92.703125 37.55L90.5625 34.33125L90.0 33.45625L87.28125 37.55L85.140625 37.55ZM97.53125 29.784374Q96.4375 29.378124 95.90625 28.64375Q95.390625 27.89375 95.390625 26.8625Q95.390625 25.3 96.515625 24.2375Q97.640625 23.175 99.5 23.175Q101.375 23.175 102.515625 24.26875Q103.65625 25.346874 103.65625 26.909374Q103.65625 27.909374 103.125 28.64375Q102.609375 29.378124 101.546875 29.784374Q102.875 30.221874 103.5625 31.175Q104.25 32.128124 104.25 33.45625Q104.25 35.3 102.9375 36.55Q101.640625 37.8 99.53125 37.8Q97.40625 37.8 96.109375 36.55Q94.8125 35.284374 94.8125 33.409374Q94.8125 32.01875 95.515625 31.08125Q96.234375 30.128124 97.53125 29.784374ZM97.1875 26.8Q97.1875 27.815624 97.84375 28.471874Q98.5 29.1125 99.53125 29.1125Q100.546875 29.1125 101.203125 28.471874Q101.859375 27.83125 101.859375 26.909374Q101.859375 25.940624 101.1875 25.284374Q100.515625 24.6125 99.515625 24.6125Q98.515625 24.6125 97.84375 25.26875Q97.1875 25.909374 97.1875 26.8ZM96.625 33.425Q96.625 34.175 96.96875 34.878124Q97.328125 35.58125 98.03125 35.971874Q98.734375 36.346874 99.546875 36.346874Q100.8125 36.346874 101.625 35.534374Q102.453125 34.721874 102.453125 33.471874Q102.453125 32.20625 101.609375 31.378124Q100.765625 30.55 99.484375 30.55Q98.25 30.55 97.4375 31.378124Q96.625 32.190624 96.625 33.425ZM114.953125 26.7375L113.203125 26.878124Q112.96875 25.846874 112.546875 25.378124Q111.828125 24.6125 110.78125 24.6125Q109.9375 24.6125 109.3125 25.08125Q108.484375 25.690624 108.0 26.8625Q107.515625 28.01875 107.5 30.159374Q108.140625 29.20625 109.046875 28.7375Q109.96875 28.26875 110.984375 28.26875Q112.734375 28.26875 113.96875 29.565624Q115.203125 30.846874 115.203125 32.89375Q115.203125 34.253124 114.625 35.409374Q114.046875 36.565624 113.03125 37.190624Q112.015625 37.8 110.71875 37.8Q108.53125 37.8 107.140625 36.190624Q105.75 34.565624 105.75 30.846874Q105.75 26.70625 107.28125 24.815624Q108.625 23.175 110.890625 23.175Q112.578125 23.175 113.65625 24.128124Q114.734375 25.065624 114.953125 26.7375ZM107.78125 32.909374Q107.78125 33.815624 108.15625 34.64375Q108.546875 35.471874 109.234375 35.909374Q109.9375 36.346874 110.6875 36.346874Q111.8125 36.346874 112.609375 35.45625Q113.40625 34.55 113.40625 33.003124Q113.40625 31.51875 112.609375 30.675Q111.828125 29.815624 110.625 29.815624Q109.4375 29.815624 108.609375 30.675Q107.78125 31.51875 107.78125 32.909374ZM123.3125 37.55L123.3125 27.175L124.890625 27.175L124.890625 28.628124Q125.375 27.878124 126.1875 27.409374Q127.0 26.940624 128.03125 26.940624Q129.1875 26.940624 129.92188 27.425Q130.65625 27.89375 130.96875 28.753124Q132.20312 26.940624 134.17188 26.940624Q135.71875 26.940624 136.54688 27.8Q137.375 28.659374 137.375 30.425L137.375 37.55L135.625 37.55L135.625 31.01875Q135.625 29.95625 135.45312 29.503124Q135.28125 29.034374 134.82812 28.753124Q134.39062 28.471874 133.78125 28.471874Q132.6875 28.471874 131.95312 29.20625Q131.23438 29.925 131.23438 31.51875L131.23438 37.55L129.48438 37.55L129.48438 30.815624Q129.48438 29.64375 129.04688 29.065624Q128.625 28.471874 127.640625 28.471874Q126.90625 28.471874 126.265625 28.8625Q125.640625 29.253124 125.359375 30.003124Q125.078125 30.753124 125.078125 32.175L125.078125 37.55L123.3125 37.55ZM146.42188 34.20625L148.23438 34.440624Q147.8125 36.01875 146.64062 36.909374Q145.48438 37.784374 143.67188 37.784374Q141.40625 37.784374 140.0625 36.39375Q138.73438 34.9875 138.73438 32.45625Q138.73438 29.83125 140.07812 28.39375Q141.42188 26.940624 143.57812 26.940624Q145.65625 26.940624 146.96875 28.3625Q148.29688 29.76875 148.29688 32.346874Q148.29688 32.503124 148.28125 32.815624L140.54688 32.815624Q140.64062 34.51875 141.51562 35.425Q142.39062 36.33125 143.6875 36.33125Q144.65625 36.33125 145.32812 35.83125Q146.01562 35.315624 146.42188 34.20625ZM140.64062 31.3625L146.4375 31.3625Q146.32812 30.065624 145.78125 29.409374Q144.9375 28.39375 143.59375 28.39375Q142.39062 28.39375 141.5625 29.20625Q140.73438 30.003124 140.64062 31.3625ZM150.3125 37.55L150.3125 27.175L151.89062 27.175L151.89062 28.628124Q152.375 27.878124 153.1875 27.409374Q154.0 26.940624 155.03125 26.940624Q156.1875 26.940624 156.92188 27.425Q157.65625 27.89375 157.96875 28.753124Q159.20312 26.940624 161.17188 26.940624Q162.71875 26.940624 163.54688 27.8Q164.375 28.659374 164.375 30.425L164.375 37.55L162.625 37.55L162.625 31.01875Q162.625 29.95625 162.45312 29.503124Q162.28125 29.034374 161.82812 28.753124Q161.39062 28.471874 160.78125 28.471874Q159.6875 28.471874 158.95312 29.20625Q158.23438 29.925 158.23438 31.51875L158.23438 37.55L156.48438 37.55L156.48438 30.815624Q156.48438 29.64375 156.04688 29.065624Q155.625 28.471874 154.64062 28.471874Q153.90625 28.471874 153.26562 28.8625Q152.64062 29.253124 152.35938 30.003124Q152.07812 30.753124 152.07812 32.175L152.07812 37.55L150.3125 37.55ZM173.09375 33.753124L174.8125 33.971874Q174.53125 35.76875 173.35938 36.784374Q172.20312 37.784374 170.5 37.784374Q168.375 37.784374 167.07812 36.39375Q165.78125 35.003124 165.78125 32.409374Q165.78125 30.721874 166.32812 29.471874Q166.89062 28.20625 168.03125 27.58125Q169.17188 26.940624 170.51562 26.940624Q172.20312 26.940624 173.26562 27.8Q174.34375 28.659374 174.65625 30.221874L172.9375 30.4875Q172.70312 29.440624 172.07812 28.925Q171.45312 28.39375 170.57812 28.39375Q169.25 28.39375 168.42188 29.346874Q167.59375 30.3 167.59375 32.346874Q167.59375 34.440624 168.39062 35.39375Q169.1875 36.33125 170.48438 36.33125Q171.51562 36.33125 172.20312 35.70625Q172.90625 35.065624 173.09375 33.753124ZM176.3125 41.51875L176.3125 27.175L177.92188 27.175L177.92188 28.51875Q178.48438 27.7375 179.1875 27.346874Q179.90625 26.940624 180.92188 26.940624Q182.25 26.940624 183.26562 27.628124Q184.28125 28.315624 184.79688 29.565624Q185.32812 30.8 185.32812 32.284374Q185.32812 33.878124 184.75 35.159374Q184.1875 36.425 183.09375 37.1125Q182.0 37.784374 180.79688 37.784374Q179.92188 37.784374 179.21875 37.409374Q178.53125 37.034374 178.07812 36.471874L178.07812 41.51875L176.3125 41.51875ZM177.90625 32.425Q177.90625 34.425 178.71875 35.378124Q179.53125 36.33125 180.6875 36.33125Q181.85938 36.33125 182.6875 35.346874Q183.53125 34.3625 183.53125 32.26875Q183.53125 30.3 182.70312 29.315624Q181.89062 28.315624 180.76562 28.315624Q179.64062 28.315624 178.76562 29.378124Q177.90625 30.425 177.90625 32.425ZM187.23438 41.55L187.04688 39.89375Q187.625 40.05 188.04688 40.05Q188.64062 40.05 188.98438 39.846874Q189.34375 39.659374 189.5625 39.315624Q189.73438 39.05 190.10938 38.003124Q190.15625 37.846874 190.26562 37.565624L186.32812 27.175L188.21875 27.175L190.375 33.190624Q190.79688 34.33125 191.125 35.58125Q191.4375 34.378124 191.84375 33.221874L194.0625 27.175L195.82812 27.175L191.875 37.721874Q191.25 39.440624 190.89062 40.08125Q190.42188 40.95625 189.8125 41.346874Q189.21875 41.753124 188.375 41.753124Q187.85938 41.753124 187.23438 41.55ZM202.60938 34.45625L204.35938 34.175Q204.5 35.221874 205.17188 35.784374Q205.84375 36.33125 207.04688 36.33125Q208.25 36.33125 208.82812 35.846874Q209.42188 35.346874 209.42188 34.690624Q209.42188 34.096874 208.90625 33.753124Q208.54688 33.51875 207.10938 33.159374Q205.17188 32.659374 204.42188 32.315624Q203.6875 31.95625 203.29688 31.33125Q202.90625 30.690624 202.90625 29.925Q202.90625 29.2375 203.21875 28.64375Q203.54688 28.05 204.09375 27.659374Q204.5 27.3625 205.20312 27.159374Q205.92188 26.940624 206.73438 26.940624Q207.95312 26.940624 208.875 27.3Q209.79688 27.64375 210.23438 28.253124Q210.67188 28.846874 210.84375 29.846874L209.125 30.08125Q209.0 29.284374 208.4375 28.846874Q207.875 28.39375 206.85938 28.39375Q205.64062 28.39375 205.125 28.8Q204.60938 29.190624 204.60938 29.721874Q204.60938 30.065624 204.82812 30.346874Q205.03125 30.628124 205.5 30.815624Q205.76562 30.909374 207.04688 31.253124Q208.92188 31.753124 209.65625 32.08125Q210.39062 32.39375 210.8125 33.003124Q211.23438 33.596874 211.23438 34.503124Q211.23438 35.378124 210.71875 36.159374Q210.20312 36.940624 209.23438 37.3625Q208.26562 37.784374 207.04688 37.784374Q205.03125 37.784374 203.96875 36.940624Q202.90625 36.096874 202.60938 34.45625ZM213.3125 41.51875L213.3125 27.175L214.92188 27.175L214.92188 28.51875Q215.48438 27.7375 216.1875 27.346874Q216.90625 26.940624 217.92188 26.940624Q219.25 26.940624 220.26562 27.628124Q221.28125 28.315624 221.79688 29.565624Q222.32812 30.8 222.32812 32.284374Q222.32812 33.878124 221.75 35.159374Q221.1875 36.425 220.09375 37.1125Q219.0 37.784374 217.79688 37.784374Q216.92188 37.784374 216.21875 37.409374Q215.53125 37.034374 215.07812 36.471874L215.07812 41.51875L213.3125 41.51875ZM214.90625 32.425Q214.90625 34.425 215.71875 35.378124Q216.53125 36.33125 217.6875 36.33125Q218.85938 36.33125 219.6875 35.346874Q220.53125 34.3625 220.53125 32.26875Q220.53125 30.3 219.70312 29.315624Q218.89062 28.315624 217.76562 28.315624Q216.64062 28.315624 215.76562 29.378124Q214.90625 30.425 214.90625 32.425ZM231.42188 34.20625L233.23438 34.440624Q232.8125 36.01875 231.64062 36.909374Q230.48438 37.784374 228.67188 37.784374Q226.40625 37.784374 225.0625 36.39375Q223.73438 34.9875 223.73438 32.45625Q223.73438 29.83125 225.07812 28.39375Q226.42188 26.940624 228.57812 26.940624Q230.65625 26.940624 231.96875 28.3625Q233.29688 29.76875 233.29688 32.346874Q233.29688 32.503124 233.28125 32.815624L225.54688 32.815624Q225.64062 34.51875 226.51562 35.425Q227.39062 36.33125 228.6875 36.33125Q229.65625 36.33125 230.32812 35.83125Q231.01562 35.315624 231.42188 34.20625ZM225.64062 31.3625L231.4375 31.3625Q231.32812 30.065624 230.78125 29.409374Q229.9375 28.39375 228.59375 28.39375Q227.39062 28.39375 226.5625 29.20625Q225.73438 30.003124 225.64062 31.3625ZM242.42188 34.20625L244.23438 34.440624Q243.8125 36.01875 242.64062 36.909374Q241.48438 37.784374 239.67188 37.784374Q237.40625 37.784374 236.0625 36.39375Q234.73438 34.9875 234.73438 32.45625Q234.73438 29.83125 236.07812 28.39375Q237.42188 26.940624 239.57812 26.940624Q241.65625 26.940624 242.96875 28.3625Q244.29688 29.76875 244.29688 32.346874Q244.29688 32.503124 244.28125 32.815624L236.54688 32.815624Q236.64062 34.51875 237.51562 35.425Q238.39062 36.33125 239.6875 36.33125Q240.65625 36.33125 241.32812 35.83125Q242.01562 35.315624 242.42188 34.20625ZM236.64062 31.3625L242.4375 31.3625Q242.32812 30.065624 241.78125 29.409374Q240.9375 28.39375 239.59375 28.39375Q238.39062 28.39375 237.5625 29.20625Q236.73438 30.003124 236.64062 31.3625ZM253.04688 37.55L253.04688 36.2375Q252.0625 37.784374 250.14062 37.784374Q248.90625 37.784374 247.85938 37.096874Q246.82812 36.409374 246.25 35.190624Q245.6875 33.971874 245.6875 32.378124Q245.6875 30.815624 246.20312 29.55Q246.71875 28.284374 247.75 27.6125Q248.79688 26.940624 250.0625 26.940624Q251.0 26.940624 251.73438 27.346874Q252.46875 27.7375 252.9375 28.3625L252.9375 23.2375L254.67188 23.2375L254.67188 37.55L253.04688 37.55ZM247.48438 32.378124Q247.48438 34.3625 248.32812 35.346874Q249.17188 36.33125 250.3125 36.33125Q251.46875 36.33125 252.26562 35.39375Q253.07812 34.45625 253.07812 32.51875Q253.07812 30.39375 252.25 29.39375Q251.4375 28.39375 250.23438 28.39375Q249.0625 28.39375 248.26562 29.3625Q247.48438 30.315624 247.48438 32.378124ZM264.10938 37.55L264.10938 36.01875Q262.90625 37.784374 260.82812 37.784374Q259.90625 37.784374 259.10938 37.440624Q258.3125 37.08125 257.92188 36.55Q257.54688 36.01875 257.39062 35.2375Q257.28125 34.721874 257.28125 33.596874L257.28125 27.175L259.03125 27.175L259.03125 32.925Q259.03125 34.3 259.14062 34.784374Q259.3125 35.471874 259.84375 35.878124Q260.39062 36.26875 261.17188 36.26875Q261.96875 36.26875 262.65625 35.8625Q263.35938 35.45625 263.64062 34.76875Q263.9375 34.065624 263.9375 32.7375L263.9375 27.175L265.6875 27.175L265.6875 37.55L264.10938 37.55ZM267.3125 41.51875L267.3125 27.175L268.92188 27.175L268.92188 28.51875Q269.48438 27.7375 270.1875 27.346874Q270.90625 26.940624 271.92188 26.940624Q273.25 26.940624 274.26562 27.628124Q275.28125 28.315624 275.79688 29.565624Q276.32812 30.8 276.32812 32.284374Q276.32812 33.878124 275.75 35.159374Q275.1875 36.425 274.09375 37.1125Q273.0 37.784374 271.79688 37.784374Q270.92188 37.784374 270.21875 37.409374Q269.53125 37.034374 269.07812 36.471874L269.07812 41.51875L267.3125 41.51875ZM268.90625 32.425Q268.90625 34.425 269.71875 35.378124Q270.53125 36.33125 271.6875 36.33125Q272.85938 36.33125 273.6875 35.346874Q274.53125 34.3625 274.53125 32.26875Q274.53125 30.3 273.70312 29.315624Q272.89062 28.315624 271.76562 28.315624Q270.64062 28.315624 269.76562 29.378124Q268.90625 30.425 268.90625 32.425ZM288.64062 37.55L283.09375 23.2375L285.14062 23.2375L288.85938 33.628124Q289.3125 34.878124 289.60938 35.971874Q289.9375 34.8 290.39062 33.628124L294.25 23.2375L296.1875 23.2375L290.57812 37.55L288.64062 37.55ZM297.46875 37.55L297.46875 23.2375L299.35938 23.2375L299.35938 35.8625L306.40625 35.8625L306.40625 37.55L297.46875 37.55ZM308.57812 37.55L308.57812 23.2375L318.9375 23.2375L318.9375 24.925L310.48438 24.925L310.48438 29.3L318.39062 29.3L318.39062 30.9875L310.48438 30.9875L310.48438 35.8625L319.26562 35.8625L319.26562 37.55L308.57812 37.55ZM321.53125 37.55L321.53125 23.2375L323.46875 23.2375L330.98438 34.471874L330.98438 23.2375L332.79688 23.2375L332.79688 37.55L330.85938 37.55L323.34375 26.3L323.34375 37.55L321.53125 37.55ZM343.5625 29.128124L334.10938 29.128124L334.10938 27.4875L343.5625 27.4875L343.5625 29.128124ZM343.5625 33.471874L334.10938 33.471874L334.10938 31.83125L343.5625 31.83125L343.5625 33.471874ZM352.45312 37.55L350.6875 37.55L350.6875 26.346874Q350.0625 26.95625 349.03125 27.565624Q348.0 28.159374 347.17188 28.471874L347.17188 26.76875Q348.65625 26.08125 349.75 25.096874Q350.85938 24.096874 351.3125 23.175L352.45312 23.175L352.45312 37.55ZM366.0625 35.8625L366.0625 37.55L356.60938 37.55Q356.59375 36.909374 356.8125 36.33125Q357.17188 35.3625 357.96875 34.425Q358.76562 33.4875 360.26562 32.253124Q362.60938 30.346874 363.42188 29.2375Q364.25 28.1125 364.25 27.1125Q364.25 26.065624 363.5 25.346874Q362.75 24.628124 361.54688 24.628124Q360.28125 24.628124 359.51562 25.39375Q358.75 26.159374 358.75 27.503124L356.9375 27.315624Q357.125 25.3 358.32812 24.2375Q359.54688 23.175 361.59375 23.175Q363.64062 23.175 364.84375 24.315624Q366.04688 25.45625 366.04688 27.14375Q366.04688 28.003124 365.6875 28.846874Q365.34375 29.675 364.53125 30.596874Q363.71875 31.503124 361.82812 33.1125Q360.23438 34.440624 359.78125 34.909374Q359.34375 35.378124 359.04688 35.8625L366.0625 35.8625ZM370.53125 29.784374Q369.4375 29.378124 368.90625 28.64375Q368.39062 27.89375 368.39062 26.8625Q368.39062 25.3 369.51562 24.2375Q370.64062 23.175 372.5 23.175Q374.375 23.175 375.51562 24.26875Q376.65625 25.346874 376.65625 26.909374Q376.65625 27.909374 376.125 28.64375Q375.60938 29.378124 374.54688 29.784374Q375.875 30.221874 376.5625 31.175Q377.25 32.128124 377.25 33.45625Q377.25 35.3 375.9375 36.55Q374.64062 37.8 372.53125 37.8Q370.40625 37.8 369.10938 36.55Q367.8125 35.284374 367.8125 33.409374Q367.8125 32.01875 368.51562 31.08125Q369.23438 30.128124 370.53125 29.784374ZM370.1875 26.8Q370.1875 27.815624 370.84375 28.471874Q371.5 29.1125 372.53125 29.1125Q373.54688 29.1125 374.20312 28.471874Q374.85938 27.83125 374.85938 26.909374Q374.85938 25.940624 374.1875 25.284374Q373.51562 24.6125 372.51562 24.6125Q371.51562 24.6125 370.84375 25.26875Q370.1875 25.909374 370.1875 26.8ZM369.625 33.425Q369.625 34.175 369.96875 34.878124Q370.32812 35.58125 371.03125 35.971874Q371.73438 36.346874 372.54688 36.346874Q373.8125 36.346874 374.625 35.534374Q375.45312 34.721874 375.45312 33.471874Q375.45312 32.20625 374.60938 31.378124Q373.76562 30.55 372.48438 30.55Q371.25 30.55 370.4375 31.378124Q369.625 32.190624 369.625 33.425ZM385.46875 37.55L385.46875 23.2375L387.35938 23.2375L387.35938 35.8625L394.40625 35.8625L394.40625 37.55L385.46875 37.55ZM396.48438 37.55L396.48438 23.2375L399.34375 23.2375L402.71875 33.3625Q403.1875 34.784374 403.40625 35.4875Q403.65625 34.70625 404.17188 33.190624L407.59375 23.2375L410.14062 23.2375L410.14062 37.55L408.32812 37.55L408.32812 25.565624L404.15625 37.55L402.45312 37.55L398.3125 25.3625L398.3125 37.55L396.48438 37.55ZM422.9375 23.2375L424.82812 23.2375L424.82812 31.503124Q424.82812 33.659374 424.34375 34.940624Q423.85938 36.20625 422.57812 37.003124Q421.3125 37.8 419.23438 37.8Q417.21875 37.8 415.9375 37.1125Q414.67188 36.409374 414.125 35.096874Q413.57812 33.784374 413.57812 31.503124L413.57812 23.2375L415.46875 23.2375L415.46875 31.4875Q415.46875 33.3625 415.8125 34.253124Q416.15625 35.128124 417.0 35.6125Q417.84375 36.08125 419.07812 36.08125Q421.15625 36.08125 422.04688 35.14375Q422.9375 34.190624 422.9375 31.4875L422.9375 23.2375ZM426.46875 37.55L426.46875 23.2375L428.35938 23.2375L428.35938 35.8625L435.40625 35.8625L435.40625 37.55L426.46875 37.55ZM446.5625 29.128124L437.10938 29.128124L437.10938 27.4875L446.5625 27.4875L446.5625 29.128124ZM446.5625 33.471874L437.10938 33.471874L437.10938 31.83125L446.5625 31.83125L446.5625 33.471874ZM455.45312 37.55L453.6875 37.55L453.6875 26.346874Q453.0625 26.95625 452.03125 27.565624Q451.0 28.159374 450.17188 28.471874L450.17188 26.76875Q451.65625 26.08125 452.75 25.096874Q453.85938 24.096874 454.3125 23.175L455.45312 23.175L455.45312 37.55Z" fill-rule="nonzero"/></svg>