<svg version="1.1" viewBox="0.0 0.0 544.0 371.0" fill="none" stroke="none" stroke-linecap="square" stroke-miterlimit="10" width="544" height="371" xmlns:xlink="http://www.w3.org/1999/xlink" xmlns="http://www.w3.org/2000/svg"><path fill="#ffffff" d="M0 0L544.0 0L544.0 371.0L0 371.0L0 0Z" fill-rule="nonzero"/><path stroke="#cccccc" stroke-width="1.0" stroke-linecap="butt" d="M77.5 61.5L77.5 300.5" fill-rule="nonzero"/><path stroke="#cccccc" stroke-width="1.0" stroke-linecap="butt" d="M190.5 61.5L190.5 300.5" fill-rule="nonzero"/><path stroke="#cccccc" stroke-width="1.0" stroke-linecap="butt" d="M303.5 61.5L303.5 300.5" fill-rule="nonzero"/><path stroke="#cccccc" stroke-width="1.0" stroke-linecap="butt" d="M416.5 61.5L416.5 300.5" fill-rule="nonzero"/><path stroke="#333333" stroke-width="1.0" stroke-linecap="butt" d="M77.5 300.5L525.5 300.5" fill-rule="nonzero"/><path stroke="#cccccc" stroke-width="1.0" stroke-linecap="butt" d="M77.5 240.5L525.5 240.5" fill-rule="nonzero"/><path stroke="#cccccc" stroke-width="1.0" stroke-linecap="butt" d="M77.5 181.5L525.5 181.5" fill-rule="nonzero"/><path stroke="#cccccc" stroke-width="1.0" stroke-linecap="butt" d="M77.5 121.5L525.5 121.5" fill-rule="nonzero"/><path stroke="#cccccc" stroke-width="1.0" stroke-linecap="butt" d="M77.5 61.5L525.5 61.5" fill-rule="nonzero"/><clipPath id="id_0"><path d="M77.55 61.916668L525.45 61.916668L525.45 300.45L77.55 300.45L77.55 61.916668Z" clip-rule="nonzero"/></clipPath><path stroke="#ea4335" stroke-width="2.0" stroke-linecap="butt" clip-path="url(#id_0)" d="M77.55 296.87744L111.60533 295.97302L131.52641 295.4745L145.66066 292.25333L156.62402 293.18268L165.58176 292.95978L173.1554 294.51044L179.71599 286.06378L185.50284 295.01715L190.67935 294.94098L195.36209 294.48624L199.63708 294.0669L203.5697 293.03308L207.21072 293.0929L210.60045 292.66528L213.77132 292.73276L216.7499 290.2333L219.55817 290.44498L222.21457 290.00345L224.73468 290.25424L227.13182 288.94873L229.41742 289.19766L231.6014 288.78262L233.69241 288.9897L235.69806 286.8045L237.62503 287.3327L239.47926 286.88495L241.26605 287.3135L242.99014 285.94873L244.65578 286.21933L246.26678 285.66833L247.82664 286.42178L249.3385 281.52325L250.80522 282.54654L252.22943 282.11362L262.34323 279.47693L268.7608 274.4828L269.7534 275.89267L270.72632 275.5685L271.68036 276.69284L272.6162 274.40182L277.88535 273.16382L278.71112 274.1706L279.52322 271.30267L280.3221 273.85135L281.10825 272.60236L281.882 273.84436L282.6437 264.85635L283.39383 269.26337L284.13266 265.47104L292.22733 266.43692L315.55197 248.12885L315.93732 251.28563L316.31964 239.34625L316.69907 238.97865L317.07553 243.2322L317.44916 241.92523L317.81998 243.76152L337.1215 214.81201L349.99265 210.45235L354.57056 184.73978L384.04797 149.24062L392.89362 113.00793L418.1033 75.082466L439.38092 72.156334L452.15863 73.66794L469.198 69.19193L486.21396 72.1171L496.80164 69.152176L520.2693 75.12119L525.45 70.68395" fill-rule="nonzero"/><path fill="#000000" fill-opacity="0.0" clip-path="url(#id_0)" d="M80.55 296.87744C80.55 298.5343 79.206856 299.87744 77.55 299.87744C75.89314 299.87744 74.55 298.5343 74.55 296.87744C74.55 295.22058 75.89314 293.87744 77.55 293.87744C79.206856 293.87744 80.55 295.22058 80.55 296.87744Z" fill-rule="nonzero"/><path fill="#000000" fill-opacity="0.0" clip-path="url(#id_0)" d="M114.60533 295.97302C114.60533 297.62988 113.262184 298.97302 111.60533 298.97302C109.94848 298.97302 108.60533 297.62988 108.60533 295.97302C108.60533 294.31616 109.94848 292.97302 111.60533 292.97302C113.262184 292.97302 114.60533 294.31616 114.60533 295.97302Z" fill-rule="nonzero"/><path fill="#000000" fill-opacity="0.0" clip-path="url(#id_0)" d="M134.52641 295.4745C134.52641 297.13135 133.18327 298.4745 131.52641 298.4745C129.86957 298.4745 128.52641 297.13135 128.52641 295.4745C128.52641 293.81763 129.86957 292.4745 131.52641 292.4745C133.18327 292.4745 134.52641 293.81763 134.52641 295.4745Z" fill-rule="nonzero"/><path fill="#000000" fill-opacity="0.0" clip-path="url(#id_0)" d="M148.66066 292.25333C148.66066 293.9102 147.31752 295.25333 145.66066 295.25333C144.0038 295.25333 142.66066 293.9102 142.66066 292.25333C142.66066 290.59647 144.0038 289.25333 145.66066 289.25333C147.31752 289.25333 148.66066 290.59647 148.66066 292.25333Z" fill-rule="nonzero"/><path fill="#000000" fill-opacity="0.0" clip-path="url(#id_0)" d="M159.62402 293.18268C159.62402 294.83954 158.28088 296.18268 156.62402 296.18268C154.96718 296.18268 153.62402 294.83954 153.62402 293.18268C153.62402 291.52582 154.96718 290.18268 156.62402 290.18268C158.28088 290.18268 159.62402 291.52582 159.62402 293.18268Z" fill-rule="nonzero"/><path fill="#000000" fill-opacity="0.0" clip-path="url(#id_0)" d="M168.58176 292.95978C168.58176 294.61664 167.2386 295.95978 165.58176 295.95978C163.9249 295.95978 162.58176 294.61664 162.58176 292.95978C162.58176 291.30295 163.9249 289.95978 165.58176 289.95978C167.2386 289.95978 168.58176 291.30295 168.58176 292.95978Z" fill-rule="nonzero"/><path fill="#000000" fill-opacity="0.0" clip-path="url(#id_0)" d="M176.1554 294.51044C176.1554 296.1673 174.81226 297.51044 173.1554 297.51044C171.49855 297.51044 170.1554 296.1673 170.1554 294.51044C170.1554 292.8536 171.49855 291.51044 173.1554 291.51044C174.81226 291.51044 176.1554 292.8536 176.1554 294.51044Z" fill-rule="nonzero"/><path fill="#000000" fill-opacity="0.0" clip-path="url(#id_0)" d="M182.71599 286.06378C182.71599 287.72064 181.37285 289.06378 179.71599 289.06378C178.05913 289.06378 176.71599 287.72064 176.71599 286.06378C176.71599 284.40692 178.05913 283.06378 179.71599 283.06378C181.37285 283.06378 182.71599 284.40692 182.71599 286.06378Z" fill-rule="nonzero"/><path fill="#000000" fill-opacity="0.0" clip-path="url(#id_0)" d="M188.50284 295.01715C188.50284 296.674 187.1597 298.01715 185.50284 298.01715C183.846 298.01715 182.50284 296.674 182.50284 295.01715C182.50284 293.36032 183.846 292.01715 185.50284 292.01715C187.1597 292.01715 188.50284 293.36032 188.50284 295.01715Z" fill-rule="nonzero"/><path fill="#000000" fill-opacity="0.0" clip-path="url(#id_0)" d="M193.67935 294.94098C193.67935 296.5978 192.33621 297.94098 190.67935 297.94098C189.0225 297.94098 187.67935 296.5978 187.67935 294.94098C187.67935 293.28412 189.0225 291.94098 190.67935 291.94098C192.33621 291.94098 193.67935 293.28412 193.67935 294.94098Z" fill-rule="nonzero"/><path fill="#000000" fill-opacity="0.0" clip-path="url(#id_0)" d="M198.36209 294.48624C198.36209 296.1431 197.01894 297.48624 195.36209 297.48624C193.70523 297.48624 192.36209 296.1431 192.36209 294.48624C192.36209 292.8294 193.70523 291.48624 195.36209 291.48624C197.01894 291.48624 198.36209 292.8294 198.36209 294.48624Z" fill-rule="nonzero"/><path fill="#000000" fill-opacity="0.0" clip-path="url(#id_0)" d="M202.63708 294.0669C202.63708 295.72372 201.29393 297.0669 199.63708 297.0669C197.98022 297.0669 196.63708 295.72372 196.63708 294.0669C196.63708 292.41003 197.98022 291.0669 199.63708 291.0669C201.29393 291.0669 202.63708 292.41003 202.63708 294.0669Z" fill-rule="nonzero"/><path fill="#000000" fill-opacity="0.0" clip-path="url(#id_0)" d="M206.5697 293.03308C206.5697 294.68994 205.22655 296.03308 203.5697 296.03308C201.91284 296.03308 200.5697 294.68994 200.5697 293.03308C200.5697 291.37622 201.91284 290.03308 203.5697 290.03308C205.22655 290.03308 206.5697 291.37622 206.5697 293.03308Z" fill-rule="nonzero"/><path fill="#000000" fill-opacity="0.0" clip-path="url(#id_0)" d="M210.21072 293.0929C210.21072 294.74976 208.86758 296.0929 207.21072 296.0929C205.55388 296.0929 204.21072 294.74976 204.21072 293.0929C204.21072 291.43607 205.55388 290.0929 207.21072 290.0929C208.86758 290.0929 210.21072 291.43607 210.21072 293.0929Z" fill-rule="nonzero"/><path fill="#000000" fill-opacity="0.0" clip-path="url(#id_0)" d="M213.60045 292.66528C213.60045 294.32214 212.25731 295.66528 210.60045 295.66528C208.94359 295.66528 207.60045 294.32214 207.60045 292.66528C207.60045 291.00842 208.94359 289.66528 210.60045 289.66528C212.25731 289.66528 213.60045 291.00842 213.60045 292.66528Z" fill-rule="nonzero"/><path fill="#000000" fill-opacity="0.0" clip-path="url(#id_0)" d="M216.77132 292.73276C216.77132 294.3896 215.42818 295.73276 213.77132 295.73276C212.11447 295.73276 210.77132 294.3896 210.77132 292.73276C210.77132 291.0759 212.11447 289.73276 213.77132 289.73276C215.42818 289.73276 216.77132 291.0759 216.77132 292.73276Z" fill-rule="nonzero"/><path fill="#000000" fill-opacity="0.0" clip-path="url(#id_0)" d="M219.7499 290.2333C219.7499 291.89017 218.40675 293.2333 216.7499 293.2333C215.09305 293.2333 213.7499 291.89017 213.7499 290.2333C213.7499 288.57645 215.09305 287.2333 216.7499 287.2333C218.40675 287.2333 219.7499 288.57645 219.7499 290.2333Z" fill-rule="nonzero"/><path fill="#000000" fill-opacity="0.0" clip-path="url(#id_0)" d="M222.55817 290.44498C222.55817 292.10184 221.21503 293.44498 219.55817 293.44498C217.90132 293.44498 216.55817 292.10184 216.55817 290.44498C216.55817 288.78815 217.90132 287.44498 219.55817 287.44498C221.21503 287.44498 222.55817 288.78815 222.55817 290.44498Z" fill-rule="nonzero"/><path fill="#000000" fill-opacity="0.0" clip-path="url(#id_0)" d="M225.21457 290.00345C225.21457 291.6603 223.87143 293.00345 222.21457 293.00345C220.55772 293.00345 219.21457 291.6603 219.21457 290.00345C219.21457 288.3466 220.55772 287.00345 222.21457 287.00345C223.87143 287.00345 225.21457 288.3466 225.21457 290.00345Z" fill-rule="nonzero"/><path fill="#000000" fill-opacity="0.0" clip-path="url(#id_0)" d="M227.73468 290.25424C227.73468 291.9111 226.39154 293.25424 224.73468 293.25424C223.07784 293.25424 221.73468 291.9111 221.73468 290.25424C221.73468 288.59738 223.07784 287.25424 224.73468 287.25424C226.39154 287.25424 227.73468 288.59738 227.73468 290.25424Z" fill-rule="nonzero"/><path fill="#000000" fill-opacity="0.0" clip-path="url(#id_0)" d="M230.13182 288.94873C230.13182 290.6056 228.78867 291.94873 227.13182 291.94873C225.47496 291.94873 224.13182 290.6056 224.13182 288.94873C224.13182 287.29187 225.47496 285.94873 227.13182 285.94873C228.78867 285.94873 230.13182 287.29187 230.13182 288.94873Z" fill-rule="nonzero"/><path fill="#000000" fill-opacity="0.0" clip-path="url(#id_0)" d="M232.41742 289.19766C232.41742 290.85452 231.07426 292.19766 229.41742 292.19766C227.76056 292.19766 226.41742 290.85452 226.41742 289.19766C226.41742 287.5408 227.76056 286.19766 229.41742 286.19766C231.07426 286.19766 232.41742 287.5408 232.41742 289.19766Z" fill-rule="nonzero"/><path fill="#000000" fill-opacity="0.0" clip-path="url(#id_0)" d="M234.6014 288.78262C234.6014 290.43945 233.25826 291.78262 231.6014 291.78262C229.94453 291.78262 228.6014 290.43945 228.6014 288.78262C228.6014 287.12576 229.94453 285.78262 231.6014 285.78262C233.25826 285.78262 234.6014 287.12576 234.6014 288.78262Z" fill-rule="nonzero"/><path fill="#000000" fill-opacity="0.0" clip-path="url(#id_0)" d="M236.69241 288.9897C236.69241 290.64655 235.34926 291.9897 233.69241 291.9897C232.03555 291.9897 230.69241 290.64655 230.69241 288.9897C230.69241 287.33286 232.03555 285.9897 233.69241 285.9897C235.34926 285.9897 236.69241 287.33286 236.69241 288.9897Z" fill-rule="nonzero"/><path fill="#000000" fill-opacity="0.0" clip-path="url(#id_0)" d="M238.69806 286.8045C238.69806 288.46133 237.3549 289.8045 235.69806 289.8045C234.0412 289.8045 232.69806 288.46133 232.69806 286.8045C232.69806 285.14764 234.0412 283.8045 235.69806 283.8045C237.3549 283.8045 238.69806 285.14764 238.69806 286.8045Z" fill-rule="nonzero"/><path fill="#000000" fill-opacity="0.0" clip-path="url(#id_0)" d="M240.62503 287.3327C240.62503 288.98956 239.28188 290.3327 237.62503 290.3327C235.96817 290.3327 234.62503 288.98956 234.62503 287.3327C234.62503 285.67584 235.96817 284.3327 237.62503 284.3327C239.28188 284.3327 240.62503 285.67584 240.62503 287.3327Z" fill-rule="nonzero"/><path fill="#000000" fill-opacity="0.0" clip-path="url(#id_0)" d="M242.47926 286.88495C242.47926 288.5418 241.13611 289.88495 239.47926 289.88495C237.8224 289.88495 236.47926 288.5418 236.47926 286.88495C236.47926 285.2281 237.8224 283.88495 239.47926 283.88495C241.13611 283.88495 242.47926 285.2281 242.47926 286.88495Z" fill-rule="nonzero"/><path fill="#000000" fill-opacity="0.0" clip-path="url(#id_0)" d="M244.26605 287.3135C244.26605 288.97037 242.92291 290.3135 241.26605 290.3135C239.6092 290.3135 238.26605 288.97037 238.26605 287.3135C238.26605 285.65668 239.6092 284.3135 241.26605 284.3135C242.92291 284.3135 244.26605 285.65668 244.26605 287.3135Z" fill-rule="nonzero"/><path fill="#000000" fill-opacity="0.0" clip-path="url(#id_0)" d="M245.99014 285.94873C245.99014 287.60556 244.647 288.94873 242.99014 288.94873C241.3333 288.94873 239.99014 287.60556 239.99014 285.94873C239.99014 284.29187 241.3333 282.94873 242.99014 282.94873C244.647 282.94873 245.99014 284.29187 245.99014 285.94873Z" fill-rule="nonzero"/><path fill="#000000" fill-opacity="0.0" clip-path="url(#id_0)" d="M247.65578 286.21933C247.65578 287.87616 246.31264 289.21933 244.65578 289.21933C242.99892 289.21933 241.65578 287.87616 241.65578 286.21933C241.65578 284.56247 242.99892 283.21933 244.65578 283.21933C246.31264 283.21933 247.65578 284.56247 247.65578 286.21933Z" fill-rule="nonzero"/><path fill="#000000" fill-opacity="0.0" clip-path="url(#id_0)" d="M249.26678 285.66833C249.26678 287.3252 247.92365 288.66833 246.26678 288.66833C244.60994 288.66833 243.26678 287.3252 243.26678 285.66833C243.26678 284.01147 244.60994 282.66833 246.26678 282.66833C247.92365 282.66833 249.26678 284.01147 249.26678 285.66833Z" fill-rule="nonzero"/><path fill="#000000" fill-opacity="0.0" clip-path="url(#id_0)" d="M250.82664 286.42178C250.82664 288.07864 249.4835 289.42178 247.82664 289.42178C246.1698 289.42178 244.82664 288.07864 244.82664 286.42178C244.82664 284.76495 246.1698 283.42178 247.82664 283.42178C249.4835 283.42178 250.82664 284.76495 250.82664 286.42178Z" fill-rule="nonzero"/><path fill="#000000" fill-opacity="0.0" clip-path="url(#id_0)" d="M252.3385 281.52325C252.3385 283.1801 250.99536 284.52325 249.3385 284.52325C247.68166 284.52325 246.3385 283.1801 246.3385 281.52325C246.3385 279.86642 247.68166 278.52325 249.3385 278.52325C250.99536 278.52325 252.3385 279.86642 252.3385 281.52325Z" fill-rule="nonzero"/><path fill="#000000" fill-opacity="0.0" clip-path="url(#id_0)" d="M253.80522 282.54654C253.80522 284.2034 252.46208 285.54654 250.80522 285.54654C249.14838 285.54654 247.80522 284.2034 247.80522 282.54654C247.80522 280.88968 249.14838 279.54654 250.80522 279.54654C252.46208 279.54654 253.80522 280.88968 253.80522 282.54654Z" fill-rule="nonzero"/><path fill="#000000" fill-opacity="0.0" clip-path="url(#id_0)" d="M255.22943 282.11362C255.22943 283.77048 253.88628 285.11362 252.22943 285.11362C250.57257 285.11362 249.22943 283.77048 249.22943 282.11362C249.22943 280.45676 250.57257 279.11362 252.22943 279.11362C253.88628 279.11362 255.22943 280.45676 255.22943 282.11362Z" fill-rule="nonzero"/><path fill="#000000" fill-opacity="0.0" clip-path="url(#id_0)" d="M265.34323 279.47693C265.34323 281.13376 264.0001 282.47693 262.34323 282.47693C260.68637 282.47693 259.34323 281.13376 259.34323 279.47693C259.34323 277.82007 260.68637 276.47693 262.34323 276.47693C264.0001 276.47693 265.34323 277.82007 265.34323 279.47693Z" fill-rule="nonzero"/><path fill="#000000" fill-opacity="0.0" clip-path="url(#id_0)" d="M271.7608 274.4828C271.7608 276.13965 270.41766 277.4828 268.7608 277.4828C267.10394 277.4828 265.7608 276.13965 265.7608 274.4828C265.7608 272.82596 267.10394 271.4828 268.7608 271.4828C270.41766 271.4828 271.7608 272.82596 271.7608 274.4828Z" fill-rule="nonzero"/><path fill="#000000" fill-opacity="0.0" clip-path="url(#id_0)" d="M272.7534 275.89267C272.7534 277.54953 271.41025 278.89267 269.7534 278.89267C268.09653 278.89267 266.7534 277.54953 266.7534 275.89267C266.7534 274.2358 268.09653 272.89267 269.7534 272.89267C271.41025 272.89267 272.7534 274.2358 272.7534 275.89267Z" fill-rule="nonzero"/><path fill="#000000" fill-opacity="0.0" clip-path="url(#id_0)" d="M273.72632 275.5685C273.72632 277.22537 272.38318 278.5685 270.72632 278.5685C269.06946 278.5685 267.72632 277.22537 267.72632 275.5685C267.72632 273.91165 269.06946 272.5685 270.72632 272.5685C272.38318 272.5685 273.72632 273.91165 273.72632 275.5685Z" fill-rule="nonzero"/><path fill="#000000" fill-opacity="0.0" clip-path="url(#id_0)" d="M274.68036 276.69284C274.68036 278.3497 273.33722 279.69284 271.68036 279.69284C270.0235 279.69284 268.68036 278.3497 268.68036 276.69284C268.68036 275.03598 270.0235 273.69284 271.68036 273.69284C273.33722 273.69284 274.68036 275.03598 274.68036 276.69284Z" fill-rule="nonzero"/><path fill="#000000" fill-opacity="0.0" clip-path="url(#id_0)" d="M275.6162 274.40182C275.6162 276.0587 274.27307 277.40182 272.6162 277.40182C270.95935 277.40182 269.6162 276.0587 269.6162 274.40182C269.6162 272.74496 270.95935 271.40182 272.6162 271.40182C274.27307 271.40182 275.6162 272.74496 275.6162 274.40182Z" fill-rule="nonzero"/><path fill="#000000" fill-opacity="0.0" clip-path="url(#id_0)" d="M280.88535 273.16382C280.88535 274.82068 279.5422 276.16382 277.88535 276.16382C276.2285 276.16382 274.88535 274.82068 274.88535 273.16382C274.88535 271.50696 276.2285 270.16382 277.88535 270.16382C279.5422 270.16382 280.88535 271.50696 280.88535 273.16382Z" fill-rule="nonzero"/><path fill="#000000" fill-opacity="0.0" clip-path="url(#id_0)" d="M281.71112 274.1706C281.71112 275.82745 280.36795 277.1706 278.71112 277.1706C277.05426 277.1706 275.71112 275.82745 275.71112 274.1706C275.71112 272.51373 277.05426 271.1706 278.71112 271.1706C280.36795 271.1706 281.71112 272.51373 281.71112 274.1706Z" fill-rule="nonzero"/><path fill="#000000" fill-opacity="0.0" clip-path="url(#id_0)" d="M282.52322 271.30267C282.52322 272.95953 281.18008 274.30267 279.52322 274.30267C277.86636 274.30267 276.52322 272.95953 276.52322 271.30267C276.52322 269.64584 277.86636 268.30267 279.52322 268.30267C281.18008 268.30267 282.52322 269.64584 282.52322 271.30267Z" fill-rule="nonzero"/><path fill="#000000" fill-opacity="0.0" clip-path="url(#id_0)" d="M283.3221 273.85135C283.3221 275.5082 281.97897 276.85135 280.3221 276.85135C278.66525 276.85135 277.3221 275.5082 277.3221 273.85135C277.3221 272.1945 278.66525 270.85135 280.3221 270.85135C281.97897 270.85135 283.3221 272.1945 283.3221 273.85135Z" fill-rule="nonzero"/><path fill="#000000" fill-opacity="0.0" clip-path="url(#id_0)" d="M284.10825 272.60236C284.10825 274.25922 282.7651 275.60236 281.10825 275.60236C279.4514 275.60236 278.10825 274.25922 278.10825 272.60236C278.10825 270.9455 279.4514 269.60236 281.10825 269.60236C282.7651 269.60236 284.10825 270.9455 284.10825 272.60236Z" fill-rule="nonzero"/><path fill="#000000" fill-opacity="0.0" clip-path="url(#id_0)" d="M284.882 273.84436C284.882 275.50122 283.53882 276.84436 281.882 276.84436C280.22513 276.84436 278.882 275.50122 278.882 273.84436C278.882 272.1875 280.22513 270.84436 281.882 270.84436C283.53882 270.84436 284.882 272.1875 284.882 273.84436Z" fill-rule="nonzero"/><path fill="#000000" fill-opacity="0.0" clip-path="url(#id_0)" d="M285.6437 264.85635C285.6437 266.5132 284.30057 267.85635 282.6437 267.85635C280.98688 267.85635 279.6437 266.5132 279.6437 264.85635C279.6437 263.1995 280.98688 261.85635 282.6437 261.85635C284.30057 261.85635 285.6437 263.1995 285.6437 264.85635Z" fill-rule="nonzero"/><path fill="#000000" fill-opacity="0.0" clip-path="url(#id_0)" d="M286.39383 269.26337C286.39383 270.92023 285.0507 272.26337 283.39383 272.26337C281.73697 272.26337 280.39383 270.92023 280.39383 269.26337C280.39383 267.60654 281.73697 266.26337 283.39383 266.26337C285.0507 266.26337 286.39383 267.60654 286.39383 269.26337Z" fill-rule="nonzero"/><path fill="#000000" fill-opacity="0.0" clip-path="url(#id_0)" d="M287.13266 265.47104C287.13266 267.1279 285.78952 268.47104 284.13266 268.47104C282.4758 268.47104 281.13266 267.1279 281.13266 265.47104C281.13266 263.81418 282.4758 262.47104 284.13266 262.47104C285.78952 262.47104 287.13266 263.81418 287.13266 265.47104Z" fill-rule="nonzero"/><path fill="#000000" fill-opacity="0.0" clip-path="url(#id_0)" d="M295.22733 266.43692C295.22733 268.09378 293.8842 269.43692 292.22733 269.43692C290.57047 269.43692 289.22733 268.09378 289.22733 266.43692C289.22733 264.78006 290.57047 263.43692 292.22733 263.43692C293.8842 263.43692 295.22733 264.78006 295.22733 266.43692Z" fill-rule="nonzero"/><path fill="#000000" fill-opacity="0.0" clip-path="url(#id_0)" d="M318.55197 248.12885C318.55197 249.7857 317.2088 251.12885 315.55197 251.12885C313.8951 251.12885 312.55197 249.7857 312.55197 248.12885C312.55197 246.472 313.8951 245.12885 315.55197 245.12885C317.2088 245.12885 318.55197 246.472 318.55197 248.12885Z" fill-rule="nonzero"/><path fill="#000000" fill-opacity="0.0" clip-path="url(#id_0)" d="M318.93732 251.28563C318.93732 252.94249 317.59418 254.28563 315.93732 254.28563C314.28046 254.28563 312.93732 252.94249 312.93732 251.28563C312.93732 249.62877 314.28046 248.28563 315.93732 248.28563C317.59418 248.28563 318.93732 249.62877 318.93732 251.28563Z" fill-rule="nonzero"/><path fill="#000000" fill-opacity="0.0" clip-path="url(#id_0)" d="M319.31964 239.34625C319.31964 241.00311 317.9765 242.34625 316.31964 242.34625C314.6628 242.34625 313.31964 241.00311 313.31964 239.34625C313.31964 237.6894 314.6628 236.34625 316.31964 236.34625C317.9765 236.34625 319.31964 237.6894 319.31964 239.34625Z" fill-rule="nonzero"/><path fill="#000000" fill-opacity="0.0" clip-path="url(#id_0)" d="M319.69907 238.97865C319.69907 240.63551 318.3559 241.97865 316.69907 241.97865C315.0422 241.97865 313.69907 240.63551 313.69907 238.97865C313.69907 237.3218 315.0422 235.97865 316.69907 235.97865C318.3559 235.97865 319.69907 237.3218 319.69907 238.97865Z" fill-rule="nonzero"/><path fill="#000000" fill-opacity="0.0" clip-path="url(#id_0)" d="M320.07553 243.2322C320.07553 244.88905 318.7324 246.2322 317.07553 246.2322C315.41867 246.2322 314.07553 244.88905 314.07553 243.2322C314.07553 241.57533 315.41867 240.2322 317.07553 240.2322C318.7324 240.2322 320.07553 241.57533 320.07553 243.2322Z" fill-rule="nonzero"/><path fill="#000000" fill-opacity="0.0" clip-path="url(#id_0)" d="M320.44916 241.92523C320.44916 243.58209 319.10602 244.92523 317.44916 244.92523C315.7923 244.92523 314.44916 243.58209 314.44916 241.92523C314.44916 240.26839 315.7923 238.92523 317.44916 238.92523C319.10602 238.92523 320.44916 240.26839 320.44916 241.92523Z" fill-rule="nonzero"/><path fill="#000000" fill-opacity="0.0" clip-path="url(#id_0)" d="M320.81998 243.76152C320.81998 245.41838 319.47684 246.76152 317.81998 246.76152C316.16312 246.76152 314.81998 245.41838 314.81998 243.76152C314.81998 242.10468 316.16312 240.76152 317.81998 240.76152C319.47684 240.76152 320.81998 242.10468 320.81998 243.76152Z" fill-rule="nonzero"/><path fill="#000000" fill-opacity="0.0" clip-path="url(#id_0)" d="M340.1215 214.81201C340.1215 216.46886 338.77835 217.81201 337.1215 217.81201C335.46463 217.81201 334.1215 216.46886 334.1215 214.81201C334.1215 213.15515 335.46463 211.81201 337.1215 211.81201C338.77835 211.81201 340.1215 213.15515 340.1215 214.81201Z" fill-rule="nonzero"/><path fill="#000000" fill-opacity="0.0" clip-path="url(#id_0)" d="M352.99265 210.45235C352.99265 212.1092 351.6495 213.45235 349.99265 213.45235C348.3358 213.45235 346.99265 212.1092 346.99265 210.45235C346.99265 208.79549 348.3358 207.45235 349.99265 207.45235C351.6495 207.45235 352.99265 208.79549 352.99265 210.45235Z" fill-rule="nonzero"/><path fill="#000000" fill-opacity="0.0" clip-path="url(#id_0)" d="M357.57056 184.73978C357.57056 186.39664 356.22742 187.73978 354.57056 187.73978C352.91373 187.73978 351.57056 186.39664 351.57056 184.73978C351.57056 183.08293 352.91373 181.73978 354.57056 181.73978C356.22742 181.73978 357.57056 183.08293 357.57056 184.73978Z" fill-rule="nonzero"/><path fill="#000000" fill-opacity="0.0" clip-path="url(#id_0)" d="M387.04797 149.24062C387.04797 150.89746 385.70483 152.24062 384.04797 152.24062C382.3911 152.24062 381.04797 150.89746 381.04797 149.24062C381.04797 147.58376 382.3911 146.24062 384.04797 146.24062C385.70483 146.24062 387.04797 147.58376 387.04797 149.24062Z" fill-rule="nonzero"/><path fill="#000000" fill-opacity="0.0" clip-path="url(#id_0)" d="M395.89362 113.00793C395.89362 114.66478 394.55048 116.00793 392.89362 116.00793C391.23676 116.00793 389.89362 114.66478 389.89362 113.00793C389.89362 111.351074 391.23676 110.00793 392.89362 110.00793C394.55048 110.00793 395.89362 111.351074 395.89362 113.00793Z" fill-rule="nonzero"/><path fill="#000000" fill-opacity="0.0" clip-path="url(#id_0)" d="M421.1033 75.082466C421.1033 76.73932 419.76016 78.082466 418.1033 78.082466C416.44644 78.082466 415.1033 76.73932 415.1033 75.082466C415.1033 73.42561 416.44644 72.082466 418.1033 72.082466C419.76016 72.082466 421.1033 73.42561 421.1033 75.082466Z" fill-rule="nonzero"/><path fill="#000000" fill-opacity="0.0" clip-path="url(#id_0)" d="M442.38092 72.156334C442.38092 73.813194 441.03778 75.156334 439.38092 75.156334C437.72406 75.156334 436.38092 73.813194 436.38092 72.156334C436.38092 70.49948 437.72406 69.156334 439.38092 69.156334C441.03778 69.156334 442.38092 70.49948 442.38092 72.156334Z" fill-rule="nonzero"/><path fill="#000000" fill-opacity="0.0" clip-path="url(#id_0)" d="M455.15863 73.66794C455.15863 75.3248 453.8155 76.66794 452.15863 76.66794C450.50177 76.66794 449.15863 75.3248 449.15863 73.66794C449.15863 72.011086 450.50177 70.66794 452.15863 70.66794C453.8155 70.66794 455.15863 72.011086 455.15863 73.66794Z" fill-rule="nonzero"/><path fill="#000000" fill-opacity="0.0" clip-path="url(#id_0)" d="M472.198 69.19193C472.198 70.848785 470.85486 72.19193 469.198 72.19193C467.54114 72.19193 466.198 70.848785 466.198 69.19193C466.198 67.53508 467.54114 66.19193 469.198 66.19193C470.85486 66.19193 472.198 67.53508 472.198 69.19193Z" fill-rule="nonzero"/><path fill="#000000" fill-opacity="0.0" clip-path="url(#id_0)" d="M489.21396 72.1171C489.21396 73.77396 487.87082 75.1171 486.21396 75.1171C484.5571 75.1171 483.21396 73.77396 483.21396 72.1171C483.21396 70.46025 484.5571 69.1171 486.21396 69.1171C487.87082 69.1171 489.21396 70.46025 489.21396 72.1171Z" fill-rule="nonzero"/><path fill="#000000" fill-opacity="0.0" clip-path="url(#id_0)" d="M499.80164 69.152176C499.80164 70.80903 498.4585 72.152176 496.80164 72.152176C495.1448 72.152176 493.80164 70.80903 493.80164 69.152176C493.80164 67.49532 495.1448 66.152176 496.80164 66.152176C498.4585 66.152176 499.80164 67.49532 499.80164 69.152176Z" fill-rule="nonzero"/><path fill="#000000" fill-opacity="0.0" clip-path="url(#id_0)" d="M523.2693 75.12119C523.2693 76.778046 521.92615 78.12119 520.2693 78.12119C518.6124 78.12119 517.2693 76.778046 517.2693 75.12119C517.2693 73.46433 518.6124 72.12119 520.2693 72.12119C521.92615 72.12119 523.2693 73.46433 523.2693 75.12119Z" fill-rule="nonzero"/><path fill="#000000" fill-opacity="0.0" clip-path="url(#id_0)" d="M528.45 70.68395C528.45 72.340805 527.1069 73.68395 525.45 73.68395C523.79315 73.68395 522.45 72.340805 522.45 70.68395C522.45 69.0271 523.79315 67.68395 525.45 67.68395C527.1069 67.68395 528.45 69.0271 528.45 70.68395Z" fill-rule="nonzero"/><path fill="#000000" d="M270.54688 346.6844L271.60938 346.59064Q271.6875 347.2469 271.96875 347.65314Q272.25 348.0594 272.82812 348.325Q273.42188 348.575 274.15625 348.575Q274.79688 348.575 275.29688 348.3875Q275.79688 348.1844 276.03125 347.85626Q276.28125 347.5125 276.28125 347.1219Q276.28125 346.71564 276.04688 346.41876Q275.8125 346.10626 275.28125 345.90314Q274.92188 345.7625 273.73438 345.48126Q272.5625 345.2 272.09375 344.95Q271.46875 344.6219 271.17188 344.15314Q270.875 343.66876 270.875 343.075Q270.875 342.4344 271.23438 341.8719Q271.60938 341.29376 272.3125 341.0125Q273.03125 340.71564 273.89062 340.71564Q274.84375 340.71564 275.57812 341.02814Q276.3125 341.325 276.70312 341.9344Q277.09375 342.52814 277.125 343.27814L276.03125 343.35626Q275.9375 342.54376 275.42188 342.1375Q274.92188 341.71564 273.9375 341.71564Q272.90625 341.71564 272.4375 342.09064Q271.96875 342.46564 271.96875 342.9969Q271.96875 343.46564 272.29688 343.7625Q272.625 344.0594 274.0 344.3719Q275.39062 344.6844 275.90625 344.91876Q276.65625 345.27814 277.01562 345.8094Q277.375 346.325 277.375 347.02814Q277.375 347.71564 276.98438 348.325Q276.59375 348.91876 275.85938 349.2625Q275.125 349.59064 274.20312 349.59064Q273.03125 349.59064 272.23438 349.2625Q271.45312 348.91876 271.0 348.23126Q270.5625 347.54376 270.54688 346.6844ZM278.79688 342.075L278.79688 340.85626L279.85938 340.85626L279.85938 342.075L278.79688 342.075ZM278.79688 349.45L278.79688 343.23126L279.85938 343.23126L279.85938 349.45L278.79688 349.45ZM281.23438 349.45L281.23438 348.59064L285.20312 344.04376Q284.51562 344.075 284.0 344.075L281.46875 344.075L281.46875 343.23126L286.5625 343.23126L286.5625 343.91876L283.1875 347.8719L282.53125 348.59064Q283.25 348.54376 283.85938 348.54376L286.75 348.54376L286.75 349.45L281.23438 349.45ZM291.04688 347.45L292.14062 347.575Q291.89062 348.52814 291.1875 349.0594Q290.48438 349.59064 289.40625 349.59064Q288.04688 349.59064 287.23438 348.7469Q286.4375 347.90314 286.4375 346.3875Q286.4375 344.825 287.25 343.96564Q288.0625 343.09064 289.34375 343.09064Q290.59375 343.09064 291.375 343.9344Q292.17188 344.77814 292.17188 346.325Q292.17188 346.41876 292.17188 346.60626L287.53125 346.60626Q287.59375 347.6375 288.10938 348.1844Q288.625 348.71564 289.40625 348.71564Q289.98438 348.71564 290.39062 348.41876Q290.8125 348.10626 291.04688 347.45ZM287.59375 345.7469L291.0625 345.7469Q291.0 344.95 290.67188 344.5594Q290.15625 343.95 289.35938 343.95Q288.625 343.95 288.125 344.4344Q287.64062 344.91876 287.59375 345.7469ZM298.8125 351.98126Q297.9375 350.8719 297.32812 349.40314Q296.73438 347.91876 296.73438 346.34064Q296.73438 344.95 297.17188 343.66876Q297.70312 342.1844 298.8125 340.71564L299.5625 340.71564Q298.85938 341.9344 298.625 342.45Q298.26562 343.2625 298.0625 344.1375Q297.8125 345.23126 297.8125 346.34064Q297.8125 349.16876 299.5625 351.98126L298.8125 351.98126ZM301.76562 349.45L300.78125 349.45L300.78125 340.85626L301.84375 340.85626L301.84375 343.91876Q302.51562 343.09064 303.54688 343.09064Q304.125 343.09064 304.625 343.325Q305.14062 343.54376 305.46875 343.96564Q305.8125 344.3875 306.0 344.98126Q306.1875 345.575 306.1875 346.2469Q306.1875 347.84064 305.39062 348.71564Q304.59375 349.59064 303.5 349.59064Q302.39062 349.59064 301.76562 348.66876L301.76562 349.45ZM301.75 346.29376Q301.75 347.40314 302.0625 347.90314Q302.5625 348.71564 303.40625 348.71564Q304.09375 348.71564 304.59375 348.1219Q305.10938 347.52814 305.10938 346.325Q305.10938 345.10626 304.625 344.52814Q304.14062 343.95 303.45312 343.95Q302.76562 343.95 302.25 344.5594Q301.75 345.15314 301.75 346.29376ZM307.75 351.84064L307.625 350.85626Q307.96875 350.95 308.23438 350.95Q308.57812 350.95 308.78125 350.825Q309.0 350.71564 309.14062 350.5125Q309.23438 350.34064 309.46875 349.71564Q309.48438 349.6375 309.5625 349.46564L307.1875 343.23126L308.32812 343.23126L309.625 346.825Q309.875 347.5125 310.07812 348.27814Q310.26562 347.54376 310.51562 346.85626L311.84375 343.23126L312.89062 343.23126L310.53125 349.5594Q310.14062 350.575 309.9375 350.96564Q309.65625 351.4969 309.28125 351.73126Q308.92188 351.98126 308.42188 351.98126Q308.125 351.98126 307.75 351.84064ZM315.09375 348.5125L315.25 349.4344Q314.79688 349.52814 314.45312 349.52814Q313.875 349.52814 313.5625 349.35626Q313.25 349.16876 313.10938 348.8719Q312.98438 348.575 312.98438 347.6219L312.98438 344.04376L312.21875 344.04376L312.21875 343.23126L312.98438 343.23126L312.98438 341.6844L314.03125 341.0594L314.03125 343.23126L315.09375 343.23126L315.09375 344.04376L314.03125 344.04376L314.03125 347.6844Q314.03125 348.1375 314.07812 348.2625Q314.14062 348.3875 314.26562 348.46564Q314.39062 348.54376 314.625 348.54376Q314.8125 348.54376 315.09375 348.5125ZM320.04688 347.45L321.14062 347.575Q320.89062 348.52814 320.1875 349.0594Q319.48438 349.59064 318.40625 349.59064Q317.04688 349.59064 316.23438 348.7469Q315.4375 347.90314 315.4375 346.3875Q315.4375 344.825 316.25 343.96564Q317.0625 343.09064 318.34375 343.09064Q319.59375 343.09064 320.375 343.9344Q321.17188 344.77814 321.17188 346.325Q321.17188 346.41876 321.17188 346.60626L316.53125 346.60626Q316.59375 347.6375 317.10938 348.1844Q317.625 348.71564 318.40625 348.71564Q318.98438 348.71564 319.39062 348.41876Q319.8125 348.10626 320.04688 347.45ZM316.59375 345.7469L320.0625 345.7469Q320.0 344.95 319.67188 344.5594Q319.15625 343.95 318.35938 343.95Q317.625 343.95 317.125 344.4344Q316.64062 344.91876 316.59375 345.7469ZM322.375 347.59064L323.40625 347.4344Q323.5 348.0594 323.89062 348.3875Q324.29688 348.71564 325.03125 348.71564Q325.75 348.71564 326.09375 348.4344Q326.45312 348.1375 326.45312 347.73126Q326.45312 347.3719 326.14062 347.16876Q325.92188 347.02814 325.0625 346.8094Q323.90625 346.5125 323.45312 346.3094Q323.01562 346.09064 322.78125 345.71564Q322.54688 345.34064 322.54688 344.8719Q322.54688 344.46564 322.73438 344.10626Q322.92188 343.7469 323.25 343.5125Q323.5 343.34064 323.92188 343.21564Q324.34375 343.09064 324.84375 343.09064Q325.5625 343.09064 326.10938 343.3094Q326.67188 343.5125 326.9375 343.8719Q327.20312 344.23126 327.29688 344.825L326.26562 344.96564Q326.20312 344.4969 325.85938 344.23126Q325.53125 343.95 324.90625 343.95Q324.1875 343.95 323.875 344.2Q323.5625 344.4344 323.5625 344.7625Q323.5625 344.96564 323.6875 345.1219Q323.82812 345.29376 324.09375 345.40314Q324.25 345.46564 325.03125 345.66876Q326.15625 345.98126 326.59375 346.16876Q327.03125 346.35626 327.28125 346.71564Q327.53125 347.075 327.53125 347.6219Q327.53125 348.15314 327.21875 348.6219Q326.92188 349.075 326.34375 349.34064Q325.76562 349.59064 325.03125 349.59064Q323.8125 349.59064 323.17188 349.09064Q322.54688 348.575 322.375 347.59064ZM330.48438 351.98126L329.73438 351.98126Q331.48438 349.16876 331.48438 346.34064Q331.48438 345.2469 331.23438 344.15314Q331.03125 343.27814 330.67188 342.46564Q330.4375 341.95 329.73438 340.71564L330.48438 340.71564Q331.57812 342.1844 332.10938 343.66876Q332.5625 344.95 332.5625 346.34064Q332.5625 347.91876 331.95312 349.40314Q331.34375 350.8719 330.48438 351.98126Z" fill-rule="nonzero"/><path fill="#000000" d="M27.690638 269.30835L27.534388 268.2771Q28.159388 268.18335 28.487513 267.79272Q28.815638 267.38647 28.815638 266.6521Q28.815638 265.93335 28.534388 265.5896Q28.237513 265.23022 27.831263 265.23022Q27.471888 265.23022 27.268763 265.54272Q27.128138 265.76147 26.909388 266.62085Q26.612513 267.7771 26.409388 268.23022Q26.190638 268.66772 25.815638 268.9021Q25.440638 269.13647 24.971888 269.13647Q24.565638 269.13647 24.206263 268.94897Q23.846888 268.76147 23.612513 268.43335Q23.440638 268.18335 23.315638 267.76147Q23.190638 267.3396 23.190638 266.8396Q23.190638 266.12085 23.409388 265.57397Q23.612513 265.01147 23.971888 264.74585Q24.331263 264.48022 24.925013 264.38647L25.065638 265.41772Q24.596888 265.48022 24.331263 265.82397Q24.050013 266.1521 24.050013 266.7771Q24.050013 267.49585 24.300013 267.80835Q24.534388 268.12085 24.862513 268.12085Q25.065638 268.12085 25.221888 267.99585Q25.393763 267.85522 25.503138 267.5896Q25.565638 267.43335 25.768763 266.6521Q26.081263 265.5271 26.268763 265.0896Q26.456263 264.6521 26.815638 264.4021Q27.175013 264.1521 27.721888 264.1521Q28.253138 264.1521 28.721888 264.4646Q29.175013 264.76147 29.440638 265.3396Q29.690638 265.91772 29.690638 266.6521Q29.690638 267.87085 29.190638 268.51147Q28.675013 269.13647 27.690638 269.30835ZM31.940638 261.88647L23.331263 261.88647L23.331263 260.93335L24.128138 260.93335Q23.659388 260.5896 23.425013 260.16772Q23.190638 259.73022 23.190638 259.12085Q23.190638 258.32397 23.596888 257.7146Q24.003138 257.10522 24.753138 256.80835Q25.503138 256.49585 26.393763 256.49585Q27.346888 256.49585 28.112513 256.8396Q28.878138 257.16772 29.284388 257.82397Q29.690638 258.48022 29.690638 259.19897Q29.690638 259.73022 29.471888 260.1521Q29.237513 260.57397 28.909388 260.8396L31.940638 260.8396L31.940638 261.88647ZM26.471888 260.93335Q27.675013 260.93335 28.253138 260.44897Q28.815638 259.9646 28.815638 259.2771Q28.815638 258.57397 28.221888 258.07397Q27.628138 257.57397 26.378138 257.57397Q25.190638 257.57397 24.612513 258.05835Q24.018763 258.54272 24.018763 259.23022Q24.018763 259.9021 24.643763 260.41772Q25.268763 260.93335 26.471888 260.93335ZM27.550013 250.63646L27.675013 249.54271Q28.628138 249.79271 29.159388 250.49583Q29.690638 251.19896 29.690638 252.27708Q29.690638 253.63646 28.846888 254.44896Q28.003138 255.24583 26.487513 255.24583Q24.925013 255.24583 24.065638 254.43333Q23.190638 253.62083 23.190638 252.33958Q23.190638 251.08958 24.034388 250.30833Q24.878138 249.51146 26.425013 249.51146Q26.518763 249.51146 26.706263 249.51146L26.706263 254.15208Q27.737513 254.08958 28.284388 253.57396Q28.815638 253.05833 28.815638 252.27708Q28.815638 251.69896 28.518763 251.29271Q28.206263 250.87083 27.550013 250.63646ZM25.846888 254.08958L25.846888 250.62083Q25.050013 250.68333 24.659388 251.01146Q24.050013 251.52708 24.050013 252.32396Q24.050013 253.05833 24.534388 253.55833Q25.018763 254.04271 25.846888 254.08958ZM27.550013 243.63646L27.675013 242.54271Q28.628138 242.79271 29.159388 243.49583Q29.690638 244.19896 29.690638 245.27708Q29.690638 246.63646 28.846888 247.44896Q28.003138 248.24583 26.487513 248.24583Q24.925013 248.24583 24.065638 247.43333Q23.190638 246.62083 23.190638 245.33958Q23.190638 244.08958 24.034388 243.30833Q24.878138 242.51146 26.425013 242.51146Q26.518763 242.51146 26.706263 242.51146L26.706263 247.15208Q27.737513 247.08958 28.284388 246.57396Q28.815638 246.05833 28.815638 245.27708Q28.815638 244.69896 28.518763 244.29271Q28.206263 243.87083 27.550013 243.63646ZM25.846888 247.08958L25.846888 243.62083Q25.050013 243.68333 24.659388 244.01146Q24.050013 244.52708 24.050013 245.32396Q24.050013 246.05833 24.534388 246.55833Q25.018763 247.04271 25.846888 247.08958ZM29.550013 236.85521L28.768763 236.85521Q29.690638 237.44896 29.690638 238.58958Q29.690638 239.33958 29.284388 239.96458Q28.862513 240.58958 28.128138 240.93333Q27.393763 241.27708 26.440638 241.27708Q25.518763 241.27708 24.753138 240.96458Q23.987513 240.65208 23.596888 240.02708Q23.190638 239.40208 23.190638 238.63646Q23.190638 238.07396 23.425013 237.63646Q23.659388 237.19896 24.034388 236.91771L20.956263 236.91771L20.956263 235.87083L29.550013 235.87083L29.550013 236.85521ZM26.440638 240.18333Q27.643763 240.18333 28.237513 239.68333Q28.815638 239.18333 28.815638 238.49583Q28.815638 237.80833 28.253138 237.32396Q27.690638 236.83958 26.534388 236.83958Q25.253138 236.83958 24.659388 237.33958Q24.065638 237.82396 24.065638 238.54271Q24.065638 239.24583 24.643763 239.71458Q25.206263 240.18333 26.440638 240.18333ZM29.550013 226.80833L28.628138 226.80833Q29.690638 227.54271 29.690638 228.79271Q29.690638 229.33958 29.487513 229.82396Q29.268763 230.29271 28.956263 230.52708Q28.628138 230.76146 28.159388 230.85521Q27.862513 230.91771 27.175013 230.91771L23.331263 230.91771L23.331263 229.85521L26.784388 229.85521Q27.596888 229.85521 27.893763 229.79271Q28.300013 229.69896 28.550013 229.38646Q28.784388 229.05833 28.784388 228.57396Q28.784388 228.10521 28.550013 227.69896Q28.300013 227.27708 27.878138 227.10521Q27.456263 226.91771 26.659388 226.91771L23.331263 226.91771L23.331263 225.87083L29.550013 225.87083L29.550013 226.80833ZM31.940638 223.88646L23.331263 223.88646L23.331263 222.93333L24.128138 222.93333Q23.659388 222.58958 23.425013 222.16771Q23.190638 221.73021 23.190638 221.12083Q23.190638 220.32396 23.596888 219.71458Q24.003138 219.10521 24.753138 218.80833Q25.503138 218.49583 26.393763 218.49583Q27.346888 218.49583 28.112513 218.83958Q28.878138 219.16771 29.284388 219.82396Q29.690638 220.48021 29.690638 221.19896Q29.690638 221.73021 29.471888 222.15208Q29.237513 222.57396 28.909388 222.83958L31.940638 222.83958L31.940638 223.88646ZM26.471888 222.93333Q27.675013 222.93333 28.253138 222.44896Q28.815638 221.96458 28.815638 221.27708Q28.815638 220.57396 28.221888 220.07396Q27.628138 219.57396 26.378138 219.57396Q25.190638 219.57396 24.612513 220.05833Q24.018763 220.54271 24.018763 221.23021Q24.018763 221.90208 24.643763 222.41771Q25.268763 222.93333 26.471888 222.93333ZM26.440638 214.27708Q24.706263 214.27708 23.878138 213.32396Q23.190638 212.52708 23.190638 211.37083Q23.190638 210.08958 24.034388 209.27708Q24.862513 208.44896 26.346888 208.44896Q27.550013 208.44896 28.237513 208.80833Q28.925013 209.16771 29.315638 209.87083Q29.690638 210.55833 29.690638 211.37083Q29.690638 212.66771 28.862513 213.48021Q28.018763 214.27708 26.440638 214.27708ZM26.440638 213.19896Q27.628138 213.19896 28.221888 212.68333Q28.815638 212.15208 28.815638 211.37083Q28.815638 210.57396 28.221888 210.05833Q27.628138 209.54271 26.409388 209.54271Q25.253138 209.54271 24.659388 210.07396Q24.065638 210.58958 24.065638 211.37083Q24.065638 212.15208 24.659388 212.68333Q25.237513 213.19896 26.440638 213.19896ZM29.550013 205.16771L23.331263 207.52708L23.331263 206.41771L27.050013 205.07396Q27.659388 204.87083 28.300013 204.68333Q27.815638 204.54271 27.128138 204.29271L23.331263 202.90208L23.331263 201.82396L29.550013 204.18333L29.550013 205.16771ZM27.550013 197.63646L27.675013 196.54271Q28.628138 196.79271 29.159388 197.49583Q29.690638 198.19896 29.690638 199.27708Q29.690638 200.63646 28.846888 201.44896Q28.003138 202.24583 26.487513 202.24583Q24.925013 202.24583 24.065638 201.43333Q23.190638 200.62083 23.190638 199.33958Q23.190638 198.08958 24.034388 197.30833Q24.878138 196.51146 26.425013 196.51146Q26.518763 196.51146 26.706263 196.51146L26.706263 201.15208Q27.737513 201.08958 28.284388 200.57396Q28.815638 200.05833 28.815638 199.27708Q28.815638 198.69896 28.518763 198.29271Q28.206263 197.87083 27.550013 197.63646ZM25.846888 201.08958L25.846888 197.62083Q25.050013 197.68333 24.659388 198.01146Q24.050013 198.52708 24.050013 199.32396Q24.050013 200.05833 24.534388 200.55833Q25.018763 201.04271 25.846888 201.08958ZM29.550013 194.90208L23.331263 194.90208L23.331263 193.94896L24.268763 193.94896Q23.612513 193.58958 23.409388 193.29271Q23.190638 192.98021 23.190638 192.60521Q23.190638 192.07396 23.518763 191.52708L24.503138 191.88646Q24.268763 192.27708 24.268763 192.65208Q24.268763 193.01146 24.487513 193.29271Q24.690638 193.55833 25.065638 193.66771Q25.628138 193.85521 26.284388 193.85521L29.550013 193.85521L29.550013 194.90208ZM29.550013 186.91771L29.550013 187.90208L20.956263 187.90208L20.956263 186.83958L24.018763 186.83958Q23.190638 186.16771 23.190638 185.13646Q23.190638 184.55833 23.425013 184.05833Q23.643763 183.54271 24.065638 183.21458Q24.487513 182.87083 25.081263 182.68333Q25.675013 182.49583 26.346888 182.49583Q27.940638 182.49583 28.815638 183.29271Q29.690638 184.08958 29.690638 185.18333Q29.690638 186.29271 28.768763 186.91771L29.550013 186.91771ZM26.393763 186.93333Q27.503138 186.93333 28.003138 186.62083Q28.815638 186.12083 28.815638 185.27708Q28.815638 184.58958 28.221888 184.08958Q27.628138 183.57396 26.425013 183.57396Q25.206263 183.57396 24.628138 184.05833Q24.050013 184.54271 24.050013 185.23021Q24.050013 185.91771 24.659388 186.43333Q25.253138 186.93333 26.393763 186.93333ZM28.784388 176.82396Q29.284388 177.41771 29.487513 177.96458Q29.690638 178.49583 29.690638 179.12083Q29.690638 180.15208 29.190638 180.69896Q28.690638 181.24583 27.909388 181.24583Q27.456263 181.24583 27.081263 181.04271Q26.690638 180.83958 26.471888 180.49583Q26.237513 180.15208 26.128138 179.73021Q26.034388 179.43333 25.956263 178.79271Q25.815638 177.52708 25.596888 176.91771Q25.378138 176.91771 25.331263 176.91771Q24.675013 176.91771 24.409388 177.21458Q24.065638 177.62083 24.065638 178.41771Q24.065638 179.15208 24.331263 179.51146Q24.581263 179.87083 25.237513 180.04271L25.096888 181.07396Q24.440638 180.93333 24.034388 180.60521Q23.628138 180.27708 23.409388 179.66771Q23.190638 179.05833 23.190638 178.26146Q23.190638 177.46458 23.378138 176.96458Q23.565638 176.46458 23.846888 176.23021Q24.128138 175.99583 24.565638 175.90208Q24.831263 175.85521 25.534388 175.85521L26.940638 175.85521Q28.409388 175.85521 28.800013 175.79271Q29.190638 175.71458 29.550013 175.51146L29.550013 176.62083Q29.221888 176.77708 28.784388 176.82396ZM26.425013 176.91771Q26.659388 177.49583 26.831263 178.63646Q26.925013 179.29271 27.050013 179.55833Q27.159388 179.82396 27.378138 179.98021Q27.596888 180.12083 27.878138 180.12083Q28.300013 180.12083 28.581263 179.80833Q28.862513 179.48021 28.862513 178.87083Q28.862513 178.26146 28.596888 177.79271Q28.331263 177.30833 27.862513 177.08958Q27.503138 176.91771 26.815638 176.91771L26.425013 176.91771ZM27.690638 174.30833L27.534388 173.27708Q28.159388 173.18333 28.487513 172.79271Q28.815638 172.38646 28.815638 171.65208Q28.815638 170.93333 28.534388 170.58958Q28.237513 170.23021 27.831263 170.23021Q27.471888 170.23021 27.268763 170.54271Q27.128138 170.76146 26.909388 171.62083Q26.612513 172.77708 26.409388 173.23021Q26.190638 173.66771 25.815638 173.90208Q25.440638 174.13646 24.971888 174.13646Q24.565638 174.13646 24.206263 173.94896Q23.846888 173.76146 23.612513 173.43333Q23.440638 173.18333 23.315638 172.76146Q23.190638 172.33958 23.190638 171.83958Q23.190638 171.12083 23.409388 170.57396Q23.612513 170.01146 23.971888 169.74583Q24.331263 169.48021 24.925013 169.38646L25.065638 170.41771Q24.596888 170.48021 24.331263 170.82396Q24.050013 171.15208 24.050013 171.77708Q24.050013 172.49583 24.300013 172.80833Q24.534388 173.12083 24.862513 173.12083Q25.065638 173.12083 25.221888 172.99583Q25.393763 172.85521 25.503138 172.58958Q25.565638 172.43333 25.768763 171.65208Q26.081263 170.52708 26.268763 170.08958Q26.456263 169.65208 26.815638 169.40208Q27.175013 169.15208 27.721888 169.15208Q28.253138 169.15208 28.721888 169.46458Q29.175013 169.76146 29.440638 170.33958Q29.690638 170.91771 29.690638 171.65208Q29.690638 172.87083 29.190638 173.51146Q28.675013 174.13646 27.690638 174.30833ZM27.550013 162.63646L27.675013 161.54271Q28.628138 161.79271 29.159388 162.49583Q29.690638 163.19896 29.690638 164.27708Q29.690638 165.63646 28.846888 166.44896Q28.003138 167.24583 26.487513 167.24583Q24.925013 167.24583 24.065638 166.43333Q23.190638 165.62083 23.190638 164.33958Q23.190638 163.08958 24.034388 162.30833Q24.878138 161.51146 26.425013 161.51146Q26.518763 161.51146 26.706263 161.51146L26.706263 166.15208Q27.737513 166.08958 28.284388 165.57396Q28.815638 165.05833 28.815638 164.27708Q28.815638 163.69896 28.518763 163.29271Q28.206263 162.87083 27.550013 162.63646ZM25.846888 166.08958L25.846888 162.62083Q25.050013 162.68333 24.659388 163.01146Q24.050013 163.52708 24.050013 164.32396Q24.050013 165.05833 24.534388 165.55833Q25.018763 166.04271 25.846888 166.08958ZM29.550013 159.91771L20.956263 159.91771L20.956263 158.85521L29.550013 158.85521L29.550013 159.91771ZM22.175013 156.88646L20.956263 156.88646L20.956263 155.82396L22.175013 155.82396L22.175013 156.88646ZM29.550013 156.88646L23.331263 156.88646L23.331263 155.82396L29.550013 155.82396L29.550013 156.88646ZM29.550013 153.88646L23.331263 153.88646L23.331263 152.94896L24.206263 152.94896Q23.190638 152.26146 23.190638 150.96458Q23.190638 150.40208 23.393763 149.93333Q23.596888 149.44896 23.925013 149.21458Q24.253138 148.98021 24.690638 148.88646Q24.987513 148.83958 25.721888 148.83958L29.550013 148.83958L29.550013 149.88646L25.768763 149.88646Q25.112513 149.88646 24.800013 150.01146Q24.487513 150.13646 24.300013 150.44896Q24.096888 150.76146 24.096888 151.18333Q24.096888 151.85521 24.534388 152.35521Q24.956263 152.83958 26.143763 152.83958L29.550013 152.83958L29.550013 153.88646ZM27.550013 142.63646L27.675013 141.54271Q28.628138 141.79271 29.159388 142.49583Q29.690638 143.19896 29.690638 144.27708Q29.690638 145.63646 28.846888 146.44896Q28.003138 147.24583 26.487513 147.24583Q24.925013 147.24583 24.065638 146.43333Q23.190638 145.62083 23.190638 144.33958Q23.190638 143.08958 24.034388 142.30833Q24.878138 141.51146 26.425013 141.51146Q26.518763 141.51146 26.706263 141.51146L26.706263 146.15208Q27.737513 146.08958 28.284388 145.57396Q28.815638 145.05833 28.815638 144.27708Q28.815638 143.69896 28.518763 143.29271Q28.206263 142.87083 27.550013 142.63646ZM25.846888 146.08958L25.846888 142.62083Q25.050013 142.68333 24.659388 143.01146Q24.050013 143.52708 24.050013 144.32396Q24.050013 145.05833 24.534388 145.55833Q25.018763 146.04271 25.846888 146.08958ZM32.08126 134.87083Q30.971888 135.74583 29.503138 136.35521Q28.018763 136.94896 26.440638 136.94896Q25.050013 136.94896 23.768763 136.51146Q22.284388 135.98021 20.815638 134.87083L20.815638 134.12083Q22.034388 134.82396 22.550013 135.05833Q23.362513 135.41771 24.237513 135.62083Q25.331263 135.87083 26.440638 135.87083Q29.268763 135.87083 32.08126 134.12083L32.08126 134.87083ZM29.550013 132.90208L23.331263 132.90208L23.331263 131.94896L24.268763 131.94896Q23.612513 131.58958 23.409388 131.29271Q23.190638 130.98021 23.190638 130.60521Q23.190638 130.07396 23.518763 129.52708L24.503138 129.88646Q24.268763 130.27708 24.268763 130.65208Q24.268763 131.01146 24.487513 131.29271Q24.690638 131.55833 25.065638 131.66771Q25.628138 131.85521 26.284388 131.85521L29.550013 131.85521L29.550013 132.90208ZM28.784388 124.82396Q29.284388 125.41771 29.487513 125.964584Q29.690638 126.495834 29.690638 127.120834Q29.690638 128.15208 29.190638 128.69896Q28.690638 129.24583 27.909388 129.24583Q27.456263 129.24583 27.081263 129.04271Q26.690638 128.83958 26.471888 128.49583Q26.237513 128.15208 26.128138 127.73021Q26.034388 127.433334 25.956263 126.79271Q25.815638 125.527084 25.596888 124.91771Q25.378138 124.91771 25.331263 124.91771Q24.675013 124.91771 24.409388 125.214584Q24.065638 125.620834 24.065638 126.41771Q24.065638 127.152084 24.331263 127.51146Q24.581263 127.870834 25.237513 128.04271L25.096888 129.07396Q24.440638 128.93333 24.034388 128.60521Q23.628138 128.27708 23.409388 127.66771Q23.190638 127.058334 23.190638 126.26146Q23.190638 125.464584 23.378138 124.964584Q23.565638 124.464584 23.846888 124.23021Q24.128138 123.995834 24.565638 123.902084Q24.831263 123.85521 25.534388 123.85521L26.940638 123.85521Q28.409388 123.85521 28.800013 123.79271Q29.190638 123.714584 29.550013 123.51146L29.550013 124.620834Q29.221888 124.777084 28.784388 124.82396ZM26.425013 124.91771Q26.659388 125.495834 26.831263 126.63646Q26.925013 127.29271 27.050013 127.558334Q27.159388 127.82396 27.378138 127.98021Q27.596888 128.12083 27.878138 128.12083Q28.300013 128.12083 28.581263 127.808334Q28.862513 127.48021 28.862513 126.870834Q28.862513 126.26146 28.596888 125.79271Q28.331263 125.308334 27.862513 125.089584Q27.503138 124.91771 26.815638 124.91771L26.425013 124.91771ZM28.612513 119.589584L29.534388 119.433334Q29.628138 119.88646 29.628138 120.23021Q29.628138 120.808334 29.456263 121.120834Q29.268763 121.433334 28.971888 121.57396Q28.675013 121.69896 27.721888 121.69896L24.143763 121.69896L24.143763 122.464584L23.331263 122.464584L23.331263 121.69896L21.784388 121.69896L21.159388 120.652084L23.331263 120.652084L23.331263 119.589584L24.143763 119.589584L24.143763 120.652084L27.784388 120.652084Q28.237513 120.652084 28.362513 120.60521Q28.487513 120.54271 28.565638 120.41771Q28.643763 120.29271 28.643763 120.058334Q28.643763 119.870834 28.612513 119.589584ZM22.175013 118.88646L20.956263 118.88646L20.956263 117.82396L22.175013 117.82396L22.175013 118.88646ZM29.550013 118.88646L23.331263 118.88646L23.331263 117.82396L29.550013 117.82396L29.550013 118.88646ZM26.440638 116.277084Q24.706263 116.277084 23.878138 115.32396Q23.190638 114.527084 23.190638 113.370834Q23.190638 112.089584 24.034388 111.277084Q24.862513 110.44896 26.346888 110.44896Q27.550013 110.44896 28.237513 110.808334Q28.925013 111.16771 29.315638 111.870834Q29.690638 112.558334 29.690638 113.370834Q29.690638 114.66771 28.862513 115.48021Q28.018763 116.277084 26.440638 116.277084ZM26.440638 115.19896Q27.628138 115.19896 28.221888 114.683334Q28.815638 114.152084 28.815638 113.370834Q28.815638 112.57396 28.221888 112.058334Q27.628138 111.54271 26.409388 111.54271Q25.253138 111.54271 24.659388 112.07396Q24.065638 112.589584 24.065638 113.370834Q24.065638 114.152084 24.659388 114.683334Q25.237513 115.19896 26.440638 115.19896ZM32.08126 108.19896L32.08126 108.94896Q29.268763 107.19896 26.440638 107.19896Q25.346888 107.19896 24.253138 107.44896Q23.378138 107.652084 22.565638 108.01146Q22.050013 108.245834 20.815638 108.94896L20.815638 108.19896Q22.284388 107.10521 23.768763 106.57396Q25.050013 106.120834 26.440638 106.120834Q28.018763 106.120834 29.503138 106.73021Q30.971888 107.339584 32.08126 108.19896Z" fill-rule="nonzero"/><path fill="#000000" d="M65.05 300.21564Q65.05 298.6844 65.3625 297.7625Q65.675 296.825 66.28438 296.325Q66.90938 295.825 67.84688 295.825Q68.53438 295.825 69.05 296.10626Q69.58125 296.3875 69.925 296.91876Q70.26875 297.4344 70.45625 298.1844Q70.64375 298.9344 70.64375 300.21564Q70.64375 301.73126 70.33125 302.65314Q70.03438 303.575 69.40938 304.09064Q68.8 304.59064 67.84688 304.59064Q66.6125 304.59064 65.89375 303.7Q65.05 302.6375 65.05 300.21564ZM66.12813 300.21564Q66.12813 302.325 66.62813 303.02814Q67.12813 303.73126 67.84688 303.73126Q68.58125 303.73126 69.06563 303.02814Q69.56563 302.325 69.56563 300.21564Q69.56563 298.09064 69.06563 297.40314Q68.58125 296.7 67.83125 296.7Q67.1125 296.7 66.675 297.3094Q66.12813 298.09064 66.12813 300.21564Z" fill-rule="nonzero"/><path fill="#000000" d="M63.596874 243.80104L63.596874 244.81667L57.909374 244.81667Q57.909374 244.44167 58.034374 244.08229Q58.253124 243.50417 58.721874 242.94167Q59.20625 242.37917 60.1125 241.64479Q61.51875 240.48854 62.003124 239.81667Q62.503124 239.14479 62.503124 238.55104Q62.503124 237.92604 62.05 237.50417Q61.596874 237.06667 60.878124 237.06667Q60.1125 237.06667 59.659374 237.51979Q59.20625 237.97292 59.190624 238.78542L58.1125 238.67604Q58.221874 237.45729 58.940624 236.83229Q59.675 236.19167 60.909374 236.19167Q62.14375 236.19167 62.8625 236.87917Q63.58125 237.56667 63.58125 238.58229Q63.58125 239.09792 63.3625 239.59792Q63.159374 240.08229 62.659374 240.64479Q62.175 241.19167 61.05 242.14479Q60.096874 242.94167 59.815624 243.23854Q59.55 243.51979 59.378124 243.80104L63.596874 243.80104ZM65.05 240.58229Q65.05 239.05104 65.3625 238.12917Q65.675 237.19167 66.28438 236.69167Q66.90938 236.19167 67.84688 236.19167Q68.53438 236.19167 69.05 236.47292Q69.58125 236.75417 69.925 237.28542Q70.26875 237.80104 70.45625 238.55104Q70.64375 239.30104 70.64375 240.58229Q70.64375 242.09792 70.33125 243.01979Q70.03438 243.94167 69.40938 244.45729Q68.8 244.95729 67.84688 244.95729Q66.6125 244.95729 65.89375 244.06667Q65.05 243.00417 65.05 240.58229ZM66.12813 240.58229Q66.12813 242.69167 66.62813 243.39479Q67.12813 244.09792 67.84688 244.09792Q68.58125 244.09792 69.06563 243.39479Q69.56563 242.69167 69.56563 240.58229Q69.56563 238.45729 69.06563 237.76979Q68.58125 237.06667 67.83125 237.06667Q67.1125 237.06667 66.675 237.67604Q66.12813 238.45729 66.12813 240.58229Z" fill-rule="nonzero"/><path fill="#000000" d="M61.425 185.18333L61.425 183.12083L57.70625 183.12083L57.70625 182.15208L61.628124 176.58958L62.4875 176.58958L62.4875 182.15208L63.64375 182.15208L63.64375 183.12083L62.4875 183.12083L62.4875 185.18333L61.425 185.18333ZM61.425 182.15208L61.425 178.29271L58.7375 182.15208L61.425 182.15208ZM65.05 180.94896Q65.05 179.41771 65.3625 178.49583Q65.675 177.55833 66.28438 177.05833Q66.90938 176.55833 67.84688 176.55833Q68.53438 176.55833 69.05 176.83958Q69.58125 177.12083 69.925 177.65208Q70.26875 178.16771 70.45625 178.91771Q70.64375 179.66771 70.64375 180.94896Q70.64375 182.46458 70.33125 183.38646Q70.03438 184.30833 69.40938 184.82396Q68.8 185.32396 67.84688 185.32396Q66.6125 185.32396 65.89375 184.43333Q65.05 183.37083 65.05 180.94896ZM66.12813 180.94896Q66.12813 183.05833 66.62813 183.76146Q67.12813 184.46458 67.84688 184.46458Q68.58125 184.46458 69.06563 183.76146Q69.56563 183.05833 69.56563 180.94896Q69.56563 178.82396 69.06563 178.13646Q68.58125 177.43333 67.83125 177.43333Q67.1125 177.43333 66.675 178.04271Q66.12813 178.82396 66.12813 180.94896Z" fill-rule="nonzero"/><path fill="#000000" d="M63.51875 119.06563L62.471874 119.14375Q62.33125 118.51875 62.08125 118.2375Q61.64375 117.78438 61.01875 117.78438Q60.51875 117.78438 60.128124 118.06563Q59.64375 118.44063 59.346874 119.14375Q59.065624 119.83125 59.05 121.1125Q59.425 120.53438 59.971874 120.25313Q60.534374 119.97188 61.14375 119.97188Q62.190624 119.97188 62.925 120.75313Q63.675 121.53438 63.675 122.75313Q63.675 123.56563 63.315624 124.26875Q62.971874 124.95625 62.3625 125.33125Q61.753124 125.69063 60.9875 125.69063Q59.659374 125.69063 58.83125 124.72188Q58.003124 123.75313 58.003124 121.53438Q58.003124 119.03438 58.925 117.90938Q59.721874 116.925 61.08125 116.925Q62.096874 116.925 62.7375 117.50313Q63.39375 118.06563 63.51875 119.06563ZM59.221874 122.76875Q59.221874 123.31563 59.440624 123.81563Q59.675 124.3 60.08125 124.56563Q60.503124 124.83125 60.971874 124.83125Q61.628124 124.83125 62.1125 124.3Q62.596874 123.75313 62.596874 122.83125Q62.596874 121.94063 62.1125 121.425Q61.64375 120.90938 60.925 120.90938Q60.20625 120.90938 59.70625 121.425Q59.221874 121.94063 59.221874 122.76875ZM65.05 121.31563Q65.05 119.78438 65.3625 118.8625Q65.675 117.925 66.28438 117.425Q66.90938 116.925 67.84688 116.925Q68.53438 116.925 69.05 117.20625Q69.58125 117.4875 69.925 118.01875Q70.26875 118.53438 70.45625 119.28438Q70.64375 120.03438 70.64375 121.31563Q70.64375 122.83125 70.33125 123.75313Q70.03438 124.675 69.40938 125.19063Q68.8 125.69063 67.84688 125.69063Q66.6125 125.69063 65.89375 124.8Q65.05 123.7375 65.05 121.31563ZM66.12813 121.31563Q66.12813 123.425 66.62813 124.12813Q67.12813 124.83125 67.84688 124.83125Q68.58125 124.83125 69.06563 124.12813Q69.56563 123.425 69.56563 121.31563Q69.56563 119.19063 69.06563 118.50313Q68.58125 117.8 67.83125 117.8Q67.1125 117.8 66.675 118.40938Q66.12813 119.19063 66.12813 121.31563Z" fill-rule="nonzero"/><path fill="#000000" d="M59.675 61.260414Q59.01875 61.010414 58.690624 60.572914Q58.378124 60.11979 58.378124 59.510414Q58.378124 58.572914 59.05 57.93229Q59.7375 57.291664 60.846874 57.291664Q61.971874 57.291664 62.659374 57.947914Q63.346874 58.604164 63.346874 59.541664Q63.346874 60.135414 63.034374 60.572914Q62.721874 61.010414 62.08125 61.260414Q62.878124 61.510414 63.284374 62.08854Q63.690624 62.666664 63.690624 63.46354Q63.690624 64.55729 62.909374 65.30729Q62.14375 66.05729 60.8625 66.05729Q59.596874 66.05729 58.815624 65.30729Q58.034374 64.55729 58.034374 63.43229Q58.034374 62.58854 58.45625 62.02604Q58.89375 61.46354 59.675 61.260414ZM59.45625 59.46354Q59.45625 60.072914 59.846874 60.46354Q60.253124 60.854164 60.878124 60.854164Q61.4875 60.854164 61.878124 60.479164Q62.26875 60.08854 62.26875 59.52604Q62.26875 58.947914 61.8625 58.55729Q61.45625 58.15104 60.8625 58.15104Q60.253124 58.15104 59.846874 58.541664Q59.45625 58.93229 59.45625 59.46354ZM59.128124 63.43229Q59.128124 63.885414 59.33125 64.30729Q59.55 64.729164 59.971874 64.96354Q60.39375 65.197914 60.878124 65.197914Q61.628124 65.197914 62.1125 64.71354Q62.6125 64.229164 62.6125 63.479164Q62.6125 62.71354 62.1125 62.21354Q61.6125 61.71354 60.846874 61.71354Q60.096874 61.71354 59.6125 62.21354Q59.128124 62.697914 59.128124 63.43229ZM65.05 61.68229Q65.05 60.15104 65.3625 59.229164Q65.675 58.291664 66.28438 57.791664Q66.90938 57.291664 67.84688 57.291664Q68.53438 57.291664 69.05 57.572914Q69.58125 57.854164 69.925 58.385414Q70.26875 58.90104 70.45625 59.65104Q70.64375 60.40104 70.64375 61.68229Q70.64375 63.197914 70.33125 64.11979Q70.03438 65.041664 69.40938 65.55729Q68.8 66.05729 67.84688 66.05729Q66.6125 66.05729 65.89375 65.166664Q65.05 64.104164 65.05 61.68229ZM66.12813 61.68229Q66.12813 63.791664 66.62813 64.49479Q67.12813 65.197914 67.84688 65.197914Q68.58125 65.197914 69.06563 64.49479Q69.56563 63.791664 69.56563 61.68229Q69.56563 59.55729 69.06563 58.86979Q68.58125 58.166664 67.83125 58.166664Q67.1125 58.166664 66.675 58.77604Q66.12813 59.55729 66.12813 61.68229Z" fill-rule="nonzero"/><path fill="#000000" d="M78.51875 317.45L77.47188 317.45L77.47188 310.73126Q77.08125 311.09064 76.45625 311.46564Q75.84688 311.825 75.3625 311.9969L75.3625 310.98126Q76.2375 310.5594 76.89375 309.98126Q77.56563 309.3875 77.84688 308.825L78.51875 308.825L78.51875 317.45Z" fill-rule="nonzero"/><path fill="#000000" d="M188.1481 317.45L187.10123 317.45L187.10123 310.73126Q186.7106 311.09064 186.0856 311.46564Q185.47623 311.825 184.99185 311.9969L184.99185 310.98126Q185.86685 310.5594 186.5231 309.98126Q187.19498 309.3875 187.47623 308.825L188.1481 308.825L188.1481 317.45ZM191.17935 313.21564Q191.17935 311.6844 191.49185 310.7625Q191.80435 309.825 192.41373 309.325Q193.03873 308.825 193.97623 308.825Q194.66373 308.825 195.17935 309.10626Q195.7106 309.3875 196.05435 309.91876Q196.3981 310.4344 196.5856 311.1844Q196.7731 311.9344 196.7731 313.21564Q196.7731 314.73126 196.4606 315.65314Q196.16373 316.575 195.53873 317.09064Q194.92935 317.59064 193.97623 317.59064Q192.74185 317.59064 192.0231 316.7Q191.17935 315.6375 191.17935 313.21564ZM192.25748 313.21564Q192.25748 315.325 192.75748 316.02814Q193.25748 316.73126 193.97623 316.73126Q194.7106 316.73126 195.19498 316.02814Q195.69498 315.325 195.69498 313.21564Q195.69498 311.09064 195.19498 310.40314Q194.7106 309.7 193.9606 309.7Q193.24185 309.7 192.80435 310.3094Q192.25748 311.09064 192.25748 313.21564Z" fill-rule="nonzero"/><path fill="#000000" d="M297.77747 317.45L296.7306 317.45L296.7306 310.73126Q296.33997 311.09064 295.71497 311.46564Q295.1056 311.825 294.62122 311.9969L294.62122 310.98126Q295.49622 310.5594 296.15247 309.98126Q296.82434 309.3875 297.1056 308.825L297.77747 308.825L297.77747 317.45ZM300.80872 313.21564Q300.80872 311.6844 301.12122 310.7625Q301.43372 309.825 302.0431 309.325Q302.6681 308.825 303.6056 308.825Q304.2931 308.825 304.80872 309.10626Q305.33997 309.3875 305.68372 309.91876Q306.02747 310.4344 306.21497 311.1844Q306.40247 311.9344 306.40247 313.21564Q306.40247 314.73126 306.08997 315.65314Q305.7931 316.575 305.1681 317.09064Q304.55872 317.59064 303.6056 317.59064Q302.37122 317.59064 301.65247 316.7Q300.80872 315.6375 300.80872 313.21564ZM301.88684 313.21564Q301.88684 315.325 302.38684 316.02814Q302.88684 316.73126 303.6056 316.73126Q304.33997 316.73126 304.82434 316.02814Q305.32434 315.325 305.32434 313.21564Q305.32434 311.09064 304.82434 310.40314Q304.33997 309.7 303.58997 309.7Q302.87122 309.7 302.43372 310.3094Q301.88684 311.09064 301.88684 313.21564ZM307.80872 313.21564Q307.80872 311.6844 308.12122 310.7625Q308.43372 309.825 309.0431 309.325Q309.6681 308.825 310.6056 308.825Q311.2931 308.825 311.80872 309.10626Q312.33997 309.3875 312.68372 309.91876Q313.02747 310.4344 313.21497 311.1844Q313.40247 311.9344 313.40247 313.21564Q313.40247 314.73126 313.08997 315.65314Q312.7931 316.575 312.1681 317.09064Q311.55872 317.59064 310.6056 317.59064Q309.37122 317.59064 308.65247 316.7Q307.80872 315.6375 307.80872 313.21564ZM308.88684 313.21564Q308.88684 315.325 309.38684 316.02814Q309.88684 316.73126 310.6056 316.73126Q311.33997 316.73126 311.82434 316.02814Q312.32434 315.325 312.32434 313.21564Q312.32434 311.09064 311.82434 310.40314Q311.33997 309.7 310.58997 309.7Q309.87122 309.7 309.43372 310.3094Q308.88684 311.09064 308.88684 313.21564Z" fill-rule="nonzero"/><path fill="#000000" d="M407.40683 317.45L406.35995 317.45L406.35995 310.73126Q405.96933 311.09064 405.34433 311.46564Q404.73495 311.825 404.25058 311.9969L404.25058 310.98126Q405.12558 310.5594 405.78183 309.98126Q406.4537 309.3875 406.73495 308.825L407.40683 308.825L407.40683 317.45ZM410.43808 313.21564Q410.43808 311.6844 410.75058 310.7625Q411.06308 309.825 411.67245 309.325Q412.29745 308.825 413.23495 308.825Q413.92245 308.825 414.43808 309.10626Q414.96933 309.3875 415.31308 309.91876Q415.65683 310.4344 415.84433 311.1844Q416.03183 311.9344 416.03183 313.21564Q416.03183 314.73126 415.71933 315.65314Q415.42245 316.575 414.79745 317.09064Q414.18808 317.59064 413.23495 317.59064Q412.00058 317.59064 411.28183 316.7Q410.43808 315.6375 410.43808 313.21564ZM411.5162 313.21564Q411.5162 315.325 412.0162 316.02814Q412.5162 316.73126 413.23495 316.73126Q413.96933 316.73126 414.4537 316.02814Q414.9537 315.325 414.9537 313.21564Q414.9537 311.09064 414.4537 310.40314Q413.96933 309.7 413.21933 309.7Q412.50058 309.7 412.06308 310.3094Q411.5162 311.09064 411.5162 313.21564ZM417.43808 313.21564Q417.43808 311.6844 417.75058 310.7625Q418.06308 309.825 418.67245 309.325Q419.29745 308.825 420.23495 308.825Q420.92245 308.825 421.43808 309.10626Q421.96933 309.3875 422.31308 309.91876Q422.65683 310.4344 422.84433 311.1844Q423.03183 311.9344 423.03183 313.21564Q423.03183 314.73126 422.71933 315.65314Q422.42245 316.575 421.79745 317.09064Q421.18808 317.59064 420.23495 317.59064Q419.00058 317.59064 418.28183 316.7Q417.43808 315.6375 417.43808 313.21564ZM418.5162 313.21564Q418.5162 315.325 419.0162 316.02814Q419.5162 316.73126 420.23495 316.73126Q420.96933 316.73126 421.4537 316.02814Q421.9537 315.325 421.9537 313.21564Q421.9537 311.09064 421.4537 310.40314Q420.96933 309.7 420.21933 309.7Q419.50058 309.7 419.06308 310.3094Q418.5162 311.09064 418.5162 313.21564ZM424.43808 313.21564Q424.43808 311.6844 424.75058 310.7625Q425.06308 309.825 425.67245 309.325Q426.29745 308.825 427.23495 308.825Q427.92245 308.825 428.43808 309.10626Q428.96933 309.3875 429.31308 309.91876Q429.65683 310.4344 429.84433 311.1844Q430.03183 311.9344 430.03183 313.21564Q430.03183 314.73126 429.71933 315.65314Q429.42245 316.575 428.79745 317.09064Q428.18808 317.59064 427.23495 317.59064Q426.00058 317.59064 425.28183 316.7Q424.43808 315.6375 424.43808 313.21564ZM425.5162 313.21564Q425.5162 315.325 426.0162 316.02814Q426.5162 316.73126 427.23495 316.73126Q427.96933 316.73126 428.4537 316.02814Q428.9537 315.325 428.9537 313.21564Q428.9537 311.09064 428.4537 310.40314Q427.96933 309.7 427.21933 309.7Q426.50058 309.7 426.06308 310.3094Q425.5162 311.09064 425.5162 313.21564Z" fill-rule="nonzero"/><path fill="#757575" d="M91.640625 37.55L95.4375 32.159374L91.9375 27.175L94.125 27.175L95.71875 29.6125Q96.171875 30.3 96.4375 30.76875Q96.875 30.128124 97.234375 29.628124L98.984375 27.175L101.078125 27.175L97.5 32.065624L101.359375 37.55L99.203125 37.55L97.0625 34.33125L96.5 33.45625L93.78125 37.55L91.640625 37.55ZM104.03125 29.784374Q102.9375 29.378124 102.40625 28.64375Q101.890625 27.89375 101.890625 26.8625Q101.890625 25.3 103.015625 24.2375Q104.140625 23.175 106.0 23.175Q107.875 23.175 109.015625 24.26875Q110.15625 25.346874 110.15625 26.909374Q110.15625 27.909374 109.625 28.64375Q109.109375 29.378124 108.046875 29.784374Q109.375 30.221874 110.0625 31.175Q110.75 32.128124 110.75 33.45625Q110.75 35.3 109.4375 36.55Q108.140625 37.8 106.03125 37.8Q103.90625 37.8 102.609375 36.55Q101.3125 35.284374 101.3125 33.409374Q101.3125 32.01875 102.015625 31.08125Q102.734375 30.128124 104.03125 29.784374ZM103.6875 26.8Q103.6875 27.815624 104.34375 28.471874Q105.0 29.1125 106.03125 29.1125Q107.046875 29.1125 107.703125 28.471874Q108.359375 27.83125 108.359375 26.909374Q108.359375 25.940624 107.6875 25.284374Q107.015625 24.6125 106.015625 24.6125Q105.015625 24.6125 104.34375 25.26875Q103.6875 25.909374 103.6875 26.8ZM103.125 33.425Q103.125 34.175 103.46875 34.878124Q103.828125 35.58125 104.53125 35.971874Q105.234375 36.346874 106.046875 36.346874Q107.3125 36.346874 108.125 35.534374Q108.953125 34.721874 108.953125 33.471874Q108.953125 32.20625 108.109375 31.378124Q107.265625 30.55 105.984375 30.55Q104.75 30.55 103.9375 31.378124Q103.125 32.190624 103.125 33.425ZM121.453125 26.7375L119.703125 26.878124Q119.46875 25.846874 119.046875 25.378124Q118.328125 24.6125 117.28125 24.6125Q116.4375 24.6125 115.8125 25.08125Q114.984375 25.690624 114.5 26.8625Q114.015625 28.01875 114.0 30.159374Q114.640625 29.20625 115.546875 28.7375Q116.46875 28.26875 117.484375 28.26875Q119.234375 28.26875 120.46875 29.565624Q121.703125 30.846874 121.703125 32.89375Q121.703125 34.253124 121.125 35.409374Q120.546875 36.565624 119.53125 37.190624Q118.515625 37.8 117.21875 37.8Q115.03125 37.8 113.640625 36.190624Q112.25 34.565624 112.25 30.846874Q112.25 26.70625 113.78125 24.815624Q115.125 23.175 117.390625 23.175Q119.078125 23.175 120.15625 24.128124Q121.234375 25.065624 121.453125 26.7375ZM114.28125 32.909374Q114.28125 33.815624 114.65625 34.64375Q115.046875 35.471874 115.734375 35.909374Q116.4375 36.346874 117.1875 36.346874Q118.3125 36.346874 119.109375 35.45625Q119.90625 34.55 119.90625 33.003124Q119.90625 31.51875 119.109375 30.675Q118.328125 29.815624 117.125 29.815624Q115.9375 29.815624 115.109375 30.675Q114.28125 31.51875 114.28125 32.909374ZM132.70312 37.55L128.75 27.175L130.60938 27.175L132.84375 33.39375Q133.20312 34.39375 133.5 35.471874Q133.73438 34.659374 134.15625 33.503124L136.45312 27.175L138.26562 27.175L134.34375 37.55L132.70312 37.55ZM138.78125 37.55L138.78125 23.2375L140.53125 23.2375L140.53125 37.55L138.78125 37.55ZM149.92188 34.20625L151.73438 34.440624Q151.3125 36.01875 150.14062 36.909374Q148.98438 37.784374 147.17188 37.784374Q144.90625 37.784374 143.5625 36.39375Q142.23438 34.9875 142.23438 32.45625Q142.23438 29.83125 143.57812 28.39375Q144.92188 26.940624 147.07812 26.940624Q149.15625 26.940624 150.46875 28.3625Q151.79688 29.76875 151.79688 32.346874Q151.79688 32.503124 151.78125 32.815624L144.04688 32.815624Q144.14062 34.51875 145.01562 35.425Q145.89062 36.33125 147.1875 36.33125Q148.15625 36.33125 148.82812 35.83125Q149.51562 35.315624 149.92188 34.20625ZM144.14062 31.3625L149.9375 31.3625Q149.82812 30.065624 149.28125 29.409374Q148.4375 28.39375 147.09375 28.39375Q145.89062 28.39375 145.0625 29.20625Q144.23438 30.003124 144.14062 31.3625ZM156.03125 29.784374Q154.9375 29.378124 154.40625 28.64375Q153.89062 27.89375 153.89062 26.8625Q153.89062 25.3 155.01562 24.2375Q156.14062 23.175 158.0 23.175Q159.875 23.175 161.01562 24.26875Q162.15625 25.346874 162.15625 26.909374Q162.15625 27.909374 161.625 28.64375Q161.10938 29.378124 160.04688 29.784374Q161.375 30.221874 162.0625 31.175Q162.75 32.128124 162.75 33.45625Q162.75 35.3 161.4375 36.55Q160.14062 37.8 158.03125 37.8Q155.90625 37.8 154.60938 36.55Q153.3125 35.284374 153.3125 33.409374Q153.3125 32.01875 154.01562 31.08125Q154.73438 30.128124 156.03125 29.784374ZM155.6875 26.8Q155.6875 27.815624 156.34375 28.471874Q157.0 29.1125 158.03125 29.1125Q159.04688 29.1125 159.70312 28.471874Q160.35938 27.83125 160.35938 26.909374Q160.35938 25.940624 159.6875 25.284374Q159.01562 24.6125 158.01562 24.6125Q157.01562 24.6125 156.34375 25.26875Q155.6875 25.909374 155.6875 26.8ZM155.125 33.425Q155.125 34.175 155.46875 34.878124Q155.82812 35.58125 156.53125 35.971874Q157.23438 36.346874 158.04688 36.346874Q159.3125 36.346874 160.125 35.534374Q160.95312 34.721874 160.95312 33.471874Q160.95312 32.20625 160.10938 31.378124Q159.26562 30.55 157.98438 30.55Q156.75 30.55 155.9375 31.378124Q155.125 32.190624 155.125 33.425ZM165.3125 37.55L165.3125 35.55L167.3125 35.55L167.3125 37.55L165.3125 37.55ZM173.70312 37.55L169.75 27.175L171.60938 27.175L173.84375 33.39375Q174.20312 34.39375 174.5 35.471874Q174.73438 34.659374 175.15625 33.503124L177.45312 27.175L179.26562 27.175L175.34375 37.55L173.70312 37.55ZM185.10938 34.45625L186.85938 34.175Q187.0 35.221874 187.67188 35.784374Q188.34375 36.33125 189.54688 36.33125Q190.75 36.33125 191.32812 35.846874Q191.92188 35.346874 191.92188 34.690624Q191.92188 34.096874 191.40625 33.753124Q191.04688 33.51875 189.60938 33.159374Q187.67188 32.659374 186.92188 32.315624Q186.1875 31.95625 185.79688 31.33125Q185.40625 30.690624 185.40625 29.925Q185.40625 29.2375 185.71875 28.64375Q186.04688 28.05 186.59375 27.659374Q187.0 27.3625 187.70312 27.159374Q188.42188 26.940624 189.23438 26.940624Q190.45312 26.940624 191.375 27.3Q192.29688 27.64375 192.73438 28.253124Q193.17188 28.846874 193.34375 29.846874L191.625 30.08125Q191.5 29.284374 190.9375 28.846874Q190.375 28.39375 189.35938 28.39375Q188.14062 28.39375 187.625 28.8Q187.10938 29.190624 187.10938 29.721874Q187.10938 30.065624 187.32812 30.346874Q187.53125 30.628124 188.0 30.815624Q188.26562 30.909374 189.54688 31.253124Q191.42188 31.753124 192.15625 32.08125Q192.89062 32.39375 193.3125 33.003124Q193.73438 33.596874 193.73438 34.503124Q193.73438 35.378124 193.21875 36.159374Q192.70312 36.940624 191.73438 37.3625Q190.76562 37.784374 189.54688 37.784374Q187.53125 37.784374 186.46875 36.940624Q185.40625 36.096874 185.10938 34.45625ZM195.8125 41.51875L195.8125 27.175L197.42188 27.175L197.42188 28.51875Q197.98438 27.7375 198.6875 27.346874Q199.40625 26.940624 200.42188 26.940624Q201.75 26.940624 202.76562 27.628124Q203.78125 28.315624 204.29688 29.565624Q204.82812 30.8 204.82812 32.284374Q204.82812 33.878124 204.25 35.159374Q203.6875 36.425 202.59375 37.1125Q201.5 37.784374 200.29688 37.784374Q199.42188 37.784374 198.71875 37.409374Q198.03125 37.034374 197.57812 36.471874L197.57812 41.51875L195.8125 41.51875ZM197.40625 32.425Q197.40625 34.425 198.21875 35.378124Q199.03125 36.33125 200.1875 36.33125Q201.35938 36.33125 202.1875 35.346874Q203.03125 34.3625 203.03125 32.26875Q203.03125 30.3 202.20312 29.315624Q201.39062 28.315624 200.26562 28.315624Q199.14062 28.315624 198.26562 29.378124Q197.40625 30.425 197.40625 32.425ZM213.92188 34.20625L215.73438 34.440624Q215.3125 36.01875 214.14062 36.909374Q212.98438 37.784374 211.17188 37.784374Q208.90625 37.784374 207.5625 36.39375Q206.23438 34.9875 206.23438 32.45625Q206.23438 29.83125 207.57812 28.39375Q208.92188 26.940624 211.07812 26.940624Q213.15625 26.940624 214.46875 28.3625Q215.79688 29.76875 215.79688 32.346874Q215.79688 32.503124 215.78125 32.815624L208.04688 32.815624Q208.14062 34.51875 209.01562 35.425Q209.89062 36.33125 211.1875 36.33125Q212.15625 36.33125 212.82812 35.83125Q213.51562 35.315624 213.92188 34.20625ZM208.14062 31.3625L213.9375 31.3625Q213.82812 30.065624 213.28125 29.409374Q212.4375 28.39375 211.09375 28.39375Q209.89062 28.39375 209.0625 29.20625Q208.23438 30.003124 208.14062 31.3625ZM224.92188 34.20625L226.73438 34.440624Q226.3125 36.01875 225.14062 36.909374Q223.98438 37.784374 222.17188 37.784374Q219.90625 37.784374 218.5625 36.39375Q217.23438 34.9875 217.23438 32.45625Q217.23438 29.83125 218.57812 28.39375Q219.92188 26.940624 222.07812 26.940624Q224.15625 26.940624 225.46875 28.3625Q226.79688 29.76875 226.79688 32.346874Q226.79688 32.503124 226.78125 32.815624L219.04688 32.815624Q219.14062 34.51875 220.01562 35.425Q220.89062 36.33125 222.1875 36.33125Q223.15625 36.33125 223.82812 35.83125Q224.51562 35.315624 224.92188 34.20625ZM219.14062 31.3625L224.9375 31.3625Q224.82812 30.065624 224.28125 29.409374Q223.4375 28.39375 222.09375 28.39375Q220.89062 28.39375 220.0625 29.20625Q219.23438 30.003124 219.14062 31.3625ZM235.54688 37.55L235.54688 36.2375Q234.5625 37.784374 232.64062 37.784374Q231.40625 37.784374 230.35938 37.096874Q229.32812 36.409374 228.75 35.190624Q228.1875 33.971874 228.1875 32.378124Q228.1875 30.815624 228.70312 29.55Q229.21875 28.284374 230.25 27.6125Q231.29688 26.940624 232.5625 26.940624Q233.5 26.940624 234.23438 27.346874Q234.96875 27.7375 235.4375 28.3625L235.4375 23.2375L237.17188 23.2375L237.17188 37.55L235.54688 37.55ZM229.98438 32.378124Q229.98438 34.3625 230.82812 35.346874Q231.67188 36.33125 232.8125 36.33125Q233.96875 36.33125 234.76562 35.39375Q235.57812 34.45625 235.57812 32.51875Q235.57812 30.39375 234.75 29.39375Q233.9375 28.39375 232.73438 28.39375Q231.5625 28.39375 230.76562 29.3625Q229.98438 30.315624 229.98438 32.378124ZM246.60938 37.55L246.60938 36.01875Q245.40625 37.784374 243.32812 37.784374Q242.40625 37.784374 241.60938 37.440624Q240.8125 37.08125 240.42188 36.55Q240.04688 36.01875 239.89062 35.2375Q239.78125 34.721874 239.78125 33.596874L239.78125 27.175L241.53125 27.175L241.53125 32.925Q241.53125 34.3 241.64062 34.784374Q241.8125 35.471874 242.34375 35.878124Q242.89062 36.26875 243.67188 36.26875Q244.46875 36.26875 245.15625 35.8625Q245.85938 35.45625 246.14062 34.76875Q246.4375 34.065624 246.4375 32.7375L246.4375 27.175L248.1875 27.175L248.1875 37.55L246.60938 37.55ZM249.8125 41.51875L249.8125 27.175L251.42188 27.175L251.42188 28.51875Q251.98438 27.7375 252.6875 27.346874Q253.40625 26.940624 254.42188 26.940624Q255.75 26.940624 256.76562 27.628124Q257.78125 28.315624 258.29688 29.565624Q258.82812 30.8 258.82812 32.284374Q258.82812 33.878124 258.25 35.159374Q257.6875 36.425 256.59375 37.1125Q255.5 37.784374 254.29688 37.784374Q253.42188 37.784374 252.71875 37.409374Q252.03125 37.034374 251.57812 36.471874L251.57812 41.51875L249.8125 41.51875ZM251.40625 32.425Q251.40625 34.425 252.21875 35.378124Q253.03125 36.33125 254.1875 36.33125Q255.35938 36.33125 256.1875 35.346874Q257.03125 34.3625 257.03125 32.26875Q257.03125 30.3 256.20312 29.315624Q255.39062 28.315624 254.26562 28.315624Q253.14062 28.315624 252.26562 29.378124Q251.40625 30.425 251.40625 32.425ZM271.14062 37.55L265.59375 23.2375L267.64062 23.2375L271.35938 33.628124Q271.8125 34.878124 272.10938 35.971874Q272.4375 34.8 272.89062 33.628124L276.75 23.2375L278.6875 23.2375L273.07812 37.55L271.14062 37.55ZM279.96875 37.55L279.96875 23.2375L281.85938 23.2375L281.85938 35.8625L288.90625 35.8625L288.90625 37.55L279.96875 37.55ZM291.07812 37.55L291.07812 23.2375L301.4375 23.2375L301.4375 24.925L292.98438 24.925L292.98438 29.3L300.89062 29.3L300.89062 30.9875L292.98438 30.9875L292.98438 35.8625L301.76562 35.8625L301.76562 37.55L291.07812 37.55ZM304.03125 37.55L304.03125 23.2375L305.96875 23.2375L313.48438 34.471874L313.48438 23.2375L315.29688 23.2375L315.29688 37.55L313.35938 37.55L305.84375 26.3L305.84375 37.55L304.03125 37.55ZM326.0625 29.128124L316.60938 29.128124L316.60938 27.4875L326.0625 27.4875L326.0625 29.128124ZM326.0625 33.471874L316.60938 33.471874L316.60938 31.83125L326.0625 31.83125L326.0625 33.471874ZM334.95312 37.55L333.1875 37.55L333.1875 26.346874Q332.5625 26.95625 331.53125 27.565624Q330.5 28.159374 329.67188 28.471874L329.67188 26.76875Q331.15625 26.08125 332.25 25.096874Q333.35938 24.096874 333.8125 23.175L334.95312 23.175L334.95312 37.55ZM339.32812 30.4875Q339.32812 27.95625 339.84375 26.409374Q340.375 24.846874 341.40625 24.01875Q342.4375 23.175 344.0 23.175Q345.15625 23.175 346.01562 23.64375Q346.89062 24.096874 347.45312 24.971874Q348.01562 25.846874 348.34375 27.1125Q348.67188 28.3625 348.67188 30.4875Q348.67188 33.003124 348.14062 34.55Q347.625 36.096874 346.59375 36.95625Q345.57812 37.8 344.0 37.8Q341.92188 37.8 340.75 36.315624Q339.32812 34.51875 339.32812 30.4875ZM341.14062 30.4875Q341.14062 34.01875 341.95312 35.190624Q342.78125 36.346874 344.0 36.346874Q345.20312 36.346874 346.03125 35.175Q346.85938 34.003124 346.85938 30.4875Q346.85938 26.95625 346.03125 25.8Q345.20312 24.628124 343.98438 24.628124Q342.76562 24.628124 342.04688 25.659374Q341.14062 26.95625 341.14062 30.4875ZM359.5625 35.8625L359.5625 37.55L350.10938 37.55Q350.09375 36.909374 350.3125 36.33125Q350.67188 35.3625 351.46875 34.425Q352.26562 33.4875 353.76562 32.253124Q356.10938 30.346874 356.92188 29.2375Q357.75 28.1125 357.75 27.1125Q357.75 26.065624 357.0 25.346874Q356.25 24.628124 355.04688 24.628124Q353.78125 24.628124 353.01562 25.39375Q352.25 26.159374 352.25 27.503124L350.4375 27.315624Q350.625 25.3 351.82812 24.2375Q353.04688 23.175 355.09375 23.175Q357.14062 23.175 358.34375 24.315624Q359.54688 25.45625 359.54688 27.14375Q359.54688 28.003124 359.1875 28.846874Q358.84375 29.675 358.03125 30.596874Q357.21875 31.503124 355.32812 33.1125Q353.73438 34.440624 353.28125 34.909374Q352.84375 35.378124 352.54688 35.8625L359.5625 35.8625ZM366.96875 37.55L366.96875 34.128124L360.75 34.128124L360.75 32.503124L367.28125 23.2375L368.71875 23.2375L368.71875 32.503124L370.65625 32.503124L370.65625 34.128124L368.71875 34.128124L368.71875 37.55L366.96875 37.55ZM366.96875 32.503124L366.96875 26.05L362.48438 32.503124L366.96875 32.503124ZM378.96875 37.55L378.96875 23.2375L380.85938 23.2375L380.85938 35.8625L387.90625 35.8625L387.90625 37.55L378.96875 37.55ZM389.98438 37.55L389.98438 23.2375L392.84375 23.2375L396.21875 33.3625Q396.6875 34.784374 396.90625 35.4875Q397.15625 34.70625 397.67188 33.190624L401.09375 23.2375L403.64062 23.2375L403.64062 37.55L401.82812 37.55L401.82812 25.565624L397.65625 37.55L395.95312 37.55L391.8125 25.3625L391.8125 37.55L389.98438 37.55ZM416.4375 23.2375L418.32812 23.2375L418.32812 31.503124Q418.32812 33.659374 417.84375 34.940624Q417.35938 36.20625 416.07812 37.003124Q414.8125 37.8 412.73438 37.8Q410.71875 37.8 409.4375 37.1125Q408.17188 36.409374 407.625 35.096874Q407.07812 33.784374 407.07812 31.503124L407.07812 23.2375L408.96875 23.2375L408.96875 31.4875Q408.96875 33.3625 409.3125 34.253124Q409.65625 35.128124 410.5 35.6125Q411.34375 36.08125 412.57812 36.08125Q414.65625 36.08125 415.54688 35.14375Q416.4375 34.190624 416.4375 31.4875L416.4375 23.2375ZM419.96875 37.55L419.96875 23.2375L421.85938 23.2375L421.85938 35.8625L428.90625 35.8625L428.90625 37.55L419.96875 37.55ZM440.0625 29.128124L430.60938 29.128124L430.60938 27.4875L440.0625 27.4875L440.0625 29.128124ZM440.0625 33.471874L430.60938 33.471874L430.60938 31.83125L440.0625 31.83125L440.0625 33.471874ZM445.03125 29.784374Q443.9375 29.378124 443.40625 28.64375Q442.89062 27.89375 442.89062 26.8625Q442.89062 25.3 444.01562 24.2375Q445.14062 23.175 447.0 23.175Q448.875 23.175 450.01562 24.26875Q451.15625 25.346874 451.15625 26.909374Q451.15625 27.909374 450.625 28.64375Q450.10938 29.378124 449.04688 29.784374Q450.375 30.221874 451.0625 31.175Q451.75 32.128124 451.75 33.45625Q451.75 35.3 450.4375 36.55Q449.14062 37.8 447.03125 37.8Q444.90625 37.8 443.60938 36.55Q442.3125 35.284374 442.3125 33.409374Q442.3125 32.01875 443.01562 31.08125Q443.73438 30.128124 445.03125 29.784374ZM444.6875 26.8Q444.6875 27.815624 445.34375 28.471874Q446.0 29.1125 447.03125 29.1125Q448.04688 29.1125 448.70312 28.471874Q449.35938 27.83125 449.35938 26.909374Q449.35938 25.940624 448.6875 25.284374Q448.01562 24.6125 447.01562 24.6125Q446.01562 24.6125 445.34375 25.26875Q444.6875 25.909374 444.6875 26.8ZM444.125 33.425Q444.125 34.175 444.46875 34.878124Q444.82812 35.58125 445.53125 35.971874Q446.23438 36.346874 447.04688 36.346874Q448.3125 36.346874 449.125 35.534374Q449.95312 34.721874 449.95312 33.471874Q449.95312 32.20625 449.10938 31.378124Q448.26562 30.55 446.98438 30.55Q445.75 30.55 444.9375 31.378124Q444.125 32.190624 444.125 33.425Z" fill-rule="nonzero"/></svg>