<svg version="1.1" viewBox="0.0 0.0 544.0 371.0" fill="none" stroke="none" stroke-linecap="square" stroke-miterlimit="10" width="544" height="371" xmlns:xlink="http://www.w3.org/1999/xlink" xmlns="http://www.w3.org/2000/svg"><path fill="#ffffff" d="M0 0L544.0 0L544.0 371.0L0 371.0L0 0Z" fill-rule="nonzero"/><path stroke="#cccccc" stroke-width="1.0" stroke-linecap="butt" d="M77.5 61.5L77.5 300.5" fill-rule="nonzero"/><path stroke="#cccccc" stroke-width="1.0" stroke-linecap="butt" d="M190.5 61.5L190.5 300.5" fill-rule="nonzero"/><path stroke="#cccccc" stroke-width="1.0" stroke-linecap="butt" d="M303.5 61.5L303.5 300.5" fill-rule="nonzero"/><path stroke="#cccccc" stroke-width="1.0" stroke-linecap="butt" d="M416.5 61.5L416.5 300.5" fill-rule="nonzero"/><path stroke="#333333" stroke-width="1.0" stroke-linecap="butt" d="M77.5 300.5L525.5 300.5" fill-rule="nonzero"/><path stroke="#cccccc" stroke-width="1.0" stroke-linecap="butt" d="M77.5 240.5L525.5 240.5" fill-rule="nonzero"/><path stroke="#cccccc" stroke-width="1.0" stroke-linecap="butt" d="M77.5 181.5L525.5 181.5" fill-rule="nonzero"/><path stroke="#cccccc" stroke-width="1.0" stroke-linecap="butt" d="M77.5 121.5L525.5 121.5" fill-rule="nonzero"/><path stroke="#cccccc" stroke-width="1.0" stroke-linecap="butt" d="M77.5 61.5L525.5 61.5" fill-rule="nonzero"/><clipPath id="id_0"><path d="M77.55 61.916668L525.45 61.916668L525.45 300.45L77.55 300.45L77.55 61.916668Z" clip-rule="nonzero"/></clipPath><path stroke="#ea4335" stroke-width="2.0" stroke-linecap="butt" clip-path="url(#id_0)" d="M77.55 298.00906L111.60533 296.40433L131.52641 297.04355L145.66066 295.7651L156.62402 295.17105L165.58176 295.8598L173.1554 295.5507L179.71599 295.08L185.50284 295.74194L190.67935 296.84744L195.36209 296.11395L199.63708 295.2342L203.5697 295.16385L207.21072 294.8935L210.60045 293.634L213.77132 293.634L216.7499 293.673L219.55817 293.94595L222.21457 293.45258L224.73468 293.74066L227.13182 292.21198L229.41742 291.95523L231.6014 291.7856L233.69241 292.37378L235.69806 290.09167L237.62503 290.93564L239.47926 290.08298L241.26605 290.82782L242.99014 290.85992L244.65578 289.93997L246.26678 290.88174L247.82664 291.15845L249.3385 287.02777L250.80522 286.1997L252.22943 287.63422L262.34323 285.6793L268.7608 283.46045L269.7534 282.71573L270.72632 284.51L271.68036 283.7805L272.6162 282.6976L277.88535 278.79416L278.71112 284.15982L279.52322 280.14227L280.3221 282.43253L281.10825 281.53082L281.882 282.80243L282.6437 275.42856L283.39383 275.42856L284.13266 280.94287L292.22733 276.1924L315.55197 266.58453L315.93732 266.46445L316.31964 255.25389L316.69907 264.66528L317.07553 258.8389L317.44916 262.61163L317.81998 258.26953L337.1215 239.09782L349.99265 236.09569L354.57056 217.10753L384.04797 197.0106L392.89362 172.75172L418.1033 147.3349L439.38092 156.8387L452.15863 133.90459L469.198 135.39159L486.21396 122.75878L496.80164 125.77184L520.2693 121.24522L525.45 124.800285" fill-rule="nonzero"/><path fill="#000000" fill-opacity="0.0" clip-path="url(#id_0)" d="M80.55 298.00906C80.55 299.6659 79.206856 301.00906 77.55 301.00906C75.89314 301.00906 74.55 299.6659 74.55 298.00906C74.55 296.3522 75.89314 295.00906 77.55 295.00906C79.206856 295.00906 80.55 296.3522 80.55 298.00906Z" fill-rule="nonzero"/><path fill="#000000" fill-opacity="0.0" clip-path="url(#id_0)" d="M114.60533 296.40433C114.60533 298.0612 113.262184 299.40433 111.60533 299.40433C109.94848 299.40433 108.60533 298.0612 108.60533 296.40433C108.60533 294.74747 109.94848 293.40433 111.60533 293.40433C113.262184 293.40433 114.60533 294.74747 114.60533 296.40433Z" fill-rule="nonzero"/><path fill="#000000" fill-opacity="0.0" clip-path="url(#id_0)" d="M134.52641 297.04355C134.52641 298.70038 133.18327 300.04355 131.52641 300.04355C129.86957 300.04355 128.52641 298.70038 128.52641 297.04355C128.52641 295.3867 129.86957 294.04355 131.52641 294.04355C133.18327 294.04355 134.52641 295.3867 134.52641 297.04355Z" fill-rule="nonzero"/><path fill="#000000" fill-opacity="0.0" clip-path="url(#id_0)" d="M148.66066 295.7651C148.66066 297.42197 147.31752 298.7651 145.66066 298.7651C144.0038 298.7651 142.66066 297.42197 142.66066 295.7651C142.66066 294.10825 144.0038 292.7651 145.66066 292.7651C147.31752 292.7651 148.66066 294.10825 148.66066 295.7651Z" fill-rule="nonzero"/><path fill="#000000" fill-opacity="0.0" clip-path="url(#id_0)" d="M159.62402 295.17105C159.62402 296.8279 158.28088 298.17105 156.62402 298.17105C154.96718 298.17105 153.62402 296.8279 153.62402 295.17105C153.62402 293.5142 154.96718 292.17105 156.62402 292.17105C158.28088 292.17105 159.62402 293.5142 159.62402 295.17105Z" fill-rule="nonzero"/><path fill="#000000" fill-opacity="0.0" clip-path="url(#id_0)" d="M168.58176 295.8598C168.58176 297.51666 167.2386 298.8598 165.58176 298.8598C163.9249 298.8598 162.58176 297.51666 162.58176 295.8598C162.58176 294.20294 163.9249 292.8598 165.58176 292.8598C167.2386 292.8598 168.58176 294.20294 168.58176 295.8598Z" fill-rule="nonzero"/><path fill="#000000" fill-opacity="0.0" clip-path="url(#id_0)" d="M176.1554 295.5507C176.1554 297.20755 174.81226 298.5507 173.1554 298.5507C171.49855 298.5507 170.1554 297.20755 170.1554 295.5507C170.1554 293.89383 171.49855 292.5507 173.1554 292.5507C174.81226 292.5507 176.1554 293.89383 176.1554 295.5507Z" fill-rule="nonzero"/><path fill="#000000" fill-opacity="0.0" clip-path="url(#id_0)" d="M182.71599 295.08C182.71599 296.73682 181.37285 298.08 179.71599 298.08C178.05913 298.08 176.71599 296.73682 176.71599 295.08C176.71599 293.42313 178.05913 292.08 179.71599 292.08C181.37285 292.08 182.71599 293.42313 182.71599 295.08Z" fill-rule="nonzero"/><path fill="#000000" fill-opacity="0.0" clip-path="url(#id_0)" d="M188.50284 295.74194C188.50284 297.3988 187.1597 298.74194 185.50284 298.74194C183.846 298.74194 182.50284 297.3988 182.50284 295.74194C182.50284 294.08508 183.846 292.74194 185.50284 292.74194C187.1597 292.74194 188.50284 294.08508 188.50284 295.74194Z" fill-rule="nonzero"/><path fill="#000000" fill-opacity="0.0" clip-path="url(#id_0)" d="M193.67935 296.84744C193.67935 298.5043 192.33621 299.84744 190.67935 299.84744C189.0225 299.84744 187.67935 298.5043 187.67935 296.84744C187.67935 295.19058 189.0225 293.84744 190.67935 293.84744C192.33621 293.84744 193.67935 295.19058 193.67935 296.84744Z" fill-rule="nonzero"/><path fill="#000000" fill-opacity="0.0" clip-path="url(#id_0)" d="M198.36209 296.11395C198.36209 297.7708 197.01894 299.11395 195.36209 299.11395C193.70523 299.11395 192.36209 297.7708 192.36209 296.11395C192.36209 294.45712 193.70523 293.11395 195.36209 293.11395C197.01894 293.11395 198.36209 294.45712 198.36209 296.11395Z" fill-rule="nonzero"/><path fill="#000000" fill-opacity="0.0" clip-path="url(#id_0)" d="M202.63708 295.2342C202.63708 296.89105 201.29393 298.2342 199.63708 298.2342C197.98022 298.2342 196.63708 296.89105 196.63708 295.2342C196.63708 293.57736 197.98022 292.2342 199.63708 292.2342C201.29393 292.2342 202.63708 293.57736 202.63708 295.2342Z" fill-rule="nonzero"/><path fill="#000000" fill-opacity="0.0" clip-path="url(#id_0)" d="M206.5697 295.16385C206.5697 296.8207 205.22655 298.16385 203.5697 298.16385C201.91284 298.16385 200.5697 296.8207 200.5697 295.16385C200.5697 293.507 201.91284 292.16385 203.5697 292.16385C205.22655 292.16385 206.5697 293.507 206.5697 295.16385Z" fill-rule="nonzero"/><path fill="#000000" fill-opacity="0.0" clip-path="url(#id_0)" d="M210.21072 294.8935C210.21072 296.55035 208.86758 297.8935 207.21072 297.8935C205.55388 297.8935 204.21072 296.55035 204.21072 294.8935C204.21072 293.23663 205.55388 291.8935 207.21072 291.8935C208.86758 291.8935 210.21072 293.23663 210.21072 294.8935Z" fill-rule="nonzero"/><path fill="#000000" fill-opacity="0.0" clip-path="url(#id_0)" d="M213.60045 293.634C213.60045 295.29083 212.25731 296.634 210.60045 296.634C208.94359 296.634 207.60045 295.29083 207.60045 293.634C207.60045 291.97714 208.94359 290.634 210.60045 290.634C212.25731 290.634 213.60045 291.97714 213.60045 293.634Z" fill-rule="nonzero"/><path fill="#000000" fill-opacity="0.0" clip-path="url(#id_0)" d="M216.77132 293.634C216.77132 295.29083 215.42818 296.634 213.77132 296.634C212.11447 296.634 210.77132 295.29083 210.77132 293.634C210.77132 291.97714 212.11447 290.634 213.77132 290.634C215.42818 290.634 216.77132 291.97714 216.77132 293.634Z" fill-rule="nonzero"/><path fill="#000000" fill-opacity="0.0" clip-path="url(#id_0)" d="M219.7499 293.673C219.7499 295.32986 218.40675 296.673 216.7499 296.673C215.09305 296.673 213.7499 295.32986 213.7499 293.673C213.7499 292.01617 215.09305 290.673 216.7499 290.673C218.40675 290.673 219.7499 292.01617 219.7499 293.673Z" fill-rule="nonzero"/><path fill="#000000" fill-opacity="0.0" clip-path="url(#id_0)" d="M222.55817 293.94595C222.55817 295.6028 221.21503 296.94595 219.55817 296.94595C217.90132 296.94595 216.55817 295.6028 216.55817 293.94595C216.55817 292.2891 217.90132 290.94595 219.55817 290.94595C221.21503 290.94595 222.55817 292.2891 222.55817 293.94595Z" fill-rule="nonzero"/><path fill="#000000" fill-opacity="0.0" clip-path="url(#id_0)" d="M225.21457 293.45258C225.21457 295.1094 223.87143 296.45258 222.21457 296.45258C220.55772 296.45258 219.21457 295.1094 219.21457 293.45258C219.21457 291.79572 220.55772 290.45258 222.21457 290.45258C223.87143 290.45258 225.21457 291.79572 225.21457 293.45258Z" fill-rule="nonzero"/><path fill="#000000" fill-opacity="0.0" clip-path="url(#id_0)" d="M227.73468 293.74066C227.73468 295.39752 226.39154 296.74066 224.73468 296.74066C223.07784 296.74066 221.73468 295.39752 221.73468 293.74066C221.73468 292.0838 223.07784 290.74066 224.73468 290.74066C226.39154 290.74066 227.73468 292.0838 227.73468 293.74066Z" fill-rule="nonzero"/><path fill="#000000" fill-opacity="0.0" clip-path="url(#id_0)" d="M230.13182 292.21198C230.13182 293.8688 228.78867 295.21198 227.13182 295.21198C225.47496 295.21198 224.13182 293.8688 224.13182 292.21198C224.13182 290.5551 225.47496 289.21198 227.13182 289.21198C228.78867 289.21198 230.13182 290.5551 230.13182 292.21198Z" fill-rule="nonzero"/><path fill="#000000" fill-opacity="0.0" clip-path="url(#id_0)" d="M232.41742 291.95523C232.41742 293.6121 231.07426 294.95523 229.41742 294.95523C227.76056 294.95523 226.41742 293.6121 226.41742 291.95523C226.41742 290.29837 227.76056 288.95523 229.41742 288.95523C231.07426 288.95523 232.41742 290.29837 232.41742 291.95523Z" fill-rule="nonzero"/><path fill="#000000" fill-opacity="0.0" clip-path="url(#id_0)" d="M234.6014 291.7856C234.6014 293.44247 233.25826 294.7856 231.6014 294.7856C229.94453 294.7856 228.6014 293.44247 228.6014 291.7856C228.6014 290.12878 229.94453 288.7856 231.6014 288.7856C233.25826 288.7856 234.6014 290.12878 234.6014 291.7856Z" fill-rule="nonzero"/><path fill="#000000" fill-opacity="0.0" clip-path="url(#id_0)" d="M236.69241 292.37378C236.69241 294.0306 235.34926 295.37378 233.69241 295.37378C232.03555 295.37378 230.69241 294.0306 230.69241 292.37378C230.69241 290.71692 232.03555 289.37378 233.69241 289.37378C235.34926 289.37378 236.69241 290.71692 236.69241 292.37378Z" fill-rule="nonzero"/><path fill="#000000" fill-opacity="0.0" clip-path="url(#id_0)" d="M238.69806 290.09167C238.69806 291.74854 237.3549 293.09167 235.69806 293.09167C234.0412 293.09167 232.69806 291.74854 232.69806 290.09167C232.69806 288.43484 234.0412 287.09167 235.69806 287.09167C237.3549 287.09167 238.69806 288.43484 238.69806 290.09167Z" fill-rule="nonzero"/><path fill="#000000" fill-opacity="0.0" clip-path="url(#id_0)" d="M240.62503 290.93564C240.62503 292.5925 239.28188 293.93564 237.62503 293.93564C235.96817 293.93564 234.62503 292.5925 234.62503 290.93564C234.62503 289.2788 235.96817 287.93564 237.62503 287.93564C239.28188 287.93564 240.62503 289.2788 240.62503 290.93564Z" fill-rule="nonzero"/><path fill="#000000" fill-opacity="0.0" clip-path="url(#id_0)" d="M242.47926 290.08298C242.47926 291.73984 241.13611 293.08298 239.47926 293.08298C237.8224 293.08298 236.47926 291.73984 236.47926 290.08298C236.47926 288.42612 237.8224 287.08298 239.47926 287.08298C241.13611 287.08298 242.47926 288.42612 242.47926 290.08298Z" fill-rule="nonzero"/><path fill="#000000" fill-opacity="0.0" clip-path="url(#id_0)" d="M244.26605 290.82782C244.26605 292.48468 242.92291 293.82782 241.26605 293.82782C239.6092 293.82782 238.26605 292.48468 238.26605 290.82782C238.26605 289.17096 239.6092 287.82782 241.26605 287.82782C242.92291 287.82782 244.26605 289.17096 244.26605 290.82782Z" fill-rule="nonzero"/><path fill="#000000" fill-opacity="0.0" clip-path="url(#id_0)" d="M245.99014 290.85992C245.99014 292.51678 244.647 293.85992 242.99014 293.85992C241.3333 293.85992 239.99014 292.51678 239.99014 290.85992C239.99014 289.20306 241.3333 287.85992 242.99014 287.85992C244.647 287.85992 245.99014 289.20306 245.99014 290.85992Z" fill-rule="nonzero"/><path fill="#000000" fill-opacity="0.0" clip-path="url(#id_0)" d="M247.65578 289.93997C247.65578 291.5968 246.31264 292.93997 244.65578 292.93997C242.99892 292.93997 241.65578 291.5968 241.65578 289.93997C241.65578 288.2831 242.99892 286.93997 244.65578 286.93997C246.31264 286.93997 247.65578 288.2831 247.65578 289.93997Z" fill-rule="nonzero"/><path fill="#000000" fill-opacity="0.0" clip-path="url(#id_0)" d="M249.26678 290.88174C249.26678 292.5386 247.92365 293.88174 246.26678 293.88174C244.60994 293.88174 243.26678 292.5386 243.26678 290.88174C243.26678 289.2249 244.60994 287.88174 246.26678 287.88174C247.92365 287.88174 249.26678 289.2249 249.26678 290.88174Z" fill-rule="nonzero"/><path fill="#000000" fill-opacity="0.0" clip-path="url(#id_0)" d="M250.82664 291.15845C250.82664 292.8153 249.4835 294.15845 247.82664 294.15845C246.1698 294.15845 244.82664 292.8153 244.82664 291.15845C244.82664 289.5016 246.1698 288.15845 247.82664 288.15845C249.4835 288.15845 250.82664 289.5016 250.82664 291.15845Z" fill-rule="nonzero"/><path fill="#000000" fill-opacity="0.0" clip-path="url(#id_0)" d="M252.3385 287.02777C252.3385 288.68463 250.99536 290.02777 249.3385 290.02777C247.68166 290.02777 246.3385 288.68463 246.3385 287.02777C246.3385 285.3709 247.68166 284.02777 249.3385 284.02777C250.99536 284.02777 252.3385 285.3709 252.3385 287.02777Z" fill-rule="nonzero"/><path fill="#000000" fill-opacity="0.0" clip-path="url(#id_0)" d="M253.80522 286.1997C253.80522 287.85657 252.46208 289.1997 250.80522 289.1997C249.14838 289.1997 247.80522 287.85657 247.80522 286.1997C247.80522 284.54285 249.14838 283.1997 250.80522 283.1997C252.46208 283.1997 253.80522 284.54285 253.80522 286.1997Z" fill-rule="nonzero"/><path fill="#000000" fill-opacity="0.0" clip-path="url(#id_0)" d="M255.22943 287.63422C255.22943 289.29108 253.88628 290.63422 252.22943 290.63422C250.57257 290.63422 249.22943 289.29108 249.22943 287.63422C249.22943 285.97736 250.57257 284.63422 252.22943 284.63422C253.88628 284.63422 255.22943 285.97736 255.22943 287.63422Z" fill-rule="nonzero"/><path fill="#000000" fill-opacity="0.0" clip-path="url(#id_0)" d="M265.34323 285.6793C265.34323 287.33615 264.0001 288.6793 262.34323 288.6793C260.68637 288.6793 259.34323 287.33615 259.34323 285.6793C259.34323 284.02243 260.68637 282.6793 262.34323 282.6793C264.0001 282.6793 265.34323 284.02243 265.34323 285.6793Z" fill-rule="nonzero"/><path fill="#000000" fill-opacity="0.0" clip-path="url(#id_0)" d="M271.7608 283.46045C271.7608 285.1173 270.41766 286.46045 268.7608 286.46045C267.10394 286.46045 265.7608 285.1173 265.7608 283.46045C265.7608 281.8036 267.10394 280.46045 268.7608 280.46045C270.41766 280.46045 271.7608 281.8036 271.7608 283.46045Z" fill-rule="nonzero"/><path fill="#000000" fill-opacity="0.0" clip-path="url(#id_0)" d="M272.7534 282.71573C272.7534 284.3726 271.41025 285.71573 269.7534 285.71573C268.09653 285.71573 266.7534 284.3726 266.7534 282.71573C266.7534 281.05887 268.09653 279.71573 269.7534 279.71573C271.41025 279.71573 272.7534 281.05887 272.7534 282.71573Z" fill-rule="nonzero"/><path fill="#000000" fill-opacity="0.0" clip-path="url(#id_0)" d="M273.72632 284.51C273.72632 286.16687 272.38318 287.51 270.72632 287.51C269.06946 287.51 267.72632 286.16687 267.72632 284.51C267.72632 282.85318 269.06946 281.51 270.72632 281.51C272.38318 281.51 273.72632 282.85318 273.72632 284.51Z" fill-rule="nonzero"/><path fill="#000000" fill-opacity="0.0" clip-path="url(#id_0)" d="M274.68036 283.7805C274.68036 285.43732 273.33722 286.7805 271.68036 286.7805C270.0235 286.7805 268.68036 285.43732 268.68036 283.7805C268.68036 282.12363 270.0235 280.7805 271.68036 280.7805C273.33722 280.7805 274.68036 282.12363 274.68036 283.7805Z" fill-rule="nonzero"/><path fill="#000000" fill-opacity="0.0" clip-path="url(#id_0)" d="M275.6162 282.6976C275.6162 284.35446 274.27307 285.6976 272.6162 285.6976C270.95935 285.6976 269.6162 284.35446 269.6162 282.6976C269.6162 281.04077 270.95935 279.6976 272.6162 279.6976C274.27307 279.6976 275.6162 281.04077 275.6162 282.6976Z" fill-rule="nonzero"/><path fill="#000000" fill-opacity="0.0" clip-path="url(#id_0)" d="M280.88535 278.79416C280.88535 280.45102 279.5422 281.79416 277.88535 281.79416C276.2285 281.79416 274.88535 280.45102 274.88535 278.79416C274.88535 277.1373 276.2285 275.79416 277.88535 275.79416C279.5422 275.79416 280.88535 277.1373 280.88535 278.79416Z" fill-rule="nonzero"/><path fill="#000000" fill-opacity="0.0" clip-path="url(#id_0)" d="M281.71112 284.15982C281.71112 285.81668 280.36795 287.15982 278.71112 287.15982C277.05426 287.15982 275.71112 285.81668 275.71112 284.15982C275.71112 282.50296 277.05426 281.15982 278.71112 281.15982C280.36795 281.15982 281.71112 282.50296 281.71112 284.15982Z" fill-rule="nonzero"/><path fill="#000000" fill-opacity="0.0" clip-path="url(#id_0)" d="M282.52322 280.14227C282.52322 281.79913 281.18008 283.14227 279.52322 283.14227C277.86636 283.14227 276.52322 281.79913 276.52322 280.14227C276.52322 278.48544 277.86636 277.14227 279.52322 277.14227C281.18008 277.14227 282.52322 278.48544 282.52322 280.14227Z" fill-rule="nonzero"/><path fill="#000000" fill-opacity="0.0" clip-path="url(#id_0)" d="M283.3221 282.43253C283.3221 284.0894 281.97897 285.43253 280.3221 285.43253C278.66525 285.43253 277.3221 284.0894 277.3221 282.43253C277.3221 280.77567 278.66525 279.43253 280.3221 279.43253C281.97897 279.43253 283.3221 280.77567 283.3221 282.43253Z" fill-rule="nonzero"/><path fill="#000000" fill-opacity="0.0" clip-path="url(#id_0)" d="M284.10825 281.53082C284.10825 283.18768 282.7651 284.53082 281.10825 284.53082C279.4514 284.53082 278.10825 283.18768 278.10825 281.53082C278.10825 279.87396 279.4514 278.53082 281.10825 278.53082C282.7651 278.53082 284.10825 279.87396 284.10825 281.53082Z" fill-rule="nonzero"/><path fill="#000000" fill-opacity="0.0" clip-path="url(#id_0)" d="M284.882 282.80243C284.882 284.4593 283.53882 285.80243 281.882 285.80243C280.22513 285.80243 278.882 284.4593 278.882 282.80243C278.882 281.14557 280.22513 279.80243 281.882 279.80243C283.53882 279.80243 284.882 281.14557 284.882 282.80243Z" fill-rule="nonzero"/><path fill="#000000" fill-opacity="0.0" clip-path="url(#id_0)" d="M285.6437 275.42856C285.6437 277.08542 284.30057 278.42856 282.6437 278.42856C280.98688 278.42856 279.6437 277.08542 279.6437 275.42856C279.6437 273.7717 280.98688 272.42856 282.6437 272.42856C284.30057 272.42856 285.6437 273.7717 285.6437 275.42856Z" fill-rule="nonzero"/><path fill="#000000" fill-opacity="0.0" clip-path="url(#id_0)" d="M286.39383 275.42856C286.39383 277.08542 285.0507 278.42856 283.39383 278.42856C281.73697 278.42856 280.39383 277.08542 280.39383 275.42856C280.39383 273.7717 281.73697 272.42856 283.39383 272.42856C285.0507 272.42856 286.39383 273.7717 286.39383 275.42856Z" fill-rule="nonzero"/><path fill="#000000" fill-opacity="0.0" clip-path="url(#id_0)" d="M287.13266 280.94287C287.13266 282.59973 285.78952 283.94287 284.13266 283.94287C282.4758 283.94287 281.13266 282.59973 281.13266 280.94287C281.13266 279.286 282.4758 277.94287 284.13266 277.94287C285.78952 277.94287 287.13266 279.286 287.13266 280.94287Z" fill-rule="nonzero"/><path fill="#000000" fill-opacity="0.0" clip-path="url(#id_0)" d="M295.22733 276.1924C295.22733 277.84927 293.8842 279.1924 292.22733 279.1924C290.57047 279.1924 289.22733 277.84927 289.22733 276.1924C289.22733 274.53555 290.57047 273.1924 292.22733 273.1924C293.8842 273.1924 295.22733 274.53555 295.22733 276.1924Z" fill-rule="nonzero"/><path fill="#000000" fill-opacity="0.0" clip-path="url(#id_0)" d="M318.55197 266.58453C318.55197 268.24136 317.2088 269.58453 315.55197 269.58453C313.8951 269.58453 312.55197 268.24136 312.55197 266.58453C312.55197 264.92767 313.8951 263.58453 315.55197 263.58453C317.2088 263.58453 318.55197 264.92767 318.55197 266.58453Z" fill-rule="nonzero"/><path fill="#000000" fill-opacity="0.0" clip-path="url(#id_0)" d="M318.93732 266.46445C318.93732 268.12128 317.59418 269.46445 315.93732 269.46445C314.28046 269.46445 312.93732 268.12128 312.93732 266.46445C312.93732 264.8076 314.28046 263.46445 315.93732 263.46445C317.59418 263.46445 318.93732 264.8076 318.93732 266.46445Z" fill-rule="nonzero"/><path fill="#000000" fill-opacity="0.0" clip-path="url(#id_0)" d="M319.31964 255.25389C319.31964 256.91074 317.9765 258.2539 316.31964 258.2539C314.6628 258.2539 313.31964 256.91074 313.31964 255.25389C313.31964 253.59705 314.6628 252.25389 316.31964 252.25389C317.9765 252.25389 319.31964 253.59705 319.31964 255.25389Z" fill-rule="nonzero"/><path fill="#000000" fill-opacity="0.0" clip-path="url(#id_0)" d="M319.69907 264.66528C319.69907 266.32214 318.3559 267.66528 316.69907 267.66528C315.0422 267.66528 313.69907 266.32214 313.69907 264.66528C313.69907 263.00842 315.0422 261.66528 316.69907 261.66528C318.3559 261.66528 319.69907 263.00842 319.69907 264.66528Z" fill-rule="nonzero"/><path fill="#000000" fill-opacity="0.0" clip-path="url(#id_0)" d="M320.07553 258.8389C320.07553 260.49573 318.7324 261.8389 317.07553 261.8389C315.41867 261.8389 314.07553 260.49573 314.07553 258.8389C314.07553 257.18204 315.41867 255.83888 317.07553 255.83888C318.7324 255.83888 320.07553 257.18204 320.07553 258.8389Z" fill-rule="nonzero"/><path fill="#000000" fill-opacity="0.0" clip-path="url(#id_0)" d="M320.44916 262.61163C320.44916 264.2685 319.10602 265.61163 317.44916 265.61163C315.7923 265.61163 314.44916 264.2685 314.44916 262.61163C314.44916 260.95477 315.7923 259.61163 317.44916 259.61163C319.10602 259.61163 320.44916 260.95477 320.44916 262.61163Z" fill-rule="nonzero"/><path fill="#000000" fill-opacity="0.0" clip-path="url(#id_0)" d="M320.81998 258.26953C320.81998 259.9264 319.47684 261.26953 317.81998 261.26953C316.16312 261.26953 314.81998 259.9264 314.81998 258.26953C314.81998 256.61267 316.16312 255.26953 317.81998 255.26953C319.47684 255.26953 320.81998 256.61267 320.81998 258.26953Z" fill-rule="nonzero"/><path fill="#000000" fill-opacity="0.0" clip-path="url(#id_0)" d="M340.1215 239.09782C340.1215 240.75468 338.77835 242.09782 337.1215 242.09782C335.46463 242.09782 334.1215 240.75468 334.1215 239.09782C334.1215 237.44096 335.46463 236.09782 337.1215 236.09782C338.77835 236.09782 340.1215 237.44096 340.1215 239.09782Z" fill-rule="nonzero"/><path fill="#000000" fill-opacity="0.0" clip-path="url(#id_0)" d="M352.99265 236.09569C352.99265 237.75255 351.6495 239.09569 349.99265 239.09569C348.3358 239.09569 346.99265 237.75255 346.99265 236.09569C346.99265 234.43884 348.3358 233.09569 349.99265 233.09569C351.6495 233.09569 352.99265 234.43884 352.99265 236.09569Z" fill-rule="nonzero"/><path fill="#000000" fill-opacity="0.0" clip-path="url(#id_0)" d="M357.57056 217.10753C357.57056 218.76437 356.22742 220.10753 354.57056 220.10753C352.91373 220.10753 351.57056 218.76437 351.57056 217.10753C351.57056 215.45067 352.91373 214.10753 354.57056 214.10753C356.22742 214.10753 357.57056 215.45067 357.57056 217.10753Z" fill-rule="nonzero"/><path fill="#000000" fill-opacity="0.0" clip-path="url(#id_0)" d="M387.04797 197.0106C387.04797 198.66745 385.70483 200.0106 384.04797 200.0106C382.3911 200.0106 381.04797 198.66745 381.04797 197.0106C381.04797 195.35374 382.3911 194.0106 384.04797 194.0106C385.70483 194.0106 387.04797 195.35374 387.04797 197.0106Z" fill-rule="nonzero"/><path fill="#000000" fill-opacity="0.0" clip-path="url(#id_0)" d="M395.89362 172.75172C395.89362 174.40857 394.55048 175.75172 392.89362 175.75172C391.23676 175.75172 389.89362 174.40857 389.89362 172.75172C389.89362 171.09486 391.23676 169.75172 392.89362 169.75172C394.55048 169.75172 395.89362 171.09486 395.89362 172.75172Z" fill-rule="nonzero"/><path fill="#000000" fill-opacity="0.0" clip-path="url(#id_0)" d="M421.1033 147.3349C421.1033 148.99174 419.76016 150.3349 418.1033 150.3349C416.44644 150.3349 415.1033 148.99174 415.1033 147.3349C415.1033 145.67804 416.44644 144.3349 418.1033 144.3349C419.76016 144.3349 421.1033 145.67804 421.1033 147.3349Z" fill-rule="nonzero"/><path fill="#000000" fill-opacity="0.0" clip-path="url(#id_0)" d="M442.38092 156.8387C442.38092 158.49554 441.03778 159.8387 439.38092 159.8387C437.72406 159.8387 436.38092 158.49554 436.38092 156.8387C436.38092 155.18184 437.72406 153.8387 439.38092 153.8387C441.03778 153.8387 442.38092 155.18184 442.38092 156.8387Z" fill-rule="nonzero"/><path fill="#000000" fill-opacity="0.0" clip-path="url(#id_0)" d="M455.15863 133.90459C455.15863 135.56143 453.8155 136.90459 452.15863 136.90459C450.50177 136.90459 449.15863 135.56143 449.15863 133.90459C449.15863 132.24773 450.50177 130.90459 452.15863 130.90459C453.8155 130.90459 455.15863 132.24773 455.15863 133.90459Z" fill-rule="nonzero"/><path fill="#000000" fill-opacity="0.0" clip-path="url(#id_0)" d="M472.198 135.39159C472.198 137.04845 470.85486 138.39159 469.198 138.39159C467.54114 138.39159 466.198 137.04845 466.198 135.39159C466.198 133.73473 467.54114 132.39159 469.198 132.39159C470.85486 132.39159 472.198 133.73473 472.198 135.39159Z" fill-rule="nonzero"/><path fill="#000000" fill-opacity="0.0" clip-path="url(#id_0)" d="M489.21396 122.75878C489.21396 124.41564 487.87082 125.75878 486.21396 125.75878C484.5571 125.75878 483.21396 124.41564 483.21396 122.75878C483.21396 121.10193 484.5571 119.75878 486.21396 119.75878C487.87082 119.75878 489.21396 121.10193 489.21396 122.75878Z" fill-rule="nonzero"/><path fill="#000000" fill-opacity="0.0" clip-path="url(#id_0)" d="M499.80164 125.77184C499.80164 127.428696 498.4585 128.77184 496.80164 128.77184C495.1448 128.77184 493.80164 127.428696 493.80164 125.77184C493.80164 124.11499 495.1448 122.77184 496.80164 122.77184C498.4585 122.77184 499.80164 124.11499 499.80164 125.77184Z" fill-rule="nonzero"/><path fill="#000000" fill-opacity="0.0" clip-path="url(#id_0)" d="M523.2693 121.24522C523.2693 122.90207 521.92615 124.24522 520.2693 124.24522C518.6124 124.24522 517.2693 122.90207 517.2693 121.24522C517.2693 119.588356 518.6124 118.24522 520.2693 118.24522C521.92615 118.24522 523.2693 119.588356 523.2693 121.24522Z" fill-rule="nonzero"/><path fill="#000000" fill-opacity="0.0" clip-path="url(#id_0)" d="M528.45 124.800285C528.45 126.45714 527.1069 127.800285 525.45 127.800285C523.79315 127.800285 522.45 126.45714 522.45 124.800285C522.45 123.14343 523.79315 121.800285 525.45 121.800285C527.1069 121.800285 528.45 123.14343 528.45 124.800285Z" fill-rule="nonzero"/><path fill="#000000" d="M270.54688 346.6844L271.60938 346.59064Q271.6875 347.2469 271.96875 347.65314Q272.25 348.0594 272.82812 348.325Q273.42188 348.575 274.15625 348.575Q274.79688 348.575 275.29688 348.3875Q275.79688 348.1844 276.03125 347.85626Q276.28125 347.5125 276.28125 347.1219Q276.28125 346.71564 276.04688 346.41876Q275.8125 346.10626 275.28125 345.90314Q274.92188 345.7625 273.73438 345.48126Q272.5625 345.2 272.09375 344.95Q271.46875 344.6219 271.17188 344.15314Q270.875 343.66876 270.875 343.075Q270.875 342.4344 271.23438 341.8719Q271.60938 341.29376 272.3125 341.0125Q273.03125 340.71564 273.89062 340.71564Q274.84375 340.71564 275.57812 341.02814Q276.3125 341.325 276.70312 341.9344Q277.09375 342.52814 277.125 343.27814L276.03125 343.35626Q275.9375 342.54376 275.42188 342.1375Q274.92188 341.71564 273.9375 341.71564Q272.90625 341.71564 272.4375 342.09064Q271.96875 342.46564 271.96875 342.9969Q271.96875 343.46564 272.29688 343.7625Q272.625 344.0594 274.0 344.3719Q275.39062 344.6844 275.90625 344.91876Q276.65625 345.27814 277.01562 345.8094Q277.375 346.325 277.375 347.02814Q277.375 347.71564 276.98438 348.325Q276.59375 348.91876 275.85938 349.2625Q275.125 349.59064 274.20312 349.59064Q273.03125 349.59064 272.23438 349.2625Q271.45312 348.91876 271.0 348.23126Q270.5625 347.54376 270.54688 346.6844ZM278.79688 342.075L278.79688 340.85626L279.85938 340.85626L279.85938 342.075L278.79688 342.075ZM278.79688 349.45L278.79688 343.23126L279.85938 343.23126L279.85938 349.45L278.79688 349.45ZM281.23438 349.45L281.23438 348.59064L285.20312 344.04376Q284.51562 344.075 284.0 344.075L281.46875 344.075L281.46875 343.23126L286.5625 343.23126L286.5625 343.91876L283.1875 347.8719L282.53125 348.59064Q283.25 348.54376 283.85938 348.54376L286.75 348.54376L286.75 349.45L281.23438 349.45ZM291.04688 347.45L292.14062 347.575Q291.89062 348.52814 291.1875 349.0594Q290.48438 349.59064 289.40625 349.59064Q288.04688 349.59064 287.23438 348.7469Q286.4375 347.90314 286.4375 346.3875Q286.4375 344.825 287.25 343.96564Q288.0625 343.09064 289.34375 343.09064Q290.59375 343.09064 291.375 343.9344Q292.17188 344.77814 292.17188 346.325Q292.17188 346.41876 292.17188 346.60626L287.53125 346.60626Q287.59375 347.6375 288.10938 348.1844Q288.625 348.71564 289.40625 348.71564Q289.98438 348.71564 290.39062 348.41876Q290.8125 348.10626 291.04688 347.45ZM287.59375 345.7469L291.0625 345.7469Q291.0 344.95 290.67188 344.5594Q290.15625 343.95 289.35938 343.95Q288.625 343.95 288.125 344.4344Q287.64062 344.91876 287.59375 345.7469ZM298.8125 351.98126Q297.9375 350.8719 297.32812 349.40314Q296.73438 347.91876 296.73438 346.34064Q296.73438 344.95 297.17188 343.66876Q297.70312 342.1844 298.8125 340.71564L299.5625 340.71564Q298.85938 341.9344 298.625 342.45Q298.26562 343.2625 298.0625 344.1375Q297.8125 345.23126 297.8125 346.34064Q297.8125 349.16876 299.5625 351.98126L298.8125 351.98126ZM301.76562 349.45L300.78125 349.45L300.78125 340.85626L301.84375 340.85626L301.84375 343.91876Q302.51562 343.09064 303.54688 343.09064Q304.125 343.09064 304.625 343.325Q305.14062 343.54376 305.46875 343.96564Q305.8125 344.3875 306.0 344.98126Q306.1875 345.575 306.1875 346.2469Q306.1875 347.84064 305.39062 348.71564Q304.59375 349.59064 303.5 349.59064Q302.39062 349.59064 301.76562 348.66876L301.76562 349.45ZM301.75 346.29376Q301.75 347.40314 302.0625 347.90314Q302.5625 348.71564 303.40625 348.71564Q304.09375 348.71564 304.59375 348.1219Q305.10938 347.52814 305.10938 346.325Q305.10938 345.10626 304.625 344.52814Q304.14062 343.95 303.45312 343.95Q302.76562 343.95 302.25 344.5594Q301.75 345.15314 301.75 346.29376ZM307.75 351.84064L307.625 350.85626Q307.96875 350.95 308.23438 350.95Q308.57812 350.95 308.78125 350.825Q309.0 350.71564 309.14062 350.5125Q309.23438 350.34064 309.46875 349.71564Q309.48438 349.6375 309.5625 349.46564L307.1875 343.23126L308.32812 343.23126L309.625 346.825Q309.875 347.5125 310.07812 348.27814Q310.26562 347.54376 310.51562 346.85626L311.84375 343.23126L312.89062 343.23126L310.53125 349.5594Q310.14062 350.575 309.9375 350.96564Q309.65625 351.4969 309.28125 351.73126Q308.92188 351.98126 308.42188 351.98126Q308.125 351.98126 307.75 351.84064ZM315.09375 348.5125L315.25 349.4344Q314.79688 349.52814 314.45312 349.52814Q313.875 349.52814 313.5625 349.35626Q313.25 349.16876 313.10938 348.8719Q312.98438 348.575 312.98438 347.6219L312.98438 344.04376L312.21875 344.04376L312.21875 343.23126L312.98438 343.23126L312.98438 341.6844L314.03125 341.0594L314.03125 343.23126L315.09375 343.23126L315.09375 344.04376L314.03125 344.04376L314.03125 347.6844Q314.03125 348.1375 314.07812 348.2625Q314.14062 348.3875 314.26562 348.46564Q314.39062 348.54376 314.625 348.54376Q314.8125 348.54376 315.09375 348.5125ZM320.04688 347.45L321.14062 347.575Q320.89062 348.52814 320.1875 349.0594Q319.48438 349.59064 318.40625 349.59064Q317.04688 349.59064 316.23438 348.7469Q315.4375 347.90314 315.4375 346.3875Q315.4375 344.825 316.25 343.96564Q317.0625 343.09064 318.34375 343.09064Q319.59375 343.09064 320.375 343.9344Q321.17188 344.77814 321.17188 346.325Q321.17188 346.41876 321.17188 346.60626L316.53125 346.60626Q316.59375 347.6375 317.10938 348.1844Q317.625 348.71564 318.40625 348.71564Q318.98438 348.71564 319.39062 348.41876Q319.8125 348.10626 320.04688 347.45ZM316.59375 345.7469L320.0625 345.7469Q320.0 344.95 319.67188 344.5594Q319.15625 343.95 318.35938 343.95Q317.625 343.95 317.125 344.4344Q316.64062 344.91876 316.59375 345.7469ZM322.375 347.59064L323.40625 347.4344Q323.5 348.0594 323.89062 348.3875Q324.29688 348.71564 325.03125 348.71564Q325.75 348.71564 326.09375 348.4344Q326.45312 348.1375 326.45312 347.73126Q326.45312 347.3719 326.14062 347.16876Q325.92188 347.02814 325.0625 346.8094Q323.90625 346.5125 323.45312 346.3094Q323.01562 346.09064 322.78125 345.71564Q322.54688 345.34064 322.54688 344.8719Q322.54688 344.46564 322.73438 344.10626Q322.92188 343.7469 323.25 343.5125Q323.5 343.34064 323.92188 343.21564Q324.34375 343.09064 324.84375 343.09064Q325.5625 343.09064 326.10938 343.3094Q326.67188 343.5125 326.9375 343.8719Q327.20312 344.23126 327.29688 344.825L326.26562 344.96564Q326.20312 344.4969 325.85938 344.23126Q325.53125 343.95 324.90625 343.95Q324.1875 343.95 323.875 344.2Q323.5625 344.4344 323.5625 344.7625Q323.5625 344.96564 323.6875 345.1219Q323.82812 345.29376 324.09375 345.40314Q324.25 345.46564 325.03125 345.66876Q326.15625 345.98126 326.59375 346.16876Q327.03125 346.35626 327.28125 346.71564Q327.53125 347.075 327.53125 347.6219Q327.53125 348.15314 327.21875 348.6219Q326.92188 349.075 326.34375 349.34064Q325.76562 349.59064 325.03125 349.59064Q323.8125 349.59064 323.17188 349.09064Q322.54688 348.575 322.375 347.59064ZM330.48438 351.98126L329.73438 351.98126Q331.48438 349.16876 331.48438 346.34064Q331.48438 345.2469 331.23438 344.15314Q331.03125 343.27814 330.67188 342.46564Q330.4375 341.95 329.73438 340.71564L330.48438 340.71564Q331.57812 342.1844 332.10938 343.66876Q332.5625 344.95 332.5625 346.34064Q332.5625 347.91876 331.95312 349.40314Q331.34375 350.8719 330.48438 351.98126Z" fill-rule="nonzero"/><path fill="#000000" d="M26.784388 252.13646L26.690638 251.07396Q27.346888 250.99583 27.753138 250.71458Q28.159388 250.43333 28.425013 249.85521Q28.675013 249.26146 28.675013 248.52708Q28.675013 247.88646 28.487513 247.38646Q28.284388 246.88646 27.956263 246.65208Q27.612513 246.40208 27.221888 246.40208Q26.815638 246.40208 26.518763 246.63646Q26.206263 246.87083 26.003138 247.40208Q25.862513 247.76146 25.581263 248.94896Q25.300013 250.12083 25.050013 250.58958Q24.721888 251.21458 24.253138 251.51146Q23.768763 251.80833 23.175013 251.80833Q22.534388 251.80833 21.971888 251.44896Q21.393763 251.07396 21.112513 250.37083Q20.815638 249.65208 20.815638 248.79271Q20.815638 247.83958 21.128138 247.10521Q21.425013 246.37083 22.034388 245.98021Q22.628138 245.58958 23.378138 245.55833L23.456263 246.65208Q22.643763 246.74583 22.237513 247.26146Q21.815638 247.76146 21.815638 248.74583Q21.815638 249.77708 22.190638 250.24583Q22.565638 250.71458 23.096888 250.71458Q23.565638 250.71458 23.862513 250.38646Q24.159388 250.05833 24.471888 248.68333Q24.784388 247.29271 25.018763 246.77708Q25.378138 246.02708 25.909388 245.66771Q26.425013 245.30833 27.128138 245.30833Q27.815638 245.30833 28.425013 245.69896Q29.018763 246.08958 29.362513 246.82396Q29.690638 247.55833 29.690638 248.48021Q29.690638 249.65208 29.362513 250.44896Q29.018763 251.23021 28.331263 251.68333Q27.643763 252.12083 26.784388 252.13646ZM31.940638 243.88646L23.331263 243.88646L23.331263 242.93333L24.128138 242.93333Q23.659388 242.58958 23.425013 242.16771Q23.190638 241.73021 23.190638 241.12083Q23.190638 240.32396 23.596888 239.71458Q24.003138 239.10521 24.753138 238.80833Q25.503138 238.49583 26.393763 238.49583Q27.346888 238.49583 28.112513 238.83958Q28.878138 239.16771 29.284388 239.82396Q29.690638 240.48021 29.690638 241.19896Q29.690638 241.73021 29.471888 242.15208Q29.237513 242.57396 28.909388 242.83958L31.940638 242.83958L31.940638 243.88646ZM26.471888 242.93333Q27.675013 242.93333 28.253138 242.44896Q28.815638 241.96458 28.815638 241.27708Q28.815638 240.57396 28.221888 240.07396Q27.628138 239.57396 26.378138 239.57396Q25.190638 239.57396 24.612513 240.05833Q24.018763 240.54271 24.018763 241.23021Q24.018763 241.90208 24.643763 242.41771Q25.268763 242.93333 26.471888 242.93333ZM27.550013 232.63646L27.675013 231.54271Q28.628138 231.79271 29.159388 232.49583Q29.690638 233.19896 29.690638 234.27708Q29.690638 235.63646 28.846888 236.44896Q28.003138 237.24583 26.487513 237.24583Q24.925013 237.24583 24.065638 236.43333Q23.190638 235.62083 23.190638 234.33958Q23.190638 233.08958 24.034388 232.30833Q24.878138 231.51146 26.425013 231.51146Q26.518763 231.51146 26.706263 231.51146L26.706263 236.15208Q27.737513 236.08958 28.284388 235.57396Q28.815638 235.05833 28.815638 234.27708Q28.815638 233.69896 28.518763 233.29271Q28.206263 232.87083 27.550013 232.63646ZM25.846888 236.08958L25.846888 232.62083Q25.050013 232.68333 24.659388 233.01146Q24.050013 233.52708 24.050013 234.32396Q24.050013 235.05833 24.534388 235.55833Q25.018763 236.04271 25.846888 236.08958ZM27.550013 225.63646L27.675013 224.54271Q28.628138 224.79271 29.159388 225.49583Q29.690638 226.19896 29.690638 227.27708Q29.690638 228.63646 28.846888 229.44896Q28.003138 230.24583 26.487513 230.24583Q24.925013 230.24583 24.065638 229.43333Q23.190638 228.62083 23.190638 227.33958Q23.190638 226.08958 24.034388 225.30833Q24.878138 224.51146 26.425013 224.51146Q26.518763 224.51146 26.706263 224.51146L26.706263 229.15208Q27.737513 229.08958 28.284388 228.57396Q28.815638 228.05833 28.815638 227.27708Q28.815638 226.69896 28.518763 226.29271Q28.206263 225.87083 27.550013 225.63646ZM25.846888 229.08958L25.846888 225.62083Q25.050013 225.68333 24.659388 226.01146Q24.050013 226.52708 24.050013 227.32396Q24.050013 228.05833 24.534388 228.55833Q25.018763 229.04271 25.846888 229.08958ZM29.550013 218.85521L28.768763 218.85521Q29.690638 219.44896 29.690638 220.58958Q29.690638 221.33958 29.284388 221.96458Q28.862513 222.58958 28.128138 222.93333Q27.393763 223.27708 26.440638 223.27708Q25.518763 223.27708 24.753138 222.96458Q23.987513 222.65208 23.596888 222.02708Q23.190638 221.40208 23.190638 220.63646Q23.190638 220.07396 23.425013 219.63646Q23.659388 219.19896 24.034388 218.91771L20.956263 218.91771L20.956263 217.87083L29.550013 217.87083L29.550013 218.85521ZM26.440638 222.18333Q27.643763 222.18333 28.237513 221.68333Q28.815638 221.18333 28.815638 220.49583Q28.815638 219.80833 28.253138 219.32396Q27.690638 218.83958 26.534388 218.83958Q25.253138 218.83958 24.659388 219.33958Q24.065638 219.82396 24.065638 220.54271Q24.065638 221.24583 24.643763 221.71458Q25.206263 222.18333 26.440638 222.18333ZM29.550013 208.80833L28.628138 208.80833Q29.690638 209.54271 29.690638 210.79271Q29.690638 211.33958 29.487513 211.82396Q29.268763 212.29271 28.956263 212.52708Q28.628138 212.76146 28.159388 212.85521Q27.862513 212.91771 27.175013 212.91771L23.331263 212.91771L23.331263 211.85521L26.784388 211.85521Q27.596888 211.85521 27.893763 211.79271Q28.300013 211.69896 28.550013 211.38646Q28.784388 211.05833 28.784388 210.57396Q28.784388 210.10521 28.550013 209.69896Q28.300013 209.27708 27.878138 209.10521Q27.456263 208.91771 26.659388 208.91771L23.331263 208.91771L23.331263 207.87083L29.550013 207.87083L29.550013 208.80833ZM31.940638 205.88646L23.331263 205.88646L23.331263 204.93333L24.128138 204.93333Q23.659388 204.58958 23.425013 204.16771Q23.190638 203.73021 23.190638 203.12083Q23.190638 202.32396 23.596888 201.71458Q24.003138 201.10521 24.753138 200.80833Q25.503138 200.49583 26.393763 200.49583Q27.346888 200.49583 28.112513 200.83958Q28.878138 201.16771 29.284388 201.82396Q29.690638 202.48021 29.690638 203.19896Q29.690638 203.73021 29.471888 204.15208Q29.237513 204.57396 28.909388 204.83958L31.940638 204.83958L31.940638 205.88646ZM26.471888 204.93333Q27.675013 204.93333 28.253138 204.44896Q28.815638 203.96458 28.815638 203.27708Q28.815638 202.57396 28.221888 202.07396Q27.628138 201.57396 26.378138 201.57396Q25.190638 201.57396 24.612513 202.05833Q24.018763 202.54271 24.018763 203.23021Q24.018763 203.90208 24.643763 204.41771Q25.268763 204.93333 26.471888 204.93333ZM26.440638 196.27708Q24.706263 196.27708 23.878138 195.32396Q23.190638 194.52708 23.190638 193.37083Q23.190638 192.08958 24.034388 191.27708Q24.862513 190.44896 26.346888 190.44896Q27.550013 190.44896 28.237513 190.80833Q28.925013 191.16771 29.315638 191.87083Q29.690638 192.55833 29.690638 193.37083Q29.690638 194.66771 28.862513 195.48021Q28.018763 196.27708 26.440638 196.27708ZM26.440638 195.19896Q27.628138 195.19896 28.221888 194.68333Q28.815638 194.15208 28.815638 193.37083Q28.815638 192.57396 28.221888 192.05833Q27.628138 191.54271 26.409388 191.54271Q25.253138 191.54271 24.659388 192.07396Q24.065638 192.58958 24.065638 193.37083Q24.065638 194.15208 24.659388 194.68333Q25.237513 195.19896 26.440638 195.19896ZM29.550013 187.16771L23.331263 189.52708L23.331263 188.41771L27.050013 187.07396Q27.659388 186.87083 28.300013 186.68333Q27.815638 186.54271 27.128138 186.29271L23.331263 184.90208L23.331263 183.82396L29.550013 186.18333L29.550013 187.16771ZM27.550013 179.63646L27.675013 178.54271Q28.628138 178.79271 29.159388 179.49583Q29.690638 180.19896 29.690638 181.27708Q29.690638 182.63646 28.846888 183.44896Q28.003138 184.24583 26.487513 184.24583Q24.925013 184.24583 24.065638 183.43333Q23.190638 182.62083 23.190638 181.33958Q23.190638 180.08958 24.034388 179.30833Q24.878138 178.51146 26.425013 178.51146Q26.518763 178.51146 26.706263 178.51146L26.706263 183.15208Q27.737513 183.08958 28.284388 182.57396Q28.815638 182.05833 28.815638 181.27708Q28.815638 180.69896 28.518763 180.29271Q28.206263 179.87083 27.550013 179.63646ZM25.846888 183.08958L25.846888 179.62083Q25.050013 179.68333 24.659388 180.01146Q24.050013 180.52708 24.050013 181.32396Q24.050013 182.05833 24.534388 182.55833Q25.018763 183.04271 25.846888 183.08958ZM29.550013 176.90208L23.331263 176.90208L23.331263 175.94896L24.268763 175.94896Q23.612513 175.58958 23.409388 175.29271Q23.190638 174.98021 23.190638 174.60521Q23.190638 174.07396 23.518763 173.52708L24.503138 173.88646Q24.268763 174.27708 24.268763 174.65208Q24.268763 175.01146 24.487513 175.29271Q24.690638 175.55833 25.065638 175.66771Q25.628138 175.85521 26.284388 175.85521L29.550013 175.85521L29.550013 176.90208ZM29.550013 168.91771L29.550013 169.90208L20.956263 169.90208L20.956263 168.83958L24.018763 168.83958Q23.190638 168.16771 23.190638 167.13646Q23.190638 166.55833 23.425013 166.05833Q23.643763 165.54271 24.065638 165.21458Q24.487513 164.87083 25.081263 164.68333Q25.675013 164.49583 26.346888 164.49583Q27.940638 164.49583 28.815638 165.29271Q29.690638 166.08958 29.690638 167.18333Q29.690638 168.29271 28.768763 168.91771L29.550013 168.91771ZM26.393763 168.93333Q27.503138 168.93333 28.003138 168.62083Q28.815638 168.12083 28.815638 167.27708Q28.815638 166.58958 28.221888 166.08958Q27.628138 165.57396 26.425013 165.57396Q25.206263 165.57396 24.628138 166.05833Q24.050013 166.54271 24.050013 167.23021Q24.050013 167.91771 24.659388 168.43333Q25.253138 168.93333 26.393763 168.93333ZM28.784388 158.82396Q29.284388 159.41771 29.487513 159.96458Q29.690638 160.49583 29.690638 161.12083Q29.690638 162.15208 29.190638 162.69896Q28.690638 163.24583 27.909388 163.24583Q27.456263 163.24583 27.081263 163.04271Q26.690638 162.83958 26.471888 162.49583Q26.237513 162.15208 26.128138 161.73021Q26.034388 161.43333 25.956263 160.79271Q25.815638 159.52708 25.596888 158.91771Q25.378138 158.91771 25.331263 158.91771Q24.675013 158.91771 24.409388 159.21458Q24.065638 159.62083 24.065638 160.41771Q24.065638 161.15208 24.331263 161.51146Q24.581263 161.87083 25.237513 162.04271L25.096888 163.07396Q24.440638 162.93333 24.034388 162.60521Q23.628138 162.27708 23.409388 161.66771Q23.190638 161.05833 23.190638 160.26146Q23.190638 159.46458 23.378138 158.96458Q23.565638 158.46458 23.846888 158.23021Q24.128138 157.99583 24.565638 157.90208Q24.831263 157.85521 25.534388 157.85521L26.940638 157.85521Q28.409388 157.85521 28.800013 157.79271Q29.190638 157.71458 29.550013 157.51146L29.550013 158.62083Q29.221888 158.77708 28.784388 158.82396ZM26.425013 158.91771Q26.659388 159.49583 26.831263 160.63646Q26.925013 161.29271 27.050013 161.55833Q27.159388 161.82396 27.378138 161.98021Q27.596888 162.12083 27.878138 162.12083Q28.300013 162.12083 28.581263 161.80833Q28.862513 161.48021 28.862513 160.87083Q28.862513 160.26146 28.596888 159.79271Q28.331263 159.30833 27.862513 159.08958Q27.503138 158.91771 26.815638 158.91771L26.425013 158.91771ZM27.690638 156.30833L27.534388 155.27708Q28.159388 155.18333 28.487513 154.79271Q28.815638 154.38646 28.815638 153.65208Q28.815638 152.93333 28.534388 152.58958Q28.237513 152.23021 27.831263 152.23021Q27.471888 152.23021 27.268763 152.54271Q27.128138 152.76146 26.909388 153.62083Q26.612513 154.77708 26.409388 155.23021Q26.190638 155.66771 25.815638 155.90208Q25.440638 156.13646 24.971888 156.13646Q24.565638 156.13646 24.206263 155.94896Q23.846888 155.76146 23.612513 155.43333Q23.440638 155.18333 23.315638 154.76146Q23.190638 154.33958 23.190638 153.83958Q23.190638 153.12083 23.409388 152.57396Q23.612513 152.01146 23.971888 151.74583Q24.331263 151.48021 24.925013 151.38646L25.065638 152.41771Q24.596888 152.48021 24.331263 152.82396Q24.050013 153.15208 24.050013 153.77708Q24.050013 154.49583 24.300013 154.80833Q24.534388 155.12083 24.862513 155.12083Q25.065638 155.12083 25.221888 154.99583Q25.393763 154.85521 25.503138 154.58958Q25.565638 154.43333 25.768763 153.65208Q26.081263 152.52708 26.268763 152.08958Q26.456263 151.65208 26.815638 151.40208Q27.175013 151.15208 27.721888 151.15208Q28.253138 151.15208 28.721888 151.46458Q29.175013 151.76146 29.440638 152.33958Q29.690638 152.91771 29.690638 153.65208Q29.690638 154.87083 29.190638 155.51146Q28.675013 156.13646 27.690638 156.30833ZM27.550013 144.63646L27.675013 143.54271Q28.628138 143.79271 29.159388 144.49583Q29.690638 145.19896 29.690638 146.27708Q29.690638 147.63646 28.846888 148.44896Q28.003138 149.24583 26.487513 149.24583Q24.925013 149.24583 24.065638 148.43333Q23.190638 147.62083 23.190638 146.33958Q23.190638 145.08958 24.034388 144.30833Q24.878138 143.51146 26.425013 143.51146Q26.518763 143.51146 26.706263 143.51146L26.706263 148.15208Q27.737513 148.08958 28.284388 147.57396Q28.815638 147.05833 28.815638 146.27708Q28.815638 145.69896 28.518763 145.29271Q28.206263 144.87083 27.550013 144.63646ZM25.846888 148.08958L25.846888 144.62083Q25.050013 144.68333 24.659388 145.01146Q24.050013 145.52708 24.050013 146.32396Q24.050013 147.05833 24.534388 147.55833Q25.018763 148.04271 25.846888 148.08958ZM29.550013 141.91771L20.956263 141.91771L20.956263 140.85521L29.550013 140.85521L29.550013 141.91771ZM22.175013 138.88646L20.956263 138.88646L20.956263 137.82396L22.175013 137.82396L22.175013 138.88646ZM29.550013 138.88646L23.331263 138.88646L23.331263 137.82396L29.550013 137.82396L29.550013 138.88646ZM29.550013 135.88646L23.331263 135.88646L23.331263 134.94896L24.206263 134.94896Q23.190638 134.26146 23.190638 132.96458Q23.190638 132.40208 23.393763 131.93333Q23.596888 131.44896 23.925013 131.21458Q24.253138 130.98021 24.690638 130.88646Q24.987513 130.83958 25.721888 130.83958L29.550013 130.83958L29.550013 131.88646L25.768763 131.88646Q25.112513 131.88646 24.800013 132.01146Q24.487513 132.13646 24.300013 132.44896Q24.096888 132.76146 24.096888 133.18333Q24.096888 133.85521 24.534388 134.35521Q24.956263 134.83958 26.143763 134.83958L29.550013 134.83958L29.550013 135.88646ZM27.550013 124.63646L27.675013 123.54271Q28.628138 123.79271 29.159388 124.495834Q29.690638 125.19896 29.690638 126.277084Q29.690638 127.63646 28.846888 128.44896Q28.003138 129.24583 26.487513 129.24583Q24.925013 129.24583 24.065638 128.43333Q23.190638 127.620834 23.190638 126.339584Q23.190638 125.089584 24.034388 124.308334Q24.878138 123.51146 26.425013 123.51146Q26.518763 123.51146 26.706263 123.51146L26.706263 128.15208Q27.737513 128.08958 28.284388 127.57396Q28.815638 127.058334 28.815638 126.277084Q28.815638 125.69896 28.518763 125.29271Q28.206263 124.870834 27.550013 124.63646ZM25.846888 128.08958L25.846888 124.620834Q25.050013 124.683334 24.659388 125.01146Q24.050013 125.527084 24.050013 126.32396Q24.050013 127.058334 24.534388 127.558334Q25.018763 128.04271 25.846888 128.08958Z" fill-rule="nonzero"/><path fill="#000000" d="M65.05 300.21564Q65.05 298.6844 65.3625 297.7625Q65.675 296.825 66.28438 296.325Q66.90938 295.825 67.84688 295.825Q68.53438 295.825 69.05 296.10626Q69.58125 296.3875 69.925 296.91876Q70.26875 297.4344 70.45625 298.1844Q70.64375 298.9344 70.64375 300.21564Q70.64375 301.73126 70.33125 302.65314Q70.03438 303.575 69.40938 304.09064Q68.8 304.59064 67.84688 304.59064Q66.6125 304.59064 65.89375 303.7Q65.05 302.6375 65.05 300.21564ZM66.12813 300.21564Q66.12813 302.325 66.62813 303.02814Q67.12813 303.73126 67.84688 303.73126Q68.58125 303.73126 69.06563 303.02814Q69.56563 302.325 69.56563 300.21564Q69.56563 298.09064 69.06563 297.40314Q68.58125 296.7 67.83125 296.7Q67.1125 296.7 66.675 297.3094Q66.12813 298.09064 66.12813 300.21564Z" fill-rule="nonzero"/><path fill="#000000" d="M63.596874 243.80104L63.596874 244.81667L57.909374 244.81667Q57.909374 244.44167 58.034374 244.08229Q58.253124 243.50417 58.721874 242.94167Q59.20625 242.37917 60.1125 241.64479Q61.51875 240.48854 62.003124 239.81667Q62.503124 239.14479 62.503124 238.55104Q62.503124 237.92604 62.05 237.50417Q61.596874 237.06667 60.878124 237.06667Q60.1125 237.06667 59.659374 237.51979Q59.20625 237.97292 59.190624 238.78542L58.1125 238.67604Q58.221874 237.45729 58.940624 236.83229Q59.675 236.19167 60.909374 236.19167Q62.14375 236.19167 62.8625 236.87917Q63.58125 237.56667 63.58125 238.58229Q63.58125 239.09792 63.3625 239.59792Q63.159374 240.08229 62.659374 240.64479Q62.175 241.19167 61.05 242.14479Q60.096874 242.94167 59.815624 243.23854Q59.55 243.51979 59.378124 243.80104L63.596874 243.80104ZM65.05 240.58229Q65.05 239.05104 65.3625 238.12917Q65.675 237.19167 66.28438 236.69167Q66.90938 236.19167 67.84688 236.19167Q68.53438 236.19167 69.05 236.47292Q69.58125 236.75417 69.925 237.28542Q70.26875 237.80104 70.45625 238.55104Q70.64375 239.30104 70.64375 240.58229Q70.64375 242.09792 70.33125 243.01979Q70.03438 243.94167 69.40938 244.45729Q68.8 244.95729 67.84688 244.95729Q66.6125 244.95729 65.89375 244.06667Q65.05 243.00417 65.05 240.58229ZM66.12813 240.58229Q66.12813 242.69167 66.62813 243.39479Q67.12813 244.09792 67.84688 244.09792Q68.58125 244.09792 69.06563 243.39479Q69.56563 242.69167 69.56563 240.58229Q69.56563 238.45729 69.06563 237.76979Q68.58125 237.06667 67.83125 237.06667Q67.1125 237.06667 66.675 237.67604Q66.12813 238.45729 66.12813 240.58229Z" fill-rule="nonzero"/><path fill="#000000" d="M61.425 185.18333L61.425 183.12083L57.70625 183.12083L57.70625 182.15208L61.628124 176.58958L62.4875 176.58958L62.4875 182.15208L63.64375 182.15208L63.64375 183.12083L62.4875 183.12083L62.4875 185.18333L61.425 185.18333ZM61.425 182.15208L61.425 178.29271L58.7375 182.15208L61.425 182.15208ZM65.05 180.94896Q65.05 179.41771 65.3625 178.49583Q65.675 177.55833 66.28438 177.05833Q66.90938 176.55833 67.84688 176.55833Q68.53438 176.55833 69.05 176.83958Q69.58125 177.12083 69.925 177.65208Q70.26875 178.16771 70.45625 178.91771Q70.64375 179.66771 70.64375 180.94896Q70.64375 182.46458 70.33125 183.38646Q70.03438 184.30833 69.40938 184.82396Q68.8 185.32396 67.84688 185.32396Q66.6125 185.32396 65.89375 184.43333Q65.05 183.37083 65.05 180.94896ZM66.12813 180.94896Q66.12813 183.05833 66.62813 183.76146Q67.12813 184.46458 67.84688 184.46458Q68.58125 184.46458 69.06563 183.76146Q69.56563 183.05833 69.56563 180.94896Q69.56563 178.82396 69.06563 178.13646Q68.58125 177.43333 67.83125 177.43333Q67.1125 177.43333 66.675 178.04271Q66.12813 178.82396 66.12813 180.94896Z" fill-rule="nonzero"/><path fill="#000000" d="M63.51875 119.06563L62.471874 119.14375Q62.33125 118.51875 62.08125 118.2375Q61.64375 117.78438 61.01875 117.78438Q60.51875 117.78438 60.128124 118.06563Q59.64375 118.44063 59.346874 119.14375Q59.065624 119.83125 59.05 121.1125Q59.425 120.53438 59.971874 120.25313Q60.534374 119.97188 61.14375 119.97188Q62.190624 119.97188 62.925 120.75313Q63.675 121.53438 63.675 122.75313Q63.675 123.56563 63.315624 124.26875Q62.971874 124.95625 62.3625 125.33125Q61.753124 125.69063 60.9875 125.69063Q59.659374 125.69063 58.83125 124.72188Q58.003124 123.75313 58.003124 121.53438Q58.003124 119.03438 58.925 117.90938Q59.721874 116.925 61.08125 116.925Q62.096874 116.925 62.7375 117.50313Q63.39375 118.06563 63.51875 119.06563ZM59.221874 122.76875Q59.221874 123.31563 59.440624 123.81563Q59.675 124.3 60.08125 124.56563Q60.503124 124.83125 60.971874 124.83125Q61.628124 124.83125 62.1125 124.3Q62.596874 123.75313 62.596874 122.83125Q62.596874 121.94063 62.1125 121.425Q61.64375 120.90938 60.925 120.90938Q60.20625 120.90938 59.70625 121.425Q59.221874 121.94063 59.221874 122.76875ZM65.05 121.31563Q65.05 119.78438 65.3625 118.8625Q65.675 117.925 66.28438 117.425Q66.90938 116.925 67.84688 116.925Q68.53438 116.925 69.05 117.20625Q69.58125 117.4875 69.925 118.01875Q70.26875 118.53438 70.45625 119.28438Q70.64375 120.03438 70.64375 121.31563Q70.64375 122.83125 70.33125 123.75313Q70.03438 124.675 69.40938 125.19063Q68.8 125.69063 67.84688 125.69063Q66.6125 125.69063 65.89375 124.8Q65.05 123.7375 65.05 121.31563ZM66.12813 121.31563Q66.12813 123.425 66.62813 124.12813Q67.12813 124.83125 67.84688 124.83125Q68.58125 124.83125 69.06563 124.12813Q69.56563 123.425 69.56563 121.31563Q69.56563 119.19063 69.06563 118.50313Q68.58125 117.8 67.83125 117.8Q67.1125 117.8 66.675 118.40938Q66.12813 119.19063 66.12813 121.31563Z" fill-rule="nonzero"/><path fill="#000000" d="M59.675 61.260414Q59.01875 61.010414 58.690624 60.572914Q58.378124 60.11979 58.378124 59.510414Q58.378124 58.572914 59.05 57.93229Q59.7375 57.291664 60.846874 57.291664Q61.971874 57.291664 62.659374 57.947914Q63.346874 58.604164 63.346874 59.541664Q63.346874 60.135414 63.034374 60.572914Q62.721874 61.010414 62.08125 61.260414Q62.878124 61.510414 63.284374 62.08854Q63.690624 62.666664 63.690624 63.46354Q63.690624 64.55729 62.909374 65.30729Q62.14375 66.05729 60.8625 66.05729Q59.596874 66.05729 58.815624 65.30729Q58.034374 64.55729 58.034374 63.43229Q58.034374 62.58854 58.45625 62.02604Q58.89375 61.46354 59.675 61.260414ZM59.45625 59.46354Q59.45625 60.072914 59.846874 60.46354Q60.253124 60.854164 60.878124 60.854164Q61.4875 60.854164 61.878124 60.479164Q62.26875 60.08854 62.26875 59.52604Q62.26875 58.947914 61.8625 58.55729Q61.45625 58.15104 60.8625 58.15104Q60.253124 58.15104 59.846874 58.541664Q59.45625 58.93229 59.45625 59.46354ZM59.128124 63.43229Q59.128124 63.885414 59.33125 64.30729Q59.55 64.729164 59.971874 64.96354Q60.39375 65.197914 60.878124 65.197914Q61.628124 65.197914 62.1125 64.71354Q62.6125 64.229164 62.6125 63.479164Q62.6125 62.71354 62.1125 62.21354Q61.6125 61.71354 60.846874 61.71354Q60.096874 61.71354 59.6125 62.21354Q59.128124 62.697914 59.128124 63.43229ZM65.05 61.68229Q65.05 60.15104 65.3625 59.229164Q65.675 58.291664 66.28438 57.791664Q66.90938 57.291664 67.84688 57.291664Q68.53438 57.291664 69.05 57.572914Q69.58125 57.854164 69.925 58.385414Q70.26875 58.90104 70.45625 59.65104Q70.64375 60.40104 70.64375 61.68229Q70.64375 63.197914 70.33125 64.11979Q70.03438 65.041664 69.40938 65.55729Q68.8 66.05729 67.84688 66.05729Q66.6125 66.05729 65.89375 65.166664Q65.05 64.104164 65.05 61.68229ZM66.12813 61.68229Q66.12813 63.791664 66.62813 64.49479Q67.12813 65.197914 67.84688 65.197914Q68.58125 65.197914 69.06563 64.49479Q69.56563 63.791664 69.56563 61.68229Q69.56563 59.55729 69.06563 58.86979Q68.58125 58.166664 67.83125 58.166664Q67.1125 58.166664 66.675 58.77604Q66.12813 59.55729 66.12813 61.68229Z" fill-rule="nonzero"/><path fill="#000000" d="M78.51875 317.45L77.47188 317.45L77.47188 310.73126Q77.08125 311.09064 76.45625 311.46564Q75.84688 311.825 75.3625 311.9969L75.3625 310.98126Q76.2375 310.5594 76.89375 309.98126Q77.56563 309.3875 77.84688 308.825L78.51875 308.825L78.51875 317.45Z" fill-rule="nonzero"/><path fill="#000000" d="M188.1481 317.45L187.10123 317.45L187.10123 310.73126Q186.7106 311.09064 186.0856 311.46564Q185.47623 311.825 184.99185 311.9969L184.99185 310.98126Q185.86685 310.5594 186.5231 309.98126Q187.19498 309.3875 187.47623 308.825L188.1481 308.825L188.1481 317.45ZM191.17935 313.21564Q191.17935 311.6844 191.49185 310.7625Q191.80435 309.825 192.41373 309.325Q193.03873 308.825 193.97623 308.825Q194.66373 308.825 195.17935 309.10626Q195.7106 309.3875 196.05435 309.91876Q196.3981 310.4344 196.5856 311.1844Q196.7731 311.9344 196.7731 313.21564Q196.7731 314.73126 196.4606 315.65314Q196.16373 316.575 195.53873 317.09064Q194.92935 317.59064 193.97623 317.59064Q192.74185 317.59064 192.0231 316.7Q191.17935 315.6375 191.17935 313.21564ZM192.25748 313.21564Q192.25748 315.325 192.75748 316.02814Q193.25748 316.73126 193.97623 316.73126Q194.7106 316.73126 195.19498 316.02814Q195.69498 315.325 195.69498 313.21564Q195.69498 311.09064 195.19498 310.40314Q194.7106 309.7 193.9606 309.7Q193.24185 309.7 192.80435 310.3094Q192.25748 311.09064 192.25748 313.21564Z" fill-rule="nonzero"/><path fill="#000000" d="M297.77747 317.45L296.7306 317.45L296.7306 310.73126Q296.33997 311.09064 295.71497 311.46564Q295.1056 311.825 294.62122 311.9969L294.62122 310.98126Q295.49622 310.5594 296.15247 309.98126Q296.82434 309.3875 297.1056 308.825L297.77747 308.825L297.77747 317.45ZM300.80872 313.21564Q300.80872 311.6844 301.12122 310.7625Q301.43372 309.825 302.0431 309.325Q302.6681 308.825 303.6056 308.825Q304.2931 308.825 304.80872 309.10626Q305.33997 309.3875 305.68372 309.91876Q306.02747 310.4344 306.21497 311.1844Q306.40247 311.9344 306.40247 313.21564Q306.40247 314.73126 306.08997 315.65314Q305.7931 316.575 305.1681 317.09064Q304.55872 317.59064 303.6056 317.59064Q302.37122 317.59064 301.65247 316.7Q300.80872 315.6375 300.80872 313.21564ZM301.88684 313.21564Q301.88684 315.325 302.38684 316.02814Q302.88684 316.73126 303.6056 316.73126Q304.33997 316.73126 304.82434 316.02814Q305.32434 315.325 305.32434 313.21564Q305.32434 311.09064 304.82434 310.40314Q304.33997 309.7 303.58997 309.7Q302.87122 309.7 302.43372 310.3094Q301.88684 311.09064 301.88684 313.21564ZM307.80872 313.21564Q307.80872 311.6844 308.12122 310.7625Q308.43372 309.825 309.0431 309.325Q309.6681 308.825 310.6056 308.825Q311.2931 308.825 311.80872 309.10626Q312.33997 309.3875 312.68372 309.91876Q313.02747 310.4344 313.21497 311.1844Q313.40247 311.9344 313.40247 313.21564Q313.40247 314.73126 313.08997 315.65314Q312.7931 316.575 312.1681 317.09064Q311.55872 317.59064 310.6056 317.59064Q309.37122 317.59064 308.65247 316.7Q307.80872 315.6375 307.80872 313.21564ZM308.88684 313.21564Q308.88684 315.325 309.38684 316.02814Q309.88684 316.73126 310.6056 316.73126Q311.33997 316.73126 311.82434 316.02814Q312.32434 315.325 312.32434 313.21564Q312.32434 311.09064 311.82434 310.40314Q311.33997 309.7 310.58997 309.7Q309.87122 309.7 309.43372 310.3094Q308.88684 311.09064 308.88684 313.21564Z" fill-rule="nonzero"/><path fill="#000000" d="M407.40683 317.45L406.35995 317.45L406.35995 310.73126Q405.96933 311.09064 405.34433 311.46564Q404.73495 311.825 404.25058 311.9969L404.25058 310.98126Q405.12558 310.5594 405.78183 309.98126Q406.4537 309.3875 406.73495 308.825L407.40683 308.825L407.40683 317.45ZM410.43808 313.21564Q410.43808 311.6844 410.75058 310.7625Q411.06308 309.825 411.67245 309.325Q412.29745 308.825 413.23495 308.825Q413.92245 308.825 414.43808 309.10626Q414.96933 309.3875 415.31308 309.91876Q415.65683 310.4344 415.84433 311.1844Q416.03183 311.9344 416.03183 313.21564Q416.03183 314.73126 415.71933 315.65314Q415.42245 316.575 414.79745 317.09064Q414.18808 317.59064 413.23495 317.59064Q412.00058 317.59064 411.28183 316.7Q410.43808 315.6375 410.43808 313.21564ZM411.5162 313.21564Q411.5162 315.325 412.0162 316.02814Q412.5162 316.73126 413.23495 316.73126Q413.96933 316.73126 414.4537 316.02814Q414.9537 315.325 414.9537 313.21564Q414.9537 311.09064 414.4537 310.40314Q413.96933 309.7 413.21933 309.7Q412.50058 309.7 412.06308 310.3094Q411.5162 311.09064 411.5162 313.21564ZM417.43808 313.21564Q417.43808 311.6844 417.75058 310.7625Q418.06308 309.825 418.67245 309.325Q419.29745 308.825 420.23495 308.825Q420.92245 308.825 421.43808 309.10626Q421.96933 309.3875 422.31308 309.91876Q422.65683 310.4344 422.84433 311.1844Q423.03183 311.9344 423.03183 313.21564Q423.03183 314.73126 422.71933 315.65314Q422.42245 316.575 421.79745 317.09064Q421.18808 317.59064 420.23495 317.59064Q419.00058 317.59064 418.28183 316.7Q417.43808 315.6375 417.43808 313.21564ZM418.5162 313.21564Q418.5162 315.325 419.0162 316.02814Q419.5162 316.73126 420.23495 316.73126Q420.96933 316.73126 421.4537 316.02814Q421.9537 315.325 421.9537 313.21564Q421.9537 311.09064 421.4537 310.40314Q420.96933 309.7 420.21933 309.7Q419.50058 309.7 419.06308 310.3094Q418.5162 311.09064 418.5162 313.21564ZM424.43808 313.21564Q424.43808 311.6844 424.75058 310.7625Q425.06308 309.825 425.67245 309.325Q426.29745 308.825 427.23495 308.825Q427.92245 308.825 428.43808 309.10626Q428.96933 309.3875 429.31308 309.91876Q429.65683 310.4344 429.84433 311.1844Q430.03183 311.9344 430.03183 313.21564Q430.03183 314.73126 429.71933 315.65314Q429.42245 316.575 428.79745 317.09064Q428.18808 317.59064 427.23495 317.59064Q426.00058 317.59064 425.28183 316.7Q424.43808 315.6375 424.43808 313.21564ZM425.5162 313.21564Q425.5162 315.325 426.0162 316.02814Q426.5162 316.73126 427.23495 316.73126Q427.96933 316.73126 428.4537 316.02814Q428.9537 315.325 428.9537 313.21564Q428.9537 311.09064 428.4537 310.40314Q427.96933 309.7 427.21933 309.7Q426.50058 309.7 426.06308 310.3094Q425.5162 311.09064 425.5162 313.21564Z" fill-rule="nonzero"/><path fill="#757575" d="M79.640625 37.55L83.4375 32.159374L79.9375 27.175L82.125 27.175L83.71875 29.6125Q84.171875 30.3 84.4375 30.76875Q84.875 30.128124 85.234375 29.628124L86.984375 27.175L89.078125 27.175L85.5 32.065624L89.359375 37.55L87.203125 37.55L85.0625 34.33125L84.5 33.45625L81.78125 37.55L79.640625 37.55ZM92.03125 29.784374Q90.9375 29.378124 90.40625 28.64375Q89.890625 27.89375 89.890625 26.8625Q89.890625 25.3 91.015625 24.2375Q92.140625 23.175 94.0 23.175Q95.875 23.175 97.015625 24.26875Q98.15625 25.346874 98.15625 26.909374Q98.15625 27.909374 97.625 28.64375Q97.109375 29.378124 96.046875 29.784374Q97.375 30.221874 98.0625 31.175Q98.75 32.128124 98.75 33.45625Q98.75 35.3 97.4375 36.55Q96.140625 37.8 94.03125 37.8Q91.90625 37.8 90.609375 36.55Q89.3125 35.284374 89.3125 33.409374Q89.3125 32.01875 90.015625 31.08125Q90.734375 30.128124 92.03125 29.784374ZM91.6875 26.8Q91.6875 27.815624 92.34375 28.471874Q93.0 29.1125 94.03125 29.1125Q95.046875 29.1125 95.703125 28.471874Q96.359375 27.83125 96.359375 26.909374Q96.359375 25.940624 95.6875 25.284374Q95.015625 24.6125 94.015625 24.6125Q93.015625 24.6125 92.34375 25.26875Q91.6875 25.909374 91.6875 26.8ZM91.125 33.425Q91.125 34.175 91.46875 34.878124Q91.828125 35.58125 92.53125 35.971874Q93.234375 36.346874 94.046875 36.346874Q95.3125 36.346874 96.125 35.534374Q96.953125 34.721874 96.953125 33.471874Q96.953125 32.20625 96.109375 31.378124Q95.265625 30.55 93.984375 30.55Q92.75 30.55 91.9375 31.378124Q91.125 32.190624 91.125 33.425ZM109.453125 26.7375L107.703125 26.878124Q107.46875 25.846874 107.046875 25.378124Q106.328125 24.6125 105.28125 24.6125Q104.4375 24.6125 103.8125 25.08125Q102.984375 25.690624 102.5 26.8625Q102.015625 28.01875 102.0 30.159374Q102.640625 29.20625 103.546875 28.7375Q104.46875 28.26875 105.484375 28.26875Q107.234375 28.26875 108.46875 29.565624Q109.703125 30.846874 109.703125 32.89375Q109.703125 34.253124 109.125 35.409374Q108.546875 36.565624 107.53125 37.190624Q106.515625 37.8 105.21875 37.8Q103.03125 37.8 101.640625 36.190624Q100.25 34.565624 100.25 30.846874Q100.25 26.70625 101.78125 24.815624Q103.125 23.175 105.390625 23.175Q107.078125 23.175 108.15625 24.128124Q109.234375 25.065624 109.453125 26.7375ZM102.28125 32.909374Q102.28125 33.815624 102.65625 34.64375Q103.046875 35.471874 103.734375 35.909374Q104.4375 36.346874 105.1875 36.346874Q106.3125 36.346874 107.109375 35.45625Q107.90625 34.55 107.90625 33.003124Q107.90625 31.51875 107.109375 30.675Q106.328125 29.815624 105.125 29.815624Q103.9375 29.815624 103.109375 30.675Q102.28125 31.51875 102.28125 32.909374ZM117.8125 37.55L117.8125 27.175L119.390625 27.175L119.390625 28.628124Q119.875 27.878124 120.6875 27.409374Q121.5 26.940624 122.53125 26.940624Q123.6875 26.940624 124.421875 27.425Q125.15625 27.89375 125.46875 28.753124Q126.703125 26.940624 128.67188 26.940624Q130.21875 26.940624 131.04688 27.8Q131.875 28.659374 131.875 30.425L131.875 37.55L130.125 37.55L130.125 31.01875Q130.125 29.95625 129.95312 29.503124Q129.78125 29.034374 129.32812 28.753124Q128.89062 28.471874 128.28125 28.471874Q127.1875 28.471874 126.453125 29.20625Q125.734375 29.925 125.734375 31.51875L125.734375 37.55L123.984375 37.55L123.984375 30.815624Q123.984375 29.64375 123.546875 29.065624Q123.125 28.471874 122.140625 28.471874Q121.40625 28.471874 120.765625 28.8625Q120.140625 29.253124 119.859375 30.003124Q119.578125 30.753124 119.578125 32.175L119.578125 37.55L117.8125 37.55ZM140.92188 34.20625L142.73438 34.440624Q142.3125 36.01875 141.14062 36.909374Q139.98438 37.784374 138.17188 37.784374Q135.90625 37.784374 134.5625 36.39375Q133.23438 34.9875 133.23438 32.45625Q133.23438 29.83125 134.57812 28.39375Q135.92188 26.940624 138.07812 26.940624Q140.15625 26.940624 141.46875 28.3625Q142.79688 29.76875 142.79688 32.346874Q142.79688 32.503124 142.78125 32.815624L135.04688 32.815624Q135.14062 34.51875 136.01562 35.425Q136.89062 36.33125 138.1875 36.33125Q139.15625 36.33125 139.82812 35.83125Q140.51562 35.315624 140.92188 34.20625ZM135.14062 31.3625L140.9375 31.3625Q140.82812 30.065624 140.28125 29.409374Q139.4375 28.39375 138.09375 28.39375Q136.89062 28.39375 136.0625 29.20625Q135.23438 30.003124 135.14062 31.3625ZM144.8125 37.55L144.8125 27.175L146.39062 27.175L146.39062 28.628124Q146.875 27.878124 147.6875 27.409374Q148.5 26.940624 149.53125 26.940624Q150.6875 26.940624 151.42188 27.425Q152.15625 27.89375 152.46875 28.753124Q153.70312 26.940624 155.67188 26.940624Q157.21875 26.940624 158.04688 27.8Q158.875 28.659374 158.875 30.425L158.875 37.55L157.125 37.55L157.125 31.01875Q157.125 29.95625 156.95312 29.503124Q156.78125 29.034374 156.32812 28.753124Q155.89062 28.471874 155.28125 28.471874Q154.1875 28.471874 153.45312 29.20625Q152.73438 29.925 152.73438 31.51875L152.73438 37.55L150.98438 37.55L150.98438 30.815624Q150.98438 29.64375 150.54688 29.065624Q150.125 28.471874 149.14062 28.471874Q148.40625 28.471874 147.76562 28.8625Q147.14062 29.253124 146.85938 30.003124Q146.57812 30.753124 146.57812 32.175L146.57812 37.55L144.8125 37.55ZM167.59375 33.753124L169.3125 33.971874Q169.03125 35.76875 167.85938 36.784374Q166.70312 37.784374 165.0 37.784374Q162.875 37.784374 161.57812 36.39375Q160.28125 35.003124 160.28125 32.409374Q160.28125 30.721874 160.82812 29.471874Q161.39062 28.20625 162.53125 27.58125Q163.67188 26.940624 165.01562 26.940624Q166.70312 26.940624 167.76562 27.8Q168.84375 28.659374 169.15625 30.221874L167.4375 30.4875Q167.20312 29.440624 166.57812 28.925Q165.95312 28.39375 165.07812 28.39375Q163.75 28.39375 162.92188 29.346874Q162.09375 30.3 162.09375 32.346874Q162.09375 34.440624 162.89062 35.39375Q163.6875 36.33125 164.98438 36.33125Q166.01562 36.33125 166.70312 35.70625Q167.40625 35.065624 167.59375 33.753124ZM170.8125 41.51875L170.8125 27.175L172.42188 27.175L172.42188 28.51875Q172.98438 27.7375 173.6875 27.346874Q174.40625 26.940624 175.42188 26.940624Q176.75 26.940624 177.76562 27.628124Q178.78125 28.315624 179.29688 29.565624Q179.82812 30.8 179.82812 32.284374Q179.82812 33.878124 179.25 35.159374Q178.6875 36.425 177.59375 37.1125Q176.5 37.784374 175.29688 37.784374Q174.42188 37.784374 173.71875 37.409374Q173.03125 37.034374 172.57812 36.471874L172.57812 41.51875L170.8125 41.51875ZM172.40625 32.425Q172.40625 34.425 173.21875 35.378124Q174.03125 36.33125 175.1875 36.33125Q176.35938 36.33125 177.1875 35.346874Q178.03125 34.3625 178.03125 32.26875Q178.03125 30.3 177.20312 29.315624Q176.39062 28.315624 175.26562 28.315624Q174.14062 28.315624 173.26562 29.378124Q172.40625 30.425 172.40625 32.425ZM181.73438 41.55L181.54688 39.89375Q182.125 40.05 182.54688 40.05Q183.14062 40.05 183.48438 39.846874Q183.84375 39.659374 184.0625 39.315624Q184.23438 39.05 184.60938 38.003124Q184.65625 37.846874 184.76562 37.565624L180.82812 27.175L182.71875 27.175L184.875 33.190624Q185.29688 34.33125 185.625 35.58125Q185.9375 34.378124 186.34375 33.221874L188.5625 27.175L190.32812 27.175L186.375 37.721874Q185.75 39.440624 185.39062 40.08125Q184.92188 40.95625 184.3125 41.346874Q183.71875 41.753124 182.875 41.753124Q182.35938 41.753124 181.73438 41.55ZM197.10938 34.45625L198.85938 34.175Q199.0 35.221874 199.67188 35.784374Q200.34375 36.33125 201.54688 36.33125Q202.75 36.33125 203.32812 35.846874Q203.92188 35.346874 203.92188 34.690624Q203.92188 34.096874 203.40625 33.753124Q203.04688 33.51875 201.60938 33.159374Q199.67188 32.659374 198.92188 32.315624Q198.1875 31.95625 197.79688 31.33125Q197.40625 30.690624 197.40625 29.925Q197.40625 29.2375 197.71875 28.64375Q198.04688 28.05 198.59375 27.659374Q199.0 27.3625 199.70312 27.159374Q200.42188 26.940624 201.23438 26.940624Q202.45312 26.940624 203.375 27.3Q204.29688 27.64375 204.73438 28.253124Q205.17188 28.846874 205.34375 29.846874L203.625 30.08125Q203.5 29.284374 202.9375 28.846874Q202.375 28.39375 201.35938 28.39375Q200.14062 28.39375 199.625 28.8Q199.10938 29.190624 199.10938 29.721874Q199.10938 30.065624 199.32812 30.346874Q199.53125 30.628124 200.0 30.815624Q200.26562 30.909374 201.54688 31.253124Q203.42188 31.753124 204.15625 32.08125Q204.89062 32.39375 205.3125 33.003124Q205.73438 33.596874 205.73438 34.503124Q205.73438 35.378124 205.21875 36.159374Q204.70312 36.940624 203.73438 37.3625Q202.76562 37.784374 201.54688 37.784374Q199.53125 37.784374 198.46875 36.940624Q197.40625 36.096874 197.10938 34.45625ZM207.8125 41.51875L207.8125 27.175L209.42188 27.175L209.42188 28.51875Q209.98438 27.7375 210.6875 27.346874Q211.40625 26.940624 212.42188 26.940624Q213.75 26.940624 214.76562 27.628124Q215.78125 28.315624 216.29688 29.565624Q216.82812 30.8 216.82812 32.284374Q216.82812 33.878124 216.25 35.159374Q215.6875 36.425 214.59375 37.1125Q213.5 37.784374 212.29688 37.784374Q211.42188 37.784374 210.71875 37.409374Q210.03125 37.034374 209.57812 36.471874L209.57812 41.51875L207.8125 41.51875ZM209.40625 32.425Q209.40625 34.425 210.21875 35.378124Q211.03125 36.33125 212.1875 36.33125Q213.35938 36.33125 214.1875 35.346874Q215.03125 34.3625 215.03125 32.26875Q215.03125 30.3 214.20312 29.315624Q213.39062 28.315624 212.26562 28.315624Q211.14062 28.315624 210.26562 29.378124Q209.40625 30.425 209.40625 32.425ZM225.92188 34.20625L227.73438 34.440624Q227.3125 36.01875 226.14062 36.909374Q224.98438 37.784374 223.17188 37.784374Q220.90625 37.784374 219.5625 36.39375Q218.23438 34.9875 218.23438 32.45625Q218.23438 29.83125 219.57812 28.39375Q220.92188 26.940624 223.07812 26.940624Q225.15625 26.940624 226.46875 28.3625Q227.79688 29.76875 227.79688 32.346874Q227.79688 32.503124 227.78125 32.815624L220.04688 32.815624Q220.14062 34.51875 221.01562 35.425Q221.89062 36.33125 223.1875 36.33125Q224.15625 36.33125 224.82812 35.83125Q225.51562 35.315624 225.92188 34.20625ZM220.14062 31.3625L225.9375 31.3625Q225.82812 30.065624 225.28125 29.409374Q224.4375 28.39375 223.09375 28.39375Q221.89062 28.39375 221.0625 29.20625Q220.23438 30.003124 220.14062 31.3625ZM236.92188 34.20625L238.73438 34.440624Q238.3125 36.01875 237.14062 36.909374Q235.98438 37.784374 234.17188 37.784374Q231.90625 37.784374 230.5625 36.39375Q229.23438 34.9875 229.23438 32.45625Q229.23438 29.83125 230.57812 28.39375Q231.92188 26.940624 234.07812 26.940624Q236.15625 26.940624 237.46875 28.3625Q238.79688 29.76875 238.79688 32.346874Q238.79688 32.503124 238.78125 32.815624L231.04688 32.815624Q231.14062 34.51875 232.01562 35.425Q232.89062 36.33125 234.1875 36.33125Q235.15625 36.33125 235.82812 35.83125Q236.51562 35.315624 236.92188 34.20625ZM231.14062 31.3625L236.9375 31.3625Q236.82812 30.065624 236.28125 29.409374Q235.4375 28.39375 234.09375 28.39375Q232.89062 28.39375 232.0625 29.20625Q231.23438 30.003124 231.14062 31.3625ZM247.54688 37.55L247.54688 36.2375Q246.5625 37.784374 244.64062 37.784374Q243.40625 37.784374 242.35938 37.096874Q241.32812 36.409374 240.75 35.190624Q240.1875 33.971874 240.1875 32.378124Q240.1875 30.815624 240.70312 29.55Q241.21875 28.284374 242.25 27.6125Q243.29688 26.940624 244.5625 26.940624Q245.5 26.940624 246.23438 27.346874Q246.96875 27.7375 247.4375 28.3625L247.4375 23.2375L249.17188 23.2375L249.17188 37.55L247.54688 37.55ZM241.98438 32.378124Q241.98438 34.3625 242.82812 35.346874Q243.67188 36.33125 244.8125 36.33125Q245.96875 36.33125 246.76562 35.39375Q247.57812 34.45625 247.57812 32.51875Q247.57812 30.39375 246.75 29.39375Q245.9375 28.39375 244.73438 28.39375Q243.5625 28.39375 242.76562 29.3625Q241.98438 30.315624 241.98438 32.378124ZM258.60938 37.55L258.60938 36.01875Q257.40625 37.784374 255.32812 37.784374Q254.40625 37.784374 253.60938 37.440624Q252.8125 37.08125 252.42188 36.55Q252.04688 36.01875 251.89062 35.2375Q251.78125 34.721874 251.78125 33.596874L251.78125 27.175L253.53125 27.175L253.53125 32.925Q253.53125 34.3 253.64062 34.784374Q253.8125 35.471874 254.34375 35.878124Q254.89062 36.26875 255.67188 36.26875Q256.46875 36.26875 257.15625 35.8625Q257.85938 35.45625 258.14062 34.76875Q258.4375 34.065624 258.4375 32.7375L258.4375 27.175L260.1875 27.175L260.1875 37.55L258.60938 37.55ZM261.8125 41.51875L261.8125 27.175L263.42188 27.175L263.42188 28.51875Q263.98438 27.7375 264.6875 27.346874Q265.40625 26.940624 266.42188 26.940624Q267.75 26.940624 268.76562 27.628124Q269.78125 28.315624 270.29688 29.565624Q270.82812 30.8 270.82812 32.284374Q270.82812 33.878124 270.25 35.159374Q269.6875 36.425 268.59375 37.1125Q267.5 37.784374 266.29688 37.784374Q265.42188 37.784374 264.71875 37.409374Q264.03125 37.034374 263.57812 36.471874L263.57812 41.51875L261.8125 41.51875ZM263.40625 32.425Q263.40625 34.425 264.21875 35.378124Q265.03125 36.33125 266.1875 36.33125Q267.35938 36.33125 268.1875 35.346874Q269.03125 34.3625 269.03125 32.26875Q269.03125 30.3 268.20312 29.315624Q267.39062 28.315624 266.26562 28.315624Q265.14062 28.315624 264.26562 29.378124Q263.40625 30.425 263.40625 32.425ZM283.14062 37.55L277.59375 23.2375L279.64062 23.2375L283.35938 33.628124Q283.8125 34.878124 284.10938 35.971874Q284.4375 34.8 284.89062 33.628124L288.75 23.2375L290.6875 23.2375L285.07812 37.55L283.14062 37.55ZM291.96875 37.55L291.96875 23.2375L293.85938 23.2375L293.85938 35.8625L300.90625 35.8625L300.90625 37.55L291.96875 37.55ZM303.07812 37.55L303.07812 23.2375L313.4375 23.2375L313.4375 24.925L304.98438 24.925L304.98438 29.3L312.89062 29.3L312.89062 30.9875L304.98438 30.9875L304.98438 35.8625L313.76562 35.8625L313.76562 37.55L303.07812 37.55ZM316.03125 37.55L316.03125 23.2375L317.96875 23.2375L325.48438 34.471874L325.48438 23.2375L327.29688 23.2375L327.29688 37.55L325.35938 37.55L317.84375 26.3L317.84375 37.55L316.03125 37.55ZM338.0625 29.128124L328.60938 29.128124L328.60938 27.4875L338.0625 27.4875L338.0625 29.128124ZM338.0625 33.471874L328.60938 33.471874L328.60938 31.83125L338.0625 31.83125L338.0625 33.471874ZM346.95312 37.55L345.1875 37.55L345.1875 26.346874Q344.5625 26.95625 343.53125 27.565624Q342.5 28.159374 341.67188 28.471874L341.67188 26.76875Q343.15625 26.08125 344.25 25.096874Q345.35938 24.096874 345.8125 23.175L346.95312 23.175L346.95312 37.55ZM351.32812 30.4875Q351.32812 27.95625 351.84375 26.409374Q352.375 24.846874 353.40625 24.01875Q354.4375 23.175 356.0 23.175Q357.15625 23.175 358.01562 23.64375Q358.89062 24.096874 359.45312 24.971874Q360.01562 25.846874 360.34375 27.1125Q360.67188 28.3625 360.67188 30.4875Q360.67188 33.003124 360.14062 34.55Q359.625 36.096874 358.59375 36.95625Q357.57812 37.8 356.0 37.8Q353.92188 37.8 352.75 36.315624Q351.32812 34.51875 351.32812 30.4875ZM353.14062 30.4875Q353.14062 34.01875 353.95312 35.190624Q354.78125 36.346874 356.0 36.346874Q357.20312 36.346874 358.03125 35.175Q358.85938 34.003124 358.85938 30.4875Q358.85938 26.95625 358.03125 25.8Q357.20312 24.628124 355.98438 24.628124Q354.76562 24.628124 354.04688 25.659374Q353.14062 26.95625 353.14062 30.4875ZM371.5625 35.8625L371.5625 37.55L362.10938 37.55Q362.09375 36.909374 362.3125 36.33125Q362.67188 35.3625 363.46875 34.425Q364.26562 33.4875 365.76562 32.253124Q368.10938 30.346874 368.92188 29.2375Q369.75 28.1125 369.75 27.1125Q369.75 26.065624 369.0 25.346874Q368.25 24.628124 367.04688 24.628124Q365.78125 24.628124 365.01562 25.39375Q364.25 26.159374 364.25 27.503124L362.4375 27.315624Q362.625 25.3 363.82812 24.2375Q365.04688 23.175 367.09375 23.175Q369.14062 23.175 370.34375 24.315624Q371.54688 25.45625 371.54688 27.14375Q371.54688 28.003124 371.1875 28.846874Q370.84375 29.675 370.03125 30.596874Q369.21875 31.503124 367.32812 33.1125Q365.73438 34.440624 365.28125 34.909374Q364.84375 35.378124 364.54688 35.8625L371.5625 35.8625ZM378.96875 37.55L378.96875 34.128124L372.75 34.128124L372.75 32.503124L379.28125 23.2375L380.71875 23.2375L380.71875 32.503124L382.65625 32.503124L382.65625 34.128124L380.71875 34.128124L380.71875 37.55L378.96875 37.55ZM378.96875 32.503124L378.96875 26.05L374.48438 32.503124L378.96875 32.503124ZM390.96875 37.55L390.96875 23.2375L392.85938 23.2375L392.85938 35.8625L399.90625 35.8625L399.90625 37.55L390.96875 37.55ZM401.98438 37.55L401.98438 23.2375L404.84375 23.2375L408.21875 33.3625Q408.6875 34.784374 408.90625 35.4875Q409.15625 34.70625 409.67188 33.190624L413.09375 23.2375L415.64062 23.2375L415.64062 37.55L413.82812 37.55L413.82812 25.565624L409.65625 37.55L407.95312 37.55L403.8125 25.3625L403.8125 37.55L401.98438 37.55ZM428.4375 23.2375L430.32812 23.2375L430.32812 31.503124Q430.32812 33.659374 429.84375 34.940624Q429.35938 36.20625 428.07812 37.003124Q426.8125 37.8 424.73438 37.8Q422.71875 37.8 421.4375 37.1125Q420.17188 36.409374 419.625 35.096874Q419.07812 33.784374 419.07812 31.503124L419.07812 23.2375L420.96875 23.2375L420.96875 31.4875Q420.96875 33.3625 421.3125 34.253124Q421.65625 35.128124 422.5 35.6125Q423.34375 36.08125 424.57812 36.08125Q426.65625 36.08125 427.54688 35.14375Q428.4375 34.190624 428.4375 31.4875L428.4375 23.2375ZM431.96875 37.55L431.96875 23.2375L433.85938 23.2375L433.85938 35.8625L440.90625 35.8625L440.90625 37.55L431.96875 37.55ZM452.0625 29.128124L442.60938 29.128124L442.60938 27.4875L452.0625 27.4875L452.0625 29.128124ZM452.0625 33.471874L442.60938 33.471874L442.60938 31.83125L452.0625 31.83125L452.0625 33.471874ZM457.03125 29.784374Q455.9375 29.378124 455.40625 28.64375Q454.89062 27.89375 454.89062 26.8625Q454.89062 25.3 456.01562 24.2375Q457.14062 23.175 459.0 23.175Q460.875 23.175 462.01562 24.26875Q463.15625 25.346874 463.15625 26.909374Q463.15625 27.909374 462.625 28.64375Q462.10938 29.378124 461.04688 29.784374Q462.375 30.221874 463.0625 31.175Q463.75 32.128124 463.75 33.45625Q463.75 35.3 462.4375 36.55Q461.14062 37.8 459.03125 37.8Q456.90625 37.8 455.60938 36.55Q454.3125 35.284374 454.3125 33.409374Q454.3125 32.01875 455.01562 31.08125Q455.73438 30.128124 457.03125 29.784374ZM456.6875 26.8Q456.6875 27.815624 457.34375 28.471874Q458.0 29.1125 459.03125 29.1125Q460.04688 29.1125 460.70312 28.471874Q461.35938 27.83125 461.35938 26.909374Q461.35938 25.940624 460.6875 25.284374Q460.01562 24.6125 459.01562 24.6125Q458.01562 24.6125 457.34375 25.26875Q456.6875 25.909374 456.6875 26.8ZM456.125 33.425Q456.125 34.175 456.46875 34.878124Q456.82812 35.58125 457.53125 35.971874Q458.23438 36.346874 459.04688 36.346874Q460.3125 36.346874 461.125 35.534374Q461.95312 34.721874 461.95312 33.471874Q461.95312 32.20625 461.10938 31.378124Q460.26562 30.55 458.98438 30.55Q457.75 30.55 456.9375 31.378124Q456.125 32.190624 456.125 33.425Z" fill-rule="nonzero"/></svg>