<svg version="1.1" viewBox="0.0 0.0 544.0 371.0" fill="none" stroke="none" stroke-linecap="square" stroke-miterlimit="10" width="544" height="371" xmlns:xlink="http://www.w3.org/1999/xlink" xmlns="http://www.w3.org/2000/svg"><path fill="#ffffff" d="M0 0L544.0 0L544.0 371.0L0 371.0L0 0Z" fill-rule="nonzero"/><path stroke="#cccccc" stroke-width="1.0" stroke-linecap="butt" d="M77.5 88.5L77.5 300.5" fill-rule="nonzero"/><path stroke="#cccccc" stroke-width="1.0" stroke-linecap="butt" d="M212.5 88.5L212.5 300.5" fill-rule="nonzero"/><path stroke="#cccccc" stroke-width="1.0" stroke-linecap="butt" d="M348.5 88.5L348.5 300.5" fill-rule="nonzero"/><path stroke="#cccccc" stroke-width="1.0" stroke-linecap="butt" d="M483.5 88.5L483.5 300.5" fill-rule="nonzero"/><path stroke="#333333" stroke-width="1.0" stroke-linecap="butt" d="M77.5 300.5L525.5 300.5" fill-rule="nonzero"/><path stroke="#cccccc" stroke-width="1.0" stroke-linecap="butt" d="M77.5 247.5L525.5 247.5" fill-rule="nonzero"/><path stroke="#cccccc" stroke-width="1.0" stroke-linecap="butt" d="M77.5 194.5L525.5 194.5" fill-rule="nonzero"/><path stroke="#cccccc" stroke-width="1.0" stroke-linecap="butt" d="M77.5 141.5L525.5 141.5" fill-rule="nonzero"/><path stroke="#cccccc" stroke-width="1.0" stroke-linecap="butt" d="M77.5 88.5L525.5 88.5" fill-rule="nonzero"/><clipPath id="id_0"><path d="M77.55 88.28333L525.45 88.28333L525.45 300.45L77.55 300.45L77.55 88.28333Z" clip-rule="nonzero"/></clipPath><path stroke="#ea4335" stroke-width="2.0" stroke-linecap="butt" clip-path="url(#id_0)" d="M77.55 298.7739L118.26818 298.73428L158.98636 297.65735L199.70454 297.31696L240.42273 294.76663L281.1409 290.80585L321.8591 283.98315L362.57727 277.38742L403.29544 265.15967L444.01364 247.8754L484.7318 234.65184L525.45 236.12978" fill-rule="nonzero"/><path stroke="#fbbc04" stroke-width="2.0" stroke-linecap="butt" clip-path="url(#id_0)" d="M77.55 296.91388L118.26818 298.6263L158.98636 297.50107L199.70454 295.52728L240.42273 292.4904L281.1409 289.84418L321.8591 286.82114L362.57727 286.3544L403.29544 284.50986L444.01364 283.6291L484.7318 282.9178L525.45 282.87274" fill-rule="nonzero"/><path stroke="#34a853" stroke-width="2.0" stroke-linecap="butt" clip-path="url(#id_0)" d="M77.55 296.91388L118.26818 298.02032L158.98636 296.3672L199.70454 295.8517L240.42273 295.2641L281.1409 292.87338L321.8591 286.34033L362.57727 274.19855L403.29544 259.27484L444.01364 245.93298L484.7318 234.65184L525.45 235.05544" fill-rule="nonzero"/><path stroke="#ff6d01" stroke-width="2.0" stroke-linecap="butt" clip-path="url(#id_0)" d="M77.55 298.17575L118.26818 297.7979L158.98636 295.62677L199.70454 294.18393L240.42273 295.67786L281.1409 290.3433L321.8591 283.27606L362.57727 265.8561L403.29544 243.41277L444.01364 205.5129L484.7318 133.13263L525.45 146.41595" fill-rule="nonzero"/><path fill="#000000" fill-opacity="0.0" clip-path="url(#id_0)" d="M80.55 298.7739C80.55 300.43073 79.206856 301.7739 77.55 301.7739C75.89314 301.7739 74.55 300.43073 74.55 298.7739C74.55 297.11703 75.89314 295.7739 77.55 295.7739C79.206856 295.7739 80.55 297.11703 80.55 298.7739Z" fill-rule="nonzero"/><path fill="#000000" fill-opacity="0.0" clip-path="url(#id_0)" d="M121.26818 298.73428C121.26818 300.39114 119.92503 301.73428 118.26818 301.73428C116.61133 301.73428 115.26818 300.39114 115.26818 298.73428C115.26818 297.07745 116.61133 295.73428 118.26818 295.73428C119.92503 295.73428 121.26818 297.07745 121.26818 298.73428Z" fill-rule="nonzero"/><path fill="#000000" fill-opacity="0.0" clip-path="url(#id_0)" d="M161.98636 297.65735C161.98636 299.3142 160.64322 300.65735 158.98636 300.65735C157.32951 300.65735 155.98636 299.3142 155.98636 297.65735C155.98636 296.0005 157.32951 294.65735 158.98636 294.65735C160.64322 294.65735 161.98636 296.0005 161.98636 297.65735Z" fill-rule="nonzero"/><path fill="#000000" fill-opacity="0.0" clip-path="url(#id_0)" d="M202.70454 297.31696C202.70454 298.97382 201.3614 300.31696 199.70454 300.31696C198.04768 300.31696 196.70454 298.97382 196.70454 297.31696C196.70454 295.66013 198.04768 294.31696 199.70454 294.31696C201.3614 294.31696 202.70454 295.66013 202.70454 297.31696Z" fill-rule="nonzero"/><path fill="#000000" fill-opacity="0.0" clip-path="url(#id_0)" d="M243.42273 294.76663C243.42273 296.42346 242.07957 297.76663 240.42273 297.76663C238.76587 297.76663 237.42273 296.42346 237.42273 294.76663C237.42273 293.10977 238.76587 291.76663 240.42273 291.76663C242.07957 291.76663 243.42273 293.10977 243.42273 294.76663Z" fill-rule="nonzero"/><path fill="#000000" fill-opacity="0.0" clip-path="url(#id_0)" d="M284.1409 290.80585C284.1409 292.4627 282.79776 293.80585 281.1409 293.80585C279.48407 293.80585 278.1409 292.4627 278.1409 290.80585C278.1409 289.149 279.48407 287.80585 281.1409 287.80585C282.79776 287.80585 284.1409 289.149 284.1409 290.80585Z" fill-rule="nonzero"/><path fill="#000000" fill-opacity="0.0" clip-path="url(#id_0)" d="M324.8591 283.98315C324.8591 285.64 323.51593 286.98315 321.8591 286.98315C320.20224 286.98315 318.8591 285.64 318.8591 283.98315C318.8591 282.3263 320.20224 280.98315 321.8591 280.98315C323.51593 280.98315 324.8591 282.3263 324.8591 283.98315Z" fill-rule="nonzero"/><path fill="#000000" fill-opacity="0.0" clip-path="url(#id_0)" d="M365.57727 277.38742C365.57727 279.04425 364.23413 280.38742 362.57727 280.38742C360.9204 280.38742 359.57727 279.04425 359.57727 277.38742C359.57727 275.73056 360.9204 274.38742 362.57727 274.38742C364.23413 274.38742 365.57727 275.73056 365.57727 277.38742Z" fill-rule="nonzero"/><path fill="#000000" fill-opacity="0.0" clip-path="url(#id_0)" d="M406.29544 265.15967C406.29544 266.81653 404.9523 268.15967 403.29544 268.15967C401.6386 268.15967 400.29544 266.81653 400.29544 265.15967C400.29544 263.5028 401.6386 262.15967 403.29544 262.15967C404.9523 262.15967 406.29544 263.5028 406.29544 265.15967Z" fill-rule="nonzero"/><path fill="#000000" fill-opacity="0.0" clip-path="url(#id_0)" d="M447.01364 247.8754C447.01364 249.53224 445.6705 250.8754 444.01364 250.8754C442.35678 250.8754 441.01364 249.53224 441.01364 247.8754C441.01364 246.21854 442.35678 244.8754 444.01364 244.8754C445.6705 244.8754 447.01364 246.21854 447.01364 247.8754Z" fill-rule="nonzero"/><path fill="#000000" fill-opacity="0.0" clip-path="url(#id_0)" d="M487.7318 234.65184C487.7318 236.30869 486.38867 237.65184 484.7318 237.65184C483.07495 237.65184 481.7318 236.30869 481.7318 234.65184C481.7318 232.99498 483.07495 231.65184 484.7318 231.65184C486.38867 231.65184 487.7318 232.99498 487.7318 234.65184Z" fill-rule="nonzero"/><path fill="#000000" fill-opacity="0.0" clip-path="url(#id_0)" d="M528.45 236.12978C528.45 237.78664 527.1069 239.12978 525.45 239.12978C523.79315 239.12978 522.45 237.78664 522.45 236.12978C522.45 234.47293 523.79315 233.12978 525.45 233.12978C527.1069 233.12978 528.45 234.47293 528.45 236.12978Z" fill-rule="nonzero"/><path fill="#000000" fill-opacity="0.0" clip-path="url(#id_0)" d="M80.55 296.91388C80.55 298.57074 79.206856 299.91388 77.55 299.91388C75.89314 299.91388 74.55 298.57074 74.55 296.91388C74.55 295.25705 75.89314 293.91388 77.55 293.91388C79.206856 293.91388 80.55 295.25705 80.55 296.91388Z" fill-rule="nonzero"/><path fill="#000000" fill-opacity="0.0" clip-path="url(#id_0)" d="M121.26818 298.6263C121.26818 300.28314 119.92503 301.6263 118.26818 301.6263C116.61133 301.6263 115.26818 300.28314 115.26818 298.6263C115.26818 296.96945 116.61133 295.6263 118.26818 295.6263C119.92503 295.6263 121.26818 296.96945 121.26818 298.6263Z" fill-rule="nonzero"/><path fill="#000000" fill-opacity="0.0" clip-path="url(#id_0)" d="M161.98636 297.50107C161.98636 299.15793 160.64322 300.50107 158.98636 300.50107C157.32951 300.50107 155.98636 299.15793 155.98636 297.50107C155.98636 295.8442 157.32951 294.50107 158.98636 294.50107C160.64322 294.50107 161.98636 295.8442 161.98636 297.50107Z" fill-rule="nonzero"/><path fill="#000000" fill-opacity="0.0" clip-path="url(#id_0)" d="M202.70454 295.52728C202.70454 297.1841 201.3614 298.52728 199.70454 298.52728C198.04768 298.52728 196.70454 297.1841 196.70454 295.52728C196.70454 293.87042 198.04768 292.52728 199.70454 292.52728C201.3614 292.52728 202.70454 293.87042 202.70454 295.52728Z" fill-rule="nonzero"/><path fill="#000000" fill-opacity="0.0" clip-path="url(#id_0)" d="M243.42273 292.4904C243.42273 294.14725 242.07957 295.4904 240.42273 295.4904C238.76587 295.4904 237.42273 294.14725 237.42273 292.4904C237.42273 290.83353 238.76587 289.4904 240.42273 289.4904C242.07957 289.4904 243.42273 290.83353 243.42273 292.4904Z" fill-rule="nonzero"/><path fill="#000000" fill-opacity="0.0" clip-path="url(#id_0)" d="M284.1409 289.84418C284.1409 291.50104 282.79776 292.84418 281.1409 292.84418C279.48407 292.84418 278.1409 291.50104 278.1409 289.84418C278.1409 288.18732 279.48407 286.84418 281.1409 286.84418C282.79776 286.84418 284.1409 288.18732 284.1409 289.84418Z" fill-rule="nonzero"/><path fill="#000000" fill-opacity="0.0" clip-path="url(#id_0)" d="M324.8591 286.82114C324.8591 288.478 323.51593 289.82114 321.8591 289.82114C320.20224 289.82114 318.8591 288.478 318.8591 286.82114C318.8591 285.16428 320.20224 283.82114 321.8591 283.82114C323.51593 283.82114 324.8591 285.16428 324.8591 286.82114Z" fill-rule="nonzero"/><path fill="#000000" fill-opacity="0.0" clip-path="url(#id_0)" d="M365.57727 286.3544C365.57727 288.01126 364.23413 289.3544 362.57727 289.3544C360.9204 289.3544 359.57727 288.01126 359.57727 286.3544C359.57727 284.69754 360.9204 283.3544 362.57727 283.3544C364.23413 283.3544 365.57727 284.69754 365.57727 286.3544Z" fill-rule="nonzero"/><path fill="#000000" fill-opacity="0.0" clip-path="url(#id_0)" d="M406.29544 284.50986C406.29544 286.16672 404.9523 287.50986 403.29544 287.50986C401.6386 287.50986 400.29544 286.16672 400.29544 284.50986C400.29544 282.85303 401.6386 281.50986 403.29544 281.50986C404.9523 281.50986 406.29544 282.85303 406.29544 284.50986Z" fill-rule="nonzero"/><path fill="#000000" fill-opacity="0.0" clip-path="url(#id_0)" d="M447.01364 283.6291C447.01364 285.28595 445.6705 286.6291 444.01364 286.6291C442.35678 286.6291 441.01364 285.28595 441.01364 283.6291C441.01364 281.97223 442.35678 280.6291 444.01364 280.6291C445.6705 280.6291 447.01364 281.97223 447.01364 283.6291Z" fill-rule="nonzero"/><path fill="#000000" fill-opacity="0.0" clip-path="url(#id_0)" d="M487.7318 282.9178C487.7318 284.57465 486.38867 285.9178 484.7318 285.9178C483.07495 285.9178 481.7318 284.57465 481.7318 282.9178C481.7318 281.26096 483.07495 279.9178 484.7318 279.9178C486.38867 279.9178 487.7318 281.26096 487.7318 282.9178Z" fill-rule="nonzero"/><path fill="#000000" fill-opacity="0.0" clip-path="url(#id_0)" d="M528.45 282.87274C528.45 284.5296 527.1069 285.87274 525.45 285.87274C523.79315 285.87274 522.45 284.5296 522.45 282.87274C522.45 281.21588 523.79315 279.87274 525.45 279.87274C527.1069 279.87274 528.45 281.21588 528.45 282.87274Z" fill-rule="nonzero"/><path fill="#000000" fill-opacity="0.0" clip-path="url(#id_0)" d="M80.55 296.91388C80.55 298.57074 79.206856 299.91388 77.55 299.91388C75.89314 299.91388 74.55 298.57074 74.55 296.91388C74.55 295.25705 75.89314 293.91388 77.55 293.91388C79.206856 293.91388 80.55 295.25705 80.55 296.91388Z" fill-rule="nonzero"/><path fill="#000000" fill-opacity="0.0" clip-path="url(#id_0)" d="M121.26818 298.02032C121.26818 299.6772 119.92503 301.02032 118.26818 301.02032C116.61133 301.02032 115.26818 299.6772 115.26818 298.02032C115.26818 296.36346 116.61133 295.02032 118.26818 295.02032C119.92503 295.02032 121.26818 296.36346 121.26818 298.02032Z" fill-rule="nonzero"/><path fill="#000000" fill-opacity="0.0" clip-path="url(#id_0)" d="M161.98636 296.3672C161.98636 298.02405 160.64322 299.3672 158.98636 299.3672C157.32951 299.3672 155.98636 298.02405 155.98636 296.3672C155.98636 294.71033 157.32951 293.3672 158.98636 293.3672C160.64322 293.3672 161.98636 294.71033 161.98636 296.3672Z" fill-rule="nonzero"/><path fill="#000000" fill-opacity="0.0" clip-path="url(#id_0)" d="M202.70454 295.8517C202.70454 297.50858 201.3614 298.8517 199.70454 298.8517C198.04768 298.8517 196.70454 297.50858 196.70454 295.8517C196.70454 294.19485 198.04768 292.8517 199.70454 292.8517C201.3614 292.8517 202.70454 294.19485 202.70454 295.8517Z" fill-rule="nonzero"/><path fill="#000000" fill-opacity="0.0" clip-path="url(#id_0)" d="M243.42273 295.2641C243.42273 296.92096 242.07957 298.2641 240.42273 298.2641C238.76587 298.2641 237.42273 296.92096 237.42273 295.2641C237.42273 293.60724 238.76587 292.2641 240.42273 292.2641C242.07957 292.2641 243.42273 293.60724 243.42273 295.2641Z" fill-rule="nonzero"/><path fill="#000000" fill-opacity="0.0" clip-path="url(#id_0)" d="M284.1409 292.87338C284.1409 294.53024 282.79776 295.87338 281.1409 295.87338C279.48407 295.87338 278.1409 294.53024 278.1409 292.87338C278.1409 291.21652 279.48407 289.87338 281.1409 289.87338C282.79776 289.87338 284.1409 291.21652 284.1409 292.87338Z" fill-rule="nonzero"/><path fill="#000000" fill-opacity="0.0" clip-path="url(#id_0)" d="M324.8591 286.34033C324.8591 287.9972 323.51593 289.34033 321.8591 289.34033C320.20224 289.34033 318.8591 287.9972 318.8591 286.34033C318.8591 284.68347 320.20224 283.34033 321.8591 283.34033C323.51593 283.34033 324.8591 284.68347 324.8591 286.34033Z" fill-rule="nonzero"/><path fill="#000000" fill-opacity="0.0" clip-path="url(#id_0)" d="M365.57727 274.19855C365.57727 275.8554 364.23413 277.19855 362.57727 277.19855C360.9204 277.19855 359.57727 275.8554 359.57727 274.19855C359.57727 272.5417 360.9204 271.19855 362.57727 271.19855C364.23413 271.19855 365.57727 272.5417 365.57727 274.19855Z" fill-rule="nonzero"/><path fill="#000000" fill-opacity="0.0" clip-path="url(#id_0)" d="M406.29544 259.27484C406.29544 260.93167 404.9523 262.27484 403.29544 262.27484C401.6386 262.27484 400.29544 260.93167 400.29544 259.27484C400.29544 257.61798 401.6386 256.27484 403.29544 256.27484C404.9523 256.27484 406.29544 257.61798 406.29544 259.27484Z" fill-rule="nonzero"/><path fill="#000000" fill-opacity="0.0" clip-path="url(#id_0)" d="M447.01364 245.93298C447.01364 247.58984 445.6705 248.93298 444.01364 248.93298C442.35678 248.93298 441.01364 247.58984 441.01364 245.93298C441.01364 244.27612 442.35678 242.93298 444.01364 242.93298C445.6705 242.93298 447.01364 244.27612 447.01364 245.93298Z" fill-rule="nonzero"/><path fill="#000000" fill-opacity="0.0" clip-path="url(#id_0)" d="M487.7318 234.65184C487.7318 236.30869 486.38867 237.65184 484.7318 237.65184C483.07495 237.65184 481.7318 236.30869 481.7318 234.65184C481.7318 232.99498 483.07495 231.65184 484.7318 231.65184C486.38867 231.65184 487.7318 232.99498 487.7318 234.65184Z" fill-rule="nonzero"/><path fill="#000000" fill-opacity="0.0" clip-path="url(#id_0)" d="M528.45 235.05544C528.45 236.7123 527.1069 238.05544 525.45 238.05544C523.79315 238.05544 522.45 236.7123 522.45 235.05544C522.45 233.39859 523.79315 232.05544 525.45 232.05544C527.1069 232.05544 528.45 233.39859 528.45 235.05544Z" fill-rule="nonzero"/><path fill="#000000" fill-opacity="0.0" clip-path="url(#id_0)" d="M80.55 298.17575C80.55 299.8326 79.206856 301.17575 77.55 301.17575C75.89314 301.17575 74.55 299.8326 74.55 298.17575C74.55 296.5189 75.89314 295.17575 77.55 295.17575C79.206856 295.17575 80.55 296.5189 80.55 298.17575Z" fill-rule="nonzero"/><path fill="#000000" fill-opacity="0.0" clip-path="url(#id_0)" d="M121.26818 297.7979C121.26818 299.45477 119.92503 300.7979 118.26818 300.7979C116.61133 300.7979 115.26818 299.45477 115.26818 297.7979C115.26818 296.14105 116.61133 294.7979 118.26818 294.7979C119.92503 294.7979 121.26818 296.14105 121.26818 297.7979Z" fill-rule="nonzero"/><path fill="#000000" fill-opacity="0.0" clip-path="url(#id_0)" d="M161.98636 295.62677C161.98636 297.28363 160.64322 298.62677 158.98636 298.62677C157.32951 298.62677 155.98636 297.28363 155.98636 295.62677C155.98636 293.96994 157.32951 292.62677 158.98636 292.62677C160.64322 292.62677 161.98636 293.96994 161.98636 295.62677Z" fill-rule="nonzero"/><path fill="#000000" fill-opacity="0.0" clip-path="url(#id_0)" d="M202.70454 294.18393C202.70454 295.8408 201.3614 297.18393 199.70454 297.18393C198.04768 297.18393 196.70454 295.8408 196.70454 294.18393C196.70454 292.52707 198.04768 291.18393 199.70454 291.18393C201.3614 291.18393 202.70454 292.52707 202.70454 294.18393Z" fill-rule="nonzero"/><path fill="#000000" fill-opacity="0.0" clip-path="url(#id_0)" d="M243.42273 295.67786C243.42273 297.33472 242.07957 298.67786 240.42273 298.67786C238.76587 298.67786 237.42273 297.33472 237.42273 295.67786C237.42273 294.021 238.76587 292.67786 240.42273 292.67786C242.07957 292.67786 243.42273 294.021 243.42273 295.67786Z" fill-rule="nonzero"/><path fill="#000000" fill-opacity="0.0" clip-path="url(#id_0)" d="M284.1409 290.3433C284.1409 292.00012 282.79776 293.3433 281.1409 293.3433C279.48407 293.3433 278.1409 292.00012 278.1409 290.3433C278.1409 288.68643 279.48407 287.3433 281.1409 287.3433C282.79776 287.3433 284.1409 288.68643 284.1409 290.3433Z" fill-rule="nonzero"/><path fill="#000000" fill-opacity="0.0" clip-path="url(#id_0)" d="M324.8591 283.27606C324.8591 284.93292 323.51593 286.27606 321.8591 286.27606C320.20224 286.27606 318.8591 284.93292 318.8591 283.27606C318.8591 281.6192 320.20224 280.27606 321.8591 280.27606C323.51593 280.27606 324.8591 281.6192 324.8591 283.27606Z" fill-rule="nonzero"/><path fill="#000000" fill-opacity="0.0" clip-path="url(#id_0)" d="M365.57727 265.8561C365.57727 267.51297 364.23413 268.8561 362.57727 268.8561C360.9204 268.8561 359.57727 267.51297 359.57727 265.8561C359.57727 264.19925 360.9204 262.8561 362.57727 262.8561C364.23413 262.8561 365.57727 264.19925 365.57727 265.8561Z" fill-rule="nonzero"/><path fill="#000000" fill-opacity="0.0" clip-path="url(#id_0)" d="M406.29544 243.41277C406.29544 245.06961 404.9523 246.41277 403.29544 246.41277C401.6386 246.41277 400.29544 245.06961 400.29544 243.41277C400.29544 241.7559 401.6386 240.41277 403.29544 240.41277C404.9523 240.41277 406.29544 241.7559 406.29544 243.41277Z" fill-rule="nonzero"/><path fill="#000000" fill-opacity="0.0" clip-path="url(#id_0)" d="M447.01364 205.5129C447.01364 207.16974 445.6705 208.5129 444.01364 208.5129C442.35678 208.5129 441.01364 207.16974 441.01364 205.5129C441.01364 203.85603 442.35678 202.5129 444.01364 202.5129C445.6705 202.5129 447.01364 203.85603 447.01364 205.5129Z" fill-rule="nonzero"/><path fill="#000000" fill-opacity="0.0" clip-path="url(#id_0)" d="M487.7318 133.13263C487.7318 134.78947 486.38867 136.13263 484.7318 136.13263C483.07495 136.13263 481.7318 134.78947 481.7318 133.13263C481.7318 131.47577 483.07495 130.13263 484.7318 130.13263C486.38867 130.13263 487.7318 131.47577 487.7318 133.13263Z" fill-rule="nonzero"/><path fill="#000000" fill-opacity="0.0" clip-path="url(#id_0)" d="M528.45 146.41595C528.45 148.0728 527.1069 149.41595 525.45 149.41595C523.79315 149.41595 522.45 148.0728 522.45 146.41595C522.45 144.7591 523.79315 143.41595 525.45 143.41595C527.1069 143.41595 528.45 144.7591 528.45 146.41595Z" fill-rule="nonzero"/><path fill="#000000" d="M270.54688 346.6844L271.60938 346.59064Q271.6875 347.2469 271.96875 347.65314Q272.25 348.0594 272.82812 348.325Q273.42188 348.575 274.15625 348.575Q274.79688 348.575 275.29688 348.3875Q275.79688 348.1844 276.03125 347.85626Q276.28125 347.5125 276.28125 347.1219Q276.28125 346.71564 276.04688 346.41876Q275.8125 346.10626 275.28125 345.90314Q274.92188 345.7625 273.73438 345.48126Q272.5625 345.2 272.09375 344.95Q271.46875 344.6219 271.17188 344.15314Q270.875 343.66876 270.875 343.075Q270.875 342.4344 271.23438 341.8719Q271.60938 341.29376 272.3125 341.0125Q273.03125 340.71564 273.89062 340.71564Q274.84375 340.71564 275.57812 341.02814Q276.3125 341.325 276.70312 341.9344Q277.09375 342.52814 277.125 343.27814L276.03125 343.35626Q275.9375 342.54376 275.42188 342.1375Q274.92188 341.71564 273.9375 341.71564Q272.90625 341.71564 272.4375 342.09064Q271.96875 342.46564 271.96875 342.9969Q271.96875 343.46564 272.29688 343.7625Q272.625 344.0594 274.0 344.3719Q275.39062 344.6844 275.90625 344.91876Q276.65625 345.27814 277.01562 345.8094Q277.375 346.325 277.375 347.02814Q277.375 347.71564 276.98438 348.325Q276.59375 348.91876 275.85938 349.2625Q275.125 349.59064 274.20312 349.59064Q273.03125 349.59064 272.23438 349.2625Q271.45312 348.91876 271.0 348.23126Q270.5625 347.54376 270.54688 346.6844ZM278.79688 342.075L278.79688 340.85626L279.85938 340.85626L279.85938 342.075L278.79688 342.075ZM278.79688 349.45L278.79688 343.23126L279.85938 343.23126L279.85938 349.45L278.79688 349.45ZM281.23438 349.45L281.23438 348.59064L285.20312 344.04376Q284.51562 344.075 284.0 344.075L281.46875 344.075L281.46875 343.23126L286.5625 343.23126L286.5625 343.91876L283.1875 347.8719L282.53125 348.59064Q283.25 348.54376 283.85938 348.54376L286.75 348.54376L286.75 349.45L281.23438 349.45ZM291.04688 347.45L292.14062 347.575Q291.89062 348.52814 291.1875 349.0594Q290.48438 349.59064 289.40625 349.59064Q288.04688 349.59064 287.23438 348.7469Q286.4375 347.90314 286.4375 346.3875Q286.4375 344.825 287.25 343.96564Q288.0625 343.09064 289.34375 343.09064Q290.59375 343.09064 291.375 343.9344Q292.17188 344.77814 292.17188 346.325Q292.17188 346.41876 292.17188 346.60626L287.53125 346.60626Q287.59375 347.6375 288.10938 348.1844Q288.625 348.71564 289.40625 348.71564Q289.98438 348.71564 290.39062 348.41876Q290.8125 348.10626 291.04688 347.45ZM287.59375 345.7469L291.0625 345.7469Q291.0 344.95 290.67188 344.5594Q290.15625 343.95 289.35938 343.95Q288.625 343.95 288.125 344.4344Q287.64062 344.91876 287.59375 345.7469ZM298.8125 351.98126Q297.9375 350.8719 297.32812 349.40314Q296.73438 347.91876 296.73438 346.34064Q296.73438 344.95 297.17188 343.66876Q297.70312 342.1844 298.8125 340.71564L299.5625 340.71564Q298.85938 341.9344 298.625 342.45Q298.26562 343.2625 298.0625 344.1375Q297.8125 345.23126 297.8125 346.34064Q297.8125 349.16876 299.5625 351.98126L298.8125 351.98126ZM301.76562 349.45L300.78125 349.45L300.78125 340.85626L301.84375 340.85626L301.84375 343.91876Q302.51562 343.09064 303.54688 343.09064Q304.125 343.09064 304.625 343.325Q305.14062 343.54376 305.46875 343.96564Q305.8125 344.3875 306.0 344.98126Q306.1875 345.575 306.1875 346.2469Q306.1875 347.84064 305.39062 348.71564Q304.59375 349.59064 303.5 349.59064Q302.39062 349.59064 301.76562 348.66876L301.76562 349.45ZM301.75 346.29376Q301.75 347.40314 302.0625 347.90314Q302.5625 348.71564 303.40625 348.71564Q304.09375 348.71564 304.59375 348.1219Q305.10938 347.52814 305.10938 346.325Q305.10938 345.10626 304.625 344.52814Q304.14062 343.95 303.45312 343.95Q302.76562 343.95 302.25 344.5594Q301.75 345.15314 301.75 346.29376ZM307.75 351.84064L307.625 350.85626Q307.96875 350.95 308.23438 350.95Q308.57812 350.95 308.78125 350.825Q309.0 350.71564 309.14062 350.5125Q309.23438 350.34064 309.46875 349.71564Q309.48438 349.6375 309.5625 349.46564L307.1875 343.23126L308.32812 343.23126L309.625 346.825Q309.875 347.5125 310.07812 348.27814Q310.26562 347.54376 310.51562 346.85626L311.84375 343.23126L312.89062 343.23126L310.53125 349.5594Q310.14062 350.575 309.9375 350.96564Q309.65625 351.4969 309.28125 351.73126Q308.92188 351.98126 308.42188 351.98126Q308.125 351.98126 307.75 351.84064ZM315.09375 348.5125L315.25 349.4344Q314.79688 349.52814 314.45312 349.52814Q313.875 349.52814 313.5625 349.35626Q313.25 349.16876 313.10938 348.8719Q312.98438 348.575 312.98438 347.6219L312.98438 344.04376L312.21875 344.04376L312.21875 343.23126L312.98438 343.23126L312.98438 341.6844L314.03125 341.0594L314.03125 343.23126L315.09375 343.23126L315.09375 344.04376L314.03125 344.04376L314.03125 347.6844Q314.03125 348.1375 314.07812 348.2625Q314.14062 348.3875 314.26562 348.46564Q314.39062 348.54376 314.625 348.54376Q314.8125 348.54376 315.09375 348.5125ZM320.04688 347.45L321.14062 347.575Q320.89062 348.52814 320.1875 349.0594Q319.48438 349.59064 318.40625 349.59064Q317.04688 349.59064 316.23438 348.7469Q315.4375 347.90314 315.4375 346.3875Q315.4375 344.825 316.25 343.96564Q317.0625 343.09064 318.34375 343.09064Q319.59375 343.09064 320.375 343.9344Q321.17188 344.77814 321.17188 346.325Q321.17188 346.41876 321.17188 346.60626L316.53125 346.60626Q316.59375 347.6375 317.10938 348.1844Q317.625 348.71564 318.40625 348.71564Q318.98438 348.71564 319.39062 348.41876Q319.8125 348.10626 320.04688 347.45ZM316.59375 345.7469L320.0625 345.7469Q320.0 344.95 319.67188 344.5594Q319.15625 343.95 318.35938 343.95Q317.625 343.95 317.125 344.4344Q316.64062 344.91876 316.59375 345.7469ZM322.375 347.59064L323.40625 347.4344Q323.5 348.0594 323.89062 348.3875Q324.29688 348.71564 325.03125 348.71564Q325.75 348.71564 326.09375 348.4344Q326.45312 348.1375 326.45312 347.73126Q326.45312 347.3719 326.14062 347.16876Q325.92188 347.02814 325.0625 346.8094Q323.90625 346.5125 323.45312 346.3094Q323.01562 346.09064 322.78125 345.71564Q322.54688 345.34064 322.54688 344.8719Q322.54688 344.46564 322.73438 344.10626Q322.92188 343.7469 323.25 343.5125Q323.5 343.34064 323.92188 343.21564Q324.34375 343.09064 324.84375 343.09064Q325.5625 343.09064 326.10938 343.3094Q326.67188 343.5125 326.9375 343.8719Q327.20312 344.23126 327.29688 344.825L326.26562 344.96564Q326.20312 344.4969 325.85938 344.23126Q325.53125 343.95 324.90625 343.95Q324.1875 343.95 323.875 344.2Q323.5625 344.4344 323.5625 344.7625Q323.5625 344.96564 323.6875 345.1219Q323.82812 345.29376 324.09375 345.40314Q324.25 345.46564 325.03125 345.66876Q326.15625 345.98126 326.59375 346.16876Q327.03125 346.35626 327.28125 346.71564Q327.53125 347.075 327.53125 347.6219Q327.53125 348.15314 327.21875 348.6219Q326.92188 349.075 326.34375 349.34064Q325.76562 349.59064 325.03125 349.59064Q323.8125 349.59064 323.17188 349.09064Q322.54688 348.575 322.375 347.59064ZM330.48438 351.98126L329.73438 351.98126Q331.48438 349.16876 331.48438 346.34064Q331.48438 345.2469 331.23438 344.15314Q331.03125 343.27814 330.67188 342.46564Q330.4375 341.95 329.73438 340.71564L330.48438 340.71564Q331.57812 342.1844 332.10938 343.66876Q332.5625 344.95 332.5625 346.34064Q332.5625 347.91876 331.95312 349.40314Q331.34375 350.8719 330.48438 351.98126Z" fill-rule="nonzero"/><path fill="#000000" d="M26.784388 265.3198L26.690638 264.2573Q27.346888 264.17917 27.753138 263.89792Q28.159388 263.61667 28.425013 263.03854Q28.675013 262.4448 28.675013 261.71042Q28.675013 261.0698 28.487513 260.5698Q28.284388 260.0698 27.956263 259.83542Q27.612513 259.58542 27.221888 259.58542Q26.815638 259.58542 26.518763 259.8198Q26.206263 260.05417 26.003138 260.58542Q25.862513 260.9448 25.581263 262.1323Q25.300013 263.30417 25.050013 263.77292Q24.721888 264.39792 24.253138 264.6948Q23.768763 264.99167 23.175013 264.99167Q22.534388 264.99167 21.971888 264.6323Q21.393763 264.2573 21.112513 263.55417Q20.815638 262.83542 20.815638 261.97604Q20.815638 261.02292 21.128138 260.28854Q21.425013 259.55417 22.034388 259.16354Q22.628138 258.77292 23.378138 258.74167L23.456263 259.83542Q22.643763 259.92917 22.237513 260.4448Q21.815638 260.9448 21.815638 261.92917Q21.815638 262.96042 22.190638 263.42917Q22.565638 263.89792 23.096888 263.89792Q23.565638 263.89792 23.862513 263.5698Q24.159388 263.24167 24.471888 261.86667Q24.784388 260.47604 25.018763 259.96042Q25.378138 259.21042 25.909388 258.85104Q26.425013 258.49167 27.128138 258.49167Q27.815638 258.49167 28.425013 258.8823Q29.018763 259.27292 29.362513 260.0073Q29.690638 260.74167 29.690638 261.66354Q29.690638 262.83542 29.362513 263.6323Q29.018763 264.41354 28.331263 264.86667Q27.643763 265.30417 26.784388 265.3198ZM31.940638 257.0698L23.331263 257.0698L23.331263 256.11667L24.128138 256.11667Q23.659388 255.77292 23.425013 255.35104Q23.190638 254.91354 23.190638 254.30417Q23.190638 253.5073 23.596888 252.89792Q24.003138 252.28854 24.753138 251.99167Q25.503138 251.67917 26.393763 251.67917Q27.346888 251.67917 28.112513 252.02292Q28.878138 252.35104 29.284388 253.0073Q29.690638 253.66354 29.690638 254.3823Q29.690638 254.91354 29.471888 255.33542Q29.237513 255.7573 28.909388 256.02292L31.940638 256.02292L31.940638 257.0698ZM26.471888 256.11667Q27.675013 256.11667 28.253138 255.6323Q28.815638 255.14792 28.815638 254.46042Q28.815638 253.7573 28.221888 253.2573Q27.628138 252.7573 26.378138 252.7573Q25.190638 252.7573 24.612513 253.24167Q24.018763 253.72604 24.018763 254.41354Q24.018763 255.08542 24.643763 255.60104Q25.268763 256.11667 26.471888 256.11667ZM27.550013 245.8198L27.675013 244.72604Q28.628138 244.97604 29.159388 245.67917Q29.690638 246.3823 29.690638 247.46042Q29.690638 248.8198 28.846888 249.6323Q28.003138 250.42917 26.487513 250.42917Q24.925013 250.42917 24.065638 249.61667Q23.190638 248.80417 23.190638 247.52292Q23.190638 246.27292 24.034388 245.49167Q24.878138 244.6948 26.425013 244.6948Q26.518763 244.6948 26.706263 244.6948L26.706263 249.33542Q27.737513 249.27292 28.284388 248.7573Q28.815638 248.24167 28.815638 247.46042Q28.815638 246.8823 28.518763 246.47604Q28.206263 246.05417 27.550013 245.8198ZM25.846888 249.27292L25.846888 245.80417Q25.050013 245.86667 24.659388 246.1948Q24.050013 246.71042 24.050013 247.5073Q24.050013 248.24167 24.534388 248.74167Q25.018763 249.22604 25.846888 249.27292ZM27.550013 238.8198L27.675013 237.72604Q28.628138 237.97604 29.159388 238.67917Q29.690638 239.3823 29.690638 240.46042Q29.690638 241.8198 28.846888 242.6323Q28.003138 243.42917 26.487513 243.42917Q24.925013 243.42917 24.065638 242.61667Q23.190638 241.80417 23.190638 240.52292Q23.190638 239.27292 24.034388 238.49167Q24.878138 237.6948 26.425013 237.6948Q26.518763 237.6948 26.706263 237.6948L26.706263 242.33542Q27.737513 242.27292 28.284388 241.7573Q28.815638 241.24167 28.815638 240.46042Q28.815638 239.8823 28.518763 239.47604Q28.206263 239.05417 27.550013 238.8198ZM25.846888 242.27292L25.846888 238.80417Q25.050013 238.86667 24.659388 239.1948Q24.050013 239.71042 24.050013 240.5073Q24.050013 241.24167 24.534388 241.74167Q25.018763 242.22604 25.846888 242.27292ZM29.550013 232.03854L28.768763 232.03854Q29.690638 232.6323 29.690638 233.77292Q29.690638 234.52292 29.284388 235.14792Q28.862513 235.77292 28.128138 236.11667Q27.393763 236.46042 26.440638 236.46042Q25.518763 236.46042 24.753138 236.14792Q23.987513 235.83542 23.596888 235.21042Q23.190638 234.58542 23.190638 233.8198Q23.190638 233.2573 23.425013 232.8198Q23.659388 232.3823 24.034388 232.10104L20.956263 232.10104L20.956263 231.05417L29.550013 231.05417L29.550013 232.03854ZM26.440638 235.36667Q27.643763 235.36667 28.237513 234.86667Q28.815638 234.36667 28.815638 233.67917Q28.815638 232.99167 28.253138 232.5073Q27.690638 232.02292 26.534388 232.02292Q25.253138 232.02292 24.659388 232.52292Q24.065638 233.0073 24.065638 233.72604Q24.065638 234.42917 24.643763 234.89792Q25.206263 235.36667 26.440638 235.36667ZM29.550013 221.99167L28.628138 221.99167Q29.690638 222.72604 29.690638 223.97604Q29.690638 224.52292 29.487513 225.0073Q29.268763 225.47604 28.956263 225.71042Q28.628138 225.9448 28.159388 226.03854Q27.862513 226.10104 27.175013 226.10104L23.331263 226.10104L23.331263 225.03854L26.784388 225.03854Q27.596888 225.03854 27.893763 224.97604Q28.300013 224.8823 28.550013 224.5698Q28.784388 224.24167 28.784388 223.7573Q28.784388 223.28854 28.550013 222.8823Q28.300013 222.46042 27.878138 222.28854Q27.456263 222.10104 26.659388 222.10104L23.331263 222.10104L23.331263 221.05417L29.550013 221.05417L29.550013 221.99167ZM31.940638 219.0698L23.331263 219.0698L23.331263 218.11667L24.128138 218.11667Q23.659388 217.77292 23.425013 217.35104Q23.190638 216.91354 23.190638 216.30417Q23.190638 215.5073 23.596888 214.89792Q24.003138 214.28854 24.753138 213.99167Q25.503138 213.67917 26.393763 213.67917Q27.346888 213.67917 28.112513 214.02292Q28.878138 214.35104 29.284388 215.0073Q29.690638 215.66354 29.690638 216.3823Q29.690638 216.91354 29.471888 217.33542Q29.237513 217.7573 28.909388 218.02292L31.940638 218.02292L31.940638 219.0698ZM26.471888 218.11667Q27.675013 218.11667 28.253138 217.6323Q28.815638 217.14792 28.815638 216.46042Q28.815638 215.7573 28.221888 215.2573Q27.628138 214.7573 26.378138 214.7573Q25.190638 214.7573 24.612513 215.24167Q24.018763 215.72604 24.018763 216.41354Q24.018763 217.08542 24.643763 217.60104Q25.268763 218.11667 26.471888 218.11667ZM26.440638 209.46042Q24.706263 209.46042 23.878138 208.5073Q23.190638 207.71042 23.190638 206.55417Q23.190638 205.27292 24.034388 204.46042Q24.862513 203.6323 26.346888 203.6323Q27.550013 203.6323 28.237513 203.99167Q28.925013 204.35104 29.315638 205.05417Q29.690638 205.74167 29.690638 206.55417Q29.690638 207.85104 28.862513 208.66354Q28.018763 209.46042 26.440638 209.46042ZM26.440638 208.3823Q27.628138 208.3823 28.221888 207.86667Q28.815638 207.33542 28.815638 206.55417Q28.815638 205.7573 28.221888 205.24167Q27.628138 204.72604 26.409388 204.72604Q25.253138 204.72604 24.659388 205.2573Q24.065638 205.77292 24.065638 206.55417Q24.065638 207.33542 24.659388 207.86667Q25.237513 208.3823 26.440638 208.3823ZM29.550013 200.35104L23.331263 202.71042L23.331263 201.60104L27.050013 200.2573Q27.659388 200.05417 28.300013 199.86667Q27.815638 199.72604 27.128138 199.47604L23.331263 198.08542L23.331263 197.0073L29.550013 199.36667L29.550013 200.35104ZM27.550013 192.8198L27.675013 191.72604Q28.628138 191.97604 29.159388 192.67917Q29.690638 193.3823 29.690638 194.46042Q29.690638 195.8198 28.846888 196.6323Q28.003138 197.42917 26.487513 197.42917Q24.925013 197.42917 24.065638 196.61667Q23.190638 195.80417 23.190638 194.52292Q23.190638 193.27292 24.034388 192.49167Q24.878138 191.6948 26.425013 191.6948Q26.518763 191.6948 26.706263 191.6948L26.706263 196.33542Q27.737513 196.27292 28.284388 195.7573Q28.815638 195.24167 28.815638 194.46042Q28.815638 193.8823 28.518763 193.47604Q28.206263 193.05417 27.550013 192.8198ZM25.846888 196.27292L25.846888 192.80417Q25.050013 192.86667 24.659388 193.1948Q24.050013 193.71042 24.050013 194.5073Q24.050013 195.24167 24.534388 195.74167Q25.018763 196.22604 25.846888 196.27292ZM29.550013 190.08542L23.331263 190.08542L23.331263 189.1323L24.268763 189.1323Q23.612513 188.77292 23.409388 188.47604Q23.190638 188.16354 23.190638 187.78854Q23.190638 187.2573 23.518763 186.71042L24.503138 187.0698Q24.268763 187.46042 24.268763 187.83542Q24.268763 188.1948 24.487513 188.47604Q24.690638 188.74167 25.065638 188.85104Q25.628138 189.03854 26.284388 189.03854L29.550013 189.03854L29.550013 190.08542ZM29.550013 182.10104L29.550013 183.08542L20.956263 183.08542L20.956263 182.02292L24.018763 182.02292Q23.190638 181.35104 23.190638 180.3198Q23.190638 179.74167 23.425013 179.24167Q23.643763 178.72604 24.065638 178.39792Q24.487513 178.05417 25.081263 177.86667Q25.675013 177.67917 26.346888 177.67917Q27.940638 177.67917 28.815638 178.47604Q29.690638 179.27292 29.690638 180.36667Q29.690638 181.47604 28.768763 182.10104L29.550013 182.10104ZM26.393763 182.11667Q27.503138 182.11667 28.003138 181.80417Q28.815638 181.30417 28.815638 180.46042Q28.815638 179.77292 28.221888 179.27292Q27.628138 178.7573 26.425013 178.7573Q25.206263 178.7573 24.628138 179.24167Q24.050013 179.72604 24.050013 180.41354Q24.050013 181.10104 24.659388 181.61667Q25.253138 182.11667 26.393763 182.11667ZM28.784388 172.0073Q29.284388 172.60104 29.487513 173.14792Q29.690638 173.67917 29.690638 174.30417Q29.690638 175.33542 29.190638 175.8823Q28.690638 176.42917 27.909388 176.42917Q27.456263 176.42917 27.081263 176.22604Q26.690638 176.02292 26.471888 175.67917Q26.237513 175.33542 26.128138 174.91354Q26.034388 174.61667 25.956263 173.97604Q25.815638 172.71042 25.596888 172.10104Q25.378138 172.10104 25.331263 172.10104Q24.675013 172.10104 24.409388 172.39792Q24.065638 172.80417 24.065638 173.60104Q24.065638 174.33542 24.331263 174.6948Q24.581263 175.05417 25.237513 175.22604L25.096888 176.2573Q24.440638 176.11667 24.034388 175.78854Q23.628138 175.46042 23.409388 174.85104Q23.190638 174.24167 23.190638 173.4448Q23.190638 172.64792 23.378138 172.14792Q23.565638 171.64792 23.846888 171.41354Q24.128138 171.17917 24.565638 171.08542Q24.831263 171.03854 25.534388 171.03854L26.940638 171.03854Q28.409388 171.03854 28.800013 170.97604Q29.190638 170.89792 29.550013 170.6948L29.550013 171.80417Q29.221888 171.96042 28.784388 172.0073ZM26.425013 172.10104Q26.659388 172.67917 26.831263 173.8198Q26.925013 174.47604 27.050013 174.74167Q27.159388 175.0073 27.378138 175.16354Q27.596888 175.30417 27.878138 175.30417Q28.300013 175.30417 28.581263 174.99167Q28.862513 174.66354 28.862513 174.05417Q28.862513 173.4448 28.596888 172.97604Q28.331263 172.49167 27.862513 172.27292Q27.503138 172.10104 26.815638 172.10104L26.425013 172.10104ZM27.690638 169.49167L27.534388 168.46042Q28.159388 168.36667 28.487513 167.97604Q28.815638 167.5698 28.815638 166.83542Q28.815638 166.11667 28.534388 165.77292Q28.237513 165.41354 27.831263 165.41354Q27.471888 165.41354 27.268763 165.72604Q27.128138 165.9448 26.909388 166.80417Q26.612513 167.96042 26.409388 168.41354Q26.190638 168.85104 25.815638 169.08542Q25.440638 169.3198 24.971888 169.3198Q24.565638 169.3198 24.206263 169.1323Q23.846888 168.9448 23.612513 168.61667Q23.440638 168.36667 23.315638 167.9448Q23.190638 167.52292 23.190638 167.02292Q23.190638 166.30417 23.409388 165.7573Q23.612513 165.1948 23.971888 164.92917Q24.331263 164.66354 24.925013 164.5698L25.065638 165.60104Q24.596888 165.66354 24.331263 166.0073Q24.050013 166.33542 24.050013 166.96042Q24.050013 167.67917 24.300013 167.99167Q24.534388 168.30417 24.862513 168.30417Q25.065638 168.30417 25.221888 168.17917Q25.393763 168.03854 25.503138 167.77292Q25.565638 167.61667 25.768763 166.83542Q26.081263 165.71042 26.268763 165.27292Q26.456263 164.83542 26.815638 164.58542Q27.175013 164.33542 27.721888 164.33542Q28.253138 164.33542 28.721888 164.64792Q29.175013 164.9448 29.440638 165.52292Q29.690638 166.10104 29.690638 166.83542Q29.690638 168.05417 29.190638 168.6948Q28.675013 169.3198 27.690638 169.49167ZM27.550013 157.8198L27.675013 156.72604Q28.628138 156.97604 29.159388 157.67917Q29.690638 158.3823 29.690638 159.46042Q29.690638 160.8198 28.846888 161.6323Q28.003138 162.42917 26.487513 162.42917Q24.925013 162.42917 24.065638 161.61667Q23.190638 160.80417 23.190638 159.52292Q23.190638 158.27292 24.034388 157.49167Q24.878138 156.6948 26.425013 156.6948Q26.518763 156.6948 26.706263 156.6948L26.706263 161.33542Q27.737513 161.27292 28.284388 160.7573Q28.815638 160.24167 28.815638 159.46042Q28.815638 158.8823 28.518763 158.47604Q28.206263 158.05417 27.550013 157.8198ZM25.846888 161.27292L25.846888 157.80417Q25.050013 157.86667 24.659388 158.1948Q24.050013 158.71042 24.050013 159.5073Q24.050013 160.24167 24.534388 160.74167Q25.018763 161.22604 25.846888 161.27292ZM29.550013 155.10104L20.956263 155.10104L20.956263 154.03854L29.550013 154.03854L29.550013 155.10104ZM22.175013 152.0698L20.956263 152.0698L20.956263 151.0073L22.175013 151.0073L22.175013 152.0698ZM29.550013 152.0698L23.331263 152.0698L23.331263 151.0073L29.550013 151.0073L29.550013 152.0698ZM29.550013 149.0698L23.331263 149.0698L23.331263 148.1323L24.206263 148.1323Q23.190638 147.4448 23.190638 146.14792Q23.190638 145.58542 23.393763 145.11667Q23.596888 144.6323 23.925013 144.39792Q24.253138 144.16354 24.690638 144.0698Q24.987513 144.02292 25.721888 144.02292L29.550013 144.02292L29.550013 145.0698L25.768763 145.0698Q25.112513 145.0698 24.800013 145.1948Q24.487513 145.3198 24.300013 145.6323Q24.096888 145.9448 24.096888 146.36667Q24.096888 147.03854 24.534388 147.53854Q24.956263 148.02292 26.143763 148.02292L29.550013 148.02292L29.550013 149.0698ZM27.550013 137.8198L27.675013 136.72604Q28.628138 136.97604 29.159388 137.67917Q29.690638 138.3823 29.690638 139.46042Q29.690638 140.8198 28.846888 141.6323Q28.003138 142.42917 26.487513 142.42917Q24.925013 142.42917 24.065638 141.61667Q23.190638 140.80417 23.190638 139.52292Q23.190638 138.27292 24.034388 137.49167Q24.878138 136.6948 26.425013 136.6948Q26.518763 136.6948 26.706263 136.6948L26.706263 141.33542Q27.737513 141.27292 28.284388 140.7573Q28.815638 140.24167 28.815638 139.46042Q28.815638 138.8823 28.518763 138.47604Q28.206263 138.05417 27.550013 137.8198ZM25.846888 141.27292L25.846888 137.80417Q25.050013 137.86667 24.659388 138.1948Q24.050013 138.71042 24.050013 139.5073Q24.050013 140.24167 24.534388 140.74167Q25.018763 141.22604 25.846888 141.27292Z" fill-rule="nonzero"/><path fill="#000000" d="M65.05 300.21564Q65.05 298.6844 65.3625 297.7625Q65.675 296.825 66.28438 296.325Q66.90938 295.825 67.84688 295.825Q68.53438 295.825 69.05 296.10626Q69.58125 296.3875 69.925 296.91876Q70.26875 297.4344 70.45625 298.1844Q70.64375 298.9344 70.64375 300.21564Q70.64375 301.73126 70.33125 302.65314Q70.03438 303.575 69.40938 304.09064Q68.8 304.59064 67.84688 304.59064Q66.6125 304.59064 65.89375 303.7Q65.05 302.6375 65.05 300.21564ZM66.12813 300.21564Q66.12813 302.325 66.62813 303.02814Q67.12813 303.73126 67.84688 303.73126Q68.58125 303.73126 69.06563 303.02814Q69.56563 302.325 69.56563 300.21564Q69.56563 298.09064 69.06563 297.40314Q68.58125 296.7 67.83125 296.7Q67.1125 296.7 66.675 297.3094Q66.12813 298.09064 66.12813 300.21564Z" fill-rule="nonzero"/><path fill="#000000" d="M63.596874 250.39272L63.596874 251.40834L57.909374 251.40834Q57.909374 251.03334 58.034374 250.67397Q58.253124 250.09584 58.721874 249.53334Q59.20625 248.97084 60.1125 248.23647Q61.51875 247.08022 62.003124 246.40834Q62.503124 245.73647 62.503124 245.14272Q62.503124 244.51772 62.05 244.09584Q61.596874 243.65834 60.878124 243.65834Q60.1125 243.65834 59.659374 244.11147Q59.20625 244.56459 59.190624 245.37709L58.1125 245.26772Q58.221874 244.04897 58.940624 243.42397Q59.675 242.78334 60.909374 242.78334Q62.14375 242.78334 62.8625 243.47084Q63.58125 244.15834 63.58125 245.17397Q63.58125 245.68959 63.3625 246.18959Q63.159374 246.67397 62.659374 247.23647Q62.175 247.78334 61.05 248.73647Q60.096874 249.53334 59.815624 249.83022Q59.55 250.11147 59.378124 250.39272L63.596874 250.39272ZM65.05 247.17397Q65.05 245.64272 65.3625 244.72084Q65.675 243.78334 66.28438 243.28334Q66.90938 242.78334 67.84688 242.78334Q68.53438 242.78334 69.05 243.06459Q69.58125 243.34584 69.925 243.87709Q70.26875 244.39272 70.45625 245.14272Q70.64375 245.89272 70.64375 247.17397Q70.64375 248.68959 70.33125 249.61147Q70.03438 250.53334 69.40938 251.04897Q68.8 251.54897 67.84688 251.54897Q66.6125 251.54897 65.89375 250.65834Q65.05 249.59584 65.05 247.17397ZM66.12813 247.17397Q66.12813 249.28334 66.62813 249.98647Q67.12813 250.68959 67.84688 250.68959Q68.58125 250.68959 69.06563 249.98647Q69.56563 249.28334 69.56563 247.17397Q69.56563 245.04897 69.06563 244.36147Q68.58125 243.65834 67.83125 243.65834Q67.1125 243.65834 66.675 244.26772Q66.12813 245.04897 66.12813 247.17397Z" fill-rule="nonzero"/><path fill="#000000" d="M61.425 198.36667L61.425 196.30417L57.70625 196.30417L57.70625 195.33542L61.628124 189.77292L62.4875 189.77292L62.4875 195.33542L63.64375 195.33542L63.64375 196.30417L62.4875 196.30417L62.4875 198.36667L61.425 198.36667ZM61.425 195.33542L61.425 191.47604L58.7375 195.33542L61.425 195.33542ZM65.05 194.1323Q65.05 192.60104 65.3625 191.67917Q65.675 190.74167 66.28438 190.24167Q66.90938 189.74167 67.84688 189.74167Q68.53438 189.74167 69.05 190.02292Q69.58125 190.30417 69.925 190.83542Q70.26875 191.35104 70.45625 192.10104Q70.64375 192.85104 70.64375 194.1323Q70.64375 195.64792 70.33125 196.5698Q70.03438 197.49167 69.40938 198.0073Q68.8 198.5073 67.84688 198.5073Q66.6125 198.5073 65.89375 197.61667Q65.05 196.55417 65.05 194.1323ZM66.12813 194.1323Q66.12813 196.24167 66.62813 196.9448Q67.12813 197.64792 67.84688 197.64792Q68.58125 197.64792 69.06563 196.9448Q69.56563 196.24167 69.56563 194.1323Q69.56563 192.0073 69.06563 191.3198Q68.58125 190.61667 67.83125 190.61667Q67.1125 190.61667 66.675 191.22604Q66.12813 192.0073 66.12813 194.1323Z" fill-rule="nonzero"/><path fill="#000000" d="M63.51875 138.84062L62.471874 138.91875Q62.33125 138.29375 62.08125 138.0125Q61.64375 137.55937 61.01875 137.55937Q60.51875 137.55937 60.128124 137.84062Q59.64375 138.21562 59.346874 138.91875Q59.065624 139.60625 59.05 140.8875Q59.425 140.30937 59.971874 140.02812Q60.534374 139.74687 61.14375 139.74687Q62.190624 139.74687 62.925 140.52812Q63.675 141.30937 63.675 142.52812Q63.675 143.34062 63.315624 144.04375Q62.971874 144.73125 62.3625 145.10625Q61.753124 145.46562 60.9875 145.46562Q59.659374 145.46562 58.83125 144.49687Q58.003124 143.52812 58.003124 141.30937Q58.003124 138.80937 58.925 137.68437Q59.721874 136.7 61.08125 136.7Q62.096874 136.7 62.7375 137.27812Q63.39375 137.84062 63.51875 138.84062ZM59.221874 142.54375Q59.221874 143.09062 59.440624 143.59062Q59.675 144.075 60.08125 144.34062Q60.503124 144.60625 60.971874 144.60625Q61.628124 144.60625 62.1125 144.075Q62.596874 143.52812 62.596874 142.60625Q62.596874 141.71562 62.1125 141.2Q61.64375 140.68437 60.925 140.68437Q60.20625 140.68437 59.70625 141.2Q59.221874 141.71562 59.221874 142.54375ZM65.05 141.09062Q65.05 139.55937 65.3625 138.6375Q65.675 137.7 66.28438 137.2Q66.90938 136.7 67.84688 136.7Q68.53438 136.7 69.05 136.98125Q69.58125 137.2625 69.925 137.79375Q70.26875 138.30937 70.45625 139.05937Q70.64375 139.80937 70.64375 141.09062Q70.64375 142.60625 70.33125 143.52812Q70.03438 144.45 69.40938 144.96562Q68.8 145.46562 67.84688 145.46562Q66.6125 145.46562 65.89375 144.575Q65.05 143.5125 65.05 141.09062ZM66.12813 141.09062Q66.12813 143.2 66.62813 143.90312Q67.12813 144.60625 67.84688 144.60625Q68.58125 144.60625 69.06563 143.90312Q69.56563 143.2 69.56563 141.09062Q69.56563 138.96562 69.06563 138.27812Q68.58125 137.575 67.83125 137.575Q67.1125 137.575 66.675 138.18437Q66.12813 138.96562 66.12813 141.09062Z" fill-rule="nonzero"/><path fill="#000000" d="M59.675 87.62708Q59.01875 87.37708 58.690624 86.93958Q58.378124 86.48646 58.378124 85.87708Q58.378124 84.93958 59.05 84.29896Q59.7375 83.65833 60.846874 83.65833Q61.971874 83.65833 62.659374 84.31458Q63.346874 84.97083 63.346874 85.90833Q63.346874 86.50208 63.034374 86.93958Q62.721874 87.37708 62.08125 87.62708Q62.878124 87.87708 63.284374 88.45521Q63.690624 89.03333 63.690624 89.83021Q63.690624 90.92396 62.909374 91.67396Q62.14375 92.42396 60.8625 92.42396Q59.596874 92.42396 58.815624 91.67396Q58.034374 90.92396 58.034374 89.79896Q58.034374 88.95521 58.45625 88.39271Q58.89375 87.83021 59.675 87.62708ZM59.45625 85.83021Q59.45625 86.43958 59.846874 86.83021Q60.253124 87.22083 60.878124 87.22083Q61.4875 87.22083 61.878124 86.84583Q62.26875 86.45521 62.26875 85.89271Q62.26875 85.31458 61.8625 84.92396Q61.45625 84.51771 60.8625 84.51771Q60.253124 84.51771 59.846874 84.90833Q59.45625 85.29896 59.45625 85.83021ZM59.128124 89.79896Q59.128124 90.25208 59.33125 90.67396Q59.55 91.09583 59.971874 91.33021Q60.39375 91.56458 60.878124 91.56458Q61.628124 91.56458 62.1125 91.08021Q62.6125 90.59583 62.6125 89.84583Q62.6125 89.08021 62.1125 88.58021Q61.6125 88.08021 60.846874 88.08021Q60.096874 88.08021 59.6125 88.58021Q59.128124 89.06458 59.128124 89.79896ZM65.05 88.04896Q65.05 86.51771 65.3625 85.59583Q65.675 84.65833 66.28438 84.15833Q66.90938 83.65833 67.84688 83.65833Q68.53438 83.65833 69.05 83.93958Q69.58125 84.22083 69.925 84.75208Q70.26875 85.26771 70.45625 86.01771Q70.64375 86.76771 70.64375 88.04896Q70.64375 89.56458 70.33125 90.48646Q70.03438 91.40833 69.40938 91.92396Q68.8 92.42396 67.84688 92.42396Q66.6125 92.42396 65.89375 91.53333Q65.05 90.47083 65.05 88.04896ZM66.12813 88.04896Q66.12813 90.15833 66.62813 90.86146Q67.12813 91.56458 67.84688 91.56458Q68.58125 91.56458 69.06563 90.86146Q69.56563 90.15833 69.56563 88.04896Q69.56563 85.92396 69.06563 85.23646Q68.58125 84.53333 67.83125 84.53333Q67.1125 84.53333 66.675 85.14271Q66.12813 85.92396 66.12813 88.04896Z" fill-rule="nonzero"/><path fill="#000000" d="M78.51875 317.45L77.47188 317.45L77.47188 310.73126Q77.08125 311.09064 76.45625 311.46564Q75.84688 311.825 75.3625 311.9969L75.3625 310.98126Q76.2375 310.5594 76.89375 309.98126Q77.56563 309.3875 77.84688 308.825L78.51875 308.825L78.51875 317.45Z" fill-rule="nonzero"/><path fill="#000000" d="M210.28162 317.45L209.23474 317.45L209.23474 310.73126Q208.84412 311.09064 208.21912 311.46564Q207.60974 311.825 207.12537 311.9969L207.12537 310.98126Q208.00037 310.5594 208.65662 309.98126Q209.32849 309.3875 209.60974 308.825L210.28162 308.825L210.28162 317.45ZM213.31287 313.21564Q213.31287 311.6844 213.62537 310.7625Q213.93787 309.825 214.54724 309.325Q215.17224 308.825 216.10974 308.825Q216.79724 308.825 217.31287 309.10626Q217.84412 309.3875 218.18787 309.91876Q218.53162 310.4344 218.71912 311.1844Q218.90662 311.9344 218.90662 313.21564Q218.90662 314.73126 218.59412 315.65314Q218.29724 316.575 217.67224 317.09064Q217.06287 317.59064 216.10974 317.59064Q214.87537 317.59064 214.15662 316.7Q213.31287 315.6375 213.31287 313.21564ZM214.39099 313.21564Q214.39099 315.325 214.89099 316.02814Q215.39099 316.73126 216.10974 316.73126Q216.84412 316.73126 217.32849 316.02814Q217.82849 315.325 217.82849 313.21564Q217.82849 311.09064 217.32849 310.40314Q216.84412 309.7 216.09412 309.7Q215.37537 309.7 214.93787 310.3094Q214.39099 311.09064 214.39099 313.21564Z" fill-rule="nonzero"/><path fill="#000000" d="M342.0445 317.45L340.99762 317.45L340.99762 310.73126Q340.607 311.09064 339.982 311.46564Q339.37262 311.825 338.88824 311.9969L338.88824 310.98126Q339.76324 310.5594 340.4195 309.98126Q341.09137 309.3875 341.37262 308.825L342.0445 308.825L342.0445 317.45ZM345.07574 313.21564Q345.07574 311.6844 345.38824 310.7625Q345.70074 309.825 346.31012 309.325Q346.93512 308.825 347.87262 308.825Q348.56012 308.825 349.07574 309.10626Q349.607 309.3875 349.95074 309.91876Q350.2945 310.4344 350.482 311.1844Q350.6695 311.9344 350.6695 313.21564Q350.6695 314.73126 350.357 315.65314Q350.06012 316.575 349.43512 317.09064Q348.82574 317.59064 347.87262 317.59064Q346.63824 317.59064 345.9195 316.7Q345.07574 315.6375 345.07574 313.21564ZM346.15387 313.21564Q346.15387 315.325 346.65387 316.02814Q347.15387 316.73126 347.87262 316.73126Q348.607 316.73126 349.09137 316.02814Q349.59137 315.325 349.59137 313.21564Q349.59137 311.09064 349.09137 310.40314Q348.607 309.7 347.857 309.7Q347.13824 309.7 346.70074 310.3094Q346.15387 311.09064 346.15387 313.21564ZM352.07574 313.21564Q352.07574 311.6844 352.38824 310.7625Q352.70074 309.825 353.31012 309.325Q353.93512 308.825 354.87262 308.825Q355.56012 308.825 356.07574 309.10626Q356.607 309.3875 356.95074 309.91876Q357.2945 310.4344 357.482 311.1844Q357.6695 311.9344 357.6695 313.21564Q357.6695 314.73126 357.357 315.65314Q357.06012 316.575 356.43512 317.09064Q355.82574 317.59064 354.87262 317.59064Q353.63824 317.59064 352.9195 316.7Q352.07574 315.6375 352.07574 313.21564ZM353.15387 313.21564Q353.15387 315.325 353.65387 316.02814Q354.15387 316.73126 354.87262 316.73126Q355.607 316.73126 356.09137 316.02814Q356.59137 315.325 356.59137 313.21564Q356.59137 311.09064 356.09137 310.40314Q355.607 309.7 354.857 309.7Q354.13824 309.7 353.70074 310.3094Q353.15387 311.09064 353.15387 313.21564Z" fill-rule="nonzero"/><path fill="#000000" d="M473.80737 317.45L472.7605 317.45L472.7605 310.73126Q472.36987 311.09064 471.74487 311.46564Q471.1355 311.825 470.65112 311.9969L470.65112 310.98126Q471.52612 310.5594 472.18237 309.98126Q472.85425 309.3875 473.1355 308.825L473.80737 308.825L473.80737 317.45ZM476.83862 313.21564Q476.83862 311.6844 477.15112 310.7625Q477.46362 309.825 478.073 309.325Q478.698 308.825 479.6355 308.825Q480.323 308.825 480.83862 309.10626Q481.36987 309.3875 481.71362 309.91876Q482.05737 310.4344 482.24487 311.1844Q482.43237 311.9344 482.43237 313.21564Q482.43237 314.73126 482.11987 315.65314Q481.823 316.575 481.198 317.09064Q480.58862 317.59064 479.6355 317.59064Q478.40112 317.59064 477.68237 316.7Q476.83862 315.6375 476.83862 313.21564ZM477.91675 313.21564Q477.91675 315.325 478.41675 316.02814Q478.91675 316.73126 479.6355 316.73126Q480.36987 316.73126 480.85425 316.02814Q481.35425 315.325 481.35425 313.21564Q481.35425 311.09064 480.85425 310.40314Q480.36987 309.7 479.61987 309.7Q478.90112 309.7 478.46362 310.3094Q477.91675 311.09064 477.91675 313.21564ZM483.83862 313.21564Q483.83862 311.6844 484.15112 310.7625Q484.46362 309.825 485.073 309.325Q485.698 308.825 486.6355 308.825Q487.323 308.825 487.83862 309.10626Q488.36987 309.3875 488.71362 309.91876Q489.05737 310.4344 489.24487 311.1844Q489.43237 311.9344 489.43237 313.21564Q489.43237 314.73126 489.11987 315.65314Q488.823 316.575 488.198 317.09064Q487.58862 317.59064 486.6355 317.59064Q485.40112 317.59064 484.68237 316.7Q483.83862 315.6375 483.83862 313.21564ZM484.91675 313.21564Q484.91675 315.325 485.41675 316.02814Q485.91675 316.73126 486.6355 316.73126Q487.36987 316.73126 487.85425 316.02814Q488.35425 315.325 488.35425 313.21564Q488.35425 311.09064 487.85425 310.40314Q487.36987 309.7 486.61987 309.7Q485.90112 309.7 485.46362 310.3094Q484.91675 311.09064 484.91675 313.21564ZM490.83862 313.21564Q490.83862 311.6844 491.15112 310.7625Q491.46362 309.825 492.073 309.325Q492.698 308.825 493.6355 308.825Q494.323 308.825 494.83862 309.10626Q495.36987 309.3875 495.71362 309.91876Q496.05737 310.4344 496.24487 311.1844Q496.43237 311.9344 496.43237 313.21564Q496.43237 314.73126 496.11987 315.65314Q495.823 316.575 495.198 317.09064Q494.58862 317.59064 493.6355 317.59064Q492.40112 317.59064 491.68237 316.7Q490.83862 315.6375 490.83862 313.21564ZM491.91675 313.21564Q491.91675 315.325 492.41675 316.02814Q492.91675 316.73126 493.6355 316.73126Q494.36987 316.73126 494.85425 316.02814Q495.35425 315.325 495.35425 313.21564Q495.35425 311.09064 494.85425 310.40314Q494.36987 309.7 493.61987 309.7Q492.90112 309.7 492.46362 310.3094Q491.91675 311.09064 491.91675 313.21564Z" fill-rule="nonzero"/><path stroke="#ea4335" stroke-width="4.0" stroke-linecap="butt" d="M88.5 61.916668L100.5 61.916668" fill-rule="nonzero"/><path fill="#1a1a1a" d="M109.390625 65.916664L109.390625 57.322914L111.109375 57.322914L113.140625 63.40104Q113.421875 64.260414 113.546875 64.68229Q113.6875 64.21354 114.0 63.30729L116.0625 57.322914L117.59375 57.322914L117.59375 65.916664L116.5 65.916664L116.5 58.729164L114.0 65.916664L112.96875 65.916664L110.484375 58.604164L110.484375 65.916664L109.390625 65.916664ZM122.359375 65.15104Q121.765625 65.65104 121.21875 65.854164Q120.6875 66.05729 120.0625 66.05729Q119.03125 66.05729 118.484375 65.55729Q117.9375 65.05729 117.9375 64.27604Q117.9375 63.822914 118.140625 63.447914Q118.34375 63.05729 118.6875 62.83854Q119.03125 62.604164 119.453125 62.49479Q119.75 62.40104 120.390625 62.322914Q121.65625 62.18229 122.265625 61.96354Q122.265625 61.74479 122.265625 61.697914Q122.265625 61.041664 121.96875 60.77604Q121.5625 60.43229 120.765625 60.43229Q120.03125 60.43229 119.671875 60.697914Q119.3125 60.947914 119.140625 61.604164L118.109375 61.46354Q118.25 60.80729 118.578125 60.40104Q118.90625 59.99479 119.515625 59.77604Q120.125 59.55729 120.921875 59.55729Q121.71875 59.55729 122.21875 59.74479Q122.71875 59.93229 122.953125 60.21354Q123.1875 60.49479 123.28125 60.93229Q123.328125 61.197914 123.328125 61.90104L123.328125 63.30729Q123.328125 64.77604 123.390625 65.166664Q123.46875 65.55729 123.671875 65.916664L122.5625 65.916664Q122.40625 65.58854 122.359375 65.15104ZM122.265625 62.791664Q121.6875 63.02604 120.546875 63.197914Q119.890625 63.291664 119.625 63.416664Q119.359375 63.52604 119.203125 63.74479Q119.0625 63.96354 119.0625 64.24479Q119.0625 64.666664 119.375 64.947914Q119.703125 65.229164 120.3125 65.229164Q120.921875 65.229164 121.390625 64.96354Q121.875 64.697914 122.09375 64.229164Q122.265625 63.86979 122.265625 63.18229L122.265625 62.791664ZM124.59375 65.916664L126.859375 62.68229L124.765625 59.697914L126.078125 59.697914L127.03125 61.15104Q127.296875 61.572914 127.46875 61.854164Q127.71875 61.46354 127.9375 61.166664L128.98438 59.697914L130.25 59.697914L128.09375 62.61979L130.40625 65.916664L129.125 65.916664L127.84375 63.979164L127.5 63.46354L125.859375 65.916664L124.59375 65.916664Z" fill-rule="nonzero"/><path stroke="#fbbc04" stroke-width="4.0" stroke-linecap="butt" d="M145.5 61.916668L157.5 61.916668" fill-rule="nonzero"/><path fill="#1a1a1a" d="M166.46875 65.916664L166.46875 57.322914L167.59375 57.322914L167.59375 60.854164L172.0625 60.854164L172.0625 57.322914L173.20312 57.322914L173.20312 65.916664L172.0625 65.916664L172.0625 61.86979L167.59375 61.86979L167.59375 65.916664L166.46875 65.916664ZM181.5625 62.90104L182.6875 63.197914Q182.32812 64.58854 181.40625 65.322914Q180.48438 66.05729 179.14062 66.05729Q177.75 66.05729 176.875 65.49479Q176.0 64.93229 175.54688 63.86979Q175.09375 62.791664 175.09375 61.55729Q175.09375 60.21354 175.60938 59.21354Q176.125 58.21354 177.0625 57.697914Q178.01562 57.18229 179.15625 57.18229Q180.4375 57.18229 181.3125 57.83854Q182.20312 58.49479 182.54688 59.68229L181.42188 59.947914Q181.125 59.010414 180.54688 58.58854Q179.98438 58.15104 179.125 58.15104Q178.14062 58.15104 177.46875 58.635414Q176.8125 59.104164 176.53125 59.90104Q176.26562 60.697914 176.26562 61.55729Q176.26562 62.65104 176.57812 63.46354Q176.90625 64.27604 177.57812 64.68229Q178.25 65.08854 179.04688 65.08854Q180.0 65.08854 180.65625 64.541664Q181.32812 63.99479 181.5625 62.90104Z" fill-rule="nonzero"/><path stroke="#34a853" stroke-width="4.0" stroke-linecap="butt" d="M199.5 61.916668L211.5 61.916668" fill-rule="nonzero"/><path fill="#1a1a1a" d="M220.46875 65.916664L220.46875 57.322914L221.59375 57.322914L221.59375 60.854164L226.0625 60.854164L226.0625 57.322914L227.20312 57.322914L227.20312 65.916664L226.0625 65.916664L226.0625 61.86979L221.59375 61.86979L221.59375 65.916664L220.46875 65.916664ZM235.5625 62.90104L236.6875 63.197914Q236.32812 64.58854 235.40625 65.322914Q234.48438 66.05729 233.14062 66.05729Q231.75 66.05729 230.875 65.49479Q230.0 64.93229 229.54688 63.86979Q229.09375 62.791664 229.09375 61.55729Q229.09375 60.21354 229.60938 59.21354Q230.125 58.21354 231.0625 57.697914Q232.01562 57.18229 233.15625 57.18229Q234.4375 57.18229 235.3125 57.83854Q236.20312 58.49479 236.54688 59.68229L235.42188 59.947914Q235.125 59.010414 234.54688 58.58854Q233.98438 58.15104 233.125 58.15104Q232.14062 58.15104 231.46875 58.635414Q230.8125 59.104164 230.53125 59.90104Q230.26562 60.697914 230.26562 61.55729Q230.26562 62.65104 230.57812 63.46354Q230.90625 64.27604 231.57812 64.68229Q232.25 65.08854 233.04688 65.08854Q234.0 65.08854 234.65625 64.541664Q235.32812 63.99479 235.5625 62.90104ZM240.5 64.52604L240.5 62.166664L238.17188 62.166664L238.17188 61.18229L240.5 61.18229L240.5 58.854164L241.5 58.854164L241.5 61.18229L243.84375 61.18229L243.84375 62.166664L241.5 62.166664L241.5 64.52604L240.5 64.52604ZM245.39062 65.916664L245.39062 57.322914L247.10938 57.322914L249.14062 63.40104Q249.42188 64.260414 249.54688 64.68229Q249.6875 64.21354 250.0 63.30729L252.0625 57.322914L253.59375 57.322914L253.59375 65.916664L252.5 65.916664L252.5 58.729164L250.0 65.916664L248.96875 65.916664L246.48438 58.604164L246.48438 65.916664L245.39062 65.916664ZM258.35938 65.15104Q257.76562 65.65104 257.21875 65.854164Q256.6875 66.05729 256.0625 66.05729Q255.03125 66.05729 254.48438 65.55729Q253.9375 65.05729 253.9375 64.27604Q253.9375 63.822914 254.14062 63.447914Q254.34375 63.05729 254.6875 62.83854Q255.03125 62.604164 255.45312 62.49479Q255.75 62.40104 256.39062 62.322914Q257.65625 62.18229 258.26562 61.96354Q258.26562 61.74479 258.26562 61.697914Q258.26562 61.041664 257.96875 60.77604Q257.5625 60.43229 256.76562 60.43229Q256.03125 60.43229 255.67188 60.697914Q255.3125 60.947914 255.14062 61.604164L254.10938 61.46354Q254.25 60.80729 254.57812 60.40104Q254.90625 59.99479 255.51562 59.77604Q256.125 59.55729 256.92188 59.55729Q257.71875 59.55729 258.21875 59.74479Q258.71875 59.93229 258.95312 60.21354Q259.1875 60.49479 259.28125 60.93229Q259.32812 61.197914 259.32812 61.90104L259.32812 63.30729Q259.32812 64.77604 259.39062 65.166664Q259.46875 65.55729 259.67188 65.916664L258.5625 65.916664Q258.40625 65.58854 258.35938 65.15104ZM258.26562 62.791664Q257.6875 63.02604 256.54688 63.197914Q255.89062 63.291664 255.625 63.416664Q255.35938 63.52604 255.20312 63.74479Q255.0625 63.96354 255.0625 64.24479Q255.0625 64.666664 255.375 64.947914Q255.70312 65.229164 256.3125 65.229164Q256.92188 65.229164 257.39062 64.96354Q257.875 64.697914 258.09375 64.229164Q258.26562 63.86979 258.26562 63.18229L258.26562 62.791664ZM260.59375 65.916664L262.85938 62.68229L260.76562 59.697914L262.07812 59.697914L263.03125 61.15104Q263.29688 61.572914 263.46875 61.854164Q263.71875 61.46354 263.9375 61.166664L264.98438 59.697914L266.25 59.697914L264.09375 62.61979L266.40625 65.916664L265.125 65.916664L263.84375 63.979164L263.5 63.46354L261.85938 65.916664L260.59375 65.916664Z" fill-rule="nonzero"/><path stroke="#ff6d01" stroke-width="4.0" stroke-linecap="butt" d="M281.5 61.916668L293.5 61.916668" fill-rule="nonzero"/><path fill="#1a1a1a" d="M302.46875 65.916664L302.46875 57.322914L303.59375 57.322914L303.59375 60.854164L308.0625 60.854164L308.0625 57.322914L309.20312 57.322914L309.20312 65.916664L308.0625 65.916664L308.0625 61.86979L303.59375 61.86979L303.59375 65.916664L302.46875 65.916664ZM317.5625 62.90104L318.6875 63.197914Q318.32812 64.58854 317.40625 65.322914Q316.48438 66.05729 315.14062 66.05729Q313.75 66.05729 312.875 65.49479Q312.0 64.93229 311.54688 63.86979Q311.09375 62.791664 311.09375 61.55729Q311.09375 60.21354 311.60938 59.21354Q312.125 58.21354 313.0625 57.697914Q314.01562 57.18229 315.15625 57.18229Q316.4375 57.18229 317.3125 57.83854Q318.20312 58.49479 318.54688 59.68229L317.42188 59.947914Q317.125 59.010414 316.54688 58.58854Q315.98438 58.15104 315.125 58.15104Q314.14062 58.15104 313.46875 58.635414Q312.8125 59.104164 312.53125 59.90104Q312.26562 60.697914 312.26562 61.55729Q312.26562 62.65104 312.57812 63.46354Q312.90625 64.27604 313.57812 64.68229Q314.25 65.08854 315.04688 65.08854Q316.0 65.08854 316.65625 64.541664Q317.32812 63.99479 317.5625 62.90104ZM322.5 64.52604L322.5 62.166664L320.17188 62.166664L320.17188 61.18229L322.5 61.18229L322.5 58.854164L323.5 58.854164L323.5 61.18229L325.84375 61.18229L325.84375 62.166664L323.5 62.166664L323.5 64.52604L322.5 64.52604ZM327.39062 65.916664L327.39062 57.322914L329.10938 57.322914L331.14062 63.40104Q331.42188 64.260414 331.54688 64.68229Q331.6875 64.21354 332.0 63.30729L334.0625 57.322914L335.59375 57.322914L335.59375 65.916664L334.5 65.916664L334.5 58.729164L332.0 65.916664L330.96875 65.916664L328.48438 58.604164L328.48438 65.916664L327.39062 65.916664ZM340.35938 65.15104Q339.76562 65.65104 339.21875 65.854164Q338.6875 66.05729 338.0625 66.05729Q337.03125 66.05729 336.48438 65.55729Q335.9375 65.05729 335.9375 64.27604Q335.9375 63.822914 336.14062 63.447914Q336.34375 63.05729 336.6875 62.83854Q337.03125 62.604164 337.45312 62.49479Q337.75 62.40104 338.39062 62.322914Q339.65625 62.18229 340.26562 61.96354Q340.26562 61.74479 340.26562 61.697914Q340.26562 61.041664 339.96875 60.77604Q339.5625 60.43229 338.76562 60.43229Q338.03125 60.43229 337.67188 60.697914Q337.3125 60.947914 337.14062 61.604164L336.10938 61.46354Q336.25 60.80729 336.57812 60.40104Q336.90625 59.99479 337.51562 59.77604Q338.125 59.55729 338.92188 59.55729Q339.71875 59.55729 340.21875 59.74479Q340.71875 59.93229 340.95312 60.21354Q341.1875 60.49479 341.28125 60.93229Q341.32812 61.197914 341.32812 61.90104L341.32812 63.30729Q341.32812 64.77604 341.39062 65.166664Q341.46875 65.55729 341.67188 65.916664L340.5625 65.916664Q340.40625 65.58854 340.35938 65.15104ZM340.26562 62.791664Q339.6875 63.02604 338.54688 63.197914Q337.89062 63.291664 337.625 63.416664Q337.35938 63.52604 337.20312 63.74479Q337.0625 63.96354 337.0625 64.24479Q337.0625 64.666664 337.375 64.947914Q337.70312 65.229164 338.3125 65.229164Q338.92188 65.229164 339.39062 64.96354Q339.875 64.697914 340.09375 64.229164Q340.26562 63.86979 340.26562 63.18229L340.26562 62.791664ZM342.59375 65.916664L344.85938 62.68229L342.76562 59.697914L344.07812 59.697914L345.03125 61.15104Q345.29688 61.572914 345.46875 61.854164Q345.71875 61.46354 345.9375 61.166664L346.98438 59.697914L348.25 59.697914L346.09375 62.61979L348.40625 65.916664L347.125 65.916664L345.84375 63.979164L345.5 63.46354L343.85938 65.916664L342.59375 65.916664ZM350.5 64.52604L350.5 62.166664L348.17188 62.166664L348.17188 61.18229L350.5 61.18229L350.5 58.854164L351.5 58.854164L351.5 61.18229L353.84375 61.18229L353.84375 62.166664L351.5 62.166664L351.5 64.52604L350.5 64.52604ZM354.3125 68.30729L354.3125 67.541664L361.3125 67.541664L361.3125 68.30729L354.3125 68.30729ZM361.3125 68.30729L361.3125 67.541664L368.3125 67.541664L368.3125 68.30729L361.3125 68.30729ZM370.26562 65.916664L369.28125 65.916664L369.28125 57.322914L370.34375 57.322914L370.34375 60.385414Q371.01562 59.55729 372.04688 59.55729Q372.625 59.55729 373.125 59.791664Q373.64062 60.010414 373.96875 60.43229Q374.3125 60.854164 374.5 61.447914Q374.6875 62.041664 374.6875 62.71354Q374.6875 64.30729 373.89062 65.18229Q373.09375 66.05729 372.0 66.05729Q370.89062 66.05729 370.26562 65.135414L370.26562 65.916664ZM370.25 62.760414Q370.25 63.86979 370.5625 64.36979Q371.0625 65.18229 371.90625 65.18229Q372.59375 65.18229 373.09375 64.58854Q373.60938 63.99479 373.60938 62.791664Q373.60938 61.572914 373.125 60.99479Q372.64062 60.416664 371.95312 60.416664Q371.26562 60.416664 370.75 61.02604Q370.25 61.61979 370.25 62.760414ZM380.375 65.916664L380.375 64.99479Q379.64062 66.05729 378.39062 66.05729Q377.84375 66.05729 377.35938 65.854164Q376.89062 65.635414 376.65625 65.322914Q376.42188 64.99479 376.32812 64.52604Q376.26562 64.229164 376.26562 63.541664L376.26562 59.697914L377.32812 59.697914L377.32812 63.15104Q377.32812 63.96354 377.39062 64.260414Q377.48438 64.666664 377.79688 64.916664Q378.125 65.15104 378.60938 65.15104Q379.07812 65.15104 379.48438 64.916664Q379.90625 64.666664 380.07812 64.24479Q380.26562 63.822914 380.26562 63.02604L380.26562 59.697914L381.3125 59.697914L381.3125 65.916664L380.375 65.916664ZM383.29688 58.541664L383.29688 57.322914L384.35938 57.322914L384.35938 58.541664L383.29688 58.541664ZM383.29688 65.916664L383.29688 59.697914L384.35938 59.697914L384.35938 65.916664L383.29688 65.916664ZM386.26562 65.916664L386.26562 57.322914L387.32812 57.322914L387.32812 65.916664L386.26562 65.916664ZM391.59375 64.979164L391.75 65.90104Q391.29688 65.99479 390.95312 65.99479Q390.375 65.99479 390.0625 65.822914Q389.75 65.635414 389.60938 65.33854Q389.48438 65.041664 389.48438 64.08854L389.48438 60.510414L388.71875 60.510414L388.71875 59.697914L389.48438 59.697914L389.48438 58.15104L390.53125 57.52604L390.53125 59.697914L391.59375 59.697914L391.59375 60.510414L390.53125 60.510414L390.53125 64.15104Q390.53125 64.604164 390.57812 64.729164Q390.64062 64.854164 390.76562 64.93229Q390.89062 65.010414 391.125 65.010414Q391.3125 65.010414 391.59375 64.979164ZM392.29688 58.541664L392.29688 57.322914L393.35938 57.322914L393.35938 58.541664L392.29688 58.541664ZM392.29688 65.916664L392.29688 59.697914L393.35938 59.697914L393.35938 65.916664L392.29688 65.916664ZM395.29688 65.916664L395.29688 59.697914L396.23438 59.697914L396.23438 60.572914Q396.92188 59.55729 398.21875 59.55729Q398.78125 59.55729 399.25 59.760414Q399.73438 59.96354 399.96875 60.291664Q400.20312 60.61979 400.29688 61.05729Q400.34375 61.354164 400.34375 62.08854L400.34375 65.916664L399.29688 65.916664L399.29688 62.135414Q399.29688 61.479164 399.17188 61.166664Q399.04688 60.854164 398.73438 60.666664Q398.42188 60.46354 398.0 60.46354Q397.32812 60.46354 396.82812 60.90104Q396.34375 61.322914 396.34375 62.510414L396.34375 65.916664L395.29688 65.916664ZM401.3125 68.30729L401.3125 67.541664L408.3125 67.541664L408.3125 68.30729L401.3125 68.30729ZM409.29688 65.916664L409.29688 59.697914L410.23438 59.697914L410.23438 60.572914Q410.53125 60.104164 411.01562 59.83854Q411.5 59.55729 412.125 59.55729Q412.8125 59.55729 413.25 59.83854Q413.70312 60.11979 413.875 60.635414Q414.625 59.55729 415.79688 59.55729Q416.73438 59.55729 417.21875 60.072914Q417.71875 60.572914 417.71875 61.65104L417.71875 65.916664L416.67188 65.916664L416.67188 61.99479Q416.67188 61.36979 416.5625 61.08854Q416.46875 60.80729 416.20312 60.635414Q415.9375 60.46354 415.5625 60.46354Q414.90625 60.46354 414.46875 60.90104Q414.04688 61.33854 414.04688 62.30729L414.04688 65.916664L412.98438 65.916664L412.98438 61.86979Q412.98438 61.166664 412.71875 60.822914Q412.46875 60.46354 411.89062 60.46354Q411.4375 60.46354 411.0625 60.697914Q410.6875 60.93229 410.51562 61.385414Q410.34375 61.83854 410.34375 62.68229L410.34375 65.916664L409.29688 65.916664ZM424.54688 63.916664L425.64062 64.041664Q425.39062 64.99479 424.6875 65.52604Q423.98438 66.05729 422.90625 66.05729Q421.54688 66.05729 420.73438 65.21354Q419.9375 64.36979 419.9375 62.854164Q419.9375 61.291664 420.75 60.43229Q421.5625 59.55729 422.84375 59.55729Q424.09375 59.55729 424.875 60.40104Q425.67188 61.24479 425.67188 62.791664Q425.67188 62.885414 425.67188 63.072914L421.03125 63.072914Q421.09375 64.104164 421.60938 64.65104Q422.125 65.18229 422.90625 65.18229Q423.48438 65.18229 423.89062 64.885414Q424.3125 64.572914 424.54688 63.916664ZM421.09375 62.21354L424.5625 62.21354Q424.5 61.416664 424.17188 61.02604Q423.65625 60.416664 422.85938 60.416664Q422.125 60.416664 421.625 60.90104Q421.14062 61.385414 421.09375 62.21354ZM427.29688 65.916664L427.29688 59.697914L428.23438 59.697914L428.23438 60.572914Q428.53125 60.104164 429.01562 59.83854Q429.5 59.55729 430.125 59.55729Q430.8125 59.55729 431.25 59.83854Q431.70312 60.11979 431.875 60.635414Q432.625 59.55729 433.79688 59.55729Q434.73438 59.55729 435.21875 60.072914Q435.71875 60.572914 435.71875 61.65104L435.71875 65.916664L434.67188 65.916664L434.67188 61.99479Q434.67188 61.36979 434.5625 61.08854Q434.46875 60.80729 434.20312 60.635414Q433.9375 60.46354 433.5625 60.46354Q432.90625 60.46354 432.46875 60.90104Q432.04688 61.33854 432.04688 62.30729L432.04688 65.916664L430.98438 65.916664L430.98438 61.86979Q430.98438 61.166664 430.71875 60.822914Q430.46875 60.46354 429.89062 60.46354Q429.4375 60.46354 429.0625 60.697914Q428.6875 60.93229 428.51562 61.385414Q428.34375 61.83854 428.34375 62.68229L428.34375 65.916664L427.29688 65.916664ZM442.35938 63.635414L443.39062 63.77604Q443.21875 64.83854 442.51562 65.447914Q441.8125 66.05729 440.79688 66.05729Q439.51562 66.05729 438.73438 65.229164Q437.96875 64.385414 437.96875 62.822914Q437.96875 61.822914 438.29688 61.072914Q438.64062 60.30729 439.3125 59.93229Q440.0 59.55729 440.8125 59.55729Q441.8125 59.55729 442.45312 60.072914Q443.10938 60.572914 443.29688 61.52604L442.26562 61.68229Q442.125 61.05729 441.75 60.74479Q441.375 60.416664 440.84375 60.416664Q440.04688 60.416664 439.54688 60.99479Q439.04688 61.55729 439.04688 62.791664Q439.04688 64.05729 439.53125 64.61979Q440.01562 65.18229 440.78125 65.18229Q441.40625 65.18229 441.8125 64.80729Q442.23438 64.43229 442.35938 63.635414ZM444.29688 68.30729L444.29688 59.697914L445.25 59.697914L445.25 60.49479Q445.59375 60.02604 446.01562 59.791664Q446.45312 59.55729 447.0625 59.55729Q447.85938 59.55729 448.46875 59.96354Q449.07812 60.36979 449.375 61.11979Q449.6875 61.86979 449.6875 62.760414Q449.6875 63.71354 449.34375 64.479164Q449.01562 65.24479 448.35938 65.65104Q447.70312 66.05729 446.98438 66.05729Q446.45312 66.05729 446.03125 65.83854Q445.60938 65.604164 445.34375 65.27604L445.34375 68.30729L444.29688 68.30729ZM445.25 62.83854Q445.25 64.041664 445.73438 64.61979Q446.21875 65.18229 446.90625 65.18229Q447.60938 65.18229 448.10938 64.58854Q448.60938 63.99479 448.60938 62.74479Q448.60938 61.55729 448.125 60.979164Q447.64062 60.385414 446.95312 60.385414Q446.28125 60.385414 445.76562 61.010414Q445.25 61.635414 445.25 62.83854ZM451.25 68.30729L451.125 67.322914Q451.46875 67.416664 451.73438 67.416664Q452.07812 67.416664 452.28125 67.291664Q452.5 67.18229 452.64062 66.979164Q452.73438 66.80729 452.96875 66.18229Q452.98438 66.104164 453.0625 65.93229L450.6875 59.697914L451.82812 59.697914L453.125 63.291664Q453.375 63.979164 453.57812 64.74479Q453.76562 64.010414 454.01562 63.322914L455.34375 59.697914L456.39062 59.697914L454.03125 66.02604Q453.64062 67.041664 453.4375 67.43229Q453.15625 67.96354 452.78125 68.197914Q452.42188 68.447914 451.92188 68.447914Q451.625 68.447914 451.25 68.30729Z" fill-rule="nonzero"/><path fill="#757575" d="M139.8125 37.55L139.8125 27.175L141.39062 27.175L141.39062 28.628124Q141.875 27.878124 142.6875 27.409374Q143.5 26.940624 144.53125 26.940624Q145.6875 26.940624 146.42188 27.425Q147.15625 27.89375 147.46875 28.753124Q148.70312 26.940624 150.67188 26.940624Q152.21875 26.940624 153.04688 27.8Q153.875 28.659374 153.875 30.425L153.875 37.55L152.125 37.55L152.125 31.01875Q152.125 29.95625 151.95312 29.503124Q151.78125 29.034374 151.32812 28.753124Q150.89062 28.471874 150.28125 28.471874Q149.1875 28.471874 148.45312 29.20625Q147.73438 29.925 147.73438 31.51875L147.73438 37.55L145.98438 37.55L145.98438 30.815624Q145.98438 29.64375 145.54688 29.065624Q145.125 28.471874 144.14062 28.471874Q143.40625 28.471874 142.76562 28.8625Q142.14062 29.253124 141.85938 30.003124Q141.57812 30.753124 141.57812 32.175L141.57812 37.55L139.8125 37.55ZM162.92188 34.20625L164.73438 34.440624Q164.3125 36.01875 163.14062 36.909374Q161.98438 37.784374 160.17188 37.784374Q157.90625 37.784374 156.5625 36.39375Q155.23438 34.9875 155.23438 32.45625Q155.23438 29.83125 156.57812 28.39375Q157.92188 26.940624 160.07812 26.940624Q162.15625 26.940624 163.46875 28.3625Q164.79688 29.76875 164.79688 32.346874Q164.79688 32.503124 164.78125 32.815624L157.04688 32.815624Q157.14062 34.51875 158.01562 35.425Q158.89062 36.33125 160.1875 36.33125Q161.15625 36.33125 161.82812 35.83125Q162.51562 35.315624 162.92188 34.20625ZM157.14062 31.3625L162.9375 31.3625Q162.82812 30.065624 162.28125 29.409374Q161.4375 28.39375 160.09375 28.39375Q158.89062 28.39375 158.0625 29.20625Q157.23438 30.003124 157.14062 31.3625ZM166.8125 37.55L166.8125 27.175L168.39062 27.175L168.39062 28.628124Q168.875 27.878124 169.6875 27.409374Q170.5 26.940624 171.53125 26.940624Q172.6875 26.940624 173.42188 27.425Q174.15625 27.89375 174.46875 28.753124Q175.70312 26.940624 177.67188 26.940624Q179.21875 26.940624 180.04688 27.8Q180.875 28.659374 180.875 30.425L180.875 37.55L179.125 37.55L179.125 31.01875Q179.125 29.95625 178.95312 29.503124Q178.78125 29.034374 178.32812 28.753124Q177.89062 28.471874 177.28125 28.471874Q176.1875 28.471874 175.45312 29.20625Q174.73438 29.925 174.73438 31.51875L174.73438 37.55L172.98438 37.55L172.98438 30.815624Q172.98438 29.64375 172.54688 29.065624Q172.125 28.471874 171.14062 28.471874Q170.40625 28.471874 169.76562 28.8625Q169.14062 29.253124 168.85938 30.003124Q168.57812 30.753124 168.57812 32.175L168.57812 37.55L166.8125 37.55ZM189.59375 33.753124L191.3125 33.971874Q191.03125 35.76875 189.85938 36.784374Q188.70312 37.784374 187.0 37.784374Q184.875 37.784374 183.57812 36.39375Q182.28125 35.003124 182.28125 32.409374Q182.28125 30.721874 182.82812 29.471874Q183.39062 28.20625 184.53125 27.58125Q185.67188 26.940624 187.01562 26.940624Q188.70312 26.940624 189.76562 27.8Q190.84375 28.659374 191.15625 30.221874L189.4375 30.4875Q189.20312 29.440624 188.57812 28.925Q187.95312 28.39375 187.07812 28.39375Q185.75 28.39375 184.92188 29.346874Q184.09375 30.3 184.09375 32.346874Q184.09375 34.440624 184.89062 35.39375Q185.6875 36.33125 186.98438 36.33125Q188.01562 36.33125 188.70312 35.70625Q189.40625 35.065624 189.59375 33.753124ZM192.8125 41.51875L192.8125 27.175L194.42188 27.175L194.42188 28.51875Q194.98438 27.7375 195.6875 27.346874Q196.40625 26.940624 197.42188 26.940624Q198.75 26.940624 199.76562 27.628124Q200.78125 28.315624 201.29688 29.565624Q201.82812 30.8 201.82812 32.284374Q201.82812 33.878124 201.25 35.159374Q200.6875 36.425 199.59375 37.1125Q198.5 37.784374 197.29688 37.784374Q196.42188 37.784374 195.71875 37.409374Q195.03125 37.034374 194.57812 36.471874L194.57812 41.51875L192.8125 41.51875ZM194.40625 32.425Q194.40625 34.425 195.21875 35.378124Q196.03125 36.33125 197.1875 36.33125Q198.35938 36.33125 199.1875 35.346874Q200.03125 34.3625 200.03125 32.26875Q200.03125 30.3 199.20312 29.315624Q198.39062 28.315624 197.26562 28.315624Q196.14062 28.315624 195.26562 29.378124Q194.40625 30.425 194.40625 32.425ZM203.73438 41.55L203.54688 39.89375Q204.125 40.05 204.54688 40.05Q205.14062 40.05 205.48438 39.846874Q205.84375 39.659374 206.0625 39.315624Q206.23438 39.05 206.60938 38.003124Q206.65625 37.846874 206.76562 37.565624L202.82812 27.175L204.71875 27.175L206.875 33.190624Q207.29688 34.33125 207.625 35.58125Q207.9375 34.378124 208.34375 33.221874L210.5625 27.175L212.32812 27.175L208.375 37.721874Q207.75 39.440624 207.39062 40.08125Q206.92188 40.95625 206.3125 41.346874Q205.71875 41.753124 204.875 41.753124Q204.35938 41.753124 203.73438 41.55ZM224.14062 37.55L218.59375 23.2375L220.64062 23.2375L224.35938 33.628124Q224.8125 34.878124 225.10938 35.971874Q225.4375 34.8 225.89062 33.628124L229.75 23.2375L231.6875 23.2375L226.07812 37.55L224.14062 37.55ZM232.96875 37.55L232.96875 23.2375L234.85938 23.2375L234.85938 35.8625L241.90625 35.8625L241.90625 37.55L232.96875 37.55ZM244.07812 37.55L244.07812 23.2375L254.4375 23.2375L254.4375 24.925L245.98438 24.925L245.98438 29.3L253.89062 29.3L253.89062 30.9875L245.98438 30.9875L245.98438 35.8625L254.76562 35.8625L254.76562 37.55L244.07812 37.55ZM257.03125 37.55L257.03125 23.2375L258.96875 23.2375L266.48438 34.471874L266.48438 23.2375L268.29688 23.2375L268.29688 37.55L266.35938 37.55L258.84375 26.3L258.84375 37.55L257.03125 37.55ZM279.0625 29.128124L269.60938 29.128124L269.60938 27.4875L279.0625 27.4875L279.0625 29.128124ZM279.0625 33.471874L269.60938 33.471874L269.60938 31.83125L279.0625 31.83125L279.0625 33.471874ZM287.95312 37.55L286.1875 37.55L286.1875 26.346874Q285.5625 26.95625 284.53125 27.565624Q283.5 28.159374 282.67188 28.471874L282.67188 26.76875Q284.15625 26.08125 285.25 25.096874Q286.35938 24.096874 286.8125 23.175L287.95312 23.175L287.95312 37.55ZM292.32812 30.4875Q292.32812 27.95625 292.84375 26.409374Q293.375 24.846874 294.40625 24.01875Q295.4375 23.175 297.0 23.175Q298.15625 23.175 299.01562 23.64375Q299.89062 24.096874 300.45312 24.971874Q301.01562 25.846874 301.34375 27.1125Q301.67188 28.3625 301.67188 30.4875Q301.67188 33.003124 301.14062 34.55Q300.625 36.096874 299.59375 36.95625Q298.57812 37.8 297.0 37.8Q294.92188 37.8 293.75 36.315624Q292.32812 34.51875 292.32812 30.4875ZM294.14062 30.4875Q294.14062 34.01875 294.95312 35.190624Q295.78125 36.346874 297.0 36.346874Q298.20312 36.346874 299.03125 35.175Q299.85938 34.003124 299.85938 30.4875Q299.85938 26.95625 299.03125 25.8Q298.20312 24.628124 296.98438 24.628124Q295.76562 24.628124 295.04688 25.659374Q294.14062 26.95625 294.14062 30.4875ZM312.5625 35.8625L312.5625 37.55L303.10938 37.55Q303.09375 36.909374 303.3125 36.33125Q303.67188 35.3625 304.46875 34.425Q305.26562 33.4875 306.76562 32.253124Q309.10938 30.346874 309.92188 29.2375Q310.75 28.1125 310.75 27.1125Q310.75 26.065624 310.0 25.346874Q309.25 24.628124 308.04688 24.628124Q306.78125 24.628124 306.01562 25.39375Q305.25 26.159374 305.25 27.503124L303.4375 27.315624Q303.625 25.3 304.82812 24.2375Q306.04688 23.175 308.09375 23.175Q310.14062 23.175 311.34375 24.315624Q312.54688 25.45625 312.54688 27.14375Q312.54688 28.003124 312.1875 28.846874Q311.84375 29.675 311.03125 30.596874Q310.21875 31.503124 308.32812 33.1125Q306.73438 34.440624 306.28125 34.909374Q305.84375 35.378124 305.54688 35.8625L312.5625 35.8625ZM319.96875 37.55L319.96875 34.128124L313.75 34.128124L313.75 32.503124L320.28125 23.2375L321.71875 23.2375L321.71875 32.503124L323.65625 32.503124L323.65625 34.128124L321.71875 34.128124L321.71875 37.55L319.96875 37.55ZM319.96875 32.503124L319.96875 26.05L315.48438 32.503124L319.96875 32.503124ZM331.96875 37.55L331.96875 23.2375L333.85938 23.2375L333.85938 35.8625L340.90625 35.8625L340.90625 37.55L331.96875 37.55ZM342.98438 37.55L342.98438 23.2375L345.84375 23.2375L349.21875 33.3625Q349.6875 34.784374 349.90625 35.4875Q350.15625 34.70625 350.67188 33.190624L354.09375 23.2375L356.64062 23.2375L356.64062 37.55L354.82812 37.55L354.82812 25.565624L350.65625 37.55L348.95312 37.55L344.8125 25.3625L344.8125 37.55L342.98438 37.55ZM369.4375 23.2375L371.32812 23.2375L371.32812 31.503124Q371.32812 33.659374 370.84375 34.940624Q370.35938 36.20625 369.07812 37.003124Q367.8125 37.8 365.73438 37.8Q363.71875 37.8 362.4375 37.1125Q361.17188 36.409374 360.625 35.096874Q360.07812 33.784374 360.07812 31.503124L360.07812 23.2375L361.96875 23.2375L361.96875 31.4875Q361.96875 33.3625 362.3125 34.253124Q362.65625 35.128124 363.5 35.6125Q364.34375 36.08125 365.57812 36.08125Q367.65625 36.08125 368.54688 35.14375Q369.4375 34.190624 369.4375 31.4875L369.4375 23.2375ZM372.96875 37.55L372.96875 23.2375L374.85938 23.2375L374.85938 35.8625L381.90625 35.8625L381.90625 37.55L372.96875 37.55ZM393.0625 29.128124L383.60938 29.128124L383.60938 27.4875L393.0625 27.4875L393.0625 29.128124ZM393.0625 33.471874L383.60938 33.471874L383.60938 31.83125L393.0625 31.83125L393.0625 33.471874ZM398.03125 29.784374Q396.9375 29.378124 396.40625 28.64375Q395.89062 27.89375 395.89062 26.8625Q395.89062 25.3 397.01562 24.2375Q398.14062 23.175 400.0 23.175Q401.875 23.175 403.01562 24.26875Q404.15625 25.346874 404.15625 26.909374Q404.15625 27.909374 403.625 28.64375Q403.10938 29.378124 402.04688 29.784374Q403.375 30.221874 404.0625 31.175Q404.75 32.128124 404.75 33.45625Q404.75 35.3 403.4375 36.55Q402.14062 37.8 400.03125 37.8Q397.90625 37.8 396.60938 36.55Q395.3125 35.284374 395.3125 33.409374Q395.3125 32.01875 396.01562 31.08125Q396.73438 30.128124 398.03125 29.784374ZM397.6875 26.8Q397.6875 27.815624 398.34375 28.471874Q399.0 29.1125 400.03125 29.1125Q401.04688 29.1125 401.70312 28.471874Q402.35938 27.83125 402.35938 26.909374Q402.35938 25.940624 401.6875 25.284374Q401.01562 24.6125 400.01562 24.6125Q399.01562 24.6125 398.34375 25.26875Q397.6875 25.909374 397.6875 26.8ZM397.125 33.425Q397.125 34.175 397.46875 34.878124Q397.82812 35.58125 398.53125 35.971874Q399.23438 36.346874 400.04688 36.346874Q401.3125 36.346874 402.125 35.534374Q402.95312 34.721874 402.95312 33.471874Q402.95312 32.20625 402.10938 31.378124Q401.26562 30.55 399.98438 30.55Q398.75 30.55 397.9375 31.378124Q397.125 32.190624 397.125 33.425Z" fill-rule="nonzero"/></svg>