<svg version="1.1" viewBox="0.0 0.0 544.0 371.0" fill="none" stroke="none" stroke-linecap="square" stroke-miterlimit="10" width="544" height="371" xmlns:xlink="http://www.w3.org/1999/xlink" xmlns="http://www.w3.org/2000/svg"><path fill="#ffffff" d="M0 0L544.0 0L544.0 371.0L0 371.0L0 0Z" fill-rule="nonzero"/><path stroke="#cccccc" stroke-width="1.0" stroke-linecap="butt" d="M77.5 88.5L77.5 300.5" fill-rule="nonzero"/><path stroke="#cccccc" stroke-width="1.0" stroke-linecap="butt" d="M190.5 88.5L190.5 300.5" fill-rule="nonzero"/><path stroke="#cccccc" stroke-width="1.0" stroke-linecap="butt" d="M303.5 88.5L303.5 300.5" fill-rule="nonzero"/><path stroke="#cccccc" stroke-width="1.0" stroke-linecap="butt" d="M416.5 88.5L416.5 300.5" fill-rule="nonzero"/><path stroke="#333333" stroke-width="1.0" stroke-linecap="butt" d="M77.5 300.5L525.5 300.5" fill-rule="nonzero"/><path stroke="#cccccc" stroke-width="1.0" stroke-linecap="butt" d="M77.5 247.5L525.5 247.5" fill-rule="nonzero"/><path stroke="#cccccc" stroke-width="1.0" stroke-linecap="butt" d="M77.5 194.5L525.5 194.5" fill-rule="nonzero"/><path stroke="#cccccc" stroke-width="1.0" stroke-linecap="butt" d="M77.5 141.5L525.5 141.5" fill-rule="nonzero"/><path stroke="#cccccc" stroke-width="1.0" stroke-linecap="butt" d="M77.5 88.5L525.5 88.5" fill-rule="nonzero"/><clipPath id="id_0"><path d="M77.55 88.28333L525.45 88.28333L525.45 300.45L77.55 300.45L77.55 88.28333Z" clip-rule="nonzero"/></clipPath><path stroke="#ea4335" stroke-width="2.0" stroke-linecap="butt" clip-path="url(#id_0)" d="M77.55 297.27234L111.60533 296.4679L131.52641 296.02448L145.66066 293.15936L156.62402 293.986L165.58176 293.78772L173.1554 295.167L179.71599 287.654L185.50284 295.61768L190.67935 295.54993L195.36209 295.14545L199.63708 294.77246L203.5697 293.85294L207.21072 293.90613L210.60045 293.5258L213.77132 293.5858L216.7499 291.3626L219.55817 291.5509L222.21457 291.15817L224.73468 291.38126L227.13182 290.22003L229.41742 290.44147L231.6014 290.0723L233.69241 290.25647L235.69806 288.3128L237.62503 288.78265L239.47926 288.38437L241.26605 288.7656L242.99014 287.55164L244.65578 287.79233L246.26678 287.30225L247.82664 287.9724L249.3385 283.61536L250.80522 284.5255L252.22943 284.14044L262.34323 281.7952L268.7608 277.35312L269.7534 278.60715L270.72632 278.31882L271.68036 279.31888L272.6162 277.2811L277.88535 276.17996L278.71112 277.07544L279.52322 274.52454L280.3221 276.79147L281.10825 275.68054L281.882 276.78525L282.6437 268.79074L283.39383 272.71063L284.13266 269.3375L292.22733 270.1966L315.55197 253.91225L315.93732 256.7201L316.31964 246.10046L316.69907 245.77348L317.07553 249.55685L317.44916 248.39436L317.81998 250.02768L337.1215 224.27814L349.99265 220.40038L354.57056 197.53L384.04797 165.95479L392.89362 133.72714L418.1033 99.99383L439.38092 97.39114L452.15863 98.735664L469.198 94.75442L486.21396 97.35625L496.80164 94.719055L520.2693 100.028275L525.45 96.08151" fill-rule="nonzero"/><path fill="#000000" fill-opacity="0.0" clip-path="url(#id_0)" d="M80.55 297.27234C80.55 298.9292 79.206856 300.27234 77.55 300.27234C75.89314 300.27234 74.55 298.9292 74.55 297.27234C74.55 295.61548 75.89314 294.27234 77.55 294.27234C79.206856 294.27234 80.55 295.61548 80.55 297.27234Z" fill-rule="nonzero"/><path fill="#000000" fill-opacity="0.0" clip-path="url(#id_0)" d="M114.60533 296.4679C114.60533 298.12476 113.262184 299.4679 111.60533 299.4679C109.94848 299.4679 108.60533 298.12476 108.60533 296.4679C108.60533 294.81104 109.94848 293.4679 111.60533 293.4679C113.262184 293.4679 114.60533 294.81104 114.60533 296.4679Z" fill-rule="nonzero"/><path fill="#000000" fill-opacity="0.0" clip-path="url(#id_0)" d="M134.52641 296.02448C134.52641 297.6813 133.18327 299.02448 131.52641 299.02448C129.86957 299.02448 128.52641 297.6813 128.52641 296.02448C128.52641 294.3676 129.86957 293.02448 131.52641 293.02448C133.18327 293.02448 134.52641 294.3676 134.52641 296.02448Z" fill-rule="nonzero"/><path fill="#000000" fill-opacity="0.0" clip-path="url(#id_0)" d="M148.66066 293.15936C148.66066 294.81622 147.31752 296.15936 145.66066 296.15936C144.0038 296.15936 142.66066 294.81622 142.66066 293.15936C142.66066 291.5025 144.0038 290.15936 145.66066 290.15936C147.31752 290.15936 148.66066 291.5025 148.66066 293.15936Z" fill-rule="nonzero"/><path fill="#000000" fill-opacity="0.0" clip-path="url(#id_0)" d="M159.62402 293.986C159.62402 295.64282 158.28088 296.986 156.62402 296.986C154.96718 296.986 153.62402 295.64282 153.62402 293.986C153.62402 292.32913 154.96718 290.986 156.62402 290.986C158.28088 290.986 159.62402 292.32913 159.62402 293.986Z" fill-rule="nonzero"/><path fill="#000000" fill-opacity="0.0" clip-path="url(#id_0)" d="M168.58176 293.78772C168.58176 295.44458 167.2386 296.78772 165.58176 296.78772C163.9249 296.78772 162.58176 295.44458 162.58176 293.78772C162.58176 292.1309 163.9249 290.78772 165.58176 290.78772C167.2386 290.78772 168.58176 292.1309 168.58176 293.78772Z" fill-rule="nonzero"/><path fill="#000000" fill-opacity="0.0" clip-path="url(#id_0)" d="M176.1554 295.167C176.1554 296.82385 174.81226 298.167 173.1554 298.167C171.49855 298.167 170.1554 296.82385 170.1554 295.167C170.1554 293.51013 171.49855 292.167 173.1554 292.167C174.81226 292.167 176.1554 293.51013 176.1554 295.167Z" fill-rule="nonzero"/><path fill="#000000" fill-opacity="0.0" clip-path="url(#id_0)" d="M182.71599 287.654C182.71599 289.31085 181.37285 290.654 179.71599 290.654C178.05913 290.654 176.71599 289.31085 176.71599 287.654C176.71599 285.99713 178.05913 284.654 179.71599 284.654C181.37285 284.654 182.71599 285.99713 182.71599 287.654Z" fill-rule="nonzero"/><path fill="#000000" fill-opacity="0.0" clip-path="url(#id_0)" d="M188.50284 295.61768C188.50284 297.27454 187.1597 298.61768 185.50284 298.61768C183.846 298.61768 182.50284 297.27454 182.50284 295.61768C182.50284 293.96085 183.846 292.61768 185.50284 292.61768C187.1597 292.61768 188.50284 293.96085 188.50284 295.61768Z" fill-rule="nonzero"/><path fill="#000000" fill-opacity="0.0" clip-path="url(#id_0)" d="M193.67935 295.54993C193.67935 297.20676 192.33621 298.54993 190.67935 298.54993C189.0225 298.54993 187.67935 297.20676 187.67935 295.54993C187.67935 293.89307 189.0225 292.54993 190.67935 292.54993C192.33621 292.54993 193.67935 293.89307 193.67935 295.54993Z" fill-rule="nonzero"/><path fill="#000000" fill-opacity="0.0" clip-path="url(#id_0)" d="M198.36209 295.14545C198.36209 296.8023 197.01894 298.14545 195.36209 298.14545C193.70523 298.14545 192.36209 296.8023 192.36209 295.14545C192.36209 293.48862 193.70523 292.14545 195.36209 292.14545C197.01894 292.14545 198.36209 293.48862 198.36209 295.14545Z" fill-rule="nonzero"/><path fill="#000000" fill-opacity="0.0" clip-path="url(#id_0)" d="M202.63708 294.77246C202.63708 296.4293 201.29393 297.77246 199.63708 297.77246C197.98022 297.77246 196.63708 296.4293 196.63708 294.77246C196.63708 293.1156 197.98022 291.77246 199.63708 291.77246C201.29393 291.77246 202.63708 293.1156 202.63708 294.77246Z" fill-rule="nonzero"/><path fill="#000000" fill-opacity="0.0" clip-path="url(#id_0)" d="M206.5697 293.85294C206.5697 295.50977 205.22655 296.85294 203.5697 296.85294C201.91284 296.85294 200.5697 295.50977 200.5697 293.85294C200.5697 292.19608 201.91284 290.85294 203.5697 290.85294C205.22655 290.85294 206.5697 292.19608 206.5697 293.85294Z" fill-rule="nonzero"/><path fill="#000000" fill-opacity="0.0" clip-path="url(#id_0)" d="M210.21072 293.90613C210.21072 295.563 208.86758 296.90613 207.21072 296.90613C205.55388 296.90613 204.21072 295.563 204.21072 293.90613C204.21072 292.24927 205.55388 290.90613 207.21072 290.90613C208.86758 290.90613 210.21072 292.24927 210.21072 293.90613Z" fill-rule="nonzero"/><path fill="#000000" fill-opacity="0.0" clip-path="url(#id_0)" d="M213.60045 293.5258C213.60045 295.18265 212.25731 296.5258 210.60045 296.5258C208.94359 296.5258 207.60045 295.18265 207.60045 293.5258C207.60045 291.86893 208.94359 290.5258 210.60045 290.5258C212.25731 290.5258 213.60045 291.86893 213.60045 293.5258Z" fill-rule="nonzero"/><path fill="#000000" fill-opacity="0.0" clip-path="url(#id_0)" d="M216.77132 293.5858C216.77132 295.24265 215.42818 296.5858 213.77132 296.5858C212.11447 296.5858 210.77132 295.24265 210.77132 293.5858C210.77132 291.92892 212.11447 290.5858 213.77132 290.5858C215.42818 290.5858 216.77132 291.92892 216.77132 293.5858Z" fill-rule="nonzero"/><path fill="#000000" fill-opacity="0.0" clip-path="url(#id_0)" d="M219.7499 291.3626C219.7499 293.01947 218.40675 294.3626 216.7499 294.3626C215.09305 294.3626 213.7499 293.01947 213.7499 291.3626C213.7499 289.70578 215.09305 288.3626 216.7499 288.3626C218.40675 288.3626 219.7499 289.70578 219.7499 291.3626Z" fill-rule="nonzero"/><path fill="#000000" fill-opacity="0.0" clip-path="url(#id_0)" d="M222.55817 291.5509C222.55817 293.20776 221.21503 294.5509 219.55817 294.5509C217.90132 294.5509 216.55817 293.20776 216.55817 291.5509C216.55817 289.89404 217.90132 288.5509 219.55817 288.5509C221.21503 288.5509 222.55817 289.89404 222.55817 291.5509Z" fill-rule="nonzero"/><path fill="#000000" fill-opacity="0.0" clip-path="url(#id_0)" d="M225.21457 291.15817C225.21457 292.81503 223.87143 294.15817 222.21457 294.15817C220.55772 294.15817 219.21457 292.81503 219.21457 291.15817C219.21457 289.5013 220.55772 288.15817 222.21457 288.15817C223.87143 288.15817 225.21457 289.5013 225.21457 291.15817Z" fill-rule="nonzero"/><path fill="#000000" fill-opacity="0.0" clip-path="url(#id_0)" d="M227.73468 291.38126C227.73468 293.03812 226.39154 294.38126 224.73468 294.38126C223.07784 294.38126 221.73468 293.03812 221.73468 291.38126C221.73468 289.7244 223.07784 288.38126 224.73468 288.38126C226.39154 288.38126 227.73468 289.7244 227.73468 291.38126Z" fill-rule="nonzero"/><path fill="#000000" fill-opacity="0.0" clip-path="url(#id_0)" d="M230.13182 290.22003C230.13182 291.8769 228.78867 293.22003 227.13182 293.22003C225.47496 293.22003 224.13182 291.8769 224.13182 290.22003C224.13182 288.56317 225.47496 287.22003 227.13182 287.22003C228.78867 287.22003 230.13182 288.56317 230.13182 290.22003Z" fill-rule="nonzero"/><path fill="#000000" fill-opacity="0.0" clip-path="url(#id_0)" d="M232.41742 290.44147C232.41742 292.0983 231.07426 293.44147 229.41742 293.44147C227.76056 293.44147 226.41742 292.0983 226.41742 290.44147C226.41742 288.7846 227.76056 287.44147 229.41742 287.44147C231.07426 287.44147 232.41742 288.7846 232.41742 290.44147Z" fill-rule="nonzero"/><path fill="#000000" fill-opacity="0.0" clip-path="url(#id_0)" d="M234.6014 290.0723C234.6014 291.72913 233.25826 293.0723 231.6014 293.0723C229.94453 293.0723 228.6014 291.72913 228.6014 290.0723C228.6014 288.41544 229.94453 287.0723 231.6014 287.0723C233.25826 287.0723 234.6014 288.41544 234.6014 290.0723Z" fill-rule="nonzero"/><path fill="#000000" fill-opacity="0.0" clip-path="url(#id_0)" d="M236.69241 290.25647C236.69241 291.91333 235.34926 293.25647 233.69241 293.25647C232.03555 293.25647 230.69241 291.91333 230.69241 290.25647C230.69241 288.59964 232.03555 287.25647 233.69241 287.25647C235.34926 287.25647 236.69241 288.59964 236.69241 290.25647Z" fill-rule="nonzero"/><path fill="#000000" fill-opacity="0.0" clip-path="url(#id_0)" d="M238.69806 288.3128C238.69806 289.96967 237.3549 291.3128 235.69806 291.3128C234.0412 291.3128 232.69806 289.96967 232.69806 288.3128C232.69806 286.65598 234.0412 285.3128 235.69806 285.3128C237.3549 285.3128 238.69806 286.65598 238.69806 288.3128Z" fill-rule="nonzero"/><path fill="#000000" fill-opacity="0.0" clip-path="url(#id_0)" d="M240.62503 288.78265C240.62503 290.43948 239.28188 291.78265 237.62503 291.78265C235.96817 291.78265 234.62503 290.43948 234.62503 288.78265C234.62503 287.1258 235.96817 285.78265 237.62503 285.78265C239.28188 285.78265 240.62503 287.1258 240.62503 288.78265Z" fill-rule="nonzero"/><path fill="#000000" fill-opacity="0.0" clip-path="url(#id_0)" d="M242.47926 288.38437C242.47926 290.04123 241.13611 291.38437 239.47926 291.38437C237.8224 291.38437 236.47926 290.04123 236.47926 288.38437C236.47926 286.72754 237.8224 285.38437 239.47926 285.38437C241.13611 285.38437 242.47926 286.72754 242.47926 288.38437Z" fill-rule="nonzero"/><path fill="#000000" fill-opacity="0.0" clip-path="url(#id_0)" d="M244.26605 288.7656C244.26605 290.42242 242.92291 291.7656 241.26605 291.7656C239.6092 291.7656 238.26605 290.42242 238.26605 288.7656C238.26605 287.10873 239.6092 285.7656 241.26605 285.7656C242.92291 285.7656 244.26605 287.10873 244.26605 288.7656Z" fill-rule="nonzero"/><path fill="#000000" fill-opacity="0.0" clip-path="url(#id_0)" d="M245.99014 287.55164C245.99014 289.2085 244.647 290.55164 242.99014 290.55164C241.3333 290.55164 239.99014 289.2085 239.99014 287.55164C239.99014 285.89478 241.3333 284.55164 242.99014 284.55164C244.647 284.55164 245.99014 285.89478 245.99014 287.55164Z" fill-rule="nonzero"/><path fill="#000000" fill-opacity="0.0" clip-path="url(#id_0)" d="M247.65578 287.79233C247.65578 289.4492 246.31264 290.79233 244.65578 290.79233C242.99892 290.79233 241.65578 289.4492 241.65578 287.79233C241.65578 286.13547 242.99892 284.79233 244.65578 284.79233C246.31264 284.79233 247.65578 286.13547 247.65578 287.79233Z" fill-rule="nonzero"/><path fill="#000000" fill-opacity="0.0" clip-path="url(#id_0)" d="M249.26678 287.30225C249.26678 288.9591 247.92365 290.30225 246.26678 290.30225C244.60994 290.30225 243.26678 288.9591 243.26678 287.30225C243.26678 285.6454 244.60994 284.30225 246.26678 284.30225C247.92365 284.30225 249.26678 285.6454 249.26678 287.30225Z" fill-rule="nonzero"/><path fill="#000000" fill-opacity="0.0" clip-path="url(#id_0)" d="M250.82664 287.9724C250.82664 289.62927 249.4835 290.9724 247.82664 290.9724C246.1698 290.9724 244.82664 289.62927 244.82664 287.9724C244.82664 286.31558 246.1698 284.9724 247.82664 284.9724C249.4835 284.9724 250.82664 286.31558 250.82664 287.9724Z" fill-rule="nonzero"/><path fill="#000000" fill-opacity="0.0" clip-path="url(#id_0)" d="M252.3385 283.61536C252.3385 285.27222 250.99536 286.61536 249.3385 286.61536C247.68166 286.61536 246.3385 285.27222 246.3385 283.61536C246.3385 281.9585 247.68166 280.61536 249.3385 280.61536C250.99536 280.61536 252.3385 281.9585 252.3385 283.61536Z" fill-rule="nonzero"/><path fill="#000000" fill-opacity="0.0" clip-path="url(#id_0)" d="M253.80522 284.5255C253.80522 286.18237 252.46208 287.5255 250.80522 287.5255C249.14838 287.5255 247.80522 286.18237 247.80522 284.5255C247.80522 282.86868 249.14838 281.5255 250.80522 281.5255C252.46208 281.5255 253.80522 282.86868 253.80522 284.5255Z" fill-rule="nonzero"/><path fill="#000000" fill-opacity="0.0" clip-path="url(#id_0)" d="M255.22943 284.14044C255.22943 285.7973 253.88628 287.14044 252.22943 287.14044C250.57257 287.14044 249.22943 285.7973 249.22943 284.14044C249.22943 282.4836 250.57257 281.14044 252.22943 281.14044C253.88628 281.14044 255.22943 282.4836 255.22943 284.14044Z" fill-rule="nonzero"/><path fill="#000000" fill-opacity="0.0" clip-path="url(#id_0)" d="M265.34323 281.7952C265.34323 283.45206 264.0001 284.7952 262.34323 284.7952C260.68637 284.7952 259.34323 283.45206 259.34323 281.7952C259.34323 280.13837 260.68637 278.7952 262.34323 278.7952C264.0001 278.7952 265.34323 280.13837 265.34323 281.7952Z" fill-rule="nonzero"/><path fill="#000000" fill-opacity="0.0" clip-path="url(#id_0)" d="M271.7608 277.35312C271.7608 279.00998 270.41766 280.35312 268.7608 280.35312C267.10394 280.35312 265.7608 279.00998 265.7608 277.35312C265.7608 275.69626 267.10394 274.35312 268.7608 274.35312C270.41766 274.35312 271.7608 275.69626 271.7608 277.35312Z" fill-rule="nonzero"/><path fill="#000000" fill-opacity="0.0" clip-path="url(#id_0)" d="M272.7534 278.60715C272.7534 280.264 271.41025 281.60715 269.7534 281.60715C268.09653 281.60715 266.7534 280.264 266.7534 278.60715C266.7534 276.9503 268.09653 275.60715 269.7534 275.60715C271.41025 275.60715 272.7534 276.9503 272.7534 278.60715Z" fill-rule="nonzero"/><path fill="#000000" fill-opacity="0.0" clip-path="url(#id_0)" d="M273.72632 278.31882C273.72632 279.97568 272.38318 281.31882 270.72632 281.31882C269.06946 281.31882 267.72632 279.97568 267.72632 278.31882C267.72632 276.66196 269.06946 275.31882 270.72632 275.31882C272.38318 275.31882 273.72632 276.66196 273.72632 278.31882Z" fill-rule="nonzero"/><path fill="#000000" fill-opacity="0.0" clip-path="url(#id_0)" d="M274.68036 279.31888C274.68036 280.97574 273.33722 282.31888 271.68036 282.31888C270.0235 282.31888 268.68036 280.97574 268.68036 279.31888C268.68036 277.66202 270.0235 276.31888 271.68036 276.31888C273.33722 276.31888 274.68036 277.66202 274.68036 279.31888Z" fill-rule="nonzero"/><path fill="#000000" fill-opacity="0.0" clip-path="url(#id_0)" d="M275.6162 277.2811C275.6162 278.93796 274.27307 280.2811 272.6162 280.2811C270.95935 280.2811 269.6162 278.93796 269.6162 277.2811C269.6162 275.62424 270.95935 274.2811 272.6162 274.2811C274.27307 274.2811 275.6162 275.62424 275.6162 277.2811Z" fill-rule="nonzero"/><path fill="#000000" fill-opacity="0.0" clip-path="url(#id_0)" d="M280.88535 276.17996C280.88535 277.8368 279.5422 279.17996 277.88535 279.17996C276.2285 279.17996 274.88535 277.8368 274.88535 276.17996C274.88535 274.5231 276.2285 273.17996 277.88535 273.17996C279.5422 273.17996 280.88535 274.5231 280.88535 276.17996Z" fill-rule="nonzero"/><path fill="#000000" fill-opacity="0.0" clip-path="url(#id_0)" d="M281.71112 277.07544C281.71112 278.73227 280.36795 280.07544 278.71112 280.07544C277.05426 280.07544 275.71112 278.73227 275.71112 277.07544C275.71112 275.41858 277.05426 274.07544 278.71112 274.07544C280.36795 274.07544 281.71112 275.41858 281.71112 277.07544Z" fill-rule="nonzero"/><path fill="#000000" fill-opacity="0.0" clip-path="url(#id_0)" d="M282.52322 274.52454C282.52322 276.1814 281.18008 277.52454 279.52322 277.52454C277.86636 277.52454 276.52322 276.1814 276.52322 274.52454C276.52322 272.86768 277.86636 271.52454 279.52322 271.52454C281.18008 271.52454 282.52322 272.86768 282.52322 274.52454Z" fill-rule="nonzero"/><path fill="#000000" fill-opacity="0.0" clip-path="url(#id_0)" d="M283.3221 276.79147C283.3221 278.44833 281.97897 279.79147 280.3221 279.79147C278.66525 279.79147 277.3221 278.44833 277.3221 276.79147C277.3221 275.1346 278.66525 273.79147 280.3221 273.79147C281.97897 273.79147 283.3221 275.1346 283.3221 276.79147Z" fill-rule="nonzero"/><path fill="#000000" fill-opacity="0.0" clip-path="url(#id_0)" d="M284.10825 275.68054C284.10825 277.3374 282.7651 278.68054 281.10825 278.68054C279.4514 278.68054 278.10825 277.3374 278.10825 275.68054C278.10825 274.02368 279.4514 272.68054 281.10825 272.68054C282.7651 272.68054 284.10825 274.02368 284.10825 275.68054Z" fill-rule="nonzero"/><path fill="#000000" fill-opacity="0.0" clip-path="url(#id_0)" d="M284.882 276.78525C284.882 278.4421 283.53882 279.78525 281.882 279.78525C280.22513 279.78525 278.882 278.4421 278.882 276.78525C278.882 275.1284 280.22513 273.78525 281.882 273.78525C283.53882 273.78525 284.882 275.1284 284.882 276.78525Z" fill-rule="nonzero"/><path fill="#000000" fill-opacity="0.0" clip-path="url(#id_0)" d="M285.6437 268.79074C285.6437 270.4476 284.30057 271.79074 282.6437 271.79074C280.98688 271.79074 279.6437 270.4476 279.6437 268.79074C279.6437 267.1339 280.98688 265.79074 282.6437 265.79074C284.30057 265.79074 285.6437 267.1339 285.6437 268.79074Z" fill-rule="nonzero"/><path fill="#000000" fill-opacity="0.0" clip-path="url(#id_0)" d="M286.39383 272.71063C286.39383 274.3675 285.0507 275.71063 283.39383 275.71063C281.73697 275.71063 280.39383 274.3675 280.39383 272.71063C280.39383 271.0538 281.73697 269.71063 283.39383 269.71063C285.0507 269.71063 286.39383 271.0538 286.39383 272.71063Z" fill-rule="nonzero"/><path fill="#000000" fill-opacity="0.0" clip-path="url(#id_0)" d="M287.13266 269.3375C287.13266 270.99435 285.78952 272.3375 284.13266 272.3375C282.4758 272.3375 281.13266 270.99435 281.13266 269.3375C281.13266 267.68063 282.4758 266.3375 284.13266 266.3375C285.78952 266.3375 287.13266 267.68063 287.13266 269.3375Z" fill-rule="nonzero"/><path fill="#000000" fill-opacity="0.0" clip-path="url(#id_0)" d="M295.22733 270.1966C295.22733 271.85345 293.8842 273.1966 292.22733 273.1966C290.57047 273.1966 289.22733 271.85345 289.22733 270.1966C289.22733 268.53976 290.57047 267.1966 292.22733 267.1966C293.8842 267.1966 295.22733 268.53976 295.22733 270.1966Z" fill-rule="nonzero"/><path fill="#000000" fill-opacity="0.0" clip-path="url(#id_0)" d="M318.55197 253.91225C318.55197 255.5691 317.2088 256.91226 315.55197 256.91226C313.8951 256.91226 312.55197 255.5691 312.55197 253.91225C312.55197 252.2554 313.8951 250.91225 315.55197 250.91225C317.2088 250.91225 318.55197 252.2554 318.55197 253.91225Z" fill-rule="nonzero"/><path fill="#000000" fill-opacity="0.0" clip-path="url(#id_0)" d="M318.93732 256.7201C318.93732 258.37695 317.59418 259.7201 315.93732 259.7201C314.28046 259.7201 312.93732 258.37695 312.93732 256.7201C312.93732 255.06323 314.28046 253.7201 315.93732 253.7201C317.59418 253.7201 318.93732 255.06323 318.93732 256.7201Z" fill-rule="nonzero"/><path fill="#000000" fill-opacity="0.0" clip-path="url(#id_0)" d="M319.31964 246.10046C319.31964 247.75731 317.9765 249.10046 316.31964 249.10046C314.6628 249.10046 313.31964 247.75731 313.31964 246.10046C313.31964 244.4436 314.6628 243.10046 316.31964 243.10046C317.9765 243.10046 319.31964 244.4436 319.31964 246.10046Z" fill-rule="nonzero"/><path fill="#000000" fill-opacity="0.0" clip-path="url(#id_0)" d="M319.69907 245.77348C319.69907 247.43034 318.3559 248.77348 316.69907 248.77348C315.0422 248.77348 313.69907 247.43034 313.69907 245.77348C313.69907 244.11664 315.0422 242.77348 316.69907 242.77348C318.3559 242.77348 319.69907 244.11664 319.69907 245.77348Z" fill-rule="nonzero"/><path fill="#000000" fill-opacity="0.0" clip-path="url(#id_0)" d="M320.07553 249.55685C320.07553 251.21371 318.7324 252.55685 317.07553 252.55685C315.41867 252.55685 314.07553 251.21371 314.07553 249.55685C314.07553 247.90001 315.41867 246.55685 317.07553 246.55685C318.7324 246.55685 320.07553 247.90001 320.07553 249.55685Z" fill-rule="nonzero"/><path fill="#000000" fill-opacity="0.0" clip-path="url(#id_0)" d="M320.44916 248.39436C320.44916 250.05122 319.10602 251.39436 317.44916 251.39436C315.7923 251.39436 314.44916 250.05122 314.44916 248.39436C314.44916 246.7375 315.7923 245.39436 317.44916 245.39436C319.10602 245.39436 320.44916 246.7375 320.44916 248.39436Z" fill-rule="nonzero"/><path fill="#000000" fill-opacity="0.0" clip-path="url(#id_0)" d="M320.81998 250.02768C320.81998 251.68452 319.47684 253.02768 317.81998 253.02768C316.16312 253.02768 314.81998 251.68452 314.81998 250.02768C314.81998 248.37082 316.16312 247.02768 317.81998 247.02768C319.47684 247.02768 320.81998 248.37082 320.81998 250.02768Z" fill-rule="nonzero"/><path fill="#000000" fill-opacity="0.0" clip-path="url(#id_0)" d="M340.1215 224.27814C340.1215 225.935 338.77835 227.27814 337.1215 227.27814C335.46463 227.27814 334.1215 225.935 334.1215 224.27814C334.1215 222.62128 335.46463 221.27814 337.1215 221.27814C338.77835 221.27814 340.1215 222.62128 340.1215 224.27814Z" fill-rule="nonzero"/><path fill="#000000" fill-opacity="0.0" clip-path="url(#id_0)" d="M352.99265 220.40038C352.99265 222.05724 351.6495 223.40038 349.99265 223.40038C348.3358 223.40038 346.99265 222.05724 346.99265 220.40038C346.99265 218.74353 348.3358 217.40038 349.99265 217.40038C351.6495 217.40038 352.99265 218.74353 352.99265 220.40038Z" fill-rule="nonzero"/><path fill="#000000" fill-opacity="0.0" clip-path="url(#id_0)" d="M357.57056 197.53C357.57056 199.18684 356.22742 200.53 354.57056 200.53C352.91373 200.53 351.57056 199.18684 351.57056 197.53C351.57056 195.87314 352.91373 194.53 354.57056 194.53C356.22742 194.53 357.57056 195.87314 357.57056 197.53Z" fill-rule="nonzero"/><path fill="#000000" fill-opacity="0.0" clip-path="url(#id_0)" d="M387.04797 165.95479C387.04797 167.61163 385.70483 168.95479 384.04797 168.95479C382.3911 168.95479 381.04797 167.61163 381.04797 165.95479C381.04797 164.29793 382.3911 162.95479 384.04797 162.95479C385.70483 162.95479 387.04797 164.29793 387.04797 165.95479Z" fill-rule="nonzero"/><path fill="#000000" fill-opacity="0.0" clip-path="url(#id_0)" d="M395.89362 133.72714C395.89362 135.38399 394.55048 136.72714 392.89362 136.72714C391.23676 136.72714 389.89362 135.38399 389.89362 133.72714C389.89362 132.07028 391.23676 130.72714 392.89362 130.72714C394.55048 130.72714 395.89362 132.07028 395.89362 133.72714Z" fill-rule="nonzero"/><path fill="#000000" fill-opacity="0.0" clip-path="url(#id_0)" d="M421.1033 99.99383C421.1033 101.65069 419.76016 102.99383 418.1033 102.99383C416.44644 102.99383 415.1033 101.65069 415.1033 99.99383C415.1033 98.336975 416.44644 96.99383 418.1033 96.99383C419.76016 96.99383 421.1033 98.336975 421.1033 99.99383Z" fill-rule="nonzero"/><path fill="#000000" fill-opacity="0.0" clip-path="url(#id_0)" d="M442.38092 97.39114C442.38092 99.048 441.03778 100.39114 439.38092 100.39114C437.72406 100.39114 436.38092 99.048 436.38092 97.39114C436.38092 95.73429 437.72406 94.39114 439.38092 94.39114C441.03778 94.39114 442.38092 95.73429 442.38092 97.39114Z" fill-rule="nonzero"/><path fill="#000000" fill-opacity="0.0" clip-path="url(#id_0)" d="M455.15863 98.735664C455.15863 100.39252 453.8155 101.735664 452.15863 101.735664C450.50177 101.735664 449.15863 100.39252 449.15863 98.735664C449.15863 97.078804 450.50177 95.735664 452.15863 95.735664C453.8155 95.735664 455.15863 97.078804 455.15863 98.735664Z" fill-rule="nonzero"/><path fill="#000000" fill-opacity="0.0" clip-path="url(#id_0)" d="M472.198 94.75442C472.198 96.41127 470.85486 97.75442 469.198 97.75442C467.54114 97.75442 466.198 96.41127 466.198 94.75442C466.198 93.097565 467.54114 91.75442 469.198 91.75442C470.85486 91.75442 472.198 93.097565 472.198 94.75442Z" fill-rule="nonzero"/><path fill="#000000" fill-opacity="0.0" clip-path="url(#id_0)" d="M489.21396 97.35625C489.21396 99.01311 487.87082 100.35625 486.21396 100.35625C484.5571 100.35625 483.21396 99.01311 483.21396 97.35625C483.21396 95.699394 484.5571 94.35625 486.21396 94.35625C487.87082 94.35625 489.21396 95.699394 489.21396 97.35625Z" fill-rule="nonzero"/><path fill="#000000" fill-opacity="0.0" clip-path="url(#id_0)" d="M499.80164 94.719055C499.80164 96.37591 498.4585 97.719055 496.80164 97.719055C495.1448 97.719055 493.80164 96.37591 493.80164 94.719055C493.80164 93.0622 495.1448 91.719055 496.80164 91.719055C498.4585 91.719055 499.80164 93.0622 499.80164 94.719055Z" fill-rule="nonzero"/><path fill="#000000" fill-opacity="0.0" clip-path="url(#id_0)" d="M523.2693 100.028275C523.2693 101.68513 521.92615 103.028275 520.2693 103.028275C518.6124 103.028275 517.2693 101.68513 517.2693 100.028275C517.2693 98.37142 518.6124 97.028275 520.2693 97.028275C521.92615 97.028275 523.2693 98.37142 523.2693 100.028275Z" fill-rule="nonzero"/><path fill="#000000" fill-opacity="0.0" clip-path="url(#id_0)" d="M528.45 96.08151C528.45 97.738365 527.1069 99.08151 525.45 99.08151C523.79315 99.08151 522.45 97.738365 522.45 96.08151C522.45 94.42466 523.79315 93.08151 525.45 93.08151C527.1069 93.08151 528.45 94.42466 528.45 96.08151Z" fill-rule="nonzero"/><path fill="#000000" d="M270.54688 346.6844L271.60938 346.59064Q271.6875 347.2469 271.96875 347.65314Q272.25 348.0594 272.82812 348.325Q273.42188 348.575 274.15625 348.575Q274.79688 348.575 275.29688 348.3875Q275.79688 348.1844 276.03125 347.85626Q276.28125 347.5125 276.28125 347.1219Q276.28125 346.71564 276.04688 346.41876Q275.8125 346.10626 275.28125 345.90314Q274.92188 345.7625 273.73438 345.48126Q272.5625 345.2 272.09375 344.95Q271.46875 344.6219 271.17188 344.15314Q270.875 343.66876 270.875 343.075Q270.875 342.4344 271.23438 341.8719Q271.60938 341.29376 272.3125 341.0125Q273.03125 340.71564 273.89062 340.71564Q274.84375 340.71564 275.57812 341.02814Q276.3125 341.325 276.70312 341.9344Q277.09375 342.52814 277.125 343.27814L276.03125 343.35626Q275.9375 342.54376 275.42188 342.1375Q274.92188 341.71564 273.9375 341.71564Q272.90625 341.71564 272.4375 342.09064Q271.96875 342.46564 271.96875 342.9969Q271.96875 343.46564 272.29688 343.7625Q272.625 344.0594 274.0 344.3719Q275.39062 344.6844 275.90625 344.91876Q276.65625 345.27814 277.01562 345.8094Q277.375 346.325 277.375 347.02814Q277.375 347.71564 276.98438 348.325Q276.59375 348.91876 275.85938 349.2625Q275.125 349.59064 274.20312 349.59064Q273.03125 349.59064 272.23438 349.2625Q271.45312 348.91876 271.0 348.23126Q270.5625 347.54376 270.54688 346.6844ZM278.79688 342.075L278.79688 340.85626L279.85938 340.85626L279.85938 342.075L278.79688 342.075ZM278.79688 349.45L278.79688 343.23126L279.85938 343.23126L279.85938 349.45L278.79688 349.45ZM281.23438 349.45L281.23438 348.59064L285.20312 344.04376Q284.51562 344.075 284.0 344.075L281.46875 344.075L281.46875 343.23126L286.5625 343.23126L286.5625 343.91876L283.1875 347.8719L282.53125 348.59064Q283.25 348.54376 283.85938 348.54376L286.75 348.54376L286.75 349.45L281.23438 349.45ZM291.04688 347.45L292.14062 347.575Q291.89062 348.52814 291.1875 349.0594Q290.48438 349.59064 289.40625 349.59064Q288.04688 349.59064 287.23438 348.7469Q286.4375 347.90314 286.4375 346.3875Q286.4375 344.825 287.25 343.96564Q288.0625 343.09064 289.34375 343.09064Q290.59375 343.09064 291.375 343.9344Q292.17188 344.77814 292.17188 346.325Q292.17188 346.41876 292.17188 346.60626L287.53125 346.60626Q287.59375 347.6375 288.10938 348.1844Q288.625 348.71564 289.40625 348.71564Q289.98438 348.71564 290.39062 348.41876Q290.8125 348.10626 291.04688 347.45ZM287.59375 345.7469L291.0625 345.7469Q291.0 344.95 290.67188 344.5594Q290.15625 343.95 289.35938 343.95Q288.625 343.95 288.125 344.4344Q287.64062 344.91876 287.59375 345.7469ZM298.8125 351.98126Q297.9375 350.8719 297.32812 349.40314Q296.73438 347.91876 296.73438 346.34064Q296.73438 344.95 297.17188 343.66876Q297.70312 342.1844 298.8125 340.71564L299.5625 340.71564Q298.85938 341.9344 298.625 342.45Q298.26562 343.2625 298.0625 344.1375Q297.8125 345.23126 297.8125 346.34064Q297.8125 349.16876 299.5625 351.98126L298.8125 351.98126ZM301.76562 349.45L300.78125 349.45L300.78125 340.85626L301.84375 340.85626L301.84375 343.91876Q302.51562 343.09064 303.54688 343.09064Q304.125 343.09064 304.625 343.325Q305.14062 343.54376 305.46875 343.96564Q305.8125 344.3875 306.0 344.98126Q306.1875 345.575 306.1875 346.2469Q306.1875 347.84064 305.39062 348.71564Q304.59375 349.59064 303.5 349.59064Q302.39062 349.59064 301.76562 348.66876L301.76562 349.45ZM301.75 346.29376Q301.75 347.40314 302.0625 347.90314Q302.5625 348.71564 303.40625 348.71564Q304.09375 348.71564 304.59375 348.1219Q305.10938 347.52814 305.10938 346.325Q305.10938 345.10626 304.625 344.52814Q304.14062 343.95 303.45312 343.95Q302.76562 343.95 302.25 344.5594Q301.75 345.15314 301.75 346.29376ZM307.75 351.84064L307.625 350.85626Q307.96875 350.95 308.23438 350.95Q308.57812 350.95 308.78125 350.825Q309.0 350.71564 309.14062 350.5125Q309.23438 350.34064 309.46875 349.71564Q309.48438 349.6375 309.5625 349.46564L307.1875 343.23126L308.32812 343.23126L309.625 346.825Q309.875 347.5125 310.07812 348.27814Q310.26562 347.54376 310.51562 346.85626L311.84375 343.23126L312.89062 343.23126L310.53125 349.5594Q310.14062 350.575 309.9375 350.96564Q309.65625 351.4969 309.28125 351.73126Q308.92188 351.98126 308.42188 351.98126Q308.125 351.98126 307.75 351.84064ZM315.09375 348.5125L315.25 349.4344Q314.79688 349.52814 314.45312 349.52814Q313.875 349.52814 313.5625 349.35626Q313.25 349.16876 313.10938 348.8719Q312.98438 348.575 312.98438 347.6219L312.98438 344.04376L312.21875 344.04376L312.21875 343.23126L312.98438 343.23126L312.98438 341.6844L314.03125 341.0594L314.03125 343.23126L315.09375 343.23126L315.09375 344.04376L314.03125 344.04376L314.03125 347.6844Q314.03125 348.1375 314.07812 348.2625Q314.14062 348.3875 314.26562 348.46564Q314.39062 348.54376 314.625 348.54376Q314.8125 348.54376 315.09375 348.5125ZM320.04688 347.45L321.14062 347.575Q320.89062 348.52814 320.1875 349.0594Q319.48438 349.59064 318.40625 349.59064Q317.04688 349.59064 316.23438 348.7469Q315.4375 347.90314 315.4375 346.3875Q315.4375 344.825 316.25 343.96564Q317.0625 343.09064 318.34375 343.09064Q319.59375 343.09064 320.375 343.9344Q321.17188 344.77814 321.17188 346.325Q321.17188 346.41876 321.17188 346.60626L316.53125 346.60626Q316.59375 347.6375 317.10938 348.1844Q317.625 348.71564 318.40625 348.71564Q318.98438 348.71564 319.39062 348.41876Q319.8125 348.10626 320.04688 347.45ZM316.59375 345.7469L320.0625 345.7469Q320.0 344.95 319.67188 344.5594Q319.15625 343.95 318.35938 343.95Q317.625 343.95 317.125 344.4344Q316.64062 344.91876 316.59375 345.7469ZM322.375 347.59064L323.40625 347.4344Q323.5 348.0594 323.89062 348.3875Q324.29688 348.71564 325.03125 348.71564Q325.75 348.71564 326.09375 348.4344Q326.45312 348.1375 326.45312 347.73126Q326.45312 347.3719 326.14062 347.16876Q325.92188 347.02814 325.0625 346.8094Q323.90625 346.5125 323.45312 346.3094Q323.01562 346.09064 322.78125 345.71564Q322.54688 345.34064 322.54688 344.8719Q322.54688 344.46564 322.73438 344.10626Q322.92188 343.7469 323.25 343.5125Q323.5 343.34064 323.92188 343.21564Q324.34375 343.09064 324.84375 343.09064Q325.5625 343.09064 326.10938 343.3094Q326.67188 343.5125 326.9375 343.8719Q327.20312 344.23126 327.29688 344.825L326.26562 344.96564Q326.20312 344.4969 325.85938 344.23126Q325.53125 343.95 324.90625 343.95Q324.1875 343.95 323.875 344.2Q323.5625 344.4344 323.5625 344.7625Q323.5625 344.96564 323.6875 345.1219Q323.82812 345.29376 324.09375 345.40314Q324.25 345.46564 325.03125 345.66876Q326.15625 345.98126 326.59375 346.16876Q327.03125 346.35626 327.28125 346.71564Q327.53125 347.075 327.53125 347.6219Q327.53125 348.15314 327.21875 348.6219Q326.92188 349.075 326.34375 349.34064Q325.76562 349.59064 325.03125 349.59064Q323.8125 349.59064 323.17188 349.09064Q322.54688 348.575 322.375 347.59064ZM330.48438 351.98126L329.73438 351.98126Q331.48438 349.16876 331.48438 346.34064Q331.48438 345.2469 331.23438 344.15314Q331.03125 343.27814 330.67188 342.46564Q330.4375 341.95 329.73438 340.71564L330.48438 340.71564Q331.57812 342.1844 332.10938 343.66876Q332.5625 344.95 332.5625 346.34064Q332.5625 347.91876 331.95312 349.40314Q331.34375 350.8719 330.48438 351.98126Z" fill-rule="nonzero"/><path fill="#000000" d="M27.690638 282.49167L27.534388 281.46042Q28.159388 281.36667 28.487513 280.97604Q28.815638 280.5698 28.815638 279.83542Q28.815638 279.11667 28.534388 278.77292Q28.237513 278.41354 27.831263 278.41354Q27.471888 278.41354 27.268763 278.72604Q27.128138 278.9448 26.909388 279.80417Q26.612513 280.96042 26.409388 281.41354Q26.190638 281.85104 25.815638 282.08542Q25.440638 282.3198 24.971888 282.3198Q24.565638 282.3198 24.206263 282.1323Q23.846888 281.9448 23.612513 281.61667Q23.440638 281.36667 23.315638 280.9448Q23.190638 280.52292 23.190638 280.02292Q23.190638 279.30417 23.409388 278.7573Q23.612513 278.1948 23.971888 277.92917Q24.331263 277.66354 24.925013 277.5698L25.065638 278.60104Q24.596888 278.66354 24.331263 279.0073Q24.050013 279.33542 24.050013 279.96042Q24.050013 280.67917 24.300013 280.99167Q24.534388 281.30417 24.862513 281.30417Q25.065638 281.30417 25.221888 281.17917Q25.393763 281.03854 25.503138 280.77292Q25.565638 280.61667 25.768763 279.83542Q26.081263 278.71042 26.268763 278.27292Q26.456263 277.83542 26.815638 277.58542Q27.175013 277.33542 27.721888 277.33542Q28.253138 277.33542 28.721888 277.64792Q29.175013 277.9448 29.440638 278.52292Q29.690638 279.10104 29.690638 279.83542Q29.690638 281.05417 29.190638 281.6948Q28.675013 282.3198 27.690638 282.49167ZM31.940638 275.0698L23.331263 275.0698L23.331263 274.11667L24.128138 274.11667Q23.659388 273.77292 23.425013 273.35104Q23.190638 272.91354 23.190638 272.30417Q23.190638 271.5073 23.596888 270.89792Q24.003138 270.28854 24.753138 269.99167Q25.503138 269.67917 26.393763 269.67917Q27.346888 269.67917 28.112513 270.02292Q28.878138 270.35104 29.284388 271.0073Q29.690638 271.66354 29.690638 272.3823Q29.690638 272.91354 29.471888 273.33542Q29.237513 273.7573 28.909388 274.02292L31.940638 274.02292L31.940638 275.0698ZM26.471888 274.11667Q27.675013 274.11667 28.253138 273.6323Q28.815638 273.14792 28.815638 272.46042Q28.815638 271.7573 28.221888 271.2573Q27.628138 270.7573 26.378138 270.7573Q25.190638 270.7573 24.612513 271.24167Q24.018763 271.72604 24.018763 272.41354Q24.018763 273.08542 24.643763 273.60104Q25.268763 274.11667 26.471888 274.11667ZM27.550013 263.8198L27.675013 262.72604Q28.628138 262.97604 29.159388 263.67917Q29.690638 264.3823 29.690638 265.46042Q29.690638 266.8198 28.846888 267.6323Q28.003138 268.42917 26.487513 268.42917Q24.925013 268.42917 24.065638 267.61667Q23.190638 266.80417 23.190638 265.52292Q23.190638 264.27292 24.034388 263.49167Q24.878138 262.6948 26.425013 262.6948Q26.518763 262.6948 26.706263 262.6948L26.706263 267.33542Q27.737513 267.27292 28.284388 266.7573Q28.815638 266.24167 28.815638 265.46042Q28.815638 264.8823 28.518763 264.47604Q28.206263 264.05417 27.550013 263.8198ZM25.846888 267.27292L25.846888 263.80417Q25.050013 263.86667 24.659388 264.1948Q24.050013 264.71042 24.050013 265.5073Q24.050013 266.24167 24.534388 266.74167Q25.018763 267.22604 25.846888 267.27292ZM27.550013 256.8198L27.675013 255.72604Q28.628138 255.97604 29.159388 256.67917Q29.690638 257.3823 29.690638 258.46042Q29.690638 259.8198 28.846888 260.6323Q28.003138 261.42917 26.487513 261.42917Q24.925013 261.42917 24.065638 260.61667Q23.190638 259.80417 23.190638 258.52292Q23.190638 257.27292 24.034388 256.49167Q24.878138 255.6948 26.425013 255.6948Q26.518763 255.6948 26.706263 255.6948L26.706263 260.33542Q27.737513 260.27292 28.284388 259.7573Q28.815638 259.24167 28.815638 258.46042Q28.815638 257.8823 28.518763 257.47604Q28.206263 257.05417 27.550013 256.8198ZM25.846888 260.27292L25.846888 256.80417Q25.050013 256.86667 24.659388 257.1948Q24.050013 257.71042 24.050013 258.5073Q24.050013 259.24167 24.534388 259.74167Q25.018763 260.22604 25.846888 260.27292ZM29.550013 250.03854L28.768763 250.03854Q29.690638 250.6323 29.690638 251.77292Q29.690638 252.52292 29.284388 253.14792Q28.862513 253.77292 28.128138 254.11667Q27.393763 254.46042 26.440638 254.46042Q25.518763 254.46042 24.753138 254.14792Q23.987513 253.83542 23.596888 253.21042Q23.190638 252.58542 23.190638 251.8198Q23.190638 251.2573 23.425013 250.8198Q23.659388 250.3823 24.034388 250.10104L20.956263 250.10104L20.956263 249.05417L29.550013 249.05417L29.550013 250.03854ZM26.440638 253.36667Q27.643763 253.36667 28.237513 252.86667Q28.815638 252.36667 28.815638 251.67917Q28.815638 250.99167 28.253138 250.5073Q27.690638 250.02292 26.534388 250.02292Q25.253138 250.02292 24.659388 250.52292Q24.065638 251.0073 24.065638 251.72604Q24.065638 252.42917 24.643763 252.89792Q25.206263 253.36667 26.440638 253.36667ZM29.550013 239.99167L28.628138 239.99167Q29.690638 240.72604 29.690638 241.97604Q29.690638 242.52292 29.487513 243.0073Q29.268763 243.47604 28.956263 243.71042Q28.628138 243.9448 28.159388 244.03854Q27.862513 244.10104 27.175013 244.10104L23.331263 244.10104L23.331263 243.03854L26.784388 243.03854Q27.596888 243.03854 27.893763 242.97604Q28.300013 242.8823 28.550013 242.5698Q28.784388 242.24167 28.784388 241.7573Q28.784388 241.28854 28.550013 240.8823Q28.300013 240.46042 27.878138 240.28854Q27.456263 240.10104 26.659388 240.10104L23.331263 240.10104L23.331263 239.05417L29.550013 239.05417L29.550013 239.99167ZM31.940638 237.0698L23.331263 237.0698L23.331263 236.11667L24.128138 236.11667Q23.659388 235.77292 23.425013 235.35104Q23.190638 234.91354 23.190638 234.30417Q23.190638 233.5073 23.596888 232.89792Q24.003138 232.28854 24.753138 231.99167Q25.503138 231.67917 26.393763 231.67917Q27.346888 231.67917 28.112513 232.02292Q28.878138 232.35104 29.284388 233.0073Q29.690638 233.66354 29.690638 234.3823Q29.690638 234.91354 29.471888 235.33542Q29.237513 235.7573 28.909388 236.02292L31.940638 236.02292L31.940638 237.0698ZM26.471888 236.11667Q27.675013 236.11667 28.253138 235.6323Q28.815638 235.14792 28.815638 234.46042Q28.815638 233.7573 28.221888 233.2573Q27.628138 232.7573 26.378138 232.7573Q25.190638 232.7573 24.612513 233.24167Q24.018763 233.72604 24.018763 234.41354Q24.018763 235.08542 24.643763 235.60104Q25.268763 236.11667 26.471888 236.11667ZM26.440638 227.46042Q24.706263 227.46042 23.878138 226.5073Q23.190638 225.71042 23.190638 224.55417Q23.190638 223.27292 24.034388 222.46042Q24.862513 221.6323 26.346888 221.6323Q27.550013 221.6323 28.237513 221.99167Q28.925013 222.35104 29.315638 223.05417Q29.690638 223.74167 29.690638 224.55417Q29.690638 225.85104 28.862513 226.66354Q28.018763 227.46042 26.440638 227.46042ZM26.440638 226.3823Q27.628138 226.3823 28.221888 225.86667Q28.815638 225.33542 28.815638 224.55417Q28.815638 223.7573 28.221888 223.24167Q27.628138 222.72604 26.409388 222.72604Q25.253138 222.72604 24.659388 223.2573Q24.065638 223.77292 24.065638 224.55417Q24.065638 225.33542 24.659388 225.86667Q25.237513 226.3823 26.440638 226.3823ZM29.550013 218.35104L23.331263 220.71042L23.331263 219.60104L27.050013 218.2573Q27.659388 218.05417 28.300013 217.86667Q27.815638 217.72604 27.128138 217.47604L23.331263 216.08542L23.331263 215.0073L29.550013 217.36667L29.550013 218.35104ZM27.550013 210.8198L27.675013 209.72604Q28.628138 209.97604 29.159388 210.67917Q29.690638 211.3823 29.690638 212.46042Q29.690638 213.8198 28.846888 214.6323Q28.003138 215.42917 26.487513 215.42917Q24.925013 215.42917 24.065638 214.61667Q23.190638 213.80417 23.190638 212.52292Q23.190638 211.27292 24.034388 210.49167Q24.878138 209.6948 26.425013 209.6948Q26.518763 209.6948 26.706263 209.6948L26.706263 214.33542Q27.737513 214.27292 28.284388 213.7573Q28.815638 213.24167 28.815638 212.46042Q28.815638 211.8823 28.518763 211.47604Q28.206263 211.05417 27.550013 210.8198ZM25.846888 214.27292L25.846888 210.80417Q25.050013 210.86667 24.659388 211.1948Q24.050013 211.71042 24.050013 212.5073Q24.050013 213.24167 24.534388 213.74167Q25.018763 214.22604 25.846888 214.27292ZM29.550013 208.08542L23.331263 208.08542L23.331263 207.1323L24.268763 207.1323Q23.612513 206.77292 23.409388 206.47604Q23.190638 206.16354 23.190638 205.78854Q23.190638 205.2573 23.518763 204.71042L24.503138 205.0698Q24.268763 205.46042 24.268763 205.83542Q24.268763 206.1948 24.487513 206.47604Q24.690638 206.74167 25.065638 206.85104Q25.628138 207.03854 26.284388 207.03854L29.550013 207.03854L29.550013 208.08542ZM29.550013 200.10104L29.550013 201.08542L20.956263 201.08542L20.956263 200.02292L24.018763 200.02292Q23.190638 199.35104 23.190638 198.3198Q23.190638 197.74167 23.425013 197.24167Q23.643763 196.72604 24.065638 196.39792Q24.487513 196.05417 25.081263 195.86667Q25.675013 195.67917 26.346888 195.67917Q27.940638 195.67917 28.815638 196.47604Q29.690638 197.27292 29.690638 198.36667Q29.690638 199.47604 28.768763 200.10104L29.550013 200.10104ZM26.393763 200.11667Q27.503138 200.11667 28.003138 199.80417Q28.815638 199.30417 28.815638 198.46042Q28.815638 197.77292 28.221888 197.27292Q27.628138 196.7573 26.425013 196.7573Q25.206263 196.7573 24.628138 197.24167Q24.050013 197.72604 24.050013 198.41354Q24.050013 199.10104 24.659388 199.61667Q25.253138 200.11667 26.393763 200.11667ZM28.784388 190.0073Q29.284388 190.60104 29.487513 191.14792Q29.690638 191.67917 29.690638 192.30417Q29.690638 193.33542 29.190638 193.8823Q28.690638 194.42917 27.909388 194.42917Q27.456263 194.42917 27.081263 194.22604Q26.690638 194.02292 26.471888 193.67917Q26.237513 193.33542 26.128138 192.91354Q26.034388 192.61667 25.956263 191.97604Q25.815638 190.71042 25.596888 190.10104Q25.378138 190.10104 25.331263 190.10104Q24.675013 190.10104 24.409388 190.39792Q24.065638 190.80417 24.065638 191.60104Q24.065638 192.33542 24.331263 192.6948Q24.581263 193.05417 25.237513 193.22604L25.096888 194.2573Q24.440638 194.11667 24.034388 193.78854Q23.628138 193.46042 23.409388 192.85104Q23.190638 192.24167 23.190638 191.4448Q23.190638 190.64792 23.378138 190.14792Q23.565638 189.64792 23.846888 189.41354Q24.128138 189.17917 24.565638 189.08542Q24.831263 189.03854 25.534388 189.03854L26.940638 189.03854Q28.409388 189.03854 28.800013 188.97604Q29.190638 188.89792 29.550013 188.6948L29.550013 189.80417Q29.221888 189.96042 28.784388 190.0073ZM26.425013 190.10104Q26.659388 190.67917 26.831263 191.8198Q26.925013 192.47604 27.050013 192.74167Q27.159388 193.0073 27.378138 193.16354Q27.596888 193.30417 27.878138 193.30417Q28.300013 193.30417 28.581263 192.99167Q28.862513 192.66354 28.862513 192.05417Q28.862513 191.4448 28.596888 190.97604Q28.331263 190.49167 27.862513 190.27292Q27.503138 190.10104 26.815638 190.10104L26.425013 190.10104ZM27.690638 187.49167L27.534388 186.46042Q28.159388 186.36667 28.487513 185.97604Q28.815638 185.5698 28.815638 184.83542Q28.815638 184.11667 28.534388 183.77292Q28.237513 183.41354 27.831263 183.41354Q27.471888 183.41354 27.268763 183.72604Q27.128138 183.9448 26.909388 184.80417Q26.612513 185.96042 26.409388 186.41354Q26.190638 186.85104 25.815638 187.08542Q25.440638 187.3198 24.971888 187.3198Q24.565638 187.3198 24.206263 187.1323Q23.846888 186.9448 23.612513 186.61667Q23.440638 186.36667 23.315638 185.9448Q23.190638 185.52292 23.190638 185.02292Q23.190638 184.30417 23.409388 183.7573Q23.612513 183.1948 23.971888 182.92917Q24.331263 182.66354 24.925013 182.5698L25.065638 183.60104Q24.596888 183.66354 24.331263 184.0073Q24.050013 184.33542 24.050013 184.96042Q24.050013 185.67917 24.300013 185.99167Q24.534388 186.30417 24.862513 186.30417Q25.065638 186.30417 25.221888 186.17917Q25.393763 186.03854 25.503138 185.77292Q25.565638 185.61667 25.768763 184.83542Q26.081263 183.71042 26.268763 183.27292Q26.456263 182.83542 26.815638 182.58542Q27.175013 182.33542 27.721888 182.33542Q28.253138 182.33542 28.721888 182.64792Q29.175013 182.9448 29.440638 183.52292Q29.690638 184.10104 29.690638 184.83542Q29.690638 186.05417 29.190638 186.6948Q28.675013 187.3198 27.690638 187.49167ZM27.550013 175.8198L27.675013 174.72604Q28.628138 174.97604 29.159388 175.67917Q29.690638 176.3823 29.690638 177.46042Q29.690638 178.8198 28.846888 179.6323Q28.003138 180.42917 26.487513 180.42917Q24.925013 180.42917 24.065638 179.61667Q23.190638 178.80417 23.190638 177.52292Q23.190638 176.27292 24.034388 175.49167Q24.878138 174.6948 26.425013 174.6948Q26.518763 174.6948 26.706263 174.6948L26.706263 179.33542Q27.737513 179.27292 28.284388 178.7573Q28.815638 178.24167 28.815638 177.46042Q28.815638 176.8823 28.518763 176.47604Q28.206263 176.05417 27.550013 175.8198ZM25.846888 179.27292L25.846888 175.80417Q25.050013 175.86667 24.659388 176.1948Q24.050013 176.71042 24.050013 177.5073Q24.050013 178.24167 24.534388 178.74167Q25.018763 179.22604 25.846888 179.27292ZM29.550013 173.10104L20.956263 173.10104L20.956263 172.03854L29.550013 172.03854L29.550013 173.10104ZM22.175013 170.0698L20.956263 170.0698L20.956263 169.0073L22.175013 169.0073L22.175013 170.0698ZM29.550013 170.0698L23.331263 170.0698L23.331263 169.0073L29.550013 169.0073L29.550013 170.0698ZM29.550013 167.0698L23.331263 167.0698L23.331263 166.1323L24.206263 166.1323Q23.190638 165.4448 23.190638 164.14792Q23.190638 163.58542 23.393763 163.11667Q23.596888 162.6323 23.925013 162.39792Q24.253138 162.16354 24.690638 162.0698Q24.987513 162.02292 25.721888 162.02292L29.550013 162.02292L29.550013 163.0698L25.768763 163.0698Q25.112513 163.0698 24.800013 163.1948Q24.487513 163.3198 24.300013 163.6323Q24.096888 163.9448 24.096888 164.36667Q24.096888 165.03854 24.534388 165.53854Q24.956263 166.02292 26.143763 166.02292L29.550013 166.02292L29.550013 167.0698ZM27.550013 155.8198L27.675013 154.72604Q28.628138 154.97604 29.159388 155.67917Q29.690638 156.3823 29.690638 157.46042Q29.690638 158.8198 28.846888 159.6323Q28.003138 160.42917 26.487513 160.42917Q24.925013 160.42917 24.065638 159.61667Q23.190638 158.80417 23.190638 157.52292Q23.190638 156.27292 24.034388 155.49167Q24.878138 154.6948 26.425013 154.6948Q26.518763 154.6948 26.706263 154.6948L26.706263 159.33542Q27.737513 159.27292 28.284388 158.7573Q28.815638 158.24167 28.815638 157.46042Q28.815638 156.8823 28.518763 156.47604Q28.206263 156.05417 27.550013 155.8198ZM25.846888 159.27292L25.846888 155.80417Q25.050013 155.86667 24.659388 156.1948Q24.050013 156.71042 24.050013 157.5073Q24.050013 158.24167 24.534388 158.74167Q25.018763 159.22604 25.846888 159.27292ZM32.08126 148.05417Q30.971888 148.92917 29.503138 149.53854Q28.018763 150.1323 26.440638 150.1323Q25.050013 150.1323 23.768763 149.6948Q22.284388 149.16354 20.815638 148.05417L20.815638 147.30417Q22.034388 148.0073 22.550013 148.24167Q23.362513 148.60104 24.237513 148.80417Q25.331263 149.05417 26.440638 149.05417Q29.268763 149.05417 32.08126 147.30417L32.08126 148.05417ZM29.550013 146.08542L23.331263 146.08542L23.331263 145.1323L24.268763 145.1323Q23.612513 144.77292 23.409388 144.47604Q23.190638 144.16354 23.190638 143.78854Q23.190638 143.2573 23.518763 142.71042L24.503138 143.0698Q24.268763 143.46042 24.268763 143.83542Q24.268763 144.1948 24.487513 144.47604Q24.690638 144.74167 25.065638 144.85104Q25.628138 145.03854 26.284388 145.03854L29.550013 145.03854L29.550013 146.08542ZM28.784388 138.0073Q29.284388 138.60104 29.487513 139.14792Q29.690638 139.67917 29.690638 140.30417Q29.690638 141.33542 29.190638 141.8823Q28.690638 142.42917 27.909388 142.42917Q27.456263 142.42917 27.081263 142.22604Q26.690638 142.02292 26.471888 141.67917Q26.237513 141.33542 26.128138 140.91354Q26.034388 140.61667 25.956263 139.97604Q25.815638 138.71042 25.596888 138.10104Q25.378138 138.10104 25.331263 138.10104Q24.675013 138.10104 24.409388 138.39792Q24.065638 138.80417 24.065638 139.60104Q24.065638 140.33542 24.331263 140.6948Q24.581263 141.05417 25.237513 141.22604L25.096888 142.2573Q24.440638 142.11667 24.034388 141.78854Q23.628138 141.46042 23.409388 140.85104Q23.190638 140.24167 23.190638 139.4448Q23.190638 138.64792 23.378138 138.14792Q23.565638 137.64792 23.846888 137.41354Q24.128138 137.17917 24.565638 137.08542Q24.831263 137.03854 25.534388 137.03854L26.940638 137.03854Q28.409388 137.03854 28.800013 136.97604Q29.190638 136.89792 29.550013 136.6948L29.550013 137.80417Q29.221888 137.96042 28.784388 138.0073ZM26.425013 138.10104Q26.659388 138.67917 26.831263 139.8198Q26.925013 140.47604 27.050013 140.74167Q27.159388 141.0073 27.378138 141.16354Q27.596888 141.30417 27.878138 141.30417Q28.300013 141.30417 28.581263 140.99167Q28.862513 140.66354 28.862513 140.05417Q28.862513 139.4448 28.596888 138.97604Q28.331263 138.49167 27.862513 138.27292Q27.503138 138.10104 26.815638 138.10104L26.425013 138.10104ZM28.612513 132.77292L29.534388 132.61667Q29.628138 133.0698 29.628138 133.41354Q29.628138 133.99167 29.456263 134.30417Q29.268763 134.61667 28.971888 134.7573Q28.675013 134.8823 27.721888 134.8823L24.143763 134.8823L24.143763 135.64792L23.331263 135.64792L23.331263 134.8823L21.784388 134.8823L21.159388 133.83542L23.331263 133.83542L23.331263 132.77292L24.143763 132.77292L24.143763 133.83542L27.784388 133.83542Q28.237513 133.83542 28.362513 133.78854Q28.487513 133.72604 28.565638 133.60104Q28.643763 133.47604 28.643763 133.24167Q28.643763 133.05417 28.612513 132.77292ZM22.175013 132.0698L20.956263 132.0698L20.956263 131.0073L22.175013 131.0073L22.175013 132.0698ZM29.550013 132.0698L23.331263 132.0698L23.331263 131.0073L29.550013 131.0073L29.550013 132.0698ZM26.440638 129.46042Q24.706263 129.46042 23.878138 128.5073Q23.190638 127.71042 23.190638 126.55417Q23.190638 125.27292 24.034388 124.46042Q24.862513 123.63229 26.346888 123.63229Q27.550013 123.63229 28.237513 123.99167Q28.925013 124.35104 29.315638 125.05417Q29.690638 125.74167 29.690638 126.55417Q29.690638 127.85104 28.862513 128.66354Q28.018763 129.46042 26.440638 129.46042ZM26.440638 128.3823Q27.628138 128.3823 28.221888 127.86667Q28.815638 127.33542 28.815638 126.55417Q28.815638 125.75729 28.221888 125.24167Q27.628138 124.72604 26.409388 124.72604Q25.253138 124.72604 24.659388 125.25729Q24.065638 125.77292 24.065638 126.55417Q24.065638 127.33542 24.659388 127.86667Q25.237513 128.3823 26.440638 128.3823ZM32.08126 121.38229L32.08126 122.13229Q29.268763 120.38229 26.440638 120.38229Q25.346888 120.38229 24.253138 120.63229Q23.378138 120.83542 22.565638 121.19479Q22.050013 121.42917 20.815638 122.13229L20.815638 121.38229Q22.284388 120.28854 23.768763 119.75729Q25.050013 119.30417 26.440638 119.30417Q28.018763 119.30417 29.503138 119.91354Q30.971888 120.52292 32.08126 121.38229Z" fill-rule="nonzero"/><path fill="#000000" d="M65.05 300.21564Q65.05 298.6844 65.3625 297.7625Q65.675 296.825 66.28438 296.325Q66.90938 295.825 67.84688 295.825Q68.53438 295.825 69.05 296.10626Q69.58125 296.3875 69.925 296.91876Q70.26875 297.4344 70.45625 298.1844Q70.64375 298.9344 70.64375 300.21564Q70.64375 301.73126 70.33125 302.65314Q70.03438 303.575 69.40938 304.09064Q68.8 304.59064 67.84688 304.59064Q66.6125 304.59064 65.89375 303.7Q65.05 302.6375 65.05 300.21564ZM66.12813 300.21564Q66.12813 302.325 66.62813 303.02814Q67.12813 303.73126 67.84688 303.73126Q68.58125 303.73126 69.06563 303.02814Q69.56563 302.325 69.56563 300.21564Q69.56563 298.09064 69.06563 297.40314Q68.58125 296.7 67.83125 296.7Q67.1125 296.7 66.675 297.3094Q66.12813 298.09064 66.12813 300.21564Z" fill-rule="nonzero"/><path fill="#000000" d="M63.596874 250.39272L63.596874 251.40834L57.909374 251.40834Q57.909374 251.03334 58.034374 250.67397Q58.253124 250.09584 58.721874 249.53334Q59.20625 248.97084 60.1125 248.23647Q61.51875 247.08022 62.003124 246.40834Q62.503124 245.73647 62.503124 245.14272Q62.503124 244.51772 62.05 244.09584Q61.596874 243.65834 60.878124 243.65834Q60.1125 243.65834 59.659374 244.11147Q59.20625 244.56459 59.190624 245.37709L58.1125 245.26772Q58.221874 244.04897 58.940624 243.42397Q59.675 242.78334 60.909374 242.78334Q62.14375 242.78334 62.8625 243.47084Q63.58125 244.15834 63.58125 245.17397Q63.58125 245.68959 63.3625 246.18959Q63.159374 246.67397 62.659374 247.23647Q62.175 247.78334 61.05 248.73647Q60.096874 249.53334 59.815624 249.83022Q59.55 250.11147 59.378124 250.39272L63.596874 250.39272ZM65.05 247.17397Q65.05 245.64272 65.3625 244.72084Q65.675 243.78334 66.28438 243.28334Q66.90938 242.78334 67.84688 242.78334Q68.53438 242.78334 69.05 243.06459Q69.58125 243.34584 69.925 243.87709Q70.26875 244.39272 70.45625 245.14272Q70.64375 245.89272 70.64375 247.17397Q70.64375 248.68959 70.33125 249.61147Q70.03438 250.53334 69.40938 251.04897Q68.8 251.54897 67.84688 251.54897Q66.6125 251.54897 65.89375 250.65834Q65.05 249.59584 65.05 247.17397ZM66.12813 247.17397Q66.12813 249.28334 66.62813 249.98647Q67.12813 250.68959 67.84688 250.68959Q68.58125 250.68959 69.06563 249.98647Q69.56563 249.28334 69.56563 247.17397Q69.56563 245.04897 69.06563 244.36147Q68.58125 243.65834 67.83125 243.65834Q67.1125 243.65834 66.675 244.26772Q66.12813 245.04897 66.12813 247.17397Z" fill-rule="nonzero"/><path fill="#000000" d="M61.425 198.36667L61.425 196.30417L57.70625 196.30417L57.70625 195.33542L61.628124 189.77292L62.4875 189.77292L62.4875 195.33542L63.64375 195.33542L63.64375 196.30417L62.4875 196.30417L62.4875 198.36667L61.425 198.36667ZM61.425 195.33542L61.425 191.47604L58.7375 195.33542L61.425 195.33542ZM65.05 194.1323Q65.05 192.60104 65.3625 191.67917Q65.675 190.74167 66.28438 190.24167Q66.90938 189.74167 67.84688 189.74167Q68.53438 189.74167 69.05 190.02292Q69.58125 190.30417 69.925 190.83542Q70.26875 191.35104 70.45625 192.10104Q70.64375 192.85104 70.64375 194.1323Q70.64375 195.64792 70.33125 196.5698Q70.03438 197.49167 69.40938 198.0073Q68.8 198.5073 67.84688 198.5073Q66.6125 198.5073 65.89375 197.61667Q65.05 196.55417 65.05 194.1323ZM66.12813 194.1323Q66.12813 196.24167 66.62813 196.9448Q67.12813 197.64792 67.84688 197.64792Q68.58125 197.64792 69.06563 196.9448Q69.56563 196.24167 69.56563 194.1323Q69.56563 192.0073 69.06563 191.3198Q68.58125 190.61667 67.83125 190.61667Q67.1125 190.61667 66.675 191.22604Q66.12813 192.0073 66.12813 194.1323Z" fill-rule="nonzero"/><path fill="#000000" d="M63.51875 138.84062L62.471874 138.91875Q62.33125 138.29375 62.08125 138.0125Q61.64375 137.55937 61.01875 137.55937Q60.51875 137.55937 60.128124 137.84062Q59.64375 138.21562 59.346874 138.91875Q59.065624 139.60625 59.05 140.8875Q59.425 140.30937 59.971874 140.02812Q60.534374 139.74687 61.14375 139.74687Q62.190624 139.74687 62.925 140.52812Q63.675 141.30937 63.675 142.52812Q63.675 143.34062 63.315624 144.04375Q62.971874 144.73125 62.3625 145.10625Q61.753124 145.46562 60.9875 145.46562Q59.659374 145.46562 58.83125 144.49687Q58.003124 143.52812 58.003124 141.30937Q58.003124 138.80937 58.925 137.68437Q59.721874 136.7 61.08125 136.7Q62.096874 136.7 62.7375 137.27812Q63.39375 137.84062 63.51875 138.84062ZM59.221874 142.54375Q59.221874 143.09062 59.440624 143.59062Q59.675 144.075 60.08125 144.34062Q60.503124 144.60625 60.971874 144.60625Q61.628124 144.60625 62.1125 144.075Q62.596874 143.52812 62.596874 142.60625Q62.596874 141.71562 62.1125 141.2Q61.64375 140.68437 60.925 140.68437Q60.20625 140.68437 59.70625 141.2Q59.221874 141.71562 59.221874 142.54375ZM65.05 141.09062Q65.05 139.55937 65.3625 138.6375Q65.675 137.7 66.28438 137.2Q66.90938 136.7 67.84688 136.7Q68.53438 136.7 69.05 136.98125Q69.58125 137.2625 69.925 137.79375Q70.26875 138.30937 70.45625 139.05937Q70.64375 139.80937 70.64375 141.09062Q70.64375 142.60625 70.33125 143.52812Q70.03438 144.45 69.40938 144.96562Q68.8 145.46562 67.84688 145.46562Q66.6125 145.46562 65.89375 144.575Q65.05 143.5125 65.05 141.09062ZM66.12813 141.09062Q66.12813 143.2 66.62813 143.90312Q67.12813 144.60625 67.84688 144.60625Q68.58125 144.60625 69.06563 143.90312Q69.56563 143.2 69.56563 141.09062Q69.56563 138.96562 69.06563 138.27812Q68.58125 137.575 67.83125 137.575Q67.1125 137.575 66.675 138.18437Q66.12813 138.96562 66.12813 141.09062Z" fill-rule="nonzero"/><path fill="#000000" d="M59.675 87.62708Q59.01875 87.37708 58.690624 86.93958Q58.378124 86.48646 58.378124 85.87708Q58.378124 84.93958 59.05 84.29896Q59.7375 83.65833 60.846874 83.65833Q61.971874 83.65833 62.659374 84.31458Q63.346874 84.97083 63.346874 85.90833Q63.346874 86.50208 63.034374 86.93958Q62.721874 87.37708 62.08125 87.62708Q62.878124 87.87708 63.284374 88.45521Q63.690624 89.03333 63.690624 89.83021Q63.690624 90.92396 62.909374 91.67396Q62.14375 92.42396 60.8625 92.42396Q59.596874 92.42396 58.815624 91.67396Q58.034374 90.92396 58.034374 89.79896Q58.034374 88.95521 58.45625 88.39271Q58.89375 87.83021 59.675 87.62708ZM59.45625 85.83021Q59.45625 86.43958 59.846874 86.83021Q60.253124 87.22083 60.878124 87.22083Q61.4875 87.22083 61.878124 86.84583Q62.26875 86.45521 62.26875 85.89271Q62.26875 85.31458 61.8625 84.92396Q61.45625 84.51771 60.8625 84.51771Q60.253124 84.51771 59.846874 84.90833Q59.45625 85.29896 59.45625 85.83021ZM59.128124 89.79896Q59.128124 90.25208 59.33125 90.67396Q59.55 91.09583 59.971874 91.33021Q60.39375 91.56458 60.878124 91.56458Q61.628124 91.56458 62.1125 91.08021Q62.6125 90.59583 62.6125 89.84583Q62.6125 89.08021 62.1125 88.58021Q61.6125 88.08021 60.846874 88.08021Q60.096874 88.08021 59.6125 88.58021Q59.128124 89.06458 59.128124 89.79896ZM65.05 88.04896Q65.05 86.51771 65.3625 85.59583Q65.675 84.65833 66.28438 84.15833Q66.90938 83.65833 67.84688 83.65833Q68.53438 83.65833 69.05 83.93958Q69.58125 84.22083 69.925 84.75208Q70.26875 85.26771 70.45625 86.01771Q70.64375 86.76771 70.64375 88.04896Q70.64375 89.56458 70.33125 90.48646Q70.03438 91.40833 69.40938 91.92396Q68.8 92.42396 67.84688 92.42396Q66.6125 92.42396 65.89375 91.53333Q65.05 90.47083 65.05 88.04896ZM66.12813 88.04896Q66.12813 90.15833 66.62813 90.86146Q67.12813 91.56458 67.84688 91.56458Q68.58125 91.56458 69.06563 90.86146Q69.56563 90.15833 69.56563 88.04896Q69.56563 85.92396 69.06563 85.23646Q68.58125 84.53333 67.83125 84.53333Q67.1125 84.53333 66.675 85.14271Q66.12813 85.92396 66.12813 88.04896Z" fill-rule="nonzero"/><path fill="#000000" d="M78.51875 317.45L77.47188 317.45L77.47188 310.73126Q77.08125 311.09064 76.45625 311.46564Q75.84688 311.825 75.3625 311.9969L75.3625 310.98126Q76.2375 310.5594 76.89375 309.98126Q77.56563 309.3875 77.84688 308.825L78.51875 308.825L78.51875 317.45Z" fill-rule="nonzero"/><path fill="#000000" d="M188.1481 317.45L187.10123 317.45L187.10123 310.73126Q186.7106 311.09064 186.0856 311.46564Q185.47623 311.825 184.99185 311.9969L184.99185 310.98126Q185.86685 310.5594 186.5231 309.98126Q187.19498 309.3875 187.47623 308.825L188.1481 308.825L188.1481 317.45ZM191.17935 313.21564Q191.17935 311.6844 191.49185 310.7625Q191.80435 309.825 192.41373 309.325Q193.03873 308.825 193.97623 308.825Q194.66373 308.825 195.17935 309.10626Q195.7106 309.3875 196.05435 309.91876Q196.3981 310.4344 196.5856 311.1844Q196.7731 311.9344 196.7731 313.21564Q196.7731 314.73126 196.4606 315.65314Q196.16373 316.575 195.53873 317.09064Q194.92935 317.59064 193.97623 317.59064Q192.74185 317.59064 192.0231 316.7Q191.17935 315.6375 191.17935 313.21564ZM192.25748 313.21564Q192.25748 315.325 192.75748 316.02814Q193.25748 316.73126 193.97623 316.73126Q194.7106 316.73126 195.19498 316.02814Q195.69498 315.325 195.69498 313.21564Q195.69498 311.09064 195.19498 310.40314Q194.7106 309.7 193.9606 309.7Q193.24185 309.7 192.80435 310.3094Q192.25748 311.09064 192.25748 313.21564Z" fill-rule="nonzero"/><path fill="#000000" d="M297.77747 317.45L296.7306 317.45L296.7306 310.73126Q296.33997 311.09064 295.71497 311.46564Q295.1056 311.825 294.62122 311.9969L294.62122 310.98126Q295.49622 310.5594 296.15247 309.98126Q296.82434 309.3875 297.1056 308.825L297.77747 308.825L297.77747 317.45ZM300.80872 313.21564Q300.80872 311.6844 301.12122 310.7625Q301.43372 309.825 302.0431 309.325Q302.6681 308.825 303.6056 308.825Q304.2931 308.825 304.80872 309.10626Q305.33997 309.3875 305.68372 309.91876Q306.02747 310.4344 306.21497 311.1844Q306.40247 311.9344 306.40247 313.21564Q306.40247 314.73126 306.08997 315.65314Q305.7931 316.575 305.1681 317.09064Q304.55872 317.59064 303.6056 317.59064Q302.37122 317.59064 301.65247 316.7Q300.80872 315.6375 300.80872 313.21564ZM301.88684 313.21564Q301.88684 315.325 302.38684 316.02814Q302.88684 316.73126 303.6056 316.73126Q304.33997 316.73126 304.82434 316.02814Q305.32434 315.325 305.32434 313.21564Q305.32434 311.09064 304.82434 310.40314Q304.33997 309.7 303.58997 309.7Q302.87122 309.7 302.43372 310.3094Q301.88684 311.09064 301.88684 313.21564ZM307.80872 313.21564Q307.80872 311.6844 308.12122 310.7625Q308.43372 309.825 309.0431 309.325Q309.6681 308.825 310.6056 308.825Q311.2931 308.825 311.80872 309.10626Q312.33997 309.3875 312.68372 309.91876Q313.02747 310.4344 313.21497 311.1844Q313.40247 311.9344 313.40247 313.21564Q313.40247 314.73126 313.08997 315.65314Q312.7931 316.575 312.1681 317.09064Q311.55872 317.59064 310.6056 317.59064Q309.37122 317.59064 308.65247 316.7Q307.80872 315.6375 307.80872 313.21564ZM308.88684 313.21564Q308.88684 315.325 309.38684 316.02814Q309.88684 316.73126 310.6056 316.73126Q311.33997 316.73126 311.82434 316.02814Q312.32434 315.325 312.32434 313.21564Q312.32434 311.09064 311.82434 310.40314Q311.33997 309.7 310.58997 309.7Q309.87122 309.7 309.43372 310.3094Q308.88684 311.09064 308.88684 313.21564Z" fill-rule="nonzero"/><path fill="#000000" d="M407.40683 317.45L406.35995 317.45L406.35995 310.73126Q405.96933 311.09064 405.34433 311.46564Q404.73495 311.825 404.25058 311.9969L404.25058 310.98126Q405.12558 310.5594 405.78183 309.98126Q406.4537 309.3875 406.73495 308.825L407.40683 308.825L407.40683 317.45ZM410.43808 313.21564Q410.43808 311.6844 410.75058 310.7625Q411.06308 309.825 411.67245 309.325Q412.29745 308.825 413.23495 308.825Q413.92245 308.825 414.43808 309.10626Q414.96933 309.3875 415.31308 309.91876Q415.65683 310.4344 415.84433 311.1844Q416.03183 311.9344 416.03183 313.21564Q416.03183 314.73126 415.71933 315.65314Q415.42245 316.575 414.79745 317.09064Q414.18808 317.59064 413.23495 317.59064Q412.00058 317.59064 411.28183 316.7Q410.43808 315.6375 410.43808 313.21564ZM411.5162 313.21564Q411.5162 315.325 412.0162 316.02814Q412.5162 316.73126 413.23495 316.73126Q413.96933 316.73126 414.4537 316.02814Q414.9537 315.325 414.9537 313.21564Q414.9537 311.09064 414.4537 310.40314Q413.96933 309.7 413.21933 309.7Q412.50058 309.7 412.06308 310.3094Q411.5162 311.09064 411.5162 313.21564ZM417.43808 313.21564Q417.43808 311.6844 417.75058 310.7625Q418.06308 309.825 418.67245 309.325Q419.29745 308.825 420.23495 308.825Q420.92245 308.825 421.43808 309.10626Q421.96933 309.3875 422.31308 309.91876Q422.65683 310.4344 422.84433 311.1844Q423.03183 311.9344 423.03183 313.21564Q423.03183 314.73126 422.71933 315.65314Q422.42245 316.575 421.79745 317.09064Q421.18808 317.59064 420.23495 317.59064Q419.00058 317.59064 418.28183 316.7Q417.43808 315.6375 417.43808 313.21564ZM418.5162 313.21564Q418.5162 315.325 419.0162 316.02814Q419.5162 316.73126 420.23495 316.73126Q420.96933 316.73126 421.4537 316.02814Q421.9537 315.325 421.9537 313.21564Q421.9537 311.09064 421.4537 310.40314Q420.96933 309.7 420.21933 309.7Q419.50058 309.7 419.06308 310.3094Q418.5162 311.09064 418.5162 313.21564ZM424.43808 313.21564Q424.43808 311.6844 424.75058 310.7625Q425.06308 309.825 425.67245 309.325Q426.29745 308.825 427.23495 308.825Q427.92245 308.825 428.43808 309.10626Q428.96933 309.3875 429.31308 309.91876Q429.65683 310.4344 429.84433 311.1844Q430.03183 311.9344 430.03183 313.21564Q430.03183 314.73126 429.71933 315.65314Q429.42245 316.575 428.79745 317.09064Q428.18808 317.59064 427.23495 317.59064Q426.00058 317.59064 425.28183 316.7Q424.43808 315.6375 424.43808 313.21564ZM425.5162 313.21564Q425.5162 315.325 426.0162 316.02814Q426.5162 316.73126 427.23495 316.73126Q427.96933 316.73126 428.4537 316.02814Q428.9537 315.325 428.9537 313.21564Q428.9537 311.09064 428.4537 310.40314Q427.96933 309.7 427.21933 309.7Q426.50058 309.7 426.06308 310.3094Q425.5162 311.09064 425.5162 313.21564Z" fill-rule="nonzero"/><path stroke="#ea4335" stroke-width="4.0" stroke-linecap="butt" d="M239.5 61.916668L251.5 61.916668" fill-rule="nonzero"/><path fill="#1a1a1a" d="M260.42188 65.916664L260.42188 57.322914L263.67188 57.322914Q264.51562 57.322914 264.96875 57.40104Q265.60938 57.510414 266.03125 57.80729Q266.46875 58.104164 266.71875 58.635414Q266.98438 59.166664 266.98438 59.80729Q266.98438 60.90104 266.28125 61.666664Q265.59375 62.416664 263.76562 62.416664L261.5625 62.416664L261.5625 65.916664L260.42188 65.916664ZM261.5625 61.416664L263.78125 61.416664Q264.89062 61.416664 265.34375 61.010414Q265.8125 60.58854 265.8125 59.83854Q265.8125 59.30729 265.53125 58.93229Q265.26562 58.541664 264.82812 58.416664Q264.53125 58.33854 263.76562 58.33854L261.5625 58.33854L261.5625 61.416664ZM272.35938 65.15104Q271.76562 65.65104 271.21875 65.854164Q270.6875 66.05729 270.0625 66.05729Q269.03125 66.05729 268.48438 65.55729Q267.9375 65.05729 267.9375 64.27604Q267.9375 63.822914 268.14062 63.447914Q268.34375 63.05729 268.6875 62.83854Q269.03125 62.604164 269.45312 62.49479Q269.75 62.40104 270.39062 62.322914Q271.65625 62.18229 272.26562 61.96354Q272.26562 61.74479 272.26562 61.697914Q272.26562 61.041664 271.96875 60.77604Q271.5625 60.43229 270.76562 60.43229Q270.03125 60.43229 269.67188 60.697914Q269.3125 60.947914 269.14062 61.604164L268.10938 61.46354Q268.25 60.80729 268.57812 60.40104Q268.90625 59.99479 269.51562 59.77604Q270.125 59.55729 270.92188 59.55729Q271.71875 59.55729 272.21875 59.74479Q272.71875 59.93229 272.95312 60.21354Q273.1875 60.49479 273.28125 60.93229Q273.32812 61.197914 273.32812 61.90104L273.32812 63.30729Q273.32812 64.77604 273.39062 65.166664Q273.46875 65.55729 273.67188 65.916664L272.5625 65.916664Q272.40625 65.58854 272.35938 65.15104ZM272.26562 62.791664Q271.6875 63.02604 270.54688 63.197914Q269.89062 63.291664 269.625 63.416664Q269.35938 63.52604 269.20312 63.74479Q269.0625 63.96354 269.0625 64.24479Q269.0625 64.666664 269.375 64.947914Q269.70312 65.229164 270.3125 65.229164Q270.92188 65.229164 271.39062 64.96354Q271.875 64.697914 272.09375 64.229164Q272.26562 63.86979 272.26562 63.18229L272.26562 62.791664ZM277.59375 64.979164L277.75 65.90104Q277.29688 65.99479 276.95312 65.99479Q276.375 65.99479 276.0625 65.822914Q275.75 65.635414 275.60938 65.33854Q275.48438 65.041664 275.48438 64.08854L275.48438 60.510414L274.71875 60.510414L274.71875 59.697914L275.48438 59.697914L275.48438 58.15104L276.53125 57.52604L276.53125 59.697914L277.59375 59.697914L277.59375 60.510414L276.53125 60.510414L276.53125 64.15104Q276.53125 64.604164 276.57812 64.729164Q276.64062 64.854164 276.76562 64.93229Q276.89062 65.010414 277.125 65.010414Q277.3125 65.010414 277.59375 64.979164ZM282.35938 63.635414L283.39062 63.77604Q283.21875 64.83854 282.51562 65.447914Q281.8125 66.05729 280.79688 66.05729Q279.51562 66.05729 278.73438 65.229164Q277.96875 64.385414 277.96875 62.822914Q277.96875 61.822914 278.29688 61.072914Q278.64062 60.30729 279.3125 59.93229Q280.0 59.55729 280.8125 59.55729Q281.8125 59.55729 282.45312 60.072914Q283.10938 60.572914 283.29688 61.52604L282.26562 61.68229Q282.125 61.05729 281.75 60.74479Q281.375 60.416664 280.84375 60.416664Q280.04688 60.416664 279.54688 60.99479Q279.04688 61.55729 279.04688 62.791664Q279.04688 64.05729 279.53125 64.61979Q280.01562 65.18229 280.78125 65.18229Q281.40625 65.18229 281.8125 64.80729Q282.23438 64.43229 282.35938 63.635414ZM284.29688 65.916664L284.29688 57.322914L285.34375 57.322914L285.34375 60.40104Q286.07812 59.55729 287.20312 59.55729Q287.90625 59.55729 288.40625 59.83854Q288.92188 60.104164 289.14062 60.58854Q289.35938 61.05729 289.35938 61.979164L289.35938 65.916664L288.3125 65.916664L288.3125 61.979164Q288.3125 61.18229 287.96875 60.822914Q287.625 60.46354 287.0 60.46354Q286.53125 60.46354 286.10938 60.71354Q285.70312 60.947914 285.51562 61.36979Q285.34375 61.77604 285.34375 62.510414L285.34375 65.916664L284.29688 65.916664ZM295.54688 63.916664L296.64062 64.041664Q296.39062 64.99479 295.6875 65.52604Q294.98438 66.05729 293.90625 66.05729Q292.54688 66.05729 291.73438 65.21354Q290.9375 64.36979 290.9375 62.854164Q290.9375 61.291664 291.75 60.43229Q292.5625 59.55729 293.84375 59.55729Q295.09375 59.55729 295.875 60.40104Q296.67188 61.24479 296.67188 62.791664Q296.67188 62.885414 296.67188 63.072914L292.03125 63.072914Q292.09375 64.104164 292.60938 64.65104Q293.125 65.18229 293.90625 65.18229Q294.48438 65.18229 294.89062 64.885414Q295.3125 64.572914 295.54688 63.916664ZM292.09375 62.21354L295.5625 62.21354Q295.5 61.416664 295.17188 61.02604Q294.65625 60.416664 293.85938 60.416664Q293.125 60.416664 292.625 60.90104Q292.14062 61.385414 292.09375 62.21354ZM302.32812 65.916664L302.32812 65.135414Q301.73438 66.05729 300.59375 66.05729Q299.84375 66.05729 299.21875 65.65104Q298.59375 65.229164 298.25 64.49479Q297.90625 63.760414 297.90625 62.80729Q297.90625 61.885414 298.21875 61.11979Q298.53125 60.354164 299.15625 59.96354Q299.78125 59.55729 300.54688 59.55729Q301.10938 59.55729 301.54688 59.791664Q301.98438 60.02604 302.26562 60.40104L302.26562 57.322914L303.3125 57.322914L303.3125 65.916664L302.32812 65.916664ZM299.0 62.80729Q299.0 64.010414 299.5 64.604164Q300.0 65.18229 300.6875 65.18229Q301.375 65.18229 301.85938 64.61979Q302.34375 64.05729 302.34375 62.90104Q302.34375 61.61979 301.84375 61.02604Q301.35938 60.43229 300.64062 60.43229Q299.9375 60.43229 299.46875 61.010414Q299.0 61.572914 299.0 62.80729Z" fill-rule="nonzero"/><path fill="#757575" d="M91.640625 37.55L95.4375 32.159374L91.9375 27.175L94.125 27.175L95.71875 29.6125Q96.171875 30.3 96.4375 30.76875Q96.875 30.128124 97.234375 29.628124L98.984375 27.175L101.078125 27.175L97.5 32.065624L101.359375 37.55L99.203125 37.55L97.0625 34.33125L96.5 33.45625L93.78125 37.55L91.640625 37.55ZM104.03125 29.784374Q102.9375 29.378124 102.40625 28.64375Q101.890625 27.89375 101.890625 26.8625Q101.890625 25.3 103.015625 24.2375Q104.140625 23.175 106.0 23.175Q107.875 23.175 109.015625 24.26875Q110.15625 25.346874 110.15625 26.909374Q110.15625 27.909374 109.625 28.64375Q109.109375 29.378124 108.046875 29.784374Q109.375 30.221874 110.0625 31.175Q110.75 32.128124 110.75 33.45625Q110.75 35.3 109.4375 36.55Q108.140625 37.8 106.03125 37.8Q103.90625 37.8 102.609375 36.55Q101.3125 35.284374 101.3125 33.409374Q101.3125 32.01875 102.015625 31.08125Q102.734375 30.128124 104.03125 29.784374ZM103.6875 26.8Q103.6875 27.815624 104.34375 28.471874Q105.0 29.1125 106.03125 29.1125Q107.046875 29.1125 107.703125 28.471874Q108.359375 27.83125 108.359375 26.909374Q108.359375 25.940624 107.6875 25.284374Q107.015625 24.6125 106.015625 24.6125Q105.015625 24.6125 104.34375 25.26875Q103.6875 25.909374 103.6875 26.8ZM103.125 33.425Q103.125 34.175 103.46875 34.878124Q103.828125 35.58125 104.53125 35.971874Q105.234375 36.346874 106.046875 36.346874Q107.3125 36.346874 108.125 35.534374Q108.953125 34.721874 108.953125 33.471874Q108.953125 32.20625 108.109375 31.378124Q107.265625 30.55 105.984375 30.55Q104.75 30.55 103.9375 31.378124Q103.125 32.190624 103.125 33.425ZM121.453125 26.7375L119.703125 26.878124Q119.46875 25.846874 119.046875 25.378124Q118.328125 24.6125 117.28125 24.6125Q116.4375 24.6125 115.8125 25.08125Q114.984375 25.690624 114.5 26.8625Q114.015625 28.01875 114.0 30.159374Q114.640625 29.20625 115.546875 28.7375Q116.46875 28.26875 117.484375 28.26875Q119.234375 28.26875 120.46875 29.565624Q121.703125 30.846874 121.703125 32.89375Q121.703125 34.253124 121.125 35.409374Q120.546875 36.565624 119.53125 37.190624Q118.515625 37.8 117.21875 37.8Q115.03125 37.8 113.640625 36.190624Q112.25 34.565624 112.25 30.846874Q112.25 26.70625 113.78125 24.815624Q115.125 23.175 117.390625 23.175Q119.078125 23.175 120.15625 24.128124Q121.234375 25.065624 121.453125 26.7375ZM114.28125 32.909374Q114.28125 33.815624 114.65625 34.64375Q115.046875 35.471874 115.734375 35.909374Q116.4375 36.346874 117.1875 36.346874Q118.3125 36.346874 119.109375 35.45625Q119.90625 34.55 119.90625 33.003124Q119.90625 31.51875 119.109375 30.675Q118.328125 29.815624 117.125 29.815624Q115.9375 29.815624 115.109375 30.675Q114.28125 31.51875 114.28125 32.909374ZM132.70312 37.55L128.75 27.175L130.60938 27.175L132.84375 33.39375Q133.20312 34.39375 133.5 35.471874Q133.73438 34.659374 134.15625 33.503124L136.45312 27.175L138.26562 27.175L134.34375 37.55L132.70312 37.55ZM138.78125 37.55L138.78125 23.2375L140.53125 23.2375L140.53125 37.55L138.78125 37.55ZM149.92188 34.20625L151.73438 34.440624Q151.3125 36.01875 150.14062 36.909374Q148.98438 37.784374 147.17188 37.784374Q144.90625 37.784374 143.5625 36.39375Q142.23438 34.9875 142.23438 32.45625Q142.23438 29.83125 143.57812 28.39375Q144.92188 26.940624 147.07812 26.940624Q149.15625 26.940624 150.46875 28.3625Q151.79688 29.76875 151.79688 32.346874Q151.79688 32.503124 151.78125 32.815624L144.04688 32.815624Q144.14062 34.51875 145.01562 35.425Q145.89062 36.33125 147.1875 36.33125Q148.15625 36.33125 148.82812 35.83125Q149.51562 35.315624 149.92188 34.20625ZM144.14062 31.3625L149.9375 31.3625Q149.82812 30.065624 149.28125 29.409374Q148.4375 28.39375 147.09375 28.39375Q145.89062 28.39375 145.0625 29.20625Q144.23438 30.003124 144.14062 31.3625ZM156.03125 29.784374Q154.9375 29.378124 154.40625 28.64375Q153.89062 27.89375 153.89062 26.8625Q153.89062 25.3 155.01562 24.2375Q156.14062 23.175 158.0 23.175Q159.875 23.175 161.01562 24.26875Q162.15625 25.346874 162.15625 26.909374Q162.15625 27.909374 161.625 28.64375Q161.10938 29.378124 160.04688 29.784374Q161.375 30.221874 162.0625 31.175Q162.75 32.128124 162.75 33.45625Q162.75 35.3 161.4375 36.55Q160.14062 37.8 158.03125 37.8Q155.90625 37.8 154.60938 36.55Q153.3125 35.284374 153.3125 33.409374Q153.3125 32.01875 154.01562 31.08125Q154.73438 30.128124 156.03125 29.784374ZM155.6875 26.8Q155.6875 27.815624 156.34375 28.471874Q157.0 29.1125 158.03125 29.1125Q159.04688 29.1125 159.70312 28.471874Q160.35938 27.83125 160.35938 26.909374Q160.35938 25.940624 159.6875 25.284374Q159.01562 24.6125 158.01562 24.6125Q157.01562 24.6125 156.34375 25.26875Q155.6875 25.909374 155.6875 26.8ZM155.125 33.425Q155.125 34.175 155.46875 34.878124Q155.82812 35.58125 156.53125 35.971874Q157.23438 36.346874 158.04688 36.346874Q159.3125 36.346874 160.125 35.534374Q160.95312 34.721874 160.95312 33.471874Q160.95312 32.20625 160.10938 31.378124Q159.26562 30.55 157.98438 30.55Q156.75 30.55 155.9375 31.378124Q155.125 32.190624 155.125 33.425ZM165.3125 37.55L165.3125 35.55L167.3125 35.55L167.3125 37.55L165.3125 37.55ZM173.70312 37.55L169.75 27.175L171.60938 27.175L173.84375 33.39375Q174.20312 34.39375 174.5 35.471874Q174.73438 34.659374 175.15625 33.503124L177.45312 27.175L179.26562 27.175L175.34375 37.55L173.70312 37.55ZM185.10938 34.45625L186.85938 34.175Q187.0 35.221874 187.67188 35.784374Q188.34375 36.33125 189.54688 36.33125Q190.75 36.33125 191.32812 35.846874Q191.92188 35.346874 191.92188 34.690624Q191.92188 34.096874 191.40625 33.753124Q191.04688 33.51875 189.60938 33.159374Q187.67188 32.659374 186.92188 32.315624Q186.1875 31.95625 185.79688 31.33125Q185.40625 30.690624 185.40625 29.925Q185.40625 29.2375 185.71875 28.64375Q186.04688 28.05 186.59375 27.659374Q187.0 27.3625 187.70312 27.159374Q188.42188 26.940624 189.23438 26.940624Q190.45312 26.940624 191.375 27.3Q192.29688 27.64375 192.73438 28.253124Q193.17188 28.846874 193.34375 29.846874L191.625 30.08125Q191.5 29.284374 190.9375 28.846874Q190.375 28.39375 189.35938 28.39375Q188.14062 28.39375 187.625 28.8Q187.10938 29.190624 187.10938 29.721874Q187.10938 30.065624 187.32812 30.346874Q187.53125 30.628124 188.0 30.815624Q188.26562 30.909374 189.54688 31.253124Q191.42188 31.753124 192.15625 32.08125Q192.89062 32.39375 193.3125 33.003124Q193.73438 33.596874 193.73438 34.503124Q193.73438 35.378124 193.21875 36.159374Q192.70312 36.940624 191.73438 37.3625Q190.76562 37.784374 189.54688 37.784374Q187.53125 37.784374 186.46875 36.940624Q185.40625 36.096874 185.10938 34.45625ZM195.8125 41.51875L195.8125 27.175L197.42188 27.175L197.42188 28.51875Q197.98438 27.7375 198.6875 27.346874Q199.40625 26.940624 200.42188 26.940624Q201.75 26.940624 202.76562 27.628124Q203.78125 28.315624 204.29688 29.565624Q204.82812 30.8 204.82812 32.284374Q204.82812 33.878124 204.25 35.159374Q203.6875 36.425 202.59375 37.1125Q201.5 37.784374 200.29688 37.784374Q199.42188 37.784374 198.71875 37.409374Q198.03125 37.034374 197.57812 36.471874L197.57812 41.51875L195.8125 41.51875ZM197.40625 32.425Q197.40625 34.425 198.21875 35.378124Q199.03125 36.33125 200.1875 36.33125Q201.35938 36.33125 202.1875 35.346874Q203.03125 34.3625 203.03125 32.26875Q203.03125 30.3 202.20312 29.315624Q201.39062 28.315624 200.26562 28.315624Q199.14062 28.315624 198.26562 29.378124Q197.40625 30.425 197.40625 32.425ZM213.92188 34.20625L215.73438 34.440624Q215.3125 36.01875 214.14062 36.909374Q212.98438 37.784374 211.17188 37.784374Q208.90625 37.784374 207.5625 36.39375Q206.23438 34.9875 206.23438 32.45625Q206.23438 29.83125 207.57812 28.39375Q208.92188 26.940624 211.07812 26.940624Q213.15625 26.940624 214.46875 28.3625Q215.79688 29.76875 215.79688 32.346874Q215.79688 32.503124 215.78125 32.815624L208.04688 32.815624Q208.14062 34.51875 209.01562 35.425Q209.89062 36.33125 211.1875 36.33125Q212.15625 36.33125 212.82812 35.83125Q213.51562 35.315624 213.92188 34.20625ZM208.14062 31.3625L213.9375 31.3625Q213.82812 30.065624 213.28125 29.409374Q212.4375 28.39375 211.09375 28.39375Q209.89062 28.39375 209.0625 29.20625Q208.23438 30.003124 208.14062 31.3625ZM224.92188 34.20625L226.73438 34.440624Q226.3125 36.01875 225.14062 36.909374Q223.98438 37.784374 222.17188 37.784374Q219.90625 37.784374 218.5625 36.39375Q217.23438 34.9875 217.23438 32.45625Q217.23438 29.83125 218.57812 28.39375Q219.92188 26.940624 222.07812 26.940624Q224.15625 26.940624 225.46875 28.3625Q226.79688 29.76875 226.79688 32.346874Q226.79688 32.503124 226.78125 32.815624L219.04688 32.815624Q219.14062 34.51875 220.01562 35.425Q220.89062 36.33125 222.1875 36.33125Q223.15625 36.33125 223.82812 35.83125Q224.51562 35.315624 224.92188 34.20625ZM219.14062 31.3625L224.9375 31.3625Q224.82812 30.065624 224.28125 29.409374Q223.4375 28.39375 222.09375 28.39375Q220.89062 28.39375 220.0625 29.20625Q219.23438 30.003124 219.14062 31.3625ZM235.54688 37.55L235.54688 36.2375Q234.5625 37.784374 232.64062 37.784374Q231.40625 37.784374 230.35938 37.096874Q229.32812 36.409374 228.75 35.190624Q228.1875 33.971874 228.1875 32.378124Q228.1875 30.815624 228.70312 29.55Q229.21875 28.284374 230.25 27.6125Q231.29688 26.940624 232.5625 26.940624Q233.5 26.940624 234.23438 27.346874Q234.96875 27.7375 235.4375 28.3625L235.4375 23.2375L237.17188 23.2375L237.17188 37.55L235.54688 37.55ZM229.98438 32.378124Q229.98438 34.3625 230.82812 35.346874Q231.67188 36.33125 232.8125 36.33125Q233.96875 36.33125 234.76562 35.39375Q235.57812 34.45625 235.57812 32.51875Q235.57812 30.39375 234.75 29.39375Q233.9375 28.39375 232.73438 28.39375Q231.5625 28.39375 230.76562 29.3625Q229.98438 30.315624 229.98438 32.378124ZM246.60938 37.55L246.60938 36.01875Q245.40625 37.784374 243.32812 37.784374Q242.40625 37.784374 241.60938 37.440624Q240.8125 37.08125 240.42188 36.55Q240.04688 36.01875 239.89062 35.2375Q239.78125 34.721874 239.78125 33.596874L239.78125 27.175L241.53125 27.175L241.53125 32.925Q241.53125 34.3 241.64062 34.784374Q241.8125 35.471874 242.34375 35.878124Q242.89062 36.26875 243.67188 36.26875Q244.46875 36.26875 245.15625 35.8625Q245.85938 35.45625 246.14062 34.76875Q246.4375 34.065624 246.4375 32.7375L246.4375 27.175L248.1875 27.175L248.1875 37.55L246.60938 37.55ZM249.8125 41.51875L249.8125 27.175L251.42188 27.175L251.42188 28.51875Q251.98438 27.7375 252.6875 27.346874Q253.40625 26.940624 254.42188 26.940624Q255.75 26.940624 256.76562 27.628124Q257.78125 28.315624 258.29688 29.565624Q258.82812 30.8 258.82812 32.284374Q258.82812 33.878124 258.25 35.159374Q257.6875 36.425 256.59375 37.1125Q255.5 37.784374 254.29688 37.784374Q253.42188 37.784374 252.71875 37.409374Q252.03125 37.034374 251.57812 36.471874L251.57812 41.51875L249.8125 41.51875ZM251.40625 32.425Q251.40625 34.425 252.21875 35.378124Q253.03125 36.33125 254.1875 36.33125Q255.35938 36.33125 256.1875 35.346874Q257.03125 34.3625 257.03125 32.26875Q257.03125 30.3 256.20312 29.315624Q255.39062 28.315624 254.26562 28.315624Q253.14062 28.315624 252.26562 29.378124Q251.40625 30.425 251.40625 32.425ZM271.14062 37.55L265.59375 23.2375L267.64062 23.2375L271.35938 33.628124Q271.8125 34.878124 272.10938 35.971874Q272.4375 34.8 272.89062 33.628124L276.75 23.2375L278.6875 23.2375L273.07812 37.55L271.14062 37.55ZM279.96875 37.55L279.96875 23.2375L281.85938 23.2375L281.85938 35.8625L288.90625 35.8625L288.90625 37.55L279.96875 37.55ZM291.07812 37.55L291.07812 23.2375L301.4375 23.2375L301.4375 24.925L292.98438 24.925L292.98438 29.3L300.89062 29.3L300.89062 30.9875L292.98438 30.9875L292.98438 35.8625L301.76562 35.8625L301.76562 37.55L291.07812 37.55ZM304.03125 37.55L304.03125 23.2375L305.96875 23.2375L313.48438 34.471874L313.48438 23.2375L315.29688 23.2375L315.29688 37.55L313.35938 37.55L305.84375 26.3L305.84375 37.55L304.03125 37.55ZM326.0625 29.128124L316.60938 29.128124L316.60938 27.4875L326.0625 27.4875L326.0625 29.128124ZM326.0625 33.471874L316.60938 33.471874L316.60938 31.83125L326.0625 31.83125L326.0625 33.471874ZM334.95312 37.55L333.1875 37.55L333.1875 26.346874Q332.5625 26.95625 331.53125 27.565624Q330.5 28.159374 329.67188 28.471874L329.67188 26.76875Q331.15625 26.08125 332.25 25.096874Q333.35938 24.096874 333.8125 23.175L334.95312 23.175L334.95312 37.55ZM339.32812 30.4875Q339.32812 27.95625 339.84375 26.409374Q340.375 24.846874 341.40625 24.01875Q342.4375 23.175 344.0 23.175Q345.15625 23.175 346.01562 23.64375Q346.89062 24.096874 347.45312 24.971874Q348.01562 25.846874 348.34375 27.1125Q348.67188 28.3625 348.67188 30.4875Q348.67188 33.003124 348.14062 34.55Q347.625 36.096874 346.59375 36.95625Q345.57812 37.8 344.0 37.8Q341.92188 37.8 340.75 36.315624Q339.32812 34.51875 339.32812 30.4875ZM341.14062 30.4875Q341.14062 34.01875 341.95312 35.190624Q342.78125 36.346874 344.0 36.346874Q345.20312 36.346874 346.03125 35.175Q346.85938 34.003124 346.85938 30.4875Q346.85938 26.95625 346.03125 25.8Q345.20312 24.628124 343.98438 24.628124Q342.76562 24.628124 342.04688 25.659374Q341.14062 26.95625 341.14062 30.4875ZM359.5625 35.8625L359.5625 37.55L350.10938 37.55Q350.09375 36.909374 350.3125 36.33125Q350.67188 35.3625 351.46875 34.425Q352.26562 33.4875 353.76562 32.253124Q356.10938 30.346874 356.92188 29.2375Q357.75 28.1125 357.75 27.1125Q357.75 26.065624 357.0 25.346874Q356.25 24.628124 355.04688 24.628124Q353.78125 24.628124 353.01562 25.39375Q352.25 26.159374 352.25 27.503124L350.4375 27.315624Q350.625 25.3 351.82812 24.2375Q353.04688 23.175 355.09375 23.175Q357.14062 23.175 358.34375 24.315624Q359.54688 25.45625 359.54688 27.14375Q359.54688 28.003124 359.1875 28.846874Q358.84375 29.675 358.03125 30.596874Q357.21875 31.503124 355.32812 33.1125Q353.73438 34.440624 353.28125 34.909374Q352.84375 35.378124 352.54688 35.8625L359.5625 35.8625ZM366.96875 37.55L366.96875 34.128124L360.75 34.128124L360.75 32.503124L367.28125 23.2375L368.71875 23.2375L368.71875 32.503124L370.65625 32.503124L370.65625 34.128124L368.71875 34.128124L368.71875 37.55L366.96875 37.55ZM366.96875 32.503124L366.96875 26.05L362.48438 32.503124L366.96875 32.503124ZM378.96875 37.55L378.96875 23.2375L380.85938 23.2375L380.85938 35.8625L387.90625 35.8625L387.90625 37.55L378.96875 37.55ZM389.98438 37.55L389.98438 23.2375L392.84375 23.2375L396.21875 33.3625Q396.6875 34.784374 396.90625 35.4875Q397.15625 34.70625 397.67188 33.190624L401.09375 23.2375L403.64062 23.2375L403.64062 37.55L401.82812 37.55L401.82812 25.565624L397.65625 37.55L395.95312 37.55L391.8125 25.3625L391.8125 37.55L389.98438 37.55ZM416.4375 23.2375L418.32812 23.2375L418.32812 31.503124Q418.32812 33.659374 417.84375 34.940624Q417.35938 36.20625 416.07812 37.003124Q414.8125 37.8 412.73438 37.8Q410.71875 37.8 409.4375 37.1125Q408.17188 36.409374 407.625 35.096874Q407.07812 33.784374 407.07812 31.503124L407.07812 23.2375L408.96875 23.2375L408.96875 31.4875Q408.96875 33.3625 409.3125 34.253124Q409.65625 35.128124 410.5 35.6125Q411.34375 36.08125 412.57812 36.08125Q414.65625 36.08125 415.54688 35.14375Q416.4375 34.190624 416.4375 31.4875L416.4375 23.2375ZM419.96875 37.55L419.96875 23.2375L421.85938 23.2375L421.85938 35.8625L428.90625 35.8625L428.90625 37.55L419.96875 37.55ZM440.0625 29.128124L430.60938 29.128124L430.60938 27.4875L440.0625 27.4875L440.0625 29.128124ZM440.0625 33.471874L430.60938 33.471874L430.60938 31.83125L440.0625 31.83125L440.0625 33.471874ZM445.03125 29.784374Q443.9375 29.378124 443.40625 28.64375Q442.89062 27.89375 442.89062 26.8625Q442.89062 25.3 444.01562 24.2375Q445.14062 23.175 447.0 23.175Q448.875 23.175 450.01562 24.26875Q451.15625 25.346874 451.15625 26.909374Q451.15625 27.909374 450.625 28.64375Q450.10938 29.378124 449.04688 29.784374Q450.375 30.221874 451.0625 31.175Q451.75 32.128124 451.75 33.45625Q451.75 35.3 450.4375 36.55Q449.14062 37.8 447.03125 37.8Q444.90625 37.8 443.60938 36.55Q442.3125 35.284374 442.3125 33.409374Q442.3125 32.01875 443.01562 31.08125Q443.73438 30.128124 445.03125 29.784374ZM444.6875 26.8Q444.6875 27.815624 445.34375 28.471874Q446.0 29.1125 447.03125 29.1125Q448.04688 29.1125 448.70312 28.471874Q449.35938 27.83125 449.35938 26.909374Q449.35938 25.940624 448.6875 25.284374Q448.01562 24.6125 447.01562 24.6125Q446.01562 24.6125 445.34375 25.26875Q444.6875 25.909374 444.6875 26.8ZM444.125 33.425Q444.125 34.175 444.46875 34.878124Q444.82812 35.58125 445.53125 35.971874Q446.23438 36.346874 447.04688 36.346874Q448.3125 36.346874 449.125 35.534374Q449.95312 34.721874 449.95312 33.471874Q449.95312 32.20625 449.10938 31.378124Q448.26562 30.55 446.98438 30.55Q445.75 30.55 444.9375 31.378124Q444.125 32.190624 444.125 33.425Z" fill-rule="nonzero"/></svg>