<svg version="1.1" viewBox="0.0 0.0 544.0 371.0" fill="none" stroke="none" stroke-linecap="square" stroke-miterlimit="10" width="544" height="371" xmlns:xlink="http://www.w3.org/1999/xlink" xmlns="http://www.w3.org/2000/svg"><path fill="#ffffff" d="M0 0L544.0 0L544.0 371.0L0 371.0L0 0Z" fill-rule="nonzero"/><path stroke="#cccccc" stroke-width="1.0" stroke-linecap="butt" d="M77.5 88.5L77.5 300.5" fill-rule="nonzero"/><path stroke="#cccccc" stroke-width="1.0" stroke-linecap="butt" d="M190.5 88.5L190.5 300.5" fill-rule="nonzero"/><path stroke="#cccccc" stroke-width="1.0" stroke-linecap="butt" d="M303.5 88.5L303.5 300.5" fill-rule="nonzero"/><path stroke="#cccccc" stroke-width="1.0" stroke-linecap="butt" d="M416.5 88.5L416.5 300.5" fill-rule="nonzero"/><path stroke="#333333" stroke-width="1.0" stroke-linecap="butt" d="M77.5 300.5L525.5 300.5" fill-rule="nonzero"/><path stroke="#cccccc" stroke-width="1.0" stroke-linecap="butt" d="M77.5 247.5L525.5 247.5" fill-rule="nonzero"/><path stroke="#cccccc" stroke-width="1.0" stroke-linecap="butt" d="M77.5 194.5L525.5 194.5" fill-rule="nonzero"/><path stroke="#cccccc" stroke-width="1.0" stroke-linecap="butt" d="M77.5 141.5L525.5 141.5" fill-rule="nonzero"/><path stroke="#cccccc" stroke-width="1.0" stroke-linecap="butt" d="M77.5 88.5L525.5 88.5" fill-rule="nonzero"/><clipPath id="id_0"><path d="M77.55 88.28333L525.45 88.28333L525.45 300.45L77.55 300.45L77.55 88.28333Z" clip-rule="nonzero"/></clipPath><path stroke="#ea4335" stroke-width="2.0" stroke-linecap="butt" clip-path="url(#id_0)" d="M77.55 298.31616L111.60533 296.87378L131.52641 296.98944L145.66066 294.84595L156.62402 295.36102L165.58176 295.01962L173.1554 295.39743L179.71599 290.71475L185.50284 295.2838L190.67935 295.21964L195.36209 295.73096L199.63708 295.45877L203.5697 294.64188L207.21072 294.59094L210.60045 294.65216L213.77132 294.76566L216.7499 291.5093L219.55817 291.57922L222.21457 291.61847L224.73468 291.66498L227.13182 290.90958L229.41742 291.10303L231.6014 291.7943L233.69241 291.59546L235.69806 291.13147L237.62503 290.1147L239.47926 290.47745L241.26605 290.60938L242.99014 289.71362L244.65578 289.6815L246.26678 290.12344L247.82664 290.3752L249.3385 284.53555L250.80522 285.1388L252.22943 285.1855L262.34323 284.97952L268.7608 278.14407L269.7534 279.74664L270.72632 280.7201L271.68036 281.15512L272.6162 278.23337L277.88535 280.83853L278.71112 280.11737L279.52322 279.55588L280.3221 280.5426L281.10825 281.53812L281.882 282.0361L282.6437 267.9885L283.39383 271.36853L284.13266 272.33792L292.22733 276.3225L315.55197 264.1843L315.93732 265.32462L316.31964 245.67076L316.69907 248.6916L317.07553 249.97754L317.44916 253.62178L317.81998 255.0699L337.1215 229.54578L349.99265 239.29608L354.57056 210.69792L384.04797 189.6308L392.89362 146.1319L418.1033 116.11042L439.38092 112.27263L452.15863 118.47028L469.198 113.196846L486.21396 115.95208L496.80164 110.15282L520.2693 115.833336L525.45 115.51667" fill-rule="nonzero"/><path fill="#000000" fill-opacity="0.0" clip-path="url(#id_0)" d="M80.55 298.31616C80.55 299.97302 79.206856 301.31616 77.55 301.31616C75.89314 301.31616 74.55 299.97302 74.55 298.31616C74.55 296.65933 75.89314 295.31616 77.55 295.31616C79.206856 295.31616 80.55 296.65933 80.55 298.31616Z" fill-rule="nonzero"/><path fill="#000000" fill-opacity="0.0" clip-path="url(#id_0)" d="M114.60533 296.87378C114.60533 298.5306 113.262184 299.87378 111.60533 299.87378C109.94848 299.87378 108.60533 298.5306 108.60533 296.87378C108.60533 295.21692 109.94848 293.87378 111.60533 293.87378C113.262184 293.87378 114.60533 295.21692 114.60533 296.87378Z" fill-rule="nonzero"/><path fill="#000000" fill-opacity="0.0" clip-path="url(#id_0)" d="M134.52641 296.98944C134.52641 298.6463 133.18327 299.98944 131.52641 299.98944C129.86957 299.98944 128.52641 298.6463 128.52641 296.98944C128.52641 295.33258 129.86957 293.98944 131.52641 293.98944C133.18327 293.98944 134.52641 295.33258 134.52641 296.98944Z" fill-rule="nonzero"/><path fill="#000000" fill-opacity="0.0" clip-path="url(#id_0)" d="M148.66066 294.84595C148.66066 296.5028 147.31752 297.84595 145.66066 297.84595C144.0038 297.84595 142.66066 296.5028 142.66066 294.84595C142.66066 293.1891 144.0038 291.84595 145.66066 291.84595C147.31752 291.84595 148.66066 293.1891 148.66066 294.84595Z" fill-rule="nonzero"/><path fill="#000000" fill-opacity="0.0" clip-path="url(#id_0)" d="M159.62402 295.36102C159.62402 297.01788 158.28088 298.36102 156.62402 298.36102C154.96718 298.36102 153.62402 297.01788 153.62402 295.36102C153.62402 293.7042 154.96718 292.36102 156.62402 292.36102C158.28088 292.36102 159.62402 293.7042 159.62402 295.36102Z" fill-rule="nonzero"/><path fill="#000000" fill-opacity="0.0" clip-path="url(#id_0)" d="M168.58176 295.01962C168.58176 296.67648 167.2386 298.01962 165.58176 298.01962C163.9249 298.01962 162.58176 296.67648 162.58176 295.01962C162.58176 293.36276 163.9249 292.01962 165.58176 292.01962C167.2386 292.01962 168.58176 293.36276 168.58176 295.01962Z" fill-rule="nonzero"/><path fill="#000000" fill-opacity="0.0" clip-path="url(#id_0)" d="M176.1554 295.39743C176.1554 297.05426 174.81226 298.39743 173.1554 298.39743C171.49855 298.39743 170.1554 297.05426 170.1554 295.39743C170.1554 293.74057 171.49855 292.39743 173.1554 292.39743C174.81226 292.39743 176.1554 293.74057 176.1554 295.39743Z" fill-rule="nonzero"/><path fill="#000000" fill-opacity="0.0" clip-path="url(#id_0)" d="M182.71599 290.71475C182.71599 292.3716 181.37285 293.71475 179.71599 293.71475C178.05913 293.71475 176.71599 292.3716 176.71599 290.71475C176.71599 289.05792 178.05913 287.71475 179.71599 287.71475C181.37285 287.71475 182.71599 289.05792 182.71599 290.71475Z" fill-rule="nonzero"/><path fill="#000000" fill-opacity="0.0" clip-path="url(#id_0)" d="M188.50284 295.2838C188.50284 296.94067 187.1597 298.2838 185.50284 298.2838C183.846 298.2838 182.50284 296.94067 182.50284 295.2838C182.50284 293.62695 183.846 292.2838 185.50284 292.2838C187.1597 292.2838 188.50284 293.62695 188.50284 295.2838Z" fill-rule="nonzero"/><path fill="#000000" fill-opacity="0.0" clip-path="url(#id_0)" d="M193.67935 295.21964C193.67935 296.87646 192.33621 298.21964 190.67935 298.21964C189.0225 298.21964 187.67935 296.87646 187.67935 295.21964C187.67935 293.56277 189.0225 292.21964 190.67935 292.21964C192.33621 292.21964 193.67935 293.56277 193.67935 295.21964Z" fill-rule="nonzero"/><path fill="#000000" fill-opacity="0.0" clip-path="url(#id_0)" d="M198.36209 295.73096C198.36209 297.3878 197.01894 298.73096 195.36209 298.73096C193.70523 298.73096 192.36209 297.3878 192.36209 295.73096C192.36209 294.0741 193.70523 292.73096 195.36209 292.73096C197.01894 292.73096 198.36209 294.0741 198.36209 295.73096Z" fill-rule="nonzero"/><path fill="#000000" fill-opacity="0.0" clip-path="url(#id_0)" d="M202.63708 295.45877C202.63708 297.11563 201.29393 298.45877 199.63708 298.45877C197.98022 298.45877 196.63708 297.11563 196.63708 295.45877C196.63708 293.8019 197.98022 292.45877 199.63708 292.45877C201.29393 292.45877 202.63708 293.8019 202.63708 295.45877Z" fill-rule="nonzero"/><path fill="#000000" fill-opacity="0.0" clip-path="url(#id_0)" d="M206.5697 294.64188C206.5697 296.29874 205.22655 297.64188 203.5697 297.64188C201.91284 297.64188 200.5697 296.29874 200.5697 294.64188C200.5697 292.98502 201.91284 291.64188 203.5697 291.64188C205.22655 291.64188 206.5697 292.98502 206.5697 294.64188Z" fill-rule="nonzero"/><path fill="#000000" fill-opacity="0.0" clip-path="url(#id_0)" d="M210.21072 294.59094C210.21072 296.2478 208.86758 297.59094 207.21072 297.59094C205.55388 297.59094 204.21072 296.2478 204.21072 294.59094C204.21072 292.9341 205.55388 291.59094 207.21072 291.59094C208.86758 291.59094 210.21072 292.9341 210.21072 294.59094Z" fill-rule="nonzero"/><path fill="#000000" fill-opacity="0.0" clip-path="url(#id_0)" d="M213.60045 294.65216C213.60045 296.30902 212.25731 297.65216 210.60045 297.65216C208.94359 297.65216 207.60045 296.30902 207.60045 294.65216C207.60045 292.9953 208.94359 291.65216 210.60045 291.65216C212.25731 291.65216 213.60045 292.9953 213.60045 294.65216Z" fill-rule="nonzero"/><path fill="#000000" fill-opacity="0.0" clip-path="url(#id_0)" d="M216.77132 294.76566C216.77132 296.42252 215.42818 297.76566 213.77132 297.76566C212.11447 297.76566 210.77132 296.42252 210.77132 294.76566C210.77132 293.10883 212.11447 291.76566 213.77132 291.76566C215.42818 291.76566 216.77132 293.10883 216.77132 294.76566Z" fill-rule="nonzero"/><path fill="#000000" fill-opacity="0.0" clip-path="url(#id_0)" d="M219.7499 291.5093C219.7499 293.16617 218.40675 294.5093 216.7499 294.5093C215.09305 294.5093 213.7499 293.16617 213.7499 291.5093C213.7499 289.85245 215.09305 288.5093 216.7499 288.5093C218.40675 288.5093 219.7499 289.85245 219.7499 291.5093Z" fill-rule="nonzero"/><path fill="#000000" fill-opacity="0.0" clip-path="url(#id_0)" d="M222.55817 291.57922C222.55817 293.23608 221.21503 294.57922 219.55817 294.57922C217.90132 294.57922 216.55817 293.23608 216.55817 291.57922C216.55817 289.9224 217.90132 288.57922 219.55817 288.57922C221.21503 288.57922 222.55817 289.9224 222.55817 291.57922Z" fill-rule="nonzero"/><path fill="#000000" fill-opacity="0.0" clip-path="url(#id_0)" d="M225.21457 291.61847C225.21457 293.27533 223.87143 294.61847 222.21457 294.61847C220.55772 294.61847 219.21457 293.27533 219.21457 291.61847C219.21457 289.9616 220.55772 288.61847 222.21457 288.61847C223.87143 288.61847 225.21457 289.9616 225.21457 291.61847Z" fill-rule="nonzero"/><path fill="#000000" fill-opacity="0.0" clip-path="url(#id_0)" d="M227.73468 291.66498C227.73468 293.32184 226.39154 294.66498 224.73468 294.66498C223.07784 294.66498 221.73468 293.32184 221.73468 291.66498C221.73468 290.00812 223.07784 288.66498 224.73468 288.66498C226.39154 288.66498 227.73468 290.00812 227.73468 291.66498Z" fill-rule="nonzero"/><path fill="#000000" fill-opacity="0.0" clip-path="url(#id_0)" d="M230.13182 290.90958C230.13182 292.56644 228.78867 293.90958 227.13182 293.90958C225.47496 293.90958 224.13182 292.56644 224.13182 290.90958C224.13182 289.25275 225.47496 287.90958 227.13182 287.90958C228.78867 287.90958 230.13182 289.25275 230.13182 290.90958Z" fill-rule="nonzero"/><path fill="#000000" fill-opacity="0.0" clip-path="url(#id_0)" d="M232.41742 291.10303C232.41742 292.7599 231.07426 294.10303 229.41742 294.10303C227.76056 294.10303 226.41742 292.7599 226.41742 291.10303C226.41742 289.44617 227.76056 288.10303 229.41742 288.10303C231.07426 288.10303 232.41742 289.44617 232.41742 291.10303Z" fill-rule="nonzero"/><path fill="#000000" fill-opacity="0.0" clip-path="url(#id_0)" d="M234.6014 291.7943C234.6014 293.45114 233.25826 294.7943 231.6014 294.7943C229.94453 294.7943 228.6014 293.45114 228.6014 291.7943C228.6014 290.13745 229.94453 288.7943 231.6014 288.7943C233.25826 288.7943 234.6014 290.13745 234.6014 291.7943Z" fill-rule="nonzero"/><path fill="#000000" fill-opacity="0.0" clip-path="url(#id_0)" d="M236.69241 291.59546C236.69241 293.25232 235.34926 294.59546 233.69241 294.59546C232.03555 294.59546 230.69241 293.25232 230.69241 291.59546C230.69241 289.9386 232.03555 288.59546 233.69241 288.59546C235.34926 288.59546 236.69241 289.9386 236.69241 291.59546Z" fill-rule="nonzero"/><path fill="#000000" fill-opacity="0.0" clip-path="url(#id_0)" d="M238.69806 291.13147C238.69806 292.78833 237.3549 294.13147 235.69806 294.13147C234.0412 294.13147 232.69806 292.78833 232.69806 291.13147C232.69806 289.4746 234.0412 288.13147 235.69806 288.13147C237.3549 288.13147 238.69806 289.4746 238.69806 291.13147Z" fill-rule="nonzero"/><path fill="#000000" fill-opacity="0.0" clip-path="url(#id_0)" d="M240.62503 290.1147C240.62503 291.7715 239.28188 293.1147 237.62503 293.1147C235.96817 293.1147 234.62503 291.7715 234.62503 290.1147C234.62503 288.45782 235.96817 287.1147 237.62503 287.1147C239.28188 287.1147 240.62503 288.45782 240.62503 290.1147Z" fill-rule="nonzero"/><path fill="#000000" fill-opacity="0.0" clip-path="url(#id_0)" d="M242.47926 290.47745C242.47926 292.1343 241.13611 293.47745 239.47926 293.47745C237.8224 293.47745 236.47926 292.1343 236.47926 290.47745C236.47926 288.8206 237.8224 287.47745 239.47926 287.47745C241.13611 287.47745 242.47926 288.8206 242.47926 290.47745Z" fill-rule="nonzero"/><path fill="#000000" fill-opacity="0.0" clip-path="url(#id_0)" d="M244.26605 290.60938C244.26605 292.26624 242.92291 293.60938 241.26605 293.60938C239.6092 293.60938 238.26605 292.26624 238.26605 290.60938C238.26605 288.9525 239.6092 287.60938 241.26605 287.60938C242.92291 287.60938 244.26605 288.9525 244.26605 290.60938Z" fill-rule="nonzero"/><path fill="#000000" fill-opacity="0.0" clip-path="url(#id_0)" d="M245.99014 289.71362C245.99014 291.37048 244.647 292.71362 242.99014 292.71362C241.3333 292.71362 239.99014 291.37048 239.99014 289.71362C239.99014 288.0568 241.3333 286.71362 242.99014 286.71362C244.647 286.71362 245.99014 288.0568 245.99014 289.71362Z" fill-rule="nonzero"/><path fill="#000000" fill-opacity="0.0" clip-path="url(#id_0)" d="M247.65578 289.6815C247.65578 291.33832 246.31264 292.6815 244.65578 292.6815C242.99892 292.6815 241.65578 291.33832 241.65578 289.6815C241.65578 288.02463 242.99892 286.6815 244.65578 286.6815C246.31264 286.6815 247.65578 288.02463 247.65578 289.6815Z" fill-rule="nonzero"/><path fill="#000000" fill-opacity="0.0" clip-path="url(#id_0)" d="M249.26678 290.12344C249.26678 291.7803 247.92365 293.12344 246.26678 293.12344C244.60994 293.12344 243.26678 291.7803 243.26678 290.12344C243.26678 288.46658 244.60994 287.12344 246.26678 287.12344C247.92365 287.12344 249.26678 288.46658 249.26678 290.12344Z" fill-rule="nonzero"/><path fill="#000000" fill-opacity="0.0" clip-path="url(#id_0)" d="M250.82664 290.3752C250.82664 292.03207 249.4835 293.3752 247.82664 293.3752C246.1698 293.3752 244.82664 292.03207 244.82664 290.3752C244.82664 288.71835 246.1698 287.3752 247.82664 287.3752C249.4835 287.3752 250.82664 288.71835 250.82664 290.3752Z" fill-rule="nonzero"/><path fill="#000000" fill-opacity="0.0" clip-path="url(#id_0)" d="M252.3385 284.53555C252.3385 286.1924 250.99536 287.53555 249.3385 287.53555C247.68166 287.53555 246.3385 286.1924 246.3385 284.53555C246.3385 282.8787 247.68166 281.53555 249.3385 281.53555C250.99536 281.53555 252.3385 282.8787 252.3385 284.53555Z" fill-rule="nonzero"/><path fill="#000000" fill-opacity="0.0" clip-path="url(#id_0)" d="M253.80522 285.1388C253.80522 286.79565 252.46208 288.1388 250.80522 288.1388C249.14838 288.1388 247.80522 286.79565 247.80522 285.1388C247.80522 283.48196 249.14838 282.1388 250.80522 282.1388C252.46208 282.1388 253.80522 283.48196 253.80522 285.1388Z" fill-rule="nonzero"/><path fill="#000000" fill-opacity="0.0" clip-path="url(#id_0)" d="M255.22943 285.1855C255.22943 286.84235 253.88628 288.1855 252.22943 288.1855C250.57257 288.1855 249.22943 286.84235 249.22943 285.1855C249.22943 283.52863 250.57257 282.1855 252.22943 282.1855C253.88628 282.1855 255.22943 283.52863 255.22943 285.1855Z" fill-rule="nonzero"/><path fill="#000000" fill-opacity="0.0" clip-path="url(#id_0)" d="M265.34323 284.97952C265.34323 286.63638 264.0001 287.97952 262.34323 287.97952C260.68637 287.97952 259.34323 286.63638 259.34323 284.97952C259.34323 283.32266 260.68637 281.97952 262.34323 281.97952C264.0001 281.97952 265.34323 283.32266 265.34323 284.97952Z" fill-rule="nonzero"/><path fill="#000000" fill-opacity="0.0" clip-path="url(#id_0)" d="M271.7608 278.14407C271.7608 279.80093 270.41766 281.14407 268.7608 281.14407C267.10394 281.14407 265.7608 279.80093 265.7608 278.14407C265.7608 276.48724 267.10394 275.14407 268.7608 275.14407C270.41766 275.14407 271.7608 276.48724 271.7608 278.14407Z" fill-rule="nonzero"/><path fill="#000000" fill-opacity="0.0" clip-path="url(#id_0)" d="M272.7534 279.74664C272.7534 281.4035 271.41025 282.74664 269.7534 282.74664C268.09653 282.74664 266.7534 281.4035 266.7534 279.74664C266.7534 278.08978 268.09653 276.74664 269.7534 276.74664C271.41025 276.74664 272.7534 278.08978 272.7534 279.74664Z" fill-rule="nonzero"/><path fill="#000000" fill-opacity="0.0" clip-path="url(#id_0)" d="M273.72632 280.7201C273.72632 282.37695 272.38318 283.7201 270.72632 283.7201C269.06946 283.7201 267.72632 282.37695 267.72632 280.7201C267.72632 279.06326 269.06946 277.7201 270.72632 277.7201C272.38318 277.7201 273.72632 279.06326 273.72632 280.7201Z" fill-rule="nonzero"/><path fill="#000000" fill-opacity="0.0" clip-path="url(#id_0)" d="M274.68036 281.15512C274.68036 282.81198 273.33722 284.15512 271.68036 284.15512C270.0235 284.15512 268.68036 282.81198 268.68036 281.15512C268.68036 279.4983 270.0235 278.15512 271.68036 278.15512C273.33722 278.15512 274.68036 279.4983 274.68036 281.15512Z" fill-rule="nonzero"/><path fill="#000000" fill-opacity="0.0" clip-path="url(#id_0)" d="M275.6162 278.23337C275.6162 279.89023 274.27307 281.23337 272.6162 281.23337C270.95935 281.23337 269.6162 279.89023 269.6162 278.23337C269.6162 276.5765 270.95935 275.23337 272.6162 275.23337C274.27307 275.23337 275.6162 276.5765 275.6162 278.23337Z" fill-rule="nonzero"/><path fill="#000000" fill-opacity="0.0" clip-path="url(#id_0)" d="M280.88535 280.83853C280.88535 282.4954 279.5422 283.83853 277.88535 283.83853C276.2285 283.83853 274.88535 282.4954 274.88535 280.83853C274.88535 279.1817 276.2285 277.83853 277.88535 277.83853C279.5422 277.83853 280.88535 279.1817 280.88535 280.83853Z" fill-rule="nonzero"/><path fill="#000000" fill-opacity="0.0" clip-path="url(#id_0)" d="M281.71112 280.11737C281.71112 281.7742 280.36795 283.11737 278.71112 283.11737C277.05426 283.11737 275.71112 281.7742 275.71112 280.11737C275.71112 278.4605 277.05426 277.11737 278.71112 277.11737C280.36795 277.11737 281.71112 278.4605 281.71112 280.11737Z" fill-rule="nonzero"/><path fill="#000000" fill-opacity="0.0" clip-path="url(#id_0)" d="M282.52322 279.55588C282.52322 281.21274 281.18008 282.55588 279.52322 282.55588C277.86636 282.55588 276.52322 281.21274 276.52322 279.55588C276.52322 277.89902 277.86636 276.55588 279.52322 276.55588C281.18008 276.55588 282.52322 277.89902 282.52322 279.55588Z" fill-rule="nonzero"/><path fill="#000000" fill-opacity="0.0" clip-path="url(#id_0)" d="M283.3221 280.5426C283.3221 282.19943 281.97897 283.5426 280.3221 283.5426C278.66525 283.5426 277.3221 282.19943 277.3221 280.5426C277.3221 278.88574 278.66525 277.5426 280.3221 277.5426C281.97897 277.5426 283.3221 278.88574 283.3221 280.5426Z" fill-rule="nonzero"/><path fill="#000000" fill-opacity="0.0" clip-path="url(#id_0)" d="M284.10825 281.53812C284.10825 283.19498 282.7651 284.53812 281.10825 284.53812C279.4514 284.53812 278.10825 283.19498 278.10825 281.53812C278.10825 279.88126 279.4514 278.53812 281.10825 278.53812C282.7651 278.53812 284.10825 279.88126 284.10825 281.53812Z" fill-rule="nonzero"/><path fill="#000000" fill-opacity="0.0" clip-path="url(#id_0)" d="M284.882 282.0361C284.882 283.69296 283.53882 285.0361 281.882 285.0361C280.22513 285.0361 278.882 283.69296 278.882 282.0361C278.882 280.37924 280.22513 279.0361 281.882 279.0361C283.53882 279.0361 284.882 280.37924 284.882 282.0361Z" fill-rule="nonzero"/><path fill="#000000" fill-opacity="0.0" clip-path="url(#id_0)" d="M285.6437 267.9885C285.6437 269.64536 284.30057 270.9885 282.6437 270.9885C280.98688 270.9885 279.6437 269.64536 279.6437 267.9885C279.6437 266.33163 280.98688 264.9885 282.6437 264.9885C284.30057 264.9885 285.6437 266.33163 285.6437 267.9885Z" fill-rule="nonzero"/><path fill="#000000" fill-opacity="0.0" clip-path="url(#id_0)" d="M286.39383 271.36853C286.39383 273.0254 285.0507 274.36853 283.39383 274.36853C281.73697 274.36853 280.39383 273.0254 280.39383 271.36853C280.39383 269.71167 281.73697 268.36853 283.39383 268.36853C285.0507 268.36853 286.39383 269.71167 286.39383 271.36853Z" fill-rule="nonzero"/><path fill="#000000" fill-opacity="0.0" clip-path="url(#id_0)" d="M287.13266 272.33792C287.13266 273.99478 285.78952 275.33792 284.13266 275.33792C282.4758 275.33792 281.13266 273.99478 281.13266 272.33792C281.13266 270.68106 282.4758 269.33792 284.13266 269.33792C285.78952 269.33792 287.13266 270.68106 287.13266 272.33792Z" fill-rule="nonzero"/><path fill="#000000" fill-opacity="0.0" clip-path="url(#id_0)" d="M295.22733 276.3225C295.22733 277.97937 293.8842 279.3225 292.22733 279.3225C290.57047 279.3225 289.22733 277.97937 289.22733 276.3225C289.22733 274.66565 290.57047 273.3225 292.22733 273.3225C293.8842 273.3225 295.22733 274.66565 295.22733 276.3225Z" fill-rule="nonzero"/><path fill="#000000" fill-opacity="0.0" clip-path="url(#id_0)" d="M318.55197 264.1843C318.55197 265.84116 317.2088 267.1843 315.55197 267.1843C313.8951 267.1843 312.55197 265.84116 312.55197 264.1843C312.55197 262.52744 313.8951 261.1843 315.55197 261.1843C317.2088 261.1843 318.55197 262.52744 318.55197 264.1843Z" fill-rule="nonzero"/><path fill="#000000" fill-opacity="0.0" clip-path="url(#id_0)" d="M318.93732 265.32462C318.93732 266.98148 317.59418 268.32462 315.93732 268.32462C314.28046 268.32462 312.93732 266.98148 312.93732 265.32462C312.93732 263.6678 314.28046 262.32462 315.93732 262.32462C317.59418 262.32462 318.93732 263.6678 318.93732 265.32462Z" fill-rule="nonzero"/><path fill="#000000" fill-opacity="0.0" clip-path="url(#id_0)" d="M319.31964 245.67076C319.31964 247.32762 317.9765 248.67076 316.31964 248.67076C314.6628 248.67076 313.31964 247.32762 313.31964 245.67076C313.31964 244.0139 314.6628 242.67076 316.31964 242.67076C317.9765 242.67076 319.31964 244.0139 319.31964 245.67076Z" fill-rule="nonzero"/><path fill="#000000" fill-opacity="0.0" clip-path="url(#id_0)" d="M319.69907 248.6916C319.69907 250.34845 318.3559 251.6916 316.69907 251.6916C315.0422 251.6916 313.69907 250.34845 313.69907 248.6916C313.69907 247.03474 315.0422 245.6916 316.69907 245.6916C318.3559 245.6916 319.69907 247.03474 319.69907 248.6916Z" fill-rule="nonzero"/><path fill="#000000" fill-opacity="0.0" clip-path="url(#id_0)" d="M320.07553 249.97754C320.07553 251.6344 318.7324 252.97754 317.07553 252.97754C315.41867 252.97754 314.07553 251.6344 314.07553 249.97754C314.07553 248.32068 315.41867 246.97754 317.07553 246.97754C318.7324 246.97754 320.07553 248.32068 320.07553 249.97754Z" fill-rule="nonzero"/><path fill="#000000" fill-opacity="0.0" clip-path="url(#id_0)" d="M320.44916 253.62178C320.44916 255.27864 319.10602 256.6218 317.44916 256.6218C315.7923 256.6218 314.44916 255.27864 314.44916 253.62178C314.44916 251.96494 315.7923 250.62178 317.44916 250.62178C319.10602 250.62178 320.44916 251.96494 320.44916 253.62178Z" fill-rule="nonzero"/><path fill="#000000" fill-opacity="0.0" clip-path="url(#id_0)" d="M320.81998 255.0699C320.81998 256.72678 319.47684 258.06992 317.81998 258.06992C316.16312 258.06992 314.81998 256.72678 314.81998 255.0699C314.81998 253.41306 316.16312 252.0699 317.81998 252.0699C319.47684 252.0699 320.81998 253.41306 320.81998 255.0699Z" fill-rule="nonzero"/><path fill="#000000" fill-opacity="0.0" clip-path="url(#id_0)" d="M340.1215 229.54578C340.1215 231.20262 338.77835 232.54578 337.1215 232.54578C335.46463 232.54578 334.1215 231.20262 334.1215 229.54578C334.1215 227.88892 335.46463 226.54578 337.1215 226.54578C338.77835 226.54578 340.1215 227.88892 340.1215 229.54578Z" fill-rule="nonzero"/><path fill="#000000" fill-opacity="0.0" clip-path="url(#id_0)" d="M352.99265 239.29608C352.99265 240.95293 351.6495 242.29608 349.99265 242.29608C348.3358 242.29608 346.99265 240.95293 346.99265 239.29608C346.99265 237.63922 348.3358 236.29608 349.99265 236.29608C351.6495 236.29608 352.99265 237.63922 352.99265 239.29608Z" fill-rule="nonzero"/><path fill="#000000" fill-opacity="0.0" clip-path="url(#id_0)" d="M357.57056 210.69792C357.57056 212.35477 356.22742 213.69792 354.57056 213.69792C352.91373 213.69792 351.57056 212.35477 351.57056 210.69792C351.57056 209.04106 352.91373 207.69792 354.57056 207.69792C356.22742 207.69792 357.57056 209.04106 357.57056 210.69792Z" fill-rule="nonzero"/><path fill="#000000" fill-opacity="0.0" clip-path="url(#id_0)" d="M387.04797 189.6308C387.04797 191.28766 385.70483 192.6308 384.04797 192.6308C382.3911 192.6308 381.04797 191.28766 381.04797 189.6308C381.04797 187.97395 382.3911 186.6308 384.04797 186.6308C385.70483 186.6308 387.04797 187.97395 387.04797 189.6308Z" fill-rule="nonzero"/><path fill="#000000" fill-opacity="0.0" clip-path="url(#id_0)" d="M395.89362 146.1319C395.89362 147.78876 394.55048 149.1319 392.89362 149.1319C391.23676 149.1319 389.89362 147.78876 389.89362 146.1319C389.89362 144.47505 391.23676 143.1319 392.89362 143.1319C394.55048 143.1319 395.89362 144.47505 395.89362 146.1319Z" fill-rule="nonzero"/><path fill="#000000" fill-opacity="0.0" clip-path="url(#id_0)" d="M421.1033 116.11042C421.1033 117.76727 419.76016 119.11042 418.1033 119.11042C416.44644 119.11042 415.1033 117.76727 415.1033 116.11042C415.1033 114.45356 416.44644 113.11042 418.1033 113.11042C419.76016 113.11042 421.1033 114.45356 421.1033 116.11042Z" fill-rule="nonzero"/><path fill="#000000" fill-opacity="0.0" clip-path="url(#id_0)" d="M442.38092 112.27263C442.38092 113.92949 441.03778 115.27263 439.38092 115.27263C437.72406 115.27263 436.38092 113.92949 436.38092 112.27263C436.38092 110.615776 437.72406 109.27263 439.38092 109.27263C441.03778 109.27263 442.38092 110.615776 442.38092 112.27263Z" fill-rule="nonzero"/><path fill="#000000" fill-opacity="0.0" clip-path="url(#id_0)" d="M455.15863 118.47028C455.15863 120.12714 453.8155 121.47028 452.15863 121.47028C450.50177 121.47028 449.15863 120.12714 449.15863 118.47028C449.15863 116.81343 450.50177 115.47028 452.15863 115.47028C453.8155 115.47028 455.15863 116.81343 455.15863 118.47028Z" fill-rule="nonzero"/><path fill="#000000" fill-opacity="0.0" clip-path="url(#id_0)" d="M472.198 113.196846C472.198 114.8537 470.85486 116.196846 469.198 116.196846C467.54114 116.196846 466.198 114.8537 466.198 113.196846C466.198 111.539986 467.54114 110.196846 469.198 110.196846C470.85486 110.196846 472.198 111.539986 472.198 113.196846Z" fill-rule="nonzero"/><path fill="#000000" fill-opacity="0.0" clip-path="url(#id_0)" d="M489.21396 115.95208C489.21396 117.60894 487.87082 118.95208 486.21396 118.95208C484.5571 118.95208 483.21396 117.60894 483.21396 115.95208C483.21396 114.29523 484.5571 112.95208 486.21396 112.95208C487.87082 112.95208 489.21396 114.29523 489.21396 115.95208Z" fill-rule="nonzero"/><path fill="#000000" fill-opacity="0.0" clip-path="url(#id_0)" d="M499.80164 110.15282C499.80164 111.80968 498.4585 113.15282 496.80164 113.15282C495.1448 113.15282 493.80164 111.80968 493.80164 110.15282C493.80164 108.495964 495.1448 107.15282 496.80164 107.15282C498.4585 107.15282 499.80164 108.495964 499.80164 110.15282Z" fill-rule="nonzero"/><path fill="#000000" fill-opacity="0.0" clip-path="url(#id_0)" d="M523.2693 115.833336C523.2693 117.49019 521.92615 118.833336 520.2693 118.833336C518.6124 118.833336 517.2693 117.49019 517.2693 115.833336C517.2693 114.176476 518.6124 112.833336 520.2693 112.833336C521.92615 112.833336 523.2693 114.176476 523.2693 115.833336Z" fill-rule="nonzero"/><path fill="#000000" fill-opacity="0.0" clip-path="url(#id_0)" d="M528.45 115.51667C528.45 117.17352 527.1069 118.51667 525.45 118.51667C523.79315 118.51667 522.45 117.17352 522.45 115.51667C522.45 113.85981 523.79315 112.51667 525.45 112.51667C527.1069 112.51667 528.45 113.85981 528.45 115.51667Z" fill-rule="nonzero"/><path fill="#000000" d="M270.54688 346.6844L271.60938 346.59064Q271.6875 347.2469 271.96875 347.65314Q272.25 348.0594 272.82812 348.325Q273.42188 348.575 274.15625 348.575Q274.79688 348.575 275.29688 348.3875Q275.79688 348.1844 276.03125 347.85626Q276.28125 347.5125 276.28125 347.1219Q276.28125 346.71564 276.04688 346.41876Q275.8125 346.10626 275.28125 345.90314Q274.92188 345.7625 273.73438 345.48126Q272.5625 345.2 272.09375 344.95Q271.46875 344.6219 271.17188 344.15314Q270.875 343.66876 270.875 343.075Q270.875 342.4344 271.23438 341.8719Q271.60938 341.29376 272.3125 341.0125Q273.03125 340.71564 273.89062 340.71564Q274.84375 340.71564 275.57812 341.02814Q276.3125 341.325 276.70312 341.9344Q277.09375 342.52814 277.125 343.27814L276.03125 343.35626Q275.9375 342.54376 275.42188 342.1375Q274.92188 341.71564 273.9375 341.71564Q272.90625 341.71564 272.4375 342.09064Q271.96875 342.46564 271.96875 342.9969Q271.96875 343.46564 272.29688 343.7625Q272.625 344.0594 274.0 344.3719Q275.39062 344.6844 275.90625 344.91876Q276.65625 345.27814 277.01562 345.8094Q277.375 346.325 277.375 347.02814Q277.375 347.71564 276.98438 348.325Q276.59375 348.91876 275.85938 349.2625Q275.125 349.59064 274.20312 349.59064Q273.03125 349.59064 272.23438 349.2625Q271.45312 348.91876 271.0 348.23126Q270.5625 347.54376 270.54688 346.6844ZM278.79688 342.075L278.79688 340.85626L279.85938 340.85626L279.85938 342.075L278.79688 342.075ZM278.79688 349.45L278.79688 343.23126L279.85938 343.23126L279.85938 349.45L278.79688 349.45ZM281.23438 349.45L281.23438 348.59064L285.20312 344.04376Q284.51562 344.075 284.0 344.075L281.46875 344.075L281.46875 343.23126L286.5625 343.23126L286.5625 343.91876L283.1875 347.8719L282.53125 348.59064Q283.25 348.54376 283.85938 348.54376L286.75 348.54376L286.75 349.45L281.23438 349.45ZM291.04688 347.45L292.14062 347.575Q291.89062 348.52814 291.1875 349.0594Q290.48438 349.59064 289.40625 349.59064Q288.04688 349.59064 287.23438 348.7469Q286.4375 347.90314 286.4375 346.3875Q286.4375 344.825 287.25 343.96564Q288.0625 343.09064 289.34375 343.09064Q290.59375 343.09064 291.375 343.9344Q292.17188 344.77814 292.17188 346.325Q292.17188 346.41876 292.17188 346.60626L287.53125 346.60626Q287.59375 347.6375 288.10938 348.1844Q288.625 348.71564 289.40625 348.71564Q289.98438 348.71564 290.39062 348.41876Q290.8125 348.10626 291.04688 347.45ZM287.59375 345.7469L291.0625 345.7469Q291.0 344.95 290.67188 344.5594Q290.15625 343.95 289.35938 343.95Q288.625 343.95 288.125 344.4344Q287.64062 344.91876 287.59375 345.7469ZM298.8125 351.98126Q297.9375 350.8719 297.32812 349.40314Q296.73438 347.91876 296.73438 346.34064Q296.73438 344.95 297.17188 343.66876Q297.70312 342.1844 298.8125 340.71564L299.5625 340.71564Q298.85938 341.9344 298.625 342.45Q298.26562 343.2625 298.0625 344.1375Q297.8125 345.23126 297.8125 346.34064Q297.8125 349.16876 299.5625 351.98126L298.8125 351.98126ZM301.76562 349.45L300.78125 349.45L300.78125 340.85626L301.84375 340.85626L301.84375 343.91876Q302.51562 343.09064 303.54688 343.09064Q304.125 343.09064 304.625 343.325Q305.14062 343.54376 305.46875 343.96564Q305.8125 344.3875 306.0 344.98126Q306.1875 345.575 306.1875 346.2469Q306.1875 347.84064 305.39062 348.71564Q304.59375 349.59064 303.5 349.59064Q302.39062 349.59064 301.76562 348.66876L301.76562 349.45ZM301.75 346.29376Q301.75 347.40314 302.0625 347.90314Q302.5625 348.71564 303.40625 348.71564Q304.09375 348.71564 304.59375 348.1219Q305.10938 347.52814 305.10938 346.325Q305.10938 345.10626 304.625 344.52814Q304.14062 343.95 303.45312 343.95Q302.76562 343.95 302.25 344.5594Q301.75 345.15314 301.75 346.29376ZM307.75 351.84064L307.625 350.85626Q307.96875 350.95 308.23438 350.95Q308.57812 350.95 308.78125 350.825Q309.0 350.71564 309.14062 350.5125Q309.23438 350.34064 309.46875 349.71564Q309.48438 349.6375 309.5625 349.46564L307.1875 343.23126L308.32812 343.23126L309.625 346.825Q309.875 347.5125 310.07812 348.27814Q310.26562 347.54376 310.51562 346.85626L311.84375 343.23126L312.89062 343.23126L310.53125 349.5594Q310.14062 350.575 309.9375 350.96564Q309.65625 351.4969 309.28125 351.73126Q308.92188 351.98126 308.42188 351.98126Q308.125 351.98126 307.75 351.84064ZM315.09375 348.5125L315.25 349.4344Q314.79688 349.52814 314.45312 349.52814Q313.875 349.52814 313.5625 349.35626Q313.25 349.16876 313.10938 348.8719Q312.98438 348.575 312.98438 347.6219L312.98438 344.04376L312.21875 344.04376L312.21875 343.23126L312.98438 343.23126L312.98438 341.6844L314.03125 341.0594L314.03125 343.23126L315.09375 343.23126L315.09375 344.04376L314.03125 344.04376L314.03125 347.6844Q314.03125 348.1375 314.07812 348.2625Q314.14062 348.3875 314.26562 348.46564Q314.39062 348.54376 314.625 348.54376Q314.8125 348.54376 315.09375 348.5125ZM320.04688 347.45L321.14062 347.575Q320.89062 348.52814 320.1875 349.0594Q319.48438 349.59064 318.40625 349.59064Q317.04688 349.59064 316.23438 348.7469Q315.4375 347.90314 315.4375 346.3875Q315.4375 344.825 316.25 343.96564Q317.0625 343.09064 318.34375 343.09064Q319.59375 343.09064 320.375 343.9344Q321.17188 344.77814 321.17188 346.325Q321.17188 346.41876 321.17188 346.60626L316.53125 346.60626Q316.59375 347.6375 317.10938 348.1844Q317.625 348.71564 318.40625 348.71564Q318.98438 348.71564 319.39062 348.41876Q319.8125 348.10626 320.04688 347.45ZM316.59375 345.7469L320.0625 345.7469Q320.0 344.95 319.67188 344.5594Q319.15625 343.95 318.35938 343.95Q317.625 343.95 317.125 344.4344Q316.64062 344.91876 316.59375 345.7469ZM322.375 347.59064L323.40625 347.4344Q323.5 348.0594 323.89062 348.3875Q324.29688 348.71564 325.03125 348.71564Q325.75 348.71564 326.09375 348.4344Q326.45312 348.1375 326.45312 347.73126Q326.45312 347.3719 326.14062 347.16876Q325.92188 347.02814 325.0625 346.8094Q323.90625 346.5125 323.45312 346.3094Q323.01562 346.09064 322.78125 345.71564Q322.54688 345.34064 322.54688 344.8719Q322.54688 344.46564 322.73438 344.10626Q322.92188 343.7469 323.25 343.5125Q323.5 343.34064 323.92188 343.21564Q324.34375 343.09064 324.84375 343.09064Q325.5625 343.09064 326.10938 343.3094Q326.67188 343.5125 326.9375 343.8719Q327.20312 344.23126 327.29688 344.825L326.26562 344.96564Q326.20312 344.4969 325.85938 344.23126Q325.53125 343.95 324.90625 343.95Q324.1875 343.95 323.875 344.2Q323.5625 344.4344 323.5625 344.7625Q323.5625 344.96564 323.6875 345.1219Q323.82812 345.29376 324.09375 345.40314Q324.25 345.46564 325.03125 345.66876Q326.15625 345.98126 326.59375 346.16876Q327.03125 346.35626 327.28125 346.71564Q327.53125 347.075 327.53125 347.6219Q327.53125 348.15314 327.21875 348.6219Q326.92188 349.075 326.34375 349.34064Q325.76562 349.59064 325.03125 349.59064Q323.8125 349.59064 323.17188 349.09064Q322.54688 348.575 322.375 347.59064ZM330.48438 351.98126L329.73438 351.98126Q331.48438 349.16876 331.48438 346.34064Q331.48438 345.2469 331.23438 344.15314Q331.03125 343.27814 330.67188 342.46564Q330.4375 341.95 329.73438 340.71564L330.48438 340.71564Q331.57812 342.1844 332.10938 343.66876Q332.5625 344.95 332.5625 346.34064Q332.5625 347.91876 331.95312 349.40314Q331.34375 350.8719 330.48438 351.98126Z" fill-rule="nonzero"/><path fill="#000000" d="M27.690638 282.49167L27.534388 281.46042Q28.159388 281.36667 28.487513 280.97604Q28.815638 280.5698 28.815638 279.83542Q28.815638 279.11667 28.534388 278.77292Q28.237513 278.41354 27.831263 278.41354Q27.471888 278.41354 27.268763 278.72604Q27.128138 278.9448 26.909388 279.80417Q26.612513 280.96042 26.409388 281.41354Q26.190638 281.85104 25.815638 282.08542Q25.440638 282.3198 24.971888 282.3198Q24.565638 282.3198 24.206263 282.1323Q23.846888 281.9448 23.612513 281.61667Q23.440638 281.36667 23.315638 280.9448Q23.190638 280.52292 23.190638 280.02292Q23.190638 279.30417 23.409388 278.7573Q23.612513 278.1948 23.971888 277.92917Q24.331263 277.66354 24.925013 277.5698L25.065638 278.60104Q24.596888 278.66354 24.331263 279.0073Q24.050013 279.33542 24.050013 279.96042Q24.050013 280.67917 24.300013 280.99167Q24.534388 281.30417 24.862513 281.30417Q25.065638 281.30417 25.221888 281.17917Q25.393763 281.03854 25.503138 280.77292Q25.565638 280.61667 25.768763 279.83542Q26.081263 278.71042 26.268763 278.27292Q26.456263 277.83542 26.815638 277.58542Q27.175013 277.33542 27.721888 277.33542Q28.253138 277.33542 28.721888 277.64792Q29.175013 277.9448 29.440638 278.52292Q29.690638 279.10104 29.690638 279.83542Q29.690638 281.05417 29.190638 281.6948Q28.675013 282.3198 27.690638 282.49167ZM31.940638 275.0698L23.331263 275.0698L23.331263 274.11667L24.128138 274.11667Q23.659388 273.77292 23.425013 273.35104Q23.190638 272.91354 23.190638 272.30417Q23.190638 271.5073 23.596888 270.89792Q24.003138 270.28854 24.753138 269.99167Q25.503138 269.67917 26.393763 269.67917Q27.346888 269.67917 28.112513 270.02292Q28.878138 270.35104 29.284388 271.0073Q29.690638 271.66354 29.690638 272.3823Q29.690638 272.91354 29.471888 273.33542Q29.237513 273.7573 28.909388 274.02292L31.940638 274.02292L31.940638 275.0698ZM26.471888 274.11667Q27.675013 274.11667 28.253138 273.6323Q28.815638 273.14792 28.815638 272.46042Q28.815638 271.7573 28.221888 271.2573Q27.628138 270.7573 26.378138 270.7573Q25.190638 270.7573 24.612513 271.24167Q24.018763 271.72604 24.018763 272.41354Q24.018763 273.08542 24.643763 273.60104Q25.268763 274.11667 26.471888 274.11667ZM27.550013 263.8198L27.675013 262.72604Q28.628138 262.97604 29.159388 263.67917Q29.690638 264.3823 29.690638 265.46042Q29.690638 266.8198 28.846888 267.6323Q28.003138 268.42917 26.487513 268.42917Q24.925013 268.42917 24.065638 267.61667Q23.190638 266.80417 23.190638 265.52292Q23.190638 264.27292 24.034388 263.49167Q24.878138 262.6948 26.425013 262.6948Q26.518763 262.6948 26.706263 262.6948L26.706263 267.33542Q27.737513 267.27292 28.284388 266.7573Q28.815638 266.24167 28.815638 265.46042Q28.815638 264.8823 28.518763 264.47604Q28.206263 264.05417 27.550013 263.8198ZM25.846888 267.27292L25.846888 263.80417Q25.050013 263.86667 24.659388 264.1948Q24.050013 264.71042 24.050013 265.5073Q24.050013 266.24167 24.534388 266.74167Q25.018763 267.22604 25.846888 267.27292ZM27.550013 256.8198L27.675013 255.72604Q28.628138 255.97604 29.159388 256.67917Q29.690638 257.3823 29.690638 258.46042Q29.690638 259.8198 28.846888 260.6323Q28.003138 261.42917 26.487513 261.42917Q24.925013 261.42917 24.065638 260.61667Q23.190638 259.80417 23.190638 258.52292Q23.190638 257.27292 24.034388 256.49167Q24.878138 255.6948 26.425013 255.6948Q26.518763 255.6948 26.706263 255.6948L26.706263 260.33542Q27.737513 260.27292 28.284388 259.7573Q28.815638 259.24167 28.815638 258.46042Q28.815638 257.8823 28.518763 257.47604Q28.206263 257.05417 27.550013 256.8198ZM25.846888 260.27292L25.846888 256.80417Q25.050013 256.86667 24.659388 257.1948Q24.050013 257.71042 24.050013 258.5073Q24.050013 259.24167 24.534388 259.74167Q25.018763 260.22604 25.846888 260.27292ZM29.550013 250.03854L28.768763 250.03854Q29.690638 250.6323 29.690638 251.77292Q29.690638 252.52292 29.284388 253.14792Q28.862513 253.77292 28.128138 254.11667Q27.393763 254.46042 26.440638 254.46042Q25.518763 254.46042 24.753138 254.14792Q23.987513 253.83542 23.596888 253.21042Q23.190638 252.58542 23.190638 251.8198Q23.190638 251.2573 23.425013 250.8198Q23.659388 250.3823 24.034388 250.10104L20.956263 250.10104L20.956263 249.05417L29.550013 249.05417L29.550013 250.03854ZM26.440638 253.36667Q27.643763 253.36667 28.237513 252.86667Q28.815638 252.36667 28.815638 251.67917Q28.815638 250.99167 28.253138 250.5073Q27.690638 250.02292 26.534388 250.02292Q25.253138 250.02292 24.659388 250.52292Q24.065638 251.0073 24.065638 251.72604Q24.065638 252.42917 24.643763 252.89792Q25.206263 253.36667 26.440638 253.36667ZM29.550013 239.99167L28.628138 239.99167Q29.690638 240.72604 29.690638 241.97604Q29.690638 242.52292 29.487513 243.0073Q29.268763 243.47604 28.956263 243.71042Q28.628138 243.9448 28.159388 244.03854Q27.862513 244.10104 27.175013 244.10104L23.331263 244.10104L23.331263 243.03854L26.784388 243.03854Q27.596888 243.03854 27.893763 242.97604Q28.300013 242.8823 28.550013 242.5698Q28.784388 242.24167 28.784388 241.7573Q28.784388 241.28854 28.550013 240.8823Q28.300013 240.46042 27.878138 240.28854Q27.456263 240.10104 26.659388 240.10104L23.331263 240.10104L23.331263 239.05417L29.550013 239.05417L29.550013 239.99167ZM31.940638 237.0698L23.331263 237.0698L23.331263 236.11667L24.128138 236.11667Q23.659388 235.77292 23.425013 235.35104Q23.190638 234.91354 23.190638 234.30417Q23.190638 233.5073 23.596888 232.89792Q24.003138 232.28854 24.753138 231.99167Q25.503138 231.67917 26.393763 231.67917Q27.346888 231.67917 28.112513 232.02292Q28.878138 232.35104 29.284388 233.0073Q29.690638 233.66354 29.690638 234.3823Q29.690638 234.91354 29.471888 235.33542Q29.237513 235.7573 28.909388 236.02292L31.940638 236.02292L31.940638 237.0698ZM26.471888 236.11667Q27.675013 236.11667 28.253138 235.6323Q28.815638 235.14792 28.815638 234.46042Q28.815638 233.7573 28.221888 233.2573Q27.628138 232.7573 26.378138 232.7573Q25.190638 232.7573 24.612513 233.24167Q24.018763 233.72604 24.018763 234.41354Q24.018763 235.08542 24.643763 235.60104Q25.268763 236.11667 26.471888 236.11667ZM26.440638 227.46042Q24.706263 227.46042 23.878138 226.5073Q23.190638 225.71042 23.190638 224.55417Q23.190638 223.27292 24.034388 222.46042Q24.862513 221.6323 26.346888 221.6323Q27.550013 221.6323 28.237513 221.99167Q28.925013 222.35104 29.315638 223.05417Q29.690638 223.74167 29.690638 224.55417Q29.690638 225.85104 28.862513 226.66354Q28.018763 227.46042 26.440638 227.46042ZM26.440638 226.3823Q27.628138 226.3823 28.221888 225.86667Q28.815638 225.33542 28.815638 224.55417Q28.815638 223.7573 28.221888 223.24167Q27.628138 222.72604 26.409388 222.72604Q25.253138 222.72604 24.659388 223.2573Q24.065638 223.77292 24.065638 224.55417Q24.065638 225.33542 24.659388 225.86667Q25.237513 226.3823 26.440638 226.3823ZM29.550013 218.35104L23.331263 220.71042L23.331263 219.60104L27.050013 218.2573Q27.659388 218.05417 28.300013 217.86667Q27.815638 217.72604 27.128138 217.47604L23.331263 216.08542L23.331263 215.0073L29.550013 217.36667L29.550013 218.35104ZM27.550013 210.8198L27.675013 209.72604Q28.628138 209.97604 29.159388 210.67917Q29.690638 211.3823 29.690638 212.46042Q29.690638 213.8198 28.846888 214.6323Q28.003138 215.42917 26.487513 215.42917Q24.925013 215.42917 24.065638 214.61667Q23.190638 213.80417 23.190638 212.52292Q23.190638 211.27292 24.034388 210.49167Q24.878138 209.6948 26.425013 209.6948Q26.518763 209.6948 26.706263 209.6948L26.706263 214.33542Q27.737513 214.27292 28.284388 213.7573Q28.815638 213.24167 28.815638 212.46042Q28.815638 211.8823 28.518763 211.47604Q28.206263 211.05417 27.550013 210.8198ZM25.846888 214.27292L25.846888 210.80417Q25.050013 210.86667 24.659388 211.1948Q24.050013 211.71042 24.050013 212.5073Q24.050013 213.24167 24.534388 213.74167Q25.018763 214.22604 25.846888 214.27292ZM29.550013 208.08542L23.331263 208.08542L23.331263 207.1323L24.268763 207.1323Q23.612513 206.77292 23.409388 206.47604Q23.190638 206.16354 23.190638 205.78854Q23.190638 205.2573 23.518763 204.71042L24.503138 205.0698Q24.268763 205.46042 24.268763 205.83542Q24.268763 206.1948 24.487513 206.47604Q24.690638 206.74167 25.065638 206.85104Q25.628138 207.03854 26.284388 207.03854L29.550013 207.03854L29.550013 208.08542ZM29.550013 200.10104L29.550013 201.08542L20.956263 201.08542L20.956263 200.02292L24.018763 200.02292Q23.190638 199.35104 23.190638 198.3198Q23.190638 197.74167 23.425013 197.24167Q23.643763 196.72604 24.065638 196.39792Q24.487513 196.05417 25.081263 195.86667Q25.675013 195.67917 26.346888 195.67917Q27.940638 195.67917 28.815638 196.47604Q29.690638 197.27292 29.690638 198.36667Q29.690638 199.47604 28.768763 200.10104L29.550013 200.10104ZM26.393763 200.11667Q27.503138 200.11667 28.003138 199.80417Q28.815638 199.30417 28.815638 198.46042Q28.815638 197.77292 28.221888 197.27292Q27.628138 196.7573 26.425013 196.7573Q25.206263 196.7573 24.628138 197.24167Q24.050013 197.72604 24.050013 198.41354Q24.050013 199.10104 24.659388 199.61667Q25.253138 200.11667 26.393763 200.11667ZM28.784388 190.0073Q29.284388 190.60104 29.487513 191.14792Q29.690638 191.67917 29.690638 192.30417Q29.690638 193.33542 29.190638 193.8823Q28.690638 194.42917 27.909388 194.42917Q27.456263 194.42917 27.081263 194.22604Q26.690638 194.02292 26.471888 193.67917Q26.237513 193.33542 26.128138 192.91354Q26.034388 192.61667 25.956263 191.97604Q25.815638 190.71042 25.596888 190.10104Q25.378138 190.10104 25.331263 190.10104Q24.675013 190.10104 24.409388 190.39792Q24.065638 190.80417 24.065638 191.60104Q24.065638 192.33542 24.331263 192.6948Q24.581263 193.05417 25.237513 193.22604L25.096888 194.2573Q24.440638 194.11667 24.034388 193.78854Q23.628138 193.46042 23.409388 192.85104Q23.190638 192.24167 23.190638 191.4448Q23.190638 190.64792 23.378138 190.14792Q23.565638 189.64792 23.846888 189.41354Q24.128138 189.17917 24.565638 189.08542Q24.831263 189.03854 25.534388 189.03854L26.940638 189.03854Q28.409388 189.03854 28.800013 188.97604Q29.190638 188.89792 29.550013 188.6948L29.550013 189.80417Q29.221888 189.96042 28.784388 190.0073ZM26.425013 190.10104Q26.659388 190.67917 26.831263 191.8198Q26.925013 192.47604 27.050013 192.74167Q27.159388 193.0073 27.378138 193.16354Q27.596888 193.30417 27.878138 193.30417Q28.300013 193.30417 28.581263 192.99167Q28.862513 192.66354 28.862513 192.05417Q28.862513 191.4448 28.596888 190.97604Q28.331263 190.49167 27.862513 190.27292Q27.503138 190.10104 26.815638 190.10104L26.425013 190.10104ZM27.690638 187.49167L27.534388 186.46042Q28.159388 186.36667 28.487513 185.97604Q28.815638 185.5698 28.815638 184.83542Q28.815638 184.11667 28.534388 183.77292Q28.237513 183.41354 27.831263 183.41354Q27.471888 183.41354 27.268763 183.72604Q27.128138 183.9448 26.909388 184.80417Q26.612513 185.96042 26.409388 186.41354Q26.190638 186.85104 25.815638 187.08542Q25.440638 187.3198 24.971888 187.3198Q24.565638 187.3198 24.206263 187.1323Q23.846888 186.9448 23.612513 186.61667Q23.440638 186.36667 23.315638 185.9448Q23.190638 185.52292 23.190638 185.02292Q23.190638 184.30417 23.409388 183.7573Q23.612513 183.1948 23.971888 182.92917Q24.331263 182.66354 24.925013 182.5698L25.065638 183.60104Q24.596888 183.66354 24.331263 184.0073Q24.050013 184.33542 24.050013 184.96042Q24.050013 185.67917 24.300013 185.99167Q24.534388 186.30417 24.862513 186.30417Q25.065638 186.30417 25.221888 186.17917Q25.393763 186.03854 25.503138 185.77292Q25.565638 185.61667 25.768763 184.83542Q26.081263 183.71042 26.268763 183.27292Q26.456263 182.83542 26.815638 182.58542Q27.175013 182.33542 27.721888 182.33542Q28.253138 182.33542 28.721888 182.64792Q29.175013 182.9448 29.440638 183.52292Q29.690638 184.10104 29.690638 184.83542Q29.690638 186.05417 29.190638 186.6948Q28.675013 187.3198 27.690638 187.49167ZM27.550013 175.8198L27.675013 174.72604Q28.628138 174.97604 29.159388 175.67917Q29.690638 176.3823 29.690638 177.46042Q29.690638 178.8198 28.846888 179.6323Q28.003138 180.42917 26.487513 180.42917Q24.925013 180.42917 24.065638 179.61667Q23.190638 178.80417 23.190638 177.52292Q23.190638 176.27292 24.034388 175.49167Q24.878138 174.6948 26.425013 174.6948Q26.518763 174.6948 26.706263 174.6948L26.706263 179.33542Q27.737513 179.27292 28.284388 178.7573Q28.815638 178.24167 28.815638 177.46042Q28.815638 176.8823 28.518763 176.47604Q28.206263 176.05417 27.550013 175.8198ZM25.846888 179.27292L25.846888 175.80417Q25.050013 175.86667 24.659388 176.1948Q24.050013 176.71042 24.050013 177.5073Q24.050013 178.24167 24.534388 178.74167Q25.018763 179.22604 25.846888 179.27292ZM29.550013 173.10104L20.956263 173.10104L20.956263 172.03854L29.550013 172.03854L29.550013 173.10104ZM22.175013 170.0698L20.956263 170.0698L20.956263 169.0073L22.175013 169.0073L22.175013 170.0698ZM29.550013 170.0698L23.331263 170.0698L23.331263 169.0073L29.550013 169.0073L29.550013 170.0698ZM29.550013 167.0698L23.331263 167.0698L23.331263 166.1323L24.206263 166.1323Q23.190638 165.4448 23.190638 164.14792Q23.190638 163.58542 23.393763 163.11667Q23.596888 162.6323 23.925013 162.39792Q24.253138 162.16354 24.690638 162.0698Q24.987513 162.02292 25.721888 162.02292L29.550013 162.02292L29.550013 163.0698L25.768763 163.0698Q25.112513 163.0698 24.800013 163.1948Q24.487513 163.3198 24.300013 163.6323Q24.096888 163.9448 24.096888 164.36667Q24.096888 165.03854 24.534388 165.53854Q24.956263 166.02292 26.143763 166.02292L29.550013 166.02292L29.550013 167.0698ZM27.550013 155.8198L27.675013 154.72604Q28.628138 154.97604 29.159388 155.67917Q29.690638 156.3823 29.690638 157.46042Q29.690638 158.8198 28.846888 159.6323Q28.003138 160.42917 26.487513 160.42917Q24.925013 160.42917 24.065638 159.61667Q23.190638 158.80417 23.190638 157.52292Q23.190638 156.27292 24.034388 155.49167Q24.878138 154.6948 26.425013 154.6948Q26.518763 154.6948 26.706263 154.6948L26.706263 159.33542Q27.737513 159.27292 28.284388 158.7573Q28.815638 158.24167 28.815638 157.46042Q28.815638 156.8823 28.518763 156.47604Q28.206263 156.05417 27.550013 155.8198ZM25.846888 159.27292L25.846888 155.80417Q25.050013 155.86667 24.659388 156.1948Q24.050013 156.71042 24.050013 157.5073Q24.050013 158.24167 24.534388 158.74167Q25.018763 159.22604 25.846888 159.27292ZM32.08126 148.05417Q30.971888 148.92917 29.503138 149.53854Q28.018763 150.1323 26.440638 150.1323Q25.050013 150.1323 23.768763 149.6948Q22.284388 149.16354 20.815638 148.05417L20.815638 147.30417Q22.034388 148.0073 22.550013 148.24167Q23.362513 148.60104 24.237513 148.80417Q25.331263 149.05417 26.440638 149.05417Q29.268763 149.05417 32.08126 147.30417L32.08126 148.05417ZM29.550013 146.08542L23.331263 146.08542L23.331263 145.1323L24.268763 145.1323Q23.612513 144.77292 23.409388 144.47604Q23.190638 144.16354 23.190638 143.78854Q23.190638 143.2573 23.518763 142.71042L24.503138 143.0698Q24.268763 143.46042 24.268763 143.83542Q24.268763 144.1948 24.487513 144.47604Q24.690638 144.74167 25.065638 144.85104Q25.628138 145.03854 26.284388 145.03854L29.550013 145.03854L29.550013 146.08542ZM28.784388 138.0073Q29.284388 138.60104 29.487513 139.14792Q29.690638 139.67917 29.690638 140.30417Q29.690638 141.33542 29.190638 141.8823Q28.690638 142.42917 27.909388 142.42917Q27.456263 142.42917 27.081263 142.22604Q26.690638 142.02292 26.471888 141.67917Q26.237513 141.33542 26.128138 140.91354Q26.034388 140.61667 25.956263 139.97604Q25.815638 138.71042 25.596888 138.10104Q25.378138 138.10104 25.331263 138.10104Q24.675013 138.10104 24.409388 138.39792Q24.065638 138.80417 24.065638 139.60104Q24.065638 140.33542 24.331263 140.6948Q24.581263 141.05417 25.237513 141.22604L25.096888 142.2573Q24.440638 142.11667 24.034388 141.78854Q23.628138 141.46042 23.409388 140.85104Q23.190638 140.24167 23.190638 139.4448Q23.190638 138.64792 23.378138 138.14792Q23.565638 137.64792 23.846888 137.41354Q24.128138 137.17917 24.565638 137.08542Q24.831263 137.03854 25.534388 137.03854L26.940638 137.03854Q28.409388 137.03854 28.800013 136.97604Q29.190638 136.89792 29.550013 136.6948L29.550013 137.80417Q29.221888 137.96042 28.784388 138.0073ZM26.425013 138.10104Q26.659388 138.67917 26.831263 139.8198Q26.925013 140.47604 27.050013 140.74167Q27.159388 141.0073 27.378138 141.16354Q27.596888 141.30417 27.878138 141.30417Q28.300013 141.30417 28.581263 140.99167Q28.862513 140.66354 28.862513 140.05417Q28.862513 139.4448 28.596888 138.97604Q28.331263 138.49167 27.862513 138.27292Q27.503138 138.10104 26.815638 138.10104L26.425013 138.10104ZM28.612513 132.77292L29.534388 132.61667Q29.628138 133.0698 29.628138 133.41354Q29.628138 133.99167 29.456263 134.30417Q29.268763 134.61667 28.971888 134.7573Q28.675013 134.8823 27.721888 134.8823L24.143763 134.8823L24.143763 135.64792L23.331263 135.64792L23.331263 134.8823L21.784388 134.8823L21.159388 133.83542L23.331263 133.83542L23.331263 132.77292L24.143763 132.77292L24.143763 133.83542L27.784388 133.83542Q28.237513 133.83542 28.362513 133.78854Q28.487513 133.72604 28.565638 133.60104Q28.643763 133.47604 28.643763 133.24167Q28.643763 133.05417 28.612513 132.77292ZM22.175013 132.0698L20.956263 132.0698L20.956263 131.0073L22.175013 131.0073L22.175013 132.0698ZM29.550013 132.0698L23.331263 132.0698L23.331263 131.0073L29.550013 131.0073L29.550013 132.0698ZM26.440638 129.46042Q24.706263 129.46042 23.878138 128.5073Q23.190638 127.71042 23.190638 126.55417Q23.190638 125.27292 24.034388 124.46042Q24.862513 123.63229 26.346888 123.63229Q27.550013 123.63229 28.237513 123.99167Q28.925013 124.35104 29.315638 125.05417Q29.690638 125.74167 29.690638 126.55417Q29.690638 127.85104 28.862513 128.66354Q28.018763 129.46042 26.440638 129.46042ZM26.440638 128.3823Q27.628138 128.3823 28.221888 127.86667Q28.815638 127.33542 28.815638 126.55417Q28.815638 125.75729 28.221888 125.24167Q27.628138 124.72604 26.409388 124.72604Q25.253138 124.72604 24.659388 125.25729Q24.065638 125.77292 24.065638 126.55417Q24.065638 127.33542 24.659388 127.86667Q25.237513 128.3823 26.440638 128.3823ZM32.08126 121.38229L32.08126 122.13229Q29.268763 120.38229 26.440638 120.38229Q25.346888 120.38229 24.253138 120.63229Q23.378138 120.83542 22.565638 121.19479Q22.050013 121.42917 20.815638 122.13229L20.815638 121.38229Q22.284388 120.28854 23.768763 119.75729Q25.050013 119.30417 26.440638 119.30417Q28.018763 119.30417 29.503138 119.91354Q30.971888 120.52292 32.08126 121.38229Z" fill-rule="nonzero"/><path fill="#000000" d="M65.05 300.21564Q65.05 298.6844 65.3625 297.7625Q65.675 296.825 66.28438 296.325Q66.90938 295.825 67.84688 295.825Q68.53438 295.825 69.05 296.10626Q69.58125 296.3875 69.925 296.91876Q70.26875 297.4344 70.45625 298.1844Q70.64375 298.9344 70.64375 300.21564Q70.64375 301.73126 70.33125 302.65314Q70.03438 303.575 69.40938 304.09064Q68.8 304.59064 67.84688 304.59064Q66.6125 304.59064 65.89375 303.7Q65.05 302.6375 65.05 300.21564ZM66.12813 300.21564Q66.12813 302.325 66.62813 303.02814Q67.12813 303.73126 67.84688 303.73126Q68.58125 303.73126 69.06563 303.02814Q69.56563 302.325 69.56563 300.21564Q69.56563 298.09064 69.06563 297.40314Q68.58125 296.7 67.83125 296.7Q67.1125 296.7 66.675 297.3094Q66.12813 298.09064 66.12813 300.21564Z" fill-rule="nonzero"/><path fill="#000000" d="M63.596874 250.39272L63.596874 251.40834L57.909374 251.40834Q57.909374 251.03334 58.034374 250.67397Q58.253124 250.09584 58.721874 249.53334Q59.20625 248.97084 60.1125 248.23647Q61.51875 247.08022 62.003124 246.40834Q62.503124 245.73647 62.503124 245.14272Q62.503124 244.51772 62.05 244.09584Q61.596874 243.65834 60.878124 243.65834Q60.1125 243.65834 59.659374 244.11147Q59.20625 244.56459 59.190624 245.37709L58.1125 245.26772Q58.221874 244.04897 58.940624 243.42397Q59.675 242.78334 60.909374 242.78334Q62.14375 242.78334 62.8625 243.47084Q63.58125 244.15834 63.58125 245.17397Q63.58125 245.68959 63.3625 246.18959Q63.159374 246.67397 62.659374 247.23647Q62.175 247.78334 61.05 248.73647Q60.096874 249.53334 59.815624 249.83022Q59.55 250.11147 59.378124 250.39272L63.596874 250.39272ZM65.05 247.17397Q65.05 245.64272 65.3625 244.72084Q65.675 243.78334 66.28438 243.28334Q66.90938 242.78334 67.84688 242.78334Q68.53438 242.78334 69.05 243.06459Q69.58125 243.34584 69.925 243.87709Q70.26875 244.39272 70.45625 245.14272Q70.64375 245.89272 70.64375 247.17397Q70.64375 248.68959 70.33125 249.61147Q70.03438 250.53334 69.40938 251.04897Q68.8 251.54897 67.84688 251.54897Q66.6125 251.54897 65.89375 250.65834Q65.05 249.59584 65.05 247.17397ZM66.12813 247.17397Q66.12813 249.28334 66.62813 249.98647Q67.12813 250.68959 67.84688 250.68959Q68.58125 250.68959 69.06563 249.98647Q69.56563 249.28334 69.56563 247.17397Q69.56563 245.04897 69.06563 244.36147Q68.58125 243.65834 67.83125 243.65834Q67.1125 243.65834 66.675 244.26772Q66.12813 245.04897 66.12813 247.17397Z" fill-rule="nonzero"/><path fill="#000000" d="M61.425 198.36667L61.425 196.30417L57.70625 196.30417L57.70625 195.33542L61.628124 189.77292L62.4875 189.77292L62.4875 195.33542L63.64375 195.33542L63.64375 196.30417L62.4875 196.30417L62.4875 198.36667L61.425 198.36667ZM61.425 195.33542L61.425 191.47604L58.7375 195.33542L61.425 195.33542ZM65.05 194.1323Q65.05 192.60104 65.3625 191.67917Q65.675 190.74167 66.28438 190.24167Q66.90938 189.74167 67.84688 189.74167Q68.53438 189.74167 69.05 190.02292Q69.58125 190.30417 69.925 190.83542Q70.26875 191.35104 70.45625 192.10104Q70.64375 192.85104 70.64375 194.1323Q70.64375 195.64792 70.33125 196.5698Q70.03438 197.49167 69.40938 198.0073Q68.8 198.5073 67.84688 198.5073Q66.6125 198.5073 65.89375 197.61667Q65.05 196.55417 65.05 194.1323ZM66.12813 194.1323Q66.12813 196.24167 66.62813 196.9448Q67.12813 197.64792 67.84688 197.64792Q68.58125 197.64792 69.06563 196.9448Q69.56563 196.24167 69.56563 194.1323Q69.56563 192.0073 69.06563 191.3198Q68.58125 190.61667 67.83125 190.61667Q67.1125 190.61667 66.675 191.22604Q66.12813 192.0073 66.12813 194.1323Z" fill-rule="nonzero"/><path fill="#000000" d="M63.51875 138.84062L62.471874 138.91875Q62.33125 138.29375 62.08125 138.0125Q61.64375 137.55937 61.01875 137.55937Q60.51875 137.55937 60.128124 137.84062Q59.64375 138.21562 59.346874 138.91875Q59.065624 139.60625 59.05 140.8875Q59.425 140.30937 59.971874 140.02812Q60.534374 139.74687 61.14375 139.74687Q62.190624 139.74687 62.925 140.52812Q63.675 141.30937 63.675 142.52812Q63.675 143.34062 63.315624 144.04375Q62.971874 144.73125 62.3625 145.10625Q61.753124 145.46562 60.9875 145.46562Q59.659374 145.46562 58.83125 144.49687Q58.003124 143.52812 58.003124 141.30937Q58.003124 138.80937 58.925 137.68437Q59.721874 136.7 61.08125 136.7Q62.096874 136.7 62.7375 137.27812Q63.39375 137.84062 63.51875 138.84062ZM59.221874 142.54375Q59.221874 143.09062 59.440624 143.59062Q59.675 144.075 60.08125 144.34062Q60.503124 144.60625 60.971874 144.60625Q61.628124 144.60625 62.1125 144.075Q62.596874 143.52812 62.596874 142.60625Q62.596874 141.71562 62.1125 141.2Q61.64375 140.68437 60.925 140.68437Q60.20625 140.68437 59.70625 141.2Q59.221874 141.71562 59.221874 142.54375ZM65.05 141.09062Q65.05 139.55937 65.3625 138.6375Q65.675 137.7 66.28438 137.2Q66.90938 136.7 67.84688 136.7Q68.53438 136.7 69.05 136.98125Q69.58125 137.2625 69.925 137.79375Q70.26875 138.30937 70.45625 139.05937Q70.64375 139.80937 70.64375 141.09062Q70.64375 142.60625 70.33125 143.52812Q70.03438 144.45 69.40938 144.96562Q68.8 145.46562 67.84688 145.46562Q66.6125 145.46562 65.89375 144.575Q65.05 143.5125 65.05 141.09062ZM66.12813 141.09062Q66.12813 143.2 66.62813 143.90312Q67.12813 144.60625 67.84688 144.60625Q68.58125 144.60625 69.06563 143.90312Q69.56563 143.2 69.56563 141.09062Q69.56563 138.96562 69.06563 138.27812Q68.58125 137.575 67.83125 137.575Q67.1125 137.575 66.675 138.18437Q66.12813 138.96562 66.12813 141.09062Z" fill-rule="nonzero"/><path fill="#000000" d="M59.675 87.62708Q59.01875 87.37708 58.690624 86.93958Q58.378124 86.48646 58.378124 85.87708Q58.378124 84.93958 59.05 84.29896Q59.7375 83.65833 60.846874 83.65833Q61.971874 83.65833 62.659374 84.31458Q63.346874 84.97083 63.346874 85.90833Q63.346874 86.50208 63.034374 86.93958Q62.721874 87.37708 62.08125 87.62708Q62.878124 87.87708 63.284374 88.45521Q63.690624 89.03333 63.690624 89.83021Q63.690624 90.92396 62.909374 91.67396Q62.14375 92.42396 60.8625 92.42396Q59.596874 92.42396 58.815624 91.67396Q58.034374 90.92396 58.034374 89.79896Q58.034374 88.95521 58.45625 88.39271Q58.89375 87.83021 59.675 87.62708ZM59.45625 85.83021Q59.45625 86.43958 59.846874 86.83021Q60.253124 87.22083 60.878124 87.22083Q61.4875 87.22083 61.878124 86.84583Q62.26875 86.45521 62.26875 85.89271Q62.26875 85.31458 61.8625 84.92396Q61.45625 84.51771 60.8625 84.51771Q60.253124 84.51771 59.846874 84.90833Q59.45625 85.29896 59.45625 85.83021ZM59.128124 89.79896Q59.128124 90.25208 59.33125 90.67396Q59.55 91.09583 59.971874 91.33021Q60.39375 91.56458 60.878124 91.56458Q61.628124 91.56458 62.1125 91.08021Q62.6125 90.59583 62.6125 89.84583Q62.6125 89.08021 62.1125 88.58021Q61.6125 88.08021 60.846874 88.08021Q60.096874 88.08021 59.6125 88.58021Q59.128124 89.06458 59.128124 89.79896ZM65.05 88.04896Q65.05 86.51771 65.3625 85.59583Q65.675 84.65833 66.28438 84.15833Q66.90938 83.65833 67.84688 83.65833Q68.53438 83.65833 69.05 83.93958Q69.58125 84.22083 69.925 84.75208Q70.26875 85.26771 70.45625 86.01771Q70.64375 86.76771 70.64375 88.04896Q70.64375 89.56458 70.33125 90.48646Q70.03438 91.40833 69.40938 91.92396Q68.8 92.42396 67.84688 92.42396Q66.6125 92.42396 65.89375 91.53333Q65.05 90.47083 65.05 88.04896ZM66.12813 88.04896Q66.12813 90.15833 66.62813 90.86146Q67.12813 91.56458 67.84688 91.56458Q68.58125 91.56458 69.06563 90.86146Q69.56563 90.15833 69.56563 88.04896Q69.56563 85.92396 69.06563 85.23646Q68.58125 84.53333 67.83125 84.53333Q67.1125 84.53333 66.675 85.14271Q66.12813 85.92396 66.12813 88.04896Z" fill-rule="nonzero"/><path fill="#000000" d="M78.51875 317.45L77.47188 317.45L77.47188 310.73126Q77.08125 311.09064 76.45625 311.46564Q75.84688 311.825 75.3625 311.9969L75.3625 310.98126Q76.2375 310.5594 76.89375 309.98126Q77.56563 309.3875 77.84688 308.825L78.51875 308.825L78.51875 317.45Z" fill-rule="nonzero"/><path fill="#000000" d="M188.1481 317.45L187.10123 317.45L187.10123 310.73126Q186.7106 311.09064 186.0856 311.46564Q185.47623 311.825 184.99185 311.9969L184.99185 310.98126Q185.86685 310.5594 186.5231 309.98126Q187.19498 309.3875 187.47623 308.825L188.1481 308.825L188.1481 317.45ZM191.17935 313.21564Q191.17935 311.6844 191.49185 310.7625Q191.80435 309.825 192.41373 309.325Q193.03873 308.825 193.97623 308.825Q194.66373 308.825 195.17935 309.10626Q195.7106 309.3875 196.05435 309.91876Q196.3981 310.4344 196.5856 311.1844Q196.7731 311.9344 196.7731 313.21564Q196.7731 314.73126 196.4606 315.65314Q196.16373 316.575 195.53873 317.09064Q194.92935 317.59064 193.97623 317.59064Q192.74185 317.59064 192.0231 316.7Q191.17935 315.6375 191.17935 313.21564ZM192.25748 313.21564Q192.25748 315.325 192.75748 316.02814Q193.25748 316.73126 193.97623 316.73126Q194.7106 316.73126 195.19498 316.02814Q195.69498 315.325 195.69498 313.21564Q195.69498 311.09064 195.19498 310.40314Q194.7106 309.7 193.9606 309.7Q193.24185 309.7 192.80435 310.3094Q192.25748 311.09064 192.25748 313.21564Z" fill-rule="nonzero"/><path fill="#000000" d="M297.77747 317.45L296.7306 317.45L296.7306 310.73126Q296.33997 311.09064 295.71497 311.46564Q295.1056 311.825 294.62122 311.9969L294.62122 310.98126Q295.49622 310.5594 296.15247 309.98126Q296.82434 309.3875 297.1056 308.825L297.77747 308.825L297.77747 317.45ZM300.80872 313.21564Q300.80872 311.6844 301.12122 310.7625Q301.43372 309.825 302.0431 309.325Q302.6681 308.825 303.6056 308.825Q304.2931 308.825 304.80872 309.10626Q305.33997 309.3875 305.68372 309.91876Q306.02747 310.4344 306.21497 311.1844Q306.40247 311.9344 306.40247 313.21564Q306.40247 314.73126 306.08997 315.65314Q305.7931 316.575 305.1681 317.09064Q304.55872 317.59064 303.6056 317.59064Q302.37122 317.59064 301.65247 316.7Q300.80872 315.6375 300.80872 313.21564ZM301.88684 313.21564Q301.88684 315.325 302.38684 316.02814Q302.88684 316.73126 303.6056 316.73126Q304.33997 316.73126 304.82434 316.02814Q305.32434 315.325 305.32434 313.21564Q305.32434 311.09064 304.82434 310.40314Q304.33997 309.7 303.58997 309.7Q302.87122 309.7 302.43372 310.3094Q301.88684 311.09064 301.88684 313.21564ZM307.80872 313.21564Q307.80872 311.6844 308.12122 310.7625Q308.43372 309.825 309.0431 309.325Q309.6681 308.825 310.6056 308.825Q311.2931 308.825 311.80872 309.10626Q312.33997 309.3875 312.68372 309.91876Q313.02747 310.4344 313.21497 311.1844Q313.40247 311.9344 313.40247 313.21564Q313.40247 314.73126 313.08997 315.65314Q312.7931 316.575 312.1681 317.09064Q311.55872 317.59064 310.6056 317.59064Q309.37122 317.59064 308.65247 316.7Q307.80872 315.6375 307.80872 313.21564ZM308.88684 313.21564Q308.88684 315.325 309.38684 316.02814Q309.88684 316.73126 310.6056 316.73126Q311.33997 316.73126 311.82434 316.02814Q312.32434 315.325 312.32434 313.21564Q312.32434 311.09064 311.82434 310.40314Q311.33997 309.7 310.58997 309.7Q309.87122 309.7 309.43372 310.3094Q308.88684 311.09064 308.88684 313.21564Z" fill-rule="nonzero"/><path fill="#000000" d="M407.40683 317.45L406.35995 317.45L406.35995 310.73126Q405.96933 311.09064 405.34433 311.46564Q404.73495 311.825 404.25058 311.9969L404.25058 310.98126Q405.12558 310.5594 405.78183 309.98126Q406.4537 309.3875 406.73495 308.825L407.40683 308.825L407.40683 317.45ZM410.43808 313.21564Q410.43808 311.6844 410.75058 310.7625Q411.06308 309.825 411.67245 309.325Q412.29745 308.825 413.23495 308.825Q413.92245 308.825 414.43808 309.10626Q414.96933 309.3875 415.31308 309.91876Q415.65683 310.4344 415.84433 311.1844Q416.03183 311.9344 416.03183 313.21564Q416.03183 314.73126 415.71933 315.65314Q415.42245 316.575 414.79745 317.09064Q414.18808 317.59064 413.23495 317.59064Q412.00058 317.59064 411.28183 316.7Q410.43808 315.6375 410.43808 313.21564ZM411.5162 313.21564Q411.5162 315.325 412.0162 316.02814Q412.5162 316.73126 413.23495 316.73126Q413.96933 316.73126 414.4537 316.02814Q414.9537 315.325 414.9537 313.21564Q414.9537 311.09064 414.4537 310.40314Q413.96933 309.7 413.21933 309.7Q412.50058 309.7 412.06308 310.3094Q411.5162 311.09064 411.5162 313.21564ZM417.43808 313.21564Q417.43808 311.6844 417.75058 310.7625Q418.06308 309.825 418.67245 309.325Q419.29745 308.825 420.23495 308.825Q420.92245 308.825 421.43808 309.10626Q421.96933 309.3875 422.31308 309.91876Q422.65683 310.4344 422.84433 311.1844Q423.03183 311.9344 423.03183 313.21564Q423.03183 314.73126 422.71933 315.65314Q422.42245 316.575 421.79745 317.09064Q421.18808 317.59064 420.23495 317.59064Q419.00058 317.59064 418.28183 316.7Q417.43808 315.6375 417.43808 313.21564ZM418.5162 313.21564Q418.5162 315.325 419.0162 316.02814Q419.5162 316.73126 420.23495 316.73126Q420.96933 316.73126 421.4537 316.02814Q421.9537 315.325 421.9537 313.21564Q421.9537 311.09064 421.4537 310.40314Q420.96933 309.7 420.21933 309.7Q419.50058 309.7 419.06308 310.3094Q418.5162 311.09064 418.5162 313.21564ZM424.43808 313.21564Q424.43808 311.6844 424.75058 310.7625Q425.06308 309.825 425.67245 309.325Q426.29745 308.825 427.23495 308.825Q427.92245 308.825 428.43808 309.10626Q428.96933 309.3875 429.31308 309.91876Q429.65683 310.4344 429.84433 311.1844Q430.03183 311.9344 430.03183 313.21564Q430.03183 314.73126 429.71933 315.65314Q429.42245 316.575 428.79745 317.09064Q428.18808 317.59064 427.23495 317.59064Q426.00058 317.59064 425.28183 316.7Q424.43808 315.6375 424.43808 313.21564ZM425.5162 313.21564Q425.5162 315.325 426.0162 316.02814Q426.5162 316.73126 427.23495 316.73126Q427.96933 316.73126 428.4537 316.02814Q428.9537 315.325 428.9537 313.21564Q428.9537 311.09064 428.4537 310.40314Q427.96933 309.7 427.21933 309.7Q426.50058 309.7 426.06308 310.3094Q425.5162 311.09064 425.5162 313.21564Z" fill-rule="nonzero"/><path stroke="#ea4335" stroke-width="4.0" stroke-linecap="butt" d="M239.5 61.916668L251.5 61.916668" fill-rule="nonzero"/><path fill="#1a1a1a" d="M260.42188 65.916664L260.42188 57.322914L263.67188 57.322914Q264.51562 57.322914 264.96875 57.40104Q265.60938 57.510414 266.03125 57.80729Q266.46875 58.104164 266.71875 58.635414Q266.98438 59.166664 266.98438 59.80729Q266.98438 60.90104 266.28125 61.666664Q265.59375 62.416664 263.76562 62.416664L261.5625 62.416664L261.5625 65.916664L260.42188 65.916664ZM261.5625 61.416664L263.78125 61.416664Q264.89062 61.416664 265.34375 61.010414Q265.8125 60.58854 265.8125 59.83854Q265.8125 59.30729 265.53125 58.93229Q265.26562 58.541664 264.82812 58.416664Q264.53125 58.33854 263.76562 58.33854L261.5625 58.33854L261.5625 61.416664ZM272.35938 65.15104Q271.76562 65.65104 271.21875 65.854164Q270.6875 66.05729 270.0625 66.05729Q269.03125 66.05729 268.48438 65.55729Q267.9375 65.05729 267.9375 64.27604Q267.9375 63.822914 268.14062 63.447914Q268.34375 63.05729 268.6875 62.83854Q269.03125 62.604164 269.45312 62.49479Q269.75 62.40104 270.39062 62.322914Q271.65625 62.18229 272.26562 61.96354Q272.26562 61.74479 272.26562 61.697914Q272.26562 61.041664 271.96875 60.77604Q271.5625 60.43229 270.76562 60.43229Q270.03125 60.43229 269.67188 60.697914Q269.3125 60.947914 269.14062 61.604164L268.10938 61.46354Q268.25 60.80729 268.57812 60.40104Q268.90625 59.99479 269.51562 59.77604Q270.125 59.55729 270.92188 59.55729Q271.71875 59.55729 272.21875 59.74479Q272.71875 59.93229 272.95312 60.21354Q273.1875 60.49479 273.28125 60.93229Q273.32812 61.197914 273.32812 61.90104L273.32812 63.30729Q273.32812 64.77604 273.39062 65.166664Q273.46875 65.55729 273.67188 65.916664L272.5625 65.916664Q272.40625 65.58854 272.35938 65.15104ZM272.26562 62.791664Q271.6875 63.02604 270.54688 63.197914Q269.89062 63.291664 269.625 63.416664Q269.35938 63.52604 269.20312 63.74479Q269.0625 63.96354 269.0625 64.24479Q269.0625 64.666664 269.375 64.947914Q269.70312 65.229164 270.3125 65.229164Q270.92188 65.229164 271.39062 64.96354Q271.875 64.697914 272.09375 64.229164Q272.26562 63.86979 272.26562 63.18229L272.26562 62.791664ZM277.59375 64.979164L277.75 65.90104Q277.29688 65.99479 276.95312 65.99479Q276.375 65.99479 276.0625 65.822914Q275.75 65.635414 275.60938 65.33854Q275.48438 65.041664 275.48438 64.08854L275.48438 60.510414L274.71875 60.510414L274.71875 59.697914L275.48438 59.697914L275.48438 58.15104L276.53125 57.52604L276.53125 59.697914L277.59375 59.697914L277.59375 60.510414L276.53125 60.510414L276.53125 64.15104Q276.53125 64.604164 276.57812 64.729164Q276.64062 64.854164 276.76562 64.93229Q276.89062 65.010414 277.125 65.010414Q277.3125 65.010414 277.59375 64.979164ZM282.35938 63.635414L283.39062 63.77604Q283.21875 64.83854 282.51562 65.447914Q281.8125 66.05729 280.79688 66.05729Q279.51562 66.05729 278.73438 65.229164Q277.96875 64.385414 277.96875 62.822914Q277.96875 61.822914 278.29688 61.072914Q278.64062 60.30729 279.3125 59.93229Q280.0 59.55729 280.8125 59.55729Q281.8125 59.55729 282.45312 60.072914Q283.10938 60.572914 283.29688 61.52604L282.26562 61.68229Q282.125 61.05729 281.75 60.74479Q281.375 60.416664 280.84375 60.416664Q280.04688 60.416664 279.54688 60.99479Q279.04688 61.55729 279.04688 62.791664Q279.04688 64.05729 279.53125 64.61979Q280.01562 65.18229 280.78125 65.18229Q281.40625 65.18229 281.8125 64.80729Q282.23438 64.43229 282.35938 63.635414ZM284.29688 65.916664L284.29688 57.322914L285.34375 57.322914L285.34375 60.40104Q286.07812 59.55729 287.20312 59.55729Q287.90625 59.55729 288.40625 59.83854Q288.92188 60.104164 289.14062 60.58854Q289.35938 61.05729 289.35938 61.979164L289.35938 65.916664L288.3125 65.916664L288.3125 61.979164Q288.3125 61.18229 287.96875 60.822914Q287.625 60.46354 287.0 60.46354Q286.53125 60.46354 286.10938 60.71354Q285.70312 60.947914 285.51562 61.36979Q285.34375 61.77604 285.34375 62.510414L285.34375 65.916664L284.29688 65.916664ZM295.54688 63.916664L296.64062 64.041664Q296.39062 64.99479 295.6875 65.52604Q294.98438 66.05729 293.90625 66.05729Q292.54688 66.05729 291.73438 65.21354Q290.9375 64.36979 290.9375 62.854164Q290.9375 61.291664 291.75 60.43229Q292.5625 59.55729 293.84375 59.55729Q295.09375 59.55729 295.875 60.40104Q296.67188 61.24479 296.67188 62.791664Q296.67188 62.885414 296.67188 63.072914L292.03125 63.072914Q292.09375 64.104164 292.60938 64.65104Q293.125 65.18229 293.90625 65.18229Q294.48438 65.18229 294.89062 64.885414Q295.3125 64.572914 295.54688 63.916664ZM292.09375 62.21354L295.5625 62.21354Q295.5 61.416664 295.17188 61.02604Q294.65625 60.416664 293.85938 60.416664Q293.125 60.416664 292.625 60.90104Q292.14062 61.385414 292.09375 62.21354ZM302.32812 65.916664L302.32812 65.135414Q301.73438 66.05729 300.59375 66.05729Q299.84375 66.05729 299.21875 65.65104Q298.59375 65.229164 298.25 64.49479Q297.90625 63.760414 297.90625 62.80729Q297.90625 61.885414 298.21875 61.11979Q298.53125 60.354164 299.15625 59.96354Q299.78125 59.55729 300.54688 59.55729Q301.10938 59.55729 301.54688 59.791664Q301.98438 60.02604 302.26562 60.40104L302.26562 57.322914L303.3125 57.322914L303.3125 65.916664L302.32812 65.916664ZM299.0 62.80729Q299.0 64.010414 299.5 64.604164Q300.0 65.18229 300.6875 65.18229Q301.375 65.18229 301.85938 64.61979Q302.34375 64.05729 302.34375 62.90104Q302.34375 61.61979 301.84375 61.02604Q301.35938 60.43229 300.64062 60.43229Q299.9375 60.43229 299.46875 61.010414Q299.0 61.572914 299.0 62.80729Z" fill-rule="nonzero"/><path fill="#757575" d="M70.46875 37.55L75.96875 23.2375L78.015625 23.2375L83.875 37.55L81.71875 37.55L80.046875 33.20625L74.0625 33.20625L72.484375 37.55L70.46875 37.55ZM74.609375 31.675L79.453125 31.675L77.96875 27.70625Q77.28125 25.89375 76.953125 24.7375Q76.671875 26.1125 76.171875 27.471874L74.609375 31.675ZM91.59375 36.26875Q90.609375 37.096874 89.703125 37.440624Q88.796875 37.784374 87.765625 37.784374Q86.0625 37.784374 85.140625 36.95625Q84.21875 36.1125 84.21875 34.815624Q84.21875 34.05 84.5625 33.425Q84.921875 32.8 85.484375 32.425Q86.046875 32.034374 86.75 31.83125Q87.265625 31.70625 88.3125 31.565624Q90.4375 31.315624 91.4375 30.971874Q91.453125 30.6125 91.453125 30.503124Q91.453125 29.440624 90.953125 28.9875Q90.28125 28.39375 88.953125 28.39375Q87.703125 28.39375 87.109375 28.83125Q86.53125 29.26875 86.25 30.378124L84.53125 30.14375Q84.765625 29.034374 85.296875 28.3625Q85.828125 27.675 86.84375 27.315624Q87.859375 26.940624 89.203125 26.940624Q90.53125 26.940624 91.359375 27.253124Q92.1875 27.565624 92.578125 28.05Q92.96875 28.51875 93.125 29.2375Q93.21875 29.690624 93.21875 30.8625L93.21875 33.20625Q93.21875 35.659374 93.328125 36.315624Q93.4375 36.95625 93.78125 37.55L91.9375 37.55Q91.671875 37.003124 91.59375 36.26875ZM91.4375 32.346874Q90.484375 32.7375 88.5625 33.003124Q87.484375 33.159374 87.03125 33.3625Q86.59375 33.55 86.34375 33.925Q86.09375 34.3 86.09375 34.76875Q86.09375 35.471874 86.625 35.940624Q87.15625 36.409374 88.1875 36.409374Q89.203125 36.409374 89.984375 35.971874Q90.78125 35.51875 91.15625 34.753124Q91.4375 34.14375 91.4375 32.9875L91.4375 32.346874ZM95.796875 37.55L95.796875 27.175L97.375 27.175L97.375 28.753124Q97.984375 27.64375 98.5 27.3Q99.015625 26.940624 99.625 26.940624Q100.515625 26.940624 101.4375 27.503124L100.828125 29.14375Q100.1875 28.753124 99.546875 28.753124Q98.96875 28.753124 98.5 29.1125Q98.046875 29.45625 97.84375 30.065624Q97.5625 31.003124 97.5625 32.1125L97.5625 37.55L95.796875 37.55ZM109.59375 33.753124L111.3125 33.971874Q111.03125 35.76875 109.859375 36.784374Q108.703125 37.784374 107.0 37.784374Q104.875 37.784374 103.578125 36.39375Q102.28125 35.003124 102.28125 32.409374Q102.28125 30.721874 102.828125 29.471874Q103.390625 28.20625 104.53125 27.58125Q105.671875 26.940624 107.015625 26.940624Q108.703125 26.940624 109.765625 27.8Q110.84375 28.659374 111.15625 30.221874L109.4375 30.4875Q109.203125 29.440624 108.578125 28.925Q107.953125 28.39375 107.078125 28.39375Q105.75 28.39375 104.921875 29.346874Q104.09375 30.3 104.09375 32.346874Q104.09375 34.440624 104.890625 35.39375Q105.6875 36.33125 106.984375 36.33125Q108.015625 36.33125 108.703125 35.70625Q109.40625 35.065624 109.59375 33.753124ZM112.8125 37.55L112.8125 23.2375L114.578125 23.2375L114.578125 28.3625Q115.8125 26.940624 117.6875 26.940624Q118.828125 26.940624 119.671875 27.39375Q120.53125 27.846874 120.890625 28.659374Q121.265625 29.45625 121.265625 30.971874L121.265625 37.55L119.515625 37.55L119.515625 30.971874Q119.515625 29.659374 118.9375 29.065624Q118.359375 28.45625 117.328125 28.45625Q116.546875 28.45625 115.84375 28.8625Q115.15625 29.26875 114.859375 29.971874Q114.578125 30.659374 114.578125 31.878124L114.578125 37.55L112.8125 37.55ZM131.45312 26.7375L129.70312 26.878124Q129.46875 25.846874 129.04688 25.378124Q128.32812 24.6125 127.28125 24.6125Q126.4375 24.6125 125.8125 25.08125Q124.984375 25.690624 124.5 26.8625Q124.015625 28.01875 124.0 30.159374Q124.640625 29.20625 125.546875 28.7375Q126.46875 28.26875 127.484375 28.26875Q129.23438 28.26875 130.46875 29.565624Q131.70312 30.846874 131.70312 32.89375Q131.70312 34.253124 131.125 35.409374Q130.54688 36.565624 129.53125 37.190624Q128.51562 37.8 127.21875 37.8Q125.03125 37.8 123.640625 36.190624Q122.25 34.565624 122.25 30.846874Q122.25 26.70625 123.78125 24.815624Q125.125 23.175 127.390625 23.175Q129.07812 23.175 130.15625 24.128124Q131.23438 25.065624 131.45312 26.7375ZM124.28125 32.909374Q124.28125 33.815624 124.65625 34.64375Q125.046875 35.471874 125.734375 35.909374Q126.4375 36.346874 127.1875 36.346874Q128.3125 36.346874 129.10938 35.45625Q129.90625 34.55 129.90625 33.003124Q129.90625 31.51875 129.10938 30.675Q128.32812 29.815624 127.125 29.815624Q125.9375 29.815624 125.109375 30.675Q124.28125 31.51875 124.28125 32.909374ZM138.96875 37.55L138.96875 34.128124L132.75 34.128124L132.75 32.503124L139.28125 23.2375L140.71875 23.2375L140.71875 32.503124L142.65625 32.503124L142.65625 34.128124L140.71875 34.128124L140.71875 37.55L138.96875 37.55ZM138.96875 32.503124L138.96875 26.05L134.48438 32.503124L138.96875 32.503124ZM153.70312 37.55L149.75 27.175L151.60938 27.175L153.84375 33.39375Q154.20312 34.39375 154.5 35.471874Q154.73438 34.659374 155.15625 33.503124L157.45312 27.175L159.26562 27.175L155.34375 37.55L153.70312 37.55ZM159.78125 37.55L159.78125 23.2375L161.53125 23.2375L161.53125 37.55L159.78125 37.55ZM170.92188 34.20625L172.73438 34.440624Q172.3125 36.01875 171.14062 36.909374Q169.98438 37.784374 168.17188 37.784374Q165.90625 37.784374 164.5625 36.39375Q163.23438 34.9875 163.23438 32.45625Q163.23438 29.83125 164.57812 28.39375Q165.92188 26.940624 168.07812 26.940624Q170.15625 26.940624 171.46875 28.3625Q172.79688 29.76875 172.79688 32.346874Q172.79688 32.503124 172.78125 32.815624L165.04688 32.815624Q165.14062 34.51875 166.01562 35.425Q166.89062 36.33125 168.1875 36.33125Q169.15625 36.33125 169.82812 35.83125Q170.51562 35.315624 170.92188 34.20625ZM165.14062 31.3625L170.9375 31.3625Q170.82812 30.065624 170.28125 29.409374Q169.4375 28.39375 168.09375 28.39375Q166.89062 28.39375 166.0625 29.20625Q165.23438 30.003124 165.14062 31.3625ZM177.03125 29.784374Q175.9375 29.378124 175.40625 28.64375Q174.89062 27.89375 174.89062 26.8625Q174.89062 25.3 176.01562 24.2375Q177.14062 23.175 179.0 23.175Q180.875 23.175 182.01562 24.26875Q183.15625 25.346874 183.15625 26.909374Q183.15625 27.909374 182.625 28.64375Q182.10938 29.378124 181.04688 29.784374Q182.375 30.221874 183.0625 31.175Q183.75 32.128124 183.75 33.45625Q183.75 35.3 182.4375 36.55Q181.14062 37.8 179.03125 37.8Q176.90625 37.8 175.60938 36.55Q174.3125 35.284374 174.3125 33.409374Q174.3125 32.01875 175.01562 31.08125Q175.73438 30.128124 177.03125 29.784374ZM176.6875 26.8Q176.6875 27.815624 177.34375 28.471874Q178.0 29.1125 179.03125 29.1125Q180.04688 29.1125 180.70312 28.471874Q181.35938 27.83125 181.35938 26.909374Q181.35938 25.940624 180.6875 25.284374Q180.01562 24.6125 179.01562 24.6125Q178.01562 24.6125 177.34375 25.26875Q176.6875 25.909374 176.6875 26.8ZM176.125 33.425Q176.125 34.175 176.46875 34.878124Q176.82812 35.58125 177.53125 35.971874Q178.23438 36.346874 179.04688 36.346874Q180.3125 36.346874 181.125 35.534374Q181.95312 34.721874 181.95312 33.471874Q181.95312 32.20625 181.10938 31.378124Q180.26562 30.55 178.98438 30.55Q177.75 30.55 176.9375 31.378124Q176.125 32.190624 176.125 33.425ZM186.3125 37.55L186.3125 35.55L188.3125 35.55L188.3125 37.55L186.3125 37.55ZM194.70312 37.55L190.75 27.175L192.60938 27.175L194.84375 33.39375Q195.20312 34.39375 195.5 35.471874Q195.73438 34.659374 196.15625 33.503124L198.45312 27.175L200.26562 27.175L196.34375 37.55L194.70312 37.55ZM206.10938 34.45625L207.85938 34.175Q208.0 35.221874 208.67188 35.784374Q209.34375 36.33125 210.54688 36.33125Q211.75 36.33125 212.32812 35.846874Q212.92188 35.346874 212.92188 34.690624Q212.92188 34.096874 212.40625 33.753124Q212.04688 33.51875 210.60938 33.159374Q208.67188 32.659374 207.92188 32.315624Q207.1875 31.95625 206.79688 31.33125Q206.40625 30.690624 206.40625 29.925Q206.40625 29.2375 206.71875 28.64375Q207.04688 28.05 207.59375 27.659374Q208.0 27.3625 208.70312 27.159374Q209.42188 26.940624 210.23438 26.940624Q211.45312 26.940624 212.375 27.3Q213.29688 27.64375 213.73438 28.253124Q214.17188 28.846874 214.34375 29.846874L212.625 30.08125Q212.5 29.284374 211.9375 28.846874Q211.375 28.39375 210.35938 28.39375Q209.14062 28.39375 208.625 28.8Q208.10938 29.190624 208.10938 29.721874Q208.10938 30.065624 208.32812 30.346874Q208.53125 30.628124 209.0 30.815624Q209.26562 30.909374 210.54688 31.253124Q212.42188 31.753124 213.15625 32.08125Q213.89062 32.39375 214.3125 33.003124Q214.73438 33.596874 214.73438 34.503124Q214.73438 35.378124 214.21875 36.159374Q213.70312 36.940624 212.73438 37.3625Q211.76562 37.784374 210.54688 37.784374Q208.53125 37.784374 207.46875 36.940624Q206.40625 36.096874 206.10938 34.45625ZM216.8125 41.51875L216.8125 27.175L218.42188 27.175L218.42188 28.51875Q218.98438 27.7375 219.6875 27.346874Q220.40625 26.940624 221.42188 26.940624Q222.75 26.940624 223.76562 27.628124Q224.78125 28.315624 225.29688 29.565624Q225.82812 30.8 225.82812 32.284374Q225.82812 33.878124 225.25 35.159374Q224.6875 36.425 223.59375 37.1125Q222.5 37.784374 221.29688 37.784374Q220.42188 37.784374 219.71875 37.409374Q219.03125 37.034374 218.57812 36.471874L218.57812 41.51875L216.8125 41.51875ZM218.40625 32.425Q218.40625 34.425 219.21875 35.378124Q220.03125 36.33125 221.1875 36.33125Q222.35938 36.33125 223.1875 35.346874Q224.03125 34.3625 224.03125 32.26875Q224.03125 30.3 223.20312 29.315624Q222.39062 28.315624 221.26562 28.315624Q220.14062 28.315624 219.26562 29.378124Q218.40625 30.425 218.40625 32.425ZM234.92188 34.20625L236.73438 34.440624Q236.3125 36.01875 235.14062 36.909374Q233.98438 37.784374 232.17188 37.784374Q229.90625 37.784374 228.5625 36.39375Q227.23438 34.9875 227.23438 32.45625Q227.23438 29.83125 228.57812 28.39375Q229.92188 26.940624 232.07812 26.940624Q234.15625 26.940624 235.46875 28.3625Q236.79688 29.76875 236.79688 32.346874Q236.79688 32.503124 236.78125 32.815624L229.04688 32.815624Q229.14062 34.51875 230.01562 35.425Q230.89062 36.33125 232.1875 36.33125Q233.15625 36.33125 233.82812 35.83125Q234.51562 35.315624 234.92188 34.20625ZM229.14062 31.3625L234.9375 31.3625Q234.82812 30.065624 234.28125 29.409374Q233.4375 28.39375 232.09375 28.39375Q230.89062 28.39375 230.0625 29.20625Q229.23438 30.003124 229.14062 31.3625ZM245.92188 34.20625L247.73438 34.440624Q247.3125 36.01875 246.14062 36.909374Q244.98438 37.784374 243.17188 37.784374Q240.90625 37.784374 239.5625 36.39375Q238.23438 34.9875 238.23438 32.45625Q238.23438 29.83125 239.57812 28.39375Q240.92188 26.940624 243.07812 26.940624Q245.15625 26.940624 246.46875 28.3625Q247.79688 29.76875 247.79688 32.346874Q247.79688 32.503124 247.78125 32.815624L240.04688 32.815624Q240.14062 34.51875 241.01562 35.425Q241.89062 36.33125 243.1875 36.33125Q244.15625 36.33125 244.82812 35.83125Q245.51562 35.315624 245.92188 34.20625ZM240.14062 31.3625L245.9375 31.3625Q245.82812 30.065624 245.28125 29.409374Q244.4375 28.39375 243.09375 28.39375Q241.89062 28.39375 241.0625 29.20625Q240.23438 30.003124 240.14062 31.3625ZM256.54688 37.55L256.54688 36.2375Q255.5625 37.784374 253.64062 37.784374Q252.40625 37.784374 251.35938 37.096874Q250.32812 36.409374 249.75 35.190624Q249.1875 33.971874 249.1875 32.378124Q249.1875 30.815624 249.70312 29.55Q250.21875 28.284374 251.25 27.6125Q252.29688 26.940624 253.5625 26.940624Q254.5 26.940624 255.23438 27.346874Q255.96875 27.7375 256.4375 28.3625L256.4375 23.2375L258.17188 23.2375L258.17188 37.55L256.54688 37.55ZM250.98438 32.378124Q250.98438 34.3625 251.82812 35.346874Q252.67188 36.33125 253.8125 36.33125Q254.96875 36.33125 255.76562 35.39375Q256.57812 34.45625 256.57812 32.51875Q256.57812 30.39375 255.75 29.39375Q254.9375 28.39375 253.73438 28.39375Q252.5625 28.39375 251.76562 29.3625Q250.98438 30.315624 250.98438 32.378124ZM267.60938 37.55L267.60938 36.01875Q266.40625 37.784374 264.32812 37.784374Q263.40625 37.784374 262.60938 37.440624Q261.8125 37.08125 261.42188 36.55Q261.04688 36.01875 260.89062 35.2375Q260.78125 34.721874 260.78125 33.596874L260.78125 27.175L262.53125 27.175L262.53125 32.925Q262.53125 34.3 262.64062 34.784374Q262.8125 35.471874 263.34375 35.878124Q263.89062 36.26875 264.67188 36.26875Q265.46875 36.26875 266.15625 35.8625Q266.85938 35.45625 267.14062 34.76875Q267.4375 34.065624 267.4375 32.7375L267.4375 27.175L269.1875 27.175L269.1875 37.55L267.60938 37.55ZM270.8125 41.51875L270.8125 27.175L272.42188 27.175L272.42188 28.51875Q272.98438 27.7375 273.6875 27.346874Q274.40625 26.940624 275.42188 26.940624Q276.75 26.940624 277.76562 27.628124Q278.78125 28.315624 279.29688 29.565624Q279.82812 30.8 279.82812 32.284374Q279.82812 33.878124 279.25 35.159374Q278.6875 36.425 277.59375 37.1125Q276.5 37.784374 275.29688 37.784374Q274.42188 37.784374 273.71875 37.409374Q273.03125 37.034374 272.57812 36.471874L272.57812 41.51875L270.8125 41.51875ZM272.40625 32.425Q272.40625 34.425 273.21875 35.378124Q274.03125 36.33125 275.1875 36.33125Q276.35938 36.33125 277.1875 35.346874Q278.03125 34.3625 278.03125 32.26875Q278.03125 30.3 277.20312 29.315624Q276.39062 28.315624 275.26562 28.315624Q274.14062 28.315624 273.26562 29.378124Q272.40625 30.425 272.40625 32.425ZM292.14062 37.55L286.59375 23.2375L288.64062 23.2375L292.35938 33.628124Q292.8125 34.878124 293.10938 35.971874Q293.4375 34.8 293.89062 33.628124L297.75 23.2375L299.6875 23.2375L294.07812 37.55L292.14062 37.55ZM300.96875 37.55L300.96875 23.2375L302.85938 23.2375L302.85938 35.8625L309.90625 35.8625L309.90625 37.55L300.96875 37.55ZM312.07812 37.55L312.07812 23.2375L322.4375 23.2375L322.4375 24.925L313.98438 24.925L313.98438 29.3L321.89062 29.3L321.89062 30.9875L313.98438 30.9875L313.98438 35.8625L322.76562 35.8625L322.76562 37.55L312.07812 37.55ZM325.03125 37.55L325.03125 23.2375L326.96875 23.2375L334.48438 34.471874L334.48438 23.2375L336.29688 23.2375L336.29688 37.55L334.35938 37.55L326.84375 26.3L326.84375 37.55L325.03125 37.55ZM347.0625 29.128124L337.60938 29.128124L337.60938 27.4875L347.0625 27.4875L347.0625 29.128124ZM347.0625 33.471874L337.60938 33.471874L337.60938 31.83125L347.0625 31.83125L347.0625 33.471874ZM355.95312 37.55L354.1875 37.55L354.1875 26.346874Q353.5625 26.95625 352.53125 27.565624Q351.5 28.159374 350.67188 28.471874L350.67188 26.76875Q352.15625 26.08125 353.25 25.096874Q354.35938 24.096874 354.8125 23.175L355.95312 23.175L355.95312 37.55ZM360.32812 30.4875Q360.32812 27.95625 360.84375 26.409374Q361.375 24.846874 362.40625 24.01875Q363.4375 23.175 365.0 23.175Q366.15625 23.175 367.01562 23.64375Q367.89062 24.096874 368.45312 24.971874Q369.01562 25.846874 369.34375 27.1125Q369.67188 28.3625 369.67188 30.4875Q369.67188 33.003124 369.14062 34.55Q368.625 36.096874 367.59375 36.95625Q366.57812 37.8 365.0 37.8Q362.92188 37.8 361.75 36.315624Q360.32812 34.51875 360.32812 30.4875ZM362.14062 30.4875Q362.14062 34.01875 362.95312 35.190624Q363.78125 36.346874 365.0 36.346874Q366.20312 36.346874 367.03125 35.175Q367.85938 34.003124 367.85938 30.4875Q367.85938 26.95625 367.03125 25.8Q366.20312 24.628124 364.98438 24.628124Q363.76562 24.628124 363.04688 25.659374Q362.14062 26.95625 362.14062 30.4875ZM380.5625 35.8625L380.5625 37.55L371.10938 37.55Q371.09375 36.909374 371.3125 36.33125Q371.67188 35.3625 372.46875 34.425Q373.26562 33.4875 374.76562 32.253124Q377.10938 30.346874 377.92188 29.2375Q378.75 28.1125 378.75 27.1125Q378.75 26.065624 378.0 25.346874Q377.25 24.628124 376.04688 24.628124Q374.78125 24.628124 374.01562 25.39375Q373.25 26.159374 373.25 27.503124L371.4375 27.315624Q371.625 25.3 372.82812 24.2375Q374.04688 23.175 376.09375 23.175Q378.14062 23.175 379.34375 24.315624Q380.54688 25.45625 380.54688 27.14375Q380.54688 28.003124 380.1875 28.846874Q379.84375 29.675 379.03125 30.596874Q378.21875 31.503124 376.32812 33.1125Q374.73438 34.440624 374.28125 34.909374Q373.84375 35.378124 373.54688 35.8625L380.5625 35.8625ZM387.96875 37.55L387.96875 34.128124L381.75 34.128124L381.75 32.503124L388.28125 23.2375L389.71875 23.2375L389.71875 32.503124L391.65625 32.503124L391.65625 34.128124L389.71875 34.128124L389.71875 37.55L387.96875 37.55ZM387.96875 32.503124L387.96875 26.05L383.48438 32.503124L387.96875 32.503124ZM399.96875 37.55L399.96875 23.2375L401.85938 23.2375L401.85938 35.8625L408.90625 35.8625L408.90625 37.55L399.96875 37.55ZM410.98438 37.55L410.98438 23.2375L413.84375 23.2375L417.21875 33.3625Q417.6875 34.784374 417.90625 35.4875Q418.15625 34.70625 418.67188 33.190624L422.09375 23.2375L424.64062 23.2375L424.64062 37.55L422.82812 37.55L422.82812 25.565624L418.65625 37.55L416.95312 37.55L412.8125 25.3625L412.8125 37.55L410.98438 37.55ZM437.4375 23.2375L439.32812 23.2375L439.32812 31.503124Q439.32812 33.659374 438.84375 34.940624Q438.35938 36.20625 437.07812 37.003124Q435.8125 37.8 433.73438 37.8Q431.71875 37.8 430.4375 37.1125Q429.17188 36.409374 428.625 35.096874Q428.07812 33.784374 428.07812 31.503124L428.07812 23.2375L429.96875 23.2375L429.96875 31.4875Q429.96875 33.3625 430.3125 34.253124Q430.65625 35.128124 431.5 35.6125Q432.34375 36.08125 433.57812 36.08125Q435.65625 36.08125 436.54688 35.14375Q437.4375 34.190624 437.4375 31.4875L437.4375 23.2375ZM440.96875 37.55L440.96875 23.2375L442.85938 23.2375L442.85938 35.8625L449.90625 35.8625L449.90625 37.55L440.96875 37.55ZM461.0625 29.128124L451.60938 29.128124L451.60938 27.4875L461.0625 27.4875L461.0625 29.128124ZM461.0625 33.471874L451.60938 33.471874L451.60938 31.83125L461.0625 31.83125L461.0625 33.471874ZM466.03125 29.784374Q464.9375 29.378124 464.40625 28.64375Q463.89062 27.89375 463.89062 26.8625Q463.89062 25.3 465.01562 24.2375Q466.14062 23.175 468.0 23.175Q469.875 23.175 471.01562 24.26875Q472.15625 25.346874 472.15625 26.909374Q472.15625 27.909374 471.625 28.64375Q471.10938 29.378124 470.04688 29.784374Q471.375 30.221874 472.0625 31.175Q472.75 32.128124 472.75 33.45625Q472.75 35.3 471.4375 36.55Q470.14062 37.8 468.03125 37.8Q465.90625 37.8 464.60938 36.55Q463.3125 35.284374 463.3125 33.409374Q463.3125 32.01875 464.01562 31.08125Q464.73438 30.128124 466.03125 29.784374ZM465.6875 26.8Q465.6875 27.815624 466.34375 28.471874Q467.0 29.1125 468.03125 29.1125Q469.04688 29.1125 469.70312 28.471874Q470.35938 27.83125 470.35938 26.909374Q470.35938 25.940624 469.6875 25.284374Q469.01562 24.6125 468.01562 24.6125Q467.01562 24.6125 466.34375 25.26875Q465.6875 25.909374 465.6875 26.8ZM465.125 33.425Q465.125 34.175 465.46875 34.878124Q465.82812 35.58125 466.53125 35.971874Q467.23438 36.346874 468.04688 36.346874Q469.3125 36.346874 470.125 35.534374Q470.95312 34.721874 470.95312 33.471874Q470.95312 32.20625 470.10938 31.378124Q469.26562 30.55 467.98438 30.55Q466.75 30.55 465.9375 31.378124Q465.125 32.190624 465.125 33.425Z" fill-rule="nonzero"/></svg>