<svg version="1.1" viewBox="0.0 0.0 544.0 371.0" fill="none" stroke="none" stroke-linecap="square" stroke-miterlimit="10" width="544" height="371" xmlns:xlink="http://www.w3.org/1999/xlink" xmlns="http://www.w3.org/2000/svg"><path fill="#ffffff" d="M0 0L544.0 0L544.0 371.0L0 371.0L0 0Z" fill-rule="nonzero"/><path stroke="#cccccc" stroke-width="1.0" stroke-linecap="butt" d="M77.5 88.5L77.5 300.5" fill-rule="nonzero"/><path stroke="#cccccc" stroke-width="1.0" stroke-linecap="butt" d="M192.5 88.5L192.5 300.5" fill-rule="nonzero"/><path stroke="#cccccc" stroke-width="1.0" stroke-linecap="butt" d="M306.5 88.5L306.5 300.5" fill-rule="nonzero"/><path stroke="#cccccc" stroke-width="1.0" stroke-linecap="butt" d="M420.5 88.5L420.5 300.5" fill-rule="nonzero"/><path stroke="#333333" stroke-width="1.0" stroke-linecap="butt" d="M77.5 300.5L525.5 300.5" fill-rule="nonzero"/><path stroke="#cccccc" stroke-width="1.0" stroke-linecap="butt" d="M77.5 258.5L525.5 258.5" fill-rule="nonzero"/><path stroke="#cccccc" stroke-width="1.0" stroke-linecap="butt" d="M77.5 215.5L525.5 215.5" fill-rule="nonzero"/><path stroke="#cccccc" stroke-width="1.0" stroke-linecap="butt" d="M77.5 173.5L525.5 173.5" fill-rule="nonzero"/><path stroke="#cccccc" stroke-width="1.0" stroke-linecap="butt" d="M77.5 130.5L525.5 130.5" fill-rule="nonzero"/><path stroke="#cccccc" stroke-width="1.0" stroke-linecap="butt" d="M77.5 88.5L525.5 88.5" fill-rule="nonzero"/><clipPath id="id_0"><path d="M77.55 88.28333L525.45 88.28333L525.45 300.45L77.55 300.45L77.55 88.28333Z" clip-rule="nonzero"/></clipPath><path stroke="#4285f4" stroke-width="2.0" stroke-linecap="butt" clip-path="url(#id_0)" d="M77.55 280.10745L112.003845 270.44113L146.45769 245.3885L180.91154 206.40924L215.36539 121.16917L249.81923 120.744835L284.27307 120.53267L318.72693 119.684L353.18076 123.07867L387.6346 117.986664L422.08847 112.89467L456.5423 123.92733L490.99615 112.89467L525.45 122.23" fill-rule="nonzero"/><path stroke="#ea4335" stroke-width="2.0" stroke-linecap="butt" clip-path="url(#id_0)" d="M77.55 248.7662L112.003845 245.23575L146.45769 241.54405L180.91154 238.76042L215.36539 236.90184L249.81923 236.8L284.27307 237.22433L318.72693 240.19467L353.18076 235.95134L387.6346 238.49733L422.08847 235.10266L456.5423 238.49733L490.99615 236.8L525.45 234.254" fill-rule="nonzero"/><path stroke="#fbbc04" stroke-width="2.0" stroke-linecap="butt" clip-path="url(#id_0)" d="M77.55 278.19797L112.003845 268.39587L146.45769 243.21593L180.91154 275.3634L215.36539 262.68433L249.81923 251.65167L284.27307 251.65167L318.72693 248.68134L353.18076 252.076L387.6346 252.92467L422.08847 250.37866L456.5423 262.26L490.99615 264.806L525.45 263.10867" fill-rule="nonzero"/><path stroke="#34a853" stroke-width="2.0" stroke-linecap="butt" clip-path="url(#id_0)" d="M77.55 283.99435L112.003845 281.70294L146.45769 282.28006L180.91154 282.3055L215.36539 256.6418L249.81923 253.9855L284.27307 255.04634L318.72693 257.168L353.18076 256.31934L387.6346 252.92467L422.08847 254.622L456.5423 255.47067L490.99615 255.47067L525.45 259.714" fill-rule="nonzero"/><path stroke="#ff6d01" stroke-width="2.0" stroke-linecap="butt" clip-path="url(#id_0)" d="M77.55 285.09763L112.003845 282.33945L146.45769 282.5516L180.91154 282.89108L215.36539 257.168L249.81923 254.19766L284.27307 254.622L318.72693 256.31934L353.18076 251.22734L387.6346 253.77333L422.08847 253.77333L456.5423 253.77333L490.99615 259.714L525.45 257.168" fill-rule="nonzero"/><path fill="#000000" fill-opacity="0.0" clip-path="url(#id_0)" d="M80.55 280.10745C80.55 281.7643 79.206856 283.10745 77.55 283.10745C75.89314 283.10745 74.55 281.7643 74.55 280.10745C74.55 278.4506 75.89314 277.10745 77.55 277.10745C79.206856 277.10745 80.55 278.4506 80.55 280.10745Z" fill-rule="nonzero"/><path fill="#000000" fill-opacity="0.0" clip-path="url(#id_0)" d="M115.003845 270.44113C115.003845 272.098 113.6607 273.44113 112.003845 273.44113C110.34699 273.44113 109.003845 272.098 109.003845 270.44113C109.003845 268.7843 110.34699 267.44113 112.003845 267.44113C113.6607 267.44113 115.003845 268.7843 115.003845 270.44113Z" fill-rule="nonzero"/><path fill="#000000" fill-opacity="0.0" clip-path="url(#id_0)" d="M149.45769 245.3885C149.45769 247.04536 148.11455 248.3885 146.45769 248.3885C144.80084 248.3885 143.45769 247.04536 143.45769 245.3885C143.45769 243.73166 144.80084 242.3885 146.45769 242.3885C148.11455 242.3885 149.45769 243.73166 149.45769 245.3885Z" fill-rule="nonzero"/><path fill="#000000" fill-opacity="0.0" clip-path="url(#id_0)" d="M183.91154 206.40924C183.91154 208.0661 182.56839 209.40924 180.91154 209.40924C179.25468 209.40924 177.91154 208.0661 177.91154 206.40924C177.91154 204.7524 179.25468 203.40924 180.91154 203.40924C182.56839 203.40924 183.91154 204.7524 183.91154 206.40924Z" fill-rule="nonzero"/><path fill="#000000" fill-opacity="0.0" clip-path="url(#id_0)" d="M218.36539 121.16917C218.36539 122.82602 217.02223 124.16917 215.36539 124.16917C213.70853 124.16917 212.36539 122.82602 212.36539 121.16917C212.36539 119.512314 213.70853 118.16917 215.36539 118.16917C217.02223 118.16917 218.36539 119.512314 218.36539 121.16917Z" fill-rule="nonzero"/><path fill="#000000" fill-opacity="0.0" clip-path="url(#id_0)" d="M252.81923 120.744835C252.81923 122.40169 251.47609 123.744835 249.81923 123.744835C248.16238 123.744835 246.81923 122.40169 246.81923 120.744835C246.81923 119.08798 248.16238 117.744835 249.81923 117.744835C251.47609 117.744835 252.81923 119.08798 252.81923 120.744835Z" fill-rule="nonzero"/><path fill="#000000" fill-opacity="0.0" clip-path="url(#id_0)" d="M287.27307 120.53267C287.27307 122.18952 285.92993 123.53267 284.27307 123.53267C282.6162 123.53267 281.27307 122.18952 281.27307 120.53267C281.27307 118.87581 282.6162 117.53267 284.27307 117.53267C285.92993 117.53267 287.27307 118.87581 287.27307 120.53267Z" fill-rule="nonzero"/><path fill="#000000" fill-opacity="0.0" clip-path="url(#id_0)" d="M321.72693 119.684C321.72693 121.34085 320.3838 122.684 318.72693 122.684C317.07007 122.684 315.72693 121.34085 315.72693 119.684C315.72693 118.027145 317.07007 116.684 318.72693 116.684C320.3838 116.684 321.72693 118.027145 321.72693 119.684Z" fill-rule="nonzero"/><path fill="#000000" fill-opacity="0.0" clip-path="url(#id_0)" d="M356.18076 123.07867C356.18076 124.73552 354.83762 126.07867 353.18076 126.07867C351.52393 126.07867 350.18076 124.73552 350.18076 123.07867C350.18076 121.421814 351.52393 120.07867 353.18076 120.07867C354.83762 120.07867 356.18076 121.421814 356.18076 123.07867Z" fill-rule="nonzero"/><path fill="#000000" fill-opacity="0.0" clip-path="url(#id_0)" d="M390.6346 117.986664C390.6346 119.643524 389.29147 120.986664 387.6346 120.986664C385.97775 120.986664 384.6346 119.643524 384.6346 117.986664C384.6346 116.32981 385.97775 114.986664 387.6346 114.986664C389.29147 114.986664 390.6346 116.32981 390.6346 117.986664Z" fill-rule="nonzero"/><path fill="#000000" fill-opacity="0.0" clip-path="url(#id_0)" d="M425.08847 112.89467C425.08847 114.55152 423.74533 115.89467 422.08847 115.89467C420.4316 115.89467 419.08847 114.55152 419.08847 112.89467C419.08847 111.237816 420.4316 109.89467 422.08847 109.89467C423.74533 109.89467 425.08847 111.237816 425.08847 112.89467Z" fill-rule="nonzero"/><path fill="#000000" fill-opacity="0.0" clip-path="url(#id_0)" d="M459.5423 123.92733C459.5423 125.58419 458.19916 126.92733 456.5423 126.92733C454.88547 126.92733 453.5423 125.58419 453.5423 123.92733C453.5423 122.27048 454.88547 120.92733 456.5423 120.92733C458.19916 120.92733 459.5423 122.27048 459.5423 123.92733Z" fill-rule="nonzero"/><path fill="#000000" fill-opacity="0.0" clip-path="url(#id_0)" d="M493.99615 112.89467C493.99615 114.55152 492.653 115.89467 490.99615 115.89467C489.3393 115.89467 487.99615 114.55152 487.99615 112.89467C487.99615 111.237816 489.3393 109.89467 490.99615 109.89467C492.653 109.89467 493.99615 111.237816 493.99615 112.89467Z" fill-rule="nonzero"/><path fill="#000000" fill-opacity="0.0" clip-path="url(#id_0)" d="M528.45 122.23C528.45 123.886856 527.1069 125.23 525.45 125.23C523.79315 125.23 522.45 123.886856 522.45 122.23C522.45 120.57314 523.79315 119.23 525.45 119.23C527.1069 119.23 528.45 120.57314 528.45 122.23Z" fill-rule="nonzero"/><path fill="#000000" fill-opacity="0.0" clip-path="url(#id_0)" d="M80.55 248.7662C80.55 250.42305 79.206856 251.7662 77.55 251.7662C75.89314 251.7662 74.55 250.42305 74.55 248.7662C74.55 247.10934 75.89314 245.7662 77.55 245.7662C79.206856 245.7662 80.55 247.10934 80.55 248.7662Z" fill-rule="nonzero"/><path fill="#000000" fill-opacity="0.0" clip-path="url(#id_0)" d="M115.003845 245.23575C115.003845 246.8926 113.6607 248.23575 112.003845 248.23575C110.34699 248.23575 109.003845 246.8926 109.003845 245.23575C109.003845 243.57889 110.34699 242.23575 112.003845 242.23575C113.6607 242.23575 115.003845 243.57889 115.003845 245.23575Z" fill-rule="nonzero"/><path fill="#000000" fill-opacity="0.0" clip-path="url(#id_0)" d="M149.45769 241.54405C149.45769 243.2009 148.11455 244.54405 146.45769 244.54405C144.80084 244.54405 143.45769 243.2009 143.45769 241.54405C143.45769 239.88719 144.80084 238.54405 146.45769 238.54405C148.11455 238.54405 149.45769 239.88719 149.45769 241.54405Z" fill-rule="nonzero"/><path fill="#000000" fill-opacity="0.0" clip-path="url(#id_0)" d="M183.91154 238.76042C183.91154 240.41727 182.56839 241.76042 180.91154 241.76042C179.25468 241.76042 177.91154 240.41727 177.91154 238.76042C177.91154 237.10356 179.25468 235.76042 180.91154 235.76042C182.56839 235.76042 183.91154 237.10356 183.91154 238.76042Z" fill-rule="nonzero"/><path fill="#000000" fill-opacity="0.0" clip-path="url(#id_0)" d="M218.36539 236.90184C218.36539 238.5587 217.02223 239.90184 215.36539 239.90184C213.70853 239.90184 212.36539 238.5587 212.36539 236.90184C212.36539 235.24498 213.70853 233.90184 215.36539 233.90184C217.02223 233.90184 218.36539 235.24498 218.36539 236.90184Z" fill-rule="nonzero"/><path fill="#000000" fill-opacity="0.0" clip-path="url(#id_0)" d="M252.81923 236.8C252.81923 238.45685 251.47609 239.8 249.81923 239.8C248.16238 239.8 246.81923 238.45685 246.81923 236.8C246.81923 235.14314 248.16238 233.8 249.81923 233.8C251.47609 233.8 252.81923 235.14314 252.81923 236.8Z" fill-rule="nonzero"/><path fill="#000000" fill-opacity="0.0" clip-path="url(#id_0)" d="M287.27307 237.22433C287.27307 238.8812 285.92993 240.22433 284.27307 240.22433C282.6162 240.22433 281.27307 238.8812 281.27307 237.22433C281.27307 235.56747 282.6162 234.22433 284.27307 234.22433C285.92993 234.22433 287.27307 235.56747 287.27307 237.22433Z" fill-rule="nonzero"/><path fill="#000000" fill-opacity="0.0" clip-path="url(#id_0)" d="M321.72693 240.19467C321.72693 241.85152 320.3838 243.19467 318.72693 243.19467C317.07007 243.19467 315.72693 241.85152 315.72693 240.19467C315.72693 238.53781 317.07007 237.19467 318.72693 237.19467C320.3838 237.19467 321.72693 238.53781 321.72693 240.19467Z" fill-rule="nonzero"/><path fill="#000000" fill-opacity="0.0" clip-path="url(#id_0)" d="M356.18076 235.95134C356.18076 237.60818 354.83762 238.95134 353.18076 238.95134C351.52393 238.95134 350.18076 237.60818 350.18076 235.95134C350.18076 234.29448 351.52393 232.95134 353.18076 232.95134C354.83762 232.95134 356.18076 234.29448 356.18076 235.95134Z" fill-rule="nonzero"/><path fill="#000000" fill-opacity="0.0" clip-path="url(#id_0)" d="M390.6346 238.49733C390.6346 240.15419 389.29147 241.49733 387.6346 241.49733C385.97775 241.49733 384.6346 240.15419 384.6346 238.49733C384.6346 236.84048 385.97775 235.49733 387.6346 235.49733C389.29147 235.49733 390.6346 236.84048 390.6346 238.49733Z" fill-rule="nonzero"/><path fill="#000000" fill-opacity="0.0" clip-path="url(#id_0)" d="M425.08847 235.10266C425.08847 236.75952 423.74533 238.10266 422.08847 238.10266C420.4316 238.10266 419.08847 236.75952 419.08847 235.10266C419.08847 233.44582 420.4316 232.10266 422.08847 232.10266C423.74533 232.10266 425.08847 233.44582 425.08847 235.10266Z" fill-rule="nonzero"/><path fill="#000000" fill-opacity="0.0" clip-path="url(#id_0)" d="M459.5423 238.49733C459.5423 240.15419 458.19916 241.49733 456.5423 241.49733C454.88547 241.49733 453.5423 240.15419 453.5423 238.49733C453.5423 236.84048 454.88547 235.49733 456.5423 235.49733C458.19916 235.49733 459.5423 236.84048 459.5423 238.49733Z" fill-rule="nonzero"/><path fill="#000000" fill-opacity="0.0" clip-path="url(#id_0)" d="M493.99615 236.8C493.99615 238.45685 492.653 239.8 490.99615 239.8C489.3393 239.8 487.99615 238.45685 487.99615 236.8C487.99615 235.14314 489.3393 233.8 490.99615 233.8C492.653 233.8 493.99615 235.14314 493.99615 236.8Z" fill-rule="nonzero"/><path fill="#000000" fill-opacity="0.0" clip-path="url(#id_0)" d="M528.45 234.254C528.45 235.91086 527.1069 237.254 525.45 237.254C523.79315 237.254 522.45 235.91086 522.45 234.254C522.45 232.59715 523.79315 231.254 525.45 231.254C527.1069 231.254 528.45 232.59715 528.45 234.254Z" fill-rule="nonzero"/><path fill="#000000" fill-opacity="0.0" clip-path="url(#id_0)" d="M80.55 278.19797C80.55 279.85483 79.206856 281.19797 77.55 281.19797C75.89314 281.19797 74.55 279.85483 74.55 278.19797C74.55 276.5411 75.89314 275.19797 77.55 275.19797C79.206856 275.19797 80.55 276.5411 80.55 278.19797Z" fill-rule="nonzero"/><path fill="#000000" fill-opacity="0.0" clip-path="url(#id_0)" d="M115.003845 268.39587C115.003845 270.0527 113.6607 271.39587 112.003845 271.39587C110.34699 271.39587 109.003845 270.0527 109.003845 268.39587C109.003845 266.739 110.34699 265.39587 112.003845 265.39587C113.6607 265.39587 115.003845 266.739 115.003845 268.39587Z" fill-rule="nonzero"/><path fill="#000000" fill-opacity="0.0" clip-path="url(#id_0)" d="M149.45769 243.21593C149.45769 244.87277 148.11455 246.21593 146.45769 246.21593C144.80084 246.21593 143.45769 244.87277 143.45769 243.21593C143.45769 241.55907 144.80084 240.21593 146.45769 240.21593C148.11455 240.21593 149.45769 241.55907 149.45769 243.21593Z" fill-rule="nonzero"/><path fill="#000000" fill-opacity="0.0" clip-path="url(#id_0)" d="M183.91154 275.3634C183.91154 277.02026 182.56839 278.3634 180.91154 278.3634C179.25468 278.3634 177.91154 277.02026 177.91154 275.3634C177.91154 273.70657 179.25468 272.3634 180.91154 272.3634C182.56839 272.3634 183.91154 273.70657 183.91154 275.3634Z" fill-rule="nonzero"/><path fill="#000000" fill-opacity="0.0" clip-path="url(#id_0)" d="M218.36539 262.68433C218.36539 264.3412 217.02223 265.68433 215.36539 265.68433C213.70853 265.68433 212.36539 264.3412 212.36539 262.68433C212.36539 261.02747 213.70853 259.68433 215.36539 259.68433C217.02223 259.68433 218.36539 261.02747 218.36539 262.68433Z" fill-rule="nonzero"/><path fill="#000000" fill-opacity="0.0" clip-path="url(#id_0)" d="M252.81923 251.65167C252.81923 253.30852 251.47609 254.65167 249.81923 254.65167C248.16238 254.65167 246.81923 253.30852 246.81923 251.65167C246.81923 249.99481 248.16238 248.65167 249.81923 248.65167C251.47609 248.65167 252.81923 249.99481 252.81923 251.65167Z" fill-rule="nonzero"/><path fill="#000000" fill-opacity="0.0" clip-path="url(#id_0)" d="M287.27307 251.65167C287.27307 253.30852 285.92993 254.65167 284.27307 254.65167C282.6162 254.65167 281.27307 253.30852 281.27307 251.65167C281.27307 249.99481 282.6162 248.65167 284.27307 248.65167C285.92993 248.65167 287.27307 249.99481 287.27307 251.65167Z" fill-rule="nonzero"/><path fill="#000000" fill-opacity="0.0" clip-path="url(#id_0)" d="M321.72693 248.68134C321.72693 250.33818 320.3838 251.68134 318.72693 251.68134C317.07007 251.68134 315.72693 250.33818 315.72693 248.68134C315.72693 247.02448 317.07007 245.68134 318.72693 245.68134C320.3838 245.68134 321.72693 247.02448 321.72693 248.68134Z" fill-rule="nonzero"/><path fill="#000000" fill-opacity="0.0" clip-path="url(#id_0)" d="M356.18076 252.076C356.18076 253.73285 354.83762 255.076 353.18076 255.076C351.52393 255.076 350.18076 253.73285 350.18076 252.076C350.18076 250.41914 351.52393 249.076 353.18076 249.076C354.83762 249.076 356.18076 250.41914 356.18076 252.076Z" fill-rule="nonzero"/><path fill="#000000" fill-opacity="0.0" clip-path="url(#id_0)" d="M390.6346 252.92467C390.6346 254.58153 389.29147 255.92467 387.6346 255.92467C385.97775 255.92467 384.6346 254.58153 384.6346 252.92467C384.6346 251.2678 385.97775 249.92467 387.6346 249.92467C389.29147 249.92467 390.6346 251.2678 390.6346 252.92467Z" fill-rule="nonzero"/><path fill="#000000" fill-opacity="0.0" clip-path="url(#id_0)" d="M425.08847 250.37866C425.08847 252.03552 423.74533 253.37866 422.08847 253.37866C420.4316 253.37866 419.08847 252.03552 419.08847 250.37866C419.08847 248.72182 420.4316 247.37866 422.08847 247.37866C423.74533 247.37866 425.08847 248.72182 425.08847 250.37866Z" fill-rule="nonzero"/><path fill="#000000" fill-opacity="0.0" clip-path="url(#id_0)" d="M459.5423 262.26C459.5423 263.91684 458.19916 265.26 456.5423 265.26C454.88547 265.26 453.5423 263.91684 453.5423 262.26C453.5423 260.60315 454.88547 259.26 456.5423 259.26C458.19916 259.26 459.5423 260.60315 459.5423 262.26Z" fill-rule="nonzero"/><path fill="#000000" fill-opacity="0.0" clip-path="url(#id_0)" d="M493.99615 264.806C493.99615 266.46286 492.653 267.806 490.99615 267.806C489.3393 267.806 487.99615 266.46286 487.99615 264.806C487.99615 263.14914 489.3393 261.806 490.99615 261.806C492.653 261.806 493.99615 263.14914 493.99615 264.806Z" fill-rule="nonzero"/><path fill="#000000" fill-opacity="0.0" clip-path="url(#id_0)" d="M528.45 263.10867C528.45 264.76553 527.1069 266.10867 525.45 266.10867C523.79315 266.10867 522.45 264.76553 522.45 263.10867C522.45 261.4518 523.79315 260.10867 525.45 260.10867C527.1069 260.10867 528.45 261.4518 528.45 263.10867Z" fill-rule="nonzero"/><path fill="#000000" fill-opacity="0.0" clip-path="url(#id_0)" d="M80.55 283.99435C80.55 285.6512 79.206856 286.99435 77.55 286.99435C75.89314 286.99435 74.55 285.6512 74.55 283.99435C74.55 282.3375 75.89314 280.99435 77.55 280.99435C79.206856 280.99435 80.55 282.3375 80.55 283.99435Z" fill-rule="nonzero"/><path fill="#000000" fill-opacity="0.0" clip-path="url(#id_0)" d="M115.003845 281.70294C115.003845 283.3598 113.6607 284.70294 112.003845 284.70294C110.34699 284.70294 109.003845 283.3598 109.003845 281.70294C109.003845 280.0461 110.34699 278.70294 112.003845 278.70294C113.6607 278.70294 115.003845 280.0461 115.003845 281.70294Z" fill-rule="nonzero"/><path fill="#000000" fill-opacity="0.0" clip-path="url(#id_0)" d="M149.45769 282.28006C149.45769 283.9369 148.11455 285.28006 146.45769 285.28006C144.80084 285.28006 143.45769 283.9369 143.45769 282.28006C143.45769 280.6232 144.80084 279.28006 146.45769 279.28006C148.11455 279.28006 149.45769 280.6232 149.45769 282.28006Z" fill-rule="nonzero"/><path fill="#000000" fill-opacity="0.0" clip-path="url(#id_0)" d="M183.91154 282.3055C183.91154 283.96237 182.56839 285.3055 180.91154 285.3055C179.25468 285.3055 177.91154 283.96237 177.91154 282.3055C177.91154 280.64865 179.25468 279.3055 180.91154 279.3055C182.56839 279.3055 183.91154 280.64865 183.91154 282.3055Z" fill-rule="nonzero"/><path fill="#000000" fill-opacity="0.0" clip-path="url(#id_0)" d="M218.36539 256.6418C218.36539 258.29868 217.02223 259.6418 215.36539 259.6418C213.70853 259.6418 212.36539 258.29868 212.36539 256.6418C212.36539 254.98497 213.70853 253.64183 215.36539 253.64183C217.02223 253.64183 218.36539 254.98497 218.36539 256.6418Z" fill-rule="nonzero"/><path fill="#000000" fill-opacity="0.0" clip-path="url(#id_0)" d="M252.81923 253.9855C252.81923 255.64235 251.47609 256.9855 249.81923 256.9855C248.16238 256.9855 246.81923 255.64235 246.81923 253.9855C246.81923 252.32864 248.16238 250.9855 249.81923 250.9855C251.47609 250.9855 252.81923 252.32864 252.81923 253.9855Z" fill-rule="nonzero"/><path fill="#000000" fill-opacity="0.0" clip-path="url(#id_0)" d="M287.27307 255.04634C287.27307 256.7032 285.92993 258.04633 284.27307 258.04633C282.6162 258.04633 281.27307 256.7032 281.27307 255.04634C281.27307 253.38948 282.6162 252.04634 284.27307 252.04634C285.92993 252.04634 287.27307 253.38948 287.27307 255.04634Z" fill-rule="nonzero"/><path fill="#000000" fill-opacity="0.0" clip-path="url(#id_0)" d="M321.72693 257.168C321.72693 258.82486 320.3838 260.168 318.72693 260.168C317.07007 260.168 315.72693 258.82486 315.72693 257.168C315.72693 255.51114 317.07007 254.168 318.72693 254.168C320.3838 254.168 321.72693 255.51114 321.72693 257.168Z" fill-rule="nonzero"/><path fill="#000000" fill-opacity="0.0" clip-path="url(#id_0)" d="M356.18076 256.31934C356.18076 257.9762 354.83762 259.31934 353.18076 259.31934C351.52393 259.31934 350.18076 257.9762 350.18076 256.31934C350.18076 254.66248 351.52393 253.31934 353.18076 253.31934C354.83762 253.31934 356.18076 254.66248 356.18076 256.31934Z" fill-rule="nonzero"/><path fill="#000000" fill-opacity="0.0" clip-path="url(#id_0)" d="M390.6346 252.92467C390.6346 254.58153 389.29147 255.92467 387.6346 255.92467C385.97775 255.92467 384.6346 254.58153 384.6346 252.92467C384.6346 251.2678 385.97775 249.92467 387.6346 249.92467C389.29147 249.92467 390.6346 251.2678 390.6346 252.92467Z" fill-rule="nonzero"/><path fill="#000000" fill-opacity="0.0" clip-path="url(#id_0)" d="M425.08847 254.622C425.08847 256.27884 423.74533 257.622 422.08847 257.622C420.4316 257.622 419.08847 256.27884 419.08847 254.622C419.08847 252.96515 420.4316 251.622 422.08847 251.622C423.74533 251.622 425.08847 252.96515 425.08847 254.622Z" fill-rule="nonzero"/><path fill="#000000" fill-opacity="0.0" clip-path="url(#id_0)" d="M459.5423 255.47067C459.5423 257.12753 458.19916 258.47067 456.5423 258.47067C454.88547 258.47067 453.5423 257.12753 453.5423 255.47067C453.5423 253.81381 454.88547 252.47067 456.5423 252.47067C458.19916 252.47067 459.5423 253.81381 459.5423 255.47067Z" fill-rule="nonzero"/><path fill="#000000" fill-opacity="0.0" clip-path="url(#id_0)" d="M493.99615 255.47067C493.99615 257.12753 492.653 258.47067 490.99615 258.47067C489.3393 258.47067 487.99615 257.12753 487.99615 255.47067C487.99615 253.81381 489.3393 252.47067 490.99615 252.47067C492.653 252.47067 493.99615 253.81381 493.99615 255.47067Z" fill-rule="nonzero"/><path fill="#000000" fill-opacity="0.0" clip-path="url(#id_0)" d="M528.45 259.714C528.45 261.37085 527.1069 262.714 525.45 262.714C523.79315 262.714 522.45 261.37085 522.45 259.714C522.45 258.05716 523.79315 256.714 525.45 256.714C527.1069 256.714 528.45 258.05716 528.45 259.714Z" fill-rule="nonzero"/><path fill="#000000" fill-opacity="0.0" clip-path="url(#id_0)" d="M80.55 285.09763C80.55 286.7545 79.206856 288.09763 77.55 288.09763C75.89314 288.09763 74.55 286.7545 74.55 285.09763C74.55 283.44077 75.89314 282.09763 77.55 282.09763C79.206856 282.09763 80.55 283.44077 80.55 285.09763Z" fill-rule="nonzero"/><path fill="#000000" fill-opacity="0.0" clip-path="url(#id_0)" d="M115.003845 282.33945C115.003845 283.9963 113.6607 285.33945 112.003845 285.33945C110.34699 285.33945 109.003845 283.9963 109.003845 282.33945C109.003845 280.6826 110.34699 279.33945 112.003845 279.33945C113.6607 279.33945 115.003845 280.6826 115.003845 282.33945Z" fill-rule="nonzero"/><path fill="#000000" fill-opacity="0.0" clip-path="url(#id_0)" d="M149.45769 282.5516C149.45769 284.20847 148.11455 285.5516 146.45769 285.5516C144.80084 285.5516 143.45769 284.20847 143.45769 282.5516C143.45769 280.89478 144.80084 279.5516 146.45769 279.5516C148.11455 279.5516 149.45769 280.89478 149.45769 282.5516Z" fill-rule="nonzero"/><path fill="#000000" fill-opacity="0.0" clip-path="url(#id_0)" d="M183.91154 282.89108C183.91154 284.54794 182.56839 285.89108 180.91154 285.89108C179.25468 285.89108 177.91154 284.54794 177.91154 282.89108C177.91154 281.23422 179.25468 279.89108 180.91154 279.89108C182.56839 279.89108 183.91154 281.23422 183.91154 282.89108Z" fill-rule="nonzero"/><path fill="#000000" fill-opacity="0.0" clip-path="url(#id_0)" d="M218.36539 257.168C218.36539 258.82486 217.02223 260.168 215.36539 260.168C213.70853 260.168 212.36539 258.82486 212.36539 257.168C212.36539 255.51114 213.70853 254.168 215.36539 254.168C217.02223 254.168 218.36539 255.51114 218.36539 257.168Z" fill-rule="nonzero"/><path fill="#000000" fill-opacity="0.0" clip-path="url(#id_0)" d="M252.81923 254.19766C252.81923 255.85452 251.47609 257.19766 249.81923 257.19766C248.16238 257.19766 246.81923 255.85452 246.81923 254.19766C246.81923 252.54082 248.16238 251.19766 249.81923 251.19766C251.47609 251.19766 252.81923 252.54082 252.81923 254.19766Z" fill-rule="nonzero"/><path fill="#000000" fill-opacity="0.0" clip-path="url(#id_0)" d="M287.27307 254.622C287.27307 256.27884 285.92993 257.622 284.27307 257.622C282.6162 257.622 281.27307 256.27884 281.27307 254.622C281.27307 252.96515 282.6162 251.622 284.27307 251.622C285.92993 251.622 287.27307 252.96515 287.27307 254.622Z" fill-rule="nonzero"/><path fill="#000000" fill-opacity="0.0" clip-path="url(#id_0)" d="M321.72693 256.31934C321.72693 257.9762 320.3838 259.31934 318.72693 259.31934C317.07007 259.31934 315.72693 257.9762 315.72693 256.31934C315.72693 254.66248 317.07007 253.31934 318.72693 253.31934C320.3838 253.31934 321.72693 254.66248 321.72693 256.31934Z" fill-rule="nonzero"/><path fill="#000000" fill-opacity="0.0" clip-path="url(#id_0)" d="M356.18076 251.22734C356.18076 252.88419 354.83762 254.22734 353.18076 254.22734C351.52393 254.22734 350.18076 252.88419 350.18076 251.22734C350.18076 249.57048 351.52393 248.22734 353.18076 248.22734C354.83762 248.22734 356.18076 249.57048 356.18076 251.22734Z" fill-rule="nonzero"/><path fill="#000000" fill-opacity="0.0" clip-path="url(#id_0)" d="M390.6346 253.77333C390.6346 255.43019 389.29147 256.77335 387.6346 256.77335C385.97775 256.77335 384.6346 255.43019 384.6346 253.77333C384.6346 252.11649 385.97775 250.77333 387.6346 250.77333C389.29147 250.77333 390.6346 252.11649 390.6346 253.77333Z" fill-rule="nonzero"/><path fill="#000000" fill-opacity="0.0" clip-path="url(#id_0)" d="M425.08847 253.77333C425.08847 255.43019 423.74533 256.77335 422.08847 256.77335C420.4316 256.77335 419.08847 255.43019 419.08847 253.77333C419.08847 252.11649 420.4316 250.77333 422.08847 250.77333C423.74533 250.77333 425.08847 252.11649 425.08847 253.77333Z" fill-rule="nonzero"/><path fill="#000000" fill-opacity="0.0" clip-path="url(#id_0)" d="M459.5423 253.77333C459.5423 255.43019 458.19916 256.77335 456.5423 256.77335C454.88547 256.77335 453.5423 255.43019 453.5423 253.77333C453.5423 252.11649 454.88547 250.77333 456.5423 250.77333C458.19916 250.77333 459.5423 252.11649 459.5423 253.77333Z" fill-rule="nonzero"/><path fill="#000000" fill-opacity="0.0" clip-path="url(#id_0)" d="M493.99615 259.714C493.99615 261.37085 492.653 262.714 490.99615 262.714C489.3393 262.714 487.99615 261.37085 487.99615 259.714C487.99615 258.05716 489.3393 256.714 490.99615 256.714C492.653 256.714 493.99615 258.05716 493.99615 259.714Z" fill-rule="nonzero"/><path fill="#000000" fill-opacity="0.0" clip-path="url(#id_0)" d="M528.45 257.168C528.45 258.82486 527.1069 260.168 525.45 260.168C523.79315 260.168 522.45 258.82486 522.45 257.168C522.45 255.51114 523.79315 254.168 525.45 254.168C527.1069 254.168 528.45 255.51114 528.45 257.168Z" fill-rule="nonzero"/><path fill="#000000" d="M270.54688 346.6844L271.60938 346.59064Q271.6875 347.2469 271.96875 347.65314Q272.25 348.0594 272.82812 348.325Q273.42188 348.575 274.15625 348.575Q274.79688 348.575 275.29688 348.3875Q275.79688 348.1844 276.03125 347.85626Q276.28125 347.5125 276.28125 347.1219Q276.28125 346.71564 276.04688 346.41876Q275.8125 346.10626 275.28125 345.90314Q274.92188 345.7625 273.73438 345.48126Q272.5625 345.2 272.09375 344.95Q271.46875 344.6219 271.17188 344.15314Q270.875 343.66876 270.875 343.075Q270.875 342.4344 271.23438 341.8719Q271.60938 341.29376 272.3125 341.0125Q273.03125 340.71564 273.89062 340.71564Q274.84375 340.71564 275.57812 341.02814Q276.3125 341.325 276.70312 341.9344Q277.09375 342.52814 277.125 343.27814L276.03125 343.35626Q275.9375 342.54376 275.42188 342.1375Q274.92188 341.71564 273.9375 341.71564Q272.90625 341.71564 272.4375 342.09064Q271.96875 342.46564 271.96875 342.9969Q271.96875 343.46564 272.29688 343.7625Q272.625 344.0594 274.0 344.3719Q275.39062 344.6844 275.90625 344.91876Q276.65625 345.27814 277.01562 345.8094Q277.375 346.325 277.375 347.02814Q277.375 347.71564 276.98438 348.325Q276.59375 348.91876 275.85938 349.2625Q275.125 349.59064 274.20312 349.59064Q273.03125 349.59064 272.23438 349.2625Q271.45312 348.91876 271.0 348.23126Q270.5625 347.54376 270.54688 346.6844ZM278.79688 342.075L278.79688 340.85626L279.85938 340.85626L279.85938 342.075L278.79688 342.075ZM278.79688 349.45L278.79688 343.23126L279.85938 343.23126L279.85938 349.45L278.79688 349.45ZM281.23438 349.45L281.23438 348.59064L285.20312 344.04376Q284.51562 344.075 284.0 344.075L281.46875 344.075L281.46875 343.23126L286.5625 343.23126L286.5625 343.91876L283.1875 347.8719L282.53125 348.59064Q283.25 348.54376 283.85938 348.54376L286.75 348.54376L286.75 349.45L281.23438 349.45ZM291.04688 347.45L292.14062 347.575Q291.89062 348.52814 291.1875 349.0594Q290.48438 349.59064 289.40625 349.59064Q288.04688 349.59064 287.23438 348.7469Q286.4375 347.90314 286.4375 346.3875Q286.4375 344.825 287.25 343.96564Q288.0625 343.09064 289.34375 343.09064Q290.59375 343.09064 291.375 343.9344Q292.17188 344.77814 292.17188 346.325Q292.17188 346.41876 292.17188 346.60626L287.53125 346.60626Q287.59375 347.6375 288.10938 348.1844Q288.625 348.71564 289.40625 348.71564Q289.98438 348.71564 290.39062 348.41876Q290.8125 348.10626 291.04688 347.45ZM287.59375 345.7469L291.0625 345.7469Q291.0 344.95 290.67188 344.5594Q290.15625 343.95 289.35938 343.95Q288.625 343.95 288.125 344.4344Q287.64062 344.91876 287.59375 345.7469ZM298.8125 351.98126Q297.9375 350.8719 297.32812 349.40314Q296.73438 347.91876 296.73438 346.34064Q296.73438 344.95 297.17188 343.66876Q297.70312 342.1844 298.8125 340.71564L299.5625 340.71564Q298.85938 341.9344 298.625 342.45Q298.26562 343.2625 298.0625 344.1375Q297.8125 345.23126 297.8125 346.34064Q297.8125 349.16876 299.5625 351.98126L298.8125 351.98126ZM301.76562 349.45L300.78125 349.45L300.78125 340.85626L301.84375 340.85626L301.84375 343.91876Q302.51562 343.09064 303.54688 343.09064Q304.125 343.09064 304.625 343.325Q305.14062 343.54376 305.46875 343.96564Q305.8125 344.3875 306.0 344.98126Q306.1875 345.575 306.1875 346.2469Q306.1875 347.84064 305.39062 348.71564Q304.59375 349.59064 303.5 349.59064Q302.39062 349.59064 301.76562 348.66876L301.76562 349.45ZM301.75 346.29376Q301.75 347.40314 302.0625 347.90314Q302.5625 348.71564 303.40625 348.71564Q304.09375 348.71564 304.59375 348.1219Q305.10938 347.52814 305.10938 346.325Q305.10938 345.10626 304.625 344.52814Q304.14062 343.95 303.45312 343.95Q302.76562 343.95 302.25 344.5594Q301.75 345.15314 301.75 346.29376ZM307.75 351.84064L307.625 350.85626Q307.96875 350.95 308.23438 350.95Q308.57812 350.95 308.78125 350.825Q309.0 350.71564 309.14062 350.5125Q309.23438 350.34064 309.46875 349.71564Q309.48438 349.6375 309.5625 349.46564L307.1875 343.23126L308.32812 343.23126L309.625 346.825Q309.875 347.5125 310.07812 348.27814Q310.26562 347.54376 310.51562 346.85626L311.84375 343.23126L312.89062 343.23126L310.53125 349.5594Q310.14062 350.575 309.9375 350.96564Q309.65625 351.4969 309.28125 351.73126Q308.92188 351.98126 308.42188 351.98126Q308.125 351.98126 307.75 351.84064ZM315.09375 348.5125L315.25 349.4344Q314.79688 349.52814 314.45312 349.52814Q313.875 349.52814 313.5625 349.35626Q313.25 349.16876 313.10938 348.8719Q312.98438 348.575 312.98438 347.6219L312.98438 344.04376L312.21875 344.04376L312.21875 343.23126L312.98438 343.23126L312.98438 341.6844L314.03125 341.0594L314.03125 343.23126L315.09375 343.23126L315.09375 344.04376L314.03125 344.04376L314.03125 347.6844Q314.03125 348.1375 314.07812 348.2625Q314.14062 348.3875 314.26562 348.46564Q314.39062 348.54376 314.625 348.54376Q314.8125 348.54376 315.09375 348.5125ZM320.04688 347.45L321.14062 347.575Q320.89062 348.52814 320.1875 349.0594Q319.48438 349.59064 318.40625 349.59064Q317.04688 349.59064 316.23438 348.7469Q315.4375 347.90314 315.4375 346.3875Q315.4375 344.825 316.25 343.96564Q317.0625 343.09064 318.34375 343.09064Q319.59375 343.09064 320.375 343.9344Q321.17188 344.77814 321.17188 346.325Q321.17188 346.41876 321.17188 346.60626L316.53125 346.60626Q316.59375 347.6375 317.10938 348.1844Q317.625 348.71564 318.40625 348.71564Q318.98438 348.71564 319.39062 348.41876Q319.8125 348.10626 320.04688 347.45ZM316.59375 345.7469L320.0625 345.7469Q320.0 344.95 319.67188 344.5594Q319.15625 343.95 318.35938 343.95Q317.625 343.95 317.125 344.4344Q316.64062 344.91876 316.59375 345.7469ZM322.375 347.59064L323.40625 347.4344Q323.5 348.0594 323.89062 348.3875Q324.29688 348.71564 325.03125 348.71564Q325.75 348.71564 326.09375 348.4344Q326.45312 348.1375 326.45312 347.73126Q326.45312 347.3719 326.14062 347.16876Q325.92188 347.02814 325.0625 346.8094Q323.90625 346.5125 323.45312 346.3094Q323.01562 346.09064 322.78125 345.71564Q322.54688 345.34064 322.54688 344.8719Q322.54688 344.46564 322.73438 344.10626Q322.92188 343.7469 323.25 343.5125Q323.5 343.34064 323.92188 343.21564Q324.34375 343.09064 324.84375 343.09064Q325.5625 343.09064 326.10938 343.3094Q326.67188 343.5125 326.9375 343.8719Q327.20312 344.23126 327.29688 344.825L326.26562 344.96564Q326.20312 344.4969 325.85938 344.23126Q325.53125 343.95 324.90625 343.95Q324.1875 343.95 323.875 344.2Q323.5625 344.4344 323.5625 344.7625Q323.5625 344.96564 323.6875 345.1219Q323.82812 345.29376 324.09375 345.40314Q324.25 345.46564 325.03125 345.66876Q326.15625 345.98126 326.59375 346.16876Q327.03125 346.35626 327.28125 346.71564Q327.53125 347.075 327.53125 347.6219Q327.53125 348.15314 327.21875 348.6219Q326.92188 349.075 326.34375 349.34064Q325.76562 349.59064 325.03125 349.59064Q323.8125 349.59064 323.17188 349.09064Q322.54688 348.575 322.375 347.59064ZM330.48438 351.98126L329.73438 351.98126Q331.48438 349.16876 331.48438 346.34064Q331.48438 345.2469 331.23438 344.15314Q331.03125 343.27814 330.67188 342.46564Q330.4375 341.95 329.73438 340.71564L330.48438 340.71564Q331.57812 342.1844 332.10938 343.66876Q332.5625 344.95 332.5625 346.34064Q332.5625 347.91876 331.95312 349.40314Q331.34375 350.8719 330.48438 351.98126Z" fill-rule="nonzero"/><path fill="#000000" d="M27.550013 274.8198L27.675013 273.72604Q28.628138 273.97604 29.159388 274.67917Q29.690638 275.3823 29.690638 276.46042Q29.690638 277.8198 28.846888 278.6323Q28.003138 279.42917 26.487513 279.42917Q24.925013 279.42917 24.065638 278.61667Q23.190638 277.80417 23.190638 276.52292Q23.190638 275.27292 24.034388 274.49167Q24.878138 273.6948 26.425013 273.6948Q26.518763 273.6948 26.706263 273.6948L26.706263 278.33542Q27.737513 278.27292 28.284388 277.7573Q28.815638 277.24167 28.815638 276.46042Q28.815638 275.8823 28.518763 275.47604Q28.206263 275.05417 27.550013 274.8198ZM25.846888 278.27292L25.846888 274.80417Q25.050013 274.86667 24.659388 275.1948Q24.050013 275.71042 24.050013 276.5073Q24.050013 277.24167 24.534388 277.74167Q25.018763 278.22604 25.846888 278.27292ZM29.550013 272.77292L26.315638 270.5073L23.331263 272.60104L23.331263 271.28854L24.784388 270.33542Q25.206263 270.0698 25.487513 269.89792Q25.096888 269.64792 24.800013 269.42917L23.331263 268.3823L23.331263 267.11667L26.253138 269.27292L29.550013 266.96042L29.550013 268.24167L27.612513 269.52292L27.096888 269.86667L29.550013 271.5073L29.550013 272.77292ZM27.550013 262.8198L27.675013 261.72604Q28.628138 261.97604 29.159388 262.67917Q29.690638 263.3823 29.690638 264.46042Q29.690638 265.8198 28.846888 266.6323Q28.003138 267.42917 26.487513 267.42917Q24.925013 267.42917 24.065638 266.61667Q23.190638 265.80417 23.190638 264.52292Q23.190638 263.27292 24.034388 262.49167Q24.878138 261.6948 26.425013 261.6948Q26.518763 261.6948 26.706263 261.6948L26.706263 266.33542Q27.737513 266.27292 28.284388 265.7573Q28.815638 265.24167 28.815638 264.46042Q28.815638 263.8823 28.518763 263.47604Q28.206263 263.05417 27.550013 262.8198ZM25.846888 266.27292L25.846888 262.80417Q25.050013 262.86667 24.659388 263.1948Q24.050013 263.71042 24.050013 264.5073Q24.050013 265.24167 24.534388 265.74167Q25.018763 266.22604 25.846888 266.27292ZM27.268763 256.0073L27.409388 254.97604Q28.471888 255.14792 29.081263 255.85104Q29.690638 256.55417 29.690638 257.5698Q29.690638 258.85104 28.862513 259.6323Q28.018763 260.39792 26.456263 260.39792Q25.456263 260.39792 24.706263 260.0698Q23.940638 259.72604 23.565638 259.05417Q23.190638 258.36667 23.190638 257.55417Q23.190638 256.55417 23.706263 255.91354Q24.206263 255.2573 25.159388 255.0698L25.315638 256.10104Q24.690638 256.24167 24.378138 256.61667Q24.050013 256.99167 24.050013 257.52292Q24.050013 258.3198 24.628138 258.8198Q25.190638 259.3198 26.425013 259.3198Q27.690638 259.3198 28.253138 258.83542Q28.815638 258.35104 28.815638 257.58542Q28.815638 256.96042 28.440638 256.55417Q28.065638 256.1323 27.268763 256.0073ZM28.612513 248.77292L29.534388 248.61667Q29.628138 249.0698 29.628138 249.41354Q29.628138 249.99167 29.456263 250.30417Q29.268763 250.61667 28.971888 250.7573Q28.675013 250.8823 27.721888 250.8823L24.143763 250.8823L24.143763 251.64792L23.331263 251.64792L23.331263 250.8823L21.784388 250.8823L21.159388 249.83542L23.331263 249.83542L23.331263 248.77292L24.143763 248.77292L24.143763 249.83542L27.784388 249.83542Q28.237513 249.83542 28.362513 249.78854Q28.487513 249.72604 28.565638 249.60104Q28.643763 249.47604 28.643763 249.24167Q28.643763 249.05417 28.612513 248.77292ZM22.175013 248.0698L20.956263 248.0698L20.956263 247.0073L22.175013 247.0073L22.175013 248.0698ZM29.550013 248.0698L23.331263 248.0698L23.331263 247.0073L29.550013 247.0073L29.550013 248.0698ZM29.550013 245.0698L23.331263 245.0698L23.331263 244.1323L24.206263 244.1323Q23.737513 243.83542 23.471888 243.35104Q23.190638 242.86667 23.190638 242.24167Q23.190638 241.55417 23.471888 241.11667Q23.753138 240.66354 24.268763 240.49167Q23.190638 239.74167 23.190638 238.5698Q23.190638 237.6323 23.706263 237.14792Q24.206263 236.64792 25.284388 236.64792L29.550013 236.64792L29.550013 237.6948L25.628138 237.6948Q25.003138 237.6948 24.721888 237.80417Q24.440638 237.89792 24.268763 238.16354Q24.096888 238.42917 24.096888 238.80417Q24.096888 239.46042 24.534388 239.89792Q24.971888 240.3198 25.940638 240.3198L29.550013 240.3198L29.550013 241.3823L25.503138 241.3823Q24.800013 241.3823 24.456263 241.64792Q24.096888 241.89792 24.096888 242.47604Q24.096888 242.92917 24.331263 243.30417Q24.565638 243.67917 25.018763 243.85104Q25.471888 244.02292 26.315638 244.02292L29.550013 244.02292L29.550013 245.0698ZM27.550013 229.8198L27.675013 228.72604Q28.628138 228.97604 29.159388 229.67917Q29.690638 230.3823 29.690638 231.46042Q29.690638 232.8198 28.846888 233.6323Q28.003138 234.42917 26.487513 234.42917Q24.925013 234.42917 24.065638 233.61667Q23.190638 232.80417 23.190638 231.52292Q23.190638 230.27292 24.034388 229.49167Q24.878138 228.6948 26.425013 228.6948Q26.518763 228.6948 26.706263 228.6948L26.706263 233.33542Q27.737513 233.27292 28.284388 232.7573Q28.815638 232.24167 28.815638 231.46042Q28.815638 230.8823 28.518763 230.47604Q28.206263 230.05417 27.550013 229.8198ZM25.846888 233.27292L25.846888 229.80417Q25.050013 229.86667 24.659388 230.1948Q24.050013 230.71042 24.050013 231.5073Q24.050013 232.24167 24.534388 232.74167Q25.018763 233.22604 25.846888 233.27292ZM31.940638 224.0698L23.331263 224.0698L23.331263 223.11667L24.128138 223.11667Q23.659388 222.77292 23.425013 222.35104Q23.190638 221.91354 23.190638 221.30417Q23.190638 220.5073 23.596888 219.89792Q24.003138 219.28854 24.753138 218.99167Q25.503138 218.67917 26.393763 218.67917Q27.346888 218.67917 28.112513 219.02292Q28.878138 219.35104 29.284388 220.0073Q29.690638 220.66354 29.690638 221.3823Q29.690638 221.91354 29.471888 222.33542Q29.237513 222.7573 28.909388 223.02292L31.940638 223.02292L31.940638 224.0698ZM26.471888 223.11667Q27.675013 223.11667 28.253138 222.6323Q28.815638 222.14792 28.815638 221.46042Q28.815638 220.7573 28.221888 220.2573Q27.628138 219.7573 26.378138 219.7573Q25.190638 219.7573 24.612513 220.24167Q24.018763 220.72604 24.018763 221.41354Q24.018763 222.08542 24.643763 222.60104Q25.268763 223.11667 26.471888 223.11667ZM27.550013 212.8198L27.675013 211.72604Q28.628138 211.97604 29.159388 212.67917Q29.690638 213.3823 29.690638 214.46042Q29.690638 215.8198 28.846888 216.6323Q28.003138 217.42917 26.487513 217.42917Q24.925013 217.42917 24.065638 216.61667Q23.190638 215.80417 23.190638 214.52292Q23.190638 213.27292 24.034388 212.49167Q24.878138 211.6948 26.425013 211.6948Q26.518763 211.6948 26.706263 211.6948L26.706263 216.33542Q27.737513 216.27292 28.284388 215.7573Q28.815638 215.24167 28.815638 214.46042Q28.815638 213.8823 28.518763 213.47604Q28.206263 213.05417 27.550013 212.8198ZM25.846888 216.27292L25.846888 212.80417Q25.050013 212.86667 24.659388 213.1948Q24.050013 213.71042 24.050013 214.5073Q24.050013 215.24167 24.534388 215.74167Q25.018763 216.22604 25.846888 216.27292ZM29.550013 210.08542L23.331263 210.08542L23.331263 209.1323L24.268763 209.1323Q23.612513 208.77292 23.409388 208.47604Q23.190638 208.16354 23.190638 207.78854Q23.190638 207.2573 23.518763 206.71042L24.503138 207.0698Q24.268763 207.46042 24.268763 207.83542Q24.268763 208.1948 24.487513 208.47604Q24.690638 208.74167 25.065638 208.85104Q25.628138 209.03854 26.284388 209.03854L29.550013 209.03854L29.550013 210.08542ZM22.175013 203.0698L20.956263 203.0698L20.956263 202.0073L22.175013 202.0073L22.175013 203.0698ZM29.550013 203.0698L23.331263 203.0698L23.331263 202.0073L29.550013 202.0073L29.550013 203.0698ZM29.550013 200.0698L23.331263 200.0698L23.331263 199.1323L24.206263 199.1323Q23.190638 198.4448 23.190638 197.14792Q23.190638 196.58542 23.393763 196.11667Q23.596888 195.6323 23.925013 195.39792Q24.253138 195.16354 24.690638 195.0698Q24.987513 195.02292 25.721888 195.02292L29.550013 195.02292L29.550013 196.0698L25.768763 196.0698Q25.112513 196.0698 24.800013 196.1948Q24.487513 196.3198 24.300013 196.6323Q24.096888 196.9448 24.096888 197.36667Q24.096888 198.03854 24.534388 198.53854Q24.956263 199.02292 26.143763 199.02292L29.550013 199.02292L29.550013 200.0698ZM27.690638 193.49167L27.534388 192.46042Q28.159388 192.36667 28.487513 191.97604Q28.815638 191.5698 28.815638 190.83542Q28.815638 190.11667 28.534388 189.77292Q28.237513 189.41354 27.831263 189.41354Q27.471888 189.41354 27.268763 189.72604Q27.128138 189.9448 26.909388 190.80417Q26.612513 191.96042 26.409388 192.41354Q26.190638 192.85104 25.815638 193.08542Q25.440638 193.3198 24.971888 193.3198Q24.565638 193.3198 24.206263 193.1323Q23.846888 192.9448 23.612513 192.61667Q23.440638 192.36667 23.315638 191.9448Q23.190638 191.52292 23.190638 191.02292Q23.190638 190.30417 23.409388 189.7573Q23.612513 189.1948 23.971888 188.92917Q24.331263 188.66354 24.925013 188.5698L25.065638 189.60104Q24.596888 189.66354 24.331263 190.0073Q24.050013 190.33542 24.050013 190.96042Q24.050013 191.67917 24.300013 191.99167Q24.534388 192.30417 24.862513 192.30417Q25.065638 192.30417 25.221888 192.17917Q25.393763 192.03854 25.503138 191.77292Q25.565638 191.61667 25.768763 190.83542Q26.081263 189.71042 26.268763 189.27292Q26.456263 188.83542 26.815638 188.58542Q27.175013 188.33542 27.721888 188.33542Q28.253138 188.33542 28.721888 188.64792Q29.175013 188.9448 29.440638 189.52292Q29.690638 190.10104 29.690638 190.83542Q29.690638 192.05417 29.190638 192.6948Q28.675013 193.3198 27.690638 193.49167ZM28.612513 183.77292L29.534388 183.61667Q29.628138 184.0698 29.628138 184.41354Q29.628138 184.99167 29.456263 185.30417Q29.268763 185.61667 28.971888 185.7573Q28.675013 185.8823 27.721888 185.8823L24.143763 185.8823L24.143763 186.64792L23.331263 186.64792L23.331263 185.8823L21.784388 185.8823L21.159388 184.83542L23.331263 184.83542L23.331263 183.77292L24.143763 183.77292L24.143763 184.83542L27.784388 184.83542Q28.237513 184.83542 28.362513 184.78854Q28.487513 184.72604 28.565638 184.60104Q28.643763 184.47604 28.643763 184.24167Q28.643763 184.05417 28.612513 183.77292ZM29.550013 183.08542L23.331263 183.08542L23.331263 182.1323L24.268763 182.1323Q23.612513 181.77292 23.409388 181.47604Q23.190638 181.16354 23.190638 180.78854Q23.190638 180.2573 23.518763 179.71042L24.503138 180.0698Q24.268763 180.46042 24.268763 180.83542Q24.268763 181.1948 24.487513 181.47604Q24.690638 181.74167 25.065638 181.85104Q25.628138 182.03854 26.284388 182.03854L29.550013 182.03854L29.550013 183.08542ZM29.550013 174.99167L28.628138 174.99167Q29.690638 175.72604 29.690638 176.97604Q29.690638 177.52292 29.487513 178.0073Q29.268763 178.47604 28.956263 178.71042Q28.628138 178.9448 28.159388 179.03854Q27.862513 179.10104 27.175013 179.10104L23.331263 179.10104L23.331263 178.03854L26.784388 178.03854Q27.596888 178.03854 27.893763 177.97604Q28.300013 177.8823 28.550013 177.5698Q28.784388 177.24167 28.784388 176.7573Q28.784388 176.28854 28.550013 175.8823Q28.300013 175.46042 27.878138 175.28854Q27.456263 175.10104 26.659388 175.10104L23.331263 175.10104L23.331263 174.05417L29.550013 174.05417L29.550013 174.99167ZM27.268763 168.0073L27.409388 166.97604Q28.471888 167.14792 29.081263 167.85104Q29.690638 168.55417 29.690638 169.5698Q29.690638 170.85104 28.862513 171.6323Q28.018763 172.39792 26.456263 172.39792Q25.456263 172.39792 24.706263 172.0698Q23.940638 171.72604 23.565638 171.05417Q23.190638 170.36667 23.190638 169.55417Q23.190638 168.55417 23.706263 167.91354Q24.206263 167.2573 25.159388 167.0698L25.315638 168.10104Q24.690638 168.24167 24.378138 168.61667Q24.050013 168.99167 24.050013 169.52292Q24.050013 170.3198 24.628138 170.8198Q25.190638 171.3198 26.425013 171.3198Q27.690638 171.3198 28.253138 170.83542Q28.815638 170.35104 28.815638 169.58542Q28.815638 168.96042 28.440638 168.55417Q28.065638 168.1323 27.268763 168.0073ZM28.612513 163.77292L29.534388 163.61667Q29.628138 164.0698 29.628138 164.41354Q29.628138 164.99167 29.456263 165.30417Q29.268763 165.61667 28.971888 165.7573Q28.675013 165.8823 27.721888 165.8823L24.143763 165.8823L24.143763 166.64792L23.331263 166.64792L23.331263 165.8823L21.784388 165.8823L21.159388 164.83542L23.331263 164.83542L23.331263 163.77292L24.143763 163.77292L24.143763 164.83542L27.784388 164.83542Q28.237513 164.83542 28.362513 164.78854Q28.487513 164.72604 28.565638 164.60104Q28.643763 164.47604 28.643763 164.24167Q28.643763 164.05417 28.612513 163.77292ZM22.175013 163.0698L20.956263 163.0698L20.956263 162.0073L22.175013 162.0073L22.175013 163.0698ZM29.550013 163.0698L23.331263 163.0698L23.331263 162.0073L29.550013 162.0073L29.550013 163.0698ZM26.440638 160.46042Q24.706263 160.46042 23.878138 159.5073Q23.190638 158.71042 23.190638 157.55417Q23.190638 156.27292 24.034388 155.46042Q24.862513 154.6323 26.346888 154.6323Q27.550013 154.6323 28.237513 154.99167Q28.925013 155.35104 29.315638 156.05417Q29.690638 156.74167 29.690638 157.55417Q29.690638 158.85104 28.862513 159.66354Q28.018763 160.46042 26.440638 160.46042ZM26.440638 159.3823Q27.628138 159.3823 28.221888 158.86667Q28.815638 158.33542 28.815638 157.55417Q28.815638 156.7573 28.221888 156.24167Q27.628138 155.72604 26.409388 155.72604Q25.253138 155.72604 24.659388 156.2573Q24.065638 156.77292 24.065638 157.55417Q24.065638 158.33542 24.659388 158.86667Q25.237513 159.3823 26.440638 159.3823ZM29.550013 153.0698L23.331263 153.0698L23.331263 152.1323L24.206263 152.1323Q23.190638 151.4448 23.190638 150.14792Q23.190638 149.58542 23.393763 149.11667Q23.596888 148.6323 23.925013 148.39792Q24.253138 148.16354 24.690638 148.0698Q24.987513 148.02292 25.721888 148.02292L29.550013 148.02292L29.550013 149.0698L25.768763 149.0698Q25.112513 149.0698 24.800013 149.1948Q24.487513 149.3198 24.300013 149.6323Q24.096888 149.9448 24.096888 150.36667Q24.096888 151.03854 24.534388 151.53854Q24.956263 152.02292 26.143763 152.02292L29.550013 152.02292L29.550013 153.0698ZM32.08126 141.05417Q30.971888 141.92917 29.503138 142.53854Q28.018763 143.1323 26.440638 143.1323Q25.050013 143.1323 23.768763 142.6948Q22.284388 142.16354 20.815638 141.05417L20.815638 140.30417Q22.034388 141.0073 22.550013 141.24167Q23.362513 141.60104 24.237513 141.80417Q25.331263 142.05417 26.440638 142.05417Q29.268763 142.05417 32.08126 140.30417L32.08126 141.05417ZM29.550013 139.0698L23.331263 139.0698L23.331263 138.1323L24.206263 138.1323Q23.190638 137.4448 23.190638 136.14792Q23.190638 135.58542 23.393763 135.11667Q23.596888 134.6323 23.925013 134.39792Q24.253138 134.16354 24.690638 134.0698Q24.987513 134.02292 25.721888 134.02292L29.550013 134.02292L29.550013 135.0698L25.768763 135.0698Q25.112513 135.0698 24.800013 135.1948Q24.487513 135.3198 24.300013 135.6323Q24.096888 135.9448 24.096888 136.36667Q24.096888 137.03854 24.534388 137.53854Q24.956263 138.02292 26.143763 138.02292L29.550013 138.02292L29.550013 139.0698ZM27.690638 132.49167L27.534388 131.46042Q28.159388 131.36667 28.487513 130.97604Q28.815638 130.5698 28.815638 129.83542Q28.815638 129.11667 28.534388 128.77292Q28.237513 128.41354 27.831263 128.41354Q27.471888 128.41354 27.268763 128.72604Q27.128138 128.9448 26.909388 129.80417Q26.612513 130.96042 26.409388 131.41354Q26.190638 131.85104 25.815638 132.08542Q25.440638 132.3198 24.971888 132.3198Q24.565638 132.3198 24.206263 132.1323Q23.846888 131.9448 23.612513 131.61667Q23.440638 131.36667 23.315638 130.9448Q23.190638 130.52292 23.190638 130.02292Q23.190638 129.30417 23.409388 128.7573Q23.612513 128.1948 23.971888 127.92917Q24.331263 127.66354 24.925013 127.56979L25.065638 128.60104Q24.596888 128.66354 24.331263 129.0073Q24.050013 129.33542 24.050013 129.96042Q24.050013 130.67917 24.300013 130.99167Q24.534388 131.30417 24.862513 131.30417Q25.065638 131.30417 25.221888 131.17917Q25.393763 131.03854 25.503138 130.77292Q25.565638 130.61667 25.768763 129.83542Q26.081263 128.71042 26.268763 128.27292Q26.456263 127.83542 26.815638 127.58542Q27.175013 127.33542 27.721888 127.33542Q28.253138 127.33542 28.721888 127.64792Q29.175013 127.94479 29.440638 128.52292Q29.690638 129.10104 29.690638 129.83542Q29.690638 131.05417 29.190638 131.6948Q28.675013 132.3198 27.690638 132.49167ZM32.08126 124.38229L32.08126 125.13229Q29.268763 123.38229 26.440638 123.38229Q25.346888 123.38229 24.253138 123.63229Q23.378138 123.83542 22.565638 124.19479Q22.050013 124.42917 20.815638 125.13229L20.815638 124.38229Q22.284388 123.28854 23.768763 122.75729Q25.050013 122.30417 26.440638 122.30417Q28.018763 122.30417 29.503138 122.91354Q30.971888 123.52292 32.08126 124.38229Z" fill-rule="nonzero"/><path fill="#000000" d="M65.05 300.21564Q65.05 298.6844 65.3625 297.7625Q65.675 296.825 66.28438 296.325Q66.90938 295.825 67.84688 295.825Q68.53438 295.825 69.05 296.10626Q69.58125 296.3875 69.925 296.91876Q70.26875 297.4344 70.45625 298.1844Q70.64375 298.9344 70.64375 300.21564Q70.64375 301.73126 70.33125 302.65314Q70.03438 303.575 69.40938 304.09064Q68.8 304.59064 67.84688 304.59064Q66.6125 304.59064 65.89375 303.7Q65.05 302.6375 65.05 300.21564ZM66.12813 300.21564Q66.12813 302.325 66.62813 303.02814Q67.12813 303.73126 67.84688 303.73126Q68.58125 303.73126 69.06563 303.02814Q69.56563 302.325 69.56563 300.21564Q69.56563 298.09064 69.06563 297.40314Q68.58125 296.7 67.83125 296.7Q67.1125 296.7 66.675 297.3094Q66.12813 298.09064 66.12813 300.21564Z" fill-rule="nonzero"/><path fill="#000000" d="M58.05 259.76666L59.159374 259.6729Q59.284374 260.4854 59.721874 260.89166Q60.175 261.2979 60.815624 261.2979Q61.565624 261.2979 62.096874 260.7198Q62.628124 260.14166 62.628124 259.20416Q62.628124 258.2979 62.1125 257.7823Q61.6125 257.25104 60.784374 257.25104Q60.284374 257.25104 59.8625 257.4854Q59.45625 257.7198 59.221874 258.07916L58.2375 257.95416L59.065624 253.54791L63.346874 253.54791L63.346874 254.54791L59.909374 254.54791L59.45625 256.8604Q60.221874 256.31354 61.065624 256.31354Q62.190624 256.31354 62.95625 257.0948Q63.7375 257.87604 63.7375 259.1104Q63.7375 260.26666 63.065624 261.12604Q62.2375 262.1573 60.815624 262.1573Q59.64375 262.1573 58.89375 261.50104Q58.159374 260.8448 58.05 259.76666ZM65.05 257.7823Q65.05 256.25104 65.3625 255.32916Q65.675 254.39166 66.28438 253.89166Q66.90938 253.39166 67.84688 253.39166Q68.53438 253.39166 69.05 253.67291Q69.58125 253.95416 69.925 254.48541Q70.26875 255.00104 70.45625 255.75104Q70.64375 256.50104 70.64375 257.7823Q70.64375 259.2979 70.33125 260.2198Q70.03438 261.14166 69.40938 261.6573Q68.8 262.1573 67.84688 262.1573Q66.6125 262.1573 65.89375 261.26666Q65.05 260.20416 65.05 257.7823ZM66.12813 257.7823Q66.12813 259.89166 66.62813 260.5948Q67.12813 261.2979 67.84688 261.2979Q68.58125 261.2979 69.06563 260.5948Q69.56563 259.89166 69.56563 257.7823Q69.56563 255.65729 69.06563 254.96979Q68.58125 254.26666 67.83125 254.26666Q67.1125 254.26666 66.675 254.87604Q66.12813 255.65729 66.12813 257.7823Z" fill-rule="nonzero"/><path fill="#000000" d="M55.01875 219.58333L53.971874 219.58333L53.971874 212.86458Q53.58125 213.22395 52.95625 213.59895Q52.346874 213.95833 51.8625 214.1302L51.8625 213.11458Q52.7375 212.6927 53.39375 212.11458Q54.065624 211.52083 54.346874 210.95833L55.01875 210.95833L55.01875 219.58333ZM58.05 215.34895Q58.05 213.8177 58.3625 212.89583Q58.675 211.95833 59.284374 211.45833Q59.909374 210.95833 60.846874 210.95833Q61.534374 210.95833 62.05 211.23958Q62.58125 211.52083 62.925 212.05208Q63.26875 212.5677 63.45625 213.3177Q63.64375 214.0677 63.64375 215.34895Q63.64375 216.86458 63.33125 217.78645Q63.034374 218.70833 62.409374 219.22395Q61.8 219.72395 60.846874 219.72395Q59.6125 219.72395 58.89375 218.83333Q58.05 217.77083 58.05 215.34895ZM59.128124 215.34895Q59.128124 217.45833 59.628124 218.16145Q60.128124 218.86458 60.846874 218.86458Q61.58125 218.86458 62.065624 218.16145Q62.565624 217.45833 62.565624 215.34895Q62.565624 213.22395 62.065624 212.53645Q61.58125 211.83333 60.83125 211.83333Q60.1125 211.83333 59.675 212.4427Q59.128124 213.22395 59.128124 215.34895ZM65.05 215.34895Q65.05 213.8177 65.3625 212.89583Q65.675 211.95833 66.28438 211.45833Q66.90938 210.95833 67.84688 210.95833Q68.53438 210.95833 69.05 211.23958Q69.58125 211.52083 69.925 212.05208Q70.26875 212.5677 70.45625 213.3177Q70.64375 214.0677 70.64375 215.34895Q70.64375 216.86458 70.33125 217.78645Q70.03438 218.70833 69.40938 219.22395Q68.8 219.72395 67.84688 219.72395Q66.6125 219.72395 65.89375 218.83333Q65.05 217.77083 65.05 215.34895ZM66.12813 215.34895Q66.12813 217.45833 66.62813 218.16145Q67.12813 218.86458 67.84688 218.86458Q68.58125 218.86458 69.06563 218.16145Q69.56563 217.45833 69.56563 215.34895Q69.56563 213.22395 69.06563 212.53645Q68.58125 211.83333 67.83125 211.83333Q67.1125 211.83333 66.675 212.4427Q66.12813 213.22395 66.12813 215.34895Z" fill-rule="nonzero"/><path fill="#000000" d="M55.01875 177.15L53.971874 177.15L53.971874 170.43124Q53.58125 170.79062 52.95625 171.16562Q52.346874 171.525 51.8625 171.69687L51.8625 170.68124Q52.7375 170.25937 53.39375 169.68124Q54.065624 169.0875 54.346874 168.525L55.01875 168.525L55.01875 177.15ZM58.05 174.9L59.159374 174.80624Q59.284374 175.61874 59.721874 176.025Q60.175 176.43124 60.815624 176.43124Q61.565624 176.43124 62.096874 175.85312Q62.628124 175.275 62.628124 174.3375Q62.628124 173.43124 62.1125 172.91562Q61.6125 172.38437 60.784374 172.38437Q60.284374 172.38437 59.8625 172.61874Q59.45625 172.85312 59.221874 173.2125L58.2375 173.0875L59.065624 168.68124L63.346874 168.68124L63.346874 169.68124L59.909374 169.68124L59.45625 171.99374Q60.221874 171.44687 61.065624 171.44687Q62.190624 171.44687 62.95625 172.22812Q63.7375 173.00937 63.7375 174.24374Q63.7375 175.4 63.065624 176.25937Q62.2375 177.29062 60.815624 177.29062Q59.64375 177.29062 58.89375 176.63437Q58.159374 175.97812 58.05 174.9ZM65.05 172.91562Q65.05 171.38437 65.3625 170.4625Q65.675 169.525 66.28438 169.025Q66.90938 168.525 67.84688 168.525Q68.53438 168.525 69.05 168.80624Q69.58125 169.0875 69.925 169.61874Q70.26875 170.13437 70.45625 170.88437Q70.64375 171.63437 70.64375 172.91562Q70.64375 174.43124 70.33125 175.35312Q70.03438 176.275 69.40938 176.79062Q68.8 177.29062 67.84688 177.29062Q66.6125 177.29062 65.89375 176.4Q65.05 175.3375 65.05 172.91562ZM66.12813 172.91562Q66.12813 175.025 66.62813 175.72812Q67.12813 176.43124 67.84688 176.43124Q68.58125 176.43124 69.06563 175.72812Q69.56563 175.025 69.56563 172.91562Q69.56563 170.79062 69.06563 170.10312Q68.58125 169.4 67.83125 169.4Q67.1125 169.4 66.675 170.00937Q66.12813 170.79062 66.12813 172.91562Z" fill-rule="nonzero"/><path fill="#000000" d="M56.596874 133.70103L56.596874 134.71666L50.909374 134.71666Q50.909374 134.34166 51.034374 133.98228Q51.253124 133.40416 51.721874 132.84166Q52.20625 132.27916 53.1125 131.54478Q54.51875 130.38853 55.003124 129.71666Q55.503124 129.04478 55.503124 128.45103Q55.503124 127.826035 55.05 127.40416Q54.596874 126.96666 53.878124 126.96666Q53.1125 126.96666 52.659374 127.419785Q52.20625 127.87291 52.190624 128.68541L51.1125 128.57603Q51.221874 127.357285 51.940624 126.732285Q52.675 126.09166 53.909374 126.09166Q55.14375 126.09166 55.8625 126.77916Q56.58125 127.46666 56.58125 128.48228Q56.58125 128.99791 56.3625 129.49791Q56.159374 129.98228 55.659374 130.54478Q55.175 131.09166 54.05 132.04478Q53.096874 132.84166 52.815624 133.13853Q52.55 133.41978 52.378124 133.70103L56.596874 133.70103ZM58.05 130.48228Q58.05 128.95103 58.3625 128.02916Q58.675 127.09166 59.284374 126.59166Q59.909374 126.09166 60.846874 126.09166Q61.534374 126.09166 62.05 126.37291Q62.58125 126.65416 62.925 127.18541Q63.26875 127.701035 63.45625 128.45103Q63.64375 129.20103 63.64375 130.48228Q63.64375 131.99791 63.33125 132.91978Q63.034374 133.84166 62.409374 134.35728Q61.8 134.85728 60.846874 134.85728Q59.6125 134.85728 58.89375 133.96666Q58.05 132.90416 58.05 130.48228ZM59.128124 130.48228Q59.128124 132.59166 59.628124 133.29478Q60.128124 133.99791 60.846874 133.99791Q61.58125 133.99791 62.065624 133.29478Q62.565624 132.59166 62.565624 130.48228Q62.565624 128.35728 62.065624 127.669785Q61.58125 126.96666 60.83125 126.96666Q60.1125 126.96666 59.675 127.576035Q59.128124 128.35728 59.128124 130.48228ZM65.05 130.48228Q65.05 128.95103 65.3625 128.02916Q65.675 127.09166 66.28438 126.59166Q66.90938 126.09166 67.84688 126.09166Q68.53438 126.09166 69.05 126.37291Q69.58125 126.65416 69.925 127.18541Q70.26875 127.701035 70.45625 128.45103Q70.64375 129.20103 70.64375 130.48228Q70.64375 131.99791 70.33125 132.91978Q70.03438 133.84166 69.40938 134.35728Q68.8 134.85728 67.84688 134.85728Q66.6125 134.85728 65.89375 133.96666Q65.05 132.90416 65.05 130.48228ZM66.12813 130.48228Q66.12813 132.59166 66.62813 133.29478Q67.12813 133.99791 67.84688 133.99791Q68.58125 133.99791 69.06563 133.29478Q69.56563 132.59166 69.56563 130.48228Q69.56563 128.35728 69.06563 127.669785Q68.58125 126.96666 67.83125 126.96666Q67.1125 126.96666 66.675 127.576035Q66.12813 128.35728 66.12813 130.48228Z" fill-rule="nonzero"/><path fill="#000000" d="M56.596874 91.26771L56.596874 92.28333L50.909374 92.28333Q50.909374 91.90833 51.034374 91.54896Q51.253124 90.97083 51.721874 90.40833Q52.20625 89.84583 53.1125 89.11146Q54.51875 87.95521 55.003124 87.28333Q55.503124 86.61146 55.503124 86.01771Q55.503124 85.39271 55.05 84.97083Q54.596874 84.53333 53.878124 84.53333Q53.1125 84.53333 52.659374 84.98646Q52.20625 85.43958 52.190624 86.25208L51.1125 86.14271Q51.221874 84.92396 51.940624 84.29896Q52.675 83.65833 53.909374 83.65833Q55.14375 83.65833 55.8625 84.34583Q56.58125 85.03333 56.58125 86.04896Q56.58125 86.56458 56.3625 87.06458Q56.159374 87.54896 55.659374 88.11146Q55.175 88.65833 54.05 89.61146Q53.096874 90.40833 52.815624 90.70521Q52.55 90.98646 52.378124 91.26771L56.596874 91.26771ZM58.05 90.03333L59.159374 89.93958Q59.284374 90.75208 59.721874 91.15833Q60.175 91.56458 60.815624 91.56458Q61.565624 91.56458 62.096874 90.98646Q62.628124 90.40833 62.628124 89.47083Q62.628124 88.56458 62.1125 88.04896Q61.6125 87.51771 60.784374 87.51771Q60.284374 87.51771 59.8625 87.75208Q59.45625 87.98646 59.221874 88.34583L58.2375 88.22083L59.065624 83.81458L63.346874 83.81458L63.346874 84.81458L59.909374 84.81458L59.45625 87.12708Q60.221874 86.58021 61.065624 86.58021Q62.190624 86.58021 62.95625 87.36146Q63.7375 88.14271 63.7375 89.37708Q63.7375 90.53333 63.065624 91.39271Q62.2375 92.42396 60.815624 92.42396Q59.64375 92.42396 58.89375 91.76771Q58.159374 91.11146 58.05 90.03333ZM65.05 88.04896Q65.05 86.51771 65.3625 85.59583Q65.675 84.65833 66.28438 84.15833Q66.90938 83.65833 67.84688 83.65833Q68.53438 83.65833 69.05 83.93958Q69.58125 84.22083 69.925 84.75208Q70.26875 85.26771 70.45625 86.01771Q70.64375 86.76771 70.64375 88.04896Q70.64375 89.56458 70.33125 90.48646Q70.03438 91.40833 69.40938 91.92396Q68.8 92.42396 67.84688 92.42396Q66.6125 92.42396 65.89375 91.53333Q65.05 90.47083 65.05 88.04896ZM66.12813 88.04896Q66.12813 90.15833 66.62813 90.86146Q67.12813 91.56458 67.84688 91.56458Q68.58125 91.56458 69.06563 90.86146Q69.56563 90.15833 69.56563 88.04896Q69.56563 85.92396 69.06563 85.23646Q68.58125 84.53333 67.83125 84.53333Q67.1125 84.53333 66.675 85.14271Q66.12813 85.92396 66.12813 88.04896Z" fill-rule="nonzero"/><path fill="#000000" d="M78.51875 317.45L77.47188 317.45L77.47188 310.73126Q77.08125 311.09064 76.45625 311.46564Q75.84688 311.825 75.3625 311.9969L75.3625 310.98126Q76.2375 310.5594 76.89375 309.98126Q77.56563 309.3875 77.84688 308.825L78.51875 308.825L78.51875 317.45Z" fill-rule="nonzero"/><path fill="#000000" d="M189.47195 317.45L188.42508 317.45L188.42508 310.73126Q188.03445 311.09064 187.40945 311.46564Q186.80008 311.825 186.3157 311.9969L186.3157 310.98126Q187.1907 310.5594 187.84695 309.98126Q188.51883 309.3875 188.80008 308.825L189.47195 308.825L189.47195 317.45ZM192.5032 313.21564Q192.5032 311.6844 192.8157 310.7625Q193.1282 309.825 193.73758 309.325Q194.36258 308.825 195.30008 308.825Q195.98758 308.825 196.5032 309.10626Q197.03445 309.3875 197.3782 309.91876Q197.72195 310.4344 197.90945 311.1844Q198.09695 311.9344 198.09695 313.21564Q198.09695 314.73126 197.78445 315.65314Q197.48758 316.575 196.86258 317.09064Q196.2532 317.59064 195.30008 317.59064Q194.0657 317.59064 193.34695 316.7Q192.5032 315.6375 192.5032 313.21564ZM193.58133 313.21564Q193.58133 315.325 194.08133 316.02814Q194.58133 316.73126 195.30008 316.73126Q196.03445 316.73126 196.51883 316.02814Q197.01883 315.325 197.01883 313.21564Q197.01883 311.09064 196.51883 310.40314Q196.03445 309.7 195.28445 309.7Q194.5657 309.7 194.1282 310.3094Q193.58133 311.09064 193.58133 313.21564Z" fill-rule="nonzero"/><path fill="#000000" d="M300.42514 317.45L299.37827 317.45L299.37827 310.73126Q298.98764 311.09064 298.36264 311.46564Q297.75327 311.825 297.2689 311.9969L297.2689 310.98126Q298.1439 310.5594 298.80014 309.98126Q299.47202 309.3875 299.75327 308.825L300.42514 308.825L300.42514 317.45ZM303.4564 313.21564Q303.4564 311.6844 303.7689 310.7625Q304.0814 309.825 304.69077 309.325Q305.31577 308.825 306.25327 308.825Q306.94077 308.825 307.4564 309.10626Q307.98764 309.3875 308.3314 309.91876Q308.67514 310.4344 308.86264 311.1844Q309.05014 311.9344 309.05014 313.21564Q309.05014 314.73126 308.73764 315.65314Q308.44077 316.575 307.81577 317.09064Q307.2064 317.59064 306.25327 317.59064Q305.0189 317.59064 304.30014 316.7Q303.4564 315.6375 303.4564 313.21564ZM304.53452 313.21564Q304.53452 315.325 305.03452 316.02814Q305.53452 316.73126 306.25327 316.73126Q306.98764 316.73126 307.47202 316.02814Q307.97202 315.325 307.97202 313.21564Q307.97202 311.09064 307.47202 310.40314Q306.98764 309.7 306.23764 309.7Q305.5189 309.7 305.0814 310.3094Q304.53452 311.09064 304.53452 313.21564ZM310.4564 313.21564Q310.4564 311.6844 310.7689 310.7625Q311.0814 309.825 311.69077 309.325Q312.31577 308.825 313.25327 308.825Q313.94077 308.825 314.4564 309.10626Q314.98764 309.3875 315.3314 309.91876Q315.67514 310.4344 315.86264 311.1844Q316.05014 311.9344 316.05014 313.21564Q316.05014 314.73126 315.73764 315.65314Q315.44077 316.575 314.81577 317.09064Q314.2064 317.59064 313.25327 317.59064Q312.0189 317.59064 311.30014 316.7Q310.4564 315.6375 310.4564 313.21564ZM311.53452 313.21564Q311.53452 315.325 312.03452 316.02814Q312.53452 316.73126 313.25327 316.73126Q313.98764 316.73126 314.47202 316.02814Q314.97202 315.325 314.97202 313.21564Q314.97202 311.09064 314.47202 310.40314Q313.98764 309.7 313.23764 309.7Q312.5189 309.7 312.0814 310.3094Q311.53452 311.09064 311.53452 313.21564Z" fill-rule="nonzero"/><path fill="#000000" d="M411.37836 317.45L410.33148 317.45L410.33148 310.73126Q409.94086 311.09064 409.31586 311.46564Q408.70648 311.825 408.2221 311.9969L408.2221 310.98126Q409.0971 310.5594 409.75336 309.98126Q410.42523 309.3875 410.70648 308.825L411.37836 308.825L411.37836 317.45ZM414.4096 313.21564Q414.4096 311.6844 414.7221 310.7625Q415.0346 309.825 415.64398 309.325Q416.26898 308.825 417.20648 308.825Q417.89398 308.825 418.4096 309.10626Q418.94086 309.3875 419.2846 309.91876Q419.62836 310.4344 419.81586 311.1844Q420.00336 311.9344 420.00336 313.21564Q420.00336 314.73126 419.69086 315.65314Q419.39398 316.575 418.76898 317.09064Q418.1596 317.59064 417.20648 317.59064Q415.9721 317.59064 415.25336 316.7Q414.4096 315.6375 414.4096 313.21564ZM415.48773 313.21564Q415.48773 315.325 415.98773 316.02814Q416.48773 316.73126 417.20648 316.73126Q417.94086 316.73126 418.42523 316.02814Q418.92523 315.325 418.92523 313.21564Q418.92523 311.09064 418.42523 310.40314Q417.94086 309.7 417.19086 309.7Q416.4721 309.7 416.0346 310.3094Q415.48773 311.09064 415.48773 313.21564ZM421.4096 313.21564Q421.4096 311.6844 421.7221 310.7625Q422.0346 309.825 422.64398 309.325Q423.26898 308.825 424.20648 308.825Q424.89398 308.825 425.4096 309.10626Q425.94086 309.3875 426.2846 309.91876Q426.62836 310.4344 426.81586 311.1844Q427.00336 311.9344 427.00336 313.21564Q427.00336 314.73126 426.69086 315.65314Q426.39398 316.575 425.76898 317.09064Q425.1596 317.59064 424.20648 317.59064Q422.9721 317.59064 422.25336 316.7Q421.4096 315.6375 421.4096 313.21564ZM422.48773 313.21564Q422.48773 315.325 422.98773 316.02814Q423.48773 316.73126 424.20648 316.73126Q424.94086 316.73126 425.42523 316.02814Q425.92523 315.325 425.92523 313.21564Q425.92523 311.09064 425.42523 310.40314Q424.94086 309.7 424.19086 309.7Q423.4721 309.7 423.0346 310.3094Q422.48773 311.09064 422.48773 313.21564ZM428.4096 313.21564Q428.4096 311.6844 428.7221 310.7625Q429.0346 309.825 429.64398 309.325Q430.26898 308.825 431.20648 308.825Q431.89398 308.825 432.4096 309.10626Q432.94086 309.3875 433.2846 309.91876Q433.62836 310.4344 433.81586 311.1844Q434.00336 311.9344 434.00336 313.21564Q434.00336 314.73126 433.69086 315.65314Q433.39398 316.575 432.76898 317.09064Q432.1596 317.59064 431.20648 317.59064Q429.9721 317.59064 429.25336 316.7Q428.4096 315.6375 428.4096 313.21564ZM429.48773 313.21564Q429.48773 315.325 429.98773 316.02814Q430.48773 316.73126 431.20648 316.73126Q431.94086 316.73126 432.42523 316.02814Q432.92523 315.325 432.92523 313.21564Q432.92523 311.09064 432.42523 310.40314Q431.94086 309.7 431.19086 309.7Q430.4721 309.7 430.0346 310.3094Q429.48773 311.09064 429.48773 313.21564Z" fill-rule="nonzero"/><path stroke="#4285f4" stroke-width="4.0" stroke-linecap="butt" d="M46.0 61.916668L58.0 61.916668" fill-rule="nonzero"/><path fill="#1a1a1a" d="M66.875 65.916664L66.875 57.322914L70.109375 57.322914Q71.09375 57.322914 71.6875 57.58854Q72.28125 57.854164 72.609375 58.40104Q72.953125 58.93229 72.953125 59.52604Q72.953125 60.072914 72.65625 60.55729Q72.359375 61.041664 71.75 61.33854Q72.53125 61.572914 72.9375 62.135414Q73.359375 62.68229 73.359375 63.43229Q73.359375 64.02604 73.109375 64.55729Q72.859375 65.072914 72.484375 65.354164Q72.109375 65.635414 71.53125 65.77604Q70.96875 65.916664 70.15625 65.916664L66.875 65.916664ZM68.015625 60.93229L69.875 60.93229Q70.625 60.93229 70.953125 60.83854Q71.390625 60.71354 71.609375 60.416664Q71.828125 60.104164 71.828125 59.65104Q71.828125 59.229164 71.625 58.90104Q71.421875 58.572914 71.03125 58.46354Q70.65625 58.33854 69.734375 58.33854L68.015625 58.33854L68.015625 60.93229ZM68.015625 64.90104L70.15625 64.90104Q70.703125 64.90104 70.921875 64.854164Q71.328125 64.791664 71.578125 64.635414Q71.84375 64.46354 72.015625 64.15104Q72.1875 63.83854 72.1875 63.43229Q72.1875 62.947914 71.9375 62.58854Q71.703125 62.229164 71.265625 62.08854Q70.828125 61.947914 70.0 61.947914L68.015625 61.947914L68.015625 64.90104ZM78.859375 65.15104Q78.265625 65.65104 77.71875 65.854164Q77.1875 66.05729 76.5625 66.05729Q75.53125 66.05729 74.984375 65.55729Q74.4375 65.05729 74.4375 64.27604Q74.4375 63.822914 74.640625 63.447914Q74.84375 63.05729 75.1875 62.83854Q75.53125 62.604164 75.953125 62.49479Q76.25 62.40104 76.890625 62.322914Q78.15625 62.18229 78.765625 61.96354Q78.765625 61.74479 78.765625 61.697914Q78.765625 61.041664 78.46875 60.77604Q78.0625 60.43229 77.265625 60.43229Q76.53125 60.43229 76.171875 60.697914Q75.8125 60.947914 75.640625 61.604164L74.609375 61.46354Q74.75 60.80729 75.078125 60.40104Q75.40625 59.99479 76.015625 59.77604Q76.625 59.55729 77.421875 59.55729Q78.21875 59.55729 78.71875 59.74479Q79.21875 59.93229 79.453125 60.21354Q79.6875 60.49479 79.78125 60.93229Q79.828125 61.197914 79.828125 61.90104L79.828125 63.30729Q79.828125 64.77604 79.890625 65.166664Q79.96875 65.55729 80.171875 65.916664L79.0625 65.916664Q78.90625 65.58854 78.859375 65.15104ZM78.765625 62.791664Q78.1875 63.02604 77.046875 63.197914Q76.390625 63.291664 76.125 63.416664Q75.859375 63.52604 75.703125 63.74479Q75.5625 63.96354 75.5625 64.24479Q75.5625 64.666664 75.875 64.947914Q76.203125 65.229164 76.8125 65.229164Q77.421875 65.229164 77.890625 64.96354Q78.375 64.697914 78.59375 64.229164Q78.765625 63.86979 78.765625 63.18229L78.765625 62.791664ZM81.375 64.05729L82.40625 63.90104Q82.5 64.52604 82.890625 64.854164Q83.296875 65.18229 84.03125 65.18229Q84.75 65.18229 85.09375 64.90104Q85.453125 64.604164 85.453125 64.197914Q85.453125 63.83854 85.140625 63.635414Q84.921875 63.49479 84.0625 63.27604Q82.90625 62.979164 82.453125 62.77604Q82.015625 62.55729 81.78125 62.18229Q81.546875 61.80729 81.546875 61.33854Q81.546875 60.93229 81.734375 60.572914Q81.921875 60.21354 82.25 59.979164Q82.5 59.80729 82.921875 59.68229Q83.34375 59.55729 83.84375 59.55729Q84.5625 59.55729 85.109375 59.77604Q85.671875 59.979164 85.9375 60.33854Q86.203125 60.697914 86.296875 61.291664L85.265625 61.43229Q85.203125 60.96354 84.859375 60.697914Q84.53125 60.416664 83.90625 60.416664Q83.1875 60.416664 82.875 60.666664Q82.5625 60.90104 82.5625 61.229164Q82.5625 61.43229 82.6875 61.58854Q82.828125 61.760414 83.09375 61.86979Q83.25 61.93229 84.03125 62.135414Q85.15625 62.447914 85.59375 62.635414Q86.03125 62.822914 86.28125 63.18229Q86.53125 63.541664 86.53125 64.08854Q86.53125 64.61979 86.21875 65.08854Q85.921875 65.541664 85.34375 65.80729Q84.765625 66.05729 84.03125 66.05729Q82.8125 66.05729 82.171875 65.55729Q81.546875 65.041664 81.375 64.05729ZM93.046875 63.916664L94.140625 64.041664Q93.890625 64.99479 93.1875 65.52604Q92.484375 66.05729 91.40625 66.05729Q90.046875 66.05729 89.234375 65.21354Q88.4375 64.36979 88.4375 62.854164Q88.4375 61.291664 89.25 60.43229Q90.0625 59.55729 91.34375 59.55729Q92.59375 59.55729 93.375 60.40104Q94.171875 61.24479 94.171875 62.791664Q94.171875 62.885414 94.171875 63.072914L89.53125 63.072914Q89.59375 64.104164 90.109375 64.65104Q90.625 65.18229 91.40625 65.18229Q91.984375 65.18229 92.390625 64.885414Q92.8125 64.572914 93.046875 63.916664ZM89.59375 62.21354L93.0625 62.21354Q93.0 61.416664 92.671875 61.02604Q92.15625 60.416664 91.359375 60.416664Q90.625 60.416664 90.125 60.90104Q89.640625 61.385414 89.59375 62.21354ZM95.765625 65.916664L95.765625 57.322914L96.828125 57.322914L96.828125 65.916664L95.765625 65.916664ZM98.796875 58.541664L98.796875 57.322914L99.859375 57.322914L99.859375 58.541664L98.796875 58.541664ZM98.796875 65.916664L98.796875 59.697914L99.859375 59.697914L99.859375 65.916664L98.796875 65.916664ZM101.796875 65.916664L101.796875 59.697914L102.734375 59.697914L102.734375 60.572914Q103.421875 59.55729 104.71875 59.55729Q105.28125 59.55729 105.75 59.760414Q106.234375 59.96354 106.46875 60.291664Q106.703125 60.61979 106.796875 61.05729Q106.84375 61.354164 106.84375 62.08854L106.84375 65.916664L105.796875 65.916664L105.796875 62.135414Q105.796875 61.479164 105.671875 61.166664Q105.546875 60.854164 105.234375 60.666664Q104.921875 60.46354 104.5 60.46354Q103.828125 60.46354 103.328125 60.90104Q102.84375 61.322914 102.84375 62.510414L102.84375 65.916664L101.796875 65.916664ZM113.046875 63.916664L114.140625 64.041664Q113.890625 64.99479 113.1875 65.52604Q112.484375 66.05729 111.40625 66.05729Q110.046875 66.05729 109.234375 65.21354Q108.4375 64.36979 108.4375 62.854164Q108.4375 61.291664 109.25 60.43229Q110.0625 59.55729 111.34375 59.55729Q112.59375 59.55729 113.375 60.40104Q114.171875 61.24479 114.171875 62.791664Q114.171875 62.885414 114.171875 63.072914L109.53125 63.072914Q109.59375 64.104164 110.109375 64.65104Q110.625 65.18229 111.40625 65.18229Q111.984375 65.18229 112.390625 64.885414Q112.8125 64.572914 113.046875 63.916664ZM109.59375 62.21354L113.0625 62.21354Q113.0 61.416664 112.671875 61.02604Q112.15625 60.416664 111.359375 60.416664Q110.625 60.416664 110.125 60.90104Q109.640625 61.385414 109.59375 62.21354Z" fill-rule="nonzero"/><path stroke="#ea4335" stroke-width="4.0" stroke-linecap="butt" d="M131.0 61.916668L143.0 61.916668" fill-rule="nonzero"/><path fill="#1a1a1a" d="M151.89062 65.916664L151.89062 57.322914L153.60938 57.322914L155.64062 63.40104Q155.92188 64.260414 156.04688 64.68229Q156.1875 64.21354 156.5 63.30729L158.5625 57.322914L160.09375 57.322914L160.09375 65.916664L159.0 65.916664L159.0 58.729164L156.5 65.916664L155.46875 65.916664L152.98438 58.604164L152.98438 65.916664L151.89062 65.916664ZM164.85938 65.15104Q164.26562 65.65104 163.71875 65.854164Q163.1875 66.05729 162.5625 66.05729Q161.53125 66.05729 160.98438 65.55729Q160.4375 65.05729 160.4375 64.27604Q160.4375 63.822914 160.64062 63.447914Q160.84375 63.05729 161.1875 62.83854Q161.53125 62.604164 161.95312 62.49479Q162.25 62.40104 162.89062 62.322914Q164.15625 62.18229 164.76562 61.96354Q164.76562 61.74479 164.76562 61.697914Q164.76562 61.041664 164.46875 60.77604Q164.0625 60.43229 163.26562 60.43229Q162.53125 60.43229 162.17188 60.697914Q161.8125 60.947914 161.64062 61.604164L160.60938 61.46354Q160.75 60.80729 161.07812 60.40104Q161.40625 59.99479 162.01562 59.77604Q162.625 59.55729 163.42188 59.55729Q164.21875 59.55729 164.71875 59.74479Q165.21875 59.93229 165.45312 60.21354Q165.6875 60.49479 165.78125 60.93229Q165.82812 61.197914 165.82812 61.90104L165.82812 63.30729Q165.82812 64.77604 165.89062 65.166664Q165.96875 65.55729 166.17188 65.916664L165.0625 65.916664Q164.90625 65.58854 164.85938 65.15104ZM164.76562 62.791664Q164.1875 63.02604 163.04688 63.197914Q162.39062 63.291664 162.125 63.416664Q161.85938 63.52604 161.70312 63.74479Q161.5625 63.96354 161.5625 64.24479Q161.5625 64.666664 161.875 64.947914Q162.20312 65.229164 162.8125 65.229164Q163.42188 65.229164 163.89062 64.96354Q164.375 64.697914 164.59375 64.229164Q164.76562 63.86979 164.76562 63.18229L164.76562 62.791664ZM167.09375 65.916664L169.35938 62.68229L167.26562 59.697914L168.57812 59.697914L169.53125 61.15104Q169.79688 61.572914 169.96875 61.854164Q170.21875 61.46354 170.4375 61.166664L171.48438 59.697914L172.75 59.697914L170.59375 62.61979L172.90625 65.916664L171.625 65.916664L170.34375 63.979164L170.0 63.46354L168.35938 65.916664L167.09375 65.916664Z" fill-rule="nonzero"/><path stroke="#fbbc04" stroke-width="4.0" stroke-linecap="butt" d="M188.0 61.916668L200.0 61.916668" fill-rule="nonzero"/><path fill="#1a1a1a" d="M208.96875 65.916664L208.96875 57.322914L210.09375 57.322914L210.09375 60.854164L214.5625 60.854164L214.5625 57.322914L215.70312 57.322914L215.70312 65.916664L214.5625 65.916664L214.5625 61.86979L210.09375 61.86979L210.09375 65.916664L208.96875 65.916664ZM224.0625 62.90104L225.1875 63.197914Q224.82812 64.58854 223.90625 65.322914Q222.98438 66.05729 221.64062 66.05729Q220.25 66.05729 219.375 65.49479Q218.5 64.93229 218.04688 63.86979Q217.59375 62.791664 217.59375 61.55729Q217.59375 60.21354 218.10938 59.21354Q218.625 58.21354 219.5625 57.697914Q220.51562 57.18229 221.65625 57.18229Q222.9375 57.18229 223.8125 57.83854Q224.70312 58.49479 225.04688 59.68229L223.92188 59.947914Q223.625 59.010414 223.04688 58.58854Q222.48438 58.15104 221.625 58.15104Q220.64062 58.15104 219.96875 58.635414Q219.3125 59.104164 219.03125 59.90104Q218.76562 60.697914 218.76562 61.55729Q218.76562 62.65104 219.07812 63.46354Q219.40625 64.27604 220.07812 64.68229Q220.75 65.08854 221.54688 65.08854Q222.5 65.08854 223.15625 64.541664Q223.82812 63.99479 224.0625 62.90104Z" fill-rule="nonzero"/><path stroke="#34a853" stroke-width="4.0" stroke-linecap="butt" d="M242.0 61.916668L254.0 61.916668" fill-rule="nonzero"/><path fill="#1a1a1a" d="M262.96875 65.916664L262.96875 57.322914L264.09375 57.322914L264.09375 60.854164L268.5625 60.854164L268.5625 57.322914L269.70312 57.322914L269.70312 65.916664L268.5625 65.916664L268.5625 61.86979L264.09375 61.86979L264.09375 65.916664L262.96875 65.916664ZM278.0625 62.90104L279.1875 63.197914Q278.82812 64.58854 277.90625 65.322914Q276.98438 66.05729 275.64062 66.05729Q274.25 66.05729 273.375 65.49479Q272.5 64.93229 272.04688 63.86979Q271.59375 62.791664 271.59375 61.55729Q271.59375 60.21354 272.10938 59.21354Q272.625 58.21354 273.5625 57.697914Q274.51562 57.18229 275.65625 57.18229Q276.9375 57.18229 277.8125 57.83854Q278.70312 58.49479 279.04688 59.68229L277.92188 59.947914Q277.625 59.010414 277.04688 58.58854Q276.48438 58.15104 275.625 58.15104Q274.64062 58.15104 273.96875 58.635414Q273.3125 59.104164 273.03125 59.90104Q272.76562 60.697914 272.76562 61.55729Q272.76562 62.65104 273.07812 63.46354Q273.40625 64.27604 274.07812 64.68229Q274.75 65.08854 275.54688 65.08854Q276.5 65.08854 277.15625 64.541664Q277.82812 63.99479 278.0625 62.90104ZM283.0 64.52604L283.0 62.166664L280.67188 62.166664L280.67188 61.18229L283.0 61.18229L283.0 58.854164L284.0 58.854164L284.0 61.18229L286.34375 61.18229L286.34375 62.166664L284.0 62.166664L284.0 64.52604L283.0 64.52604ZM287.89062 65.916664L287.89062 57.322914L289.60938 57.322914L291.64062 63.40104Q291.92188 64.260414 292.04688 64.68229Q292.1875 64.21354 292.5 63.30729L294.5625 57.322914L296.09375 57.322914L296.09375 65.916664L295.0 65.916664L295.0 58.729164L292.5 65.916664L291.46875 65.916664L288.98438 58.604164L288.98438 65.916664L287.89062 65.916664ZM300.85938 65.15104Q300.26562 65.65104 299.71875 65.854164Q299.1875 66.05729 298.5625 66.05729Q297.53125 66.05729 296.98438 65.55729Q296.4375 65.05729 296.4375 64.27604Q296.4375 63.822914 296.64062 63.447914Q296.84375 63.05729 297.1875 62.83854Q297.53125 62.604164 297.95312 62.49479Q298.25 62.40104 298.89062 62.322914Q300.15625 62.18229 300.76562 61.96354Q300.76562 61.74479 300.76562 61.697914Q300.76562 61.041664 300.46875 60.77604Q300.0625 60.43229 299.26562 60.43229Q298.53125 60.43229 298.17188 60.697914Q297.8125 60.947914 297.64062 61.604164L296.60938 61.46354Q296.75 60.80729 297.07812 60.40104Q297.40625 59.99479 298.01562 59.77604Q298.625 59.55729 299.42188 59.55729Q300.21875 59.55729 300.71875 59.74479Q301.21875 59.93229 301.45312 60.21354Q301.6875 60.49479 301.78125 60.93229Q301.82812 61.197914 301.82812 61.90104L301.82812 63.30729Q301.82812 64.77604 301.89062 65.166664Q301.96875 65.55729 302.17188 65.916664L301.0625 65.916664Q300.90625 65.58854 300.85938 65.15104ZM300.76562 62.791664Q300.1875 63.02604 299.04688 63.197914Q298.39062 63.291664 298.125 63.416664Q297.85938 63.52604 297.70312 63.74479Q297.5625 63.96354 297.5625 64.24479Q297.5625 64.666664 297.875 64.947914Q298.20312 65.229164 298.8125 65.229164Q299.42188 65.229164 299.89062 64.96354Q300.375 64.697914 300.59375 64.229164Q300.76562 63.86979 300.76562 63.18229L300.76562 62.791664ZM303.09375 65.916664L305.35938 62.68229L303.26562 59.697914L304.57812 59.697914L305.53125 61.15104Q305.79688 61.572914 305.96875 61.854164Q306.21875 61.46354 306.4375 61.166664L307.48438 59.697914L308.75 59.697914L306.59375 62.61979L308.90625 65.916664L307.625 65.916664L306.34375 63.979164L306.0 63.46354L304.35938 65.916664L303.09375 65.916664Z" fill-rule="nonzero"/><path stroke="#ff6d01" stroke-width="4.0" stroke-linecap="butt" d="M324.0 61.916668L336.0 61.916668" fill-rule="nonzero"/><path fill="#1a1a1a" d="M344.96875 65.916664L344.96875 57.322914L346.09375 57.322914L346.09375 60.854164L350.5625 60.854164L350.5625 57.322914L351.70312 57.322914L351.70312 65.916664L350.5625 65.916664L350.5625 61.86979L346.09375 61.86979L346.09375 65.916664L344.96875 65.916664ZM360.0625 62.90104L361.1875 63.197914Q360.82812 64.58854 359.90625 65.322914Q358.98438 66.05729 357.64062 66.05729Q356.25 66.05729 355.375 65.49479Q354.5 64.93229 354.04688 63.86979Q353.59375 62.791664 353.59375 61.55729Q353.59375 60.21354 354.10938 59.21354Q354.625 58.21354 355.5625 57.697914Q356.51562 57.18229 357.65625 57.18229Q358.9375 57.18229 359.8125 57.83854Q360.70312 58.49479 361.04688 59.68229L359.92188 59.947914Q359.625 59.010414 359.04688 58.58854Q358.48438 58.15104 357.625 58.15104Q356.64062 58.15104 355.96875 58.635414Q355.3125 59.104164 355.03125 59.90104Q354.76562 60.697914 354.76562 61.55729Q354.76562 62.65104 355.07812 63.46354Q355.40625 64.27604 356.07812 64.68229Q356.75 65.08854 357.54688 65.08854Q358.5 65.08854 359.15625 64.541664Q359.82812 63.99479 360.0625 62.90104ZM365.0 64.52604L365.0 62.166664L362.67188 62.166664L362.67188 61.18229L365.0 61.18229L365.0 58.854164L366.0 58.854164L366.0 61.18229L368.34375 61.18229L368.34375 62.166664L366.0 62.166664L366.0 64.52604L365.0 64.52604ZM369.89062 65.916664L369.89062 57.322914L371.60938 57.322914L373.64062 63.40104Q373.92188 64.260414 374.04688 64.68229Q374.1875 64.21354 374.5 63.30729L376.5625 57.322914L378.09375 57.322914L378.09375 65.916664L377.0 65.916664L377.0 58.729164L374.5 65.916664L373.46875 65.916664L370.98438 58.604164L370.98438 65.916664L369.89062 65.916664ZM382.85938 65.15104Q382.26562 65.65104 381.71875 65.854164Q381.1875 66.05729 380.5625 66.05729Q379.53125 66.05729 378.98438 65.55729Q378.4375 65.05729 378.4375 64.27604Q378.4375 63.822914 378.64062 63.447914Q378.84375 63.05729 379.1875 62.83854Q379.53125 62.604164 379.95312 62.49479Q380.25 62.40104 380.89062 62.322914Q382.15625 62.18229 382.76562 61.96354Q382.76562 61.74479 382.76562 61.697914Q382.76562 61.041664 382.46875 60.77604Q382.0625 60.43229 381.26562 60.43229Q380.53125 60.43229 380.17188 60.697914Q379.8125 60.947914 379.64062 61.604164L378.60938 61.46354Q378.75 60.80729 379.07812 60.40104Q379.40625 59.99479 380.01562 59.77604Q380.625 59.55729 381.42188 59.55729Q382.21875 59.55729 382.71875 59.74479Q383.21875 59.93229 383.45312 60.21354Q383.6875 60.49479 383.78125 60.93229Q383.82812 61.197914 383.82812 61.90104L383.82812 63.30729Q383.82812 64.77604 383.89062 65.166664Q383.96875 65.55729 384.17188 65.916664L383.0625 65.916664Q382.90625 65.58854 382.85938 65.15104ZM382.76562 62.791664Q382.1875 63.02604 381.04688 63.197914Q380.39062 63.291664 380.125 63.416664Q379.85938 63.52604 379.70312 63.74479Q379.5625 63.96354 379.5625 64.24479Q379.5625 64.666664 379.875 64.947914Q380.20312 65.229164 380.8125 65.229164Q381.42188 65.229164 381.89062 64.96354Q382.375 64.697914 382.59375 64.229164Q382.76562 63.86979 382.76562 63.18229L382.76562 62.791664ZM385.09375 65.916664L387.35938 62.68229L385.26562 59.697914L386.57812 59.697914L387.53125 61.15104Q387.79688 61.572914 387.96875 61.854164Q388.21875 61.46354 388.4375 61.166664L389.48438 59.697914L390.75 59.697914L388.59375 62.61979L390.90625 65.916664L389.625 65.916664L388.34375 63.979164L388.0 63.46354L386.35938 65.916664L385.09375 65.916664ZM393.0 64.52604L393.0 62.166664L390.67188 62.166664L390.67188 61.18229L393.0 61.18229L393.0 58.854164L394.0 58.854164L394.0 61.18229L396.34375 61.18229L396.34375 62.166664L394.0 62.166664L394.0 64.52604L393.0 64.52604ZM396.8125 68.30729L396.8125 67.541664L403.8125 67.541664L403.8125 68.30729L396.8125 68.30729ZM403.8125 68.30729L403.8125 67.541664L410.8125 67.541664L410.8125 68.30729L403.8125 68.30729ZM412.76562 65.916664L411.78125 65.916664L411.78125 57.322914L412.84375 57.322914L412.84375 60.385414Q413.51562 59.55729 414.54688 59.55729Q415.125 59.55729 415.625 59.791664Q416.14062 60.010414 416.46875 60.43229Q416.8125 60.854164 417.0 61.447914Q417.1875 62.041664 417.1875 62.71354Q417.1875 64.30729 416.39062 65.18229Q415.59375 66.05729 414.5 66.05729Q413.39062 66.05729 412.76562 65.135414L412.76562 65.916664ZM412.75 62.760414Q412.75 63.86979 413.0625 64.36979Q413.5625 65.18229 414.40625 65.18229Q415.09375 65.18229 415.59375 64.58854Q416.10938 63.99479 416.10938 62.791664Q416.10938 61.572914 415.625 60.99479Q415.14062 60.416664 414.45312 60.416664Q413.76562 60.416664 413.25 61.02604Q412.75 61.61979 412.75 62.760414ZM422.875 65.916664L422.875 64.99479Q422.14062 66.05729 420.89062 66.05729Q420.34375 66.05729 419.85938 65.854164Q419.39062 65.635414 419.15625 65.322914Q418.92188 64.99479 418.82812 64.52604Q418.76562 64.229164 418.76562 63.541664L418.76562 59.697914L419.82812 59.697914L419.82812 63.15104Q419.82812 63.96354 419.89062 64.260414Q419.98438 64.666664 420.29688 64.916664Q420.625 65.15104 421.10938 65.15104Q421.57812 65.15104 421.98438 64.916664Q422.40625 64.666664 422.57812 64.24479Q422.76562 63.822914 422.76562 63.02604L422.76562 59.697914L423.8125 59.697914L423.8125 65.916664L422.875 65.916664ZM425.79688 58.541664L425.79688 57.322914L426.85938 57.322914L426.85938 58.541664L425.79688 58.541664ZM425.79688 65.916664L425.79688 59.697914L426.85938 59.697914L426.85938 65.916664L425.79688 65.916664ZM428.76562 65.916664L428.76562 57.322914L429.82812 57.322914L429.82812 65.916664L428.76562 65.916664ZM434.09375 64.979164L434.25 65.90104Q433.79688 65.99479 433.45312 65.99479Q432.875 65.99479 432.5625 65.822914Q432.25 65.635414 432.10938 65.33854Q431.98438 65.041664 431.98438 64.08854L431.98438 60.510414L431.21875 60.510414L431.21875 59.697914L431.98438 59.697914L431.98438 58.15104L433.03125 57.52604L433.03125 59.697914L434.09375 59.697914L434.09375 60.510414L433.03125 60.510414L433.03125 64.15104Q433.03125 64.604164 433.07812 64.729164Q433.14062 64.854164 433.26562 64.93229Q433.39062 65.010414 433.625 65.010414Q433.8125 65.010414 434.09375 64.979164ZM434.79688 58.541664L434.79688 57.322914L435.85938 57.322914L435.85938 58.541664L434.79688 58.541664ZM434.79688 65.916664L434.79688 59.697914L435.85938 59.697914L435.85938 65.916664L434.79688 65.916664ZM437.79688 65.916664L437.79688 59.697914L438.73438 59.697914L438.73438 60.572914Q439.42188 59.55729 440.71875 59.55729Q441.28125 59.55729 441.75 59.760414Q442.23438 59.96354 442.46875 60.291664Q442.70312 60.61979 442.79688 61.05729Q442.84375 61.354164 442.84375 62.08854L442.84375 65.916664L441.79688 65.916664L441.79688 62.135414Q441.79688 61.479164 441.67188 61.166664Q441.54688 60.854164 441.23438 60.666664Q440.92188 60.46354 440.5 60.46354Q439.82812 60.46354 439.32812 60.90104Q438.84375 61.322914 438.84375 62.510414L438.84375 65.916664L437.79688 65.916664ZM443.8125 68.30729L443.8125 67.541664L450.8125 67.541664L450.8125 68.30729L443.8125 68.30729ZM451.79688 65.916664L451.79688 59.697914L452.73438 59.697914L452.73438 60.572914Q453.03125 60.104164 453.51562 59.83854Q454.0 59.55729 454.625 59.55729Q455.3125 59.55729 455.75 59.83854Q456.20312 60.11979 456.375 60.635414Q457.125 59.55729 458.29688 59.55729Q459.23438 59.55729 459.71875 60.072914Q460.21875 60.572914 460.21875 61.65104L460.21875 65.916664L459.17188 65.916664L459.17188 61.99479Q459.17188 61.36979 459.0625 61.08854Q458.96875 60.80729 458.70312 60.635414Q458.4375 60.46354 458.0625 60.46354Q457.40625 60.46354 456.96875 60.90104Q456.54688 61.33854 456.54688 62.30729L456.54688 65.916664L455.48438 65.916664L455.48438 61.86979Q455.48438 61.166664 455.21875 60.822914Q454.96875 60.46354 454.39062 60.46354Q453.9375 60.46354 453.5625 60.697914Q453.1875 60.93229 453.01562 61.385414Q452.84375 61.83854 452.84375 62.68229L452.84375 65.916664L451.79688 65.916664ZM467.04688 63.916664L468.14062 64.041664Q467.89062 64.99479 467.1875 65.52604Q466.48438 66.05729 465.40625 66.05729Q464.04688 66.05729 463.23438 65.21354Q462.4375 64.36979 462.4375 62.854164Q462.4375 61.291664 463.25 60.43229Q464.0625 59.55729 465.34375 59.55729Q466.59375 59.55729 467.375 60.40104Q468.17188 61.24479 468.17188 62.791664Q468.17188 62.885414 468.17188 63.072914L463.53125 63.072914Q463.59375 64.104164 464.10938 64.65104Q464.625 65.18229 465.40625 65.18229Q465.98438 65.18229 466.39062 64.885414Q466.8125 64.572914 467.04688 63.916664ZM463.59375 62.21354L467.0625 62.21354Q467.0 61.416664 466.67188 61.02604Q466.15625 60.416664 465.35938 60.416664Q464.625 60.416664 464.125 60.90104Q463.64062 61.385414 463.59375 62.21354ZM469.79688 65.916664L469.79688 59.697914L470.73438 59.697914L470.73438 60.572914Q471.03125 60.104164 471.51562 59.83854Q472.0 59.55729 472.625 59.55729Q473.3125 59.55729 473.75 59.83854Q474.20312 60.11979 474.375 60.635414Q475.125 59.55729 476.29688 59.55729Q477.23438 59.55729 477.71875 60.072914Q478.21875 60.572914 478.21875 61.65104L478.21875 65.916664L477.17188 65.916664L477.17188 61.99479Q477.17188 61.36979 477.0625 61.08854Q476.96875 60.80729 476.70312 60.635414Q476.4375 60.46354 476.0625 60.46354Q475.40625 60.46354 474.96875 60.90104Q474.54688 61.33854 474.54688 62.30729L474.54688 65.916664L473.48438 65.916664L473.48438 61.86979Q473.48438 61.166664 473.21875 60.822914Q472.96875 60.46354 472.39062 60.46354Q471.9375 60.46354 471.5625 60.697914Q471.1875 60.93229 471.01562 61.385414Q470.84375 61.83854 470.84375 62.68229L470.84375 65.916664L469.79688 65.916664ZM484.85938 63.635414L485.89062 63.77604Q485.71875 64.83854 485.01562 65.447914Q484.3125 66.05729 483.29688 66.05729Q482.01562 66.05729 481.23438 65.229164Q480.46875 64.385414 480.46875 62.822914Q480.46875 61.822914 480.79688 61.072914Q481.14062 60.30729 481.8125 59.93229Q482.5 59.55729 483.3125 59.55729Q484.3125 59.55729 484.95312 60.072914Q485.60938 60.572914 485.79688 61.52604L484.76562 61.68229Q484.625 61.05729 484.25 60.74479Q483.875 60.416664 483.34375 60.416664Q482.54688 60.416664 482.04688 60.99479Q481.54688 61.55729 481.54688 62.791664Q481.54688 64.05729 482.03125 64.61979Q482.51562 65.18229 483.28125 65.18229Q483.90625 65.18229 484.3125 64.80729Q484.73438 64.43229 484.85938 63.635414ZM486.79688 68.30729L486.79688 59.697914L487.75 59.697914L487.75 60.49479Q488.09375 60.02604 488.51562 59.791664Q488.95312 59.55729 489.5625 59.55729Q490.35938 59.55729 490.96875 59.96354Q491.57812 60.36979 491.875 61.11979Q492.1875 61.86979 492.1875 62.760414Q492.1875 63.71354 491.84375 64.479164Q491.51562 65.24479 490.85938 65.65104Q490.20312 66.05729 489.48438 66.05729Q488.95312 66.05729 488.53125 65.83854Q488.10938 65.604164 487.84375 65.27604L487.84375 68.30729L486.79688 68.30729ZM487.75 62.83854Q487.75 64.041664 488.23438 64.61979Q488.71875 65.18229 489.40625 65.18229Q490.10938 65.18229 490.60938 64.58854Q491.10938 63.99479 491.10938 62.74479Q491.10938 61.55729 490.625 60.979164Q490.14062 60.385414 489.45312 60.385414Q488.78125 60.385414 488.26562 61.010414Q487.75 61.635414 487.75 62.83854ZM493.75 68.30729L493.625 67.322914Q493.96875 67.416664 494.23438 67.416664Q494.57812 67.416664 494.78125 67.291664Q495.0 67.18229 495.14062 66.979164Q495.23438 66.80729 495.46875 66.18229Q495.48438 66.104164 495.5625 65.93229L493.1875 59.697914L494.32812 59.697914L495.625 63.291664Q495.875 63.979164 496.07812 64.74479Q496.26562 64.010414 496.51562 63.322914L497.84375 59.697914L498.89062 59.697914L496.53125 66.02604Q496.14062 67.041664 495.9375 67.43229Q495.65625 67.96354 495.28125 68.197914Q494.92188 68.447914 494.42188 68.447914Q494.125 68.447914 493.75 68.30729Z" fill-rule="nonzero"/><path fill="#757575" d="M160.20312 37.55L156.25 27.175L158.10938 27.175L160.34375 33.39375Q160.70312 34.39375 161.0 35.471874Q161.23438 34.659374 161.65625 33.503124L163.95312 27.175L165.76562 27.175L161.84375 37.55L160.20312 37.55ZM166.28125 37.55L166.28125 23.2375L168.03125 23.2375L168.03125 37.55L166.28125 37.55ZM177.42188 34.20625L179.23438 34.440624Q178.8125 36.01875 177.64062 36.909374Q176.48438 37.784374 174.67188 37.784374Q172.40625 37.784374 171.0625 36.39375Q169.73438 34.9875 169.73438 32.45625Q169.73438 29.83125 171.07812 28.39375Q172.42188 26.940624 174.57812 26.940624Q176.65625 26.940624 177.96875 28.3625Q179.29688 29.76875 179.29688 32.346874Q179.29688 32.503124 179.28125 32.815624L171.54688 32.815624Q171.64062 34.51875 172.51562 35.425Q173.39062 36.33125 174.6875 36.33125Q175.65625 36.33125 176.32812 35.83125Q177.01562 35.315624 177.42188 34.20625ZM171.64062 31.3625L177.4375 31.3625Q177.32812 30.065624 176.78125 29.409374Q175.9375 28.39375 174.59375 28.39375Q173.39062 28.39375 172.5625 29.20625Q171.73438 30.003124 171.64062 31.3625ZM183.53125 29.784374Q182.4375 29.378124 181.90625 28.64375Q181.39062 27.89375 181.39062 26.8625Q181.39062 25.3 182.51562 24.2375Q183.64062 23.175 185.5 23.175Q187.375 23.175 188.51562 24.26875Q189.65625 25.346874 189.65625 26.909374Q189.65625 27.909374 189.125 28.64375Q188.60938 29.378124 187.54688 29.784374Q188.875 30.221874 189.5625 31.175Q190.25 32.128124 190.25 33.45625Q190.25 35.3 188.9375 36.55Q187.64062 37.8 185.53125 37.8Q183.40625 37.8 182.10938 36.55Q180.8125 35.284374 180.8125 33.409374Q180.8125 32.01875 181.51562 31.08125Q182.23438 30.128124 183.53125 29.784374ZM183.1875 26.8Q183.1875 27.815624 183.84375 28.471874Q184.5 29.1125 185.53125 29.1125Q186.54688 29.1125 187.20312 28.471874Q187.85938 27.83125 187.85938 26.909374Q187.85938 25.940624 187.1875 25.284374Q186.51562 24.6125 185.51562 24.6125Q184.51562 24.6125 183.84375 25.26875Q183.1875 25.909374 183.1875 26.8ZM182.625 33.425Q182.625 34.175 182.96875 34.878124Q183.32812 35.58125 184.03125 35.971874Q184.73438 36.346874 185.54688 36.346874Q186.8125 36.346874 187.625 35.534374Q188.45312 34.721874 188.45312 33.471874Q188.45312 32.20625 187.60938 31.378124Q186.76562 30.55 185.48438 30.55Q184.25 30.55 183.4375 31.378124Q182.625 32.190624 182.625 33.425ZM192.8125 37.55L192.8125 35.55L194.8125 35.55L194.8125 37.55L192.8125 37.55ZM201.20312 37.55L197.25 27.175L199.10938 27.175L201.34375 33.39375Q201.70312 34.39375 202.0 35.471874Q202.23438 34.659374 202.65625 33.503124L204.95312 27.175L206.76562 27.175L202.84375 37.55L201.20312 37.55ZM217.64062 37.55L212.09375 23.2375L214.14062 23.2375L217.85938 33.628124Q218.3125 34.878124 218.60938 35.971874Q218.9375 34.8 219.39062 33.628124L223.25 23.2375L225.1875 23.2375L219.57812 37.55L217.64062 37.55ZM226.46875 37.55L226.46875 23.2375L228.35938 23.2375L228.35938 35.8625L235.40625 35.8625L235.40625 37.55L226.46875 37.55ZM237.57812 37.55L237.57812 23.2375L247.9375 23.2375L247.9375 24.925L239.48438 24.925L239.48438 29.3L247.39062 29.3L247.39062 30.9875L239.48438 30.9875L239.48438 35.8625L248.26562 35.8625L248.26562 37.55L237.57812 37.55ZM250.53125 37.55L250.53125 23.2375L252.46875 23.2375L259.98438 34.471874L259.98438 23.2375L261.79688 23.2375L261.79688 37.55L259.85938 37.55L252.34375 26.3L252.34375 37.55L250.53125 37.55ZM272.5625 29.128124L263.10938 29.128124L263.10938 27.4875L272.5625 27.4875L272.5625 29.128124ZM272.5625 33.471874L263.10938 33.471874L263.10938 31.83125L272.5625 31.83125L272.5625 33.471874ZM281.45312 37.55L279.6875 37.55L279.6875 26.346874Q279.0625 26.95625 278.03125 27.565624Q277.0 28.159374 276.17188 28.471874L276.17188 26.76875Q277.65625 26.08125 278.75 25.096874Q279.85938 24.096874 280.3125 23.175L281.45312 23.175L281.45312 37.55ZM295.0625 35.8625L295.0625 37.55L285.60938 37.55Q285.59375 36.909374 285.8125 36.33125Q286.17188 35.3625 286.96875 34.425Q287.76562 33.4875 289.26562 32.253124Q291.60938 30.346874 292.42188 29.2375Q293.25 28.1125 293.25 27.1125Q293.25 26.065624 292.5 25.346874Q291.75 24.628124 290.54688 24.628124Q289.28125 24.628124 288.51562 25.39375Q287.75 26.159374 287.75 27.503124L285.9375 27.315624Q286.125 25.3 287.32812 24.2375Q288.54688 23.175 290.59375 23.175Q292.64062 23.175 293.84375 24.315624Q295.04688 25.45625 295.04688 27.14375Q295.04688 28.003124 294.6875 28.846874Q294.34375 29.675 293.53125 30.596874Q292.71875 31.503124 290.82812 33.1125Q289.23438 34.440624 288.78125 34.909374Q288.34375 35.378124 288.04688 35.8625L295.0625 35.8625ZM299.53125 29.784374Q298.4375 29.378124 297.90625 28.64375Q297.39062 27.89375 297.39062 26.8625Q297.39062 25.3 298.51562 24.2375Q299.64062 23.175 301.5 23.175Q303.375 23.175 304.51562 24.26875Q305.65625 25.346874 305.65625 26.909374Q305.65625 27.909374 305.125 28.64375Q304.60938 29.378124 303.54688 29.784374Q304.875 30.221874 305.5625 31.175Q306.25 32.128124 306.25 33.45625Q306.25 35.3 304.9375 36.55Q303.64062 37.8 301.53125 37.8Q299.40625 37.8 298.10938 36.55Q296.8125 35.284374 296.8125 33.409374Q296.8125 32.01875 297.51562 31.08125Q298.23438 30.128124 299.53125 29.784374ZM299.1875 26.8Q299.1875 27.815624 299.84375 28.471874Q300.5 29.1125 301.53125 29.1125Q302.54688 29.1125 303.20312 28.471874Q303.85938 27.83125 303.85938 26.909374Q303.85938 25.940624 303.1875 25.284374Q302.51562 24.6125 301.51562 24.6125Q300.51562 24.6125 299.84375 25.26875Q299.1875 25.909374 299.1875 26.8ZM298.625 33.425Q298.625 34.175 298.96875 34.878124Q299.32812 35.58125 300.03125 35.971874Q300.73438 36.346874 301.54688 36.346874Q302.8125 36.346874 303.625 35.534374Q304.45312 34.721874 304.45312 33.471874Q304.45312 32.20625 303.60938 31.378124Q302.76562 30.55 301.48438 30.55Q300.25 30.55 299.4375 31.378124Q298.625 32.190624 298.625 33.425ZM314.46875 37.55L314.46875 23.2375L316.35938 23.2375L316.35938 35.8625L323.40625 35.8625L323.40625 37.55L314.46875 37.55ZM325.48438 37.55L325.48438 23.2375L328.34375 23.2375L331.71875 33.3625Q332.1875 34.784374 332.40625 35.4875Q332.65625 34.70625 333.17188 33.190624L336.59375 23.2375L339.14062 23.2375L339.14062 37.55L337.32812 37.55L337.32812 25.565624L333.15625 37.55L331.45312 37.55L327.3125 25.3625L327.3125 37.55L325.48438 37.55ZM351.9375 23.2375L353.82812 23.2375L353.82812 31.503124Q353.82812 33.659374 353.34375 34.940624Q352.85938 36.20625 351.57812 37.003124Q350.3125 37.8 348.23438 37.8Q346.21875 37.8 344.9375 37.1125Q343.67188 36.409374 343.125 35.096874Q342.57812 33.784374 342.57812 31.503124L342.57812 23.2375L344.46875 23.2375L344.46875 31.4875Q344.46875 33.3625 344.8125 34.253124Q345.15625 35.128124 346.0 35.6125Q346.84375 36.08125 348.07812 36.08125Q350.15625 36.08125 351.04688 35.14375Q351.9375 34.190624 351.9375 31.4875L351.9375 23.2375ZM355.46875 37.55L355.46875 23.2375L357.35938 23.2375L357.35938 35.8625L364.40625 35.8625L364.40625 37.55L355.46875 37.55ZM375.5625 29.128124L366.10938 29.128124L366.10938 27.4875L375.5625 27.4875L375.5625 29.128124ZM375.5625 33.471874L366.10938 33.471874L366.10938 31.83125L375.5625 31.83125L375.5625 33.471874ZM384.45312 37.55L382.6875 37.55L382.6875 26.346874Q382.0625 26.95625 381.03125 27.565624Q380.0 28.159374 379.17188 28.471874L379.17188 26.76875Q380.65625 26.08125 381.75 25.096874Q382.85938 24.096874 383.3125 23.175L384.45312 23.175L384.45312 37.55Z" fill-rule="nonzero"/></svg>