<svg version="1.1" viewBox="0.0 0.0 544.0 371.0" fill="none" stroke="none" stroke-linecap="square" stroke-miterlimit="10" width="544" height="371" xmlns:xlink="http://www.w3.org/1999/xlink" xmlns="http://www.w3.org/2000/svg"><path fill="#ffffff" d="M0 0L544.0 0L544.0 371.0L0 371.0L0 0Z" fill-rule="nonzero"/><path stroke="#cccccc" stroke-width="1.0" stroke-linecap="butt" d="M77.5 61.5L77.5 300.5" fill-rule="nonzero"/><path stroke="#cccccc" stroke-width="1.0" stroke-linecap="butt" d="M190.5 61.5L190.5 300.5" fill-rule="nonzero"/><path stroke="#cccccc" stroke-width="1.0" stroke-linecap="butt" d="M303.5 61.5L303.5 300.5" fill-rule="nonzero"/><path stroke="#cccccc" stroke-width="1.0" stroke-linecap="butt" d="M416.5 61.5L416.5 300.5" fill-rule="nonzero"/><path stroke="#333333" stroke-width="1.0" stroke-linecap="butt" d="M77.5 300.5L525.5 300.5" fill-rule="nonzero"/><path stroke="#cccccc" stroke-width="1.0" stroke-linecap="butt" d="M77.5 240.5L525.5 240.5" fill-rule="nonzero"/><path stroke="#cccccc" stroke-width="1.0" stroke-linecap="butt" d="M77.5 181.5L525.5 181.5" fill-rule="nonzero"/><path stroke="#cccccc" stroke-width="1.0" stroke-linecap="butt" d="M77.5 121.5L525.5 121.5" fill-rule="nonzero"/><path stroke="#cccccc" stroke-width="1.0" stroke-linecap="butt" d="M77.5 61.5L525.5 61.5" fill-rule="nonzero"/><clipPath id="id_0"><path d="M77.55 61.916668L525.45 61.916668L525.45 300.45L77.55 300.45L77.55 61.916668Z" clip-rule="nonzero"/></clipPath><path stroke="#ea4335" stroke-width="2.0" stroke-linecap="butt" clip-path="url(#id_0)" d="M77.55 298.051L111.60533 296.42932L131.52641 296.5594L145.66066 294.1495L156.62402 294.7286L165.58176 294.34476L173.1554 294.76953L179.71599 289.50494L185.50284 294.64178L190.67935 294.56964L195.36209 295.1445L199.63708 294.8385L203.5697 293.92007L207.21072 293.86282L210.60045 293.93164L213.77132 294.05927L216.7499 290.39822L219.55817 290.47684L222.21457 290.52094L224.73468 290.57324L227.13182 289.72397L229.41742 289.94144L231.6014 290.71863L233.69241 290.4951L235.69806 289.97342L237.62503 288.83026L239.47926 289.23813L241.26605 289.38644L242.99014 288.3794L244.65578 288.34323L246.26678 288.84015L247.82664 289.1232L249.3385 282.55783L250.80522 283.23602L252.22943 283.2885L262.34323 283.05695L268.7608 275.37204L269.7534 277.17377L270.72632 278.26822L271.68036 278.7573L272.6162 275.47244L277.88535 278.40137L278.71112 277.59055L279.52322 276.9593L280.3221 278.06863L281.10825 279.18787L281.882 279.74774L282.6437 263.9544L283.39383 267.7545L284.13266 268.84433L292.22733 273.3241L315.55197 259.67743L315.93732 260.95947L316.31964 238.86316L316.69907 242.25941L317.07553 243.70515L317.44916 247.80229L317.81998 249.43037L337.1215 220.73427L349.99265 231.69627L354.57056 199.54413L384.04797 175.85893L392.89362 126.95427L418.1033 93.20191L439.38092 88.8872L452.15863 95.85505L469.198 89.92626L486.21396 93.0239L496.80164 86.50395L520.2693 92.890396L525.45 92.53438" fill-rule="nonzero"/><path fill="#000000" fill-opacity="0.0" clip-path="url(#id_0)" d="M80.55 298.051C80.55 299.70786 79.206856 301.051 77.55 301.051C75.89314 301.051 74.55 299.70786 74.55 298.051C74.55 296.39413 75.89314 295.051 77.55 295.051C79.206856 295.051 80.55 296.39413 80.55 298.051Z" fill-rule="nonzero"/><path fill="#000000" fill-opacity="0.0" clip-path="url(#id_0)" d="M114.60533 296.42932C114.60533 298.08618 113.262184 299.42932 111.60533 299.42932C109.94848 299.42932 108.60533 298.08618 108.60533 296.42932C108.60533 294.7725 109.94848 293.42932 111.60533 293.42932C113.262184 293.42932 114.60533 294.7725 114.60533 296.42932Z" fill-rule="nonzero"/><path fill="#000000" fill-opacity="0.0" clip-path="url(#id_0)" d="M134.52641 296.5594C134.52641 298.21625 133.18327 299.5594 131.52641 299.5594C129.86957 299.5594 128.52641 298.21625 128.52641 296.5594C128.52641 294.90253 129.86957 293.5594 131.52641 293.5594C133.18327 293.5594 134.52641 294.90253 134.52641 296.5594Z" fill-rule="nonzero"/><path fill="#000000" fill-opacity="0.0" clip-path="url(#id_0)" d="M148.66066 294.1495C148.66066 295.80637 147.31752 297.1495 145.66066 297.1495C144.0038 297.1495 142.66066 295.80637 142.66066 294.1495C142.66066 292.49265 144.0038 291.1495 145.66066 291.1495C147.31752 291.1495 148.66066 292.49265 148.66066 294.1495Z" fill-rule="nonzero"/><path fill="#000000" fill-opacity="0.0" clip-path="url(#id_0)" d="M159.62402 294.7286C159.62402 296.38547 158.28088 297.7286 156.62402 297.7286C154.96718 297.7286 153.62402 296.38547 153.62402 294.7286C153.62402 293.07175 154.96718 291.7286 156.62402 291.7286C158.28088 291.7286 159.62402 293.07175 159.62402 294.7286Z" fill-rule="nonzero"/><path fill="#000000" fill-opacity="0.0" clip-path="url(#id_0)" d="M168.58176 294.34476C168.58176 296.00162 167.2386 297.34476 165.58176 297.34476C163.9249 297.34476 162.58176 296.00162 162.58176 294.34476C162.58176 292.6879 163.9249 291.34476 165.58176 291.34476C167.2386 291.34476 168.58176 292.6879 168.58176 294.34476Z" fill-rule="nonzero"/><path fill="#000000" fill-opacity="0.0" clip-path="url(#id_0)" d="M176.1554 294.76953C176.1554 296.42636 174.81226 297.76953 173.1554 297.76953C171.49855 297.76953 170.1554 296.42636 170.1554 294.76953C170.1554 293.11267 171.49855 291.76953 173.1554 291.76953C174.81226 291.76953 176.1554 293.11267 176.1554 294.76953Z" fill-rule="nonzero"/><path fill="#000000" fill-opacity="0.0" clip-path="url(#id_0)" d="M182.71599 289.50494C182.71599 291.16177 181.37285 292.50494 179.71599 292.50494C178.05913 292.50494 176.71599 291.16177 176.71599 289.50494C176.71599 287.84808 178.05913 286.50494 179.71599 286.50494C181.37285 286.50494 182.71599 287.84808 182.71599 289.50494Z" fill-rule="nonzero"/><path fill="#000000" fill-opacity="0.0" clip-path="url(#id_0)" d="M188.50284 294.64178C188.50284 296.29865 187.1597 297.64178 185.50284 297.64178C183.846 297.64178 182.50284 296.29865 182.50284 294.64178C182.50284 292.98492 183.846 291.64178 185.50284 291.64178C187.1597 291.64178 188.50284 292.98492 188.50284 294.64178Z" fill-rule="nonzero"/><path fill="#000000" fill-opacity="0.0" clip-path="url(#id_0)" d="M193.67935 294.56964C193.67935 296.22647 192.33621 297.56964 190.67935 297.56964C189.0225 297.56964 187.67935 296.22647 187.67935 294.56964C187.67935 292.91278 189.0225 291.56964 190.67935 291.56964C192.33621 291.56964 193.67935 292.91278 193.67935 294.56964Z" fill-rule="nonzero"/><path fill="#000000" fill-opacity="0.0" clip-path="url(#id_0)" d="M198.36209 295.1445C198.36209 296.80136 197.01894 298.1445 195.36209 298.1445C193.70523 298.1445 192.36209 296.80136 192.36209 295.1445C192.36209 293.48764 193.70523 292.1445 195.36209 292.1445C197.01894 292.1445 198.36209 293.48764 198.36209 295.1445Z" fill-rule="nonzero"/><path fill="#000000" fill-opacity="0.0" clip-path="url(#id_0)" d="M202.63708 294.8385C202.63708 296.49533 201.29393 297.8385 199.63708 297.8385C197.98022 297.8385 196.63708 296.49533 196.63708 294.8385C196.63708 293.18164 197.98022 291.8385 199.63708 291.8385C201.29393 291.8385 202.63708 293.18164 202.63708 294.8385Z" fill-rule="nonzero"/><path fill="#000000" fill-opacity="0.0" clip-path="url(#id_0)" d="M206.5697 293.92007C206.5697 295.57693 205.22655 296.92007 203.5697 296.92007C201.91284 296.92007 200.5697 295.57693 200.5697 293.92007C200.5697 292.2632 201.91284 290.92007 203.5697 290.92007C205.22655 290.92007 206.5697 292.2632 206.5697 293.92007Z" fill-rule="nonzero"/><path fill="#000000" fill-opacity="0.0" clip-path="url(#id_0)" d="M210.21072 293.86282C210.21072 295.51968 208.86758 296.86282 207.21072 296.86282C205.55388 296.86282 204.21072 295.51968 204.21072 293.86282C204.21072 292.20596 205.55388 290.86282 207.21072 290.86282C208.86758 290.86282 210.21072 292.20596 210.21072 293.86282Z" fill-rule="nonzero"/><path fill="#000000" fill-opacity="0.0" clip-path="url(#id_0)" d="M213.60045 293.93164C213.60045 295.5885 212.25731 296.93164 210.60045 296.93164C208.94359 296.93164 207.60045 295.5885 207.60045 293.93164C207.60045 292.27478 208.94359 290.93164 210.60045 290.93164C212.25731 290.93164 213.60045 292.27478 213.60045 293.93164Z" fill-rule="nonzero"/><path fill="#000000" fill-opacity="0.0" clip-path="url(#id_0)" d="M216.77132 294.05927C216.77132 295.7161 215.42818 297.05927 213.77132 297.05927C212.11447 297.05927 210.77132 295.7161 210.77132 294.05927C210.77132 292.4024 212.11447 291.05927 213.77132 291.05927C215.42818 291.05927 216.77132 292.4024 216.77132 294.05927Z" fill-rule="nonzero"/><path fill="#000000" fill-opacity="0.0" clip-path="url(#id_0)" d="M219.7499 290.39822C219.7499 292.05505 218.40675 293.39822 216.7499 293.39822C215.09305 293.39822 213.7499 292.05505 213.7499 290.39822C213.7499 288.74136 215.09305 287.39822 216.7499 287.39822C218.40675 287.39822 219.7499 288.74136 219.7499 290.39822Z" fill-rule="nonzero"/><path fill="#000000" fill-opacity="0.0" clip-path="url(#id_0)" d="M222.55817 290.47684C222.55817 292.1337 221.21503 293.47684 219.55817 293.47684C217.90132 293.47684 216.55817 292.1337 216.55817 290.47684C216.55817 288.81998 217.90132 287.47684 219.55817 287.47684C221.21503 287.47684 222.55817 288.81998 222.55817 290.47684Z" fill-rule="nonzero"/><path fill="#000000" fill-opacity="0.0" clip-path="url(#id_0)" d="M225.21457 290.52094C225.21457 292.1778 223.87143 293.52094 222.21457 293.52094C220.55772 293.52094 219.21457 292.1778 219.21457 290.52094C219.21457 288.86407 220.55772 287.52094 222.21457 287.52094C223.87143 287.52094 225.21457 288.86407 225.21457 290.52094Z" fill-rule="nonzero"/><path fill="#000000" fill-opacity="0.0" clip-path="url(#id_0)" d="M227.73468 290.57324C227.73468 292.23007 226.39154 293.57324 224.73468 293.57324C223.07784 293.57324 221.73468 292.23007 221.73468 290.57324C221.73468 288.91638 223.07784 287.57324 224.73468 287.57324C226.39154 287.57324 227.73468 288.91638 227.73468 290.57324Z" fill-rule="nonzero"/><path fill="#000000" fill-opacity="0.0" clip-path="url(#id_0)" d="M230.13182 289.72397C230.13182 291.38083 228.78867 292.72397 227.13182 292.72397C225.47496 292.72397 224.13182 291.38083 224.13182 289.72397C224.13182 288.0671 225.47496 286.72397 227.13182 286.72397C228.78867 286.72397 230.13182 288.0671 230.13182 289.72397Z" fill-rule="nonzero"/><path fill="#000000" fill-opacity="0.0" clip-path="url(#id_0)" d="M232.41742 289.94144C232.41742 291.5983 231.07426 292.94144 229.41742 292.94144C227.76056 292.94144 226.41742 291.5983 226.41742 289.94144C226.41742 288.28458 227.76056 286.94144 229.41742 286.94144C231.07426 286.94144 232.41742 288.28458 232.41742 289.94144Z" fill-rule="nonzero"/><path fill="#000000" fill-opacity="0.0" clip-path="url(#id_0)" d="M234.6014 290.71863C234.6014 292.3755 233.25826 293.71863 231.6014 293.71863C229.94453 293.71863 228.6014 292.3755 228.6014 290.71863C228.6014 289.06177 229.94453 287.71863 231.6014 287.71863C233.25826 287.71863 234.6014 289.06177 234.6014 290.71863Z" fill-rule="nonzero"/><path fill="#000000" fill-opacity="0.0" clip-path="url(#id_0)" d="M236.69241 290.4951C236.69241 292.15195 235.34926 293.4951 233.69241 293.4951C232.03555 293.4951 230.69241 292.15195 230.69241 290.4951C230.69241 288.83823 232.03555 287.4951 233.69241 287.4951C235.34926 287.4951 236.69241 288.83823 236.69241 290.4951Z" fill-rule="nonzero"/><path fill="#000000" fill-opacity="0.0" clip-path="url(#id_0)" d="M238.69806 289.97342C238.69806 291.63028 237.3549 292.97342 235.69806 292.97342C234.0412 292.97342 232.69806 291.63028 232.69806 289.97342C232.69806 288.3166 234.0412 286.97342 235.69806 286.97342C237.3549 286.97342 238.69806 288.3166 238.69806 289.97342Z" fill-rule="nonzero"/><path fill="#000000" fill-opacity="0.0" clip-path="url(#id_0)" d="M240.62503 288.83026C240.62503 290.48712 239.28188 291.83026 237.62503 291.83026C235.96817 291.83026 234.62503 290.48712 234.62503 288.83026C234.62503 287.1734 235.96817 285.83026 237.62503 285.83026C239.28188 285.83026 240.62503 287.1734 240.62503 288.83026Z" fill-rule="nonzero"/><path fill="#000000" fill-opacity="0.0" clip-path="url(#id_0)" d="M242.47926 289.23813C242.47926 290.89496 241.13611 292.23813 239.47926 292.23813C237.8224 292.23813 236.47926 290.89496 236.47926 289.23813C236.47926 287.58127 237.8224 286.23813 239.47926 286.23813C241.13611 286.23813 242.47926 287.58127 242.47926 289.23813Z" fill-rule="nonzero"/><path fill="#000000" fill-opacity="0.0" clip-path="url(#id_0)" d="M244.26605 289.38644C244.26605 291.0433 242.92291 292.38644 241.26605 292.38644C239.6092 292.38644 238.26605 291.0433 238.26605 289.38644C238.26605 287.72958 239.6092 286.38644 241.26605 286.38644C242.92291 286.38644 244.26605 287.72958 244.26605 289.38644Z" fill-rule="nonzero"/><path fill="#000000" fill-opacity="0.0" clip-path="url(#id_0)" d="M245.99014 288.3794C245.99014 290.03625 244.647 291.3794 242.99014 291.3794C241.3333 291.3794 239.99014 290.03625 239.99014 288.3794C239.99014 286.72253 241.3333 285.3794 242.99014 285.3794C244.647 285.3794 245.99014 286.72253 245.99014 288.3794Z" fill-rule="nonzero"/><path fill="#000000" fill-opacity="0.0" clip-path="url(#id_0)" d="M247.65578 288.34323C247.65578 290.0001 246.31264 291.34323 244.65578 291.34323C242.99892 291.34323 241.65578 290.0001 241.65578 288.34323C241.65578 286.68637 242.99892 285.34323 244.65578 285.34323C246.31264 285.34323 247.65578 286.68637 247.65578 288.34323Z" fill-rule="nonzero"/><path fill="#000000" fill-opacity="0.0" clip-path="url(#id_0)" d="M249.26678 288.84015C249.26678 290.49698 247.92365 291.84015 246.26678 291.84015C244.60994 291.84015 243.26678 290.49698 243.26678 288.84015C243.26678 287.1833 244.60994 285.84015 246.26678 285.84015C247.92365 285.84015 249.26678 287.1833 249.26678 288.84015Z" fill-rule="nonzero"/><path fill="#000000" fill-opacity="0.0" clip-path="url(#id_0)" d="M250.82664 289.1232C250.82664 290.78006 249.4835 292.1232 247.82664 292.1232C246.1698 292.1232 244.82664 290.78006 244.82664 289.1232C244.82664 287.46634 246.1698 286.1232 247.82664 286.1232C249.4835 286.1232 250.82664 287.46634 250.82664 289.1232Z" fill-rule="nonzero"/><path fill="#000000" fill-opacity="0.0" clip-path="url(#id_0)" d="M252.3385 282.55783C252.3385 284.21466 250.99536 285.55783 249.3385 285.55783C247.68166 285.55783 246.3385 284.21466 246.3385 282.55783C246.3385 280.90097 247.68166 279.55783 249.3385 279.55783C250.99536 279.55783 252.3385 280.90097 252.3385 282.55783Z" fill-rule="nonzero"/><path fill="#000000" fill-opacity="0.0" clip-path="url(#id_0)" d="M253.80522 283.23602C253.80522 284.89288 252.46208 286.23602 250.80522 286.23602C249.14838 286.23602 247.80522 284.89288 247.80522 283.23602C247.80522 281.5792 249.14838 280.23602 250.80522 280.23602C252.46208 280.23602 253.80522 281.5792 253.80522 283.23602Z" fill-rule="nonzero"/><path fill="#000000" fill-opacity="0.0" clip-path="url(#id_0)" d="M255.22943 283.2885C255.22943 284.94537 253.88628 286.2885 252.22943 286.2885C250.57257 286.2885 249.22943 284.94537 249.22943 283.2885C249.22943 281.63165 250.57257 280.2885 252.22943 280.2885C253.88628 280.2885 255.22943 281.63165 255.22943 283.2885Z" fill-rule="nonzero"/><path fill="#000000" fill-opacity="0.0" clip-path="url(#id_0)" d="M265.34323 283.05695C265.34323 284.7138 264.0001 286.05695 262.34323 286.05695C260.68637 286.05695 259.34323 284.7138 259.34323 283.05695C259.34323 281.4001 260.68637 280.05695 262.34323 280.05695C264.0001 280.05695 265.34323 281.4001 265.34323 283.05695Z" fill-rule="nonzero"/><path fill="#000000" fill-opacity="0.0" clip-path="url(#id_0)" d="M271.7608 275.37204C271.7608 277.0289 270.41766 278.37204 268.7608 278.37204C267.10394 278.37204 265.7608 277.0289 265.7608 275.37204C265.7608 273.7152 267.10394 272.37204 268.7608 272.37204C270.41766 272.37204 271.7608 273.7152 271.7608 275.37204Z" fill-rule="nonzero"/><path fill="#000000" fill-opacity="0.0" clip-path="url(#id_0)" d="M272.7534 277.17377C272.7534 278.83063 271.41025 280.17377 269.7534 280.17377C268.09653 280.17377 266.7534 278.83063 266.7534 277.17377C266.7534 275.5169 268.09653 274.17377 269.7534 274.17377C271.41025 274.17377 272.7534 275.5169 272.7534 277.17377Z" fill-rule="nonzero"/><path fill="#000000" fill-opacity="0.0" clip-path="url(#id_0)" d="M273.72632 278.26822C273.72632 279.92505 272.38318 281.26822 270.72632 281.26822C269.06946 281.26822 267.72632 279.92505 267.72632 278.26822C267.72632 276.61136 269.06946 275.26822 270.72632 275.26822C272.38318 275.26822 273.72632 276.61136 273.72632 278.26822Z" fill-rule="nonzero"/><path fill="#000000" fill-opacity="0.0" clip-path="url(#id_0)" d="M274.68036 278.7573C274.68036 280.41415 273.33722 281.7573 271.68036 281.7573C270.0235 281.7573 268.68036 280.41415 268.68036 278.7573C268.68036 277.10043 270.0235 275.7573 271.68036 275.7573C273.33722 275.7573 274.68036 277.10043 274.68036 278.7573Z" fill-rule="nonzero"/><path fill="#000000" fill-opacity="0.0" clip-path="url(#id_0)" d="M275.6162 275.47244C275.6162 277.12927 274.27307 278.47244 272.6162 278.47244C270.95935 278.47244 269.6162 277.12927 269.6162 275.47244C269.6162 273.81558 270.95935 272.47244 272.6162 272.47244C274.27307 272.47244 275.6162 273.81558 275.6162 275.47244Z" fill-rule="nonzero"/><path fill="#000000" fill-opacity="0.0" clip-path="url(#id_0)" d="M280.88535 278.40137C280.88535 280.05823 279.5422 281.40137 277.88535 281.40137C276.2285 281.40137 274.88535 280.05823 274.88535 278.40137C274.88535 276.7445 276.2285 275.40137 277.88535 275.40137C279.5422 275.40137 280.88535 276.7445 280.88535 278.40137Z" fill-rule="nonzero"/><path fill="#000000" fill-opacity="0.0" clip-path="url(#id_0)" d="M281.71112 277.59055C281.71112 279.2474 280.36795 280.59055 278.71112 280.59055C277.05426 280.59055 275.71112 279.2474 275.71112 277.59055C275.71112 275.93372 277.05426 274.59055 278.71112 274.59055C280.36795 274.59055 281.71112 275.93372 281.71112 277.59055Z" fill-rule="nonzero"/><path fill="#000000" fill-opacity="0.0" clip-path="url(#id_0)" d="M282.52322 276.9593C282.52322 278.61615 281.18008 279.9593 279.52322 279.9593C277.86636 279.9593 276.52322 278.61615 276.52322 276.9593C276.52322 275.30246 277.86636 273.9593 279.52322 273.9593C281.18008 273.9593 282.52322 275.30246 282.52322 276.9593Z" fill-rule="nonzero"/><path fill="#000000" fill-opacity="0.0" clip-path="url(#id_0)" d="M283.3221 278.06863C283.3221 279.7255 281.97897 281.06863 280.3221 281.06863C278.66525 281.06863 277.3221 279.7255 277.3221 278.06863C277.3221 276.41177 278.66525 275.06863 280.3221 275.06863C281.97897 275.06863 283.3221 276.41177 283.3221 278.06863Z" fill-rule="nonzero"/><path fill="#000000" fill-opacity="0.0" clip-path="url(#id_0)" d="M284.10825 279.18787C284.10825 280.84473 282.7651 282.18787 281.10825 282.18787C279.4514 282.18787 278.10825 280.84473 278.10825 279.18787C278.10825 277.53104 279.4514 276.18787 281.10825 276.18787C282.7651 276.18787 284.10825 277.53104 284.10825 279.18787Z" fill-rule="nonzero"/><path fill="#000000" fill-opacity="0.0" clip-path="url(#id_0)" d="M284.882 279.74774C284.882 281.4046 283.53882 282.74774 281.882 282.74774C280.22513 282.74774 278.882 281.4046 278.882 279.74774C278.882 278.09088 280.22513 276.74774 281.882 276.74774C283.53882 276.74774 284.882 278.09088 284.882 279.74774Z" fill-rule="nonzero"/><path fill="#000000" fill-opacity="0.0" clip-path="url(#id_0)" d="M285.6437 263.9544C285.6437 265.61127 284.30057 266.9544 282.6437 266.9544C280.98688 266.9544 279.6437 265.61127 279.6437 263.9544C279.6437 262.29755 280.98688 260.9544 282.6437 260.9544C284.30057 260.9544 285.6437 262.29755 285.6437 263.9544Z" fill-rule="nonzero"/><path fill="#000000" fill-opacity="0.0" clip-path="url(#id_0)" d="M286.39383 267.7545C286.39383 269.41135 285.0507 270.7545 283.39383 270.7545C281.73697 270.7545 280.39383 269.41135 280.39383 267.7545C280.39383 266.09763 281.73697 264.7545 283.39383 264.7545C285.0507 264.7545 286.39383 266.09763 286.39383 267.7545Z" fill-rule="nonzero"/><path fill="#000000" fill-opacity="0.0" clip-path="url(#id_0)" d="M287.13266 268.84433C287.13266 270.5012 285.78952 271.84433 284.13266 271.84433C282.4758 271.84433 281.13266 270.5012 281.13266 268.84433C281.13266 267.18747 282.4758 265.84433 284.13266 265.84433C285.78952 265.84433 287.13266 267.18747 287.13266 268.84433Z" fill-rule="nonzero"/><path fill="#000000" fill-opacity="0.0" clip-path="url(#id_0)" d="M295.22733 273.3241C295.22733 274.98096 293.8842 276.3241 292.22733 276.3241C290.57047 276.3241 289.22733 274.98096 289.22733 273.3241C289.22733 271.66724 290.57047 270.3241 292.22733 270.3241C293.8842 270.3241 295.22733 271.66724 295.22733 273.3241Z" fill-rule="nonzero"/><path fill="#000000" fill-opacity="0.0" clip-path="url(#id_0)" d="M318.55197 259.67743C318.55197 261.3343 317.2088 262.67743 315.55197 262.67743C313.8951 262.67743 312.55197 261.3343 312.55197 259.67743C312.55197 258.0206 313.8951 256.67743 315.55197 256.67743C317.2088 256.67743 318.55197 258.0206 318.55197 259.67743Z" fill-rule="nonzero"/><path fill="#000000" fill-opacity="0.0" clip-path="url(#id_0)" d="M318.93732 260.95947C318.93732 262.61633 317.59418 263.95947 315.93732 263.95947C314.28046 263.95947 312.93732 262.61633 312.93732 260.95947C312.93732 259.3026 314.28046 257.95947 315.93732 257.95947C317.59418 257.95947 318.93732 259.3026 318.93732 260.95947Z" fill-rule="nonzero"/><path fill="#000000" fill-opacity="0.0" clip-path="url(#id_0)" d="M319.31964 238.86316C319.31964 240.52002 317.9765 241.86316 316.31964 241.86316C314.6628 241.86316 313.31964 240.52002 313.31964 238.86316C313.31964 237.20631 314.6628 235.86316 316.31964 235.86316C317.9765 235.86316 319.31964 237.20631 319.31964 238.86316Z" fill-rule="nonzero"/><path fill="#000000" fill-opacity="0.0" clip-path="url(#id_0)" d="M319.69907 242.25941C319.69907 243.91626 318.3559 245.25941 316.69907 245.25941C315.0422 245.25941 313.69907 243.91626 313.69907 242.25941C313.69907 240.60255 315.0422 239.25941 316.69907 239.25941C318.3559 239.25941 319.69907 240.60255 319.69907 242.25941Z" fill-rule="nonzero"/><path fill="#000000" fill-opacity="0.0" clip-path="url(#id_0)" d="M320.07553 243.70515C320.07553 245.36201 318.7324 246.70515 317.07553 246.70515C315.41867 246.70515 314.07553 245.36201 314.07553 243.70515C314.07553 242.04831 315.41867 240.70515 317.07553 240.70515C318.7324 240.70515 320.07553 242.04831 320.07553 243.70515Z" fill-rule="nonzero"/><path fill="#000000" fill-opacity="0.0" clip-path="url(#id_0)" d="M320.44916 247.80229C320.44916 249.45914 319.10602 250.80229 317.44916 250.80229C315.7923 250.80229 314.44916 249.45914 314.44916 247.80229C314.44916 246.14543 315.7923 244.80229 317.44916 244.80229C319.10602 244.80229 320.44916 246.14543 320.44916 247.80229Z" fill-rule="nonzero"/><path fill="#000000" fill-opacity="0.0" clip-path="url(#id_0)" d="M320.81998 249.43037C320.81998 251.08722 319.47684 252.43037 317.81998 252.43037C316.16312 252.43037 314.81998 251.08722 314.81998 249.43037C314.81998 247.77351 316.16312 246.43037 317.81998 246.43037C319.47684 246.43037 320.81998 247.77351 320.81998 249.43037Z" fill-rule="nonzero"/><path fill="#000000" fill-opacity="0.0" clip-path="url(#id_0)" d="M340.1215 220.73427C340.1215 222.39111 338.77835 223.73427 337.1215 223.73427C335.46463 223.73427 334.1215 222.39111 334.1215 220.73427C334.1215 219.07741 335.46463 217.73427 337.1215 217.73427C338.77835 217.73427 340.1215 219.07741 340.1215 220.73427Z" fill-rule="nonzero"/><path fill="#000000" fill-opacity="0.0" clip-path="url(#id_0)" d="M352.99265 231.69627C352.99265 233.35313 351.6495 234.69627 349.99265 234.69627C348.3358 234.69627 346.99265 233.35313 346.99265 231.69627C346.99265 230.03941 348.3358 228.69627 349.99265 228.69627C351.6495 228.69627 352.99265 230.03941 352.99265 231.69627Z" fill-rule="nonzero"/><path fill="#000000" fill-opacity="0.0" clip-path="url(#id_0)" d="M357.57056 199.54413C357.57056 201.20097 356.22742 202.54413 354.57056 202.54413C352.91373 202.54413 351.57056 201.20097 351.57056 199.54413C351.57056 197.88727 352.91373 196.54413 354.57056 196.54413C356.22742 196.54413 357.57056 197.88727 357.57056 199.54413Z" fill-rule="nonzero"/><path fill="#000000" fill-opacity="0.0" clip-path="url(#id_0)" d="M387.04797 175.85893C387.04797 177.51578 385.70483 178.85893 384.04797 178.85893C382.3911 178.85893 381.04797 177.51578 381.04797 175.85893C381.04797 174.20207 382.3911 172.85893 384.04797 172.85893C385.70483 172.85893 387.04797 174.20207 387.04797 175.85893Z" fill-rule="nonzero"/><path fill="#000000" fill-opacity="0.0" clip-path="url(#id_0)" d="M395.89362 126.95427C395.89362 128.61113 394.55048 129.95427 392.89362 129.95427C391.23676 129.95427 389.89362 128.61113 389.89362 126.95427C389.89362 125.29742 391.23676 123.95427 392.89362 123.95427C394.55048 123.95427 395.89362 125.29742 395.89362 126.95427Z" fill-rule="nonzero"/><path fill="#000000" fill-opacity="0.0" clip-path="url(#id_0)" d="M421.1033 93.20191C421.1033 94.85877 419.76016 96.20191 418.1033 96.20191C416.44644 96.20191 415.1033 94.85877 415.1033 93.20191C415.1033 91.54506 416.44644 90.20191 418.1033 90.20191C419.76016 90.20191 421.1033 91.54506 421.1033 93.20191Z" fill-rule="nonzero"/><path fill="#000000" fill-opacity="0.0" clip-path="url(#id_0)" d="M442.38092 88.8872C442.38092 90.54405 441.03778 91.8872 439.38092 91.8872C437.72406 91.8872 436.38092 90.54405 436.38092 88.8872C436.38092 87.23034 437.72406 85.8872 439.38092 85.8872C441.03778 85.8872 442.38092 87.23034 442.38092 88.8872Z" fill-rule="nonzero"/><path fill="#000000" fill-opacity="0.0" clip-path="url(#id_0)" d="M455.15863 95.85505C455.15863 97.5119 453.8155 98.85505 452.15863 98.85505C450.50177 98.85505 449.15863 97.5119 449.15863 95.85505C449.15863 94.1982 450.50177 92.85505 452.15863 92.85505C453.8155 92.85505 455.15863 94.1982 455.15863 95.85505Z" fill-rule="nonzero"/><path fill="#000000" fill-opacity="0.0" clip-path="url(#id_0)" d="M472.198 89.92626C472.198 91.583115 470.85486 92.92626 469.198 92.92626C467.54114 92.92626 466.198 91.583115 466.198 89.92626C466.198 88.26941 467.54114 86.92626 469.198 86.92626C470.85486 86.92626 472.198 88.26941 472.198 89.92626Z" fill-rule="nonzero"/><path fill="#000000" fill-opacity="0.0" clip-path="url(#id_0)" d="M489.21396 93.0239C489.21396 94.68076 487.87082 96.0239 486.21396 96.0239C484.5571 96.0239 483.21396 94.68076 483.21396 93.0239C483.21396 91.36705 484.5571 90.0239 486.21396 90.0239C487.87082 90.0239 489.21396 91.36705 489.21396 93.0239Z" fill-rule="nonzero"/><path fill="#000000" fill-opacity="0.0" clip-path="url(#id_0)" d="M499.80164 86.50395C499.80164 88.160805 498.4585 89.50395 496.80164 89.50395C495.1448 89.50395 493.80164 88.160805 493.80164 86.50395C493.80164 84.84709 495.1448 83.50395 496.80164 83.50395C498.4585 83.50395 499.80164 84.84709 499.80164 86.50395Z" fill-rule="nonzero"/><path fill="#000000" fill-opacity="0.0" clip-path="url(#id_0)" d="M523.2693 92.890396C523.2693 94.54725 521.92615 95.890396 520.2693 95.890396C518.6124 95.890396 517.2693 94.54725 517.2693 92.890396C517.2693 91.23354 518.6124 89.890396 520.2693 89.890396C521.92615 89.890396 523.2693 91.23354 523.2693 92.890396Z" fill-rule="nonzero"/><path fill="#000000" fill-opacity="0.0" clip-path="url(#id_0)" d="M528.45 92.53438C528.45 94.19123 527.1069 95.53438 525.45 95.53438C523.79315 95.53438 522.45 94.19123 522.45 92.53438C522.45 90.877525 523.79315 89.53438 525.45 89.53438C527.1069 89.53438 528.45 90.877525 528.45 92.53438Z" fill-rule="nonzero"/><path fill="#000000" d="M270.54688 346.6844L271.60938 346.59064Q271.6875 347.2469 271.96875 347.65314Q272.25 348.0594 272.82812 348.325Q273.42188 348.575 274.15625 348.575Q274.79688 348.575 275.29688 348.3875Q275.79688 348.1844 276.03125 347.85626Q276.28125 347.5125 276.28125 347.1219Q276.28125 346.71564 276.04688 346.41876Q275.8125 346.10626 275.28125 345.90314Q274.92188 345.7625 273.73438 345.48126Q272.5625 345.2 272.09375 344.95Q271.46875 344.6219 271.17188 344.15314Q270.875 343.66876 270.875 343.075Q270.875 342.4344 271.23438 341.8719Q271.60938 341.29376 272.3125 341.0125Q273.03125 340.71564 273.89062 340.71564Q274.84375 340.71564 275.57812 341.02814Q276.3125 341.325 276.70312 341.9344Q277.09375 342.52814 277.125 343.27814L276.03125 343.35626Q275.9375 342.54376 275.42188 342.1375Q274.92188 341.71564 273.9375 341.71564Q272.90625 341.71564 272.4375 342.09064Q271.96875 342.46564 271.96875 342.9969Q271.96875 343.46564 272.29688 343.7625Q272.625 344.0594 274.0 344.3719Q275.39062 344.6844 275.90625 344.91876Q276.65625 345.27814 277.01562 345.8094Q277.375 346.325 277.375 347.02814Q277.375 347.71564 276.98438 348.325Q276.59375 348.91876 275.85938 349.2625Q275.125 349.59064 274.20312 349.59064Q273.03125 349.59064 272.23438 349.2625Q271.45312 348.91876 271.0 348.23126Q270.5625 347.54376 270.54688 346.6844ZM278.79688 342.075L278.79688 340.85626L279.85938 340.85626L279.85938 342.075L278.79688 342.075ZM278.79688 349.45L278.79688 343.23126L279.85938 343.23126L279.85938 349.45L278.79688 349.45ZM281.23438 349.45L281.23438 348.59064L285.20312 344.04376Q284.51562 344.075 284.0 344.075L281.46875 344.075L281.46875 343.23126L286.5625 343.23126L286.5625 343.91876L283.1875 347.8719L282.53125 348.59064Q283.25 348.54376 283.85938 348.54376L286.75 348.54376L286.75 349.45L281.23438 349.45ZM291.04688 347.45L292.14062 347.575Q291.89062 348.52814 291.1875 349.0594Q290.48438 349.59064 289.40625 349.59064Q288.04688 349.59064 287.23438 348.7469Q286.4375 347.90314 286.4375 346.3875Q286.4375 344.825 287.25 343.96564Q288.0625 343.09064 289.34375 343.09064Q290.59375 343.09064 291.375 343.9344Q292.17188 344.77814 292.17188 346.325Q292.17188 346.41876 292.17188 346.60626L287.53125 346.60626Q287.59375 347.6375 288.10938 348.1844Q288.625 348.71564 289.40625 348.71564Q289.98438 348.71564 290.39062 348.41876Q290.8125 348.10626 291.04688 347.45ZM287.59375 345.7469L291.0625 345.7469Q291.0 344.95 290.67188 344.5594Q290.15625 343.95 289.35938 343.95Q288.625 343.95 288.125 344.4344Q287.64062 344.91876 287.59375 345.7469ZM298.8125 351.98126Q297.9375 350.8719 297.32812 349.40314Q296.73438 347.91876 296.73438 346.34064Q296.73438 344.95 297.17188 343.66876Q297.70312 342.1844 298.8125 340.71564L299.5625 340.71564Q298.85938 341.9344 298.625 342.45Q298.26562 343.2625 298.0625 344.1375Q297.8125 345.23126 297.8125 346.34064Q297.8125 349.16876 299.5625 351.98126L298.8125 351.98126ZM301.76562 349.45L300.78125 349.45L300.78125 340.85626L301.84375 340.85626L301.84375 343.91876Q302.51562 343.09064 303.54688 343.09064Q304.125 343.09064 304.625 343.325Q305.14062 343.54376 305.46875 343.96564Q305.8125 344.3875 306.0 344.98126Q306.1875 345.575 306.1875 346.2469Q306.1875 347.84064 305.39062 348.71564Q304.59375 349.59064 303.5 349.59064Q302.39062 349.59064 301.76562 348.66876L301.76562 349.45ZM301.75 346.29376Q301.75 347.40314 302.0625 347.90314Q302.5625 348.71564 303.40625 348.71564Q304.09375 348.71564 304.59375 348.1219Q305.10938 347.52814 305.10938 346.325Q305.10938 345.10626 304.625 344.52814Q304.14062 343.95 303.45312 343.95Q302.76562 343.95 302.25 344.5594Q301.75 345.15314 301.75 346.29376ZM307.75 351.84064L307.625 350.85626Q307.96875 350.95 308.23438 350.95Q308.57812 350.95 308.78125 350.825Q309.0 350.71564 309.14062 350.5125Q309.23438 350.34064 309.46875 349.71564Q309.48438 349.6375 309.5625 349.46564L307.1875 343.23126L308.32812 343.23126L309.625 346.825Q309.875 347.5125 310.07812 348.27814Q310.26562 347.54376 310.51562 346.85626L311.84375 343.23126L312.89062 343.23126L310.53125 349.5594Q310.14062 350.575 309.9375 350.96564Q309.65625 351.4969 309.28125 351.73126Q308.92188 351.98126 308.42188 351.98126Q308.125 351.98126 307.75 351.84064ZM315.09375 348.5125L315.25 349.4344Q314.79688 349.52814 314.45312 349.52814Q313.875 349.52814 313.5625 349.35626Q313.25 349.16876 313.10938 348.8719Q312.98438 348.575 312.98438 347.6219L312.98438 344.04376L312.21875 344.04376L312.21875 343.23126L312.98438 343.23126L312.98438 341.6844L314.03125 341.0594L314.03125 343.23126L315.09375 343.23126L315.09375 344.04376L314.03125 344.04376L314.03125 347.6844Q314.03125 348.1375 314.07812 348.2625Q314.14062 348.3875 314.26562 348.46564Q314.39062 348.54376 314.625 348.54376Q314.8125 348.54376 315.09375 348.5125ZM320.04688 347.45L321.14062 347.575Q320.89062 348.52814 320.1875 349.0594Q319.48438 349.59064 318.40625 349.59064Q317.04688 349.59064 316.23438 348.7469Q315.4375 347.90314 315.4375 346.3875Q315.4375 344.825 316.25 343.96564Q317.0625 343.09064 318.34375 343.09064Q319.59375 343.09064 320.375 343.9344Q321.17188 344.77814 321.17188 346.325Q321.17188 346.41876 321.17188 346.60626L316.53125 346.60626Q316.59375 347.6375 317.10938 348.1844Q317.625 348.71564 318.40625 348.71564Q318.98438 348.71564 319.39062 348.41876Q319.8125 348.10626 320.04688 347.45ZM316.59375 345.7469L320.0625 345.7469Q320.0 344.95 319.67188 344.5594Q319.15625 343.95 318.35938 343.95Q317.625 343.95 317.125 344.4344Q316.64062 344.91876 316.59375 345.7469ZM322.375 347.59064L323.40625 347.4344Q323.5 348.0594 323.89062 348.3875Q324.29688 348.71564 325.03125 348.71564Q325.75 348.71564 326.09375 348.4344Q326.45312 348.1375 326.45312 347.73126Q326.45312 347.3719 326.14062 347.16876Q325.92188 347.02814 325.0625 346.8094Q323.90625 346.5125 323.45312 346.3094Q323.01562 346.09064 322.78125 345.71564Q322.54688 345.34064 322.54688 344.8719Q322.54688 344.46564 322.73438 344.10626Q322.92188 343.7469 323.25 343.5125Q323.5 343.34064 323.92188 343.21564Q324.34375 343.09064 324.84375 343.09064Q325.5625 343.09064 326.10938 343.3094Q326.67188 343.5125 326.9375 343.8719Q327.20312 344.23126 327.29688 344.825L326.26562 344.96564Q326.20312 344.4969 325.85938 344.23126Q325.53125 343.95 324.90625 343.95Q324.1875 343.95 323.875 344.2Q323.5625 344.4344 323.5625 344.7625Q323.5625 344.96564 323.6875 345.1219Q323.82812 345.29376 324.09375 345.40314Q324.25 345.46564 325.03125 345.66876Q326.15625 345.98126 326.59375 346.16876Q327.03125 346.35626 327.28125 346.71564Q327.53125 347.075 327.53125 347.6219Q327.53125 348.15314 327.21875 348.6219Q326.92188 349.075 326.34375 349.34064Q325.76562 349.59064 325.03125 349.59064Q323.8125 349.59064 323.17188 349.09064Q322.54688 348.575 322.375 347.59064ZM330.48438 351.98126L329.73438 351.98126Q331.48438 349.16876 331.48438 346.34064Q331.48438 345.2469 331.23438 344.15314Q331.03125 343.27814 330.67188 342.46564Q330.4375 341.95 329.73438 340.71564L330.48438 340.71564Q331.57812 342.1844 332.10938 343.66876Q332.5625 344.95 332.5625 346.34064Q332.5625 347.91876 331.95312 349.40314Q331.34375 350.8719 330.48438 351.98126Z" fill-rule="nonzero"/><path fill="#000000" d="M27.690638 269.30835L27.534388 268.2771Q28.159388 268.18335 28.487513 267.79272Q28.815638 267.38647 28.815638 266.6521Q28.815638 265.93335 28.534388 265.5896Q28.237513 265.23022 27.831263 265.23022Q27.471888 265.23022 27.268763 265.54272Q27.128138 265.76147 26.909388 266.62085Q26.612513 267.7771 26.409388 268.23022Q26.190638 268.66772 25.815638 268.9021Q25.440638 269.13647 24.971888 269.13647Q24.565638 269.13647 24.206263 268.94897Q23.846888 268.76147 23.612513 268.43335Q23.440638 268.18335 23.315638 267.76147Q23.190638 267.3396 23.190638 266.8396Q23.190638 266.12085 23.409388 265.57397Q23.612513 265.01147 23.971888 264.74585Q24.331263 264.48022 24.925013 264.38647L25.065638 265.41772Q24.596888 265.48022 24.331263 265.82397Q24.050013 266.1521 24.050013 266.7771Q24.050013 267.49585 24.300013 267.80835Q24.534388 268.12085 24.862513 268.12085Q25.065638 268.12085 25.221888 267.99585Q25.393763 267.85522 25.503138 267.5896Q25.565638 267.43335 25.768763 266.6521Q26.081263 265.5271 26.268763 265.0896Q26.456263 264.6521 26.815638 264.4021Q27.175013 264.1521 27.721888 264.1521Q28.253138 264.1521 28.721888 264.4646Q29.175013 264.76147 29.440638 265.3396Q29.690638 265.91772 29.690638 266.6521Q29.690638 267.87085 29.190638 268.51147Q28.675013 269.13647 27.690638 269.30835ZM31.940638 261.88647L23.331263 261.88647L23.331263 260.93335L24.128138 260.93335Q23.659388 260.5896 23.425013 260.16772Q23.190638 259.73022 23.190638 259.12085Q23.190638 258.32397 23.596888 257.7146Q24.003138 257.10522 24.753138 256.80835Q25.503138 256.49585 26.393763 256.49585Q27.346888 256.49585 28.112513 256.8396Q28.878138 257.16772 29.284388 257.82397Q29.690638 258.48022 29.690638 259.19897Q29.690638 259.73022 29.471888 260.1521Q29.237513 260.57397 28.909388 260.8396L31.940638 260.8396L31.940638 261.88647ZM26.471888 260.93335Q27.675013 260.93335 28.253138 260.44897Q28.815638 259.9646 28.815638 259.2771Q28.815638 258.57397 28.221888 258.07397Q27.628138 257.57397 26.378138 257.57397Q25.190638 257.57397 24.612513 258.05835Q24.018763 258.54272 24.018763 259.23022Q24.018763 259.9021 24.643763 260.41772Q25.268763 260.93335 26.471888 260.93335ZM27.550013 250.63646L27.675013 249.54271Q28.628138 249.79271 29.159388 250.49583Q29.690638 251.19896 29.690638 252.27708Q29.690638 253.63646 28.846888 254.44896Q28.003138 255.24583 26.487513 255.24583Q24.925013 255.24583 24.065638 254.43333Q23.190638 253.62083 23.190638 252.33958Q23.190638 251.08958 24.034388 250.30833Q24.878138 249.51146 26.425013 249.51146Q26.518763 249.51146 26.706263 249.51146L26.706263 254.15208Q27.737513 254.08958 28.284388 253.57396Q28.815638 253.05833 28.815638 252.27708Q28.815638 251.69896 28.518763 251.29271Q28.206263 250.87083 27.550013 250.63646ZM25.846888 254.08958L25.846888 250.62083Q25.050013 250.68333 24.659388 251.01146Q24.050013 251.52708 24.050013 252.32396Q24.050013 253.05833 24.534388 253.55833Q25.018763 254.04271 25.846888 254.08958ZM27.550013 243.63646L27.675013 242.54271Q28.628138 242.79271 29.159388 243.49583Q29.690638 244.19896 29.690638 245.27708Q29.690638 246.63646 28.846888 247.44896Q28.003138 248.24583 26.487513 248.24583Q24.925013 248.24583 24.065638 247.43333Q23.190638 246.62083 23.190638 245.33958Q23.190638 244.08958 24.034388 243.30833Q24.878138 242.51146 26.425013 242.51146Q26.518763 242.51146 26.706263 242.51146L26.706263 247.15208Q27.737513 247.08958 28.284388 246.57396Q28.815638 246.05833 28.815638 245.27708Q28.815638 244.69896 28.518763 244.29271Q28.206263 243.87083 27.550013 243.63646ZM25.846888 247.08958L25.846888 243.62083Q25.050013 243.68333 24.659388 244.01146Q24.050013 244.52708 24.050013 245.32396Q24.050013 246.05833 24.534388 246.55833Q25.018763 247.04271 25.846888 247.08958ZM29.550013 236.85521L28.768763 236.85521Q29.690638 237.44896 29.690638 238.58958Q29.690638 239.33958 29.284388 239.96458Q28.862513 240.58958 28.128138 240.93333Q27.393763 241.27708 26.440638 241.27708Q25.518763 241.27708 24.753138 240.96458Q23.987513 240.65208 23.596888 240.02708Q23.190638 239.40208 23.190638 238.63646Q23.190638 238.07396 23.425013 237.63646Q23.659388 237.19896 24.034388 236.91771L20.956263 236.91771L20.956263 235.87083L29.550013 235.87083L29.550013 236.85521ZM26.440638 240.18333Q27.643763 240.18333 28.237513 239.68333Q28.815638 239.18333 28.815638 238.49583Q28.815638 237.80833 28.253138 237.32396Q27.690638 236.83958 26.534388 236.83958Q25.253138 236.83958 24.659388 237.33958Q24.065638 237.82396 24.065638 238.54271Q24.065638 239.24583 24.643763 239.71458Q25.206263 240.18333 26.440638 240.18333ZM29.550013 226.80833L28.628138 226.80833Q29.690638 227.54271 29.690638 228.79271Q29.690638 229.33958 29.487513 229.82396Q29.268763 230.29271 28.956263 230.52708Q28.628138 230.76146 28.159388 230.85521Q27.862513 230.91771 27.175013 230.91771L23.331263 230.91771L23.331263 229.85521L26.784388 229.85521Q27.596888 229.85521 27.893763 229.79271Q28.300013 229.69896 28.550013 229.38646Q28.784388 229.05833 28.784388 228.57396Q28.784388 228.10521 28.550013 227.69896Q28.300013 227.27708 27.878138 227.10521Q27.456263 226.91771 26.659388 226.91771L23.331263 226.91771L23.331263 225.87083L29.550013 225.87083L29.550013 226.80833ZM31.940638 223.88646L23.331263 223.88646L23.331263 222.93333L24.128138 222.93333Q23.659388 222.58958 23.425013 222.16771Q23.190638 221.73021 23.190638 221.12083Q23.190638 220.32396 23.596888 219.71458Q24.003138 219.10521 24.753138 218.80833Q25.503138 218.49583 26.393763 218.49583Q27.346888 218.49583 28.112513 218.83958Q28.878138 219.16771 29.284388 219.82396Q29.690638 220.48021 29.690638 221.19896Q29.690638 221.73021 29.471888 222.15208Q29.237513 222.57396 28.909388 222.83958L31.940638 222.83958L31.940638 223.88646ZM26.471888 222.93333Q27.675013 222.93333 28.253138 222.44896Q28.815638 221.96458 28.815638 221.27708Q28.815638 220.57396 28.221888 220.07396Q27.628138 219.57396 26.378138 219.57396Q25.190638 219.57396 24.612513 220.05833Q24.018763 220.54271 24.018763 221.23021Q24.018763 221.90208 24.643763 222.41771Q25.268763 222.93333 26.471888 222.93333ZM26.440638 214.27708Q24.706263 214.27708 23.878138 213.32396Q23.190638 212.52708 23.190638 211.37083Q23.190638 210.08958 24.034388 209.27708Q24.862513 208.44896 26.346888 208.44896Q27.550013 208.44896 28.237513 208.80833Q28.925013 209.16771 29.315638 209.87083Q29.690638 210.55833 29.690638 211.37083Q29.690638 212.66771 28.862513 213.48021Q28.018763 214.27708 26.440638 214.27708ZM26.440638 213.19896Q27.628138 213.19896 28.221888 212.68333Q28.815638 212.15208 28.815638 211.37083Q28.815638 210.57396 28.221888 210.05833Q27.628138 209.54271 26.409388 209.54271Q25.253138 209.54271 24.659388 210.07396Q24.065638 210.58958 24.065638 211.37083Q24.065638 212.15208 24.659388 212.68333Q25.237513 213.19896 26.440638 213.19896ZM29.550013 205.16771L23.331263 207.52708L23.331263 206.41771L27.050013 205.07396Q27.659388 204.87083 28.300013 204.68333Q27.815638 204.54271 27.128138 204.29271L23.331263 202.90208L23.331263 201.82396L29.550013 204.18333L29.550013 205.16771ZM27.550013 197.63646L27.675013 196.54271Q28.628138 196.79271 29.159388 197.49583Q29.690638 198.19896 29.690638 199.27708Q29.690638 200.63646 28.846888 201.44896Q28.003138 202.24583 26.487513 202.24583Q24.925013 202.24583 24.065638 201.43333Q23.190638 200.62083 23.190638 199.33958Q23.190638 198.08958 24.034388 197.30833Q24.878138 196.51146 26.425013 196.51146Q26.518763 196.51146 26.706263 196.51146L26.706263 201.15208Q27.737513 201.08958 28.284388 200.57396Q28.815638 200.05833 28.815638 199.27708Q28.815638 198.69896 28.518763 198.29271Q28.206263 197.87083 27.550013 197.63646ZM25.846888 201.08958L25.846888 197.62083Q25.050013 197.68333 24.659388 198.01146Q24.050013 198.52708 24.050013 199.32396Q24.050013 200.05833 24.534388 200.55833Q25.018763 201.04271 25.846888 201.08958ZM29.550013 194.90208L23.331263 194.90208L23.331263 193.94896L24.268763 193.94896Q23.612513 193.58958 23.409388 193.29271Q23.190638 192.98021 23.190638 192.60521Q23.190638 192.07396 23.518763 191.52708L24.503138 191.88646Q24.268763 192.27708 24.268763 192.65208Q24.268763 193.01146 24.487513 193.29271Q24.690638 193.55833 25.065638 193.66771Q25.628138 193.85521 26.284388 193.85521L29.550013 193.85521L29.550013 194.90208ZM29.550013 186.91771L29.550013 187.90208L20.956263 187.90208L20.956263 186.83958L24.018763 186.83958Q23.190638 186.16771 23.190638 185.13646Q23.190638 184.55833 23.425013 184.05833Q23.643763 183.54271 24.065638 183.21458Q24.487513 182.87083 25.081263 182.68333Q25.675013 182.49583 26.346888 182.49583Q27.940638 182.49583 28.815638 183.29271Q29.690638 184.08958 29.690638 185.18333Q29.690638 186.29271 28.768763 186.91771L29.550013 186.91771ZM26.393763 186.93333Q27.503138 186.93333 28.003138 186.62083Q28.815638 186.12083 28.815638 185.27708Q28.815638 184.58958 28.221888 184.08958Q27.628138 183.57396 26.425013 183.57396Q25.206263 183.57396 24.628138 184.05833Q24.050013 184.54271 24.050013 185.23021Q24.050013 185.91771 24.659388 186.43333Q25.253138 186.93333 26.393763 186.93333ZM28.784388 176.82396Q29.284388 177.41771 29.487513 177.96458Q29.690638 178.49583 29.690638 179.12083Q29.690638 180.15208 29.190638 180.69896Q28.690638 181.24583 27.909388 181.24583Q27.456263 181.24583 27.081263 181.04271Q26.690638 180.83958 26.471888 180.49583Q26.237513 180.15208 26.128138 179.73021Q26.034388 179.43333 25.956263 178.79271Q25.815638 177.52708 25.596888 176.91771Q25.378138 176.91771 25.331263 176.91771Q24.675013 176.91771 24.409388 177.21458Q24.065638 177.62083 24.065638 178.41771Q24.065638 179.15208 24.331263 179.51146Q24.581263 179.87083 25.237513 180.04271L25.096888 181.07396Q24.440638 180.93333 24.034388 180.60521Q23.628138 180.27708 23.409388 179.66771Q23.190638 179.05833 23.190638 178.26146Q23.190638 177.46458 23.378138 176.96458Q23.565638 176.46458 23.846888 176.23021Q24.128138 175.99583 24.565638 175.90208Q24.831263 175.85521 25.534388 175.85521L26.940638 175.85521Q28.409388 175.85521 28.800013 175.79271Q29.190638 175.71458 29.550013 175.51146L29.550013 176.62083Q29.221888 176.77708 28.784388 176.82396ZM26.425013 176.91771Q26.659388 177.49583 26.831263 178.63646Q26.925013 179.29271 27.050013 179.55833Q27.159388 179.82396 27.378138 179.98021Q27.596888 180.12083 27.878138 180.12083Q28.300013 180.12083 28.581263 179.80833Q28.862513 179.48021 28.862513 178.87083Q28.862513 178.26146 28.596888 177.79271Q28.331263 177.30833 27.862513 177.08958Q27.503138 176.91771 26.815638 176.91771L26.425013 176.91771ZM27.690638 174.30833L27.534388 173.27708Q28.159388 173.18333 28.487513 172.79271Q28.815638 172.38646 28.815638 171.65208Q28.815638 170.93333 28.534388 170.58958Q28.237513 170.23021 27.831263 170.23021Q27.471888 170.23021 27.268763 170.54271Q27.128138 170.76146 26.909388 171.62083Q26.612513 172.77708 26.409388 173.23021Q26.190638 173.66771 25.815638 173.90208Q25.440638 174.13646 24.971888 174.13646Q24.565638 174.13646 24.206263 173.94896Q23.846888 173.76146 23.612513 173.43333Q23.440638 173.18333 23.315638 172.76146Q23.190638 172.33958 23.190638 171.83958Q23.190638 171.12083 23.409388 170.57396Q23.612513 170.01146 23.971888 169.74583Q24.331263 169.48021 24.925013 169.38646L25.065638 170.41771Q24.596888 170.48021 24.331263 170.82396Q24.050013 171.15208 24.050013 171.77708Q24.050013 172.49583 24.300013 172.80833Q24.534388 173.12083 24.862513 173.12083Q25.065638 173.12083 25.221888 172.99583Q25.393763 172.85521 25.503138 172.58958Q25.565638 172.43333 25.768763 171.65208Q26.081263 170.52708 26.268763 170.08958Q26.456263 169.65208 26.815638 169.40208Q27.175013 169.15208 27.721888 169.15208Q28.253138 169.15208 28.721888 169.46458Q29.175013 169.76146 29.440638 170.33958Q29.690638 170.91771 29.690638 171.65208Q29.690638 172.87083 29.190638 173.51146Q28.675013 174.13646 27.690638 174.30833ZM27.550013 162.63646L27.675013 161.54271Q28.628138 161.79271 29.159388 162.49583Q29.690638 163.19896 29.690638 164.27708Q29.690638 165.63646 28.846888 166.44896Q28.003138 167.24583 26.487513 167.24583Q24.925013 167.24583 24.065638 166.43333Q23.190638 165.62083 23.190638 164.33958Q23.190638 163.08958 24.034388 162.30833Q24.878138 161.51146 26.425013 161.51146Q26.518763 161.51146 26.706263 161.51146L26.706263 166.15208Q27.737513 166.08958 28.284388 165.57396Q28.815638 165.05833 28.815638 164.27708Q28.815638 163.69896 28.518763 163.29271Q28.206263 162.87083 27.550013 162.63646ZM25.846888 166.08958L25.846888 162.62083Q25.050013 162.68333 24.659388 163.01146Q24.050013 163.52708 24.050013 164.32396Q24.050013 165.05833 24.534388 165.55833Q25.018763 166.04271 25.846888 166.08958ZM29.550013 159.91771L20.956263 159.91771L20.956263 158.85521L29.550013 158.85521L29.550013 159.91771ZM22.175013 156.88646L20.956263 156.88646L20.956263 155.82396L22.175013 155.82396L22.175013 156.88646ZM29.550013 156.88646L23.331263 156.88646L23.331263 155.82396L29.550013 155.82396L29.550013 156.88646ZM29.550013 153.88646L23.331263 153.88646L23.331263 152.94896L24.206263 152.94896Q23.190638 152.26146 23.190638 150.96458Q23.190638 150.40208 23.393763 149.93333Q23.596888 149.44896 23.925013 149.21458Q24.253138 148.98021 24.690638 148.88646Q24.987513 148.83958 25.721888 148.83958L29.550013 148.83958L29.550013 149.88646L25.768763 149.88646Q25.112513 149.88646 24.800013 150.01146Q24.487513 150.13646 24.300013 150.44896Q24.096888 150.76146 24.096888 151.18333Q24.096888 151.85521 24.534388 152.35521Q24.956263 152.83958 26.143763 152.83958L29.550013 152.83958L29.550013 153.88646ZM27.550013 142.63646L27.675013 141.54271Q28.628138 141.79271 29.159388 142.49583Q29.690638 143.19896 29.690638 144.27708Q29.690638 145.63646 28.846888 146.44896Q28.003138 147.24583 26.487513 147.24583Q24.925013 147.24583 24.065638 146.43333Q23.190638 145.62083 23.190638 144.33958Q23.190638 143.08958 24.034388 142.30833Q24.878138 141.51146 26.425013 141.51146Q26.518763 141.51146 26.706263 141.51146L26.706263 146.15208Q27.737513 146.08958 28.284388 145.57396Q28.815638 145.05833 28.815638 144.27708Q28.815638 143.69896 28.518763 143.29271Q28.206263 142.87083 27.550013 142.63646ZM25.846888 146.08958L25.846888 142.62083Q25.050013 142.68333 24.659388 143.01146Q24.050013 143.52708 24.050013 144.32396Q24.050013 145.05833 24.534388 145.55833Q25.018763 146.04271 25.846888 146.08958ZM32.08126 134.87083Q30.971888 135.74583 29.503138 136.35521Q28.018763 136.94896 26.440638 136.94896Q25.050013 136.94896 23.768763 136.51146Q22.284388 135.98021 20.815638 134.87083L20.815638 134.12083Q22.034388 134.82396 22.550013 135.05833Q23.362513 135.41771 24.237513 135.62083Q25.331263 135.87083 26.440638 135.87083Q29.268763 135.87083 32.08126 134.12083L32.08126 134.87083ZM29.550013 132.90208L23.331263 132.90208L23.331263 131.94896L24.268763 131.94896Q23.612513 131.58958 23.409388 131.29271Q23.190638 130.98021 23.190638 130.60521Q23.190638 130.07396 23.518763 129.52708L24.503138 129.88646Q24.268763 130.27708 24.268763 130.65208Q24.268763 131.01146 24.487513 131.29271Q24.690638 131.55833 25.065638 131.66771Q25.628138 131.85521 26.284388 131.85521L29.550013 131.85521L29.550013 132.90208ZM28.784388 124.82396Q29.284388 125.41771 29.487513 125.964584Q29.690638 126.495834 29.690638 127.120834Q29.690638 128.15208 29.190638 128.69896Q28.690638 129.24583 27.909388 129.24583Q27.456263 129.24583 27.081263 129.04271Q26.690638 128.83958 26.471888 128.49583Q26.237513 128.15208 26.128138 127.73021Q26.034388 127.433334 25.956263 126.79271Q25.815638 125.527084 25.596888 124.91771Q25.378138 124.91771 25.331263 124.91771Q24.675013 124.91771 24.409388 125.214584Q24.065638 125.620834 24.065638 126.41771Q24.065638 127.152084 24.331263 127.51146Q24.581263 127.870834 25.237513 128.04271L25.096888 129.07396Q24.440638 128.93333 24.034388 128.60521Q23.628138 128.27708 23.409388 127.66771Q23.190638 127.058334 23.190638 126.26146Q23.190638 125.464584 23.378138 124.964584Q23.565638 124.464584 23.846888 124.23021Q24.128138 123.995834 24.565638 123.902084Q24.831263 123.85521 25.534388 123.85521L26.940638 123.85521Q28.409388 123.85521 28.800013 123.79271Q29.190638 123.714584 29.550013 123.51146L29.550013 124.620834Q29.221888 124.777084 28.784388 124.82396ZM26.425013 124.91771Q26.659388 125.495834 26.831263 126.63646Q26.925013 127.29271 27.050013 127.558334Q27.159388 127.82396 27.378138 127.98021Q27.596888 128.12083 27.878138 128.12083Q28.300013 128.12083 28.581263 127.808334Q28.862513 127.48021 28.862513 126.870834Q28.862513 126.26146 28.596888 125.79271Q28.331263 125.308334 27.862513 125.089584Q27.503138 124.91771 26.815638 124.91771L26.425013 124.91771ZM28.612513 119.589584L29.534388 119.433334Q29.628138 119.88646 29.628138 120.23021Q29.628138 120.808334 29.456263 121.120834Q29.268763 121.433334 28.971888 121.57396Q28.675013 121.69896 27.721888 121.69896L24.143763 121.69896L24.143763 122.464584L23.331263 122.464584L23.331263 121.69896L21.784388 121.69896L21.159388 120.652084L23.331263 120.652084L23.331263 119.589584L24.143763 119.589584L24.143763 120.652084L27.784388 120.652084Q28.237513 120.652084 28.362513 120.60521Q28.487513 120.54271 28.565638 120.41771Q28.643763 120.29271 28.643763 120.058334Q28.643763 119.870834 28.612513 119.589584ZM22.175013 118.88646L20.956263 118.88646L20.956263 117.82396L22.175013 117.82396L22.175013 118.88646ZM29.550013 118.88646L23.331263 118.88646L23.331263 117.82396L29.550013 117.82396L29.550013 118.88646ZM26.440638 116.277084Q24.706263 116.277084 23.878138 115.32396Q23.190638 114.527084 23.190638 113.370834Q23.190638 112.089584 24.034388 111.277084Q24.862513 110.44896 26.346888 110.44896Q27.550013 110.44896 28.237513 110.808334Q28.925013 111.16771 29.315638 111.870834Q29.690638 112.558334 29.690638 113.370834Q29.690638 114.66771 28.862513 115.48021Q28.018763 116.277084 26.440638 116.277084ZM26.440638 115.19896Q27.628138 115.19896 28.221888 114.683334Q28.815638 114.152084 28.815638 113.370834Q28.815638 112.57396 28.221888 112.058334Q27.628138 111.54271 26.409388 111.54271Q25.253138 111.54271 24.659388 112.07396Q24.065638 112.589584 24.065638 113.370834Q24.065638 114.152084 24.659388 114.683334Q25.237513 115.19896 26.440638 115.19896ZM32.08126 108.19896L32.08126 108.94896Q29.268763 107.19896 26.440638 107.19896Q25.346888 107.19896 24.253138 107.44896Q23.378138 107.652084 22.565638 108.01146Q22.050013 108.245834 20.815638 108.94896L20.815638 108.19896Q22.284388 107.10521 23.768763 106.57396Q25.050013 106.120834 26.440638 106.120834Q28.018763 106.120834 29.503138 106.73021Q30.971888 107.339584 32.08126 108.19896Z" fill-rule="nonzero"/><path fill="#000000" d="M65.05 300.21564Q65.05 298.6844 65.3625 297.7625Q65.675 296.825 66.28438 296.325Q66.90938 295.825 67.84688 295.825Q68.53438 295.825 69.05 296.10626Q69.58125 296.3875 69.925 296.91876Q70.26875 297.4344 70.45625 298.1844Q70.64375 298.9344 70.64375 300.21564Q70.64375 301.73126 70.33125 302.65314Q70.03438 303.575 69.40938 304.09064Q68.8 304.59064 67.84688 304.59064Q66.6125 304.59064 65.89375 303.7Q65.05 302.6375 65.05 300.21564ZM66.12813 300.21564Q66.12813 302.325 66.62813 303.02814Q67.12813 303.73126 67.84688 303.73126Q68.58125 303.73126 69.06563 303.02814Q69.56563 302.325 69.56563 300.21564Q69.56563 298.09064 69.06563 297.40314Q68.58125 296.7 67.83125 296.7Q67.1125 296.7 66.675 297.3094Q66.12813 298.09064 66.12813 300.21564Z" fill-rule="nonzero"/><path fill="#000000" d="M63.596874 243.80104L63.596874 244.81667L57.909374 244.81667Q57.909374 244.44167 58.034374 244.08229Q58.253124 243.50417 58.721874 242.94167Q59.20625 242.37917 60.1125 241.64479Q61.51875 240.48854 62.003124 239.81667Q62.503124 239.14479 62.503124 238.55104Q62.503124 237.92604 62.05 237.50417Q61.596874 237.06667 60.878124 237.06667Q60.1125 237.06667 59.659374 237.51979Q59.20625 237.97292 59.190624 238.78542L58.1125 238.67604Q58.221874 237.45729 58.940624 236.83229Q59.675 236.19167 60.909374 236.19167Q62.14375 236.19167 62.8625 236.87917Q63.58125 237.56667 63.58125 238.58229Q63.58125 239.09792 63.3625 239.59792Q63.159374 240.08229 62.659374 240.64479Q62.175 241.19167 61.05 242.14479Q60.096874 242.94167 59.815624 243.23854Q59.55 243.51979 59.378124 243.80104L63.596874 243.80104ZM65.05 240.58229Q65.05 239.05104 65.3625 238.12917Q65.675 237.19167 66.28438 236.69167Q66.90938 236.19167 67.84688 236.19167Q68.53438 236.19167 69.05 236.47292Q69.58125 236.75417 69.925 237.28542Q70.26875 237.80104 70.45625 238.55104Q70.64375 239.30104 70.64375 240.58229Q70.64375 242.09792 70.33125 243.01979Q70.03438 243.94167 69.40938 244.45729Q68.8 244.95729 67.84688 244.95729Q66.6125 244.95729 65.89375 244.06667Q65.05 243.00417 65.05 240.58229ZM66.12813 240.58229Q66.12813 242.69167 66.62813 243.39479Q67.12813 244.09792 67.84688 244.09792Q68.58125 244.09792 69.06563 243.39479Q69.56563 242.69167 69.56563 240.58229Q69.56563 238.45729 69.06563 237.76979Q68.58125 237.06667 67.83125 237.06667Q67.1125 237.06667 66.675 237.67604Q66.12813 238.45729 66.12813 240.58229Z" fill-rule="nonzero"/><path fill="#000000" d="M61.425 185.18333L61.425 183.12083L57.70625 183.12083L57.70625 182.15208L61.628124 176.58958L62.4875 176.58958L62.4875 182.15208L63.64375 182.15208L63.64375 183.12083L62.4875 183.12083L62.4875 185.18333L61.425 185.18333ZM61.425 182.15208L61.425 178.29271L58.7375 182.15208L61.425 182.15208ZM65.05 180.94896Q65.05 179.41771 65.3625 178.49583Q65.675 177.55833 66.28438 177.05833Q66.90938 176.55833 67.84688 176.55833Q68.53438 176.55833 69.05 176.83958Q69.58125 177.12083 69.925 177.65208Q70.26875 178.16771 70.45625 178.91771Q70.64375 179.66771 70.64375 180.94896Q70.64375 182.46458 70.33125 183.38646Q70.03438 184.30833 69.40938 184.82396Q68.8 185.32396 67.84688 185.32396Q66.6125 185.32396 65.89375 184.43333Q65.05 183.37083 65.05 180.94896ZM66.12813 180.94896Q66.12813 183.05833 66.62813 183.76146Q67.12813 184.46458 67.84688 184.46458Q68.58125 184.46458 69.06563 183.76146Q69.56563 183.05833 69.56563 180.94896Q69.56563 178.82396 69.06563 178.13646Q68.58125 177.43333 67.83125 177.43333Q67.1125 177.43333 66.675 178.04271Q66.12813 178.82396 66.12813 180.94896Z" fill-rule="nonzero"/><path fill="#000000" d="M63.51875 119.06563L62.471874 119.14375Q62.33125 118.51875 62.08125 118.2375Q61.64375 117.78438 61.01875 117.78438Q60.51875 117.78438 60.128124 118.06563Q59.64375 118.44063 59.346874 119.14375Q59.065624 119.83125 59.05 121.1125Q59.425 120.53438 59.971874 120.25313Q60.534374 119.97188 61.14375 119.97188Q62.190624 119.97188 62.925 120.75313Q63.675 121.53438 63.675 122.75313Q63.675 123.56563 63.315624 124.26875Q62.971874 124.95625 62.3625 125.33125Q61.753124 125.69063 60.9875 125.69063Q59.659374 125.69063 58.83125 124.72188Q58.003124 123.75313 58.003124 121.53438Q58.003124 119.03438 58.925 117.90938Q59.721874 116.925 61.08125 116.925Q62.096874 116.925 62.7375 117.50313Q63.39375 118.06563 63.51875 119.06563ZM59.221874 122.76875Q59.221874 123.31563 59.440624 123.81563Q59.675 124.3 60.08125 124.56563Q60.503124 124.83125 60.971874 124.83125Q61.628124 124.83125 62.1125 124.3Q62.596874 123.75313 62.596874 122.83125Q62.596874 121.94063 62.1125 121.425Q61.64375 120.90938 60.925 120.90938Q60.20625 120.90938 59.70625 121.425Q59.221874 121.94063 59.221874 122.76875ZM65.05 121.31563Q65.05 119.78438 65.3625 118.8625Q65.675 117.925 66.28438 117.425Q66.90938 116.925 67.84688 116.925Q68.53438 116.925 69.05 117.20625Q69.58125 117.4875 69.925 118.01875Q70.26875 118.53438 70.45625 119.28438Q70.64375 120.03438 70.64375 121.31563Q70.64375 122.83125 70.33125 123.75313Q70.03438 124.675 69.40938 125.19063Q68.8 125.69063 67.84688 125.69063Q66.6125 125.69063 65.89375 124.8Q65.05 123.7375 65.05 121.31563ZM66.12813 121.31563Q66.12813 123.425 66.62813 124.12813Q67.12813 124.83125 67.84688 124.83125Q68.58125 124.83125 69.06563 124.12813Q69.56563 123.425 69.56563 121.31563Q69.56563 119.19063 69.06563 118.50313Q68.58125 117.8 67.83125 117.8Q67.1125 117.8 66.675 118.40938Q66.12813 119.19063 66.12813 121.31563Z" fill-rule="nonzero"/><path fill="#000000" d="M59.675 61.260414Q59.01875 61.010414 58.690624 60.572914Q58.378124 60.11979 58.378124 59.510414Q58.378124 58.572914 59.05 57.93229Q59.7375 57.291664 60.846874 57.291664Q61.971874 57.291664 62.659374 57.947914Q63.346874 58.604164 63.346874 59.541664Q63.346874 60.135414 63.034374 60.572914Q62.721874 61.010414 62.08125 61.260414Q62.878124 61.510414 63.284374 62.08854Q63.690624 62.666664 63.690624 63.46354Q63.690624 64.55729 62.909374 65.30729Q62.14375 66.05729 60.8625 66.05729Q59.596874 66.05729 58.815624 65.30729Q58.034374 64.55729 58.034374 63.43229Q58.034374 62.58854 58.45625 62.02604Q58.89375 61.46354 59.675 61.260414ZM59.45625 59.46354Q59.45625 60.072914 59.846874 60.46354Q60.253124 60.854164 60.878124 60.854164Q61.4875 60.854164 61.878124 60.479164Q62.26875 60.08854 62.26875 59.52604Q62.26875 58.947914 61.8625 58.55729Q61.45625 58.15104 60.8625 58.15104Q60.253124 58.15104 59.846874 58.541664Q59.45625 58.93229 59.45625 59.46354ZM59.128124 63.43229Q59.128124 63.885414 59.33125 64.30729Q59.55 64.729164 59.971874 64.96354Q60.39375 65.197914 60.878124 65.197914Q61.628124 65.197914 62.1125 64.71354Q62.6125 64.229164 62.6125 63.479164Q62.6125 62.71354 62.1125 62.21354Q61.6125 61.71354 60.846874 61.71354Q60.096874 61.71354 59.6125 62.21354Q59.128124 62.697914 59.128124 63.43229ZM65.05 61.68229Q65.05 60.15104 65.3625 59.229164Q65.675 58.291664 66.28438 57.791664Q66.90938 57.291664 67.84688 57.291664Q68.53438 57.291664 69.05 57.572914Q69.58125 57.854164 69.925 58.385414Q70.26875 58.90104 70.45625 59.65104Q70.64375 60.40104 70.64375 61.68229Q70.64375 63.197914 70.33125 64.11979Q70.03438 65.041664 69.40938 65.55729Q68.8 66.05729 67.84688 66.05729Q66.6125 66.05729 65.89375 65.166664Q65.05 64.104164 65.05 61.68229ZM66.12813 61.68229Q66.12813 63.791664 66.62813 64.49479Q67.12813 65.197914 67.84688 65.197914Q68.58125 65.197914 69.06563 64.49479Q69.56563 63.791664 69.56563 61.68229Q69.56563 59.55729 69.06563 58.86979Q68.58125 58.166664 67.83125 58.166664Q67.1125 58.166664 66.675 58.77604Q66.12813 59.55729 66.12813 61.68229Z" fill-rule="nonzero"/><path fill="#000000" d="M78.51875 317.45L77.47188 317.45L77.47188 310.73126Q77.08125 311.09064 76.45625 311.46564Q75.84688 311.825 75.3625 311.9969L75.3625 310.98126Q76.2375 310.5594 76.89375 309.98126Q77.56563 309.3875 77.84688 308.825L78.51875 308.825L78.51875 317.45Z" fill-rule="nonzero"/><path fill="#000000" d="M188.1481 317.45L187.10123 317.45L187.10123 310.73126Q186.7106 311.09064 186.0856 311.46564Q185.47623 311.825 184.99185 311.9969L184.99185 310.98126Q185.86685 310.5594 186.5231 309.98126Q187.19498 309.3875 187.47623 308.825L188.1481 308.825L188.1481 317.45ZM191.17935 313.21564Q191.17935 311.6844 191.49185 310.7625Q191.80435 309.825 192.41373 309.325Q193.03873 308.825 193.97623 308.825Q194.66373 308.825 195.17935 309.10626Q195.7106 309.3875 196.05435 309.91876Q196.3981 310.4344 196.5856 311.1844Q196.7731 311.9344 196.7731 313.21564Q196.7731 314.73126 196.4606 315.65314Q196.16373 316.575 195.53873 317.09064Q194.92935 317.59064 193.97623 317.59064Q192.74185 317.59064 192.0231 316.7Q191.17935 315.6375 191.17935 313.21564ZM192.25748 313.21564Q192.25748 315.325 192.75748 316.02814Q193.25748 316.73126 193.97623 316.73126Q194.7106 316.73126 195.19498 316.02814Q195.69498 315.325 195.69498 313.21564Q195.69498 311.09064 195.19498 310.40314Q194.7106 309.7 193.9606 309.7Q193.24185 309.7 192.80435 310.3094Q192.25748 311.09064 192.25748 313.21564Z" fill-rule="nonzero"/><path fill="#000000" d="M297.77747 317.45L296.7306 317.45L296.7306 310.73126Q296.33997 311.09064 295.71497 311.46564Q295.1056 311.825 294.62122 311.9969L294.62122 310.98126Q295.49622 310.5594 296.15247 309.98126Q296.82434 309.3875 297.1056 308.825L297.77747 308.825L297.77747 317.45ZM300.80872 313.21564Q300.80872 311.6844 301.12122 310.7625Q301.43372 309.825 302.0431 309.325Q302.6681 308.825 303.6056 308.825Q304.2931 308.825 304.80872 309.10626Q305.33997 309.3875 305.68372 309.91876Q306.02747 310.4344 306.21497 311.1844Q306.40247 311.9344 306.40247 313.21564Q306.40247 314.73126 306.08997 315.65314Q305.7931 316.575 305.1681 317.09064Q304.55872 317.59064 303.6056 317.59064Q302.37122 317.59064 301.65247 316.7Q300.80872 315.6375 300.80872 313.21564ZM301.88684 313.21564Q301.88684 315.325 302.38684 316.02814Q302.88684 316.73126 303.6056 316.73126Q304.33997 316.73126 304.82434 316.02814Q305.32434 315.325 305.32434 313.21564Q305.32434 311.09064 304.82434 310.40314Q304.33997 309.7 303.58997 309.7Q302.87122 309.7 302.43372 310.3094Q301.88684 311.09064 301.88684 313.21564ZM307.80872 313.21564Q307.80872 311.6844 308.12122 310.7625Q308.43372 309.825 309.0431 309.325Q309.6681 308.825 310.6056 308.825Q311.2931 308.825 311.80872 309.10626Q312.33997 309.3875 312.68372 309.91876Q313.02747 310.4344 313.21497 311.1844Q313.40247 311.9344 313.40247 313.21564Q313.40247 314.73126 313.08997 315.65314Q312.7931 316.575 312.1681 317.09064Q311.55872 317.59064 310.6056 317.59064Q309.37122 317.59064 308.65247 316.7Q307.80872 315.6375 307.80872 313.21564ZM308.88684 313.21564Q308.88684 315.325 309.38684 316.02814Q309.88684 316.73126 310.6056 316.73126Q311.33997 316.73126 311.82434 316.02814Q312.32434 315.325 312.32434 313.21564Q312.32434 311.09064 311.82434 310.40314Q311.33997 309.7 310.58997 309.7Q309.87122 309.7 309.43372 310.3094Q308.88684 311.09064 308.88684 313.21564Z" fill-rule="nonzero"/><path fill="#000000" d="M407.40683 317.45L406.35995 317.45L406.35995 310.73126Q405.96933 311.09064 405.34433 311.46564Q404.73495 311.825 404.25058 311.9969L404.25058 310.98126Q405.12558 310.5594 405.78183 309.98126Q406.4537 309.3875 406.73495 308.825L407.40683 308.825L407.40683 317.45ZM410.43808 313.21564Q410.43808 311.6844 410.75058 310.7625Q411.06308 309.825 411.67245 309.325Q412.29745 308.825 413.23495 308.825Q413.92245 308.825 414.43808 309.10626Q414.96933 309.3875 415.31308 309.91876Q415.65683 310.4344 415.84433 311.1844Q416.03183 311.9344 416.03183 313.21564Q416.03183 314.73126 415.71933 315.65314Q415.42245 316.575 414.79745 317.09064Q414.18808 317.59064 413.23495 317.59064Q412.00058 317.59064 411.28183 316.7Q410.43808 315.6375 410.43808 313.21564ZM411.5162 313.21564Q411.5162 315.325 412.0162 316.02814Q412.5162 316.73126 413.23495 316.73126Q413.96933 316.73126 414.4537 316.02814Q414.9537 315.325 414.9537 313.21564Q414.9537 311.09064 414.4537 310.40314Q413.96933 309.7 413.21933 309.7Q412.50058 309.7 412.06308 310.3094Q411.5162 311.09064 411.5162 313.21564ZM417.43808 313.21564Q417.43808 311.6844 417.75058 310.7625Q418.06308 309.825 418.67245 309.325Q419.29745 308.825 420.23495 308.825Q420.92245 308.825 421.43808 309.10626Q421.96933 309.3875 422.31308 309.91876Q422.65683 310.4344 422.84433 311.1844Q423.03183 311.9344 423.03183 313.21564Q423.03183 314.73126 422.71933 315.65314Q422.42245 316.575 421.79745 317.09064Q421.18808 317.59064 420.23495 317.59064Q419.00058 317.59064 418.28183 316.7Q417.43808 315.6375 417.43808 313.21564ZM418.5162 313.21564Q418.5162 315.325 419.0162 316.02814Q419.5162 316.73126 420.23495 316.73126Q420.96933 316.73126 421.4537 316.02814Q421.9537 315.325 421.9537 313.21564Q421.9537 311.09064 421.4537 310.40314Q420.96933 309.7 420.21933 309.7Q419.50058 309.7 419.06308 310.3094Q418.5162 311.09064 418.5162 313.21564ZM424.43808 313.21564Q424.43808 311.6844 424.75058 310.7625Q425.06308 309.825 425.67245 309.325Q426.29745 308.825 427.23495 308.825Q427.92245 308.825 428.43808 309.10626Q428.96933 309.3875 429.31308 309.91876Q429.65683 310.4344 429.84433 311.1844Q430.03183 311.9344 430.03183 313.21564Q430.03183 314.73126 429.71933 315.65314Q429.42245 316.575 428.79745 317.09064Q428.18808 317.59064 427.23495 317.59064Q426.00058 317.59064 425.28183 316.7Q424.43808 315.6375 424.43808 313.21564ZM425.5162 313.21564Q425.5162 315.325 426.0162 316.02814Q426.5162 316.73126 427.23495 316.73126Q427.96933 316.73126 428.4537 316.02814Q428.9537 315.325 428.9537 313.21564Q428.9537 311.09064 428.4537 310.40314Q427.96933 309.7 427.21933 309.7Q426.50058 309.7 426.06308 310.3094Q425.5162 311.09064 425.5162 313.21564Z" fill-rule="nonzero"/><path fill="#757575" d="M70.46875 37.55L75.96875 23.2375L78.015625 23.2375L83.875 37.55L81.71875 37.55L80.046875 33.20625L74.0625 33.20625L72.484375 37.55L70.46875 37.55ZM74.609375 31.675L79.453125 31.675L77.96875 27.70625Q77.28125 25.89375 76.953125 24.7375Q76.671875 26.1125 76.171875 27.471874L74.609375 31.675ZM91.59375 36.26875Q90.609375 37.096874 89.703125 37.440624Q88.796875 37.784374 87.765625 37.784374Q86.0625 37.784374 85.140625 36.95625Q84.21875 36.1125 84.21875 34.815624Q84.21875 34.05 84.5625 33.425Q84.921875 32.8 85.484375 32.425Q86.046875 32.034374 86.75 31.83125Q87.265625 31.70625 88.3125 31.565624Q90.4375 31.315624 91.4375 30.971874Q91.453125 30.6125 91.453125 30.503124Q91.453125 29.440624 90.953125 28.9875Q90.28125 28.39375 88.953125 28.39375Q87.703125 28.39375 87.109375 28.83125Q86.53125 29.26875 86.25 30.378124L84.53125 30.14375Q84.765625 29.034374 85.296875 28.3625Q85.828125 27.675 86.84375 27.315624Q87.859375 26.940624 89.203125 26.940624Q90.53125 26.940624 91.359375 27.253124Q92.1875 27.565624 92.578125 28.05Q92.96875 28.51875 93.125 29.2375Q93.21875 29.690624 93.21875 30.8625L93.21875 33.20625Q93.21875 35.659374 93.328125 36.315624Q93.4375 36.95625 93.78125 37.55L91.9375 37.55Q91.671875 37.003124 91.59375 36.26875ZM91.4375 32.346874Q90.484375 32.7375 88.5625 33.003124Q87.484375 33.159374 87.03125 33.3625Q86.59375 33.55 86.34375 33.925Q86.09375 34.3 86.09375 34.76875Q86.09375 35.471874 86.625 35.940624Q87.15625 36.409374 88.1875 36.409374Q89.203125 36.409374 89.984375 35.971874Q90.78125 35.51875 91.15625 34.753124Q91.4375 34.14375 91.4375 32.9875L91.4375 32.346874ZM95.796875 37.55L95.796875 27.175L97.375 27.175L97.375 28.753124Q97.984375 27.64375 98.5 27.3Q99.015625 26.940624 99.625 26.940624Q100.515625 26.940624 101.4375 27.503124L100.828125 29.14375Q100.1875 28.753124 99.546875 28.753124Q98.96875 28.753124 98.5 29.1125Q98.046875 29.45625 97.84375 30.065624Q97.5625 31.003124 97.5625 32.1125L97.5625 37.55L95.796875 37.55ZM109.59375 33.753124L111.3125 33.971874Q111.03125 35.76875 109.859375 36.784374Q108.703125 37.784374 107.0 37.784374Q104.875 37.784374 103.578125 36.39375Q102.28125 35.003124 102.28125 32.409374Q102.28125 30.721874 102.828125 29.471874Q103.390625 28.20625 104.53125 27.58125Q105.671875 26.940624 107.015625 26.940624Q108.703125 26.940624 109.765625 27.8Q110.84375 28.659374 111.15625 30.221874L109.4375 30.4875Q109.203125 29.440624 108.578125 28.925Q107.953125 28.39375 107.078125 28.39375Q105.75 28.39375 104.921875 29.346874Q104.09375 30.3 104.09375 32.346874Q104.09375 34.440624 104.890625 35.39375Q105.6875 36.33125 106.984375 36.33125Q108.015625 36.33125 108.703125 35.70625Q109.40625 35.065624 109.59375 33.753124ZM112.8125 37.55L112.8125 23.2375L114.578125 23.2375L114.578125 28.3625Q115.8125 26.940624 117.6875 26.940624Q118.828125 26.940624 119.671875 27.39375Q120.53125 27.846874 120.890625 28.659374Q121.265625 29.45625 121.265625 30.971874L121.265625 37.55L119.515625 37.55L119.515625 30.971874Q119.515625 29.659374 118.9375 29.065624Q118.359375 28.45625 117.328125 28.45625Q116.546875 28.45625 115.84375 28.8625Q115.15625 29.26875 114.859375 29.971874Q114.578125 30.659374 114.578125 31.878124L114.578125 37.55L112.8125 37.55ZM131.45312 26.7375L129.70312 26.878124Q129.46875 25.846874 129.04688 25.378124Q128.32812 24.6125 127.28125 24.6125Q126.4375 24.6125 125.8125 25.08125Q124.984375 25.690624 124.5 26.8625Q124.015625 28.01875 124.0 30.159374Q124.640625 29.20625 125.546875 28.7375Q126.46875 28.26875 127.484375 28.26875Q129.23438 28.26875 130.46875 29.565624Q131.70312 30.846874 131.70312 32.89375Q131.70312 34.253124 131.125 35.409374Q130.54688 36.565624 129.53125 37.190624Q128.51562 37.8 127.21875 37.8Q125.03125 37.8 123.640625 36.190624Q122.25 34.565624 122.25 30.846874Q122.25 26.70625 123.78125 24.815624Q125.125 23.175 127.390625 23.175Q129.07812 23.175 130.15625 24.128124Q131.23438 25.065624 131.45312 26.7375ZM124.28125 32.909374Q124.28125 33.815624 124.65625 34.64375Q125.046875 35.471874 125.734375 35.909374Q126.4375 36.346874 127.1875 36.346874Q128.3125 36.346874 129.10938 35.45625Q129.90625 34.55 129.90625 33.003124Q129.90625 31.51875 129.10938 30.675Q128.32812 29.815624 127.125 29.815624Q125.9375 29.815624 125.109375 30.675Q124.28125 31.51875 124.28125 32.909374ZM138.96875 37.55L138.96875 34.128124L132.75 34.128124L132.75 32.503124L139.28125 23.2375L140.71875 23.2375L140.71875 32.503124L142.65625 32.503124L142.65625 34.128124L140.71875 34.128124L140.71875 37.55L138.96875 37.55ZM138.96875 32.503124L138.96875 26.05L134.48438 32.503124L138.96875 32.503124ZM153.70312 37.55L149.75 27.175L151.60938 27.175L153.84375 33.39375Q154.20312 34.39375 154.5 35.471874Q154.73438 34.659374 155.15625 33.503124L157.45312 27.175L159.26562 27.175L155.34375 37.55L153.70312 37.55ZM159.78125 37.55L159.78125 23.2375L161.53125 23.2375L161.53125 37.55L159.78125 37.55ZM170.92188 34.20625L172.73438 34.440624Q172.3125 36.01875 171.14062 36.909374Q169.98438 37.784374 168.17188 37.784374Q165.90625 37.784374 164.5625 36.39375Q163.23438 34.9875 163.23438 32.45625Q163.23438 29.83125 164.57812 28.39375Q165.92188 26.940624 168.07812 26.940624Q170.15625 26.940624 171.46875 28.3625Q172.79688 29.76875 172.79688 32.346874Q172.79688 32.503124 172.78125 32.815624L165.04688 32.815624Q165.14062 34.51875 166.01562 35.425Q166.89062 36.33125 168.1875 36.33125Q169.15625 36.33125 169.82812 35.83125Q170.51562 35.315624 170.92188 34.20625ZM165.14062 31.3625L170.9375 31.3625Q170.82812 30.065624 170.28125 29.409374Q169.4375 28.39375 168.09375 28.39375Q166.89062 28.39375 166.0625 29.20625Q165.23438 30.003124 165.14062 31.3625ZM177.03125 29.784374Q175.9375 29.378124 175.40625 28.64375Q174.89062 27.89375 174.89062 26.8625Q174.89062 25.3 176.01562 24.2375Q177.14062 23.175 179.0 23.175Q180.875 23.175 182.01562 24.26875Q183.15625 25.346874 183.15625 26.909374Q183.15625 27.909374 182.625 28.64375Q182.10938 29.378124 181.04688 29.784374Q182.375 30.221874 183.0625 31.175Q183.75 32.128124 183.75 33.45625Q183.75 35.3 182.4375 36.55Q181.14062 37.8 179.03125 37.8Q176.90625 37.8 175.60938 36.55Q174.3125 35.284374 174.3125 33.409374Q174.3125 32.01875 175.01562 31.08125Q175.73438 30.128124 177.03125 29.784374ZM176.6875 26.8Q176.6875 27.815624 177.34375 28.471874Q178.0 29.1125 179.03125 29.1125Q180.04688 29.1125 180.70312 28.471874Q181.35938 27.83125 181.35938 26.909374Q181.35938 25.940624 180.6875 25.284374Q180.01562 24.6125 179.01562 24.6125Q178.01562 24.6125 177.34375 25.26875Q176.6875 25.909374 176.6875 26.8ZM176.125 33.425Q176.125 34.175 176.46875 34.878124Q176.82812 35.58125 177.53125 35.971874Q178.23438 36.346874 179.04688 36.346874Q180.3125 36.346874 181.125 35.534374Q181.95312 34.721874 181.95312 33.471874Q181.95312 32.20625 181.10938 31.378124Q180.26562 30.55 178.98438 30.55Q177.75 30.55 176.9375 31.378124Q176.125 32.190624 176.125 33.425ZM186.3125 37.55L186.3125 35.55L188.3125 35.55L188.3125 37.55L186.3125 37.55ZM194.70312 37.55L190.75 27.175L192.60938 27.175L194.84375 33.39375Q195.20312 34.39375 195.5 35.471874Q195.73438 34.659374 196.15625 33.503124L198.45312 27.175L200.26562 27.175L196.34375 37.55L194.70312 37.55ZM206.10938 34.45625L207.85938 34.175Q208.0 35.221874 208.67188 35.784374Q209.34375 36.33125 210.54688 36.33125Q211.75 36.33125 212.32812 35.846874Q212.92188 35.346874 212.92188 34.690624Q212.92188 34.096874 212.40625 33.753124Q212.04688 33.51875 210.60938 33.159374Q208.67188 32.659374 207.92188 32.315624Q207.1875 31.95625 206.79688 31.33125Q206.40625 30.690624 206.40625 29.925Q206.40625 29.2375 206.71875 28.64375Q207.04688 28.05 207.59375 27.659374Q208.0 27.3625 208.70312 27.159374Q209.42188 26.940624 210.23438 26.940624Q211.45312 26.940624 212.375 27.3Q213.29688 27.64375 213.73438 28.253124Q214.17188 28.846874 214.34375 29.846874L212.625 30.08125Q212.5 29.284374 211.9375 28.846874Q211.375 28.39375 210.35938 28.39375Q209.14062 28.39375 208.625 28.8Q208.10938 29.190624 208.10938 29.721874Q208.10938 30.065624 208.32812 30.346874Q208.53125 30.628124 209.0 30.815624Q209.26562 30.909374 210.54688 31.253124Q212.42188 31.753124 213.15625 32.08125Q213.89062 32.39375 214.3125 33.003124Q214.73438 33.596874 214.73438 34.503124Q214.73438 35.378124 214.21875 36.159374Q213.70312 36.940624 212.73438 37.3625Q211.76562 37.784374 210.54688 37.784374Q208.53125 37.784374 207.46875 36.940624Q206.40625 36.096874 206.10938 34.45625ZM216.8125 41.51875L216.8125 27.175L218.42188 27.175L218.42188 28.51875Q218.98438 27.7375 219.6875 27.346874Q220.40625 26.940624 221.42188 26.940624Q222.75 26.940624 223.76562 27.628124Q224.78125 28.315624 225.29688 29.565624Q225.82812 30.8 225.82812 32.284374Q225.82812 33.878124 225.25 35.159374Q224.6875 36.425 223.59375 37.1125Q222.5 37.784374 221.29688 37.784374Q220.42188 37.784374 219.71875 37.409374Q219.03125 37.034374 218.57812 36.471874L218.57812 41.51875L216.8125 41.51875ZM218.40625 32.425Q218.40625 34.425 219.21875 35.378124Q220.03125 36.33125 221.1875 36.33125Q222.35938 36.33125 223.1875 35.346874Q224.03125 34.3625 224.03125 32.26875Q224.03125 30.3 223.20312 29.315624Q222.39062 28.315624 221.26562 28.315624Q220.14062 28.315624 219.26562 29.378124Q218.40625 30.425 218.40625 32.425ZM234.92188 34.20625L236.73438 34.440624Q236.3125 36.01875 235.14062 36.909374Q233.98438 37.784374 232.17188 37.784374Q229.90625 37.784374 228.5625 36.39375Q227.23438 34.9875 227.23438 32.45625Q227.23438 29.83125 228.57812 28.39375Q229.92188 26.940624 232.07812 26.940624Q234.15625 26.940624 235.46875 28.3625Q236.79688 29.76875 236.79688 32.346874Q236.79688 32.503124 236.78125 32.815624L229.04688 32.815624Q229.14062 34.51875 230.01562 35.425Q230.89062 36.33125 232.1875 36.33125Q233.15625 36.33125 233.82812 35.83125Q234.51562 35.315624 234.92188 34.20625ZM229.14062 31.3625L234.9375 31.3625Q234.82812 30.065624 234.28125 29.409374Q233.4375 28.39375 232.09375 28.39375Q230.89062 28.39375 230.0625 29.20625Q229.23438 30.003124 229.14062 31.3625ZM245.92188 34.20625L247.73438 34.440624Q247.3125 36.01875 246.14062 36.909374Q244.98438 37.784374 243.17188 37.784374Q240.90625 37.784374 239.5625 36.39375Q238.23438 34.9875 238.23438 32.45625Q238.23438 29.83125 239.57812 28.39375Q240.92188 26.940624 243.07812 26.940624Q245.15625 26.940624 246.46875 28.3625Q247.79688 29.76875 247.79688 32.346874Q247.79688 32.503124 247.78125 32.815624L240.04688 32.815624Q240.14062 34.51875 241.01562 35.425Q241.89062 36.33125 243.1875 36.33125Q244.15625 36.33125 244.82812 35.83125Q245.51562 35.315624 245.92188 34.20625ZM240.14062 31.3625L245.9375 31.3625Q245.82812 30.065624 245.28125 29.409374Q244.4375 28.39375 243.09375 28.39375Q241.89062 28.39375 241.0625 29.20625Q240.23438 30.003124 240.14062 31.3625ZM256.54688 37.55L256.54688 36.2375Q255.5625 37.784374 253.64062 37.784374Q252.40625 37.784374 251.35938 37.096874Q250.32812 36.409374 249.75 35.190624Q249.1875 33.971874 249.1875 32.378124Q249.1875 30.815624 249.70312 29.55Q250.21875 28.284374 251.25 27.6125Q252.29688 26.940624 253.5625 26.940624Q254.5 26.940624 255.23438 27.346874Q255.96875 27.7375 256.4375 28.3625L256.4375 23.2375L258.17188 23.2375L258.17188 37.55L256.54688 37.55ZM250.98438 32.378124Q250.98438 34.3625 251.82812 35.346874Q252.67188 36.33125 253.8125 36.33125Q254.96875 36.33125 255.76562 35.39375Q256.57812 34.45625 256.57812 32.51875Q256.57812 30.39375 255.75 29.39375Q254.9375 28.39375 253.73438 28.39375Q252.5625 28.39375 251.76562 29.3625Q250.98438 30.315624 250.98438 32.378124ZM267.60938 37.55L267.60938 36.01875Q266.40625 37.784374 264.32812 37.784374Q263.40625 37.784374 262.60938 37.440624Q261.8125 37.08125 261.42188 36.55Q261.04688 36.01875 260.89062 35.2375Q260.78125 34.721874 260.78125 33.596874L260.78125 27.175L262.53125 27.175L262.53125 32.925Q262.53125 34.3 262.64062 34.784374Q262.8125 35.471874 263.34375 35.878124Q263.89062 36.26875 264.67188 36.26875Q265.46875 36.26875 266.15625 35.8625Q266.85938 35.45625 267.14062 34.76875Q267.4375 34.065624 267.4375 32.7375L267.4375 27.175L269.1875 27.175L269.1875 37.55L267.60938 37.55ZM270.8125 41.51875L270.8125 27.175L272.42188 27.175L272.42188 28.51875Q272.98438 27.7375 273.6875 27.346874Q274.40625 26.940624 275.42188 26.940624Q276.75 26.940624 277.76562 27.628124Q278.78125 28.315624 279.29688 29.565624Q279.82812 30.8 279.82812 32.284374Q279.82812 33.878124 279.25 35.159374Q278.6875 36.425 277.59375 37.1125Q276.5 37.784374 275.29688 37.784374Q274.42188 37.784374 273.71875 37.409374Q273.03125 37.034374 272.57812 36.471874L272.57812 41.51875L270.8125 41.51875ZM272.40625 32.425Q272.40625 34.425 273.21875 35.378124Q274.03125 36.33125 275.1875 36.33125Q276.35938 36.33125 277.1875 35.346874Q278.03125 34.3625 278.03125 32.26875Q278.03125 30.3 277.20312 29.315624Q276.39062 28.315624 275.26562 28.315624Q274.14062 28.315624 273.26562 29.378124Q272.40625 30.425 272.40625 32.425ZM292.14062 37.55L286.59375 23.2375L288.64062 23.2375L292.35938 33.628124Q292.8125 34.878124 293.10938 35.971874Q293.4375 34.8 293.89062 33.628124L297.75 23.2375L299.6875 23.2375L294.07812 37.55L292.14062 37.55ZM300.96875 37.55L300.96875 23.2375L302.85938 23.2375L302.85938 35.8625L309.90625 35.8625L309.90625 37.55L300.96875 37.55ZM312.07812 37.55L312.07812 23.2375L322.4375 23.2375L322.4375 24.925L313.98438 24.925L313.98438 29.3L321.89062 29.3L321.89062 30.9875L313.98438 30.9875L313.98438 35.8625L322.76562 35.8625L322.76562 37.55L312.07812 37.55ZM325.03125 37.55L325.03125 23.2375L326.96875 23.2375L334.48438 34.471874L334.48438 23.2375L336.29688 23.2375L336.29688 37.55L334.35938 37.55L326.84375 26.3L326.84375 37.55L325.03125 37.55ZM347.0625 29.128124L337.60938 29.128124L337.60938 27.4875L347.0625 27.4875L347.0625 29.128124ZM347.0625 33.471874L337.60938 33.471874L337.60938 31.83125L347.0625 31.83125L347.0625 33.471874ZM355.95312 37.55L354.1875 37.55L354.1875 26.346874Q353.5625 26.95625 352.53125 27.565624Q351.5 28.159374 350.67188 28.471874L350.67188 26.76875Q352.15625 26.08125 353.25 25.096874Q354.35938 24.096874 354.8125 23.175L355.95312 23.175L355.95312 37.55ZM360.32812 30.4875Q360.32812 27.95625 360.84375 26.409374Q361.375 24.846874 362.40625 24.01875Q363.4375 23.175 365.0 23.175Q366.15625 23.175 367.01562 23.64375Q367.89062 24.096874 368.45312 24.971874Q369.01562 25.846874 369.34375 27.1125Q369.67188 28.3625 369.67188 30.4875Q369.67188 33.003124 369.14062 34.55Q368.625 36.096874 367.59375 36.95625Q366.57812 37.8 365.0 37.8Q362.92188 37.8 361.75 36.315624Q360.32812 34.51875 360.32812 30.4875ZM362.14062 30.4875Q362.14062 34.01875 362.95312 35.190624Q363.78125 36.346874 365.0 36.346874Q366.20312 36.346874 367.03125 35.175Q367.85938 34.003124 367.85938 30.4875Q367.85938 26.95625 367.03125 25.8Q366.20312 24.628124 364.98438 24.628124Q363.76562 24.628124 363.04688 25.659374Q362.14062 26.95625 362.14062 30.4875ZM380.5625 35.8625L380.5625 37.55L371.10938 37.55Q371.09375 36.909374 371.3125 36.33125Q371.67188 35.3625 372.46875 34.425Q373.26562 33.4875 374.76562 32.253124Q377.10938 30.346874 377.92188 29.2375Q378.75 28.1125 378.75 27.1125Q378.75 26.065624 378.0 25.346874Q377.25 24.628124 376.04688 24.628124Q374.78125 24.628124 374.01562 25.39375Q373.25 26.159374 373.25 27.503124L371.4375 27.315624Q371.625 25.3 372.82812 24.2375Q374.04688 23.175 376.09375 23.175Q378.14062 23.175 379.34375 24.315624Q380.54688 25.45625 380.54688 27.14375Q380.54688 28.003124 380.1875 28.846874Q379.84375 29.675 379.03125 30.596874Q378.21875 31.503124 376.32812 33.1125Q374.73438 34.440624 374.28125 34.909374Q373.84375 35.378124 373.54688 35.8625L380.5625 35.8625ZM387.96875 37.55L387.96875 34.128124L381.75 34.128124L381.75 32.503124L388.28125 23.2375L389.71875 23.2375L389.71875 32.503124L391.65625 32.503124L391.65625 34.128124L389.71875 34.128124L389.71875 37.55L387.96875 37.55ZM387.96875 32.503124L387.96875 26.05L383.48438 32.503124L387.96875 32.503124ZM399.96875 37.55L399.96875 23.2375L401.85938 23.2375L401.85938 35.8625L408.90625 35.8625L408.90625 37.55L399.96875 37.55ZM410.98438 37.55L410.98438 23.2375L413.84375 23.2375L417.21875 33.3625Q417.6875 34.784374 417.90625 35.4875Q418.15625 34.70625 418.67188 33.190624L422.09375 23.2375L424.64062 23.2375L424.64062 37.55L422.82812 37.55L422.82812 25.565624L418.65625 37.55L416.95312 37.55L412.8125 25.3625L412.8125 37.55L410.98438 37.55ZM437.4375 23.2375L439.32812 23.2375L439.32812 31.503124Q439.32812 33.659374 438.84375 34.940624Q438.35938 36.20625 437.07812 37.003124Q435.8125 37.8 433.73438 37.8Q431.71875 37.8 430.4375 37.1125Q429.17188 36.409374 428.625 35.096874Q428.07812 33.784374 428.07812 31.503124L428.07812 23.2375L429.96875 23.2375L429.96875 31.4875Q429.96875 33.3625 430.3125 34.253124Q430.65625 35.128124 431.5 35.6125Q432.34375 36.08125 433.57812 36.08125Q435.65625 36.08125 436.54688 35.14375Q437.4375 34.190624 437.4375 31.4875L437.4375 23.2375ZM440.96875 37.55L440.96875 23.2375L442.85938 23.2375L442.85938 35.8625L449.90625 35.8625L449.90625 37.55L440.96875 37.55ZM461.0625 29.128124L451.60938 29.128124L451.60938 27.4875L461.0625 27.4875L461.0625 29.128124ZM461.0625 33.471874L451.60938 33.471874L451.60938 31.83125L461.0625 31.83125L461.0625 33.471874ZM466.03125 29.784374Q464.9375 29.378124 464.40625 28.64375Q463.89062 27.89375 463.89062 26.8625Q463.89062 25.3 465.01562 24.2375Q466.14062 23.175 468.0 23.175Q469.875 23.175 471.01562 24.26875Q472.15625 25.346874 472.15625 26.909374Q472.15625 27.909374 471.625 28.64375Q471.10938 29.378124 470.04688 29.784374Q471.375 30.221874 472.0625 31.175Q472.75 32.128124 472.75 33.45625Q472.75 35.3 471.4375 36.55Q470.14062 37.8 468.03125 37.8Q465.90625 37.8 464.60938 36.55Q463.3125 35.284374 463.3125 33.409374Q463.3125 32.01875 464.01562 31.08125Q464.73438 30.128124 466.03125 29.784374ZM465.6875 26.8Q465.6875 27.815624 466.34375 28.471874Q467.0 29.1125 468.03125 29.1125Q469.04688 29.1125 469.70312 28.471874Q470.35938 27.83125 470.35938 26.909374Q470.35938 25.940624 469.6875 25.284374Q469.01562 24.6125 468.01562 24.6125Q467.01562 24.6125 466.34375 25.26875Q465.6875 25.909374 465.6875 26.8ZM465.125 33.425Q465.125 34.175 465.46875 34.878124Q465.82812 35.58125 466.53125 35.971874Q467.23438 36.346874 468.04688 36.346874Q469.3125 36.346874 470.125 35.534374Q470.95312 34.721874 470.95312 33.471874Q470.95312 32.20625 470.10938 31.378124Q469.26562 30.55 467.98438 30.55Q466.75 30.55 465.9375 31.378124Q465.125 32.190624 465.125 33.425Z" fill-rule="nonzero"/></svg>