<svg version="1.1" viewBox="0.0 0.0 600.0 371.0" fill="none" stroke="none" stroke-linecap="square" stroke-miterlimit="10" width="600" height="371" xmlns:xlink="http://www.w3.org/1999/xlink" xmlns="http://www.w3.org/2000/svg"><path fill="#ffffff" d="M0 0L600.0 0L600.0 371.0L0 371.0L0 0Z" fill-rule="nonzero"/><path stroke="#cccccc" stroke-width="1.0" stroke-linecap="butt" d="M123.5 86.5L123.5 300.5" fill-rule="nonzero"/><path stroke="#cccccc" stroke-width="1.0" stroke-linecap="butt" d="M233.5 86.5L233.5 300.5" fill-rule="nonzero"/><path stroke="#cccccc" stroke-width="1.0" stroke-linecap="butt" d="M280.5 86.5L280.5 300.5" fill-rule="nonzero"/><path stroke="#cccccc" stroke-width="1.0" stroke-linecap="butt" d="M390.5 86.5L390.5 300.5" fill-rule="nonzero"/><path stroke="#cccccc" stroke-width="1.0" stroke-linecap="butt" d="M437.5 86.5L437.5 300.5" fill-rule="nonzero"/><path stroke="#cccccc" stroke-width="1.0" stroke-linecap="butt" d="M547.5 86.5L547.5 300.5" fill-rule="nonzero"/><path stroke="#333333" stroke-width="1.0" stroke-linecap="butt" d="M108.5 300.5L581.5 300.5" fill-rule="nonzero"/><path stroke="#cccccc" stroke-width="1.0" stroke-linecap="butt" d="M108.5 257.5L581.5 257.5" fill-rule="nonzero"/><path stroke="#cccccc" stroke-width="1.0" stroke-linecap="butt" d="M108.5 214.5L581.5 214.5" fill-rule="nonzero"/><path stroke="#cccccc" stroke-width="1.0" stroke-linecap="butt" d="M108.5 171.5L581.5 171.5" fill-rule="nonzero"/><path stroke="#cccccc" stroke-width="1.0" stroke-linecap="butt" d="M108.5 129.5L581.5 129.5" fill-rule="nonzero"/><path stroke="#cccccc" stroke-width="1.0" stroke-linecap="butt" d="M108.5 86.5L581.5 86.5" fill-rule="nonzero"/><clipPath id="id_0"><path d="M108.55 86.28333L581.45 86.28333L581.45 300.45L108.55 300.45L108.55 86.28333Z" clip-rule="nonzero"/></clipPath><path stroke="#4285f4" stroke-width="2.0" stroke-linecap="butt" clip-path="url(#id_0)" d="M108.55 298.58676L155.84 296.852L203.13 293.65665L250.42 287.25732L297.71 274.40732L345.0 248.81013L392.29 197.06746L439.58 95.3126L486.87 95.4668L534.16 95.364L581.45 95.4154" fill-rule="nonzero"/><path stroke="#ea4335" stroke-width="2.0" stroke-linecap="butt" clip-path="url(#id_0)" d="M108.55 300.0477L155.84 299.73093L203.13 299.2613L250.42 298.29446L297.71 296.2801L345.0 291.05237L392.29 282.1516L439.58 264.3158L486.87 264.43573L534.16 264.38434L581.45 264.47" fill-rule="nonzero"/><path fill="#000000" fill-opacity="0.0" clip-path="url(#id_0)" d="M111.55 298.58676C111.55 300.2436 110.206856 301.58676 108.55 301.58676C106.89314 301.58676 105.55 300.2436 105.55 298.58676C105.55 296.9299 106.89314 295.58676 108.55 295.58676C110.206856 295.58676 111.55 296.9299 111.55 298.58676Z" fill-rule="nonzero"/><path fill="#000000" fill-opacity="0.0" clip-path="url(#id_0)" d="M158.84 296.852C158.84 298.50885 157.49686 299.852 155.84 299.852C154.18315 299.852 152.84 298.50885 152.84 296.852C152.84 295.19516 154.18315 293.852 155.84 293.852C157.49686 293.852 158.84 295.19516 158.84 296.852Z" fill-rule="nonzero"/><path fill="#000000" fill-opacity="0.0" clip-path="url(#id_0)" d="M206.13 293.65665C206.13 295.31348 204.78685 296.65665 203.13 296.65665C201.47314 296.65665 200.13 295.31348 200.13 293.65665C200.13 291.9998 201.47314 290.65665 203.13 290.65665C204.78685 290.65665 206.13 291.9998 206.13 293.65665Z" fill-rule="nonzero"/><path fill="#000000" fill-opacity="0.0" clip-path="url(#id_0)" d="M253.42 287.25732C253.42 288.91418 252.07686 290.25732 250.42 290.25732C248.76315 290.25732 247.42 288.91418 247.42 287.25732C247.42 285.60046 248.76315 284.25732 250.42 284.25732C252.07686 284.25732 253.42 285.60046 253.42 287.25732Z" fill-rule="nonzero"/><path fill="#000000" fill-opacity="0.0" clip-path="url(#id_0)" d="M300.71 274.40732C300.71 276.06418 299.36685 277.40732 297.71 277.40732C296.05313 277.40732 294.71 276.06418 294.71 274.40732C294.71 272.7505 296.05313 271.40732 297.71 271.40732C299.36685 271.40732 300.71 272.7505 300.71 274.40732Z" fill-rule="nonzero"/><path fill="#000000" fill-opacity="0.0" clip-path="url(#id_0)" d="M348.0 248.81013C348.0 250.46698 346.65686 251.81013 345.0 251.81013C343.34314 251.81013 342.0 250.46698 342.0 248.81013C342.0 247.15327 343.34314 245.81013 345.0 245.81013C346.65686 245.81013 348.0 247.15327 348.0 248.81013Z" fill-rule="nonzero"/><path fill="#000000" fill-opacity="0.0" clip-path="url(#id_0)" d="M395.29 197.06746C395.29 198.72432 393.94687 200.06746 392.29 200.06746C390.63315 200.06746 389.29 198.72432 389.29 197.06746C389.29 195.41061 390.63315 194.06746 392.29 194.06746C393.94687 194.06746 395.29 195.41061 395.29 197.06746Z" fill-rule="nonzero"/><path fill="#000000" fill-opacity="0.0" clip-path="url(#id_0)" d="M442.58 95.3126C442.58 96.96945 441.23685 98.3126 439.58 98.3126C437.92316 98.3126 436.58 96.96945 436.58 95.3126C436.58 93.65575 437.92316 92.3126 439.58 92.3126C441.23685 92.3126 442.58 93.65575 442.58 95.3126Z" fill-rule="nonzero"/><path fill="#000000" fill-opacity="0.0" clip-path="url(#id_0)" d="M489.87 95.4668C489.87 97.12366 488.52686 98.4668 486.87 98.4668C485.21313 98.4668 483.87 97.12366 483.87 95.4668C483.87 93.809944 485.21313 92.4668 486.87 92.4668C488.52686 92.4668 489.87 93.809944 489.87 95.4668Z" fill-rule="nonzero"/><path fill="#000000" fill-opacity="0.0" clip-path="url(#id_0)" d="M537.16 95.364C537.16 97.02085 535.81683 98.364 534.16 98.364C532.5032 98.364 531.16 97.02085 531.16 95.364C531.16 93.707146 532.5032 92.364 534.16 92.364C535.81683 92.364 537.16 93.707146 537.16 95.364Z" fill-rule="nonzero"/><path fill="#000000" fill-opacity="0.0" clip-path="url(#id_0)" d="M584.45 95.4154C584.45 97.07226 583.1069 98.4154 581.45 98.4154C579.79315 98.4154 578.45 97.07226 578.45 95.4154C578.45 93.758545 579.79315 92.4154 581.45 92.4154C583.1069 92.4154 584.45 93.758545 584.45 95.4154Z" fill-rule="nonzero"/><path fill="#000000" fill-opacity="0.0" clip-path="url(#id_0)" d="M111.55 300.0477C111.55 301.70456 110.206856 303.0477 108.55 303.0477C106.89314 303.0477 105.55 301.70456 105.55 300.0477C105.55 298.39087 106.89314 297.0477 108.55 297.0477C110.206856 297.0477 111.55 298.39087 111.55 300.0477Z" fill-rule="nonzero"/><path fill="#000000" fill-opacity="0.0" clip-path="url(#id_0)" d="M158.84 299.73093C158.84 301.38776 157.49686 302.73093 155.84 302.73093C154.18315 302.73093 152.84 301.38776 152.84 299.73093C152.84 298.07407 154.18315 296.73093 155.84 296.73093C157.49686 296.73093 158.84 298.07407 158.84 299.73093Z" fill-rule="nonzero"/><path fill="#000000" fill-opacity="0.0" clip-path="url(#id_0)" d="M206.13 299.2613C206.13 300.91815 204.78685 302.2613 203.13 302.2613C201.47314 302.2613 200.13 300.91815 200.13 299.2613C200.13 297.60443 201.47314 296.2613 203.13 296.2613C204.78685 296.2613 206.13 297.60443 206.13 299.2613Z" fill-rule="nonzero"/><path fill="#000000" fill-opacity="0.0" clip-path="url(#id_0)" d="M253.42 298.29446C253.42 299.95132 252.07686 301.29446 250.42 301.29446C248.76315 301.29446 247.42 299.95132 247.42 298.29446C247.42 296.6376 248.76315 295.29446 250.42 295.29446C252.07686 295.29446 253.42 296.6376 253.42 298.29446Z" fill-rule="nonzero"/><path fill="#000000" fill-opacity="0.0" clip-path="url(#id_0)" d="M300.71 296.2801C300.71 297.93695 299.36685 299.2801 297.71 299.2801C296.05313 299.2801 294.71 297.93695 294.71 296.2801C294.71 294.62323 296.05313 293.2801 297.71 293.2801C299.36685 293.2801 300.71 294.62323 300.71 296.2801Z" fill-rule="nonzero"/><path fill="#000000" fill-opacity="0.0" clip-path="url(#id_0)" d="M348.0 291.05237C348.0 292.70923 346.65686 294.05237 345.0 294.05237C343.34314 294.05237 342.0 292.70923 342.0 291.05237C342.0 289.3955 343.34314 288.05237 345.0 288.05237C346.65686 288.05237 348.0 289.3955 348.0 291.05237Z" fill-rule="nonzero"/><path fill="#000000" fill-opacity="0.0" clip-path="url(#id_0)" d="M395.29 282.1516C395.29 283.80844 393.94687 285.1516 392.29 285.1516C390.63315 285.1516 389.29 283.80844 389.29 282.1516C389.29 280.49475 390.63315 279.1516 392.29 279.1516C393.94687 279.1516 395.29 280.49475 395.29 282.1516Z" fill-rule="nonzero"/><path fill="#000000" fill-opacity="0.0" clip-path="url(#id_0)" d="M442.58 264.3158C442.58 265.97266 441.23685 267.3158 439.58 267.3158C437.92316 267.3158 436.58 265.97266 436.58 264.3158C436.58 262.65894 437.92316 261.3158 439.58 261.3158C441.23685 261.3158 442.58 262.65894 442.58 264.3158Z" fill-rule="nonzero"/><path fill="#000000" fill-opacity="0.0" clip-path="url(#id_0)" d="M489.87 264.43573C489.87 266.0926 488.52686 267.43573 486.87 267.43573C485.21313 267.43573 483.87 266.0926 483.87 264.43573C483.87 262.77887 485.21313 261.43573 486.87 261.43573C488.52686 261.43573 489.87 262.77887 489.87 264.43573Z" fill-rule="nonzero"/><path fill="#000000" fill-opacity="0.0" clip-path="url(#id_0)" d="M537.16 264.38434C537.16 266.0412 535.81683 267.38434 534.16 267.38434C532.5032 267.38434 531.16 266.0412 531.16 264.38434C531.16 262.72748 532.5032 261.38434 534.16 261.38434C535.81683 261.38434 537.16 262.72748 537.16 264.38434Z" fill-rule="nonzero"/><path fill="#000000" fill-opacity="0.0" clip-path="url(#id_0)" d="M584.45 264.47C584.45 266.12686 583.1069 267.47 581.45 267.47C579.79315 267.47 578.45 266.12686 578.45 264.47C578.45 262.81314 579.79315 261.47 581.45 261.47C583.1069 261.47 584.45 262.81314 584.45 264.47Z" fill-rule="nonzero"/><path fill="#000000" d="M298.375 349.45L298.375 340.85626L301.60938 340.85626Q302.59375 340.85626 303.1875 341.1219Q303.78125 341.3875 304.10938 341.9344Q304.45312 342.46564 304.45312 343.0594Q304.45312 343.60626 304.15625 344.09064Q303.85938 344.575 303.25 344.8719Q304.03125 345.10626 304.4375 345.66876Q304.85938 346.21564 304.85938 346.96564Q304.85938 347.5594 304.60938 348.09064Q304.35938 348.60626 303.98438 348.8875Q303.60938 349.16876 303.03125 349.3094Q302.46875 349.45 301.65625 349.45L298.375 349.45ZM299.51562 344.46564L301.375 344.46564Q302.125 344.46564 302.45312 344.3719Q302.89062 344.2469 303.10938 343.95Q303.32812 343.6375 303.32812 343.1844Q303.32812 342.7625 303.125 342.4344Q302.92188 342.10626 302.53125 341.9969Q302.15625 341.8719 301.23438 341.8719L299.51562 341.8719L299.51562 344.46564ZM299.51562 348.4344L301.65625 348.4344Q302.20312 348.4344 302.42188 348.3875Q302.82812 348.325 303.07812 348.16876Q303.34375 347.9969 303.51562 347.6844Q303.6875 347.3719 303.6875 346.96564Q303.6875 346.48126 303.4375 346.1219Q303.20312 345.7625 302.76562 345.6219Q302.32812 345.48126 301.5 345.48126L299.51562 345.48126L299.51562 348.4344ZM306.26562 349.45L306.26562 340.85626L307.32812 340.85626L307.32812 349.45L306.26562 349.45ZM308.90625 346.34064Q308.90625 344.60626 309.85938 343.77814Q310.65625 343.09064 311.8125 343.09064Q313.09375 343.09064 313.90625 343.9344Q314.73438 344.7625 314.73438 346.2469Q314.73438 347.45 314.375 348.1375Q314.01562 348.825 313.3125 349.21564Q312.625 349.59064 311.8125 349.59064Q310.51562 349.59064 309.70312 348.7625Q308.90625 347.91876 308.90625 346.34064ZM309.98438 346.34064Q309.98438 347.52814 310.5 348.1219Q311.03125 348.71564 311.8125 348.71564Q312.60938 348.71564 313.125 348.1219Q313.64062 347.52814 313.64062 346.3094Q313.64062 345.15314 313.10938 344.5594Q312.59375 343.96564 311.8125 343.96564Q311.03125 343.96564 310.5 344.5594Q309.98438 345.1375 309.98438 346.34064ZM320.35938 347.16876L321.39062 347.3094Q321.21875 348.3719 320.51562 348.98126Q319.8125 349.59064 318.79688 349.59064Q317.51562 349.59064 316.73438 348.7625Q315.96875 347.91876 315.96875 346.35626Q315.96875 345.35626 316.29688 344.60626Q316.64062 343.84064 317.3125 343.46564Q318.0 343.09064 318.8125 343.09064Q319.8125 343.09064 320.45312 343.60626Q321.10938 344.10626 321.29688 345.0594L320.26562 345.21564Q320.125 344.59064 319.75 344.27814Q319.375 343.95 318.84375 343.95Q318.04688 343.95 317.54688 344.52814Q317.04688 345.09064 317.04688 346.325Q317.04688 347.59064 317.53125 348.15314Q318.01562 348.71564 318.78125 348.71564Q319.40625 348.71564 319.8125 348.34064Q320.23438 347.96564 320.35938 347.16876ZM322.29688 349.45L322.29688 340.85626L323.35938 340.85626L323.35938 345.7625L325.84375 343.23126L327.21875 343.23126L324.82812 345.52814L327.45312 349.45L326.15625 349.45L324.09375 346.2625L323.35938 346.98126L323.35938 349.45L322.29688 349.45ZM330.875 347.59064L331.90625 347.4344Q332.0 348.0594 332.39062 348.3875Q332.79688 348.71564 333.53125 348.71564Q334.25 348.71564 334.59375 348.4344Q334.95312 348.1375 334.95312 347.73126Q334.95312 347.3719 334.64062 347.16876Q334.42188 347.02814 333.5625 346.8094Q332.40625 346.5125 331.95312 346.3094Q331.51562 346.09064 331.28125 345.71564Q331.04688 345.34064 331.04688 344.8719Q331.04688 344.46564 331.23438 344.10626Q331.42188 343.7469 331.75 343.5125Q332.0 343.34064 332.42188 343.21564Q332.84375 343.09064 333.34375 343.09064Q334.0625 343.09064 334.60938 343.3094Q335.17188 343.5125 335.4375 343.8719Q335.70312 344.23126 335.79688 344.825L334.76562 344.96564Q334.70312 344.4969 334.35938 344.23126Q334.03125 343.95 333.40625 343.95Q332.6875 343.95 332.375 344.2Q332.0625 344.4344 332.0625 344.7625Q332.0625 344.96564 332.1875 345.1219Q332.32812 345.29376 332.59375 345.40314Q332.75 345.46564 333.53125 345.66876Q334.65625 345.98126 335.09375 346.16876Q335.53125 346.35626 335.78125 346.71564Q336.03125 347.075 336.03125 347.6219Q336.03125 348.15314 335.71875 348.6219Q335.42188 349.075 334.84375 349.34064Q334.26562 349.59064 333.53125 349.59064Q332.3125 349.59064 331.67188 349.09064Q331.04688 348.575 330.875 347.59064ZM338.29688 342.075L338.29688 340.85626L339.35938 340.85626L339.35938 342.075L338.29688 342.075ZM338.29688 349.45L338.29688 343.23126L339.35938 343.23126L339.35938 349.45L338.29688 349.45ZM340.73438 349.45L340.73438 348.59064L344.70312 344.04376Q344.01562 344.075 343.5 344.075L340.96875 344.075L340.96875 343.23126L346.0625 343.23126L346.0625 343.91876L342.6875 347.8719L342.03125 348.59064Q342.75 348.54376 343.35938 348.54376L346.25 348.54376L346.25 349.45L340.73438 349.45ZM350.54688 347.45L351.64062 347.575Q351.39062 348.52814 350.6875 349.0594Q349.98438 349.59064 348.90625 349.59064Q347.54688 349.59064 346.73438 348.7469Q345.9375 347.90314 345.9375 346.3875Q345.9375 344.825 346.75 343.96564Q347.5625 343.09064 348.84375 343.09064Q350.09375 343.09064 350.875 343.9344Q351.67188 344.77814 351.67188 346.325Q351.67188 346.41876 351.67188 346.60626L347.03125 346.60626Q347.09375 347.6375 347.60938 348.1844Q348.125 348.71564 348.90625 348.71564Q349.48438 348.71564 349.89062 348.41876Q350.3125 348.10626 350.54688 347.45ZM347.09375 345.7469L350.5625 345.7469Q350.5 344.95 350.17188 344.5594Q349.65625 343.95 348.85938 343.95Q348.125 343.95 347.625 344.4344Q347.14062 344.91876 347.09375 345.7469ZM358.3125 351.98126Q357.4375 350.8719 356.82812 349.40314Q356.23438 347.91876 356.23438 346.34064Q356.23438 344.95 356.67188 343.66876Q357.20312 342.1844 358.3125 340.71564L359.0625 340.71564Q358.35938 341.9344 358.125 342.45Q357.76562 343.2625 357.5625 344.1375Q357.3125 345.23126 357.3125 346.34064Q357.3125 349.16876 359.0625 351.98126L358.3125 351.98126ZM361.26562 349.45L360.28125 349.45L360.28125 340.85626L361.34375 340.85626L361.34375 343.91876Q362.01562 343.09064 363.04688 343.09064Q363.625 343.09064 364.125 343.325Q364.64062 343.54376 364.96875 343.96564Q365.3125 344.3875 365.5 344.98126Q365.6875 345.575 365.6875 346.2469Q365.6875 347.84064 364.89062 348.71564Q364.09375 349.59064 363.0 349.59064Q361.89062 349.59064 361.26562 348.66876L361.26562 349.45ZM361.25 346.29376Q361.25 347.40314 361.5625 347.90314Q362.0625 348.71564 362.90625 348.71564Q363.59375 348.71564 364.09375 348.1219Q364.60938 347.52814 364.60938 346.325Q364.60938 345.10626 364.125 344.52814Q363.64062 343.95 362.95312 343.95Q362.26562 343.95 361.75 344.5594Q361.25 345.15314 361.25 346.29376ZM367.25 351.84064L367.125 350.85626Q367.46875 350.95 367.73438 350.95Q368.07812 350.95 368.28125 350.825Q368.5 350.71564 368.64062 350.5125Q368.73438 350.34064 368.96875 349.71564Q368.98438 349.6375 369.0625 349.46564L366.6875 343.23126L367.82812 343.23126L369.125 346.825Q369.375 347.5125 369.57812 348.27814Q369.76562 347.54376 370.01562 346.85626L371.34375 343.23126L372.39062 343.23126L370.03125 349.5594Q369.64062 350.575 369.4375 350.96564Q369.15625 351.4969 368.78125 351.73126Q368.42188 351.98126 367.92188 351.98126Q367.625 351.98126 367.25 351.84064ZM374.59375 348.5125L374.75 349.4344Q374.29688 349.52814 373.95312 349.52814Q373.375 349.52814 373.0625 349.35626Q372.75 349.16876 372.60938 348.8719Q372.48438 348.575 372.48438 347.6219L372.48438 344.04376L371.71875 344.04376L371.71875 343.23126L372.48438 343.23126L372.48438 341.6844L373.53125 341.0594L373.53125 343.23126L374.59375 343.23126L374.59375 344.04376L373.53125 344.04376L373.53125 347.6844Q373.53125 348.1375 373.57812 348.2625Q373.64062 348.3875 373.76562 348.46564Q373.89062 348.54376 374.125 348.54376Q374.3125 348.54376 374.59375 348.5125ZM379.54688 347.45L380.64062 347.575Q380.39062 348.52814 379.6875 349.0594Q378.98438 349.59064 377.90625 349.59064Q376.54688 349.59064 375.73438 348.7469Q374.9375 347.90314 374.9375 346.3875Q374.9375 344.825 375.75 343.96564Q376.5625 343.09064 377.84375 343.09064Q379.09375 343.09064 379.875 343.9344Q380.67188 344.77814 380.67188 346.325Q380.67188 346.41876 380.67188 346.60626L376.03125 346.60626Q376.09375 347.6375 376.60938 348.1844Q377.125 348.71564 377.90625 348.71564Q378.48438 348.71564 378.89062 348.41876Q379.3125 348.10626 379.54688 347.45ZM376.09375 345.7469L379.5625 345.7469Q379.5 344.95 379.17188 344.5594Q378.65625 343.95 377.85938 343.95Q377.125 343.95 376.625 344.4344Q376.14062 344.91876 376.09375 345.7469ZM381.875 347.59064L382.90625 347.4344Q383.0 348.0594 383.39062 348.3875Q383.79688 348.71564 384.53125 348.71564Q385.25 348.71564 385.59375 348.4344Q385.95312 348.1375 385.95312 347.73126Q385.95312 347.3719 385.64062 347.16876Q385.42188 347.02814 384.5625 346.8094Q383.40625 346.5125 382.95312 346.3094Q382.51562 346.09064 382.28125 345.71564Q382.04688 345.34064 382.04688 344.8719Q382.04688 344.46564 382.23438 344.10626Q382.42188 343.7469 382.75 343.5125Q383.0 343.34064 383.42188 343.21564Q383.84375 343.09064 384.34375 343.09064Q385.0625 343.09064 385.60938 343.3094Q386.17188 343.5125 386.4375 343.8719Q386.70312 344.23126 386.79688 344.825L385.76562 344.96564Q385.70312 344.4969 385.35938 344.23126Q385.03125 343.95 384.40625 343.95Q383.6875 343.95 383.375 344.2Q383.0625 344.4344 383.0625 344.7625Q383.0625 344.96564 383.1875 345.1219Q383.32812 345.29376 383.59375 345.40314Q383.75 345.46564 384.53125 345.66876Q385.65625 345.98126 386.09375 346.16876Q386.53125 346.35626 386.78125 346.71564Q387.03125 347.075 387.03125 347.6219Q387.03125 348.15314 386.71875 348.6219Q386.42188 349.075 385.84375 349.34064Q385.26562 349.59064 384.53125 349.59064Q383.3125 349.59064 382.67188 349.09064Q382.04688 348.575 381.875 347.59064ZM389.98438 351.98126L389.23438 351.98126Q390.98438 349.16876 390.98438 346.34064Q390.98438 345.2469 390.73438 344.15314Q390.53125 343.27814 390.17188 342.46564Q389.9375 341.95 389.23438 340.71564L389.98438 340.71564Q391.07812 342.1844 391.60938 343.66876Q392.0625 344.95 392.0625 346.34064Q392.0625 347.91876 391.45312 349.40314Q390.84375 350.8719 389.98438 351.98126Z" fill-rule="nonzero"/><path fill="#000000" d="M29.550013 280.74167L20.956263 280.74167L20.956263 279.61667L29.550013 279.61667L29.550013 280.74167ZM29.550013 278.0698L23.331263 278.0698L23.331263 277.1323L24.206263 277.1323Q23.190638 276.4448 23.190638 275.14792Q23.190638 274.58542 23.393763 274.11667Q23.596888 273.6323 23.925013 273.39792Q24.253138 273.16354 24.690638 273.0698Q24.987513 273.02292 25.721888 273.02292L29.550013 273.02292L29.550013 274.0698L25.768763 274.0698Q25.112513 274.0698 24.800013 274.1948Q24.487513 274.3198 24.300013 274.6323Q24.096888 274.9448 24.096888 275.36667Q24.096888 276.03854 24.534388 276.53854Q24.956263 277.02292 26.143763 277.02292L29.550013 277.02292L29.550013 278.0698ZM27.690638 271.49167L27.534388 270.46042Q28.159388 270.36667 28.487513 269.97604Q28.815638 269.5698 28.815638 268.83542Q28.815638 268.11667 28.534388 267.77292Q28.237513 267.41354 27.831263 267.41354Q27.471888 267.41354 27.268763 267.72604Q27.128138 267.9448 26.909388 268.80417Q26.612513 269.96042 26.409388 270.41354Q26.190638 270.85104 25.815638 271.08542Q25.440638 271.3198 24.971888 271.3198Q24.565638 271.3198 24.206263 271.1323Q23.846888 270.9448 23.612513 270.61667Q23.440638 270.36667 23.315638 269.9448Q23.190638 269.52292 23.190638 269.02292Q23.190638 268.30417 23.409388 267.7573Q23.612513 267.1948 23.971888 266.92917Q24.331263 266.66354 24.925013 266.5698L25.065638 267.60104Q24.596888 267.66354 24.331263 268.0073Q24.050013 268.33542 24.050013 268.96042Q24.050013 269.67917 24.300013 269.99167Q24.534388 270.30417 24.862513 270.30417Q25.065638 270.30417 25.221888 270.17917Q25.393763 270.03854 25.503138 269.77292Q25.565638 269.61667 25.768763 268.83542Q26.081263 267.71042 26.268763 267.27292Q26.456263 266.83542 26.815638 266.58542Q27.175013 266.33542 27.721888 266.33542Q28.253138 266.33542 28.721888 266.64792Q29.175013 266.9448 29.440638 267.52292Q29.690638 268.10104 29.690638 268.83542Q29.690638 270.05417 29.190638 270.6948Q28.675013 271.3198 27.690638 271.49167ZM28.612513 261.77292L29.534388 261.61667Q29.628138 262.0698 29.628138 262.41354Q29.628138 262.99167 29.456263 263.30417Q29.268763 263.61667 28.971888 263.7573Q28.675013 263.8823 27.721888 263.8823L24.143763 263.8823L24.143763 264.64792L23.331263 264.64792L23.331263 263.8823L21.784388 263.8823L21.159388 262.83542L23.331263 262.83542L23.331263 261.77292L24.143763 261.77292L24.143763 262.83542L27.784388 262.83542Q28.237513 262.83542 28.362513 262.78854Q28.487513 262.72604 28.565638 262.60104Q28.643763 262.47604 28.643763 262.24167Q28.643763 262.05417 28.612513 261.77292ZM29.550013 261.08542L23.331263 261.08542L23.331263 260.1323L24.268763 260.1323Q23.612513 259.77292 23.409388 259.47604Q23.190638 259.16354 23.190638 258.78854Q23.190638 258.2573 23.518763 257.71042L24.503138 258.0698Q24.268763 258.46042 24.268763 258.83542Q24.268763 259.1948 24.487513 259.47604Q24.690638 259.74167 25.065638 259.85104Q25.628138 260.03854 26.284388 260.03854L29.550013 260.03854L29.550013 261.08542ZM29.550013 252.99167L28.628138 252.99167Q29.690638 253.72604 29.690638 254.97604Q29.690638 255.52292 29.487513 256.0073Q29.268763 256.47604 28.956263 256.71042Q28.628138 256.9448 28.159388 257.03854Q27.862513 257.10104 27.175013 257.10104L23.331263 257.10104L23.331263 256.03854L26.784388 256.03854Q27.596888 256.03854 27.893763 255.97604Q28.300013 255.8823 28.550013 255.5698Q28.784388 255.24167 28.784388 254.7573Q28.784388 254.28854 28.550013 253.8823Q28.300013 253.46042 27.878138 253.28854Q27.456263 253.10104 26.659388 253.10104L23.331263 253.10104L23.331263 252.05417L29.550013 252.05417L29.550013 252.99167ZM27.268763 246.0073L27.409388 244.97604Q28.471888 245.14792 29.081263 245.85104Q29.690638 246.55417 29.690638 247.5698Q29.690638 248.85104 28.862513 249.6323Q28.018763 250.39792 26.456263 250.39792Q25.456263 250.39792 24.706263 250.0698Q23.940638 249.72604 23.565638 249.05417Q23.190638 248.36667 23.190638 247.55417Q23.190638 246.55417 23.706263 245.91354Q24.206263 245.2573 25.159388 245.0698L25.315638 246.10104Q24.690638 246.24167 24.378138 246.61667Q24.050013 246.99167 24.050013 247.52292Q24.050013 248.3198 24.628138 248.8198Q25.190638 249.3198 26.425013 249.3198Q27.690638 249.3198 28.253138 248.83542Q28.815638 248.35104 28.815638 247.58542Q28.815638 246.96042 28.440638 246.55417Q28.065638 246.1323 27.268763 246.0073ZM28.612513 241.77292L29.534388 241.61667Q29.628138 242.0698 29.628138 242.41354Q29.628138 242.99167 29.456263 243.30417Q29.268763 243.61667 28.971888 243.7573Q28.675013 243.8823 27.721888 243.8823L24.143763 243.8823L24.143763 244.64792L23.331263 244.64792L23.331263 243.8823L21.784388 243.8823L21.159388 242.83542L23.331263 242.83542L23.331263 241.77292L24.143763 241.77292L24.143763 242.83542L27.784388 242.83542Q28.237513 242.83542 28.362513 242.78854Q28.487513 242.72604 28.565638 242.60104Q28.643763 242.47604 28.643763 242.24167Q28.643763 242.05417 28.612513 241.77292ZM22.175013 241.0698L20.956263 241.0698L20.956263 240.0073L22.175013 240.0073L22.175013 241.0698ZM29.550013 241.0698L23.331263 241.0698L23.331263 240.0073L29.550013 240.0073L29.550013 241.0698ZM26.440638 238.46042Q24.706263 238.46042 23.878138 237.5073Q23.190638 236.71042 23.190638 235.55417Q23.190638 234.27292 24.034388 233.46042Q24.862513 232.6323 26.346888 232.6323Q27.550013 232.6323 28.237513 232.99167Q28.925013 233.35104 29.315638 234.05417Q29.690638 234.74167 29.690638 235.55417Q29.690638 236.85104 28.862513 237.66354Q28.018763 238.46042 26.440638 238.46042ZM26.440638 237.3823Q27.628138 237.3823 28.221888 236.86667Q28.815638 236.33542 28.815638 235.55417Q28.815638 234.7573 28.221888 234.24167Q27.628138 233.72604 26.409388 233.72604Q25.253138 233.72604 24.659388 234.2573Q24.065638 234.77292 24.065638 235.55417Q24.065638 236.33542 24.659388 236.86667Q25.237513 237.3823 26.440638 237.3823ZM29.550013 231.0698L23.331263 231.0698L23.331263 230.1323L24.206263 230.1323Q23.190638 229.4448 23.190638 228.14792Q23.190638 227.58542 23.393763 227.11667Q23.596888 226.6323 23.925013 226.39792Q24.253138 226.16354 24.690638 226.0698Q24.987513 226.02292 25.721888 226.02292L29.550013 226.02292L29.550013 227.0698L25.768763 227.0698Q25.112513 227.0698 24.800013 227.1948Q24.487513 227.3198 24.300013 227.6323Q24.096888 227.9448 24.096888 228.36667Q24.096888 229.03854 24.534388 229.53854Q24.956263 230.02292 26.143763 230.02292L29.550013 230.02292L29.550013 231.0698ZM27.550013 216.8198L27.675013 215.72604Q28.628138 215.97604 29.159388 216.67917Q29.690638 217.3823 29.690638 218.46042Q29.690638 219.8198 28.846888 220.6323Q28.003138 221.42917 26.487513 221.42917Q24.925013 221.42917 24.065638 220.61667Q23.190638 219.80417 23.190638 218.52292Q23.190638 217.27292 24.034388 216.49167Q24.878138 215.6948 26.425013 215.6948Q26.518763 215.6948 26.706263 215.6948L26.706263 220.33542Q27.737513 220.27292 28.284388 219.7573Q28.815638 219.24167 28.815638 218.46042Q28.815638 217.8823 28.518763 217.47604Q28.206263 217.05417 27.550013 216.8198ZM25.846888 220.27292L25.846888 216.80417Q25.050013 216.86667 24.659388 217.1948Q24.050013 217.71042 24.050013 218.5073Q24.050013 219.24167 24.534388 219.74167Q25.018763 220.22604 25.846888 220.27292ZM29.550013 214.77292L26.315638 212.5073L23.331263 214.60104L23.331263 213.28854L24.784388 212.33542Q25.206263 212.0698 25.487513 211.89792Q25.096888 211.64792 24.800013 211.42917L23.331263 210.3823L23.331263 209.11667L26.253138 211.27292L29.550013 208.96042L29.550013 210.24167L27.612513 211.52292L27.096888 211.86667L29.550013 213.5073L29.550013 214.77292ZM27.550013 204.8198L27.675013 203.72604Q28.628138 203.97604 29.159388 204.67917Q29.690638 205.3823 29.690638 206.46042Q29.690638 207.8198 28.846888 208.6323Q28.003138 209.42917 26.487513 209.42917Q24.925013 209.42917 24.065638 208.61667Q23.190638 207.80417 23.190638 206.52292Q23.190638 205.27292 24.034388 204.49167Q24.878138 203.6948 26.425013 203.6948Q26.518763 203.6948 26.706263 203.6948L26.706263 208.33542Q27.737513 208.27292 28.284388 207.7573Q28.815638 207.24167 28.815638 206.46042Q28.815638 205.8823 28.518763 205.47604Q28.206263 205.05417 27.550013 204.8198ZM25.846888 208.27292L25.846888 204.80417Q25.050013 204.86667 24.659388 205.1948Q24.050013 205.71042 24.050013 206.5073Q24.050013 207.24167 24.534388 207.74167Q25.018763 208.22604 25.846888 208.27292ZM27.268763 198.0073L27.409388 196.97604Q28.471888 197.14792 29.081263 197.85104Q29.690638 198.55417 29.690638 199.5698Q29.690638 200.85104 28.862513 201.6323Q28.018763 202.39792 26.456263 202.39792Q25.456263 202.39792 24.706263 202.0698Q23.940638 201.72604 23.565638 201.05417Q23.190638 200.36667 23.190638 199.55417Q23.190638 198.55417 23.706263 197.91354Q24.206263 197.2573 25.159388 197.0698L25.315638 198.10104Q24.690638 198.24167 24.378138 198.61667Q24.050013 198.99167 24.050013 199.52292Q24.050013 200.3198 24.628138 200.8198Q25.190638 201.3198 26.425013 201.3198Q27.690638 201.3198 28.253138 200.83542Q28.815638 200.35104 28.815638 199.58542Q28.815638 198.96042 28.440638 198.55417Q28.065638 198.1323 27.268763 198.0073ZM29.550013 191.99167L28.628138 191.99167Q29.690638 192.72604 29.690638 193.97604Q29.690638 194.52292 29.487513 195.0073Q29.268763 195.47604 28.956263 195.71042Q28.628138 195.9448 28.159388 196.03854Q27.862513 196.10104 27.175013 196.10104L23.331263 196.10104L23.331263 195.03854L26.784388 195.03854Q27.596888 195.03854 27.893763 194.97604Q28.300013 194.8823 28.550013 194.5698Q28.784388 194.24167 28.784388 193.7573Q28.784388 193.28854 28.550013 192.8823Q28.300013 192.46042 27.878138 192.28854Q27.456263 192.10104 26.659388 192.10104L23.331263 192.10104L23.331263 191.05417L29.550013 191.05417L29.550013 191.99167ZM28.612513 186.77292L29.534388 186.61667Q29.628138 187.0698 29.628138 187.41354Q29.628138 187.99167 29.456263 188.30417Q29.268763 188.61667 28.971888 188.7573Q28.675013 188.8823 27.721888 188.8823L24.143763 188.8823L24.143763 189.64792L23.331263 189.64792L23.331263 188.8823L21.784388 188.8823L21.159388 187.83542L23.331263 187.83542L23.331263 186.77292L24.143763 186.77292L24.143763 187.83542L27.784388 187.83542Q28.237513 187.83542 28.362513 187.78854Q28.487513 187.72604 28.565638 187.60104Q28.643763 187.47604 28.643763 187.24167Q28.643763 187.05417 28.612513 186.77292ZM22.175013 186.0698L20.956263 186.0698L20.956263 185.0073L22.175013 185.0073L22.175013 186.0698ZM29.550013 186.0698L23.331263 186.0698L23.331263 185.0073L29.550013 185.0073L29.550013 186.0698ZM26.440638 183.46042Q24.706263 183.46042 23.878138 182.5073Q23.190638 181.71042 23.190638 180.55417Q23.190638 179.27292 24.034388 178.46042Q24.862513 177.6323 26.346888 177.6323Q27.550013 177.6323 28.237513 177.99167Q28.925013 178.35104 29.315638 179.05417Q29.690638 179.74167 29.690638 180.55417Q29.690638 181.85104 28.862513 182.66354Q28.018763 183.46042 26.440638 183.46042ZM26.440638 182.3823Q27.628138 182.3823 28.221888 181.86667Q28.815638 181.33542 28.815638 180.55417Q28.815638 179.7573 28.221888 179.24167Q27.628138 178.72604 26.409388 178.72604Q25.253138 178.72604 24.659388 179.2573Q24.065638 179.77292 24.065638 180.55417Q24.065638 181.33542 24.659388 181.86667Q25.237513 182.3823 26.440638 182.3823ZM29.550013 176.0698L23.331263 176.0698L23.331263 175.1323L24.206263 175.1323Q23.190638 174.4448 23.190638 173.14792Q23.190638 172.58542 23.393763 172.11667Q23.596888 171.6323 23.925013 171.39792Q24.253138 171.16354 24.690638 171.0698Q24.987513 171.02292 25.721888 171.02292L29.550013 171.02292L29.550013 172.0698L25.768763 172.0698Q25.112513 172.0698 24.800013 172.1948Q24.487513 172.3198 24.300013 172.6323Q24.096888 172.9448 24.096888 173.36667Q24.096888 174.03854 24.534388 174.53854Q24.956263 175.02292 26.143763 175.02292L29.550013 175.02292L29.550013 176.0698ZM28.612513 163.77292L29.534388 163.61667Q29.628138 164.0698 29.628138 164.41354Q29.628138 164.99167 29.456263 165.30417Q29.268763 165.61667 28.971888 165.7573Q28.675013 165.8823 27.721888 165.8823L24.143763 165.8823L24.143763 166.64792L23.331263 166.64792L23.331263 165.8823L21.784388 165.8823L21.159388 164.83542L23.331263 164.83542L23.331263 163.77292L24.143763 163.77292L24.143763 164.83542L27.784388 164.83542Q28.237513 164.83542 28.362513 164.78854Q28.487513 164.72604 28.565638 164.60104Q28.643763 164.47604 28.643763 164.24167Q28.643763 164.05417 28.612513 163.77292ZM22.175013 163.0698L20.956263 163.0698L20.956263 162.0073L22.175013 162.0073L22.175013 163.0698ZM29.550013 163.0698L23.331263 163.0698L23.331263 162.0073L29.550013 162.0073L29.550013 163.0698ZM29.550013 160.0698L23.331263 160.0698L23.331263 159.1323L24.206263 159.1323Q23.737513 158.83542 23.471888 158.35104Q23.190638 157.86667 23.190638 157.24167Q23.190638 156.55417 23.471888 156.11667Q23.753138 155.66354 24.268763 155.49167Q23.190638 154.74167 23.190638 153.5698Q23.190638 152.6323 23.706263 152.14792Q24.206263 151.64792 25.284388 151.64792L29.550013 151.64792L29.550013 152.6948L25.628138 152.6948Q25.003138 152.6948 24.721888 152.80417Q24.440638 152.89792 24.268763 153.16354Q24.096888 153.42917 24.096888 153.80417Q24.096888 154.46042 24.534388 154.89792Q24.971888 155.3198 25.940638 155.3198L29.550013 155.3198L29.550013 156.3823L25.503138 156.3823Q24.800013 156.3823 24.456263 156.64792Q24.096888 156.89792 24.096888 157.47604Q24.096888 157.92917 24.331263 158.30417Q24.565638 158.67917 25.018763 158.85104Q25.471888 159.02292 26.315638 159.02292L29.550013 159.02292L29.550013 160.0698ZM27.550013 144.8198L27.675013 143.72604Q28.628138 143.97604 29.159388 144.67917Q29.690638 145.3823 29.690638 146.46042Q29.690638 147.8198 28.846888 148.6323Q28.003138 149.42917 26.487513 149.42917Q24.925013 149.42917 24.065638 148.61667Q23.190638 147.80417 23.190638 146.52292Q23.190638 145.27292 24.034388 144.49167Q24.878138 143.6948 26.425013 143.6948Q26.518763 143.6948 26.706263 143.6948L26.706263 148.33542Q27.737513 148.27292 28.284388 147.7573Q28.815638 147.24167 28.815638 146.46042Q28.815638 145.8823 28.518763 145.47604Q28.206263 145.05417 27.550013 144.8198ZM25.846888 148.27292L25.846888 144.80417Q25.050013 144.86667 24.659388 145.1948Q24.050013 145.71042 24.050013 146.5073Q24.050013 147.24167 24.534388 147.74167Q25.018763 148.22604 25.846888 148.27292ZM32.08126 137.05417Q30.971888 137.92917 29.503138 138.53854Q28.018763 139.1323 26.440638 139.1323Q25.050013 139.1323 23.768763 138.6948Q22.284388 138.16354 20.815638 137.05417L20.815638 136.30417Q22.034388 137.0073 22.550013 137.24167Q23.362513 137.60104 24.237513 137.80417Q25.331263 138.05417 26.440638 138.05417Q29.268763 138.05417 32.08126 136.30417L32.08126 137.05417ZM29.550013 135.0698L23.331263 135.0698L23.331263 134.1323L24.206263 134.1323Q23.190638 133.4448 23.190638 132.14792Q23.190638 131.58542 23.393763 131.11667Q23.596888 130.6323 23.925013 130.39792Q24.253138 130.16354 24.690638 130.0698Q24.987513 130.02292 25.721888 130.02292L29.550013 130.02292L29.550013 131.0698L25.768763 131.0698Q25.112513 131.0698 24.800013 131.1948Q24.487513 131.3198 24.300013 131.6323Q24.096888 131.9448 24.096888 132.36667Q24.096888 133.03854 24.534388 133.53854Q24.956263 134.02292 26.143763 134.02292L29.550013 134.02292L29.550013 135.0698ZM27.690638 128.49167L27.534388 127.46042Q28.159388 127.36667 28.487513 126.97604Q28.815638 126.56979 28.815638 125.83542Q28.815638 125.11667 28.534388 124.77292Q28.237513 124.41354 27.831263 124.41354Q27.471888 124.41354 27.268763 124.72604Q27.128138 124.94479 26.909388 125.80417Q26.612513 126.96042 26.409388 127.41354Q26.190638 127.85104 25.815638 128.08542Q25.440638 128.3198 24.971888 128.3198Q24.565638 128.3198 24.206263 128.1323Q23.846888 127.94479 23.612513 127.61667Q23.440638 127.36667 23.315638 126.94479Q23.190638 126.52292 23.190638 126.02292Q23.190638 125.30417 23.409388 124.75729Q23.612513 124.19479 23.971888 123.92917Q24.331263 123.66354 24.925013 123.56979L25.065638 124.60104Q24.596888 124.66354 24.331263 125.00729Q24.050013 125.33542 24.050013 125.96042Q24.050013 126.67917 24.300013 126.99167Q24.534388 127.30417 24.862513 127.30417Q25.065638 127.30417 25.221888 127.17917Q25.393763 127.03854 25.503138 126.77292Q25.565638 126.61667 25.768763 125.83542Q26.081263 124.71042 26.268763 124.27292Q26.456263 123.83542 26.815638 123.58542Q27.175013 123.33542 27.721888 123.33542Q28.253138 123.33542 28.721888 123.64792Q29.175013 123.94479 29.440638 124.52292Q29.690638 125.10104 29.690638 125.83542Q29.690638 127.05417 29.190638 127.69479Q28.675013 128.3198 27.690638 128.49167ZM32.08126 120.38229L32.08126 121.13229Q29.268763 119.38229 26.440638 119.38229Q25.346888 119.38229 24.253138 119.63229Q23.378138 119.83542 22.565638 120.19479Q22.050013 120.42917 20.815638 121.13229L20.815638 120.38229Q22.284388 119.28854 23.768763 118.75729Q25.050013 118.30417 26.440638 118.30417Q28.018763 118.30417 29.503138 118.91354Q30.971888 119.52292 32.08126 120.38229Z" fill-rule="nonzero"/><path fill="#000000" d="M98.925 301.8719L98.925 300.8094L102.175 300.8094L102.175 301.8719L98.925 301.8719Z" fill-rule="nonzero"/><path fill="#000000" d="M63.596874 260.60104L63.596874 261.61667L57.909374 261.61667Q57.909374 261.24167 58.034374 260.8823Q58.253124 260.30417 58.721874 259.74167Q59.20625 259.17917 60.1125 258.4448Q61.51875 257.28854 62.003124 256.61667Q62.503124 255.9448 62.503124 255.35104Q62.503124 254.72604 62.05 254.30417Q61.596874 253.86667 60.878124 253.86667Q60.1125 253.86667 59.659374 254.3198Q59.20625 254.77292 59.190624 255.58542L58.1125 255.47604Q58.221874 254.2573 58.940624 253.6323Q59.675 252.99167 60.909374 252.99167Q62.14375 252.99167 62.8625 253.67917Q63.58125 254.36667 63.58125 255.3823Q63.58125 255.89792 63.3625 256.39792Q63.159374 256.8823 62.659374 257.4448Q62.175 257.99167 61.05 258.9448Q60.096874 259.74167 59.815624 260.03854Q59.55 260.3198 59.378124 260.60104L63.596874 260.60104ZM65.05 259.36667L66.15938 259.27292Q66.28438 260.08542 66.72188 260.49167Q67.175 260.89792 67.81563 260.89792Q68.56563 260.89792 69.09688 260.3198Q69.62813 259.74167 69.62813 258.80417Q69.62813 257.89792 69.1125 257.3823Q68.6125 256.85104 67.78438 256.85104Q67.28438 256.85104 66.8625 257.08542Q66.45625 257.3198 66.22188 257.67917L65.2375 257.55417L66.06563 253.14792L70.34688 253.14792L70.34688 254.14792L66.90938 254.14792L66.45625 256.46042Q67.22188 255.91354 68.06563 255.91354Q69.19063 255.91354 69.95625 256.6948Q70.7375 257.47604 70.7375 258.71042Q70.7375 259.86667 70.06563 260.72604Q69.2375 261.7573 67.81563 261.7573Q66.64375 261.7573 65.89375 261.10104Q65.15938 260.4448 65.05 259.36667ZM72.05 257.3823Q72.05 255.85104 72.3625 254.92917Q72.675 253.99167 73.28438 253.49167Q73.90938 252.99167 74.84688 252.99167Q75.53438 252.99167 76.05 253.27292Q76.58125 253.55417 76.925 254.08542Q77.26875 254.60104 77.45625 255.35104Q77.64375 256.10104 77.64375 257.3823Q77.64375 258.89792 77.33125 259.8198Q77.03438 260.74167 76.40938 261.2573Q75.8 261.7573 74.84688 261.7573Q73.6125 261.7573 72.89375 260.86667Q72.05 259.80417 72.05 257.3823ZM73.12813 257.3823Q73.12813 259.49167 73.62813 260.1948Q74.12813 260.89792 74.84688 260.89792Q75.58125 260.89792 76.06563 260.1948Q76.56563 259.49167 76.56563 257.3823Q76.56563 255.2573 76.06563 254.5698Q75.58125 253.86667 74.83125 253.86667Q74.1125 253.86667 73.675 254.47604Q73.12813 255.2573 73.12813 257.3823ZM79.05 257.3823Q79.05 255.85104 79.3625 254.92917Q79.675 253.99167 80.28438 253.49167Q80.90938 252.99167 81.84688 252.99167Q82.53438 252.99167 83.05 253.27292Q83.58125 253.55417 83.925 254.08542Q84.26875 254.60104 84.45625 255.35104Q84.64375 256.10104 84.64375 257.3823Q84.64375 258.89792 84.33125 259.8198Q84.03438 260.74167 83.40938 261.2573Q82.8 261.7573 81.84688 261.7573Q80.6125 261.7573 79.89375 260.86667Q79.05 259.80417 79.05 257.3823ZM80.12813 257.3823Q80.12813 259.49167 80.62813 260.1948Q81.12813 260.89792 81.84688 260.89792Q82.58125 260.89792 83.06563 260.1948Q83.56563 259.49167 83.56563 257.3823Q83.56563 255.2573 83.06563 254.5698Q82.58125 253.86667 81.83125 253.86667Q81.1125 253.86667 80.675 254.47604Q80.12813 255.2573 80.12813 257.3823ZM86.64375 261.61667L86.64375 260.41354L87.84688 260.41354L87.84688 261.61667L86.64375 261.61667ZM89.05 257.3823Q89.05 255.85104 89.3625 254.92917Q89.675 253.99167 90.28438 253.49167Q90.90938 252.99167 91.84688 252.99167Q92.53438 252.99167 93.05 253.27292Q93.58125 253.55417 93.925 254.08542Q94.26875 254.60104 94.45625 255.35104Q94.64375 256.10104 94.64375 257.3823Q94.64375 258.89792 94.33125 259.8198Q94.03438 260.74167 93.40938 261.2573Q92.8 261.7573 91.84688 261.7573Q90.6125 261.7573 89.89375 260.86667Q89.05 259.80417 89.05 257.3823ZM90.12813 257.3823Q90.12813 259.49167 90.62813 260.1948Q91.12813 260.89792 91.84688 260.89792Q92.58125 260.89792 93.06563 260.1948Q93.56563 259.49167 93.56563 257.3823Q93.56563 255.2573 93.06563 254.5698Q92.58125 253.86667 91.83125 253.86667Q91.1125 253.86667 90.675 254.47604Q90.12813 255.2573 90.12813 257.3823ZM96.05 257.3823Q96.05 255.85104 96.3625 254.92917Q96.675 253.99167 97.28438 253.49167Q97.90938 252.99167 98.84688 252.99167Q99.53438 252.99167 100.05 253.27292Q100.58125 253.55417 100.925 254.08542Q101.26875 254.60104 101.45625 255.35104Q101.64375 256.10104 101.64375 257.3823Q101.64375 258.89792 101.33125 259.8198Q101.03438 260.74167 100.40938 261.2573Q99.8 261.7573 98.84688 261.7573Q97.6125 261.7573 96.89375 260.86667Q96.05 259.80417 96.05 257.3823ZM97.12813 257.3823Q97.12813 259.49167 97.62813 260.1948Q98.12813 260.89792 98.84688 260.89792Q99.58125 260.89792 100.06563 260.1948Q100.56563 259.49167 100.56563 257.3823Q100.56563 255.2573 100.06563 254.5698Q99.58125 253.86667 98.83125 253.86667Q98.1125 253.86667 97.675 254.47604Q97.12813 255.2573 97.12813 257.3823Z" fill-rule="nonzero"/><path fill="#000000" d="M58.05 216.53334L59.159374 216.43959Q59.284374 217.25209 59.721874 217.65834Q60.175 218.06459 60.815624 218.06459Q61.565624 218.06459 62.096874 217.48647Q62.628124 216.90834 62.628124 215.97084Q62.628124 215.06459 62.1125 214.54897Q61.6125 214.01772 60.784374 214.01772Q60.284374 214.01772 59.8625 214.25209Q59.45625 214.48647 59.221874 214.84584L58.2375 214.72084L59.065624 210.31459L63.346874 210.31459L63.346874 211.31459L59.909374 211.31459L59.45625 213.62709Q60.221874 213.08022 61.065624 213.08022Q62.190624 213.08022 62.95625 213.86147Q63.7375 214.64272 63.7375 215.87709Q63.7375 217.03334 63.065624 217.89272Q62.2375 218.92397 60.815624 218.92397Q59.64375 218.92397 58.89375 218.26772Q58.159374 217.61147 58.05 216.53334ZM65.05 214.54897Q65.05 213.01772 65.3625 212.09584Q65.675 211.15834 66.28438 210.65834Q66.90938 210.15834 67.84688 210.15834Q68.53438 210.15834 69.05 210.43959Q69.58125 210.72084 69.925 211.25209Q70.26875 211.76772 70.45625 212.51772Q70.64375 213.26772 70.64375 214.54897Q70.64375 216.06459 70.33125 216.98647Q70.03438 217.90834 69.40938 218.42397Q68.8 218.92397 67.84688 218.92397Q66.6125 218.92397 65.89375 218.03334Q65.05 216.97084 65.05 214.54897ZM66.12813 214.54897Q66.12813 216.65834 66.62813 217.36147Q67.12813 218.06459 67.84688 218.06459Q68.58125 218.06459 69.06563 217.36147Q69.56563 216.65834 69.56563 214.54897Q69.56563 212.42397 69.06563 211.73647Q68.58125 211.03334 67.83125 211.03334Q67.1125 211.03334 66.675 211.64272Q66.12813 212.42397 66.12813 214.54897ZM72.05 214.54897Q72.05 213.01772 72.3625 212.09584Q72.675 211.15834 73.28438 210.65834Q73.90938 210.15834 74.84688 210.15834Q75.53438 210.15834 76.05 210.43959Q76.58125 210.72084 76.925 211.25209Q77.26875 211.76772 77.45625 212.51772Q77.64375 213.26772 77.64375 214.54897Q77.64375 216.06459 77.33125 216.98647Q77.03438 217.90834 76.40938 218.42397Q75.8 218.92397 74.84688 218.92397Q73.6125 218.92397 72.89375 218.03334Q72.05 216.97084 72.05 214.54897ZM73.12813 214.54897Q73.12813 216.65834 73.62813 217.36147Q74.12813 218.06459 74.84688 218.06459Q75.58125 218.06459 76.06563 217.36147Q76.56563 216.65834 76.56563 214.54897Q76.56563 212.42397 76.06563 211.73647Q75.58125 211.03334 74.83125 211.03334Q74.1125 211.03334 73.675 211.64272Q73.12813 212.42397 73.12813 214.54897ZM79.05 214.54897Q79.05 213.01772 79.3625 212.09584Q79.675 211.15834 80.28438 210.65834Q80.90938 210.15834 81.84688 210.15834Q82.53438 210.15834 83.05 210.43959Q83.58125 210.72084 83.925 211.25209Q84.26875 211.76772 84.45625 212.51772Q84.64375 213.26772 84.64375 214.54897Q84.64375 216.06459 84.33125 216.98647Q84.03438 217.90834 83.40938 218.42397Q82.8 218.92397 81.84688 218.92397Q80.6125 218.92397 79.89375 218.03334Q79.05 216.97084 79.05 214.54897ZM80.12813 214.54897Q80.12813 216.65834 80.62813 217.36147Q81.12813 218.06459 81.84688 218.06459Q82.58125 218.06459 83.06563 217.36147Q83.56563 216.65834 83.56563 214.54897Q83.56563 212.42397 83.06563 211.73647Q82.58125 211.03334 81.83125 211.03334Q81.1125 211.03334 80.675 211.64272Q80.12813 212.42397 80.12813 214.54897ZM86.64375 218.78334L86.64375 217.58022L87.84688 217.58022L87.84688 218.78334L86.64375 218.78334ZM89.05 214.54897Q89.05 213.01772 89.3625 212.09584Q89.675 211.15834 90.28438 210.65834Q90.90938 210.15834 91.84688 210.15834Q92.53438 210.15834 93.05 210.43959Q93.58125 210.72084 93.925 211.25209Q94.26875 211.76772 94.45625 212.51772Q94.64375 213.26772 94.64375 214.54897Q94.64375 216.06459 94.33125 216.98647Q94.03438 217.90834 93.40938 218.42397Q92.8 218.92397 91.84688 218.92397Q90.6125 218.92397 89.89375 218.03334Q89.05 216.97084 89.05 214.54897ZM90.12813 214.54897Q90.12813 216.65834 90.62813 217.36147Q91.12813 218.06459 91.84688 218.06459Q92.58125 218.06459 93.06563 217.36147Q93.56563 216.65834 93.56563 214.54897Q93.56563 212.42397 93.06563 211.73647Q92.58125 211.03334 91.83125 211.03334Q91.1125 211.03334 90.675 211.64272Q90.12813 212.42397 90.12813 214.54897ZM96.05 214.54897Q96.05 213.01772 96.3625 212.09584Q96.675 211.15834 97.28438 210.65834Q97.90938 210.15834 98.84688 210.15834Q99.53438 210.15834 100.05 210.43959Q100.58125 210.72084 100.925 211.25209Q101.26875 211.76772 101.45625 212.51772Q101.64375 213.26772 101.64375 214.54897Q101.64375 216.06459 101.33125 216.98647Q101.03438 217.90834 100.40938 218.42397Q99.8 218.92397 98.84688 218.92397Q97.6125 218.92397 96.89375 218.03334Q96.05 216.97084 96.05 214.54897ZM97.12813 214.54897Q97.12813 216.65834 97.62813 217.36147Q98.12813 218.06459 98.84688 218.06459Q99.58125 218.06459 100.06563 217.36147Q100.56563 216.65834 100.56563 214.54897Q100.56563 212.42397 100.06563 211.73647Q99.58125 211.03334 98.83125 211.03334Q98.1125 211.03334 97.675 211.64272Q97.12813 212.42397 97.12813 214.54897Z" fill-rule="nonzero"/><path fill="#000000" d="M58.1125 168.48125L58.1125 167.46562L63.675 167.46562L63.675 168.29375Q62.8625 169.16875 62.05 170.62187Q61.253124 172.05937 60.815624 173.59062Q60.4875 174.66875 60.409374 175.95L59.315624 175.95Q59.33125 174.93437 59.70625 173.49687Q60.096874 172.05937 60.8 170.73125Q61.51875 169.40312 62.33125 168.48125L58.1125 168.48125ZM65.05 173.7L66.15938 173.60625Q66.28438 174.41875 66.72188 174.825Q67.175 175.23125 67.81563 175.23125Q68.56563 175.23125 69.09688 174.65312Q69.62813 174.075 69.62813 173.1375Q69.62813 172.23125 69.1125 171.71562Q68.6125 171.18437 67.78438 171.18437Q67.28438 171.18437 66.8625 171.41875Q66.45625 171.65312 66.22188 172.0125L65.2375 171.8875L66.06563 167.48125L70.34688 167.48125L70.34688 168.48125L66.90938 168.48125L66.45625 170.79375Q67.22188 170.24687 68.06563 170.24687Q69.19063 170.24687 69.95625 171.02812Q70.7375 171.80937 70.7375 173.04375Q70.7375 174.2 70.06563 175.05937Q69.2375 176.09062 67.81563 176.09062Q66.64375 176.09062 65.89375 175.43437Q65.15938 174.77812 65.05 173.7ZM72.05 171.71562Q72.05 170.18437 72.3625 169.2625Q72.675 168.325 73.28438 167.825Q73.90938 167.325 74.84688 167.325Q75.53438 167.325 76.05 167.60625Q76.58125 167.8875 76.925 168.41875Q77.26875 168.93437 77.45625 169.68437Q77.64375 170.43437 77.64375 171.71562Q77.64375 173.23125 77.33125 174.15312Q77.03438 175.075 76.40938 175.59062Q75.8 176.09062 74.84688 176.09062Q73.6125 176.09062 72.89375 175.2Q72.05 174.1375 72.05 171.71562ZM73.12813 171.71562Q73.12813 173.825 73.62813 174.52812Q74.12813 175.23125 74.84688 175.23125Q75.58125 175.23125 76.06563 174.52812Q76.56563 173.825 76.56563 171.71562Q76.56563 169.59062 76.06563 168.90312Q75.58125 168.2 74.83125 168.2Q74.1125 168.2 73.675 168.80937Q73.12813 169.59062 73.12813 171.71562ZM79.05 171.71562Q79.05 170.18437 79.3625 169.2625Q79.675 168.325 80.28438 167.825Q80.90938 167.325 81.84688 167.325Q82.53438 167.325 83.05 167.60625Q83.58125 167.8875 83.925 168.41875Q84.26875 168.93437 84.45625 169.68437Q84.64375 170.43437 84.64375 171.71562Q84.64375 173.23125 84.33125 174.15312Q84.03438 175.075 83.40938 175.59062Q82.8 176.09062 81.84688 176.09062Q80.6125 176.09062 79.89375 175.2Q79.05 174.1375 79.05 171.71562ZM80.12813 171.71562Q80.12813 173.825 80.62813 174.52812Q81.12813 175.23125 81.84688 175.23125Q82.58125 175.23125 83.06563 174.52812Q83.56563 173.825 83.56563 171.71562Q83.56563 169.59062 83.06563 168.90312Q82.58125 168.2 81.83125 168.2Q81.1125 168.2 80.675 168.80937Q80.12813 169.59062 80.12813 171.71562ZM86.64375 175.95L86.64375 174.74687L87.84688 174.74687L87.84688 175.95L86.64375 175.95ZM89.05 171.71562Q89.05 170.18437 89.3625 169.2625Q89.675 168.325 90.28438 167.825Q90.90938 167.325 91.84688 167.325Q92.53438 167.325 93.05 167.60625Q93.58125 167.8875 93.925 168.41875Q94.26875 168.93437 94.45625 169.68437Q94.64375 170.43437 94.64375 171.71562Q94.64375 173.23125 94.33125 174.15312Q94.03438 175.075 93.40938 175.59062Q92.8 176.09062 91.84688 176.09062Q90.6125 176.09062 89.89375 175.2Q89.05 174.1375 89.05 171.71562ZM90.12813 171.71562Q90.12813 173.825 90.62813 174.52812Q91.12813 175.23125 91.84688 175.23125Q92.58125 175.23125 93.06563 174.52812Q93.56563 173.825 93.56563 171.71562Q93.56563 169.59062 93.06563 168.90312Q92.58125 168.2 91.83125 168.2Q91.1125 168.2 90.675 168.80937Q90.12813 169.59062 90.12813 171.71562ZM96.05 171.71562Q96.05 170.18437 96.3625 169.2625Q96.675 168.325 97.28438 167.825Q97.90938 167.325 98.84688 167.325Q99.53438 167.325 100.05 167.60625Q100.58125 167.8875 100.925 168.41875Q101.26875 168.93437 101.45625 169.68437Q101.64375 170.43437 101.64375 171.71562Q101.64375 173.23125 101.33125 174.15312Q101.03438 175.075 100.40938 175.59062Q99.8 176.09062 98.84688 176.09062Q97.6125 176.09062 96.89375 175.2Q96.05 174.1375 96.05 171.71562ZM97.12813 171.71562Q97.12813 173.825 97.62813 174.52812Q98.12813 175.23125 98.84688 175.23125Q99.58125 175.23125 100.06563 174.52812Q100.56563 173.825 100.56563 171.71562Q100.56563 169.59062 100.06563 168.90312Q99.58125 168.2 98.83125 168.2Q98.1125 168.2 97.675 168.80937Q97.12813 169.59062 97.12813 171.71562Z" fill-rule="nonzero"/><path fill="#000000" d="M55.01875 133.11667L53.971874 133.11667L53.971874 126.39792Q53.58125 126.75729 52.95625 127.13229Q52.346874 127.49167 51.8625 127.66354L51.8625 126.64792Q52.7375 126.22604 53.39375 125.64792Q54.065624 125.05417 54.346874 124.49167L55.01875 124.49167L55.01875 133.11667ZM58.05 128.8823Q58.05 127.35104 58.3625 126.42917Q58.675 125.49167 59.284374 124.99167Q59.909374 124.49167 60.846874 124.49167Q61.534374 124.49167 62.05 124.77292Q62.58125 125.05417 62.925 125.58542Q63.26875 126.10104 63.45625 126.85104Q63.64375 127.60104 63.64375 128.8823Q63.64375 130.39792 63.33125 131.3198Q63.034374 132.24167 62.409374 132.7573Q61.8 133.2573 60.846874 133.2573Q59.6125 133.2573 58.89375 132.36667Q58.05 131.30417 58.05 128.8823ZM59.128124 128.8823Q59.128124 130.99167 59.628124 131.6948Q60.128124 132.39792 60.846874 132.39792Q61.58125 132.39792 62.065624 131.6948Q62.565624 130.99167 62.565624 128.8823Q62.565624 126.75729 62.065624 126.06979Q61.58125 125.36667 60.83125 125.36667Q60.1125 125.36667 59.675 125.97604Q59.128124 126.75729 59.128124 128.8823ZM65.05 128.8823Q65.05 127.35104 65.3625 126.42917Q65.675 125.49167 66.28438 124.99167Q66.90938 124.49167 67.84688 124.49167Q68.53438 124.49167 69.05 124.77292Q69.58125 125.05417 69.925 125.58542Q70.26875 126.10104 70.45625 126.85104Q70.64375 127.60104 70.64375 128.8823Q70.64375 130.39792 70.33125 131.3198Q70.03438 132.24167 69.40938 132.7573Q68.8 133.2573 67.84688 133.2573Q66.6125 133.2573 65.89375 132.36667Q65.05 131.30417 65.05 128.8823ZM66.12813 128.8823Q66.12813 130.99167 66.62813 131.6948Q67.12813 132.39792 67.84688 132.39792Q68.58125 132.39792 69.06563 131.6948Q69.56563 130.99167 69.56563 128.8823Q69.56563 126.75729 69.06563 126.06979Q68.58125 125.36667 67.83125 125.36667Q67.1125 125.36667 66.675 125.97604Q66.12813 126.75729 66.12813 128.8823ZM72.05 128.8823Q72.05 127.35104 72.3625 126.42917Q72.675 125.49167 73.28438 124.99167Q73.90938 124.49167 74.84688 124.49167Q75.53438 124.49167 76.05 124.77292Q76.58125 125.05417 76.925 125.58542Q77.26875 126.10104 77.45625 126.85104Q77.64375 127.60104 77.64375 128.8823Q77.64375 130.39792 77.33125 131.3198Q77.03438 132.24167 76.40938 132.7573Q75.8 133.2573 74.84688 133.2573Q73.6125 133.2573 72.89375 132.36667Q72.05 131.30417 72.05 128.8823ZM73.12813 128.8823Q73.12813 130.99167 73.62813 131.6948Q74.12813 132.39792 74.84688 132.39792Q75.58125 132.39792 76.06563 131.6948Q76.56563 130.99167 76.56563 128.8823Q76.56563 126.75729 76.06563 126.06979Q75.58125 125.36667 74.83125 125.36667Q74.1125 125.36667 73.675 125.97604Q73.12813 126.75729 73.12813 128.8823ZM79.05 128.8823Q79.05 127.35104 79.3625 126.42917Q79.675 125.49167 80.28438 124.99167Q80.90938 124.49167 81.84688 124.49167Q82.53438 124.49167 83.05 124.77292Q83.58125 125.05417 83.925 125.58542Q84.26875 126.10104 84.45625 126.85104Q84.64375 127.60104 84.64375 128.8823Q84.64375 130.39792 84.33125 131.3198Q84.03438 132.24167 83.40938 132.7573Q82.8 133.2573 81.84688 133.2573Q80.6125 133.2573 79.89375 132.36667Q79.05 131.30417 79.05 128.8823ZM80.12813 128.8823Q80.12813 130.99167 80.62813 131.6948Q81.12813 132.39792 81.84688 132.39792Q82.58125 132.39792 83.06563 131.6948Q83.56563 130.99167 83.56563 128.8823Q83.56563 126.75729 83.06563 126.06979Q82.58125 125.36667 81.83125 125.36667Q81.1125 125.36667 80.675 125.97604Q80.12813 126.75729 80.12813 128.8823ZM86.64375 133.11667L86.64375 131.91354L87.84688 131.91354L87.84688 133.11667L86.64375 133.11667ZM89.05 128.8823Q89.05 127.35104 89.3625 126.42917Q89.675 125.49167 90.28438 124.99167Q90.90938 124.49167 91.84688 124.49167Q92.53438 124.49167 93.05 124.77292Q93.58125 125.05417 93.925 125.58542Q94.26875 126.10104 94.45625 126.85104Q94.64375 127.60104 94.64375 128.8823Q94.64375 130.39792 94.33125 131.3198Q94.03438 132.24167 93.40938 132.7573Q92.8 133.2573 91.84688 133.2573Q90.6125 133.2573 89.89375 132.36667Q89.05 131.30417 89.05 128.8823ZM90.12813 128.8823Q90.12813 130.99167 90.62813 131.6948Q91.12813 132.39792 91.84688 132.39792Q92.58125 132.39792 93.06563 131.6948Q93.56563 130.99167 93.56563 128.8823Q93.56563 126.75729 93.06563 126.06979Q92.58125 125.36667 91.83125 125.36667Q91.1125 125.36667 90.675 125.97604Q90.12813 126.75729 90.12813 128.8823ZM96.05 128.8823Q96.05 127.35104 96.3625 126.42917Q96.675 125.49167 97.28438 124.99167Q97.90938 124.49167 98.84688 124.49167Q99.53438 124.49167 100.05 124.77292Q100.58125 125.05417 100.925 125.58542Q101.26875 126.10104 101.45625 126.85104Q101.64375 127.60104 101.64375 128.8823Q101.64375 130.39792 101.33125 131.3198Q101.03438 132.24167 100.40938 132.7573Q99.8 133.2573 98.84688 133.2573Q97.6125 133.2573 96.89375 132.36667Q96.05 131.30417 96.05 128.8823ZM97.12813 128.8823Q97.12813 130.99167 97.62813 131.6948Q98.12813 132.39792 98.84688 132.39792Q99.58125 132.39792 100.06563 131.6948Q100.56563 130.99167 100.56563 128.8823Q100.56563 126.75729 100.06563 126.06979Q99.58125 125.36667 98.83125 125.36667Q98.1125 125.36667 97.675 125.97604Q97.12813 126.75729 97.12813 128.8823Z" fill-rule="nonzero"/><path fill="#000000" d="M55.01875 90.28333L53.971874 90.28333L53.971874 83.56458Q53.58125 83.92396 52.95625 84.29896Q52.346874 84.65833 51.8625 84.83021L51.8625 83.81458Q52.7375 83.39271 53.39375 82.81458Q54.065624 82.22083 54.346874 81.65833L55.01875 81.65833L55.01875 90.28333ZM63.596874 89.26771L63.596874 90.28333L57.909374 90.28333Q57.909374 89.90833 58.034374 89.54896Q58.253124 88.97083 58.721874 88.40833Q59.20625 87.84583 60.1125 87.11146Q61.51875 85.95521 62.003124 85.28333Q62.503124 84.61146 62.503124 84.01771Q62.503124 83.39271 62.05 82.97083Q61.596874 82.53333 60.878124 82.53333Q60.1125 82.53333 59.659374 82.98646Q59.20625 83.43958 59.190624 84.25208L58.1125 84.14271Q58.221874 82.92396 58.940624 82.29896Q59.675 81.65833 60.909374 81.65833Q62.14375 81.65833 62.8625 82.34583Q63.58125 83.03333 63.58125 84.04896Q63.58125 84.56458 63.3625 85.06458Q63.159374 85.54896 62.659374 86.11146Q62.175 86.65833 61.05 87.61146Q60.096874 88.40833 59.815624 88.70521Q59.55 88.98646 59.378124 89.26771L63.596874 89.26771ZM65.05 88.03333L66.15938 87.93958Q66.28438 88.75208 66.72188 89.15833Q67.175 89.56458 67.81563 89.56458Q68.56563 89.56458 69.09688 88.98646Q69.62813 88.40833 69.62813 87.47083Q69.62813 86.56458 69.1125 86.04896Q68.6125 85.51771 67.78438 85.51771Q67.28438 85.51771 66.8625 85.75208Q66.45625 85.98646 66.22188 86.34583L65.2375 86.22083L66.06563 81.81458L70.34688 81.81458L70.34688 82.81458L66.90938 82.81458L66.45625 85.12708Q67.22188 84.58021 68.06563 84.58021Q69.19063 84.58021 69.95625 85.36146Q70.7375 86.14271 70.7375 87.37708Q70.7375 88.53333 70.06563 89.39271Q69.2375 90.42396 67.81563 90.42396Q66.64375 90.42396 65.89375 89.76771Q65.15938 89.11146 65.05 88.03333ZM72.05 86.04896Q72.05 84.51771 72.3625 83.59583Q72.675 82.65833 73.28438 82.15833Q73.90938 81.65833 74.84688 81.65833Q75.53438 81.65833 76.05 81.93958Q76.58125 82.22083 76.925 82.75208Q77.26875 83.26771 77.45625 84.01771Q77.64375 84.76771 77.64375 86.04896Q77.64375 87.56458 77.33125 88.48646Q77.03438 89.40833 76.40938 89.92396Q75.8 90.42396 74.84688 90.42396Q73.6125 90.42396 72.89375 89.53333Q72.05 88.47083 72.05 86.04896ZM73.12813 86.04896Q73.12813 88.15833 73.62813 88.86146Q74.12813 89.56458 74.84688 89.56458Q75.58125 89.56458 76.06563 88.86146Q76.56563 88.15833 76.56563 86.04896Q76.56563 83.92396 76.06563 83.23646Q75.58125 82.53333 74.83125 82.53333Q74.1125 82.53333 73.675 83.14271Q73.12813 83.92396 73.12813 86.04896ZM79.05 86.04896Q79.05 84.51771 79.3625 83.59583Q79.675 82.65833 80.28438 82.15833Q80.90938 81.65833 81.84688 81.65833Q82.53438 81.65833 83.05 81.93958Q83.58125 82.22083 83.925 82.75208Q84.26875 83.26771 84.45625 84.01771Q84.64375 84.76771 84.64375 86.04896Q84.64375 87.56458 84.33125 88.48646Q84.03438 89.40833 83.40938 89.92396Q82.8 90.42396 81.84688 90.42396Q80.6125 90.42396 79.89375 89.53333Q79.05 88.47083 79.05 86.04896ZM80.12813 86.04896Q80.12813 88.15833 80.62813 88.86146Q81.12813 89.56458 81.84688 89.56458Q82.58125 89.56458 83.06563 88.86146Q83.56563 88.15833 83.56563 86.04896Q83.56563 83.92396 83.06563 83.23646Q82.58125 82.53333 81.83125 82.53333Q81.1125 82.53333 80.675 83.14271Q80.12813 83.92396 80.12813 86.04896ZM86.64375 90.28333L86.64375 89.08021L87.84688 89.08021L87.84688 90.28333L86.64375 90.28333ZM89.05 86.04896Q89.05 84.51771 89.3625 83.59583Q89.675 82.65833 90.28438 82.15833Q90.90938 81.65833 91.84688 81.65833Q92.53438 81.65833 93.05 81.93958Q93.58125 82.22083 93.925 82.75208Q94.26875 83.26771 94.45625 84.01771Q94.64375 84.76771 94.64375 86.04896Q94.64375 87.56458 94.33125 88.48646Q94.03438 89.40833 93.40938 89.92396Q92.8 90.42396 91.84688 90.42396Q90.6125 90.42396 89.89375 89.53333Q89.05 88.47083 89.05 86.04896ZM90.12813 86.04896Q90.12813 88.15833 90.62813 88.86146Q91.12813 89.56458 91.84688 89.56458Q92.58125 89.56458 93.06563 88.86146Q93.56563 88.15833 93.56563 86.04896Q93.56563 83.92396 93.06563 83.23646Q92.58125 82.53333 91.83125 82.53333Q91.1125 82.53333 90.675 83.14271Q90.12813 83.92396 90.12813 86.04896ZM96.05 86.04896Q96.05 84.51771 96.3625 83.59583Q96.675 82.65833 97.28438 82.15833Q97.90938 81.65833 98.84688 81.65833Q99.53438 81.65833 100.05 81.93958Q100.58125 82.22083 100.925 82.75208Q101.26875 83.26771 101.45625 84.01771Q101.64375 84.76771 101.64375 86.04896Q101.64375 87.56458 101.33125 88.48646Q101.03438 89.40833 100.40938 89.92396Q99.8 90.42396 98.84688 90.42396Q97.6125 90.42396 96.89375 89.53333Q96.05 88.47083 96.05 86.04896ZM97.12813 86.04896Q97.12813 88.15833 97.62813 88.86146Q98.12813 89.56458 98.84688 89.56458Q99.58125 89.56458 100.06563 88.86146Q100.56563 88.15833 100.56563 86.04896Q100.56563 83.92396 100.06563 83.23646Q99.58125 82.53333 98.83125 82.53333Q98.1125 82.53333 97.675 83.14271Q97.12813 83.92396 97.12813 86.04896Z" fill-rule="nonzero"/><path fill="#000000" d="M121.24273 317.45L120.195854 317.45L120.195854 310.73126Q119.80523 311.09064 119.18023 311.46564Q118.570854 311.825 118.08648 311.9969L118.08648 310.98126Q118.96148 310.5594 119.61773 309.98126Q120.289604 309.3875 120.570854 308.825L121.24273 308.825L121.24273 317.45ZM124.27398 313.21564Q124.27398 311.6844 124.58648 310.7625Q124.89898 309.825 125.508354 309.325Q126.133354 308.825 127.070854 308.825Q127.758354 308.825 128.27399 309.10626Q128.80524 309.3875 129.14899 309.91876Q129.49274 310.4344 129.68024 311.1844Q129.86774 311.9344 129.86774 313.21564Q129.86774 314.73126 129.55524 315.65314Q129.25836 316.575 128.63336 317.09064Q128.02399 317.59064 127.070854 317.59064Q125.83648 317.59064 125.11773 316.7Q124.27398 315.6375 124.27398 313.21564ZM125.352104 313.21564Q125.352104 315.325 125.852104 316.02814Q126.352104 316.73126 127.070854 316.73126Q127.80523 316.73126 128.28961 316.02814Q128.78961 315.325 128.78961 313.21564Q128.78961 311.09064 128.28961 310.40314Q127.80523 309.7 127.05523 309.7Q126.33648 309.7 125.89898 310.3094Q125.352104 311.09064 125.352104 313.21564Z" fill-rule="nonzero"/><path fill="#000000" d="M227.07796 315.2L228.18733 315.10626Q228.31233 315.91876 228.74983 316.325Q229.20296 316.73126 229.84358 316.73126Q230.59358 316.73126 231.12483 316.15314Q231.65608 315.575 231.65608 314.6375Q231.65608 313.73126 231.14046 313.21564Q230.64046 312.6844 229.81233 312.6844Q229.31233 312.6844 228.89046 312.91876Q228.4842 313.15314 228.24983 313.5125L227.26546 313.3875L228.09358 308.98126L232.37483 308.98126L232.37483 309.98126L228.93733 309.98126L228.4842 312.29376Q229.24983 311.7469 230.09358 311.7469Q231.21858 311.7469 231.9842 312.52814Q232.76546 313.3094 232.76546 314.54376Q232.76546 315.7 232.09358 316.5594Q231.26546 317.59064 229.84358 317.59064Q228.6717 317.59064 227.9217 316.9344Q227.18733 316.27814 227.07796 315.2ZM234.07796 313.21564Q234.07796 311.6844 234.39046 310.7625Q234.70296 309.825 235.31233 309.325Q235.93733 308.825 236.87483 308.825Q237.56233 308.825 238.07796 309.10626Q238.6092 309.3875 238.95296 309.91876Q239.2967 310.4344 239.4842 311.1844Q239.6717 311.9344 239.6717 313.21564Q239.6717 314.73126 239.3592 315.65314Q239.06233 316.575 238.43733 317.09064Q237.82796 317.59064 236.87483 317.59064Q235.64046 317.59064 234.9217 316.7Q234.07796 315.6375 234.07796 313.21564ZM235.15608 313.21564Q235.15608 315.325 235.65608 316.02814Q236.15608 316.73126 236.87483 316.73126Q237.6092 316.73126 238.09358 316.02814Q238.59358 315.325 238.59358 313.21564Q238.59358 311.09064 238.09358 310.40314Q237.6092 309.7 236.8592 309.7Q236.14046 309.7 235.70296 310.3094Q235.15608 311.09064 235.15608 313.21564Z" fill-rule="nonzero"/><path fill="#000000" d="M274.8367 317.45L273.78983 317.45L273.78983 310.73126Q273.3992 311.09064 272.7742 311.46564Q272.16483 311.825 271.68045 311.9969L271.68045 310.98126Q272.55545 310.5594 273.2117 309.98126Q273.88358 309.3875 274.16483 308.825L274.8367 308.825L274.8367 317.45ZM277.86795 313.21564Q277.86795 311.6844 278.18045 310.7625Q278.49295 309.825 279.10233 309.325Q279.72733 308.825 280.66483 308.825Q281.35233 308.825 281.86795 309.10626Q282.3992 309.3875 282.74295 309.91876Q283.0867 310.4344 283.2742 311.1844Q283.4617 311.9344 283.4617 313.21564Q283.4617 314.73126 283.1492 315.65314Q282.85233 316.575 282.22733 317.09064Q281.61795 317.59064 280.66483 317.59064Q279.43045 317.59064 278.7117 316.7Q277.86795 315.6375 277.86795 313.21564ZM278.94608 313.21564Q278.94608 315.325 279.44608 316.02814Q279.94608 316.73126 280.66483 316.73126Q281.3992 316.73126 281.88358 316.02814Q282.38358 315.325 282.38358 313.21564Q282.38358 311.09064 281.88358 310.40314Q281.3992 309.7 280.6492 309.7Q279.93045 309.7 279.49295 310.3094Q278.94608 311.09064 278.94608 313.21564ZM284.86795 313.21564Q284.86795 311.6844 285.18045 310.7625Q285.49295 309.825 286.10233 309.325Q286.72733 308.825 287.66483 308.825Q288.35233 308.825 288.86795 309.10626Q289.3992 309.3875 289.74295 309.91876Q290.0867 310.4344 290.2742 311.1844Q290.4617 311.9344 290.4617 313.21564Q290.4617 314.73126 290.1492 315.65314Q289.85233 316.575 289.22733 317.09064Q288.61795 317.59064 287.66483 317.59064Q286.43045 317.59064 285.7117 316.7Q284.86795 315.6375 284.86795 313.21564ZM285.94608 313.21564Q285.94608 315.325 286.44608 316.02814Q286.94608 316.73126 287.66483 316.73126Q288.3992 316.73126 288.88358 316.02814Q289.38358 315.325 289.38358 313.21564Q289.38358 311.09064 288.88358 310.40314Q288.3992 309.7 287.6492 309.7Q286.93045 309.7 286.49295 310.3094Q285.94608 311.09064 285.94608 313.21564Z" fill-rule="nonzero"/><path fill="#000000" d="M380.67194 315.2L381.7813 315.10626Q381.9063 315.91876 382.3438 316.325Q382.79694 316.73126 383.43756 316.73126Q384.18756 316.73126 384.7188 316.15314Q385.25006 315.575 385.25006 314.6375Q385.25006 313.73126 384.73444 313.21564Q384.23444 312.6844 383.4063 312.6844Q382.9063 312.6844 382.48444 312.91876Q382.0782 313.15314 381.8438 313.5125L380.85944 313.3875L381.68756 308.98126L385.9688 308.98126L385.9688 309.98126L382.5313 309.98126L382.0782 312.29376Q382.8438 311.7469 383.68756 311.7469Q384.81256 311.7469 385.5782 312.52814Q386.35944 313.3094 386.35944 314.54376Q386.35944 315.7 385.68756 316.5594Q384.85944 317.59064 383.43756 317.59064Q382.2657 317.59064 381.5157 316.9344Q380.7813 316.27814 380.67194 315.2ZM387.67194 313.21564Q387.67194 311.6844 387.98444 310.7625Q388.29694 309.825 388.9063 309.325Q389.5313 308.825 390.4688 308.825Q391.1563 308.825 391.67194 309.10626Q392.2032 309.3875 392.54694 309.91876Q392.8907 310.4344 393.0782 311.1844Q393.2657 311.9344 393.2657 313.21564Q393.2657 314.73126 392.9532 315.65314Q392.6563 316.575 392.0313 317.09064Q391.42194 317.59064 390.4688 317.59064Q389.23444 317.59064 388.5157 316.7Q387.67194 315.6375 387.67194 313.21564ZM388.75006 313.21564Q388.75006 315.325 389.25006 316.02814Q389.75006 316.73126 390.4688 316.73126Q391.2032 316.73126 391.68756 316.02814Q392.18756 315.325 392.18756 313.21564Q392.18756 311.09064 391.68756 310.40314Q391.2032 309.7 390.4532 309.7Q389.73444 309.7 389.29694 310.3094Q388.75006 311.09064 388.75006 313.21564ZM394.67194 313.21564Q394.67194 311.6844 394.98444 310.7625Q395.29694 309.825 395.9063 309.325Q396.5313 308.825 397.4688 308.825Q398.1563 308.825 398.67194 309.10626Q399.2032 309.3875 399.54694 309.91876Q399.8907 310.4344 400.0782 311.1844Q400.2657 311.9344 400.2657 313.21564Q400.2657 314.73126 399.9532 315.65314Q399.6563 316.575 399.0313 317.09064Q398.42194 317.59064 397.4688 317.59064Q396.23444 317.59064 395.5157 316.7Q394.67194 315.6375 394.67194 313.21564ZM395.75006 313.21564Q395.75006 315.325 396.25006 316.02814Q396.75006 316.73126 397.4688 316.73126Q398.2032 316.73126 398.68756 316.02814Q399.18756 315.325 399.18756 313.21564Q399.18756 311.09064 398.68756 310.40314Q398.2032 309.7 397.4532 309.7Q396.73444 309.7 396.29694 310.3094Q395.75006 311.09064 395.75006 313.21564Z" fill-rule="nonzero"/><path fill="#000000" d="M428.4307 317.45L427.38382 317.45L427.38382 310.73126Q426.9932 311.09064 426.3682 311.46564Q425.75882 311.825 425.27444 311.9969L425.27444 310.98126Q426.14944 310.5594 426.8057 309.98126Q427.47757 309.3875 427.75882 308.825L428.4307 308.825L428.4307 317.45ZM431.46194 313.21564Q431.46194 311.6844 431.77444 310.7625Q432.08694 309.825 432.69632 309.325Q433.32132 308.825 434.25882 308.825Q434.94632 308.825 435.46194 309.10626Q435.9932 309.3875 436.33694 309.91876Q436.6807 310.4344 436.8682 311.1844Q437.0557 311.9344 437.0557 313.21564Q437.0557 314.73126 436.7432 315.65314Q436.44632 316.575 435.82132 317.09064Q435.21194 317.59064 434.25882 317.59064Q433.02444 317.59064 432.3057 316.7Q431.46194 315.6375 431.46194 313.21564ZM432.54007 313.21564Q432.54007 315.325 433.04007 316.02814Q433.54007 316.73126 434.25882 316.73126Q434.9932 316.73126 435.47757 316.02814Q435.97757 315.325 435.97757 313.21564Q435.97757 311.09064 435.47757 310.40314Q434.9932 309.7 434.2432 309.7Q433.52444 309.7 433.08694 310.3094Q432.54007 311.09064 432.54007 313.21564ZM438.46194 313.21564Q438.46194 311.6844 438.77444 310.7625Q439.08694 309.825 439.69632 309.325Q440.32132 308.825 441.25882 308.825Q441.94632 308.825 442.46194 309.10626Q442.9932 309.3875 443.33694 309.91876Q443.6807 310.4344 443.8682 311.1844Q444.0557 311.9344 444.0557 313.21564Q444.0557 314.73126 443.7432 315.65314Q443.44632 316.575 442.82132 317.09064Q442.21194 317.59064 441.25882 317.59064Q440.02444 317.59064 439.3057 316.7Q438.46194 315.6375 438.46194 313.21564ZM439.54007 313.21564Q439.54007 315.325 440.04007 316.02814Q440.54007 316.73126 441.25882 316.73126Q441.9932 316.73126 442.47757 316.02814Q442.97757 315.325 442.97757 313.21564Q442.97757 311.09064 442.47757 310.40314Q441.9932 309.7 441.2432 309.7Q440.52444 309.7 440.08694 310.3094Q439.54007 311.09064 439.54007 313.21564ZM445.46194 313.21564Q445.46194 311.6844 445.77444 310.7625Q446.08694 309.825 446.69632 309.325Q447.32132 308.825 448.25882 308.825Q448.94632 308.825 449.46194 309.10626Q449.9932 309.3875 450.33694 309.91876Q450.6807 310.4344 450.8682 311.1844Q451.0557 311.9344 451.0557 313.21564Q451.0557 314.73126 450.7432 315.65314Q450.44632 316.575 449.82132 317.09064Q449.21194 317.59064 448.25882 317.59064Q447.02444 317.59064 446.3057 316.7Q445.46194 315.6375 445.46194 313.21564ZM446.54007 313.21564Q446.54007 315.325 447.04007 316.02814Q447.54007 316.73126 448.25882 316.73126Q448.9932 316.73126 449.47757 316.02814Q449.97757 315.325 449.97757 313.21564Q449.97757 311.09064 449.47757 310.40314Q448.9932 309.7 448.2432 309.7Q447.52444 309.7 447.08694 310.3094Q446.54007 311.09064 446.54007 313.21564Z" fill-rule="nonzero"/><path fill="#000000" d="M534.2659 315.2L535.3753 315.10626Q535.5003 315.91876 535.9378 316.325Q536.3909 316.73126 537.03156 316.73126Q537.78156 316.73126 538.3128 316.15314Q538.84406 315.575 538.84406 314.6375Q538.84406 313.73126 538.3284 313.21564Q537.8284 312.6844 537.0003 312.6844Q536.5003 312.6844 536.0784 312.91876Q535.6722 313.15314 535.4378 313.5125L534.4534 313.3875L535.28156 308.98126L539.5628 308.98126L539.5628 309.98126L536.1253 309.98126L535.6722 312.29376Q536.4378 311.7469 537.28156 311.7469Q538.40656 311.7469 539.1722 312.52814Q539.9534 313.3094 539.9534 314.54376Q539.9534 315.7 539.28156 316.5594Q538.4534 317.59064 537.03156 317.59064Q535.8597 317.59064 535.1097 316.9344Q534.3753 316.27814 534.2659 315.2ZM541.2659 313.21564Q541.2659 311.6844 541.5784 310.7625Q541.8909 309.825 542.5003 309.325Q543.1253 308.825 544.0628 308.825Q544.7503 308.825 545.2659 309.10626Q545.7972 309.3875 546.1409 309.91876Q546.4847 310.4344 546.6722 311.1844Q546.8597 311.9344 546.8597 313.21564Q546.8597 314.73126 546.5472 315.65314Q546.2503 316.575 545.6253 317.09064Q545.0159 317.59064 544.0628 317.59064Q542.8284 317.59064 542.1097 316.7Q541.2659 315.6375 541.2659 313.21564ZM542.34406 313.21564Q542.34406 315.325 542.84406 316.02814Q543.34406 316.73126 544.0628 316.73126Q544.7972 316.73126 545.28156 316.02814Q545.78156 315.325 545.78156 313.21564Q545.78156 311.09064 545.28156 310.40314Q544.7972 309.7 544.0472 309.7Q543.3284 309.7 542.8909 310.3094Q542.34406 311.09064 542.34406 313.21564ZM548.2659 313.21564Q548.2659 311.6844 548.5784 310.7625Q548.8909 309.825 549.5003 309.325Q550.1253 308.825 551.0628 308.825Q551.7503 308.825 552.2659 309.10626Q552.7972 309.3875 553.1409 309.91876Q553.4847 310.4344 553.6722 311.1844Q553.8597 311.9344 553.8597 313.21564Q553.8597 314.73126 553.5472 315.65314Q553.2503 316.575 552.6253 317.09064Q552.0159 317.59064 551.0628 317.59064Q549.8284 317.59064 549.1097 316.7Q548.2659 315.6375 548.2659 313.21564ZM549.34406 313.21564Q549.34406 315.325 549.84406 316.02814Q550.34406 316.73126 551.0628 316.73126Q551.7972 316.73126 552.28156 316.02814Q552.78156 315.325 552.78156 313.21564Q552.78156 311.09064 552.28156 310.40314Q551.7972 309.7 551.0472 309.7Q550.3284 309.7 549.8909 310.3094Q549.34406 311.09064 549.34406 313.21564ZM555.2659 313.21564Q555.2659 311.6844 555.5784 310.7625Q555.8909 309.825 556.5003 309.325Q557.1253 308.825 558.0628 308.825Q558.7503 308.825 559.2659 309.10626Q559.7972 309.3875 560.1409 309.91876Q560.4847 310.4344 560.6722 311.1844Q560.8597 311.9344 560.8597 313.21564Q560.8597 314.73126 560.5472 315.65314Q560.2503 316.575 559.6253 317.09064Q559.0159 317.59064 558.0628 317.59064Q556.8284 317.59064 556.1097 316.7Q555.2659 315.6375 555.2659 313.21564ZM556.34406 313.21564Q556.34406 315.325 556.84406 316.02814Q557.34406 316.73126 558.0628 316.73126Q558.7972 316.73126 559.28156 316.02814Q559.78156 315.325 559.78156 313.21564Q559.78156 311.09064 559.28156 310.40314Q558.7972 309.7 558.0472 309.7Q557.3284 309.7 556.8909 310.3094Q556.34406 311.09064 556.34406 313.21564Z" fill-rule="nonzero"/><path stroke="#4285f4" stroke-width="4.0" stroke-linecap="butt" d="M155.62305 57.916668L167.62305 57.916668" fill-rule="nonzero"/><path fill="#1a1a1a" d="M178.13867 61.916668L175.7793 55.697918L176.88867 55.697918L178.23242 59.416668Q178.43555 60.026043 178.62305 60.666668Q178.76367 60.182293 179.01367 59.494793L180.4043 55.697918L181.48242 55.697918L179.12305 61.916668L178.13867 61.916668ZM181.38867 61.916668L181.38867 53.322918L182.45117 53.322918L182.45117 61.916668L181.38867 61.916668ZM188.66992 59.916668L189.76367 60.041668Q189.51367 60.994793 188.81055 61.526043Q188.10742 62.057293 187.0293 62.057293Q185.66992 62.057293 184.85742 61.213543Q184.06055 60.369793 184.06055 58.854168Q184.06055 57.291668 184.87305 56.432293Q185.68555 55.557293 186.9668 55.557293Q188.2168 55.557293 188.99805 56.401043Q189.79492 57.244793 189.79492 58.791668Q189.79492 58.885418 189.79492 59.072918L185.1543 59.072918Q185.2168 60.104168 185.73242 60.651043Q186.24805 61.182293 187.0293 61.182293Q187.60742 61.182293 188.01367 60.885418Q188.43555 60.572918 188.66992 59.916668ZM185.2168 58.213543L188.68555 58.213543Q188.62305 57.416668 188.29492 57.026043Q187.7793 56.416668 186.98242 56.416668Q186.24805 56.416668 185.74805 56.901043Q185.26367 57.385418 185.2168 58.213543ZM192.74805 57.260418Q192.0918 57.010418 191.76367 56.572918Q191.45117 56.119793 191.45117 55.510418Q191.45117 54.572918 192.12305 53.932293Q192.81055 53.291668 193.91992 53.291668Q195.04492 53.291668 195.73242 53.947918Q196.41992 54.604168 196.41992 55.541668Q196.41992 56.135418 196.10742 56.572918Q195.79492 57.010418 195.1543 57.260418Q195.95117 57.510418 196.35742 58.088543Q196.76367 58.666668 196.76367 59.463543Q196.76367 60.557293 195.98242 61.307293Q195.2168 62.057293 193.93555 62.057293Q192.66992 62.057293 191.88867 61.307293Q191.10742 60.557293 191.10742 59.432293Q191.10742 58.588543 191.5293 58.026043Q191.9668 57.463543 192.74805 57.260418ZM192.5293 55.463543Q192.5293 56.072918 192.91992 56.463543Q193.32617 56.854168 193.95117 56.854168Q194.56055 56.854168 194.95117 56.479168Q195.3418 56.088543 195.3418 55.526043Q195.3418 54.947918 194.93555 54.557293Q194.5293 54.151043 193.93555 54.151043Q193.32617 54.151043 192.91992 54.541668Q192.5293 54.932293 192.5293 55.463543ZM192.20117 59.432293Q192.20117 59.885418 192.4043 60.307293Q192.62305 60.729168 193.04492 60.963543Q193.4668 61.197918 193.95117 61.197918Q194.70117 61.197918 195.18555 60.713543Q195.68555 60.229168 195.68555 59.479168Q195.68555 58.713543 195.18555 58.213543Q194.68555 57.713543 193.91992 57.713543Q193.16992 57.713543 192.68555 58.213543Q192.20117 58.697918 192.20117 59.432293ZM198.7168 61.916668L198.7168 60.713543L199.91992 60.713543L199.91992 61.916668L198.7168 61.916668ZM203.13867 61.916668L200.7793 55.697918L201.88867 55.697918L203.23242 59.416668Q203.43555 60.026043 203.62305 60.666668Q203.76367 60.182293 204.01367 59.494793L205.4043 55.697918L206.48242 55.697918L204.12305 61.916668L203.13867 61.916668Z" fill-rule="nonzero"/><path stroke="#ea4335" stroke-width="4.0" stroke-linecap="butt" d="M221.62305 57.916668L233.62305 57.916668" fill-rule="nonzero"/><path fill="#1a1a1a" d="M244.13867 61.916668L241.7793 55.697918L242.88867 55.697918L244.23242 59.416668Q244.43555 60.026043 244.62305 60.666668Q244.76367 60.182293 245.01367 59.494793L246.4043 55.697918L247.48242 55.697918L245.12305 61.916668L244.13867 61.916668ZM247.38867 61.916668L247.38867 53.322918L248.45117 53.322918L248.45117 61.916668L247.38867 61.916668ZM254.66992 59.916668L255.76367 60.041668Q255.51367 60.994793 254.81055 61.526043Q254.10742 62.057293 253.0293 62.057293Q251.66992 62.057293 250.85742 61.213543Q250.06055 60.369793 250.06055 58.854168Q250.06055 57.291668 250.87305 56.432293Q251.68555 55.557293 252.9668 55.557293Q254.2168 55.557293 254.99805 56.401043Q255.79492 57.244793 255.79492 58.791668Q255.79492 58.885418 255.79492 59.072918L251.1543 59.072918Q251.2168 60.104168 251.73242 60.651043Q252.24805 61.182293 253.0293 61.182293Q253.60742 61.182293 254.01367 60.885418Q254.43555 60.572918 254.66992 59.916668ZM251.2168 58.213543L254.68555 58.213543Q254.62305 57.416668 254.29492 57.026043Q253.7793 56.416668 252.98242 56.416668Q252.24805 56.416668 251.74805 56.901043Q251.26367 57.385418 251.2168 58.213543ZM262.5918 55.432293L261.54492 55.510418Q261.4043 54.885418 261.1543 54.604168Q260.7168 54.151043 260.0918 54.151043Q259.5918 54.151043 259.20117 54.432293Q258.7168 54.807293 258.41992 55.510418Q258.13867 56.197918 258.12305 57.479168Q258.49805 56.901043 259.04492 56.619793Q259.60742 56.338543 260.2168 56.338543Q261.26367 56.338543 261.99805 57.119793Q262.74805 57.901043 262.74805 59.119793Q262.74805 59.932293 262.38867 60.635418Q262.04492 61.322918 261.43555 61.697918Q260.82617 62.057293 260.06055 62.057293Q258.73242 62.057293 257.9043 61.088543Q257.07617 60.119793 257.07617 57.901043Q257.07617 55.401043 257.99805 54.276043Q258.79492 53.291668 260.1543 53.291668Q261.16992 53.291668 261.81055 53.869793Q262.4668 54.432293 262.5918 55.432293ZM258.29492 59.135418Q258.29492 59.682293 258.51367 60.182293Q258.74805 60.666668 259.1543 60.932293Q259.57617 61.197918 260.04492 61.197918Q260.70117 61.197918 261.18555 60.666668Q261.66992 60.119793 261.66992 59.197918Q261.66992 58.307293 261.18555 57.791668Q260.7168 57.276043 259.99805 57.276043Q259.2793 57.276043 258.7793 57.791668Q258.29492 58.307293 258.29492 59.135418ZM267.49805 61.916668L267.49805 59.854168L263.7793 59.854168L263.7793 58.885418L267.70117 53.322918L268.56055 53.322918L268.56055 58.885418L269.7168 58.885418L269.7168 59.854168L268.56055 59.854168L268.56055 61.916668L267.49805 61.916668ZM267.49805 58.885418L267.49805 55.026043L264.81055 58.885418L267.49805 58.885418ZM271.7168 61.916668L271.7168 60.713543L272.91992 60.713543L272.91992 61.916668L271.7168 61.916668ZM276.13867 61.916668L273.7793 55.697918L274.88867 55.697918L276.23242 59.416668Q276.43555 60.026043 276.62305 60.666668Q276.76367 60.182293 277.01367 59.494793L278.4043 55.697918L279.48242 55.697918L277.12305 61.916668L276.13867 61.916668Z" fill-rule="nonzero"/><path fill="#757575" d="M30.940624 36.01875Q32.26875 36.925 33.378124 37.346874L32.815624 38.659374Q31.26875 38.1125 29.7375 36.909374Q28.14375 37.8 26.221874 37.8Q24.284374 37.8 22.690624 36.8625Q21.1125 35.925 20.253124 34.221874Q19.409374 32.51875 19.409374 30.39375Q19.409374 28.26875 20.26875 26.534374Q21.128124 24.8 22.70625 23.89375Q24.3 22.971874 26.26875 22.971874Q28.253124 22.971874 29.83125 23.925Q31.425 24.8625 32.253124 26.565624Q33.096874 28.253124 33.096874 30.378124Q33.096874 32.14375 32.565624 33.565624Q32.034374 34.971874 30.940624 36.01875ZM26.76875 33.596874Q28.409374 34.05 29.471874 34.95625Q31.14375 33.440624 31.14375 30.378124Q31.14375 28.64375 30.55 27.346874Q29.971874 26.05 28.83125 25.33125Q27.690624 24.6125 26.26875 24.6125Q24.159374 24.6125 22.753124 26.065624Q21.3625 27.503124 21.3625 30.39375Q21.3625 33.190624 22.7375 34.690624Q24.128124 36.175 26.26875 36.175Q27.284374 36.175 28.190624 35.784374Q27.3 35.221874 26.315624 34.971874L26.76875 33.596874ZM36.128124 37.55L36.128124 23.2375L46.4875 23.2375L46.4875 24.925L38.034374 24.925L38.034374 29.3L45.940624 29.3L45.940624 30.9875L38.034374 30.9875L38.034374 35.8625L46.815624 35.8625L46.815624 37.55L36.128124 37.55ZM49.034374 37.55L49.034374 23.2375L51.89375 23.2375L55.26875 33.3625Q55.7375 34.784374 55.95625 35.4875Q56.20625 34.70625 56.721874 33.190624L60.14375 23.2375L62.690624 23.2375L62.690624 37.55L60.878124 37.55L60.878124 25.565624L56.70625 37.55L55.003124 37.55L50.8625 25.3625L50.8625 37.55L49.034374 37.55ZM75.4875 23.2375L77.37813 23.2375L77.37813 31.503124Q77.37813 33.659374 76.89375 34.940624Q76.40938 36.20625 75.12813 37.003124Q73.8625 37.8 71.78438 37.8Q69.76875 37.8 68.4875 37.1125Q67.22188 36.409374 66.675 35.096874Q66.12813 33.784374 66.12813 31.503124L66.12813 23.2375L68.01875 23.2375L68.01875 31.4875Q68.01875 33.3625 68.3625 34.253124Q68.70625 35.128124 69.55 35.6125Q70.39375 36.08125 71.62813 36.08125Q73.70625 36.08125 74.59688 35.14375Q75.4875 34.190624 75.4875 31.4875L75.4875 23.2375ZM87.75313 37.55L83.8 27.175L85.65938 27.175L87.89375 33.39375Q88.25313 34.39375 88.55 35.471874Q88.78438 34.659374 89.20625 33.503124L91.50313 27.175L93.31563 27.175L89.39375 37.55L87.75313 37.55ZM93.83125 37.55L93.83125 23.2375L95.58125 23.2375L95.58125 37.55L93.83125 37.55ZM104.97188 34.20625L106.78438 34.440624Q106.3625 36.01875 105.19063 36.909374Q104.03438 37.784374 102.22188 37.784374Q99.95625 37.784374 98.6125 36.39375Q97.28438 34.9875 97.28438 32.45625Q97.28438 29.83125 98.62813 28.39375Q99.97188 26.940624 102.12813 26.940624Q104.20625 26.940624 105.51875 28.3625Q106.84688 29.76875 106.84688 32.346874Q106.84688 32.503124 106.83125 32.815624L99.09688 32.815624Q99.19063 34.51875 100.06563 35.425Q100.94063 36.33125 102.2375 36.33125Q103.20625 36.33125 103.87813 35.83125Q104.56563 35.315624 104.97188 34.20625ZM99.19063 31.3625L104.9875 31.3625Q104.87813 30.065624 104.33125 29.409374Q103.4875 28.39375 102.14375 28.39375Q100.94063 28.39375 100.1125 29.20625Q99.28438 30.003124 99.19063 31.3625ZM111.08125 29.784374Q109.9875 29.378124 109.45625 28.64375Q108.94063 27.89375 108.94063 26.8625Q108.94063 25.3 110.06563 24.2375Q111.19063 23.175 113.05 23.175Q114.925 23.175 116.06563 24.26875Q117.20625 25.346874 117.20625 26.909374Q117.20625 27.909374 116.675 28.64375Q116.15938 29.378124 115.09688 29.784374Q116.425 30.221874 117.1125 31.175Q117.8 32.128124 117.8 33.45625Q117.8 35.3 116.4875 36.55Q115.19063 37.8 113.08125 37.8Q110.95625 37.8 109.65938 36.55Q108.3625 35.284374 108.3625 33.409374Q108.3625 32.01875 109.06563 31.08125Q109.78438 30.128124 111.08125 29.784374ZM110.7375 26.8Q110.7375 27.815624 111.39375 28.471874Q112.05 29.1125 113.08125 29.1125Q114.09688 29.1125 114.75313 28.471874Q115.40938 27.83125 115.40938 26.909374Q115.40938 25.940624 114.7375 25.284374Q114.06563 24.6125 113.06563 24.6125Q112.06563 24.6125 111.39375 25.26875Q110.7375 25.909374 110.7375 26.8ZM110.175 33.425Q110.175 34.175 110.51875 34.878124Q110.87813 35.58125 111.58125 35.971874Q112.28438 36.346874 113.09688 36.346874Q114.3625 36.346874 115.175 35.534374Q116.00313 34.721874 116.00313 33.471874Q116.00313 32.20625 115.15938 31.378124Q114.31563 30.55 113.03438 30.55Q111.8 30.55 110.9875 31.378124Q110.175 32.190624 110.175 33.425ZM120.3625 37.55L120.3625 35.55L122.3625 35.55L122.3625 37.55L120.3625 37.55ZM128.75313 37.55L124.8 27.175L126.65938 27.175L128.89375 33.39375Q129.25313 34.39375 129.55 35.471874Q129.78438 34.659374 130.20625 33.503124L132.50313 27.175L134.31563 27.175L130.39375 37.55L128.75313 37.55ZM143.75313 37.55L139.8 27.175L141.65938 27.175L143.89375 33.39375Q144.25313 34.39375 144.55 35.471874Q144.78438 34.659374 145.20625 33.503124L147.50313 27.175L149.31563 27.175L145.39375 37.55L143.75313 37.55ZM158.75313 37.55L154.8 27.175L156.65938 27.175L158.89375 33.39375Q159.25313 34.39375 159.55 35.471874Q159.78438 34.659374 160.20625 33.503124L162.50313 27.175L164.31563 27.175L160.39375 37.55L158.75313 37.55ZM164.83125 37.55L164.83125 23.2375L166.58125 23.2375L166.58125 37.55L164.83125 37.55ZM175.97188 34.20625L177.78438 34.440624Q177.3625 36.01875 176.19063 36.909374Q175.03438 37.784374 173.22188 37.784374Q170.95625 37.784374 169.6125 36.39375Q168.28438 34.9875 168.28438 32.45625Q168.28438 29.83125 169.62813 28.39375Q170.97188 26.940624 173.12813 26.940624Q175.20625 26.940624 176.51875 28.3625Q177.84688 29.76875 177.84688 32.346874Q177.84688 32.503124 177.83125 32.815624L170.09688 32.815624Q170.19063 34.51875 171.06563 35.425Q171.94063 36.33125 173.2375 36.33125Q174.20625 36.33125 174.87813 35.83125Q175.56563 35.315624 175.97188 34.20625ZM170.19063 31.3625L175.9875 31.3625Q175.87813 30.065624 175.33125 29.409374Q174.4875 28.39375 173.14375 28.39375Q171.94063 28.39375 171.1125 29.20625Q170.28438 30.003124 170.19063 31.3625ZM188.50313 26.7375L186.75313 26.878124Q186.51875 25.846874 186.09688 25.378124Q185.37813 24.6125 184.33125 24.6125Q183.4875 24.6125 182.8625 25.08125Q182.03438 25.690624 181.55 26.8625Q181.06563 28.01875 181.05 30.159374Q181.69063 29.20625 182.59688 28.7375Q183.51875 28.26875 184.53438 28.26875Q186.28438 28.26875 187.51875 29.565624Q188.75313 30.846874 188.75313 32.89375Q188.75313 34.253124 188.175 35.409374Q187.59688 36.565624 186.58125 37.190624Q185.56563 37.8 184.26875 37.8Q182.08125 37.8 180.69063 36.190624Q179.3 34.565624 179.3 30.846874Q179.3 26.70625 180.83125 24.815624Q182.175 23.175 184.44063 23.175Q186.12813 23.175 187.20625 24.128124Q188.28438 25.065624 188.50313 26.7375ZM181.33125 32.909374Q181.33125 33.815624 181.70625 34.64375Q182.09688 35.471874 182.78438 35.909374Q183.4875 36.346874 184.2375 36.346874Q185.3625 36.346874 186.15938 35.45625Q186.95625 34.55 186.95625 33.003124Q186.95625 31.51875 186.15938 30.675Q185.37813 29.815624 184.175 29.815624Q182.9875 29.815624 182.15938 30.675Q181.33125 31.51875 181.33125 32.909374ZM196.01875 37.55L196.01875 34.128124L189.8 34.128124L189.8 32.503124L196.33125 23.2375L197.76875 23.2375L197.76875 32.503124L199.70625 32.503124L199.70625 34.128124L197.76875 34.128124L197.76875 37.55L196.01875 37.55ZM196.01875 32.503124L196.01875 26.05L191.53438 32.503124L196.01875 32.503124ZM202.3625 37.55L202.3625 35.55L204.3625 35.55L204.3625 37.55L202.3625 37.55ZM210.75313 37.55L206.8 27.175L208.65938 27.175L210.89375 33.39375Q211.25313 34.39375 211.55 35.471874Q211.78438 34.659374 212.20625 33.503124L214.50313 27.175L216.31563 27.175L212.39375 37.55L210.75313 37.55ZM222.8625 41.51875L222.8625 27.175L224.47188 27.175L224.47188 28.51875Q225.03438 27.7375 225.7375 27.346874Q226.45625 26.940624 227.47188 26.940624Q228.8 26.940624 229.81563 27.628124Q230.83125 28.315624 231.34688 29.565624Q231.87813 30.8 231.87813 32.284374Q231.87813 33.878124 231.3 35.159374Q230.7375 36.425 229.64375 37.1125Q228.55 37.784374 227.34688 37.784374Q226.47188 37.784374 225.76875 37.409374Q225.08125 37.034374 224.62813 36.471874L224.62813 41.51875L222.8625 41.51875ZM224.45625 32.425Q224.45625 34.425 225.26875 35.378124Q226.08125 36.33125 227.2375 36.33125Q228.40938 36.33125 229.2375 35.346874Q230.08125 34.3625 230.08125 32.26875Q230.08125 30.3 229.25313 29.315624Q228.44063 28.315624 227.31563 28.315624Q226.19063 28.315624 225.31563 29.378124Q224.45625 30.425 224.45625 32.425ZM240.97188 34.20625L242.78438 34.440624Q242.3625 36.01875 241.19063 36.909374Q240.03438 37.784374 238.22188 37.784374Q235.95625 37.784374 234.6125 36.39375Q233.28438 34.9875 233.28438 32.45625Q233.28438 29.83125 234.62813 28.39375Q235.97188 26.940624 238.12813 26.940624Q240.20625 26.940624 241.51875 28.3625Q242.84688 29.76875 242.84688 32.346874Q242.84688 32.503124 242.83125 32.815624L235.09688 32.815624Q235.19063 34.51875 236.06563 35.425Q236.94063 36.33125 238.2375 36.33125Q239.20625 36.33125 239.87813 35.83125Q240.56563 35.315624 240.97188 34.20625ZM235.19063 31.3625L240.9875 31.3625Q240.87813 30.065624 240.33125 29.409374Q239.4875 28.39375 238.14375 28.39375Q236.94063 28.39375 236.1125 29.20625Q235.28438 30.003124 235.19063 31.3625ZM244.84688 37.55L244.84688 27.175L246.425 27.175L246.425 28.753124Q247.03438 27.64375 247.55 27.3Q248.06563 26.940624 248.675 26.940624Q249.56563 26.940624 250.4875 27.503124L249.87813 29.14375Q249.2375 28.753124 248.59688 28.753124Q248.01875 28.753124 247.55 29.1125Q247.09688 29.45625 246.89375 30.065624Q246.6125 31.003124 246.6125 32.1125L246.6125 37.55L244.84688 37.55ZM252.28438 37.55L252.28438 28.55L250.7375 28.55L250.7375 27.175L252.28438 27.175L252.28438 26.08125Q252.28438 25.034374 252.47188 24.51875Q252.72188 23.83125 253.3625 23.409374Q254.00313 22.9875 255.15938 22.9875Q255.90938 22.9875 256.8 23.159374L256.53436 24.690624Q255.9875 24.596874 255.50313 24.596874Q254.70625 24.596874 254.3625 24.940624Q254.03438 25.284374 254.03438 26.221874L254.03438 27.175L256.0656 27.175L256.0656 28.55L254.03438 28.55L254.03438 37.55L252.28438 37.55ZM257.22186 32.3625Q257.22186 29.4875 258.8156 28.096874Q260.15936 26.940624 262.08124 26.940624Q264.22186 26.940624 265.5656 28.346874Q266.925 29.753124 266.925 32.221874Q266.925 34.221874 266.33124 35.378124Q265.7375 36.51875 264.58124 37.159374Q263.4406 37.784374 262.08124 37.784374Q259.89374 37.784374 258.55 36.39375Q257.22186 34.9875 257.22186 32.3625ZM259.01874 32.3625Q259.01874 34.3625 259.8781 35.346874Q260.7531 36.33125 262.08124 36.33125Q263.39374 36.33125 264.2531 35.346874Q265.1281 34.346874 265.1281 32.3Q265.1281 30.378124 264.2531 29.39375Q263.3781 28.39375 262.08124 28.39375Q260.7531 28.39375 259.8781 29.39375Q259.01874 30.378124 259.01874 32.3625ZM268.84686 37.55L268.84686 27.175L270.425 27.175L270.425 28.753124Q271.03436 27.64375 271.55 27.3Q272.0656 26.940624 272.675 26.940624Q273.5656 26.940624 274.4875 27.503124L273.8781 29.14375Q273.2375 28.753124 272.59686 28.753124Q272.01874 28.753124 271.55 29.1125Q271.09686 29.45625 270.89374 30.065624Q270.6125 31.003124 270.6125 32.1125L270.6125 37.55L268.84686 37.55ZM275.8625 37.55L275.8625 27.175L277.4406 27.175L277.4406 28.628124Q277.925 27.878124 278.7375 27.409374Q279.55 26.940624 280.58124 26.940624Q281.7375 26.940624 282.47186 27.425Q283.20624 27.89375 283.51874 28.753124Q284.7531 26.940624 286.72186 26.940624Q288.26874 26.940624 289.09686 27.8Q289.925 28.659374 289.925 30.425L289.925 37.55L288.175 37.55L288.175 31.01875Q288.175 29.95625 288.0031 29.503124Q287.83124 29.034374 287.3781 28.753124Q286.9406 28.471874 286.33124 28.471874Q285.2375 28.471874 284.5031 29.20625Q283.78436 29.925 283.78436 31.51875L283.78436 37.55L282.03436 37.55L282.03436 30.815624Q282.03436 29.64375 281.59686 29.065624Q281.175 28.471874 280.1906 28.471874Q279.45624 28.471874 278.8156 28.8625Q278.1906 29.253124 277.90936 30.003124Q277.6281 30.753124 277.6281 32.175L277.6281 37.55L275.8625 37.55ZM298.64374 36.26875Q297.65936 37.096874 296.7531 37.440624Q295.84686 37.784374 294.8156 37.784374Q293.1125 37.784374 292.1906 36.95625Q291.26874 36.1125 291.26874 34.815624Q291.26874 34.05 291.6125 33.425Q291.97186 32.8 292.53436 32.425Q293.09686 32.034374 293.8 31.83125Q294.3156 31.70625 295.3625 31.565624Q297.4875 31.315624 298.4875 30.971874Q298.5031 30.6125 298.5031 30.503124Q298.5031 29.440624 298.0031 28.9875Q297.33124 28.39375 296.0031 28.39375Q294.7531 28.39375 294.15936 28.83125Q293.58124 29.26875 293.3 30.378124L291.58124 30.14375Q291.8156 29.034374 292.34686 28.3625Q292.8781 27.675 293.89374 27.315624Q294.90936 26.940624 296.2531 26.940624Q297.58124 26.940624 298.40936 27.253124Q299.2375 27.565624 299.6281 28.05Q300.01874 28.51875 300.175 29.2375Q300.26874 29.690624 300.26874 30.8625L300.26874 33.20625Q300.26874 35.659374 300.3781 36.315624Q300.4875 36.95625 300.83124 37.55L298.9875 37.55Q298.72186 37.003124 298.64374 36.26875ZM298.4875 32.346874Q297.53436 32.7375 295.6125 33.003124Q294.53436 33.159374 294.08124 33.3625Q293.64374 33.55 293.39374 33.925Q293.14374 34.3 293.14374 34.76875Q293.14374 35.471874 293.675 35.940624Q294.20624 36.409374 295.2375 36.409374Q296.2531 36.409374 297.03436 35.971874Q297.83124 35.51875 298.20624 34.753124Q298.4875 34.14375 298.4875 32.9875L298.4875 32.346874ZM302.8625 37.55L302.8625 27.175L304.45624 27.175L304.45624 28.659374Q305.59686 26.940624 307.7531 26.940624Q308.6906 26.940624 309.47186 27.284374Q310.26874 27.6125 310.65936 28.159374Q311.05 28.70625 311.20624 29.45625Q311.3 29.95625 311.3 31.175L311.3 37.55L309.53436 37.55L309.53436 31.2375Q309.53436 30.159374 309.33124 29.628124Q309.1281 29.096874 308.59686 28.784374Q308.08124 28.471874 307.3781 28.471874Q306.2531 28.471874 305.4406 29.190624Q304.6281 29.89375 304.6281 31.878124L304.6281 37.55L302.8625 37.55ZM319.64374 33.753124L321.3625 33.971874Q321.08124 35.76875 319.90936 36.784374Q318.7531 37.784374 317.05 37.784374Q314.925 37.784374 313.6281 36.39375Q312.33124 35.003124 312.33124 32.409374Q312.33124 30.721874 312.8781 29.471874Q313.4406 28.20625 314.58124 27.58125Q315.72186 26.940624 317.0656 26.940624Q318.7531 26.940624 319.8156 27.8Q320.89374 28.659374 321.20624 30.221874L319.4875 30.4875Q319.2531 29.440624 318.6281 28.925Q318.0031 28.39375 317.1281 28.39375Q315.8 28.39375 314.97186 29.346874Q314.14374 30.3 314.14374 32.346874Q314.14374 34.440624 314.9406 35.39375Q315.7375 36.33125 317.03436 36.33125Q318.0656 36.33125 318.7531 35.70625Q319.45624 35.065624 319.64374 33.753124ZM329.97186 34.20625L331.78436 34.440624Q331.3625 36.01875 330.1906 36.909374Q329.03436 37.784374 327.22186 37.784374Q324.95624 37.784374 323.6125 36.39375Q322.28436 34.9875 322.28436 32.45625Q322.28436 29.83125 323.6281 28.39375Q324.97186 26.940624 327.1281 26.940624Q329.20624 26.940624 330.51874 28.3625Q331.84686 29.76875 331.84686 32.346874Q331.84686 32.503124 331.83124 32.815624L324.09686 32.815624Q324.1906 34.51875 325.0656 35.425Q325.9406 36.33125 327.2375 36.33125Q328.20624 36.33125 328.8781 35.83125Q329.5656 35.315624 329.97186 34.20625ZM324.1906 31.3625L329.9875 31.3625Q329.8781 30.065624 329.33124 29.409374Q328.4875 28.39375 327.14374 28.39375Q325.9406 28.39375 325.1125 29.20625Q324.28436 30.003124 324.1906 31.3625ZM343.22186 41.753124Q341.76874 39.925 340.76874 37.471874Q339.76874 35.003124 339.76874 32.3625Q339.76874 30.034374 340.51874 27.909374Q341.39374 25.440624 343.22186 22.9875L344.4875 22.9875Q343.3 25.01875 342.925 25.89375Q342.33124 27.2375 341.9875 28.70625Q341.5656 30.534374 341.5656 32.378124Q341.5656 37.065624 344.4875 41.753124L343.22186 41.753124ZM347.01874 37.55L347.01874 23.2375L348.90936 23.2375L348.90936 35.8625L355.95624 35.8625L355.95624 37.55L347.01874 37.55ZM358.03436 37.55L358.03436 23.2375L360.89374 23.2375L364.26874 33.3625Q364.7375 34.784374 364.95624 35.4875Q365.20624 34.70625 365.72186 33.190624L369.14374 23.2375L371.6906 23.2375L371.6906 37.55L369.8781 37.55L369.8781 25.565624L365.70624 37.55L364.0031 37.55L359.8625 25.3625L359.8625 37.55L358.03436 37.55ZM384.4875 23.2375L386.3781 23.2375L386.3781 31.503124Q386.3781 33.659374 385.89374 34.940624Q385.40936 36.20625 384.1281 37.003124Q382.8625 37.8 380.78436 37.8Q378.76874 37.8 377.4875 37.1125Q376.22186 36.409374 375.675 35.096874Q375.1281 33.784374 375.1281 31.503124L375.1281 23.2375L377.01874 23.2375L377.01874 31.4875Q377.01874 33.3625 377.3625 34.253124Q377.70624 35.128124 378.55 35.6125Q379.39374 36.08125 380.6281 36.08125Q382.70624 36.08125 383.59686 35.14375Q384.4875 34.190624 384.4875 31.4875L384.4875 23.2375ZM388.01874 37.55L388.01874 23.2375L389.90936 23.2375L389.90936 35.8625L396.95624 35.8625L396.95624 37.55L388.01874 37.55ZM408.1125 29.128124L398.65936 29.128124L398.65936 27.4875L408.1125 27.4875L408.1125 29.128124ZM408.1125 33.471874L398.65936 33.471874L398.65936 31.83125L408.1125 31.83125L408.1125 33.471874ZM413.08124 29.784374Q411.9875 29.378124 411.45624 28.64375Q410.9406 27.89375 410.9406 26.8625Q410.9406 25.3 412.0656 24.2375Q413.1906 23.175 415.05 23.175Q416.925 23.175 418.0656 24.26875Q419.20624 25.346874 419.20624 26.909374Q419.20624 27.909374 418.675 28.64375Q418.15936 29.378124 417.09686 29.784374Q418.425 30.221874 419.1125 31.175Q419.8 32.128124 419.8 33.45625Q419.8 35.3 418.4875 36.55Q417.1906 37.8 415.08124 37.8Q412.95624 37.8 411.65936 36.55Q410.3625 35.284374 410.3625 33.409374Q410.3625 32.01875 411.0656 31.08125Q411.78436 30.128124 413.08124 29.784374ZM412.7375 26.8Q412.7375 27.815624 413.39374 28.471874Q414.05 29.1125 415.08124 29.1125Q416.09686 29.1125 416.7531 28.471874Q417.40936 27.83125 417.40936 26.909374Q417.40936 25.940624 416.7375 25.284374Q416.0656 24.6125 415.0656 24.6125Q414.0656 24.6125 413.39374 25.26875Q412.7375 25.909374 412.7375 26.8ZM412.175 33.425Q412.175 34.175 412.51874 34.878124Q412.8781 35.58125 413.58124 35.971874Q414.28436 36.346874 415.09686 36.346874Q416.3625 36.346874 417.175 35.534374Q418.0031 34.721874 418.0031 33.471874Q418.0031 32.20625 417.15936 31.378124Q416.3156 30.55 415.03436 30.55Q413.8 30.55 412.9875 31.378124Q412.175 32.190624 412.175 33.425ZM422.33124 37.55L422.33124 35.55L424.33124 35.55L424.33124 37.55Q424.33124 38.659374 423.9406 39.33125Q423.55 40.01875 422.70624 40.378124L422.20624 39.628124Q422.76874 39.39375 423.03436 38.909374Q423.3 38.440624 423.33124 37.55L422.33124 37.55ZM438.1906 37.55L432.64374 23.2375L434.6906 23.2375L438.40936 33.628124Q438.8625 34.878124 439.15936 35.971874Q439.4875 34.8 439.9406 33.628124L443.8 23.2375L445.7375 23.2375L440.1281 37.55L438.1906 37.55ZM447.01874 37.55L447.01874 23.2375L448.90936 23.2375L448.90936 35.8625L455.95624 35.8625L455.95624 37.55L447.01874 37.55ZM458.1281 37.55L458.1281 23.2375L468.4875 23.2375L468.4875 24.925L460.03436 24.925L460.03436 29.3L467.9406 29.3L467.9406 30.9875L460.03436 30.9875L460.03436 35.8625L468.8156 35.8625L468.8156 37.55L458.1281 37.55ZM471.08124 37.55L471.08124 23.2375L473.01874 23.2375L480.53436 34.471874L480.53436 23.2375L482.34686 23.2375L482.34686 37.55L480.40936 37.55L472.89374 26.3L472.89374 37.55L471.08124 37.55ZM493.1125 29.128124L483.65936 29.128124L483.65936 27.4875L493.1125 27.4875L493.1125 29.128124ZM493.1125 33.471874L483.65936 33.471874L483.65936 31.83125L493.1125 31.83125L493.1125 33.471874ZM502.0031 37.55L500.2375 37.55L500.2375 26.346874Q499.6125 26.95625 498.58124 27.565624Q497.55 28.159374 496.72186 28.471874L496.72186 26.76875Q498.20624 26.08125 499.3 25.096874Q500.40936 24.096874 500.8625 23.175L502.0031 23.175L502.0031 37.55ZM506.3781 30.4875Q506.3781 27.95625 506.89374 26.409374Q507.425 24.846874 508.45624 24.01875Q509.4875 23.175 511.05 23.175Q512.20624 23.175 513.0656 23.64375Q513.9406 24.096874 514.5031 24.971874Q515.0656 25.846874 515.39374 27.1125Q515.72186 28.3625 515.72186 30.4875Q515.72186 33.003124 515.1906 34.55Q514.675 36.096874 513.64374 36.95625Q512.6281 37.8 511.05 37.8Q508.97186 37.8 507.8 36.315624Q506.3781 34.51875 506.3781 30.4875ZM508.1906 30.4875Q508.1906 34.01875 509.0031 35.190624Q509.83124 36.346874 511.05 36.346874Q512.2531 36.346874 513.08124 35.175Q513.90936 34.003124 513.90936 30.4875Q513.90936 26.95625 513.08124 25.8Q512.2531 24.628124 511.03436 24.628124Q509.8156 24.628124 509.09686 25.659374Q508.1906 26.95625 508.1906 30.4875ZM526.6125 35.8625L526.6125 37.55L517.15936 37.55Q517.14374 36.909374 517.3625 36.33125Q517.72186 35.3625 518.51874 34.425Q519.3156 33.4875 520.8156 32.253124Q523.15936 30.346874 523.97186 29.2375Q524.8 28.1125 524.8 27.1125Q524.8 26.065624 524.05 25.346874Q523.3 24.628124 522.09686 24.628124Q520.83124 24.628124 520.0656 25.39375Q519.3 26.159374 519.3 27.503124L517.4875 27.315624Q517.675 25.3 518.8781 24.2375Q520.09686 23.175 522.14374 23.175Q524.1906 23.175 525.39374 24.315624Q526.59686 25.45625 526.59686 27.14375Q526.59686 28.003124 526.2375 28.846874Q525.89374 29.675 525.08124 30.596874Q524.26874 31.503124 522.3781 33.1125Q520.78436 34.440624 520.33124 34.909374Q519.89374 35.378124 519.59686 35.8625L526.6125 35.8625ZM534.01874 37.55L534.01874 34.128124L527.8 34.128124L527.8 32.503124L534.33124 23.2375L535.76874 23.2375L535.76874 32.503124L537.70624 32.503124L537.70624 34.128124L535.76874 34.128124L535.76874 37.55L534.01874 37.55ZM534.01874 32.503124L534.01874 26.05L529.53436 32.503124L534.01874 32.503124ZM541.01874 41.753124L539.76874 41.753124Q542.675 37.065624 542.675 32.378124Q542.675 30.534374 542.26874 28.7375Q541.925 27.26875 541.33124 25.925Q540.95624 25.034374 539.76874 22.9875L541.01874 22.9875Q542.8625 25.440624 543.7375 27.909374Q544.4875 30.034374 544.4875 32.3625Q544.4875 35.003124 543.47186 37.471874Q542.47186 39.925 541.01874 41.753124Z" fill-rule="nonzero"/></svg>